<?xml version="1.0" encoding="UTF-8" standalone="no"?>
<!-- Created with Inkscape (http://www.inkscape.org/) -->

<svg
   xmlns:dc="http://purl.org/dc/elements/1.1/"
   xmlns:cc="http://creativecommons.org/ns#"
   xmlns:rdf="http://www.w3.org/1999/02/22-rdf-syntax-ns#"
   xmlns:svg="http://www.w3.org/2000/svg"
   xmlns="http://www.w3.org/2000/svg"
   xmlns:sodipodi="http://sodipodi.sourceforge.net/DTD/sodipodi-0.dtd"
   xmlns:inkscape="http://www.inkscape.org/namespaces/inkscape"
   width="586"
   height="338"
   id="svg2"
   version="1.1"
   inkscape:version="0.48.4 r9939"
   sodipodi:docname="New document 1">
  <defs
     id="defs4" />
  <sodipodi:namedview
     id="base"
     pagecolor="#ffffff"
     bordercolor="#666666"
     borderopacity="1.0"
     inkscape:pageopacity="0.0"
     inkscape:pageshadow="2"
     inkscape:zoom="0.37802734"
     inkscape:cx="540.0309"
     inkscape:cy="458.23612"
     inkscape:document-units="px"
     inkscape:current-layer="layer1"
     showgrid="false"
     inkscape:window-width="1280"
     inkscape:window-height="750"
     inkscape:window-x="-8"
     inkscape:window-y="-8"
     inkscape:window-maximized="1" />
  <metadata
     id="metadata7">
    <rdf:RDF>
      <cc:Work
         rdf:about="">
        <dc:format>image/svg+xml</dc:format>
        <dc:type
           rdf:resource="http://purl.org/dc/dcmitype/StillImage" />
        <dc:title></dc:title>
      </cc:Work>
    </rdf:RDF>
  </metadata>
  <g
     inkscape:label="Layer 1"
     inkscape:groupmode="layer"
     id="layer1"
     transform="translate(0,-714.36218)">
    <g
       id="g2995"
       transform="translate(1.7362295e-7,714.36217)">
      <path
         d="m 219.7482,0.63411829 c 3.53743,1.03124991 2.65225,5.30559551 2.94876,8.40043541 l 1.03125,81.9462153 c 2.0625,27.117731 -4.4226,52.174051 -25.9404,69.271431 -3.53743,2.50509 -7.07377,5.3056 -10.90661,7.51744 -0.58976,0.4415 -0.73692,1.47384 -0.4415,2.20967 3.39026,3.68568 8.1061,5.45276 11.93895,8.69695 20.92805,15.91678 26.97166,39.79251 26.97166,65.43967 v 59.10065 l -0.14826,26.67733 c -0.88408,2.65225 0.14826,6.4851 -3.242,7.51744 l -9.57995,0.58866 c 0,0 -177.599547,-0.14717 -197.497438,-0.14717 -4.12718,-0.88517 -10.6122813,1.47384 -12.6758713,-3.24309 L 1.7652936,332.25183 1.3227065,289.51055 1.7652936,252.66353 c 0.4414971,-1.621 1.1795058,-3.53742 2.9476743,-4.12827 l 4.4215113,-0.58866 34.1936748,-0.29542 c 3.537427,0.59084 6.779433,-1.32667 10.021438,-0.14717 4.864099,0.73801 11.200944,-1.47383 14.296874,2.94877 0.588663,5.15734 0.588663,10.46293 1.178416,15.62245 0.442587,1.47384 1.473837,3.09484 3.09484,3.83176 13.412789,1.621 26.529068,0.73692 40.237278,0.73692 h 32.13009 c 4.27325,-1.03016 10.02143,1.17951 12.67478,-3.09484 2.20966,-17.98038 0,-36.69985 -14.44404,-48.78379 -8.84303,-9.28779 -20.33939,-12.52871 -31.83467,-15.62355 -20.780881,-1.47383 -41.562857,-0.88517 -62.344832,-1.62209 -0.884084,-0.29542 -2.06359,-0.88408 -2.505087,-1.91424 l -0.589753,-3.39026 -0.295421,-25.35066 v -25.79215 c 0.589753,-3.24309 -0.442588,-7.51635 3.09484,-8.99127 3.537427,-0.73692 7.516351,-0.58867 11.200944,-0.88518 l 45.542879,-0.4415 c 20.04396,-1.47492 40.08793,-10.90661 48.63771,-30.50908 3.39026,-10.021436 3.2431,-21.960388 2.35792,-33.014166 -1.47493,-5.306686 -7.66352,-2.948765 -11.7907,-3.685683 0,0 -68.091924,-0.442588 -74.871357,0.589753 -2.06359,1.326671 -2.06359,3.980014 -2.210755,6.337935 -0.147166,4.864099 0.295421,10.022528 -0.884085,14.591205 C 64.698792,91.863763 8.9873135,91.421176 3.2380406,90.537091 2.059625,89.948429 1.1744507,88.767833 0.88120941,87.443342 0.14429086,76.978226 -0.59371781,7.4113707 0.73404372,3.1381152 1.618128,1.8114438 3.0930552,1.222781 4.4186365,1.0745252 L 219.7482,0.63411829 z"
         id="path5-7"
         inkscape:connector-curvature="0" />
      <path
         d="m 386.14681,9.6243066 c 10.75835,7.3691854 22.10646,17.0973824 27.85574,28.7398234 0.88517,1.03234 2.35792,1.769259 3.39026,0.736919 7.07376,-12.527616 18.57013,-25.497818 31.98183,-31.3931667 13.41279,-6.4840111 29.03633,-7.51635119 45.24745,-7.22201981 0,0 65.58684,0.58975291 85.18822,0.29433137 1.47384,0.14825581 2.79942,1.32667144 3.53743,2.65443294 l 0.29542,7.0737642 2.35683,227.857179 c -0.88408,3.53743 0.73801,8.69586 -3.68459,10.1686 -7.22202,0.59085 -14.88554,0.73801 -22.10756,0.44477 h -23.58139 c -10.90771,0.73583 -22.6984,0 -33.75218,0 -2.21076,0 -4.27435,-0.88626 -5.30451,-2.94876 -0.59084,-6.77944 -0.88517,-13.55887 -0.88517,-20.63372 v -38.32195 c 0.29433,-1.61882 0.4415,-3.53634 2.20966,-4.27325 5.15843,-1.32668 11.05487,-0.4415 16.36047,-1.17951 1.91533,-0.29542 4.12718,-0.73583 5.01126,-2.79942 0.58976,-22.84447 -1.32667,-88.284148 -1.621,-98.306677 -0.73692,-4.12718 0.73801,-9.874272 -3.83285,-11.938952 -20.19113,-3.389172 -38.31976,3.832848 -50.99563,18.866641 -13.26345,15.032698 -12.96912,35.814678 -12.6737,56.154068 l 0.4415,93.58974 c -0.4415,3.6846 1.47384,9.13736 -2.65334,11.20095 -5.15843,1.1795 -11.05487,0.29542 -16.35937,0.73692 h -32.57268 c -5.15952,-1.47493 -12.9702,2.20966 -14.88662,-4.27435 l -0.29434,-5.59993 -1.47383,-109.50871 c -0.14826,-17.53888 -5.60102,-32.867003 -16.21221,-46.130447 -7.81286,-9.728197 -18.57122,-14.739461 -30.51017,-15.623545 -6.63118,0.295421 -12.96912,-0.736919 -19.01163,0.736918 -2.35792,1.179506 -2.35792,3.978925 -2.35792,6.337936 l 0.58866,96.831748 c 0.29542,3.2431 -0.44149,7.07377 2.94768,8.69586 6.0436,1.47493 13.41279,0.14826 18.86664,2.94767 1.32667,1.03234 1.17841,2.80051 1.32667,4.27435 l 0.29433,39.05777 c 0.4415,6.04252 -0.14717,11.93787 0,17.98038 -0.29433,1.47384 -1.32667,2.94767 -2.65334,3.53743 -7.07377,1.32667 -14.00145,0 -21.22347,0.44149 h -31.09557 c -10.31795,0 -21.07631,0 -30.95167,-0.58866 -4.12718,-1.18059 -2.94767,-5.89535 -3.38917,-9.13844 L 247.75219,4.4636965 c 0.14717,-1.4738371 1.03125,-3.0937498 2.50509,-3.68459275 32.57158,-0.88408424 64.11301,-0.73691855 96.83284,-0.73691855 14.44295,-0.44040695 27.56032,2.8026887 39.05669,9.5821214 z"
         id="path7-4"
         inkscape:connector-curvature="0" />
      <path
         d="m 353.83576,297.09776 1.4891,1.4891 h 27.54397 l 1.48801,-1.4891 v -26.05487 l 65.51162,-0.74564 0.74564,27.54506 c 9.45349,1.34084 19.87609,0.59629 29.77652,0.74564 l 1.48801,-1.4891 v -26.80051 c 2.01127,-1.26453 4.98837,-0.52107 7.4444,-0.74455 l 0.74455,27.54506 1.4891,1.4891 h 26.05487 l 0.74564,-27.54506 66.25508,-0.74564 0.74564,65.51163 -66.25617,0.74564 -0.74455,-27.54506 -1.49019,-1.4891 h -25.31032 l -1.4891,1.4891 v 26.79942 c -2.08321,1.33975 -5.06141,0.59629 -7.44331,0.74564 l -0.74564,-27.54506 -1.48801,-1.4891 h -28.28851 l -1.48801,1.4891 v 26.79942 l -65.51162,0.74564 -0.74564,-27.54506 -1.48801,-1.4891 h -27.54397 l -1.4891,1.4891 v 26.79942 c -2.0843,1.33975 -5.06359,0.59629 -7.4444,0.74564 l -0.74455,-27.54506 -1.4891,-1.4891 H 317.3572 l -1.488,1.4891 v 26.79942 l -65.51054,0.74564 -0.74455,-65.51163 65.51163,-0.74564 0.74455,26.80051 1.488,1.4891 h 26.80051 l 1.4891,-1.4891 0.74455,-27.54506 h 6.69985 l 0.74346,27.54506 z"
         id="path9-0"
         inkscape:connector-curvature="0" />
    </g>
  </g>
</svg>
