<?xml version="1.0" encoding="UTF-8" standalone="no"?>
<!-- Created with Inkscape (http://www.inkscape.org/) -->

<svg
   xmlns:dc="http://purl.org/dc/elements/1.1/"
   xmlns:cc="http://creativecommons.org/ns#"
   xmlns:rdf="http://www.w3.org/1999/02/22-rdf-syntax-ns#"
   xmlns:svg="http://www.w3.org/2000/svg"
   xmlns="http://www.w3.org/2000/svg"
   xmlns:sodipodi="http://sodipodi.sourceforge.net/DTD/sodipodi-0.dtd"
   xmlns:inkscape="http://www.inkscape.org/namespaces/inkscape"
   width="431"
   height="425"
   id="svg2"
   version="1.1"
   inkscape:version="0.48.4 r9939"
   sodipodi:docname="New document 1">
  <defs
     id="defs4" />
  <sodipodi:namedview
     id="base"
     pagecolor="#ffffff"
     bordercolor="#666666"
     borderopacity="1.0"
     inkscape:pageopacity="0.0"
     inkscape:pageshadow="2"
     inkscape:zoom="0.7"
     inkscape:cx="203.47681"
     inkscape:cy="235.06607"
     inkscape:document-units="px"
     inkscape:current-layer="layer1"
     showgrid="false"
     inkscape:window-width="1366"
     inkscape:window-height="706"
     inkscape:window-x="-8"
     inkscape:window-y="-8"
     inkscape:window-maximized="1" />
  <metadata
     id="metadata7">
    <rdf:RDF>
      <cc:Work
         rdf:about="">
        <dc:format>image/svg+xml</dc:format>
        <dc:type
           rdf:resource="http://purl.org/dc/dcmitype/StillImage" />
        <dc:title></dc:title>
      </cc:Work>
    </rdf:RDF>
  </metadata>
  <g
     inkscape:label="Layer 1"
     inkscape:groupmode="layer"
     id="layer1"
     transform="translate(0,-627.36218)">
    <path
       inkscape:connector-curvature="0"
       id="path5-7"
       d="m 231.91839,640.74868 c 2.78058,8.7762 5.47426,17.63929 8.42863,26.32859 0.34757,0.78204 0.78204,1.73786 1.47718,1.99854 0.52136,0.0869 0.78117,-0.43447 1.04272,-0.86893 1.21563,-7.73348 3.04125,-15.20628 3.7364,-23.20044 0.52135,-1.21651 0.78117,-2.78058 2.08456,-3.38883 1.39116,-0.52136 2.95436,-0.26068 3.99795,0.69514 2.34611,3.91019 -0.17379,8.34174 -0.26068,12.42571 l -2.34611,18.50822 c -0.69515,4.25775 -0.86893,8.77619 -1.99854,12.86017 -0.26155,2.34611 -0.26155,4.9529 -2.26009,6.43008 -1.73786,0.52136 -3.56261,-0.34757 -5.12582,-1.12961 -3.64951,-3.7364 -3.73727,-8.94998 -5.64805,-13.38153 -1.30339,-3.64951 -1.99941,-7.55969 -3.56348,-11.03541 -0.43447,-0.43447 -0.95582,-1.04272 -1.56408,-0.60825 l -0.60825,1.2165 c -1.04271,5.99562 -1.91164,12.07813 -2.60679,18.16064 -0.26068,1.12961 -0.86893,2.34612 -1.99854,2.86747 -1.2165,0.60825 -2.433,0 -3.56261,-0.34757 -2.60679,-1.73786 -1.21651,-5.38737 -1.21651,-7.90727 1.04272,-4.17086 1.04272,-8.77619 1.91165,-13.12084 0.95582,-7.38591 2.51903,-14.59804 2.43301,-22.41841 0.69514,-3.30193 -0.26068,-8.16794 3.82329,-9.21066 2.69455,0 3.04213,3.21504 3.82416,5.12669 z" />
    <path
       inkscape:connector-curvature="0"
       id="path7-4"
       d="m 210.89028,638.31567 c 1.12961,1.3034 1.47718,2.95437 1.39029,4.69223 l 0.26068,14.9456 0.17378,24.76452 c 0.26068,1.82475 0.0869,3.7364 -0.95582,5.12669 -0.86893,0.78203 -2.08544,1.30339 -3.21504,1.04271 -1.04272,-0.34757 -2.17233,-1.2165 -2.5199,-2.25922 l -0.34758,-1.65096 -0.17378,-22.24462 -0.17379,-23.28734 c 0,-1.04271 1.21651,-1.82475 2.08544,-2.08543 1.30339,-0.17379 2.51989,0.17379 3.47572,0.95582 z" />
    <path
       inkscape:connector-curvature="0"
       id="path9-0"
       d="m 269.71687,646.30983 c 1.99854,3.21505 -0.34671,6.69077 -0.95583,9.81892 -3.64951,12.77327 -7.0392,25.72034 -11.29609,38.23293 -0.60825,0.78204 -1.56408,1.47719 -2.60679,1.04272 -1.21651,-0.78204 -2.6068,-1.82475 -3.30194,-3.12815 -0.86893,-2.95436 1.04185,-5.0398 1.82475,-7.55969 1.99854,-8.60241 5.21359,-16.85725 7.82038,-25.37277 0.69514,-4.25776 1.91164,-8.34173 3.56261,-12.25192 0.43447,-0.86893 1.3034,-1.3034 2.26009,-1.65097 1.04185,-0.0869 1.99767,0.0869 2.69282,0.86893 z" />
    <path
       inkscape:connector-curvature="0"
       id="path11-9"
       d="m 285.27072,651.26274 c 1.21563,2.08543 0.78117,4.60533 0.86893,6.95144 0,6.95144 -0.0878,13.81599 0.95582,20.24608 0.34758,0.60825 0.9567,0.69514 1.39116,0.43446 2.34524,-2.95436 3.47572,-6.43008 5.0398,-9.81891 1.39029,-3.91019 3.56261,-7.55969 5.38737,-11.38299 0.52135,-1.39029 2.08456,-1.30339 3.38796,-1.12961 0.78203,0.17379 1.47718,0.86893 1.99854,1.56408 0.17378,3.30193 -1.56408,6.1694 -2.86748,8.94998 -5.56028,11.64367 -10.16648,23.63491 -15.64074,35.19168 -0.69515,1.47718 -1.73786,3.47572 -3.56262,3.64951 -1.56407,-0.0869 -3.21504,-1.04272 -3.7364,-2.60679 -1.13048,-3.56262 0,-7.64659 -0.52222,-11.38299 l -0.60826,-11.81745 c -0.3467,-0.43447 -0.26068,-1.21651 -0.95582,-1.47719 -0.86893,0.0869 -1.3034,1.04272 -1.65097,1.65097 -2.60679,5.0398 -3.91018,10.68785 -6.68989,15.64075 -0.43447,0.86893 -1.3034,1.12961 -2.17233,1.30339 -1.13048,0.0869 -2.08543,-0.34757 -2.95436,-1.04271 -0.69515,-0.95583 -1.3034,-2.08543 -0.86893,-3.38883 1.65097,-4.25776 2.78058,-8.6893 4.77912,-12.77328 3.82329,-10.07959 7.90726,-19.9854 12.16502,-29.8912 0.78204,-1.21651 2.34611,-0.86893 3.47572,-0.78204 1.12961,0.26068 1.99854,1.04272 2.78058,1.91165 z" />
    <path
       inkscape:connector-curvature="0"
       id="path13-4"
       d="m 104.96766,674.11561 c 0.26068,1.91164 -1.73786,2.86747 -2.86747,3.7364 -1.39029,1.73786 -3.7364,2.51989 -4.17086,4.77911 1.73786,4.51844 5.30047,8.34174 8.42862,12.25192 4.69222,6.51698 9.47134,13.03396 14.51114,19.37713 0.34757,0.6952 0.26068,1.7379 0.0869,2.433 -1.12961,1.0427 -2.34611,2.8675 -4.08397,2.0855 -5.73494,-5.73498 -9.21066,-12.86021 -14.9456,-18.85583 -3.12815,-3.91019 -5.56115,-8.25484 -9.73202,-11.55678 -0.95582,-0.52135 -2.17233,-0.52135 -3.12815,0 -3.04126,1.21651 -5.38737,5.38737 -9.03688,3.99708 -1.47718,-1.2165 -3.30193,-2.69368 -2.60679,-4.86601 1.82476,-2.34611 4.77912,-3.38882 7.03834,-5.38736 l 14.33734,-10.60096 c 0.95582,-0.86893 2.34611,-1.47718 3.56261,-1.04271 1.2165,1.12961 2.08543,2.25922 2.60679,3.64951 z" />
    <path
       inkscape:connector-curvature="0"
       id="path15-8"
       d="m 154.84427,697.22915 c -3.7364,-5.73494 -8.86309,-10.94852 -13.46842,-16.33589 l -15.81454,-18.94268 c -1.99854,-1.82475 -3.7364,-5.47426 -6.95144,-4.86601 -1.73786,0.52136 -3.21504,1.91165 -3.99708,3.56261 -0.34757,1.39029 0,2.69369 0.60825,3.8233 2.5199,12.59949 7.21212,24.33005 10.86163,36.40818 1.12961,3.21504 0.86893,7.90727 4.86601,8.86309 1.04272,-0.17378 2.08543,-0.43446 2.86747,-1.2165 1.47718,-3.12815 -0.43446,-6.08251 -1.2165,-8.86309 -0.26068,-2.69368 -2.69369,-6.34319 0.0869,-8.51552 1.82476,-0.86893 4.08397,-2.69368 6.16941,-1.12961 3.7364,3.12815 6.86455,7.03834 10.25338,10.51406 1.39028,0.78204 3.04125,0.0869 4.34465,-0.34757 1.04271,-0.60825 1.73786,-1.65097 1.39029,-2.95437 z m -23.63491,-16.59657 c -0.78204,1.12961 -2.17233,1.82476 -3.47572,1.47719 -2.5199,-2.17233 -2.43301,-5.90873 -3.04126,-8.86309 0.26068,-0.78204 1.12961,-0.34758 1.65097,-0.0869 l 4.34465,5.12668 c 0.34757,0.69515 0.95582,1.47719 0.52136,2.34612 z" />
    <path
       inkscape:connector-curvature="0"
       id="path17-8"
       d="M 96.53904,714.95537 81.33276,698.79323 c -2.17233,-1.47718 -3.99708,-3.47572 -6.51698,-3.91019 -4.86601,-1.2165 -9.38445,1.56408 -11.90435,5.38737 -3.30193,5.56116 -0.0869,11.73056 2.95437,16.24896 l 11.64367,11.8175 c 5.56115,5.1267 11.64366,9.6451 19.46404,8.6024 2.78057,-0.8689 5.64804,-3.3888 6.25629,-6.3432 1.12961,-6.3432 -2.34611,-11.2961 -6.69076,-15.6407 z m -1.39029,13.1208 c -1.91164,1.7379 -4.25776,-0.087 -6.2563,-0.6082 -7.21212,-3.8233 -13.38152,-10.9486 -18.76889,-17.29175 -0.86893,-1.39029 -1.47718,-2.95437 -1.21651,-4.60533 0.0869,-1.12961 1.3034,-1.65097 2.17233,-1.91165 3.04126,0.43446 5.30048,2.78058 7.99416,4.08397 l 11.73056,11.64366 c 2.17233,2.5199 5.73494,5.0398 4.34465,8.6893 z" />
    <path
       inkscape:connector-curvature="0"
       id="path19-2"
       d="m 348.18128,711.39272 c -0.26068,-0.86893 -1.12961,-1.12961 -1.99854,-0.95582 -3.64951,0.69514 -6.95144,2.08543 -10.25338,3.47577 -1.30339,1.0427 -3.7364,0.782 -3.91018,2.8674 0.34757,0.4345 0.78203,0.6083 1.1296,0.869 2.86747,-0.7821 5.21359,0.6082 7.12523,2.433 1.56408,1.1296 0.26068,3.215 0.78204,4.6922 0.0869,0.782 1.04185,1.1296 1.73786,0.782 2.77971,-2.5199 3.04126,-6.6039 4.43155,-9.9058 0.60825,-1.3034 1.2165,-2.69368 0.95582,-4.25775 z m -3.99708,5.38735 c -0.52136,0.2607 -1.12961,0.5214 -1.65097,0.2607 -0.60738,-0.5214 -0.95582,-1.3034 -0.60738,-2.0854 0.69514,-0.6952 2.25922,-1.4772 2.86747,-0.2607 0.17292,0.782 -0.17465,1.4772 -0.60912,2.0854 z" />
    <path
       inkscape:connector-curvature="0"
       id="path21-4"
       d="m 55.00417,720.08207 c 0.34757,3.8233 -4.34465,2.6068 -5.47426,5.7349 -1.04272,2.3461 -3.12815,4.6053 -2.17233,7.4728 1.04272,2.433 3.12815,5.0398 5.99562,5.0398 3.30194,-0.2607 5.30048,-3.4757 8.08105,-5.0398 4.25776,-2.3461 9.47134,-4.9529 14.59803,-2.6068 4.08398,1.651 7.21213,5.6481 10.25338,9.0369 2.17233,3.7364 1.39029,9.2107 -1.12961,12.5995 -3.56261,3.3888 -7.82037,7.2121 -13.03395,5.648 -1.12961,-1.0427 -1.99854,-2.3461 -1.56408,-3.9102 1.47718,-2.7805 5.30048,-1.564 7.21212,-3.997 1.3034,-1.7379 2.25922,-3.7364 1.65097,-6.0826 -1.30339,-3.5626 -5.03979,-5.9956 -8.60241,-6.5169 -7.55969,-2.1724 -10.34027,7.9941 -17.20482,7.9941 -5.21358,0.3476 -10.07959,-2.7805 -12.25192,-7.5597 -1.04272,-3.4757 -1.99854,-9.0368 0.52136,-12.2519 2.5199,-3.5626 5.30047,-7.6466 9.64513,-8.95 1.91164,-0.1738 2.86747,1.9986 3.47572,3.3889 z" />
    <path
       inkscape:connector-curvature="0"
       id="path23-5"
       d="m 356.78369,721.38547 c 0.52136,2.6067 -2.17232,5.648 0.43447,7.6465 2.25922,0.3476 4.34465,-3.5626 6.08251,-0.6951 -1.04272,3.0413 -4.43155,3.5626 -6.60387,5.4743 -1.3034,0.8689 -2.69455,1.8247 -4.34465,1.3903 -1.65097,-1.2166 -0.86893,-3.5627 -0.52223,-5.3005 0.17379,-0.6952 0.86893,-1.5641 0.26068,-2.3461 -2.25922,-2.3462 -4.43155,2.3461 -6.51698,0 0,-1.9117 2.26009,-2.3462 3.38883,-3.4758 2.08543,-1.0427 3.99708,-2.8674 6.2563,-3.8233 0.60912,0.1738 1.47805,0.4345 1.56494,1.1297 z" />
    <path
       inkscape:connector-curvature="0"
       id="path25-5"
       d="m 368.86182,734.68007 c -0.69601,-0.6083 -1.04271,-2.1723 -2.26008,-1.7379 -2.43301,3.5626 -6.69077,4.4316 -10.25338,5.9088 -1.21651,0.087 -2.34611,-0.869 -3.30194,0 -0.26068,0.6082 0,1.2165 0.26068,1.7378 2.34611,2.8675 4.08397,7.1253 8.16795,7.7335 3.99708,-0.087 8.16707,-2.0854 9.73115,-5.9956 1.13135,-3.0413 -0.95409,-5.3874 -2.34438,-7.6466 z m -2.433,7.9073 c -1.91078,1.3034 -3.82243,3.215 -6.60387,2.2592 -0.69515,-0.5214 -1.65097,-1.3903 -1.2165,-2.2592 1.9994,-2.3462 5.04066,-2.7806 7.47367,-4.4316 0.86893,-0.1738 1.56407,0.3476 1.99854,0.8689 0.60738,1.5641 -0.52223,2.7806 -1.65184,3.5627 z" />
    <path
       inkscape:connector-curvature="0"
       id="path27-1"
       d="m 36.75663,746.58437 c 0.0869,4.084 -2.43301,7.3859 -3.64951,11.1223 -0.17378,1.3903 -1.12961,2.6068 -0.60825,4.1709 2.5199,2.5199 6.08251,4.4316 9.64513,3.5626 1.82475,-1.9116 2.5199,-4.9529 5.12669,-5.9956 1.65097,0.3476 3.56261,0.6952 4.25776,2.433 0.34757,2.8675 -3.30194,6.517 0.52135,8.4286 4.43155,1.8248 8.68931,4.2578 13.64221,4.5185 3.56262,-2.6937 3.99708,-7.299 5.99562,-10.9485 0.26068,-0.9559 0.60825,-2.1724 1.73786,-2.433 1.91165,-0.2607 3.64951,0.6951 4.95291,2.2592 0.34757,3.6495 -1.99854,6.4301 -2.86747,9.732 -2.78058,3.4757 -1.73787,12.2519 -8.86309,10.1665 -8.08106,-3.3889 -16.42279,-6.1694 -24.50384,-9.6452 -5.73494,-2.433 -11.73056,-4.1708 -17.37861,-6.7776 -0.95582,-0.5214 -1.73786,-1.2165 -2.17233,-2.1723 -0.17378,-4.866 3.56262,-8.4287 4.86601,-12.7733 0.78204,-2.8675 1.65097,-6.517 4.95291,-7.3859 1.65097,0 3.38883,0.1738 4.34465,1.7378 z" />
    <path
       inkscape:connector-curvature="0"
       id="path29-7"
       d="m 396.84138,753.10137 c 0.78204,0.7821 0.86893,2.0855 0.78204,3.1282 -2.69368,4.7791 -7.55969,8.2548 -9.9927,13.1208 -0.0869,0.9558 0.78204,1.5641 1.56408,1.9117 l 16.33589,1.8247 c 2.17232,0.4345 3.38883,2.8675 3.73727,4.866 -0.17379,3.0413 -3.56349,3.0413 -5.56116,3.9102 -11.90434,4.084 -23.7218,8.3417 -35.53925,12.5126 -2.25922,0.4345 -5.3865,2.2592 -7.29815,0 -0.78204,-0.782 -0.60825,-2.0854 -0.43446,-3.1281 0.69514,-1.3034 2.17232,-2.0855 3.38796,-2.6068 6.86455,-2.0855 13.6422,-4.5185 20.15918,-7.5597 0.43447,-0.1738 0.34757,-0.6952 0.34757,-1.1296 l -1.2165,-0.869 c -3.47572,-1.2165 -8.25484,0.1738 -10.68784,-3.1281 0.26068,-2.8675 2.78057,-4.9529 4.69222,-7.1252 0.3467,-0.6083 -0.17378,-1.3903 -0.78204,-1.4772 l -1.91164,0.087 -15.46696,6.1694 c -1.73786,0.6951 -3.7364,1.1296 -5.38737,0 -0.69515,-0.7821 -1.3034,-1.8248 -0.86893,-3.0413 0.60825,-1.3034 1.99854,-2.3461 3.21504,-2.9543 l 17.55239,-7.2991 c 7.03834,-2.433 13.7291,-5.7349 20.68055,-8.5155 1.04185,0.087 1.99767,0.3476 2.69281,1.3034 z" />
    <path
       inkscape:connector-curvature="0"
       id="path31-1"
       d="m 40.14546,781.94987 c 8.51552,2.3461 16.85725,5.0398 25.54655,6.9515 0.86893,0.4344 1.82476,1.1296 2.08543,2.1723 0.34758,6.0825 -6.43008,5.9956 -10.16648,7.9072 -7.03834,2.5199 -14.07667,5.2136 -21.11501,7.9942 -0.52136,0.3476 -1.3034,0.782 -1.39029,1.5641 0.26068,0.8689 1.3034,1.2165 1.99854,1.5641 7.12523,1.4771 14.33735,2.7805 21.54948,3.9101 0.78203,0.5214 1.99854,0.9559 2.25921,1.9986 0.34758,1.3903 0.0869,2.9543 -1.39028,3.4757 -4.95291,0.6083 -9.55824,-0.8689 -14.25046,-1.5641 -10.0796,-1.2165 -19.9854,-2.5199 -29.63053,-4.6922 -1.12961,-0.3476 -2.433,-1.0427 -3.04126,-2.0854 -0.43446,-1.651 0.60826,-2.7806 1.73787,-3.6495 11.90434,-4.5185 23.89558,-8.8631 35.79993,-13.4685 0.60825,-0.4344 1.30339,-1.1296 0.86893,-1.9116 l -1.39029,-1.0427 c -9.90581,-2.6937 -19.81161,-5.3874 -29.63053,-8.3418 -0.86893,-0.3475 -1.47718,-1.3034 -1.73786,-2.0854 0.0869,-1.1296 0.60825,-2.3461 1.73786,-2.7806 2.60679,-0.782 5.30048,0.2607 7.73348,0.9559 4.08398,1.2165 8.25484,2.1723 12.42571,3.1281 z" />
    <path
       inkscape:connector-curvature="0"
       id="path33-1"
       d="m 414.65442,791.76877 c 2.6068,4.9529 2.4339,11.2092 4.084,16.5966 0.1738,2.6068 3.0413,6.0825 0,7.9942 -1.3903,0.782 -3.8224,0.8689 -5.1258,-0.087 -1.651,-2.0855 -1.9117,-4.6923 -2.5199,-7.2991 -1.3034,-3.1281 -0.6083,-8.081 -4.86602,-8.9499 -3.3028,0.6082 -7.38591,0 -9.47134,2.8674 -0.78204,2.2592 0.69514,5.1267 -2.25922,6.2563 -1.99941,0.4345 -4.77912,0.869 -6.2563,-0.8689 -1.12961,-1.651 -1.65097,-4.866 -4.43241,-4.5184 -6.42922,0.5213 -12.51173,2.433 -19.11647,2.2592 -1.04185,-0.1738 -1.21564,-1.3034 -1.6501,-1.9986 0,-1.3034 -0.0878,-2.6936 0.78117,-3.6495 4.17173,-2.7805 9.73202,-2.1723 14.51114,-3.6495 11.03541,-1.9116 22.15772,-3.5626 33.19315,-5.7349 1.1296,-0.087 2.2592,0 3.1281,0.782 z" />
    <path
       inkscape:connector-curvature="0"
       id="path35-5"
       d="m 298.39157,831.30517 c 1.47718,3.9101 2.17232,9.3844 -0.60825,12.8601 -1.6501,1.7379 -3.91019,2.6937 -6.42922,2.2592 -2.95436,-1.3902 -4.34465,-4.6053 -4.08397,-7.9072 0.34757,-3.9102 1.12961,-8.6024 5.64805,-9.9058 1.56407,-0.5214 2.86747,0.4344 4.08397,1.1296 l 1.38942,1.5641 z" />
    <path
       inkscape:connector-curvature="0"
       id="path37-2"
       d="m 38.14692,830.26237 c 6.86455,0.087 14.16356,-0.087 21.11501,0.1738 1.39029,0.2607 2.08543,1.4772 2.60679,2.6068 0.26068,1.1296 0.34757,2.3461 -0.17379,3.3888 -2.95436,3.1282 -7.12523,3.9102 -10.42716,6.517 -5.0398,2.7806 -10.0796,5.8219 -15.0325,8.9509 -0.52136,0.4344 -0.69514,0.8689 -0.60825,1.564 1.47718,1.1297 3.56261,0.9559 5.47426,0.9559 7.12523,0.1738 13.81599,-1.2157 20.94122,-0.7812 0.60826,0.3467 0.95583,0.7812 1.12961,1.3903 -0.17378,1.1296 0.34758,2.5199 -0.60825,3.3019 l -1.04271,0.6083 -12.33882,0.9558 -16.33589,0.9541 c -6.1694,0.087 -12.25192,1.2156 -18.50821,0.4345 -0.78204,-0.4345 -1.73787,-0.9567 -1.82476,-1.9986 -0.34757,-1.1305 0,-2.2601 0.60825,-3.215 4.08398,-1.9986 7.99416,-4.1709 11.99124,-6.2563 l 18.42133,-10.5141 c 0.43446,-0.6951 1.30339,-1.2165 0.86893,-2.1723 -0.95583,-1.0427 -2.43301,-0.9558 -3.91019,-0.9558 -9.38445,-0.2607 -17.89997,0 -27.02374,-0.2607 -0.86893,-0.4345 -1.91164,-0.9558 -2.34611,-1.9986 -0.34757,-0.9558 0,-1.9985 0.60825,-2.7805 0.69515,-0.869 1.65097,-0.869 2.6068,-1.1296 l 23.80869,0.2606 z" />
    <path
       inkscape:connector-curvature="0"
       id="path39-7"
       d="m 374.68366,848.16237 c 0.34757,0.782 0,1.651 -0.43447,2.2601 -0.69514,0.6951 -1.73786,0.6951 -2.51903,0.5214 -0.69514,-0.2607 -1.2165,-0.9559 -1.39115,-1.6501 0.0878,-0.869 0.26154,-1.9995 1.2165,-2.2601 1.2165,-0.2616 2.60679,-0.1747 3.12815,1.1287 z" />
    <path
       inkscape:connector-curvature="0"
       id="path41-6"
       d="m 362.8662,962.77427 -12.68638,-11.2092 -9.38445,-8.7762 c -2.433,-1.9985 -4.77912,-4.6922 -8.08105,-4.1708 -0.95582,0.3467 -1.56408,1.0427 -2.08456,1.9116 -0.52223,1.8248 0.3467,3.3019 1.65009,4.5176 6.17028,5.1267 11.99124,10.2542 17.5524,16.0752 l 0.0869,0.782 c -0.3467,0.3476 -0.78117,0.4345 -1.21563,0.3476 -9.81892,-2.6946 -19.11647,-6.6047 -28.67471,-9.9927 -1.12961,-0.6083 -2.60679,0.4345 -3.6495,-0.5222 -0.34758,-0.3467 0.0869,-0.6952 0.17378,-1.1296 3.99708,-4.1709 8.86309,-8.7762 12.51173,-13.2078 6.95144,-7.2121 11.38386,-15.38 16.85725,-23.2004 2.69369,-6.3432 6.60387,-12.165 8.7762,-18.7689 4.6062,-10.4272 6.08251,-22.3315 8.86309,-33.6276 1.04271,-13.7291 1.47718,-28.0665 -0.86893,-41.2742 -1.99854,-10.8617 -4.69136,-21.3757 -8.60154,-31.4553 -7.64746,-18.9427 -19.46404,-36.582 -34.84498,-52.0489 -5.64805,-5.3874 -11.55678,-10.6879 -17.37861,-15.467 0,-0.4345 0,-0.782 0.43447,-1.0427 3.99794,0.2607 8.25483,0.5213 11.99123,-0.4345 1.82563,0.5214 1.3034,2.5199 2.78058,3.4757 0.52223,0.3476 1.3034,0 1.56408,-0.6082 2.08543,-5.3005 4.25776,-11.46989 9.9058,-14.51115 0.43447,-1.99854 -2.17232,-2.86747 -3.38883,-3.91019 -2.34524,-1.2165 -4.69135,-3.21504 -7.4728,-2.60679 -1.82475,1.04272 -1.30339,3.21504 -1.91164,4.86601 -1.82476,3.7364 -5.73494,6.34319 -9.73202,6.60392 -1.3034,0 -2.34525,-0.69519 -3.30194,-1.47723 -2.86747,-3.91019 -2.08456,-9.73202 -0.60825,-13.98978 1.47718,-7.38591 8.86309,-11.99124 14.51114,-16.42278 2.86747,-1.82476 7.0392,-1.3034 9.9927,-0.0869 4.17086,1.73786 1.56407,6.08251 2.26008,9.12377 0.95583,1.56407 2.6068,2.69368 4.43155,2.86747 0.95582,-0.34758 1.56407,-1.21651 2.25922,-1.99854 3.38883,-3.99708 1.2165,-10.0796 -1.04185,-13.90289 -4.69222,-5.21358 -12.68725,-5.21358 -19.02957,-3.91019 -6.43009,3.30194 -12.68639,8.34173 -17.03104,14.68493 -4.9529,6.77765 -7.03921,15.90142 -4.6062,24.50383 0,1.30341 1.56494,2.25921 1.04272,3.47571 -0.52136,0.3476 -0.95583,-0.087 -1.39029,-0.087 -19.72473,-11.55677 -40.75285,-20.07228 -64.30086,-22.4184 -9.38445,-1.47718 -19.02958,-1.1296 -28.67471,-1.73786 l -0.60825,-0.52135 c 1.12961,-1.04272 2.34612,-2.25922 2.34612,-3.8233 -1.99854,-11.73056 -3.04126,-23.7218 -5.38737,-35.27857 -0.95583,-4.86601 0,-10.60095 -2.95437,-14.68493 -1.30339,-0.95582 -3.6495,-0.95582 -4.69222,0.52136 -2.60679,4.25776 -2.86747,9.55824 -4.60533,14.25046 -0.69515,1.3034 -0.69515,2.78058 -1.91165,3.7364 -3.12815,-0.26068 -4.86601,-4.08397 -6.69076,-6.34319 -2.5199,-2.86747 -3.91019,-6.95144 -7.5597,-8.51552 -1.12961,-0.34757 -2.433,-0.0869 -3.38883,0.69515 -0.78203,0.78203 -0.60825,1.82475 -0.60825,2.78057 l 3.12815,16.94415 c 1.39029,6.34319 2.25922,12.94706 3.12815,19.46404 1.12961,3.56261 0.52136,7.99416 3.56262,10.68784 0.86893,0.43447 1.82475,0.34757 2.69368,0 1.12961,-0.60825 1.91165,-1.82475 2.17233,-3.04126 -0.69515,-7.12522 -2.78058,-13.81599 -2.5199,-21.28879 0.17378,-0.52136 0.78204,-0.69514 1.39029,-0.60825 1.30339,1.30339 2.17232,2.69368 3.12815,4.17086 1.04271,1.47719 2.08543,4.25776 4.34465,3.8233 1.65097,-0.95583 1.30339,-3.04126 2.25922,-4.51844 1.04271,-2.60679 0.86893,-5.73494 2.5199,-8.25484 0.43446,0.0869 0.95582,0.17379 1.2165,0.60825 0.43446,2.34611 1.47718,4.25776 1.30339,6.77766 1.56408,6.43008 1.65097,13.46842 3.47573,19.81161 0.78203,1.04272 2.08543,1.65097 3.21504,2.08544 -0.26068,0.69514 -1.12961,1.12961 -1.82476,1.30339 -6.08251,0.95582 -12.25191,1.47718 -18.16064,2.86747 -12.42571,3.04126 -24.50384,6.95145 -35.62615,13.03396 -4.08397,2.69368 -8.6893,4.17086 -12.5126,7.47279 -9.81891,5.9087 -18.85579,14.3374 -27.4582,22.6791 -10.51405,11.8175 -19.20335,24.5038 -25.63344,38.146 -1.99854,4.953 -4.08397,9.819 -5.64805,15.0325 -1.91164,3.4758 -1.82475,7.9073 -3.38882,11.5568 -1.21651,6.3432 -2.5199,12.4257 -3.21505,18.9427 -1.56407,9.2976 -0.43446,19.2034 0.52136,28.1533 0.26068,4.6054 0.34757,9.2976 1.47718,13.4685 0.52136,6.4301 2.69369,12.2519 4.25776,18.1606 0.95583,6.517 4.77912,11.8175 6.86455,17.8131 6.34319,14.5103 15.90143,27.718 27.37131,40.1437 8.34173,9.8198 18.42132,16.249 28.15334,23.1144 9.12377,4.866 17.89997,10.6879 27.71888,13.8151 5.56115,1.1305 10.60095,3.9102 16.249,5.1267 21.81015,5.3874 49.26835,7.4728 71.33918,1.1296 9.646,-0.5213 17.90084,-4.5184 26.50238,-7.6465 7.99416,-3.8233 16.07521,-7.4728 23.37423,-12.7733 5.56115,-2.1723 9.29755,-7.9073 14.9456,-10.1665 1.04272,0.9567 0,2.2601 0.34671,3.5635 3.82329,5.5603 9.21153,10.514 13.99064,15.38 l 19.37715,19.9854 c 1.04272,0.869 2.25922,1.3034 3.64951,1.3034 1.12961,-0.2615 1.99854,-1.0427 2.51903,-2.1723 0.43446,-1.2165 -0.26068,-2.3461 -0.60738,-3.3888 -3.91019,-5.3874 -9.81979,-9.8189 -14.07668,-15.2063 -0.95669,-1.3903 -3.21504,-2.6068 -2.17232,-4.2578 10.51406,1.4772 19.89763,6.6908 30.3248,8.9509 1.04272,0 1.91165,-0.6083 2.5199,-1.3912 4.08397,-5.9938 -4.95291,-8.6875 -7.82038,-12.8584 z M 92.19439,761.96447 c 9.55823,-14.5111 21.98393,-28.1533 36.49507,-38.4067 1.65097,-2.1723 3.99708,-3.1282 6.16941,-4.2578 14.07667,-8.34172 28.76159,-15.46694 45.18438,-18.24752 12.25192,-3.99708 26.50238,-3.38883 40.23148,-3.38883 12.68638,0.86893 24.59073,3.99708 36.32129,7.12523 27.80577,9.21062 54.13436,26.67622 73.33685,51.87512 1.91165,2.3461 3.38883,4.866 5.38737,6.9515 2.43301,3.9102 4.77912,7.8204 6.95144,11.8174 1.65097,1.9986 1.91165,4.4316 3.30194,6.4301 3.64951,8.2549 7.21299,16.6835 9.38532,25.5466 1.56407,9.1237 4.25689,17.813 3.7364,27.8926 -0.26068,0.5214 -0.34757,1.3903 -1.12961,1.4772 -3.99795,-0.6082 -7.21299,-3.0412 -11.03542,-4.084 l -15.72851,-6.9514 c -3.21417,-1.651 -6.42921,-3.215 -9.90493,-4.3447 -8.16795,-4.3446 -16.85725,-7.5596 -25.11209,-11.5567 -17.03104,-7.8204 -34.06207,-15.7277 -51.09311,-23.6349 -9.12377,-4.6054 -18.50822,-8.5156 -27.63199,-12.9471 -4.9529,-0.6951 -8.77619,2.7806 -13.12085,4.2578 -7.82037,3.215 -15.64074,6.43 -23.20044,10.2533 -7.99416,3.3889 -15.90142,6.9515 -23.6349,10.8617 -5.99562,2.2592 -11.38299,5.7349 -17.37861,7.9941 -8.94999,4.2578 -18.07375,8.0811 -26.93684,12.5995 -8.42863,3.7364 -16.85725,7.6466 -25.19898,11.6437 -4.25776,2.3461 -8.94999,3.5626 -13.38153,5.3005 -1.04272,0.2606 -2.08543,0.087 -2.78058,-0.6083 l -0.60825,-1.3034 c -0.0869,-26.9368 7.99416,-50.7455 21.37569,-72.295 z m 220.10006,87.3275 c 0,0.6952 -0.43446,1.1296 -1.04271,1.2156 -0.52136,0 -0.95583,-0.3467 -1.12961,-0.8689 -0.0869,-0.4344 0.0878,-0.8689 0.52223,-1.2156 0.78116,-0.2607 1.30252,0.3476 1.65009,0.8689 z m -13.29463,-1.3903 c -1.73786,1.7379 -4.17087,2.433 -6.77766,1.9117 -2.69455,-0.869 -5.56115,-3.8233 -6.60474,-6.517 -1.47631,-5.7349 0.17379,-11.4699 3.38883,-15.9014 1.56408,-1.3903 3.56262,-2.433 5.73494,-1.9986 2.08543,0.6952 4.25776,1.9117 5.38737,3.9971 2.86834,5.3005 2.95523,13.7291 -1.12874,18.5082 z m -34.49654,-0.6951 c 2.95437,3.0412 7.64659,2.6068 11.46988,1.7378 0.52136,-0.087 0.86893,0.2607 0.86893,0.6952 -0.34757,1.5641 -1.99854,1.5641 -3.12814,1.9985 -5.21359,0.2616 -10.42717,-0.9558 -12.77328,-5.9947 -1.91165,-4.084 -2.78058,-9.8189 -0.60825,-14.0767 2.60679,-3.9102 6.2563,-6.9514 10.77473,-7.3859 2.34525,0.087 4.60534,0.6082 6.25543,1.9985 0,0.3476 0,0.7821 -0.3467,0.9559 -2.17233,0.4344 -4.69222,-1.3034 -6.51698,0.4344 -4.08397,-1.3034 -6.2563,3.7364 -8.6893,6.0825 l -0.69515,1.651 c -0.43446,4.4307 -0.43446,9.036 3.38883,11.9035 z m -29.71742,0 c -0.17291,3.5626 -0.60738,7.6466 1.56495,10.6009 0,0.7812 -0.43447,1.6501 -1.3034,1.7379 -1.56494,0.2607 -3.04126,-0.1738 -3.82329,-1.4772 -0.43447,-1.3034 0.52136,-2.2592 0.60825,-3.4757 v -7.299 l -0.34757,-17.0311 c -0.26068,-0.4344 -0.69515,-0.6951 -1.3034,-0.6082 -2.86747,4.084 -4.17086,8.6893 -6.60387,12.8602 -2.86747,4.7791 -4.60533,10.0804 -7.03921,15.0333 -1.21563,0.6074 -2.17232,-0.9567 -2.69368,-1.7378 -3.64951,-7.2991 -7.29901,-14.5981 -11.46988,-21.6364 -0.95582,-1.2165 -1.3034,-3.9102 -3.47572,-3.3888 -1.99854,2.9543 0.17378,6.6038 -0.86893,9.9058 0.60825,4.866 -0.86893,11.2961 1.73786,15.6407 0.17378,0.6952 -0.17379,1.4772 -0.86893,1.5641 -1.3034,-0.087 -2.86747,0.9567 -3.8233,-0.3467 -0.34757,-1.0427 0.43447,-1.651 0.60826,-2.5199 -0.52136,-8.6893 0,-17.7262 -0.52136,-26.5893 -0.26068,-1.6509 -4.17087,-1.8247 -1.91165,-3.6495 3.47572,-0.2607 8.42862,-1.1296 10.42716,2.7806 2.69369,6.517 5.90873,12.8602 9.38445,19.1165 0.34758,0.7811 1.12961,1.1296 1.82476,1.2156 1.2165,-0.1738 2.08456,-1.3034 2.69368,-2.3461 2.69455,-6.4292 5.99562,-12.6864 8.94998,-19.0287 2.43388,-2.6937 6.43009,-1.5641 9.81979,-1.9986 0.78117,0.2607 1.73786,0.4345 1.99854,1.3903 -0.43447,1.9117 -2.86747,1.5641 -3.56349,3.4757 -0.52135,5.9939 0,11.9895 0,17.8114 z m -5.30047,35.2786 c -1.3034,1.6509 -2.95437,3.4757 -5.21358,3.4757 -2.25922,-0.087 -4.08398,-1.2157 -5.73495,-3.0413 -0.86893,-1.7378 -2.433,-3.3879 -1.56494,-5.7349 1.04272,-3.1282 2.34611,-7.6466 6.43009,-7.9942 2.51989,-0.087 4.69222,0.7821 6.1694,2.8675 1.82562,3.0412 0.8698,7.299 -0.086,10.4272 z m -31.10771,1.7378 c 1.3034,1.8256 3.82329,2.1723 5.90873,1.651 0.60825,0 1.12961,0.6951 0.78203,1.3034 -1.91164,1.3034 -5.03979,0.8689 -6.86455,-0.087 -3.38883,-1.9117 -3.47572,-5.9956 -3.30193,-9.5583 0.43446,-2.0854 1.91164,-3.9101 3.91018,-4.9529 1.56408,-0.1737 3.8233,-1.3911 5.12669,0.087 -0.26068,1.7379 -2.17232,0.4345 -3.30193,1.1296 -1.73786,0.9567 -2.34611,2.6946 -3.12815,4.2578 -0.26068,2.1723 -0.17379,4.4315 0.86893,6.1694 z m 16.1621,-84.7207 c -0.34757,-0.4345 -0.69514,-0.9558 -0.34757,-1.4772 1.3034,-1.3903 3.64951,-0.2607 4.77912,-1.9985 1.21563,-1.1296 1.3034,-3.0413 0.86893,-4.5185 -0.34757,-1.1296 -1.04272,-2.2592 -2.17233,-2.7805 -2.17232,-1.3034 -5.21358,1.1296 -6.77765,-1.1296 0.0869,-1.3034 1.65096,-1.4772 2.5199,-1.8248 3.47572,0.6083 7.64658,0.2607 9.38444,4.084 1.3034,3.3888 0.0878,6.9514 -2.34611,9.3844 0.26155,2.433 2.95436,3.8233 2.86834,6.4301 0.26068,2.6937 -1.13048,4.866 -3.38883,6.3432 -1.91164,1.3034 -4.43154,1.651 -6.77765,1.1296 -1.21651,-0.3476 -2.5199,-1.1296 -3.21505,-2.2592 l 0.0869,-0.8689 c 2.34611,0 4.60533,1.564 7.12523,0.6082 1.47718,-0.5213 3.47572,-1.7378 3.6495,-3.4757 -0.0878,-3.6495 -3.21591,-6.2563 -6.25717,-7.6466 z m -65.77803,41.6218 c -0.78203,-2.3461 -2.95436,-4.7791 -5.56115,-5.2136 -0.52136,-0.2607 -0.60825,-0.9558 -0.34757,-1.3903 1.99854,-0.4345 4.25776,-1.7379 5.03979,-3.8233 -0.17378,-2.0854 -0.95582,-3.9971 -2.78057,-5.2136 -2.17233,-1.0427 -4.86601,-0.6951 -6.86455,0.4345 -0.52136,-0.087 -1.21651,-0.2607 -1.3034,-0.8689 -0.0869,-1.0428 0.86893,-1.9117 1.82475,-2.2593 2.69369,-1.0427 6.43009,-0.8689 8.86309,0.6952 2.43301,2.2592 3.8233,5.2136 2.95437,8.4286 -0.34757,1.2165 -1.82476,2.2592 -1.12961,3.6495 2.25922,3.5626 2.86747,8.8631 0.78204,12.7733 -1.04272,1.9116 -3.04126,3.0412 -5.0398,3.5635 -3.56262,0.3467 -6.60387,-1.1305 -8.68931,-3.7373 -0.17378,-0.3467 0.0869,-0.7812 0.43447,-0.8689 2.69368,0.9567 6.2563,3.3028 9.03688,0.782 1.39028,-2.0854 3.47572,-4.084 2.78057,-6.9514 z m 124.25705,130.774 c -34.40964,15.3801 -81.67946,13.6422 -115.39396,-1.8248 -19.46404,-7.9081 -37.19022,-20.9421 -52.30961,-38.06 -3.91018,-4.7791 -7.82037,-9.8189 -11.1223,-15.0325 -13.98978,-21.6355 -22.5053,-45.6188 -23.37423,-72.7295 0,-1.1296 0.17379,-2.519 1.47718,-2.9534 5.21359,1.0427 9.55824,4.1708 14.42425,6.0825 11.03541,4.7791 21.72325,10.6878 32.84556,15.2062 10.16649,4.6914 20.24608,9.6452 30.58635,14.0767 16.07521,8.4278 32.84557,14.9448 49.00768,23.1996 5.03979,2.3461 9.9927,4.9529 15.29317,6.7785 3.7364,0.087 6.2563,-2.6068 9.64513,-3.3888 l 13.12172,-5.8218 16.77035,-7.7327 c 17.11793,-7.8203 34.32275,-15.4678 51.44068,-23.6349 6.95145,-3.5634 14.16357,-6.43 21.11501,-9.9927 9.9927,-4.6053 19.9854,-9.3844 30.15189,-13.816 0.86893,0.087 1.82475,0.3476 2.08456,1.3034 1.2165,6.0826 -0.52136,11.9044 -0.60825,17.9009 -1.21563,6.6038 -1.91078,13.4684 -4.25689,19.6378 -1.99854,7.0383 -4.25776,14.0767 -7.47367,20.5937 -5.99475,11.3829 -12.07726,22.679 -21.2888,32.6717 -14.9456,17.0293 -32.93246,29.5419 -52.13582,37.5361 z" />
    <path
       inkscape:connector-curvature="0"
       id="path43-1"
       d="m 406.39962,858.58957 c 6.3441,3.7372 13.4684,9.9927 12.861,18.2475 -0.6082,4.5184 -1.9994,10.1665 -7.299,11.3839 -2.1723,0.4344 -4.7791,0.4344 -6.60385,-0.869 -1.13048,-0.782 -1.3034,-2.1723 -0.95669,-3.3888 1.91164,-3.215 6.77764,-2.1723 8.25484,-6.2563 0.5222,-5.2136 -3.30194,-9.5582 -7.38591,-12.5117 -7.73348,-2.8692 -15.55386,-6.2581 -24.59073,-5.3022 -2.69369,0.9567 -5.56116,2.8683 -6.95145,5.3873 -0.78203,3.4758 2.17233,5.9088 4.60534,7.3859 2.95436,1.9117 7.3859,1.8257 9.12376,5.3014 0.17379,0.9558 -0.17378,1.8247 -0.69514,2.519 -1.65097,1.651 -4.34465,0.9567 -6.2563,0.6083 -5.47426,-1.4772 -10.68784,-5.9957 -13.29463,-11.0354 -0.78204,-3.388 -1.47719,-8.4287 1.12961,-11.2084 3.21504,-3.5635 6.95144,-6.2563 11.99124,-5.8218 7.90813,-1.1296 15.03336,1.9116 22.15772,3.9102 l 3.91019,1.6501 z" />
    <path
       inkscape:connector-curvature="0"
       id="path45-4"
       d="m 66.56094,871.53657 c 0.26068,0.9559 0,1.9986 -0.69514,2.6937 -1.65097,1.0427 -3.56262,1.4772 -5.56116,1.565 l -20.07229,3.1281 c -6.86455,0.8689 -13.46842,2.3461 -20.33297,3.1282 -1.12961,0.2615 -1.99854,-0.173 -2.78058,-0.6952 -0.52136,-0.8689 -1.30339,-1.8247 -0.60825,-2.8675 1.12961,-1.8247 3.38883,-1.6509 5.21358,-2.1723 12.07814,-1.7378 23.98248,-3.9971 36.06062,-5.7349 2.69368,-0.2616 7.03833,-2.5208 8.77619,0.9549 z" />
    <path
       inkscape:connector-curvature="0"
       id="path47-2"
       d="m 227.22617,874.23027 c 0.95582,0.7821 1.04185,1.9994 1.30339,3.129 -0.17378,2.0846 -1.39115,4.084 -3.3028,5.1259 -1.3034,0.782 -2.86747,0.088 -3.91019,-0.5214 -1.73786,-1.5641 -1.73786,-3.9971 -1.21563,-6.1694 0.0869,-1.651 1.99854,-2.4339 3.30193,-2.8683 1.56408,-0.173 2.78058,0.2615 3.8233,1.3042 z" />
    <path
       inkscape:connector-curvature="0"
       id="path49-3"
       d="m 70.8187,886.56907 c 0.43447,0.869 0.17379,2.0855 -0.17378,2.8675 -3.21505,2.8683 -7.73349,3.129 -11.64367,4.6922 -5.12669,1.5641 -10.34027,2.9544 -15.38007,4.866 -0.43447,0.2616 -1.2165,0.869 -0.69514,1.4772 3.21504,1.7379 7.21212,1.651 10.94852,2.0854 3.04125,0.9559 6.95144,0.087 9.03687,2.6937 -0.34757,3.3889 -3.82329,5.6481 -5.73494,8.2549 l -4.77911,4.9529 c 0,0.6082 0.17378,1.2165 0.78203,1.3903 4.43155,-0.2607 7.90727,-2.7797 12.07814,-3.6487 3.91018,-1.8256 7.99416,-3.129 12.16502,-4.3446 1.2165,-0.088 2.95437,-0.4345 3.64951,1.0418 0.43447,0.9567 0.26068,2.2601 -0.52136,3.129 l -1.65097,1.1296 c -4.25775,1.3034 -8.16794,3.302 -12.59949,4.3447 -6.34319,2.7806 -12.94706,4.9529 -19.29025,7.6466 -3.7364,1.5641 -7.82038,3.7364 -12.16503,2.5199 -0.86893,-0.7821 -0.86893,-1.9986 -0.86893,-3.0413 0.17379,-1.564 1.3034,-2.6945 2.17233,-3.9979 4.25776,-4.3447 9.47134,-8.7762 13.03395,-13.6414 0,-0.5222 0.43447,-0.9567 0.0869,-1.4771 -0.95582,-1.3912 -2.51989,-1.5641 -3.99708,-1.7379 l -19.37714,-2.2601 c -1.21651,-0.4345 -1.99854,-1.1296 -2.78058,-2.1723 -0.43447,-0.8689 -0.43447,-1.9986 -0.26068,-2.9535 0.34757,-0.782 1.12961,-1.3912 1.91165,-1.651 14.51113,-4.1708 28.58781,-9.2106 43.18584,-13.3806 1.2165,-0.1756 2.25922,0.172 2.86747,1.2147 z" />
    <path
       inkscape:connector-curvature="0"
       id="path51-2"
       d="m 402.40254,891.34817 c -5.90873,-2.8674 -11.99124,-5.3873 -18.16065,-7.5596 -7.73348,-2.0855 -17.55239,-1.8248 -23.80869,3.1281 -1.56408,2.3461 -2.5199,5.648 -1.12961,8.3417 5.30048,11.2961 17.55152,14.1636 28.06645,17.2049 5.38737,1.6509 11.73056,2.6945 17.72531,1.5649 4.25776,-1.3034 5.64807,-5.9956 6.17027,-9.9058 -0.4345,-5.3014 -3.91018,-10.428 -8.86308,-12.7742 z m 0.95582,15.1194 c -3.7364,2.2593 -8.08105,0.087 -11.99124,-0.088 -6.08251,-2.8674 -12.68638,-4.3446 -18.7689,-7.0383 -2.08543,-1.5641 -5.30134,-2.9544 -5.7358,-5.9087 -0.17292,-1.3034 0.95669,-2.433 2.08543,-2.9544 3.82329,-2.3461 8.6893,-0.5214 12.68638,0.3476 5.56116,1.4772 10.68871,3.9102 16.07521,5.9087 3.21505,0.8689 5.73581,4.084 6.77853,7.1252 0.17379,1.1305 -0.26068,1.9994 -1.12961,2.6077 z" />
    <path
       inkscape:connector-curvature="0"
       id="path53-2"
       d="m 360.17252,902.99187 c 0.3467,0.7812 0.26068,1.6501 -0.0878,2.3461 -0.60825,0.869 -1.47718,1.3034 -2.34611,0.869 -0.60739,-0.2616 -1.21564,-0.6083 -1.56408,-1.2165 -0.0869,-1.1297 0.52223,-2.1724 1.56408,-2.7806 0.7829,-0.5214 2.0863,-0.2607 2.43387,0.782 z" />
    <path
       inkscape:connector-curvature="0"
       id="path55-1"
       d="m 378.33317,915.33067 c -0.52136,2.6068 -0.69515,5.735 -3.47573,6.7777 -2.25922,0.2607 -4.34465,-0.6952 -5.73494,-2.5199 -0.78203,-2.8675 1.04272,-5.5603 3.21505,-7.3859 2.34611,-0.2607 4.60533,1.2165 5.99562,3.1281 z" />
    <path
       inkscape:connector-curvature="0"
       id="path57-6"
       d="m 361.56281,919.24087 c 10.77474,6.6039 21.46258,13.2946 32.32421,19.6378 0.86893,0.7821 0.95582,2.0855 0.69514,3.1282 -1.65096,5.1267 -7.21212,2.7806 -11.12231,3.0412 -3.21504,-1.4763 -6.60474,-0.3467 -10.08046,-1.0418 -3.99621,-0.5222 -7.73261,-1.9994 -11.81658,-1.9994 -0.69515,0.1738 -0.78204,1.0427 -0.52136,1.4772 6.6899,5.5611 13.55531,10.6009 20.41986,15.5538 0.60739,0.7812 0.95583,1.8248 0.60739,2.8675 -0.34671,1.2165 -1.3034,2.8675 -2.69369,3.1281 -4.08397,0.6961 -6.69076,-2.9535 -9.9058,-4.6053 l -8.60155,-6.4301 -19.81161,-13.7291 c -1.91165,-1.3903 -3.82329,-3.0412 -4.25776,-5.3865 0.43447,-1.9116 1.99854,-4.1717 4.17087,-4.5184 5.64805,-0.088 10.86163,1.5641 16.50968,1.9985 3.30193,0.087 6.43008,0.7821 9.64599,1.3903 0.60738,-0.2607 1.73786,0.1738 1.99854,-0.8689 -0.86893,-2.3453 -3.56348,-3.0413 -5.30134,-4.3447 -1.12961,-1.0418 -2.34525,-1.7378 -3.7364,-2.1723 -3.99708,-3.9102 -10.25338,-4.5176 -12.77328,-9.9927 -0.26068,-1.1296 0.43447,-2.0846 1.39116,-2.6068 5.12582,-0.9567 8.51465,3.8224 12.8593,5.4734 z" />
    <path
       inkscape:connector-curvature="0"
       id="path59-8"
       d="m 401.6205,930.27627 c 0.34757,1.1305 0.34757,2.7806 -0.52136,3.7373 -1.2165,1.3903 -3.04125,1.9985 -4.60533,1.4763 -1.2165,-0.6074 -1.56407,-1.8247 -1.91165,-2.9535 0,-1.5641 1.04272,-2.7806 2.25922,-3.6495 0.78204,-0.5214 1.91165,-0.6082 2.86834,-0.3476 0.78117,0.173 1.47631,1.0419 1.91078,1.737 z" />
    <path
       inkscape:connector-curvature="0"
       id="path61-5"
       d="m 69.16773,937.92287 c 1.47719,2.433 4.51844,5.3865 2.25922,8.3417 -1.47718,1.1297 -3.04125,2.6068 -5.12669,1.9117 -3.30193,-2.9544 -5.03979,-6.9514 -6.86455,-10.6879 -0.26068,-1.1304 0.26068,-1.9994 0.95583,-2.8683 1.12961,-0.8689 2.25922,-1.9985 3.91018,-1.3903 1.91165,1.1305 3.38883,2.9553 4.86601,4.6931 z" />
    <path
       inkscape:connector-curvature="0"
       id="path63-7"
       d="m 117.48026,958.25587 c -1.3034,-3.2151 -3.99708,-5.9087 -6.69076,-8.5155 -2.95437,-2.433 -5.56116,-6.7777 -9.73203,-5.3874 l -12.16502,12.0781 -16.77035,16.8573 -3.7364,4.3446 v 1.0428 c 2.69368,4.1708 6.51697,7.9941 10.25337,11.1223 3.91019,3.8233 10.0796,1.3911 14.33736,0 6.77765,-3.1282 13.46841,-8.4278 18.07374,-15.0325 2.69369,-5.2136 8.25484,-9.6452 6.43009,-16.5097 z m -9.55824,7.5597 c -3.82329,7.299 -11.29609,11.9912 -17.89996,16.3359 -1.73786,1.0427 -4.17086,1.3034 -6.2563,0.782 -1.56407,-0.8689 -3.21504,-2.0854 -4.34465,-3.7364 -0.69514,-1.651 0.52136,-2.6945 1.47718,-3.7373 l 12.25192,-12.5117 c 2.78058,-2.2601 5.0398,-5.7358 8.16794,-7.2121 2.78058,0 4.17087,3.2142 5.90873,4.952 1.3034,1.2174 1.04272,3.4766 0.69514,5.1276 z" />
    <path
       inkscape:connector-curvature="0"
       id="path65-6"
       d="m 313.94542,961.99227 c 5.90873,6.9514 10.77387,14.4251 16.68347,21.2888 l 10.07959,13.6422 c 0.86893,0.9567 1.73786,1.9116 1.99854,3.12903 0,1.8248 -1.39029,3.0413 -2.78058,3.9102 -1.12961,0.3467 -2.34524,0.4345 -3.38796,-0.1738 -5.12669,-6.17033 -8.16794,-13.20773 -14.25046,-18.94273 -3.56261,-5.2136 -8.25484,-9.9927 -11.38298,-15.294 -2.17233,-2.2592 -4.51844,-4.866 -4.60534,-7.9073 0.78117,-1.2165 2.17233,-1.9985 3.47573,-2.6068 1.82388,0.1738 2.7797,1.9117 4.16999,2.9544 z" />
    <path
       inkscape:connector-curvature="0"
       id="path67-1"
       d="m 132.07829,967.20587 c 0.17379,1.9994 -1.65097,3.5635 -2.60679,5.3013 -2.08543,2.7806 -3.56262,5.735 -5.47426,8.5155 l -10.16649,15.3801 c -1.30339,2.8675 -3.99708,5.99483 -1.91165,9.29763 1.39029,2.3461 4.25776,3.3019 6.77766,3.9093 2.95437,0.2615 5.21358,-1.5632 7.12523,-3.6487 3.47572,-5.3873 7.12523,-10.77473 10.51406,-16.24903 l 8.86309,-13.9029 c 0.86893,-0.6951 1.82475,-1.3902 2.95436,-0.8689 0.95583,0.5214 2.08544,0.9558 2.69369,1.9986 0.52135,2.5199 -2.69369,3.8233 -2.60679,6.3432 -4.25776,8.0819 -9.64513,15.6407 -14.25046,23.54883 -2.60679,3.8233 -5.99562,8.4278 -10.86163,8.8622 -5.82184,1.651 -11.73056,-0.6942 -15.64075,-5.1258 -3.04126,-4.2577 -2.5199,-10.86163 0,-15.20623 l 2.34611,-3.8233 9.90581,-16.2482 c 2.60679,-3.5635 4.43154,-7.7335 7.82037,-10.6009 1.91165,-0.09 3.56262,1.0401 4.51844,2.5173 z" />
    <path
       inkscape:connector-curvature="0"
       id="path69-8"
       d="m 307.16777,971.02917 c 4.95203,8.5155 11.46901,16.249 14.85871,25.3727 2.433,3.64953 4.60533,7.64663 6.77765,11.55683 0.17379,1.2156 0.34757,2.8675 -1.12961,3.4757 -1.47718,0.6083 -3.12815,0.6083 -4.34465,-0.4344 -3.99708,-3.8233 -5.30047,-8.8631 -8.94998,-12.94713 -1.39116,-2.6937 -2.86747,-5.4743 -5.12669,-7.7326 -0.52136,0 -0.95582,0.3467 -1.12961,0.7812 -0.43447,5.3013 1.30339,10.16643 0.52136,15.38003 -0.52136,0.6952 -1.47632,1.3034 -2.34525,0.869 -4.77911,-2.3462 -8.60241,-6.7777 -13.38152,-9.03613 -0.60826,-0.088 -1.21651,0 -1.39029,0.6074 1.99854,7.99423 6.68989,14.85963 9.47047,22.50533 0.34757,1.1296 0.43446,2.3461 -0.0869,3.388 -0.78204,1.0436 -1.82563,1.651 -3.04126,1.5649 -3.30194,-0.3475 -3.82329,-3.9971 -4.86688,-6.2563 -3.64864,-6.0825 -5.21358,-12.947 -9.03601,-18.9427 -2.51989,-6.43003 -6.08251,-12.33883 -8.86309,-18.59513 -0.34757,-1.3034 -0.17378,-3.0412 1.39029,-3.3879 1.39116,-0.6083 2.95437,-0.6083 4.34465,0 5.30135,3.9102 10.34028,8.2548 16.07522,11.2083 0.69601,0.4345 1.56494,-0.1738 1.73786,-0.8689 0.60825,-6.9515 -2.25922,-13.2078 -0.86893,-19.8977 0.69601,-1.3034 2.08543,-2.7805 3.6495,-2.9543 2.78058,-0.4354 4.25776,2.6059 5.73495,4.3438 z" />
    <path
       inkscape:connector-curvature="0"
       id="path71-9"
       d="m 163.62046,981.71697 c 0.69515,1.5641 -0.17378,3.0413 -0.60825,4.4324 l -7.12523,15.90143 c -2.17232,5.9088 -5.21358,11.383 -7.03833,17.3786 -0.26068,1.2165 0.43446,1.9986 1.12961,2.7798 3.47572,2.0854 7.3859,3.0412 11.12231,4.4324 1.47718,0.3467 3.30193,0.088 4.17086,1.5641 0.52136,2.3461 -0.60825,4.4315 -2.25922,5.9095 -0.95582,0.869 -2.5199,0.4345 -3.64951,0.2599 -5.90872,-2.8666 -12.51259,-4.3447 -18.42132,-7.2982 -1.39029,-0.6951 -1.73786,-2.1723 -1.3034,-3.5635 2.25922,-5.4734 4.43155,-11.0345 6.3432,-16.6826 3.91018,-8.86313 7.82037,-17.72613 11.55677,-26.67613 0.52136,-0.5214 1.2165,-0.6952 1.82475,-0.9559 1.65097,0.259 3.47573,0.6935 4.25776,2.5182 z" />
    <path
       inkscape:connector-curvature="0"
       id="path73-2"
       d="m 185.43062,988.58157 c 1.91164,1.2156 0.52135,3.6495 0.69514,5.3873 -2.34611,9.90503 -4.25776,19.98463 -6.69076,29.89043 -0.0869,3.6495 0.95582,7.299 4.43154,9.1237 1.39029,0.696 3.30194,0.7821 4.77912,0.2616 3.82329,-1.7379 4.08397,-5.9956 5.47426,-9.2985 0.34757,-7.5588 3.30194,-13.9897 3.82329,-21.4617 1.12961,-3.21503 0.78204,-7.12523 1.73787,-10.42713 0.26067,-0.869 1.2165,-1.3034 1.99854,-1.651 1.39028,-0.087 3.12814,-0.4345 4.08397,0.782 1.12961,1.0428 0.52136,3.0413 0.52136,4.3447 l -1.73786,7.90733 -3.12815,17.5524 c -1.91165,7.1252 -3.30194,15.5529 -11.12231,19.2042 -4.51844,1.7379 -9.03688,-0.5222 -12.68639,-2.8683 -3.04125,-3.0413 -5.90872,-6.4301 -4.69222,-10.9486 0.86893,-4.3446 0.52136,-9.1237 2.25922,-13.2077 0.26068,-5.6481 2.86747,-10.4272 2.95436,-16.24903 0.69515,-2.6937 1.12961,-5.5603 2.5199,-7.9942 1.04272,-1.3903 3.56261,-1.564 4.77912,-0.3475 z" />
    <path
       inkscape:connector-curvature="0"
       id="path75-7"
       d="m 240.34702,989.79807 c 0.52136,1.4771 1.04271,3.3888 0.52136,5.0406 -2.51903,1.7379 -6.08252,1.1296 -8.7762,2.2592 -1.12961,0.6083 -1.56408,1.651 -1.56408,2.8675 0.0869,9.64513 1.3034,18.33443 1.91165,27.71893 0.69515,4.1709 1.39029,8.8622 0.3467,13.034 -0.78116,1.4763 -2.433,1.3902 -3.99708,1.564 -0.95669,-0.1738 -1.82562,-0.6082 -2.34611,-1.564 -1.47718,-5.3874 -0.78203,-11.7306 -1.47718,-17.2057 -0.43446,-7.3859 -1.6501,-14.4243 -1.91165,-21.8102 -0.43446,-1.5641 -0.86893,-3.56263 -2.7797,-4.17093 -3.04126,-0.782 -7.12523,1.3903 -8.94999,-1.8247 -0.43446,-1.565 -0.78203,-3.8233 0.60825,-5.0407 0.95583,-0.6951 2.17233,-0.6951 3.38883,-0.8689 7.21212,-0.2607 14.51114,-0.3467 21.46258,-1.3903 1.47718,-0.086 2.95437,9e-4 3.56262,1.3912 z" />
    <path
       inkscape:connector-curvature="0"
       id="path77-9"
       d="m 430.72972,845.64247 c 0.088,-14.4242 -1.0419,-28.7616 -3.8225,-42.23 -8.5155,-41.1873 -27.45905,-77.9431 -58.82656,-109.65904 l -13.46929,-12.33881 c -6.77766,-5.99562 -13.90289,-11.03541 -20.94123,-16.1621 -31.10857,-22.15773 -66.82074,-32.93247 -105.31436,-37.19023 -2.78058,-0.34757 -5.38737,0.17379 -8.08105,-0.34757 l -16.59744,-0.34757 c -8.34174,0.17379 -16.249,1.47718 -24.41695,2.17233 -24.33005,3.7364 -47.26981,10.77473 -68.55861,21.89704 -3.04125,1.47718 -5.56115,3.7364 -8.60241,5.0398 -6.25629,3.99708 -12.4257,7.99416 -18.33442,12.59949 l -13.20775,10.94852 c -19.72472,17.37861 -35.71304,37.97224 -46.92224,59.95624 -2.17232,6.2563 -6.77766,11.5567 -8.16794,18.0737 -5.47427,11.9044 -9.12377,24.5908 -11.64367,37.7116 -1.04272,4.9529 -1.91165,10.0796 -2.5199,15.2063 0.0869,1.651 0.0869,3.5626 -0.43447,5.0398 -0.69514,8.6024 -0.78203,17.7262 -0.86893,26.6761 0.26068,6.4301 1.3034,12.5126 1.47719,19.0296 1.73786,8.2549 1.82475,17.2048 4.77911,25.0252 1.04272,7.3859 3.91019,13.9898 5.99562,21.0281 1.73786,4.6054 3.8233,9.1238 5.47426,13.8152 8.34174,18.3353 18.42133,35.8876 32.41111,51.8751 2.95436,3.7364 7.12523,6.8645 9.64513,10.9494 14.07667,15.81373 30.58635,27.11063 47.26981,37.27623 l 14.68492,7.9073 c 8.34173,4.1717 17.11793,7.7335 25.89413,11.0363 10.94852,4.0831 22.67908,6.517 34.40964,8.9491 7.73348,1.5649 16.1621,1.5649 24.15626,2.6946 l 19.20337,0.088 20.94209,-1.2165 c 9.73115,-1.651 19.46317,-3.2151 28.76159,-5.9096 5.38737,-1.7379 11.03542,-2.8666 16.16211,-5.3865 25.11209,-9.4714 48.39942,-23.6349 69.9489,-41.62183 4.51843,-5.2136 10.77473,-9.036 14.5989,-14.7718 26.41461,-26.8508 41.62088,-59.1751 49.78888,-94.0192 0.5213,-1.6501 0.5213,-3.5626 1.3903,-5.1258 0.782,-5.4742 1.4771,-10.9494 2.26,-16.5097 l 1.4764,-16.5096 c 0,-1.8257 0.6082,-3.8242 0,-5.649 z m -5.5612,5.8218 c -0.5222,10.2534 -1.3912,20.6806 -3.9102,30.2388 -1.7378,14.598 -7.5597,27.5451 -11.90434,41.0135 -4.17087,7.7326 -7.12523,15.9875 -11.90435,23.4612 -3.7364,7.5596 -9.81891,14.2504 -14.51113,21.4625 -4.86601,5.3005 -9.64513,10.7748 -14.51114,15.9015 -8.51639,8.6893 -17.72618,17.03103 -27.45907,23.37333 -6.69076,5.4752 -14.07667,9.1238 -21.02812,13.6422 -6.60387,4.1709 -13.90288,6.4292 -20.59278,10.1665 -2.78058,0.1729 -6.34406,4.0831 -8.42862,0.3476 -0.34758,-2.7815 -3.04126,-4.6062 -5.30135,-5.9956 -1.6501,-0.696 -2.69368,0.782 -3.91018,1.564 -2.34525,-2.1723 -2.6068,-5.648 -3.56262,-8.5155 -2.5199,-7.1252 -3.56261,-14.7718 -6.43008,-21.72323 -0.86893,-4.084 -2.08457,-7.9942 -3.7364,-11.8184 -0.78117,-1.1296 -1.91165,-1.6501 -3.12815,-1.3902 -1.3034,0.3475 -2.17233,1.7378 -2.5199,2.9543 0.52223,4.1709 1.65097,8.0811 3.12902,11.8175 0.26068,1.7378 1.12961,3.38883 0.60738,5.12673 -2.08457,1.8247 -4.95204,1.9985 -7.4728,2.8674 -1.47718,0.1738 -3.21505,0.7812 -4.60533,0 -2.5199,-3.0412 -2.26009,-7.47363 -3.64951,-11.12233 -0.95582,-2.8683 -0.69515,-7.3859 -4.60533,-7.9081 -1.3034,0.2607 -2.86747,0.2607 -3.56349,1.651 -0.86893,2.8674 1.04272,5.2135 1.04272,7.9941 1.73786,4.43163 2.60679,9.21073 3.47572,13.98983 1.3034,8.1671 3.91019,15.7285 5.0398,23.8956 0.52223,2.0845 0.60825,4.4324 2.95436,5.5603 0.95582,0.6091 2.43301,0.3475 3.30194,-0.173 1.65096,-1.2165 1.12961,-3.5626 0.86893,-5.2135 -0.95583,-5.8219 -3.21505,-11.1232 -3.38796,-17.2918 -0.0878,-3.1281 3.47572,-2.9543 5.47426,-3.7364 2.86747,0.088 6.95144,-3.0412 8.7762,0.6952 2.69455,5.9096 3.30193,12.6864 5.73581,18.682 0.95582,1.651 2.95349,1.5649 4.43154,1.1305 1.39029,-0.696 1.99854,-2.1724 2.25922,-3.4757 0.34757,-0.4345 1.13048,-0.3476 1.47718,0 1.12961,1.1287 2.34611,2.3452 1.73786,4.0831 -0.86893,1.5649 -2.433,1.9116 -3.82242,2.5199 -14.33735,4.4315 -29.28296,7.1243 -44.74992,8.7761 -4.77912,0 -9.47134,0.3476 -14.25046,0.6083 h -16.33589 c -13.29463,-0.9567 -26.06791,-3.215 -38.58051,-5.9087 -8.60241,-2.5199 -17.29171,-4.7791 -25.54655,-8.2549 -16.249,-4.866 -30.41257,-14.7718 -45.27127,-23.1135 L 82.8977,998.65767 c -2.86747,-2.0846 -5.03979,-5.3005 -8.08105,-6.9515 -11.64367,-12.165 -24.24316,-23.4611 -32.93246,-36.9295 -4.34465,-6.7777 -8.94999,-13.3807 -12.25192,-20.6806 -11.64367,-20.0722 -17.55239,-42.5775 -21.54948,-65.9518 -3.47572,-19.0287 -3.56261,-40.7519 -0.86893,-60.3029 0.34758,-5.0398 1.73787,-9.732 2.25922,-14.6849 1.56408,-4.5184 1.39029,-9.732 3.99708,-13.816 0.26068,-3.6495 1.82476,-7.0383 3.04126,-10.514 5.90873,-15.1194 12.16503,-30.1519 21.63637,-43.881 L 49.2701,709.30468 c 15.03249,-18.24754 33.97517,-34.23586 53.17853,-47.09603 17.81308,-10.34027 36.58197,-18.59511 56.82805,-23.37423 l 17.98686,-3.47572 c 7.29902,-1.47718 15.20628,-1.56407 22.76598,-2.5199 l 18.50821,0.0869 c 6.25543,0.60825 12.59949,0.95582 18.7689,1.65097 37.36401,4.43154 70.90472,18.16064 100.70903,40.75283 12.51173,8.86309 24.50297,19.9854 35.19168,31.71596 l 11.2961,14.25051 c 7.21212,9.5582 13.81512,19.3771 18.50822,30.065 8.16706,15.1193 13.46846,31.4552 17.11796,48.4863 1.1296,5.1267 1.7378,10.4271 2.8674,15.5538 0.1738,4.5185 1.8248,8.8631 1.0428,13.4684 -0.088,0.3476 -0.5223,0.6083 -0.7821,0.2607 -2.5199,-5.9087 -7.9941,-11.5568 -14.51112,-12.5126 -10.42717,-3.3019 -24.59073,-5.3005 -34.49654,0.4345 -4.25689,3.1281 -7.82037,7.299 -7.12436,12.5995 -0.26155,3.5626 2.43301,5.9956 4.43155,8.6024 0.34757,0.9558 0,1.9116 -0.86893,2.2592 -0.69515,0.2607 -1.39029,0.8689 -1.82476,1.5641 -0.26155,0.6082 0.26068,1.1296 0.69515,1.3034 5.47426,0 11.29609,0.1738 16.94414,-0.087 2.17232,0.3476 1.56407,4.5184 4.25689,3.0412 1.82562,-2.8674 0.52223,-6.8645 0.60825,-10.1664 -0.3467,-0.4345 -0.43446,-1.0428 -0.86893,-1.3903 -1.12961,-0.3476 -1.6501,0.8689 -2.43301,1.2165 -4.86601,0.5213 -9.55823,-1.651 -12.25191,-5.735 -0.52223,-1.0427 -0.78204,-2.433 -0.43447,-3.7364 2.34524,-4.6922 7.99329,-3.8233 12.51173,-4.6053 8.6893,-0.6083 17.11793,0.087 24.24312,3.7364 2.6068,2.2592 4.9529,5.0398 4.084,8.5155 -1.9116,5.8219 -11.73055,0.9558 -10.6887,8.5155 1.47718,2.1724 4.5184,1.3034 6.8646,1.3912 4.5184,-0.9567 9.3844,-4.6053 10.6009,-9.2976 0.2607,-0.2606 0.5214,-0.6082 1.0427,-0.5213 0.869,2.0854 0.6952,4.5184 1.1296,6.7776 -0.4336,3.3037 0.1747,7.0401 9e-4,10.4289 z" />
  </g>
</svg>
