<?xml version="1.0" encoding="UTF-8" standalone="no"?>
<!-- Created with Inkscape (http://www.inkscape.org/) -->

<svg
   xmlns:dc="http://purl.org/dc/elements/1.1/"
   xmlns:cc="http://creativecommons.org/ns#"
   xmlns:rdf="http://www.w3.org/1999/02/22-rdf-syntax-ns#"
   xmlns:svg="http://www.w3.org/2000/svg"
   xmlns="http://www.w3.org/2000/svg"
   xmlns:sodipodi="http://sodipodi.sourceforge.net/DTD/sodipodi-0.dtd"
   xmlns:inkscape="http://www.inkscape.org/namespaces/inkscape"
   width="537"
   height="433"
   id="svg2"
   version="1.1"
   inkscape:version="0.48.4 r9939"
   sodipodi:docname="New document 1">
  <defs
     id="defs4" />
  <sodipodi:namedview
     id="base"
     pagecolor="#ffffff"
     bordercolor="#666666"
     borderopacity="1.0"
     inkscape:pageopacity="0.0"
     inkscape:pageshadow="2"
     inkscape:zoom="0.35"
     inkscape:cx="375"
     inkscape:cy="177.14286"
     inkscape:document-units="px"
     inkscape:current-layer="layer1"
     showgrid="false"
     inkscape:window-width="1366"
     inkscape:window-height="706"
     inkscape:window-x="-8"
     inkscape:window-y="-8"
     inkscape:window-maximized="1" />
  <metadata
     id="metadata7">
    <rdf:RDF>
      <cc:Work
         rdf:about="">
        <dc:format>image/svg+xml</dc:format>
        <dc:type
           rdf:resource="http://purl.org/dc/dcmitype/StillImage" />
        <dc:title></dc:title>
      </cc:Work>
    </rdf:RDF>
  </metadata>
  <g
     inkscape:label="Layer 1"
     inkscape:groupmode="layer"
     id="layer1"
     transform="translate(0,-619.36218)">
    <path
       inkscape:connector-curvature="0"
       id="path5"
       d="m 536.70745,830.75668 c -3.1785,-36.0585 -13.08,-68.9326 -32.523,-97.9213 -24.03844,-35.3497 -59.38814,-63.9814 -96.14968,-81.6567 -42.42062,-19.7971 -88.37573,-31.46329 -138.9281,-31.81527 -50.5514,0 -97.21242,9.89757 -139.986,29.69357 -35.350665,17.6753 -69.992495,44.5413 -93.324965,78.8302 -17.32042,24.7453 -29.3415702,51.2573 -33.9359102,81.3048 -4.59531,31.1093 -0.35394,62.9235 9.1906302,90.4974 14.13988,37.8263 39.94502,74.9437 75.29472,99.3321 22.271625,15.55672 46.662965,26.16112 71.408245,34.99872 9.19063,3.5345 18.73422,6.3621 28.6337,7.7779 18.38126,5.6542 38.88517,6.714 58.32726,9.5445 30.75341,2.4717 62.21469,0.352 90.85035,-5.3012 44.54033,-8.4867 85.54423,-25.4532 121.9577,-53.02512 27.57286,-20.15 51.61025,-48.0787 63.27555,-78.1262 11.3152,-25.4532 17.6773,-54.0859 15.9095,-84.1334 z m -27.5718,53.026 c -5.6552,20.502 -14.8488,39.9441 -29.34162,56.9115 -36.76447,45.9561 -86.96193,69.28772 -139.63206,82.36962 -35.34873,7.422 -76.35556,10.9564 -113.47397,4.5934 -41.36076,-4.9502 -79.18411,-18.0303 -114.53479,-37.82632 -33.229985,-19.0882 -61.510725,-53.732 -75.650605,-88.0218 -7.77586,-18.3793 -12.72414,-38.1783 -13.07807,-59.7401 -2.47463,-33.231 8.12979,-61.8627 22.97755,-88.3757 22.26968,-38.1783 59.742015,-71.0534 99.335055,-86.961 6.36108,-1.7677 12.01821,-4.9492 18.38028,-7.0699 48.4307,-15.9076 106.05106,-24.7453 159.07708,-12.7261 28.98471,4.9483 55.85263,15.5537 82.00975,28.2798 28.27976,13.432 53.73292,36.7644 74.94176,62.2176 18.73614,24.7443 29.34154,53.379 33.58494,84.4863 1.7657,20.8569 0.7069,42.7707 -4.5953,61.8627 z" />
    <path
       inkscape:connector-curvature="0"
       id="path7"
       d="m 208.6597,722.93988 c 7.06995,12.7261 7.06995,30.7544 0.35394,43.4795 -4.94827,9.1906 -13.08002,17.3224 -21.91769,22.9775 -0.35296,0.353 0,0.7069 0,1.0609 1.76773,1.4138 3.88939,1.4138 6.01008,2.4736 15.55367,9.8995 27.21795,26.1601 24.74528,45.6031 -1.06083,12.3722 -4.94827,23.6855 -13.08002,33.2261 -14.13989,13.7879 -32.87606,18.0303 -53.02505,16.6155 -12.37215,-0.7079 -23.68347,-4.2433 -33.58295,-11.6653 -9.19161,-7.4219 -13.43201,-18.0273 -12.01821,-29.6955 2.12166,-7.4219 9.19063,-14.8448 16.96746,-15.9076 8.83767,-1.7687 16.96942,1.7677 22.62557,8.4857 2.47365,3.8874 5.30221,8.1288 3.53448,13.432 -1.06083,3.5345 -3.88939,6.0091 -6.01008,9.1926 0.35394,3.5345 4.24235,4.9473 7.06994,6.0071 8.48373,3.1835 17.67534,0.7079 23.33149,-6.0071 10.6054,-12.728 9.89752,-33.583 2.12167,-47.3709 -3.8894,-8.4837 -12.72707,-14.1389 -21.9177,-15.5536 -4.24236,-0.353 -8.48373,0.7069 -12.72707,-0.353 -1.05888,-6.363 0,-13.08 0,-19.4421 0.35492,-2.1207 2.82954,-1.0598 4.24236,-1.4138 9.89752,0 18.38126,-2.8285 25.09922,-10.9583 6.716,-8.1298 10.25146,-18.3823 8.12979,-29.3396 -2.47462,-8.8377 -8.12979,-18.7362 -17.32042,-22.9776 -5.30221,-1.0618 -11.66721,-3.5355 -17.32141,-1.0618 2.11971,4.2423 4.94926,8.4837 5.6542,13.08 0.35393,8.1298 -2.82661,14.4938 -8.48374,19.797 -6.716,5.3022 -17.67534,6.716 -25.45022,2.1197 -8.13175,-5.6551 -12.02017,-15.5536 -9.19161,-25.8051 6.71601,-20.5029 28.98568,-25.8051 48.42875,-27.5729 21.91672,-1.0608 43.12654,7.4229 53.73194,27.5739 z" />
    <path
       inkscape:connector-curvature="0"
       id="path9"
       d="m 223.15352,736.01888 c 4.2404,21.5628 -6.36402,40.299 -23.33149,53.732 -0.35393,0.3539 -0.35393,1.0618 0,1.4138 12.37216,5.3031 23.68543,17.6753 26.1581,30.7553 1.76773,12.0202 4.94925,28.6327 -5.65615,37.4694 -0.35198,0.3549 0,0.7079 0,1.0638 l 0.35394,0.704 c 5.30221,-0.704 11.31327,-2.8276 13.43494,-8.4818 3.18054,-8.8377 1.76675,-19.4431 3.18054,-28.9876 0.35394,-14.1399 0.70592,-27.9269 1.76773,-42.0658 -0.70787,-9.8994 3.18153,-20.8568 -1.76773,-29.6945 -2.4756,-2.8295 -6.716,-2.1217 -8.83767,-4.5963 -0.35393,-5.3022 -0.35393,-11.3113 0.35296,-16.2615 2.47365,-2.1197 6.36305,-1.4138 9.54359,-1.7678 l 41.00683,0.354 1.76773,1.4138 26.86499,52.6721 15.55563,30.4004 c 0.35198,0.7069 1.05986,1.0599 1.76773,0.3549 13.78888,-27.9268 26.51301,-56.2065 39.94502,-84.1343 l 1.05985,-1.0609 h 51.61321 c 1.05986,0.354 3.17859,0 3.88744,1.4158 0,5.3022 1.05986,10.6054 0,15.5537 -2.47462,1.4138 -5.65517,0.7059 -8.12979,1.4138 -2.82759,0.7078 -6.36305,1.0598 -8.48569,3.8884 -1.41184,2.4736 -2.4717,5.6571 -1.41184,8.4837 l 8.48178,57.2684 5.30319,37.4684 c 2.12264,2.4756 5.6581,2.4756 8.48568,3.5355 2.82759,1.0598 7.06897,0 8.83767,2.8276 0,7.4258 -0.35198,14.8487 -0.70787,22.2736 -0.351,1.0598 -1.41184,1.7677 -2.4756,2.1187 l -69.28366,0.352 c -1.76871,0 -2.82856,-0.704 -3.18348,-2.1188 -0.70494,-7.7778 -3.17957,-15.2007 -2.82758,-22.9785 6.01008,-3.8865 18.73421,0.352 18.03025,-10.9574 -2.12362,-16.9694 -3.53546,-33.9378 -6.71796,-50.5514 -0.35198,-0.3529 -0.35198,-1.0608 -1.05985,-1.0608 -1.41477,0 -1.76773,1.4157 -2.47561,2.4756 l -32.52211,69.9915 c -2.47561,4.9503 -4.59434,10.2525 -7.4229,14.8478 -3.89038,1.7687 -8.48569,1.0598 -12.72903,1.4157 -2.8266,-0.3559 -2.8266,-3.5344 -4.23844,-5.3022 l -33.22999,-63.2784 c -3.18152,-5.6552 -5.65615,-12.0192 -9.19161,-17.6754 -0.70592,0 -1.05888,0.353 -1.41379,0.7069 -1.05986,17.3195 -1.76675,35.3497 -2.82661,52.6701 0.35198,1.7678 1.05986,3.1825 2.82661,4.5973 2.4756,2.4717 7.77781,0.705 8.83767,4.5944 -0.35296,7.0709 -1.05986,14.4928 -0.35296,21.5637 -1.41282,2.1227 -4.59434,1.0589 -7.06994,1.7668 l -39.94502,-0.351 c -1.06083,0 -1.76675,-1.4148 -2.12167,-2.4747 -1.76675,-5.3032 -0.70689,-12.3721 -3.18054,-17.6753 -1.06181,-0.7079 -1.41379,1.0598 -2.12069,1.4148 -5.65713,9.8975 -16.26155,17.6753 -27.22088,19.0862 -0.35199,0 -0.35199,-0.351 -0.35199,-0.7079 3.53449,-2.8276 8.48276,-3.8875 12.72414,-7.069 13.7879,-11.6652 19.797,-27.2169 19.797,-45.2472 -0.35393,-18.3822 -13.07904,-36.4096 -30.4024,-42.7726 l 0.35491,-1.0618 c 16.96845,-9.8975 26.86597,-27.5729 25.80612,-47.014 -1.06084,-11.6672 -4.5963,-22.2726 -12.72609,-30.7554 l -7.77782,-7.7758 v -1.0618 c 14.13793,4.5963 23.32954,19.0881 25.4512,32.876 z" />
    <path
       inkscape:connector-curvature="0"
       id="path11"
       d="m 157.40141,726.11938 c 1.05986,6.716 -1.41379,13.0801 -6.01008,17.6754 -1.76773,1.0618 -3.18055,3.1815 -5.30221,2.8295 0.35393,-2.1216 2.82954,-2.8295 3.53448,-4.9502 4.95023,-6.716 4.24235,-17.3204 0,-24.0364 -0.35198,-0.7079 -1.05986,-1.4138 -0.70592,-2.1217 0.35394,-1.0599 1.76773,-0.3539 2.82758,0 3.53449,2.8286 4.24236,6.715 5.65615,10.6034 z" />
    <path
       inkscape:connector-curvature="0"
       id="path13"
       d="m 291.73224,733.89818 c 12.72511,22.9766 22.62557,47.368 35.70266,69.9925 0,2.1217 -0.70494,3.8885 -1.76773,5.3023 h -1.05985 c -13.43201,-26.1581 -27.21991,-52.3172 -39.59304,-78.8302 2.83052,-2.1217 5.6581,1.4147 6.71796,3.5354 z" />
    <path
       inkscape:connector-curvature="0"
       id="path15"
       d="m 429.24557,731.42258 c -0.3559,5.3032 0.70494,11.3133 -0.70885,16.6155 -1.05888,1.0599 -2.82759,1.4138 -4.24236,1.0599 -1.05986,-1.0599 0.70885,-1.4138 0.70885,-2.4737 l 0.35198,-15.5556 c 0.7069,-1.7677 3.53448,-1.4128 3.89038,0.3539 z" />
    <path
       inkscape:connector-curvature="0"
       id="path17"
       d="m 421.11186,749.45188 c -3.88744,0.353 -7.42192,2.4746 -8.83767,6.0091 0,9.5446 1.41575,18.7352 2.4756,27.5729 3.89038,20.5019 6.01009,41.3598 9.54555,61.8627 1.06083,3.1835 0.351,7.4219 3.88744,8.4857 l 13.43592,3.1795 1.41183,1.0599 c -0.35198,8.8377 -0.35198,17.6753 -1.76773,26.161 -1.06083,1.0599 -2.82758,1.0599 -4.24333,0.7079 -0.70396,-0.7079 0.70787,-1.7677 0.70787,-2.8276 -0.35198,-7.4268 1.06084,-14.4958 0.3559,-21.9187 l -1.76773,-1.7667 c -5.30417,-0.7089 -10.25342,-1.7687 -14.49578,-3.5355 -2.47462,-2.1236 -1.7687,-5.6581 -2.12069,-8.8376 -4.59433,-29.3396 -8.12881,-59.0352 -12.72706,-88.3748 0,-2.1207 1.76675,-3.8894 2.83052,-5.6571 3.17956,-2.8286 7.42192,-2.1207 11.30838,-2.8286 v 0.7079 z" />
    <path
       inkscape:connector-curvature="0"
       id="path19"
       d="m 269.10765,813.08138 1.41477,2.8276 -1.76871,38.8851 c 2.82759,3.1845 8.48471,2.1246 11.66526,5.3032 0.35491,8.1298 -0.35199,16.6155 -1.05986,24.7463 -1.05985,1.0588 -2.82758,0.7069 -3.8894,0.7069 l -0.70591,-0.7069 c 0.35198,-7.7788 0.70591,-15.5518 0.70591,-23.3296 0,-1.0598 -1.05985,-1.4157 -1.76773,-1.7687 -3.53448,-1.0598 -8.48373,-0.7078 -9.89752,-4.9502 2.12167,-14.8478 1.05888,-30.3995 2.82758,-45.6012 l 0.35296,-0.3539 c 1.76969,0.7069 1.06181,2.8276 2.12265,4.2414 z" />
    <path
       inkscape:connector-curvature="0"
       id="path21"
       d="m 156.69354,842.06998 c 2.4756,6.3621 0.70787,14.1399 -3.18055,19.4431 -1.05985,2.4746 -3.53545,3.1785 -6.0091,2.4746 -0.35394,0 -0.7069,-0.7089 -1.06084,-1.0628 3.53449,-3.5355 7.06994,-7.7749 6.71601,-13.432 0.70787,-7.4229 -4.94828,-13.081 -10.60442,-16.9675 l 0.35295,-0.7079 c 5.65615,1.0589 12.0192,4.5944 13.78595,10.2525 z" />
    <path
       inkscape:connector-curvature="0"
       id="path23"
       d="m 155.98762,917.71668 c 1.76773,2.8315 2.82759,6.0101 2.82759,9.5455 -2.82759,1.4158 -6.36207,0 -9.54359,0.3559 -1.06084,-3.8903 -3.53448,-8.1327 -7.77782,-9.1926 -4.59531,-1.0608 -8.83767,-0.3519 -11.66525,3.1825 -4.95023,6.3631 -4.5963,16.6145 -1.76773,23.6864 0.70592,2.4708 3.53546,5.3023 6.0091,6.3611 3.53449,1.0609 8.13176,1.0609 10.95836,-1.0588 2.82661,-2.1227 3.18153,-5.6581 4.59434,-8.1328 3.1825,0.7069 7.06994,-1.0598 9.54554,0.7069 -0.35393,6.3631 -3.53545,12.3732 -9.1916,15.5557 -6.00813,3.1805 -14.13891,3.8874 -20.14801,1.0608 -8.83767,-3.8884 -13.08003,-12.7261 -13.7879,-21.2108 -1.05986,-10.9564 2.12069,-22.6256 12.37215,-27.5719 9.19161,-3.8923 21.56474,-2.1256 27.57482,6.7121 z" />
    <path
       inkscape:connector-curvature="0"
       id="path25"
       d="m 411.21433,909.58688 c 3.89038,5.6581 6.01009,12.728 9.89753,18.3832 1.06377,0 1.41575,-1.4157 2.12362,-2.4756 l 7.42192,-15.5517 1.05986,-0.7079 10.25244,0.352 c 1.06083,1.0598 -0.351,2.1226 -0.7069,3.1825 l -14.84873,26.513 -0.35198,20.15 c -2.47463,1.0588 -6.01009,0.352 -9.18867,0.352 l -0.70886,-1.0609 -0.70787,-20.5029 -15.55563,-27.9268 c -0.351,-0.7079 0.35589,-1.0599 0.70885,-1.0599 l 10.60442,0.353 z" />
    <path
       inkscape:connector-curvature="0"
       id="path27"
       d="m 395.66262,909.94278 0.35198,49.4905 c -0.35198,0.704 -1.06084,0.704 -1.76871,0.704 l -8.83767,-0.351 -18.73422,-29.6965 c -0.70787,0 -1.41477,0 -1.41477,0.7089 l -0.35198,28.6356 -1.05986,0.704 c -2.83149,-1.0599 -8.83767,2.4746 -8.83767,-2.8266 v -46.664 c 0.35199,-0.7049 1.05986,-1.0598 1.76773,-1.0598 l 9.18966,0.3549 18.38223,28.9847 c 0.35296,0.7079 1.41184,1.0638 1.41184,0 l 0.70787,-28.6318 0.70885,-1.0598 h 7.77684 l 0.70788,0.7069 z" />
    <path
       inkscape:connector-curvature="0"
       id="path29"
       d="m 262.74363,909.94278 c 0.70787,16.6116 1.06181,32.8751 0.35393,49.4905 -2.47267,1.0589 -6.00813,0.352 -8.83767,0.352 l -0.70689,-1.4157 c 0,-9.5417 0,-18.7352 -0.7069,-27.9249 -2.12167,-0.7088 -1.41379,2.8276 -2.12167,3.8875 l -6.716,25.1011 c -3.18054,0.704 -6.36207,0.704 -9.54554,0.704 l -1.05986,-2.1197 c -2.82759,-9.5446 -4.94827,-19.0901 -8.1298,-28.6317 l -0.35393,-0.355 -0.7069,0.7069 -0.35394,29.6965 -0.70592,0.704 h -8.13175 l -0.70592,-1.0599 c 0,-16.2596 -0.70787,-32.875 0.35296,-48.7827 4.94926,0 9.89753,-0.7078 14.8458,0 1.41477,0.7079 0.35492,2.4747 1.41477,3.1835 l 7.06897,26.865 c 0.35393,0.351 0.70787,0.351 1.41575,0.351 l 0.70591,-1.0598 7.42388,-28.9867 1.05986,-0.7049 c 4.59824,-10e-4 9.54652,-0.3569 14.14086,-10e-4 z" />
    <path
       inkscape:connector-curvature="0"
       id="path31"
       d="m 205.12425,919.84028 c -3.18055,-5.6581 -9.54457,-10.2524 -16.26057,-10.9613 -7.77586,-1.4108 -15.19974,1.0638 -20.50293,6.367 -8.13077,7.7739 -7.77781,21.5618 -4.59629,31.8142 3.1825,7.4219 10.25244,13.432 18.38321,14.1399 8.83767,1.0608 17.32043,-2.4746 22.62362,-10.2515 4.94729,-8.8386 4.94729,-21.9186 0.35296,-31.1083 z m -10.95934,27.9239 c -3.18055,3.8904 -8.1298,4.5992 -12.72609,3.5354 -4.59434,-1.4128 -7.42192,-5.6551 -8.48373,-9.8975 -1.76676,-8.1298 -0.70592,-17.3194 6.36402,-22.2697 5.30221,-2.8285 12.72413,-1.4157 15.90859,4.2424 4.23942,7.0699 3.53448,17.6753 -1.06279,24.3894 z" />
    <path
       inkscape:connector-curvature="0"
       id="path33"
       d="m 305.87212,917.36468 c -6.71894,-12.0202 -21.56278,-6.0091 -33.22901,-7.4219 l -0.70788,0.7049 c -0.35393,15.5547 -0.35393,31.8152 0,47.7229 0,0.7078 0.35296,1.7677 1.41282,1.7677 h 7.42583 l 0.70494,-0.704 0.35589,-15.9086 1.05986,-1.0628 c 7.42192,-0.7049 15.55465,1.0628 20.85784,-4.9472 4.9473,-4.9513 4.9473,-14.1409 2.11971,-20.151 z m -9.54457,12.3722 c -2.4756,4.5953 -8.48275,2.8285 -13.081,2.8285 l -1.41086,-1.4118 0.35101,-11.3123 c 2.12362,-1.7677 6.36304,-0.7079 9.19356,-0.7079 2.11873,0 3.88744,1.0599 5.30221,3.1825 0.70494,2.1187 0.70494,4.9463 -0.35492,7.421 z" />
    <path
       inkscape:connector-curvature="0"
       id="path35"
       d="m 350.76639,957.66558 -16.96747,-47.0189 c -1.41574,-2.8285 -5.30221,-0.7049 -8.13273,-1.4118 -1.05985,0.352 -3.17956,-0.7079 -4.23942,0.7079 -5.6581,16.2596 -11.66819,32.1672 -16.6145,48.7827 l 0.351,0.7088 c 3.18348,0.352 6.71796,0.352 9.89753,0 2.47462,-2.8315 2.12362,-7.0689 4.95022,-10.2534 h 15.19974 c 2.82759,2.1207 2.82759,6.0111 3.89038,9.1897 l 1.41183,1.0637 h 9.54457 c 0.70885,-10e-4 1.06181,-1.0647 0.70885,-1.7687 z m -19.44111,-17.6753 c -3.1825,-0.7079 -7.42584,1.4118 -8.83767,-1.7687 1.76773,-4.9503 2.11971,-10.6045 4.94729,-15.2027 l 0.70885,0.3549 c 1.76676,4.9473 3.53449,9.8975 4.59434,15.1998 -9.8e-4,0.7088 -0.70592,1.4167 -1.41281,1.4167 z" />
  </g>
</svg>
