<?xml version="1.0" encoding="UTF-8" standalone="no"?>
<svg
   xmlns:dc="http://purl.org/dc/elements/1.1/"
   xmlns:cc="http://creativecommons.org/ns#"
   xmlns:rdf="http://www.w3.org/1999/02/22-rdf-syntax-ns#"
   xmlns:svg="http://www.w3.org/2000/svg"
   xmlns="http://www.w3.org/2000/svg"
   xmlns:sodipodi="http://sodipodi.sourceforge.net/DTD/sodipodi-0.dtd"
   xmlns:inkscape="http://www.inkscape.org/namespaces/inkscape"
   version="1.1"
   x="0px"
   y="0px"
   width="765"
   height="300"
   viewBox="0 0 765.00002 299.99999"
   enable-background="new 0 0 2211.023 566.929"
   xml:space="preserve"
   id="svg2">
<path
   style="fill:#ed1c24"
   id="path241"
   d="M 53.5495,147.0012 104.9992,0.00108543 h 41.9999 V 147.0012 H 53.5495 z m 99.4493,0 h 93.44961 L 194.9987,-1.4567058e-5 H 152.9988 V 147.0012 z m 95.55041,5.9986 H 152.9998 V 240 h 51 l 20.99621,60 h 75.004 l -51.4508,-147.0002 z m -101.55011,0 H 51.4497 L 0,300 h 75.0579 l 20.9423,-60 h 51 v -87.0002 z m 261.00051,-5.9986 V -1.4567058e-5 h -87.0012 V 147.0002 h 87.0012 z m 5.9997,5.9986 V 300 h 26.9991 c 49.7066,0 89.9994,-40.2949 89.9994,-89.9995 0,-21.6397 -7.6485,-41.4834 -20.3792,-57.0007 h -96.6193 z m 0,-5.9986 h 91.2282 c -8.744,-8.9048 -19.3146,-16.0115 -31.1171,-20.6851 20.5221,-11.5781 34.3894,-33.571305 34.3894,-58.815715 0,-37.2797 -30.2206,-67.49929957 -67.4993,-67.49929957 h -27.0012 V 147.0012 z m -5.9997,5.9986 h -87.0012 V 300 h 87.0012 V 152.9998 z m 234.0003,-5.9986 V -1.4567058e-5 h -87.0002 V 147.0002 h 87.0002 z m 5.9986,5.9986 V 300 h 27.00021 c 49.7067,0 89.9995,-40.2949 89.9995,-89.9995 0,-21.6397 -7.6486,-41.4834 -20.3793,-57.0007 h -96.62041 z m 0,-5.9986 h 91.22931 c -8.7439,-8.9048 -19.3146,-16.0115 -31.1171,-20.6851 20.5221,-11.5781 34.3894,-33.571305 34.3894,-58.815715 0,-37.2797 -30.2206,-67.49929957 -67.4993,-67.49929957 H 647.99851 V 147.0012 z m -5.9986,5.9986 h -87.0002 V 300 h 87.0002 V 152.9998 z" />
</svg>