<?xml version="1.0" encoding="UTF-8" standalone="no"?>
<!-- Created with Inkscape (http://www.inkscape.org/) -->

<svg
   xmlns:dc="http://purl.org/dc/elements/1.1/"
   xmlns:cc="http://creativecommons.org/ns#"
   xmlns:rdf="http://www.w3.org/1999/02/22-rdf-syntax-ns#"
   xmlns:svg="http://www.w3.org/2000/svg"
   xmlns="http://www.w3.org/2000/svg"
   xmlns:sodipodi="http://sodipodi.sourceforge.net/DTD/sodipodi-0.dtd"
   xmlns:inkscape="http://www.inkscape.org/namespaces/inkscape"
   width="281.9007"
   height="323.23819"
   id="svg2"
   version="1.1"
   inkscape:version="0.47 r22583"
   sodipodi:docname="ABS-CBN logo.svg"
   style="display:inline">
  <defs
     id="defs4">
    <inkscape:perspective
       sodipodi:type="inkscape:persp3d"
       inkscape:vp_x="0 : 526.18109 : 1"
       inkscape:vp_y="0 : 1000 : 0"
       inkscape:vp_z="744.09448 : 526.18109 : 1"
       inkscape:persp3d-origin="372.04724 : 350.78739 : 1"
       id="perspective10" />
    <inkscape:perspective
       id="perspective3596"
       inkscape:persp3d-origin="0.5 : 0.33333333 : 1"
       inkscape:vp_z="1 : 0.5 : 1"
       inkscape:vp_y="0 : 1000 : 0"
       inkscape:vp_x="0 : 0.5 : 1"
       sodipodi:type="inkscape:persp3d" />
    <inkscape:perspective
       id="perspective3653"
       inkscape:persp3d-origin="0.5 : 0.33333333 : 1"
       inkscape:vp_z="1 : 0.5 : 1"
       inkscape:vp_y="0 : 1000 : 0"
       inkscape:vp_x="0 : 0.5 : 1"
       sodipodi:type="inkscape:persp3d" />
    <inkscape:perspective
       id="perspective3680"
       inkscape:persp3d-origin="0.5 : 0.33333333 : 1"
       inkscape:vp_z="1 : 0.5 : 1"
       inkscape:vp_y="0 : 1000 : 0"
       inkscape:vp_x="0 : 0.5 : 1"
       sodipodi:type="inkscape:persp3d" />
    <inkscape:perspective
       id="perspective3704"
       inkscape:persp3d-origin="0.5 : 0.33333333 : 1"
       inkscape:vp_z="1 : 0.5 : 1"
       inkscape:vp_y="0 : 1000 : 0"
       inkscape:vp_x="0 : 0.5 : 1"
       sodipodi:type="inkscape:persp3d" />
  </defs>
  <sodipodi:namedview
     id="base"
     pagecolor="#ffffff"
     bordercolor="#666666"
     borderopacity="1.0"
     inkscape:pageopacity="0.0"
     inkscape:pageshadow="2"
     inkscape:zoom="1.747937"
     inkscape:cx="140.95036"
     inkscape:cy="161.61909"
     inkscape:document-units="px"
     inkscape:current-layer="layer2"
     showgrid="false"
     inkscape:window-width="1152"
     inkscape:window-height="808"
     inkscape:window-x="-4"
     inkscape:window-y="-4"
     inkscape:window-maximized="1" />
  <metadata
     id="metadata7">
    <rdf:RDF>
      <cc:Work
         rdf:about="">
        <dc:format>image/svg+xml</dc:format>
        <dc:type
           rdf:resource="http://purl.org/dc/dcmitype/StillImage" />
        <dc:title></dc:title>
      </cc:Work>
    </rdf:RDF>
  </metadata>
  <g
     inkscape:groupmode="layer"
     id="layer3"
     inkscape:label="Text"
     style="display:inline"
     transform="translate(-208.71875,-376.96396)">
    <path
       style="fill:#000000;stroke:none"
       d="m 239.25,666.9375 -20.6875,0.125 c 0,0 2.87963,1.50116 4.375,1.875 1.49537,0.37384 4.49382,-0.3966 2.5,2.71875 -1.99383,3.11536 -16.71875,27.5625 -16.71875,27.5625 l 5.5,0.125 5.71875,-9.5 17.9375,0.25 6.125,9 14.4375,0 L 239.25,666.9375 z m -9.96875,6.59375 8.21875,13.34375 -15.8125,0 7.59375,-13.34375 z"
       id="path3635" />
    <path
       style="fill:#000000;stroke:none"
       d="m 272.25,666.78125 c -10.5377,0.0175 -20.81279,0.15625 -20.90625,0.15625 0,0 4.00656,0.37962 6.125,1.875 2.11844,1.49537 2.46914,1.48302 2.59375,6.09375 0.12462,4.61073 -0.125,23.9375 -0.125,23.9375 0,0 16.95717,0.25038 23.3125,0.375 6.35533,0.12461 19.56096,-0.0262 19.0625,-8.5 -0.49846,-8.47377 -10.21875,-8.59375 -10.21875,-8.59375 0,0 9.21721,-1.36188 8.71875,-7.21875 -0.49846,-5.85688 -5.47723,-7.96914 -18.3125,-8.09375 -3.20882,-0.0312 -6.73743,-0.0371 -10.25,-0.0312 z m 4.375,2.65625 c 4.27875,-0.0292 10.06346,0.85918 10.375,5.84375 0.49846,7.97531 -15.09337,5.46837 -14.96875,5.34375 l 0,-10.84375 c 0,0 2.0265,-0.32623 4.59375,-0.34375 z m 0.34375,15.25 c 4.79705,-0.0291 11.24448,0.85196 11.59375,5.8125 0.55884,7.93686 -16.88972,5.46777 -16.75,5.34375 l 0,-10.8125 c 0,0 2.27802,-0.32631 5.15625,-0.34375 z"
       id="path3637" />
    <path
       style="fill:#000000;stroke:none"
       d="m 303.56044,689.60994 -0.12461,9.34608 c 0,0 10.09376,1.24614 16.69832,1.24614 6.60455,0 22.6798,-1.86921 21.30904,-10.96606 -1.37075,-9.09684 -14.08141,-10.21837 -19.68906,-11.21529 -5.60764,-0.99691 -10.09376,-3.73843 -6.47994,-7.72608 3.61381,-3.98766 15.57679,-0.8723 18.56753,1.61998 2.99074,2.49229 4.3615,4.11227 4.3615,4.11227 l 0.12461,-8.34915 c 0,0 -5.73225,-2.11845 -16.5737,-2.11845 -10.84144,0 -18.44291,2.99075 -18.56753,10.34299 -0.12461,7.35224 8.59839,8.22454 20.0629,11.71375 11.46452,3.4892 4.3615,9.22145 -2.49228,9.47068 -6.85379,0.24923 -17.32139,-7.35224 -17.19678,-7.47686 z"
       id="path3639" />
    <rect
       style="fill:#000000;fill-opacity:1;fill-rule:nonzero;stroke:none"
       id="rect3641"
       width="13.956802"
       height="13.333731"
       x="343.18781"
       y="674.78082" />
    <path
       style="fill:#000000;stroke:none"
       d="m 405.1211,688.11457 c 0,0 -5.35841,8.34916 -16.94754,8.22455 -11.58913,-0.12462 -14.33065,-7.22763 -14.20603,-13.45835 0.12461,-6.23071 2.24305,-12.95989 10.96605,-12.83527 8.72301,0.12461 9.22146,7.10301 9.22146,7.10301 l 10.96606,0 c 0,0 0.12462,-12.08758 -21.55827,-11.3399 -21.68289,0.74769 -23.05365,10.71683 -23.05365,17.69523 0,6.9784 5.73226,16.69832 17.19677,16.69832 11.46452,0 25.17209,-2.24306 25.17209,-2.24306 l 2.24306,-9.84453 z"
       id="path3643" />
    <path
       style="fill:#000000;stroke:none"
       d="m 420.72363,666.52782 c -10.5377,0.0175 -20.81279,0.15625 -20.90625,0.15625 0,0 4.00656,0.37962 6.125,1.875 2.11844,1.49537 2.46914,1.48302 2.59375,6.09375 0.12462,4.61073 -0.125,23.9375 -0.125,23.9375 0,0 16.95717,0.25038 23.3125,0.375 6.35533,0.12461 19.56096,-0.0262 19.0625,-8.5 -0.49846,-8.47377 -10.21875,-8.59375 -10.21875,-8.59375 0,0 9.21721,-1.36188 8.71875,-7.21875 -0.49846,-5.85688 -5.47723,-7.96914 -18.3125,-8.09375 -3.20882,-0.0312 -6.73743,-0.0371 -10.25,-0.0312 z m 4.375,2.65625 c 4.27875,-0.0292 10.06346,0.85918 10.375,5.84375 0.49846,7.97531 -15.09337,5.46837 -14.96875,5.34375 l 0,-10.84375 c 0,0 2.0265,-0.32623 4.59375,-0.34375 z m 0.34375,15.25 c 4.79705,-0.0291 11.24448,0.85196 11.59375,5.8125 0.55884,7.93686 -16.88972,5.46777 -16.75,5.34375 l 0,-10.8125 c 0,0 2.27802,-0.32631 5.15625,-0.34375 z"
       id="path3637-4" />
    <path
       style="fill:#000000;stroke:none"
       d="m 445.37152,666.93014 c 0,0 7.47686,-0.24923 7.60147,7.47686 0.12462,7.72609 -0.24922,24.67363 -0.24922,24.67363 l 5.2338,0 -0.24923,-20.43674 21.30904,20.43674 10.96606,-0.12461 0,-32.27511 -14.33064,-0.12461 c 0,0 8.97223,0.62307 9.09684,6.35533 0.12462,5.73226 0,15.82601 0,15.82601 l -23.17826,-22.05673 -16.19986,0.24923 z"
       id="path3718" />
  </g>
  <g
     inkscape:groupmode="layer"
     id="layer2"
     inkscape:label="Logo"
     style="display:inline"
     transform="translate(-208.71875,-376.96396)">
    <rect
       style="fill:#c4c9cc;fill-opacity:1;fill-rule:nonzero;stroke:none"
       id="rect3603"
       width="280.35397"
       height="281.62833"
       x="210.26549"
       y="376.96396" />
    <path
       style="fill:#ea011d;fill-opacity:1;fill-rule:nonzero;stroke:#c10a1d;stroke-opacity:1"
       d="m 349.8125,387.8125 c -71.06768,0 -128.6875,58.19728 -128.6875,129.96875 0,66.20641 49.04892,120.83252 112.4375,128.90625 l 0,-19.3125 c -52.84421,-8.0339 -93.34375,-53.88917 -93.34375,-109.28125 0,-61.05335 49.2048,-110.53125 109.90625,-110.53125 60.70145,0 109.90625,49.4779 109.90625,110.53125 0,55.6412 -40.86964,101.6788 -94.0625,109.40625 l 0,19.1875 C 429.40209,638.65517 478.5,584.01983 478.5,517.78125 478.5,446.00978 420.88018,387.8125 349.8125,387.8125 z"
       id="path3605" />
    <path
       style="fill:#03973f;fill-opacity:1;fill-rule:nonzero;stroke:none"
       d="m 350.4375,427.96875 c -49.24391,0 -89.15625,40.4898 -89.15625,90.4375 0,44.42893 31.58221,81.37809 73.21875,89 l 0,-20.59375 c -31.34651,-7.02325 -54.78125,-35.11307 -54.78125,-68.71875 0,-38.89151 31.37818,-70.40625 70.09375,-70.40625 38.71557,0 70.09375,31.51474 70.09375,70.40625 0,33.6187 -23.4477,61.74039 -54.8125,68.75 l 0,20.78125 c 42.27125,-7.08877 74.5,-44.33303 74.5,-89.21875 0,-49.9477 -39.91234,-90.4375 -89.15625,-90.4375 z"
       id="path3610" />
    <path
       style="fill:#023691;fill-opacity:1;fill-rule:nonzero;stroke:none"
       d="m 350.125,467.4375 c -27.62048,0 -50,22.54733 -50,50.34375 0,22.30446 14.41039,41.21295 34.375,47.8125 l 0,-20.5625 c -8.76892,-5.48812 -16.65246,-15.353 -16.65246,-26.625 0,-17.23842 15.02762,-32.79566 31.91414,-32.79566 16.88652,0 32.39593,15.10669 32.39593,32.34511 0,11.82611 -7.56071,22.5594 -17.06386,27.8568 l 0,20 c 20.30637,-6.39756 35.03125,-25.48168 35.03125,-48.03125 0,-27.79642 -22.37952,-50.34375 -50,-50.34375 z"
       id="path3615"
       sodipodi:nodetypes="csccsssccsc" />
    <rect
       style="fill:#1b1718;fill-opacity:1;fill-rule:nonzero;stroke:none"
       id="rect3629"
       width="18.318584"
       height="140.33629"
       x="340.56638"
       y="517.77814" />
  </g>
</svg>
