<?xml version="1.0" encoding="utf-8"?>
<!-- Generator: Adobe Illustrator 16.0.0, SVG Export Plug-In . SVG Version: 6.00 Build 0)  -->
<!DOCTYPE svg PUBLIC "-//W3C//DTD SVG 1.1//EN" "http://www.w3.org/Graphics/SVG/1.1/DTD/svg11.dtd">
<svg version="1.1" id="Layer_1" xmlns="http://www.w3.org/2000/svg" xmlns:xlink="http://www.w3.org/1999/xlink" x="0px" y="0px"
	 width="1052px" height="1208px" viewBox="0 0 1052 1208" enable-background="new 0 0 1052 1208" xml:space="preserve">
<g>
	<rect x="26.634" y="13.356" fill="#FFFFFF" width="1006.744" height="1020.958"/>
	<path fill="#00A155" d="M530.65,180.499c-187.951,0-340.319,151.208-340.319,337.734c0,165.047,119.307,302.42,276.996,331.875
		v-79.886c-108.77-28.77-189.115-129.908-189.115-250.265c0-142.75,113.023-258.471,252.438-258.471
		c139.421,0,252.441,115.721,252.441,258.471c0,120.833-80.983,222.288-190.407,250.598v79.798
		c158.331-28.943,278.288-166.622,278.288-332.12C870.973,331.708,718.607,180.499,530.65,180.499z"/>
	<path fill="#EA292C" d="M529.791,32.31c-265.515,0-480.756,217.364-480.756,485.493c0,246.676,182.179,450.37,418.074,481.39
		v-87.916c-188.137-30.183-331.917-193.993-331.917-391.58c0-219.023,176.668-396.577,394.597-396.577
		c217.933,0,394.6,177.553,394.6,396.577c0,197.587-143.782,361.396-331.921,391.58v87.916
		c235.898-31.02,418.082-234.71,418.082-481.39C1010.549,249.675,795.304,32.31,529.791,32.31z"/>
	<path fill="#046AB2" d="M531.298,318.351c-108.845,0-197.084,89.394-197.084,199.67c0,87.579,55.681,161.932,133.113,188.853
		v-96.057c-28.89-20.539-47.818-54.72-47.818-93.443c0-62.811,49.763-113.728,111.143-113.728
		c61.385,0,111.143,50.917,111.143,113.728c0,39.305-19.485,73.949-49.108,94.375v96.01
		c78.778-26.143,135.696-101.187,135.696-189.737C728.381,407.744,640.145,318.351,531.298,318.351z"/>
	<rect x="494.466" y="521.252" width="72.371" height="513.063"/>
	<path d="M126.572,1081.699H83.664l-69.126,116.968h19.668l17.875-30.563h69.725l17.874,30.563h50.652L126.572,1081.699z
		 M60.721,1153.405l27.712-47.31l28.006,47.31H60.721z"/>
	<path d="M315.536,1135.484c0,0,30.558-2.646,31.972-24.396c0,0,0.287-27.921-48.102-29.389h-99.89v116.968h110.926
		c0,0,40.747-1.47,41.03-29.978C351.471,1168.69,353.454,1143.713,315.536,1135.484z M244.509,1098.453
		c0-5.587,5.377-5.876,5.377-5.876c16.411-1.764,28.013,0,28.013,0c22.921,7.049,20.658,19.981,20.658,19.981
		c-4.811,20.864-30.276,19.691-30.276,19.691H244.51L244.509,1098.453L244.509,1098.453z M305.912,1168.543
		c-0.564,29.533-56.31,19.839-56.31,19.839c-5.94-1.178-5.094-4.41-5.094-4.41v-35.267v-1.759h33.389
		C306.763,1150.468,305.912,1168.543,305.912,1168.543z"/>
	<path stroke="#FF0000" stroke-miterlimit="10" d="M417.62,1108.965"/>
	<path stroke="#FF0000" stroke-miterlimit="10" d="M534.924,1073.734"/>
	<g>
		<path d="M493.443,1152.853c0.008-0.004,0.019-0.004,0.028-0.008c-0.015-0.018-3.518-6.378-10.074-10.442
			c-3.561-2.641-7.84-4.927-12.358-6.906c-9.548-4.263-21.398-7.674-34.775-9.911c-1.304-0.235-2.053-0.34-2.053-0.34
			c-0.097-0.014-0.178-0.027-0.27-0.039c-2.375-0.37-4.793-0.704-7.253-0.991c-30.222-5.059-30.348-17.53-30.348-17.53
			c3.174-18.896,36.012-17.355,36.012-17.355c25.204-0.88,51.047,23.729,51.047,23.729v-30.143
			c-11.51-2.422-23.846-3.781-35.938-3.781c-75.687-3.992-90.66,17.723-90.66,39.585c0,2.546,0.569,5.038,1.616,7.441l1.063,1.18
			c11.105,18.985,45.543,26.384,45.543,26.384c49.99,5.733,45.543,23.062,45.543,23.062c-2.754,16.914-30.29,15.153-30.29,15.153
			c-31.562-0.653-60.798-26.996-60.798-26.996v32.194c12.067,2.162,25.414,3.372,39.473,3.372
			c80.42,2.923,96.945-17.443,96.945-38.952C495.897,1158.557,495.032,1155.656,493.443,1152.853z"/>
	</g>
	<rect x="507.389" y="1118.319" width="46.525" height="45.961"/>
	<path d="M727.021,1166.717c-10.675,14.497-30.024,24.182-52.119,24.182c-41.074-0.29-60.901-22.443-60.901-50.119
		c0-27.681,18.979-49.837,60.901-50.122c22.094,0,41.444,9.688,52.119,24.185v-30.337c-14.538-3.833-30.823-5.981-48.02-5.981
		c-83.66-4.332-111.195,27.358-111.195,61.098c0,33.748,20.588,65.437,111.195,61.096c17.195,0,33.481-2.144,48.02-5.973V1166.717z"
		/>
	<path d="M855.74,1135.484c0,0,30.559-2.646,31.971-24.396c0,0,0.287-27.921-48.101-29.389h-99.889v116.968h110.923
		c0,0,40.747-1.47,41.03-29.978C891.674,1168.69,893.657,1143.713,855.74,1135.484z M784.713,1098.453
		c0-5.587,5.376-5.876,5.376-5.876c16.409-1.764,28.012,0,28.012,0c22.922,7.049,20.661,19.981,20.661,19.981
		c-4.811,20.864-30.278,19.691-30.278,19.691h-23.771V1098.453z M846.116,1168.543c-0.565,29.533-56.309,19.839-56.309,19.839
		c-5.942-1.178-5.095-4.41-5.095-4.41v-35.267v-1.759H818.1C846.966,1150.468,846.116,1168.543,846.116,1168.543z"/>
	<polygon points="898.971,1081.699 935.149,1081.699 1021.277,1160.009 1021.277,1081.699 1038.547,1081.699 1038.547,1198.858 
		999.076,1198.858 916.445,1124.861 916.445,1198.858 898.971,1198.858 898.971,1081.699 	"/>
</g>
</svg>
