<?xml version="1.0" encoding="UTF-8" ?>
<!DOCTYPE svg PUBLIC "-//W3C//DTD SVG 1.1//EN" "http://www.w3.org/Graphics/SVG/1.1/DTD/svg11.dtd">
<svg width="500pt" height="120pt" viewBox="0 0 500 120" version="1.1" xmlns="http://www.w3.org/2000/svg">
<g id="#89ba19ff">
<path fill="#89ba19" opacity="1.00" d=" M 82.76 0.00 L 106.24 0.00 C 119.79 1.04 134.72 2.30 145.47 11.55 C 152.79 17.80 154.16 28.28 152.22 37.24 C 159.43 25.35 170.17 15.71 182.74 9.77 C 196.42 3.18 211.66 0.64 226.72 0.00 L 240.10 0.00 C 246.80 0.67 254.40 -0.45 260.12 3.86 C 264.14 6.96 263.61 12.50 264.42 16.99 C 264.59 19.48 265.85 23.13 262.94 24.55 C 247.66 23.75 232.21 21.86 216.97 24.18 C 206.02 25.84 195.09 30.28 187.50 38.57 C 179.40 47.15 175.79 58.82 173.71 70.18 C 172.82 76.09 172.17 82.88 175.85 88.03 C 180.19 93.35 187.41 94.83 193.87 95.84 C 211.90 98.06 230.06 95.64 248.10 94.71 C 243.88 82.16 246.42 68.60 250.48 56.36 C 255.67 40.50 265.36 25.81 279.22 16.26 C 295.34 4.91 315.33 0.80 334.73 0.00 L 350.20 0.00 C 361.37 0.76 372.77 1.63 383.28 5.80 C 389.00 8.10 394.65 11.77 397.32 17.54 C 399.02 21.06 399.09 25.07 398.84 28.90 C 405.72 16.93 417.78 8.70 430.78 4.65 C 439.71 1.72 449.09 0.66 458.42 0.00 L 474.45 0.00 C 481.03 0.34 487.78 -0.17 494.19 1.64 C 496.87 2.30 498.75 4.45 500.00 6.80 L 500.00 9.20 C 498.49 13.59 497.06 18.04 495.15 22.27 C 494.13 24.64 491.33 25.13 489.04 24.92 C 479.67 24.53 470.30 24.70 460.94 24.50 C 453.10 24.49 444.77 24.73 437.79 28.74 C 433.76 31.01 430.83 34.95 429.60 39.39 C 422.33 64.59 415.14 89.81 407.87 115.00 C 407.34 117.73 404.76 119.63 402.01 119.46 C 393.69 119.57 385.36 119.46 377.03 119.51 C 375.06 119.55 372.33 119.30 371.90 116.90 C 372.12 114.16 373.11 111.57 373.84 108.95 C 380.00 87.67 386.02 66.36 392.22 45.11 C 387.87 50.86 382.17 55.52 375.78 58.84 C 364.70 64.65 352.33 67.45 340.01 69.15 C 319.64 71.78 299.26 74.36 278.89 77.00 C 279.07 81.53 279.82 86.42 283.15 89.79 C 287.99 94.91 295.47 95.62 302.08 96.23 C 323.43 97.79 344.78 95.41 366.11 94.87 C 367.34 94.64 368.93 95.46 368.53 96.88 C 367.40 101.61 365.71 106.19 364.45 110.89 C 363.16 115.35 358.25 117.26 354.08 117.93 C 344.45 119.32 334.68 119.33 324.97 119.59 C 307.73 119.71 290.05 120.82 273.34 115.75 C 264.63 113.18 256.36 108.31 251.12 100.73 C 250.20 104.73 250.09 109.11 247.82 112.65 C 244.80 116.81 239.25 117.46 234.56 118.28 C 222.13 119.77 209.58 119.82 197.07 119.88 C 181.37 119.84 164.28 118.55 151.28 108.78 C 142.42 102.19 138.74 90.85 138.94 80.14 C 136.09 89.27 133.35 98.45 130.30 107.52 C 128.41 112.64 122.68 114.48 117.81 115.43 C 100.40 118.57 82.67 119.43 65.00 119.72 C 51.18 119.87 37.17 119.61 23.69 116.24 C 16.56 114.33 9.21 111.47 4.34 105.68 C 1.84 102.81 0.52 99.14 0.00 95.42 L 0.00 90.77 C 0.63 85.09 2.46 79.47 5.79 74.78 C 10.35 68.24 17.15 63.64 24.26 60.26 C 35.80 54.90 48.38 52.26 60.92 50.50 C 78.35 48.33 95.70 45.58 113.03 42.73 C 120.75 42.16 122.19 30.57 116.50 26.47 C 110.11 21.72 101.69 21.42 94.05 21.02 C 74.61 20.88 55.25 22.91 35.91 24.58 C 34.48 24.61 33.06 24.54 31.64 24.37 C 32.24 19.53 33.99 14.94 35.55 10.34 C 37.44 5.25 42.93 2.75 47.98 2.06 C 59.50 0.45 71.16 0.40 82.76 0.00 M 298.44 30.44 C 290.52 37.56 286.76 47.92 283.82 57.88 C 300.21 55.52 316.62 53.25 333.01 50.87 C 341.64 49.45 350.49 47.68 358.06 43.07 C 362.20 40.54 365.78 36.07 365.21 30.96 C 364.62 26.43 360.00 24.13 356.07 23.01 C 346.59 20.49 336.64 20.82 326.94 21.30 C 317.00 22.15 306.25 23.66 298.44 30.44 M 52.51 70.67 C 44.61 71.78 35.91 76.36 34.35 84.89 C 33.16 89.51 36.94 93.47 40.97 94.96 C 49.51 98.34 58.90 98.48 67.96 98.51 C 78.91 98.57 89.89 98.29 100.74 96.78 C 104.32 85.43 107.89 74.08 111.43 62.72 C 91.79 65.37 72.14 67.94 52.51 70.67 Z" />
</g>
</svg>
