<?xml version="1.0" encoding="UTF-8" ?>
<!DOCTYPE svg PUBLIC "-//W3C//DTD SVG 1.1//EN" "http://www.w3.org/Graphics/SVG/1.1/DTD/svg11.dtd">
<svg width="2000pt" height="280pt" viewBox="0 0 2000 280" version="1.1" xmlns="http://www.w3.org/2000/svg">
<g id="#000000ff">
<path fill="#000000" opacity="1.00" d=" M 1198.03 0.00 L 1249.23 0.00 C 1249.24 91.82 1249.24 183.64 1249.23 275.46 C 1232.15 275.48 1215.07 275.47 1197.99 275.46 C 1198.05 271.02 1198.06 266.59 1198.08 262.15 C 1171.67 279.76 1137.38 284.52 1107.10 275.12 C 1076.10 265.96 1049.85 242.03 1038.22 211.82 C 1026.62 182.66 1029.38 148.37 1045.21 121.31 C 1061.99 92.02 1093.43 71.96 1126.91 68.36 C 1151.77 65.52 1177.24 72.41 1197.99 86.20 C 1198.03 57.47 1197.96 28.73 1198.03 0.00 M 1129.54 115.79 C 1108.61 118.87 1090.04 134.21 1083.24 154.26 C 1077.72 169.69 1079.41 187.40 1087.56 201.59 C 1095.78 216.18 1110.55 226.87 1126.99 230.10 C 1138.25 232.49 1150.18 231.37 1160.86 227.12 C 1173.49 222.13 1184.27 212.61 1190.74 200.66 C 1197.76 187.85 1199.69 172.29 1195.76 158.19 C 1192.13 144.52 1183.21 132.40 1171.37 124.69 C 1159.18 116.68 1143.94 113.39 1129.54 115.79 Z" />
<path fill="#000000" opacity="1.00" d=" M 1273.03 0.00 L 1325.11 0.00 C 1325.12 17.40 1325.13 34.79 1325.11 52.19 C 1307.74 52.21 1290.37 52.20 1273.01 52.19 C 1273.00 34.80 1272.97 17.40 1273.03 0.00 Z" />
<path fill="#000000" opacity="1.00" d=" M 1511.00 0.00 L 1561.94 0.00 C 1561.94 91.82 1561.94 183.64 1561.94 275.46 C 1544.98 275.47 1528.02 275.47 1511.06 275.46 C 1511.05 271.11 1511.06 266.77 1511.05 262.43 C 1502.84 267.62 1494.03 271.90 1484.75 274.78 C 1451.33 285.54 1412.85 278.54 1385.43 256.58 C 1358.71 235.67 1343.13 201.31 1345.60 167.40 C 1346.81 148.64 1353.13 130.23 1363.76 114.73 C 1384.56 84.11 1422.04 65.61 1459.02 68.03 C 1477.48 69.11 1495.43 75.41 1510.99 85.31 C 1511.02 56.87 1510.99 28.44 1511.00 0.00 M 1446.15 115.26 C 1430.20 116.98 1415.19 125.64 1405.68 138.56 C 1395.24 152.48 1391.58 171.23 1396.20 188.02 C 1400.74 205.62 1414.10 220.58 1430.99 227.23 C 1447.26 233.84 1466.45 232.53 1481.67 223.78 C 1496.73 215.33 1507.67 199.90 1510.44 182.84 C 1513.87 164.07 1506.98 143.93 1493.06 130.95 C 1480.75 119.15 1463.08 113.24 1446.15 115.26 Z" />
<path fill="#000000" opacity="1.00" d=" M 1974.59 25.70 C 1981.35 24.17 1988.81 26.36 1993.62 31.37 C 1998.40 36.15 2000.55 43.37 1999.16 49.98 C 1997.89 56.58 1993.14 62.37 1986.93 64.93 C 1980.10 67.88 1971.73 66.65 1966.04 61.89 C 1960.22 57.24 1957.34 49.29 1958.82 42.00 C 1960.21 34.07 1966.71 27.37 1974.59 25.70 M 1974.48 29.64 C 1965.51 32.00 1960.03 42.37 1962.81 51.16 C 1965.01 59.68 1974.54 65.47 1983.10 62.99 C 1992.40 60.79 1998.09 49.92 1994.95 40.96 C 1992.53 32.54 1982.94 27.03 1974.48 29.64 Z" />
<path fill="#000000" opacity="1.00" d=" M 1971.65 34.81 C 1976.33 35.31 1982.29 33.20 1985.84 37.28 C 1988.85 40.83 1987.16 46.64 1982.59 47.81 C 1984.11 51.10 1985.95 54.25 1987.14 57.69 C 1985.90 57.67 1984.69 57.65 1983.50 57.63 C 1982.06 54.63 1980.48 51.69 1979.06 48.68 C 1977.80 48.64 1976.55 48.61 1975.35 48.57 C 1975.36 51.60 1975.39 54.63 1975.42 57.66 C 1974.47 57.66 1972.59 57.66 1971.65 57.66 C 1971.65 50.04 1971.63 42.42 1971.65 34.81 M 1975.41 45.81 C 1977.83 45.59 1980.59 46.07 1982.76 44.63 C 1984.23 42.54 1983.98 38.37 1980.98 37.77 C 1979.14 37.51 1977.27 37.59 1975.46 37.56 C 1975.39 40.30 1975.37 43.06 1975.41 45.81 Z" />
<path fill="#000000" opacity="1.00" d=" M 814.50 115.43 C 833.67 86.64 867.40 67.99 902.05 67.68 C 923.43 67.56 945.29 72.86 963.00 85.17 C 963.00 79.98 962.99 74.79 963.01 69.61 C 980.06 69.60 997.11 69.59 1014.17 69.61 C 1014.17 138.23 1014.28 206.84 1014.23 275.45 C 997.16 275.48 980.08 275.47 963.01 275.46 C 962.99 271.14 962.94 266.83 962.93 262.51 C 948.49 272.21 931.65 278.04 914.40 280.00 L 893.50 280.00 C 886.12 279.10 878.76 277.80 871.65 275.55 C 840.68 266.25 814.51 242.15 803.17 211.80 C 791.03 180.34 795.62 143.28 814.50 115.43 M 897.10 115.26 C 876.45 117.61 857.66 131.79 849.87 151.08 C 844.76 163.31 844.05 177.32 848.03 189.97 C 852.26 203.94 862.03 216.07 874.65 223.35 C 886.97 230.53 901.94 233.08 915.92 230.22 C 931.53 227.24 945.71 217.59 954.22 204.16 C 962.70 190.99 965.55 174.26 961.59 159.08 C 958.37 146.02 950.37 134.26 939.54 126.32 C 927.50 117.40 911.97 113.34 897.10 115.26 Z" />
<path fill="#000000" opacity="1.00" d=" M 1619.81 90.79 C 1638.62 76.25 1662.15 67.62 1686.01 67.70 C 1706.90 67.60 1727.54 74.30 1744.94 85.73 C 1744.94 80.34 1744.92 74.94 1744.95 69.54 C 1762.00 69.57 1779.05 69.62 1796.11 69.61 C 1796.12 138.22 1796.12 206.84 1796.11 275.46 C 1779.04 275.47 1761.97 275.47 1744.90 275.46 C 1744.86 270.95 1744.81 266.45 1744.75 261.95 C 1726.01 274.23 1703.41 280.53 1681.01 279.43 C 1649.78 278.19 1619.40 262.54 1600.61 237.50 C 1585.96 218.36 1578.17 194.08 1579.18 169.98 C 1580.16 139.30 1595.45 109.47 1619.81 90.79 M 1681.10 115.18 C 1665.92 116.53 1651.45 124.14 1641.78 135.90 C 1630.06 149.81 1625.54 169.42 1630.09 187.03 C 1634.20 203.95 1646.41 218.60 1662.25 225.78 C 1677.83 233.02 1696.61 232.75 1711.98 225.07 C 1727.78 217.37 1739.66 202.14 1743.14 184.89 C 1747.08 166.94 1741.65 147.31 1729.17 133.84 C 1717.21 120.57 1698.87 113.45 1681.10 115.18 Z" />
<path fill="#000000" opacity="1.00" d=" M 1861.58 75.55 C 1879.66 68.12 1899.74 67.07 1919.02 68.97 C 1938.19 70.97 1957.53 77.80 1971.52 91.47 C 1983.15 102.86 1991.28 118.46 1992.04 134.87 C 1974.82 135.01 1957.60 134.89 1940.38 134.93 C 1940.20 130.60 1939.64 126.20 1937.66 122.28 C 1934.62 115.81 1928.43 111.23 1921.65 109.28 C 1912.88 106.72 1903.57 107.31 1894.62 108.37 C 1887.77 109.50 1880.23 111.07 1875.33 116.39 C 1872.03 120.95 1870.84 127.80 1874.40 132.56 C 1877.71 137.00 1882.97 139.35 1888.05 141.15 C 1899.96 145.21 1912.56 146.45 1924.91 148.54 C 1932.61 149.57 1940.08 151.81 1947.62 153.62 C 1963.06 158.14 1978.39 165.52 1988.95 178.01 C 1995.71 185.91 1999.41 196.10 2000.00 206.43 L 2000.00 212.56 C 1999.37 229.98 1992.33 247.50 1978.80 258.85 C 1960.36 274.67 1935.25 279.28 1911.65 280.00 L 1906.55 280.00 C 1895.29 279.08 1883.99 277.90 1873.05 274.95 C 1857.28 270.90 1841.83 263.47 1830.99 251.02 C 1820.79 239.50 1815.79 224.24 1814.75 209.07 C 1832.62 209.05 1850.49 209.08 1868.36 209.06 C 1868.49 215.14 1870.22 221.24 1873.85 226.18 C 1879.20 233.75 1887.97 238.22 1896.91 239.99 C 1905.32 241.64 1914.07 241.72 1922.52 240.18 C 1929.95 238.77 1937.47 235.31 1941.79 228.84 C 1944.80 224.29 1946.58 218.14 1944.04 212.99 C 1941.55 208.14 1936.52 205.30 1931.66 203.30 C 1919.02 198.31 1905.33 197.29 1891.95 195.91 C 1879.32 193.97 1866.66 191.35 1854.99 186.01 C 1841.86 180.16 1829.82 170.44 1823.97 157.03 C 1817.32 141.55 1819.06 123.26 1826.24 108.27 C 1833.25 93.34 1846.36 81.70 1861.58 75.55 Z" />
<path fill="#000000" opacity="1.00" d=" M 0.00 69.60 C 242.33 69.56 484.66 69.67 726.99 69.67 C 727.06 84.63 727.14 99.60 726.98 114.56 C 484.65 114.34 242.33 114.57 0.00 114.40 L 0.00 69.60 Z" />
<path fill="#000000" opacity="1.00" d=" M 1273.00 69.61 C 1290.37 69.60 1307.74 69.59 1325.11 69.61 C 1325.12 128.08 1325.11 186.55 1325.12 245.02 C 1325.02 255.21 1325.31 265.41 1324.97 275.59 C 1307.62 275.44 1290.28 275.61 1272.94 275.50 C 1273.09 206.87 1272.95 138.24 1273.00 69.61 Z" />
<path fill="#000000" opacity="1.00" d=" M 0.00 151.10 C 242.35 151.02 484.70 151.08 727.05 151.07 C 727.06 165.69 727.07 180.31 727.05 194.93 C 484.70 194.94 242.35 194.93 0.00 194.93 L 0.00 151.10 Z" />
<path fill="#000000" opacity="1.00" d=" M 0.00 231.55 C 242.35 231.52 484.70 231.53 727.05 231.54 C 727.02 246.19 727.15 260.84 726.98 275.49 C 484.65 275.79 242.33 276.03 0.00 276.41 L 0.00 231.55 Z" />
</g>
</svg>
