<?xml version="1.0" encoding="UTF-8" standalone="no"?>
<!-- Created with Inkscape (http://www.inkscape.org/) -->
<svg
   xmlns:dc="http://purl.org/dc/elements/1.1/"
   xmlns:cc="http://web.resource.org/cc/"
   xmlns:rdf="http://www.w3.org/1999/02/22-rdf-syntax-ns#"
   xmlns:svg="http://www.w3.org/2000/svg"
   xmlns="http://www.w3.org/2000/svg"
   xmlns:xlink="http://www.w3.org/1999/xlink"
   xmlns:sodipodi="http://sodipodi.sourceforge.net/DTD/sodipodi-0.dtd"
   xmlns:inkscape="http://www.inkscape.org/namespaces/inkscape"
   width="703"
   height="128"
   id="svg2"
   sodipodi:version="0.32"
   inkscape:version="0.45.1"
   version="1.0">
  <g
     inkscape:label="Layer 1"
     inkscape:groupmode="layer"
     id="layer1"
     transform="translate(-86.700774,-468.26154)">
    <path
       style="fill:#62bb46;fill-rule:evenodd"
       id="path741"
       d="M 234.928,782.808 C 234.593,783.187 234.695,782.69 234.451,782.926 C 234.24,783.131 233.589,783.693 233.182,784.607 C 232.543,786.047 232.942,788.313 234.212,789.181 C 234.158,789.393 233.974,789.959 233.847,790.084 C 233.344,788.977 232.893,787.91 231.882,787.321 C 231.699,787.216 231.316,787.144 231.316,787.144 C 231.019,787.109 230.479,787.038 229.934,787.232 C 229.66,787.331 229.995,787.424 229.782,787.499 C 229.507,787.626 229.69,787.527 229.396,787.715 C 229.186,787.857 228.912,788.138 228.857,788.669 C 228.851,788.731 228.867,789.153 228.867,789.153 C 227.387,789.605 227.07,791.306 227.284,791.765 C 227.518,792.267 227.68,792.286 227.924,792.414 C 228.178,792.52 227.599,792.621 228.229,792.728 C 228.959,792.816 229.533,792.711 229.954,792.61 C 230.557,792.465 232.056,791.896 233.426,790.763 C 232.641,792.232 231.288,793.604 230.402,794.206 C 230.475,794.568 230.119,794.727 230.146,795.18 C 230.153,795.291 229.999,795.504 229.945,795.614 C 229.908,795.667 229.973,795.763 230.082,795.676 C 231.714,794.359 233.289,792.711 234.221,790.693 C 236.204,793.536 237.978,793.563 238.735,793.638 C 239.374,793.702 239.768,793.576 239.974,793.525 C 240.694,793.348 241.223,793.094 241.557,792.868 C 241.862,792.661 241.395,792.641 241.669,792.473 C 241.821,792.375 242.038,792.098 242.197,791.785 C 242.359,791.465 242.481,790.604 241.75,789.772 C 242.105,789.611 242.473,789.088 242.522,788.509 C 242.552,788.146 242.476,787.713 241.816,787.359 C 241.816,787.359 241.614,787.237 241.506,787.221 C 240.654,787.094 241.496,786.798 240.73,786.892 C 240.623,786.892 240.679,786.897 240.37,786.926 C 238.908,787.084 238.461,787.48 237.218,788.188 C 236.063,788.846 235.007,789.746 234.522,790.038 C 234.714,789.702 234.815,789.388 234.815,789.388 C 234.961,789.087 236.017,788.494 236.547,788.167 C 237.104,787.82 239.391,786.662 240.034,785.01 C 240.14,784.74 240.24,784.43 240.268,784.154 C 240.329,783.554 240.045,783.968 240.034,783.782 C 239.993,783.58 240.014,783.476 239.892,783.212 C 239.415,782.1 237.659,782.287 237.054,782.888 C 236.806,782.061 235.416,782.288 234.928,782.808"
       clip-rule="evenodd"
       clip-path="url(#SVGID_6_)"
       transform="matrix(8.8675735,0,0,8.8675735,-1360.9306,-6469.2082)" />
    <path
       style="fill:#00907e;fill-rule:evenodd"
       id="path743"
       d="M 181.483,786.962 L 179.55,786.962 C 179.673,787.076 179.716,787.129 179.783,787.247 C 179.839,787.346 179.881,787.449 179.907,787.557 C 179.948,787.723 179.962,787.875 179.969,788.239 C 179.972,788.396 179.974,788.52 179.974,788.61 L 179.974,791.834 C 179.974,792.085 179.965,792.419 179.955,792.568 C 179.947,792.684 179.931,792.79 179.907,792.887 C 179.859,793.08 179.759,793.269 179.629,793.405 C 179.612,793.423 179.586,793.448 179.55,793.481 L 181.98,793.481 C 181.857,793.366 181.814,793.314 181.747,793.196 C 181.691,793.098 181.65,792.993 181.623,792.887 C 181.583,792.721 181.569,792.563 181.561,792.203 C 181.559,792.041 181.557,791.907 181.557,791.803 L 181.557,790.409 C 181.557,789.874 181.56,789.796 181.6,789.477 C 181.652,789.053 181.743,788.831 181.963,788.592 C 182.201,788.334 182.385,788.251 182.767,788.229 C 182.799,788.227 182.832,788.226 182.865,788.226 C 183.014,788.226 183.142,788.246 183.299,788.292 C 183.46,788.34 183.52,788.369 183.665,788.466 L 183.672,786.923 C 183.556,786.89 183.526,786.886 183.357,786.873 C 183.24,786.865 183.15,786.861 183.087,786.861 C 182.752,786.861 182.394,786.997 182.087,787.241 C 181.864,787.419 181.643,787.68 181.547,787.881 C 181.529,787.919 181.505,787.979 181.476,788.058 L 181.483,786.962 z "
       clip-rule="evenodd"
       clip-path="url(#SVGID_6_)"
       transform="matrix(8.8675735,0,0,8.8675735,-1360.9306,-6469.2082)" />
    <path
       style="fill:#00907e;fill-rule:evenodd"
       id="path745"
       d="M 191.826,793.481 L 192.391,791.778 C 192.277,791.869 192.243,791.889 192.071,791.967 C 191.929,792.03 191.789,792.083 191.65,792.123 C 191.311,792.222 190.938,792.261 190.331,792.261 L 189.762,792.261 L 188.933,792.261 L 188.933,787.205 C 188.933,786.583 188.937,786.453 188.961,786.138 C 188.977,785.938 189.004,785.767 189.04,785.627 C 189.107,785.363 189.246,785.07 189.394,784.877 C 189.409,784.857 189.432,784.829 189.463,784.792 L 186.648,784.792 C 186.798,784.953 186.844,785.021 186.943,785.227 C 187.013,785.373 187.066,785.512 187.103,785.645 C 187.172,785.904 187.209,786.285 187.209,786.745 L 187.209,787.226 L 187.209,791.08 L 187.214,791.561 C 187.214,791.664 187.208,791.801 187.195,791.975 C 187.179,792.197 187.159,792.374 187.136,792.503 C 187.106,792.669 187.047,792.85 186.96,793.042 C 186.868,793.246 186.823,793.315 186.677,793.48 L 191.826,793.48 L 191.826,793.481 z "
       clip-rule="evenodd"
       clip-path="url(#SVGID_6_)"
       transform="matrix(8.8675735,0,0,8.8675735,-1360.9306,-6469.2082)" />
    <path
       style="fill:#00907e;fill-rule:evenodd"
       id="path747"
       d="M 195.205,785.497 C 195.205,784.951 194.774,784.511 194.243,784.511 C 193.697,784.511 193.254,784.956 193.254,785.509 C 193.254,786.035 193.693,786.464 194.234,786.464 C 194.77,786.463 195.205,786.031 195.205,785.497"
       clip-rule="evenodd"
       clip-path="url(#SVGID_6_)"
       transform="matrix(8.8675735,0,0,8.8675735,-1360.9306,-6469.2082)" />
    <path
       style="fill:#00907e;fill-rule:evenodd"
       id="path749"
       d="M 193.069,793.481 L 195.499,793.481 C 195.376,793.367 195.333,793.313 195.265,793.195 C 195.21,793.098 195.168,792.994 195.142,792.886 C 195.102,792.721 195.087,792.563 195.08,792.204 C 195.077,792.041 195.075,791.908 195.075,791.802 L 195.075,786.981 L 193.119,786.981 C 193.202,787.084 193.233,787.127 193.278,787.206 C 193.362,787.352 193.424,787.528 193.454,787.708 C 193.476,787.834 193.486,787.986 193.49,788.261 C 193.491,788.359 193.492,788.459 193.492,788.561 L 193.492,791.834 C 193.492,792.086 193.484,792.419 193.473,792.568 C 193.465,792.683 193.449,792.791 193.425,792.886 C 193.378,793.081 193.277,793.269 193.148,793.404 C 193.131,793.422 193.105,793.448 193.069,793.481"
       clip-rule="evenodd"
       clip-path="url(#SVGID_6_)"
       transform="matrix(8.8675735,0,0,8.8675735,-1360.9306,-6469.2082)" />
    <path
       style="fill:#00907e;fill-rule:evenodd"
       id="path751"
       d="M 198.415,786.964 L 196.471,786.964 C 196.593,787.079 196.636,787.132 196.703,787.249 C 196.759,787.348 196.801,787.451 196.827,787.559 C 196.868,787.726 196.882,787.878 196.889,788.242 C 196.892,788.398 196.894,788.522 196.894,788.613 L 196.894,791.834 C 196.894,792.085 196.885,792.419 196.875,792.568 C 196.866,792.683 196.851,792.79 196.827,792.887 C 196.779,793.08 196.679,793.27 196.549,793.405 C 196.532,793.422 196.506,793.448 196.471,793.481 L 198.9,793.481 C 198.777,793.366 198.734,793.314 198.667,793.196 C 198.611,793.098 198.57,792.993 198.543,792.887 C 198.503,792.721 198.488,792.563 198.482,792.203 C 198.478,792.041 198.477,791.907 198.477,791.803 L 198.477,791.137 C 198.477,790.247 198.48,790.072 198.503,789.761 C 198.528,789.427 198.609,789.117 198.743,788.858 C 198.957,788.439 199.276,788.165 199.727,788.009 C 199.922,787.941 200.112,787.907 200.296,787.907 C 200.614,787.907 200.931,788.007 201.139,788.171 C 201.252,788.262 201.352,788.384 201.434,788.531 C 201.585,788.803 201.619,788.969 201.624,789.468 L 201.629,789.947 L 201.629,791.833 C 201.629,792.084 201.62,792.418 201.61,792.567 C 201.602,792.682 201.586,792.789 201.562,792.886 C 201.515,793.079 201.414,793.269 201.284,793.404 C 201.267,793.421 201.241,793.447 201.206,793.48 L 203.645,793.48 C 203.522,793.365 203.479,793.313 203.412,793.195 C 203.358,793.099 203.316,792.996 203.288,792.886 C 203.246,792.722 203.235,792.583 203.229,792.202 C 203.226,791.996 203.224,791.862 203.224,791.802 L 203.224,789.598 C 203.224,789.051 203.221,788.974 203.186,788.695 C 203.145,788.366 203.057,788.073 202.927,787.832 C 202.679,787.373 202.148,787.008 201.529,786.869 C 201.286,786.815 201.023,786.788 200.744,786.788 C 199.971,786.788 199.391,786.978 198.907,787.391 C 198.66,787.6 198.574,787.712 198.415,788.03 L 198.415,786.964 L 198.415,786.964 z "
       clip-rule="evenodd"
       clip-path="url(#SVGID_6_)"
       transform="matrix(8.8675735,0,0,8.8675735,-1360.9306,-6469.2082)" />
    <path
       style="fill:#00907e;fill-rule:evenodd"
       id="path753"
       d="M 223.669,787.129 C 223.401,787.039 223.297,787.011 223.013,786.958 C 222.558,786.872 222.104,786.829 221.641,786.829 C 220.761,786.829 220.156,786.989 219.696,787.345 C 219.293,787.657 219.052,788.146 219.052,788.653 C 219.052,789.006 219.174,789.385 219.373,789.658 C 219.489,789.817 219.644,789.965 219.832,790.092 C 220.054,790.242 220.287,790.369 220.531,790.472 C 220.665,790.529 220.89,790.619 221.206,790.746 C 221.767,790.969 222.026,791.095 222.209,791.232 C 222.378,791.359 222.499,791.577 222.499,791.754 C 222.499,791.906 222.395,792.144 222.282,792.25 C 222.205,792.322 222.087,792.385 221.938,792.432 C 221.747,792.493 221.565,792.52 221.35,792.52 C 220.86,792.52 220.302,792.405 219.813,792.202 C 219.686,792.149 219.498,792.059 219.249,791.933 C 219.068,791.841 218.926,791.761 218.826,791.693 C 218.804,791.678 218.76,791.645 218.696,791.595 L 219.228,793.262 C 219.551,793.378 219.658,793.405 220.086,793.483 C 220.749,793.604 221.184,793.652 221.587,793.652 C 222.146,793.652 222.61,793.557 223.039,793.352 C 223.303,793.227 223.53,793.055 223.704,792.848 C 223.978,792.525 224.141,792.078 224.141,791.648 C 224.141,791.198 223.966,790.75 223.664,790.424 C 223.48,790.226 223.261,790.053 223.015,789.913 C 222.652,789.705 222.266,789.53 221.683,789.313 C 221.283,789.164 221.157,789.104 220.994,788.987 C 220.808,788.853 220.721,788.708 220.721,788.525 C 220.721,788.358 220.813,788.203 220.963,788.112 C 221.149,788.002 221.391,787.949 221.721,787.949 C 222.097,787.949 222.588,788.028 223.041,788.161 C 223.293,788.233 223.401,788.273 223.669,788.393 L 223.669,787.129 z "
       clip-rule="evenodd"
       clip-path="url(#SVGID_6_)"
       transform="matrix(8.8675735,0,0,8.8675735,-1360.9306,-6469.2082)" />
    <path
       style="fill:#00907e;fill-rule:evenodd"
       id="path755"
       d="M 171.496,790.828 L 171.698,791.32 C 171.74,791.422 171.841,791.636 172,791.966 C 172.122,792.217 172.215,792.403 172.281,792.523 C 172.369,792.684 172.483,792.851 172.621,793.025 C 172.796,793.244 172.873,793.316 173.101,793.473 L 169.937,793.473 C 170.096,793.37 170.154,793.321 170.253,793.199 C 170.367,793.058 170.411,792.94 170.411,792.776 C 170.411,792.634 170.405,792.612 170.27,792.252 L 170.135,791.891 L 170.025,791.607 L 169.492,790.222 L 166.254,790.227 L 165.762,791.493 C 165.587,791.942 165.56,792.017 165.496,792.232 C 165.431,792.449 165.4,792.614 165.4,792.742 C 165.4,792.882 165.436,793.004 165.513,793.128 C 165.554,793.194 165.604,793.257 165.66,793.314 C 165.709,793.364 165.747,793.395 165.855,793.484 L 163.25,793.481 C 163.298,793.442 163.34,793.407 163.376,793.376 C 163.616,793.173 163.737,793.01 163.911,792.66 C 163.985,792.511 164.06,792.353 164.137,792.187 C 164.28,791.875 164.379,791.644 164.508,791.325 L 167.139,784.759 L 168.924,784.759 L 171.496,790.828 z M 169.081,789.18 L 167.847,786.042 L 166.649,789.18 L 169.081,789.18 z "
       clip-rule="evenodd"
       clip-path="url(#SVGID_6_)"
       transform="matrix(8.8675735,0,0,8.8675735,-1360.9306,-6469.2082)" />
    <path
       style="fill:#00907e;fill-rule:evenodd"
       id="path757"
       d="M 174.415,790.26 C 174.452,790.779 174.485,790.943 174.624,791.308 C 174.727,791.577 174.892,791.824 175.107,792.033 C 175.49,792.406 175.963,792.578 176.604,792.578 C 177.119,792.578 177.447,792.501 178.05,792.24 C 178.349,792.11 178.415,792.074 178.599,791.933 L 178.121,793.276 C 177.895,793.383 177.806,793.414 177.539,793.481 C 177.104,793.59 176.714,793.639 176.277,793.639 C 175.851,793.639 175.467,793.591 175.086,793.488 C 174.671,793.377 174.28,793.175 173.94,792.896 C 173.164,792.261 172.721,791.247 172.721,790.109 C 172.721,789.052 173.1,788.161 173.809,787.55 C 174.375,787.061 175.079,786.818 175.919,786.818 C 176.746,786.818 177.419,787.057 177.905,787.524 C 178.214,787.82 178.449,788.186 178.592,788.591 C 178.744,789.022 178.843,789.586 178.843,790.029 C 178.843,790.094 178.841,790.145 178.835,790.259 L 174.415,790.259 L 174.415,790.26 z M 177.142,788.515 C 177.052,788.339 176.935,788.191 176.8,788.077 C 176.569,787.886 176.298,787.795 175.96,787.795 C 175.571,787.795 175.237,787.914 174.979,788.149 C 174.859,788.257 174.751,788.398 174.658,788.567 C 174.531,788.798 174.495,788.908 174.453,789.195 L 177.315,789.195 C 177.298,788.881 177.267,788.759 177.142,788.515"
       clip-rule="evenodd"
       clip-path="url(#SVGID_6_)"
       transform="matrix(8.8675735,0,0,8.8675735,-1360.9306,-6469.2082)" />
    <path
       style="fill:#00907e;fill-rule:evenodd"
       id="path759"
       d="M 216.211,793.481 L 216.211,792.465 C 216.058,792.726 215.983,792.818 215.774,793.01 C 215.592,793.176 215.403,793.309 215.213,793.4 C 214.88,793.561 214.407,793.657 213.948,793.657 C 213.266,793.657 212.645,793.461 212.211,793.108 C 211.971,792.913 211.794,792.653 211.702,792.359 C 211.6,792.036 211.545,791.568 211.545,791.03 L 211.547,790.353 L 211.55,789.105 L 211.547,788.726 C 211.546,788.527 211.545,788.408 211.543,788.37 C 211.539,788.283 211.516,788.194 211.474,788.108 C 211.434,788.027 211.375,787.954 211.3,787.897 C 211.135,787.769 210.918,787.706 210.651,787.706 C 210.414,787.706 210.17,787.757 209.982,787.847 C 209.852,787.909 209.782,787.957 209.623,788.097 C 209.769,788.34 209.807,788.414 209.86,788.561 C 209.935,788.77 209.988,789.112 209.988,789.385 C 209.988,789.988 209.736,790.601 209.327,790.992 C 208.863,791.437 208.1,791.691 207.23,791.691 C 207.126,791.691 207.012,791.687 206.887,791.681 C 206.672,791.667 206.631,791.662 206.487,791.629 C 206.457,791.655 206.435,791.678 206.422,791.692 C 206.365,791.759 206.327,791.857 206.327,791.935 C 206.327,792.035 206.392,792.155 206.472,792.201 C 206.531,792.235 206.614,792.259 206.717,792.272 C 207.006,792.31 207.219,792.322 207.87,792.34 C 208.81,792.368 209.149,792.41 209.562,792.55 C 209.855,792.649 210.126,792.835 210.345,793.091 C 210.638,793.435 210.796,793.879 210.796,794.363 C 210.796,794.84 210.643,795.307 210.366,795.671 C 210.15,795.955 209.872,796.182 209.555,796.33 C 208.941,796.618 208.14,796.776 207.299,796.776 C 206.539,796.776 205.668,796.635 205.055,796.413 C 204.8,796.32 204.555,796.184 204.328,796.006 C 203.935,795.7 203.762,795.379 203.762,794.959 C 203.762,794.639 203.88,794.382 204.109,794.202 C 204.321,794.035 204.596,793.947 204.908,793.947 C 205.014,793.947 205.127,793.954 205.243,793.966 C 205.408,793.985 205.472,793.996 205.64,794.038 C 205.54,794.13 205.518,794.161 205.445,794.311 C 205.365,794.475 205.334,794.587 205.334,794.72 C 205.334,794.997 205.489,795.29 205.728,795.465 C 205.881,795.579 206.059,795.665 206.253,795.721 C 206.583,795.815 206.964,795.863 207.363,795.863 C 207.941,795.863 208.461,795.759 208.854,795.564 C 209.022,795.48 209.174,795.363 209.304,795.215 C 209.476,795.022 209.559,794.818 209.559,794.588 C 209.559,794.285 209.41,794.013 209.168,793.872 C 209.015,793.783 208.837,793.724 208.647,793.696 C 208.293,793.645 208.136,793.635 207.069,793.598 C 206.207,793.569 205.896,793.52 205.609,793.368 C 205.305,793.207 205.106,792.85 205.106,792.464 C 205.106,792.198 205.186,791.975 205.372,791.712 C 205.475,791.566 205.526,791.507 205.671,791.372 C 205.34,791.226 205.22,791.148 205.008,790.949 C 204.565,790.533 204.33,789.957 204.33,789.289 C 204.33,788.503 204.669,787.802 205.26,787.362 C 205.736,787.007 206.399,786.827 207.22,786.827 C 207.79,786.827 208.177,786.912 208.633,787.139 C 208.887,787.265 208.973,787.325 209.17,787.512 L 209.498,786.97 L 213.159,786.97 L 213.159,790.255 C 213.159,790.632 213.16,790.913 213.161,791.1 C 213.163,791.329 213.186,791.539 213.228,791.73 C 213.271,791.921 213.369,792.096 213.508,792.232 C 213.716,792.431 214.036,792.547 214.377,792.547 C 214.548,792.547 214.725,792.518 214.9,792.459 C 215.312,792.32 215.63,792.054 215.847,791.662 C 215.923,791.527 215.981,791.387 216.021,791.244 C 216.11,790.928 216.145,790.569 216.145,789.963 L 216.145,789.415 L 216.145,788.617 C 216.145,788.56 216.143,788.436 216.14,788.246 C 216.134,787.856 216.122,787.724 216.081,787.564 C 216.053,787.458 216.011,787.354 215.955,787.253 C 215.883,787.126 215.842,787.077 215.722,786.969 L 217.735,786.969 L 217.73,791.8 C 217.73,791.861 217.732,791.994 217.735,792.2 C 217.741,792.583 217.753,792.72 217.795,792.884 C 217.823,792.993 217.864,793.098 217.918,793.193 C 217.985,793.311 218.028,793.363 218.151,793.478 L 216.211,793.478 L 216.211,793.481 z M 208.099,788.161 C 207.864,787.959 207.542,787.852 207.174,787.852 C 206.772,787.852 206.415,787.986 206.176,788.227 C 205.933,788.472 205.806,788.827 205.806,789.257 C 205.806,789.458 205.838,789.666 205.898,789.853 C 205.957,790.04 206.05,790.202 206.169,790.329 C 206.402,790.578 206.772,790.722 207.179,790.722 C 207.584,790.722 207.957,790.578 208.192,790.331 C 208.423,790.089 208.556,789.715 208.556,789.302 C 208.556,788.799 208.405,788.422 208.099,788.161"
       clip-rule="evenodd"
       clip-path="url(#SVGID_6_)"
       transform="matrix(8.8675735,0,0,8.8675735,-1360.9306,-6469.2082)" />
  </g>
</svg>
