<?xml version="1.0" encoding="UTF-8" standalone="no"?>
<!-- Created with Inkscape (http://www.inkscape.org/) -->

<svg
   xmlns:dc="http://purl.org/dc/elements/1.1/"
   xmlns:cc="http://creativecommons.org/ns#"
   xmlns:rdf="http://www.w3.org/1999/02/22-rdf-syntax-ns#"
   xmlns:svg="http://www.w3.org/2000/svg"
   xmlns="http://www.w3.org/2000/svg"
   xmlns:sodipodi="http://sodipodi.sourceforge.net/DTD/sodipodi-0.dtd"
   xmlns:inkscape="http://www.inkscape.org/namespaces/inkscape"
   width="1000"
   height="255.9198"
   id="svg2"
   version="1.1"
   inkscape:version="0.48.2 r9819"
   sodipodi:docname="New document 1">
  <defs
     id="defs4">
    <clipPath
       id="clipPath3019"
       clipPathUnits="userSpaceOnUse">
      <path
         id="path3021"
         d="m 0.72,792.015 611.28,0 0,-792 -611.28,0 0,792 z"
         inkscape:connector-curvature="0" />
    </clipPath>
    <clipPath
       id="clipPath3009"
       clipPathUnits="userSpaceOnUse">
      <path
         id="path3011"
         d="m 0,0.014984 612,0 0,792.000026 -612,0 L 0,0.014984 z"
         inkscape:connector-curvature="0" />
    </clipPath>
    <clipPath
       id="clipPath2999"
       clipPathUnits="userSpaceOnUse">
      <path
         id="path3001"
         d="m 0.72,792.015 611.28,0 0,-792 -611.28,0 0,792 z"
         inkscape:connector-curvature="0" />
    </clipPath>
  </defs>
  <sodipodi:namedview
     id="base"
     pagecolor="#ffffff"
     bordercolor="#666666"
     borderopacity="1.0"
     inkscape:pageopacity="0.0"
     inkscape:pageshadow="2"
     inkscape:zoom="0.7"
     inkscape:cx="811.13371"
     inkscape:cy="110.58252"
     inkscape:document-units="px"
     inkscape:current-layer="g2993"
     showgrid="false"
     fit-margin-left="0.5"
     fit-margin-top="0.5"
     fit-margin-bottom="0.5"
     fit-margin-right="0.5"
     inkscape:window-width="1920"
     inkscape:window-height="1028"
     inkscape:window-x="-8"
     inkscape:window-y="-8"
     inkscape:window-maximized="1" />
  <metadata
     id="metadata7">
    <rdf:RDF>
      <cc:Work
         rdf:about="">
        <dc:format>image/svg+xml</dc:format>
        <dc:type
           rdf:resource="http://purl.org/dc/dcmitype/StillImage" />
        <dc:title></dc:title>
      </cc:Work>
    </rdf:RDF>
  </metadata>
  <g
     inkscape:label="Layer 1"
     inkscape:groupmode="layer"
     id="layer1"
     transform="translate(-19.492907,-61.970926)">
    <g
       transform="matrix(1.25,0,0,-1.25,-7.95,1027.3809)"
       inkscape:label="2013_medicare_cvs_essentials_preferred_drug_list"
       id="g2993">
      <g
         transform="matrix(4.3048052,0,0,4.3048052,788.64409,717.77353)"
         id="g3061"
         style="fill:#784499;fill-opacity:1">
        <path
           id="path3063"
           style="fill:#784499;fill-opacity:1;fill-rule:nonzero;stroke:none"
           d="m 0,0 c 0,-0.639 0.471,-0.889 1.052,-0.889 0.64,0 0.878,0.314 0.878,0.627 0,0.32 -0.174,0.448 -0.343,0.512 -0.29,0.11 -0.668,0.186 -1.238,0.343 -0.709,0.192 -0.918,0.622 -0.918,1.052 0,0.831 0.767,1.221 1.517,1.221 0.866,0 1.593,-0.459 1.593,-1.325 l -0.727,0 C 1.779,2.076 1.419,2.273 0.919,2.273 0.582,2.273 0.157,2.151 0.157,1.732 0.157,1.442 0.355,1.279 0.651,1.198 0.715,1.18 1.634,0.942 1.849,0.878 2.395,0.715 2.657,0.25 2.657,-0.18 c 0,-0.93 -0.826,-1.302 -1.651,-1.302 -0.948,0 -1.715,0.453 -1.732,1.482 L 0,0 z m 3.337,2.767 1.023,0 1.145,-3.249 0.012,0 1.116,3.249 1.012,0 0,-4.15 -0.692,0 0,3.203 -0.011,0 -1.152,-3.203 -0.599,0 -1.151,3.203 -0.011,0 0,-3.203 -0.692,0 0,4.15 z m -81.42,-28.486 0.505,-8.175 c -0.966,-0.281 -3.891,-0.853 -7.866,-0.853 -8.159,0 -12.506,3.435 -12.506,11.822 0,6.57 0.127,13.779 0.19,17.727 l -4.229,0 c 0.072,1.783 -0.028,4.33 0,6.201 6.347,1.053 8.351,4.626 9.277,11.577 l 6.982,0 c -0.245,-2.863 -0.46,-7.018 -0.465,-9.831 l 7.413,0 0,-7.95 -7.532,0 0,-14.302 c 0,-5.545 1.122,-7.057 4.935,-7.057 1.182,0 2.585,0.367 3.296,0.841 z m 38.961,8.88 c 0,3.108 0.062,7.244 0.062,7.244 0,9.301 -4.082,13.479 -15.613,13.479 -6.475,0 -11.088,-1.135 -18.318,-1.135 0.403,-6.53 0.419,-14.599 0.388,-19.588 0.032,-5.085 -0.167,-14.185 -0.388,-17.118 l 12.393,0 c -0.285,2.943 -0.533,11.408 -0.501,17.118 0,3.249 0.045,7.184 0.17,12.466 1.231,0.425 2.803,0.738 4.502,0.738 4.34,0 5.735,-2.035 5.735,-7.627 0,0 0.066,-3.507 0.066,-5.577 0,-5.085 -0.169,-14.185 -0.391,-17.118 l 12.396,0 c -0.286,2.943 -0.534,11.408 -0.501,17.118 z m -82.86,-1.635 c -1.331,0 -3.596,0.038 -4.737,0.095 l 0.002,-0.255 c 0,-5.258 3.449,-8.597 9.842,-8.597 3.853,0 7.371,1.193 9.893,2.664 l 0.443,-8.22 c -2.539,-1.189 -7.398,-2.007 -12.198,-2.007 -12.989,0 -19.235,4.45 -20.317,16.496 -1.479,0.072 -3.72,0.149 -6.761,0.173 -0.082,-2.115 -0.161,-3.987 -0.161,-5.551 0,-2.961 0.019,-7.28 0.536,-10.281 -7.116,0 -12.633,-0.79 -18.235,-0.79 -10.606,0 -14.333,4.403 -14.333,11.892 0,7.268 5.985,11.188 18.937,11.188 0.502,0 1.415,-0.01 1.775,-0.019 l 0.007,0.766 c 0,5.146 -1.58,7.285 -6.781,7.285 -3.693,0 -7.575,-1.326 -10.175,-2.713 l -0.44,8.214 c 2.987,1.214 7.884,2.048 13.441,2.048 11.356,0 15.622,-3.732 15.622,-14.029 0,-0.568 -0.005,-1.124 -0.011,-1.675 2.773,-0.013 4.795,-0.06 6.654,-0.176 1.149,10.158 6.233,15.834 18.94,15.834 10.499,0 15.32,-4.419 15.32,-11.061 0,-7.703 -5.857,-11.281 -17.263,-11.281 z m -35.408,-8.696 c -0.179,2.498 -0.111,6.094 -0.084,9.174 -0.433,0.044 -1.04,0.03 -1.537,0.03 -5.394,0 -7.535,-1.811 -7.535,-4.998 0,-3.301 1.685,-4.617 5.636,-4.617 1.201,0 2.583,0.158 3.52,0.411 z m 34.015,14.95 c 4.988,0 7.377,1.674 7.377,5.264 0,2.552 -1.734,3.957 -4.418,3.957 -4.723,0 -6.364,-3.779 -6.364,-8.938 l 0.002,-0.188 c 0.932,-0.073 2.202,-0.095 3.403,-0.095 z M -1.802,-33.957 c -7.117,0 -12.635,-0.79 -18.234,-0.79 -10.607,0 -14.333,4.403 -14.333,11.892 0,7.268 5.983,11.188 18.936,11.188 0.501,0 1.414,-0.01 1.775,-0.019 l 0.006,0.766 c 0,5.146 -1.578,7.285 -6.779,7.285 -3.695,0 -7.576,-1.326 -10.176,-2.713 l -0.439,8.214 c 2.986,1.214 7.884,2.048 13.44,2.048 11.358,0 15.622,-3.732 15.622,-14.029 0,-5.511 -0.354,-10.234 -0.354,-13.561 0,-2.961 0.018,-7.28 0.536,-10.281 z m -11.95,6.787 c -0.18,2.498 -0.111,6.094 -0.085,9.174 -0.432,0.044 -1.038,0.03 -1.534,0.03 -5.395,0 -7.535,-1.811 -7.535,-4.998 0,-3.301 1.682,-4.617 5.635,-4.617 1.199,0 2.582,0.158 3.519,0.411"
           inkscape:connector-curvature="0" />
      </g>
    </g>
  </g>
</svg>
