<?xml version="1.0" encoding="UTF-8" standalone="no"?>
<!-- Created with Inkscape (http://www.inkscape.org/) -->

<svg
   xmlns:dc="http://purl.org/dc/elements/1.1/"
   xmlns:cc="http://creativecommons.org/ns#"
   xmlns:rdf="http://www.w3.org/1999/02/22-rdf-syntax-ns#"
   xmlns:svg="http://www.w3.org/2000/svg"
   xmlns="http://www.w3.org/2000/svg"
   xmlns:sodipodi="http://sodipodi.sourceforge.net/DTD/sodipodi-0.dtd"
   xmlns:inkscape="http://www.inkscape.org/namespaces/inkscape"
   id="svg2985"
   version="1.1"
   inkscape:version="0.48.2 r9819"
   width="1000"
   height="535.0835"
   xml:space="preserve"
   sodipodi:docname="Duke Energy.svg"><metadata
     id="metadata2991"><rdf:RDF><cc:Work
         rdf:about=""><dc:format>image/svg+xml</dc:format><dc:type
           rdf:resource="http://purl.org/dc/dcmitype/StillImage" /><dc:title></dc:title></cc:Work></rdf:RDF></metadata><defs
     id="defs2989"><clipPath
       clipPathUnits="userSpaceOnUse"
       id="clipPath2999"><path
         d="m 409.99,53.869 98.01,0 0,31.381 -98.01,0 0,-31.381 z"
         id="path3001"
         inkscape:connector-curvature="0" /></clipPath><linearGradient
       x1="0"
       y1="0"
       x2="1"
       y2="0"
       gradientUnits="userSpaceOnUse"
       gradientTransform="matrix(475.157,0,0,475.157,50.4216,635.881)"
       spreadMethod="pad"
       id="linearGradient3073"><stop
         style="stop-opacity:1;stop-color:#ffffff"
         offset="0"
         id="stop3075" /><stop
         style="stop-opacity:1;stop-color:#dad9d9"
         offset="0.5"
         id="stop3077" /><stop
         style="stop-opacity:1;stop-color:#ffffff"
         offset="1"
         id="stop3079" /></linearGradient><clipPath
       clipPathUnits="userSpaceOnUse"
       id="clipPath3087"><path
         d="m 35,137.619 504,0 0,546.381 -504,0 0,-546.381 z"
         id="path3089"
         inkscape:connector-curvature="0" /></clipPath><clipPath
       clipPathUnits="userSpaceOnUse"
       id="clipPath3135"><path
         d="m 72,225.837 467,0 0,457.944 -467,0 0,-457.944 z"
         id="path3137"
         inkscape:connector-curvature="0" /></clipPath><clipPath
       clipPathUnits="userSpaceOnUse"
       id="clipPath3163"><path
         d="m 35,137.619 504,0 0,546.381 -504,0 0,-546.381 z"
         id="path3165"
         inkscape:connector-curvature="0" /></clipPath><clipPath
       clipPathUnits="userSpaceOnUse"
       id="clipPath3211"><path
         inkscape:connector-curvature="0"
         d="m 41.34,752 84.06,0 0,45 -84.06,0 0,-45 z"
         id="path3213" /></clipPath></defs><sodipodi:namedview
     pagecolor="#ffffff"
     bordercolor="#666666"
     borderopacity="1"
     objecttolerance="10"
     gridtolerance="10"
     guidetolerance="10"
     inkscape:pageopacity="0"
     inkscape:pageshadow="2"
     inkscape:window-width="1451"
     inkscape:window-height="1037"
     id="namedview2987"
     showgrid="false"
     fit-margin-left="0.5"
     fit-margin-bottom="0.5"
     fit-margin-top="0.5"
     fit-margin-right="0.5"
     inkscape:zoom="0.42325581"
     inkscape:cx="870.20678"
     inkscape:cy="29.873838"
     inkscape:window-x="465"
     inkscape:window-y="-20"
     inkscape:window-maximized="0"
     inkscape:current-layer="g2993" /><g
     id="g2993"
     inkscape:groupmode="layer"
     inkscape:label="4515869_78601T14_CNB_v1"
     transform="matrix(1.25,0,0,-1.25,-391.22205,533.1838)"><g
       id="g3083"><g
         id="g3085"
         clip-path="url(#clipPath3087)"><g
           id="g3091"
           transform="translate(596.9666,632.4451)"><path
             d="m 0,0 5.603,0 c 38.599,0 84.655,-11.872 84.655,-68.352 0,-56.53 -46.056,-68.387 -84.655,-68.387 L 0,-136.739 0,0 z m 12.653,25.779 -40.389,0 0,-188.286 39.68,0 c 65.404,0 106.06,36.427 106.06,95.113 0,56.597 -41.361,93.173 -105.351,93.173"
             style="fill:#04517d;fill-opacity:1;fill-rule:nonzero;stroke:none"
             id="path3093"
             inkscape:connector-curvature="0" /></g><g
           id="g3095"
           transform="translate(842.192,547.5367)"><path
             d="m 0,0 c 0,-37.186 -13.668,-55.228 -41.803,-55.228 -28.173,0 -41.853,18.042 -41.853,55.228 l 0,110.687 -27.752,0 0,-118.475 c 0,-44.097 27.957,-73.706 69.605,-73.706 41.582,0 69.561,29.609 69.561,73.706 l 0,118.475 L 0,110.687 0,0 z"
             style="fill:#04517d;fill-opacity:1;fill-rule:nonzero;stroke:none"
             id="path3097"
             inkscape:connector-curvature="0" /></g><g
           id="g3099"
           transform="translate(948.7559,573.1714)"><path
             d="m 0,0 85.047,85.053 -36.836,0 -74.394,-76.013 0,76.013 -27.736,0 0,-188.286 27.736,0 0,78.003 6.573,6.241 68.164,-84.244 37.225,0 L 0,0 z"
             style="fill:#04517d;fill-opacity:1;fill-rule:nonzero;stroke:none"
             id="path3101"
             inkscape:connector-curvature="0" /></g><g
           id="g3103"
           transform="translate(1148.3374,495.7058)"><path
             d="m 0,0 -75.68,0 0,64.467 73.474,0 0,25.802 -73.474,0 0,46.47 75.68,0 0,25.779 -103.404,0 0,-188.285 L 0,-25.767 0,0 z"
             style="fill:#04517d;fill-opacity:1;fill-rule:nonzero;stroke:none"
             id="path3105"
             inkscape:connector-curvature="0" /></g><g
           id="g3107"
           transform="translate(571.1816,229.7176)"><path
             d="m 0,0 103.411,0 0,25.784 -75.686,0 0,64.474 73.468,0 0,25.784 -73.468,0 0,46.448 75.686,0 0,25.807 L 0,188.297 0,0 z"
             style="fill:#04517d;fill-opacity:1;fill-rule:nonzero;stroke:none"
             id="path3109"
             inkscape:connector-curvature="0" /></g><g
           id="g3111"
           transform="translate(886.2787,229.7176)"><path
             d="m 0,0 103.405,0 0,25.784 -75.68,0 0,64.474 73.507,0 0,25.784 -73.507,0 0,46.448 75.68,0 0,25.807 L 0,188.297 0,0 z"
             style="fill:#04517d;fill-opacity:1;fill-rule:nonzero;stroke:none"
             id="path3113"
             inkscape:connector-curvature="0" /></g><g
           id="g3115"
           transform="translate(886.2787,229.7176)"><path
             d="m 0,0 103.405,0 0,25.784 -75.68,0 0,64.474 73.507,0 0,25.784 -73.507,0 0,46.448 75.68,0 0,25.807 L 0,188.297 0,0 z"
             style="fill:#04517d;fill-opacity:1;fill-rule:nonzero;stroke:none"
             id="path3117"
             inkscape:connector-curvature="0" /></g><g
           id="g3119"
           transform="translate(834.4105,418.0144)"><path
             d="M 0,0 0,-131.861 -0.034,-131.85 -120.543,0 l -17.133,0 -0.054,0 0,-188.297 0.054,0 27.709,0 0,133.07 120.098,-133.07 17.548,0 L 27.679,0 0,0 z"
             style="fill:#04517d;fill-opacity:1;fill-rule:nonzero;stroke:none"
             id="path3121"
             inkscape:connector-curvature="0" /></g><g
           id="g3123"
           transform="translate(1092.8447,362.3217)"><path
             d="m 0,0 c 0,-21.584 -14.257,-31.151 -46.227,-31.151 l -4.866,0 0,61.547 3.647,0 C -15.087,30.396 0,20.729 0,0 m 26.272,0.942 c 0,19.156 -9.677,36.748 -25.32,45.927 -15.608,8.824 -34.441,8.824 -49.596,8.824 l -30.174,0 0,-188.297 27.725,0 0,77.609 5.797,0 53.987,-77.609 33.799,0 -58.375,80.435 c 25.03,4.856 42.157,26.129 42.157,53.111"
             style="fill:#04517d;fill-opacity:1;fill-rule:nonzero;stroke:none"
             id="path3125"
             inkscape:connector-curvature="0" /></g><g
           id="g3127"
           transform="translate(1240.5647,301.2521)"><path
             d="m 0,0 47.245,0 c -2.52,-28.18 -32.341,-49.652 -57.484,-49.652 -36.66,0 -68.841,33.888 -68.841,72.521 0,40.373 31.106,72.011 70.805,72.011 21.34,0 42.659,-11.097 55.69,-28.944 l 1.635,-2.228 19.683,18.778 -1.408,1.718 c -18.162,22.847 -46.756,36.461 -76.588,36.461 -53.787,0 -97.552,-44.221 -97.552,-98.562 0,-52.865 43.554,-97.518 95.123,-97.518 51.74,0 89.268,38.478 89.268,91.477 l 0,9.7 L 0,25.762 0,0 z"
             style="fill:#04517d;fill-opacity:1;fill-rule:nonzero;stroke:none"
             id="path3129"
             inkscape:connector-curvature="0" /></g></g></g><g
       id="g3159"><g
         id="g3161"
         clip-path="url(#clipPath3163)"><g
           id="g3167"
           transform="translate(1467.1284,268.007)"><path
             d="m 0,0 0,-8.071 5.006,0 c 4.336,0 10.284,-0.709 10.284,3.703 C 15.29,-0.311 11.851,0 8.014,0 L 0,0 z m 19.558,-27.536 -5.346,0 -8.196,14.854 -6.016,0 0,-14.854 -4.62,0 0,32.147 13.542,0 c 5.778,0 11.045,-1.729 11.045,-8.513 0,-6.342 -4.302,-8.614 -8.582,-8.78 l 8.173,-14.854 z m -37.209,16.339 c 0,-13.568 10.965,-24.022 24.053,-24.022 13.156,0 24.077,10.454 24.077,24.022 0,13.558 -10.921,23.9 -24.077,23.9 -13.088,0 -24.053,-10.342 -24.053,-23.9 m -4.643,0 c 0,15.919 12.713,28.611 28.696,28.611 16.051,0 28.754,-12.692 28.754,-28.611 0,-15.985 -12.703,-28.688 -28.754,-28.688 -15.983,0 -28.696,12.703 -28.696,28.688"
             style="fill:#04517d;fill-opacity:1;fill-rule:nonzero;stroke:none"
             id="path3169"
             inkscape:connector-curvature="0" /></g></g></g><g
       id="g3365"
       transform="matrix(9.5074944,0,0,9.5074944,-79.662179,-7151.326)"><g
         transform="translate(62.460007,787.52)"
         id="g3197"><path
           id="path3199"
           style="fill:#1ea6e5;fill-opacity:1;fill-rule:nonzero;stroke:none"
           d="m 0,0 -11.88,-25.44 4.14,0 2.88,6.18 10.98,0 2.7,-6.18 4.2,0 L 1.5,0 0,0 z m 0.72,-6.96 3.84,-8.64 -7.8,0 3.96,8.64"
           inkscape:connector-curvature="0" /></g><path
         id="path3201"
         style="fill:#1ea6e5;fill-opacity:1;fill-rule:nonzero;stroke:none"
         d="m 83.4,762.08 -3.9,0 0,25.44 3.9,0 0,-25.44 z"
         inkscape:connector-curvature="0" /><g
         transform="translate(103.67999,775.34)"
         id="g3203"><path
           id="path3205"
           style="fill:#1ea6e5;fill-opacity:1;fill-rule:nonzero;stroke:none"
           d="m 0,0 10.56,0 0,-0.84 c 0,-1.92 -0.24,-3.66 -0.6,-5.04 -0.48,-1.38 -1.2,-2.7 -2.28,-3.84 -2.4,-2.7 -5.46,-4.02 -9.12,-4.02 -3.54,0 -6.66,1.26 -9.18,3.84 -2.58,2.64 -3.84,5.7 -3.84,9.3 0,3.72 1.32,6.84 3.9,9.42 2.58,2.64 5.76,3.9 9.48,3.9 1.98,0 3.9,-0.42 5.64,-1.2 C 6.18,10.74 7.8,9.42 9.42,7.56 L 6.66,4.98 c -2.04,2.7 -4.62,4.14 -7.62,4.14 -2.76,0 -4.98,-0.9 -6.84,-2.82 -1.86,-1.8 -2.76,-4.08 -2.76,-6.84 0,-2.82 0.96,-5.16 3.06,-7.02 1.92,-1.68 4.02,-2.58 6.24,-2.58 1.92,0 3.6,0.66 5.1,1.92 1.5,1.32 2.34,2.82 2.52,4.62 L 0,-3.6 0,0"
           inkscape:connector-curvature="0" /></g><g
         id="g3207"><g
           clip-path="url(#clipPath3211)"
           id="g3209"><g
             transform="translate(41.339996,752.06)"
             id="g3215"><path
               id="path3217"
               style="fill:#1ea6e5;fill-opacity:1;fill-rule:nonzero;stroke:none"
               d="m 0,0 84.42,0 0,45.42 L 0,45.42 0,0 z m 3.54,42 77.4,0 0,-38.46 -77.4,0 0,38.46 z"
               inkscape:connector-curvature="0" /></g></g></g></g></g></svg>