<?xml version="1.0" encoding="UTF-8" standalone="no"?>
<!-- Created with Inkscape (http://www.inkscape.org/) -->
<svg xmlns:svg="http://www.w3.org/2000/svg" xmlns="http://www.w3.org/2000/svg" version="1.0" width="800" height="395" viewBox="0 0 800 394.99999" id="Layer_1" xml:space="preserve"><defs id="defs23"/>

<rect width="800" height="395" x="0" y="7.6293945e-06" id="rect3644" style="fill:#003e7e;fill-opacity:1;stroke:none"/><path d="m 175.96875,38.781245 c -1.9296,0.200078 -3.95875,2.596954 -6.09375,7.8125 L 101.59375,221.875 c 0,0 -30.28875,80.11531 -36.21875,87.71875 0,0 -5.3725,16.78147 -21.5625,22.1875 -7.58,2.718 -5.41375,14.375 2.65625,14.375 5.43,-2.23735 57.28875,-1.69584 65.96875,0.5625 8.67,-2.79794 7.03875,-13.29199 2.71875,-16 -16.83,-2.738 -26.02875,-11.39691 -21.71875,-27.625 l 17.875,-48.6875 c 4.35,-11.93024 11.945,-10.8493 17.375,-11.9375 l 69.375,0 c 9.77,0 15.19625,1.63605 17.90625,11.9375 l 16.8125,45.46875 c 0,0 10.295,28.63965 -17.375,31.90625 -7.04,0.5296 -5.40125,15.99936 2.71875,15.46875 11.39,-1.1002 58.12625,-2.78959 67.90625,-0.53125 2.18,0 13.03375,2.17092 20.09375,-1.65625 3.25,-2.22837 4.38375,-15.41398 -2.15625,-17.09375 -7.08,-1.58883 -15.75,-4.86708 -21.75,-16.21875 -5.96,-7.57444 -36.40625,-90.90625 -36.40625,-90.90625 L 182.90625,47.718745 c -2.13188,-5.79512 -4.45659,-9.194743 -6.9375,-8.9375 z m -9.0625,85.375005 c 1.35375,-0.0725 2.7125,1.70623 4.0625,5.78125 l 29.3125,80.9375 c 2.14,6 4.29,10.34375 -2.75,10.34375 l -64.5,0 c -4.88,0.55099 -8.6925,-3.77127 -3.8125,-12.53125 l 33.625,-79.28125 c 1.355,-3.255 2.70875,-5.1775 4.0625,-5.25 z" id="path3633" style="fill:#ffffff;fill-opacity:1;stroke:none"/><path d="m 712.65625,46.312495 c -2.55234,-0.01241 -4.56313,0.693648 -4.8125,1.40625 -2.15,2.158416 -4.33225,4.318689 -6.53125,5.9375 -14.15,5.975613 -47.844,-7.564446 -82.125,0 -44.63,9.762833 -72.38725,25.994101 -100.65625,65.625005 -7.641,10.83205 -19.6115,36.3415 -21.8125,53.71875 -4.31,31.47688 -4.3125,77.03076 17.4375,113.84375 23.93,41.1098 67.99625,60.42381 113.15625,65.28125 37.529,4.34681 73.99625,0.009 106.65625,-16.5 3.229,-2.20838 3.2415,-5.48341 3.8125,-8.75 l 0,-74.6875 c 0,-20.5759 8.13625,-32.43989 11.90625,-35.6875 1.638,0.001 4.885,-2.73493 8.125,-4.34375 2.15,-3.85717 -0.55375,-10.40055 -4.34375,-11.46875 -33.649,1.0682 -65.2275,2.72583 -98.9375,2.15625 -4.37,0 -4.35875,1.61791 -5.96875,2.1875 -3.81,0.55958 -3.281,13.0625 0.5,13.0625 1.1,0.5286 2.19275,1.09375 3.84375,1.09375 28.8,-2.68802 47.3275,0.006 48.9375,35.21875 l 0,-1.125 0.5625,33.5625 c 0,0 1.6315,11.91124 -2.1875,23.8125 -8.16,26.62945 -58.215,26.64163 -88.125,13.53125 -39.72,-17.30629 -70.7635,-55.73305 -75.0625,-99.03125 C 529.94125,160.50371 556.07,97.024021 617,76.968745 c 17.41,-5.47598 38.62375,-10.332414 59.84375,0 16.88,8.663639 24.995,18.97554 29.375,28.218755 4.13,13.88979 12.66125,12.66749 16.78125,9.25 -0.44,-0.12991 2.28125,-5.65318 2.28125,-6.5625 L 722.5625,51.499995 c -2.46994,-3.968337 -6.62467,-5.171538 -9.90625,-5.1875 z" id="path3631" style="fill:#ffffff;fill-opacity:1;stroke:none"/><path d="m 445.6875,50.687495 c -0.50056,0.02882 -1.01756,0.116973 -1.5625,0.25 -11.35,1.638797 -99.92375,2.73799 -105.34375,0 -10.35,0.579575 -7.0875,14.095389 -2.1875,14.625 l 16.3125,2.1875 c 11.41,0 17.385,7.579805 20.125,14.125 1.1,2.688026 1.59375,20.043465 1.59375,28.187505 l 0,155.125 c 0,0 -1.375,35.12524 -2.625,43.96875 -1.11,7.92417 2.62375,21.55236 -35.40625,26.46875 -7.61,3.86716 -4.35,11.65625 0,11.65625 3.8,1.0692 26.10375,0.50481 38.59375,-1.125 6.541,-1.69876 68.4,-1.10918 72.75,0 11.93,0 10.3025,-12.74557 1.0625,-13.84375 -26.55,0 -34.6725,-9.7283 -36.3125,-22.71875 -1.08,-2.727 -0.125,-31.92377 -0.125,-42.15625 l 1,-153.125 c -0.069,-11.02192 -0.87125,-29.188251 0.21875,-31.906255 1.61,-6.52521 4.3275,-11.418626 15.1875,-14.65625 l 18.96875,-3.25 c 7.6125,-3.578623 5.25837,-14.244787 -2.25,-13.8125 z" id="path3627" style="fill:#ffffff;fill-opacity:1;stroke:none"/></svg>