<?xml version="1.0" encoding="UTF-8" standalone="no"?>
<!-- Created with Inkscape (http://www.inkscape.org/) -->
<svg
   xmlns:svg="http://www.w3.org/2000/svg"
   xmlns="http://www.w3.org/2000/svg"
   version="1.0"
   width="254.50999"
   height="34.119999"
   id="svg2"
   xml:space="preserve"><defs
     id="defs5"><clipPath
       id="clipPath17"><path
         d="M 0,0 L 595.276,0 L 595.276,841.89 L 0,841.89 L 0,0 z"
         id="path19" /></clipPath><clipPath
       id="clipPath161"><path
         d="M 0,0 L 595.276,0 L 595.276,841.89 L 0,841.89 L 0,0 z"
         id="path163" /></clipPath><clipPath
       id="clipPath189"><path
         d="M 0,0 L 595.276,0 L 595.276,841.89 L 0,841.89 L 0,0 z"
         id="path191" /></clipPath><clipPath
       id="clipPath211"><path
         d="M 0,0 L 595.276,0 L 595.276,841.89 L 0,841.89 L 0,0 z"
         id="path213" /></clipPath><clipPath
       id="clipPath239"><path
         d="M 429.873,51.064 L 426.651,46.41 C 426.229,45.798 425.545,45.213 424.717,45.151 L 424.717,45.151 L 424.717,45.006 L 428.289,45.006 C 429.243,45.006 429.937,45.618 430.404,46.303 L 430.404,46.303 L 433.707,51.064 L 429.873,51.064 z"
         id="path241" /></clipPath><clipPath
       id="clipPath251"><path
         d="M 0,0 L 595.276,0 L 595.276,841.89 L 0,841.89 L 0,0 z"
         id="path253" /></clipPath><clipPath
       id="clipPath279"><path
         d="M 0,0 L 595.276,0 L 595.276,841.89 L 0,841.89 L 0,0 z"
         id="path281" /></clipPath><clipPath
       id="clipPath319"><path
         d="M 0,0 L 595.276,0 L 595.276,841.89 L 0,841.89 L 0,0 z"
         id="path321" /></clipPath><clipPath
       id="clipPath347"><path
         d="M 0,0 L 595.276,0 L 595.276,841.89 L 0,841.89 L 0,0 z"
         id="path349" /></clipPath><clipPath
       id="clipPath379"><path
         d="M 0,0 L 595.276,0 L 595.276,841.89 L 0,841.89 L 0,0 z"
         id="path381" /></clipPath></defs><g
     transform="matrix(1.25,0,0,-1.25,-423.71975,984.154)"
     id="g11"><g
       id="g13" /><path
       d="M 483.74956,768.00523 L 375.72856,767.05423 L 375.57456,766.82223 L 483.74956,765.93123 L 483.74956,768.00523 z"
       id="path151"
       style="fill:#04a1e6;fill-opacity:1;fill-rule:nonzero;stroke:none" /><path
       d="M 517.85776,766.82003 L 518.00276,767.05203 L 483.74976,768.00503 L 483.74976,765.93103 L 517.85776,766.82003 z"
       id="path155"
       style="fill:#0d224a;fill-opacity:1;fill-rule:nonzero;stroke:none" /><path
       d="M 483.77086,761.07323 C 483.82486,761.30423 484.59886,764.70623 484.59886,766.97923 C 484.59886,769.25423 483.82386,772.66823 483.77086,772.89423 L 483.77086,772.90123 L 483.77086,772.89623 C 483.76986,772.90323 483.76986,772.90623 483.76986,772.90623 L 483.76986,772.88823 C 483.71686,772.66323 482.93686,769.25623 482.93686,766.97923 C 482.93686,764.70723 483.71386,761.29723 483.76686,761.06623 L 483.76686,761.05923 L 483.76686,761.06323 C 483.76986,761.05523 483.77086,761.05323 483.77086,761.05323 L 483.77086,761.07323 z"
       id="path167"
       style="fill:#ef2e31;fill-opacity:1;fill-rule:nonzero;stroke:none" /><path
       d="M 536.79416,784.97243 L 532.05816,779.85243 L 527.35216,784.98543 L 523.37216,784.98543 L 523.37216,772.83843 L 526.48816,772.83843 L 526.48816,780.65943 L 531.72216,775.20943 L 536.97816,780.73843 L 536.97816,772.83843 L 540.75816,772.83843 L 540.75816,784.97243 L 536.79416,784.97243 z"
       id="path171"
       style="fill:#04a1e6;fill-opacity:1;fill-rule:nonzero;stroke:none" /><path
       d="M 511.52326,784.97243 L 507.74126,784.97243 L 507.74126,772.84243 L 520.42026,772.84243 L 520.42026,775.52943 L 511.52326,775.52943 L 511.52326,784.97243 z"
       id="path175"
       style="fill:#04a1e6;fill-opacity:1;fill-rule:nonzero;stroke:none" /><path
       d="M 504.71066,784.97243 L 499.70266,784.97243 L 493.25166,780.20743 L 493.25166,784.97243 L 489.46566,784.97243 L 489.46566,772.83843 L 493.25166,772.83843 L 493.25166,777.89743 L 499.25366,772.83843 L 505.11266,772.83843 L 497.17366,779.47143 L 504.71066,784.97243 z"
       id="path179"
       style="fill:#04a1e6;fill-opacity:1;fill-rule:nonzero;stroke:none" /><path
       d="M 478.07356,782.81293 L 478.07356,784.97293 L 466.33356,784.97293 L 466.33356,772.84193 L 478.05556,772.84193 L 478.05556,775.00793 L 469.54556,775.00793 L 469.54556,777.95193 L 477.93556,777.95193 L 477.93556,780.11193 L 469.54556,780.11193 L 469.54556,782.81293 L 478.07356,782.81293 z"
       id="path183"
       style="fill:#0d224a;fill-opacity:1;fill-rule:nonzero;stroke:none" /><path
       d="M 452.61176,778.91873 C 452.61176,781.72573 455.76376,782.70773 458.20476,782.70773 C 459.98276,782.70773 462.27476,782.14773 463.57276,781.42273 L 463.57276,784.16173 C 462.17376,784.67073 459.87176,785.14773 458.01076,785.14773 C 453.27276,785.14773 448.83176,782.88373 448.83176,778.98073 C 448.83176,775.22673 453.16076,772.66173 457.40076,772.66173 C 459.77176,772.66173 462.01376,773.12073 463.70876,773.90973 L 463.70876,776.55073 C 462.11376,775.72273 460.12176,775.16373 457.97876,775.16373 C 455.22776,775.16373 452.61176,776.62573 452.61176,778.91873"
       id="path195"
       style="fill:#0d224a;fill-opacity:1;fill-rule:nonzero;stroke:none" /><path
       d="M 443.97386,777.41073 L 434.90586,784.97573 L 432.46386,784.97273 L 432.46386,772.83473 L 435.19386,772.83473 L 435.19386,780.51473 L 444.25586,772.83473 L 446.70386,772.83473 L 446.70386,784.97273 L 443.97386,784.97273 L 443.97386,777.41073 z"
       id="path199"
       style="fill:#0d224a;fill-opacity:1;fill-rule:nonzero;stroke:none" /><path
       d="M 384.28616,772.83523 L 387.49816,772.83523 L 387.49816,776.95423 L 395.95616,776.95423 L 395.95616,779.11223 L 387.49816,779.11223 L 387.49816,782.80823 L 396.16716,782.80823 L 396.16716,784.97223 L 384.28616,784.97223 L 384.28616,772.83523 z"
       id="path203"
       style="fill:#0d224a;fill-opacity:1;fill-rule:nonzero;stroke:none" /><path
       d="M 360.02046,772.83553 L 363.23146,772.83553 L 363.23146,784.97253 L 360.02046,784.97253 L 360.02046,772.83553 z"
       id="path205"
       style="fill:#0d224a;fill-opacity:1;fill-rule:nonzero;stroke:none" /><path
       d="M 348.23726,784.97243 C 345.78626,780.97943 343.44626,776.92043 341.15126,772.83543 C 341.15126,772.83343 344.19026,772.83543 344.19026,772.83543 L 345.74826,775.59143 L 352.99126,775.59143 L 354.63126,772.83543 L 358.41026,772.83543 C 356.03426,776.95443 353.52626,780.98843 350.93726,784.97243 L 348.23726,784.97243 z M 346.91726,777.75443 L 349.21826,781.79043 L 351.62226,777.75443 L 346.91726,777.75443 z"
       id="path217"
       style="fill:#0d224a;fill-opacity:1;fill-rule:nonzero;stroke:none" /><path
       d="M 420.89526,784.97243 C 418.44526,780.97943 416.10426,776.92043 413.81126,772.83543 C 413.81126,772.83343 416.84926,772.83543 416.84926,772.83543 L 418.40526,775.59143 L 425.65026,775.59143 L 427.28926,772.83543 L 431.06926,772.83543 C 428.69326,776.95443 426.18526,780.98843 423.59626,784.97243 L 420.89526,784.97243 z M 419.57426,777.75443 L 421.87526,781.79043 L 424.28226,777.75443 L 419.57426,777.75443 z"
       id="path221"
       style="fill:#0d224a;fill-opacity:1;fill-rule:nonzero;stroke:none" /><path
       d="M 412.38786,781.25143 C 412.38786,783.64843 410.20886,784.97343 407.57786,784.97343 L 398.71286,784.97343 L 398.71286,772.83543 L 401.92786,772.83543 L 401.92786,777.03843 L 404.93486,777.03843 L 408.78686,772.83743 L 413.04986,772.83543 L 408.64286,777.56843 C 410.71286,778.08443 412.38786,779.50843 412.38786,781.25143 M 405.61186,779.20143 L 401.92786,779.20143 L 401.92786,782.80843 L 406.32186,782.80843 C 407.58186,782.80843 408.73586,782.21843 408.73586,781.08643 C 408.73586,779.94843 407.58386,779.20143 405.61186,779.20143"
       id="path225"
       style="fill:#0d224a;fill-opacity:1;fill-rule:nonzero;stroke:none" /><path
       d="M 381.11106,781.25143 C 381.11106,783.64843 378.93306,784.97343 376.30206,784.97343 L 367.43606,784.97343 L 367.43606,772.83543 L 370.65106,772.83543 L 370.65106,777.03843 L 373.65806,777.03843 L 377.51206,772.83743 L 381.77306,772.83543 L 377.36706,777.56843 C 379.43306,778.08443 381.11106,779.50843 381.11106,781.25143 M 374.33606,779.20143 L 370.65106,779.20143 L 370.65106,782.80843 L 375.04506,782.80843 C 376.30606,782.80843 377.45906,782.21843 377.45906,781.08643 C 377.45906,779.94843 376.30606,779.20143 374.33606,779.20143"
       id="path229"
       style="fill:#0d224a;fill-opacity:1;fill-rule:nonzero;stroke:none" /></g></svg>