<?xml version="1.0" encoding="UTF-8" standalone="no"?>
<!-- Created with Inkscape (http://www.inkscape.org/) -->
<svg
   xmlns:dc="http://purl.org/dc/elements/1.1/"
   xmlns:cc="http://web.resource.org/cc/"
   xmlns:rdf="http://www.w3.org/1999/02/22-rdf-syntax-ns#"
   xmlns:svg="http://www.w3.org/2000/svg"
   xmlns="http://www.w3.org/2000/svg"
   xmlns:xlink="http://www.w3.org/1999/xlink"
   xmlns:sodipodi="http://sodipodi.sourceforge.net/DTD/sodipodi-0.dtd"
   xmlns:inkscape="http://www.inkscape.org/namespaces/inkscape"
   width="747"
   height="87"
   id="svg2"
   sodipodi:version="0.32"
   inkscape:version="0.45.1"
   version="1.0">
  <g
     inkscape:label="Layer 1"
     inkscape:groupmode="layer"
     id="layer1"
     transform="translate(-286.52481,-489.08702)">
    <polygon
       clip-path="url(#SVGID_51_)"
       points="887.165,738.794 841.912,739.194 841.848,739.291 887.165,739.664 887.165,738.794 "
       id="polygon1384"
       style="fill:#00a1e4"
       transform="matrix(8.6179049,0,0,8.6179049,-6817.8088,-5815.8842)" />
    <polygon
       clip-path="url(#SVGID_51_)"
       points="901.455,739.292 901.517,739.194 887.165,738.794 887.165,739.664 901.455,739.292 "
       id="polygon1386"
       style="fill:#002157"
       transform="matrix(8.6179049,0,0,8.6179049,-6817.8088,-5815.8842)" />
    <path
       clip-path="url(#SVGID_51_)"
       d="M 887.175,741.699 C 887.197,741.602 887.523,740.178 887.523,739.224 C 887.523,738.27 887.197,736.841 887.175,736.746 L 887.175,736.743 C 887.175,736.743 887.175,736.744 887.175,736.745 C 887.174,736.742 887.174,736.741 887.174,736.741 L 887.174,736.749 C 887.153,736.843 886.826,738.27 886.826,739.224 C 886.826,740.176 887.15,741.604 887.173,741.702 L 887.173,741.705 C 887.173,741.705 887.174,741.704 887.174,741.703 C 887.174,741.706 887.175,741.708 887.175,741.708 L 887.175,741.699 z "
       id="path1388"
       style="fill:#ed1c24"
       transform="matrix(8.6179049,0,0,8.6179049,-6817.8088,-5815.8842)" />
    <polygon
       clip-path="url(#SVGID_51_)"
       points="909.388,731.687 907.404,733.832 905.433,731.682 903.765,731.682 903.765,736.769 905.071,736.769 905.071,733.494 907.264,735.777 909.465,733.46 909.465,736.769 911.049,736.769 911.049,731.687 909.388,731.687 "
       id="polygon1390"
       style="fill:#00a1e4"
       transform="matrix(8.6179049,0,0,8.6179049,-6817.8088,-5815.8842)" />
    <polygon
       clip-path="url(#SVGID_51_)"
       points="898.802,731.687 897.217,731.687 897.217,736.768 902.528,736.768 902.528,735.643 898.802,735.643 898.802,731.687 "
       id="polygon1392"
       style="fill:#00a1e4"
       transform="matrix(8.6179049,0,0,8.6179049,-6817.8088,-5815.8842)" />
    <polygon
       clip-path="url(#SVGID_51_)"
       points="895.947,731.687 893.85,731.687 891.147,733.683 891.147,731.687 889.56,731.687 889.56,736.769 891.147,736.769 891.147,734.65 893.66,736.769 896.115,736.769 892.79,733.991 895.947,731.687 "
       id="polygon1394"
       style="fill:#00a1e4"
       transform="matrix(8.6179049,0,0,8.6179049,-6817.8088,-5815.8842)" />
    <polygon
       clip-path="url(#SVGID_51_)"
       points="884.789,732.591 884.789,731.687 879.869,731.687 879.869,736.768 884.781,736.768 884.781,735.861 881.215,735.861 881.215,734.627 884.73,734.627 884.73,733.723 881.215,733.723 881.215,732.591 884.789,732.591 "
       id="polygon1396"
       style="fill:#002157"
       transform="matrix(8.6179049,0,0,8.6179049,-6817.8088,-5815.8842)" />
    <path
       clip-path="url(#SVGID_51_)"
       d="M 874.121,734.222 C 874.121,733.047 875.441,732.635 876.465,732.635 C 877.21,732.635 878.17,732.869 878.713,733.173 L 878.713,732.026 C 878.127,731.813 877.163,731.613 876.383,731.613 C 874.399,731.613 872.538,732.562 872.538,734.197 C 872.538,735.77 874.351,736.844 876.128,736.844 C 877.121,736.844 878.061,736.652 878.77,736.322 L 878.77,735.215 C 878.102,735.562 877.268,735.796 876.371,735.796 C 875.218,735.795 874.121,735.183 874.121,734.222 z "
       id="path1398"
       style="fill:#002157"
       transform="matrix(8.6179049,0,0,8.6179049,-6817.8088,-5815.8842)" />
    <polygon
       clip-path="url(#SVGID_51_)"
       points="870.502,734.855 866.703,731.686 865.68,731.687 865.68,736.771 866.824,736.771 866.824,733.554 870.621,736.771 871.646,736.771 871.646,731.687 870.502,731.687 870.502,734.855 "
       id="polygon1400"
       style="fill:#002157"
       transform="matrix(8.6179049,0,0,8.6179049,-6817.8088,-5815.8842)" />
    <polygon
       clip-path="url(#SVGID_51_)"
       points="845.497,736.771 846.843,736.771 846.843,735.045 850.388,735.045 850.388,734.141 846.843,734.141 846.843,732.593 850.475,732.593 850.475,731.687 845.497,731.687 845.497,736.771 "
       id="polygon1402"
       style="fill:#002157"
       transform="matrix(8.6179049,0,0,8.6179049,-6817.8088,-5815.8842)" />
    <rect
       x="832.27399"
       y="731.68701"
       clip-path="url(#SVGID_51_)"
       width="1.346"
       height="5.0840001"
       id="rect1404"
       style="fill:#002157"
       transform="matrix(8.6179049,0,0,8.6179049,-6817.8088,-5815.8842)" />
    <path
       clip-path="url(#SVGID_51_)"
       d="M 826.785,734.71 L 827.748,733.019 L 828.757,734.71 L 826.785,734.71 z M 827.338,731.687 C 826.312,733.36 825.331,735.06 824.369,736.771 C 824.369,736.772 825.642,736.771 825.642,736.771 L 826.294,735.616 L 829.329,735.616 L 830.016,736.771 L 831.599,736.771 C 830.604,735.046 829.554,733.356 828.468,731.687 L 827.338,731.687 z "
       id="path1406"
       style="fill:#002157"
       transform="matrix(8.6179049,0,0,8.6179049,-6817.8088,-5815.8842)" />
    <path
       clip-path="url(#SVGID_51_)"
       d="M 860.281,734.71 L 861.245,733.019 L 862.253,734.71 L 860.281,734.71 z M 860.834,731.687 C 859.808,733.36 858.828,735.06 857.866,736.771 C 857.866,736.772 859.138,736.771 859.138,736.771 L 859.79,735.616 L 862.825,735.616 L 863.513,736.771 L 865.096,736.771 C 864.101,735.046 863.05,733.356 861.965,731.687 L 860.834,731.687 z "
       id="path1408"
       style="fill:#002157"
       transform="matrix(8.6179049,0,0,8.6179049,-6817.8088,-5815.8842)" />
    <path
       clip-path="url(#SVGID_51_)"
       d="M 854.432,734.104 L 852.889,734.104 L 852.889,732.593 L 854.73,732.593 C 855.257,732.593 855.741,732.84 855.741,733.314 C 855.74,733.792 855.257,734.104 854.432,734.104 z M 857.27,733.245 C 857.27,732.241 856.358,731.686 855.256,731.686 L 851.541,731.686 L 851.541,736.771 L 852.889,736.771 L 852.889,735.011 L 854.149,735.011 L 855.762,736.77 L 857.548,736.771 L 855.702,734.789 C 856.568,734.573 857.27,733.975 857.27,733.245 z "
       id="path1410"
       style="fill:#002157"
       transform="matrix(8.6179049,0,0,8.6179049,-6817.8088,-5815.8842)" />
    <path
       clip-path="url(#SVGID_51_)"
       d="M 838.271,734.104 L 836.728,734.104 L 836.728,732.593 L 838.569,732.593 C 839.096,732.593 839.58,732.84 839.58,733.314 C 839.58,733.792 839.097,734.104 838.271,734.104 z M 841.109,733.245 C 841.109,732.241 840.197,731.686 839.095,731.686 L 835.38,731.686 L 835.38,736.771 L 836.728,736.771 L 836.728,735.011 L 837.988,735.011 L 839.601,736.77 L 841.387,736.771 L 839.541,734.789 C 840.408,734.573 841.109,733.975 841.109,733.245 z "
       id="path1412"
       style="fill:#002157"
       transform="matrix(8.6179049,0,0,8.6179049,-6817.8088,-5815.8842)" />
  </g>
</svg>
