<?xml version="1.0" encoding="UTF-8" standalone="no"?>
<!-- Created with Inkscape (http://www.inkscape.org/) -->

<svg
   xmlns:dc="http://purl.org/dc/elements/1.1/"
   xmlns:cc="http://creativecommons.org/ns#"
   xmlns:rdf="http://www.w3.org/1999/02/22-rdf-syntax-ns#"
   xmlns:svg="http://www.w3.org/2000/svg"
   xmlns="http://www.w3.org/2000/svg"
   xmlns:sodipodi="http://sodipodi.sourceforge.net/DTD/sodipodi-0.dtd"
   xmlns:inkscape="http://www.inkscape.org/namespaces/inkscape"
   width="600"
   height="240"
   id="svg2"
   version="1.1">
  <g
     inkscape:label="Layer 1"
     inkscape:groupmode="layer"
     id="layer1"
     transform="translate(-74.999973,-295.67749)">
    <path
       id="path7577"
       d="m 599.08302,482.83386 c -2.06504,2.06504 -77.06458,55.24454 -248.99336,52.75918 -10.76382,0 -255.608812,-5.81137 -275.089687,-116.42839 0,-12.84714 7.054051,-111.85969 274.687647,-123.44588 29.82438,0 263.48523,1.24269 273.00637,105.22597 0,9.94146 -5.39105,77.88695 -192.23201,100.67555 -6.7251,0.71272 -4.86108,-1.86402 -0.93201,-2.39399 3.94734,-0.51169 176.18679,-19.57225 176.18679,-97.4592 0,-7.45609 -12.84715,-91.55646 -256.02914,-98.19019 -16.57519,0 -250.656361,0.84064 -256.869773,110.21497 0,12.82887 15.752823,99.43287 255.627093,112.26174 18.21992,0 130.49993,7.87641 243.18199,-41.42884 6.26824,-2.96051 7.45609,-1.79092 7.45609,-1.79092"
       style="fill:#f1471c;fill-rule:nonzero;stroke:none" />
    <path
       id="path7583"
       d="m 286.78961,315.43174 68.58511,145.41212 -16.46554,0 -15.42388,-34.64891 -92.59812,0 -16.81276,34.64891 -14.41878,0 16.83104,-34.64891 -30.86604,0 0,-12.17098 36.18399,0 48.17222,-98.24501 16.81276,-0.34722 z m 30.86604,98.42776 -38.76073,-81.96222 -41.83088,81.96222 80.59161,0 z m 52.81401,46.98436 12.0065,0 0,-139.9297 -12.35372,0 0.34722,139.9297 z m 51.09618,-116.95835 -12.68268,0 0,-22.64241 12.68268,0 0,22.64241 z m -12.68268,14.07155 0,102.8868 12.33546,0 0,-103.23402 -12.33546,0.34722 z m 88.12081,-3.08843 c -27.08317,0 -55.20799,24.34196 -55.20799,54.87905 0,30.51882 24.01301,54.18461 58.99086,54.18461 34.97786,0 49.03114,-32.58386 49.03114,-32.58386 l -14.05328,0 c -3.7646,11.65928 -26.26081,24.70745 -44.59037,20.23013 -35.3068,-8.22363 -35.3068,-36.01951 -35.3068,-39.08967 0,-19.90119 9.72216,-39.78411 29.47716,-44.93759 35.67229,-7.20025 49.5611,18.34784 51.44339,20.92458 l 13.72434,0 c -8.57086,-18.51231 -26.40701,-33.60725 -53.50845,-33.60725 m 177.99599,58.64365 -95.33933,0 c 0,1.97367 2.41226,29.84265 29.14821,37.0429 18.20165,4.07527 43.21977,-3.43565 49.04941,-21.94797 l 13.70606,0 c -2.04677,6.85303 -16.44727,34.97786 -50.74896,34.97786 -34.30169,0 -53.83739,-25.73084 -53.83739,-52.814 0,-27.10145 18.85953,-56.24966 51.77234,-56.24966 32.93109,0 56.24966,24.34196 56.24966,58.99087 m -54.87905,-46.98436 c -35.65402,0 -40.46028,35.67229 -40.46028,35.67229 l 82.65666,0 c 0,0 -6.52409,-35.67229 -42.19638,-35.67229"
       style="fill:#221e1f;fill-rule:nonzero;stroke:none" />
  </g>
</svg>
