<?xml version="1.0" encoding="UTF-8" standalone="no"?>
<!-- Created with Inkscape (http://www.inkscape.org/) -->

<svg
   xmlns:dc="http://purl.org/dc/elements/1.1/"
   xmlns:cc="http://creativecommons.org/ns#"
   xmlns:rdf="http://www.w3.org/1999/02/22-rdf-syntax-ns#"
   xmlns:svg="http://www.w3.org/2000/svg"
   xmlns="http://www.w3.org/2000/svg"
   version="1.1"
   width="300"
   height="102.62401"
   id="svg14139">
  <defs
     id="defs14141" />
  <metadata
     id="metadata14144">
    <rdf:RDF>
      <cc:Work
         rdf:about="">
        <dc:format>image/svg+xml</dc:format>
        <dc:type
           rdf:resource="http://purl.org/dc/dcmitype/StillImage" />
        <dc:title></dc:title>
      </cc:Work>
    </rdf:RDF>
  </metadata>
  <g
     transform="translate(-136.85549,-391.34999)"
     id="layer1">
    <g
       transform="matrix(3.368856,0,0,3.368856,-346.67048,-1776.3619)"
       id="g14102">
      <path
         d="m 143.52824,663.21833 2.7125,0 4.31625,5.54375 0,-5.54375 2.87625,0 0,10.48875 -2.54625,0 -4.48125,-5.75375 0,5.75375 -2.8775,0 0,-10.48875 z"
         id="path9953"
         style="fill:#003f5f;fill-opacity:1;fill-rule:nonzero;stroke:none" />
      <path
         d="m 154.87424,663.21833 7.19625,0 0,2.54375 -4.31875,0 0,1.5175 3.69625,0 0,2.2925 -3.69625,0 0,1.6625 4.68,0 0,2.4725 -7.5575,0 0,-10.48875 z"
         id="path9957"
         style="fill:#003f5f;fill-opacity:1;fill-rule:nonzero;stroke:none" />
      <path
         d="m 195.03662,668.4927 0,-0.03 c 0,-1.5125 -1.095,-2.83125 -2.6975,-2.83125 -1.58875,0 -2.65375,1.28875 -2.65375,2.80125 l 0,0.03 c 0,1.51375 1.09375,2.8325 2.6825,2.8325 1.60375,0 2.66875,-1.28875 2.66875,-2.8025 m -8.3325,0 0,-0.03 c 0,-3.01125 2.4275,-5.45375 5.66375,-5.45375 3.2375,0 5.635,2.4125 5.635,5.42375 l 0,0.03 c 0,3.0125 -2.42625,5.45625 -5.66375,5.45625 -3.2375,0 -5.635,-2.41375 -5.635,-5.42625"
         id="path9961"
         style="fill:#003f5f;fill-opacity:1;fill-rule:nonzero;stroke:none" />
      <path
         d="m 203.97187,668.25283 c 0.9875,0 1.5575,-0.48 1.5575,-1.24375 l 0,-0.03 c 0,-0.825 -0.59875,-1.24375 -1.5725,-1.24375 l -2.01125,0 0,2.5175 2.02625,0 z m -4.87375,-5.035 5.0675,0 c 1.60375,0 2.71125,0.42 3.41625,1.13875 0.615,0.60125 0.93,1.40875 0.93,2.44375 l 0,0.0287 c 0,1.60375 -0.85625,2.6675 -2.15875,3.22125 l 2.5025,3.6575 -3.3575,0 -2.1125,-3.1775 -0.03,0 -1.35125,0 0,3.1775 -2.90625,0 0,-10.49 z"
         id="path9965"
         style="fill:#003f5f;fill-opacity:1;fill-rule:nonzero;stroke:none" />
      <path
         d="m 210.02486,663.21833 2.9075,0 0,4.255 3.6125,-4.255 3.44625,0 -3.97125,4.50875 4.105,5.98 -3.49,0 -2.6375,-3.895 -1.065,1.18375 0,2.71125 -2.9075,0 0,-10.48875 z"
         id="path9969"
         style="fill:#003f5f;fill-opacity:1;fill-rule:nonzero;stroke:none" />
      <path
         d="m 219.91749,672.14958 1.61875,-1.93375 c 1.0325,0.82375 2.18625,1.25875 3.4,1.25875 0.78125,0 1.1975,-0.27 1.1975,-0.71875 l 0,-0.03 c 0,-0.43375 -0.34125,-0.675 -1.76625,-1.005 -2.2325,-0.50875 -3.9575,-1.1375 -3.9575,-3.295 l 0,-0.03 c 0,-1.94875 1.545,-3.3575 4.0625,-3.3575 1.78375,0 3.17625,0.48 4.315,1.395 l -1.4525,2.05125 c -0.96,-0.675 -2.00875,-1.03375 -2.93875,-1.03375 -0.70375,0 -1.0475,0.3 -1.0475,0.67375 l 0,0.03 c 0,0.48 0.36,0.69 1.8125,1.02 2.415,0.525 3.9125,1.3025 3.9125,3.26625 l 0,0.0312 c 0,2.1425 -1.69375,3.415 -4.24125,3.415 -1.8575,0 -3.62875,-0.5825 -4.915,-1.7375"
         id="path9973"
         style="fill:#003f5f;fill-opacity:1;fill-rule:nonzero;stroke:none" />
      <path
         d="m 169.89599,663.21833 -6.71375,0 0,2.5475 2.485,0 0,7.94125 2.9075,0 0,-7.94125 2.1675,0 -0.84625,-2.5475 z"
         id="path9977"
         style="fill:#003f5f;fill-opacity:1;fill-rule:nonzero;stroke:none" />
      <path
         d="m 177.08562,673.70758 1.9325,-5.96375 1.9475,5.96375 2.41125,0 3.5525,-10.48875 -2.9225,0 -1.775,6.06875 -1.9525,-6.06875 -2.44875,0 -1.95375,6.06875 -1.7725,-6.06875 -2.9825,0 3.55375,10.48875 2.41,0 z"
         id="path9981"
         style="fill:#003f5f;fill-opacity:1;fill-rule:nonzero;stroke:none" />
      <path
         d="m 198.02736,652.85133 0,-0.0512 c 0,-5.23625 4.03,-9.34375 9.4725,-9.34375 3.67125,0 6.03125,1.54 7.625,3.74875 l -3.75,2.9 c -1.02625,-1.28375 -2.20625,-2.105 -3.92625,-2.105 -2.5175,0 -4.2875,2.13125 -4.2875,4.74875 l 0,0.0512 c 0,2.69625 1.77,4.8 4.2875,4.8 1.87375,0 2.97625,-0.8725 4.055,-2.18125 l 3.74875,2.66875 c -1.695,2.33625 -3.98,4.0575 -7.9575,4.0575 -5.13375,0 -9.2675,-3.9275 -9.2675,-9.29375"
         id="path9985"
         style="fill:#003f5f;fill-opacity:1;fill-rule:nonzero;stroke:none" />
      <path
         d="m 168.34661,654.77645 -1.89125,-5.5525 -1.91625,5.5525 3.8075,0 z m -4.11625,-11.0125 4.52,0 6.68875,18.0975 -4.71125,0 -1.03375,-3.20875 -6.3475,0 -1.14375,3.20875 -4.66125,0 6.68875,-18.0975 z"
         id="path9989"
         style="fill:#003f5f;fill-opacity:1;fill-rule:nonzero;stroke:none" />
      <path
         d="m 193.20136,643.7642 -4.415,0 -3.695,10.4325 -3.645,-10.4325 -4.415,0 -3.125,9.3475 2.7525,7.445 2.8025,-8.65875 3.3625,9.9625 4.5575,0 3.36125,-9.9625 3.32,9.9625 5.25125,0 -6.1125,-18.09625 z"
         id="path9993"
         style="fill:#003f5f;fill-opacity:1;fill-rule:nonzero;stroke:none" />
      <path
         d="m 231.16674,672.29558 0.21375,0 0.4975,0.765 0.4925,-0.765 0.20875,0 0,1.395 -0.19375,0 0,-1.06875 -0.49875,0.75625 -0.0263,0 -0.49375,-0.75625 0,1.06875 -0.2,0 0,-1.395 z m -0.95625,0.19 -0.44875,0 0,-0.19 1.09625,0 0,0.19 -0.4475,0 0,1.205 -0.2,0 0,-1.205 z"
         id="path9997"
         style="fill:#003f5f;fill-opacity:1;fill-rule:nonzero;stroke:none" />
    </g>
  </g>
</svg>
