<?xml version="1.0" encoding="iso-8859-1"?>
<!-- Generator: Adobe Illustrator 13.0.0, SVG Export Plug-In . SVG Version: 6.00 Build 14948)  -->
<!DOCTYPE svg PUBLIC "-//W3C//DTD SVG 1.1//EN" "http://www.w3.org/Graphics/SVG/1.1/DTD/svg11.dtd">
<svg version="1.1" id="Layer_1" xmlns="http://www.w3.org/2000/svg" xmlns:xlink="http://www.w3.org/1999/xlink" x="0px" y="0px"
	 width="192.756px" height="192.756px" viewBox="0 0 192.756 192.756" style="enable-background:new 0 0 192.756 192.756;"
	 xml:space="preserve">
<g>
	<polygon style="fill-rule:evenodd;clip-rule:evenodd;fill:#FFFFFF;" points="0,0 192.756,0 192.756,192.756 0,192.756 0,0 	"/>
	<path style="fill-rule:evenodd;clip-rule:evenodd;fill:#00A9E6;" d="M45.019,92.765l4.517,8.348
		C56.17,80.397,79.707,66.333,98.17,66.189c27.5-0.214,40.179,11.956,50.938,26.26c0.161,0.164,0.34,0.123,0.449,0.016
		c0.094-0.092,0.138-0.232,0.078-0.332c-8.036-12.679-25.938-30.508-52.675-30.268C69.445,62.113,54.651,78.727,45.019,92.765
		L45.019,92.765z"/>
	<path style="fill-rule:evenodd;clip-rule:evenodd;" d="M12.22,93.82v25.203H2.834v-33.43h17.823
		c3.901-0.105,6.855,0.844,8.964,2.636c2.003,1.688,2.952,4.113,2.952,7.278c0,1.793-0.527,3.48-1.476,5.061
		c-0.95,1.582-2.426,2.744-4.325,3.48l2.848,5.695l4.534,9.279h-8.963L15.49,99.727l2.109,0.105l3.585-0.738
		c1.16-0.529,1.688-1.371,1.688-2.533c-0.106-1.053-0.421-1.792-1.16-2.214c-0.633-0.422-1.477-0.633-2.637-0.527H12.22L12.22,93.82
		z M127.698,95.929c2.849-2.004,6.54-3.058,11.075-3.058s8.226,1.054,11.073,3.058c1.371,0.95,2.425,2.005,3.27,3.374l-1.371-5.378
		h8.226l2.952,15.819h0.106l2.741-15.819h9.914l3.375,15.819h0.104l2.637-15.819h8.12l-5.8,25.31h-10.546l-3.163-14.236
		l-2.532,14.236h-10.23l-2.741-12.549c-0.104,4.219-1.792,7.488-5.062,9.703c-2.848,2.107-6.538,3.164-11.073,3.164
		s-8.227-1.057-11.075-3.164c-1.687-1.16-2.952-2.637-3.795-4.324v0.211c0,2.004-0.633,3.691-1.898,4.852
		c-1.476,1.266-3.586,1.896-6.433,1.896H98.804V93.292h16.873c2.005,0,3.691,0.528,5.062,1.582c1.479,1.16,2.216,2.954,2.321,5.167
		c-0.105,1.477-0.423,2.742-1.161,3.797c-0.842,1.055-2.003,1.793-3.479,2.109c1.581,0.105,2.953,0.738,4.007,1.898l0.528,0.633
		l-0.211-2.32C122.743,101.73,124.431,98.354,127.698,95.929L127.698,95.929z M134.661,101.623c-1.268,1.16-1.899,2.744-1.794,4.535
		c-0.105,1.793,0.526,3.375,1.794,4.641c1.158,1.16,2.53,1.688,4.112,1.793c1.581-0.105,3.058-0.633,4.218-1.793
		c1.16-1.266,1.794-2.848,1.794-4.641c0-1.791-0.634-3.375-1.794-4.535s-2.637-1.791-4.218-1.791
		C137.191,99.832,135.819,100.463,134.661,101.623L134.661,101.623z M111.248,99.514h-3.163v3.375h2.848l2.003-0.422
		c0.315-0.209,0.527-0.633,0.527-1.16c0-0.631-0.212-1.055-0.634-1.369L111.248,99.514L111.248,99.514z M108.085,112.803h3.585
		c1.793,0,2.637-0.633,2.637-2.004c0-0.738-0.211-1.16-0.528-1.371l-1.792-0.316h-3.901V112.803L108.085,112.803z M96.483,119.023
		H84.989l-7.909-13.814v13.814h-8.964V93.292h11.601l7.804,14.131h0.105V93.292h8.858V119.023L96.483,119.023z M43.964,93.292
		l12.761,24.889V93.292H65.9v25.731H48.288L35.422,93.292H43.964L43.964,93.292z"/>
	<g>
		<defs>
			<path id="SVGID_1_" d="M45.019,92.765l4.517,8.348C56.17,80.397,79.707,66.333,98.17,66.189
				c27.5-0.214,40.179,11.956,50.938,26.26c0.161,0.164,0.34,0.123,0.449,0.016c0.094-0.092,0.138-0.232,0.078-0.332
				c-8.036-12.679-25.938-30.508-52.675-30.268C69.445,62.113,54.651,78.727,45.019,92.765L45.019,92.765z"/>
		</defs>
		<clipPath id="SVGID_2_">
			<use xlink:href="#SVGID_1_"  style="overflow:visible;"/>
		</clipPath>
		<rect x="45.019" y="61.624" style="clip-path:url(#SVGID_2_);fill:#00A9E6;" width="0.409" height="39.489"/>
		<rect x="45.428" y="61.624" style="clip-path:url(#SVGID_2_);fill:#00A7E5;" width="0.409" height="39.489"/>
		<rect x="45.836" y="61.624" style="clip-path:url(#SVGID_2_);fill:#00A5E3;" width="0.409" height="39.489"/>
		<rect x="46.246" y="61.624" style="clip-path:url(#SVGID_2_);fill:#00A4E2;" width="0.409" height="39.489"/>
		<rect x="46.654" y="61.624" style="clip-path:url(#SVGID_2_);fill:#00A2E1;" width="0.409" height="39.489"/>
		<rect x="47.063" y="61.624" style="clip-path:url(#SVGID_2_);fill:#00A0DF;" width="0.409" height="39.489"/>
		<rect x="47.472" y="61.624" style="clip-path:url(#SVGID_2_);fill:#009FDE;" width="0.409" height="39.489"/>
		<rect x="47.881" y="61.624" style="clip-path:url(#SVGID_2_);fill:#009DDD;" width="0.409" height="39.489"/>
		<rect x="48.29" y="61.624" style="clip-path:url(#SVGID_2_);fill:#009BDB;" width="0.409" height="39.489"/>
		<rect x="48.699" y="61.624" style="clip-path:url(#SVGID_2_);fill:#009ADA;" width="0.409" height="39.489"/>
		<rect x="49.107" y="61.624" style="clip-path:url(#SVGID_2_);fill:#0098D8;" width="0.409" height="39.489"/>
		<rect x="49.517" y="61.624" style="clip-path:url(#SVGID_2_);fill:#0096D7;" width="0.409" height="39.489"/>
		<rect x="49.925" y="61.624" style="clip-path:url(#SVGID_2_);fill:#0095D6;" width="0.409" height="39.489"/>
		<rect x="50.334" y="61.624" style="clip-path:url(#SVGID_2_);fill:#0093D4;" width="0.409" height="39.489"/>
		<rect x="50.743" y="61.624" style="clip-path:url(#SVGID_2_);fill:#0091D3;" width="0.409" height="39.489"/>
		<rect x="51.152" y="61.624" style="clip-path:url(#SVGID_2_);fill:#0090D1;" width="0.409" height="39.489"/>
		<rect x="51.561" y="61.624" style="clip-path:url(#SVGID_2_);fill:#008ED0;" width="0.409" height="39.489"/>
		<rect x="51.97" y="61.624" style="clip-path:url(#SVGID_2_);fill:#008CCF;" width="0.409" height="39.489"/>
		<rect x="52.379" y="61.624" style="clip-path:url(#SVGID_2_);fill:#008BCD;" width="0.409" height="39.489"/>
		<rect x="52.788" y="61.624" style="clip-path:url(#SVGID_2_);fill:#0089CC;" width="0.409" height="39.489"/>
		<rect x="53.197" y="61.624" style="clip-path:url(#SVGID_2_);fill:#0087CA;" width="0.409" height="39.489"/>
		<rect x="53.605" y="61.624" style="clip-path:url(#SVGID_2_);fill:#0085C9;" width="0.409" height="39.489"/>
		<rect x="54.014" y="61.624" style="clip-path:url(#SVGID_2_);fill:#0084C8;" width="0.409" height="39.489"/>
		<rect x="54.423" y="61.624" style="clip-path:url(#SVGID_2_);fill:#0082C6;" width="0.409" height="39.489"/>
		<rect x="54.832" y="61.624" style="clip-path:url(#SVGID_2_);fill:#0080C5;" width="0.409" height="39.489"/>
		<rect x="55.241" y="61.624" style="clip-path:url(#SVGID_2_);fill:#007FC4;" width="0.409" height="39.489"/>
		<rect x="55.65" y="61.624" style="clip-path:url(#SVGID_2_);fill:#007DC2;" width="0.409" height="39.489"/>
		<rect x="56.059" y="61.624" style="clip-path:url(#SVGID_2_);fill:#007BC1;" width="0.409" height="39.489"/>
		<rect x="56.468" y="61.624" style="clip-path:url(#SVGID_2_);fill:#0079BF;" width="0.409" height="39.489"/>
		<rect x="56.876" y="61.624" style="clip-path:url(#SVGID_2_);fill:#0078BE;" width="0.409" height="39.489"/>
		<rect x="57.286" y="61.624" style="clip-path:url(#SVGID_2_);fill:#0076BD;" width="0.409" height="39.489"/>
		<rect x="57.694" y="61.624" style="clip-path:url(#SVGID_2_);fill:#0074BC;" width="0.409" height="39.489"/>
		<rect x="58.104" y="61.624" style="clip-path:url(#SVGID_2_);fill:#0372BA;" width="0.409" height="39.489"/>
		<rect x="58.512" y="61.624" style="clip-path:url(#SVGID_2_);fill:#0A71B9;" width="0.409" height="39.489"/>
		<rect x="58.921" y="61.624" style="clip-path:url(#SVGID_2_);fill:#1070B8;" width="0.409" height="39.489"/>
		<rect x="59.33" y="61.624" style="clip-path:url(#SVGID_2_);fill:#166EB7;" width="0.409" height="39.489"/>
		<rect x="59.739" y="61.624" style="clip-path:url(#SVGID_2_);fill:#1A6CB6;" width="0.409" height="39.489"/>
		<rect x="60.148" y="61.624" style="clip-path:url(#SVGID_2_);fill:#1E6AB4;" width="0.409" height="39.489"/>
		<rect x="60.557" y="61.624" style="clip-path:url(#SVGID_2_);fill:#1F69B3;" width="0.409" height="39.489"/>
		<rect x="60.965" y="61.624" style="clip-path:url(#SVGID_2_);fill:#2267B2;" width="0.409" height="39.489"/>
		<rect x="61.375" y="61.624" style="clip-path:url(#SVGID_2_);fill:#2466B1;" width="0.409" height="39.489"/>
		<rect x="61.783" y="61.624" style="clip-path:url(#SVGID_2_);fill:#2764AF;" width="0.409" height="39.489"/>
		<rect x="62.192" y="61.624" style="clip-path:url(#SVGID_2_);fill:#2962AE;" width="0.409" height="39.489"/>
		<rect x="62.601" y="61.624" style="clip-path:url(#SVGID_2_);fill:#2C60AD;" width="0.409" height="39.489"/>
		<rect x="63.01" y="61.624" style="clip-path:url(#SVGID_2_);fill:#2E5FAC;" width="0.409" height="39.489"/>
		<rect x="63.419" y="61.624" style="clip-path:url(#SVGID_2_);fill:#2F5DAB;" width="0.409" height="39.489"/>
		<rect x="63.828" y="61.624" style="clip-path:url(#SVGID_2_);fill:#305BAA;" width="0.409" height="39.489"/>
		<rect x="64.237" y="61.624" style="clip-path:url(#SVGID_2_);fill:#3259A8;" width="0.409" height="39.489"/>
		<rect x="64.646" y="61.624" style="clip-path:url(#SVGID_2_);fill:#3458A7;" width="0.409" height="39.489"/>
		<rect x="65.055" y="61.624" style="clip-path:url(#SVGID_2_);fill:#3656A6;" width="0.409" height="39.489"/>
		<rect x="65.463" y="61.624" style="clip-path:url(#SVGID_2_);fill:#3754A5;" width="0.409" height="39.489"/>
		<rect x="65.872" y="61.624" style="clip-path:url(#SVGID_2_);fill:#3952A4;" width="0.409" height="39.489"/>
		<rect x="66.281" y="61.624" style="clip-path:url(#SVGID_2_);fill:#3B50A2;" width="0.409" height="39.489"/>
		<rect x="66.69" y="61.624" style="clip-path:url(#SVGID_2_);fill:#3B4EA1;" width="0.409" height="39.489"/>
		<rect x="67.099" y="61.624" style="clip-path:url(#SVGID_2_);fill:#3C4CA0;" width="0.409" height="39.489"/>
		<rect x="67.508" y="61.624" style="clip-path:url(#SVGID_2_);fill:#3D4A9F;" width="0.409" height="39.489"/>
		<rect x="67.917" y="61.624" style="clip-path:url(#SVGID_2_);fill:#3F489E;" width="0.409" height="39.489"/>
		<rect x="68.326" y="61.624" style="clip-path:url(#SVGID_2_);fill:#40469D;" width="0.409" height="39.489"/>
		<rect x="68.734" y="61.624" style="clip-path:url(#SVGID_2_);fill:#41449B;" width="0.409" height="39.489"/>
		<rect x="69.144" y="61.624" style="clip-path:url(#SVGID_2_);fill:#42429A;" width="0.409" height="39.489"/>
		<rect x="69.552" y="61.624" style="clip-path:url(#SVGID_2_);fill:#45419A;" width="0.409" height="39.489"/>
		<rect x="69.961" y="61.624" style="clip-path:url(#SVGID_2_);fill:#47409A;" width="0.409" height="39.489"/>
		<rect x="70.37" y="61.624" style="clip-path:url(#SVGID_2_);fill:#4A409A;" width="0.409" height="39.489"/>
		<rect x="70.779" y="61.624" style="clip-path:url(#SVGID_2_);fill:#4E409A;" width="0.409" height="39.489"/>
		<rect x="71.188" y="61.624" style="clip-path:url(#SVGID_2_);fill:#514099;" width="0.409" height="39.489"/>
		<rect x="71.597" y="61.624" style="clip-path:url(#SVGID_2_);fill:#534099;" width="0.409" height="39.489"/>
		<rect x="72.006" y="61.624" style="clip-path:url(#SVGID_2_);fill:#574099;" width="0.409" height="39.489"/>
		<rect x="72.415" y="61.624" style="clip-path:url(#SVGID_2_);fill:#5A4099;" width="0.409" height="39.489"/>
		<rect x="72.823" y="61.624" style="clip-path:url(#SVGID_2_);fill:#5C4099;" width="0.409" height="39.489"/>
		<rect x="73.232" y="61.624" style="clip-path:url(#SVGID_2_);fill:#5F4099;" width="0.409" height="39.489"/>
		<rect x="73.641" y="61.624" style="clip-path:url(#SVGID_2_);fill:#624099;" width="0.409" height="39.489"/>
		<rect x="74.05" y="61.624" style="clip-path:url(#SVGID_2_);fill:#644099;" width="0.409" height="39.489"/>
		<rect x="74.459" y="61.624" style="clip-path:url(#SVGID_2_);fill:#674099;" width="0.409" height="39.489"/>
		<rect x="74.868" y="61.624" style="clip-path:url(#SVGID_2_);fill:#6A4099;" width="0.409" height="39.489"/>
		<rect x="75.277" y="61.624" style="clip-path:url(#SVGID_2_);fill:#6C3F98;" width="0.409" height="39.489"/>
		<rect x="75.686" y="61.624" style="clip-path:url(#SVGID_2_);fill:#6F3F98;" width="0.409" height="39.489"/>
		<rect x="76.095" y="61.624" style="clip-path:url(#SVGID_2_);fill:#713F98;" width="0.409" height="39.489"/>
		<rect x="76.503" y="61.624" style="clip-path:url(#SVGID_2_);fill:#733F98;" width="0.409" height="39.489"/>
		<rect x="76.912" y="61.624" style="clip-path:url(#SVGID_2_);fill:#763F98;" width="0.409" height="39.489"/>
		<rect x="77.321" y="61.624" style="clip-path:url(#SVGID_2_);fill:#783F98;" width="0.409" height="39.489"/>
		<rect x="77.73" y="61.624" style="clip-path:url(#SVGID_2_);fill:#7B3F98;" width="0.409" height="39.489"/>
		<rect x="78.139" y="61.624" style="clip-path:url(#SVGID_2_);fill:#7E3E98;" width="0.409" height="39.489"/>
		<rect x="78.548" y="61.624" style="clip-path:url(#SVGID_2_);fill:#803E98;" width="0.409" height="39.489"/>
		<rect x="78.957" y="61.624" style="clip-path:url(#SVGID_2_);fill:#823E98;" width="0.409" height="39.489"/>
		<rect x="79.366" y="61.624" style="clip-path:url(#SVGID_2_);fill:#843E98;" width="0.409" height="39.489"/>
		<rect x="79.774" y="61.624" style="clip-path:url(#SVGID_2_);fill:#873E97;" width="0.409" height="39.489"/>
		<rect x="80.184" y="61.624" style="clip-path:url(#SVGID_2_);fill:#893E97;" width="0.409" height="39.489"/>
		<rect x="80.592" y="61.624" style="clip-path:url(#SVGID_2_);fill:#8B3E97;" width="0.409" height="39.489"/>
		<rect x="81.001" y="61.624" style="clip-path:url(#SVGID_2_);fill:#8E3E97;" width="0.409" height="39.489"/>
		<rect x="81.41" y="61.624" style="clip-path:url(#SVGID_2_);fill:#903D97;" width="0.409" height="39.489"/>
		<rect x="81.819" y="61.624" style="clip-path:url(#SVGID_2_);fill:#933D97;" width="0.409" height="39.489"/>
		<rect x="82.228" y="61.624" style="clip-path:url(#SVGID_2_);fill:#953D97;" width="0.409" height="39.489"/>
		<rect x="82.637" y="61.624" style="clip-path:url(#SVGID_2_);fill:#983D97;" width="0.409" height="39.489"/>
		<rect x="83.046" y="61.624" style="clip-path:url(#SVGID_2_);fill:#9A3D97;" width="0.409" height="39.489"/>
		<rect x="83.455" y="61.624" style="clip-path:url(#SVGID_2_);fill:#9C3D97;" width="0.409" height="39.489"/>
		<rect x="83.863" y="61.624" style="clip-path:url(#SVGID_2_);fill:#9F3D97;" width="0.409" height="39.489"/>
		<rect x="84.272" y="61.624" style="clip-path:url(#SVGID_2_);fill:#A13C96;" width="0.409" height="39.489"/>
		<rect x="84.681" y="61.624" style="clip-path:url(#SVGID_2_);fill:#A33C96;" width="0.409" height="39.489"/>
		<rect x="85.09" y="61.624" style="clip-path:url(#SVGID_2_);fill:#A53C96;" width="0.409" height="39.489"/>
		<rect x="85.499" y="61.624" style="clip-path:url(#SVGID_2_);fill:#A83B96;" width="0.409" height="39.489"/>
		<rect x="85.908" y="61.624" style="clip-path:url(#SVGID_2_);fill:#AA3B96;" width="0.409" height="39.489"/>
		<rect x="86.317" y="61.624" style="clip-path:url(#SVGID_2_);fill:#AD3B96;" width="0.409" height="39.489"/>
		<rect x="86.726" y="61.624" style="clip-path:url(#SVGID_2_);fill:#AF3B96;" width="0.409" height="39.489"/>
		<rect x="87.135" y="61.624" style="clip-path:url(#SVGID_2_);fill:#B23A95;" width="0.409" height="39.489"/>
		<rect x="87.543" y="61.624" style="clip-path:url(#SVGID_2_);fill:#B43A95;" width="0.409" height="39.489"/>
		<rect x="87.953" y="61.624" style="clip-path:url(#SVGID_2_);fill:#B73995;" width="0.409" height="39.489"/>
		<rect x="88.361" y="61.624" style="clip-path:url(#SVGID_2_);fill:#B93995;" width="0.409" height="39.489"/>
		<rect x="88.77" y="61.624" style="clip-path:url(#SVGID_2_);fill:#BB3995;" width="0.409" height="39.489"/>
		<rect x="89.179" y="61.624" style="clip-path:url(#SVGID_2_);fill:#BE3995;" width="0.409" height="39.489"/>
		<rect x="89.588" y="61.624" style="clip-path:url(#SVGID_2_);fill:#C03995;" width="0.409" height="39.489"/>
		<rect x="89.997" y="61.624" style="clip-path:url(#SVGID_2_);fill:#C33794;" width="0.409" height="39.489"/>
		<rect x="90.406" y="61.624" style="clip-path:url(#SVGID_2_);fill:#C63794;" width="0.409" height="39.489"/>
		<rect x="90.814" y="61.624" style="clip-path:url(#SVGID_2_);fill:#C83794;" width="0.409" height="39.489"/>
		<rect x="91.224" y="61.624" style="clip-path:url(#SVGID_2_);fill:#CB3794;" width="0.409" height="39.489"/>
		<rect x="91.632" y="61.624" style="clip-path:url(#SVGID_2_);fill:#CD3794;" width="0.409" height="39.489"/>
		<rect x="92.042" y="61.624" style="clip-path:url(#SVGID_2_);fill:#D03694;" width="0.409" height="39.489"/>
		<rect x="92.45" y="61.624" style="clip-path:url(#SVGID_2_);fill:#D23694;" width="0.409" height="39.489"/>
		<rect x="92.859" y="61.624" style="clip-path:url(#SVGID_2_);fill:#D53694;" width="0.409" height="39.489"/>
		<rect x="93.268" y="61.624" style="clip-path:url(#SVGID_2_);fill:#D73493;" width="0.409" height="39.489"/>
		<rect x="93.677" y="61.624" style="clip-path:url(#SVGID_2_);fill:#DA3493;" width="0.409" height="39.489"/>
		<rect x="94.086" y="61.624" style="clip-path:url(#SVGID_2_);fill:#DC3493;" width="0.409" height="39.489"/>
		<rect x="94.495" y="61.624" style="clip-path:url(#SVGID_2_);fill:#DF3493;" width="0.409" height="39.489"/>
		<rect x="94.903" y="61.624" style="clip-path:url(#SVGID_2_);fill:#E13493;" width="0.409" height="39.489"/>
		<rect x="95.313" y="61.624" style="clip-path:url(#SVGID_2_);fill:#E43493;" width="0.409" height="39.489"/>
		<rect x="95.721" y="61.624" style="clip-path:url(#SVGID_2_);fill:#E83493;" width="0.409" height="39.489"/>
		<rect x="96.13" y="61.624" style="clip-path:url(#SVGID_2_);fill:#EB3293;" width="0.409" height="39.489"/>
		<rect x="96.539" y="61.624" style="clip-path:url(#SVGID_2_);fill:#ED3291;" width="0.409" height="39.489"/>
		<rect x="96.948" y="61.624" style="clip-path:url(#SVGID_2_);fill:#ED3290;" width="0.409" height="39.489"/>
		<rect x="97.357" y="61.624" style="clip-path:url(#SVGID_2_);fill:#ED328E;" width="0.409" height="39.489"/>
		<rect x="97.766" y="61.624" style="clip-path:url(#SVGID_2_);fill:#ED328D;" width="0.409" height="39.489"/>
		<rect x="98.175" y="61.624" style="clip-path:url(#SVGID_2_);fill:#ED328B;" width="0.409" height="39.489"/>
		<rect x="98.584" y="61.624" style="clip-path:url(#SVGID_2_);fill:#EE3289;" width="0.408" height="39.489"/>
		<rect x="98.992" y="61.624" style="clip-path:url(#SVGID_2_);fill:#EE3088;" width="0.409" height="39.489"/>
		<rect x="99.401" y="61.624" style="clip-path:url(#SVGID_2_);fill:#EE3186;" width="0.409" height="39.489"/>
		<rect x="99.811" y="61.624" style="clip-path:url(#SVGID_2_);fill:#EE3184;" width="0.408" height="39.489"/>
		<rect x="100.219" y="61.624" style="clip-path:url(#SVGID_2_);fill:#EE3183;" width="0.409" height="39.489"/>
		<rect x="100.628" y="61.624" style="clip-path:url(#SVGID_2_);fill:#EE3182;" width="0.409" height="39.489"/>
		<rect x="101.037" y="61.624" style="clip-path:url(#SVGID_2_);fill:#EE3180;" width="0.408" height="39.489"/>
		<rect x="101.445" y="61.624" style="clip-path:url(#SVGID_2_);fill:#EE317F;" width="0.409" height="39.489"/>
		<rect x="101.854" y="61.624" style="clip-path:url(#SVGID_2_);fill:#EE307D;" width="0.409" height="39.489"/>
		<rect x="102.264" y="61.624" style="clip-path:url(#SVGID_2_);fill:#EE307C;" width="0.409" height="39.489"/>
		<rect x="102.673" y="61.624" style="clip-path:url(#SVGID_2_);fill:#EE307A;" width="0.408" height="39.489"/>
		<rect x="103.081" y="61.624" style="clip-path:url(#SVGID_2_);fill:#EE3079;" width="0.409" height="39.489"/>
		<rect x="103.49" y="61.624" style="clip-path:url(#SVGID_2_);fill:#EE3177;" width="0.409" height="39.489"/>
		<rect x="103.899" y="61.624" style="clip-path:url(#SVGID_2_);fill:#EE3176;" width="0.408" height="39.489"/>
		<rect x="104.308" y="61.624" style="clip-path:url(#SVGID_2_);fill:#EE3175;" width="0.409" height="39.489"/>
		<rect x="104.717" y="61.624" style="clip-path:url(#SVGID_2_);fill:#EE2F73;" width="0.409" height="39.489"/>
		<rect x="105.126" y="61.624" style="clip-path:url(#SVGID_2_);fill:#EE3071;" width="0.409" height="39.489"/>
		<rect x="105.535" y="61.624" style="clip-path:url(#SVGID_2_);fill:#EE3070;" width="0.408" height="39.489"/>
		<rect x="105.943" y="61.624" style="clip-path:url(#SVGID_2_);fill:#EE306E;" width="0.409" height="39.489"/>
		<rect x="106.353" y="61.624" style="clip-path:url(#SVGID_2_);fill:#EE306D;" width="0.409" height="39.489"/>
		<rect x="106.762" y="61.624" style="clip-path:url(#SVGID_2_);fill:#EE306B;" width="0.408" height="39.489"/>
		<rect x="107.17" y="61.624" style="clip-path:url(#SVGID_2_);fill:#EE316A;" width="0.409" height="39.489"/>
		<rect x="107.579" y="61.624" style="clip-path:url(#SVGID_2_);fill:#EE2F68;" width="0.409" height="39.489"/>
		<rect x="107.988" y="61.624" style="clip-path:url(#SVGID_2_);fill:#EE2F67;" width="0.408" height="39.489"/>
		<rect x="108.396" y="61.624" style="clip-path:url(#SVGID_2_);fill:#EE2F65;" width="0.409" height="39.489"/>
		<rect x="108.806" y="61.624" style="clip-path:url(#SVGID_2_);fill:#EE3064;" width="0.409" height="39.489"/>
		<rect x="109.215" y="61.624" style="clip-path:url(#SVGID_2_);fill:#EE3062;" width="0.409" height="39.489"/>
		<rect x="109.624" y="61.624" style="clip-path:url(#SVGID_2_);fill:#EE3061;" width="0.408" height="39.489"/>
		<rect x="110.032" y="61.624" style="clip-path:url(#SVGID_2_);fill:#EE305F;" width="0.409" height="39.489"/>
		<rect x="110.441" y="61.624" style="clip-path:url(#SVGID_2_);fill:#EE2F5D;" width="0.409" height="39.489"/>
		<rect x="110.851" y="61.624" style="clip-path:url(#SVGID_2_);fill:#EE2F5C;" width="0.408" height="39.489"/>
		<rect x="111.259" y="61.624" style="clip-path:url(#SVGID_2_);fill:#EE2F5A;" width="0.409" height="39.489"/>
		<rect x="111.668" y="61.624" style="clip-path:url(#SVGID_2_);fill:#EE2F59;" width="0.409" height="39.489"/>
		<rect x="112.077" y="61.624" style="clip-path:url(#SVGID_2_);fill:#EE2F57;" width="0.409" height="39.489"/>
		<rect x="112.486" y="61.624" style="clip-path:url(#SVGID_2_);fill:#EE2F56;" width="0.408" height="39.489"/>
		<rect x="112.895" y="61.624" style="clip-path:url(#SVGID_2_);fill:#EE2F55;" width="0.409" height="39.489"/>
		<rect x="113.304" y="61.624" style="clip-path:url(#SVGID_2_);fill:#EE2F53;" width="0.409" height="39.489"/>
		<rect x="113.713" y="61.624" style="clip-path:url(#SVGID_2_);fill:#EE2E51;" width="0.408" height="39.489"/>
		<rect x="114.121" y="61.624" style="clip-path:url(#SVGID_2_);fill:#EE2E4F;" width="0.409" height="39.489"/>
		<rect x="114.53" y="61.624" style="clip-path:url(#SVGID_2_);fill:#EE2E4E;" width="0.409" height="39.489"/>
		<rect x="114.939" y="61.624" style="clip-path:url(#SVGID_2_);fill:#EE2E4C;" width="0.408" height="39.489"/>
		<rect x="115.348" y="61.624" style="clip-path:url(#SVGID_2_);fill:#EE2E4B;" width="0.409" height="39.489"/>
		<rect x="115.757" y="61.624" style="clip-path:url(#SVGID_2_);fill:#EE2E49;" width="0.409" height="39.489"/>
		<rect x="116.166" y="61.624" style="clip-path:url(#SVGID_2_);fill:#EE2F47;" width="0.409" height="39.489"/>
		<rect x="116.575" y="61.624" style="clip-path:url(#SVGID_2_);fill:#EE2D45;" width="0.408" height="39.489"/>
		<rect x="116.983" y="61.624" style="clip-path:url(#SVGID_2_);fill:#EE2D43;" width="0.409" height="39.489"/>
		<rect x="117.393" y="61.624" style="clip-path:url(#SVGID_2_);fill:#EE2D42;" width="0.409" height="39.489"/>
		<rect x="117.802" y="61.624" style="clip-path:url(#SVGID_2_);fill:#EE2D40;" width="0.408" height="39.489"/>
		<rect x="118.21" y="61.624" style="clip-path:url(#SVGID_2_);fill:#EE2E3E;" width="0.409" height="39.489"/>
		<rect x="118.619" y="61.624" style="clip-path:url(#SVGID_2_);fill:#EE2E3C;" width="0.409" height="39.489"/>
		<rect x="119.028" y="61.624" style="clip-path:url(#SVGID_2_);fill:#EE2E3A;" width="0.409" height="39.489"/>
		<rect x="119.438" y="61.624" style="clip-path:url(#SVGID_2_);fill:#EE2C38;" width="0.408" height="39.489"/>
		<rect x="119.846" y="61.624" style="clip-path:url(#SVGID_2_);fill:#EE2D36;" width="0.409" height="39.489"/>
		<rect x="120.255" y="61.624" style="clip-path:url(#SVGID_2_);fill:#EE2D34;" width="0.409" height="39.489"/>
		<rect x="120.664" y="61.624" style="clip-path:url(#SVGID_2_);fill:#EE2D32;" width="0.408" height="39.489"/>
		<rect x="121.072" y="61.624" style="clip-path:url(#SVGID_2_);fill:#EE2D30;" width="0.409" height="39.489"/>
		<rect x="121.481" y="61.624" style="clip-path:url(#SVGID_2_);fill:#EE2D2E;" width="0.409" height="39.489"/>
		<rect x="121.891" y="61.624" style="clip-path:url(#SVGID_2_);fill:#EE2D2C;" width="0.408" height="39.489"/>
		<rect x="122.299" y="61.624" style="clip-path:url(#SVGID_2_);fill:#EE2C2A;" width="0.409" height="39.489"/>
		<rect x="122.708" y="61.624" style="clip-path:url(#SVGID_2_);fill:#EE2C29;" width="0.409" height="39.489"/>
		<rect x="123.117" y="61.624" style="clip-path:url(#SVGID_2_);fill:#EE2D27;" width="0.409" height="39.489"/>
		<rect x="123.526" y="61.624" style="clip-path:url(#SVGID_2_);fill:#EE3327;" width="0.408" height="39.489"/>
		<rect x="123.935" y="61.624" style="clip-path:url(#SVGID_2_);fill:#EE3727;" width="0.409" height="39.489"/>
		<rect x="124.344" y="61.624" style="clip-path:url(#SVGID_2_);fill:#EF3C27;" width="0.409" height="39.489"/>
		<rect x="124.753" y="61.624" style="clip-path:url(#SVGID_2_);fill:#EF4027;" width="0.408" height="39.489"/>
		<rect x="125.161" y="61.624" style="clip-path:url(#SVGID_2_);fill:#EF4426;" width="0.409" height="39.489"/>
		<rect x="125.57" y="61.624" style="clip-path:url(#SVGID_2_);fill:#EF4826;" width="0.409" height="39.489"/>
		<rect x="125.979" y="61.624" style="clip-path:url(#SVGID_2_);fill:#F04B26;" width="0.409" height="39.489"/>
		<rect x="126.389" y="61.624" style="clip-path:url(#SVGID_2_);fill:#F04F26;" width="0.408" height="39.489"/>
		<rect x="126.797" y="61.624" style="clip-path:url(#SVGID_2_);fill:#F05326;" width="0.409" height="39.489"/>
		<rect x="127.206" y="61.624" style="clip-path:url(#SVGID_2_);fill:#F15626;" width="0.409" height="39.489"/>
		<rect x="127.615" y="61.624" style="clip-path:url(#SVGID_2_);fill:#F15926;" width="0.408" height="39.489"/>
		<rect x="128.023" y="61.624" style="clip-path:url(#SVGID_2_);fill:#F15D26;" width="0.409" height="39.489"/>
		<rect x="128.433" y="61.624" style="clip-path:url(#SVGID_2_);fill:#F16025;" width="0.409" height="39.489"/>
		<rect x="128.842" y="61.624" style="clip-path:url(#SVGID_2_);fill:#F26325;" width="0.408" height="39.489"/>
		<rect x="129.25" y="61.624" style="clip-path:url(#SVGID_2_);fill:#F26625;" width="0.409" height="39.489"/>
		<rect x="129.659" y="61.624" style="clip-path:url(#SVGID_2_);fill:#F26A25;" width="0.409" height="39.489"/>
		<rect x="130.068" y="61.624" style="clip-path:url(#SVGID_2_);fill:#F36C25;" width="0.409" height="39.489"/>
		<rect x="130.478" y="61.624" style="clip-path:url(#SVGID_2_);fill:#F36F25;" width="0.408" height="39.489"/>
		<rect x="130.886" y="61.624" style="clip-path:url(#SVGID_2_);fill:#F37224;" width="0.409" height="39.489"/>
		<rect x="131.295" y="61.624" style="clip-path:url(#SVGID_2_);fill:#F47424;" width="0.409" height="39.489"/>
		<rect x="131.704" y="61.624" style="clip-path:url(#SVGID_2_);fill:#F47724;" width="0.408" height="39.489"/>
		<rect x="132.112" y="61.624" style="clip-path:url(#SVGID_2_);fill:#F47A24;" width="0.409" height="39.489"/>
		<rect x="132.521" y="61.624" style="clip-path:url(#SVGID_2_);fill:#F47D24;" width="0.409" height="39.489"/>
		<rect x="132.931" y="61.624" style="clip-path:url(#SVGID_2_);fill:#F57F24;" width="0.408" height="39.489"/>
		<rect x="133.339" y="61.624" style="clip-path:url(#SVGID_2_);fill:#F58223;" width="0.409" height="39.489"/>
		<rect x="133.748" y="61.624" style="clip-path:url(#SVGID_2_);fill:#F68523;" width="0.409" height="39.489"/>
		<rect x="134.157" y="61.624" style="clip-path:url(#SVGID_2_);fill:#F68822;" width="0.409" height="39.489"/>
		<rect x="134.566" y="61.624" style="clip-path:url(#SVGID_2_);fill:#F68A22;" width="0.408" height="39.489"/>
		<rect x="134.975" y="61.624" style="clip-path:url(#SVGID_2_);fill:#F78D22;" width="0.409" height="39.489"/>
		<rect x="135.384" y="61.624" style="clip-path:url(#SVGID_2_);fill:#F78F22;" width="0.409" height="39.489"/>
		<rect x="135.793" y="61.624" style="clip-path:url(#SVGID_2_);fill:#F79221;" width="0.408" height="39.489"/>
		<rect x="136.201" y="61.624" style="clip-path:url(#SVGID_2_);fill:#F79421;" width="0.409" height="39.489"/>
		<rect x="136.61" y="61.624" style="clip-path:url(#SVGID_2_);fill:#F89720;" width="0.409" height="39.489"/>
		<rect x="137.02" y="61.624" style="clip-path:url(#SVGID_2_);fill:#F89A20;" width="0.408" height="39.489"/>
		<rect x="137.428" y="61.624" style="clip-path:url(#SVGID_2_);fill:#F99D1F;" width="0.409" height="39.489"/>
		<rect x="137.837" y="61.624" style="clip-path:url(#SVGID_2_);fill:#F99F1F;" width="0.409" height="39.489"/>
		<rect x="138.246" y="61.624" style="clip-path:url(#SVGID_2_);fill:#FAA21E;" width="0.409" height="39.489"/>
		<rect x="138.655" y="61.624" style="clip-path:url(#SVGID_2_);fill:#FAA41E;" width="0.408" height="39.489"/>
		<rect x="139.063" y="61.624" style="clip-path:url(#SVGID_2_);fill:#FAA71D;" width="0.409" height="39.489"/>
		<rect x="139.473" y="61.624" style="clip-path:url(#SVGID_2_);fill:#FBAA1D;" width="0.409" height="39.489"/>
		<rect x="139.882" y="61.624" style="clip-path:url(#SVGID_2_);fill:#FBAC1B;" width="0.408" height="39.489"/>
		<rect x="140.29" y="61.624" style="clip-path:url(#SVGID_2_);fill:#FCAF1A;" width="0.409" height="39.489"/>
		<rect x="140.699" y="61.624" style="clip-path:url(#SVGID_2_);fill:#FCB219;" width="0.409" height="39.489"/>
		<rect x="141.108" y="61.624" style="clip-path:url(#SVGID_2_);fill:#FDB518;" width="0.409" height="39.489"/>
		<rect x="141.518" y="61.624" style="clip-path:url(#SVGID_2_);fill:#FDB817;" width="0.408" height="39.489"/>
		<rect x="141.926" y="61.624" style="clip-path:url(#SVGID_2_);fill:#FEBB16;" width="0.409" height="39.489"/>
		<rect x="142.335" y="61.624" style="clip-path:url(#SVGID_2_);fill:#FEBD15;" width="0.409" height="39.489"/>
		<rect x="142.744" y="61.624" style="clip-path:url(#SVGID_2_);fill:#FEC012;" width="0.408" height="39.489"/>
		<rect x="143.152" y="61.624" style="clip-path:url(#SVGID_2_);fill:#FFC310;" width="0.409" height="39.489"/>
		<rect x="143.562" y="61.624" style="clip-path:url(#SVGID_2_);fill:#FFC60E;" width="0.409" height="39.489"/>
		<rect x="143.971" y="61.624" style="clip-path:url(#SVGID_2_);fill:#FFC90C;" width="0.409" height="39.489"/>
		<rect x="144.38" y="61.624" style="clip-path:url(#SVGID_2_);fill:#FFCC09;" width="0.408" height="39.489"/>
		<rect x="144.788" y="61.624" style="clip-path:url(#SVGID_2_);fill:#FFCE07;" width="0.409" height="39.489"/>
		<rect x="145.197" y="61.624" style="clip-path:url(#SVGID_2_);fill:#FFD104;" width="0.409" height="39.489"/>
		<rect x="145.606" y="61.624" style="clip-path:url(#SVGID_2_);fill:#FFD400;" width="0.408" height="39.489"/>
		<rect x="146.015" y="61.624" style="clip-path:url(#SVGID_2_);fill:#FFD700;" width="0.409" height="39.489"/>
		<rect x="146.424" y="61.624" style="clip-path:url(#SVGID_2_);fill:#FFD900;" width="0.409" height="39.489"/>
		<rect x="146.833" y="61.624" style="clip-path:url(#SVGID_2_);fill:#FFDC00;" width="0.408" height="39.489"/>
		<rect x="147.241" y="61.624" style="clip-path:url(#SVGID_2_);fill:#FFDF00;" width="0.409" height="39.489"/>
		<rect x="147.65" y="61.624" style="clip-path:url(#SVGID_2_);fill:#FFE200;" width="0.409" height="39.489"/>
		<rect x="148.06" y="61.624" style="clip-path:url(#SVGID_2_);fill:#FFE400;" width="0.409" height="39.489"/>
		<rect x="148.469" y="61.624" style="clip-path:url(#SVGID_2_);fill:#FFE700;" width="0.408" height="39.489"/>
		<rect x="148.877" y="61.624" style="clip-path:url(#SVGID_2_);fill:#FFEA00;" width="0.409" height="39.489"/>
		<rect x="149.286" y="61.624" style="clip-path:url(#SVGID_2_);fill:#FFED00;" width="0.409" height="39.489"/>
	</g>
	<polygon style="fill-rule:evenodd;clip-rule:evenodd;fill:#00A9E6;" points="43.964,113.857 33.84,113.857 38.902,103.1 
		43.964,113.857 	"/>
</g>
</svg>
