<?xml version="1.0" encoding="UTF-8" standalone="no"?>
<svg
   xmlns:dc="http://purl.org/dc/elements/1.1/"
   xmlns:cc="http://creativecommons.org/ns#"
   xmlns:rdf="http://www.w3.org/1999/02/22-rdf-syntax-ns#"
   xmlns:svg="http://www.w3.org/2000/svg"
   xmlns="http://www.w3.org/2000/svg"
   xmlns:xlink="http://www.w3.org/1999/xlink"
   xmlns:sodipodi="http://sodipodi.sourceforge.net/DTD/sodipodi-0.dtd"
   xmlns:inkscape="http://www.inkscape.org/namespaces/inkscape"
   version="1.1"
   width="778.20404"
   height="261.5769"
   id="svg3186"
   inkscape:version="0.48.4 r9939"
   sodipodi:docname="AOL_Logo.svg">
  <metadata
     id="metadata3242">
    <rdf:RDF>
      <cc:Work
         rdf:about="">
        <dc:format>image/svg+xml</dc:format>
        <dc:type
           rdf:resource="http://purl.org/dc/dcmitype/StillImage" />
      </cc:Work>
    </rdf:RDF>
  </metadata>
  <sodipodi:namedview
     pagecolor="#ffffff"
     bordercolor="#666666"
     borderopacity="1"
     objecttolerance="10"
     gridtolerance="10"
     guidetolerance="10"
     inkscape:pageopacity="0"
     inkscape:pageshadow="2"
     inkscape:window-width="1280"
     inkscape:window-height="750"
     id="namedview3240"
     showgrid="false"
     inkscape:zoom="0.65361336"
     inkscape:cx="214.31213"
     inkscape:cy="112.47802"
     inkscape:window-x="-8"
     inkscape:window-y="-8"
     inkscape:window-maximized="1"
     inkscape:current-layer="svg3186" />
  <defs
     id="defs3188">
    <linearGradient
       id="linearGradient3347">
      <stop
         style="stop-color:#1974b4"
         offset="0"
         id="stop3191" />
      <stop
         style="stop-color:#e0ebf5"
         offset="0.794873"
         id="stop3193" />
      <stop
         style="stop-color:#176da8"
         offset="1"
         id="stop3195" />
    </linearGradient>
    <linearGradient
       id="linearGradient3313">
      <stop
         style="stop-color:#3081bc"
         offset="0"
         id="stop3198" />
      <stop
         style="stop-color:#d2e3ef"
         offset="0.48092771"
         id="stop3200" />
      <stop
         style="stop-color:#75acd2"
         offset="0.62224746"
         id="stop3202" />
      <stop
         style="stop-color:#4691c4"
         offset="0.81112373"
         id="stop3204" />
      <stop
         style="stop-color:#1876b6"
         offset="1"
         id="stop3206" />
    </linearGradient>
    <linearGradient
       id="linearGradient3303">
      <stop
         style="stop-color:#1977b6"
         offset="0"
         id="stop3209" />
      <stop
         style="stop-color:#80b4d7"
         offset="0.70738685"
         id="stop3211" />
      <stop
         style="stop-color:#e8f1f8"
         offset="1"
         id="stop3213" />
    </linearGradient>
    <linearGradient
       id="linearGradient3259">
      <stop
         style="stop-color:#ffffff"
         offset="0"
         id="stop3216" />
      <stop
         style="stop-color:#ffffff"
         offset="0.18597515"
         id="stop3218" />
      <stop
         style="stop-color:#0861a8"
         offset="1"
         id="stop3220" />
    </linearGradient>
    <radialGradient
       cx="670.4223"
       cy="-1006.3694"
       r="71.619308"
       fx="670.4223"
       fy="-1006.3694"
       id="radialGradient2415"
       xlink:href="#linearGradient3259"
       gradientUnits="userSpaceOnUse"
       gradientTransform="matrix(0.948791,-0.0106253,0.0136585,1.21965,15.772504,1341.1334)" />
    <radialGradient
       cx="640.94489"
       cy="-951.84656"
       r="56.41993"
       fx="640.94489"
       fy="-951.84656"
       id="radialGradient2418"
       xlink:href="#linearGradient3313"
       gradientUnits="userSpaceOnUse"
       gradientTransform="matrix(-1.35919,-4.72579e-7,5.20502e-7,-1.41059,1460.4628,-1164.3966)" />
    <linearGradient
       x1="741.38379"
       y1="-931.54358"
       x2="817.88495"
       y2="-1027.5079"
       id="linearGradient2421"
       xlink:href="#linearGradient3347"
       gradientUnits="userSpaceOnUse"
       gradientTransform="matrix(0.855526,0,0,0.855526,62.072404,974.5044)"
       spreadMethod="reflect" />
    <linearGradient
       x1="576.09137"
       y1="-1050.4202"
       x2="600.62183"
       y2="-1125.1715"
       id="linearGradient2424"
       xlink:href="#linearGradient3303"
       gradientUnits="userSpaceOnUse"
       gradientTransform="matrix(0.855526,0,0,0.855526,62.072404,974.5044)"
       spreadMethod="reflect" />
  </defs>
  <g
     id="g4019">
    <path
       style="fill:#0861a8;fill-opacity:1"
       id="path3226"
       fill="url(#linearGradient2424)"
       d="M 564.70405,0.00464908 C 560.09713,0 555.62506,1.6591911 552.32905,4.8796491 549.03305,8.1001921 547.172,12.521442 547.1728,17.129649 L 547.14155,90.473399 C 547.4166,91.597439 547.80786,92.635689 548.2353,93.598399 562.31241,63.074953 593.16636,41.910899 628.9853,41.910899 632.89654,41.910899 636.76997,42.13988 640.5478,42.629649 639.74701,41.612433 638.79091,40.634716 637.6103,39.723399 L 572.8603,2.3171491 C 570.37793,0.87935108 567.57188,0.07548708 564.70405,0.00464908 z" />
    <path
       style="fill:#0861a8;fill-opacity:1"
       id="path3228"
       fill="url(#linearGradient2421)"
       d="M 699.0478,76.067149 C 710.85013,91.154909 717.89155,110.14549 717.89155,130.7859 717.89155,151.34565 710.89187,170.25795 699.1728,185.31715 700.54032,184.95181 701.99996,184.50264 703.51655,183.87965 L 769.6728,145.69215 C 774.9592,142.63315 778.20405,136.9873 778.20405,130.87965 778.20403,124.77199 774.9592,119.12613 769.6728,116.06715 L 703.6103,77.879649 C 702.18073,77.051638 700.64147,76.452039 699.0478,76.067149 z" />
    <path
       style="fill:#0861a8;fill-opacity:1"
       id="path3230"
       fill="url(#radialGradient2418)"
       d="M 549.32905,170.25465 C 548.55592,170.49915 547.81109,170.75215 547.1103,171.0359 L 547.07905,244.4734 C 547.08255,250.58473 550.34837,256.23129 555.64155,259.2859 560.93473,262.34051 567.4422,262.34066 572.7353,259.2859 L 637.64155,221.8484 C 638.33086,220.91222 638.92158,219.9829 639.4853,219.06715 636.04598,219.47133 632.53322,219.69215 628.9853,219.69215 594.06904,219.69215 563.86919,199.54268 549.32905,170.25465 z" />
    <path
       style="fill:#0861a8;fill-opacity:1"
       id="path3232"
       fill="url(#radialGradient2415)"
       d="M 695.71007,130.79133 C 695.71007,167.63677 665.84093,197.50591 628.99549,197.50591 592.15004,197.50591 562.2809,167.63677 562.2809,130.79133 562.2809,93.945869 592.15004,64.076732 628.99549,64.076732 665.84093,64.076732 695.71007,93.945869 695.71007,130.79133 L 695.71007,130.79133 z" />
    <path
       style="fill:#0861a8;fill-opacity:1"
       id="path3234"
       d="M 244.84375 39.8125 C 195.46566 39.8125 155.0625 80.184421 155.0625 129.5625 C 155.0625 178.94059 195.46566 219.34375 244.84375 219.34375 C 294.22185 219.34375 334.625 178.94059 334.625 129.5625 C 334.625 80.184421 294.22185 39.8125 244.84375 39.8125 z M 382.03125 40.09375 A 17.151715 17.151715 0 0 0 365.15625 57.46875 L 365.15625 201.6875 A 17.151715 17.151715 0 0 0 382.3125 218.84375 L 459.5625 218.84375 A 17.15625 17.15625 0 0 0 459.5625 184.53125 L 399.4375 184.53125 L 399.4375 57.46875 A 17.151715 17.151715 0 0 0 382.03125 40.09375 z M 75.21875 40.3125 C 71.44839 40.280662 67.625766 46.681611 61.28125 59.5625 L 1.25 197.8125 C -2.057459 205.41993 1.427047 214.25363 9.03125 217.5625 C 16.635452 220.87137 25.473791 217.38868 28.78125 209.78125 L 38.875 186.5625 L 111.21875 186.5625 L 121.28125 209.78125 C 124.5887 217.38868 133.4583 220.87137 141.0625 217.5625 C 148.6667 214.25363 152.11995 205.41993 148.8125 197.8125 L 88.8125 59.5625 C 82.70117 46.809225 78.98909 40.344425 75.21875 40.3125 z M 244.84375 74.09375 C 275.68475 74.09375 300.3125 98.721517 300.3125 129.5625 C 300.3125 160.40349 275.68475 185.0625 244.84375 185.0625 C 214.00276 185.0625 189.375 160.40349 189.375 129.5625 C 189.375 98.721517 214.00276 74.09375 244.84375 74.09375 z M 75.03125 103.25 L 98.8125 158 L 51.28125 158 L 75.03125 103.25 z " />
  </g>
</svg>
