<?xml version="1.0" encoding="UTF-8" standalone="no"?>
<!-- Created with Inkscape (http://www.inkscape.org/) -->

<svg
   xmlns:dc="http://purl.org/dc/elements/1.1/"
   xmlns:cc="http://creativecommons.org/ns#"
   xmlns:rdf="http://www.w3.org/1999/02/22-rdf-syntax-ns#"
   xmlns:svg="http://www.w3.org/2000/svg"
   xmlns="http://www.w3.org/2000/svg"
   xmlns:sodipodi="http://sodipodi.sourceforge.net/DTD/sodipodi-0.dtd"
   xmlns:inkscape="http://www.inkscape.org/namespaces/inkscape"
   width="651"
   height="295"
   id="svg2"
   version="1.1">
  <g
     inkscape:label="Layer 1"
     inkscape:groupmode="layer"
     id="layer1"
     transform="translate(2.9079432,-118.17216)">
    <path
       style="fill:#2a3f6f;fill-rule:nonzero;stroke:none"
       d="m 114.58475,326.26188 c -49.649636,0 -89.906096,-40.25646 -89.906096,-89.93731 0,-49.64963 40.25646,-89.90609 89.906096,-89.90609 45.99846,0 81.41791,37.04219 86.37975,81.97963 l 0,21.62614 c -4.96184,44.18849 -40.38129,76.23763 -86.37975,76.23763 m 114.7153,-90.28058 c 0,-1.49791 -0.0312,-2.96462 -0.0936,-4.43133 l 0,-113.37342 -28.24194,0 0,39.41388 c -20.65874,-24.18508 -51.05393,-39.41388 -86.03648,-39.41388 -65.065674,0 -117.8359632,52.73908 -117.8359632,117.80475 0,65.06568 52.7702892,117.83597 117.8359632,117.83597 34.98255,0 65.37774,-15.26001 86.03648,-39.44509 l 0,39.44509 28.24194,0 0,-113.37343 c 0.0624,-1.49791 0.0936,-2.96462 0.0936,-4.46254"
       id="path21857" />
    <path
       id="path21859"
       d="m 233.29449,250.46115 45.09348,0 0,-28.24194 -45.09348,0 z"
       style="fill:#2a3f6f;fill-rule:nonzero;stroke:none" />
    <path
       style="fill:#2a3f6f;fill-rule:nonzero;stroke:none"
       d="m 348.44669,222.25042 c -20.9396,0 -37.91596,-16.97637 -37.91596,-37.91597 0,-20.9396 16.97636,-37.91597 37.91596,-37.91597 20.9396,0 37.91597,16.97637 37.91597,37.91597 0,20.9396 -16.97637,37.91597 -37.91597,37.91597 m 0,-104.04267 c -14.10536,0 -27.18091,4.43133 -37.91596,11.95211 l 0,-11.98331 -28.27315,0 0,235.64072 28.27315,0 0,-115.30824 c 10.73505,7.52078 23.8106,11.95212 37.91596,11.95212 36.54288,0 66.1267,-29.61503 66.1267,-66.1267 0,-36.51167 -29.58382,-66.1267 -66.1267,-66.1267"
       id="path21863" />
    <path
       style="fill:#2a3f6f;fill-rule:nonzero;stroke:none"
       d="m 445.03099,184.36566 c 0,-20.9396 16.97637,-37.91597 37.91597,-37.91597 20.9396,0 37.91597,16.97637 37.91597,37.91597 0,20.9396 -16.97637,37.91596 -37.91597,37.91596 -20.9396,0 -37.91597,-16.97636 -37.91597,-37.91596 m -28.21073,0 c 0,36.54288 29.61503,66.12669 66.1267,66.12669 14.13657,0 27.21212,-4.43133 37.94717,-11.95211 l 0,11.92091 28.24194,0 0,-132.2534 -28.24194,0 0,12.01453 c -10.73505,-7.55199 -23.8106,-11.98332 -37.94717,-11.98332 -36.51167,0 -66.1267,29.61502 -66.1267,66.1267"
       id="path21867" />
    <path
       style="fill:#2a3f6f;fill-rule:nonzero;stroke:none"
       d="m 617.57205,222.28162 c -20.97081,0 -37.94718,-16.97636 -37.94718,-37.91596 0,-20.9396 16.97637,-37.91597 37.94718,-37.91597 12.51383,0 23.62336,4.02564 30.52001,13.38761 l 0,-34.10877 c -9.14352,-4.7746 -19.5041,-7.48957 -30.52001,-7.48957 -36.54288,0 -66.1267,29.61502 -66.1267,66.1267 0,36.54288 29.58382,66.12669 66.1267,66.12669 11.01591,0 21.37649,-2.68376 30.52001,-7.45837 l 0,-34.10876 c -6.89665,9.36196 -18.00618,13.3564 -30.52001,13.3564"
       id="path21871" />
    <path
       style="fill:#2a3f6f;fill-rule:nonzero;stroke:none"
       d="m 327.78795,269.80921 -3.15186,8.05129 6.27252,0 z m -2.27808,-6.2101 4.52495,0 8.98749,23.43612 -4.61857,0 -1.84118,-4.83701 -9.54921,0 -1.9036,4.83701 -4.64978,0"
       id="path21875" />
    <path
       style="fill:#2a3f6f;fill-rule:nonzero;stroke:none"
       d="m 346.88637,263.59911 4.49374,0 0,15.13518 c 0,1.31067 0.0936,2.24687 0.34327,2.77738 0.21845,0.53051 0.59293,0.9674 1.12344,1.31068 0.53051,0.31206 1.15464,0.46809 1.9036,0.46809 0.78016,0 1.46671,-0.18723 2.02842,-0.53051 0.56172,-0.37448 0.96741,-0.81137 1.18585,-1.37309 0.21845,-0.56171 0.31207,-1.62274 0.31207,-3.21427 l 0,-14.57346 4.49374,0 0,13.94933 c 0,2.3717 -0.15603,3.99444 -0.40568,4.93063 -0.28086,0.90499 -0.78017,1.77878 -1.52912,2.62136 -0.74896,0.87378 -1.59154,1.49791 -2.59015,1.9036 -0.9674,0.40568 -2.09084,0.59292 -3.40151,0.59292 -1.68516,0 -3.18307,-0.37448 -4.43133,-1.15464 -1.24827,-0.78017 -2.15326,-1.74757 -2.71497,-2.93342 -0.53052,-1.18585 -0.81137,-3.15186 -0.81137,-5.96045"
       id="path21879" />
    <path
       style="fill:#2a3f6f;fill-rule:nonzero;stroke:none"
       d="m 384.80233,266.78218 -3.30789,2.90221 c -1.15464,-1.62275 -2.34049,-2.40291 -3.52634,-2.40291 -0.59293,0 -1.06103,0.15603 -1.4355,0.4681 -0.37448,0.31206 -0.56172,0.65534 -0.56172,1.06102 0,0.37448 0.12482,0.74896 0.40568,1.09223 0.34327,0.4681 1.4355,1.46671 3.24548,3.02704 1.71637,1.40429 2.74618,2.30928 3.12066,2.68376 0.90499,0.90499 1.52912,1.77878 1.9036,2.62135 0.37448,0.84258 0.56172,1.74757 0.56172,2.74618 0,1.9036 -0.65534,3.49513 -1.96601,4.7434 -1.34189,1.24826 -3.08945,1.87239 -5.2115,1.87239 -1.68515,0 -3.12066,-0.40569 -4.36892,-1.21706 -1.21705,-0.81137 -2.30928,-2.09084 -3.18307,-3.8384 l 3.74479,-2.27808 c 1.15464,2.09084 2.43411,3.12065 3.90082,3.12065 0.78016,0 1.4043,-0.21844 1.93481,-0.68654 0.53051,-0.43689 0.78016,-0.9674 0.78016,-1.52912 0,-0.53051 -0.18724,-1.06102 -0.59292,-1.59154 -0.37448,-0.53051 -1.24827,-1.34188 -2.59015,-2.43411 -2.55894,-2.09084 -4.21288,-3.71358 -4.96184,-4.83701 -0.74896,-1.12344 -1.12344,-2.24688 -1.12344,-3.37031 0,-1.62274 0.62413,-3.02704 1.8724,-4.18168 1.24826,-1.18585 2.77738,-1.74757 4.58736,-1.74757 1.15464,0 2.27808,0.24965 3.3391,0.81137 1.06102,0.53051 2.21567,1.52912 3.43272,2.96463"
       id="path21883" />
    <path
       style="fill:#2a3f6f;fill-rule:nonzero;stroke:none"
       d="m 391.73019,263.59911 12.95072,0 0,4.40012 -4.2753,0 0,19.036 -4.52495,0 0,-19.036 -4.15047,0"
       id="path21887" />
    <path
       style="fill:#2a3f6f;fill-rule:nonzero;stroke:none"
       d="m 417.06991,272.74263 1.4043,0 c 1.40429,0 2.4029,-0.18724 2.93342,-0.56172 0.53051,-0.37448 0.81137,-0.99861 0.81137,-1.84119 0,-0.53051 -0.15604,-0.9674 -0.40569,-1.34188 -0.28086,-0.37448 -0.62413,-0.65534 -1.06102,-0.81137 -0.4681,-0.15603 -1.27947,-0.24965 -2.46532,-0.24965 l -1.21706,0 z m -4.46253,-9.14352 4.74339,0 c 2.59015,0 4.43133,0.21844 5.52356,0.68654 1.09223,0.4681 1.96602,1.21706 2.65256,2.30929 0.65534,1.06102 0.99861,2.34049 0.99861,3.8072 0,1.52912 -0.37448,2.80859 -1.12343,3.8384 -0.71776,1.06103 -1.84119,1.84119 -3.33911,2.3717 l 5.55477,10.42299 -4.86822,0 -5.27391,-9.92368 -0.40569,0 0,9.92368 -4.46253,0"
       id="path21891" />
    <path
       style="fill:#2a3f6f;fill-rule:nonzero;stroke:none"
       d="m 445.24944,269.80921 -3.15187,8.05129 6.27252,0 z m -2.30929,-6.2101 4.52495,0 9.0187,23.43612 -4.61857,0 -1.84119,-4.83701 -9.54921,0 -1.9348,4.83701 -4.61857,0"
       id="path21895" />
    <path
       style="fill:#2a3f6f;fill-rule:nonzero;stroke:none"
       d="m 464.50388,263.59911 4.46254,0 0,19.16082 6.49096,0 0,4.2753 -10.9535,0"
       id="path21899" />
    <path
       id="path21901"
       d="m 483.10299,287.03523 4.43227,0 0,-23.43644 -4.43227,0 z"
       style="fill:#2a3f6f;fill-rule:nonzero;stroke:none" />
    <path
       style="fill:#2a3f6f;fill-rule:nonzero;stroke:none"
       d="m 506.57032,269.80921 -3.15186,8.05129 6.27252,0 z m -2.27808,-6.2101 4.49375,0 9.01869,23.43612 -4.61857,0 -1.84118,-4.83701 -9.54921,0 -1.93481,4.83701 -4.61857,0"
       id="path21905" />
    <path
       style="fill:#2a3f6f;fill-rule:nonzero;stroke:none"
       d="m 521.7055,263.00618 4.02565,0 0,2.18446 c 0,1.4043 -0.18724,2.59015 -0.53051,3.61996 -0.34327,0.99861 -0.9362,2.02843 -1.74757,3.12066 l -1.56033,-1.24826 c 0.40569,-0.56172 0.68655,-1.06103 0.87379,-1.46671 0.18724,-0.40569 0.37447,-0.96741 0.56171,-1.65395 l -1.62274,0"
       id="path21909" />
    <path
       style="fill:#2a3f6f;fill-rule:nonzero;stroke:none"
       d="m 547.26367,266.78218 -3.30789,2.90221 c -1.15464,-1.62275 -2.34049,-2.40291 -3.55755,-2.40291 -0.56172,0 -1.06102,0.15603 -1.4355,0.4681 -0.37448,0.31206 -0.56172,0.65534 -0.56172,1.06102 0,0.37448 0.15603,0.74896 0.40569,1.09223 0.37448,0.4681 1.46671,1.46671 3.27669,3.02704 1.71636,1.40429 2.74617,2.30928 3.08944,2.68376 0.905,0.90499 1.56033,1.77878 1.93481,2.62135 0.37448,0.84258 0.56172,1.74757 0.56172,2.74618 0,1.9036 -0.65534,3.49513 -1.99722,4.7434 -1.31068,1.24826 -3.05824,1.87239 -5.18029,1.87239 -1.68515,0 -3.12065,-0.40569 -4.36892,-1.21706 -1.24826,-0.81137 -2.30928,-2.09084 -3.18307,-3.8384 l 3.74479,-2.27808 c 1.12344,2.09084 2.43411,3.12065 3.90082,3.12065 0.74896,0 1.4043,-0.21844 1.93481,-0.68654 0.4993,-0.43689 0.78016,-0.9674 0.78016,-1.52912 0,-0.53051 -0.21844,-1.06102 -0.59292,-1.59154 -0.40569,-0.53051 -1.27947,-1.34188 -2.62135,-2.43411 -2.52774,-2.09084 -4.18168,-3.71358 -4.93064,-4.83701 -0.74896,-1.12344 -1.12344,-2.24688 -1.12344,-3.37031 0,-1.62274 0.62413,-3.02704 1.8724,-4.18168 1.21705,-1.18585 2.74617,-1.74757 4.58736,-1.74757 1.15464,0 2.27808,0.24965 3.3391,0.81137 1.06103,0.53051 2.18446,1.52912 3.43272,2.96463"
       id="path21913" />
    <path
       style="fill:#2a3f6f;fill-rule:nonzero;stroke:none"
       d="m 339.8961,334.37558 -3.12066,2.99583 c -2.12205,-2.24687 -4.52495,-3.37031 -7.17751,-3.37031 -2.21566,0 -4.11926,0.74896 -5.64838,2.27808 -1.52913,1.52912 -2.30929,3.43272 -2.30929,5.67959 0,1.56033 0.34327,2.93342 1.02982,4.15048 0.68654,1.21705 1.62274,2.18446 2.871,2.871 1.24826,0.68654 2.62135,1.02982 4.15047,1.02982 1.27947,0 2.46532,-0.24966 3.55755,-0.71776 1.06102,-0.4993 2.24687,-1.37308 3.52634,-2.65255 l 3.02704,3.15186 c -1.74757,1.68515 -3.37031,2.871 -4.89943,3.52634 -1.56033,0.65534 -3.3079,0.9674 -5.27391,0.9674 -3.65117,0 -6.647,-1.15464 -8.95628,-3.46392 -2.30929,-2.30929 -3.49514,-5.27391 -3.49514,-8.86267 0,-2.34049 0.53051,-4.43133 1.59154,-6.24131 1.06102,-1.80998 2.55893,-3.27669 4.55615,-4.36892 1.96602,-1.12343 4.08806,-1.68515 6.36614,-1.68515 1.9036,0 3.776,0.43689 5.55477,1.24826 1.80998,0.81137 3.3391,1.96602 4.64978,3.46393"
       id="path21917" />
    <path
       style="fill:#2a3f6f;fill-rule:nonzero;stroke:none"
       d="m 357.4966,330.25631 4.49374,0 0,8.86267 7.83285,0 0,-8.86267 4.52495,0 0,23.43613 -4.52495,0 0,-10.26696 -7.83285,0 0,10.26696 -4.49374,0"
       id="path21921" />
    <path
       style="fill:#2a3f6f;fill-rule:nonzero;stroke:none"
       d="m 402.83972,336.46642 -3.15186,8.05129 6.27252,0 z m -2.30928,-6.21011 4.52495,0 9.01869,23.43613 -4.61857,0 -1.84118,-4.80581 -9.58042,0 -1.9036,4.80581 -4.61857,0"
       id="path21925" />
    <path
       style="fill:#2a3f6f;fill-rule:nonzero;stroke:none"
       d="m 431.23769,330.25631 4.2753,0 10.04851,15.44725 0,-15.44725 4.46254,0 0,23.43613 -4.30651,0 -10.0173,-15.35363 0,15.35363 -4.46254,0"
       id="path21929" />
    <path
       style="fill:#2a3f6f;fill-rule:nonzero;stroke:none"
       d="m 468.43591,330.25631 4.2753,0 10.0173,15.44725 0,-15.44725 4.46254,0 0,23.43613 -4.2753,0 -10.0173,-15.35363 0,15.35363 -4.46254,0"
       id="path21933" />
    <path
       style="fill:#2a3f6f;fill-rule:nonzero;stroke:none"
       d="m 506.25826,330.25631 12.79469,0 0,4.36892 -8.36336,0 0,4.24409 8.36336,0 0,4.2753 -8.36336,0 0,6.1789 8.36336,0 0,4.36892 -12.79469,0"
       id="path21937" />
    <path
       style="fill:#2a3f6f;fill-rule:nonzero;stroke:none"
       d="m 536.9343,330.25631 4.46254,0 0,19.19204 6.49097,0 0,4.24409 -10.95351,0"
       id="path21941" />
    <path
       style="fill:#2a3f6f;fill-rule:nonzero;stroke:none"
       d="m 323.16938,305.97761 1.4043,0 c 1.09223,0 1.84118,-0.0624 2.24687,-0.24965 0.43689,-0.15603 0.78016,-0.4681 1.02982,-0.84258 0.21844,-0.40568 0.34327,-0.90499 0.34327,-1.46671 0,-0.9674 -0.34327,-1.68515 -1.02982,-2.15325 -0.4681,-0.31206 -1.40429,-0.4993 -2.74618,-0.4993 l -1.24826,0 z m -4.33771,-9.92368 4.61857,0 c 2.49652,0 4.30651,0.24965 5.39873,0.78016 1.09223,0.49931 1.96602,1.34188 2.62136,2.46532 0.62413,1.15464 0.93619,2.52773 0.93619,4.11926 0,1.77878 -0.40568,3.27669 -1.24826,4.43134 -0.81137,1.18585 -1.96601,1.99722 -3.40151,2.46531 -0.81138,0.24966 -2.3717,0.40569 -4.58737,0.40569 l 0,10.73506 -4.33771,0"
       id="path21945" />
    <path
       style="fill:#2a3f6f;fill-rule:nonzero;stroke:none"
       d="m 336.52579,296.05393 4.36892,0 0,16.44585 c 0,1.4043 0.12482,2.40291 0.34327,2.99583 0.21844,0.59293 0.59292,1.06103 1.09223,1.4043 0.4993,0.34327 1.12343,0.53051 1.87239,0.53051 0.74896,0 1.4043,-0.18724 1.96601,-0.59293 0.56172,-0.37447 0.9362,-0.87378 1.15465,-1.49791 0.21844,-0.59292 0.31206,-1.74757 0.31206,-3.46393 l 0,-15.82172 4.36892,0 0,15.16638 c 0,2.55894 -0.12483,4.30651 -0.37448,5.30512 -0.28086,0.99861 -0.74896,1.93481 -1.49791,2.871 -0.71775,0.9362 -1.56033,1.59154 -2.52773,2.05964 -0.9362,0.43689 -2.05964,0.65533 -3.3079,0.65533 -1.68515,0 -3.12065,-0.43689 -4.33771,-1.27947 -1.24826,-0.84257 -2.12205,-1.9036 -2.65256,-3.18306 -0.53051,-1.24827 -0.78016,-3.40152 -0.78016,-6.42856"
       id="path21949" />
    <path
       style="fill:#2a3f6f;fill-rule:nonzero;stroke:none"
       d="m 361.42862,310.34653 0,6.52217 1.09223,0 c 1.80998,0 3.02704,-0.24965 3.65117,-0.78016 0.62413,-0.49931 0.93619,-1.24827 0.93619,-2.21567 0,-1.09223 -0.37447,-1.93481 -1.09222,-2.59014 -0.74896,-0.62413 -1.96602,-0.9362 -3.68238,-0.9362 z m 0,-9.67403 0,5.36753 0.9362,0 c 1.06102,0 1.84119,-0.24966 2.3717,-0.74896 0.4993,-0.49931 0.78016,-1.18585 0.78016,-2.02843 0,-0.81137 -0.24965,-1.4355 -0.74896,-1.9036 -0.4681,-0.4681 -1.21705,-0.68654 -2.21566,-0.68654 z m -4.36892,20.78357 0,-25.40214 3.58876,0 c 2.09084,0 3.61996,0.15603 4.58736,0.43689 1.37309,0.40568 2.46532,1.15464 3.27669,2.24687 0.81137,1.12344 1.21706,2.40291 1.21706,3.86961 0,0.96741 -0.18724,1.8724 -0.56172,2.65256 -0.37448,0.78017 -0.96741,1.52912 -1.80998,2.21567 1.40429,0.71775 2.43411,1.62274 3.05824,2.71497 0.65534,1.09223 0.9674,2.3717 0.9674,3.86961 0,1.4355 -0.34327,2.71497 -0.99861,3.90082 -0.65533,1.18585 -1.52912,2.05963 -2.55893,2.65256 -1.06103,0.56172 -2.49653,0.84258 -4.33772,0.84258"
       id="path21953" />
    <path
       style="fill:#2a3f6f;fill-rule:nonzero;stroke:none"
       d="m 375.53399,296.05393 4.36891,0 0,20.81477 6.33494,0 0,4.58737 -10.70385,0"
       id="path21957" />
    <path
       id="path21959"
       d="m 389.23366,321.45607 4.33803,0 0,-25.40214 -4.33803,0 z"
       style="fill:#2a3f6f;fill-rule:nonzero;stroke:none" />
    <path
       style="fill:#2a3f6f;fill-rule:nonzero;stroke:none"
       d="m 419.47282,300.51646 -3.02704,3.24549 c -2.09084,-2.43411 -4.40012,-3.65117 -6.99027,-3.65117 -2.18445,0 -4.02564,0.81137 -5.52356,2.46532 -1.49791,1.68515 -2.24687,3.71358 -2.24687,6.14769 0,1.68515 0.31207,3.21427 0.99861,4.52495 0.65534,1.31068 1.59154,2.34049 2.80859,3.08945 1.18585,0.74896 2.55894,1.12344 4.02565,1.12344 1.27947,0 2.43411,-0.24966 3.46393,-0.78017 1.06102,-0.53051 2.18445,-1.49791 3.46392,-2.871 l 2.93342,3.43272 c -1.68515,1.80998 -3.27669,3.08945 -4.7746,3.8072 -1.49792,0.71775 -3.21428,1.06102 -5.14909,1.06102 -3.55754,0 -6.45975,-1.24826 -8.73783,-3.74478 -2.27808,-2.52774 -3.40152,-5.74201 -3.40152,-9.64283 0,-2.52773 0.53051,-4.7746 1.56033,-6.77182 1.02982,-1.96602 2.49653,-3.52634 4.43133,-4.7434 1.9036,-1.18585 3.99444,-1.77877 6.21011,-1.77877 1.87239,0 3.68237,0.43689 5.42994,1.31067 1.74757,0.90499 3.27669,2.15325 4.52495,3.77599"
       id="path21963" />
    <path
       style="fill:#2a3f6f;fill-rule:nonzero;stroke:none"
       d="m 439.50743,302.79454 -3.08945,8.73784 6.14769,0 z m -2.24687,-6.74061 4.43133,0 8.80025,25.40214 -4.52495,0 -1.80998,-5.2115 -9.33076,0 -1.8724,5.2115 -4.52495,0"
       id="path21967" />
    <path
       style="fill:#2a3f6f;fill-rule:nonzero;stroke:none"
       d="m 453.89365,296.05393 11.35919,0 0,4.71219 -7.02148,0 0,4.61857 7.02148,0 0,4.64977 -7.02148,0 0,11.42161 -4.33771,0"
       id="path21971" />
    <path
       style="fill:#2a3f6f;fill-rule:nonzero;stroke:none"
       d="m 469.18487,296.05393 11.35918,0 0,4.71219 -7.02147,0 0,4.61857 7.02147,0 0,4.64977 -7.02147,0 0,11.42161 -4.33771,0"
       id="path21975" />
    <path
       style="fill:#2a3f6f;fill-rule:nonzero;stroke:none"
       d="m 493.6196,302.79454 -3.05824,8.73784 6.11648,0 z m -2.21566,-6.74061 4.40012,0 8.80025,25.40214 -4.52495,0 -1.77878,-5.2115 -9.33076,0 -1.87239,5.2115 -4.52495,0"
       id="path21979" />
    <path
       id="path21981"
       d="m 507.66255,321.45607 4.30651,0 0,-25.40214 -4.30651,0 z"
       style="fill:#2a3f6f;fill-rule:nonzero;stroke:none" />
    <path
       style="fill:#2a3f6f;fill-rule:nonzero;stroke:none"
       d="m 521.51826,305.97761 1.37309,0 c 1.37309,0 2.34049,-0.18724 2.87101,-0.59292 0.4993,-0.40569 0.78016,-1.06103 0.78016,-1.99722 0,-0.56172 -0.12483,-1.06102 -0.40569,-1.46671 -0.24965,-0.40569 -0.59292,-0.68654 -1.02981,-0.87378 -0.43689,-0.18724 -1.21706,-0.28086 -2.3717,-0.28086 l -1.21706,0 z m -4.33771,-9.92368 4.61857,0 c 2.52773,0 4.30651,0.24965 5.39874,0.74895 1.06102,0.49931 1.9348,1.34189 2.59014,2.49653 0.62413,1.15464 0.96741,2.55894 0.96741,4.11926 0,1.68516 -0.37448,3.08945 -1.09223,4.21289 -0.71776,1.12344 -1.80998,1.96601 -3.24549,2.52773 l 5.39874,11.29678 -4.7434,0 -5.14908,-10.73506 -0.40569,0 0,10.73506 -4.33771,0"
       id="path21985" />
    <path
       style="fill:#2a3f6f;fill-rule:nonzero;stroke:none"
       d="m 547.35729,299.51785 -3.21427,3.15187 c -1.15464,-1.74757 -2.30929,-2.62135 -3.46393,-2.62135 -0.56172,0 -1.02982,0.15603 -1.40429,0.4993 -0.37448,0.34327 -0.56172,0.71775 -0.56172,1.15464 0,0.4369 0.15603,0.84258 0.40568,1.21706 0.34327,0.4993 1.4043,1.59153 3.18307,3.27669 1.68516,1.52912 2.68377,2.49652 3.02704,2.90221 0.87378,0.99861 1.49791,1.9348 1.87239,2.83979 0.37448,0.905 0.56172,1.9036 0.56172,2.96463 0,2.09084 -0.65534,3.8072 -1.93481,5.18029 -1.31067,1.34188 -2.99583,2.02842 -5.08667,2.02842 -1.62274,0 -3.05824,-0.43689 -4.24409,-1.34188 -1.21705,-0.87378 -2.24687,-2.27808 -3.12065,-4.18168 l 3.65116,-2.43411 c 1.12344,2.24687 2.3717,3.37031 3.8072,3.37031 0.74896,0 1.37309,-0.24965 1.8724,-0.74896 0.53051,-0.4681 0.78016,-1.02981 0.78016,-1.65395 0,-0.59292 -0.18724,-1.15464 -0.59292,-1.74756 -0.37448,-0.56172 -1.21706,-1.43551 -2.52774,-2.62135 -2.49652,-2.27808 -4.08805,-3.99444 -4.83701,-5.24271 -0.71775,-1.21705 -1.09223,-2.43411 -1.09223,-3.65116 0,-1.77878 0.62413,-3.27669 1.84119,-4.55616 1.18585,-1.24826 2.68376,-1.87239 4.46253,-1.87239 1.15465,0 2.21567,0.28085 3.24549,0.87378 1.06102,0.59292 2.15325,1.65395 3.3703,3.21427"
       id="path21989" />
    <path
       style="fill:#2a3f6f;fill-rule:nonzero;stroke:none"
       d="m 452.36453,396.97594 6.21011,0 0,2.34049 -3.83841,0 0,2.27808 3.83841,0 0,2.27807 -3.83841,0 0,5.64839 -2.3717,0"
       id="path21993" />
    <path
       style="fill:#2a3f6f;fill-rule:nonzero;stroke:none"
       d="m 467.78057,403.74776 c -0.15603,-0.53051 -0.4681,-0.9674 -0.90499,-1.27947 -0.4681,-0.31207 -0.99861,-0.49931 -1.59153,-0.49931 -0.65534,0 -1.21706,0.18724 -1.71636,0.56172 -0.31207,0.21845 -0.59293,0.62413 -0.84258,1.21706 z m 2.30929,1.80998 -7.45837,0 c 0.0936,0.65534 0.37448,1.18585 0.84258,1.59153 0.46809,0.37448 1.09223,0.56172 1.80998,0.56172 0.87378,0 1.62274,-0.28086 2.24687,-0.90499 l 1.96601,0.9362 c -0.4993,0.68654 -1.09223,1.18585 -1.77877,1.52912 -0.68655,0.34327 -1.49792,0.4993 -2.43411,0.4993 -1.43551,0 -2.62135,-0.46809 -3.55755,-1.37308 -0.90499,-0.9362 -1.37309,-2.05964 -1.37309,-3.46393 0,-1.4043 0.4681,-2.59015 1.37309,-3.52634 0.9362,-0.9362 2.05963,-1.4043 3.43272,-1.4043 1.46671,0 2.65256,0.4681 3.58875,1.4043 0.90499,0.93619 1.37309,2.18446 1.37309,3.71358"
       id="path21997" />
    <path
       style="fill:#2a3f6f;fill-rule:nonzero;stroke:none"
       d="m 476.73685,402.15622 c -0.71775,0 -1.31067,0.24966 -1.80998,0.78017 -0.4681,0.4993 -0.68654,1.15464 -0.68654,1.9348 0,0.81138 0.21844,1.46671 0.71775,1.99722 0.4681,0.49931 1.06102,0.78017 1.77877,0.78017 0.74896,0 1.34189,-0.24965 1.84119,-0.78017 0.4681,-0.4993 0.71775,-1.15464 0.71775,-1.99722 0,-0.81137 -0.24965,-1.4667 -0.71775,-1.96601 -0.4993,-0.4993 -1.09223,-0.74896 -1.84119,-0.74896 m 2.43411,-1.9036 2.3405,0 0,9.26835 -2.3405,0 0,-0.9674 c -0.43689,0.43689 -0.90499,0.74896 -1.34188,0.9362 -0.4681,0.18723 -0.9674,0.28085 -1.49791,0.28085 -1.18585,0 -2.24687,-0.46809 -3.12066,-1.40429 -0.87378,-0.90499 -1.31067,-2.09084 -1.31067,-3.46393 0,-1.4355 0.43689,-2.59014 1.27947,-3.52634 0.84257,-0.90499 1.87239,-1.37309 3.08944,-1.37309 0.56172,0 1.06103,0.12483 1.56033,0.31207 0.49931,0.21844 0.9362,0.53051 1.34188,0.9674"
       id="path22001" />
    <path
       style="fill:#2a3f6f;fill-rule:nonzero;stroke:none"
       d="m 484.50729,396.8199 2.30928,0 0,3.43272 1.4043,0 0,1.99722 -1.4043,0 0,7.27113 -2.30928,0 0,-7.27113 -1.21706,0 0,-1.99722 1.21706,0"
       id="path22005" />
    <path
       style="fill:#2a3f6f;fill-rule:nonzero;stroke:none"
       d="m 489.78119,400.25262 2.3717,0 0,4.46254 c 0,0.87379 0.0624,1.46671 0.18724,1.80998 0.0936,0.34327 0.31207,0.62413 0.56172,0.81137 0.28086,0.18724 0.59292,0.28086 0.9674,0.28086 0.40569,0 0.71775,-0.0936 0.99861,-0.28086 0.28086,-0.18724 0.4681,-0.4681 0.59293,-0.81137 0.12482,-0.28086 0.15603,-0.84257 0.15603,-1.71636 l 0,-4.55616 2.34049,0 0,3.93203 c 0,1.62274 -0.12482,2.71497 -0.40568,3.3391 -0.31207,0.71775 -0.74896,1.27947 -1.37309,1.65395 -0.59293,0.40568 -1.37309,0.59292 -2.30929,0.59292 -1.02981,0 -1.84118,-0.21844 -2.46531,-0.68654 -0.62414,-0.43689 -1.09223,-1.09223 -1.34189,-1.9036 -0.18724,-0.56172 -0.28086,-1.59153 -0.28086,-3.05824"
       id="path22009" />
    <path
       style="fill:#2a3f6f;fill-rule:nonzero;stroke:none"
       d="m 500.07936,400.25262 1.99722,0 0,1.15465 c 0.21844,-0.4369 0.4993,-0.81137 0.87378,-1.02982 0.34327,-0.24965 0.74896,-0.37448 1.18585,-0.37448 0.28086,0 0.59293,0.0936 0.9362,0.24965 l -0.71775,1.99722 c -0.28086,-0.12482 -0.49931,-0.18724 -0.68655,-0.18724 -0.34327,0 -0.65533,0.21845 -0.90499,0.65534 -0.24965,0.43689 -0.37448,1.31068 -0.37448,2.62135 l 0,4.18168 -2.30928,0"
       id="path22013" />
    <path
       id="path22015"
       d="m 506.32067,400.25262 2.30929,0 0,9.26835 -2.30929,0 z m 1.15464,-3.8072 c 0.40569,0 0.74896,0.12483 1.06103,0.4369 0.28085,0.28085 0.43689,0.65533 0.43689,1.06102 0,0.40568 -0.15604,0.78016 -0.43689,1.06102 -0.28086,0.31207 -0.62414,0.43689 -1.02982,0.43689 -0.43689,0 -0.78016,-0.12482 -1.06102,-0.43689 -0.31207,-0.31206 -0.4369,-0.65534 -0.4369,-1.09223 0,-0.40568 0.12483,-0.74896 0.4369,-1.06102 0.28086,-0.28086 0.62413,-0.40569 1.02981,-0.40569"
       style="fill:#2a3f6f;fill-rule:nonzero;stroke:none" />
    <path
       style="fill:#2a3f6f;fill-rule:nonzero;stroke:none"
       d="m 511.09527,400.25262 2.3405,0 0,0.9362 c 0.53051,-0.43689 0.99861,-0.74896 1.4355,-0.90499 0.43689,-0.18724 0.87378,-0.28086 1.31067,-0.28086 0.9362,0 1.71636,0.34327 2.34049,0.9674 0.56172,0.56172 0.81137,1.37309 0.81137,2.43412 l 0,6.11648 -2.30928,0 0,-4.05685 c 0,-1.09223 -0.0312,-1.84119 -0.12483,-2.21567 -0.12482,-0.34327 -0.28086,-0.62413 -0.53051,-0.81137 -0.24965,-0.18724 -0.56172,-0.28086 -0.90499,-0.28086 -0.4681,0 -0.87378,0.15604 -1.21705,0.4681 -0.34328,0.31207 -0.59293,0.74896 -0.71775,1.31068 -0.0624,0.28086 -0.0936,0.90499 -0.0936,1.87239 l 0,3.71358 -2.3405,0"
       id="path22019" />
    <path
       style="fill:#2a3f6f;fill-rule:nonzero;stroke:none"
       d="m 526.38649,402.18743 c -0.74896,0 -1.34188,0.24965 -1.80998,0.74896 -0.49931,0.4681 -0.71775,1.09223 -0.71775,1.84118 0,0.78017 0.24965,1.4043 0.71775,1.90361 0.4993,0.4993 1.12343,0.74895 1.84118,0.74895 0.71775,0 1.34189,-0.24965 1.80998,-0.71775 0.4681,-0.4993 0.68655,-1.12343 0.68655,-1.9036 0,-0.78016 -0.21845,-1.40429 -0.71775,-1.9036 -0.4681,-0.4681 -1.06103,-0.71775 -1.80998,-0.71775 m 2.4029,-1.93481 2.34049,0 0,7.95768 c 0,1.56032 -0.34327,2.71497 -0.9674,3.46392 -0.84258,0.99861 -2.12205,1.49792 -3.8072,1.49792 -0.9362,0 -1.68515,-0.12483 -2.30928,-0.34327 -0.62414,-0.21845 -1.15465,-0.56172 -1.56033,-0.99861 -0.43689,-0.43689 -0.74896,-0.99861 -0.96741,-1.62274 l 2.59015,0 c 0.21844,0.28086 0.4993,0.46809 0.87378,0.59292 0.34327,0.15603 0.78017,0.21845 1.27947,0.21845 0.62413,0 1.12344,-0.0936 1.49792,-0.31207 0.37447,-0.18724 0.65533,-0.43689 0.81137,-0.74896 0.15603,-0.31206 0.21844,-0.81137 0.21844,-1.59153 -0.40568,0.43689 -0.84258,0.71775 -1.27947,0.90499 -0.43689,0.15603 -0.9674,0.24965 -1.52912,0.24965 -1.24826,0 -2.30928,-0.43689 -3.15186,-1.34188 -0.87378,-0.90499 -1.27947,-2.02843 -1.27947,-3.40152 0,-1.4667 0.43689,-2.65255 1.34188,-3.55754 0.84258,-0.81137 1.80998,-1.21706 2.96463,-1.21706 0.53051,0 1.02981,0.0936 1.52912,0.31207 0.4681,0.18724 0.93619,0.4993 1.40429,0.9674"
       id="path22023" />
    <path
       style="fill:#2a3f6f;fill-rule:nonzero;stroke:none"
       d="m 609.2399,389.89205 -2.77739,7.27112 5.58598,-0.0312 z m -2.80859,-6.83424 5.58597,0 10.36058,26.96247 -5.39874,0 -2.74617,-7.6144 -9.61162,0 -3.21428,7.6144 -5.39873,0"
       id="path22027" />
    <path
       style="fill:#2a3f6f;fill-rule:nonzero;stroke:none"
       d="m 623.28285,383.05781 5.33632,0 11.48401,17.6005 0,-17.6005 5.2115,0 0,26.96247 -4.99305,0 -11.70246,-17.97498 0,17.97498 -5.2427,0"
       id="path22031" />
    <path
       style="fill:#2a3f6f;fill-rule:nonzero;stroke:none"
       d="m 590.54717,396.88232 -3.30789,0 0,-8.23854 3.30789,0 c 2.24687,0 4.11927,1.84119 4.11927,4.11927 0,2.27808 -1.8724,4.11927 -4.11927,4.11927 m 0.0936,-13.82451 -8.42577,-0.0936 0,26.99367 5.08667,0 0,-7.89526 3.3391,0 c 5.2427,0 9.48679,-4.24409 9.48679,-9.48679 0,-5.2427 -4.24409,-9.518 -9.48679,-9.518"
       id="path22035" />
    <path
       style="fill:#2a3f6f;fill-rule:nonzero;stroke:none"
       d="m 577.65886,383.05781 0,5.64839 -9.45559,0 c 0,0 -1.12343,0.0936 -1.31067,0.56172 -0.18724,0.4993 -0.28086,1.02981 0.4993,1.74756 0.78017,0.71775 8.61301,5.96046 9.73645,7.30234 1.09223,1.37309 2.24687,3.8072 1.77877,5.67959 -0.53051,2.18446 -2.09084,6.08528 -8.14491,6.05407 -6.02286,-0.0312 -9.20593,0 -9.20593,0 l 0,-5.52356 10.51661,0.0624 c 0,0 3.05824,-1.12344 0.84257,-3.21428 -1.87239,-1.71636 -8.76904,-5.46115 -10.26695,-7.89526 -1.49792,-2.4029 -1.71636,-6.70941 0.65534,-8.51939 0.9674,-0.71775 2.30928,-1.9036 4.96184,-1.9036 1.65395,0.0312 9.39317,0 9.39317,0"
       id="path22039" />
    <path
       id="path22041"
       d="m 553.94188,402.0626 7.73891,0 0,-4.74277 -7.73891,0 z"
       style="fill:#2a3f6f;fill-rule:nonzero;stroke:none" />
    <path
       style="fill:#2a3f6f;fill-rule:nonzero;stroke:none"
       d="m 550.47795,410.05148 c -7.52078,0 -13.41882,-5.89804 -13.41882,-13.38761 0,-7.52078 6.08528,-13.60606 13.60606,-13.60606 l 3.55755,0 0,5.58597 -4.05686,0 c -4.40012,0 -7.95767,3.55755 -7.95767,7.92647 0,4.40012 3.55755,7.95767 7.95767,7.95767 l 3.99444,0 0,5.52356"
       id="path22045" />
  </g>
</svg>
