<?xml version="1.0" encoding="UTF-8" standalone="no"?>
<!-- Created with Inkscape (http://www.inkscape.org/) -->

<svg
   xmlns:dc="http://purl.org/dc/elements/1.1/"
   xmlns:cc="http://creativecommons.org/ns#"
   xmlns:rdf="http://www.w3.org/1999/02/22-rdf-syntax-ns#"
   xmlns:svg="http://www.w3.org/2000/svg"
   xmlns="http://www.w3.org/2000/svg"
   xmlns:sodipodi="http://sodipodi.sourceforge.net/DTD/sodipodi-0.dtd"
   xmlns:inkscape="http://www.inkscape.org/namespaces/inkscape"
   width="684"
   height="109"
   id="svg2"
   version="1.1">
  <g
     inkscape:label="Layer 1"
     inkscape:groupmode="layer"
     id="layer1"
     transform="translate(-33.0013,-477.86218)">
    <path
       d="m 536.48843,500.8596 c 0.67144,11.35883 10.18376,20.59141 21.76643,20.59141 11.86242,0 21.59857,-9.73615 21.59857,-21.8224 0,-12.08625 -9.73615,-21.76643 -21.59857,-21.76643 -12.08625,0 -21.76643,9.68018 -21.76643,21.76643 l 0,87.23357 43.365,0 0,-43.58883 c -23.50106,0 -42.69356,-18.96867 -43.365,-42.41375"
       class="ps01 ps228"
       id="path2775"
       style="font-size:5.12139988px;letter-spacing:-0.00051214px;word-spacing:0;fill:#000000;fill-opacity:1;fill-rule:nonzero;stroke:none;font-family:fnt2" />
    <path
       d="m 163.3089,543.27335 c -24.16689,0 -43.5944,-19.69608 -43.5944,-43.64474 l 0,43.64474 c 0,24.11653 -19.42752,43.58883 -43.353807,43.58883 l 43.353807,0 c 24.16688,0 43.5944,-19.4723 43.5944,-43.58883 z M 76.360693,499.62861 c -23.931876,0 -43.359393,19.4723 -43.359393,43.64474 0,24.11653 19.427517,43.58883 43.359393,43.58883 l 0,-43.58883 c 0,-24.17244 19.42192,-43.64474 43.353807,-43.64474 l -43.353807,0"
       class="ps01 ps228"
       id="path2777"
       style="font-size:5.12139988px;letter-spacing:-0.00051214px;word-spacing:0;fill:#000000;fill-opacity:1;fill-rule:nonzero;stroke:none;font-family:fnt2" />
    <path
       d="m 215.2014,499.62861 c -23.93188,0 -43.35939,19.4723 -43.35939,43.64474 0,24.11653 -19.43311,43.58883 -43.6,43.58883 l 43.6,0 c 23.92628,0 43.35939,-19.4723 43.35939,-43.58883 0,-24.17244 19.42193,-43.64474 43.3538,-43.64474 l -43.3538,0"
       class="ps01 ps228"
       id="path2779"
       style="font-size:5.12139988px;letter-spacing:-0.00051214px;word-spacing:0;fill:#000000;fill-opacity:1;fill-rule:nonzero;stroke:none;font-family:fnt2" />
    <path
       d="m 673.6337,499.62861 -43.58882,0 c -23.89269,0 -43.365,19.4723 -43.365,43.64474 0,24.11653 19.47231,43.58883 43.365,43.58883 l 0,-43.58883 c 0,-24.17244 19.4723,-43.64474 43.58882,-43.64474 z m 43.365,43.64474 c -23.94866,0 -43.365,-19.69608 -43.365,-43.64474 l 0,43.64474 c 0,24.11653 -19.41633,43.58883 -43.58882,43.58883 l 43.58882,0 c 23.94867,0 43.365,-19.4723 43.365,-43.58883"
       class="ps01 ps228"
       id="path2781"
       style="font-size:5.12139988px;letter-spacing:-0.00051214px;word-spacing:0;fill:#000000;fill-opacity:1;fill-rule:nonzero;stroke:none;font-family:fnt2" />
    <path
       d="m 401.65967,499.62861 -43.3594,0 c -24.16129,0 -43.5944,19.4723 -43.5944,43.64474 0,24.11653 19.43311,43.58883 43.5944,43.58883 l 0,-43.58883 c 0,-24.17244 19.42752,-43.64474 43.3594,-43.64474"
       class="ps01 ps228"
       id="path2783"
       style="font-size:5.12139988px;letter-spacing:-0.00051214px;word-spacing:0;fill:#000000;fill-opacity:1;fill-rule:nonzero;stroke:none;font-family:fnt2" />
    <path
       d="m 358.30027,586.86218 43.3594,0 c 23.93189,0 43.34261,-19.4723 43.34261,-43.58883 0,-24.17244 -19.41072,-43.64474 -43.34261,-43.64474 l 0,43.64474 c 0,24.11653 -19.42752,43.58883 -43.3594,43.58883"
       class="ps01 ps228"
       id="path2785"
       style="font-size:5.12139988px;letter-spacing:-0.00051214px;word-spacing:0;fill:#000000;fill-opacity:1;fill-rule:nonzero;stroke:none;font-family:fnt2" />
    <path
       d="m 493.12344,499.62861 -43.58883,0 0,43.64474 0.22399,0 c 0,24.11653 19.41634,43.58883 43.365,43.58883 l 0,-43.58883 c 0,-24.17244 19.41633,-43.64474 43.365,-43.64474 l -43.365,0"
       class="ps01 ps228"
       id="path2787"
       style="font-size:5.12139988px;letter-spacing:-0.00051214px;word-spacing:0;fill:#000000;fill-opacity:1;fill-rule:nonzero;stroke:none;font-family:fnt2" />
    <path
       d="m 302.1496,499.62861 0,-21.76643 -43.5944,0 0,65.41117 c 0,24.11653 19.42752,43.58883 43.5944,43.58883 l 0,-43.58883 c 0,-24.17244 19.42752,-43.64474 43.3594,-43.64474 l -43.3594,0"
       class="ps01 ps228"
       id="path2789"
       style="font-size:5.12139988px;letter-spacing:-0.00051214px;word-spacing:0;fill:#000000;fill-opacity:1;fill-rule:nonzero;stroke:none;font-family:fnt2" />
  </g>
</svg>
