<?xml version="1.0" encoding="UTF-8" standalone="no"?>
<!-- Created with Inkscape (http://www.inkscape.org/) -->
<svg
   xmlns:svg="http://www.w3.org/2000/svg"
   xmlns="http://www.w3.org/2000/svg"
   version="1.0"
   width="210"
   height="90"
   id="svg2247">
  <defs
     id="defs2250" />
  <path
     d="M 25.771428,17.425759 C 20.501714,17.458515 14.549627,18.64123 8.6440845,21.359398 L 11.493103,29.966883 C 11.493104,29.966883 17.901063,26.993994 24.366557,26.993994 C 27.825226,26.993994 36.443157,27.61336 36.125177,37.849263 C 29.635953,35.708619 19.711356,35.196973 13.692558,37.640802 C 6.3135785,40.636894 4.4458715,46.825027 4.6318935,51.296754 C 5.2455245,66.04762 21.068095,65.381722 21.275839,65.381722 C 21.470245,65.381722 30.173828,65.705694 35.946925,58.777316 C 35.946925,61.422066 35.955988,64.339393 35.955988,64.339393 L 46.469862,64.339393 L 46.421523,34.024387 C 46.421522,34.024387 45.965892,23.083664 36.484703,19.253607 C 33.555226,18.070204 29.870093,17.400284 25.771428,17.425759 z M 26.73822,43.030674 C 33.01416,43.030674 36.221857,44.837368 36.221857,44.837368 C 36.221857,44.837368 36.173516,48.240896 36.173516,48.677346 C 35.548311,53.761033 30.657838,57.375467 24.046307,57.375467 C 20.740598,57.375467 17.271322,56.086141 15.967542,53.722797 C 14.545042,51.144253 15.024709,47.480494 17.015907,45.66216 C 19.221038,43.648474 21.329791,43.030674 26.73822,43.030674 z "
     style="fill:#001650;fill-opacity:1;fill-rule:evenodd;stroke:none;stroke-width:2;stroke-linecap:butt;stroke-linejoin:miter;stroke-miterlimit:4;stroke-dasharray:none;stroke-opacity:1"
     id="path3229" />
  <path
     d="M 180.83598,16.918193 C 167.28773,16.918193 156.29152,27.703601 156.29152,40.994366 C 156.29152,54.285131 167.28773,65.073557 180.83598,65.073557 C 194.38423,65.073557 205.38044,54.285122 205.38044,40.994366 C 205.38044,27.703601 194.38422,16.918193 180.83598,16.918193 z M 180.83901,26.287027 C 188.54192,26.287027 194.79405,32.906466 194.79405,41.060834 C 194.79404,49.215201 188.54192,55.831613 180.83901,55.831613 C 173.13609,55.831613 166.88697,49.215201 166.88697,41.060834 C 166.88696,32.906466 173.13608,26.287027 180.83901,26.287027 z "
     style="fill:#001650;fill-opacity:1;stroke:none;stroke-width:2;stroke-miterlimit:4;stroke-dasharray:none;stroke-opacity:1"
     id="path9092" />
  <path
     d="M 88.296449,22.534641 L 84.031589,30.153097 C 84.031589,30.153097 77.318663,25.819515 70.91833,25.819515 C 66.528357,25.819515 64.627928,28.249076 64.627928,30.351589 C 64.627928,32.904367 67.224994,34.281448 70.063553,35.260258 C 76.055509,37.326451 79.512227,38.05865 83.92828,40.82044 C 88.68652,43.796219 89.281849,47.923431 89.281849,50.407412 C 89.281849,57.724101 85.67484,60.93457 81.782524,63.063874 C 79.242751,64.453252 75.066681,65.145892 72.510469,65.145892 C 66.09937,65.145892 62.068573,63.595678 58.204196,61.821447 C 55.207783,60.445721 52.614855,58.327458 52.614855,58.327458 L 57.369805,50.981851 C 57.369805,50.981851 64.298783,56.730112 72.150992,56.730112 C 77.593471,56.730112 79.541584,54.407488 79.541584,51.768541 C 79.541584,49.761584 78.775172,48.00963 72.770849,46.192532 C 67.296032,44.53568 62.501806,43.078434 60.569694,41.760849 C 56.936505,39.28322 54.869128,36.25971 54.869128,31.395522 C 54.869128,30.169707 55.175587,24.860736 59.499738,21.276177 C 59.853234,20.983143 63.68481,17.284385 72.002692,17.284385 C 78.503954,17.284385 85.545019,20.590943 88.296449,22.534641 z "
     style="fill:#001650;fill-opacity:1;fill-rule:evenodd;stroke:none;stroke-width:2;stroke-linecap:butt;stroke-linejoin:miter;stroke-miterlimit:4;stroke-dasharray:none;stroke-opacity:1"
     id="path14911" />
  <path
     d="M 97.812269,5.2779275 L 108.46203,5.3079075 L 108.41362,18.069605 L 120.77875,18.069605 L 120.77875,27.229912 L 108.38364,27.246046 L 108.39978,50.574416 C 108.39978,50.574416 108.3726,55.489486 113.81991,55.489486 C 114.4829,55.489486 116.77978,55.678686 120.5574,53.90844 C 120.5574,54.587187 120.57354,62.547664 120.57354,62.547664 C 120.57354,62.547664 116.9591,64.96861 111.05352,64.96861 C 104.32324,64.96861 101.61703,62.25665 101.26351,61.835332 C 100.13408,60.489323 97.78,58.831824 97.78,50.152555 C 97.78,48.978027 97.82612,27.248338 97.82612,27.248338 L 91.992859,27.232203 L 91.992859,18.05576 L 97.807689,18.039614 L 97.812269,5.2779275 z "
     style="fill:#001650;fill-opacity:1;fill-rule:evenodd;stroke:none;stroke-width:2;stroke-linecap:butt;stroke-linejoin:miter;stroke-miterlimit:4;stroke-dasharray:none;stroke-opacity:1"
     id="path17820" />
  <path
     d="M 126.99777,17.996931 L 126.99777,64.13133 L 137.59367,64.13133 C 137.59367,64.13133 137.6122,45.335344 137.6122,44.931148 C 137.6122,42.694463 138.19401,35.874975 143.47219,31.446057 C 146.13522,29.211509 149.88137,28.346266 153.94574,28.346266 C 153.94574,27.960216 153.94574,17.568254 153.94574,17.037989 C 150.72672,17.037989 148.28309,17.051592 144.05447,19.848591 C 140.04144,22.502989 137.63074,28.171684 137.63074,28.171684 L 137.63074,17.996931 L 126.99777,17.996931 z "
     style="fill:#001650;fill-opacity:1;fill-rule:evenodd;stroke:none;stroke-width:2;stroke-linecap:butt;stroke-linejoin:miter;stroke-miterlimit:4;stroke-dasharray:none;stroke-opacity:1"
     id="path20729" />
  <path
     d="M 5.2215895,76.504193 C 5.2215895,76.504193 23.949115,68.442888 65.418742,68.397497 C 84.891019,68.376199 105.14561,72.135216 108.35158,72.546567 C 114.26296,73.305036 126.0026,75.527964 145.27535,75.527964 C 182.15853,75.527964 196.47551,68.172534 202.35284,64.752059 C 199.70873,67.955306 183.77886,84.722073 141.45006,84.722073 C 121.19961,84.722073 98.844219,79.903383 87.91905,78.544223 C 83.312583,77.971146 68.790864,75.058711 38.910925,75.058711 C 20.21304,75.058711 8.3383235,76.107817 5.2215895,76.504193 z "
     style="fill:#ff0000;fill-opacity:1;fill-rule:evenodd;stroke:none;stroke-width:2;stroke-linecap:butt;stroke-linejoin:miter;stroke-miterlimit:4;stroke-dasharray:none;stroke-opacity:1"
     id="path23638" />
</svg>
