<?xml version="1.0" encoding="UTF-8" standalone="no"?>
<!-- Created with Inkscape (http://www.inkscape.org/) -->

<svg
   xmlns:dc="http://purl.org/dc/elements/1.1/"
   xmlns:cc="http://creativecommons.org/ns#"
   xmlns:rdf="http://www.w3.org/1999/02/22-rdf-syntax-ns#"
   xmlns:svg="http://www.w3.org/2000/svg"
   xmlns="http://www.w3.org/2000/svg"
   xmlns:sodipodi="http://sodipodi.sourceforge.net/DTD/sodipodi-0.dtd"
   xmlns:inkscape="http://www.inkscape.org/namespaces/inkscape"
   width="1000"
   height="429.96478"
   id="svg2"
   version="1.1"
   inkscape:version="0.48.2 r9819"
   sodipodi:docname="New document 1">
  <defs
     id="defs4" />
  <sodipodi:namedview
     id="base"
     pagecolor="#ffffff"
     bordercolor="#666666"
     borderopacity="1.0"
     inkscape:pageopacity="0.0"
     inkscape:pageshadow="2"
     inkscape:zoom="0.98994949"
     inkscape:cx="547.52543"
     inkscape:cy="-97.656043"
     inkscape:document-units="px"
     inkscape:current-layer="layer1"
     showgrid="false"
     fit-margin-left="0.5"
     fit-margin-top="0.5"
     fit-margin-bottom="0.5"
     fit-margin-right="0.5"
     inkscape:window-width="1920"
     inkscape:window-height="1028"
     inkscape:window-x="-8"
     inkscape:window-y="-8"
     inkscape:window-maximized="1">
    <inkscape:grid
       type="xygrid"
       id="grid2996"
       empspacing="5"
       visible="true"
       enabled="true"
       snapvisiblegridlinesonly="true" />
  </sodipodi:namedview>
  <metadata
     id="metadata7">
    <rdf:RDF>
      <cc:Work
         rdf:about="">
        <dc:format>image/svg+xml</dc:format>
        <dc:type
           rdf:resource="http://purl.org/dc/dcmitype/StillImage" />
        <dc:title></dc:title>
      </cc:Work>
    </rdf:RDF>
  </metadata>
  <g
     inkscape:label="Layer 1"
     inkscape:groupmode="layer"
     id="layer1"
     transform="translate(-40.905902,-165.66538)">
    <g
       id="g3055"
       transform="matrix(1.9876875,0,0,1.9880834,-40.89609,-588.03827)">
      <path
         sodipodi:nodetypes="ccccc"
         inkscape:connector-curvature="0"
         id="path3053"
         d="m 500.5,419.36218 43.5,35.5 -43.5,32 -18.98214,-33.07143 z"
         style="fill:#ec2800;fill-opacity:1;stroke:none" />
      <path
         sodipodi:nodetypes="ccccc"
         inkscape:connector-curvature="0"
         id="path3051"
         d="m 479.73214,518.61218 20.76786,36.25 43.5,-36 -43.5,-32 z"
         style="fill:#fe5b00;fill-opacity:1;stroke:none" />
      <path
         sodipodi:nodetypes="cccccc"
         inkscape:connector-curvature="0"
         id="path3049"
         d="m 451.5,595.13018 49,-40.268 -24.42857,-36.25 -26.25,-4.82143 -15.71429,21.96429 z"
         style="fill:#da0000;fill-opacity:1;stroke:none" />
      <path
         sodipodi:nodetypes="ccccc"
         inkscape:connector-curvature="0"
         id="path3047"
         d="m 500.5,554.86218 -49,-32 15.64286,-33.80357 33.35714,-2.19643 z"
         style="fill:#ec2800;fill-opacity:1;stroke:none" />
      <path
         sodipodi:nodetypes="cccccc"
         inkscape:connector-curvature="0"
         id="path3045"
         d="M 451.5,522.86218 430.80357,482.45147 451.5,451.26218 481.42857,454.05861 500.5,486.86218 z"
         style="fill:#fe5b00;fill-opacity:1;stroke:none" />
      <path
         sodipodi:nodetypes="ccccc"
         inkscape:connector-curvature="0"
         id="path3043"
         d="m 500.5,486.86218 -49,-35.5 18.76786,-33.73214 30.23214,1.73214 z"
         style="fill:#fd7600;fill-opacity:1;stroke:none" />
      <path
         sodipodi:nodetypes="ccccc"
         inkscape:connector-curvature="0"
         id="path3041"
         d="M 451.5,451.36218 432.76786,410.84432 451.5,379.36218 l 49,40 z"
         style="fill:#fe5b00;fill-opacity:1;stroke:none" />
      <path
         sodipodi:nodetypes="ccccc"
         inkscape:connector-curvature="0"
         id="path3037"
         d="m 451.5,451.36218 -34.26786,-9.625 -20.23214,-31.375 54.5,-31 z"
         style="fill:#fe9102;fill-opacity:1;stroke:none" />
      <path
         sodipodi:nodetypes="cccccc"
         inkscape:connector-curvature="0"
         id="path3039"
         d="m 451.5,522.86218 -23.28571,-7.82143 -40.35715,-28.30357 48.125,-30.26786 15.51786,-5.10714 z"
         style="fill:#fd7600;fill-opacity:1;stroke:none" />
      <g
         id="flowRoot2998"
         style="font-size:40px;font-style:normal;font-weight:normal;line-height:125%;letter-spacing:0px;word-spacing:0px;fill:#000000;fill-opacity:1;stroke:none;font-family:Sans"
         transform="matrix(1.1352222,0,0,1.1352222,-39.148868,137.75901)">
        <path
           inkscape:connector-curvature="0"
           id="path3007"
           style="font-variant:normal;font-weight:bold;font-stretch:normal;fill:#000000;fill-opacity:1;font-family:Gotham;-inkscape-font-specification:Gotham Bold"
           d="m 100.63965,321.22577 -11.999513,-28.19947 -5.679932,0 -12.000732,28.19947 6.280517,0 2.559815,-6.28052 11.839599,0 2.561035,6.28052 z m -11.199953,-11.71998 -7.440185,0 3.720703,-9.07959 z" />
        <path
           inkscape:connector-curvature="0"
           id="path3009"
           style="font-variant:normal;font-weight:bold;font-stretch:normal;fill:#000000;fill-opacity:1;font-family:Gotham;-inkscape-font-specification:Gotham Bold"
           d="m 122.34783,298.90521 0,-5.67993 -23.200691,0 0,5.67993 8.520511,0 0,22.32056 6.15967,0 0,-22.32056 z" />
        <path
           inkscape:connector-curvature="0"
           id="path3011"
           style="font-variant:normal;font-weight:bold;font-stretch:normal;fill:#000000;fill-opacity:1;font-family:Gotham;-inkscape-font-specification:Gotham Bold"
           d="m 151.12729,321.22577 -6.8396,-10 c 1.78628,-0.6665 3.23281,-1.71305 4.3396,-3.13965 1.10675,-1.42658 1.66013,-3.27351 1.66016,-5.54077 l 0,-0.0793 c -3e-5,-2.90688 -0.92674,-5.17372 -2.78015,-6.80054 -1.85346,-1.62676 -4.44684,-2.44015 -7.78015,-2.44018 l -12.79907,0 0,28.00049 6.15966,0 0,-8.95997 4.84009,0 5.99976,8.95997 z m -7.08007,-18.3606 c -2e-5,1.20037 -0.40672,2.16066 -1.2201,2.88086 -0.81341,0.72023 -1.97979,1.08034 -3.49914,1.08032 l -6.24024,0 0,-8.04077 6.11939,0 c 1.52016,2e-5 2.70689,0.33348 3.56018,1.00037 0.85325,0.66693 1.27989,1.66689 1.27991,2.99987 z" />
        <path
           inkscape:connector-curvature="0"
           id="path3013"
           style="font-variant:normal;font-weight:bold;font-stretch:normal;fill:#000000;fill-opacity:1;font-family:Gotham;-inkscape-font-specification:Gotham Bold"
           d="m 176.99661,321.22577 0,-5.47974 -15.2002,0 0,-5.88013 13.19946,0 0,-5.47973 -13.19946,0 0,-5.67994 15,0 0,-5.48095 -21.11938,0 0,28.00049 z" />
        <path
           inkscape:connector-curvature="0"
           id="path3015"
           style="font-variant:normal;font-weight:bold;font-stretch:normal;fill:#000000;fill-opacity:1;font-family:Gotham;-inkscape-font-specification:Gotham Bold"
           d="m 202.24126,312.94574 0,-0.0806 c -3e-5,-1.22639 -0.1933,-2.27965 -0.57984,-3.15979 -0.38657,-0.88011 -0.9599,-1.64672 -1.71997,-2.29981 -0.76011,-0.65306 -1.69354,-1.21295 -2.80029,-1.67968 -1.10679,-0.4667 -2.36655,-0.88683 -3.7793,-1.26038 -1.20037,-0.31981 -2.19382,-0.59975 -2.98034,-0.83984 -0.78655,-0.24006 -1.40647,-0.49335 -1.85974,-0.75989 -0.4533,-0.2665 -0.76661,-0.56639 -0.93995,-0.89966 -0.17334,-0.33323 -0.26001,-0.7265 -0.26001,-1.17981 l 0,-0.0806 c 0,-0.69334 0.29988,-1.27338 0.89966,-1.74012 0.59977,-0.46669 1.49983,-0.70005 2.7002,-0.70007 1.19953,2e-5 2.39928,0.24681 3.59924,0.74036 1.19994,0.49359 2.42694,1.16681 3.68103,2.01965 l 3.19946,-4.63989 c -1.43963,-1.14662 -3.01963,-2.02655 -4.73999,-2.63977 -1.72039,-0.61317 -3.60719,-0.91977 -5.6604,-0.9198 -1.43962,3e-5 -2.7594,0.20002 -3.95935,0.59997 -1.19995,0.40001 -2.23328,0.97334 -3.09997,1.71997 -0.86671,0.74669 -1.54013,1.63333 -2.02027,2.65992 -0.48014,1.02663 -0.72021,2.17999 -0.72021,3.46008 l 0,0.0793 c 0,1.38674 0.21993,2.54682 0.65979,3.48023 0.43986,0.93345 1.05997,1.71347 1.86035,2.34009 0.80037,0.62664 1.77388,1.15337 2.92053,1.5802 1.14664,0.42685 2.42634,0.81361 3.83911,1.16028 1.17349,0.29298 2.12686,0.57272 2.86011,0.83923 0.73322,0.26653 1.30655,0.53325 1.71997,0.80017 0.4134,0.26694 0.69355,0.5536 0.84046,0.85998 0.14687,0.30641 0.22032,0.6598 0.22033,1.06019 l 0,0.0806 c -1e-5,0.82602 -0.35341,1.47238 -1.06018,1.93909 -0.7068,0.46672 -1.70025,0.70008 -2.98034,0.70007 -1.59995,1e-5 -3.07334,-0.30659 -4.42017,-0.9198 -1.34685,-0.61319 -2.65992,-1.43981 -3.93921,-2.47986 l -3.64014,4.36036 c 1.67969,1.51937 3.54614,2.64587 5.59937,3.37951 2.05321,0.73364 4.14672,1.10047 6.28052,1.10047 1.52016,0 2.90688,-0.19349 4.16015,-0.58045 1.25324,-0.38696 2.33315,-0.94706 3.23975,-1.6803 0.90655,-0.73323 1.61314,-1.6398 2.11975,-2.71972 0.50657,-1.07991 0.75986,-2.31323 0.75989,-3.69995 z" />
        <path
           inkscape:connector-curvature="0"
           id="path3017"
           style="font-variant:normal;font-weight:bold;font-stretch:normal;fill:#000000;fill-opacity:1;font-family:Gotham;-inkscape-font-specification:Gotham Bold"
           d="m 235.46896,321.22577 0,-28.00049 -6.63941,0 -7.36084,11.84082 -7.35962,-11.84082 -6.6394,0 0,28.00049 6.03882,0 0,-18.16041 7.80029,11.84083 0.15991,0 7.88086,-11.96045 0,18.28003 z" />
        <path
           inkscape:connector-curvature="0"
           id="path3019"
           style="font-variant:normal;font-weight:bold;font-stretch:normal;fill:#000000;fill-opacity:1;font-family:Gotham;-inkscape-font-specification:Gotham Bold"
           d="m 263.24082,321.22577 0,-5.47974 -15.20019,0 0,-5.88013 13.19946,0 0,-5.47973 -13.19946,0 0,-5.67994 15,0 0,-5.48095 -21.11939,0 0,28.00049 z" />
        <path
           inkscape:connector-curvature="0"
           id="path3021"
           style="font-variant:normal;font-weight:bold;font-stretch:normal;fill:#000000;fill-opacity:1;font-family:Gotham;-inkscape-font-specification:Gotham Bold"
           d="m 294.59633,307.22552 0,-0.0793 c -3e-5,-1.97346 -0.36014,-3.80695 -1.08033,-5.50049 -0.72024,-1.6935 -1.74034,-3.16689 -3.0603,-4.42017 -1.32001,-1.25323 -2.89329,-2.23325 -4.71985,-2.94006 -1.82659,-0.70676 -3.83323,-1.06015 -6.01989,-1.06018 l -10.91919,0 0,28.00049 10.91919,0 c 2.18666,0 4.1933,-0.35991 6.01989,-1.07972 1.82656,-0.7198 3.39984,-1.70654 4.71985,-2.9602 1.31996,-1.25366 2.34006,-2.73376 3.0603,-4.44031 0.72019,-1.70653 1.0803,-3.54654 1.08033,-5.52002 z m -6.44043,0.0806 c -3e-5,1.25327 -0.20673,2.38648 -0.62012,3.39966 -0.41343,1.01319 -0.98676,1.89311 -1.71997,2.63977 -0.73326,0.74667 -1.61989,1.31999 -2.65991,1.71997 -1.04006,0.39999 -2.18671,0.59998 -3.43994,0.59997 l -4.75953,0 0,-16.87988 4.75953,0 c 1.25323,2e-5 2.39988,0.20673 3.43994,0.62012 1.04002,0.41343 1.92665,0.99347 2.65991,1.74011 0.73321,0.74668 1.30654,1.64003 1.71997,2.68005 0.41339,1.04006 0.62009,2.17328 0.62012,3.39966 z" />
        <path
           inkscape:connector-curvature="0"
           id="path3023"
           style="font-variant:normal;font-weight:bold;font-stretch:normal;fill:#000000;fill-opacity:1;font-family:Gotham;-inkscape-font-specification:Gotham Bold"
           d="m 306.40732,321.22577 0,-28.00049 -6.15966,0 0,28.00049 z" />
        <path
           inkscape:connector-curvature="0"
           id="path3025"
           style="font-variant:normal;font-weight:bold;font-stretch:normal;fill:#000000;fill-opacity:1;font-family:Gotham;-inkscape-font-specification:Gotham Bold"
           d="m 340.37007,321.22577 -11.99951,-28.19947 -5.67993,0 -12.00074,28.19947 6.28052,0 2.55981,-6.28052 11.8396,0 2.56104,6.28052 z m -11.19995,-11.71998 -7.44019,0 3.7207,-9.07959 z" />
      </g>
      <path
         sodipodi:nodetypes="cccccc"
         inkscape:connector-curvature="0"
         id="path3035"
         d="M 432.58929,458.25504 426.5,455.86218 378.76786,420.59432 397,410.36218 l 54.5,41 z"
         style="fill:#d11e00;fill-opacity:1;stroke:none" />
      <path
         sodipodi:nodetypes="cccccc"
         inkscape:connector-curvature="0"
         id="path3033"
         d="M 390.80357,490.13004 378.5,486.96218 l 48,-31.1 25,-4.5 -55,35.5 z"
         style="fill:#fdbc53;fill-opacity:1;stroke:none" />
      <path
         sodipodi:nodetypes="cccccc"
         inkscape:connector-curvature="0"
         id="path3031"
         d="M 436.16072,527.71932 427,518.36218 l -48.5,-31.5 18,0 55,36 z"
         style="fill:#d21d02;fill-opacity:1;stroke:none" />
      <path
         sodipodi:nodetypes="cccccc"
         inkscape:connector-curvature="0"
         id="path3029"
         d="M 436.51786,557.18361 396.5,563.86218 379.10714,553.79075 427,518.36218 l 24.5,4.5 z"
         style="fill:#feac2f;fill-opacity:1;stroke:none" />
      <path
         sodipodi:nodetypes="cccc"
         inkscape:connector-curvature="0"
         id="path3027"
         d="m 451.5,595.13018 -55,-31.268 55,-41 z"
         style="fill:#fc5b00;fill-opacity:1;stroke:none" />
    </g>
  </g>
</svg>
