<?xml version="1.0" encoding="UTF-8" standalone="no"?>
<!-- Created with Inkscape (http://www.inkscape.org/) -->

<svg
   xmlns:dc="http://purl.org/dc/elements/1.1/"
   xmlns:cc="http://creativecommons.org/ns#"
   xmlns:rdf="http://www.w3.org/1999/02/22-rdf-syntax-ns#"
   xmlns:svg="http://www.w3.org/2000/svg"
   xmlns="http://www.w3.org/2000/svg"
   xmlns:sodipodi="http://sodipodi.sourceforge.net/DTD/sodipodi-0.dtd"
   xmlns:inkscape="http://www.inkscape.org/namespaces/inkscape"
   width="405"
   height="249"
   id="svg2"
   version="1.1"
   inkscape:version="0.47 r22583">
  <g
     inkscape:label="Layer 1"
     inkscape:groupmode="layer"
     id="layer1"
     transform="translate(-48.095524,-20.33084)">
    <path
       id="path2949"
       d="m 382.98909,82.451385 c 2.02472,15.81959 -14.58032,36.735895 -14.58032,36.735895 l -8.70398,8.01161 c -2.00726,1.51854 -4.47998,0.80873 -7.03416,-1.42545 -7.18543,-11.87487 15.89523,-42.647148 26.61229,-47.103862 0,0 1.46618,0.744725 2.19345,1.471996 0.76218,0.762179 1.51272,2.309811 1.51272,2.309811 z m 60.68346,26.943925 c -0.54691,2.18181 -2.00727,4.34617 -3.34545,6.10907 -9.50688,3.24654 -39.70897,45.82968 -60.09,19.91558 -3.93308,4.92798 -9.51852,8.03488 -14.45232,11.81669 -10.0887,4.68944 -13.67851,9.14034 -25.15775,6.37089 -47.54022,-11.45597 45.00933,-136.674509 58.74601,-85.771385 l 3.61308,-3.583989 0.768,0.488725 4.89308,-6.993434 -0.704,2.082903 0.62836,0.151273 6.51053,-8.058159 0.75054,1.17527 3.21163,-1.279997 2.57163,-4.154169 c 0.0931,0.06982 0.29672,0.511998 0.54109,0.587634 0.30836,0.09309 0.33163,0.849452 0.6109,0.05236 -16.00577,46.03332 -50.97294,100.886974 20.90467,61.090734"
       style="fill:#e1034d;fill-rule:evenodd;stroke:none" />
    <path
       id="path2951"
       d="m 144.57815,113.60184 c -6.97016,3.09526 -17.65813,6.70834 -24.18029,10.97306 7.41234,-13.68433 17.85595,-32.267544 28.86973,-46.312594 l -0.0582,10.088698 -4.63126,25.250836 z m 23.14466,-7.27852 c 7.33089,-2.83345 17.63486,-7.627619 25.01229,-10.344702 3.2349,-8.477066 17.19268,-53.649297 23.62757,-55.866018 1.94327,3.176718 3.80508,6.463981 5.33526,9.861789 l 0.89017,-1.326541 c 4.10181,5.032712 3.42109,19.205762 -0.59345,24.273383 l 0.29673,0.296727 c -0.31418,5.620347 -1.23927,11.351239 -3.25817,16.622496 7.34834,-1.349814 14.71995,-2.903264 22.24284,-2.350538 l 0,1.320723 -2.25163,1.448723 c 6.52798,-1.192724 -5.91707,8.040704 -6.25453,8.191976 -3.45017,1.582542 -20.5323,7.528702 -18.03631,11.397782 -4.6778,25.44866 -16.75631,49.31477 -22.83629,74.44924 -0.48291,1.98981 -3.68872,14.35341 -4.30545,15.1505 l -1.33236,1.02982 c -13.91705,-25.89666 -10.42033,-50.5424 -1.65817,-78.56268 -5.24799,2.26908 -13.49233,6.38252 -18.79849,8.52361 -1.61164,2.73454 -0.87855,4.4218 -1.344,7.3658 -2.01308,12.77087 -2.40872,25.17519 -5.81816,37.67261 -4.65454,17.05886 -12.91633,33.01227 -16.86686,50.01295 l -1.62909,1.17527 c -7.31343,-27.24065 1.64654,-88.65138 1.64654,-88.65138 0,0 -36.59044,13.88796 -34.11772,13.05014 -20.706847,28.93374 -24.744653,67.60708 -47.307496,92.81719 l -0.890179,0 -0.296727,-2.20509 c -2.827628,0.46545 -4.823258,0.006 -7.231979,-0.78545 -0.215272,1.72218 -1.599995,3.67708 -2.40872,4.90471 l -1.186905,-0.29672 c 2.228357,-31.31919 17.693039,-57.42529 27.316283,-86.44048 -3.048718,0.63418 -19.886487,3.65381 -21.381755,1.84436 0,0 27.665373,-18.44358 30.696637,-19.56649 C 93.832118,122.492 141.58761,36.59261 161.7941,33.346074 c 12.24142,8.034886 5.51562,59.060191 5.92871,72.977246"
       style="fill:#e1034d;fill-rule:evenodd;stroke:none" />
    <path
       id="path2953"
       d="m 453.09216,147.43447 c -34.91481,11.49087 -112.02295,36.48571 -112.02295,36.48571 -8.15706,2.39708 -33.34972,10.0247 -33.34972,10.0247 -19.03121,4.79998 -44.48569,12.24723 -54.78384,15.28432 -6.52216,1.59417 -29.43409,9.72797 -30.26609,10.09451 l -56.66311,17.91413 c -34.24572,9.54179 -70.684882,18.20504 -104.261511,28.67774 l -1.035633,-0.20946 -12.613782,3.62472 C 84.767417,253.2087 122.27131,238.85529 158.8152,222.54698 192.7991,207.39066 428.05078,140.1734 453.09216,147.43447"
       style="fill:#3eb754;fill-rule:nonzero;stroke:none" />
    <path
       id="path2955"
       d="m 357.47062,24.037011 c -2.73454,3.007991 -1.01818,10.036334 -0.512,14.725775 -4.14835,9.535972 -9.07052,17.448676 -18.6414,22.813024 -1.75127,0.98327 -9.41379,1.390541 -7.58689,-0.965816 l -2.37381,2.507629 -0.93672,-1.698904 -1.40218,0.157091 c -0.38982,-0.913452 0.128,-2.274903 -0.36073,-3.130173 l -1.66399,-0.424726 c 1.42545,-13.393415 19.99703,-30.801364 30.52209,-37.690071 0.98327,2.001448 0.512,4.189078 2.95563,3.706171"
       style="fill:#e1034d;fill-rule:nonzero;stroke:none" />
    <path
       id="path2957"
       d="m 338.77104,68.458699 c -7.40653,8.890156 -30.37082,70.766341 -32.32573,83.717571 l -0.89018,0.29091 -4.00289,15.15632 c -29.09083,-9.58834 -2.62981,-83.298666 17.34977,-96.366264 0.68072,-0.337454 3.32217,0.0058 2.66471,1.320723 l 2.76363,-1.751267 2.432,0.872725 c 1.33817,-1.117088 8.94251,-4.392715 10.67633,-3.531626 0.44218,0.215272 -0.0873,0.954179 0.37818,0.785452 l 0.95418,-0.494544"
       style="fill:#e1034d;fill-rule:nonzero;stroke:none" />
    <path
       id="path2959"
       d="m 304.20532,72.345233 -1.62909,1.762904 -0.87272,4.159988 -1.79781,1.58254 c -0.128,2.571629 -1.12291,6.161437 -3.92145,6.981798 -2.19926,13.771597 -24.51774,27.287197 -31.37154,40.686427 -9.40216,18.37958 -17.40213,38.42898 -28.07265,55.91838 l -7.55197,2.29236 -2.04218,2.10617 -0.29673,0.14546 c -3.03708,-7.83125 11.74106,-75.95614 14.98178,-88.273198 l 0.44218,-0.442181 c 0,0 -1.41382,-3.450171 -0.73891,-4.11926 l -1.04145,-3.2349 4.59635,-1.914176 3.41526,1.914176 1.18109,-2.05963 c 4.12508,1.437086 8.32579,4.53235 10.23415,8.535247 1.30327,0.430545 2.99636,2.175992 1.03564,3.380352 l 0.59345,1.76872 c 8.09307,-11.514144 29.38173,-27.653733 42.8566,-31.191177"
       style="fill:#e1034d;fill-rule:nonzero;stroke:none" />
    <path
       id="path2961"
       stroke-miterlimit="3.864"
       d="m 427.03842,41.241324 c 0,-6.196346 5.03271,-11.22324 11.23487,-11.22324 6.20798,0 11.23488,5.026894 11.23488,11.22324 0,6.202164 -5.0269,11.229058 -11.23488,11.229058 -6.20216,0 -11.23487,-5.026894 -11.23487,-11.229058 z"
       style="fill:none;stroke:#e1034d;stroke-width:2.67635584;stroke-linecap:butt;stroke-linejoin:miter;stroke-miterlimit:3.86400008" />
    <path
       id="path2963"
       d="m 442.10164,37.63988 c 0.384,1.716358 0.576,4.189078 -2.39708,4.479987 l 3.45599,4.37526 c 0.0931,-0.28509 -1.72799,0 -2.7869,-0.09309 -1.05309,-1.33236 -1.91999,-2.763628 -3.35708,-4.189079 0,1.61745 0,4.381078 0.0931,4.381078 l -2.58908,0 c 0,0 -0.0931,-7.807977 -0.0931,-10.478514 1.72799,-0.09309 4.89307,-0.378181 6.13816,0.290908 l 1.53599,1.233451 z m -2.39708,1.623268 c 0.0931,1.61745 -1.4429,1.233451 -2.5949,1.14036 0,0.09309 -0.0931,-2.379629 -0.0931,-2.379629 1.05309,0 2.78108,0 2.68799,1.239269"
       style="fill:#e1034d;fill-rule:evenodd;stroke:none" />
  </g>
</svg>
