<?xml version="1.0" encoding="UTF-8" standalone="no"?>
<!-- Created with Inkscape (http://www.inkscape.org/) -->

<svg
   xmlns:dc="http://purl.org/dc/elements/1.1/"
   xmlns:cc="http://creativecommons.org/ns#"
   xmlns:rdf="http://www.w3.org/1999/02/22-rdf-syntax-ns#"
   xmlns:svg="http://www.w3.org/2000/svg"
   xmlns="http://www.w3.org/2000/svg"
   xmlns:sodipodi="http://sodipodi.sourceforge.net/DTD/sodipodi-0.dtd"
   xmlns:inkscape="http://www.inkscape.org/namespaces/inkscape"
   width="1000"
   height="169.92079"
   id="svg4145"
   version="1.1"
   inkscape:version="0.48.2 r9819"
   sodipodi:docname="New document 3">
  <defs
     id="defs4147">
    <clipPath
       id="clipPath4299"
       clipPathUnits="userSpaceOnUse">
      <path
         id="path4301"
         d="M 0,0 612,0 612,792 0,792 0,0 z"
         inkscape:connector-curvature="0" />
    </clipPath>
    <clipPath
       id="clipPath4285"
       clipPathUnits="userSpaceOnUse">
      <path
         id="path4287"
         d="m 409.578,503 154.149,0 0,118 -154.149,0 0,-118 z"
         inkscape:connector-curvature="0" />
    </clipPath>
    <clipPath
       id="clipPath4271"
       clipPathUnits="userSpaceOnUse">
      <path
         id="path4273"
         d="m 409.578,639 154.149,0 0,122.083 -154.149,0 0,-122.083 z"
         inkscape:connector-curvature="0" />
    </clipPath>
  </defs>
  <sodipodi:namedview
     id="base"
     pagecolor="#ffffff"
     bordercolor="#666666"
     borderopacity="1.0"
     inkscape:pageopacity="0.0"
     inkscape:pageshadow="2"
     inkscape:zoom="0.7"
     inkscape:cx="630.47757"
     inkscape:cy="97.449839"
     inkscape:document-units="px"
     inkscape:current-layer="g4161"
     showgrid="false"
     fit-margin-left="0.5"
     fit-margin-bottom="0.5"
     fit-margin-top="0.5"
     fit-margin-right="0.5"
     inkscape:window-width="1920"
     inkscape:window-height="1028"
     inkscape:window-x="-8"
     inkscape:window-y="-8"
     inkscape:window-maximized="1" />
  <metadata
     id="metadata4150">
    <rdf:RDF>
      <cc:Work
         rdf:about="">
        <dc:format>image/svg+xml</dc:format>
        <dc:type
           rdf:resource="http://purl.org/dc/dcmitype/StillImage" />
        <dc:title></dc:title>
      </cc:Work>
    </rdf:RDF>
  </metadata>
  <g
     inkscape:label="Layer 1"
     inkscape:groupmode="layer"
     id="layer1"
     transform="translate(-396.10936,-812.74363)">
    <g
       transform="matrix(1.25,0,0,-1.25,-250.84079,1004.2778)"
       inkscape:label="top 10 reasons to get adsk cert"
       id="g4161">
      <g
         id="g4295"
         transform="matrix(9.9517108,0,0,9.9517108,-4636.629,-158.36201)">
        <g
           clip-path="url(#clipPath4299)"
           id="g4297">
          <g
             transform="translate(598.2679,26.230499)"
             id="g4303">
            <path
               id="path4305"
               style="fill:#231f20;fill-opacity:1;fill-rule:nonzero;stroke:none"
               d="m 0,0 c 0,0.807 -0.656,1.462 -1.465,1.462 -0.804,0 -1.46,-0.655 -1.46,-1.462 0,-0.808 0.656,-1.462 1.46,-1.462 C -0.656,-1.462 0,-0.808 0,0 m -0.22,0 c 0,-0.733 -0.53,-1.259 -1.245,-1.259 -0.71,0 -1.241,0.526 -1.241,1.259 0,0.729 0.531,1.259 1.241,1.259 0.715,0 1.245,-0.53 1.245,-1.259"
               inkscape:connector-curvature="0" />
          </g>
          <g
             transform="translate(597.4368,25.4832)"
             id="g4307">
            <path
               id="path4309"
               style="fill:#231f20;fill-opacity:1;fill-rule:nonzero;stroke:none"
               d="m 0,0 -0.352,0.498 c -0.063,0.088 -0.11,0.148 -0.177,0.199 0.253,0.033 0.402,0.171 0.402,0.392 0,0.224 -0.158,0.426 -0.465,0.426 l -0.493,0 0,-1.515 0.217,0 0,0.68 c 0.118,0 0.162,-0.037 0.239,-0.148 L -0.265,0 0,0 z m -0.362,1.089 c 0,-0.218 -0.181,-0.238 -0.352,-0.238 l -0.154,0 0,0.476 0.225,0 c 0.207,0 0.281,-0.097 0.281,-0.238"
               inkscape:connector-curvature="0" />
          </g>
          <g
             transform="translate(541.01151,25.389893)"
             id="g4311">
            <path
               id="path4313"
               style="fill:#231f20;fill-opacity:1;fill-rule:nonzero;stroke:none"
               d="m 0,0 0,1.497 1.442,0 0,2.147 1.961,0.616 0,-2.763 2.163,0 0,-1.497 -2.163,0 0,-4.752 c 0,-0.888 0.24,-1.295 0.962,-1.295 0.535,0 1.017,0.259 1.182,0.369 L 6.101,-7.156 C 5.769,-7.342 5.067,-7.674 4.013,-7.674 c -1.83,0 -2.571,0.999 -2.571,2.607 L 1.442,0 0,0 z"
               inkscape:connector-curvature="0" />
          </g>
          <g
             transform="translate(552.05569,17.715805)"
             id="g4315">
            <path
               id="path4317"
               style="fill:#231f20;fill-opacity:1;fill-rule:nonzero;stroke:none"
               d="m 0,0 c -3.088,0 -4.327,2.478 -4.327,4.678 0,2.2 1.202,4.715 4.289,4.715 3.069,0 4.42,-2.459 4.42,-4.659 C 4.382,2.552 3.069,0 0,0 m -0.074,7.858 c -1.591,0 -2.182,-1.349 -2.182,-3.124 0,-1.776 0.685,-3.181 2.274,-3.181 1.609,0 2.274,1.333 2.274,3.125 0,1.775 -0.757,3.18 -2.366,3.18"
               inkscape:connector-curvature="0" />
          </g>
          <g
             transform="translate(572.5352,19.250397)"
             id="g4319">
            <path
               id="path4321"
               style="fill:#231f20;fill-opacity:1;fill-rule:nonzero;stroke:none"
               d="M 0,0 C 1.24,0 1.997,0.462 2.405,0.704 L 3.088,-0.647 C 2.57,-0.961 1.609,-1.535 -0.129,-1.535 c -2.922,0 -4.475,1.997 -4.475,4.752 0,2.737 1.794,4.641 4.235,4.641 2.625,0 3.974,-1.904 3.697,-4.992 l -5.861,0 C -2.441,1.239 -1.7,0 0,0 m 1.424,4.272 c -0.038,1.127 -0.518,2.089 -1.83,2.089 -1.203,0 -1.869,-0.814 -2.072,-2.089 l 3.902,0 z"
               inkscape:connector-curvature="0" />
          </g>
          <g
             transform="translate(592.65199,19.4142)"
             id="g4323">
            <path
               id="path4325"
               style="fill:#231f20;fill-opacity:1;fill-rule:nonzero;stroke:none"
               d="m 0,0 -2.542,3.447 2.093,2.513 c 0.443,0.037 1.062,0.108 1.431,0.2 l 0,1.313 -2.389,0 -3.174,-3.904 0,8.268 c -1.085,0.05 -2.273,-0.006 -3.254,-0.098 l 0,-1.274 c 0.455,-0.04 0.933,-0.099 1.293,-0.159 l 0,-10.326 c -0.446,-0.03 -0.901,-0.095 -1.312,-0.179 l 0,-1.278 3.273,0 0,4.677 3.345,-4.677 2.639,0 0,1.236 C 0.904,-0.129 0.406,-0.055 0,0"
               inkscape:connector-curvature="0" />
          </g>
          <g
             transform="translate(537.32449,17.918594)"
             id="g4327">
            <path
               id="path4329"
               style="fill:#231f20;fill-opacity:1;fill-rule:nonzero;stroke:none"
               d="m 0,0 c -0.055,0.223 -0.148,0.851 -0.166,1.259 -0.444,-0.593 -1.369,-1.48 -2.885,-1.48 -1.941,0 -2.663,1.258 -2.663,2.848 l 0,4.807 c -0.444,0.074 -1.035,0.148 -1.497,0.184 l 0,1.221 c 0.961,0.093 2.275,0.167 3.457,0.111 l 0,-5.917 c 0,-0.998 0.352,-1.573 1.369,-1.573 1.127,0 1.979,1.111 2.164,1.351 l 0,4.642 C -0.61,7.508 -1.164,7.582 -1.627,7.618 l 0,1.221 c 0.962,0.129 2.238,0.167 3.365,0.129 l 0,-7.45 C 2.164,1.443 2.736,1.369 3.218,1.332 l 0,-1.203 C 2.274,0.019 1.073,-0.055 0,0"
               inkscape:connector-curvature="0" />
          </g>
          <g
             transform="translate(565.8407,19.450302)"
             id="g4331">
            <path
               id="path4333"
               style="fill:#231f20;fill-opacity:1;fill-rule:nonzero;stroke:none"
               d="m 0,0 c -0.013,0.224 -0.023,0.466 -0.023,0.725 l 0,11.039 c -1.182,0.055 -2.515,-0.019 -3.55,-0.13 l 0,-1.201 c 0.536,-0.037 1.146,-0.111 1.591,-0.186 l 0,-3.291 c -0.333,0.278 -0.981,0.702 -2.163,0.702 -2.275,0 -3.976,-1.867 -3.976,-4.714 0,-2.996 1.479,-4.679 3.679,-4.679 1.202,0 2.015,0.575 2.552,1.22 0.018,-0.313 0.112,-0.794 0.185,-0.998 1.091,-0.055 2.219,0.019 3.181,0.13 l 0,1.201 C 1.003,-0.146 0.424,-0.073 0,0 m -1.982,0.947 c -0.222,-0.297 -0.906,-1.055 -1.923,-1.055 -1.479,0 -2.127,1.221 -2.127,3.071 0,1.866 0.796,3.106 2.237,3.106 0.944,0 1.462,-0.37 1.813,-0.684 l 0,-4.438 z"
               inkscape:connector-curvature="0" />
          </g>
          <g
             transform="translate(529.3371,19.342804)"
             id="g4335">
            <path
               id="path4337"
               style="fill:#231f20;fill-opacity:1;fill-rule:nonzero;stroke:none"
               d="m 0,0 -4.243,10.909 -1.938,0 L -10.342,0 c -0.332,-0.036 -0.739,-0.11 -1.035,-0.204 l 0,-1.201 4.436,0 0,1.201 c -0.425,0.094 -0.925,0.186 -1.369,0.223 l 0.517,1.423 5.068,0 L -2.2,0 c -0.445,-0.036 -0.848,-0.11 -1.255,-0.204 l 0,-1.201 4.583,0 0,1.201 C 0.869,-0.129 0.259,0 0,0 m -7.228,3.067 1.23,3.386 c 0.37,1.017 0.499,1.461 0.703,2.127 l 0.037,0 c 0.203,-0.647 0.333,-1.091 0.703,-2.127 l 1.228,-3.386 -3.901,0 z"
               inkscape:connector-curvature="0" />
          </g>
          <g
             transform="translate(580.93291,23.230698)"
             id="g4339">
            <path
               id="path4341"
               style="fill:#231f20;fill-opacity:1;fill-rule:nonzero;stroke:none"
               d="m 0,0 c -1.002,0.39 -1.798,0.628 -1.798,1.336 0,0.666 0.674,1.046 1.564,1.046 0.491,0 0.977,-0.095 1.34,-0.224 0.052,-0.38 0.101,-0.959 0.181,-1.12 l 1.299,0 0,2.113 c -0.356,0.215 -1.36,0.727 -2.903,0.727 -1.904,0 -3.29,-1.105 -3.29,-2.685 0,-1.423 0.891,-2.158 2.247,-2.642 1.377,-0.492 2.462,-0.826 2.462,-1.53 0,-0.677 -0.578,-1.066 -1.724,-1.066 -0.472,0 -1.056,0.089 -1.414,0.224 -0.058,0.421 -0.143,1.062 -0.238,1.233 l -1.295,0 0,-2.189 c 0.571,-0.368 1.67,-0.763 3.065,-0.763 2.109,0 3.45,1.078 3.45,2.777 C 2.946,-1.244 1.455,-0.567 0,0"
               inkscape:connector-curvature="0" />
          </g>
        </g>
      </g>
    </g>
  </g>
</svg>
