<?xml version="1.0" encoding="UTF-8" standalone="no"?>
<!-- Created with Inkscape (http://www.inkscape.org/) -->
<svg
   xmlns:dc="http://purl.org/dc/elements/1.1/"
   xmlns:cc="http://web.resource.org/cc/"
   xmlns:rdf="http://www.w3.org/1999/02/22-rdf-syntax-ns#"
   xmlns:svg="http://www.w3.org/2000/svg"
   xmlns="http://www.w3.org/2000/svg"
   xmlns:xlink="http://www.w3.org/1999/xlink"
   xmlns:sodipodi="http://sodipodi.sourceforge.net/DTD/sodipodi-0.dtd"
   xmlns:inkscape="http://www.inkscape.org/namespaces/inkscape"
   width="551"
   height="189"
   id="svg2"
   sodipodi:version="0.32"
   inkscape:version="0.45.1"
   version="1.0"
   inkscape:output_extension="org.inkscape.output.svg.inkscape">
  <g
     inkscape:label="Layer 1"
     inkscape:groupmode="layer"
     id="layer1"
     transform="translate(-325.01608,-716.56543)">
    <path
       id="path2206"
       d="M 83.52,117.36218 L 83.52,117.36218"
       style="fill:#ffffff;fill-rule:nonzero;stroke:none" />
    <g
       id="g2372"
       transform="matrix(5.4262008,0,0,5.4262008,-1438.586,-4008.2185)">
      <path
         style="fill:#000000;fill-rule:nonzero;stroke:none"
         d="M 363.473,893.70718 C 363.473,895.35418 364.214,895.88918 365.573,895.88918 L 366.273,895.88918 L 366.273,896.58918 L 357.998,896.58918 L 357.998,895.88918 L 358.657,895.88918 C 360.139,895.88918 360.674,895.35418 360.674,893.95418 L 360.674,883.12718 L 358.657,883.12718 L 358.657,882.42718 C 359.645,882.01518 360.056,881.85018 360.674,881.43918 L 360.674,878.55718 C 360.674,875.01618 362.362,870.73518 366.932,870.73518 C 368.537,870.73518 370.06,871.18818 371.048,871.92918 L 369.649,875.59318 L 368.949,875.59318 C 369.155,872.83418 367.92,871.59918 366.191,871.59918 C 364.585,871.59918 363.473,872.79318 363.473,875.01618 L 363.473,882.05618 L 367.096,882.05618 L 367.096,883.12718 L 363.473,883.12718 L 363.473,893.70718"
         id="path2232" />
      <path
         style="fill:#df0031;fill-rule:nonzero;stroke:none"
         d="M 386.679,888.97718 C 386.679,894.15118 382.398,897.09418 377.492,897.09418 C 372.616,897.09418 368.304,894.18018 368.304,888.97718 C 368.304,883.77418 372.586,880.83118 377.492,880.83118 C 382.398,880.83118 386.679,883.77418 386.679,888.97718 z M 374.013,888.97718 C 374.013,890.91018 375.291,892.39718 377.492,892.39718 C 379.692,892.39718 380.97,890.91018 380.97,888.97718 C 380.97,887.10418 379.692,885.52818 377.492,885.52818 C 375.291,885.52818 374.013,887.10418 374.013,888.97718"
         id="path2234" />
      <g
         transform="matrix(1,0,0,-1,77.52,953.36218)"
         clip-path="url(#id11)"
         id="g2236">
        <path
   style="fill:#009870;fill-rule:nonzero;stroke:none"
   d="M 329.948,64.385 C 329.948,59.211 325.666,56.268 320.76,56.268 C 315.884,56.268 311.573,59.182 311.573,64.385 C 311.573,69.588 315.854,72.531 320.76,72.531 C 325.666,72.531 329.948,69.588 329.948,64.385 z M 317.282,64.385 C 317.282,62.452 318.56,60.965 320.76,60.965 C 322.961,60.965 324.239,62.452 324.239,64.385 C 324.239,66.258 322.961,67.834 320.76,67.834 C 318.56,67.834 317.282,66.258 317.282,64.385"
   id="path2238" />

        <path
   style="fill:#000000;fill-rule:nonzero;stroke:none"
   d="M 346.795,59.614 C 346.795,58.008 347.371,57.473 349.224,57.473 L 349.224,56.773 L 340.743,56.773 C 334.568,56.773 332.262,60.931 332.262,64.348 C 332.262,68.465 335.309,71.759 339.096,71.759 C 340.661,71.759 342.143,71.223 343.995,69.988 L 343.995,78.922 C 343.995,81.022 343.501,81.433 342.061,81.433 L 341.237,81.433 L 341.237,82.133 L 346.095,82.627 L 346.795,82.627 L 346.795,59.614 z M 343.995,68.424 C 342.843,69.988 341.237,70.894 339.755,70.894 C 337.12,70.894 335.309,68.506 335.309,64.966 C 335.309,61.467 336.914,57.432 341.69,57.432 C 343.337,57.432 343.995,58.091 343.995,59.655 L 343.995,68.424"
   id="path2240" />

      </g>
      <path
         style="fill:#000000;fill-rule:nonzero;stroke:none"
         d="M 335.884,893.26018 C 335.884,894.94818 336.049,895.52518 336.708,895.52518 C 337.161,895.52518 337.366,895.15418 337.696,894.12518 L 338.396,894.12518 C 338.272,895.93718 337.202,897.08918 335.555,897.08918 C 334.32,897.08918 333.579,896.47218 333.085,895.03118 C 331.644,896.59518 330.697,897.08918 329.174,897.08918 C 326.91,897.08918 325.016,895.36018 325.016,893.22018 C 325.016,889.06118 330.697,889.22618 333.085,887.82618 L 333.085,886.75618 C 333.085,884.69718 331.891,883.21518 329.833,883.21518 C 328.186,883.21518 326.58,884.24518 325.963,886.34418 L 325.222,886.13818 C 325.839,883.42118 327.98,881.65118 330.615,881.65118 C 333.044,881.65118 335.884,883.05118 335.884,887.00318 L 335.884,893.26018 z M 333.085,888.73218 C 330.327,889.92618 327.856,889.88518 327.856,892.84918 C 327.856,894.33118 328.886,895.52518 330.08,895.52518 C 330.944,895.52518 332.508,894.90718 333.085,893.67218 L 333.085,888.73218"
         id="path2242" />
      <path
         style="fill:#000000;fill-rule:nonzero;stroke:none"
         d="M 366.014,905.37718 C 362.803,904.24218 359.21,901.67218 356.969,898.88218 L 351.48,891.23818 L 351.481,891.23718 L 351.447,891.19318 L 351.414,891.14618 L 351.413,891.14718 L 349.346,888.44418 L 351.775,885.56218 C 353.546,883.46218 354.246,883.01018 356.057,882.80418 L 356.057,882.10418 L 350.293,882.10418 L 350.293,882.80418 C 351.775,882.80418 351.693,884.03918 350.664,885.27418 L 348.688,887.70318 L 346.753,884.98618 C 345.806,883.66818 345.971,882.92718 347.453,882.80418 L 347.453,882.10418 L 339.425,882.10418 L 339.425,882.80418 C 341.277,882.92718 341.977,883.33918 343.459,885.27418 L 346.918,889.80218 L 343.747,893.54918 C 341.895,895.77218 341.319,895.93718 339.425,895.93718 L 339.425,896.63718 L 345.353,896.63718 L 345.353,895.93718 C 344.159,895.85418 343.994,894.94818 344.859,893.87818 L 347.453,890.62618 L 349.541,893.48818 L 349.542,893.48718 L 353.38,898.88418 C 354.712,900.75018 356.544,902.65718 360.548,904.30618 C 362.232,904.99918 363.708,905.36918 364.856,905.56618 L 366.014,905.37718"
         id="path2244" />
    </g>
  </g>
</svg>
