<?xml version="1.0" encoding="UTF-8" standalone="no"?>
<svg
   xmlns:dc="http://purl.org/dc/elements/1.1/"
   xmlns:cc="http://creativecommons.org/ns#"
   xmlns:rdf="http://www.w3.org/1999/02/22-rdf-syntax-ns#"
   xmlns:svg="http://www.w3.org/2000/svg"
   xmlns="http://www.w3.org/2000/svg"
   xmlns:sodipodi="http://sodipodi.sourceforge.net/DTD/sodipodi-0.dtd"
   xmlns:inkscape="http://www.inkscape.org/namespaces/inkscape"
   version="1.1"
   id="Layer_1"
   x="0px"
   y="0px"
   width="641"
   height="313"
   viewBox="0 0 641 313"
   enable-background="new 0 0 612 792"
   xml:space="preserve">
<path
   style="fill-rule:evenodd"
   id="path7"
   d="M 369.00465,0.00678284 H 186.64884 V 161.98701 l 0,0 c 0,45.54442 21.90024,64.87844 64.01503,64.87844 l 0,0 h 53.48633 l 0,0 c 34.1112,0 54.74718,-26.20697 54.74718,-64.87844 0,-19.33744 -5.47506,-39.09974 -16.00376,-50.70083 l 0,0 -1.26427,-1.28825 21.0574,0.42827 0,0 c 20.21112,0.85998 25.26819,1.71995 29.9004,2.57993 l 0,0 -11.78953,-21.485673 h -37.06116 l 0,0 C 353.0009,75.622911 355.526,68.749963 355.526,54.568941 c 0,-19.76572 -5.89648,-33.08334 -19.79313,-47.2609362 l 0,0 -1.26084,-1.2882494 0,0 c 40.85053,0.4282744 60.85608,15.8975456 60.85608,61.4419586 l 0,0 V 202.375 l 0,0 c 0,11.1694 -5.26606,21.05397 -6.94832,24.48702 l 0,0 h 64.85445 V 94.532082 l 0,0 C 453.23081,26.217176 432.59826,0.00678284 369.00465,0.00678284 l 0,0 0,0 0,0 z M 272.52985,220.0062 c -19.37171,0 -29.05756,-14.18102 -29.05756,-41.67966 l 0,0 V 49.429649 l 0,0 c 0,-29.646867 6.31448,-43.8278894 28.21471,-43.8278894 19.37171,0 31.16468,14.6092964 31.16468,41.2479644 0,29.646867 -10.11071,45.112712 -25.26819,45.112712 -5.89649,0 -9.68586,-1.28825 -19.79313,-8.164623 l 0,0 v 36.091537 l 0.84284,-0.85655 0,0 c 5.05364,-3.86817 12.63581,-6.01639 18.52886,-6.01639 17.68945,0 26.53246,18.90574 26.53246,53.70561 0,36.09839 -8.42159,53.28418 -31.16467,53.28418 l 0,0 0,0 0,0 z"
   clip-rule="evenodd" /><path
   style="fill-rule:evenodd"
   id="path9"
   d="m 374.83946,310.67703 h 16.00376 v -18.90574 l 0,0 c 0,-7.73635 1.26427,-10.74112 5.05707,-10.74112 3.78594,0 5.05363,3.00477 5.05363,7.73292 l 0,0 v 21.91394 h 16.00376 v -18.90574 l 0,0 c 0,-7.73635 1.26427,-10.74112 5.05364,-10.74112 3.36795,0 5.05706,2.57649 5.05706,6.87294 l 0,0 v 22.7705 h 16.00033 v -26.20697 l 0,0 c 0,-10.74112 -4.63221,-16.32925 -16.00033,-16.32925 -5.47848,0 -9.26443,1.71995 -12.21438,5.15643 l 0,0 -0.83942,0.85997 0,0 c -2.94653,-3.86817 -5.89991,-6.44467 -12.21096,-6.44467 -5.47849,0 -9.26786,1.71652 -11.79296,5.15642 l 0,0 -2.52511,-3.86817 h -12.63581 v 41.67966 l -0.0103,0 z"
   clip-rule="evenodd" /><path
   style="fill-rule:evenodd"
   id="path11"
   d="m 349.34515,252.32208 h -17.2646 L 311.866,310.75584 h 17.68602 l 2.52853,-8.16463 h 18.52886 l 2.52511,8.16463 h 17.68602 l -21.47539,-58.43376 0,0 0,0 z m -13.54033,37.81834 5.05364,-15.041 5.47849,15.041 h -10.53213 l 0,0 0,0 z"
   clip-rule="evenodd" /><path
   style="fill-rule:evenodd"
   id="path13"
   d="m 45.486171,281.10554 -1.685688,-1.28825 0,0 c 3.36795,-3.0082 5.47506,-5.15642 5.47506,-11.60452 0,-9.88115 -5.896482,-15.46585 -17.689445,-15.46585 l 0,0 H 3.9968002e-6 v 58.00549 H 27.796726 l 0,0 c 15.582335,0 24.425345,-3.4399 24.425345,-16.32925 0.0034,-5.153 -2.103684,-9.44944 -6.7359,-13.31762 l 0,0 0,0 0,0 z M 18.92288,267.06157 h 9.267858 l 0,0 c 3.789372,0 4.632216,1.28825 4.632216,4.72472 0,3.4399 -1.264266,3.4399 -5.053638,3.4399 l 0,0 H 18.92288 v -8.16462 l 0,0 0,0 z m 10.967251,29.78391 h -10.95012 v -9.0246 h 11.371542 l 0,0 c 3.36795,0 5.053638,1.29168 5.053638,4.72815 -0.0034,3.86818 -1.264266,4.29645 -5.47506,4.29645 l 0,0 0,0 0,0 z"
   clip-rule="evenodd" /><polygon
   style="fill-rule:evenodd"
   id="polygon15"
   points="256.517,441.396 256.517,441.396 261.188,441.396 261.188,436.255 264.506,441.396 269.792,441.396 265.121,434.123 269.423,429.232 264.015,429.232 261.188,432.493 261.188,424.718 256.517,424.718 "
   clip-rule="evenodd"
   transform="matrix(3.4261952,0,0,3.4261952,-725.78463,-1201.5633)" /><path
   style="fill-rule:evenodd"
   id="path17"
   d="m 103.31007,310.68046 h 16.00376 v -18.90575 l 0,0 c 0,-7.73635 2.52853,-11.17282 6.73932,-11.17282 4.63222,0 6.31791,3.43647 6.31791,8.5929 l 0,0 v 21.48567 h 16.00375 v -23.63047 l 0,0 c 0,-12.46107 -5.05363,-19.76572 -16.00375,-19.76572 -4.63222,0 -8.00017,1.29168 -11.37155,4.72815 l 0,0 -0.84284,0.85655 -1.68569,-3.86475 h -15.16091 v 41.67624 l 0,0 z"
   clip-rule="evenodd" /><path
   style="fill-rule:evenodd"
   id="path19"
   d="m 237.9801,267.23973 c -13.05723,0 -21.90024,9.88457 -21.90024,23.20219 0,13.31762 8.84643,21.91395 23.1645,21.91395 14.73949,0 21.47882,-8.5929 21.47882,-21.05397 0,-15.46585 -8.00359,-24.06217 -22.74308,-24.06217 l 0,0 0,0 0,0 z m 0.84627,33.90563 c -6.66738,0 -6.73933,-7.46911 -6.73933,-11.28589 0,-5.76286 1.53836,-10.63148 6.73933,-10.63148 4.6048,0 6.24595,3.30285 6.31447,10.18265 0.0857,8.7368 -2.26814,11.73472 -6.31447,11.73472 l 0,0 0,0 0,0 z"
   clip-rule="evenodd" /><path
   style="fill-rule:evenodd"
   id="path21"
   d="m 470.65301,301.61132 c -3.78937,0 -5.89648,-2.14822 -6.73932,-6.87295 l 0,0 h 27.79329 l 0,0 c 0,-16.32924 -6.73932,-27.49864 -21.47882,-27.49864 -13.47865,0 -22.32166,9.0246 -22.32166,23.20219 0,13.53347 8.84301,22.55807 23.16451,22.55807 11.78954,0 16.8466,-5.80055 20.63255,-15.25342 l 0,0 h -13.90008 l 0,0 c -0.41114,2.14823 -2.93967,3.86475 -7.15047,3.86475 l 0,0 0,0 0,0 z m -0.4454,-22.66428 c 3.78937,0 5.89991,2.5765 6.32133,6.0164 l 0,0 h -13.05723 l 0,0 c 0.84627,-3.86818 2.94995,-6.0164 6.7359,-6.0164 l 0,0 0,0 0,0 z"
   clip-rule="evenodd" /><path
   style="fill-rule:evenodd"
   id="path23"
   d="m 77.161346,268.05516 c -13.896648,0 -20.214552,6.0164 -20.214552,15.90098 l 0,0 H 70.42202 l 0,0 c 0,-2.57993 2.10711,-5.58813 6.739326,-5.58813 2.10711,0 3.789372,1.71995 3.789372,3.86818 0,7.30464 -26.532456,0 -26.532456,18.04577 0,7.73635 5.053638,12.46107 13.475226,12.46107 6.317904,0 10.95012,-2.14823 13.475226,-4.72472 l 0,0 2.528532,2.57649 h 13.896648 v -21.91394 l 0,0 c 0.0034,-13.75275 -4.207368,-20.6257 -20.632548,-20.6257 l 0,0 0,0 0,0 z m 3.775667,29.60233 c 0,2.57993 -3.36795,5.15642 -5.896482,5.15642 -2.525106,0 -3.789372,-1.71652 -3.789372,-3.43647 0,-2.5765 2.528532,-5.5847 9.685854,-6.44467 l 0,0 v 4.72472 l 0,0 0,0 z"
   clip-rule="evenodd" /><path
   style="fill-rule:evenodd"
   id="path25"
   d="m 620.78203,268.09628 c -13.47865,0 -20.63597,5.5847 -20.63597,15.89754 l 0,0 h 13.47865 l 0,0 c 0,-2.57649 1.68226,-5.58469 6.73933,-5.58469 2.10368,0 3.78937,1.71995 3.78937,3.86817 0,7.30465 -25.68961,0 -25.68961,18.04577 0,7.73292 5.05364,12.0328 13.47865,12.0328 5.89306,0 10.52527,-1.71995 12.63238,-4.29988 l 0,0 2.52853,2.57993 h 13.89665 v -21.91395 l 0,0 c -0.003,-13.32104 -3.79622,-20.62569 -20.21798,-20.62569 l 0,0 0,0 0,0 z m 3.36453,29.56121 c 0,2.57993 -3.36453,5.15642 -5.89648,5.15642 -2.52511,0 -3.78938,-1.71652 -3.78938,-3.43647 0,-2.5765 2.52854,-5.5847 9.68586,-6.44467 l 0,0 v 4.72472 l 0,0 0,0 z"
   clip-rule="evenodd" /><path
   style="fill-rule:evenodd"
   id="path27"
   d="m 580.32552,293.83386 c -0.42142,5.5847 -1.68569,6.87637 -5.89648,6.87637 -5.89648,0 -8.00359,-4.29645 -8.00359,-9.88457 0,-6.87295 1.26426,-11.1694 7.16074,-11.1694 3.78938,0 4.2108,0.42828 6.73933,5.15643 l 0,0 h 12.63581 l 0,0 c -0.84285,-10.74455 -5.47506,-16.76095 -19.37171,-16.76095 -13.05723,0 -21.05739,7.73635 -21.05739,21.05397 0,14.60929 7.15732,23.63047 21.47881,23.63047 10.9467,0 19.37171,-5.5847 20.21113,-15.89755 l 0,0 0.42142,-3.0082 h -14.31807 l 0,0.003 z"
   clip-rule="evenodd" /><path
   style="fill-rule:evenodd"
   id="path29"
   d="m 497.16834,310.67361 h 16.00375 v -14.6093 l 0,0 c 0,-10.74455 2.94996,-13.74932 12.21096,-14.6093 l 0,0 h 1.68569 v -12.89277 l 0,0 c -5.47506,0 -9.68585,0 -14.31807,5.15985 l 0,0 -2.52853,-4.72815 h -13.05723 v 41.67967 l 0.003,0 z"
   clip-rule="evenodd" /><path
   style="fill-rule:evenodd"
   id="path31"
   d="m 262.76862,279.38559 h 5.47506 v 31.36339 h 16.00376 v -31.36339 h 6.73932 v -10.31285 h -6.73932 l 0,0 c 0,-4.29644 0.84284,-4.72815 2.52853,-4.72815 l 0,0 h 5.05364 v -11.17282 h -10.9467 l 0,0 c -7.16075,0 -11.79296,1.29168 -11.79296,10.31285 l 0,0 v 5.58812 h -6.31791 v 10.31285 l -0.003,0 z"
   clip-rule="evenodd" /><polygon
   style="fill-rule:evenodd"
   id="polygon33"
   points="371.647,441.374 371.647,429.21 366.977,429.21 366.977,441.374 366.977,441.374 "
   clip-rule="evenodd"
   transform="matrix(3.4261952,0,0,3.4261952,-725.78463,-1201.5633)" /><polygon
   style="fill-rule:evenodd"
   id="polygon35"
   points="371.647,427.926 371.647,424.414 366.977,424.414 366.977,427.926 366.977,427.926 "
   clip-rule="evenodd"
   transform="matrix(3.4261952,0,0,3.4261952,-725.78463,-1201.5633)" /><path
   style="fill-rule:evenodd"
   id="path37"
   d="m 379.07767,211.24542 c -3.63862,0 -6.71535,2.89171 -6.71535,6.81128 0,3.96068 3.07673,6.85239 6.71535,6.85239 3.60435,0 6.67765,-2.89171 6.67765,-6.85239 0,-3.91957 -3.07672,-6.81128 -6.67765,-6.81128 l 0,0 0,0 0,0 z m 0,12.5296 c -3.02876,0 -5.38598,-2.42232 -5.38598,-5.7149 0,-3.23432 2.35722,-5.67378 5.38598,-5.67378 2.99107,0 5.35171,2.43946 5.35171,5.67378 -0.003,3.29258 -2.36064,5.7149 -5.35171,5.7149 l 0,0 0,0 0,0 z"
   clip-rule="evenodd" /><path
   style="fill-rule:evenodd"
   id="path39"
   d="m 380.14664,218.54664 c 1.11694,-0.1439 1.97349,-0.76061 1.97349,-2.16878 0,-1.55549 -0.89081,-2.24073 -2.69299,-2.24073 l 0,0 h -2.90199 v 7.88368 h 1.15463 v -3.41592 h 1.32936 l 2.01118,3.41592 h 1.2951 l -2.16878,-3.47417 0,0 0,0 z m -2.46686,-0.93877 v -2.43945 h 1.57262 l 0,0 c 0.80173,0 1.65828,0.18158 1.65828,1.15462 0,1.21288 -0.87368,1.28483 -1.85357,1.28483 l 0,0 h -1.37733 l 0,0 0,0 z"
   clip-rule="evenodd" />
</svg>