<?xml version="1.0" encoding="UTF-8" standalone="no"?>
<!-- Generator: Adobe Illustrator 14.0.0, SVG Export Plug-In . SVG Version: 6.00 Build 43363)  -->

<svg
   xmlns:dc="http://purl.org/dc/elements/1.1/"
   xmlns:cc="http://creativecommons.org/ns#"
   xmlns:rdf="http://www.w3.org/1999/02/22-rdf-syntax-ns#"
   xmlns:svg="http://www.w3.org/2000/svg"
   xmlns="http://www.w3.org/2000/svg"
   xmlns:xlink="http://www.w3.org/1999/xlink"
   xmlns:sodipodi="http://sodipodi.sourceforge.net/DTD/sodipodi-0.dtd"
   xmlns:inkscape="http://www.inkscape.org/namespaces/inkscape"
   version="1.1"
   id="Layer_1"
   x="0px"
   y="0px"
   width="997"
   height="115"
   viewBox="0 0 997 115"
   enable-background="new 0 0 612 792"
   xml:space="preserve"
   inkscape:version="0.48.0 r9654"
   sodipodi:docname="bankunited logo.svg"><metadata
   id="metadata295"><rdf:RDF><cc:Work
       rdf:about=""><dc:format>image/svg+xml</dc:format><dc:type
         rdf:resource="http://purl.org/dc/dcmitype/StillImage" /></cc:Work></rdf:RDF></metadata><defs
   id="defs293">
	

		
	
			
		
				
				
				
			
	<defs
   id="defs263">
		<rect
   height="33.48"
   width="169.37"
   y="260.01999"
   x="111.26"
   id="SVGID_35_" />
	</defs>
	<clipPath
   id="SVGID_36_">
		<use
   id="use267"
   overflow="visible"
   xlink:href="#SVGID_35_"
   style="overflow:visible"
   x="0"
   y="0"
   width="612"
   height="792" />
	</clipPath>
	

		<defs
   id="defs271">
			<rect
   id="SVGID_37_"
   width="612"
   height="792"
   x="0"
   y="0" />
		</defs>
		<clipPath
   id="SVGID_38_">
			<use
   xlink:href="#SVGID_37_"
   overflow="visible"
   id="use275"
   style="overflow:visible"
   x="0"
   y="0"
   width="612"
   height="792" />
		</clipPath>
		
	
			<defs
   id="defs279">
				<rect
   x="0"
   height="792"
   width="612"
   y="-0.015"
   id="SVGID_39_" />
			</defs>
			<clipPath
   id="SVGID_40_">
				<use
   height="792"
   width="612"
   y="0"
   x="0"
   style="overflow:visible"
   id="use283"
   overflow="visible"
   xlink:href="#SVGID_39_" />
			</clipPath>
			
			
			
		</defs><sodipodi:namedview
   pagecolor="#ffffff"
   bordercolor="#666666"
   borderopacity="1"
   objecttolerance="10"
   gridtolerance="10"
   guidetolerance="10"
   inkscape:pageopacity="0"
   inkscape:pageshadow="2"
   inkscape:window-width="1062"
   inkscape:window-height="845"
   id="namedview291"
   showgrid="false"
   inkscape:zoom="0.79040404"
   inkscape:cx="435.78036"
   inkscape:cy="-111.30891"
   inkscape:window-x="0"
   inkscape:window-y="0"
   inkscape:window-maximized="0"
   inkscape:current-layer="Layer_1"
   fit-margin-top="0"
   fit-margin-left="0"
   fit-margin-right="0"
   fit-margin-bottom="0" />










<path
   style="fill:#e8bd1f"
   inkscape:connector-curvature="0"
   id="path285"
   d="m 119.138,275.361 c 0,-4.622 3.747,-8.368 8.369,-8.368 4.622,0 8.368,3.746 8.368,8.368 0,0.197 -0.007,0.394 -0.02,0.588 v 8.32 h -7.545 c -0.28,-1.348 -1.022,-5.455 -0.35,-8.252 0,0 1.098,2.586 0.936,4.458 0,0 2.574,-1.924 0.569,-5.271 0,0 3.551,0.854 4.08,2.737 0,0 0.203,-4.661 -4.12,-5.027 0,0 1.912,-1.464 4.486,-0.651 0,0 -2.522,-2.94 -5.422,-0.936 0,0 -1.842,-4.457 -5.352,-1.597 0,0 3.103,-0.122 3.754,1.964 0,0 -3.906,-1.395 -5.382,0.773 -1.475,2.167 -1.313,2.533 -1.313,2.533 0,0 2.138,-2.219 4.498,-1.882 0,0 -2.9,1.627 -1.923,5.881 0,0 1.668,-4.08 3.388,-4.487 0,0 -0.122,3.592 -2.656,6.166 0,0 2.075,-0.011 3.307,-1.191 0,0 0.288,2.836 -1.003,4.782 h -6.648 v -8.32 c -0.014,-0.194 -0.021,-0.391 -0.021,-0.588"
   clip-path="url(#SVGID_40_)"
   transform="matrix(6.4978793,0,0,6.4978793,-774.14434,-1734.8883)" /><path
   style="fill:#14416d"
   inkscape:connector-curvature="0"
   id="path287"
   d="m 119.158,275.936 h 3.576 c -0.204,0.816 -0.247,1.829 0.037,3.063 0,0 0.712,-1.742 1.685,-3.063 h 1.499 c -0.278,1.282 -0.93,3.195 -2.452,4.742 0,0 2.075,-0.011 3.307,-1.191 0,0 0.288,2.836 -1.003,4.782 h -6.648 v -8.32 l -0.001,-0.013 m 10.686,0 h 1.608 c 0.91,0.449 1.842,1.111 2.093,2.005 0,0 0.041,-0.938 -0.304,-2.005 h 2.615 l -0.001,8.333 h -7.545 c -0.28,-1.348 -1.022,-5.455 -0.35,-8.252 0,0 1.098,2.586 0.936,4.458 0,0 2.201,-1.645 0.948,-4.539 z"
   clip-path="url(#SVGID_40_)"
   transform="matrix(6.4978793,0,0,6.4978793,-774.14434,-1734.8883)" /><path
   style="fill:#14416d"
   inkscape:connector-curvature="0"
   id="path289"
   d="m 264.47,267.919 h 6.929 v 15.822 h 1.158 v 0.59 h -6.078 l -0.023,-3.31 c 0.006,1.259 -0.237,2.182 -0.734,2.769 -0.495,0.588 -1.283,0.879 -2.364,0.873 -1.593,-0.023 -2.848,-0.587 -3.769,-1.695 -0.921,-1.107 -1.392,-2.623 -1.411,-4.549 0.027,-2.006 0.512,-3.575 1.458,-4.706 0.946,-1.131 2.194,-1.707 3.745,-1.727 1.411,0.012 2.302,0.58 2.673,1.703 v -5.179 h -1.584 v -0.591 m 0.567,5.439 c -0.492,-0.011 -0.809,0.407 -0.949,1.254 -0.14,0.846 -0.203,2.186 -0.186,4.02 -0.014,1.604 0.055,2.794 0.207,3.571 0.151,0.777 0.469,1.163 0.951,1.159 0.456,0.002 0.744,-0.274 0.863,-0.828 0.12,-0.554 0.171,-1.397 0.155,-2.53 v -2.436 c 0.018,-1.407 -0.031,-2.46 -0.148,-3.161 -0.117,-0.7 -0.415,-1.049 -0.893,-1.049 z m -14.398,3.784 h 1.963 c 0.047,-1.368 0.071,-2.227 0.071,-2.578 0.008,-0.729 -0.056,-1.263 -0.192,-1.602 -0.137,-0.339 -0.396,-0.506 -0.778,-0.502 -0.479,-0.005 -0.78,0.376 -0.904,1.143 -0.124,0.768 -0.178,1.947 -0.16,3.539 z m 7,2.412 c -0.113,1.64 -0.673,2.901 -1.679,3.778 -1.006,0.878 -2.417,1.322 -4.233,1.331 -2.172,-0.021 -3.865,-0.607 -5.078,-1.757 -1.215,-1.149 -1.832,-2.74 -1.851,-4.771 0.027,-1.85 0.659,-3.334 1.894,-4.452 1.237,-1.117 2.915,-1.69 5.035,-1.72 1.908,0.005 3.354,0.462 4.337,1.372 0.983,0.909 1.476,2.241 1.481,3.996 v 0.355 h -6.929 v 0.426 c -0.017,1.944 0.181,3.382 0.594,4.313 0.412,0.93 1.137,1.392 2.173,1.386 0.934,-0.012 1.755,-0.39 2.462,-1.136 0.707,-0.744 1.155,-1.784 1.345,-3.121 h 0.449 z m -23.194,-7.26 h 1.229 v -2.625 h 5.463 v 2.625 h 2.743 v 0.591 h -2.743 v 8.089 c -0.01,0.78 0.069,1.365 0.237,1.755 0.167,0.391 0.482,0.585 0.945,0.585 0.538,0 0.959,-0.294 1.263,-0.88 0.304,-0.587 0.459,-1.459 0.464,-2.62 v -0.236 h 0.497 v 0.568 c 0.005,1.533 -0.372,2.67 -1.13,3.411 -0.757,0.741 -1.926,1.11 -3.505,1.106 -1.14,0.003 -2.018,-0.159 -2.633,-0.486 -0.615,-0.326 -1.039,-0.838 -1.271,-1.536 -0.231,-0.697 -0.342,-1.6 -0.33,-2.708 v -7.048 h -1.229 v -0.591 z m -6.63,-2.815 c 0.012,-1.233 1.005,-1.864 2.98,-1.891 1.975,0.027 2.968,0.658 2.98,1.891 -0.012,1.234 -1.005,1.865 -2.98,1.893 -1.975,-0.028 -2.968,-0.659 -2.98,-1.893 z m -0.875,14.852 v -0.59 h 1.135 v -10.856 h -1.135 v -0.591 h 6.599 v 11.447 h 1.134 v 0.59 h -7.733 z m -15.5,0 v -0.59 h 1.135 v -10.856 h -1.135 v -0.591 h 6.196 v 2.105 c 0.135,-0.785 0.528,-1.386 1.18,-1.803 0.652,-0.418 1.536,-0.629 2.652,-0.633 1.631,0.023 2.696,0.497 3.192,1.419 0.239,0.471 0.388,0.983 0.447,1.534 0.058,0.551 0.083,1.152 0.074,1.8 v 7.025 h 1.135 v 0.59 h -6.504 v -9.696 c 0.011,-0.46 -0.023,-0.8 -0.103,-1.02 -0.081,-0.22 -0.274,-0.329 -0.583,-0.328 -0.442,-0.002 -0.751,0.221 -0.928,0.671 -0.176,0.45 -0.261,1.141 -0.254,2.073 v 7.71 h 0.851 v 0.59 h -7.355 z m -27.673,0 v -0.59 h 1.136 V 268.51 h -1.136 v -0.591 h 6.504 v 15.822 h 0.922 v 0.59 h -7.426 z m 6.906,-6.574 5.038,-4.872 h -1.751 v -0.591 h 4.305 v 0.591 h -1.254 l -2.105,2.129 3.69,8.727 h 0.875 v 0.59 h -6.291 l -2.507,-6.574 z m -22.169,6.574 v -0.59 h 1.135 v -10.856 h -1.135 v -0.591 h 6.196 v 2.105 c 0.134,-0.785 0.527,-1.386 1.179,-1.803 0.652,-0.418 1.536,-0.629 2.652,-0.633 1.632,0.023 2.696,0.497 3.193,1.419 0.239,0.471 0.387,0.983 0.446,1.534 0.059,0.551 0.084,1.152 0.074,1.8 v 7.025 h 1.135 v 0.59 h -6.503 v -9.696 c 0.011,-0.46 -0.023,-0.8 -0.104,-1.02 -0.08,-0.22 -0.274,-0.329 -0.582,-0.328 -0.443,-0.002 -0.752,0.221 -0.929,0.671 -0.176,0.45 -0.261,1.141 -0.254,2.073 v 7.71 h 0.852 v 0.59 h -7.355 z m -7.175,-7.323 c -0.834,0.38 -1.361,0.838 -1.582,1.375 -0.221,0.536 -0.317,1.284 -0.287,2.244 -0.014,0.884 0.025,1.539 0.115,1.965 0.091,0.427 0.312,0.639 0.665,0.636 0.73,0 1.092,-0.97 1.089,-2.909 v -3.311 z m -6.504,-0.331 v -3.405 c 1.699,-0.891 3.669,-1.333 5.912,-1.325 2.196,-0.01 3.793,0.354 4.792,1.091 0.999,0.738 1.491,1.912 1.475,3.521 v 7.166 h 1.325 v 0.591 h -6.717 v -2.105 c -0.256,1.616 -1.446,2.429 -3.571,2.436 -1.416,-0.019 -2.509,-0.341 -3.278,-0.967 -0.769,-0.625 -1.159,-1.438 -1.168,-2.439 0,-0.723 0.144,-1.302 0.434,-1.736 0.29,-0.433 0.726,-0.779 1.307,-1.036 0.582,-0.258 1.31,-0.485 2.185,-0.68 0.865,-0.188 1.618,-0.386 2.258,-0.595 0.641,-0.208 1.157,-0.506 1.55,-0.895 v -1.325 c 0.019,-0.879 -0.073,-1.515 -0.276,-1.906 -0.202,-0.392 -0.631,-0.584 -1.286,-0.577 -0.65,0.004 -1.076,0.138 -1.277,0.402 -0.299,0.351 -0.906,1.612 -1.821,3.784 h -1.844 z m -10.165,7.052 h 0.473 c 0.951,0.018 1.568,-0.29 1.848,-0.925 0.28,-0.635 0.405,-1.706 0.375,-3.213 0.024,-1.312 -0.1,-2.254 -0.372,-2.827 -0.272,-0.572 -0.834,-0.852 -1.685,-0.839 h -0.639 v 7.804 z m 0,-8.419 h 0.591 c 0.673,0.012 1.132,-0.254 1.378,-0.798 0.246,-0.544 0.363,-1.437 0.349,-2.679 0.02,-1.173 -0.097,-2.024 -0.352,-2.554 -0.254,-0.529 -0.768,-0.789 -1.54,-0.78 h -0.426 v 6.811 z m 1.348,-7.402 h 0.544 c 0.84,-0.008 1.585,0.013 2.235,0.062 0.65,0.048 1.206,0.17 1.667,0.363 1.573,0.678 2.353,1.829 2.342,3.453 -0.008,2.314 -1.672,3.575 -4.99,3.784 3.756,0.284 5.632,1.703 5.628,4.257 0.004,1.646 -0.701,2.811 -2.116,3.497 -1.416,0.685 -3.564,1.017 -6.445,0.996 h -7.591 v -0.591 h 1.371 v -15.23 h -1.371 v -0.591 h 8.726 z m 60.987,15.88 c 0.457,0.002 0.777,-0.059 1.03,-0.199 0.191,-0.071 0.355,-0.165 0.49,-0.282 0.343,-0.297 0.567,-0.747 0.672,-1.349 0.093,-0.536 0.14,-1.197 0.142,-1.982 0.021,-0.434 0.029,-0.913 0.026,-1.438 V 268.51 h -1.45 v -0.591 h 4.569 v 0.591 h -1.301 v 10.619 c 0.002,0.08 -0.001,0.16 -0.008,0.239 -0.018,0.768 -0.083,1.445 -0.196,2.032 -0.15,0.784 -0.494,1.439 -1.032,1.966 -0.938,0.891 -2.657,1.332 -5.155,1.325 -0.147,0.001 -0.272,-0.012 -0.376,-0.034 -2.201,-0.056 -3.734,-0.495 -4.601,-1.319 -0.537,-0.526 -0.882,-1.182 -1.032,-1.966 -0.15,-0.783 -0.216,-1.728 -0.197,-2.834 V 268.51 h -1.372 v -0.591 h 9.034 v 0.591 h -1.632 v 11.21 c -0.01,0.914 0.037,1.672 0.141,2.274 0.105,0.602 0.328,1.052 0.672,1.348 0.344,0.298 0.869,0.446 1.576,0.446 z"
   clip-path="url(#SVGID_40_)"
   transform="matrix(6.4978793,0,0,6.4978793,-774.14434,-1734.8883)" />
</svg>