<?xml version="1.0" encoding="UTF-8" standalone="no"?>
<svg
   xmlns:dc="http://purl.org/dc/elements/1.1/"
   xmlns:cc="http://creativecommons.org/ns#"
   xmlns:rdf="http://www.w3.org/1999/02/22-rdf-syntax-ns#"
   xmlns:svg="http://www.w3.org/2000/svg"
   xmlns="http://www.w3.org/2000/svg"
   xmlns:sodipodi="http://sodipodi.sourceforge.net/DTD/sodipodi-0.dtd"
   xmlns:inkscape="http://www.inkscape.org/namespaces/inkscape"
   version="1.1"
   id="Layer_1"
   x="0px"
   y="0px"
   width="736"
   height="165"
   viewBox="0 0 736 165"
   enable-background="new 0 0 612 792"
   xml:space="preserve">
<path
   style="fill:#ee2a24;fill-rule:evenodd"
   id="path7"
   d="m 728.80953,104.95515 c 1.70444,0 3.1618,0.60305 4.36789,1.80495 1.2019,1.20609 1.80076,2.65926 1.80076,4.3637 0,1.71701 -0.59886,3.18274 -1.80076,4.39302 -1.19771,1.21028 -2.65507,1.81751 -4.36789,1.81751 -1.71281,0 -3.17017,-0.60723 -4.36789,-1.81751 -1.19353,-1.21028 -1.7882,-2.67601 -1.7882,-4.39302 0,-1.70444 0.59886,-3.15761 1.79658,-4.3637 1.20609,-1.20609 2.65926,-1.80495 4.35951,-1.80495 l 0,0 z m 7.19048,6.16028 c 0,-1.97665 -0.70355,-3.66434 -2.0981,-5.0547 -1.39873,-1.38616 -3.0906,-2.08134 -5.07563,-2.08134 -1.97246,0 -3.65177,0.69518 -5.04631,2.08134 -1.39455,1.39873 -2.0981,3.08224 -2.0981,5.0547 0,1.9934 0.69518,3.68527 2.08134,5.084 1.39036,1.39873 3.07805,2.0981 5.06307,2.0981 1.98503,0 3.6769,-0.69937 5.07563,-2.0981 1.39455,-1.4071 2.0981,-3.09898 2.0981,-5.084 l 0,0 z m -5.26827,-1.55787 c 0,0.60723 -0.2764,1.00926 -0.82081,1.22284 -0.28896,0.11726 -0.73706,0.17589 -1.32754,0.17589 h -1.26053 v -2.83096 h 1.18934 c 0.77893,0 1.3401,0.0921 1.68769,0.28477 0.35596,0.20101 0.53185,0.58211 0.53185,1.14746 l 0,0 z m -4.79505,-2.39962 v 7.86053 h 1.38617 v -3.09061 h 1.09302 c 0.73705,0 1.25634,0.0838 1.54949,0.25546 0.48997,0.29315 0.74124,0.892 0.74124,1.80076 v 0.6198 l 0.0293,0.25545 c 0.008,0.0335 0.0126,0.0628 0.0209,0.088 0.008,0.0251 0.0126,0.0502 0.0168,0.0754 h 1.30241 l -0.0544,-0.0921 c -0.0293,-0.067 -0.0544,-0.20102 -0.067,-0.41041 -0.008,-0.20939 -0.0168,-0.40622 -0.0168,-0.58629 v -0.57792 c 0,-0.39366 -0.14239,-0.79987 -0.42716,-1.21447 -0.28058,-0.41878 -0.72868,-0.67005 -1.3401,-0.77474 0.48579,-0.0754 0.86269,-0.20521 1.1349,-0.37691 0.51091,-0.33502 0.77056,-0.85431 0.77056,-1.55368 0,-0.99251 -0.4146,-1.65837 -1.22703,-1.99758 -0.45229,-0.18846 -1.1684,-0.28059 -2.15673,-0.28059 h -2.75558 l 0,0 z"
   clip-rule="evenodd" /><path
   style="fill:#0067b1;fill-rule:evenodd"
   id="path9"
   d="m 587.1944,73.270148 c 7.17791,2.830963 14.2637,5.86294 21.25735,9.108497 -22.29593,9.045679 -43.80873,19.758105 -64.34577,32.032595 -6.93921,-3.65178 -13.99149,-7.10254 -21.14009,-10.33134 20.49098,-11.926897 41.97028,-22.249859 64.22851,-30.809752 l 0,0 z"
   clip-rule="evenodd" /><path
   style="fill:#0067b1;fill-rule:evenodd"
   id="path11"
   d="m 560.6646,63.902007 c -23.12512,7.328676 -45.40429,16.910395 -66.50669,28.535768 6.73401,2.416369 13.38845,5.021189 19.97588,7.801895 20.4491,-12.031588 42.05822,-22.170286 64.54678,-30.215078 -5.94669,-2.186039 -11.95621,-4.229693 -18.01597,-6.122585 l 0,0 z"
   clip-rule="evenodd" /><path
   style="fill:#ee2a24;fill-rule:evenodd"
   id="path13"
   d="m 635.50084,72.369768 c -18.1793,-8.79441 -37.0496,-16.198466 -56.44755,-22.103284 -6.83451,1.964085 -13.60202,4.104058 -20.31509,6.43667 19.98006,5.909007 39.41571,13.396819 58.11849,22.367117 6.16027,-2.357739 12.3708,-4.602408 18.64415,-6.700503 l 0,0 z"
   clip-rule="evenodd" /><path
   style="fill:#ee2a24;fill-rule:evenodd"
   id="path15"
   d="M 665.15894,63.516728 C 646.54411,55.40912 627.33041,48.620673 607.65606,43.230956 c -6.25659,1.285659 -12.47131,2.730454 -18.63577,4.321824 19.49846,5.695428 38.4902,12.898468 56.79514,21.508615 6.3906,-1.980836 12.83983,-3.83185 19.34351,-5.544667 l 0,0 z"
   clip-rule="evenodd" /><path
   style="fill:#ee2a24;fill-rule:evenodd"
   id="path17"
   d="m 712.76601,79.518367 c -46.66481,15.721056 -90.37303,38.142613 -129.92275,66.188403 9.88743,6.07233 19.54034,12.50482 28.92105,19.29326 37.28411,-29.56178 78.67647,-54.19869 123.20968,-72.905656 -7.27423,-4.418144 -14.67829,-8.605959 -22.20798,-12.576007 l 0,0 z"
   clip-rule="evenodd" /><path
   style="fill:#ee2a24;fill-rule:evenodd"
   id="path19"
   d="m 680.67898,64.270535 c -48.50327,12.823088 -94.12113,33.527642 -135.22871,60.798685 9.26763,4.55635 18.351,9.43934 27.25848,14.59454 40.29934,-27.88247 85.0252,-49.604664 132.71603,-63.94374 -8.12018,-4.070556 -16.37436,-7.889843 -24.7458,-11.449485 l 0,0 z"
   clip-rule="evenodd" /><path
   style="fill:#0067b1;fill-rule:evenodd"
   id="path21"
   d="m 184.59467,16.466634 c 11.7887,0 17.65164,8.664588 17.65164,20.38628 0,12.182352 -5.62423,20.687803 -17.65164,20.687803 -12.0274,0 -17.65582,-8.505451 -17.65582,-20.687803 0,-11.721692 5.85875,-20.38628 17.65582,-20.38628 l 0,0 z m 0,33.10886 c 3.12411,0 4.52703,-2.810023 4.52703,-12.72258 0,-9.070806 -0.93388,-12.425245 -4.52703,-12.425245 -3.59733,0 -4.53121,3.354439 -4.53121,12.425245 0,9.912557 1.40292,12.72258 4.53121,12.72258 l 0,0 z"
   clip-rule="evenodd" /><path
   style="fill:#0067b1;fill-rule:evenodd"
   id="path23"
   d="m 210.3958,26.395942 h -5.15939 v -8.894918 h 5.15939 v -4.376266 c 0,-9.6068464 4.76154,-13.124610544 13.11623,-13.124610544 2.50013,0 4.37208,0.234517604 6.40317,0.473223024 V 10.155597 c -0.69936,-0.1591366 -1.64162,-0.3140857 -2.3368,-0.3140857 -3.33769,0 -4.5354,1.3065977 -4.5354,3.6769007 v 3.982612 h 6.8722 v 8.894918 H 223.043 V 56.703154 H 210.39161 V 26.395942 l 0.004,0 z"
   clip-rule="evenodd" /><path
   style="fill:#0067b1;fill-rule:evenodd"
   id="path25"
   d="m 62.875849,28.422844 c 0,-2.340988 -1.09302,-3.898855 -3.283247,-3.898855 -3.02779,0 -4.00355,2.877028 -4.141748,5.155199 L 44.44109,27.409393 c 1.407105,-7.730706 8.438446,-10.854815 15.620547,-10.854815 7.575757,0 15.457223,3.287434 15.457223,11.952022 v 21.868767 c 0,4.451647 0.707741,5.779184 1.176776,6.3236 H 63.654782 c -0.242893,-1.09302 -0.322462,-2.944034 -0.397842,-3.593145 -2.160912,2.278171 -5.892255,4.334388 -9.627786,4.334388 -6.306848,0 -11.114459,-4.259007 -10.917632,-11.470424 0.276396,-10.19314 11.797073,-13.212554 20.160139,-14.179939 v -3.367003 l 0.0042,0 z m 0,9.456085 c -4.42652,0.422969 -7.734894,2.098095 -7.734894,7.110909 0,2.726267 1.407106,4.150124 3.668526,4.150124 1.440608,0 2.981724,-1.013451 4.066368,-2.441496 v -8.819537 l 0,0 z"
   clip-rule="evenodd" /><path
   style="fill:#0067b1;fill-rule:evenodd"
   id="path27"
   d="M 95.570116,28.6783 V 56.703154 H 82.914541 v -39.20213 h 12.374991 l 0.07119,3.999363 h 0.163325 c 2.609008,-2.655075 6.08908,-4.941621 11.02652,-4.941621 5.53629,0 8.70227,3.739718 8.70227,9.133623 V 56.703154 H 102.60146 V 29.704315 c 0,-2.223729 -0.79988,-3.463323 -2.914723,-3.463323 -1.428044,0 -2.96916,0.933883 -4.116621,2.437308 l 0,0 z"
   clip-rule="evenodd" /><polygon
   style="fill:#0067b1;fill-rule:evenodd"
   id="polygon29"
   points="246.901,380.502 246.901,380.502 249.921,380.502 249.921,387.245 249.958,387.245 252.181,384.419 255.186,384.419 252.659,387.299 255.199,393.78 252.066,393.78 250.595,389.694 250.557,389.694 249.921,390.426 249.921,393.78 246.901,393.78 "
   clip-rule="evenodd"
   transform="matrix(4.1878144,0,0,4.1878144,-910.86638,-1592.3744)" /><path
   style="fill:#0067b1;fill-rule:evenodd"
   id="path31"
   d="m 29.22676,27.77792 c 6.022077,1.9934 10.389967,6.926645 10.389967,14.037554 0,9.527278 -7.642761,14.88768 -18.191865,14.88768 H 3.2575999e-6 V 1.0973548 H 21.973465 c 9.862303,0 16.324101,5.9006305 16.324101,13.5852702 0,7.270046 -5.037941,11.09352 -9.070806,12.66395 v 0.431345 l 0,0 z M 13.656466,46.392755 h 5.1552 c 3.044541,0 7.089969,-1.331725 7.089969,-7.03134 0,-4.141748 -2.562942,-6.868016 -7.089969,-6.868016 h -5.1552 v 13.899356 l 0,0 z m 0,-23.271684 h 4.602408 c 5.079819,0 7.094158,-2.734643 7.094158,-6.01789 0,-5.314336 -3.580582,-6.16865 -6.780072,-6.16865 h -4.920682 v 12.18654 l 0.0042,0 z"
   clip-rule="evenodd" /><path
   style="fill:#0067b1;fill-rule:evenodd"
   id="path33"
   d="m 486.33089,28.422844 c 0,-2.340988 -1.09302,-3.898855 -3.27487,-3.898855 -3.03617,0 -4.00355,2.877028 -4.14175,5.155199 l -11.00558,-2.269795 c 1.40292,-7.730706 8.42589,-10.854815 15.61636,-10.854815 7.57576,0 15.46141,3.287434 15.46141,11.952022 v 21.868767 c 0,4.451647 0.70356,5.779184 1.17259,6.3236 h -13.04504 c -0.23033,-1.09302 -0.3099,-2.944034 -0.38528,-3.593145 -2.17347,2.278171 -5.90063,4.334388 -9.63197,4.334388 -6.31104,0 -11.11865,-4.259007 -10.91763,-11.470424 0.26802,-10.19314 11.79707,-13.212554 20.15595,-14.179939 v -3.367003 l -0.004,0 z m 0,9.456085 c -4.42652,0.422969 -7.73071,2.098095 -7.73071,7.110909 0,2.726267 1.40292,4.150124 3.66853,4.150124 1.44061,0 2.98591,-1.013451 4.06218,-2.441496 v -8.819537 l 0,0 z"
   clip-rule="evenodd" /><path
   style="fill:#0067b1;fill-rule:evenodd"
   id="path35"
   d="m 356.28669,39.813699 c -0.17589,3.492637 0.73705,9.296948 5.842,9.296948 3.04873,0 5.62005,-2.232105 6.26497,-5.389717 l 8.50964,3.124109 c -0.5486,1.792385 -4.45165,10.699866 -15.70012,10.699866 -12.10697,0 -17.57207,-9.761795 -17.57207,-20.620798 0,-11.080957 5.78338,-20.457473 17.42131,-20.457473 12.17817,0 16.40367,10.46116 16.40367,20.696178 v 2.650887 h -21.1694 l 0,0 z m 9.44771,-7.492 c 0.10888,-3.643399 -0.38947,-7.89403 -4.76573,-7.89403 -3.58896,0 -4.883,4.192002 -4.68198,7.89403 h 9.44771 l 0,0 z"
   clip-rule="evenodd" /><polygon
   style="fill:#0067b1;fill-rule:evenodd"
   id="polygon37"
   points="315.782,384.419 315.782,384.419 318.802,384.419 318.802,393.78 315.782,393.78 "
   clip-rule="evenodd"
   transform="matrix(4.1878144,0,0,4.1878144,-910.86638,-1592.3744)" /><polygon
   style="fill:#0067b1;fill-rule:evenodd"
   id="polygon39"
   points="315.782,380.502 315.782,380.502 318.802,380.502 318.802,383.188 315.782,383.188 "
   clip-rule="evenodd"
   transform="matrix(4.1878144,0,0,4.1878144,-910.86638,-1592.3744)" /><path
   style="fill:#0067b1;fill-rule:evenodd"
   id="path41"
   d="m 452.28815,32.003425 c 0,-1.553679 -0.0796,-3.42982 -0.62399,-4.916494 -0.61979,-1.562055 -1.63743,-2.655074 -3.66852,-2.655074 -4.21713,0 -4.68617,5.151011 -4.68617,12.965473 0,8.823725 1.40292,11.713317 4.68617,11.713317 4.45164,0 4.84111,-4.539591 4.84111,-7.500376 l 9.83718,1.39873 c -0.93807,9.539842 -6.39898,14.531716 -15.61218,14.531716 -11.4076,0 -17.34174,-9.992125 -17.34174,-19.67854 0,-10.695678 5.93414,-21.399731 17.87778,-21.399731 13.44289,0 15.46979,11.633748 15.46979,15.536791 h -10.77943 l 0,0.0042 z"
   clip-rule="evenodd" /><path
   style="fill:#0067b1;fill-rule:evenodd"
   id="path43"
   d="m 251.91798,1.0973548 h 18.42638 l 11.86827,55.6057992 h -13.66065 l -2.18604,-11.244281 h -12.88591 l -2.42474,11.244281 h -12.18654 l 13.04923,-55.6057992 0,0 z m 3.51776,34.5243422 h 8.97868 l -3.99518,-22.656076 h -0.28477 l -4.69873,22.656076 0,0 z"
   clip-rule="evenodd" /><path
   style="fill:#0067b1;fill-rule:evenodd"
   id="path45"
   d="m 382.65317,17.501024 h 12.24098 l 0.13401,5.297585 h 0.20102 c 2.58806,-4.129185 7.30773,-6.239843 12.17816,-6.239843 V 29.36929 c -1.42805,-0.556979 -2.96916,-1.09302 -5.14682,-1.09302 -3.22881,0 -5.44835,1.273096 -6.95178,3.048729 V 56.707342 H 382.65736 V 17.501024 l -0.004,0 z"
   clip-rule="evenodd" /><path
   style="fill:#0067b1;fill-rule:evenodd"
   id="path47"
   d="M 318.4456,28.741118 V 56.707342 H 306.03292 V 29.838325 c 0,-2.110658 -0.63655,-3.509388 -2.97754,-3.509388 -1.32335,0 -3.21624,0.967385 -4.28832,2.416368 V 56.71153 h -12.4085 V 17.509399 h 12.34987 l 0.0586,3.990988 h 0.15495 c 2.65088,-2.49175 6.61256,-4.933246 11.33222,-4.933246 3.8486,0 6.40317,2.227917 7.60507,5.255707 h 0.15495 c 2.21536,-2.403805 6.00114,-5.255707 11.28616,-5.255707 5.27246,0 8.82792,3.475886 8.82792,8.894918 V 56.71153 H 325.71564 V 29.842513 c 0,-2.110659 -0.63236,-3.509389 -2.94822,-3.509389 -1.6835,-0.0084 -3.49263,1.32335 -4.32182,2.407994 l 0,0 z"
   clip-rule="evenodd" />
</svg>