<?xml version="1.0" encoding="UTF-8" standalone="no"?>
<svg
   xmlns:dc="http://purl.org/dc/elements/1.1/"
   xmlns:cc="http://creativecommons.org/ns#"
   xmlns:rdf="http://www.w3.org/1999/02/22-rdf-syntax-ns#"
   xmlns:svg="http://www.w3.org/2000/svg"
   xmlns="http://www.w3.org/2000/svg"
   xmlns:sodipodi="http://sodipodi.sourceforge.net/DTD/sodipodi-0.dtd"
   xmlns:inkscape="http://www.inkscape.org/namespaces/inkscape"
   version="1.1"
   id="Layer_1"
   x="0px"
   y="0px"
   width="857"
   height="165"
   viewBox="0 0 857 165.00001"
   enable-background="new 0 0 782.362 1128.189"
   xml:space="preserve">
<rect
   x="246.97427"
   y="46.923576"
   width="92.148552"
   height="117.95237"
   id="rect3"
   clip-path="none" /><rect
   x="763.00336"
   y="46.922131"
   width="93.993469"
   height="117.95377"
   id="rect5"
   clip-path="none" /><rect
   x="453.38535"
   y="46.923576"
   width="92.147156"
   height="117.95237"
   id="rect7"
   clip-path="none" /><rect
   x="556.59088"
   y="46.923576"
   width="92.148552"
   height="117.95237"
   id="rect9"
   clip-path="none" /><rect
   x="141.90569"
   y="46.922131"
   width="93.990685"
   height="117.95377"
   id="rect11"
   clip-path="none" /><rect
   x="350.18121"
   y="46.923576"
   width="92.147156"
   height="117.95237"
   id="rect13"
   clip-path="none" /><rect
   x="659.79645"
   y="46.923576"
   width="92.14994"
   height="117.95237"
   id="rect15"
   clip-path="none" /><rect
   style="fill:#ed1c24"
   x="240.5247"
   y="40.472569"
   width="92.148552"
   height="117.94679"
   id="rect17"
   clip-path="none" /><rect
   style="fill:#ed1c24"
   x="756.55518"
   y="40.472569"
   width="93.992073"
   height="117.94679"
   id="rect19"
   clip-path="none" /><rect
   style="fill:#ed1c24"
   x="446.93579"
   y="40.472569"
   width="92.14994"
   height="117.94679"
   id="rect21"
   clip-path="none" /><path
   style="fill:#ffffff"
   inkscape:connector-curvature="0"
   d="m 776.83818,122.58632 h 36.52334 c 4.04126,0 8.51063,-1.77799 8.51063,-8.30006 0,-6.15672 -3.94783,-8.29867 -8.53155,-8.29867 l -16.7061,-0.0293 c -12.45986,-0.42392 -23.46246,-9.308282 -23.46246,-23.084546 0,-13.18639 8.15085,-23.101284 20.91052,-23.101284 h 38.03638 v 15.562618 h -36.00459 c -4.06497,0 -7.52193,2.114062 -7.52193,7.330886 0,4.046838 3.49322,7.329491 7.54006,7.329491 h 17.2904 c 12.82382,0.631708 24.08162,9.849352 24.08162,24.069065 0,13.7177 -8.4702,24.04954 -21.72631,24.09138 h -38.93862"
   id="path23"
   clip-path="none" /><rect
   style="fill:#ed1c24"
   x="135.45474"
   y="40.472569"
   width="93.992073"
   height="117.94679"
   id="rect25"
   clip-path="none" /><polyline
   points="145.87,926.492 165.922,947.378 165.922,969.837 137.361,969.837 137.361,982.476 145.779,973.727   175.604,1004.79 175.604,1038.193 115.91,1038.193 115.91,1004.771 123.477,996.906 87.712,996.906 87.712,969.106 112.555,943.285   125.805,957.085 125.819,947.365 "
   id="polyline27"
   clip-path="none"
   transform="matrix(1.3944998,0,0,1.3944998,-114.16492,-1282.7599)" /><polyline
   style="fill:#ed1c24"
   points="141.343,921.775 161.395,942.658 161.395,965.118 132.834,965.118 132.834,977.758   141.253,969.009 171.077,1000.072 171.077,1033.474 111.384,1033.474 111.384,1000.053 118.949,992.188 83.186,992.188   83.186,964.39 108.028,938.567 121.277,952.367 121.292,942.647 "
   id="polyline29"
   clip-path="none"
   transform="matrix(1.3944998,0,0,1.3944998,-114.16492,-1282.7599)" /><polyline
   style="fill:#ffffff"
   points="155.11,958.515 127.547,958.515 127.547,945.44 141.379,930.967 155.11,945.341 "
   id="polyline31"
   clip-path="none"
   transform="matrix(1.3944998,0,0,1.3944998,-114.16492,-1282.7599)" /><polyline
   style="fill:#ffffff"
   points="125.208,984.02 91.153,984.02 91.153,967.845 108.22,949.939 125.208,967.845 "
   id="polyline33"
   clip-path="none"
   transform="matrix(1.3944998,0,0,1.3944998,-114.16492,-1282.7599)" /><polyline
   style="fill:#ffffff"
   points="161.73,1023.653 161.73,1004.062 141.305,982.68 120.783,1004.208 120.783,1023.653 "
   id="polyline35"
   clip-path="none"
   transform="matrix(1.3944998,0,0,1.3944998,-114.16492,-1282.7599)" /><polyline
   style="fill:#ffffff"
   points="413.183,962.726 424.345,962.726 424.345,987.598 446.467,987.598 446.467,962.726   457.631,962.726 457.631,1018.964 446.467,1018.964 446.467,997.167 424.345,997.167 424.345,1018.964 413.183,1018.964 "
   id="polyline37"
   clip-path="none"
   transform="matrix(1.3944998,0,0,1.3944998,-114.16492,-1282.7599)" /><path
   style="fill:#ffffff"
   inkscape:connector-curvature="0"
   d="m 287.557,78.167317 -9.98601,30.825423 h 19.89672 m 4.49866,12.81545 h -28.41851 l -5.34791,16.33517 H 252.569 l 26.64192,-78.368101 h 17.30993 l 25.94885,78.368101 h -15.71183 l -4.7915,-16.33517 z"
   id="path39"
   clip-path="none" /><rect
   style="fill:#ed1c24"
   x="343.73026"
   y="40.472569"
   width="92.147156"
   height="117.94679"
   id="rect41"
   clip-path="none" /><path
   style="fill:#ffffff"
   inkscape:connector-curvature="0"
   d="m 358.65976,59.773865 h 15.57098 v 48.355675 c 0,4.14724 0,19.44491 15.94332,19.44491 15.94053,0 15.94053,-15.29906 15.94053,-19.44491 V 59.773865 h 15.57377 v 52.501525 c 0,20.9663 -14.58507,29.36677 -31.5143,29.36677 -17.00313,0 -31.5143,-8.39907 -31.5143,-28.0671"
   id="path43"
   clip-path="none" /><rect
   style="fill:#ed1c24"
   x="653.34686"
   y="40.472569"
   width="92.14994"
   height="117.94679"
   id="rect45"
   clip-path="none" /><path
   style="fill:#ffffff"
   inkscape:connector-curvature="0"
   d="m 668.27497,59.773865 h 15.57378 v 48.355675 c 0,4.14724 0,19.44491 15.94052,19.44491 15.94053,0 15.94053,-15.29906 15.94053,-19.44491 V 59.773865 h 15.57377 v 52.501525 c 0,20.9663 -14.58228,29.36677 -31.5143,29.36677 -17.00034,0 -31.5143,-8.39907 -31.5143,-28.0671"
   id="path47"
   clip-path="none" /><path
   style="fill:#ffffff"
   inkscape:connector-curvature="0"
   d="m 169.50283,103.64901 v 21.46135 h 19.24689 c 0.24404,0 10.81714,0.12969 10.81714,-10.03621 0,-10.16312 -9.06704,-11.42374 -10.81714,-11.42374 m 1.5465,-43.914197 c 10.61214,0 23.23655,5.854111 23.23655,19.761457 0,7.551217 -4.71899,14.110944 -11.65523,17.43822 7.95841,3.38585 13.49458,10.91614 13.49458,19.66105 0,13.2603 -12.71087,21.56036 -25.38129,21.56036 H 153.90257 V 59.737608 h 36.39365 z m -20.79339,12.609068 v 19.43096 h 19.24689 c 2.92845,0 9.31247,-3.0679 9.31247,-10.336033 0,-8.113199 -8.47577,-9.093533 -9.31247,-9.093533 h -19.24689 z"
   id="path49"
   clip-path="none" /><rect
   style="fill:#ed1c24"
   x="550.1441"
   y="40.472569"
   width="92.14576"
   height="117.94679"
   id="rect51"
   clip-path="none" /><path
   style="fill:#ffffff"
   inkscape:connector-curvature="0"
   d="m 597.17361,78.167317 -9.98741,30.825423 h 19.90091 m 4.49447,12.81545 h -28.41711 l -5.34652,16.33517 h -15.62816 l 26.64053,-78.368101 h 17.30993 l 25.94885,78.368101 h -15.71602 l -4.7915,-16.33517 z"
   id="path53"
   clip-path="none" /><path
   style="fill:#ffffff"
   inkscape:connector-curvature="0"
   d="m 829.35225,51.936776 c 0,5.56266 4.42335,9.729425 9.70014,9.729425 5.25029,0 9.64854,-4.165371 9.64854,-9.729425 0,-5.456678 -4.39825,-9.622049 -9.64854,-9.622049 -5.27679,0 -9.70014,4.165371 -9.70014,9.622049 m 1.75149,0 c 0,-4.628345 3.44442,-8.199659 7.94865,-8.199659 4.44985,0 7.90124,3.571314 7.90124,8.199659 0,4.735721 -3.45139,8.305641 -7.90124,8.305641 -4.50423,0 -7.95004,-3.56992 -7.94865,-8.305641 m 4.19187,5.692348 h 1.7487 v -4.862621 h 1.8519 l 3.06232,4.862621 h 1.88118 L 840.6226,52.63542 c 1.672,-0.181284 2.95773,-1.034718 2.95773,-3.08045 0,-2.169841 -1.26202,-3.231056 -3.93667,-3.231056 h -4.34805 v 11.30521 z m 1.7487,-9.88282 h 2.31766 c 1.17975,0 2.47384,0.232882 2.47384,1.734758 0,1.783565 -1.4196,1.860263 -2.96192,1.860263 h -1.83097 v -3.595021 z"
   id="path55"
   clip-path="none" /><path
   style="fill:#ffffff"
   inkscape:connector-curvature="0"
   d="M 82.816544,65.866435 124.39495,109.1782 v 2.65653 L 82.815149,68.521562 71.07625,80.723435 V 78.078069 M 51.709437,100.84607 41.16144,111.8152 v 46.60419 h -1.839345 v -47.34327 l 9.835407,-10.23005 h 2.551935 z M 110.90456,31.791832 82.942049,2.6551531 54.96141,31.761153 V 45.31848 L 36.484288,26.074383 1.8393349,62.081762 V 100.84467 H -1.03736e-5 V 61.339888 L 36.484288,23.417861 53.122065,40.74731 V 31.020674 L 82.944838,2.55258e-5 110.90456,29.136704 v 2.655128 z"
   id="path57"
   clip-path="none" /><polyline
   style="fill:#ffffff"
   points="253.031,1033.474 253.031,947.575 320.428,947.575 320.428,948.895 254.352,948.895   254.352,1033.474 "
   id="polyline59"
   clip-path="none"
   transform="matrix(1.3944998,0,0,1.3944998,-114.16492,-1282.7599)" /><polyline
   style="fill:#ffffff"
   points="177.686,1033.474 177.686,947.574 246.412,947.574 246.412,948.894 179.006,948.894   179.006,1033.474 "
   id="polyline61"
   clip-path="none"
   transform="matrix(1.3944998,0,0,1.3944998,-114.16492,-1282.7599)" /><polyline
   style="fill:#ffffff"
   points="253.031,1033.474 253.031,947.575 320.428,947.575 320.428,948.895 254.352,948.895   254.352,1033.474 "
   id="polyline63"
   clip-path="none"
   transform="matrix(1.3944998,0,0,1.3944998,-114.16492,-1282.7599)" /><polyline
   style="fill:#ffffff"
   points="327.042,1033.474 327.042,947.575 394.439,947.575 394.439,948.895 328.361,948.895   328.361,1033.474 "
   id="polyline65"
   clip-path="none"
   transform="matrix(1.3944998,0,0,1.3944998,-114.16492,-1282.7599)" /><polyline
   style="fill:#ffffff"
   points="401.048,1033.474 401.048,947.575 468.447,947.575 468.447,948.895 402.371,948.895   402.371,1033.474 "
   id="polyline67"
   clip-path="none"
   transform="matrix(1.3944998,0,0,1.3944998,-114.16492,-1282.7599)" /><polyline
   style="fill:#ffffff"
   points="475.061,1033.474 475.061,947.575 542.458,947.575 542.458,948.895 476.38,948.895   476.38,1033.474 "
   id="polyline69"
   clip-path="none"
   transform="matrix(1.3944998,0,0,1.3944998,-114.16492,-1282.7599)" /><polyline
   style="fill:#ffffff"
   points="549.068,1033.474 549.068,947.575 616.466,947.575 616.466,948.895 550.388,948.895   550.388,1033.474 "
   id="polyline71"
   clip-path="none"
   transform="matrix(1.3944998,0,0,1.3944998,-114.16492,-1282.7599)" /><polyline
   style="fill:#ffffff"
   points="623.078,1033.474 623.078,947.575 691.791,947.575 691.791,948.895 624.398,948.895   624.398,1033.474 "
   id="polyline73"
   clip-path="none"
   transform="matrix(1.3944998,0,0,1.3944998,-114.16492,-1282.7599)" />
</svg>