<?xml version="1.0" encoding="UTF-8" standalone="no"?>
<svg
   xmlns:dc="http://purl.org/dc/elements/1.1/"
   xmlns:cc="http://creativecommons.org/ns#"
   xmlns:rdf="http://www.w3.org/1999/02/22-rdf-syntax-ns#"
   xmlns:svg="http://www.w3.org/2000/svg"
   xmlns="http://www.w3.org/2000/svg"
   xmlns:sodipodi="http://sodipodi.sourceforge.net/DTD/sodipodi-0.dtd"
   xmlns:inkscape="http://www.inkscape.org/namespaces/inkscape"
   version="1.1"
   width="183.46001"
   height="183.46001"
   id="svg17468"
   inkscape:version="0.48.4 r9939"
   sodipodi:docname="Bayer old logo.svg">
  <metadata
     id="metadata3011">
    <rdf:RDF>
      <cc:Work
         rdf:about="">
        <dc:format>image/svg+xml</dc:format>
        <dc:type
           rdf:resource="http://purl.org/dc/dcmitype/StillImage" />
      </cc:Work>
    </rdf:RDF>
  </metadata>
  <sodipodi:namedview
     pagecolor="#ffffff"
     bordercolor="#666666"
     borderopacity="1"
     objecttolerance="10"
     gridtolerance="10"
     guidetolerance="10"
     inkscape:pageopacity="0"
     inkscape:pageshadow="2"
     inkscape:window-width="1280"
     inkscape:window-height="750"
     id="namedview3009"
     showgrid="false"
     inkscape:zoom="2"
     inkscape:cx="243.46695"
     inkscape:cy="37.100855"
     inkscape:window-x="-8"
     inkscape:window-y="-8"
     inkscape:window-maximized="1"
     inkscape:current-layer="svg17468" />
  <defs
     id="defs17470" />
  <path
     style="fill:#000000;fill-opacity:1;fill-rule:nonzero;stroke:none"
     d="M 91.729954,2.7722266e-5 C 41.060521,2.7722266e-5 0,41.060532 0,91.729977 c 0,50.663193 41.060521,91.729933 91.729954,91.729933 50.663226,0 91.729956,-41.06674 91.729956,-91.729933 C 183.45991,41.060532 142.39318,2.7722266e-5 91.729954,2.7722266e-5 z M 89.511785,6.2109002 c 0.736021,-0.0186 1.477647,0 2.218169,0 47.387186,0 85.826206,38.2561948 85.826206,85.5190768 0,47.262863 -38.43902,85.621423 -85.826206,85.621423 -47.393439,0 -85.7920767,-38.35856 -85.7920767,-85.621423 0,-46.524407 37.2042477,-84.3487618 83.5739077,-85.5190768 z m -12.763027,5.1529898 0,29.416376 20.850817,0 c 0,0 9.589345,0.47441 9.589345,-9.316328 0,0 -0.0955,-4.420834 -3.78796,-6.07437 0,0 3.17368,-1.452371 3.17368,-6.176771 0,0 -0.40867,-7.848907 -9.111568,-7.848907 l -20.714314,0 z m 6.210887,6.688642 13.957415,0 c 0,0 3.13957,-0.246915 3.13957,2.388791 0,2.735208 -3.13957,2.286429 -3.13957,2.286429 l -13.957415,0.0682 0,-4.743481 z m 0,11.159118 14.162175,0 c 0,0 3.27607,-0.352858 3.27607,2.525293 0,2.884372 -3.27607,2.525314 -3.27607,2.525314 l -14.162175,0 0,-5.050607 z m 4.504596,14.776434 -14.025676,29.006868 7.200531,0 2.252293,-4.67522 16.823986,0 2.184045,4.67522 7.54178,0 -14.230417,-29.006868 -7.746542,0 z m 3.924461,6.279134 5.460112,11.773381 -10.886105,0 5.425993,-11.773381 z m -79.001062,25.730798 0,29.075094 20.919068,0 c 0,0 10.408347,0.39257 10.408347,-8.770294 0,0 0.525056,-4.495277 -3.173692,-6.142623 0,0 2.832434,-0.94043 2.832434,-5.66487 0,0 0.65611,-8.497307 -10.067089,-8.497307 l -20.919068,0 z m 46.513361,0 -14.776438,29.075094 7.575918,0 2.047543,-4.36809 17.438238,0 2.047544,4.36809 7.814798,0 -14.912949,-29.075094 -7.234654,0 z m 12.626524,0 17.165242,18.393764 0,10.68133 6.586262,0 0,-11.090839 15.049451,-17.984255 -8.2243,0 -10.442473,12.455891 -11.363874,-12.455891 -8.770308,0 z m 39.756475,0 0,29.006844 25.59429,0 0,-6.654504 -18.97391,0 0,-5.0506 18.97391,0 0,-6.006124 -18.97391,0 0,-5.016472 18.97391,0 0,-6.279144 -25.59429,0 z m 32.35119,0 0,29.075094 6.62038,0 0,-10.68133 5.76727,0 8.19016,10.68133 7.9513,0 -8.29256,-10.749582 c 0,0 9.04333,-0.274736 9.04333,-9.282194 0.0557,-1.566553 -0.71849,-9.043318 -9.65759,-9.043318 l -19.62229,0 z m -124.558907,6.347395 14.844688,0 c 0,0 3.10851,-0.212964 3.139567,2.491169 0,2.728908 -3.139567,2.525304 -3.139567,2.525304 l -14.844688,0 0,-5.016473 z m 131.179287,0 13.00191,0 c 0,0 3.07677,-0.163783 3.07132,2.764175 0.007,2.921692 -3.07132,2.934812 -3.07132,2.934812 l -13.00191,0 0,-5.698987 z m -87.87374,0.614259 5.596619,11.568612 -11.022612,0 5.425993,-11.568612 z m -43.305547,10.408338 14.844688,0 c 0,0 3.27607,-0.316217 3.27607,2.866557 0,2.704129 -3.27607,2.525296 -3.27607,2.525296 l -14.844688,0 0,-5.391853 z m 57.604228,14.912922 0,28.93862 28.597369,0 0,-6.27915 -21.908726,0 0,-4.87996 21.908726,0 0,-6.3474 -21.908726,0 0,-4.81172 21.908726,0 0,-6.62039 -28.597369,0 z m 0.06823,33.57971 0,29.00687 6.620396,0 0,-10.68135 7.40528,0 8.258426,10.68135 7.814787,0 -8.360798,-10.95435 c 0,0 8.156038,-0.778 8.156038,-9.4187 0,-2.67306 -1.08083,-8.63382 -8.70205,-8.63382 l -21.192079,0 z m 6.620396,5.972 13.47966,0 c 0,0 3.344313,-0.0493 3.344313,3.07133 0.0131,2.9218 -3.344313,3.00306 -3.344313,3.00306 l -13.47966,0 0,-6.07439 z"
     id="path8364"
     inkscape:connector-curvature="0" />
</svg>
