<?xml version="1.0" encoding="UTF-8" standalone="no"?>
<!-- Generator: Adobe Illustrator 15.0.2, SVG Export Plug-In . SVG Version: 6.00 Build 0)  -->

<svg
   xmlns:dc="http://purl.org/dc/elements/1.1/"
   xmlns:cc="http://creativecommons.org/ns#"
   xmlns:rdf="http://www.w3.org/1999/02/22-rdf-syntax-ns#"
   xmlns:svg="http://www.w3.org/2000/svg"
   xmlns="http://www.w3.org/2000/svg"
   xmlns:sodipodi="http://sodipodi.sourceforge.net/DTD/sodipodi-0.dtd"
   xmlns:inkscape="http://www.inkscape.org/namespaces/inkscape"
   version="1.1"
   x="0px"
   y="0px"
   width="517px"
   height="142px"
   viewBox="0 0 517 142"
   enable-background="new 0 0 517 142"
   xml:space="preserve"
   id="svg2"
   inkscape:version="0.48.0 r9654"
   sodipodi:docname="BBC_logo_(70s).svg"><metadata
   id="metadata21"><rdf:RDF><cc:Work
       rdf:about=""><dc:format>image/svg+xml</dc:format><dc:type
         rdf:resource="http://purl.org/dc/dcmitype/StillImage" /></cc:Work></rdf:RDF></metadata><defs
   id="defs19" /><sodipodi:namedview
   pagecolor="#ffffff"
   bordercolor="#666666"
   borderopacity="1"
   objecttolerance="10"
   gridtolerance="10"
   guidetolerance="10"
   inkscape:pageopacity="0"
   inkscape:pageshadow="2"
   inkscape:window-width="1858"
   inkscape:window-height="1058"
   id="namedview17"
   showgrid="false"
   inkscape:zoom="0.6975328"
   inkscape:cx="-62.087878"
   inkscape:cy="194.53848"
   inkscape:window-x="54"
   inkscape:window-y="-8"
   inkscape:window-maximized="1"
   inkscape:current-layer="svg2" />
<g
   id="Layer_1">
</g>
<g
   id="Layer_2">
	<polygon
   fill="#fff"
   stroke="#000"
   stroke-width="7"
   stroke-miterlimit="10"
   points="182.75,3.5 40.765,3.5 4.562,138.614    146.546,138.614  "
   id="polygon6" />
	<polygon
   fill="#fff"
   stroke="#000"
   stroke-width="7"
   stroke-miterlimit="10"
   points="349.028,3.5 207.043,3.5    170.84,138.614 312.824,138.614  "
   id="polygon8" />
	<polygon
   stroke-miterlimit="10"
   points="512.64,3.5 370.655,3.5    334.452,138.614 476.436,138.614  "
   id="polygon10"
   stroke-width="7"
   stroke="#000"
   fill="#fff" />
	<path
   d="M120.188,22.314c-3.716,0-51.5,0-51.5,0l-28.793,96.453c0,0,28.013,0,59.815,0c27.891-0.419,42.673-15.136,43.442-30.29   c0.77-15.155-10.261-18.601-13.84-19.74c24.119-3.383,22.181-22.625,22.181-26.875C151.493,35.381,147.968,22.314,120.188,22.314z    M110.077,85.767c-0.675,5.489-2.439,8.75-10.367,9.251c-3.334-0.028-25.245,0-25.245,0l5.118-17.907c0,0,18.683,0,23.065,0   C108.649,77.708,110.752,80.277,110.077,85.767z M119.188,52.971c-0.692,4.214-4.94,6.443-9.949,7.345c-3.961,0-24.18,0-24.18,0   l5.121-15.323c0,0,20.608,0,22.304,0C114.651,44.993,120.157,47.059,119.188,52.971z"
   id="path12" />
	<path
   d="M284.41,22.314c-3.717,0-51.501,0-51.501,0l-28.793,96.453c0,0,28.013,0,59.815,0c27.891-0.419,42.673-15.136,43.443-30.29   c0.77-15.155-10.261-18.601-13.841-19.74c24.12-3.383,22.183-22.625,22.183-26.875C315.715,35.381,312.189,22.314,284.41,22.314z    M274.297,85.767c-0.674,5.489-2.438,8.75-10.367,9.251c-3.334-0.028-25.245,0-25.245,0l5.118-17.907c0,0,18.683,0,23.065,0   C272.87,77.708,274.974,80.277,274.297,85.767z M283.409,52.971c-0.692,4.214-4.94,6.443-9.949,7.345c-3.961,0-24.179,0-24.179,0   l5.121-15.323c0,0,20.608,0,22.303,0C278.874,44.993,284.379,47.059,283.409,52.971z"
   id="path14" />
	
</g>
<path
   style="fill:#000000"
   inkscape:connector-curvature="0"
   id="p1"
   d="m 427.94902,100.12705 c -6.38726,6.38724 -17.47697,3.0648 -20.60843,-0.178804 -6.58231,-6.80988 2.35367,-36.334773 4.61388,-40.362669 3.27612,-5.837848 7.3032,-18.852112 19.09187,-18.852112 11.56922,0 13.10691,5.802088 13.10691,19.989936 2.30084,0 24.20313,-0.94927 29.55741,-0.772095 2.99816,-16.760142 -3.69468,-36.789901 -32.05818,-38.38448 -23.63016,-1.328003 -36.37297,-0.366542 -53.46471,21.727555 -9.84299,12.724119 -14.67467,32.710804 -15.00302,50.689225 -0.29583,16.131894 11.24577,29.626484 39.34594,29.626484 11.30916,0 31.14061,-2.89007 38.99403,-11.01495 6.50835,-6.7351 10.03561,-7.94769 16.18311,-31.093455 -7.10571,-0.177988 -28.92429,-0.01625 -28.92429,-0.01625 0,0 -1.65391,9.461001 -10.83452,18.641625 z" /></svg>