<?xml version="1.0" encoding="UTF-8" standalone="no"?>
<svg
   xmlns:dc="http://purl.org/dc/elements/1.1/"
   xmlns:cc="http://creativecommons.org/ns#"
   xmlns:rdf="http://www.w3.org/1999/02/22-rdf-syntax-ns#"
   xmlns:svg="http://www.w3.org/2000/svg"
   xmlns="http://www.w3.org/2000/svg"
   xmlns:sodipodi="http://sodipodi.sourceforge.net/DTD/sodipodi-0.dtd"
   xmlns:inkscape="http://www.inkscape.org/namespaces/inkscape"
   width="798"
   height="235"
   id="svg2"
   sodipodi:version="0.32"
   inkscape:version="0.47 r22583"
   version="1.0">
  <g
     inkscape:label="Layer 1"
     inkscape:groupmode="layer"
     id="layer1"
     transform="translate(-41.956676,-735.49481)">
    <path
       style="fill:#b5b5b5;fill-opacity:1;fill-rule:evenodd;stroke:none"
       d="m 317.29495,735.49714 -199.46711,0 -60.914886,188.64447 199.467116,0 60.91488,-188.64447 z"
       id="path2910" />
    <path
       style="fill:#ffffff;fill-opacity:1;fill-rule:evenodd;stroke:none"
       d="m 215.53215,822.36003 c 8.69944,3.34449 15.4448,11.08569 10.54079,27.05657 -6.65141,21.7204 -28.95429,32.9752 -48.10058,32.9752 l -61.55372,0 33.25704,-108.52693 59.43053,0 c 28.57851,0 29.72466,16.1024 26.3238,27.20686 -3.36329,10.95417 -10.50322,16.87281 -19.89786,21.2883"
       id="path2199" />
    <path
       style="fill:#b5b5b5;fill-opacity:1;fill-rule:evenodd;stroke:none"
       d="m 192.83469,799.70014 -17.64315,0 -5.03553,16.42184 17.64315,0 c 6.98961,0 12.00635,-1.97289 14.14833,-8.96249 1.67225,-5.46768 -2.29229,-7.45935 -9.1128,-7.45935"
       id="path2201" />
    <path
       style="fill:#b5b5b5;fill-opacity:1;fill-rule:evenodd;stroke:none"
       d="m 184.94318,836.33924 -20.96885,0 -6.20046,20.21729 19.61602,0 c 6.98961,0 13.65981,-1.97289 16.23395,-10.33413 1.95408,-6.38834 -0.77036,-9.88316 -8.68066,-9.88316"
       id="path2203" />
    <path
       style="fill:#00adde;fill-opacity:1;fill-rule:evenodd;stroke:none"
       d="m 41.956676,970.4948 199.467114,0 7.47814,-23.16722 -199.467115,0 -7.478139,23.16722"
       id="path2205" />
    <path
       style="fill:#d60031;fill-opacity:1;fill-rule:evenodd;stroke:none"
       d="m 303.27814,970.4948 199.46711,0 7.47816,-23.16722 -199.46713,0 -7.47814,23.16722"
       id="path2207" />
    <path
       style="fill:#b5b5b5;fill-opacity:1;fill-rule:evenodd;stroke:none"
       d="m 578.61641,735.49714 -199.46715,0 -60.91484,188.64447 199.48589,0 60.8961,-188.64447 z"
       id="path2894" />
    <path
       style="fill:#ffffff;fill-opacity:1;fill-rule:evenodd;stroke:none"
       d="m 484.31296,822.36003 c 8.69946,3.34449 15.4448,11.08569 10.55957,27.05657 -6.65138,21.7204 -28.95431,32.9752 -48.1006,32.9752 l -61.55374,0 33.25706,-108.52693 59.41173,0 c 28.59735,0 29.72468,16.1024 26.32382,27.20686 -3.34448,10.95417 -10.48442,16.87281 -19.89784,21.2883"
       id="path2213" />
    <path
       style="fill:#b5b5b5;fill-opacity:1;fill-rule:evenodd;stroke:none"
       d="m 461.61547,799.70014 -17.62436,0 -5.03553,16.42184 17.62436,0 c 7.00839,0 12.00636,-1.97289 14.1671,-8.96249 1.67226,-5.46768 -2.29226,-7.45935 -9.13157,-7.45935"
       id="path2209" />
    <path
       style="fill:#b5b5b5;fill-opacity:1;fill-rule:evenodd;stroke:none"
       d="m 453.74275,836.33924 -20.98762,0 -6.18168,20.21729 19.61599,0 c 6.97083,0 13.65984,-1.97289 16.23396,-10.33413 1.9353,-6.38834 -0.77037,-9.88316 -8.68065,-9.88316"
       id="path2211" />
    <path
       style="fill:#b5b5b5;fill-opacity:1;fill-rule:evenodd;stroke:none"
       d="m 839.95668,735.49714 -199.48594,0 -60.89607,188.64447 199.46712,0 60.91489,-188.64447 z"
       id="path2890" />
    <path
       style="fill:#ffffff;fill-opacity:1;fill-rule:evenodd;stroke:none"
       d="m 722.95573,798.32851 c -15.67024,0 -25.32797,15.20054 -29.79979,29.79983 -4.47186,14.59928 -4.11486,29.79979 11.53661,29.79979 11.2548,0 18.07529,-7.91027 23.16719,-18.09407 l 32.84369,0 c -6.70779,21.88952 -31.62239,45.15067 -63.3763,45.15067 -35.11717,0 -47.44293,-24.78308 -37.61613,-56.85639 10.46564,-34.19651 39.00654,-56.83762 72.43271,-56.83762 29.76224,0.15045 41.374,15.80181 35.92514,43.0087 l -32.52428,0 c 0.60126,-3.96456 1.24008,-15.97091 -12.58884,-15.97091"
       id="path2215" />
    <path
       style="fill:#00944a;fill-opacity:1;fill-rule:evenodd;stroke:none"
       d="m 564.59961,970.4948 199.4859,0 7.45934,-23.16722 -199.46711,0 -7.47813,23.16722"
       id="path2217" />
  </g>
</svg>
