<?xml version="1.0" encoding="utf-8"?>
<!-- Generator: Adobe Illustrator 15.0.2, SVG Export Plug-In . SVG Version: 6.00 Build 0)  -->
<!DOCTYPE svg PUBLIC "-//W3C//DTD SVG 1.1//EN" "http://www.w3.org/Graphics/SVG/1.1/DTD/svg11.dtd">
<svg version="1.1" xmlns="http://www.w3.org/2000/svg" xmlns:xlink="http://www.w3.org/1999/xlink" x="0px" y="0px"
	 width="655px" height="170px" viewBox="0 0 655 170" enable-background="new 0 0 655 170"
	 xml:space="preserve">
<g id="BBC">
	<path d="M399.533,149.346c-3.193,11.548-15.444,20.909-27.363,20.909h-135.7c-11.919,0-18.991-9.361-15.798-20.909l35.52-128.437
		C259.384,9.361,271.636,0,283.555,0h135.701c11.918,0,18.991,9.361,15.798,20.909L399.533,149.346z"/>
	<path d="M619.437,149.346c-3.193,11.548-15.444,20.909-27.363,20.909h-135.7c-11.919,0-18.991-9.361-15.798-20.909l35.52-128.437
		C479.289,9.361,491.541,0,503.458,0H639.16c11.918,0,18.991,9.361,15.798,20.909L619.437,149.346z"/>
	<path d="M179.628,149.346c-3.193,11.548-15.444,20.909-27.363,20.909h-135.7c-11.919,0-18.991-9.361-15.798-20.909l35.52-128.437
		C39.48,9.361,51.731,0,63.65,0h135.7c11.919,0,18.992,9.361,15.798,20.909L179.628,149.346z"/>
	<path fill="#fff" d="M137.191,26.215c-4.438,0-61.512,0-61.512,0L41.289,144.039c0,0,33.458,0,71.443,0
		c33.313-0.512,50.968-18.49,51.887-37.002c0.919-18.513-12.256-22.723-16.53-24.113c28.807-4.133,26.493-27.639,26.493-32.831
		C174.582,42.177,170.371,26.215,137.191,26.215z M125.114,103.728c-0.807,6.705-2.913,10.688-12.382,11.302
		c-3.983-0.035-30.152,0-30.152,0l6.113-21.875c0,0,22.314,0,27.549,0C123.409,93.883,125.92,97.021,125.114,103.728z
		 M135.996,63.664c-0.827,5.148-5.901,7.871-11.883,8.973c-4.731,0-28.88,0-28.88,0l6.116-18.719c0,0,24.614,0,26.64,0
		C130.578,53.918,137.155,56.442,135.996,63.664z"/>
	<path fill="#fff" d="M357.096,26.215c-4.438,0-61.512,0-61.512,0l-34.391,117.824c0,0,33.458,0,71.443,0
		c33.313-0.512,50.968-18.49,51.888-37.002c0.918-18.513-12.256-22.723-16.531-24.113c28.808-4.133,26.494-27.639,26.494-32.831
		C394.487,42.177,390.275,26.215,357.096,26.215z M345.018,103.728c-0.807,6.705-2.913,10.688-12.382,11.302
		c-3.983-0.035-30.152,0-30.152,0l6.113-21.875c0,0,22.314,0,27.549,0C343.313,93.883,345.825,97.021,345.018,103.728z
		 M355.9,63.664c-0.827,5.148-5.901,7.871-11.883,8.973c-4.731,0-28.88,0-28.88,0l6.116-18.719c0,0,24.614,0,26.64,0
		C350.482,53.918,357.059,56.442,355.9,63.664z"/>
	<path id="p1" fill="#fff" d="M552.905,119.249c-7.859,7.859-21.504,3.771-25.357-0.22
		c-8.099-8.379,2.896-44.707,5.677-49.663c4.031-7.183,8.986-23.196,23.491-23.196c14.235,0,16.127,7.139,16.127,24.596
		c2.831,0,29.78-1.168,36.368-0.95c3.689-20.622-4.546-45.267-39.445-47.229c-29.075-1.634-44.754-0.451-65.784,26.734
		c-12.111,15.656-18.056,40.248-18.46,62.369c-0.364,19.849,13.837,36.453,48.412,36.453c13.915,0,38.316-3.556,47.979-13.553
		c8.008-8.287,12.348-9.779,19.912-38.258c-8.743-0.219-35.589-0.02-35.589-0.02S564.201,107.953,552.905,119.249z"/>
</g>
</svg>
