<?xml version="1.0" encoding="utf-8"?>
<!-- Generator: Adobe Illustrator 15.0.2, SVG Export Plug-In . SVG Version: 6.00 Build 0)  -->
<!DOCTYPE svg PUBLIC "-//W3C//DTD SVG 1.1//EN" "http://www.w3.org/Graphics/SVG/1.1/DTD/svg11.dtd">
<svg version="1.1" id="Layer_2" xmlns="http://www.w3.org/2000/svg" xmlns:xlink="http://www.w3.org/1999/xlink" x="0px" y="0px"
	 width="370px" height="100px" viewBox="0 0 370 100" enable-background="new 0 0 370 100" xml:space="preserve">
<g>
	<rect x="0" y="0" width="100" height="100"/>
	<path fill="#fff" d="M68.373,15.515c-2.66,0-36.861,0-36.861,0l-20.608,68.97c0,0,20.05,0,42.812,0
		c19.962-0.3,30.542-10.823,31.093-21.659c0.551-10.837-7.344-13.301-9.906-14.115c17.263-2.419,15.876-16.179,15.876-19.218
		C90.779,24.859,88.255,15.515,68.373,15.515z M61.135,60.888c-0.483,3.925-1.746,6.257-7.42,6.615c-2.387-0.021-18.069,0-18.069,0
		l3.663-12.805c0,0,13.372,0,16.509,0C60.114,55.125,61.619,56.962,61.135,60.888z M67.656,37.437
		c-0.495,3.014-3.536,4.607-7.121,5.252c-2.835,0-17.306,0-17.306,0l3.665-10.957c0,0,14.75,0,15.964,0
		C64.41,31.732,68.351,33.209,67.656,37.437z"/>
</g>
<g>
	<rect x="135" y="0" width="100" height="100"/>
	<path fill="#fff" d="M202.518,15.515c-2.66,0-36.861,0-36.861,0l-20.608,68.97c0,0,20.05,0,42.812,0
		c19.962-0.3,30.542-10.823,31.093-21.659c0.551-10.837-7.344-13.301-9.906-14.115c17.263-2.419,15.876-16.179,15.876-19.218
		C224.924,24.859,222.401,15.515,202.518,15.515z M195.281,60.888c-0.483,3.925-1.746,6.257-7.42,6.615
		c-2.387-0.021-18.069,0-18.069,0l3.663-12.805c0,0,13.372,0,16.509,0C194.259,55.125,195.764,56.962,195.281,60.888z
		 M201.802,37.437c-0.495,3.014-3.536,4.607-7.121,5.252c-2.835,0-17.306,0-17.306,0l3.665-10.957c0,0,14.75,0,15.964,0
		C198.555,31.732,202.496,33.209,201.802,37.437z"/>
</g>
<g>
	<rect x="269" y="0" width="100" height="100"/>
	<path id="path2617_1_" fill="#fff" d="M321.866,69.031c-4.2,2.681-13.156,2.166-15.317,0.005
		c-4.54-4.539,2.727-25.284,4.285-27.969c2.259-3.892,5.548-12.072,13.679-12.072c9.989,0,11.389,5.09,10.148,14.395
		c1.587,0,15.519-0.117,19.212,0c2.068-11.172-5.659-26.217-22.556-27.665c-16.261-1.394-25.088-0.244-36.877,14.482
		c-6.79,8.481-10.121,21.805-10.348,33.788c-0.204,10.753,9.757,19.58,26.245,20.61c7.784,0.487,22.373-0.731,27.788-6.146
		c4.489-4.49,8.482-6.909,12.723-22.338c-4.9-0.117-20.959,0.076-20.959,0.076S328.927,64.526,321.866,69.031z"/>
</g>
</svg>
