<?xml version="1.0" encoding="UTF-8" standalone="no"?>
<svg
   xmlns:dc="http://purl.org/dc/elements/1.1/"
   xmlns:cc="http://creativecommons.org/ns#"
   xmlns:rdf="http://www.w3.org/1999/02/22-rdf-syntax-ns#"
   xmlns:svg="http://www.w3.org/2000/svg"
   xmlns="http://www.w3.org/2000/svg"
   xmlns:sodipodi="http://sodipodi.sourceforge.net/DTD/sodipodi-0.dtd"
   xmlns:inkscape="http://www.inkscape.org/namespaces/inkscape"
   version="1.1"
   id="Ebene_1"
   x="0px"
   y="0px"
   width="787"
   height="282"
   viewBox="0 0 787 282"
   enable-background="new 0 0 595 842"
   xml:space="preserve">
<path
   style="fill:#253c95;fill-rule:evenodd"
   inkscape:connector-curvature="0"
   id="path5"
   d="M -3.66e-5,160.43551 V 278.81593 H 37.05705 c 5.366819,-0.17022 10.898848,0 16.430878,0 5.031393,0 24.986749,1.00127 35.880591,-14.92397 5.366819,-7.88001 5.867455,-15.93024 5.867455,-19.44971 0,-14.0829 -7.544586,-21.46227 -12.240553,-24.65132 -1.341705,-1.00628 -3.859905,-2.68341 -7.880013,-4.35554 2.347984,-0.84107 3.519472,-1.34671 5.702246,-2.85362 10.393206,-7.03895 11.234275,-17.60738 11.234275,-22.13313 0,-7.20916 -2.182774,-13.07661 -6.878741,-18.27322 C 75.951471,162.11264 62.869849,161.27157 58.679524,160.94115 52.311433,160.2703 45.938335,160.43551 39.565237,160.43551 H -3.66e-5 l 0,0 z M 26.323411,206.5491 v -23.64504 h 17.106737 c 7.714802,-0.16521 12.240553,0 15.594815,1.17148 2.347984,0.83607 6.873734,3.68469 6.873734,10.228 0,6.70852 -4.025114,9.72235 -6.373098,10.73364 -3.689688,1.84234 -9.722353,1.51192 -18.778861,1.51192 H 26.323411 l 0,0 z m 0,49.96349 v -29.00686 h 17.271947 c 6.368091,0 11.404491,0.16521 13.917684,0.67085 3.354262,0.67085 10.563422,3.85991 10.733639,13.58226 0,1.84234 -0.16521,5.53203 -3.018836,9.39193 -3.519472,4.52575 -7.880013,5.0314 -13.412042,5.36182 -3.354262,0.17021 -6.873734,0 -10.398213,0 H 26.323411 l 0,0 z"
   clip-rule="evenodd"
   clip-path="none" /><path
   style="fill:#253c95;fill-rule:evenodd"
   inkscape:connector-curvature="0"
   id="path7"
   d="m 189.32553,243.27076 c 0.17021,-0.84107 0.17021,-1.84234 0.17021,-2.84862 0,-6.3731 -1.00627,-11.57471 -1.3417,-13.91768 -3.8549,-20.62121 -14.91896,-29.17708 -23.47483,-32.86176 -7.54458,-3.18905 -14.58853,-3.35426 -17.60737,-3.35426 -18.94908,0 -29.34228,9.72235 -33.87304,15.76002 -9.22172,11.73992 -9.89257,26.15824 -9.89257,31.01942 0,18.44343 9.22172,35.71538 27.32973,42.25369 2.85362,1.00127 8.38565,2.51319 16.26566,2.6784 9.38693,0 32.19591,-1.84234 41.58785,-27.83537 h -25.48739 c -2.17777,3.18905 -6.03767,7.88002 -15.08917,8.04523 -3.18905,0 -10.73364,-0.50565 -15.76003,-8.21544 -2.18277,-3.52448 -3.18404,-6.70853 -3.35426,-10.56343 l 60.52691,-0.1602 0,0 z M 128.6284,225.8286 c 0.16521,-0.50564 0.50064,-2.5182 1.17149,-4.19533 2.68341,-7.54459 9.05651,-12.07034 17.10173,-12.07034 7.71481,0 14.58854,4.52575 16.26567,12.41077 0.50564,1.51192 0.50564,3.18905 0.50564,3.68468 l -35.04453,0.17022 0,0 z"
   clip-rule="evenodd"
   clip-path="none" /><path
   style="fill:#253c95;fill-rule:evenodd"
   inkscape:connector-curvature="0"
   id="path9"
   d="m 200.36956,160.43551 v 20.29078 h 24.65132 v -20.29078 h -24.65132 l 0,0 z m 0,33.03697 v 85.34845 h 24.65132 v -85.34845 h -24.65132 l 0,0 z"
   clip-rule="evenodd"
   clip-path="none" /><path
   style="fill:#253c95;fill-rule:evenodd"
   inkscape:connector-curvature="0"
   id="path11"
   d="m 322.82015,243.27076 c 0.17022,-0.84107 0.17022,-1.84234 0.17022,-2.84862 0,-6.3731 -1.00628,-11.57471 -1.34171,-13.91768 -3.8599,-20.62121 -14.92396,-29.17708 -23.47482,-32.86176 -7.54459,-3.18905 -14.58854,-3.35426 -17.60738,-3.35426 -18.94907,0 -29.34228,9.72235 -33.87304,15.76002 -9.22171,11.73992 -9.89257,26.15824 -9.89257,31.01942 0,18.44343 9.22172,35.71538 27.32973,42.25369 2.84862,1.00127 8.38065,2.51319 16.26567,2.6784 9.39193,0 32.19591,-1.84234 41.58784,-27.83537 h -25.48738 c -2.18278,3.18905 -6.03768,7.88002 -15.09418,8.04523 -3.18405,0 -10.73364,-0.50565 -15.76003,-8.21544 -2.17777,-3.52448 -3.18405,-6.70853 -3.34926,-10.56343 l 60.52691,-0.1602 0,0 z M 262.12303,225.8286 c 0.17021,-0.50564 0.50063,-2.5182 1.17149,-4.19533 2.68341,-7.54459 9.0565,-12.07034 17.10173,-12.07034 7.7148,0 14.58853,4.52575 16.26566,12.41077 0.50565,1.51192 0.50565,3.18905 0.50565,3.68468 l -35.04453,0.17022 0,0 z"
   clip-rule="evenodd"
   clip-path="none" /><path
   style="fill:#253c95"
   inkscape:connector-curvature="0"
   id="path13"
   d="m 334.0294,193.47248 v 85.34845 h 25.15195 v -22.13312 c 0,-20.461 -0.83606,-32.02569 8.55087,-38.73422 5.36682,-3.8599 11.23427,-4.02511 13.24683,-4.02511 2.34799,0 4.52575,0.33042 6.70853,0.50564 v -23.64505 c -11.23428,0 -21.96792,1.00628 -27.49995,12.57598 -1.50691,3.35427 -2.18277,6.03768 -2.84862,9.55715 0.50565,-6.36809 0.83607,-12.91141 0.83607,-19.44972 H 334.0294 l 0,0 z"
   clip-path="none" /><path
   style="fill:#253c95"
   inkscape:connector-curvature="0"
   id="path15"
   d="m 466.39759,218.78465 c 0,-3.18405 -0.50564,-9.38693 -5.86746,-15.93024 -10.22799,-12.57598 -28.17079,-12.41077 -32.02569,-12.41077 -18.10801,0 -26.99931,6.37309 -31.69027,13.58225 -1.51192,2.5182 -4.19032,7.20916 -4.19032,14.75375 0,2.84862 0.16521,10.39821 6.3731,16.10046 6.03266,5.53203 14.25311,7.37938 30.17834,10.89885 9.05651,2.01255 14.58854,3.02384 14.58854,9.05651 0,5.87246 -6.87374,7.7148 -7.88001,7.88001 -2.18278,0.50564 -4.36054,0.67085 -5.19661,0.67085 -8.22044,0 -13.07661,-3.18405 -15.09418,-6.20288 -1.51192,-2.34798 -1.84234,-5.1966 -2.00755,-6.03267 h -23.64504 c 0.83606,9.72236 4.19032,14.75375 6.87874,18.10801 5.36181,6.53831 14.91896,12.41077 33.53261,12.41077 18.78386,0 28.00558,-6.20288 33.03698,-13.58226 4.69596,-6.70852 5.03139,-13.58225 5.03139,-16.43588 0,-5.1966 -1.51192,-9.38693 -2.35299,-11.06406 -3.8549,-8.71607 -11.06406,-11.23427 -19.44972,-13.58226 l -8.04522,-1.67713 -9.22672,-1.84234 c -4.19033,-1.00628 -8.55087,-2.01256 -9.72236,-2.68341 -0.83606,-0.33543 -3.35426,-1.84234 -3.35426,-4.69597 0,-2.5182 2.01256,-6.03767 7.37938,-7.20916 0.67586,-0.16521 2.35299,-0.33542 4.52575,-0.33542 7.54959,-0.16521 11.73992,2.84862 13.58226,5.87246 0.84107,1.3417 1.17649,2.6784 1.51192,4.35553 h 23.12939 l 0,-0.005 z"
   clip-path="none" /><path
   style="fill:#253c95;fill-rule:evenodd"
   inkscape:connector-curvature="0"
   id="path17"
   d="M 536.73696,160.43551 V 200.176 c -0.67585,-0.83606 -1.51192,-2.17776 -3.35426,-3.8599 -3.02384,-2.34799 -9.22672,-5.86746 -18.61365,-5.86746 -17.43716,0 -30.18335,10.89885 -35.55017,26.99931 -2.84862,8.21544 -3.02384,16.26567 -3.02384,19.2845 0,24.98175 12.07534,36.88687 21.96791,41.58785 6.54332,3.18905 13.41705,3.35426 15.93525,3.35426 2.18277,0 11.90513,0 18.61365,-5.87246 1.50692,-1.34171 3.18405,-3.18405 5.36181,-7.03895 -0.50564,3.68468 -0.50564,9.55715 -0.50564,10.06279 h 24.48111 V 160.44552 h -25.31217 l 0,-0.01 z m -17.10673,50.30391 c 5.70224,0 9.05651,2.34799 10.73364,3.85991 7.54959,6.53831 7.04395,18.61365 7.04395,20.6212 0,12.91141 -3.35426,19.79015 -8.55087,23.47483 -1.51192,1.17149 -4.69596,3.01884 -9.55714,3.01884 -4.86618,0 -8.55087,-1.67213 -11.90513,-5.19661 -3.35426,-3.68468 -6.36809,-9.55714 -6.36809,-20.45599 -0.005,-18.61365 9.54713,-25.15697 18.60364,-25.32218 l 0,0 z"
   clip-rule="evenodd"
   clip-path="none" /><path
   style="fill:#253c95;fill-rule:evenodd"
   inkscape:connector-curvature="0"
   id="path19"
   d="m 618.92139,190.44864 c -18.44844,0 -29.17707,8.04523 -34.37367,13.58226 -4.36055,5.03139 -11.39949,15.59482 -11.39949,32.19591 0,18.44844 8.88629,35.55017 26.82408,42.42391 7.88002,2.85362 14.92397,3.02384 18.10801,3.02384 8.05023,0 13.24684,-1.34671 16.43589,-2.5182 18.77886,-6.20288 29.34228,-24.31089 29.34228,-43.5954 0,-12.9114 -5.03139,-26.49366 -15.09418,-35.04453 -11.5697,-9.56215 -24.81153,-9.90258 -29.84292,-10.06779 l 0,0 z m -0.50564,19.78514 c 12.7462,-0.16521 17.10173,8.88629 18.61365,13.24683 1.67713,4.86118 1.67713,10.39321 1.67713,11.90513 0,14.0829 -5.36181,21.12685 -11.06906,24.14068 -3.8549,1.84734 -7.7098,2.01255 -9.22172,2.01255 -9.55714,0 -20.29078,-5.86745 -20.29078,-25.48738 0.005,-20.11556 10.89885,-25.6526 20.29078,-25.81781 l 0,0 z"
   clip-rule="evenodd"
   clip-path="none" /><path
   style="fill:#253c95"
   inkscape:connector-curvature="0"
   id="path21"
   d="m 675.61843,193.47248 v 85.34845 h 25.15196 v -22.13312 c 0,-20.461 -0.84107,-32.02569 8.55087,-38.73422 5.36181,-3.8599 11.23427,-4.02511 13.24683,-4.02511 2.34798,0 4.52575,0.33042 6.70852,0.50564 v -23.64505 c -11.23427,0 -21.96791,1.00628 -27.49994,12.57598 -1.50691,3.35427 -2.17777,6.03768 -2.84862,9.55715 0.50564,-6.36809 0.84107,-12.91141 0.84107,-19.44972 h -24.15069 l 0,0 z"
   clip-path="none" /><path
   style="fill:#253c95"
   inkscape:connector-curvature="0"
   id="path23"
   d="m 733.517,193.47248 v 18.60865 h 12.24056 v 66.7398 h 24.81653 v -66.7398 h 16.26066 V 193.47248 H 770.7393 v -2.85362 c 0,-3.8549 -0.16521,-5.02639 1.17149,-7.03895 2.01255,-3.51947 5.86745,-3.8599 9.55714,-3.8599 h 5.53203 v -19.2845 h -9.55714 c -7.37938,0 -14.58854,0 -21.29706,4.19032 -10.06279,6.3731 -10.39321,17.77759 -10.39321,21.13185 -0.17022,2.5132 0,5.03139 0,7.54459 l -12.23555,0.17021 0,0 z"
   clip-path="none" /><path
   style="fill:#253c95;fill-rule:evenodd"
   inkscape:connector-curvature="0"
   id="path25"
   d="m 0.52563134,3.130628 v 78.92028 H 25.232024 c 3.574542,-0.11014 7.269237,0 10.953919,0 3.354262,0 16.656164,0.670852 23.920394,-9.94764 3.579548,-5.25668 3.914975,-10.623499 3.914975,-12.966476 0,-9.386928 -5.031393,-14.308181 -8.160369,-16.430878 -0.896139,-0.670852 -2.57327,-1.787271 -5.251673,-2.908696 1.566991,-0.560712 2.347983,-0.896138 3.799828,-1.897411 6.928804,-4.695967 7.489517,-11.739917 7.489517,-14.758753 0,-4.806107 -1.451845,-8.721081 -4.580821,-12.185483 C 51.164976,4.2470466 42.448901,3.6863341 39.655351,3.4660542 35.409957,3.0204881 31.159556,3.130628 26.914162,3.130628 H 0.52563134 l 0,0 z M 18.077934,33.869686 V 18.109661 h 11.404491 c 5.141533,-0.11014 8.160369,0 10.398213,0.780992 1.566991,0.560713 4.58082,2.46313 4.58082,6.818664 0,4.470681 -2.68341,6.483238 -4.245394,7.154091 -2.458124,1.231565 -6.483238,1.006278 -12.52091,1.006278 h -9.61722 l 0,0 z m 0,33.312328 V 47.842441 h 11.514631 c 4.250401,0 7.604663,0.11014 9.281794,0.445566 2.237843,0.445566 7.04395,2.57327 7.15409,9.056508 0,1.231564 -0.11014,3.689688 -2.012557,6.257951 -2.347984,3.018836 -5.256679,3.354262 -8.946368,3.579548 -2.232837,0.11014 -4.585827,0 -6.928804,0 H 18.077934 l 0,0 z"
   clip-rule="evenodd"
   clip-path="none" /><path
   style="fill:#253c95;fill-rule:evenodd"
   inkscape:connector-curvature="0"
   id="path27"
   d="m 72.091566,3.130628 v 78.92028 h 22.46855 c 10.733634,0 15.539744,-0.22028 20.681274,-1.672125 16.32074,-4.695967 21.35214,-19.229434 22.80398,-24.481107 1.3417,-4.585827 1.89741,-9.056507 1.89741,-13.972754 0,-18.108009 -8.04522,-27.610083 -14.19303,-32.1959098 C 117.14381,3.4710606 107.08103,3.1356344 96.908099,3.1356344 H 72.091566 l 0,-0.00501 z m 17.662443,63.71596 V 18.334947 h 9.056507 c 6.483234,0 9.947644,0.445566 12.856334,1.787271 1.11642,0.555706 3.23912,1.787271 5.25168,4.245395 4.13525,5.251673 5.25667,11.960197 5.25667,18.223155 0,1.566991 0.11014,12.410769 -5.5921,18.778861 -4.13526,4.695967 -10.28307,5.141533 -12.07534,5.366819 -2.9087,0.11014 -5.81239,0.11014 -8.721086,0.11014 h -6.032665 l 0,0 z"
   clip-rule="evenodd"
   clip-path="none" /><polygon
   style="fill:#253c95"
   id="polygon29"
   points="247.667,410.389 251.173,410.389 251.173,404.025 258.251,404.025 258.251,401.145 251.173,401.145 251.173,397.706 259.234,397.706 259.234,394.625 247.667,394.625 247.667,394.625 "
   clip-path="none"
   transform="matrix(5.0063613,0,0,5.0063613,-1091.3868,-1972.5047)" /><path
   style="fill:#253c95"
   inkscape:connector-curvature="0"
   id="path31"
   d="m 230.55291,42.0651 c 0,-23.229517 18.83394,-42.0634478 42.06345,-42.0634478 23.22952,0 42.06846,18.8339308 42.06846,42.0634478 0,23.234523 -18.83394,42.068454 -42.06846,42.068454 -23.23452,0 -42.06345,-18.833931 -42.06345,-42.068454 l 0,0 z"
   clip-path="none" /><path
   style="fill:#253c95"
   inkscape:connector-curvature="0"
   id="path33"
   d="m 324.94786,42.0651 c 0,-23.229517 18.83393,-42.0634478 42.06344,-42.0634478 23.22952,0 42.06345,18.8339308 42.06345,42.0634478 0,23.234523 -18.83393,42.068454 -42.06345,42.068454 -23.22951,0 -42.06344,-18.833931 -42.06344,-42.068454 l 0,0 z"
   clip-path="none" /><path
   style="fill:#253c95"
   inkscape:connector-curvature="0"
   id="path35"
   d="m 419.3428,42.0651 c 0,-23.229517 18.83393,-42.0634478 42.06345,-42.0634478 23.22951,0 42.06344,18.8339308 42.06344,42.0634478 0,23.234523 -18.83393,42.068454 -42.06344,42.068454 -23.22952,0 -42.06345,-18.833931 -42.06345,-42.068454 l 0,0 z"
   clip-path="none" /><path
   style="fill:#253c95"
   inkscape:connector-curvature="0"
   id="path37"
   d="m 513.73273,42.0651 c 0,-23.229517 18.83894,-42.0634478 42.06345,-42.0634478 23.23953,0 42.06846,18.8339308 42.06846,42.0634478 0,23.234523 -18.83394,42.068454 -42.06846,42.068454 -23.22451,0 -42.06345,-18.833931 -42.06345,-42.068454 l 0,0 z"
   clip-path="none" />
</svg>