<?xml version="1.0" encoding="UTF-8" standalone="no"?>
<svg
   xmlns:dc="http://purl.org/dc/elements/1.1/"
   xmlns:cc="http://creativecommons.org/ns#"
   xmlns:rdf="http://www.w3.org/1999/02/22-rdf-syntax-ns#"
   xmlns:svg="http://www.w3.org/2000/svg"
   xmlns="http://www.w3.org/2000/svg"
   xmlns:sodipodi="http://sodipodi.sourceforge.net/DTD/sodipodi-0.dtd"
   xmlns:inkscape="http://www.inkscape.org/namespaces/inkscape"
   version="1.1"
   id="Layer_1"
   x="0px"
   y="0px"
   width="827"
   height="287"
   viewBox="0 0 827 287"
   enable-background="new 0 0 612 792"
   xml:space="preserve">
<polygon
   style="fill:#ffffff;fill-rule:evenodd"
   id="polygon5"
   points="90.546,495.438 346.195,495.438 346.195,298 90.546,298 90.546,298 "
   clip-rule="evenodd"
   transform="matrix(1.4536209,0,0,1.4536209,-30.526039,-433.17903)" /><polygon
   style="fill:#ed1c24;fill-rule:evenodd"
   id="polygon7"
   points="589.921,495.438 345.999,495.438 345.999,298 589.921,298 589.921,298 "
   clip-rule="evenodd"
   transform="matrix(1.4536209,0,0,1.4536209,-30.526039,-433.17903)" /><polygon
   style="fill:#ed1c24;fill-rule:evenodd"
   id="polygon9"
   points="90.545,495.438 21,495.438 21,298 90.545,298 90.545,298 "
   clip-rule="evenodd"
   transform="matrix(1.4536209,0,0,1.4536209,-30.526039,-433.17903)" /><path
   style="fill:#ed1c24;fill-rule:evenodd"
   inkscape:connector-curvature="0"
   id="path11"
   d="m 323.65451,87.789979 c 0,-10.307626 8.35541,-18.663039 18.66158,-18.663039 10.30763,0 18.66159,8.355413 18.66159,18.663039 0,10.306172 -8.35541,18.660131 -18.66159,18.660131 -10.30762,-0.001 -18.66158,-8.355413 -18.66158,-18.660131 l 0,0 z"
   clip-rule="evenodd" /><path
   style="fill:#ffffff;fill-rule:evenodd"
   inkscape:connector-curvature="0"
   id="path13"
   d="m 690.53825,200.8468 v -3.96839 c 0,-39.42656 -19.85356,-70.62562 -62.11613,-70.62562 -42.83094,0 -64.66869,30.6336 -64.66869,71.47744 0,39.13729 24.67667,69.7709 65.23706,69.7709 25.81049,0 49.06988,-13.33261 61.54921,-36.30418 l -21.55574,-12.19733 c -9.64478,15.88226 -20.13847,25.81049 -39.71002,25.81049 -24.39176,0 -39.70856,-21.27374 -39.99347,-43.96331 h 101.25778 l 0,0 z m -99.8405,-19.28664 c 3.11947,-19.00174 17.86936,-33.18617 37.72292,-33.18617 20.42192,0 33.46816,13.33261 36.58909,33.18617 h -74.31201 l 0,0 z"
   clip-rule="evenodd" /><polygon
   style="fill-rule:evenodd"
   id="polygon15"
   points="247.706,387.739 247.706,479.055 265.267,479.055 265.267,387.739 265.267,387.739 "
   clip-rule="evenodd"
   transform="matrix(1.4536209,0,0,1.4536209,-30.526039,-433.17903)" /><path
   style="fill-rule:evenodd"
   inkscape:connector-curvature="0"
   id="path17"
   d="m 415.09889,130.44648 v 21.55575 h 0.85182 c 6.23749,-15.59881 19.28665,-25.52704 36.30419,-25.52704 1.60189,0 3.20232,0.11775 4.79258,0.34887 v 24.05597 c -3.76051,0 -6.99337,-0.0116 -11.03007,-0.0116 -27.51414,0 -30.91852,25.52413 -30.91852,47.08133 v 65.23415 h -25.52994 v -132.7374 h 25.52994 l 0,0 z"
   clip-rule="evenodd" /><polygon
   style="fill:#ffffff;fill-rule:evenodd"
   id="polygon19"
   points="516.165,352.813 516.165,479.053 533.727,479.053 533.727,352.813 533.727,352.813 "
   clip-rule="evenodd"
   transform="matrix(1.4536209,0,0,1.4536209,-30.526039,-433.17903)" /><polygon
   style="fill:#ffffff;fill-rule:evenodd"
   id="polygon21"
   points="387.69,401.744 404.862,401.744 404.862,386.122 387.69,386.122 387.69,352.726 370.129,352.726 370.129,386.122 344.652,386.122 344.652,401.744 370.129,401.744 370.129,478.967 387.69,478.967 387.69,401.744 "
   clip-rule="evenodd"
   transform="matrix(1.4536209,0,0,1.4536209,-30.526039,-433.17903)" /><path
   style="fill-rule:evenodd"
   inkscape:connector-curvature="0"
   id="path23"
   d="m 131.98442,263.19114 h 27.51849 l 18.6049,-46.12339 h 89.62881 l 18.6078,46.12339 h 28.56365 L 237.59724,80.271852 H 210.0802 l -78.09578,182.919288 0,0 z m 127.36626,-67.61372 h -72.85403 l 36.42774,-90.67251 36.42629,90.67251 0,0 z"
   clip-rule="evenodd" />
</svg>