<?xml version="1.0" encoding="utf-8"?>
<!-- Generator: Adobe Illustrator 14.0.0, SVG Export Plug-In . SVG Version: 6.00 Build 43363)  -->
<!DOCTYPE svg PUBLIC "-//W3C//DTD SVG 1.1//EN" "http://www.w3.org/Graphics/SVG/1.1/DTD/svg11.dtd">
<svg version="1.1" id="Layer_1" xmlns="http://www.w3.org/2000/svg" xmlns:xlink="http://www.w3.org/1999/xlink" x="0px" y="0px"
	 width="440px" height="217px" viewBox="0 0 440 217" enable-background="new 0 0 440 217" xml:space="preserve">
<g>
	<path fill="#EC1A23" stroke="#EC1A23" stroke-width="0.0938" stroke-miterlimit="10" d="M130.4,6.4c23.1-3.5,49.2,3.2,64.1,22.1
		c14.3,18.3,15.2,43.7,9.3,65.3c-12.3,44.101-47.3,77.101-84.3,101.7c-13.5,8.2-28.3,16.7-44.6,15.9c-9.8,0-17.7-8.5-19.7-17.601
		c-2.3-10.2,1.8-20.399,6-29.6c5.6-12.101,14.7-25,28.8-27.4c7.6-1.1,18.6,1.4,20.2,10.2c-1.3,11.7-12.2,18.7-19.1,27.1
		c-6.2,7.5-14.8,14.601-15.9,24.801c0.1,6.199,7.9,6.399,12.1,4.399c17.5-6.6,32.5-18.399,46.4-30.6
		c17.5-16.2,34.9-34.4,42.4-57.601c4.6-13.6,5.6-30.399-4-42.2c-5.6-7-15.8-6.6-23.7-4.5c-14.9,4.8-28,13.6-40.8,22.2
		c-12.6,9-25.5,17.6-37.4,27.6c-9.3,7.6-19.1,15.5-31.1,18c-14.8,3.1-29.9-9.601-30.7-24.5c-0.8-14.3,6.9-27.2,14.9-38.4
		c17.4-22.9,41.2-40.4,66.8-53.1C102.9,14,116.3,8.8,130.4,6.4L130.4,6.4z"/>
	<path fill="#EC1A23" stroke="#EC1A23" stroke-width="0.0938" stroke-miterlimit="10" d="M280.5,87.5c5.4-1.9,11.1,2.8,10.3,8.5
		c0.601,6.3-7.7,11-12.6,6.8C272.7,99,273.9,89.2,280.5,87.5L280.5,87.5z"/>
	<path fill="#EC1A23" stroke="#EC1A23" stroke-width="0.0938" stroke-miterlimit="10" d="M334.5,98.9c-0.6-6.7,7.9-4.9,12.3-5.8
		c0.3,5.3,0.4,10.6,0.4,15.9c2.6,0.2,5.1,0.4,7.7,0.6c0.3,3.301,0.3,6.7,0.199,10c-2.6,0.2-5.3,0.4-7.899,0.601
		c0,11.3-0.3,22.5,0,33.7c-0.4,4.699,5.1,5.399,8.399,6.8c0,2.7,0,5.399,0,8.1c-11,2.5-23.1-5.6-21.1-17.8
		C334.6,133.7,334.5,116.3,334.5,98.9L334.5,98.9z"/>
	<path fill="#EC1A23" stroke="#EC1A23" stroke-width="0.0938" stroke-miterlimit="10" d="M410.3,94.5c3.9-0.5,7.8-1.1,11.8-1.5
		c0.7,20.6-0.199,41.2,0.301,61.8c0,4.3,5.199,4.5,8.199,5.7c0.101,2.8,0.101,5.7,0.101,8.5c-6.8,0.9-15-0.6-18.7-7
		c-3.6-7.1-2-15.4-2.3-23C410,124.2,408.9,109.3,410.3,94.5L410.3,94.5z"/>
	<path fill="#EC1A23" stroke="#EC1A23" stroke-width="0.0938" stroke-miterlimit="10" d="M232.4,112.5c9.699-5,23.899-6.9,31.8,2.3
		c6.899,8.5,3.6,20.2,4.399,30.2c-0.6,5.7,2.2,13.3-3.399,17.1c-8.601,6.7-21.7,10.5-31.5,4.101c-10.3-6.5-12-23-2.8-31.3
		C237.6,128.6,247.6,130,256,129.6c-0.1-3.5-0.6-7.699-4.3-9.3c-6.2-3.2-12.5,1.2-18.5,2.7C231.2,120.1,227.8,114.6,232.4,112.5
		L232.4,112.5z"/>
	<path fill="#EC1A23" stroke="#EC1A23" stroke-width="0.0938" stroke-miterlimit="10" d="M299.8,117.7c7.601-8.2,19.7-11.2,30.4-8.7
		c-1.101,3.7-2.601,7.3-4.3,10.8c-5.301,0-10.801,0.5-15.5,3.3c-0.2,14.601,0.5,29.2-0.301,43.7c-3.399,2.5-12.899,3.4-12.5-2.8
		c-0.1-12,0.2-24,0-36C297.6,124.5,297.1,120.5,299.8,117.7L299.8,117.7z"/>
	<path fill="#EC1A23" stroke="#EC1A23" stroke-width="0.0938" stroke-miterlimit="10" d="M364.5,118.6c6.2-11.6,24-13.399,32.4-3.6
		c5.6,7.1,6.3,16.6,6.399,25.2c-10.2,0.399-20.399,0.1-30.6,0.1c-0.5,6.7,1.6,14.7,8.2,17.8c6.399,2.2,12.8-1.5,18.899-3.199
		c1.101,2.699,2.3,5.3,3.4,8c-9.8,7-24.7,9.6-34.4,1.3C357,152.5,356.9,132.5,364.5,118.6L364.5,118.6z"/>
	<path fill="#EC1A23" stroke="#EC1A23" stroke-width="0.0938" stroke-miterlimit="10" d="M277.4,111.5c3.899-0.6,7.8-1.1,11.699-1.5
		c0.5,19.4,0.4,38.8,0,58.2c-3.899,0.1-7.899,0.1-11.8-0.101C277.3,149.3,277,130.4,277.4,111.5L277.4,111.5z"/>
	<path fill="#FEFEFE" stroke="#FEFEFE" stroke-width="0.0938" stroke-miterlimit="10" d="M373,130.4c0.8-4.9,2.9-11.5,9-11.5
		c5.9,0.199,8,6.6,8,11.6C384.4,130.6,378.7,130.6,373,130.4L373,130.4z"/>
	<path fill="#FEFEFE" stroke="#FEFEFE" stroke-width="0.0938" stroke-miterlimit="10" d="M240.2,143.2c4.2-4,10.3-2.8,15.5-2.4
		c-0.101,4.9,0.5,9.9-0.3,14.7c-2.2,3-6.5,3.6-10,3.1C238.8,157.4,235.7,148.1,240.2,143.2L240.2,143.2z"/>
</g>
</svg>
