<?xml version="1.0" encoding="UTF-8" standalone="no"?>
<!-- Created with Inkscape (http://www.inkscape.org/) -->
<svg
   xmlns:dc="http://purl.org/dc/elements/1.1/"
   xmlns:cc="http://web.resource.org/cc/"
   xmlns:rdf="http://www.w3.org/1999/02/22-rdf-syntax-ns#"
   xmlns:svg="http://www.w3.org/2000/svg"
   xmlns="http://www.w3.org/2000/svg"
   xmlns:sodipodi="http://sodipodi.sourceforge.net/DTD/sodipodi-0.dtd"
   xmlns:inkscape="http://www.inkscape.org/namespaces/inkscape"
   id="svg2297"
   sodipodi:version="0.32"
   inkscape:version="0.45.1"
   width="166"
   height="119"
   version="1.0"
   sodipodi:docbase="C:\Documents and Settings\Alex Broersma.D2KY7761\Desktop"
   sodipodi:docname="biglots.svg"
   inkscape:output_extension="org.inkscape.output.svg.inkscape">
  <metadata
     id="metadata2302">
    <rdf:RDF>
      <cc:Work
         rdf:about="">
        <dc:format>image/svg+xml</dc:format>
        <dc:type
           rdf:resource="http://purl.org/dc/dcmitype/StillImage" />
      </cc:Work>
    </rdf:RDF>
  </metadata>
  <defs
     id="defs2300">
</defs>
  <sodipodi:namedview
     inkscape:window-height="695"
     inkscape:window-width="1076"
     inkscape:pageshadow="2"
     inkscape:pageopacity="0.0"
     guidetolerance="10.0"
     gridtolerance="10.0"
     objecttolerance="10.0"
     borderopacity="1.0"
     bordercolor="#666666"
     pagecolor="#ffffff"
     id="base"
     inkscape:zoom="3.3109244"
     inkscape:cx="83"
     inkscape:cy="59.5"
     inkscape:window-x="22"
     inkscape:window-y="29"
     inkscape:current-layer="svg2297" />
  <g
     id="g2440"
     transform="matrix(1.0297712,0,0,1.0344719,-20.870386,-40.804396)">
    <polygon
       id="polygon2395"
       points="0,0 192.756,0 192.756,192.756 0,192.756 0,0 "
       clip-rule="evenodd"
       style="opacity:0;fill:#ffffff;fill-rule:evenodd" />
    <polygon
       id="polygon2397"
       points="28.148,144.323 40.25,144.323 40.25,151.103 20.991,151.103 20.991,105.166 28.148,105.166 28.148,144.323 "
       clip-rule="evenodd"
       style="fill-rule:evenodd" />
    <path
       id="path2399"
       d="M 84.941,128.192 C 84.941,141.405 74.057,151.855 60.94,151.855 C 47.823,151.855 36.939,141.405 36.939,128.192 C 36.939,115.047 47.813,104.414 60.94,104.414 C 74.066,104.414 84.941,115.048 84.941,128.192 L 84.941,128.192 L 84.941,128.192 z M 44.096,128.135 C 44.096,137.375 51.634,145.077 60.94,145.077 C 70.246,145.077 77.783,137.375 77.783,128.135 C 77.783,118.834 70.359,111.192 60.94,111.192 C 51.52,111.191 44.096,118.834 44.096,128.135 L 44.096,128.135 z "
       clip-rule="evenodd"
       style="fill-rule:evenodd" />
    <polygon
       id="polygon2401"
       points="100.115,151.103 92.958,151.103 92.958,111.944 82.368,111.944 82.368,105.166 110.821,105.166 110.821,111.944 100.115,111.944 100.115,151.103 "
       clip-rule="evenodd"
       style="fill-rule:evenodd" />
    <path
       id="path2403"
       d="M 133.388,116.402 L 132.794,115.377 C 131.187,112.602 129.416,111.191 126.212,111.191 C 122.828,111.191 120.074,113.573 120.074,116.839 C 120.074,118.264 120.788,119.346 121.969,120.286 C 123.182,121.252 124.759,121.964 126.272,122.642 L 129.171,123.913 C 134.88,126.406 140.381,129.511 140.381,137.227 C 140.381,145.526 133.676,151.854 125.456,151.854 C 117.85,151.854 112.17,146.929 110.671,139.655 L 110.459,138.625 L 117.494,136.661 L 117.677,137.936 C 118.254,141.949 121.297,145.076 125.339,145.076 C 129.526,145.076 133.223,141.895 133.223,137.69 C 133.223,133.428 130.035,131.957 125.798,130.03 L 123.133,128.876 C 118.022,126.563 112.916,123.684 112.916,116.665 C 112.916,109.11 119.35,104.413 126.328,104.413 C 131.64,104.413 136.15,107.137 138.673,111.782 L 139.173,112.704 L 133.388,116.402 L 133.388,116.402 z "
       clip-rule="evenodd"
       style="fill-rule:evenodd" />
    <path
       id="path2405"
       d="M 20.984,99.297 L 20.984,40.438 L 45.885,40.438 C 57.281,40.438 68.913,43.17 68.913,56.753 C 68.913,61.905 66.337,66.979 61.184,68.619 L 61.184,69.087 C 67.585,71.351 71.644,76.034 71.644,83.061 C 71.644,95.16 60.404,99.297 50.1,99.297 L 20.984,99.297 L 20.984,99.297 L 20.984,99.297 z M 40.812,63.076 L 42.764,63.076 C 45.886,63.076 49.399,62.764 49.399,58.704 C 49.399,54.332 45.419,54.645 42.296,54.645 L 40.813,54.645 L 40.813,63.076 L 40.812,63.076 L 40.812,63.076 z M 40.812,75.489 L 40.812,85.246 L 43.232,85.246 C 46.745,85.246 51.819,85.168 51.819,80.328 C 51.819,75.411 46.355,75.489 42.919,75.489 L 40.812,75.489 L 40.812,75.489 z "
       clip-rule="evenodd"
       style="fill-rule:evenodd" />
    <polygon
       id="polygon2407"
       points="75.589,40.438 96.977,40.438 96.977,99.297 75.589,99.297 75.589,40.438 "
       clip-rule="evenodd"
       style="fill-rule:evenodd" />
    <path
       id="path2409"
       d="M 132.161,64.638 L 165.181,64.638 C 165.151,66.505 165.125,68.314 165.055,70.071 L 152.595,67.52 L 151.697,69.675 C 148.4,77.587 145.893,87.718 144.173,98.465 C 140.574,99.632 136.8,100.235 133.1,100.235 C 115.147,100.235 100.627,89.149 100.627,70.258 C 100.627,51.055 114.756,39.501 133.255,39.501 C 143.481,39.501 157.532,44.576 162.137,54.646 L 142.155,61.984 C 140.514,59.018 137.471,57.457 134.037,57.457 C 126.388,57.457 122.172,64.014 122.172,71.118 C 122.172,77.597 126.232,83.686 133.18,83.686 C 136.535,83.686 140.828,82.125 141.843,78.534 L 132.163,78.534 L 132.163,64.638 L 132.161,64.638 z "
       clip-rule="evenodd"
       style="fill-rule:evenodd" />
    <path
       id="path2411"
       d="M 144.326,130.986 C 144.617,110.382 148.031,86.019 154.442,70.635 L 181.225,76.116 C 171.054,92.701 164.194,114.361 160.531,133.423 L 144.326,130.986 L 144.326,130.986 L 144.326,130.986 z M 145.247,151.285 C 144.723,147.013 144.418,142.159 144.332,136.955 L 159.474,139.394 C 158.678,144.305 158.109,148.973 157.764,153.254 L 145.247,151.285 L 145.247,151.285 z "
       clip-rule="evenodd"
       style="fill:#f08528;fill-rule:evenodd" />
    <polygon
       id="polygon2413"
       points="162.392,148.762 163.521,148.762 163.521,151.703 163.973,151.703 163.973,148.762 165.102,148.762 165.102,148.362 162.392,148.362 162.392,148.762 "
       clip-rule="evenodd"
       style="fill-rule:evenodd" />
    <path
       id="path2415"
       d="M 168.706,151.703 L 168.706,148.362 L 168.063,148.362 L 167.114,151.186 L 167.106,151.186 L 166.152,148.362 L 165.506,148.362 L 165.506,151.703 L 165.942,151.703 L 165.942,149.73 C 165.942,149.632 165.933,149.209 165.933,148.903 L 165.942,148.903 L 166.882,151.703 L 167.328,151.703 L 168.267,148.898 L 168.277,148.898 C 168.277,149.209 168.267,149.632 168.267,149.73 L 168.267,151.703 L 168.706,151.703 L 168.706,151.703 z "
       clip-rule="evenodd"
       style="fill-rule:evenodd" />
    <polygon
       id="polygon2417"
       points="28.148,144.323 40.25,144.323 40.25,151.103 20.991,151.103 20.991,105.166 28.148,105.166 28.148,144.323 "
       clip-rule="evenodd"
       style="fill-rule:evenodd" />
    <path
       id="path2419"
       d="M 84.941,128.192 C 84.941,141.405 74.057,151.855 60.94,151.855 C 47.823,151.855 36.939,141.405 36.939,128.192 C 36.939,115.047 47.813,104.414 60.94,104.414 C 74.066,104.414 84.941,115.048 84.941,128.192 L 84.941,128.192 L 84.941,128.192 z M 44.096,128.135 C 44.096,137.375 51.634,145.077 60.94,145.077 C 70.246,145.077 77.783,137.375 77.783,128.135 C 77.783,118.834 70.359,111.192 60.94,111.192 C 51.52,111.191 44.096,118.834 44.096,128.135 L 44.096,128.135 z "
       clip-rule="evenodd"
       style="fill-rule:evenodd" />
    <polygon
       id="polygon2421"
       points="100.115,151.103 92.958,151.103 92.958,111.944 82.368,111.944 82.368,105.166 110.821,105.166 110.821,111.944 100.115,111.944 100.115,151.103 "
       clip-rule="evenodd"
       style="fill-rule:evenodd" />
    <path
       id="path2423"
       d="M 133.388,116.402 L 132.794,115.377 C 131.187,112.602 129.416,111.191 126.212,111.191 C 122.828,111.191 120.074,113.573 120.074,116.839 C 120.074,118.264 120.788,119.346 121.969,120.286 C 123.182,121.252 124.759,121.964 126.272,122.642 L 129.171,123.913 C 134.88,126.406 140.381,129.511 140.381,137.227 C 140.381,145.526 133.676,151.854 125.456,151.854 C 117.85,151.854 112.17,146.929 110.671,139.655 L 110.459,138.625 L 117.494,136.661 L 117.677,137.936 C 118.254,141.949 121.297,145.076 125.339,145.076 C 129.526,145.076 133.223,141.895 133.223,137.69 C 133.223,133.428 130.035,131.957 125.798,130.03 L 123.133,128.876 C 118.022,126.563 112.916,123.684 112.916,116.665 C 112.916,109.11 119.35,104.413 126.328,104.413 C 131.64,104.413 136.15,107.137 138.673,111.782 L 139.173,112.704 L 133.388,116.402 L 133.388,116.402 z "
       clip-rule="evenodd"
       style="fill-rule:evenodd" />
    <path
       id="path2425"
       d="M 20.984,99.297 L 20.984,40.438 L 45.885,40.438 C 57.281,40.438 68.913,43.17 68.913,56.753 C 68.913,61.905 66.337,66.979 61.184,68.619 L 61.184,69.087 C 67.585,71.351 71.644,76.034 71.644,83.061 C 71.644,95.16 60.404,99.297 50.1,99.297 L 20.984,99.297 L 20.984,99.297 L 20.984,99.297 z M 40.812,63.076 L 42.764,63.076 C 45.886,63.076 49.399,62.764 49.399,58.704 C 49.399,54.332 45.419,54.645 42.296,54.645 L 40.813,54.645 L 40.813,63.076 L 40.812,63.076 L 40.812,63.076 z M 40.812,75.489 L 40.812,85.246 L 43.232,85.246 C 46.745,85.246 51.819,85.168 51.819,80.328 C 51.819,75.411 46.355,75.489 42.919,75.489 L 40.812,75.489 L 40.812,75.489 z "
       clip-rule="evenodd"
       style="fill-rule:evenodd" />
    <polygon
       id="polygon2427"
       points="75.589,40.438 96.977,40.438 96.977,99.297 75.589,99.297 75.589,40.438 "
       clip-rule="evenodd"
       style="fill-rule:evenodd" />
    <path
       id="path2429"
       d="M 132.161,64.638 L 165.181,64.638 C 165.151,66.505 165.125,68.314 165.055,70.071 L 152.595,67.52 L 151.697,69.675 C 148.4,77.587 145.893,87.718 144.173,98.465 C 140.574,99.632 136.8,100.235 133.1,100.235 C 115.147,100.235 100.627,89.149 100.627,70.258 C 100.627,51.055 114.756,39.501 133.255,39.501 C 143.481,39.501 157.532,44.576 162.137,54.646 L 142.155,61.984 C 140.514,59.018 137.471,57.457 134.037,57.457 C 126.388,57.457 122.172,64.014 122.172,71.118 C 122.172,77.597 126.232,83.686 133.18,83.686 C 136.535,83.686 140.828,82.125 141.843,78.534 L 132.163,78.534 L 132.163,64.638 L 132.161,64.638 z "
       clip-rule="evenodd"
       style="fill-rule:evenodd" />
    <path
       id="path2431"
       d="M 144.326,130.986 C 144.617,110.382 148.031,86.019 154.442,70.635 L 181.225,76.116 C 171.054,92.701 164.194,114.361 160.531,133.423 L 144.326,130.986 L 144.326,130.986 L 144.326,130.986 z M 145.247,151.285 C 144.723,147.013 144.418,142.159 144.332,136.955 L 159.474,139.394 C 158.678,144.305 158.109,148.973 157.764,153.254 L 145.247,151.285 L 145.247,151.285 z "
       clip-rule="evenodd"
       style="fill:#f79239;fill-rule:evenodd" />
    <polygon
       id="polygon2433"
       points="162.392,148.762 163.521,148.762 163.521,151.703 163.973,151.703 163.973,148.762 165.102,148.762 165.102,148.362 162.392,148.362 162.392,148.762 "
       clip-rule="evenodd"
       style="fill-rule:evenodd" />
    <path
       id="path2435"
       d="M 168.706,151.703 L 168.706,148.362 L 168.063,148.362 L 167.114,151.186 L 167.106,151.186 L 166.152,148.362 L 165.506,148.362 L 165.506,151.703 L 165.942,151.703 L 165.942,149.73 C 165.942,149.632 165.933,149.209 165.933,148.903 L 165.942,148.903 L 166.882,151.703 L 167.328,151.703 L 168.267,148.898 L 168.277,148.898 C 168.277,149.209 168.267,149.632 168.267,149.73 L 168.267,151.703 L 168.706,151.703 L 168.706,151.703 z "
       clip-rule="evenodd"
       style="fill-rule:evenodd" />
  </g>
</svg>
