<?xml version="1.0" encoding="UTF-8" standalone="no"?>
<!-- Generator: Adobe Illustrator 14.0.0, SVG Export Plug-In . SVG Version: 6.00 Build 43363)  -->

<svg
   xmlns:dc="http://purl.org/dc/elements/1.1/"
   xmlns:cc="http://creativecommons.org/ns#"
   xmlns:rdf="http://www.w3.org/1999/02/22-rdf-syntax-ns#"
   xmlns:svg="http://www.w3.org/2000/svg"
   xmlns="http://www.w3.org/2000/svg"
   xmlns:sodipodi="http://sodipodi.sourceforge.net/DTD/sodipodi-0.dtd"
   xmlns:inkscape="http://www.inkscape.org/namespaces/inkscape"
   version="1.1"
   id="Layer_1"
   x="0px"
   y="0px"
   width="487"
   height="241"
   viewBox="0 0 487.00002 241"
   enable-background="new 0 0 595.22 842"
   xml:space="preserve">
<rect
   style="fill:#006faf"
   x="447.43762"
   y="60.933605"
   width="35.914314"
   height="176.43198"
   id="rect221" /><path
   style="fill:#006faf;fill-rule:evenodd"
   clip-rule="evenodd"
   d="m 465.17296,44.566703 c 12.27516,0 21.82706,-10.002362 21.82706,-22.280935 0,-12.278574 -9.5519,-22.28093568 -21.82706,-22.28093568 -11.82469,0 -21.82705,10.00236168 -21.82705,22.28093568 0,12.278573 10.00236,22.280935 21.82705,22.280935"
   id="path223" /><path
   style="fill:#006faf;fill-rule:evenodd"
   clip-rule="evenodd"
   d="M 279.19592,237.36556 V 133.23315 c 0,-30.92166 -13.64021,-42.285655 -34.10563,-42.285655 -24.09986,0 -34.10563,17.278045 -34.10563,52.745315 v 93.67275 H 175.06352 V 135.05208 c 0,-45.469629 23.64597,-77.752927 71.3884,-77.752927 22.73822,0 40.01627,10.002362 50.47592,21.827058 10.45624,-11.824696 27.73429,-21.827058 50.01523,-21.827058 48.20312,0 71.84569,32.283298 71.84569,77.752927 v 102.31348 h -35.92114 v -93.67275 c 0,-35.46727 -10.00578,-52.745315 -34.10222,-52.745315 -20.46543,0 -34.10563,11.363995 -34.10563,42.285655 v 104.13241 h -35.46385"
   id="path225" /><path
   style="fill:#006faf;fill-rule:evenodd"
   clip-rule="evenodd"
   d="m 77.302457,90.490205 c -22.284348,0 -40.470151,20.008135 -40.470151,57.751615 0,41.83178 17.278048,61.38262 39.558983,61.38262 23.192103,0 40.012861,-17.73192 40.012861,-58.65595 0,-41.83519 -17.278048,-60.478285 -39.101693,-60.478285 M -1.0509e-6,2.7315083 H 35.467262 V 73.666034 c 5.002887,-4.54901 20.462014,-16.366881 41.377905,-16.366881 40.927443,0 74.572373,28.191577 74.572373,92.758167 0,59.56712 -25.91537,90.94267 -77.299049,90.94267 -30.467789,0 -53.656478,-15.00184 -65.9350516,-45.9235 C 0.45387617,176.43339 -1.0509e-6,148.69228 -1.0509e-6,127.32251 V 2.7315083 z"
   id="path227" />

</svg>