<?xml version="1.0" encoding="UTF-8" standalone="no"?>
<!-- Generator: Adobe Illustrator 14.0.0, SVG Export Plug-In . SVG Version: 6.00 Build 43363)  -->

<svg
   xmlns:dc="http://purl.org/dc/elements/1.1/"
   xmlns:cc="http://creativecommons.org/ns#"
   xmlns:rdf="http://www.w3.org/1999/02/22-rdf-syntax-ns#"
   xmlns:svg="http://www.w3.org/2000/svg"
   xmlns="http://www.w3.org/2000/svg"
   xmlns:xlink="http://www.w3.org/1999/xlink"
   xmlns:sodipodi="http://sodipodi.sourceforge.net/DTD/sodipodi-0.dtd"
   xmlns:inkscape="http://www.inkscape.org/namespaces/inkscape"
   version="1.1"
   id="Layer_1"
   x="0px"
   y="0px"
   width="800"
   height="90"
   viewBox="0 0 800 90"
   enable-background="new 0 0 595 841"
   xml:space="preserve">
<path
   clip-rule="evenodd"
   d="m 122.19118,56.135668 -0.58057,0.49303 -63.941991,0.48869 -1.25517,-0.96869 c 0.96414,-0.48434 0.86617,-0.3953 2.12266,-1.05775 l 63.170041,0.49087 0.48435,0.57339 m 15.34954,-32.54051 h -22.30518 l -1.73713,2.50882 15.83194,0.2172 0.48391,0.48869 -0.58057,0.48652 -16.6126,0.2172 -2.3156,3.48273 17.77042,0.2172 0.58057,0.49086 -0.67548,0.40399 -18.54231,0.30842 -2.31568,3.47361 19.60372,0.31059 0.58057,0.39747 -0.67549,0.57991 -20.47193,0.30191 -2.31566,3.28921 21.62984,0.3106 0.58055,0.49085 -0.67547,0.57123 -22.50691,0.2172 -2.21908,3.28031 23.47164,0.3019 0.58056,0.57122 -0.67548,0.57775 -24.436521,0.21719 -2.21905,3.289 25.401311,0.21719 0.77018,0.6668 -0.86618,0.66679 -26.462771,0.31494 -1.64874,2.50817 -0.67547,-2.60504 -31.67272,0.39313 2.31555,-2.21888 29.06773,0.21719 -0.67548,-3.08765 h -26.36622 l 0.96413,-2.03296 25.01533,0.2172 -0.67548,-2.89392 -23.66464,0.21719 c 0.20199,-0.84055 0.28931,-1.34662 0.28931,-2.31552 l 22.98931,0.21719 -0.67549,-2.90412 -22.31391,0.31058 c -0.0869,-0.84489 -0.19331,-1.64417 -0.48391,-2.31552 l 22.41044,0.2172 -0.67548,-3.08854 -22.69988,0.31277 c -0.38682,-1.05558 -0.77017,-1.55295 -1.44652,-2.60396 l 23.76107,0.39312 -0.67548,-2.90304 -25.01549,0.39313 c -1.25539,-1.16201 -2.31557,-1.92871 -3.95578,-2.79815 l 28.48883,0.30843 -0.48434,-2.21953 H 16.91959 l -0.484564,1.82879 37.374003,0.84706 0.77018,0.49087 -0.67548,0.48869 -38.338877,1.35965 -0.395731,1.64634 43.268178,0.8601 0.67548,0.48651 -0.58057,0.40399 -44.233089,1.55295 -0.386391,1.64852 46.65392,0.84489 0.48435,0.49087 -0.48435,0.39963 -15.45482,0.30842 c 1.44652,0.66897 2.7015,2.02644 3.37697,3.38566 l 12.17435,0.30842 0.58056,0.48869 -0.58056,0.57774 -11.78845,0.31276 c 0,1.05557 0,2.122 -0.28887,3.18452 l 10.62196,0.30191 0.67548,0.57991 -0.67548,0.48652 -11.20085,0.31276 c -1.06187,1.28146 -1.92978,2.22691 -3.28042,3.19279 l 10.91137,0.39746 0.77017,0.57557 -0.96435,0.57992 -46.259206,1.45738 -0.38661,1.55513 39.689616,0.7515 0.77018,0.57991 -0.77018,0.57991 -40.557966,1.34662 -0.386391,1.55077 45.776837,0.8601 0.77018,0.57992 -0.77018,0.49086 -12.07792,0.30624 c 1.15939,1.0382 1.54318,1.92653 2.13134,3.08679 l 11.77963,0.2172 0.86639,0.67114 -0.67547,0.66461 -11.77976,0.2172 c -0.12164,1.34662 -0.3953,2.21975 -0.96414,3.28118 l 12.64805,0.30842 0.67548,0.57991 -0.67548,0.57992 -13.91106,0.30624 c -1.54318,1.64852 -2.41207,1.9287 -4.148836,2.99188 l 16.226686,0.21719 0.77019,0.6668 -0.77019,0.57774 -50.513182,1.55295 -0.386609,1.35964 47.609841,0.93395 0.58057,0.49086 -0.67548,0.49086 -48.381825,1.45956 -0.386392,1.55078 42.882227,0.75801 0.67548,0.57341 -0.77018,0.49303 L 0.39508,87.891898 0,89.444848 h 70.318599 l 0.58057,-2.12201 h -20.96196 l 3.77163,-2.22799 h 17.77043 l 0.67548,-2.60462 h -15.35823 l 2.02622,-2.32399 14.00766,-0.21721 0.58057,-2.31487 h -12.83991 l 1.35074,-2.41261 12.06917,0.2172 0.77018,-2.7104 -11.97265,0.21721 c 0.28887,-0.75585 0.38639,-1.4574 0.48435,-2.21975 h 11.97267 l 0.77017,-2.78902 -12.64806,0.2172 c -0.10643,-0.75367 -0.1933,-1.64852 -0.38639,-2.32421 l 13.61283,-0.2172 0.67547,-2.61439 -15.25302,0.2172 c -0.38661,-0.75584 -0.8664,-1.55513 -1.55187,-2.32465 l 17.29682,0.2172 0.38618,-1.45739 0.28887,1.45739 31.479761,0.21719 1.15917,-1.64634 -0.38661,1.64634 9.46412,0.3106 0.77887,0.48869 -0.77887,0.57339 -9.85003,0.30842 -0.86662,3.08787 9.5606,0.2172 0.67548,0.66896 -0.77017,0.66462 -9.94658,0.31059 -0.86618,3.37719 9.56058,0.21719 0.67548,0.57123 -0.77018,0.66896 -9.8501,0.21719 -0.86617,2.99014 9.65707,0.2172 0.67526,0.57339 -0.96457,0.66897 -9.75359,0.29973 -0.8664,3.28097 9.65706,0.21719 0.58056,0.66896 -0.67526,0.48869 -9.94653,0.2172 -0.86619,3.18474 9.7535,0.21721 0.48413,0.57339 -0.58057,0.57774 -10.04299,0.30842 -0.68417,2.50883 h 17.6826 l 16.6039,-64.95051 z"
   id="path1473"
   style="fill:#e4474a;fill-rule:evenodd" />
<polyline
   points="55.389,522.939 51.965,522.972 52.031,523.28 55.147,523.291 55.389,522.939 "
   id="polyline1475"
   transform="matrix(8.7711839,0,0,8.7711839,-376.9681,-4524.9576)"
   style="fill:#e4474a" />
<polyline
   points="55.015,523.49 52.075,523.534 52.141,523.853 54.772,523.864 55.015,523.49 "
   id="polyline1477"
   transform="matrix(8.7711839,0,0,8.7711839,-376.9681,-4524.9576)"
   style="fill:#e4474a" />
<polyline
   points="54.629,524.063 52.185,524.106 52.24,524.393 54.409,524.403 54.629,524.063 "
   id="polyline1479"
   transform="matrix(8.7711839,0,0,8.7711839,-376.9681,-4524.9576)"
   style="fill:#e4474a" />
<polyline
   points="54.288,524.602 52.284,524.635 52.339,524.954 54.024,524.976 54.288,524.602 "
   id="polyline1481"
   transform="matrix(8.7711839,0,0,8.7711839,-376.9681,-4524.9576)"
   style="fill:#e4474a" />
<polyline
   points="53.914,525.163 52.383,525.163 52.449,525.516 53.66,525.527 53.914,525.163 "
   id="polyline1483"
   transform="matrix(8.7711839,0,0,8.7711839,-376.9681,-4524.9576)"
   style="fill:#e4474a" />
<polyline
   points="53.539,525.703 52.482,525.725 52.537,525.989 53.352,525.989 53.539,525.703 "
   id="polyline1485"
   transform="matrix(8.7711839,0,0,8.7711839,-376.9681,-4524.9576)"
   style="fill:#e4474a" />
<path
   d="m 30.339394,37.978518 c -5.508352,0 -11.683256,0.21719 -17.288064,0.30625 l -0.484565,1.83964 17.095063,0.57557 0.67548,-2.71038"
   id="path1487"
   style="fill:#e4474a" />
<polyline
   points="46.305,520.77 44.323,520.814 44.268,521.023 46.217,521.089 46.305,520.77 "
   id="polyline1489"
   transform="matrix(8.7711839,0,0,8.7711839,-376.9681,-4524.9576)"
   style="fill:#e4474a" />
<polyline
   points="46.151,521.321 44.18,521.387 44.125,521.585 46.074,521.651 46.151,521.321 "
   id="polyline1491"
   transform="matrix(8.7711839,0,0,8.7711839,-376.9681,-4524.9576)"
   style="fill:#e4474a" />
<polyline
   points="45.721,522.983 43.739,523.06 43.695,523.247 45.644,523.313 45.721,522.983 "
   id="polyline1493"
   transform="matrix(8.7711839,0,0,8.7711839,-376.9681,-4524.9576)"
   style="fill:#e4474a" />
<polyline
   points="45.578,523.545 43.596,523.6 43.552,523.809 45.501,523.864 45.578,523.545 "
   id="polyline1495"
   transform="matrix(8.7711839,0,0,8.7711839,-376.9681,-4524.9576)"
   style="fill:#e4474a" />
<polyline
   points="45.435,524.106 43.453,524.172 43.398,524.37 45.347,524.426 45.435,524.106 "
   id="polyline1497"
   transform="matrix(8.7711839,0,0,8.7711839,-376.9681,-4524.9576)"
   style="fill:#e4474a" />
<polyline
   points="55.642,518.579 55.037,515.991 53.363,518.579 53.936,521.155 55.642,518.579 "
   id="polyline1499"
   transform="matrix(8.7711839,0,0,8.7711839,-376.9681,-4524.9576)"
   style="fill:#006cb4" />
<path
   d="m 538.45433,23.040208 h -16.16559 c -8.37653,13.73612 -21.62089,35.84082 -28.63799,47.82113 l -6.42012,-47.82113 h -25.03349 l -1.07099,3.99141 c 5.64809,0.39964 7.49932,1.95476 7.49932,4.1921 0,0.97086 -0.49325,3.22014 -0.87356,4.96597 l -13.24423,52.40679 h 10.32368 c 2.04381,-8.27865 7.29778,-31.36615 11.09546,-47.33678 l 6.23587,47.33678 h 9.93867 c 6.81533,-11.39411 17.82273,-29.60968 27.84811,-46.17935 l -11.20132,46.17935 h 13.9293 l 15.77914,-65.55627"
   id="path1501"
   style="fill:#006cb4" />
<path
   clip-rule="evenodd"
   d="m 561.31162,42.222958 -22.1029,2.92215 -1.07099,3.9988 c 4.28071,0.30842 6.03461,1.7506 6.03461,4.47446 0,0.75584 -0.20416,1.86137 -0.3953,2.53489 l -7.99033,32.43453 h 13.92786 l 11.58669,-46.36483 m 3.70185,-13.14775 c 0,-3.89453 -2.6312,-7.00695 -7.59549,-7.00695 -5.54389,0 -9.05274,3.7968 -9.05274,7.59556 0,3.8865 2.62343,7.00717 7.59635,7.00717 5.64877,0 9.05188,-3.79593 9.05188,-7.59578 z"
   id="path1503"
   style="fill:#006cb4;fill-rule:evenodd" />
<path
   clip-rule="evenodd"
   d="m 596.2644,56.837428 c 0,10.03272 -5.74448,24.92672 -14.31481,24.92672 -3.49914,0 -5.34965,-2.23538 -5.34965,-6.62275 0,-12.464 6.32423,-24.9265 13.24459,-24.9265 4.27987,0 6.41987,2.72799 6.41987,6.62253 m 23.56886,-36.23286 -22.0069,2.53294 -0.86705,3.8852 c 4.86795,0.31494 6.13987,1.56165 6.13987,4.19232 0,0.8601 -0.21806,2.04165 -0.49282,3.11589 l -3.20998,13.53305 c -1.75516,-2.92194 -5.55225,-5.64992 -11.69189,-5.64992 -16.26182,0 -25.32276,15.77973 -25.32276,31.36636 0,9.92977 6.33309,16.06904 15.2969,16.06904 6.03463,0 10.41991,-2.63915 13.14784,-6.237 l -1.08293,5.16687 h 12.66539 l 17.42897,-67.97475 z"
   id="path1505"
   style="fill:#006cb4;fill-rule:evenodd" />
<path
   d="m 645.79603,20.604568 -22.10345,2.42673 -0.9713,3.99141 c 4.77149,0.31494 5.93861,1.56165 5.93861,4.38671 0,0.75585 -0.16507,1.84834 -0.3966,2.9215 l -13.928,54.25687 h 13.928 l 17.52523,-67.98322"
   id="path1507"
   style="fill:#006cb4" />
<path
   clip-rule="evenodd"
   d="m 668.17973,68.229578 -1.65677,6.43095 c -1.2706,4.77115 -4.38558,7.49022 -7.78885,7.49022 -2.63144,0 -4.57858,-1.75277 -4.57858,-4.95728 0,-3.31441 1.55361,-6.04239 4.77143,-7.41051 2.42977,-1.07512 6.03495,-1.46173 9.25357,-1.54861 m 16.35832,-14.61208 c 0,-4.1834 -1.85073,-7.49065 -5.74534,-9.44694 -2.53498,-1.37485 -6.52567,-1.94824 -10.51635,-1.94824 -6.52582,0 -10.22715,0.8601 -13.92896,2.92237 -4.67485,2.53272 -7.40268,6.525 -8.08683,10.71645 h 15.48997 c 1.17242,-5.64732 3.01726,-7.69982 6.33252,-7.69982 2.72779,0 3.79804,1.65069 3.79804,3.61262 0,0.84489 -0.31081,2.71909 -0.48652,3.59743 l -1.65677,6.33299 c -7.69285,0.2172 -15.87585,0.88182 -20.74437,2.82442 -6.13086,2.53489 -9.44575,7.40291 -9.44575,13.83082 0,6.91096 5.45547,11.29832 12.46325,11.29832 5.35942,0 9.93705,-2.63958 12.4732,-5.4553 l -0.86617,4.38432 h 13.14826 l 7.00792,-27.18187 c 0.39876,-1.83965 0.76105,-5.44641 0.76105,-7.78822 z"
   id="path1509"
   style="fill:#006cb4;fill-rule:evenodd" />
<path
   d="m 739.39313,51.381678 c 0,-5.45531 -3.50813,-9.15872 -11.10456,-9.15872 -6.71794,0 -13.24444,4.3878 -16.35786,8.08772 l 2.23667,-8.08772 -22.10341,2.92215 -0.97022,3.9988 c 4.47354,0.30842 6.1313,1.64417 6.1313,3.98989 0,0.75802 -0.21068,2.13938 -0.48869,3.10743 l -8.27991,32.34656 h 13.93009 l 5.84067,-23.27776 c 1.94782,-7.89464 7.98226,-14.99935 12.85015,-14.99935 2.92024,0 3.99973,1.37486 3.99973,3.60437 0,1.27278 -0.31102,2.72777 -0.66636,4.18451 l -7.69295,30.49692 h 13.92096 l 8.08621,-31.46171 c 0.30994,-1.37485 0.66527,-4.19188 0.66527,-5.75309"
   id="path1511"
   style="fill:#006cb4" />
<path
   clip-rule="evenodd"
   d="m 776.42516,56.837428 c 0,10.03272 -5.74514,24.92672 -14.31485,24.92672 -3.50806,0 -5.35062,-2.23538 -5.35062,-6.62275 0,-12.464 6.3239,-24.9265 13.236,-24.9265 4.28887,0 6.42947,2.72799 6.42947,6.62253 m 23.56763,-36.23286 -22.00641,2.53294 -0.86161,3.8852 c 4.86757,0.31494 6.13107,1.56165 6.13107,4.19232 0,0.8601 -0.21286,2.04165 -0.4876,3.11589 l -3.20983,13.53305 c -1.75213,-2.92194 -5.55251,-5.64992 -11.69238,-5.64992 -16.26132,0 -25.32273,15.77973 -25.32273,31.36636 0,9.92977 6.33341,16.06904 15.29713,16.06904 6.03495,0 10.42035,-2.63915 13.13927,-6.237 l -1.07403,5.16687 h 12.66607 L 800,20.604568 z"
   id="path1513"
   style="fill:#006cb4;fill-rule:evenodd" />
<path
   clip-rule="evenodd"
   d="m 199.08811,66.380158 c 0,9.25254 -7.20113,14.99781 -17.52476,14.99781 -5.45572,0 -6.23635,-1.65069 -5.64859,-3.8928 l 5.06088,-19.57067 h 7.49941 c 7.30637,-0.009 10.61306,3.29878 10.61306,8.46566 m 3.99975,-29.21721 c 0,8.76342 -6.33289,13.05195 -15.48994,13.05195 h -4.77155 l 3.99969,-15.68372 c 0.77017,-3.01533 2.04381,-4.1921 6.81526,-4.1921 6.42923,0.009 9.44654,2.43846 9.44654,6.82387 z m 14.80569,-0.75585 c 0,-10.2271 -10.32365,-13.34213 -21.13858,-13.34213 h -31.26045 l -1.07122,3.99141 c 5.55214,0.49521 7.6923,1.7506 7.6923,4.0961 0,2.13938 -0.49325,4.48271 -0.77886,5.84236 l -13.14807,51.62683 h 23.963 c 7.5958,0 15.67404,-1.07294 21.03322,-4.09631 6.22762,-3.41172 10.42015,-8.66569 10.42015,-16.64764 0,-8.96434 -7.69224,-13.25287 -14.51623,-13.92791 10.03419,-1.3792 18.80542,-6.63164 18.80542,-17.54271 z"
   id="path1515"
   style="fill:#006cb4;fill-rule:evenodd" />
<path
   d="m 258.90767,43.591078 c -1.07967,-0.6668 -2.92958,-1.37485 -6.13984,-1.37485 -4.19265,0 -8.76243,3.11459 -11.58674,7.99129 l 1.85116,-7.99129 -21.52445,2.92216 -0.97281,3.99922 c 4.37684,0.21719 6.13104,2.13938 6.13104,5.0611 0,0.8601 -0.10643,1.84835 -0.3866,2.92064 l -7.99049,31.46127 h 13.92858 l 5.74516,-22.80362 c 1.94716,-7.69243 6.13985,-12.17492 12.56915,-12.17492 2.42964,0 4.28027,0.57991 5.44684,1.19023 l 2.92968,-11.19211"
   id="path1517"
   style="fill:#006cb4" />
<path
   clip-rule="evenodd"
   d="m 282.30918,42.222958 -21.71743,1.37702 -1.071,3.9912 c 4.28031,0.3019 6.03457,1.74191 6.03457,4.48314 0,0.75801 -0.19329,1.84834 -0.39486,2.52556 l -8.36774,33.9966 h 13.9199 l 11.59553,-46.36462 m 3.70142,-13.14774 c 0,-3.89432 -2.63138,-7.00739 -7.59585,-7.00739 -5.55216,0 -9.06066,3.79724 -9.06066,7.59556 0,3.88607 2.6314,7.00739 7.59589,7.00739 5.64859,0 9.06062,-3.79658 9.06062,-7.59556 z"
   id="path1519"
   style="fill:#006cb4;fill-rule:evenodd" />
<path
   clip-rule="evenodd"
   d="m 341.70768,42.222958 c -4.97329,0.40399 -14.51637,0.96869 -17.34067,0.96869 h -15.67415 l 4.28035,-17.91801 -16.26177,10.32288 -1.94716,7.59513 h -7.59584 l -1.65743,6.8154 h 7.59585 l -6.42927,25.51401 c -0.48413,1.94825 -0.77886,3.50033 -0.77886,4.96619 0,7.20113 5.75387,9.25363 13.92865,9.25363 3.01728,0 7.30632,-0.57991 9.0606,-0.96869 l 1.65741,-6.91226 c -1.75473,0.40398 -4.19264,0.57991 -5.74516,0.57991 -3.21899,0 -4.67508,-1.37267 -4.67508,-3.41193 0,-1.19023 0.28909,-2.52577 0.58057,-3.99119 l 6.33278,-25.03206 h 13.53392 c 2.63126,0 3.99956,1.2858 3.99956,3.59633 0,0.75584 -0.202,1.8592 -0.3953,2.53424 l -7.98184,32.43584 h 13.91995 l 11.59558,-46.34746 m 3.70128,-13.14752 c 0,-3.89498 -2.63144,-7.0074 -7.59571,-7.0074 -5.55225,0 -9.06068,3.79659 -9.06068,7.59622 0,3.88498 2.63128,7.00673 7.59584,7.00673 5.64868,0 9.06055,-3.7968 9.06055,-7.59555 z"
   id="path1521"
   style="fill:#006cb4;fill-rule:evenodd" />
<path
   d="m 381.69505,44.170338 c -2.63105,-0.8601 -8.1834,-1.9439 -12.95483,-1.9439 -13.34068,0 -21.62073,5.16774 -21.62073,15.28929 0,6.53326 4.28024,9.73712 8.56914,12.3767 5.64909,3.30572 7.40295,4.77136 7.40295,7.87422 0,3.01881 -2.92052,4.96532 -8.3762,4.96532 -4.86804,0 -9.84124,-2.52469 -12.76223,-6.03349 l -2.8243,10.81376 c 3.9032,1.17068 10.71849,2.13938 15.09516,2.13938 14.90226,0 22.59457,-6.52522 22.59457,-15.97325 0,-6.52348 -3.11343,-9.83898 -8.37633,-12.96377 -5.55209,-3.31442 -7.39438,-4.66516 -7.39438,-7.29562 0,-2.43085 2.23669,-4.28158 7.00819,-4.28158 5.15768,0 8.28022,2.71907 10.70971,5.64969 l 2.92928,-10.61436"
   id="path1523"
   style="fill:#006cb4" />
<path
   d="m 430.97182,51.774378 c 0,-5.26093 -3.02595,-9.55142 -10.32388,-9.55142 -7.01665,0 -12.36708,3.11546 -16.84896,7.6933 l 7.10446,-29.31169 -22.00663,2.53294 -0.97304,3.8852 c 4.86841,0.31494 6.22786,1.85051 6.22786,4.49314 0,0.8601 -0.39096,2.42695 -0.58209,3.3055 l -13.53404,53.76644 h 13.91955 l 6.04343,-23.57619 c 1.75516,-6.91204 7.40324,-14.01675 12.65709,-14.01675 3.11339,0 4.08742,1.46607 4.08742,3.3079 0,0.97087 -0.39313,2.91889 -0.86401,4.67515 l -7.49923,29.60989 h 13.91998 l 7.70086,-30.11097 c 0.48435,-2.03513 0.97282,-4.65885 0.97282,-6.70244"
   id="path1525"
   style="fill:#006cb4" />
</svg>