<?xml version="1.0" encoding="UTF-8" standalone="no"?>
<!-- Generator: Adobe Illustrator 14.0.0, SVG Export Plug-In . SVG Version: 6.00 Build 43363)  -->

<svg
   xmlns:dc="http://purl.org/dc/elements/1.1/"
   xmlns:cc="http://creativecommons.org/ns#"
   xmlns:rdf="http://www.w3.org/1999/02/22-rdf-syntax-ns#"
   xmlns:svg="http://www.w3.org/2000/svg"
   xmlns="http://www.w3.org/2000/svg"
   xmlns:xlink="http://www.w3.org/1999/xlink"
   xmlns:sodipodi="http://sodipodi.sourceforge.net/DTD/sodipodi-0.dtd"
   xmlns:inkscape="http://www.inkscape.org/namespaces/inkscape"
   version="1.1"
   id="Layer_1"
   x="0px"
   y="0px"
   width="455"
   height="234"
   viewBox="0 0 455 234"
   enable-background="new 0 0 595 842"
   xml:space="preserve">
<path
   clip-path="url(#SVGID_6_)"
   d="m 511.868,40.785 h -0.76 v 5.373 h 0.788 v -2.635 c 0,-0.377 0.024,-0.979 0.205,-1.372 0.197,-0.429 0.571,-0.808 1.265,-0.808 0.34,0 0.614,0.107 0.799,0.298 0.265,0.271 0.377,0.691 0.377,1.274 v 3.241 h 0.788 v -3.307 c 0,-0.705 -0.151,-1.309 -0.539,-1.7 -0.311,-0.315 -0.757,-0.484 -1.315,-0.484 -0.747,0 -1.273,0.293 -1.606,0.84 l -0.002,-0.72"
   id="path2469"
   style="fill:#0070af"
   transform="matrix(5.8956916,0,0,5.8956916,-2678.8785,-228.84717)" /><path
   clip-path="url(#SVGID_6_)"
   d="m 481.654,40.924 c -0.266,-0.116 -0.861,-0.259 -1.362,-0.259 -0.842,0 -1.793,0.317 -1.793,1.408 0,0.908 0.816,1.291 1.44,1.591 0.6,0.287 1.114,0.553 1.114,1.078 0,0.612 -0.471,0.853 -1.109,0.853 -0.498,0 -0.933,-0.125 -1.42,-0.375 l -0.076,0.782 c 0.453,0.167 0.873,0.276 1.521,0.276 1.297,0 1.905,-0.718 1.905,-1.575 0,-1.011 -0.856,-1.39 -1.578,-1.722 -0.676,-0.311 -0.984,-0.515 -0.984,-0.924 0,-0.397 0.274,-0.706 1.012,-0.706 0.481,0 0.939,0.131 1.255,0.282 l 0.075,-0.709"
   id="path2471"
   style="fill:#0070af"
   transform="matrix(5.8956916,0,0,5.8956916,-2678.8785,-228.84717)" /><path
   clip-path="url(#SVGID_6_)"
   d="m 469.67,41.587 c 0,-0.16 0,-0.802 0,-0.802 h -0.759 v 5.373 h 0.787 v -2.657 c 0,-0.457 0.044,-1.251 0.528,-1.736 0.188,-0.188 0.439,-0.285 0.724,-0.285 0.2,0 0.395,0.029 0.547,0.091 v -0.828 c -0.127,-0.05 -0.366,-0.083 -0.522,-0.083 -0.525,0 -0.995,0.339 -1.305,0.927"
   id="path2473"
   style="fill:#0070af"
   transform="matrix(5.8956916,0,0,5.8956916,-2678.8785,-228.84717)" /><path
   clip-path="url(#SVGID_6_)"
   d="m 476.177,45.444 c -0.168,0.063 -0.37,0.15 -0.663,0.15 -0.182,0 -0.338,-0.042 -0.441,-0.145 -0.156,-0.155 -0.186,-0.424 -0.186,-0.717 v -3.259 h 1.188 v -0.689 h -1.188 v -1.91 H 474.1 v 1.91 h -0.584 v 0.689 h 0.584 v 2.992 c 0,0.662 0.02,1.172 0.36,1.506 0.202,0.198 0.488,0.307 0.903,0.307 0.341,0 0.706,-0.1 0.86,-0.168 l -0.046,-0.666"
   id="path2475"
   style="fill:#0070af"
   transform="matrix(5.8956916,0,0,5.8956916,-2678.8785,-228.84717)" /><path
   clip-path="url(#SVGID_6_)"
   d="m 472.008,40.785 h 0.787 v 5.373 h -0.787 v -5.373 z m -0.127,-1.452 c 0,-0.285 0.233,-0.517 0.521,-0.517 0.287,0 0.521,0.232 0.521,0.517 0,0.286 -0.233,0.517 -0.521,0.517 -0.288,0 -0.521,-0.231 -0.521,-0.517 z"
   id="path2477"
   style="fill:#0070af"
   transform="matrix(5.8956916,0,0,5.8956916,-2678.8785,-228.84717)" /><rect
   x="504.461"
   y="38.874001"
   clip-path="url(#SVGID_6_)"
   width="0.787"
   height="7.283"
   id="rect2479"
   style="fill:#0070af"
   transform="matrix(5.8956916,0,0,5.8956916,-2678.8785,-228.84717)" /><path
   clip-path="url(#SVGID_6_)"
   d="m 507.892,45.694 c 0.992,0 1.434,-1.042 1.434,-1.882 v -0.393 c -0.847,0 -2.511,-0.011 -2.511,1.266 -10e-4,0.511 0.29,1.009 1.077,1.009 m 0.184,-5.029 c 1.343,0 2.021,0.615 2.021,2.054 v 3.439 h -0.76 v -0.733 c -0.356,0.66 -0.981,0.853 -1.569,0.853 -0.902,0 -1.768,-0.475 -1.768,-1.593 0,-1.839 2.357,-1.837 3.325,-1.84 v -0.168 c 0,-0.653 -0.173,-1.332 -1.234,-1.332 -0.66,0 -1.267,0.167 -1.69,0.442 v -0.738 c 0.5,-0.237 1.133,-0.384 1.675,-0.384 z"
   id="path2481"
   style="fill:#0070af"
   transform="matrix(5.8956916,0,0,5.8956916,-2678.8785,-228.84717)" /><path
   clip-path="url(#SVGID_6_)"
   d="m 465.845,41.406 c -0.858,0 -1.499,0.845 -1.499,2.048 0,1.339 0.516,2.141 1.474,2.141 0.908,0 1.464,-0.793 1.464,-2.063 -10e-4,-1.303 -0.569,-2.126 -1.439,-2.126 m -1.525,-2.532 v 2.643 c 0.258,-0.412 0.708,-0.852 1.555,-0.852 1.375,0 2.222,1.118 2.222,2.855 0,1.703 -0.841,2.758 -2.262,2.758 -1.511,0 -2.302,-1.052 -2.302,-2.883 v -4.521 h 0.787 z"
   id="path2483"
   style="fill:#0070af"
   transform="matrix(5.8956916,0,0,5.8956916,-2678.8785,-228.84717)" /><path
   clip-path="url(#SVGID_6_)"
   d="m 476.888,40.785 h 0.787 v 5.373 h -0.787 v -5.373 z m -0.128,-1.452 c 0,-0.285 0.234,-0.517 0.522,-0.517 0.288,0 0.52,0.232 0.52,0.517 0,0.286 -0.231,0.517 -0.52,0.517 -0.289,0 -0.522,-0.231 -0.522,-0.517 z"
   id="path2485"
   style="fill:#0070af"
   transform="matrix(5.8956916,0,0,5.8956916,-2678.8785,-228.84717)" /><path
   clip-path="url(#SVGID_6_)"
   d="m 483.381,41.461 c 0.334,-0.519 0.852,-0.796 1.579,-0.796 0.558,0 1.005,0.169 1.316,0.484 0.387,0.391 0.538,0.996 0.538,1.7 v 3.307 h -0.787 v -3.241 c 0,-0.583 -0.113,-1.003 -0.377,-1.274 -0.187,-0.191 -0.459,-0.298 -0.8,-0.298 -0.692,0 -1.066,0.379 -1.264,0.808 -0.181,0.393 -0.206,0.995 -0.206,1.372 v 2.635 h -0.788 v -7.284 h 0.788 v 2.587"
   id="path2487"
   style="fill:#0070af"
   transform="matrix(5.8956916,0,0,5.8956916,-2678.8785,-228.84717)" /><path
   clip-path="url(#SVGID_6_)"
   d="m 492.865,41.659 c 0.354,-0.648 0.938,-0.996 1.665,-0.996 0.497,0 0.918,0.162 1.219,0.463 0.386,0.386 0.497,1.022 0.497,1.615 v 3.417 h -0.787 v -3.393 c 0,-0.462 -0.051,-0.894 -0.308,-1.15 -0.17,-0.169 -0.412,-0.254 -0.724,-0.254 -0.307,0 -0.604,0.124 -0.835,0.348 -0.243,0.25 -0.497,0.634 -0.497,1.486 v 2.963 h -0.787 v -3.547 c 0,-0.45 -0.105,-0.787 -0.315,-0.996 -0.167,-0.169 -0.408,-0.254 -0.718,-0.254 -0.312,0 -0.608,0.124 -0.836,0.348 -0.229,0.231 -0.502,0.675 -0.502,1.484 v 2.965 h -0.786 v -5.373 h 0.759 v 0.72 c 0.147,-0.286 0.59,-0.842 1.535,-0.842 0.269,0 1.118,0.073 1.42,0.996"
   id="path2489"
   style="fill:#0070af"
   transform="matrix(5.8956916,0,0,5.8956916,-2678.8785,-228.84717)" /><path
   clip-path="url(#SVGID_6_)"
   d="m 497.226,40.785 h 0.787 v 5.373 h -0.787 v -5.373 z m -0.127,-1.452 c 0,-0.285 0.233,-0.517 0.521,-0.517 0.288,0 0.521,0.232 0.521,0.517 0,0.286 -0.232,0.517 -0.521,0.517 -0.288,0 -0.521,-0.231 -0.521,-0.517 z"
   id="path2491"
   style="fill:#0070af"
   transform="matrix(5.8956916,0,0,5.8956916,-2678.8785,-228.84717)" /><path
   clip-path="url(#SVGID_6_)"
   d="m 501.147,41.406 c 0.858,0 1.499,0.845 1.499,2.048 0,1.353 -0.484,2.141 -1.459,2.141 -0.908,0 -1.479,-0.793 -1.479,-2.063 10e-4,-1.303 0.569,-2.126 1.439,-2.126 m 1.525,-2.532 v 2.643 c -0.258,-0.412 -0.698,-0.852 -1.555,-0.852 -1.375,0 -2.221,1.118 -2.221,2.855 0,1.703 0.855,2.758 2.276,2.758 1.527,0 2.287,-1.101 2.287,-3.005 v -4.399 h -0.787 z"
   id="path2493"
   style="fill:#0070af"
   transform="matrix(5.8956916,0,0,5.8956916,-2678.8785,-228.84717)" /><path
   clip-path="url(#SVGID_6_)"
   d="m 518.413,41.406 c 0.86,0 1.499,0.845 1.499,2.048 0,1.353 -0.484,2.141 -1.458,2.141 -0.908,0 -1.479,-0.793 -1.479,-2.063 10e-4,-1.303 0.569,-2.126 1.438,-2.126 m 1.526,-2.532 v 2.643 c -0.26,-0.412 -0.699,-0.852 -1.556,-0.852 -1.375,0 -2.222,1.118 -2.222,2.855 0,1.703 0.855,2.758 2.277,2.758 1.527,0 2.286,-1.101 2.286,-3.005 v -4.399 h -0.785 z"
   id="path2495"
   style="fill:#0070af"
   transform="matrix(5.8956916,0,0,5.8956916,-2678.8785,-228.84717)" /><rect
   x="525.23999"
   y="49.987"
   clip-path="url(#SVGID_6_)"
   width="5.6750002"
   height="27.916"
   id="rect2497"
   style="fill:#0070af"
   transform="matrix(5.8956916,0,0,5.8956916,-2678.8785,-228.84717)" /><path
   clip-path="url(#SVGID_6_)"
   d="m 528.097,47.382 c 1.904,0 3.455,-1.577 3.455,-3.52 0,-1.948 -1.551,-3.532 -3.455,-3.532 -1.926,0 -3.473,1.584 -3.473,3.532 0,1.943 1.547,3.52 3.473,3.52"
   id="path2499"
   style="fill:#0070af"
   transform="matrix(5.8956916,0,0,5.8956916,-2678.8785,-228.84717)" /><path
   clip-path="url(#SVGID_6_)"
   d="M 498.595,77.903 V 61.402 c 0,-4.862 -2.142,-6.676 -5.395,-6.676 -3.784,0 -5.395,2.766 -5.395,8.368 v 14.809 h -5.674 V 61.694 c 0,-7.165 3.758,-12.32 11.34,-12.32 3.58,0 6.335,1.579 7.955,3.515 1.621,-1.936 4.376,-3.515 7.957,-3.515 7.58,0 11.339,5.155 11.339,12.32 v 16.209 h -5.674 V 63.094 c 0,-5.602 -1.609,-8.368 -5.394,-8.368 -3.253,0 -5.396,1.814 -5.396,6.676 v 16.501 h -5.663"
   id="path2501"
   style="fill:#0070af"
   transform="matrix(5.8956916,0,0,5.8956916,-2678.8785,-228.84717)" /><path
   clip-path="url(#SVGID_6_)"
   d="m 466.688,54.685 c -3.552,0 -6.449,3.168 -6.449,9.106 0,6.656 2.71,9.715 6.25,9.715 3.703,0 6.345,-2.801 6.345,-9.296 -10e-4,-6.597 -2.74,-9.525 -6.146,-9.525 M 454.38,40.789 h 5.673 V 51.99 c 0.738,-0.721 3.229,-2.613 6.521,-2.613 6.521,0 11.815,4.469 11.815,14.706 0,9.47 -4.101,14.423 -12.232,14.423 -4.861,0 -8.491,-2.374 -10.466,-7.283 -1.185,-2.943 -1.312,-7.368 -1.312,-10.72 V 40.789 z"
   id="path2503"
   style="fill:#0070af"
   transform="matrix(5.8956916,0,0,5.8956916,-2678.8785,-228.84717)" />
</svg>