<?xml version="1.0" encoding="UTF-8" standalone="no"?>
<svg
   xmlns:dc="http://purl.org/dc/elements/1.1/"
   xmlns:cc="http://creativecommons.org/ns#"
   xmlns:rdf="http://www.w3.org/1999/02/22-rdf-syntax-ns#"
   xmlns:svg="http://www.w3.org/2000/svg"
   xmlns="http://www.w3.org/2000/svg"
   xmlns:xlink="http://www.w3.org/1999/xlink"
   xmlns:sodipodi="http://sodipodi.sourceforge.net/DTD/sodipodi-0.dtd"
   xmlns:inkscape="http://www.inkscape.org/namespaces/inkscape"
   version="1.1"
   id="Layer_1"
   x="0px"
   y="0px"
   width="615"
   height="263"
   viewBox="0 0 615 263"
   enable-background="new 0 0 1167.87 819.213"
   xml:space="preserve"><defs
   id="defs1148">

<linearGradient
   inkscape:collect="always"
   xlink:href="#SVGID_1_"
   id="linearGradient3439"
   gradientUnits="userSpaceOnUse"
   gradientTransform="matrix(36.6668,0,0,-36.6668,523.43128,30345.669)"
   x1="-0.00048828131"
   y1="819.21289"
   x2="0.99949998"
   y2="819.21289" /><linearGradient
   inkscape:collect="always"
   xlink:href="#SVGID_1_"
   id="linearGradient3446"
   gradientUnits="userSpaceOnUse"
   gradientTransform="matrix(425.26602,0,0,-425.26602,110.70784,348433.23)"
   x1="-0.00048828131"
   y1="819.21289"
   x2="0.99949998"
   y2="819.21289" /></defs>
<linearGradient
   id="SVGID_1_"
   gradientUnits="userSpaceOnUse"
   x1="-0.00048828131"
   y1="819.21289"
   x2="0.99949998"
   y2="819.21289"
   gradientTransform="matrix(36.6668,0,0,-36.6668,523.43128,30345.669)">
	<stop
   offset="0"
   style="stop-color:#D8182A"
   id="stop4" />
	<stop
   offset="0.04"
   style="stop-color:#D8182A"
   id="stop6" />
	<stop
   offset="0.58"
   style="stop-color:#FFF451"
   id="stop8" />
	<stop
   offset="0.64"
   style="stop-color:#FFFEF1"
   id="stop10" />
	<stop
   offset="0.72"
   style="stop-color:#FFFCD6"
   id="stop12" />
	<stop
   offset="0.7267"
   style="stop-color:#FFFBCC"
   id="stop14" />
	<stop
   offset="0.8"
   style="stop-color:#FFF451"
   id="stop16" />
	<stop
   offset="0.95"
   style="stop-color:#DE4C2F"
   id="stop18" />
	<stop
   offset="0.98"
   style="stop-color:#D8182A"
   id="stop20" />
	<stop
   offset="1"
   style="stop-color:#D8182A"
   id="stop22" />
</linearGradient>










		
	







<path
   clip-rule="evenodd"
   d="m 324.61781,9.857821e-4 c 88.18052,0 147.35414,33.4373862179 179.89847,60.3914212179 21.97844,18.22065 31.26853,33.47218 31.26853,33.47218 l -3.36345,0.301551 c 0,0 -58.61691,-71.908356 -209.56647,-71.908356 -82.07991,0 -145.33606,27.255587 -179.26057,50.347448 -21.15498,14.393269 -30.58425,26.698876 -30.58425,26.698876 l -2.49359,-2.505194 c 0,-0.0116 62.50227,-96.7979262179 214.10133,-96.7979262179"
   id="path24"
   style="fill:url(#linearGradient3446);fill-rule:evenodd"
   inkscape:connector-curvature="0"
   clip-path="none" /><path
   clip-rule="evenodd"
   d="m 10.053542,132.96186 c 0,0.6031 -0.1507753,1.183 0.579906,1.183 1.29899,0 3.433044,-2.18044 7.933116,-5.02198 10.217945,-6.42536 28.403801,-16.79408 46.404086,-16.79408 10.009179,0 18.742565,4.2797 18.742565,13.90615 0,10.27593 -7.492387,17.8727 -15.239932,22.2336 -8.269461,4.66244 -16.828875,5.72947 -16.828875,5.72947 l 7.666358,-31.66288 c 0,0 -6.784901,0.92785 -12.641953,2.5284 -5.857051,1.61213 -14.207699,6.00782 -17.431977,18.45261 -3.224278,12.45638 -18.162659,72.48826 -18.742565,75.27181 -0.5915043,2.78355 -4.1057353,5.41632 -4.836417,5.71787 -0.7306816,0.27836 -3.0735023,1.73972 -1.7513164,1.73972 1.3105878,0 9.6612354,0.88146 34.5508054,0.88146 57.317919,0 64.288387,-30.51466 64.288387,-41.30091 0,-27.09322 -33.089439,-27.24399 -33.089439,-27.24399 0,0 8.188274,-1.09023 17.118828,-5.42792 11.168992,-5.42792 23.590581,-15.51829 23.590581,-30.15512 0,-19.82119 -21.572507,-25.921803 -31.918032,-25.921803 -42.762276,0.0116 -68.394126,33.738933 -68.394126,35.884593 m 47.447917,33.2982 c 4.685642,0.48713 17.373987,2.99232 17.373987,19.22969 0,12.39839 -9.719226,24.51843 -20.911414,28.99531 -8.895759,3.57222 -17.35079,2.25003 -17.35079,2.25003 l 12.201224,-50.77658 c 0,0 4.001352,-0.18557 8.686993,0.30155 z"
   id="path26"
   inkscape:connector-curvature="0"
   style="fill:#fff200;fill-rule:evenodd"
   clip-path="none" /><path
   clip-rule="evenodd"
   d="m 155.03007,151.41447 c 17.40878,0 27.53394,11.0878 27.53394,26.5481 0,31.08297 -25.945,50.67219 -47.35513,50.67219 -11.26178,0 -28.69376,-4.37249 -28.69376,-28.79813 0,-18.18586 17.04924,-48.42216 48.51495,-48.42216 m -3.60702,10.64707 c 5.91504,0 7.21403,7.07486 7.21403,12.09685 0,21.14337 -11.05301,43.8293 -20.40109,43.8293 -4.39569,0 -7.51559,-3.35186 -7.51559,-10.05557 0,-24.40245 10.61229,-45.87058 20.70265,-45.87058 z"
   id="path28"
   inkscape:connector-curvature="0"
   style="fill:#fff200;fill-rule:evenodd"
   clip-path="none" /><path
   clip-rule="evenodd"
   d="m 194.24332,154.41838 c 3.23587,-0.89305 8.07229,-2.14565 11.65611,-2.62117 12.3752,-1.64694 11.59812,3.79258 11.31977,6.34417 -0.28996,2.64437 -1.36858,6.25139 -1.36858,6.25139 0,0 16.01701,-13.08268 28.70535,-13.08268 8.19987,0 11.43575,5.5207 11.54013,12.80432 0.058,3.97816 -1.32218,9.10453 -2.56318,14.2425 -3.51423,14.55564 -6.14701,24.50683 -7.31842,31.63967 -4.21012,25.62025 12.51438,41.30092 41.59087,41.30092 18.32503,0 39.30603,-8.687 42.17077,-10.83265 0.78867,-0.59151 1.56575,-0.39434 1.94848,0.39434 0.39434,0.76547 0.39434,1.55414 -0.77707,2.33122 C 329.97614,243.96748 309.66783,263 277.84258,263 c -37.80988,0 -54.56916,-21.24776 -54.56916,-44.60638 0,-9.78881 3.46784,-22.76711 5.86865,-33.54177 1.18301,-5.35833 1.97168,-10.17155 2.23843,-11.18059 0.77708,-3.0387 0,-5.86865 -2.35441,-5.86865 -2.34283,0 -4.48848,1.2526 -6.34418,2.16885 -4.19852,2.04127 -9.2669,6.8313 -9.2669,6.8313 0,0 -6.1586,29.67959 -8.98854,38.85371 -3.15469,10.24114 -7.08645,10.91383 -13.5698,11.23858 -6.14701,0.27835 -13.46542,0 -13.46542,0 0,0 1.73971,-3.59542 5.65988,-16.01701 4.58126,-14.55564 9.45247,-40.05991 9.93959,-47.18116 0.18557,-2.62118 -0.10438,-4.61605 -0.53351,-5.84545 -0.91625,-2.67917 -3.31707,-2.02968 1.78611,-3.43305"
   id="path30"
   inkscape:connector-curvature="0"
   style="fill:#fff200;fill-rule:evenodd"
   clip-path="none" /><path
   clip-rule="evenodd"
   d="m 313.66918,151.50725 c 0,0 5.98463,-30.47986 6.76171,-35.06112 0.52191,-3.03871 -0.81187,-6.20499 -2.18045,-7.21403 -0.81187,-0.6147 -1.76292,-0.95105 0.12758,-1.76292 0.23196,-0.11598 0.51031,-0.22036 0.84666,-0.33634 3.75779,-1.32219 11.70251,-3.35186 15.92422,-3.35186 7.04006,0 10.26434,4.82482 8.39704,13.18707 -1.46136,6.54134 -18.25544,79.96905 -19.32247,86.01167 -1.39177,7.82873 -2.02967,11.34296 0.28995,15.12395 0.6379,1.06703 2.4936,2.37762 3.88537,3.27067 1.40338,0.90465 1.06703,1.51935 0.15078,2.13405 -2.74875,1.77452 -9.05813,5.14957 -17.51316,5.14957 -15.42551,0 -11.1226,-14.45126 -11.1226,-14.45126 0,0 -11.04141,14.25409 -25.09834,14.25409 -9.8932,0 -18.15106,-7.58517 -18.15106,-24.90116 0,-31.10617 27.62673,-52.12197 51.73922,-52.12197 1.46137,-0.0232 5.26555,0.0696 5.26555,0.0696 m -2.34282,10.06717 -8.88416,40.60503 c 0,0 -8.00271,9.67283 -14.25409,9.67283 -6.23979,0 -7.01687,-5.27714 -7.01687,-10.26434 0,-17.57115 10.5195,-31.09456 20.23873,-36.75444 4.24491,-2.45881 9.91639,-3.25908 9.91639,-3.25908 z"
   id="path32"
   inkscape:connector-curvature="0"
   style="fill:#fff200;fill-rule:evenodd"
   clip-path="none" /><path
   clip-rule="evenodd"
   d="m 344.4506,155.19546 c 2.76035,-0.97425 11.36616,-3.76939 18.23224,-3.76939 9.3133,0 7.96791,5.43952 5.94984,14.43966 -2.23844,10.05557 -8.68699,36.91682 -9.06973,39.05088 -0.39434,2.15725 -1.18301,6.94727 2.4356,6.94727 5.65989,0 14.45126,-8.69859 14.45126,-8.69859 0,0 5.94984,-27.24399 8.19988,-37.29956 2.74875,-12.32881 12.80432,-13.73218 18.45261,-13.5698 3.31706,0.10438 6.54134,0.28995 6.54134,0.28995 0,0 -11.66771,52.16835 -12.59556,58.18778 -0.88146,5.69467 2.89953,9.44087 5.26555,10.4963 0.77707,0.34794 2.05286,1.38017 0.17397,2.33122 -2.60958,1.34538 -8.17668,4.98719 -17.25801,4.98719 -14.63683,0 -11.22698,-13.02469 -11.22698,-13.02469 0,0 -14.54404,12.88551 -27.1396,12.88551 -12.58397,0 -12.29401,-12.50277 -10.73987,-19.1369 1.14822,-4.85961 5.65989,-22.46556 8.16508,-34.63199 0.92785,-4.48847 1.2178,-8.87256 1.35698,-10.38032 0.40594,-4.34929 -0.0232,-6.93567 -1.12502,-7.67795 -0.84666,-0.55671 -0.85826,-1.15982 -0.0696,-1.42657"
   id="path34"
   inkscape:connector-curvature="0"
   style="fill:#fff200;fill-rule:evenodd"
   clip-path="none" /><path
   clip-rule="evenodd"
   d="m 458.01941,151.41447 c 13.73217,0 20.05315,8.23467 20.05315,16.38814 0,23.26584 -34.71318,32.66032 -44.02647,33.10105 0,3.71139 0.97424,13.46541 12.59556,13.46541 11.62132,0 21.08538,-7.12124 21.57251,-7.42279 0.48712,-0.30155 2.25003,-0.48712 1.76291,0.77707 -0.48712,1.2642 -7.90992,20.70265 -34.45802,20.70265 -22.91789,0 -25.2955,-17.58275 -25.2955,-28.99531 0,-18.42941 15.83143,-48.01622 47.79586,-48.01622 m -23.86894,42.07799 c 0,0 0.84666,-6.34418 3.17789,-12.67675 3.36345,-9.15092 9.68443,-19.63562 17.11882,-19.63562 2.18045,0 3.81579,1.2062 3.81579,4.48847 0,9.53366 -6.59933,17.83791 -12.9783,22.44237 -5.63669,4.07094 -11.1342,5.38153 -11.1342,5.38153 z"
   id="path36"
   inkscape:connector-curvature="0"
   style="fill:#fff200;fill-rule:evenodd"
   clip-path="none" /><path
   clip-rule="evenodd"
   d="m 494.71586,107.41119 c 0.76548,-0.23196 9.25531,-3.39825 15.99381,-3.39825 6.72692,0 10.77466,4.16373 8.77978,12.94351 -1.99487,8.79137 -19.54283,86.86993 -20.30831,90.58133 -0.76547,3.67661 0.11598,8.77978 2.25004,10.65867 2.34282,2.04127 3.29386,2.77196 4.10573,3.07351 0.80027,0.28995 1.53095,1.17141 0.44073,1.8325 -1.10182,0.6495 -7.53878,5.48591 -19.33407,5.48591 -11.78369,0 -11.42415,-9.66123 -10.98342,-13.90615 0.44073,-4.24491 19.40366,-88.96919 20.28512,-94.15355 0.88145,-5.19596 0.46392,-7.94471 0.058,-9.2553 -0.22037,-0.68429 -1.17141,-1.97168 -1.64694,-2.36602 -0.66109,-0.6031 -0.98584,-1.06703 0.35954,-1.49616"
   id="path38"
   inkscape:connector-curvature="0"
   style="fill:#fff200;fill-rule:evenodd"
   clip-path="none" /><path
   clip-rule="evenodd"
   d="m 594.93524,151.41447 c 13.73217,0 20.06475,8.23467 20.06475,16.38814 0,23.26584 -34.72478,32.66032 -44.02647,33.10105 0,3.71139 0.97424,13.46541 12.59556,13.46541 11.60972,0 21.08538,-7.12124 21.5725,-7.42279 0.48713,-0.30155 2.25004,-0.48712 1.76292,0.77707 -0.49872,1.2642 -7.90992,20.70265 -34.46962,20.70265 -22.90629,0 -25.28391,-17.58275 -25.28391,-28.99531 0,-18.42941 15.83144,-48.01622 47.78427,-48.01622 m -23.86894,42.07799 c 0,0 0.85826,-6.34418 3.17789,-12.67675 3.37505,-9.15092 9.68443,-19.63562 17.13042,-19.63562 2.18045,0 3.80419,1.2062 3.80419,4.48847 0,9.53366 -6.59933,17.83791 -12.9667,22.44237 -5.63669,4.07094 -11.1458,5.38153 -11.1458,5.38153 z"
   id="path40"
   inkscape:connector-curvature="0"
   style="fill:#fff200;fill-rule:evenodd"
   clip-path="none" /><path
   style="fill:#fff200;fill-rule:evenodd"
   inkscape:connector-curvature="0"
   id="path50"
   d="m 530.73965,107.41123 c 0.76548,-0.23197 9.25531,-3.39825 15.99381,-3.39825 6.73851,0 10.77466,4.16372 8.77978,12.9435 -1.98328,8.79138 -19.54283,86.86993 -20.30831,90.58133 -0.76547,3.67661 0.11598,8.77978 2.25004,10.65868 2.35442,2.04127 3.30546,2.77195 4.10573,3.0735 0.80027,0.30155 1.54255,1.17141 0.44073,1.8325 -1.10182,0.6495 -7.53878,5.48591 -19.33407,5.48591 -11.78369,0 -11.42415,-9.66123 -10.98342,-13.90614 0.44073,-4.24492 19.40366,-88.9692 20.28512,-94.15356 0.88145,-5.19596 0.46392,-7.94471 0.058,-9.2553 -0.22037,-0.68429 -1.17141,-1.97168 -1.64694,-2.36602 -0.66109,-0.6031 -0.98584,-1.06702 0.35954,-1.49615"
   clip-rule="evenodd"
   clip-path="none" /><path
   style="fill:#004d22;fill-rule:evenodd"
   inkscape:connector-curvature="0"
   id="path52"
   d="m 6.5393343,127.68474 c 0,0.60311 -0.1391775,1.18301 0.5915042,1.18301 1.2989896,0 3.4330445,-2.18045 7.9215175,-5.02199 10.229543,-6.42535 28.403801,-16.79408 46.404086,-16.79408 10.009179,0 18.742565,4.29131 18.742565,13.89455 0,10.27594 -7.492387,17.88431 -15.239932,22.2452 -8.269461,4.66245 -16.828875,5.72947 -16.828875,5.72947 l 7.666358,-31.66287 c 0,0 -6.784901,0.92785 -12.641953,2.52839 -5.857051,1.61214 -14.207699,6.00783 -17.431977,18.45261 -3.21268,12.44479 -18.1510609,72.48827 -18.7425651,75.27182 -0.5799061,2.78355 -4.0941371,5.41632 -4.8248188,5.71787 -0.7422798,0.27835 -3.07350229,1.73972 -1.7629145,1.73972 1.3221859,0 9.6728334,0.88146 34.5624034,0.88146 57.306321,0 64.28839,-30.51466 64.28839,-41.30092 0,-27.09321 -33.10104,-27.24399 -33.10104,-27.24399 0,0 8.188274,-1.09022 17.130426,-5.42792 11.168992,-5.42792 23.578981,-15.51828 23.578981,-30.15511 0,-19.821194 -21.572505,-25.921806 -31.91803,-25.921806 C 32.171184,91.82335 6.5393343,125.55069 6.5393343,127.68474 m 47.4479167,33.30981 c 4.685642,0.48712 17.385585,3.00391 17.385585,19.22969 0,12.39839 -9.719226,24.51843 -20.911414,29.0069 -8.907357,3.56062 -17.362388,2.22684 -17.362388,2.22684 L 45.300258,160.693 c 0,0 4.001352,-0.19717 8.686993,0.30155 z"
   clip-rule="evenodd"
   clip-path="none" /><path
   clip-rule="evenodd"
   d="m 151.51584,146.14892 c 17.42038,0 27.53394,11.0994 27.53394,26.5597 0,31.07137 -25.9334,50.649 -47.34354,50.649 -11.26177,0 -28.70535,-4.36089 -28.70535,-28.78654 0,-18.18585 17.04924,-48.42216 48.51495,-48.42216 m -3.60702,10.64708 c 5.92664,0 7.22563,7.07485 7.22563,12.09684 0,21.14337 -11.06461,43.8293 -20.4011,43.8293 -4.39568,0 -7.51558,-3.35186 -7.51558,-10.04397 0,-24.41405 10.60068,-45.88217 20.69105,-45.88217 z"
   id="path54"
   inkscape:connector-curvature="0"
   style="fill:#004d22;fill-rule:evenodd"
   clip-path="none" /><path
   clip-rule="evenodd"
   d="m 190.74068,149.15283 c 3.23588,-0.89305 8.0723,-2.14565 11.64452,-2.62117 12.3752,-1.65853 11.60972,3.79259 11.31977,6.35577 -0.28996,2.63277 -1.36858,6.22819 -1.36858,6.22819 0,0 16.017,-13.07108 28.70535,-13.07108 8.21147,0 11.44735,5.5207 11.54013,12.79273 0.0696,3.98975 -1.31059,9.11612 -2.55159,14.25409 -3.51423,14.54404 -6.1586,24.50683 -7.33001,31.65127 -4.21012,25.60866 12.51438,41.28932 41.59087,41.28932 18.32503,0 39.31763,-8.687 42.18237,-10.83265 0.77707,-0.5915 1.55415,-0.39433 1.94848,0.39434 0.39434,0.76547 0.39434,1.55415 -0.77707,2.31962 -1.17141,0.78867 -21.47972,19.82119 -53.30497,19.82119 -37.82148,0 -54.58076,-21.23616 -54.58076,-44.61797 0,-9.77722 3.46783,-22.75552 5.86865,-33.53017 1.1946,-5.35834 1.97168,-10.17156 2.23843,-11.18059 0.77708,-3.03871 0,-5.85705 -2.34282,-5.85705 -2.34282,0 -4.50007,1.2294 -6.34417,2.14565 -4.19852,2.05287 -9.2785,6.84289 -9.2785,6.84289 0,0 -6.147,29.69119 -8.97694,38.86531 -3.15469,10.22954 -7.09805,10.90223 -13.56981,11.22698 -6.1586,0.27835 -13.47701,0 -13.47701,0 0,0 1.73971,-3.59542 5.65988,-16.01701 4.59286,-14.54404 9.46407,-40.05991 9.95119,-47.19276 0.17397,-2.59798 -0.11598,-4.60445 -0.53352,-5.83385 -0.92785,-2.67917 -3.32866,-2.02967 1.78611,-3.43305"
   id="path56"
   inkscape:connector-curvature="0"
   style="fill:#004d22;fill-rule:evenodd"
   clip-path="none" /><path
   clip-rule="evenodd"
   d="m 310.16655,146.24171 c 0,0 5.97303,-30.47987 6.7617,-35.06113 0.51032,-3.0387 -0.82346,-6.20499 -2.18044,-7.22563 -0.82347,-0.6031 -1.77452,-0.93944 0.11598,-1.75131 0.23196,-0.11598 0.52191,-0.22037 0.84666,-0.33635 3.75779,-1.32218 11.7025,-3.351856 15.93582,-3.351856 7.04006,0 10.26434,4.824816 8.39704,13.187066 -1.47296,6.54134 -18.25544,79.96905 -19.33407,86.00007 -1.39177,7.84033 -2.02967,11.35456 0.28995,15.14715 0.6495,1.05543 2.4936,2.37762 3.89697,3.25907 1.39178,0.90466 1.06703,1.51936 0.13918,2.13406 -2.74876,1.77451 -9.04654,5.13797 -17.50157,5.13797 -15.4255,0 -11.13419,-14.45126 -11.13419,-14.45126 0,0 -11.02982,14.25409 -25.08674,14.25409 -9.8932,0 -18.16266,-7.57358 -18.16266,-24.88957 0,-31.10617 27.62673,-52.12196 51.75082,-52.12196 1.46136,-0.0232 5.26555,0.0696 5.26555,0.0696 m -2.34282,10.06717 -8.88416,40.60502 c 0,0 -8.00271,9.66124 -14.2541,9.66124 -6.25138,0 -7.02846,-5.26555 -7.02846,-10.25274 0,-17.57116 10.5311,-31.09457 20.23872,-36.75445 4.25651,-2.4588 9.928,-3.25907 9.928,-3.25907 z"
   id="path58"
   inkscape:connector-curvature="0"
   style="fill:#004d22;fill-rule:evenodd"
   clip-path="none" /><path
   clip-rule="evenodd"
   d="m 340.93636,149.91831 c 2.77196,-0.97424 11.37776,-3.76939 18.23225,-3.76939 9.31329,0 7.97951,5.43952 5.96144,14.43966 -2.25004,10.05557 -8.687,36.91683 -9.08133,39.05088 -0.38274,2.15725 -1.17141,6.93568 2.4472,6.93568 5.65989,0 14.43966,-8.687 14.43966,-8.687 0,0 5.96144,-27.24399 8.19988,-37.29956 2.76035,-12.3288 12.80432,-13.74377 18.45261,-13.5698 3.32866,0.10438 6.54134,0.28995 6.54134,0.28995 0,0 -11.66771,52.16836 -12.59556,58.18778 -0.86986,5.69468 2.91113,9.44087 5.27714,10.4963 0.76548,0.34795 2.05287,1.38018 0.17398,2.33122 -2.60958,1.33379 -8.18828,4.9872 -17.25801,4.9872 -14.64843,0 -11.22698,-13.03629 -11.22698,-13.03629 0,0 -14.54405,12.88551 -27.13961,12.88551 -12.59556,0 -12.30561,-12.49118 -10.73986,-19.1253 1.13662,-4.85962 5.64829,-22.46556 8.16508,-34.63199 0.91625,-4.48848 1.2062,-8.87257 1.35698,-10.38032 0.40593,-4.3493 -0.0232,-6.94728 -1.13662,-7.67796 -0.83506,-0.54511 -0.84666,-1.14821 -0.0696,-1.42657"
   id="path60"
   inkscape:connector-curvature="0"
   style="fill:#004d22;fill-rule:evenodd"
   clip-path="none" /><path
   clip-rule="evenodd"
   d="m 454.50518,146.14892 c 13.73217,0 20.06475,8.23467 20.06475,16.39975 0,23.25423 -34.72478,32.64871 -44.02647,33.10104 0,3.71139 0.97424,13.46542 12.59556,13.46542 11.60972,0 21.08538,-7.12125 21.5725,-7.4112 0.48712,-0.30156 2.23844,-0.48713 1.75132,0.76547 -0.48712,1.2642 -7.89832,20.69105 -34.45802,20.69105 -22.90629,0 -25.28391,-17.57115 -25.28391,-28.9953 0,-18.42942 15.83144,-48.01623 47.78427,-48.01623 m -23.86894,42.07799 c 0,0 0.85826,-6.33258 3.18948,-12.67675 3.36346,-9.13932 9.67284,-19.63562 17.11883,-19.63562 2.18045,0 3.80419,1.2062 3.80419,4.48847 0,9.53366 -6.59934,17.83791 -12.9667,22.45397 -5.63669,4.05934 -11.1458,5.36993 -11.1458,5.36993 z"
   id="path62"
   inkscape:connector-curvature="0"
   style="fill:#004d22;fill-rule:evenodd"
   clip-path="none" /><path
   clip-rule="evenodd"
   d="m 491.20163,102.15724 c 0.76548,-0.24356 9.2553,-3.398245 15.99381,-3.398245 6.73851,0 10.77466,4.152125 8.79138,12.931905 -1.99488,8.80298 -19.55443,86.86993 -20.30831,90.56974 -0.76548,3.6882 0.11598,8.79137 2.25003,10.67027 2.34282,2.04127 3.29387,2.77195 4.10574,3.0735 0.80027,0.28995 1.53095,1.18301 0.42913,1.8325 -1.09022,0.6495 -7.53878,5.48591 -19.32247,5.48591 -11.79529,0 -11.42415,-9.66123 -10.98342,-13.90614 0.44073,-4.24492 19.40366,-88.9692 20.28511,-94.15356 0.86986,-5.19596 0.46393,-7.94471 0.0464,-9.2437 -0.20876,-0.69589 -1.17141,-1.98328 -1.63533,-2.38921 -0.67269,-0.59151 -0.98584,-1.06703 0.34794,-1.47297"
   id="path64"
   inkscape:connector-curvature="0"
   style="fill:#004d22;fill-rule:evenodd"
   clip-path="none" /><path
   clip-rule="evenodd"
   d="m 591.4326,146.14892 c 13.73218,0 20.06475,8.23467 20.06475,16.39975 0,23.25423 -34.72477,32.64871 -44.03806,33.10104 0,3.71139 0.98584,13.46542 12.59556,13.46542 11.62131,0 21.08538,-7.12125 21.5841,-7.4112 0.48712,-0.30156 2.23844,-0.48713 1.75132,0.76547 -0.48712,1.2642 -7.90992,20.69105 -34.45802,20.69105 -22.91789,0 -25.29551,-17.57115 -25.29551,-28.9953 0,-18.42942 15.84304,-48.01623 47.79586,-48.01623 m -23.86893,42.07799 c 0,0 0.84666,-6.33258 3.17788,-12.67675 3.36346,-9.13932 9.68444,-19.63562 17.13043,-19.63562 2.18045,0 3.80418,1.2062 3.80418,4.48847 0,9.53366 -6.59933,17.83791 -12.97829,22.45397 -5.63669,4.05934 -11.1342,5.36993 -11.1342,5.36993 z"
   id="path66"
   inkscape:connector-curvature="0"
   style="fill:#004d22;fill-rule:evenodd"
   clip-path="none" /><path
   clip-rule="evenodd"
   d="m 527.2254,102.15724 c 0.76548,-0.24356 9.2553,-3.398245 15.99381,-3.398245 6.73851,0 10.78625,4.152125 8.79138,12.931905 -1.99488,8.80298 -19.55444,86.86993 -20.30831,90.56974 -0.76548,3.6882 0.10438,8.79137 2.25003,10.67027 2.34282,2.04127 3.29387,2.77195 4.10574,3.0735 0.80027,0.28995 1.53095,1.18301 0.42913,1.8325 -1.09023,0.6495 -7.53878,5.48591 -19.32247,5.48591 -11.7837,0 -11.42415,-9.66123 -10.98343,-13.90614 0.44073,-4.24492 19.40366,-88.9692 20.28512,-94.15356 0.86986,-5.19596 0.46392,-7.94471 0.058,-9.2437 -0.22036,-0.69589 -1.17141,-1.98328 -1.64693,-2.38921 -0.67269,-0.59151 -0.98584,-1.06703 0.34794,-1.47297"
   id="path68"
   inkscape:connector-curvature="0"
   style="fill:#004d22;fill-rule:evenodd"
   clip-path="none" />
</svg>