<?xml version="1.0" encoding="UTF-8" standalone="no"?>
<svg
   xmlns:dc="http://purl.org/dc/elements/1.1/"
   xmlns:cc="http://creativecommons.org/ns#"
   xmlns:rdf="http://www.w3.org/1999/02/22-rdf-syntax-ns#"
   xmlns:svg="http://www.w3.org/2000/svg"
   xmlns="http://www.w3.org/2000/svg"
   xmlns:sodipodi="http://sodipodi.sourceforge.net/DTD/sodipodi-0.dtd"
   xmlns:inkscape="http://www.inkscape.org/namespaces/inkscape"
   version="1.1"
   id="Layer_1"
   x="0px"
   y="0px"
   width="400"
   height="400"
   viewBox="0 0 400.00002 400"
   enable-background="new 0 0 595.22 842"
   xml:space="preserve">
<path
   d="M 369.02039,0.02077904 H 27.698262 l -1.629222,0.4073 -1.629223,0.40731 H 23.2179 l -1.629223,0.40729996 -1.221916,0.81461 -1.629223,0.40731 -1.221917,0.81461 -1.221917,0.4073 -1.629223,0.81462 -3.665751,2.44384 -0.81461,1.22191 C 3.7826319,13.176749 -0.08677213,22.565139 0.00147787,30.568699 V 372.29814 l 0.407306,1.62922 0.407305,1.62922 v 1.22192 l 0.40730603,1.62922 0.814612,1.62923 0.407305,1.22191 0.407306,1.22192 0.814611,1.62922 0.814612,1.22192 0.814611,1.22192 0.814611,1.22191 0.814612,1.22192 1.221916,0.81461 c 4.5210921,6.25214 14.7851951,10.35235 22.4018111,10.18264 H 372.27884 l 1.62922,-0.4073 1.62922,-0.40731 h 1.22192 l 1.62923,-0.40731 1.22191,-0.81461 1.62923,-0.4073 1.22191,-0.40731 1.62922,-0.81461 4.88767,-3.25844 0.81461,-1.22192 c 6.66624,-5.17278 10.11476,-14.05205 10.18264,-22.40181 V 27.717559 l -0.81461,-3.25844 v -1.22192 l -0.4073,-1.62922 -0.81461,-1.22192 c -0.28512,-2.75611 -3.84904,-8.47196 -6.10959,-10.18264 -4.35139,-6.19784 -15.32827,-10.54242996 -22.80912,-10.18263996"
   id="path3"
   style="fill:#d42e12" />
<path
   d="m 267.60129,140.54123 c -3.74042,56.49329 -41.16502,122.03556 -86.7561,153.55422 C 89.608718,352.25191 54.974164,277.01577 83.906438,196.3421 l 39.508652,-12.21917 c -15.51834,24.12607 -28.504612,54.80297 -27.289472,83.90496 0.63811,25.93179 15.640532,42.48198 41.952482,30.95523 40.13318,-19.38096 78.73896,-94.39987 64.35428,-138.48392 l 65.16891,-19.95797"
   id="path5"
   style="fill:#ffffff" />
<path
   d="m 365.76195,110.80791 v 1.22192 l -4.07305,13.4343 -4.48037,13.44109 -4.88767,13.03377 -5.70227,12.62648 -6.10959,12.63326 c -14.94133,30.81267 -37.7165,60.9465 -62.31776,84.71958 -38.27315,39.23711 -105.07807,79.18022 -162.10765,66.79812 C 58.035744,315.43827 35.749337,265.97779 37.066292,210.59779 l 34.213674,-10.58994 c -21.519314,87.77437 27.146922,155.90302 117.304034,95.30952 51.34765,-36.92904 87.82867,-98.92775 99.78988,-160.88573 l 77.38807,-23.62373"
   id="path7"
   style="fill:#ffffff" />
<path
   d="m 120.97126,153.98232 c 19.02117,-23.47439 77.1912,-70.097311 107.936,-43.98902 L 248.86523,82.703819 C 203.47102,44.179489 138.9538,100.84929 113.63976,138.0974 l 7.3315,15.88492"
   id="path9"
   style="fill:#ffffff" />
<path
   d="m 130.74659,174.34759 c 11.64894,-13.49539 28.38241,-30.12025 47.24745,-31.36253 4.60935,-0.31226 5.84485,0.69242 10.18265,1.62922 l 1.62922,0.81462 1.22192,0.81461 0.4073,0.4073 h 0.81461 l 0.81461,0.81461 c 2.35559,2.6407 3.15662,1.74463 4.88768,5.29497 l 23.21642,-32.17714 C 192.8675,93.823269 141.55377,135.864 122.60048,157.24076 l 8.14611,17.10683"
   id="path11"
   style="fill:#ffffff" />
</svg>