<?xml version="1.0" encoding="UTF-8" standalone="no"?>
<!-- Created with Inkscape (http://www.inkscape.org/) -->

<svg
   xmlns:dc="http://purl.org/dc/elements/1.1/"
   xmlns:cc="http://creativecommons.org/ns#"
   xmlns:rdf="http://www.w3.org/1999/02/22-rdf-syntax-ns#"
   xmlns:svg="http://www.w3.org/2000/svg"
   xmlns="http://www.w3.org/2000/svg"
   version="1.1"
   width="180"
   height="25"
   id="svg3626">
  <defs
     id="defs3628" />
  <metadata
     id="metadata3631">
    <rdf:RDF>
      <cc:Work
         rdf:about="">
        <dc:format>image/svg+xml</dc:format>
        <dc:type
           rdf:resource="http://purl.org/dc/dcmitype/StillImage" />
        <dc:title></dc:title>
      </cc:Work>
    </rdf:RDF>
  </metadata>
  <g
     transform="translate(-314.17402,-736.23691)"
     id="layer1">
    <path
       d="m 368.6884,741.64879 -5.3875,18.5725 -6.2525,0 5.39,-18.5725 6.25,0"
       id="path3079"
       style="fill:#000000;fill-opacity:1;fill-rule:nonzero;stroke:none" />
    <path
       d="m 365.78464,760.22129 5.3875,-18.5725 8.28751,0 c 2.40875,0 3.78125,0.39125 4.57499,1.61875 0.68625,1.065 0.79251,2.54875 0.11125,4.945 l -1.88875,6.5825 c -0.445,1.42875 -1.07,2.91 -2.3925,3.96875 -1.0025,0.80875 -2.5025,1.4575 -5.89875,1.4575 l -8.18125,0 z m 8.145,-3.3875 c 0.91251,-0.004 1.4925,-0.39125 1.70875,-1.24626 l 4.005,-13.89999 c -1.4975,1.16999 -2.96125,1.99374 -3.37124,3.40999 l -3.4025,11.73626 1.06,0"
       id="path3081"
       style="fill:#000000;fill-opacity:1;fill-rule:nonzero;stroke:none" />
    <path
       d="m 451.1859,755.54254 4.05,-14.09001 c -1.885,1.50375 -3.15125,2.31501 -3.44126,3.38 l -3.07999,10.78251 c -0.2525,0.86375 -0.06,1.37249 0.9225,1.37249 1.06625,0 1.2,-0.34375 1.54875,-1.445 z m -3.2525,-13.3625 c 0.88749,-0.4925 1.82125,-0.7875 6.1125,-0.7875 3.6225,0 4.95875,0.43375 5.70875,1.69625 0.68875,1.15875 0.5875,2.75874 -0.075,5.08 l -1.9275,6.575 c -0.4975,1.64125 -1.06875,3.05375 -2.3225,4.33625 -1.19,1.22125 -3.17375,1.34625 -6.75375,1.34625 -3.58,0 -4.62,-0.31375 -5.54625,-1.31625 -1.0975,-1.19125 -1.14125,-2.27 0.2275,-6.9125 l 1.23875,-4.47125 c 1.03125,-3.78625 2.08875,-4.85375 3.3375,-5.54625"
       id="path3083"
       style="fill:#000000;fill-opacity:1;fill-rule:nonzero;stroke:none" />
    <path
       d="m 476.3984,748.14254 c 0.82375,-2.5325 0.965,-4.1625 0.255,-5.09 -0.795,-1.045 -1.4425,-1.40375 -3.7475,-1.40375 l -9.3925,0 -5.39375,18.5725 6.1025,0 4.375,-15.11875 c 0.34375,-1.17125 1.23375,-1.71875 3.38125,-3.415 l -5.37875,18.53375 6.28375,0 3.515,-12.07875"
       id="path3085"
       style="fill:#000000;fill-opacity:1;fill-rule:nonzero;stroke:none" />
    <path
       d="m 444.55715,745.46879 1.1075,-3.82001 -12.3475,0 -1.1,3.82001 5.1825,0 c -1.38,1.125 -2.72625,2.03499 -3.13876,3.48874 l -3.27625,11.26375 6.18375,0 4.27875,-14.7525 3.11,0"
       id="path3087"
       style="fill:#000000;fill-opacity:1;fill-rule:nonzero;stroke:none" />
    <path
       d="m 400.8809,747.52879 c 0.6975,-2.06875 0.89,-3.5375 0.30125,-4.45125 -0.85125,-1.31625 -1.59,-1.69875 -5.80375,-1.69875 -4.2875,0 -5.28375,0.30125 -6.17125,0.79625 -1.15875,0.63625 -2.205,1.86 -3.2825,5.60125 l -1.2375,4.4675 c -1.37125,4.64625 -0.82625,5.81 0.3775,6.89625 1.0375,0.92875 2.33625,1.08125 5.9425,1.08125 l 6.26625,0 2.985,-10.2875 -6.175,10e-4 -1.99875,6.88874 -1.065,0 c -0.62375,-0.006 -1.1975,-0.61874 -0.89625,-1.53875 l 3.01875,-10.4525 c 0.36375,-1.2575 1.50375,-1.97375 3.31375,-3.405 l -1.7025,6.10126 6.1275,0"
       id="path3089"
       style="fill:#000000;fill-opacity:1;fill-rule:nonzero;stroke:none" />
    <path
       d="m 416.01465,745.35878 -5.1325,0 c -1.4675,0.007 -1.64625,0.63875 -1.87125,1.39375 l -1.12875,3.95875 c 1.755,-1.58875 2.29625,-1.905 4.35,-1.905 l 2.54625,0 -1.06875,3.69625 -6.35375,0 -0.66625,2.29625 c -0.455,1.53625 0.40375,1.64375 1.72,1.64375 l 4.62375,0 -1.0975,3.77875 -7.17875,0 c -1.7725,0 -2.9525,-0.58375 -3.50875,-1.12375 -0.98501,-0.95875 -1.0075,-2.415 -0.35501,-4.73125 0.65125,-2.2875 2.09501,-7.5275 2.58375,-9.05 0.54751,-1.70875 1.33126,-2.66375 2.62,-3.22625 1.16125,-0.53375 1.9575,-0.44125 4.52126,-0.44125 l 6.47375,0 -1.0775,3.71"
       id="path3091"
       style="fill:#000000;fill-opacity:1;fill-rule:nonzero;stroke:none" />
    <path
       d="m 491.77715,745.35878 -5.135,0 c -1.46375,0.007 -1.6425,0.63875 -1.87,1.39375 l -1.12876,3.95875 c 1.75626,-1.58875 2.29501,-1.905 4.35125,-1.905 l 2.5475,0 -1.07125,3.69625 -6.355,0 -0.66625,2.29625 c -0.45875,1.53625 0.40625,1.64375 1.72125,1.64375 l 4.6225,0 -1.09625,3.77875 -7.175,0 c -1.77625,0 -2.9575,-0.58375 -3.51,-1.12375 -0.98875,-0.95875 -1.0125,-2.415 -0.3525,-4.73125 0.64875,-2.2875 2.09,-7.5275 2.5775,-9.05 0.545,-1.70875 1.33375,-2.66375 2.6225,-3.22625 1.1625,-0.53375 1.95625,-0.44125 4.5225,-0.44125 l 6.475,0 -1.08,3.71"
       id="path3093"
       style="fill:#000000;fill-opacity:1;fill-rule:nonzero;stroke:none" />
    <path
       d="m 324.2059,737.00504 11.97125,0 -16.33375,15.09 4.3625,-15.09"
       id="path3095"
       style="fill:#ff0000;fill-opacity:1;fill-rule:nonzero;stroke:none" />
    <path
       d="m 330.95215,760.22129 c 5.6725,0 8.33375,-1.99125 9.41125,-5.79625 1.08125,-3.8075 -0.8225,-6.10375 -4,-6.24 l 0.12374,-0.40875 c 3.9275,-0.0837 5.70625,-1.90251 6.4425,-4.56876 0.5875,-2.1475 0.6475,-6.20249 -4.9175,-6.20249 l -1.5975,0 -5.03375,17.36125 c -0.32875,1.11749 -0.6625,1.6925 -1.83375,1.6925 l -1.51625,0 2.975,-10.2875 -15.515,14.45 15.46125,0"
       id="path3097"
       style="fill:#000000;fill-opacity:1;fill-rule:nonzero;stroke:none" />
    <path
       d="m 431.18465,747.29129 c 0.51625,-1.50126 0.695,-3.22501 0.25375,-4.19876 -0.5,-1.10375 -1.5925,-1.6875 -5.155,-1.6875 -4.1225,0 -5.25625,0.24126 -6.15125,0.7275 -1.655,0.90375 -2.2175,1.6175 -3.0875,5.34626 -0.5825,2.48625 0.295,3.585 1.2875,4.1375 0.98875,0.55 4.57125,0.86375 4.945,1.61625 0.29875,0.59625 0.11,1.16125 -0.26625,2.37375 -0.34,1.10375 -0.57625,1.41125 -1.50625,1.41125 -0.9175,0 -1.1375,-0.48375 -0.86125,-1.41375 l 0.5475,-1.91751 -5.9675,0 c -0.9825,2.94625 -1.02125,4.31501 0.005,5.54876 0.83875,1.00874 2.10375,1.23375 5.68125,1.23375 3.57875,0 5.52875,-0.29 6.59375,-1.59125 1.4275,-1.74375 3.06,-5.945 2.0175,-8.385 -0.6975,-1.635 -4.275,-2.0725 -4.89,-2.16375 -0.76625,-0.12375 -1.625,-0.6025 -1.51,-1.40251 0.11375,-0.78125 0.36625,-1.65625 0.645,-2.39374 0.3575,-0.94875 1.545,-1.72126 3.2575,-3.07501 l -1.68875,5.83376 5.85,0"
       id="path3099"
       style="fill:#000000;fill-opacity:1;fill-rule:nonzero;stroke:none" />
    <path
       d="m 354.6584,741.64879 c 1.945,0 3.2525,0.2225 4.04875,1.4875 0.425,0.67999 0.74124,1.7725 0.035,3.98875 -0.645,2.02374 -1.92625,3.20749 -4.85625,3.20749 l -0.11875,0.40625 c 2.78625,0.18876 3.35625,1.93376 2.715,4.3725 -0.4,1.59 -0.9725,3.84875 -1.31375,5.11 l -6.49875,0 5.35125,-18.53375 c -1.76875,1.40125 -2.86625,2.12875 -3.235,3.225 l -4.45125,15.30875 -6.0925,0 5.39,-18.5725 9.02625,0"
       id="path3101"
       style="fill:#000000;fill-opacity:1;fill-rule:nonzero;stroke:none" />
  </g>
</svg>
