<?xml version="1.0" encoding="UTF-8"?>
<!DOCTYPE svg PUBLIC "-//W3C//DTD SVG 1.1//EN" "http://www.w3.org/Graphics/SVG/1.1/DTD/svg11.dtd">
<!-- Creator: CorelDRAW -->
<svg xmlns="http://www.w3.org/2000/svg" xml:space="preserve" width="2.65in" height="0.64in" style="shape-rendering:geometricPrecision; text-rendering:geometricPrecision; image-rendering:optimizeQuality; fill-rule:evenodd; clip-rule:evenodd"
viewBox="0 0 2.65 0.64"
 xmlns:xlink="http://www.w3.org/1999/xlink">
 <defs>
  <style type="text/css">
   <![CDATA[
    .fil0 {fill:#005CAB}
   ]]>
  </style>
 </defs>
 <g id="Layer_x0020_1">
  <metadata id="CorelCorpID_0Corel-Layer"/>
  <g id="_218150328">
   <path id="_217143760" class="fil0" d="M2.56486 0.138161c-0.145866,0 -0.223472,0.081811 -0.226472,0.187846 -0.0209646,-0.115362 -0.120531,-0.190693 -0.233882,-0.190693 -0.112772,-3.93701e-006 -0.209016,0.0750354 -0.23,0.189035 -0.00038189,-0.10135 -0.0795551,-0.188831 -0.18252,-0.188831 -0.0448465,0 -0.0837598,0.0172244 -0.114846,0.0472953l0 -0.147886 -0.109709 0 0 0.329335c0,0.010811 -0.000393701,0.0177953 -0.00192913,0.033811 -0.00665354,0.0684134 -0.0527087,0.102177 -0.102831,0.102177 -0.0521024,0 -0.0991378,-0.024622 -0.100551,-0.101795 -0.000240157,-0.0133268 -0.000622047,-0.0188622 -0.000622047,-0.0283268l0 -0.123299 0.170799 0 0 -0.103535 -0.170799 0 0 -0.108366 -0.111224 0 0 0.289969c-0.021122,-0.107945 -0.116224,-0.189409 -0.230417,-0.189409 -0.0735512,-3.93701e-006 -0.139193,0.0338425 -0.182244,0.0867598l0 -0.0840866 -0.012189 0c-0.143295,0 -0.220724,0.0789646 -0.226264,0.18228 -0.0210472,-0.104693 -0.107618,-0.18228 -0.217016,-0.18228 -0.0572598,0 -0.102,0.020811 -0.136969,0.0557756l0 -0.15978 -0.107362 0 0 0.277705c0,0.0205039 0.000602362,0.0398189 0.000846457,0.0583189 0.00154724,0.128484 0.0914449,0.233898 0.230709,0.233898 0.120173,0 0.207673,-0.0782087 0.229453,-0.182429l0 0.171449 0.110031 0 0 -0.21402c0,-0.00976378 0.000555118,-0.0205906 0.000862205,-0.0305906 0.00205118,-0.0652205 0.0447559,-0.104067 0.112673,-0.105205 -0.0235866,0.0365984 -0.037311,0.0801181 -0.037311,0.126898 0,0.129638 0.105106,0.234677 0.23478,0.234677 0.114193,-3.93701e-006 0.209295,-0.0814331 0.230417,-0.189382l0 0.000291339c0,0.11274 0.0905354,0.189622 0.199591,0.189622 0.0459843,-3.93701e-006 0.0865827,-0.0196929 0.117567,-0.0519134l0 0.039563 0.109709 0 0 -0.232929c5.90551e-005,-0.0055315 0.000259843,-0.01 0.000397638,-0.0142913 0.00277953,-0.0747244 0.0465827,-0.10724 0.0946929,-0.10724 0.0477047,0 0.0889646,0.0326378 0.0906181,0.106874 0.00038189,0.00644882 0.000464567,0.0107638 0.000464567,0.0180197l3.93701e-006 0.229591 0.111205 5.11811e-005 0 -0.174232c0.0209134,0.112504 0.116276,0.18513 0.230039,0.18513 0.129016,-3.93701e-006 0.201898,-0.0825709 0.221445,-0.168933l-0.107583 0c-0.00941339,0.0307047 -0.0476063,0.0778465 -0.113917,0.0778465 -0.0598071,-3.93701e-006 -0.110827,-0.0408504 -0.123724,-0.107555l0.357457 -3.93701e-006 0 0.187732 0.110035 0 0 -0.21402c0,-0.00976378 0.000562992,-0.0205906 0.000909449,-0.0305906 0.00205906,-0.0662087 0.0459646,-0.105327 0.115673,-0.105327l0.012189 0 0 -0.105 -0.012185 0zm-2.29549 0.360276c-0.0724331,0 -0.128224,-0.0566654 -0.128224,-0.128256 0,-0.0715866 0.0554291,-0.128228 0.128224,-0.128228 0.0727953,-3.93701e-006 0.128244,0.056315 0.128244,0.128228 0,0.0719173 -0.0557953,0.12826 -0.128244,0.128256zm0.650488 0c-0.0724291,0 -0.128209,-0.0566654 -0.128209,-0.128256 0,-0.0715866 0.0554291,-0.128228 0.128209,-0.128228 0.072811,-3.93701e-006 0.128244,0.056315 0.128244,0.128228 0,0.0719173 -0.0557953,0.12826 -0.128244,0.128256zm1.06576 -0.179776c0.0180866,-0.0560551 0.0647559,-0.090689 0.118894,-0.090689 0.0695866,-3.93701e-006 0.111276,0.0558268 0.119193,0.090689l-0.238087 0z"/>
   <path id="_217147792" class="fil0" d="M2.52602 0.545492c0,0.030378 0.0247047,0.054626 0.0550984,0.054626 0.0304016,0 0.055126,-0.0242441 0.055126,-0.054622 3.93701e-006,-0.0304173 -0.0247244,-0.0547087 -0.055126,-0.0547087 -0.0303898,-3.93701e-006 -0.0550984,0.0242913 -0.0550984,0.0547047zm0.00719291 0c0,-0.0264291 0.0214764,-0.0479488 0.0479055,-0.0479488 0.026437,-3.93701e-006 0.047937,0.0215197 0.047937,0.0479528 0,0.0264055 -0.0215,0.0479094 -0.047937,0.0479094 -0.0264291,-3.93701e-006 -0.0479094,-0.0215 -0.0479055,-0.0479134z"/>
   <path id="_217148272" class="fil0" d="M2.56471 0.519866l0.0223071 0c0.00877953,0 0.0119134,0.00409449 0.0119134,0.0115039 0,0.00742913 -0.00310236,0.012122 -0.0118819,0.012122l-0.0223386 -3.93701e-006 0 -0.023622zm0 0.0309331l0.021874 0c0.00687795,0 0.00974409,0.00426378 0.0104331,0.011748 0.000208661,0.00218898 0.000570866,0.00494488 0.000791339,0.00759843 0.000291339,0.00367323 0.000933071,0.0064685 0.00127559,0.00817717l0.00976378 -3.93701e-006 0 -0.00127165c-0.00101575,-0.00129528 -0.00190157,-0.00365354 -0.00242126,-0.00843307 -0.000232283,-0.00226378 -0.000566929,-0.00479134 -0.00084252,-0.00756693 -0.000720472,-0.00733071 -0.0031378,-0.0119291 -0.00799606,-0.0143976 0.0060315,-0.00201969 0.0103071,-0.00786614 0.0103071,-0.0165354 3.93701e-006,-0.0110512 -0.0071378,-0.0177087 -0.0205866,-0.0177087l-0.0313071 -3.93701e-006 0 0.0659173 0.00870866 0 0 -0.0275197z"/>
  </g>
 </g>
</svg>
