<?xml version="1.0" encoding="UTF-8" standalone="no"?>
<!-- Created with Inkscape (http://www.inkscape.org/) -->

<svg
   xmlns:dc="http://purl.org/dc/elements/1.1/"
   xmlns:cc="http://creativecommons.org/ns#"
   xmlns:rdf="http://www.w3.org/1999/02/22-rdf-syntax-ns#"
   xmlns:svg="http://www.w3.org/2000/svg"
   xmlns="http://www.w3.org/2000/svg"
   xmlns:sodipodi="http://sodipodi.sourceforge.net/DTD/sodipodi-0.dtd"
   xmlns:inkscape="http://www.inkscape.org/namespaces/inkscape"
   id="svg2"
   version="1.1"
   inkscape:version="0.48.2 r9819"
   width="100"
   height="44.482826"
   xml:space="preserve"
   sodipodi:docname="Bupa.svg"><metadata
     id="metadata8"><rdf:RDF><cc:Work
         rdf:about=""><dc:format>image/svg+xml</dc:format><dc:type
           rdf:resource="http://purl.org/dc/dcmitype/StillImage" /><dc:title></dc:title></cc:Work></rdf:RDF></metadata><defs
     id="defs6"><clipPath
       clipPathUnits="userSpaceOnUse"
       id="clipPath16"><path
         d="m 0,841.89 595.276,0 L 595.276,0 0,0 0,841.89 z"
         id="path18"
         inkscape:connector-curvature="0" /></clipPath><clipPath
       clipPathUnits="userSpaceOnUse"
       id="clipPath22"><path
         d="m 0.059998,841.98 595.320002,0 0,-841.92 -595.320002,0 0,841.92 z"
         id="path24"
         inkscape:connector-curvature="0" /></clipPath><clipPath
       clipPathUnits="userSpaceOnUse"
       id="clipPath32"><path
         d="m 0,850.394 603.664,0 0,-858.898 -603.664,0 0,858.898 z"
         clip-rule="evenodd"
         id="path34"
         inkscape:connector-curvature="0" /></clipPath><clipPath
       clipPathUnits="userSpaceOnUse"
       id="clipPath38"><path
         d="m 0,841.89 595.276,0 L 595.276,0 0,0 0,841.89 z"
         id="path40"
         inkscape:connector-curvature="0" /></clipPath><clipPath
       clipPathUnits="userSpaceOnUse"
       id="clipPath44"><path
         d="m 0.059998,841.98 595.320002,0 0,-841.92 -595.320002,0 0,841.92 z"
         id="path46"
         inkscape:connector-curvature="0" /></clipPath><clipPath
       clipPathUnits="userSpaceOnUse"
       id="clipPath52"><path
         d="m 0.06,0.06 595.32,0 0,841.91998 -595.32,0 L 0.06,0.06 z"
         id="path54"
         inkscape:connector-curvature="0" /></clipPath><clipPath
       clipPathUnits="userSpaceOnUse"
       id="clipPath60"><path
         d="m 0,850.394 603.664,0 0,-858.898 -603.664,0 0,858.898 z"
         clip-rule="evenodd"
         id="path62"
         inkscape:connector-curvature="0" /></clipPath><clipPath
       clipPathUnits="userSpaceOnUse"
       id="clipPath66"><path
         d="m 0,841.89 595.276,0 L 595.276,0 0,0 0,841.89 z"
         id="path68"
         inkscape:connector-curvature="0" /></clipPath><clipPath
       clipPathUnits="userSpaceOnUse"
       id="clipPath72"><path
         d="m 0.059998,841.98 595.320002,0 0,-841.92 -595.320002,0 0,841.92 z"
         id="path74"
         inkscape:connector-curvature="0" /></clipPath><clipPath
       clipPathUnits="userSpaceOnUse"
       id="clipPath82"><path
         d="m -0.005,0.055 0.991,0 0,5.464 -0.991,0 0,-5.464 z"
         id="path84"
         inkscape:connector-curvature="0" /></clipPath><clipPath
       clipPathUnits="userSpaceOnUse"
       id="clipPath90"><path
         d="m 0,1 0,-2.5577 1.0406,0 0,2.5577"
         id="path92"
         inkscape:connector-curvature="0" /></clipPath><clipPath
       clipPathUnits="userSpaceOnUse"
       id="clipPath96"><path
         d="m -0.004995,3e-6 1.005,0 0,5.5746 -1.005,0 0,-5.5746 z"
         clip-rule="evenodd"
         id="path98"
         inkscape:connector-curvature="0" /></clipPath><clipPath
       clipPathUnits="userSpaceOnUse"
       id="clipPath102"><path
         d="m -0.004995,0.055197 0.99103,0 0,5.4642 -0.99103,0 0,-5.4642 z"
         id="path104"
         inkscape:connector-curvature="0" /></clipPath><clipPath
       clipPathUnits="userSpaceOnUse"
       id="clipPath108"><path
         d="m -0.004895,0.054613 0.99111,0 0,5.4644 -0.99111,0 0,-5.4644 z"
         id="path110"
         inkscape:connector-curvature="0" /></clipPath><clipPath
       clipPathUnits="userSpaceOnUse"
       id="clipPath118"><path
         d="m 0,841.89 595.276,0 L 595.276,0 0,0 0,841.89 z"
         id="path120"
         inkscape:connector-curvature="0" /></clipPath><clipPath
       clipPathUnits="userSpaceOnUse"
       id="clipPath124"><path
         d="m 0.059998,841.98 595.320002,0 0,-841.92 -595.320002,0 0,841.92 z"
         id="path126"
         inkscape:connector-curvature="0" /></clipPath><clipPath
       clipPathUnits="userSpaceOnUse"
       id="clipPath134"><path
         d="m 0,841.89 595.276,0 L 595.276,0 0,0 0,841.89 z"
         id="path136"
         inkscape:connector-curvature="0" /></clipPath><clipPath
       clipPathUnits="userSpaceOnUse"
       id="clipPath140"><path
         d="m 0.059998,841.98 595.320002,0 0,-841.92 -595.320002,0 0,841.92 z"
         id="path142"
         inkscape:connector-curvature="0" /></clipPath><clipPath
       clipPathUnits="userSpaceOnUse"
       id="clipPath306"><path
         d="m 483.308,833.386 86.862,0 0,-57.15 -86.862,0 0,57.15 z"
         clip-rule="evenodd"
         id="path308"
         inkscape:connector-curvature="0" /></clipPath><clipPath
       clipPathUnits="userSpaceOnUse"
       id="clipPath312"><path
         d="m 0,841.89 595.276,0 L 595.276,0 0,0 0,841.89 z"
         id="path314"
         inkscape:connector-curvature="0" /></clipPath><clipPath
       clipPathUnits="userSpaceOnUse"
       id="clipPath318"><path
         d="m 0.059998,841.98 595.320002,0 0,-841.92 -595.320002,0 0,841.92 z"
         id="path320"
         inkscape:connector-curvature="0" /></clipPath><clipPath
       clipPathUnits="userSpaceOnUse"
       id="clipPath326"><path
         d="m 0.06,0.06 595.32,0 0,841.91998 -595.32,0 L 0.06,0.06 z"
         id="path328"
         inkscape:connector-curvature="0" /></clipPath><clipPath
       clipPathUnits="userSpaceOnUse"
       id="clipPath334"><path
         d="m 483.308,833.386 86.862,0 0,-57.15 -86.862,0 0,57.15 z"
         clip-rule="evenodd"
         id="path336"
         inkscape:connector-curvature="0" /></clipPath><clipPath
       clipPathUnits="userSpaceOnUse"
       id="clipPath340"><path
         d="m 0,841.89 595.276,0 L 595.276,0 0,0 0,841.89 z"
         id="path342"
         inkscape:connector-curvature="0" /></clipPath><clipPath
       clipPathUnits="userSpaceOnUse"
       id="clipPath346"><path
         d="m 0.059998,841.98 595.320002,0 0,-841.92 -595.320002,0 0,841.92 z"
         id="path348"
         inkscape:connector-curvature="0" /></clipPath><clipPath
       clipPathUnits="userSpaceOnUse"
       id="clipPath356"><path
         d="m -6.519001,-23.438002 7.892001,0 0,24.925002 -7.892001,0 0,-24.925002 z"
         id="path358"
         inkscape:connector-curvature="0" /></clipPath><clipPath
       clipPathUnits="userSpaceOnUse"
       id="clipPath364"><path
         d="m -0.11283,1.2323 1.1516,0 0,-1.6919 -1.1516,0 0,1.6919 z"
         clip-rule="evenodd"
         id="path366"
         inkscape:connector-curvature="0" /></clipPath><clipPath
       clipPathUnits="userSpaceOnUse"
       id="clipPath370"><path
         d="m -6.5202,1.484 7.8918,0 0,-24.923 -7.8918,0 0,24.923 z"
         id="path372"
         inkscape:connector-curvature="0" /></clipPath><clipPath
       clipPathUnits="userSpaceOnUse"
       id="clipPath376"><path
         d="m -6.5194,1.4867 7.8924,0 0,-24.924 -7.8924,0 0,24.924 z"
         id="path378"
         inkscape:connector-curvature="0" /></clipPath><clipPath
       clipPathUnits="userSpaceOnUse"
       id="clipPath394"><path
         d="m 0,841.89 595.276,0 L 595.276,0 0,0 0,841.89 z"
         id="path396"
         inkscape:connector-curvature="0" /></clipPath><clipPath
       clipPathUnits="userSpaceOnUse"
       id="clipPath400"><path
         d="m 0.059998,841.98 595.320002,0 0,-841.92 -595.320002,0 0,841.92 z"
         id="path402"
         inkscape:connector-curvature="0" /></clipPath><clipPath
       clipPathUnits="userSpaceOnUse"
       id="clipPath3663"><path
         inkscape:connector-curvature="0"
         d="m 553.441,92.531 -140.545,0 0,-62.362 140.545,0 0,62.362 z"
         id="path3665" /></clipPath><clipPath
       clipPathUnits="userSpaceOnUse"
       id="clipPath3805"><path
         inkscape:connector-curvature="0"
         d="m 462.082,19.229 102.36,0 0,45.419 -102.36,0 0,-45.419 z"
         id="path3807" /></clipPath></defs><sodipodi:namedview
     pagecolor="#ffffff"
     bordercolor="#666666"
     borderopacity="1"
     objecttolerance="10"
     gridtolerance="10"
     guidetolerance="10"
     inkscape:pageopacity="0"
     inkscape:pageshadow="2"
     inkscape:window-width="1920"
     inkscape:window-height="1028"
     id="namedview4"
     showgrid="false"
     fit-margin-top="0.1"
     fit-margin-left="0.1"
     fit-margin-right="0.1"
     fit-margin-bottom="0.1"
     inkscape:zoom="7.1762349"
     inkscape:cx="102.22648"
     inkscape:cy="-4.8786661"
     inkscape:window-x="-8"
     inkscape:window-y="-8"
     inkscape:window-maximized="1"
     inkscape:current-layer="g10" /><g
     id="g10"
     inkscape:groupmode="layer"
     inkscape:label="BUPA_ASU_3555_2002_ONL"
     transform="matrix(1.25,0,0,-1.25,-566.69534,1042.1966)"><g
       id="g130"><g
         id="g132"
         clip-path="url(#clipPath134)"><g
           id="g138"
           clip-path="url(#clipPath140)" /></g></g><g
       transform="matrix(0.77999371,0,0,0.77999371,93.01522,783.2525)"
       id="g3801"><g
         id="g3803"
         clip-path="url(#clipPath3805)"><g
           id="g3809"
           transform="translate(544.8998,33.0017)"><path
             inkscape:connector-curvature="0"
             d="m 0,0 c 0.002,-0.238 0.065,-0.272 0.173,-0.11 0.62,0.929 2.806,4.158 4.151,5.545 1.58,1.629 2.825,1.924 4.661,0.7 1.836,-1.224 3.271,-2.701 5.001,-3.291 1.731,-0.592 5.556,-0.359 5.556,-0.359 l -0.614,-3.333 c 0,0 -3.444,-0.254 -5.744,0.378 C 10.884,0.164 8.88,1.81 8.014,2.4 7.149,2.991 6.525,3.026 5.984,2.449 5.443,1.871 3.045,-1.787 1.837,-3.547 0.63,-5.309 -1.55,-6.238 -2.544,-3.824 c -0.872,2.12 -1.282,26.168 -1.286,26.38 -0.005,0.212 -0.176,0.209 -0.224,0.006 -0.048,-0.203 -6.944,-29.929 -7.928,-33.046 -1.098,-3.477 -3.575,-4.493 -4.718,-1.604 -1.143,2.891 -1.964,7.396 -2.383,9.115 -0.389,1.594 -0.826,1.553 -2.319,0.482 -1.493,-1.07 -3.752,-2.656 -6.231,-2.656 l -24.335,0 0.654,3.55 c 0,0 19.919,10e-4 23.04,10e-4 3.122,0 4.561,2.191 6.244,3.308 1.683,1.117 3.534,1.483 4.848,-0.376 1.284,-1.814 1.731,-5.552 2.598,-9.498 0.021,-0.097 0.105,-0.099 0.124,-10e-4 2.045,10.065 6.84,29.544 8.291,35.349 1.45,5.804 4.84,5.972 5.218,0.335 C -0.572,21.885 -0.038,3.149 0,0"
             style="fill:#aae1fa;fill-opacity:1;fill-rule:evenodd;stroke:none"
             id="path3811" /></g><g
           id="g3813"
           transform="translate(562.7318,35.1194)"><path
             inkscape:connector-curvature="0"
             d="m 0,0 c -1.24,0 -2.932,0.073 -3.951,0.42 -1.2,0.411 -2.247,1.215 -3.355,2.068 -0.547,0.421 -1.114,0.856 -1.72,1.261 -0.714,0.476 -1.305,0.698 -1.86,0.698 -0.745,0 -1.482,-0.418 -2.391,-1.354 -1.321,-1.363 -3.483,-4.554 -4.114,-5.5 -0.041,-0.061 -0.162,-0.242 -0.377,-0.242 -0.13,0 -0.291,0.073 -0.355,0.279 -0.02,0.066 -0.03,0.145 -0.032,0.248 -0.035,2.915 -0.564,21.063 -0.95,26.814 -0.085,1.256 -0.432,3.824 -1.815,3.824 -1.381,0 -2.428,-2.856 -2.768,-4.216 -0.123,-0.492 -2.397,-9.254 -4.45,-17.844 -1.99,-8.324 -3.762,-16.486 -3.837,-16.801 -0.152,-0.637 -0.658,-0.45 -0.756,-0.004 -0.097,0.447 -0.39,1.87 -0.567,2.766 -0.558,2.839 -1.041,5.289 -1.979,6.615 -0.288,0.407 -0.614,0.712 -0.968,0.904 -0.322,0.175 -0.678,0.264 -1.059,0.264 -0.705,0 -1.505,-0.294 -2.379,-0.875 -0.423,-0.28 -0.833,-0.634 -1.269,-1.01 -1.278,-1.103 -2.727,-2.352 -5.154,-2.352 l -22.769,0 -0.153,-0.83 22.922,0 c 1.138,0 2.174,0.263 3.163,0.803 0.855,0.466 1.571,1.084 2.202,1.628 0.428,0.369 0.831,0.717 1.236,0.985 0.821,0.545 1.561,0.821 2.201,0.821 0.327,0 0.631,-0.076 0.904,-0.225 0.311,-0.169 0.601,-0.44 0.86,-0.806 0.898,-1.269 2.084,-7.65 2.42,-8.856 0.335,-1.206 1.339,-0.862 1.571,0.111 0.232,0.973 4.149,17.938 8.005,33.062 0.089,0.35 0.149,0.582 0.169,0.663 0.329,1.321 1.114,3.972 2.271,3.972 1.158,0 1.596,-2.313 1.677,-3.523 0.391,-5.822 0.916,-23.27 0.949,-26.032 0.002,-0.135 0.017,-0.243 0.047,-0.34 0.095,-0.308 0.356,-0.507 0.663,-0.507 0.177,0 0.432,0.067 0.645,0.387 0.627,0.94 2.684,3.696 3.986,5.039 0.842,0.869 1.508,1.257 2.159,1.257 0.488,0 1.021,-0.182 1.681,-0.621 0.597,-0.399 1.196,-0.816 1.739,-1.235 1.131,-0.869 2.172,-1.582 3.423,-2.009 1.061,-0.362 2.769,-0.469 4.033,-0.469 l 1.276,0.016 0.142,0.77 C 1.001,0.012 0.538,0 0,0"
             style="fill:#0071bc;fill-opacity:1;fill-rule:evenodd;stroke:none"
             id="path3815" /></g><g
           id="g3817"
           transform="translate(563.632,32.8859)"><path
             inkscape:connector-curvature="0"
             d="m 0,0 -1.534,0 c -1.1,0 -2.601,0.119 -3.855,0.463 -1.881,0.519 -3.549,1.834 -4.557,2.564 -0.192,0.139 -0.361,0.253 -0.498,0.355 -1.111,0.824 -2.148,0.565 -2.844,-0.4 -0.394,-0.547 -2.162,-3.097 -3.873,-5.633 -1.697,-2.515 -3.875,-1.955 -4.145,1.143 0.347,-4.607 2.948,-3.377 4.145,-1.742 1.199,1.639 3.772,5.603 4.177,6.035 0.322,0.344 0.689,0.517 1.094,0.517 0.4,0 0.843,-0.17 1.354,-0.519 0.14,-0.096 0.306,-0.216 0.498,-0.355 1.007,-0.731 2.694,-1.953 4.576,-2.471 1.253,-0.345 2.828,-0.417 3.928,-0.417 0.583,0 1.456,0.035 1.456,0.035 L 0,0 z m -22.263,23.774 c -0.007,0.606 -0.428,0.613 -0.583,-0.008 -0.013,-0.055 -0.081,-0.335 -0.193,-0.804 -10e-4,-0.003 -10e-4,-0.007 -0.002,-0.011 0.182,0.787 0.775,0.75 0.792,-0.205 0,0.028 -0.001,0.055 -0.001,0.082 -0.007,0.498 -0.011,0.826 -0.013,0.946 M -35.571,-9.627 c -1.169,4.427 -1.649,6.583 -1.746,6.984 -0.121,0.496 -0.265,0.933 -0.414,1.163 -0.192,0.297 -0.553,0.753 -1.642,0.147 0.016,0.021 0.031,0.04 0.047,0.06 0.004,0.006 0.008,0.011 0.013,0.016 0.011,0.015 0.023,0.029 0.035,0.043 0.004,0.005 0.009,0.01 0.013,0.016 0.014,0.015 0.028,0.031 0.041,0.046 0.002,0.002 0.003,0.004 0.006,0.006 0.016,0.018 0.032,0.036 0.049,0.053 10e-4,10e-4 0.002,0.003 0.004,0.004 0.014,0.015 0.028,0.03 0.044,0.044 l 0.008,0.008 c 0.014,0.014 0.029,0.027 0.043,0.04 10e-4,0.002 0.003,0.003 0.004,0.004 0.103,0.094 0.265,0.187 0.374,0.245 -0.644,0.014 -1.359,-0.472 -1.768,-0.765 -1.354,-0.971 -3.482,-2.596 -5.905,-2.596 l -23.835,0 -0.11,-0.6 23.945,0 c 2.423,0 4.689,1.626 6.043,2.597 0.729,0.523 1.236,0.825 1.672,0.825 0.31,0 0.566,-0.15 0.758,-0.447 0.149,-0.229 0.269,-0.552 0.391,-1.047 0.097,-0.402 0.217,-0.954 0.355,-1.594 0.456,-2.103 1.167,-5.401 2.014,-7.478 0.851,-2.086 3.066,-1.721 4.107,1.583 l 0,10e-4 c -0.938,-2.655 -3.456,-3.489 -4.546,0.642"
             style="fill:#9dd29c;fill-opacity:1;fill-rule:nonzero;stroke:none"
             id="path3819" /></g><g
           id="g3821"
           transform="translate(526.5729,30.8579)"><path
             inkscape:connector-curvature="0"
             d="m 0,0 c -0.001,0.003 -0.002,0.007 -0.002,0.011 -0.65,2.711 -2.444,1.79 -3.65,0.901 -1.206,-0.889 -3.251,-2.625 -5.561,-2.625 l -23.86,0 -0.068,-0.368 23.835,0 c 2.423,0 4.551,1.625 5.905,2.596 0.404,0.29 1.107,0.768 1.745,0.765 C -1.067,1.571 -0.57,1.235 -0.382,0.943 -0.234,0.716 -0.114,0.42 0,0"
             style="fill:#6dc067;fill-opacity:1;fill-rule:evenodd;stroke:none"
             id="path3823" /></g><g
           id="g3825"
           transform="translate(562.6302,34.3571)"><path
             inkscape:connector-curvature="0"
             d="m 0,0 c -1.264,0 -2.973,0.107 -4.034,0.469 -1.25,0.427 -2.292,1.14 -3.423,2.01 -0.543,0.418 -1.141,0.836 -1.738,1.234 -0.66,0.439 -1.194,0.621 -1.682,0.621 -0.65,0 -1.316,-0.388 -2.159,-1.257 -1.302,-1.343 -3.358,-4.099 -3.985,-5.039 -0.213,-0.32 -0.469,-0.386 -0.645,-0.386 -0.307,0 -0.568,0.198 -0.663,0.506 -0.031,0.097 -0.046,0.205 -0.047,0.34 -0.034,2.763 -0.558,20.21 -0.949,26.032 -0.081,1.21 -0.519,3.523 -1.677,3.523 -1.158,0 -1.942,-2.651 -2.272,-3.971 -0.02,-0.081 -0.079,-0.313 -0.169,-0.664 -3.855,-15.123 -7.773,-32.088 -8.005,-33.062 -0.232,-0.973 -1.235,-1.317 -1.57,-0.111 -0.336,1.207 -1.523,7.587 -2.421,8.856 -0.258,0.366 -0.548,0.637 -0.859,0.807 -0.274,0.149 -0.578,0.225 -0.904,0.225 -0.641,0 -1.381,-0.277 -2.202,-0.821 -0.405,-0.268 -0.808,-0.617 -1.235,-0.986 -0.632,-0.544 -1.347,-1.161 -2.203,-1.628 -0.989,-0.54 -2.024,-0.802 -3.162,-0.802 l -22.922,0 -0.117,-0.634 23.19,0 c 1.183,0 2.258,0.275 3.285,0.842 0.878,0.484 1.6,1.112 2.237,1.667 0.416,0.362 0.808,0.705 1.192,0.962 0.76,0.508 1.212,0.674 1.866,0.674 0.653,0 1.2,-0.398 1.578,-1.246 0.376,-0.85 1.488,-5.903 2.084,-8.509 0.596,-2.606 2.117,-2 2.704,0.228 0.588,2.228 4.32,18.166 7.824,32.042 0,0 0.149,0.586 0.168,0.665 0.317,1.28 0.943,3.727 1.731,3.727 0.787,0 0.99,-2.06 1.067,-3.222 0.389,-5.864 0.994,-24.019 1.124,-25.609 0.129,-1.59 1.089,-1.902 2.071,-0.545 0.981,1.357 2.966,4.316 4.236,5.639 0.77,0.801 1.265,1.058 1.817,1.058 0.417,0 0.844,-0.087 1.442,-0.489 0.583,-0.393 1.134,-0.822 1.667,-1.235 1.142,-0.886 2.265,-1.551 3.554,-1.996 1.091,-0.375 2.934,-0.513 4.211,-0.513 l 1.158,0 L 1.276,0.016 0,0 z"
             style="fill:#00b9f2;fill-opacity:1;fill-rule:evenodd;stroke:none"
             id="path3827" /></g><g
           id="g3829"
           transform="translate(562.6354,33.7594)"><path
             inkscape:connector-curvature="0"
             d="m 0,0 c -1.277,0 -3.12,0.137 -4.211,0.513 -1.289,0.445 -2.412,1.109 -3.554,1.995 -0.533,0.414 -1.084,0.843 -1.668,1.236 -0.597,0.402 -1.024,0.489 -1.441,0.489 -0.552,0 -1.047,-0.257 -1.817,-1.058 -1.271,-1.324 -3.255,-4.282 -4.236,-5.639 -0.982,-1.358 -1.942,-1.045 -2.072,0.545 -0.129,1.59 -0.734,19.744 -1.123,25.609 -0.078,1.162 -0.28,3.221 -1.067,3.221 -0.788,0 -1.414,-2.446 -1.732,-3.726 -0.019,-0.08 -0.167,-0.666 -0.167,-0.666 -3.504,-13.875 -7.236,-29.813 -7.824,-32.041 -0.587,-2.228 -2.108,-2.834 -2.704,-0.228 -0.596,2.606 -1.708,7.659 -2.084,8.508 -0.378,0.848 -0.925,1.247 -1.578,1.247 -0.654,0 -1.106,-0.166 -1.866,-0.674 -0.384,-0.258 -0.776,-0.6 -1.192,-0.962 -0.637,-0.555 -1.359,-1.184 -2.237,-1.668 -1.027,-0.566 -2.102,-0.842 -3.285,-0.842 l -23.19,0 -0.087,-0.473 23.859,0 c 2.311,0 4.355,1.736 5.562,2.625 1.206,0.888 3,1.809 3.649,-0.902 10e-4,-0.004 0.002,-0.007 0.003,-0.01 0.018,-0.067 0.035,-0.137 0.054,-0.211 0.1,-0.409 1.007,-4.335 1.805,-7.35 0.797,-3.016 3.044,-3.089 3.94,0.343 0.895,3.432 8.043,32.767 8.381,34.16 0.339,1.393 0.932,1.244 1.008,-0.159 0.076,-1.403 0.965,-23.152 1.218,-25.935 0.253,-2.783 1.99,-2.808 3.299,-0.953 1.309,1.855 3.384,5.098 4.252,5.966 0.765,0.765 1.791,0.767 2.945,-0.028 0.141,-0.098 0.505,-0.361 0.505,-0.361 0.989,-0.716 2.552,-2.035 4.373,-2.537 1.217,-0.334 2.759,-0.469 3.837,-0.469 l 1.522,0 L 1.157,0 0,0 z"
             style="fill:#d2e288;fill-opacity:1;fill-rule:evenodd;stroke:none"
             id="path3831" /></g><g
           id="g3833"
           transform="translate(524.2586,31.5533)"><path
             inkscape:connector-curvature="0"
             d="m 0,0 c 1.09,0.606 1.451,0.149 1.643,-0.147 0.149,-0.23 0.292,-0.667 0.413,-1.163 0.098,-0.402 0.577,-2.557 1.746,-6.984 1.169,-4.427 3.977,-3.152 4.722,-0.046 0.745,3.107 7.849,32.817 8.003,33.438 0.155,0.622 0.576,0.614 0.584,0.008 0.008,-0.606 0.079,-6.64 0.294,-13 0.235,-6.987 0.412,-9.051 0.656,-12.211 0.244,-3.161 2.441,-3.747 4.152,-1.213 1.71,2.535 3.478,5.086 3.872,5.633 0.696,0.965 1.733,1.224 2.844,0.399 C 29.066,4.613 29.235,4.499 29.427,4.36 30.435,3.629 32.104,2.314 33.985,1.796 35.239,1.451 36.74,1.333 37.84,1.333 l 1.533,0 0.081,0.438 -1.522,0 c -1.079,0 -2.62,0.135 -3.837,0.47 -1.821,0.501 -3.384,1.82 -4.373,2.537 0,0 -0.364,0.262 -0.505,0.36 -1.154,0.795 -2.18,0.793 -2.945,0.029 C 25.403,4.298 23.329,1.055 22.019,-0.8 20.711,-2.655 18.974,-2.63 18.721,0.153 18.468,2.936 17.579,24.685 17.503,26.088 17.427,27.492 16.834,27.64 16.495,26.247 16.157,24.854 9.009,-4.481 8.114,-7.913 7.218,-11.345 4.971,-11.272 4.173,-8.256 3.376,-5.241 2.468,-1.314 2.368,-0.906 2.237,-0.37 2.104,-0.015 1.932,0.248 1.676,0.643 0.85,1.122 0,0"
             style="fill:#51b848;fill-opacity:1;fill-rule:evenodd;stroke:none"
             id="path3835" /></g><g
           id="g3837"
           transform="translate(470.1064,43.0291)"><path
             inkscape:connector-curvature="0"
             d="m 0,0 c -0.371,-0.092 -0.965,-0.142 -2.206,-0.142 l -2.154,0 1.088,6.147 3.198,0 C 4.143,6.005 3.758,0.93 0,0 m -1.848,14.049 2.886,0 c 3.464,0 3.193,-4.713 0.216,-5.695 C 0.848,8.22 0.307,8.182 -0.678,8.182 l -2.205,0 1.035,5.867 z M 3.263,7.307 c 1.324,0.284 3.683,1.647 3.683,4.425 0,2.962 -1.9,4.342 -5.242,4.342 -2.056,0 -5.289,0.005 -6.468,0.005 L -8.025,-2.253 c 0.401,0 3.928,0.001 5.92,0.002 1.354,0 2.643,0.045 3.368,0.197 3.325,0.701 4.672,3.118 4.939,4.89 0.371,2.456 -1.178,4.077 -2.939,4.471"
             style="fill:#00aeef;fill-opacity:1;fill-rule:nonzero;stroke:none"
             id="path3839" /></g><g
           id="g3841"
           transform="translate(483.5161,40.4924)"><path
             inkscape:connector-curvature="0"
             d="m 0,0 c 4.582,0 6.306,2.393 6.853,5.24 0.181,0.936 1.05,5.685 1.117,6.164 0.198,1.414 -0.967,1.967 -1.844,1.967 l -0.852,0 c 0,0 -1.258,-7.198 -1.399,-8.018 -0.304,-1.764 -1.151,-2.97 -3.539,-2.97 -1.359,0 -2.683,0.82 -2.372,2.658 0.12,0.711 1.021,5.942 1.097,6.363 0.254,1.415 -0.952,1.967 -1.945,1.967 l -0.755,0 C -3.823,12.278 -4.65,7.676 -4.965,5.872 -5.093,5.147 -5.139,4.41 -5.085,3.934 -4.802,1.489 -2.657,0 0,0"
             style="fill:#00aeef;fill-opacity:1;fill-rule:nonzero;stroke:none"
             id="path3843" /></g><g
           id="g3845"
           transform="translate(499.6136,42.627)"><path
             inkscape:connector-curvature="0"
             d="M 0,0 C -4.777,0.265 -3.223,9.423 1.635,9.154 6.028,8.91 4.662,-0.258 0,0 m 2.588,11.504 c -2.431,0 -4.085,-1.181 -4.927,-2.41 l 0.037,0.176 c 0.265,1.262 -0.813,1.966 -1.728,1.966 l -0.907,0 c 0,0 -2.462,-14.099 -2.801,-15.795 -0.4,-1.998 1.219,-2.461 1.733,-2.461 l 0.747,0 1.33,7.227 c 0.516,-1.033 1.991,-2.342 4.339,-2.342 4.23,0 6.847,3.3 7.109,7.165 0.279,4.109 -2.133,6.474 -4.932,6.474"
             style="fill:#00aeef;fill-opacity:1;fill-rule:nonzero;stroke:none"
             id="path3847" /></g><g
           id="g3849"
           transform="translate(514.7273,42.8852)"><path
             inkscape:connector-curvature="0"
             d="M 0,0 C -4.393,0.244 -3.026,9.386 1.635,9.128 6.413,8.862 4.859,-0.269 0,0 m 5.923,10.992 -0.381,-2 c -0.516,1.033 -1.97,2.27 -4.317,2.27 -4.146,0 -6.604,-3.415 -7.015,-7.054 -0.471,-4.161 2.216,-6.592 4.956,-6.592 2.575,0 3.955,1.138 4.793,2.44 L 3.912,-0.142 C 3.67,-1.361 4.685,-2.109 5.641,-2.109 l 0.828,0 2.302,13.101 -2.848,0 z"
             style="fill:#00aeef;fill-opacity:1;fill-rule:nonzero;stroke:none"
             id="path3851" /></g></g></g></g></svg>