<?xml version="1.0" encoding="UTF-8" standalone="no"?>
<!-- Created with Inkscape (http://www.inkscape.org/) -->

<svg
   xmlns:dc="http://purl.org/dc/elements/1.1/"
   xmlns:cc="http://creativecommons.org/ns#"
   xmlns:rdf="http://www.w3.org/1999/02/22-rdf-syntax-ns#"
   xmlns:svg="http://www.w3.org/2000/svg"
   xmlns="http://www.w3.org/2000/svg"
   xmlns:sodipodi="http://sodipodi.sourceforge.net/DTD/sodipodi-0.dtd"
   xmlns:inkscape="http://www.inkscape.org/namespaces/inkscape"
   id="svg2"
   version="1.1"
   inkscape:version="0.48.2 r9819"
   width="100"
   height="44.892414"
   xml:space="preserve"
   sodipodi:docname="BUPA_ASU_3555_2002_ONL.pdf"><metadata
     id="metadata8"><rdf:RDF><cc:Work
         rdf:about=""><dc:format>image/svg+xml</dc:format><dc:type
           rdf:resource="http://purl.org/dc/dcmitype/StillImage" /><dc:title></dc:title></cc:Work></rdf:RDF></metadata><defs
     id="defs6"><clipPath
       clipPathUnits="userSpaceOnUse"
       id="clipPath16"><path
         d="m 0,841.89 595.276,0 L 595.276,0 0,0 0,841.89 z"
         id="path18"
         inkscape:connector-curvature="0" /></clipPath><clipPath
       clipPathUnits="userSpaceOnUse"
       id="clipPath22"><path
         d="m 0.059998,841.98 595.320002,0 0,-841.92 -595.320002,0 0,841.92 z"
         id="path24"
         inkscape:connector-curvature="0" /></clipPath><clipPath
       clipPathUnits="userSpaceOnUse"
       id="clipPath32"><path
         d="m 0,850.394 603.664,0 0,-858.898 -603.664,0 0,858.898 z"
         clip-rule="evenodd"
         id="path34"
         inkscape:connector-curvature="0" /></clipPath><clipPath
       clipPathUnits="userSpaceOnUse"
       id="clipPath38"><path
         d="m 0,841.89 595.276,0 L 595.276,0 0,0 0,841.89 z"
         id="path40"
         inkscape:connector-curvature="0" /></clipPath><clipPath
       clipPathUnits="userSpaceOnUse"
       id="clipPath44"><path
         d="m 0.059998,841.98 595.320002,0 0,-841.92 -595.320002,0 0,841.92 z"
         id="path46"
         inkscape:connector-curvature="0" /></clipPath><clipPath
       clipPathUnits="userSpaceOnUse"
       id="clipPath52"><path
         d="m 0.06,0.06 595.32,0 0,841.91998 -595.32,0 L 0.06,0.06 z"
         id="path54"
         inkscape:connector-curvature="0" /></clipPath><clipPath
       clipPathUnits="userSpaceOnUse"
       id="clipPath60"><path
         d="m 0,850.394 603.664,0 0,-858.898 -603.664,0 0,858.898 z"
         clip-rule="evenodd"
         id="path62"
         inkscape:connector-curvature="0" /></clipPath><clipPath
       clipPathUnits="userSpaceOnUse"
       id="clipPath66"><path
         d="m 0,841.89 595.276,0 L 595.276,0 0,0 0,841.89 z"
         id="path68"
         inkscape:connector-curvature="0" /></clipPath><clipPath
       clipPathUnits="userSpaceOnUse"
       id="clipPath72"><path
         d="m 0.059998,841.98 595.320002,0 0,-841.92 -595.320002,0 0,841.92 z"
         id="path74"
         inkscape:connector-curvature="0" /></clipPath><clipPath
       clipPathUnits="userSpaceOnUse"
       id="clipPath82"><path
         d="m -0.005,0.055 0.991,0 0,5.464 -0.991,0 0,-5.464 z"
         id="path84"
         inkscape:connector-curvature="0" /></clipPath><clipPath
       clipPathUnits="userSpaceOnUse"
       id="clipPath90"><path
         d="m 0,1 0,-2.5577 1.0406,0 0,2.5577"
         id="path92"
         inkscape:connector-curvature="0" /></clipPath><clipPath
       clipPathUnits="userSpaceOnUse"
       id="clipPath96"><path
         d="m -0.004995,3e-6 1.005,0 0,5.5746 -1.005,0 0,-5.5746 z"
         clip-rule="evenodd"
         id="path98"
         inkscape:connector-curvature="0" /></clipPath><clipPath
       clipPathUnits="userSpaceOnUse"
       id="clipPath102"><path
         d="m -0.004995,0.055197 0.99103,0 0,5.4642 -0.99103,0 0,-5.4642 z"
         id="path104"
         inkscape:connector-curvature="0" /></clipPath><clipPath
       clipPathUnits="userSpaceOnUse"
       id="clipPath108"><path
         d="m -0.004895,0.054613 0.99111,0 0,5.4644 -0.99111,0 0,-5.4644 z"
         id="path110"
         inkscape:connector-curvature="0" /></clipPath><clipPath
       clipPathUnits="userSpaceOnUse"
       id="clipPath118"><path
         d="m 0,841.89 595.276,0 L 595.276,0 0,0 0,841.89 z"
         id="path120"
         inkscape:connector-curvature="0" /></clipPath><clipPath
       clipPathUnits="userSpaceOnUse"
       id="clipPath124"><path
         d="m 0.059998,841.98 595.320002,0 0,-841.92 -595.320002,0 0,841.92 z"
         id="path126"
         inkscape:connector-curvature="0" /></clipPath><clipPath
       clipPathUnits="userSpaceOnUse"
       id="clipPath134"><path
         d="m 0,841.89 595.276,0 L 595.276,0 0,0 0,841.89 z"
         id="path136"
         inkscape:connector-curvature="0" /></clipPath><clipPath
       clipPathUnits="userSpaceOnUse"
       id="clipPath140"><path
         d="m 0.059998,841.98 595.320002,0 0,-841.92 -595.320002,0 0,841.92 z"
         id="path142"
         inkscape:connector-curvature="0" /></clipPath><clipPath
       clipPathUnits="userSpaceOnUse"
       id="clipPath306"><path
         d="m 483.308,833.386 86.862,0 0,-57.15 -86.862,0 0,57.15 z"
         clip-rule="evenodd"
         id="path308"
         inkscape:connector-curvature="0" /></clipPath><clipPath
       clipPathUnits="userSpaceOnUse"
       id="clipPath312"><path
         d="m 0,841.89 595.276,0 L 595.276,0 0,0 0,841.89 z"
         id="path314"
         inkscape:connector-curvature="0" /></clipPath><clipPath
       clipPathUnits="userSpaceOnUse"
       id="clipPath318"><path
         d="m 0.059998,841.98 595.320002,0 0,-841.92 -595.320002,0 0,841.92 z"
         id="path320"
         inkscape:connector-curvature="0" /></clipPath><clipPath
       clipPathUnits="userSpaceOnUse"
       id="clipPath326"><path
         d="m 0.06,0.06 595.32,0 0,841.91998 -595.32,0 L 0.06,0.06 z"
         id="path328"
         inkscape:connector-curvature="0" /></clipPath><clipPath
       clipPathUnits="userSpaceOnUse"
       id="clipPath334"><path
         d="m 483.308,833.386 86.862,0 0,-57.15 -86.862,0 0,57.15 z"
         clip-rule="evenodd"
         id="path336"
         inkscape:connector-curvature="0" /></clipPath><clipPath
       clipPathUnits="userSpaceOnUse"
       id="clipPath340"><path
         d="m 0,841.89 595.276,0 L 595.276,0 0,0 0,841.89 z"
         id="path342"
         inkscape:connector-curvature="0" /></clipPath><clipPath
       clipPathUnits="userSpaceOnUse"
       id="clipPath346"><path
         d="m 0.059998,841.98 595.320002,0 0,-841.92 -595.320002,0 0,841.92 z"
         id="path348"
         inkscape:connector-curvature="0" /></clipPath><clipPath
       clipPathUnits="userSpaceOnUse"
       id="clipPath356"><path
         d="m -6.519001,-23.438002 7.892001,0 0,24.925002 -7.892001,0 0,-24.925002 z"
         id="path358"
         inkscape:connector-curvature="0" /></clipPath><clipPath
       clipPathUnits="userSpaceOnUse"
       id="clipPath364"><path
         d="m -0.11283,1.2323 1.1516,0 0,-1.6919 -1.1516,0 0,1.6919 z"
         clip-rule="evenodd"
         id="path366"
         inkscape:connector-curvature="0" /></clipPath><clipPath
       clipPathUnits="userSpaceOnUse"
       id="clipPath370"><path
         d="m -6.5202,1.484 7.8918,0 0,-24.923 -7.8918,0 0,24.923 z"
         id="path372"
         inkscape:connector-curvature="0" /></clipPath><clipPath
       clipPathUnits="userSpaceOnUse"
       id="clipPath376"><path
         d="m -6.5194,1.4867 7.8924,0 0,-24.924 -7.8924,0 0,24.924 z"
         id="path378"
         inkscape:connector-curvature="0" /></clipPath><clipPath
       clipPathUnits="userSpaceOnUse"
       id="clipPath394"><path
         d="m 0,841.89 595.276,0 L 595.276,0 0,0 0,841.89 z"
         id="path396"
         inkscape:connector-curvature="0" /></clipPath><clipPath
       clipPathUnits="userSpaceOnUse"
       id="clipPath400"><path
         d="m 0.059998,841.98 595.320002,0 0,-841.92 -595.320002,0 0,841.92 z"
         id="path402"
         inkscape:connector-curvature="0" /></clipPath></defs><sodipodi:namedview
     pagecolor="#ffffff"
     bordercolor="#666666"
     borderopacity="1"
     objecttolerance="10"
     gridtolerance="10"
     guidetolerance="10"
     inkscape:pageopacity="0"
     inkscape:pageshadow="2"
     inkscape:window-width="1920"
     inkscape:window-height="1028"
     id="namedview4"
     showgrid="false"
     fit-margin-top="0.1"
     fit-margin-left="0.1"
     fit-margin-right="0.1"
     fit-margin-bottom="0.1"
     inkscape:zoom="7.1762349"
     inkscape:cx="88.622112"
     inkscape:cy="6.6822585"
     inkscape:window-x="-8"
     inkscape:window-y="-8"
     inkscape:window-maximized="1"
     inkscape:current-layer="g10" /><g
     id="g10"
     inkscape:groupmode="layer"
     inkscape:label="BUPA_ASU_3555_2002_ONL"
     transform="matrix(1.25,0,0,-1.25,-580.29971,1031.0452)"><g
       id="g130"><g
         id="g132"
         clip-path="url(#clipPath134)"><g
           id="g138"
           clip-path="url(#clipPath140)" /></g></g><g
       id="g302"
       transform="matrix(1.0584648,0,0,1.0584648,-56.253332,-43.630684)"><g
         id="g304"
         clip-path="url(#clipPath306)"><g
           id="g310"
           clip-path="url(#clipPath312)"><g
             id="g316"
             clip-path="url(#clipPath318)"><g
               id="g322"><g
                 id="g324"
                 clip-path="url(#clipPath326)"><g
                   id="g330"><g
                     id="g332"
                     clip-path="url(#clipPath334)"><g
                       id="g338"
                       clip-path="url(#clipPath340)"><g
                         id="g344"
                         clip-path="url(#clipPath346)"><g
                           id="g350"
                           transform="matrix(75.43,0,0,33.779,491.819,791.761)"><g
                             id="g352"><g
                               id="g354"
                               clip-path="url(#clipPath356)"><g
                                 id="g360"><g
                                   id="g362"
                                   clip-path="url(#clipPath364)"><g
                                   id="g368"
                                   clip-path="url(#clipPath370)"><g
                                   id="g374"
                                   clip-path="url(#clipPath376)"><path
                                   d="m 0.65766,0.039694 c 0.0092,1.23e-4 0.01586,6.79e-4 0.0242,0.015077 C 0.68728,0.064138 0.6918,0.071886 0.69878,0.083725 0.71521,0.11158 0.73921,0.1227 0.75101,0.048476 0.7571,0.010084 0.75995,-0.08175 0.76105,-0.11354 0.76123,-0.11892 0.76267,-0.119 0.7627,-0.1138 0.76311,-0.067606 0.76079,-0.005795 0.76105,0.008066 0.76189,0.053405 0.78903,0.78807 0.79027,0.82791 0.79112,0.85547 0.80912,0.85505 0.81021,0.8282 0.81233,0.77623 0.84578,0.15302 0.84807,0.1026 0.84868,0.089002 0.85296,0.088099 0.85787,0.099827 0.86646,0.1203 0.87133,0.13678 0.88548,0.16487 0.90165,0.19698 0.92902,0.19051 0.94053,0.14683 0.95338,0.09808 0.95611,0.083992 0.96238,0.060901 0.967,0.043873 0.97152,0.039694 0.98264,0.039694 c 0.00604,0 0.01736,0 0.01736,0 L 1,7.3e-5 c 0,0 -0.01789,0 -0.0215,0 -0.01564,0 -0.02185,0.00597 -0.02826,0.030861 C 0.94667,0.044761 0.93494,0.091942 0.92794,0.11954 0.92428,0.13399 0.91205,0.14178 0.90134,0.11751 0.88961,0.090945 0.88703,0.079273 0.87127,0.045224 0.85673,0.013762 0.83686,0.021249 0.8332,0.080357 0.82868,0.15341 0.80943,0.55822 0.80596,0.6145 0.80228,0.67415 0.80236,0.75524 0.80142,0.80783 0.80132,0.81306 0.79923,0.81319 0.79917,0.80741 0.79854,0.74503 0.8003,0.65984 0.79834,0.61162 0.79645,0.56512 0.77502,-0.068481 0.77143,-0.12939 0.76965,-0.15972 0.75629,-0.1581 0.75143,-0.12946 0.74223,-0.075109 0.72699,0.031122 0.72699,0.031122 0.72322,0.056288 0.7174,0.068496 0.70624,0.048491 0.7004,0.038061 0.69804,0.034273 0.68871,0.017528 0.67952,0.001019 0.66761,1.81e-4 0.65882,7.3e-5 0.65623,4.3e-5 0,0 0,0 l 0,0.039289 c 0,0 0.6442,2.25e-4 0.65766,4.05e-4"
                                   style="fill:#00aeef;fill-opacity:1;fill-rule:nonzero;stroke:none"
                                   id="path380"
                                   inkscape:connector-curvature="0" /><path
                                   d="m 1.1e-4,0.17019 c 0.022207,0.00279 0.023938,0.00488 0.023938,0.04193 l 0,0.35082 c 0,0.03704 -0.001731,0.03914 -0.023938,0.04193 l 0,0.02447 0.090558,0 C 0.11345,0.63003 0.13162,0.62235 0.14373,0.60347 0.15613,0.5846 0.16276,0.55595 0.16276,0.51472 c 0,-0.0559 -0.01499,-0.09365 -0.04268,-0.10763 l 0,-0.00139 C 0.14719,0.39591 0.17113,0.35818 0.17113,0.27921 0.17113,0.23728 0.16565,0.20373 0.15354,0.18067 0.14142,0.15831 0.12239,0.14572 0.094128,0.14572 l -0.094018,0 0,0.02447 z M 0.063846,0.2233 c 0,-0.03774 0.005768,-0.04823 0.023359,-0.04823 0.021335,0 0.040085,0.02237 0.040375,0.10134 0,0.06429 -0.01557,0.11182 -0.047007,0.11182 l -0.016727,0 0,-0.16493 z M 0.079709,0.41758 C 0.10826,0.41758 0.12181,0.45183 0.1221,0.50983 0.12239,0.56853 0.10739,0.59998 0.082881,0.59998 0.067882,0.59928 0.063846,0.59649 0.063846,0.57063 l 0,-0.15305 0.015863,0"
                                   style="fill:#00aeef;fill-opacity:1;fill-rule:nonzero;stroke:none"
                                   id="path382"
                                   inkscape:connector-curvature="0" /><path
                                   d="M 0.35483,0.31288 C 0.35476,0.26686 0.35101,0.23253 0.34501,0.20908 0.33125,0.15527 0.3102,0.13527 0.27488,0.13455 0.24083,0.13385 0.21803,0.15411 0.20597,0.20862 0.2005,0.23308 0.19673,0.27164 0.19673,0.31288 l 0,0.25089 c 0,0.03703 -6.2e-4,0.03831 -0.02171,0.0411 l 0,0.02447 0.08329,0 0,-0.02447 C 0.23721,0.60208 0.23633,0.6008 0.23633,0.56377 l 0,-0.25229 c 0,-0.07058 0.00297,-0.14711 0.03924,-0.14689 0.03633,2.3e-4 0.03906,0.07561 0.03906,0.14689 l 0,0.25229 c 0,0.03703 -0.00112,0.03818 -0.0218,0.0411 l 0,0.02447 0.08328,0 0,-0.02447 C 0.3557,0.60195 0.35483,0.6008 0.35483,0.56377 l 0,-0.25089"
                                   style="fill:#00aeef;fill-opacity:1;fill-rule:nonzero;stroke:none"
                                   id="path384"
                                   inkscape:connector-curvature="0" /><path
                                   d="m 0.38183,0.17019 c 0.02221,0.00279 0.02394,0.00488 0.02394,0.04193 l 0,0.35082 c 0,0.03704 -0.00173,0.03914 -0.02394,0.04193 l 0,0.02447 0.08537,0 c 0.02221,0 0.04124,-0.0063 0.05566,-0.02796 0.01327,-0.01957 0.02366,-0.05731 0.02366,-0.11321 0,-0.0636 -0.01414,-0.10134 -0.03087,-0.123 C 0.50296,0.34909 0.48451,0.34001 0.46201,0.34001 l -0.01644,0 0,-0.12789 c 0,-0.03705 0.00174,-0.03914 0.02855,-0.04193 l 0,-0.02447 -0.09229,0 0,0.02447 z m 0.06374,0.22852 c 0,-0.02655 0.00346,-0.02935 0.01731,-0.02935 0.02826,0 0.04153,0.05101 0.04153,0.11671 0,0.07897 -0.01702,0.11391 -0.04009,0.11391 -0.01615,0 -0.01875,-0.00629 -0.01875,-0.02586 l 0,-0.17541"
                                   style="fill:#00aeef;fill-opacity:1;fill-rule:nonzero;stroke:none"
                                   id="path386"
                                   inkscape:connector-curvature="0" /><path
                                   d="M 0.50722,0.17019 C 0.52343,0.17158 0.52651,0.17768 0.53126,0.21072 0.53857,0.2616 0.58994,0.62934 0.58994,0.62934 l 0.03429,0 0.05901,-0.42332 C 0.68744,0.17387 0.69079,0.17108 0.70588,0.16967 l 0,-0.02445 -0.08249,0 0,0.02445 0.01481,0.0028 c 0.00698,0.0014 0.0081,0.01049 0.00587,0.02796 l -0.01517,0.1113 -0.06379,0 C 0.55925,0.26575 0.55487,0.24085 0.55011,0.20234 0.54799,0.18513 0.55145,0.1745 0.5583,0.17311 l 0.01469,-0.00292 -1.2e-4,-0.02447 -0.06565,0 0,0.02447 z m 0.11691,0.1735 -0.02642,0.19247 -0.00183,9e-5 c -6e-5,3e-5 -0.02277,-0.1674 -0.02613,-0.19256 l 0.05438,0"
                                   style="fill:#00aeef;fill-opacity:1;fill-rule:nonzero;stroke:none"
                                   id="path388"
                                   inkscape:connector-curvature="0" /></g></g></g></g></g></g></g></g></g></g></g></g></g></g></g></g></g></g></svg>