<?xml version="1.0" encoding="UTF-8" standalone="no"?>
<!-- Created with Inkscape (http://www.inkscape.org/) -->

<svg
   xmlns:dc="http://purl.org/dc/elements/1.1/"
   xmlns:cc="http://creativecommons.org/ns#"
   xmlns:rdf="http://www.w3.org/1999/02/22-rdf-syntax-ns#"
   xmlns:svg="http://www.w3.org/2000/svg"
   xmlns="http://www.w3.org/2000/svg"
   xmlns:sodipodi="http://sodipodi.sourceforge.net/DTD/sodipodi-0.dtd"
   xmlns:inkscape="http://www.inkscape.org/namespaces/inkscape"
   width="1000"
   height="915.25336"
   id="svg4395"
   version="1.1"
   inkscape:version="0.48.2 r9819"
   sodipodi:docname="New document 8">
  <defs
     id="defs4397" />
  <sodipodi:namedview
     id="base"
     pagecolor="#ffffff"
     bordercolor="#666666"
     borderopacity="1.0"
     inkscape:pageopacity="0.0"
     inkscape:pageshadow="2"
     inkscape:zoom="0.35"
     inkscape:cx="838.89473"
     inkscape:cy="269.53524"
     inkscape:document-units="px"
     inkscape:current-layer="g4362"
     showgrid="false"
     fit-margin-left="0.5"
     fit-margin-top="0.5"
     fit-margin-bottom="0.5"
     fit-margin-right="0.5"
     inkscape:window-width="1920"
     inkscape:window-height="1028"
     inkscape:window-x="-8"
     inkscape:window-y="-8"
     inkscape:window-maximized="1" />
  <metadata
     id="metadata4400">
    <rdf:RDF>
      <cc:Work
         rdf:about="">
        <dc:format>image/svg+xml</dc:format>
        <dc:type
           rdf:resource="http://purl.org/dc/dcmitype/StillImage" />
        <dc:title></dc:title>
      </cc:Work>
    </rdf:RDF>
  </metadata>
  <g
     inkscape:label="Layer 1"
     inkscape:groupmode="layer"
     id="layer1"
     transform="translate(-61.819553,50.498782)">
    <g
       id="g4362"
       transform="matrix(11.118283,0,0,-11.118283,-300.87027,8719.0656)">
      <g
         id="g4430"
         transform="matrix(1.2622145,0,0,1.2622145,-8.5654997,-185.24853)">
        <path
           id="path3964"
           style="fill:#000000;fill-opacity:1;fill-rule:nonzero;stroke:none"
           d="m 49.188,711.461 c -1.273,-3.048 -4.551,-4.984 -7.805,-4.984 -4.826,0 -8.717,4.029 -8.717,8.832 0,4.756 3.937,8.716 8.625,8.716 3.369,0 6.692,-1.958 7.989,-5.12 l -3.55,0 c -1.047,1.272 -2.732,2.093 -4.416,2.093 -3.073,0 -5.53,-2.663 -5.53,-5.803 0,-2.983 2.548,-5.69 5.553,-5.69 1.661,0 3.095,0.75 4.233,1.956 l 3.618,0"
           inkscape:connector-curvature="0" />
        <path
           id="path3966"
           style="fill:#000000;fill-opacity:1;fill-rule:nonzero;stroke:none"
           d="m 54.514,714.262 1.798,5.098 1.798,-5.098 -3.596,0 z m -6.44,-7.374 3.436,0 1.866,4.347 5.963,0 1.82,-4.347 3.438,0 -7.079,16.816 -2.436,0 -7.008,-16.816"
           inkscape:connector-curvature="0" />
        <path
           id="path3968"
           style="fill:#000000;fill-opacity:1;fill-rule:nonzero;stroke:none"
           d="m 68.51,709.915 0,4.302 1.365,0 c 0.752,0 1.503,0.022 2.208,-0.343 0.729,-0.41 1.116,-0.912 1.116,-1.729 0,-0.705 -0.251,-1.253 -0.82,-1.639 -0.82,-0.547 -1.662,-0.591 -2.572,-0.591 l -1.297,0 z m -3.119,-3.027 4.212,0 c 1.615,0.045 3.322,0.136 4.665,1.115 1.297,0.978 2.048,2.367 2.048,4.005 0,1.91 -1.025,3.481 -2.868,4.074 1.23,0.592 1.843,1.888 1.843,3.208 0,1.571 -0.978,3.073 -2.366,3.779 -1.411,0.705 -2.959,0.635 -4.484,0.635 l -3.05,0 0,-16.816 z m 3.119,10.356 0,3.435 0.57,0 c 0.659,0 1.455,0.113 2.048,-0.159 0.614,-0.249 1.045,-0.797 1.045,-1.48 0,-0.638 -0.363,-1.274 -0.955,-1.546 -0.591,-0.274 -1.456,-0.25 -2.116,-0.25 l -0.592,0"
           inkscape:connector-curvature="0" />
        <path
           id="path3970"
           style="fill:#000000;fill-opacity:1;fill-rule:nonzero;stroke:none"
           d="m 86.033,720.998 c 3.141,0 5.645,-2.549 5.645,-5.713 0,-3.118 -2.573,-5.78 -5.645,-5.78 -3.072,0 -5.644,2.662 -5.644,5.78 0,3.164 2.504,5.713 5.644,5.713 z m 0,3.027 c -4.848,0 -8.762,-3.915 -8.762,-8.808 0,-4.87 3.982,-8.74 8.762,-8.74 4.78,0 8.762,3.87 8.762,8.74 0,4.893 -3.914,8.808 -8.762,8.808"
           inkscape:connector-curvature="0" />
        <path
           id="path3972"
           style="fill:#000000;fill-opacity:1;fill-rule:nonzero;stroke:none"
           d="m 97.594,720.679 -3.095,0 0,3.025 9.353,0 0,-3.025 -3.139,0 0,-13.791 -3.119,0 0,13.791"
           inkscape:connector-curvature="0" />
        <path
           id="path3974"
           style="fill:#d83b3e;fill-opacity:1;fill-rule:nonzero;stroke:none"
           d="m 65.458,738.079 c 0.197,0.001 0.394,-10e-4 0.593,0.004 5.808,0.133 11.05,1.692 14.913,4.121 -3.29,-1.657 -7.56,-2.599 -12.206,-2.469 -1.786,0.048 -3.507,0.257 -5.132,0.594 0.31,-0.546 0.653,-1.05 1.033,-1.503 0.209,-0.25 0.48,-0.502 0.799,-0.747"
           inkscape:connector-curvature="0" />
        <path
           id="path3976"
           style="fill:#d83b3e;fill-opacity:1;fill-rule:nonzero;stroke:none"
           d="m 87.609,752.448 c -0.141,6.232 -6.757,11.354 -15.732,12.893 -2.048,0.351 -4.218,0.517 -6.462,0.465 -0.657,-0.015 -1.305,-0.052 -1.947,-0.103 -11.154,-0.88 -19.778,-7.021 -19.612,-14.26 0.137,-5.952 6.172,-10.888 14.527,-12.662 -0.966,1.296 -1.68,2.776 -2.145,4.379 -3.528,2.172 -5.688,5.177 -5.598,8.444 0.114,4.067 3.684,7.535 8.955,9.395 2.443,0.863 5.25,1.378 8.249,1.448 0.511,0.011 1.026,0.014 1.547,0 10.017,-0.28 18.024,-5.429 18.112,-11.57 0.08,0.517 0.119,1.04 0.106,1.571"
           inkscape:connector-curvature="0" />
        <path
           id="path3978"
           style="fill:#000000;fill-opacity:1;fill-rule:nonzero;stroke:none"
           d="m 85.632,767.847 c -5.397,5.824 -14.981,4.762 -22.164,-2.144 0.642,0.051 1.29,0.088 1.947,0.103 2.244,0.052 4.414,-0.114 6.462,-0.465 4.824,2.566 10.632,2.951 14.01,-0.773 2.645,-2.911 3.556,-7.221 2.866,-11.701 1.267,5.687 0.291,11.298 -3.121,14.98"
           inkscape:connector-curvature="0" />
        <path
           id="path3980"
           style="fill:#000000;fill-opacity:1;fill-rule:nonzero;stroke:none"
           d="m 65.458,738.079 c -0.319,0.245 -0.59,0.497 -0.799,0.747 -0.38,0.453 -0.723,0.957 -1.033,1.503 -2.846,5.025 -2.627,13.689 2.655,20.41 0.472,0.601 0.997,1.17 1.563,1.708 -2.999,-0.07 -5.806,-0.585 -8.249,-1.448 -3.717,-5.748 -4.917,-12.475 -3.357,-17.839 0.465,-1.603 1.179,-3.083 2.145,-4.379 0.262,-0.353 0.539,-0.694 0.838,-1.018 4.626,-4.991 12.326,-4.925 18.957,-0.459 -4.682,-2.648 -10.234,-1.138 -12.72,0.775"
           inkscape:connector-curvature="0" />
      </g>
    </g>
  </g>
</svg>
