<?xml version="1.0" encoding="UTF-8" standalone="no"?>
<!-- Created with Inkscape (http://www.inkscape.org/) -->

<svg
   xmlns:dc="http://purl.org/dc/elements/1.1/"
   xmlns:cc="http://creativecommons.org/ns#"
   xmlns:rdf="http://www.w3.org/1999/02/22-rdf-syntax-ns#"
   xmlns:svg="http://www.w3.org/2000/svg"
   xmlns="http://www.w3.org/2000/svg"
   xmlns:sodipodi="http://sodipodi.sourceforge.net/DTD/sodipodi-0.dtd"
   xmlns:inkscape="http://www.inkscape.org/namespaces/inkscape"
   width="1000"
   height="269.23743"
   id="svg2"
   version="1.1"
   inkscape:version="0.48.2 r9819"
   sodipodi:docname="New document 1">
  <defs
     id="defs4" />
  <sodipodi:namedview
     id="base"
     pagecolor="#ffffff"
     bordercolor="#666666"
     borderopacity="1.0"
     inkscape:pageopacity="0.0"
     inkscape:pageshadow="2"
     inkscape:zoom="0.70710678"
     inkscape:cx="956.67511"
     inkscape:cy="21.11132"
     inkscape:document-units="px"
     inkscape:current-layer="layer1"
     showgrid="false"
     fit-margin-left="0.5"
     fit-margin-bottom="0.5"
     fit-margin-top="0.5"
     fit-margin-right="0.5"
     inkscape:window-width="1920"
     inkscape:window-height="1028"
     inkscape:window-x="-8"
     inkscape:window-y="-8"
     inkscape:window-maximized="1">
    <inkscape:grid
       type="xygrid"
       id="grid2996"
       empspacing="5"
       visible="true"
       enabled="true"
       snapvisiblegridlinesonly="true" />
  </sodipodi:namedview>
  <metadata
     id="metadata7">
    <rdf:RDF>
      <cc:Work
         rdf:about="">
        <dc:format>image/svg+xml</dc:format>
        <dc:type
           rdf:resource="http://purl.org/dc/dcmitype/StillImage" />
        <dc:title></dc:title>
      </cc:Work>
    </rdf:RDF>
  </metadata>
  <g
     inkscape:label="Layer 1"
     inkscape:groupmode="layer"
     id="layer1"
     transform="translate(39.785714,-252.66883)">
    <g
       id="g3881"
       transform="matrix(1.0007155,0,0,1.0007155,0.02810942,-0.37307274)">
      <path
         style="fill:#e23e22;fill-opacity:1;stroke:none"
         d="m 855,271.36062 -18,87.5 51.375,19.75 70.625,-19.75 z"
         id="path3870"
         inkscape:connector-curvature="0"
         sodipodi:nodetypes="ccccc" />
      <path
         sodipodi:nodetypes="cccc"
         inkscape:connector-curvature="0"
         id="path3854"
         d="m 855,446.36218 -18,-87.5 122,0 z"
         style="fill:#e6692f;fill-opacity:1;stroke:none" />
      <path
         sodipodi:nodetypes="ccccccccccc"
         inkscape:connector-curvature="0"
         id="path2998"
         d="m 74.732143,468.07647 20.535714,35 c 0,0 -15.937876,17.41071 -51.964285,17.41071 -55.332818,0 -82.589286,-40.39747 -82.589286,-83.39286 0,-43.09239 28.335169,-83.21428 83.125,-83.21428 31.557476,0 50.892857,15.71428 50.892857,15.71428 L 73.75,405.3979 c 0,0 -9.812514,-13.21429 -30.267857,-13.21429 -29.209886,0 -41.607143,22.37594 -41.607143,45.71429 0,24.90273 14.551031,44.64285 41.607143,44.64285 21.951081,0 31.25,-14.46428 31.25,-14.46428 z"
         style="fill:#000000;fill-opacity:1;stroke:none" />
      <path
         id="path3002"
         d="m 514.46875,352.96875 c -53.40807,0 -83.625,39.07354 -83.625,84.03125 0,42.0268 26.9878,84.40625 83.6875,84.40625 47.80449,0 83.65625,-35.01025 83.65625,-85.5625 0,-48.54497 -36.44362,-82.875 -83.71875,-82.875 z M 164.3125,358.375 106,515.375 l 44,0 10,-29 54,0 10.6875,29 44.5,0 -58,-157 -46.875,0 z m 124.6875,0 0,157 73.6875,0 c 32.91331,0 51.65625,-18.71484 51.65625,-46.6875 0,-34.30487 -32.1875,-37.8125 -32.1875,-37.8125 0,0 21.34375,-8.46424 21.34375,-33.21875 0,-22.44736 -14.89073,-39.28125 -46.5,-39.28125 l -68,0 z m 39.5,30.5 15.5,0 c 12.14947,0 19.90625,4.47372 19.90625,14.59375 0,8.99075 -6.49506,15.90625 -18.90625,15.90625 l -16.5,0 0,-30.5 z m 185.84375,2.53125 c 23.82405,0 42.1875,18.11855 42.1875,45.59375 0,28.67582 -18.14882,45.9375 -42.4375,45.9375 C 485.67677,482.9375 472,461.60761 472,437.75 c 0,-22.16925 13.27774,-46.34375 42.34375,-46.34375 z M 187.25,406.625 l 16.5,48.25 -33.375,0 16.875,-48.25 z m 141.25,43.25 24.5,0 c 13.11859,0 20.5625,7.12286 20.5625,16.53125 0,11.37646 -8.29525,17.96875 -20.5625,17.96875 l -24.5,0 0,-34.5 z"
         style="fill:#000000;fill-opacity:1;stroke:none"
         inkscape:connector-curvature="0" />
      <path
         sodipodi:nodetypes="ccccccccc"
         inkscape:connector-curvature="0"
         id="path3827"
         d="m 689.5,515.36218 -42.5,0 0,-119.25 -39.75,0 0,-37.75 122.5,0 0,37.75 -40.25,0 z"
         style="fill:#000000;fill-opacity:1;stroke:none" />
      <path
         sodipodi:nodetypes="ccccc"
         inkscape:connector-curvature="0"
         id="path3850"
         d="m 776,464.36218 61,-105.5 30.5,53 -22.5,38.5 z"
         style="fill:#fdaf17;fill-opacity:1;stroke:none" />
      <path
         sodipodi:nodetypes="ccccc"
         inkscape:connector-curvature="0"
         id="path3852"
         d="m 867.5,411.86218 0.5,41.5 30,11 61,-105.5 z"
         style="fill:#cf181d;fill-opacity:1;stroke:none" />
      <path
         style="fill:#fa9d1c;fill-opacity:1;stroke:none"
         d="m 776,253.36062 61,105.5 30.5,-53 -22.5,-38.5 z"
         id="path3866"
         inkscape:connector-curvature="0"
         sodipodi:nodetypes="ccccc" />
      <path
         style="fill:#cf181d;fill-opacity:1;stroke:none"
         d="m 867.5,305.86062 0.5,-41.5 30,-11 61,105.5 z"
         id="path3868"
         inkscape:connector-curvature="0"
         sodipodi:nodetypes="ccccc" />
      <path
         style="fill:#e6692f;fill-opacity:1;stroke:none"
         d="m 776,253.36062 122,0 -30.5,52.5 z"
         id="path3864"
         inkscape:connector-curvature="0"
         sodipodi:nodetypes="cccc" />
      <path
         sodipodi:nodetypes="cccc"
         inkscape:connector-curvature="0"
         id="path3848"
         d="m 776,464.36218 122,0 -30.5,-52.5 z"
         style="fill:#e23e22;fill-opacity:1;stroke:none" />
    </g>
  </g>
</svg>
