<?xml version="1.0" encoding="UTF-8"?>
<!DOCTYPE svg PUBLIC "-//W3C//DTD SVG 1.1//EN" "http://www.w3.org/Graphics/SVG/1.1/DTD/svg11.dtd">
<!-- Creator: CorelDRAW X6 -->
<svg xmlns="http://www.w3.org/2000/svg" xml:space="preserve" width="1.1in" height="1.1in" version="1.1" style="shape-rendering:geometricPrecision; text-rendering:geometricPrecision; image-rendering:optimizeQuality; fill-rule:evenodd; clip-rule:evenodd"
viewBox="0 0 1100 1100"
 xmlns:xlink="http://www.w3.org/1999/xlink"
 xmlns:svg="http://www.w3.org/2000/svg">
 <defs>
  <style type="text/css">
   <![CDATA[
    .fil2 {fill:#004C5F;fill-rule:nonzero}
    .fil1 {fill:#ED1B2E;fill-rule:nonzero}
    .fil0 {fill:white;fill-rule:nonzero}
   ]]>
  </style>
 </defs>
 <g id="Layer_x0020_1">
  <metadata id="CorelCorpID_0Corel-Layer"/>
  <g id="_188472408">
   <path id="path32" class="fil0" d="M4 550c0,302 245,547 547,547 302,0 547,-245 547,-547 0,-302 -245,-547 -547,-547 -302,0 -547,245 -547,547z"/>
   <path id="path34" class="fil1" d="M1073 550c0,288 -234,522 -522,522 -288,0 -522,-234 -522,-522 0,-288 234,-522 522,-522 288,0 522,234 522,522z"/>
   <path id="path36" class="fil2" d="M551 28c-288,0 -522,234 -522,522 0,171 83,324 211,419l311 -941z"/>
   <path id="path38" class="fil0" d="M437 368l-369 0 298 216 71 -216m0 0l0 0 0 0z"/>
   <polygon id="path40" class="fil0" points="551,28 438,368 678,368 "/>
   <polygon id="path42" class="fil0" points="366,584 242,960 551,729 887,954 759,583 1039,368 "/>
  </g>
 </g>
</svg>
