<?xml version="1.0" encoding="UTF-8" standalone="no"?>
<svg
   xmlns:dc="http://purl.org/dc/elements/1.1/"
   xmlns:cc="http://creativecommons.org/ns#"
   xmlns:rdf="http://www.w3.org/1999/02/22-rdf-syntax-ns#"
   xmlns:svg="http://www.w3.org/2000/svg"
   xmlns="http://www.w3.org/2000/svg"
   xmlns:sodipodi="http://sodipodi.sourceforge.net/DTD/sodipodi-0.dtd"
   xmlns:inkscape="http://www.inkscape.org/namespaces/inkscape"
   width="580"
   height="188"
   id="svg2"
   version="1.1">
  <g
     inkscape:label="Layer 1"
     inkscape:groupmode="layer"
     id="layer1"
     transform="translate(-85.000011,-265.23411)">
    <rect
       x="85.000008"
       y="265.23853"
       width="580"
       height="187.99559"
       id="rect487"
       style="fill:#002661" />
    <path
       d="m 356.26406,311.69885 4.06405,14.73219 c -0.46383,0.28713 -1.01602,0.70679 -1.59028,1.30314 -1.41359,1.53507 -2.63943,4.0751 -2.63943,8.19437 v 46.99061 c 0,4.19658 1.51298,6.85809 3.12535,8.49255 0.73992,0.71783 1.47984,1.22584 2.04307,1.55715 l -3.60022,15.04141 h -18.68581 l -3.78797,-15.08558 c 0.47488,-0.30923 1.00497,-0.75097 1.51298,-1.41359 1.31419,-1.63445 2.39647,-4.37327 2.39647,-8.93429 v -42.13142 l -18.06737,31.38598 -18.08945,-31.36389 v 42.10933 c 0,4.56102 1.08227,7.29984 2.39646,8.93429 0.50801,0.66262 1.0381,1.10436 3.55605,1.41359 L 305.11,408.01027 h -20.75097 l -3.57813,-14.89784 c 0.6074,-0.26505 1.28106,-0.66262 1.96576,-1.29211 0.85036,-0.75096 1.63446,-1.84428 2.2529,-3.31308 0.57427,-1.45776 0.94975,-3.30205 0.94975,-5.58808 v -46.99061 c 0,-4.3291 -1.21479,-6.90226 -2.6836,-8.39315 -0.53009,-0.53009 -1.08227,-0.92766 -1.5461,-1.19271 l 4.05301,-14.64384 h 18.84042 l 16.41082,29.92821 16.37769,-29.92821 h 18.86251"
       id="path489"
       style="fill:#ffffff" />
    <path
       stroke-miterlimit="3.864"
       d="m 356.26406,311.69885 4.06405,14.73219 c -0.46383,0.28713 -1.01602,0.70679 -1.59028,1.30314 -1.41359,1.53507 -2.63943,4.0751 -2.63943,8.19437 v 46.99061 c 0,4.19658 1.51298,6.85809 3.12535,8.49255 0.73992,0.71783 1.47984,1.22584 2.04307,1.55715 l -3.60022,15.04141 h -18.68581 l -3.78797,-15.08558 c 0.47488,-0.30923 1.00497,-0.75097 1.51298,-1.41359 1.31419,-1.63445 2.39647,-4.37327 2.39647,-8.93429 v -42.13142 l -18.06737,31.38598 -18.08945,-31.36389 v 42.10933 c 0,4.56102 1.08227,7.29984 2.39646,8.93429 0.50801,0.66262 1.0381,1.10436 3.55605,1.41359 L 305.11,408.01027 h -20.75097 l -3.57813,-14.89784 c 0.6074,-0.26505 1.28106,-0.66262 1.96576,-1.29211 0.85036,-0.75096 1.63446,-1.84428 2.2529,-3.31308 0.57427,-1.45776 0.94975,-3.30205 0.94975,-5.58808 v -46.99061 c 0,-4.3291 -1.21479,-6.90226 -2.6836,-8.39315 -0.53009,-0.53009 -1.08227,-0.92766 -1.5461,-1.19271 l 4.05301,-14.64384 h 18.84042 l 16.41082,29.92821 16.37769,-29.92821 h 18.86251 z"
       id="path491"
       style="fill:none;stroke:#d1ac3f;stroke-width:6.1071229;stroke-miterlimit:3.86400008" />
    <path
       d="m 538.4286,326.0666 c -0.55218,0 -1.04914,0.0221 -1.44671,0.0221 h -1.43568 v 26.35009 h 1.43568 c 0.011,0 0.0331,0 0.0331,0 0.47487,0 0.91662,0 1.39149,0 0.48592,0 1.00497,0 1.52402,0 1.51298,0 3.10326,-0.0221 4.6825,-0.15461 2.14246,-0.18775 4.34014,-0.57427 6.29486,-1.41359 2.02099,-0.83931 3.8211,-2.1535 5.09111,-4.1524 1.27002,-2.00994 1.96577,-4.5831 1.96577,-7.84097 0,-3.23578 -0.82827,-5.75373 -2.29708,-7.67532 -1.45775,-1.92159 -3.45665,-3.12534 -5.53285,-3.86527 -2.05411,-0.76201 -4.28493,-1.10436 -6.31695,-1.22584 -0.98288,-0.0663 -1.96577,-0.0883 -2.8603,-0.0883 -0.93871,0 -1.80011,0.0221 -2.52899,0.0442 m 27.86306,-7.8741 c 5.08006,4.49475 8.6582,11.30866 8.6582,20.6847 0,9.28769 -3.19161,15.35063 -6.328,19.10547 -3.1916,3.76587 -6.36112,5.24572 -6.37217,5.25676 l -1.24793,0.56322 7.57593,19.20486 c 2.18664,5.20155 4.85919,7.84097 7.14522,9.13308 0.88349,0.48592 1.65654,0.77305 2.31916,0.93871 l -3.51187,14.6328 h -14.8868 l -16.6317,-40.80619 h -7.46549 v 15.71508 c 0,2.23081 0.36444,4.03092 0.93871,5.48868 0.59636,1.4688 1.3915,2.52899 2.23081,3.31308 0.69575,0.62949 1.3915,1.08228 1.98786,1.34732 l -3.60022,14.94203 h -18.69686 l -3.76587,-15.04142 c 0.47487,-0.28713 0.98288,-0.71783 1.51297,-1.34732 1.29211,-1.62341 2.39647,-4.38432 2.39647,-9.04473 v -46.836 c 0,-2.20872 -0.37548,-3.95361 -0.98288,-5.32302 -0.59636,-1.3915 -1.43567,-2.35229 -2.29708,-3.02596 -0.62948,-0.51905 -1.28106,-0.83931 -1.83324,-1.04914 l 3.69962,-14.64384 31.06571,0.0331 c 6.26173,0 12.96521,2.23081 18.08945,6.7587 z"
       id="path493"
       style="fill:#ffffff" />
    <path
       d="m 538.4286,326.0666 c -0.55218,0 -1.04914,0.0221 -1.44671,0.0221 h -1.43568 v 26.35009 h 1.43568 c 0.011,0 0.0331,0 0.0331,0 0.47487,0 0.91662,0 1.39149,0 0.48592,0 1.00497,0 1.52402,0 1.51298,0 3.10326,-0.0221 4.6825,-0.15461 2.14246,-0.18775 4.34014,-0.57427 6.29486,-1.41359 2.02099,-0.83931 3.8211,-2.1535 5.09111,-4.1524 1.27002,-2.00994 1.96577,-4.5831 1.96577,-7.84097 0,-3.23578 -0.82827,-5.75373 -2.29708,-7.67532 -1.45775,-1.92159 -3.45665,-3.12534 -5.53285,-3.86527 -2.05411,-0.76201 -4.28493,-1.10436 -6.31695,-1.22584 -0.98288,-0.0663 -1.96577,-0.0883 -2.8603,-0.0883 -0.93871,0 -1.80011,0.0221 -2.52899,0.0442 z m 27.86306,-7.8741 c 5.08006,4.49475 8.6582,11.30866 8.6582,20.6847 0,9.28769 -3.19161,15.35063 -6.328,19.10547 -3.1916,3.76587 -6.36112,5.24572 -6.37217,5.25676 l -1.24793,0.56322 7.57593,19.20486 c 2.18664,5.20155 4.85919,7.84097 7.14522,9.13308 0.88349,0.48592 1.65654,0.77305 2.31916,0.93871 l -3.51187,14.6328 h -14.8868 l -16.6317,-40.80619 h -7.46549 v 15.71508 c 0,2.23081 0.36444,4.03092 0.93871,5.48868 0.59636,1.4688 1.3915,2.52899 2.23081,3.31308 0.69575,0.62949 1.3915,1.08228 1.98786,1.34732 l -3.60022,14.94203 h -18.69686 l -3.76587,-15.04142 c 0.47487,-0.28713 0.98288,-0.71783 1.51297,-1.34732 1.29211,-1.62341 2.39647,-4.38432 2.39647,-9.04473 v -46.836 c 0,-2.20872 -0.37548,-3.95361 -0.98288,-5.32302 -0.59636,-1.3915 -1.43567,-2.35229 -2.29708,-3.02596 -0.62948,-0.51905 -1.28106,-0.83931 -1.83324,-1.04914 l 3.69962,-14.64384 31.06571,0.0331 c 6.26173,0 12.96521,2.23081 18.08945,6.7587 z"
       id="path495"
       style="fill:none;stroke:#d1ac3f;stroke-width:6.1071229" />
    <path
       d="m 610.0244,311.69885 4.04197,14.64384 c -0.46383,0.26505 -1.02706,0.67366 -1.55715,1.19271 -1.45776,1.49089 -2.65047,4.06405 -2.65047,8.39315 v 47.8741 c -0.0331,2.04307 0.34235,3.69962 0.93871,5.05798 0.61844,1.32524 1.41358,2.30812 2.24185,3.02595 0.69575,0.56323 1.38045,0.9608 1.97681,1.22585 l -3.57813,14.89784 h -18.79625 l -3.75483,-14.89784 c 0.46383,-0.22088 0.98288,-0.57427 1.4688,-1.04915 1.45776,-1.42462 2.61734,-3.90944 2.61734,-8.18332 v -48.13915 c 0,-2.08724 -0.38653,-3.78796 -0.99393,-5.13528 -0.62948,-1.35837 -1.45775,-2.33021 -2.31916,-3.037 -0.6847,-0.55218 -1.34732,-0.91662 -1.95472,-1.13749 l 3.76588,-14.73219 h 18.55328"
       id="path497"
       style="fill:#ffffff" />
    <path
       stroke-miterlimit="3.864"
       d="m 610.0244,311.69885 4.04197,14.64384 c -0.46383,0.26505 -1.02706,0.67366 -1.55715,1.19271 -1.45776,1.49089 -2.65047,4.06405 -2.65047,8.39315 v 47.8741 c -0.0331,2.04307 0.34235,3.69962 0.93871,5.05798 0.61844,1.32524 1.41358,2.30812 2.24185,3.02595 0.69575,0.56323 1.38045,0.9608 1.97681,1.22585 l -3.57813,14.89784 h -18.79625 l -3.75483,-14.89784 c 0.46383,-0.22088 0.98288,-0.57427 1.4688,-1.04915 1.45776,-1.42462 2.61734,-3.90944 2.61734,-8.18332 v -48.13915 c 0,-2.08724 -0.38653,-3.78796 -0.99393,-5.13528 -0.62948,-1.35837 -1.45775,-2.33021 -2.31916,-3.037 -0.6847,-0.55218 -1.34732,-0.91662 -1.95472,-1.13749 l 3.76588,-14.73219 h 18.55328 z"
       id="path499"
       style="fill:none;stroke:#d1ac3f;stroke-width:6.1071229;stroke-miterlimit:3.86400008" />
    <path
       d="m 398.28504,326.36478 c -0.57427,0 -1.04915,0.0221 -1.44672,0.0221 h -1.4688 v 26.35008 h 1.4688 c 0.0111,0 0.0111,0 0.0331,0 0.45279,0 0.92767,0 1.3915,0 0.49696,0 1.00497,0 1.51298,0 1.51297,0 3.1143,-0.0221 4.69354,-0.16565 2.14246,-0.1767 4.35118,-0.56322 6.29486,-1.41358 2.00994,-0.82827 3.78796,-2.14247 5.08007,-4.1524 1.27001,-1.9989 1.96576,-4.57206 1.96576,-7.82993 0,-3.23578 -0.83931,-5.74269 -2.31916,-7.67532 -1.44671,-1.92159 -3.41248,-3.12535 -5.49972,-3.86527 -2.06516,-0.76201 -4.27389,-1.10436 -6.31696,-1.22584 -1.01601,-0.0663 -1.9768,-0.0883 -2.87134,-0.0883 -0.93871,0 -1.77802,0.0221 -2.51794,0.0442 m -2.90448,42.27498 c 0.0331,5.64329 0.0331,10.72336 0,14.2794 0,4.29597 1.52402,6.97957 3.18057,8.59194 0.70679,0.69575 1.42462,1.17063 2.03202,1.50193 l -3.60022,14.99724 h -18.72998 l -3.77692,-15.08558 c 0.46383,-0.30923 0.99393,-0.75097 1.52402,-1.41359 1.29211,-1.63445 2.40751,-4.37327 2.40751,-8.93429 0,-7.77471 0,-41.60132 0,-46.836 0,-2.03203 -0.36444,-3.68857 -0.98288,-5.03589 -0.6074,-1.32524 -1.42463,-2.30812 -2.23081,-3.01491 -0.69575,-0.56322 -1.36941,-0.96079 -1.94368,-1.22584 l 3.74379,-14.76532 31.06571,0.0331 c 6.28382,0 12.99834,2.23081 18.11154,6.75869 5.06902,4.5058 8.64715,11.30867 8.64715,20.68471 0,7.14522 -1.6455,12.40198 -4.08614,16.28934 -2.41855,3.88735 -5.65433,6.48261 -8.94533,8.2275 -6.5047,3.4677 -13.10878,3.51187 -13.29652,3.51187 h -13.10878 v 1.43567 z"
       id="path501"
       style="fill:#ffffff" />
    <path
       d="m 398.28504,326.36478 c -0.57427,0 -1.04915,0.0221 -1.44672,0.0221 h -1.4688 v 26.35008 h 1.4688 c 0.0111,0 0.0111,0 0.0331,0 0.45279,0 0.92767,0 1.3915,0 0.49696,0 1.00497,0 1.51298,0 1.51297,0 3.1143,-0.0221 4.69354,-0.16565 2.14246,-0.1767 4.35118,-0.56322 6.29486,-1.41358 2.00994,-0.82827 3.78796,-2.14247 5.08007,-4.1524 1.27001,-1.9989 1.96576,-4.57206 1.96576,-7.82993 0,-3.23578 -0.83931,-5.74269 -2.31916,-7.67532 -1.44671,-1.92159 -3.41248,-3.12535 -5.49972,-3.86527 -2.06516,-0.76201 -4.27389,-1.10436 -6.31696,-1.22584 -1.01601,-0.0663 -1.9768,-0.0883 -2.87134,-0.0883 -0.93871,0 -1.77802,0.0221 -2.51794,0.0442 z m -2.90448,42.27498 c 0.0331,5.64329 0.0331,10.72336 0,14.2794 0,4.29597 1.52402,6.97957 3.18057,8.59194 0.70679,0.69575 1.42462,1.17063 2.03202,1.50193 l -3.60022,14.99724 h -18.72998 l -3.77692,-15.08558 c 0.46383,-0.30923 0.99393,-0.75097 1.52402,-1.41359 1.29211,-1.63445 2.40751,-4.37327 2.40751,-8.93429 0,-7.77471 0,-41.60132 0,-46.836 0,-2.03203 -0.36444,-3.68857 -0.98288,-5.03589 -0.6074,-1.32524 -1.42463,-2.30812 -2.23081,-3.01491 -0.69575,-0.56322 -1.36941,-0.96079 -1.94368,-1.22584 l 3.74379,-14.76532 31.06571,0.0331 c 6.28382,0 12.99834,2.23081 18.11154,6.75869 5.06902,4.5058 8.64715,11.30867 8.64715,20.68471 0,7.14522 -1.6455,12.40198 -4.08614,16.28934 -2.41855,3.88735 -5.65433,6.48261 -8.94533,8.2275 -6.5047,3.4677 -13.10878,3.51187 -13.29652,3.51187 h -13.10878 v 1.43567 z"
       id="path503"
       style="fill:none;stroke:#d1ac3f;stroke-width:6.1071229" />
    <path
       d="m 226.00453,363.05169 -0.47487,1.80011 h 17.45996 l -7.36609,-28.36002 -2.80508,0.0221 -6.81392,26.53783 m 24.45058,-51.35284 4.08614,14.83158 c -0.58531,0.38653 -1.25897,1.00497 -1.88846,1.84428 -0.65157,0.91663 -1.19271,2.12038 -1.41358,3.65544 -0.19879,1.50194 -0.0552,3.30205 0.6074,5.3672 l 12.54555,46.09608 c 1.49089,4.62728 3.2137,7.12314 4.6825,8.51463 0.50801,0.46384 1.00497,0.81723 1.41358,1.03811 l -3.60022,14.9641 h -18.69685 l -3.79901,-15.10767 c 0.58532,-0.36444 1.2148,-0.9608 1.76698,-1.87742 1.18167,-2.03202 1.77803,-5.32302 0.5301,-10.72335 l -0.25401,-1.10437 h -24.35118 l -0.28714,1.06019 c -1.42462,5.30094 -0.83931,8.61403 0.40862,10.67918 0.59635,0.97184 1.2921,1.57924 1.86637,1.96577 l -3.76588,15.10767 h -18.71893 l -3.58918,-14.89784 c 0.4307,-0.22088 0.92766,-0.5301 1.44671,-1.00497 1.53507,-1.36941 3.23578,-3.90944 4.64937,-8.63612 l 11.13197,-46.11816 c 0.55218,-2.14246 0.62949,-3.92049 0.41966,-5.44451 -0.23192,-1.51297 -0.75097,-2.69464 -1.3915,-3.60022 -0.56322,-0.83931 -1.22584,-1.41358 -1.75594,-1.77802 l 4.09719,-14.83158 h 33.85974 z"
       id="path505"
       style="fill:#ffffff" />
    <path
       d="m 226.00453,363.05169 -0.47487,1.80011 h 17.45996 l -7.36609,-28.36002 -2.80508,0.0221 -6.81392,26.53783 z m 24.45058,-51.35284 4.08614,14.83158 c -0.58531,0.38653 -1.25897,1.00497 -1.88846,1.84428 -0.65157,0.91663 -1.19271,2.12038 -1.41358,3.65544 -0.19879,1.50194 -0.0552,3.30205 0.6074,5.3672 l 12.54555,46.09608 c 1.49089,4.62728 3.2137,7.12314 4.6825,8.51463 0.50801,0.46384 1.00497,0.81723 1.41358,1.03811 l -3.60022,14.9641 h -18.69685 l -3.79901,-15.10767 c 0.58532,-0.36444 1.2148,-0.9608 1.76698,-1.87742 1.18167,-2.03202 1.77803,-5.32302 0.5301,-10.72335 l -0.25401,-1.10437 h -24.35118 l -0.28714,1.06019 c -1.42462,5.30094 -0.83931,8.61403 0.40862,10.67918 0.59635,0.97184 1.2921,1.57924 1.86637,1.96577 l -3.76588,15.10767 h -18.71893 l -3.58918,-14.89784 c 0.4307,-0.22088 0.92766,-0.5301 1.44671,-1.00497 1.53507,-1.36941 3.23578,-3.90944 4.64937,-8.63612 l 11.13197,-46.11816 c 0.55218,-2.14246 0.62949,-3.92049 0.41966,-5.44451 -0.23192,-1.51297 -0.75097,-2.69464 -1.3915,-3.60022 -0.56322,-0.83931 -1.22584,-1.41358 -1.75594,-1.77802 l 4.09719,-14.83158 h 33.85974 z"
       id="path507"
       style="fill:none;stroke:#d1ac3f;stroke-width:6.1071229" />
    <path
       d="m 459.35627,363.05169 -0.47488,1.80011 h 17.43788 l -7.37714,-28.36002 -2.79404,0.0221 -6.79182,26.53783 m 25.48868,-51.35284 4.08614,14.83158 c -0.58532,0.38653 -1.27002,1.00497 -1.87742,1.84428 -0.6847,0.91663 -1.2148,2.12038 -1.41358,3.65544 -0.22088,1.50194 -0.0773,3.30205 0.58531,5.3672 l 12.54555,46.09608 c 1.49089,4.62728 3.2137,7.12314 4.69354,8.51463 0.50801,0.46384 1.00497,0.81723 1.40254,1.03811 l -3.58917,14.9641 H 482.581 l -3.78796,-15.10767 c 0.55218,-0.36444 1.18167,-0.9608 1.73385,-1.87742 1.20375,-2.03202 1.78907,-5.32302 0.55218,-10.72335 l -0.26505,-1.10437 h -24.34014 l -0.27609,1.06019 c -1.44671,5.30094 -0.8614,8.61403 0.39757,10.67918 0.59636,0.97184 1.27002,1.57924 1.85533,1.96577 l -3.77692,15.10767 h -18.69685 l -3.57813,-14.89784 c 0.4307,-0.22088 0.89453,-0.5301 1.42462,-1.00497 1.52402,-1.36941 3.23578,-3.90944 4.64937,-8.63612 l 11.10988,-46.11816 c 0.55218,-2.14246 0.67366,-3.92049 0.4307,-5.44451 -0.22087,-1.51297 -0.71783,-2.69464 -1.36941,-3.60022 -0.59635,-0.83931 -1.22584,-1.41358 -1.77802,-1.77802 l 4.10823,-14.83158 h 33.87079 z"
       id="path509"
       style="fill:#ffffff" />
    <path
       d="m 459.35627,363.05169 -0.47488,1.80011 h 17.43788 l -7.37714,-28.36002 -2.79404,0.0221 -6.79182,26.53783 z m 25.48868,-51.35284 4.08614,14.83158 c -0.58532,0.38653 -1.27002,1.00497 -1.87742,1.84428 -0.6847,0.91663 -1.2148,2.12038 -1.41358,3.65544 -0.22088,1.50194 -0.0773,3.30205 0.58531,5.3672 l 12.54555,46.09608 c 1.49089,4.62728 3.2137,7.12314 4.69354,8.51463 0.50801,0.46384 1.00497,0.81723 1.40254,1.03811 l -3.58917,14.9641 H 482.581 l -3.78796,-15.10767 c 0.55218,-0.36444 1.18167,-0.9608 1.73385,-1.87742 1.20375,-2.03202 1.78907,-5.32302 0.55218,-10.72335 l -0.26505,-1.10437 h -24.34014 l -0.27609,1.06019 c -1.44671,5.30094 -0.8614,8.61403 0.39757,10.67918 0.59636,0.97184 1.27002,1.57924 1.85533,1.96577 l -3.77692,15.10767 h -18.69685 l -3.57813,-14.89784 c 0.4307,-0.22088 0.89453,-0.5301 1.42462,-1.00497 1.52402,-1.36941 3.23578,-3.90944 4.64937,-8.63612 l 11.10988,-46.11816 c 0.55218,-2.14246 0.67366,-3.92049 0.4307,-5.44451 -0.22087,-1.51297 -0.71783,-2.69464 -1.36941,-3.60022 -0.59635,-0.83931 -1.22584,-1.41358 -1.77802,-1.77802 l 4.10823,-14.83158 h 33.87079 z"
       id="path511"
       style="fill:none;stroke:#d1ac3f;stroke-width:6.1071229" />
    <path
       d="m 188.47831,392.73694 c -0.47488,1.70072 -1.65655,5.22364 -4.17449,8.70238 -1.76698,2.41855 -4.11927,4.77084 -7.28879,6.54887 -3.16952,1.77802 -7.20045,2.97073 -12.35782,2.97073 -5.11319,0 -9.61899,-1.57924 -13.52843,-4.36223 -3.90945,-2.78299 -7.25566,-6.79183 -9.98344,-11.66207 -5.45555,-9.78464 -8.3048,-22.86029 -8.32689,-35.86968 0.0221,-12.99834 3.30204,-25.37824 8.8349,-34.4561 5.55494,-9.13308 13.20817,-14.73219 21.92159,-14.73219 5.7979,0 10.06074,2.06516 11.72833,3.04804 0.0773,0.0442 0.14356,0.0773 0.20982,0.12148 0.45279,0.26504 1.02706,0.61844 1.62342,0.91662 0.61844,0.28713 1.35836,0.57427 2.1535,0.73992 0.4307,0.0663 0.86141,0.12148 1.30315,0.12148 0.4307,0 0.88349,-0.0442 1.35837,-0.14357 0.48591,-0.0994 0.97183,-0.26504 1.4688,-0.48592 l 7.53175,13.79349 -4.64937,18.9619 h -9.67421 c -0.22087,-1.8222 -0.73992,-5.23468 -1.8222,-8.66925 -0.79514,-2.49585 -1.92159,-5.12424 -3.53396,-7.12313 -0.81722,-1.02706 -1.77802,-1.91055 -2.92656,-2.54004 -1.14853,-0.65157 -2.44064,-1.02705 -3.87631,-1.02705 -1.42463,0 -2.73882,0.35339 -3.92048,0.98288 -1.15958,0.64053 -2.20873,1.53506 -3.09222,2.60629 -1.78906,2.12038 -3.1143,5.00277 -4.13031,8.13915 -1.98785,6.28383 -2.783,14.03645 -2.783,20.08835 0,6.04086 0.56323,14.36775 2.48482,21.24793 0.98288,3.43457 2.30812,6.60409 4.19658,8.95638 0.9387,1.19271 2.04307,2.18664 3.31308,2.88238 1.29211,0.71784 2.73882,1.10437 4.31806,1.10437 1.8222,0 3.39039,-0.69575 4.62728,-1.65655 1.22584,-0.96079 2.18663,-2.18663 2.92656,-3.37935 0.69574,-1.10436 1.21479,-2.20872 1.57923,-3.08117 l 14.48924,7.25566"
       id="path513"
       style="fill:#ffffff" />
    <path
       stroke-miterlimit="3.864"
       d="m 188.47831,392.73694 c -0.47488,1.70072 -1.65655,5.22364 -4.17449,8.70238 -1.76698,2.41855 -4.11927,4.77084 -7.28879,6.54887 -3.16952,1.77802 -7.20045,2.97073 -12.35782,2.97073 -5.11319,0 -9.61899,-1.57924 -13.52843,-4.36223 -3.90945,-2.78299 -7.25566,-6.79183 -9.98344,-11.66207 -5.45555,-9.78464 -8.3048,-22.86029 -8.32689,-35.86968 0.0221,-12.99834 3.30204,-25.37824 8.8349,-34.4561 5.55494,-9.13308 13.20817,-14.73219 21.92159,-14.73219 5.7979,0 10.06074,2.06516 11.72833,3.04804 0.0773,0.0442 0.14356,0.0773 0.20982,0.12148 0.45279,0.26504 1.02706,0.61844 1.62342,0.91662 0.61844,0.28713 1.35836,0.57427 2.1535,0.73992 0.4307,0.0663 0.86141,0.12148 1.30315,0.12148 0.4307,0 0.88349,-0.0442 1.35837,-0.14357 0.48591,-0.0994 0.97183,-0.26504 1.4688,-0.48592 l 7.53175,13.79349 -4.64937,18.9619 h -9.67421 c -0.22087,-1.8222 -0.73992,-5.23468 -1.8222,-8.66925 -0.79514,-2.49585 -1.92159,-5.12424 -3.53396,-7.12313 -0.81722,-1.02706 -1.77802,-1.91055 -2.92656,-2.54004 -1.14853,-0.65157 -2.44064,-1.02705 -3.87631,-1.02705 -1.42463,0 -2.73882,0.35339 -3.92048,0.98288 -1.15958,0.64053 -2.20873,1.53506 -3.09222,2.60629 -1.78906,2.12038 -3.1143,5.00277 -4.13031,8.13915 -1.98785,6.28383 -2.783,14.03645 -2.783,20.08835 0,6.04086 0.56323,14.36775 2.48482,21.24793 0.98288,3.43457 2.30812,6.60409 4.19658,8.95638 0.9387,1.19271 2.04307,2.18664 3.31308,2.88238 1.29211,0.71784 2.73882,1.10437 4.31806,1.10437 1.8222,0 3.39039,-0.69575 4.62728,-1.65655 1.22584,-0.96079 2.18663,-2.18663 2.92656,-3.37935 0.69574,-1.10436 1.21479,-2.20872 1.57923,-3.08117 l 14.48924,7.25566 z"
       id="path515"
       style="fill:none;stroke:#d1ac3f;stroke-width:6.1071229;stroke-miterlimit:3.86400008" />
    <path
       d="m 356.26406,311.69885 4.06405,14.73219 c -0.46383,0.28713 -1.01602,0.70679 -1.59028,1.30314 -1.41359,1.53507 -2.63943,4.0751 -2.63943,8.19437 v 46.99061 c 0,4.19658 1.51298,6.85809 3.12535,8.49255 0.73992,0.71783 1.47984,1.22584 2.04307,1.55715 l -3.60022,15.04141 h -18.68581 l -3.78797,-15.08558 c 0.47488,-0.30923 1.00497,-0.75097 1.51298,-1.41359 1.31419,-1.63445 2.39647,-4.37327 2.39647,-8.93429 v -42.13142 l -18.06737,31.38598 -18.08945,-31.36389 v 42.10933 c 0,4.56102 1.08227,7.29984 2.39646,8.93429 0.50801,0.66262 1.0381,1.10436 3.55605,1.41359 L 305.11,408.01027 h -20.75097 l -3.57813,-14.89784 c 0.6074,-0.26505 1.28106,-0.66262 1.96576,-1.29211 0.85036,-0.75096 1.63446,-1.84428 2.2529,-3.31308 0.57427,-1.45776 0.94975,-3.30205 0.94975,-5.58808 v -46.99061 c 0,-4.3291 -1.21479,-6.90226 -2.6836,-8.39315 -0.53009,-0.53009 -1.08227,-0.92766 -1.5461,-1.19271 l 4.05301,-14.64384 h 18.84042 l 16.41082,29.92821 16.37769,-29.92821 h 18.86251"
       id="path517"
       style="fill:#ffffff" />
    <path
       d="m 538.4286,326.0666 c -0.55218,0 -1.04914,0.0221 -1.44671,0.0221 h -1.43568 v 26.35009 h 1.43568 c 0.011,0 0.0331,0 0.0331,0 0.47487,0 0.91662,0 1.39149,0 0.48592,0 1.00497,0 1.52402,0 1.51298,0 3.10326,-0.0221 4.6825,-0.15461 2.14246,-0.18775 4.34014,-0.57427 6.29486,-1.41359 2.02099,-0.83931 3.8211,-2.1535 5.09111,-4.1524 1.27002,-2.00994 1.96577,-4.5831 1.96577,-7.84097 0,-3.23578 -0.82827,-5.75373 -2.29708,-7.67532 -1.45775,-1.92159 -3.45665,-3.12534 -5.53285,-3.86527 -2.05411,-0.76201 -4.28493,-1.10436 -6.31695,-1.22584 -0.98288,-0.0663 -1.96577,-0.0883 -2.8603,-0.0883 -0.93871,0 -1.80011,0.0221 -2.52899,0.0442 m 27.86306,-7.8741 c 5.08006,4.49475 8.6582,11.30866 8.6582,20.6847 0,9.28769 -3.19161,15.35063 -6.328,19.10547 -3.1916,3.76587 -6.36112,5.24572 -6.37217,5.25676 l -1.24793,0.56322 7.57593,19.20486 c 2.18664,5.20155 4.85919,7.84097 7.14522,9.13308 0.88349,0.48592 1.65654,0.77305 2.31916,0.93871 l -3.51187,14.6328 h -14.8868 l -16.6317,-40.80619 h -7.46549 v 15.71508 c 0,2.23081 0.36444,4.03092 0.93871,5.48868 0.59636,1.4688 1.3915,2.52899 2.23081,3.31308 0.69575,0.62949 1.3915,1.08228 1.98786,1.34732 l -3.60022,14.94203 h -18.69686 l -3.76587,-15.04142 c 0.47487,-0.28713 0.98288,-0.71783 1.51297,-1.34732 1.29211,-1.62341 2.39647,-4.38432 2.39647,-9.04473 v -46.836 c 0,-2.20872 -0.37548,-3.95361 -0.98288,-5.32302 -0.59636,-1.3915 -1.43567,-2.35229 -2.29708,-3.02596 -0.62948,-0.51905 -1.28106,-0.83931 -1.83324,-1.04914 l 3.69962,-14.64384 31.06571,0.0331 c 6.26173,0 12.96521,2.23081 18.08945,6.7587 z"
       id="path519"
       style="fill:#ffffff" />
    <path
       d="m 610.0244,311.69885 4.04197,14.64384 c -0.46383,0.26505 -1.02706,0.67366 -1.55715,1.19271 -1.45776,1.49089 -2.65047,4.06405 -2.65047,8.39315 v 47.8741 c -0.0331,2.04307 0.34235,3.69962 0.93871,5.05798 0.61844,1.32524 1.41358,2.30812 2.24185,3.02595 0.69575,0.56323 1.38045,0.9608 1.97681,1.22585 l -3.57813,14.89784 h -18.79625 l -3.75483,-14.89784 c 0.46383,-0.22088 0.98288,-0.57427 1.4688,-1.04915 1.45776,-1.42462 2.61734,-3.90944 2.61734,-8.18332 v -48.13915 c 0,-2.08724 -0.38653,-3.78796 -0.99393,-5.13528 -0.62948,-1.35837 -1.45775,-2.33021 -2.31916,-3.037 -0.6847,-0.55218 -1.34732,-0.91662 -1.95472,-1.13749 l 3.76588,-14.73219 h 18.55328"
       id="path521"
       style="fill:#ffffff" />
    <path
       d="m 398.28504,326.36478 c -0.57427,0 -1.04915,0.0221 -1.44672,0.0221 h -1.4688 v 26.35008 h 1.4688 c 0.0111,0 0.0111,0 0.0331,0 0.45279,0 0.92767,0 1.3915,0 0.49696,0 1.00497,0 1.51298,0 1.51297,0 3.1143,-0.0221 4.69354,-0.16565 2.14246,-0.1767 4.35118,-0.56322 6.29486,-1.41358 2.00994,-0.82827 3.78796,-2.14247 5.08007,-4.1524 1.27001,-1.9989 1.96576,-4.57206 1.96576,-7.82993 0,-3.23578 -0.83931,-5.74269 -2.31916,-7.67532 -1.44671,-1.92159 -3.41248,-3.12535 -5.49972,-3.86527 -2.06516,-0.76201 -4.27389,-1.10436 -6.31696,-1.22584 -1.01601,-0.0663 -1.9768,-0.0883 -2.87134,-0.0883 -0.93871,0 -1.77802,0.0221 -2.51794,0.0442 m -2.90448,42.27498 c 0.0331,5.64329 0.0331,10.72336 0,14.2794 0,4.29597 1.52402,6.97957 3.18057,8.59194 0.70679,0.69575 1.42462,1.17063 2.03202,1.50193 l -3.60022,14.99724 h -18.72998 l -3.77692,-15.08558 c 0.46383,-0.30923 0.99393,-0.75097 1.52402,-1.41359 1.29211,-1.63445 2.40751,-4.37327 2.40751,-8.93429 0,-7.77471 0,-41.60132 0,-46.836 0,-2.03203 -0.36444,-3.68857 -0.98288,-5.03589 -0.6074,-1.32524 -1.42463,-2.30812 -2.23081,-3.01491 -0.69575,-0.56322 -1.36941,-0.96079 -1.94368,-1.22584 l 3.74379,-14.76532 31.06571,0.0331 c 6.28382,0 12.99834,2.23081 18.11154,6.75869 5.06902,4.5058 8.64715,11.30867 8.64715,20.68471 0,7.14522 -1.6455,12.40198 -4.08614,16.28934 -2.41855,3.88735 -5.65433,6.48261 -8.94533,8.2275 -6.5047,3.4677 -13.10878,3.51187 -13.29652,3.51187 h -13.10878 v 1.43567 z"
       id="path523"
       style="fill:#ffffff" />
    <path
       d="m 226.00453,363.05169 -0.47487,1.80011 h 17.45996 l -7.36609,-28.36002 -2.80508,0.0221 -6.81392,26.53783 m 24.45058,-51.35284 4.08614,14.83158 c -0.58531,0.38653 -1.25897,1.00497 -1.88846,1.84428 -0.65157,0.91663 -1.19271,2.12038 -1.41358,3.65544 -0.19879,1.50194 -0.0552,3.30205 0.6074,5.3672 l 12.54555,46.09608 c 1.49089,4.62728 3.2137,7.12314 4.6825,8.51463 0.50801,0.46384 1.00497,0.81723 1.41358,1.03811 l -3.60022,14.9641 h -18.69685 l -3.79901,-15.10767 c 0.58532,-0.36444 1.2148,-0.9608 1.76698,-1.87742 1.18167,-2.03202 1.77803,-5.32302 0.5301,-10.72335 l -0.25401,-1.10437 h -24.35118 l -0.28714,1.06019 c -1.42462,5.30094 -0.83931,8.61403 0.40862,10.67918 0.59635,0.97184 1.2921,1.57924 1.86637,1.96577 l -3.76588,15.10767 h -18.71893 l -3.58918,-14.89784 c 0.4307,-0.22088 0.92766,-0.5301 1.44671,-1.00497 1.53507,-1.36941 3.23578,-3.90944 4.64937,-8.63612 l 11.13197,-46.11816 c 0.55218,-2.14246 0.62949,-3.92049 0.41966,-5.44451 -0.23192,-1.51297 -0.75097,-2.69464 -1.3915,-3.60022 -0.56322,-0.83931 -1.22584,-1.41358 -1.75594,-1.77802 l 4.09719,-14.83158 h 33.85974 z"
       id="path525"
       style="fill:#ffffff" />
    <path
       d="m 459.35627,363.05169 -0.47488,1.80011 h 17.43788 l -7.37714,-28.36002 -2.79404,0.0221 -6.79182,26.53783 m 25.48868,-51.35284 4.08614,14.83158 c -0.58532,0.38653 -1.27002,1.00497 -1.87742,1.84428 -0.6847,0.91663 -1.2148,2.12038 -1.41358,3.65544 -0.22088,1.50194 -0.0773,3.30205 0.58531,5.3672 l 12.54555,46.09608 c 1.49089,4.62728 3.2137,7.12314 4.69354,8.51463 0.50801,0.46384 1.00497,0.81723 1.40254,1.03811 l -3.58917,14.9641 H 482.581 l -3.78796,-15.10767 c 0.55218,-0.36444 1.18167,-0.9608 1.73385,-1.87742 1.20375,-2.03202 1.78907,-5.32302 0.55218,-10.72335 l -0.26505,-1.10437 h -24.34014 l -0.27609,1.06019 c -1.44671,5.30094 -0.8614,8.61403 0.39757,10.67918 0.59636,0.97184 1.27002,1.57924 1.85533,1.96577 l -3.77692,15.10767 h -18.69685 l -3.57813,-14.89784 c 0.4307,-0.22088 0.89453,-0.5301 1.42462,-1.00497 1.52402,-1.36941 3.23578,-3.90944 4.64937,-8.63612 l 11.10988,-46.11816 c 0.55218,-2.14246 0.67366,-3.92049 0.4307,-5.44451 -0.22087,-1.51297 -0.71783,-2.69464 -1.36941,-3.60022 -0.59635,-0.83931 -1.22584,-1.41358 -1.77802,-1.77802 l 4.10823,-14.83158 h 33.87079 z"
       id="path527"
       style="fill:#ffffff" />
    <path
       d="m 188.47831,392.73694 c -0.47488,1.70072 -1.65655,5.22364 -4.17449,8.70238 -1.76698,2.41855 -4.11927,4.77084 -7.28879,6.54887 -3.16952,1.77802 -7.20045,2.97073 -12.35782,2.97073 -5.11319,0 -9.61899,-1.57924 -13.52843,-4.36223 -3.90945,-2.78299 -7.25566,-6.79183 -9.98344,-11.66207 -5.45555,-9.78464 -8.3048,-22.86029 -8.32689,-35.86968 0.0221,-12.99834 3.30204,-25.37824 8.8349,-34.4561 5.55494,-9.13308 13.20817,-14.73219 21.92159,-14.73219 5.7979,0 10.06074,2.06516 11.72833,3.04804 0.0773,0.0442 0.14356,0.0773 0.20982,0.12148 0.45279,0.26504 1.02706,0.61844 1.62342,0.91662 0.61844,0.28713 1.35836,0.57427 2.1535,0.73992 0.4307,0.0663 0.86141,0.12148 1.30315,0.12148 0.4307,0 0.88349,-0.0442 1.35837,-0.14357 0.48591,-0.0994 0.97183,-0.26504 1.4688,-0.48592 l 7.53175,13.79349 -4.64937,18.9619 h -9.67421 c -0.22087,-1.8222 -0.73992,-5.23468 -1.8222,-8.66925 -0.79514,-2.49585 -1.92159,-5.12424 -3.53396,-7.12313 -0.81722,-1.02706 -1.77802,-1.91055 -2.92656,-2.54004 -1.14853,-0.65157 -2.44064,-1.02705 -3.87631,-1.02705 -1.42463,0 -2.73882,0.35339 -3.92048,0.98288 -1.15958,0.64053 -2.20873,1.53506 -3.09222,2.60629 -1.78906,2.12038 -3.1143,5.00277 -4.13031,8.13915 -1.98785,6.28383 -2.783,14.03645 -2.783,20.08835 0,6.04086 0.56323,14.36775 2.48482,21.24793 0.98288,3.43457 2.30812,6.60409 4.19658,8.95638 0.9387,1.19271 2.04307,2.18664 3.31308,2.88238 1.29211,0.71784 2.73882,1.10437 4.31806,1.10437 1.8222,0 3.39039,-0.69575 4.62728,-1.65655 1.22584,-0.96079 2.18663,-2.18663 2.92656,-3.37935 0.69574,-1.10436 1.21479,-2.20872 1.57923,-3.08117 l 14.48924,7.25566"
       id="path529"
       style="fill:#ffffff" />
    <rect
       x="104.44768"
       y="284.94031"
       width="540.87244"
       height="149.15515"
       id="rect531"
       style="fill:none;stroke:#d1ac3f;stroke-width:4.05300951" />
    <rect
       x="111.94647"
       y="291.8537"
       width="525.19049"
       height="135.04141"
       id="rect533"
       style="fill:none;stroke:#d1ac3f;stroke-width:2.06515741" />
  </g>
</svg>
