<?xml version="1.0" encoding="UTF-8" standalone="no"?>
<!-- Created with Inkscape (http://www.inkscape.org/) -->
<svg
   xmlns:svg="http://www.w3.org/2000/svg"
   xmlns="http://www.w3.org/2000/svg"
   version="1.0"
   width="800"
   height="167.326"
   viewBox="0 0 800 167.326"
   id="Layer_1"
   xml:space="preserve"><defs
   id="defs22" />
<g
   id="g3">
	<g
   id="g5">
		<g
   id="g7">
			<g
   id="g9">
				<path
   d="M 130.62,151.03 C 93.425,151.03 63.281,120.872 63.281,83.668 C 63.281,46.464 93.425,16.333 130.62,16.333 C 143.73,16.333 155.973,20.072 166.31,26.553 L 130.62,83.668 L 197.807,44.872 C 190.508,33.241 180.041,23.219 167.375,15.614 C 151.268,5.969 128.863,0 104.076,0 C 68.732,0 37.721,12.845 20.427,32.081 C 7.623,46.301 0,64.198 0,83.667 C 0,103.146 7.623,121.061 20.427,135.289 C 37.766,154.553 68.315,167.325 103.083,167.325 C 137.838,167.325 168.377,154.543 185.73,135.289 C 186.678,134.228 187.595,133.159 188.471,132.054 L 185.846,122.229 C 173.663,139.631 153.474,151.03 130.62,151.03"
   style="fill:#ee3124"
   id="path11" />
				<path
   d="M 353.38,163.272 L 325.178,58.068 C 320.647,41.07 305.169,28.575 286.742,28.575 C 281.964,28.575 277.38,29.429 273.133,30.975 L 212.423,53.051 L 274.859,53.051 L 285.533,92.899 C 275.178,83.991 261.703,78.571 246.94,78.571 C 217.632,78.571 193.901,98.212 193.901,122.445 C 193.901,146.67 217.631,166.338 246.94,166.338 C 268.045,166.338 286.702,156.01 298.207,140.145 L 304.396,163.273 L 353.38,163.273 M 267.362,146.93 C 253.843,146.93 242.881,135.982 242.881,122.445 C 242.881,108.917 253.843,97.96 267.362,97.96 C 280.885,97.96 291.847,108.917 291.847,122.445 C 291.847,135.982 280.885,146.93 267.362,146.93 z "
   style="fill:#ee3124"
   id="path13" />
				<path
   d="M 468.355,28.593 C 464.661,28.593 461.155,29.411 458.036,30.876 L 419.056,49.042 C 417.133,37.438 407.052,28.593 394.894,28.593 C 391.208,28.593 387.703,29.411 384.539,30.876 L 336.948,53.051 L 370.409,53.051 L 370.409,163.272 L 419.393,163.272 L 419.393,65.312 C 419.393,58.553 424.863,53.051 431.636,53.051 C 438.382,53.051 443.888,58.553 443.888,65.312 L 443.888,163.272 L 492.854,163.272 L 492.854,53.051 C 492.854,39.533 481.883,28.593 468.355,28.593"
   style="fill:#ee3124"
   id="path15" />
				<path
   d="M 775.515,28.593 C 771.807,28.593 768.292,29.411 765.124,30.876 L 726.18,49.042 C 724.256,37.438 714.175,28.593 702.018,28.593 C 698.337,28.593 694.831,29.411 691.664,30.876 L 644.086,53.051 L 677.538,53.051 L 677.538,163.272 L 726.514,163.272 L 726.514,65.312 C 726.514,58.553 731.988,53.051 738.774,53.051 C 745.53,53.051 750.995,58.553 750.995,65.312 L 750.995,163.272 L 800,163.272 L 800,53.051 C 800,39.533 789.021,28.593 775.515,28.593"
   style="fill:#ee3124"
   id="path17" />
				<path
   d="M 652.009,97.959 C 652.009,136.27 620.962,167.325 582.656,167.325 C 544.328,167.325 513.262,136.269 513.262,97.959 C 513.262,59.658 544.327,28.593 582.656,28.593 C 620.962,28.593 652.009,59.659 652.009,97.959 M 585.528,49.645 C 583.352,41.483 574.957,36.638 566.796,38.832 C 558.651,41.017 553.78,49.412 555.973,57.573 L 579.757,146.274 C 581.955,154.445 590.333,159.281 598.486,157.115 C 606.652,154.913 611.502,146.517 609.313,138.355 L 585.528,49.645 z "
   style="fill:#ee3124"
   id="path19" />
			</g>
		</g>
	</g>
</g>
</svg>