<?xml version="1.0" encoding="UTF-8" standalone="no"?>
<!-- Created with Inkscape (http://www.inkscape.org/) -->

<svg
   xmlns:dc="http://purl.org/dc/elements/1.1/"
   xmlns:cc="http://creativecommons.org/ns#"
   xmlns:rdf="http://www.w3.org/1999/02/22-rdf-syntax-ns#"
   xmlns:svg="http://www.w3.org/2000/svg"
   xmlns="http://www.w3.org/2000/svg"
   xmlns:sodipodi="http://sodipodi.sourceforge.net/DTD/sodipodi-0.dtd"
   xmlns:inkscape="http://www.inkscape.org/namespaces/inkscape"
   width="1000.0001"
   height="145.06219"
   id="svg6382"
   version="1.1"
   inkscape:version="0.48.2 r9819"
   sodipodi:docname="New document 10">
  <defs
     id="defs6384">
    <clipPath
       id="clipPath5979"
       clipPathUnits="userSpaceOnUse">
      <path
         inkscape:connector-curvature="0"
         id="path5981"
         d="m 15.512,732.154 99.988,0 0,26.846 -99.988,0 0,-26.846 z" />
    </clipPath>
  </defs>
  <sodipodi:namedview
     id="base"
     pagecolor="#ffffff"
     bordercolor="#666666"
     borderopacity="1.0"
     inkscape:pageopacity="0.0"
     inkscape:pageshadow="2"
     inkscape:zoom="0.35"
     inkscape:cx="1013.5093"
     inkscape:cy="-485.83275"
     inkscape:document-units="px"
     inkscape:current-layer="layer1"
     showgrid="false"
     fit-margin-left="0.5"
     fit-margin-bottom="0.5"
     fit-margin-top="0.5"
     fit-margin-right="0.5"
     inkscape:window-width="1920"
     inkscape:window-height="1028"
     inkscape:window-x="-8"
     inkscape:window-y="-8"
     inkscape:window-maximized="1" />
  <metadata
     id="metadata6387">
    <rdf:RDF>
      <cc:Work
         rdf:about="">
        <dc:format>image/svg+xml</dc:format>
        <dc:type
           rdf:resource="http://purl.org/dc/dcmitype/StillImage" />
        <dc:title></dc:title>
      </cc:Work>
    </rdf:RDF>
  </metadata>
  <g
     inkscape:label="Layer 1"
     inkscape:groupmode="layer"
     id="layer1"
     transform="translate(638.50931,98.532753)">
    <g
       transform="matrix(11.32095,0,0,-11.32095,-895.22717,8415.2455)"
       id="g5975">
      <g
         clip-path="url(#clipPath5979)"
         id="g5977">
        <path
           id="path5983"
           style="fill:#9c9c9c;fill-opacity:1;fill-rule:nonzero;stroke:none"
           d="m 93.433,746.583 c 0.24,0.032 0.46,0.049 0.629,0.049 0.256,0 0.499,-0.049 0.509,-0.306 0.005,-0.153 -0.266,-1.243 -0.325,-1.499 l -0.544,-2.419 c -0.222,-0.99 -0.459,-2.029 -0.669,-2.848 l 1.398,0 0.785,3.835 c 2.4,2.519 3.324,3.34 3.89,3.34 0.254,0 0.431,-0.134 0.444,-0.443 0.012,-0.442 -0.26,-1.449 -0.353,-1.738 l -0.804,-2.795 c -0.182,-0.63 -0.317,-1.195 -0.302,-1.601 0.022,-0.614 0.389,-0.886 0.936,-0.886 1.024,0 1.765,1.073 2.414,2.129 l -0.282,0.206 c -0.26,-0.425 -0.776,-1.211 -1.254,-1.211 -0.152,0 -0.294,0.102 -0.3,0.357 -0.014,0.328 0.123,0.816 0.217,1.142 l 0.89,3.274 c 0.239,0.902 0.353,1.483 0.345,1.789 -0.02,0.614 -0.371,0.9 -0.916,0.9 -0.919,0 -2.141,-0.678 -4.729,-3.68 l -0.038,0 0.325,1.467 c 0.179,0.8 0.352,1.636 0.519,2.213 -0.892,-0.324 -2.005,-0.662 -2.797,-0.816 l 0.012,-0.459"
           inkscape:connector-curvature="0" />
        <path
           id="path5985"
           style="fill:#9c9c9c;fill-opacity:1;fill-rule:nonzero;stroke:none"
           d="m 106.958,746.475 c -0.021,0.58 -0.309,0.972 -0.904,0.972 -1.432,0 -2.952,-2.83 -3.218,-3.971 2.351,0 4.178,1.413 4.122,2.999 m 0.306,-4.431 0.279,-0.188 c -0.698,-1.432 -2.126,-2.588 -3.796,-2.588 -1.363,0 -2.485,0.918 -2.544,2.64 -0.109,3.084 2.757,5.949 5.105,5.949 1.008,0 1.942,-0.445 1.983,-1.536 0.085,-2.452 -3.331,-3.203 -5.582,-3.254 -0.073,-0.257 -0.101,-0.514 -0.085,-0.907 0.036,-1.017 0.645,-1.873 1.907,-1.873 1.091,0 2.181,0.886 2.733,1.757"
           inkscape:connector-curvature="0" />
        <path
           id="path5987"
           style="fill:#006394;fill-opacity:1;fill-rule:nonzero;stroke:none"
           d="m 40.23,745.174 c -0.156,-0.059 -0.357,-0.115 -0.604,-0.17 -0.244,-0.057 -0.697,-0.137 -1.353,-0.24 -0.451,-0.072 -0.766,-0.168 -0.944,-0.297 -0.169,-0.127 -0.27,-0.281 -0.3,-0.464 -0.036,-0.199 0.03,-0.356 0.199,-0.48 0.172,-0.122 0.464,-0.184 0.872,-0.184 0.308,0 0.607,0.05 0.899,0.144 0.298,0.097 0.543,0.229 0.737,0.392 0.138,0.124 0.241,0.278 0.314,0.465 0.044,0.122 0.105,0.4 0.18,0.834 m 3.763,2.359 c -0.017,-0.353 -0.076,-0.662 -0.171,-1.2 l -0.634,-3.602 c -0.057,-0.32 0.062,-0.571 0.356,-0.743 l -0.019,-0.141 -3.647,0.007 -0.031,0.914 c -0.533,-0.322 -1.17,-0.594 -1.753,-0.754 -0.575,-0.15 -1.043,-0.215 -1.747,-0.215 -1.177,0 -1.853,0.123 -2.315,0.534 -0.476,0.425 -0.704,0.706 -0.681,1.29 0.018,0.336 0.19,0.767 0.439,1.069 0.254,0.307 0.597,0.507 0.973,0.683 0.376,0.18 0.819,0.311 1.461,0.414 0.645,0.104 1.543,0.212 2.747,0.313 0.629,0.052 1.015,0.2 1.196,0.272 0.252,0.099 0.352,0.206 0.388,0.413 0.065,0.368 -0.05,0.583 -0.537,0.68 -1.315,0.261 -3.775,-0.168 -5.044,-0.487 l 0.689,1.874 c 1.675,0.247 3.241,0.404 4.893,0.404 2.624,0 3.462,-0.755 3.437,-1.725"
           inkscape:connector-curvature="0" />
        <path
           id="path5989"
           style="fill:#006394;fill-opacity:1;fill-rule:nonzero;stroke:none"
           d="m 54.559,741.847 1.265,7.198 3.492,0 -1.265,-7.198 -3.492,0 z m 1.46,8.865 c 0.102,0.592 1.03,1.072 2.067,1.072 1.035,0 1.792,-0.48 1.69,-1.072 -0.107,-0.593 -1.032,-1.072 -2.07,-1.072 -1.04,0 -1.793,0.479 -1.687,1.072"
           inkscape:connector-curvature="0" />
        <path
           id="path5991"
           style="fill:#006394;fill-opacity:1;fill-rule:nonzero;stroke:none"
           d="m 71.711,745.156 c -0.156,-0.054 -0.358,-0.111 -0.605,-0.168 -0.243,-0.057 -0.696,-0.134 -1.357,-0.24 -0.449,-0.073 -0.764,-0.167 -0.938,-0.297 -0.168,-0.124 -0.268,-0.279 -0.305,-0.462 -0.033,-0.199 0.037,-0.36 0.202,-0.481 0.175,-0.121 0.467,-0.182 0.877,-0.182 0.305,0 0.6,0.048 0.895,0.139 0.298,0.102 0.545,0.231 0.738,0.395 0.135,0.122 0.239,0.279 0.311,0.467 0.045,0.12 0.105,0.397 0.182,0.829 m 3.764,2.364 c -0.015,-0.355 -0.077,-0.665 -0.174,-1.199 l -0.631,-3.608 c -0.055,-0.319 0.062,-0.565 0.356,-0.742 l -0.023,-0.127 -3.644,-0.006 -0.03,0.917 c -0.53,-0.325 -1.174,-0.597 -1.751,-0.754 -0.58,-0.154 -1.048,-0.216 -1.753,-0.216 -1.176,0 -1.847,0.118 -2.312,0.533 -0.476,0.426 -0.706,0.705 -0.681,1.289 0.015,0.337 0.189,0.771 0.44,1.068 0.254,0.31 0.597,0.506 0.973,0.684 0.375,0.182 0.82,0.312 1.457,0.416 0.648,0.104 1.547,0.212 2.75,0.315 0.627,0.052 1.013,0.198 1.191,0.266 0.256,0.101 0.356,0.209 0.394,0.415 0.064,0.366 -0.051,0.581 -0.535,0.681 -1.32,0.263 -3.778,-0.169 -5.046,-0.485 l 0.688,1.872 c 1.677,0.246 3.241,0.406 4.894,0.406 2.622,0 3.458,-0.758 3.437,-1.725"
           inkscape:connector-curvature="0" />
        <path
           id="path5993"
           style="fill:#006394;fill-opacity:1;fill-rule:nonzero;stroke:none"
           d="m 32.874,744.435 c -1.137,-0.226 -1.778,-0.315 -2.899,-0.315 -1.668,0 -2.992,0.836 -2.921,2.365 0.051,1.019 1.249,3.169 4.293,3.169 0.956,0 1.705,-0.17 2.712,-0.751 l 0.442,2.501 c -1.368,0.522 -2.277,0.601 -3.451,0.588 -3.987,-0.042 -7.817,-1.873 -8.294,-5.586 -0.483,-3.778 4.09,-4.728 6.126,-4.719 1.172,0.003 2.39,0.052 3.529,0.172 l 0.463,2.576"
           inkscape:connector-curvature="0" />
        <path
           id="path5995"
           style="fill:#006394;fill-opacity:1;fill-rule:nonzero;stroke:none"
           d="m 61.239,749.086 0.251,1.466 3.651,0.802 -0.389,-2.268 1.787,0 -0.338,-1.45 -1.734,0.005 -1.055,-5.787 c 0,0 -3.514,0.023 -3.529,0 l 1.052,5.774 -1.329,0 0.27,1.458 1.363,0"
           inkscape:connector-curvature="0" />
        <path
           id="path5997"
           style="fill:#006394;fill-opacity:1;fill-rule:nonzero;stroke:none"
           d="m 79.018,741.854 -3.556,-0.007 1.751,9.944 3.501,0 -1.696,-9.937 z"
           inkscape:connector-curvature="0" />
        <path
           id="path5999"
           style="fill:#006394;fill-opacity:1;fill-rule:nonzero;stroke:none"
           d="m 49.944,747.359 c -0.459,0 -0.874,-0.14 -1.241,-0.42 -0.365,-0.28 -0.596,-0.688 -0.69,-1.23 -0.11,-0.629 -0.045,-1.082 0.202,-1.359 0.248,-0.276 0.608,-0.417 1.079,-0.417 0.319,0 0.646,0.058 0.889,0.178 0.296,0.161 0.503,0.328 0.683,0.594 0.191,0.276 0.316,0.586 0.383,0.948 0.101,0.568 0.016,0.994 -0.245,1.277 -0.256,0.286 -0.607,0.429 -1.06,0.429 m -6.358,-7.996 1.701,9.647 3.063,0 -0.236,-1.231 c 0.264,0.368 0.689,0.668 1.277,0.914 0.591,0.244 1.258,0.426 1.982,0.426 0.797,0 1.293,-0.044 1.892,-0.357 0.596,-0.315 1.009,-0.77 1.235,-1.364 0.23,-0.587 0.279,-1.245 0.154,-1.962 -0.209,-1.187 -0.784,-2.126 -1.725,-2.814 -0.938,-0.688 -1.778,-0.871 -2.981,-0.873 -0.424,0 -0.782,0.043 -1.077,0.117 -0.288,0.076 -0.521,0.167 -0.695,0.282 -0.17,0.113 -0.348,0.27 -0.577,0.522 l -0.571,-3.307 -3.442,0"
           inkscape:connector-curvature="0" />
        <path
           id="path6001"
           style="fill:#9c9c9c;fill-opacity:1;fill-rule:nonzero;stroke:none"
           d="m 83.131,744.074 c 0.077,-2.246 1.486,-4.086 3.326,-4.086 3.564,0 5.08,4.411 4.975,7.36 -0.075,2.252 -1.521,4.09 -3.36,4.09 -3.067,0 -5.044,-4.396 -4.941,-7.364 m -1.88,0.122 c -0.134,3.833 2.848,7.756 7.175,7.756 2.897,0 4.791,-1.943 4.895,-4.924 0.139,-4.042 -2.645,-7.756 -7.176,-7.756 -2.897,0 -4.791,1.941 -4.894,4.924"
           inkscape:connector-curvature="0" />
        <path
           id="path6003"
           style="fill:#9c9c9c;fill-opacity:1;fill-rule:nonzero;stroke:none"
           d="m 108.72,748.309 c 0,0.634 0.518,1.1 1.125,1.1 0.603,0 1.119,-0.466 1.119,-1.1 0,-0.642 -0.516,-1.108 -1.119,-1.108 -0.607,0 -1.125,0.466 -1.125,1.108 m 1.125,-0.925 c 0.5,0 0.892,0.395 0.892,0.925 0,0.524 -0.392,0.918 -0.892,0.918 -0.505,0 -0.9,-0.394 -0.9,-0.918 0,-0.53 0.395,-0.925 0.9,-0.925 m -0.234,0.283 -0.193,0 0,1.276 0.484,0 c 0.303,0 0.453,-0.11 0.453,-0.361 0,-0.231 -0.145,-0.328 -0.332,-0.355 l 0.364,-0.56 -0.218,0 -0.333,0.554 -0.225,0 0,-0.554 z m 0.229,0.717 c 0.166,0 0.31,0.014 0.31,0.21 0,0.158 -0.138,0.186 -0.276,0.186 l -0.263,0 0,-0.396 0.229,0"
           inkscape:connector-curvature="0" />
      </g>
    </g>
  </g>
</svg>
