<?xml version="1.0" encoding="UTF-8" standalone="no"?>
<!-- Created with Inkscape (http://www.inkscape.org/) -->
<svg
   xmlns:dc="http://purl.org/dc/elements/1.1/"
   xmlns:cc="http://web.resource.org/cc/"
   xmlns:rdf="http://www.w3.org/1999/02/22-rdf-syntax-ns#"
   xmlns:svg="http://www.w3.org/2000/svg"
   xmlns="http://www.w3.org/2000/svg"
   xmlns:xlink="http://www.w3.org/1999/xlink"
   xmlns:sodipodi="http://sodipodi.sourceforge.net/DTD/sodipodi-0.dtd"
   xmlns:inkscape="http://www.inkscape.org/namespaces/inkscape"
   width="532.99585"
   height="216"
   id="svg2"
   sodipodi:version="0.32"
   inkscape:version="0.45.1"
   version="1.0"
   inkscape:output_extension="org.inkscape.output.svg.inkscape">
  <g
     inkscape:label="Layer 1"
     inkscape:groupmode="layer"
     id="layer1"
     transform="translate(-232.49785,-466.78075)">
    <g
       id="g4934"
       transform="matrix(21.360726,0,0,21.360726,-4733.8404,-13901.967)">
      <path
         style="fill:#005f2c;fill-rule:nonzero;stroke:none"
         d="M 241.38886,676.62513 C 241.38886,677.00471 241.08613,677.30744 240.70702,677.30744 C 240.52677,677.30744 240.37913,677.15188 240.37913,676.97909 C 240.37913,676.81143 240.46949,676.80817 240.46949,676.69592 C 240.46949,676.61256 240.39823,676.5413 240.3144,676.5413 C 240.17328,676.5413 240.06336,676.65121 240.06336,676.79233 L 240.06336,678.55516 C 240.06336,678.58729 240.09084,678.60546 240.11459,678.61291 L 240.28878,678.66321 C 240.313,678.67159 240.34607,678.69022 240.34607,678.72189 L 240.34607,678.86301 C 240.34607,678.89561 240.32045,678.9217 240.28878,678.9217 L 239.16914,678.9217 C 239.13701,678.9217 239.11139,678.89561 239.11139,678.86301 L 239.11139,678.06846 C 238.79515,678.39541 238.15429,679.01158 237.82082,679.01158 C 237.45242,679.01158 237.499,678.61291 237.22048,678.61291 C 236.97783,678.61291 236.96386,679.01158 236.28714,679.01158 C 235.56058,679.01158 234.96863,678.33021 234.96863,677.48023 C 234.96863,676.63817 235.56058,675.94934 236.28714,675.94934 C 236.88189,675.94934 237.01649,676.27117 237.16273,676.27117 C 237.25309,676.27117 237.29128,676.20084 237.31037,676.09791 C 237.31643,676.06484 237.34251,676.03969 237.38116,676.03969 L 238.31358,676.03969 C 238.34571,676.03969 238.37226,676.06484 238.37226,676.09791 L 238.37226,676.23857 C 238.37226,676.27117 238.33966,676.29026 238.31358,676.29725 L 238.14079,676.34801 C 238.1147,676.3564 238.08816,676.3741 238.08816,676.40716 L 238.08816,677.96367 C 238.08816,678.06613 238.18503,678.14996 238.28749,678.14996 C 238.47519,678.14996 238.87479,677.81929 239.11139,677.60784 L 239.11139,676.51009 C 239.11139,676.4379 239.05783,676.40716 239.00054,676.40716 C 238.92928,676.40716 238.92602,676.47097 238.83474,676.47097 C 238.75137,676.47097 238.70061,676.39971 238.70061,676.33591 C 238.70061,676.21342 238.91857,675.94934 239.26043,675.94934 C 239.84866,675.94934 239.75784,676.38714 239.96695,676.38714 C 240.15744,676.38714 240.18818,675.94934 240.70702,675.94934 C 241.08613,675.94934 241.38886,676.24602 241.38886,676.62513 M 237.13665,677.01169 C 237.13665,676.81795 236.87304,676.62513 236.62853,676.62513 C 236.17816,676.62513 235.88847,676.97909 235.88847,677.48023 C 235.88847,677.98183 236.17816,678.34231 236.62853,678.34231 C 236.87304,678.34231 237.13665,678.14996 237.13665,677.95715 L 237.13665,677.01169 z "
         id="path3529" />
      <path
         style="fill:#005f2c;fill-rule:nonzero;stroke:none"
         d="M 241.68358,677.96013 C 241.68358,678.70951 242.25225,678.92142 242.63322,678.92142 L 244.58701,678.92142 C 245.03039,678.92142 245.45235,678.59913 245.45235,678.07796 C 245.45235,677.2904 244.23677,677.36119 244.23677,676.90895 C 244.23677,676.72545 244.41561,676.66071 244.63731,676.66071 C 244.80357,676.66071 245.03225,676.73523 245.1608,676.82838 C 245.20551,676.86238 245.23951,676.82931 245.25208,676.80556 L 245.55109,676.11813 C 245.5632,676.08832 245.54923,676.04035 245.49846,676.04035 L 244.09565,676.04035 C 243.71281,676.04035 243.37329,676.37056 243.37329,676.77994 C 243.37329,677.59033 244.42819,677.44735 244.42819,677.99785 C 244.42819,678.21023 244.25866,678.39234 244.02206,678.39234 C 243.55586,678.39234 243.36025,678.08169 243.33836,677.90098 C 243.33463,677.86698 243.28992,677.8423 243.25918,677.85441 L 243.0659,677.93172 C 243.02864,677.94569 243.02258,677.99785 243.04214,678.02207 C 243.07521,678.06352 243.09384,678.10311 243.09384,678.16738 C 243.09384,678.29174 242.99604,678.39699 242.86283,678.39699 C 242.7301,678.39699 242.63509,678.28475 242.63509,678.16738 L 242.63509,674.12988 C 242.63509,674.09728 242.60947,674.0712 242.57734,674.0712 L 241.4577,674.0712 C 241.42556,674.0712 241.39994,674.09728 241.39994,674.12988 L 241.39994,674.27053 C 241.39994,674.30314 241.43301,674.3213 241.4577,674.32829 L 241.63095,674.37998 C 241.6561,674.38744 241.68358,674.4056 241.68358,674.4382 L 241.68358,677.96013 z "
         id="path3533" />
      <path
         style="fill:#005f2c;fill-rule:nonzero;stroke:none"
         d="M 257.45071,676.09787 L 257.45071,676.23852 C 257.45071,676.27159 257.41811,676.29022 257.39296,676.29721 L 257.22017,676.34797 C 257.19316,676.35636 257.16754,676.37405 257.16754,676.40712 L 257.16754,679.3655 C 257.16754,680.08647 256.56021,680.66492 255.84297,680.66492 C 255.35302,680.66492 254.92314,680.43997 254.70424,680.06691 C 254.40849,680.59413 253.44953,681.72634 250.65835,681.72634 C 249.12141,681.72634 246.50907,680.96719 245.15144,680.96719 C 243.28754,680.96719 242.05799,681.47298 240.77767,682.75516 C 240.74879,682.78404 240.72504,682.79289 240.68592,682.77146 L 238.30133,681.46879 C 238.27105,681.45202 238.25708,681.40591 238.28782,681.37843 C 239.86482,680.04129 242.14741,679.35293 243.7626,679.35293 C 246.92079,679.35293 249.12141,680.91502 251.71279,680.91502 C 253.90037,680.91502 254.53704,679.82146 254.53704,679.45539 C 254.53704,679.4172 254.56871,679.39764 254.59526,679.39764 L 254.81369,679.39764 C 254.83884,679.39764 254.87144,679.4172 254.87144,679.45539 C 254.87144,679.82146 255.17371,680.09858 255.55282,680.09858 C 255.93333,680.09858 256.21603,679.80283 256.21603,679.40416 L 256.21603,678.83829 C 256.21603,678.77401 256.18343,678.73536 256.1159,678.73536 C 256.01623,678.73536 255.92029,679.01154 255.36699,679.01154 C 254.63997,679.01154 254.04754,678.33016 254.04754,677.48019 C 254.04754,676.63813 254.63997,675.9493 255.36699,675.9493 C 255.96081,675.9493 256.09587,676.27159 256.24165,676.27159 C 256.332,676.27159 256.36973,676.2008 256.38975,676.09787 C 256.39627,676.0648 256.42142,676.03965 256.46055,676.03965 L 257.39296,676.03965 C 257.42509,676.03965 257.45071,676.0648 257.45071,676.09787 M 256.21603,677.01165 C 256.21603,676.8179 255.95196,676.62509 255.70744,676.62509 C 255.258,676.62509 254.96785,676.97905 254.96785,677.48019 C 254.96785,677.98179 255.258,678.34227 255.70744,678.34227 C 255.95196,678.34227 256.21603,678.14992 256.21603,677.95711 L 256.21603,677.01165 z "
         id="path3537" />
      <path
         style="fill:#005f2c;fill-rule:nonzero;stroke:none"
         d="M 254.30468,675.88549 C 254.30468,676.47745 253.93255,676.79229 253.62377,676.79229 C 253.2577,676.79229 253.30846,676.54172 253.07047,676.54172 C 252.92842,676.54172 252.79987,676.65117 252.79987,676.79229 L 252.79987,678.55511 C 252.79987,678.58725 252.82782,678.60588 252.85204,678.61287 L 253.02483,678.66317 C 253.04951,678.67155 253.08351,678.69018 253.08351,678.72185 L 253.08351,678.86297 C 253.08351,678.89557 253.05743,678.92165 253.02483,678.92165 L 251.90565,678.92165 C 251.87398,678.92165 251.84837,678.89557 251.84837,678.86297 L 251.84837,676.8179 C 251.84837,676.65676 251.74544,676.5869 251.61643,676.5869 C 251.49813,676.5869 251.3137,676.69215 251.14743,676.80626 C 251.13392,677.43967 250.56525,677.91798 249.68034,677.91798 C 249.68034,678.04001 249.95606,678.49084 250.50284,678.49084 C 250.8256,678.49084 251.06639,678.37394 251.23452,678.15597 C 251.31043,678.05584 251.49301,678.09543 251.40824,678.2943 C 251.32394,678.48758 250.94064,679.01154 250.16285,679.01154 C 249.43071,679.01154 248.81546,678.50202 248.66689,677.80713 C 248.48898,677.75544 248.31246,677.67114 248.18159,677.58684 L 248.18159,678.12384 C 248.18159,678.58026 247.86628,678.92165 247.37167,678.92165 L 246.90779,678.92165 C 246.22641,678.92165 245.80119,678.543 245.80119,677.95058 L 245.80119,674.43843 C 245.80119,674.40583 245.77604,674.38813 245.74949,674.37975 L 245.57624,674.32805 C 245.55109,674.32107 245.51849,674.3029 245.51849,674.27077 L 245.51849,674.12965 C 245.51849,674.09705 245.54457,674.07097 245.57624,674.07097 L 246.69588,674.07097 C 246.72755,674.07097 246.75363,674.09705 246.75363,674.12965 L 246.75363,678.03348 C 246.75363,678.31712 247.02981,678.43961 247.22869,678.43961 C 247.44805,678.43961 247.7056,678.35578 247.7056,678.05351 L 247.7056,677.28178 L 247.31951,677.04938 C 247.26734,677.01864 247.22869,676.97905 247.22869,676.90127 L 247.22869,676.09787 C 247.22869,676.0648 247.2557,676.03965 247.28737,676.03965 L 248.12337,676.03965 C 248.15644,676.03965 248.18159,676.0648 248.18159,676.09787 L 248.18159,677.18956 C 248.30408,677.27107 248.47501,677.36468 248.63289,677.43268 C 248.65851,676.60552 249.32265,675.9493 250.16285,675.9493 C 250.63185,675.9493 250.93039,676.16866 251.06452,676.43832 C 251.34117,676.22455 251.7636,675.9493 252.10592,675.9493 C 252.48876,675.9493 252.49016,676.2646 252.67785,676.2646 C 252.74212,676.2646 252.79335,676.20732 252.79335,676.14304 C 252.79335,676.0634 252.75516,676.00425 252.75516,675.93067 C 252.75516,675.78955 252.89675,675.66054 253.05091,675.66054 C 253.32942,675.66054 253.48684,675.9493 253.7267,675.9493 C 253.82916,675.9493 253.95118,675.84637 253.95118,675.69267 C 253.95118,675.54503 253.78119,675.31356 253.61725,675.17803 C 253.505,675.08442 253.62703,674.91349 253.76908,674.99453 C 254.1249,675.20039 254.30468,675.52175 254.30468,675.88549 M 250.58714,676.8179 C 250.58714,676.735 250.56199,676.52216 250.29139,676.52216 C 249.96957,676.52216 249.62865,676.90872 249.62865,677.55796 C 250.25227,677.55796 250.58714,677.06335 250.58714,676.8179"
         id="path3541" />
      <path
         style="fill:#005f2c;fill-rule:nonzero;stroke:none"
         d="M 253.01141,673.24651 C 252.93875,673.24651 252.87961,673.18829 252.87961,673.11517 L 252.87961,672.84737 C 252.87961,672.7505 252.80043,672.67132 252.70356,672.67132 C 252.66304,672.67132 252.62531,672.68716 252.59644,672.71044 C 252.4814,672.8008 252.32584,672.82595 252.18565,672.77145 C 252.06689,672.72442 251.92903,672.76959 251.86196,672.88463 C 251.79536,672.99874 251.82657,673.14125 251.92717,673.22136 C 252.04453,673.31451 252.09949,673.46215 252.07807,673.60606 C 252.07387,673.64425 252.07807,673.68337 252.09809,673.7197 C 252.147,673.80307 252.25458,673.83195 252.33795,673.78397 L 252.57035,673.64938 C 252.63463,673.61305 252.71427,673.63494 252.7506,673.69874 C 252.78785,673.76115 252.7655,673.84173 252.70262,673.87759 L 252.47069,674.01172 C 252.38592,674.06062 252.35751,674.16821 252.40641,674.25251 C 252.42644,674.28791 252.45904,674.31119 252.49444,674.3261 C 252.6295,674.37966 252.72917,674.50168 252.75199,674.65025 C 252.77016,674.77693 252.87961,674.87427 253.01141,674.87427 C 253.14321,674.87427 253.2522,674.77693 253.27129,674.65025 C 253.29272,674.50168 253.39332,674.37966 253.52838,674.3261 C 253.56331,674.31119 253.59545,674.28791 253.61641,674.25251 C 253.66531,674.16821 253.63597,674.06062 253.55213,674.01172 L 253.31926,673.87759 C 253.25639,673.84173 253.23497,673.76115 253.27222,673.69874 C 253.30855,673.63494 253.38819,673.61305 253.45153,673.64938 L 253.6844,673.78397 C 253.76824,673.83195 253.87582,673.80307 253.9238,673.7197 C 253.94475,673.68337 253.94988,673.64425 253.94382,673.60606 C 253.92333,673.46215 253.97829,673.31451 254.09565,673.22136 C 254.19579,673.14125 254.22699,672.99874 254.16039,672.88463 C 254.09426,672.76959 253.955,672.72442 253.83624,672.77145 C 253.69605,672.82595 253.54142,672.8008 253.42592,672.71044 C 253.39658,672.68716 253.36025,672.67132 253.3188,672.67132 C 253.22192,672.67132 253.14321,672.7505 253.14321,672.84737 L 253.14321,673.11517 C 253.14321,673.18829 253.08407,673.24651 253.01141,673.24651"
         id="path3545" />
      <path
         style="fill:#005f2c;fill-rule:nonzero;stroke:none"
         d="M 239.27649,679.50643 C 238.56996,680.21016 237.55698,680.68615 236.48065,680.68615 C 234.328,680.68615 232.49857,678.9182 232.49857,676.63281 C 232.49857,675.08888 233.24934,673.74895 234.39553,672.72292 C 234.42906,672.69265 234.47657,672.67169 234.52687,672.67169 L 239.49585,672.67169 C 239.53963,672.67169 239.56944,672.72152 239.53451,672.76018 L 237.87741,674.94171 C 237.85365,674.97245 237.80987,674.97245 237.78333,674.9459 C 237.47268,674.63432 236.94406,674.43778 236.45131,674.43778 C 235.10206,674.43778 234.0262,675.78377 234.0262,677.12324 C 234.0262,678.73982 235.39082,680.08022 237.01672,680.08022 C 237.78659,680.08022 238.54435,679.78168 239.06877,679.29778 C 239.24063,679.13943 239.43903,679.34435 239.27649,679.50643"
         id="path3549" />
    </g>
  </g>
</svg>
