<?xml version="1.0" encoding="utf-8"?>
<!-- Generator: Adobe Illustrator 13.0.0, SVG Export Plug-In . SVG Version: 6.00 Build 14948)  -->
<!DOCTYPE svg PUBLIC "-//W3C//DTD SVG 1.1//EN" "http://www.w3.org/Graphics/SVG/1.1/DTD/svg11.dtd">
<svg version="1.1" id="Layer_1" xmlns="http://www.w3.org/2000/svg" xmlns:xlink="http://www.w3.org/1999/xlink" x="0px" y="0px"
	 width="300px" height="60px" viewBox="0 0 300 60" enable-background="new 0 0 300 60" xml:space="preserve">
<path fill="#1C3DA6" d="M274.27,41.909c-1.459,1.478-6.644,1.554-13.46,1.554c-6.82,0-12.003-0.076-13.465-1.554
	c-1.467-1.477-1.646-3.621-1.646-11.108c0-7.475,0.18-9.616,1.646-11.099c1.462-1.472,6.645-1.546,13.465-1.546
	c6.816,0,12.001,0.074,13.46,1.546c1.47,1.482,1.652,3.624,1.652,11.099C275.922,38.288,275.739,40.433,274.27,41.909
	 M287.442,9.178c-4.982-5.034-13.804-5.195-26.638-5.195c-12.829,0-21.647,0.162-26.644,5.195
	c-4.521,4.575-5.387,8.944-5.387,21.687c0,12.741,0.866,17.101,5.387,21.671c4.996,5.041,13.814,5.2,26.644,5.2
	c12.834,0,21.655-0.159,26.638-5.2c4.523-4.57,5.391-8.93,5.391-21.671C292.833,18.123,291.966,13.753,287.442,9.178z"/>
<path fill="#1C3DA6" d="M53.237,36.645c-0.167,2.998-0.577,4.262-1.567,5.252c-1.469,1.472-5.99,1.554-12.87,1.554
	c-6.883,0-12.301-0.082-13.771-1.554c-1.49-1.487-1.669-3.719-1.669-11.193c0-7.478,0.18-9.793,1.669-11.278
	c1.469-1.475,6.888-1.559,13.771-1.559c6.88,0,11.229,0.084,12.698,1.559c0.887,0.882,0.962,2.062,1.157,4.447h16.939
	c0.262-7.108-0.826-11.419-4.68-15.278C60.807,4.488,54.56,3.875,38.8,3.875c-15.994,0-22.422,0.713-26.997,5.288
	C7.23,13.732,6.62,18.02,6.62,30.76c0,12.747,0.61,16.932,5.183,21.507c4.11,4.11,10.772,5.257,26.997,5.257
	c12.649,0,22.035-0.151,26.761-4.875c3.79-3.787,4.736-7.588,4.952-16.004H53.237"/>
<path fill="#1C3DA6" d="M95.55,36.312l7.383-19.738h2.536l7.385,19.738H95.55 M92.147,4.973L70.061,56.759h17.84l3.447-9.224h25.707
	l3.449,9.224h17.847L116.254,4.973H92.147z"/>
<path fill="#1C3DA6" d="M180.911,25.221l-19.725-0.92c-3.396-0.311-6.569,0.513-6.569-3.808c0-4.306,2.666-4.101,12.016-4.101
	c9.662,0,12.335-0.356,12.335,4.719h16.642c0-4.444-0.566-8.583-4.407-12.43c-4.312-4.311-10.84-4.344-24.667-4.344
	c-12.437,0-19.521,0.136-23.729,4.344c-3.354,3.357-4.247,8.657-4.247,11.804c0,9.896,4.733,15.048,14.578,15.52l22.438,1.038
	c4.428,0.279,5.521,1.129,5.521,4.17c0,3.839-2.402,4.311-8.19,4.311h-9.452c-6.646,0-8.326-1.192-8.326-4.803H138.49
	c0,3.185,0.233,8.588,3.18,11.531c4.105,4.11,6.572,5.462,26.4,5.462c19.843,0,21.586-1.046,26.005-5.465
	c3.405-3.41,3.6-7.656,3.6-10.787C197.674,29.439,192.535,25.733,180.911,25.221"/>
<rect x="204.136" y="5.322" fill="#1C3DA6" width="16.879" height="51.26"/>
</svg>
