<?xml version="1.0" encoding="UTF-8" standalone="no"?>
<!-- Created with Inkscape (http://www.inkscape.org/) -->

<svg
   xmlns:dc="http://purl.org/dc/elements/1.1/"
   xmlns:cc="http://creativecommons.org/ns#"
   xmlns:rdf="http://www.w3.org/1999/02/22-rdf-syntax-ns#"
   xmlns:svg="http://www.w3.org/2000/svg"
   xmlns="http://www.w3.org/2000/svg"
   xmlns:sodipodi="http://sodipodi.sourceforge.net/DTD/sodipodi-0.dtd"
   xmlns:inkscape="http://www.inkscape.org/namespaces/inkscape"
   width="200.94008"
   height="54.687969"
   id="svg2"
   version="1.1"
   inkscape:version="0.47 r22583"
   sodipodi:docname="Cemex_logo.svg">
  <defs
     id="defs4">
    <inkscape:perspective
       sodipodi:type="inkscape:persp3d"
       inkscape:vp_x="0 : 526.18109 : 1"
       inkscape:vp_y="0 : 1000 : 0"
       inkscape:vp_z="744.09448 : 526.18109 : 1"
       inkscape:persp3d-origin="372.04724 : 350.78739 : 1"
       id="perspective10" />
    <inkscape:perspective
       id="perspective2824"
       inkscape:persp3d-origin="0.5 : 0.33333333 : 1"
       inkscape:vp_z="1 : 0.5 : 1"
       inkscape:vp_y="0 : 1000 : 0"
       inkscape:vp_x="0 : 0.5 : 1"
       sodipodi:type="inkscape:persp3d" />
    <inkscape:perspective
       id="perspective2852"
       inkscape:persp3d-origin="0.5 : 0.33333333 : 1"
       inkscape:vp_z="1 : 0.5 : 1"
       inkscape:vp_y="0 : 1000 : 0"
       inkscape:vp_x="0 : 0.5 : 1"
       sodipodi:type="inkscape:persp3d" />
    <inkscape:perspective
       id="perspective2874"
       inkscape:persp3d-origin="0.5 : 0.33333333 : 1"
       inkscape:vp_z="1 : 0.5 : 1"
       inkscape:vp_y="0 : 1000 : 0"
       inkscape:vp_x="0 : 0.5 : 1"
       sodipodi:type="inkscape:persp3d" />
    <inkscape:perspective
       id="perspective2896"
       inkscape:persp3d-origin="0.5 : 0.33333333 : 1"
       inkscape:vp_z="1 : 0.5 : 1"
       inkscape:vp_y="0 : 1000 : 0"
       inkscape:vp_x="0 : 0.5 : 1"
       sodipodi:type="inkscape:persp3d" />
    <inkscape:perspective
       id="perspective2918"
       inkscape:persp3d-origin="0.5 : 0.33333333 : 1"
       inkscape:vp_z="1 : 0.5 : 1"
       inkscape:vp_y="0 : 1000 : 0"
       inkscape:vp_x="0 : 0.5 : 1"
       sodipodi:type="inkscape:persp3d" />
    <inkscape:perspective
       id="perspective2940"
       inkscape:persp3d-origin="0.5 : 0.33333333 : 1"
       inkscape:vp_z="1 : 0.5 : 1"
       inkscape:vp_y="0 : 1000 : 0"
       inkscape:vp_x="0 : 0.5 : 1"
       sodipodi:type="inkscape:persp3d" />
    <inkscape:perspective
       id="perspective2940-4"
       inkscape:persp3d-origin="0.5 : 0.33333333 : 1"
       inkscape:vp_z="1 : 0.5 : 1"
       inkscape:vp_y="0 : 1000 : 0"
       inkscape:vp_x="0 : 0.5 : 1"
       sodipodi:type="inkscape:persp3d" />
    <inkscape:perspective
       id="perspective2971"
       inkscape:persp3d-origin="0.5 : 0.33333333 : 1"
       inkscape:vp_z="1 : 0.5 : 1"
       inkscape:vp_y="0 : 1000 : 0"
       inkscape:vp_x="0 : 0.5 : 1"
       sodipodi:type="inkscape:persp3d" />
    <inkscape:perspective
       id="perspective2878"
       inkscape:persp3d-origin="0.5 : 0.33333333 : 1"
       inkscape:vp_z="1 : 0.5 : 1"
       inkscape:vp_y="0 : 1000 : 0"
       inkscape:vp_x="0 : 0.5 : 1"
       sodipodi:type="inkscape:persp3d" />
    <inkscape:perspective
       id="perspective2907"
       inkscape:persp3d-origin="0.5 : 0.33333333 : 1"
       inkscape:vp_z="1 : 0.5 : 1"
       inkscape:vp_y="0 : 1000 : 0"
       inkscape:vp_x="0 : 0.5 : 1"
       sodipodi:type="inkscape:persp3d" />
  </defs>
  <sodipodi:namedview
     id="base"
     pagecolor="#ffffff"
     bordercolor="#666666"
     borderopacity="1.0"
     inkscape:pageopacity="0.0"
     inkscape:pageshadow="2"
     inkscape:zoom="1.4142136"
     inkscape:cx="379.49911"
     inkscape:cy="101.92596"
     inkscape:document-units="px"
     inkscape:current-layer="layer1"
     showgrid="false"
     inkscape:window-width="1280"
     inkscape:window-height="714"
     inkscape:window-x="-4"
     inkscape:window-y="-4"
     inkscape:window-maximized="1" />
  <metadata
     id="metadata7">
    <rdf:RDF>
      <cc:Work
         rdf:about="">
        <dc:format>image/svg+xml</dc:format>
        <dc:type
           rdf:resource="http://purl.org/dc/dcmitype/StillImage" />
        <dc:title />
      </cc:Work>
    </rdf:RDF>
  </metadata>
  <g
     inkscape:label="Layer 1"
     inkscape:groupmode="layer"
     id="layer1"
     transform="translate(471.61508,-127.2739)">
    <text
       xml:space="preserve"
       style="font-size:6.83537006px;font-style:normal;font-variant:normal;font-weight:normal;font-stretch:normal;text-align:start;line-height:100%;writing-mode:lr-tb;text-anchor:start;fill:#000000;fill-opacity:1;stroke:none;font-family:Arial;-inkscape-font-specification:Arial"
       x="-306.40393"
       y="154.02484"
       id="text2834"
       sodipodi:linespacing="100%"><tspan
         sodipodi:role="line"
         id="tspan2836"
         x="-306.40393"
         y="154.02484" /></text>
    <path
       style="fill:#293064;fill-opacity:1"
       d="m -399.69329,127.2779 20.14157,-0.004 -0.12532,0.16378 -45.78858,54.41665 -19.78427,0.0346 45.5566,-54.61115 z m 47.67671,43.77479 0,-10.69919 11.94481,0.0189 11.94481,0.0189 0.47847,0.16034 c 1.03122,0.34558 1.84186,1.0125 2.30527,1.89657 0.49209,0.93878 0.46306,0.29325 0.46306,10.29529 l 0,9.00833 -2.69997,0 -2.69998,0 0,-7.61284 c 0,-8.19143 0.0126,-7.88422 -0.34479,-8.38618 -0.0784,-0.11015 -0.28671,-0.28499 -0.46283,-0.38852 l -0.32021,-0.18823 -2.23859,-0.0205 -2.23858,-0.0205 0,8.30844 0,8.30843 -2.63076,0 -2.63075,0 -0.0179,-7.74643 -0.0179,-7.74644 -0.20686,-0.33458 c -0.12812,-0.20721 -0.3342,-0.41334 -0.5413,-0.54145 l -0.33442,-0.20687 -2.17577,-0.0206 -2.17577,-0.0206 0,8.30853 0,8.30853 -2.69997,0 -2.69997,0 0,-10.69919 z m -46.86462,10.15395 c -1.58984,-0.41683 -2.79717,-1.58586 -3.28423,-3.18004 -0.11789,-0.38587 -0.1253,-0.81016 -0.1253,-7.17713 l 0,-6.76702 0.19301,-0.54617 c 0.27042,-0.76524 0.60434,-1.28845 1.18762,-1.86083 0.3679,-0.36102 0.65308,-0.5668 1.06471,-0.7683 1.13003,-0.55314 0.28047,-0.51007 10.52478,-0.53364 l 9.1423,-0.0211 0,2.36056 0,2.36056 -7.9758,0 c -7.95792,0 -7.97647,3.4e-4 -8.27176,0.14327 -0.20553,0.0995 -0.3531,0.24048 -0.48297,0.46139 l -0.18701,0.31811 0,4.98982 c 0,4.92791 0.002,4.99322 0.1428,5.26324 0.0785,0.15038 0.27342,0.36569 0.43308,0.47847 l 0.29028,0.20506 8.0257,0.0182 8.02568,0.0182 0,2.18621 0,2.18622 -9.10813,-0.004 c -8.66497,-0.004 -9.1318,-0.01 -9.59476,-0.13136 l 0,1e-5 z m 24.12885,0 c -0.63781,-0.16722 -1.33633,-0.52671 -1.80321,-0.92798 -0.60138,-0.51688 -0.90074,-0.91103 -1.23586,-1.62717 -0.40719,-0.87015 -0.40226,-0.7748 -0.40226,-7.76785 0,-7.20699 -0.0197,-6.90357 0.51983,-7.99655 0.42772,-0.86646 1.09661,-1.54452 1.94027,-1.96688 1.14049,-0.57096 0.24553,-0.52886 11.24245,-0.52886 l 9.77458,0 0.018,2.34034 0.018,2.34035 -8.73809,0.0179 -8.73811,0.0178 -0.24767,0.16971 c -0.13621,0.0933 -0.31851,0.29327 -0.4051,0.4443 l -0.15743,0.27459 0,4.98982 c 0,4.9279 0.002,4.99321 0.14279,5.26323 0.0785,0.15038 0.27342,0.36569 0.43309,0.47848 l 0.29028,0.20506 8.70923,0.0181 8.70922,0.0181 0,2.18629 0,2.1863 -9.79166,-0.004 c -9.33226,-0.004 -9.81451,-0.01 -10.27831,-0.13136 l 0,1e-5 z m 56.02402,0.0288 c -0.65864,-0.14146 -1.47115,-0.57119 -2.00516,-1.06051 -0.69339,-0.63535 -1.13325,-1.34831 -1.38944,-2.25205 -0.11799,-0.41623 -0.12562,-0.84359 -0.12562,-7.03926 0,-7.36959 -0.0281,-6.91167 0.49041,-7.99522 0.34503,-0.72107 1.27333,-1.64765 2.00451,-2.00081 1.09681,-0.52975 0.18096,-0.48767 11.15874,-0.51278 l 9.82584,-0.0225 0,2.36061 0,2.36062 -8.64946,0 c -8.3526,0 -8.65817,0.004 -8.90307,0.12943 -0.31325,0.15987 -0.4571,0.31515 -0.59277,0.63985 -0.0913,0.21855 -0.10513,0.8993 -0.10513,5.17749 0,3.98254 0.0177,4.96818 0.0923,5.14688 0.12207,0.29215 0.52438,0.63821 0.84565,0.72743 0.17378,0.0483 3.04597,0.0718 8.78532,0.0721 l 8.52712,3.4e-4 0,2.18732 0,2.18732 -9.75749,-0.005 c -8.07724,-0.005 -9.834,-0.0219 -10.20179,-0.10085 l 0,-3e-5 z m 22.35233,-2.47406 6.9e-4,-2.512 0.16667,-0.35799 c 0.32134,-0.69019 0.58045,-0.88643 3.99497,-3.02551 1.7703,-1.10904 3.21872,-2.03182 3.21872,-2.05061 -2e-5,-0.0333 -4.25825,-2.77524 -5.77186,-3.71665 -0.90168,-0.56081 -1.14652,-0.78083 -1.3717,-1.23272 l -0.16978,-0.34071 0,-2.58402 0,-2.58402 2.63161,0 2.63162,0 0.003,1.58922 0.003,1.58923 3.70166,2.32158 c 2.03591,1.27687 3.74945,2.32158 3.80788,2.32158 0.0584,0 1.78899,-1.06009 3.84573,-2.35576 l 3.73954,-2.35576 0.003,-1.55504 0.003,-1.55505 2.63162,0 2.63162,0 0,2.45817 c 0,2.34874 -0.007,2.47578 -0.14723,2.85377 -0.25526,0.68584 -0.63446,0.9759 -4.0907,3.12912 -1.71055,1.06566 -3.10739,1.96314 -3.1041,1.9944 0.006,0.0534 5.08167,3.34291 6.04331,3.91629 0.54175,0.32302 0.90394,0.68779 1.08842,1.09619 0.13171,0.29157 0.13902,0.44195 0.14044,2.88794 l 10e-4,2.58035 -1.34999,-2e-4 c -0.74249,-1.4e-4 -1.92672,-0.0203 -2.63161,-0.045 l -1.28164,-0.0448 0,-1.55235 0,-1.55235 -3.71595,-2.333 c -2.04377,-1.28314 -3.75545,-2.33299 -3.80372,-2.33299 -0.0483,0 -1.77471,1.06888 -3.83653,2.37529 l -3.74875,2.37529 -6.9e-4,1.55504 -6.8e-4,1.55505 -2.63162,0 -2.63162,0 6.9e-4,-2.512 0,0 0,0 0,0 0,0 0,0 z m -71.63535,-7.74105 0,-2.11897 6.66449,0 6.66449,0 0,2.11897 0,2.11896 -6.66449,0 -6.66449,0 0,-2.11896 z m 55.91333,0 0,-2.11897 6.66449,0 6.66448,0 0,2.11897 0,2.11896 -6.66448,0 -6.66449,0 0,-2.11896 z"
       id="path2884"
       sodipodi:nodetypes="cccccccccccscccccscccccccccccccccccccccscccsscccccscccsccccccccccsssssccccccccccsccccccccccssssscccccsssssccccccccccssscccccccccscccccccsssssccccccccscccccccccccccccccccccccccccccc" />
    <path
       style="fill:#df343d;fill-opacity:1"
       d="m -471.6055,181.84225 45.4664,-54.49499 20.16591,0 -0.17379,0.18798 -45.80667,54.42663 -9.87711,0 c -9.4002,0 -9.87217,-0.006 -9.77474,-0.11962 z"
       id="path2884-1"
       sodipodi:nodetypes="ccccccc" />
  </g>
</svg>
