<?xml version="1.0" encoding="UTF-8" standalone="no"?>
<svg
   xmlns:dc="http://purl.org/dc/elements/1.1/"
   xmlns:cc="http://creativecommons.org/ns#"
   xmlns:rdf="http://www.w3.org/1999/02/22-rdf-syntax-ns#"
   xmlns:svg="http://www.w3.org/2000/svg"
   xmlns="http://www.w3.org/2000/svg"
   xmlns:sodipodi="http://sodipodi.sourceforge.net/DTD/sodipodi-0.dtd"
   xmlns:inkscape="http://www.inkscape.org/namespaces/inkscape"
   version="1.1"
   id="Layer_1"
   x="0px"
   y="0px"
   width="856"
   height="104"
   viewBox="0 0 856 104"
   enable-background="new 0 0 595.276 841.89"
   xml:space="preserve">
		<rect
   height="104"
   width="855.99609"
   y="-6.7064093e-06"
   x="4.9012756e-06"
   id="use11"
   style="fill:none" /><path
   clip-path="none"
   d="m 804.77987,93.447276 c 22.43664,0 40.62108,-18.40867 40.62108,-41.115996 0,-22.707326 -18.18444,-41.118016 -40.62108,-41.118016 H 48.09525 c -22.43462,0 -40.619065,18.41069 -40.619065,41.118016 0,22.707326 18.184445,41.115996 40.619065,41.115996 h 756.68462 z"
   id="path13"
   style="fill:#0076bd" /><path
   clip-path="none"
   d="m 68.368422,44.927815 c 0,-14.532204 7.999378,-17.96022 21.434697,-17.96022 h 17.533991 c 21.22865,0 23.98399,4.660244 23.85067,18.713697 h -14.91601 v -1.369591 c 0,-3.565379 -2.55334,-4.593582 -6.98734,-4.593582 H 93.025091 c -7.855955,0 -9.336648,3.771424 -9.336648,9.938621 v 5.345039 c 0,7.199441 1.480693,9.938622 8.53065,9.938622 h 15.924017 c 6.72069,0 8.73265,-0.684795 8.73265,-6.849973 h 14.91601 v 4.658224 c 0,8.362986 -2.95734,14.946313 -17.93598,14.946313 H 89.803119 c -13.435319,0 -21.434697,-3.423976 -21.434697,-17.96022 v -14.80693 z"
   id="path15"
   style="fill:#ffffff" /><polygon
   clip-path="none"
   points="168.283,81.968 184.88,81.968 184.88,88.282 160.899,88.282 160.899,63.712 168.283,63.712 "
   id="polygon17"
   style="fill:#ffffff"
   transform="matrix(2.020045,0,0,2.020045,-184.87856,-101.18608)" /><path
   clip-path="none"
   d="m 219.50213,27.515027 h 19.41465 l 26.73732,49.632506 h -16.59265 l -4.63399,-8.775076 h -30.23199 l -4.36936,8.775076 h -16.66133 l 26.33735,-49.632506 z m 0.26664,30.165332 h 19.08337 l -9.67602,-18.647035 -9.40735,18.647035 z"
   id="path19"
   style="fill:#ffffff" /><path
   clip-path="none"
   d="m 269.91639,60.898291 h 14.91601 c 0.0687,5.282417 2.15135,5.692487 6.45001,5.692487 h 18.27534 c 3.15531,0 6.38133,-0.341388 6.38133,-4.185534 0,-4.314816 -1.74532,-4.587522 -20.96201,-4.587522 -22.43866,0 -24.992,-2.747261 -24.992,-14.948333 0,-8.98112 0.806,-15.901794 19.61868,-15.901794 h 20.82666 c 17.19867,0 18.81268,5.961153 18.81268,14.667547 v 1.579675 h -14.91601 c 0,-3.634061 -0.40401,-5.145055 -7.25802,-5.145055 h -16.52397 c -3.36135,0 -5.644,1.169606 -5.644,3.840106 0,4.318856 1.81198,4.456219 17.80467,4.387537 23.17598,-0.06868 28.55334,1.373631 28.55334,15.835133 0,13.370678 -4.43602,15.562427 -24.25468,15.562427 h -18.07335 c -13.56864,0 -19.01468,-2.603838 -19.01468,-13.370678 v -3.425996 z"
   id="path21"
   style="fill:#ffffff" /><path
   clip-path="none"
   d="m 372.60538,44.927815 c 0,-14.532204 7.99736,-17.96022 21.4347,-17.96022 h 23.91531 c 13.4333,0 21.42864,3.428016 21.42864,17.96022 v 14.80693 c 0,14.536244 -7.99534,17.96022 -21.42864,17.96022 h -23.91531 c -13.43734,0 -21.4347,-3.423976 -21.4347,-17.96022 v -14.80693 z m 15.318,10.073964 c 0,7.199441 1.48069,9.938622 8.53267,9.938622 h 19.08337 c 7.05197,0 8.52863,-2.739181 8.52863,-9.938622 V 49.65674 c 0,-6.167197 -1.47464,-9.938621 -9.33463,-9.938621 h -17.47137 c -7.85798,0 -9.33867,3.771424 -9.33867,9.938621 v 5.345039 z"
   id="path23"
   style="fill:#ffffff" /><polygon
   clip-path="none"
   points="320.701,72.467 336.265,72.467 336.265,63.712 343.648,63.712 343.648,88.282 336.265,88.282 336.265,78.984 320.701,78.984 320.701,88.282 313.317,88.282 313.317,63.712 320.701,63.712 "
   id="polygon25"
   style="fill:#ffffff"
   transform="matrix(2.020045,0,0,2.020045,-184.87856,-101.18608)" /><polygon
   clip-path="none"
   points="355.696,81.968 372.29,81.968 372.29,88.282 348.311,88.282 348.311,63.712 355.696,63.712 "
   id="polygon27"
   style="fill:#ffffff"
   transform="matrix(2.020045,0,0,2.020045,-184.87856,-101.18608)" /><path
   clip-path="none"
   d="m 573.67864,60.898291 h 14.91197 c 0.0707,5.282417 2.15135,5.692487 6.45,5.692487 h 18.27737 c 3.15531,0 6.38132,-0.341388 6.38132,-4.185534 0,-4.314816 -1.74936,-4.587522 -20.962,-4.587522 -22.43866,0 -24.992,-2.747261 -24.992,-14.948333 0,-8.98112 0.806,-15.901794 19.61868,-15.901794 h 20.82262 c 17.20472,0 18.81672,5.961153 18.81672,14.667547 v 1.579675 h -14.92207 c 0,-3.634061 -0.39593,-5.145055 -7.25196,-5.145055 h -16.52801 c -3.35934,0 -5.64199,1.169606 -5.64199,3.840106 0,4.318856 1.814,4.456219 17.80266,4.387537 23.17799,-0.06868 28.55535,1.373631 28.55535,15.835133 0,13.370678 -4.43399,15.562427 -24.25468,15.562427 h -18.07334 c -13.57066,0 -19.01064,-2.603838 -19.01064,-13.370678 v -3.425996 z"
   id="path29"
   style="fill:#ffffff" /><path
   clip-path="none"
   d="m 642.90356,44.927815 c 0,-14.532204 7.9913,-17.96022 21.43066,-17.96022 h 23.91531 c 13.43936,0 21.43066,3.428016 21.43066,17.96022 v 14.80693 c 0,14.536244 -7.9913,17.96022 -21.43066,17.96022 h -23.91531 c -13.43936,0 -21.43066,-3.423976 -21.43066,-17.96022 v -14.80693 z m 15.31194,10.073964 c 0,7.199441 1.48069,9.938622 8.54075,9.938622 h 19.07327 c 7.05803,0 8.53671,-2.739181 8.53671,-9.938622 V 49.65674 c 0,-6.167197 -1.47666,-9.938621 -9.34069,-9.938621 h -17.46531 c -7.86404,0 -9.34473,3.771424 -9.34473,9.938621 v 5.345039 z"
   id="path31"
   style="fill:#ffffff" /><polygon
   clip-path="none"
   points="472.434,81.561 472.499,81.561 472.499,63.712 479.883,63.712 479.883,88.282 468.443,88.282 454.572,70.431 454.507,70.431 454.507,88.282 447.123,88.282 447.123,63.712 458.565,63.712 "
   id="polygon33"
   style="fill:#ffffff"
   transform="matrix(2.020045,0,0,2.020045,-184.87856,-101.18608)" />
</svg>