<?xml version="1.0" encoding="UTF-8" standalone="no"?>
<svg
   xmlns:dc="http://purl.org/dc/elements/1.1/"
   xmlns:cc="http://creativecommons.org/ns#"
   xmlns:rdf="http://www.w3.org/1999/02/22-rdf-syntax-ns#"
   xmlns:svg="http://www.w3.org/2000/svg"
   xmlns="http://www.w3.org/2000/svg"
   xmlns:sodipodi="http://sodipodi.sourceforge.net/DTD/sodipodi-0.dtd"
   xmlns:inkscape="http://www.inkscape.org/namespaces/inkscape"
   version="1.1"
   id="Lager_1"
   x="0px"
   y="0px"
   width="956"
   height="148"
   viewBox="0 0 955.99999 147.99999"
   enable-background="new 0 0 841.89 595.275"
   xml:space="preserve">
<path
   style="fill:#54bceb"
   d="M -2.5274001e-6,92.870235 C -2.5274001e-6,62.551256 20.867136,37.764363 52.631241,37.764363 c 17.088314,0 29.709875,6.54009 36.792186,14.90271 6.59264,7.782182 9.447062,16.985603 10.318915,23.119625 L 74.530271,76.62511 C 73.780239,71.771398 71.809613,67.722657 68.83337,64.751191 65.195475,61.110908 58.700769,59.082954 52.464036,59.082954 c -14.928986,0 -26.033762,12.459134 -26.033762,33.787281 0,21.328145 11.611167,33.428985 26.516267,33.428985 6.019367,0 12.509295,-1.97779 16.245125,-5.47715 3.434861,-3.22466 5.71601,-7.74874 6.296449,-13.39787 l 25.185795,1.00801 c -0.39651,4.64112 -1.722207,9.52589 -4.015299,14.19328 -6.169852,13.08496 -21.175274,25.33867 -44.048868,25.33867 C 20.678434,147.96655 -2.5274001e-6,123.18444 -2.5274001e-6,92.870235 z"
   id="path236" /><rect
   style="fill:#54bceb"
   x="112.08681"
   y="0.0215008"
   width="26.740799"
   height="144.96642"
   id="rect238" /><path
   style="fill:#54bceb"
   d="m 188.54234,101.17314 c -4.62918,1.65055 -11.61834,3.41097 -11.61834,13.28321 0,8.97889 7.91595,13.40265 18.16082,13.40265 17.33195,0 25.49154,-10.30936 25.49154,-20.63544 V 92.946671 c -2.46985,1.418851 -6.73835,2.77082 -10.52912,3.554293 -3.78838,0.793028 -16.87095,3.019238 -21.5049,4.672176 m 31.93369,32.54519 h -0.80019 c -2.0184,6.77417 -14.93854,14.22911 -32.27288,14.22911 -17.42989,0 -36.44823,-9.34435 -36.44823,-31.66856 0,-23.89115 20.47302,-30.973461 36.86624,-33.591408 9.08399,-1.45468 20.3082,-2.393415 23.98192,-3.069399 3.91259,-0.704649 6.16985,-2.025565 7.22085,-4.77011 0.3153,-0.82408 0.53028,-1.970626 0.53028,-3.174499 0,-8.283796 -5.16185,-14.298386 -18.51911,-14.298386 -10.70109,0 -20.75009,5.073467 -20.75726,16.183021 L 157.0792,72.3805 c 2.24054,-23.712006 20.95791,-34.589862 45.13092,-34.589862 25.34823,0 45.31963,11.365138 45.31963,34.384439 v 72.815233 h -27.05372 c 0,-0.005 0,-11.27198 0,-11.27198"
   id="path240" /><path
   style="fill:#54bceb"
   d="m 263.63394,129.86307 c -3.60923,-5.56314 -4.78683,-12.02441 -4.82744,-19.20465 h 23.24145 c 0.38457,3.17689 1.17999,6.27495 2.53673,8.80452 3.23899,6.08386 9.72176,9.38018 21.18961,9.38018 9.15565,0 19.22853,-4.25178 19.22853,-13.32621 0,-8.97172 -13.40026,-11.05701 -27.36662,-13.60807 -20.76921,-3.754939 -36.55571,-10.211427 -36.55571,-31.427307 0,-18.712587 16.09703,-32.688507 41.48586,-32.688507 20.86952,0 33.61768,9.724144 38.82491,17.986442 2.188,3.458748 4.52886,10.452679 4.59813,16.507875 h -23.38715 c -0.0597,-2.59406 -0.47773,-5.383989 -1.55978,-7.622142 -3.01446,-6.20807 -10.8683,-8.431892 -18.65048,-8.431892 -9.51634,0 -17.58993,3.874371 -17.58993,11.496514 0,4.473918 1.88702,7.089476 5.71362,8.704195 5.7184,2.417302 12.79832,3.43725 21.72227,4.722337 18.44745,2.672886 37.32246,9.853131 37.32246,31.322205 0,21.70794 -16.26423,35.52143 -44.98521,35.52143 -19.508,-0.005 -33.67979,-6.93899 -40.94125,-18.13692"
   id="path242" /><path
   style="fill:#54bceb"
   id="path246"
   d="m 445.28028,58.380695 c -15.18218,0 -24.29483,10.567333 -24.29483,34.465653 0,23.907872 9.55216,34.305612 24.29483,34.305612 14.71879,0 24.10852,-10.07766 24.10852,-34.305612 0,-24.225563 -8.95022,-34.465653 -24.10852,-34.465653 z M 394.8657,92.848737 c 0,-35.509488 22.99063,-55.096317 50.41458,-55.096317 27.42156,0 50.19961,19.63699 50.19961,55.096317 0,35.466493 -22.43169,55.122593 -50.19961,55.122593 -27.76791,0 -50.41458,-19.60355 -50.41458,-55.122593 z" /><path
   style="fill:#54bceb"
   id="path248"
   d="M 570.56911,144.99031 V 81.137246 c 0,-10.142156 -3.51608,-20.019172 -16.73719,-20.019172 -7.93027,0 -13.15184,4.201613 -16.07553,9.148482 -2.36714,3.998579 -4.13473,11.7306 -4.13473,18.328017 V 144.9927 H 506.88325 V 0.00238937 h 26.73841 V 53.051644 h 0.38218 c 4.81788,-8.885732 15.4736,-15.275338 28.72576,-15.275338 10.64616,0 17.93389,3.016849 24.14674,8.811684 7.51943,7.010652 10.43357,17.296126 10.43357,32.234666 v 66.167654 h -26.7408 z" /><rect
   style="fill:#54bceb"
   id="rect250"
   height="144.99031"
   width="26.731245"
   y="-3.3537444e-06"
   x="615.00494" /><path
   style="fill:#54bceb"
   id="path252"
   d="m 659.01558,129.39489 c -3.45397,-5.46759 -4.59573,-11.74254 -4.62679,-18.74603 h 23.24145 c 0.3774,3.08374 1.14654,6.12447 2.44596,8.6206 3.22466,6.20329 9.72892,9.56172 21.28038,9.56172 9.14848,0 19.22614,-4.25417 19.22614,-13.32144 0,-8.99083 -13.39787,-11.06656 -27.36662,-13.62479 -20.76921,-3.752547 -36.55571,-10.201868 -36.55571,-31.43208 0,-18.712588 16.09942,-32.678953 41.47869,-32.678953 20.97224,0 33.70846,9.802969 38.91569,18.151258 2.12827,3.418141 4.45481,10.349967 4.51691,16.331116 h -23.38715 c -0.0358,-2.336088 -0.30336,-4.9612 -1.22776,-7.075145 -2.86637,-6.604583 -10.90652,-8.978889 -18.9825,-8.978889 -9.51634,0 -17.59232,3.874371 -17.59232,11.498902 0,4.6459 2.0399,7.299677 6.16746,8.945448 5.71123,2.285927 12.64067,3.265268 21.26365,4.483473 18.45223,2.672886 37.33202,9.853131 37.33202,31.32698 0,21.71272 -16.26901,35.53338 -44.9876,35.53338 -19.75881,0.002 -33.92104,-7.18502 -41.1419,-18.59555" /><path
   style="fill:#54bceb"
   id="path254"
   d="M 929.25172,144.99031 V 81.137246 c 0,-10.142156 -3.51846,-20.019172 -16.73957,-20.019172 -7.93028,0 -13.15184,4.201613 -16.07553,9.148482 -2.36475,3.998579 -4.13235,11.7306 -4.13235,18.328017 V 144.9927 H 865.56586 V 41.156228 h 25.72324 v 11.895416 h 0.38218 c 4.82028,-8.885732 16.48638,-15.275338 29.74093,-15.275338 10.64616,0 17.93389,3.016849 24.14674,8.811684 7.52421,7.010652 10.43596,17.296126 10.43596,32.234666 v 66.167654 h -26.74319 z" /><path
   style="fill:#54bceb"
   id="path256"
   d="m 803.24631,58.380695 c -15.1798,0 -24.44054,10.567333 -24.44054,34.465653 0,23.907872 9.70503,34.305612 24.44054,34.305612 14.72356,0 24.25422,-10.07766 24.25422,-34.305612 0,-24.225563 -9.09832,-34.465653 -24.25422,-34.465653 z M 752.6884,92.848737 c 0,-35.509488 23.13635,-55.096317 50.55791,-55.096317 27.42156,0 50.3477,19.63699 50.3477,55.096317 0,35.466493 -22.57979,55.122593 -50.3477,55.122593 -27.76792,0 -50.55791,-19.60355 -50.55791,-55.122593 z" />
</svg>