<?xml version="1.0" encoding="UTF-8" standalone="no"?>
<svg
   xmlns:dc="http://purl.org/dc/elements/1.1/"
   xmlns:cc="http://creativecommons.org/ns#"
   xmlns:rdf="http://www.w3.org/1999/02/22-rdf-syntax-ns#"
   xmlns:svg="http://www.w3.org/2000/svg"
   xmlns="http://www.w3.org/2000/svg"
   xmlns:sodipodi="http://sodipodi.sourceforge.net/DTD/sodipodi-0.dtd"
   xmlns:inkscape="http://www.inkscape.org/namespaces/inkscape"
   version="1.1"
   id="Layer_4"
   x="0px"
   y="0px"
   width="800"
   height="200"
   viewBox="0 0 800 200"
   enable-background="new 0 0 1417.323 992.126"
   xml:space="preserve">
<path
   d="m 797.08406,161.80344 c 0,0 -9.91183,15.19079 -30.75865,15.19079 -5.88507,0 -9.6309,-3.51458 -9.6309,-8.39939 0,-16.42261 21.32351,-26.58758 21.32351,-40.53876 0,-4.69702 -4.1068,-7.87242 -9.799,-8.04291 -7.22663,-0.21286 -14.20022,2.67371 -17.88439,5.00504 3.30251,3.43912 -1.56961,11.45205 -8.3802,23.13117 -8.12976,13.96186 -16.78558,28.62529 -30.23228,28.62529 -26.74128,0 -18.58164,-57.31315 50.60769,-65.34407 3.78511,-0.45571 5.94404,-1.04354 5.59986,-3.96989 -0.50568,-4.34015 -10.10671,-7.890206 -23.50093,-7.947766 -12.15452,-0.07 -27.92934,2.270256 -40.68377,8.537496 -22.64498,11.15924 -37.74762,29.14037 -42.65052,54.59187 -13.37404,8.56428 -28.88213,15.09885 -39.24578,15.09885 -15.60203,0 -8.35521,-15.17261 -3.61241,-23.42718 8.80862,-15.36429 26.36612,-40.33299 41.99623,-62.692746 40.81309,-2.3655 65.56173,-0.50168 65.56173,-4.14877 0,-6.71486 -32.65374,-9.62462 -54.98122,-10.93799 4.48996,-6.49629 15.815,-23.66833 15.815,-24.66919 0,-7.85373 -14.44307,-11.43427 -34.66528,-10.42741 2.01373,5.68041 -15.02389,30.05399 -17.81853,33.81162 -14.72768,-0.40974 -31.25403,-0.87945 -46.42583,-1.24502 1.63896,-2.38729 15.63101,-22.82796 15.63101,-24.30822 0,-7.57671 -11.86319,-11.30345 -34.48499,-10.50326 0.61661,6.17929 -8.47693,20.18653 -17.75347,33.89306 -4.5788,-0.0999 -26.30526,-0.81148 -29.00855,-1.17445 -10.69163,-1.43909 -14.59347,-2.87818 -16.65216,-7.40022 -3.69767,1.23082 -13.15828,7.81346 -13.15828,18.91294 0,11.10527 11.92116,13.98525 15.41685,13.98525 1.92818,0 12.37217,-0.4817 27.62253,-1.14578 -17.29886,25.810576 -34.05846,50.594296 -34.95589,51.643936 -3.13362,3.67957 -23.15536,37.51207 -57.38171,37.51207 -17.08019,0 -25.7738,-8.61455 -27.69218,-19.22464 36.8251,-5.00054 64.38497,-24.1879 64.46492,-43.98468 0.10094,-15.61362 -14.04042,-26.314046 -34.97428,-26.314046 -32.68292,0 -66.05382,35.468856 -66.05382,64.186096 -3.20027,0.0999 -15.3297,-2.40518 -17.82812,-3.62771 3.67288,-6.41264 12.9632,-38.31336 -9.44652,-38.31336 -19.44141,0 -21.90954,31.19486 -4.31337,40.83507 -2.71099,7.584 -20.05692,19.9198 -32.17196,19.9198 -20.69011,0 -25.70414,-9.6438 -25.70414,-23.74049 0,-28.02517 42.67771,-54.79744 69.06952,-43.68686 -1.7514,-10.276 -14.77606,-17.500226 -31.82038,-17.500226 -39.59036,0 -72.0944,38.654346 -72.0944,65.866926 -6.17649,6.99498 -23.7105,19.20556 -35.86841,19.20556 -10.94867,0 -13.91869,-11.69741 -8.97742,-19.25203 1.95297,-2.99131 76.12605,-113.917236 82.44205,-123.566736 6.31941,-9.63021 5.2167,-19.96907 -18.39466,-19.96907 -4.21104,-0.07 -9.20788,0.23086 -15.14412,0.89644 0,0 3.65768,3.65359 -1.5908,10.87312 -2.43606,3.34798 -68.55563,105.058846 -80.32479,121.915976 -11.84621,16.94808 -33.27585,26.68752 -62.25322,26.68752 -43.6656,0 -67.09658,-26.32704 -67.09658,-57.13156 0,-44.104096 46.40687,-103.948146 110.39799,-103.948146 35.29008,0 38.08711,31.52686 22.27711,31.52686 -8.57938,0 -9.69217,-6.60263 -9.69217,-6.60263 -29.90279,11.50653 -16.87902,43.59553 6.05297,43.59553 22.93859,0 34.32519,-20.71 34.68856,-34.22145 0,0 0.88344,-49.71866019 -69.74489,-49.71866019 C 68.44969,0.12640381 0.23373979,52.327294 6.5679312e-4,117.58221 -0.18252721,163.49977 37.0741,198.23879 87.81439,197.63158 c 19.30779,-0.27083 50.09242,-4.77119 78.56781,-25.70375 -1.9074,17.10548 12.10224,26.31096 26.88519,26.31096 23.32555,0 50.64087,-18.07616 62.04026,-26.79065 3.37566,20.46705 22.08393,28.56803 40.00579,28.55184 29.39071,-0.03 52.9628,-22.68315 61.5108,-36.17022 4.48286,1.53672 12.8014,3.74083 22.14209,3.7906 2.59146,15.68028 13.80837,31.82457 46.59443,31.82457 32.33954,0 62.16678,-26.95535 62.16678,-26.95535 -0.21487,15.6474 9.91982,25.80478 26.8679,25.86224 8.65633,0.07 17.99762,-2.13935 28.24374,-6.59013 9.28173,-4.04754 17.50223,-9.53827 30.1885,-18.83469 0,0 -1.03025,9.09335 5.83231,17.02184 4.44119,5.16083 12.11534,8.30234 21.14053,8.34552 14.49683,0.11692 35.32685,-7.60439 61.13613,-25.86224 1.23022,7.93038 8.64983,24.60143 31.03567,24.60143 10.95107,0 28.76221,-6.60832 38.87541,-19.53064 1.77628,15.63351 14.49083,19.95348 25.90032,19.95348 27.41596,0.001 51.59656,-35.65445 40.13601,-35.65445 z M 456.33249,113.6466 c 5.86509,0.06 9.62851,3.25604 9.36288,8.58207 -0.75252,14.82123 -31.22025,36.75705 -52.75883,36.75705 9e-4,-32.03434 30.16482,-45.35581 43.39595,-45.33912 z m 123.26863,41.05263 c -8.44925,12.09235 -26.2344,24.32412 -39.32742,24.32412 -8.46015,0 -12.57255,-6.20038 -12.57255,-12.34879 0,-8.98592 40.54955,-64.72646 45.70289,-71.782596 -0.02,-0.05 48.26537,-1.80825 48.29136,-1.80825 -5.50602,7.960256 -40.38975,59.159276 -42.09428,61.615516 z"
   id="path236"
   style="fill:#da521f" />
</svg>