<?xml version="1.0" encoding="UTF-8" standalone="no"?>
<!-- Created with Inkscape (http://www.inkscape.org/) -->
<svg
   xmlns:dc="http://purl.org/dc/elements/1.1/"
   xmlns:cc="http://web.resource.org/cc/"
   xmlns:rdf="http://www.w3.org/1999/02/22-rdf-syntax-ns#"
   xmlns:svg="http://www.w3.org/2000/svg"
   xmlns="http://www.w3.org/2000/svg"
   xmlns:xlink="http://www.w3.org/1999/xlink"
   xmlns:sodipodi="http://sodipodi.sourceforge.net/DTD/sodipodi-0.dtd"
   xmlns:inkscape="http://www.inkscape.org/namespaces/inkscape"
   width="350"
   height="100"
   id="svg2"
   sodipodi:version="0.32"
   inkscape:version="0.45.1"
   version="1.0"
   inkscape:output_extension="org.inkscape.output.svg.inkscape">
  <g
     inkscape:label="Layer 1"
     inkscape:groupmode="layer"
     id="layer1"
     transform="translate(-397.16796,-482.23134)">
    <g
       id="g9996"
       transform="matrix(6.0379181,0,0,6.0379181,-2000.9028,-2933.2419)">
      <path
         id="path3862"
         d="M 448.60749,576.78068 C 448.53149,576.84068 448.45649,576.90268 448.38649,576.96568 C 448.06549,577.26168 447.79549,577.70368 447.71449,577.94468 C 447.94749,577.72968 448.32549,577.18868 448.60749,576.78068 M 436.79249,577.67968 L 436.56649,578.01768 C 436.85049,577.83068 437.18049,577.59968 437.47849,577.38068 C 437.55549,577.26768 437.76849,576.95268 437.87449,576.79768 C 438.36649,576.08168 439.18749,574.88568 439.66049,574.19168 L 439.10549,574.26168 L 436.79249,577.67968 z M 445.35749,573.59468 C 444.91249,574.25168 442.79149,577.37768 442.28049,578.11568 C 442.54149,577.96968 442.86249,577.77068 443.20049,577.52868 C 443.93649,575.17268 445.72049,573.90968 447.60149,573.39168 L 445.35749,573.59468 z M 420.11249,577.26268 C 419.88749,577.54568 419.91549,577.69768 419.97249,578.01268 C 419.98649,578.09368 420.00849,578.11668 420.00949,578.11668 C 420.11449,578.11568 420.27549,578.02768 420.39749,577.94168 C 420.25049,577.71268 420.16249,577.47468 420.11249,577.26268 M 411.77749,581.93768 C 410.58049,581.93768 409.59449,581.45068 409.19649,580.69668 C 408.98049,580.80168 408.65749,580.95168 408.28049,581.10668 C 406.95149,581.65268 405.76649,581.90568 404.55049,581.90568 L 404.46849,581.90568 C 401.06649,581.87468 397.45549,579.61268 397.46349,575.47768 C 397.46849,572.98468 398.57349,570.61168 400.57749,568.79868 C 402.59149,566.97468 405.24749,565.96868 408.05649,565.96568 C 410.80749,565.96568 413.60249,567.27068 413.64849,569.76668 C 413.66749,570.71468 413.24349,571.34968 412.88549,571.71568 C 412.36749,572.24268 411.64449,572.55868 410.95049,572.55868 C 410.91749,572.55868 410.88449,572.55768 410.85149,572.55668 C 409.60149,572.49868 408.97649,571.88568 408.67049,571.38168 C 408.35049,570.85468 408.26649,570.24768 408.33449,569.77268 C 407.20749,569.94568 406.10649,570.60868 405.05549,571.74768 C 404.00649,572.88268 403.29949,574.51268 403.29749,575.80368 C 403.29649,576.57668 403.51249,577.18668 403.94149,577.61668 C 404.37149,578.04868 405.01149,578.28568 405.74149,578.28568 C 405.81649,578.28568 405.89149,578.28268 405.96449,578.27768 C 407.22849,578.19068 408.58249,577.71968 409.68949,576.98268 L 409.97949,576.56668 C 411.31949,574.61068 413.87649,570.87668 413.94949,570.76568 C 414.13849,570.47868 414.30949,570.25068 414.43349,570.08368 L 414.50149,569.99268 C 414.70749,569.71068 415.13749,569.12568 416.66949,569.12468 C 417.54249,569.12468 418.29749,569.36768 418.68949,569.77568 C 418.91749,570.01168 419.03049,570.30668 419.01849,570.62768 C 419.01149,570.81068 418.95649,571.02268 418.86549,571.22368 C 418.79749,571.37168 418.61449,571.72368 418.14749,572.43668 C 417.98949,572.67068 414.34449,578.05168 414.23549,578.21068 C 414.22249,578.22968 414.20949,578.24868 414.19749,578.26668 C 414.47249,578.13368 414.87149,577.92168 415.44749,577.58368 C 415.71749,576.33068 416.25849,575.36368 417.18849,574.46468 C 418.20449,573.48068 419.53749,572.91668 420.84549,572.91668 C 421.80449,572.91768 422.64849,573.24168 423.17149,573.80668 C 423.51749,574.18068 423.69449,574.62868 423.68849,575.10968 C 423.80749,575.26368 424.00049,575.57868 424.08049,576.06468 C 424.96949,574.10868 426.88049,572.81768 429.04049,572.81768 L 429.06249,572.81768 C 430.87949,572.82768 432.26249,573.92168 432.28149,575.36368 C 432.29449,576.28668 431.89549,577.07068 431.26849,577.69468 C 431.36949,577.62868 431.45749,577.56968 431.52749,577.51968 L 431.76249,577.35068 C 431.90149,577.13968 432.51749,576.21068 433.31049,575.01068 C 432.75449,574.96168 432.44949,574.72968 432.28749,574.53368 C 432.04149,574.23468 431.96149,573.82868 432.05249,573.36068 C 432.10249,573.11668 432.30549,572.62268 432.49849,572.28068 C 432.93549,571.50668 433.57949,571.37468 433.82149,571.32468 L 433.84849,571.31868 C 434.06949,571.27368 434.83749,571.16568 435.53849,571.06968 C 435.70949,571.04568 435.82949,571.02868 435.85349,571.02468 L 435.99949,571.00768 L 436.52749,570.30168 C 436.70649,570.06968 437.04049,569.63868 437.48949,569.42468 C 437.99949,569.18368 438.32749,569.14068 438.91849,569.12868 C 438.95649,569.12868 438.99349,569.12768 439.03049,569.12768 C 439.91949,569.12768 440.65349,569.36768 441.04249,569.78568 C 441.23649,569.99368 441.34249,570.24068 441.35149,570.50868 L 442.18849,570.46668 C 442.34849,570.26268 442.69049,569.84268 442.95849,569.64168 C 443.43249,569.28868 444.05049,569.11668 444.84749,569.11668 C 446.09449,569.11868 447.01649,569.59368 447.15349,570.30168 C 447.15449,570.30268 447.15449,570.30368 447.15449,570.30468 C 447.65349,570.30668 449.23349,570.31668 449.93549,570.33668 L 450.68049,570.35568 L 451.45549,570.38868 C 451.98349,570.42968 452.38749,570.60368 452.63349,570.89468 C 452.82649,571.12368 452.91349,571.41468 452.88249,571.73868 C 452.81349,572.50068 452.27149,572.94968 451.27149,573.07068 C 451.22949,573.07568 450.90149,573.10468 450.49649,573.13968 C 451.68549,573.26468 452.38949,573.70068 452.54549,574.41368 C 452.57749,574.56468 452.56849,574.76068 452.50949,574.94268 C 452.56349,574.97468 452.62049,575.01168 452.67549,575.05468 C 453.52349,575.71268 453.00049,576.66468 452.53349,577.32368 C 452.35149,577.56968 452.15949,577.84568 452.00649,578.08568 L 452.49649,577.70368 C 452.76149,577.48368 453.06749,577.36968 453.39749,577.36968 L 453.42349,577.36968 L 453.43949,577.66368 L 453.44849,577.36968 C 454.07949,577.36968 454.77449,577.75668 454.80549,578.60468 C 454.82749,579.18168 454.41049,579.78468 453.41049,580.62168 C 452.43849,581.43068 451.49749,581.80868 450.44949,581.80968 C 449.83849,581.80968 449.02349,581.62068 448.54049,581.10668 C 448.09549,581.39468 447.23349,581.79968 446.16449,581.79968 C 445.02349,581.79868 444.12949,581.40268 443.55449,580.65168 C 442.79749,581.10668 441.28249,581.88868 439.86449,581.88868 C 438.43049,581.88768 437.72749,581.24768 437.41949,580.82568 C 437.34649,580.86768 437.25949,580.91868 437.15449,580.97368 C 436.41149,581.37268 435.27849,581.90268 434.02349,581.90568 C 432.85449,581.90568 431.91549,581.44668 431.47849,580.68568 C 431.42749,580.71368 431.36949,580.74468 431.30249,580.77768 L 431.25249,580.80368 C 430.73849,581.06968 429.17449,581.87868 427.56449,581.88068 C 425.80049,581.88068 424.41149,581.11068 423.84849,579.82268 L 423.80849,579.71968 C 423.53649,579.68668 423.25249,579.62368 423.06849,579.57968 C 421.98749,581.01968 420.43449,581.87268 418.87649,581.87368 C 417.64249,581.87368 416.58349,581.38968 416.00549,580.57268 C 415.56149,580.83568 414.88149,581.17768 414.43849,581.35268 C 413.66949,581.65868 412.88849,581.93368 411.78449,581.93768"
         style="fill:#e82d25;fill-rule:nonzero;stroke:none" />
      <path
         id="path3864"
         d="M 415.11749,577.43568 C 415.14849,577.38968 415.17949,577.34268 415.21249,577.29368 C 415.20449,577.32668 415.19649,577.36068 415.18849,577.39368 C 415.16449,577.40868 415.14149,577.42168 415.11749,577.43568 M 432.57149,575.59468 C 432.57649,575.51668 432.57849,575.43868 432.57649,575.35968 C 432.57649,575.27668 432.57049,575.19368 432.56249,575.11268 C 432.64049,575.15168 432.72649,575.18668 432.82249,575.21568 C 432.73549,575.34668 432.65249,575.47268 432.57149,575.59468 M 445.52349,573.87568 L 445.75749,573.85368 C 445.62449,573.93168 445.49649,574.01368 445.37149,574.09968 C 445.42849,574.01468 445.47949,573.93968 445.52349,573.87568 M 405.74149,577.99068 C 405.36449,577.99068 404.65449,577.91568 404.15049,577.40968 C 403.77949,577.03568 403.59149,576.49668 403.59249,575.80468 C 403.59449,574.58168 404.27049,573.03168 405.27149,571.94868 C 406.16249,570.98368 407.08249,570.37768 408.01649,570.13768 C 408.02449,570.57968 408.13949,571.07568 408.41849,571.53568 C 408.90249,572.33368 409.76249,572.80168 410.83849,572.85068 C 410.87549,572.85268 410.91349,572.85368 410.95049,572.85368 C 411.46749,572.85368 411.99849,572.69768 412.46349,572.41768 C 411.54649,573.75968 410.35349,575.50068 409.73549,576.40268 L 409.48049,576.76868 C 408.42349,577.46068 407.14149,577.90168 405.94449,577.98468 C 405.87749,577.98868 405.80949,577.99068 405.74149,577.99068 M 408.07249,565.67068 L 408.05749,565.67068 C 405.17449,565.67368 402.44849,566.70868 400.38049,568.58068 C 398.31449,570.44968 397.17449,572.89968 397.16849,575.47768 C 397.16549,577.48368 397.96549,579.20568 399.48149,580.45668 C 400.80549,581.54868 402.62249,582.18368 404.46649,582.20068 L 404.55149,582.20068 C 405.80649,582.20068 407.02749,581.93968 408.39349,581.37968 C 408.65549,581.27068 408.89249,581.16568 409.08649,581.07468 C 409.60049,581.78668 410.59849,582.23268 411.77749,582.23268 L 411.78649,582.23268 C 412.94149,582.22768 413.75149,581.94368 414.54649,581.62668 C 414.93749,581.47168 415.49149,581.19968 415.93049,580.95668 C 416.58849,581.72268 417.65449,582.16868 418.87049,582.16868 C 420.47149,582.16668 422.05849,581.32968 423.18649,579.90868 C 423.31049,579.93568 423.45249,579.96468 423.59949,579.98768 C 424.22349,581.35868 425.70149,582.17468 427.56349,582.17468 C 429.23649,582.17268 430.84049,581.34868 431.37949,581.06968 C 431.91349,581.77968 432.86749,582.20068 434.01549,582.20068 C 435.34549,582.19668 436.52349,581.64768 437.29449,581.23368 C 437.31349,581.22468 437.33049,581.21468 437.34849,581.20468 C 437.75549,581.65368 438.51849,582.18168 439.86349,582.18368 C 441.22549,582.18368 442.65449,581.50668 443.48749,581.03268 C 444.11749,581.72868 445.02949,582.09268 446.15949,582.09468 C 447.14649,582.09468 447.97549,581.77768 448.50449,581.47568 C 449.05749,581.93168 449.84549,582.10468 450.44949,582.10468 C 451.57149,582.10268 452.57149,581.70368 453.59949,580.84768 C 454.67749,579.94568 455.12649,579.27168 455.10049,578.59268 C 455.06149,577.54968 454.21749,577.07468 453.44949,577.07468 L 453.39749,577.07468 C 453.26849,577.07468 453.14149,577.08868 453.01949,577.11768 C 453.60049,576.12868 453.54649,575.35668 452.85549,574.82168 C 452.85049,574.81768 452.84749,574.81568 452.84349,574.81268 C 452.86749,574.64768 452.86249,574.48668 452.83349,574.35368 C 452.74949,573.96868 452.51349,573.53868 451.93349,573.23068 C 452.86149,572.93268 453.12849,572.29268 453.17649,571.76468 C 453.21449,571.36168 453.10349,570.99568 452.85849,570.70568 C 452.56049,570.35168 452.08749,570.14168 451.48749,570.09568 C 450.98049,570.05868 450.45149,570.06068 449.94249,570.04168 C 449.31249,570.02368 448.01249,570.01468 447.37249,570.01168 C 447.07649,569.29068 446.10849,568.82368 444.86149,568.82268 L 444.84849,568.82268 C 443.99749,568.82268 443.30249,569.01768 442.78349,569.40568 C 442.52749,569.59568 442.22949,569.94468 442.04049,570.17968 L 441.60449,570.20068 C 441.54649,569.97768 441.43049,569.76868 441.25849,569.58368 C 440.81349,569.10668 440.00149,568.83268 439.03049,568.83268 C 438.99149,568.83268 438.95149,568.83368 438.91149,568.83368 C 438.29049,568.84568 437.91949,568.89568 437.36449,569.15768 C 436.85049,569.40268 436.48849,569.86968 436.29549,570.12168 L 436.28549,570.13368 L 436.28249,570.13768 L 436.27949,570.14168 L 435.84049,570.72968 L 435.82049,570.73268 L 435.79949,570.73568 C 435.77849,570.73968 435.66249,570.75468 435.49849,570.77668 C 434.79249,570.87468 434.01949,570.98368 433.79149,571.02968 L 433.76249,571.03668 C 433.48449,571.09368 432.74649,571.24568 432.24249,572.13468 C 432.06049,572.45868 431.82649,572.99568 431.76449,573.30268 C 431.75149,573.36868 431.74249,573.43468 431.73549,573.49868 C 431.09949,572.89968 430.15349,572.52968 429.06549,572.52368 L 429.04049,572.52368 C 427.00749,572.52268 425.18549,573.60568 424.15049,575.30368 C 424.09449,575.18668 424.03549,575.08968 423.98249,575.01168 C 423.96249,574.49668 423.75649,574.00468 423.38749,573.60668 C 422.81049,572.98268 421.88749,572.62368 420.85749,572.62168 L 420.84549,572.62168 C 419.73349,572.62168 418.60749,573.00568 417.65249,573.69368 C 418.05849,573.09568 418.34849,572.66768 418.38949,572.60668 L 418.39249,572.60168 L 418.39449,572.59868 C 418.74849,572.05768 419.01049,571.61368 419.13349,571.34868 C 419.19549,571.20968 419.30149,570.93768 419.31349,570.63968 C 419.32849,570.23568 419.18649,569.86668 418.90149,569.57168 C 418.25749,568.90268 417.12649,568.83068 416.66949,568.83068 C 414.98849,568.83068 414.48049,569.52268 414.26349,569.81768 L 414.25349,569.83268 L 414.19749,569.90768 C 414.11849,570.01468 414.01949,570.14668 413.90949,570.30368 C 413.93549,570.12768 413.94749,569.94668 413.94449,569.76068 C 413.89349,567.07568 410.95149,565.67068 408.07249,565.67068 M 420.01849,578.40868 C 420.32949,578.40868 420.74149,578.06368 420.79649,577.97968 C 420.27449,577.39068 420.34149,576.60368 420.34149,576.60368 C 419.61349,577.28468 419.58049,577.50368 419.68249,578.06568 C 419.72949,578.32068 419.86149,578.40868 420.01849,578.40868 M 447.58149,578.32968 C 447.58849,578.32968 447.59449,578.32968 447.60149,578.32968 C 448.03749,578.29768 448.79449,576.95968 449.52449,576.00168 C 449.52949,575.99568 449.53249,575.98768 449.53649,575.98168 C 449.08949,576.08068 448.54749,576.41868 448.18749,576.74968 C 447.78449,577.12068 447.39749,577.75168 447.39749,578.05968 C 447.39749,578.24168 447.45949,578.32968 447.58149,578.32968 M 427.99049,576.95768 C 427.99049,576.95768 428.66449,576.78368 429.23149,576.27568 C 429.43349,576.09368 429.55349,575.89968 429.57749,575.81168 C 429.60949,575.69768 429.57649,575.64568 429.47549,575.64568 L 429.47549,575.64568 C 429.41849,575.64568 429.21749,575.68568 428.81149,576.02168 C 428.38849,576.37068 428.04449,576.85868 427.99049,576.95768 M 435.91349,578.69168 C 435.92649,578.69168 435.94149,578.68968 435.95649,578.68768 C 436.31049,578.61368 437.69449,577.58668 437.69449,577.58668 C 437.69449,577.58668 437.98849,577.15368 438.11849,576.96368 C 438.11849,576.96368 440.11249,574.06368 440.26649,573.81868 L 438.93749,573.98568 L 436.54849,577.51468 L 436.01749,578.30868 C 435.92349,578.46168 435.86349,578.56568 435.86049,578.63968 C 435.85849,578.67868 435.88149,578.69168 435.91349,578.69168 M 408.07249,566.25968 C 410.70049,566.25968 413.31249,567.49368 413.35449,569.77268 C 413.38549,571.34668 412.03749,572.26368 410.95049,572.26368 C 410.92249,572.26368 410.89449,572.26268 410.86449,572.26168 C 408.69049,572.16268 408.37849,570.20068 408.72749,569.44868 L 408.73249,569.43668 C 406.87349,569.52568 405.49949,570.83368 404.83849,571.54868 C 403.77349,572.70168 403.00649,574.38268 403.00349,575.80368 C 402.99849,577.84068 404.41849,578.58068 405.74149,578.58068 C 405.82349,578.58068 405.90449,578.57768 405.98449,578.57168 C 407.31549,578.48068 408.73749,577.98468 409.90049,577.19768 L 410.22249,576.73568 C 410.22249,576.73568 414.10349,571.06868 414.19649,570.92668 C 414.41149,570.60168 414.60349,570.34968 414.72849,570.18168 C 414.90849,569.93668 415.25949,569.41968 416.66949,569.41968 C 417.68049,569.41968 418.75649,569.77968 418.72549,570.61668 C 418.71849,570.77068 418.66749,570.94868 418.59749,571.10168 C 418.51849,571.27568 418.31649,571.64168 417.90149,572.27568 C 417.90149,572.27568 414.10149,577.88368 413.99249,578.04468 C 413.65249,578.54868 413.62949,578.67768 413.64449,578.70768 C 413.65849,578.73568 413.68549,578.75468 413.73549,578.75468 C 413.77449,578.75468 413.82649,578.74368 413.89749,578.71768 C 414.16149,578.62268 414.65249,578.39068 415.59749,577.83768 L 415.70849,577.77968 C 415.97849,576.40368 416.55149,575.49068 417.39449,574.67668 C 418.40849,573.69368 419.70149,573.21168 420.84549,573.21168 L 420.85549,573.21168 C 422.34049,573.21368 423.47649,574.07068 423.39049,575.21268 C 423.39049,575.21268 423.83049,575.63268 423.82249,576.54468 C 423.81849,576.91568 423.78249,577.12368 423.76649,577.17868 L 424.00049,577.20768 C 424.58949,574.71468 426.75749,573.11268 429.04049,573.11268 L 429.06249,573.11268 C 430.78449,573.12068 431.97149,574.13368 431.98749,575.36768 C 432.01649,577.42468 429.73649,578.69368 427.89449,579.02768 C 428.05149,579.16268 428.28349,579.18168 428.46249,579.18168 C 428.47349,579.18168 428.48449,579.18168 428.49549,579.18068 C 429.47149,579.17268 431.22949,578.09968 431.70149,577.75768 L 431.97849,577.55868 C 431.97849,577.55868 432.81149,576.30168 433.86949,574.69968 C 433.86949,574.69968 433.80149,574.71268 433.77449,574.71468 C 433.69049,574.72168 433.61049,574.72568 433.53449,574.72568 C 432.56449,574.72568 432.19549,574.16368 432.34249,573.41768 C 432.38349,573.21468 432.57449,572.74768 432.75449,572.42568 C 433.14349,571.73868 433.70049,571.65268 433.91049,571.60768 C 434.22049,571.54268 435.83949,571.32768 435.90449,571.31568 C 436.00149,571.30468 436.15949,571.28768 436.15949,571.28768 L 436.75149,570.49368 C 436.91549,570.28268 437.22249,569.87768 437.61549,569.69068 C 438.09149,569.46568 438.39349,569.43368 438.92449,569.42368 C 438.96149,569.42268 438.99649,569.42168 439.03049,569.42168 C 440.22149,569.42168 441.10749,569.88068 441.05649,570.60568 C 441.05249,570.66368 441.04849,570.71668 441.02049,570.81868 L 442.33949,570.75568 C 442.33949,570.75568 442.81749,570.11468 443.13449,569.87868 C 443.48449,569.61768 444.01049,569.41168 444.84849,569.41168 L 444.86049,569.41168 C 445.93049,569.41268 446.75949,569.81268 446.86449,570.35768 C 446.88549,570.47168 446.88549,570.50668 446.87549,570.59968 L 447.00049,570.59968 C 447.00049,570.59968 449.08649,570.60668 449.92749,570.63168 C 450.15749,570.63668 450.67349,570.65068 450.67349,570.65068 L 451.44349,570.68368 C 452.21349,570.74268 452.64449,571.12668 452.59049,571.71168 C 452.51249,572.55968 451.71349,572.71968 451.23549,572.77868 C 451.13549,572.79068 448.94149,572.97668 448.77249,572.99068 L 445.19249,573.31368 C 445.19249,573.31368 442.17149,577.76968 441.94549,578.08068 C 441.52949,578.65668 441.64749,578.66968 441.68949,578.68168 C 441.69449,578.68368 441.70149,578.68468 441.70949,578.68468 C 441.89149,578.68468 442.67749,578.27668 443.45249,577.70968 C 444.39849,574.52268 447.36449,573.39768 449.75849,573.39768 C 449.82749,573.39768 449.89649,573.39868 449.96349,573.40068 C 450.64449,573.41968 452.05549,573.55368 452.25749,574.47668 C 452.29749,574.66268 452.23949,574.94068 452.09949,575.07868 C 452.09949,575.07868 452.30949,575.14268 452.49449,575.28768 C 452.91449,575.61268 453.03249,576.11068 452.29349,577.15368 C 452.29349,577.15368 451.14349,578.69668 451.46949,578.69668 L 451.47449,578.69668 C 451.65649,578.68768 452.01049,578.44268 452.16749,578.33268 L 452.67749,577.93668 C 452.98849,577.67768 453.27549,577.66368 453.39749,577.66368 L 453.44949,577.66368 C 453.93749,577.66368 454.48649,577.93868 454.51049,578.61668 C 454.52949,579.08068 454.13649,579.62968 453.22249,580.39568 C 452.40049,581.07968 451.52249,581.51468 450.44949,581.51468 C 449.83549,581.51468 448.95749,581.29368 448.59849,580.70068 C 448.31749,580.94668 447.36849,581.50468 446.16449,581.50468 L 446.16049,581.50468 C 445.11749,581.50468 444.19549,581.15868 443.63749,580.25268 C 443.63749,580.25268 443.63449,580.25668 443.62749,580.26168 C 443.42649,580.38768 441.55449,581.59368 439.86449,581.59368 C 438.51349,581.59268 437.79349,580.98168 437.51649,580.42268 C 437.43949,580.46968 437.28949,580.56768 437.01649,580.71468 C 436.18449,581.16068 435.13749,581.60768 434.02249,581.61068 L 434.01549,581.61068 C 432.74649,581.61068 431.88649,581.03768 431.61149,580.27468 C 431.61149,580.27468 431.46749,580.36368 431.17049,580.51568 C 430.74249,580.73568 429.16149,581.58368 427.56449,581.58568 L 427.56349,581.58568 C 426.05949,581.58568 424.67649,580.98168 424.11849,579.70468 L 424.02049,579.44368 C 423.56049,579.41568 422.94749,579.24468 422.94749,579.24468 L 422.93849,579.25868 C 421.81449,580.84968 420.24149,581.57768 418.87649,581.57868 L 418.87049,581.57868 C 417.93849,581.57868 416.77849,581.25768 416.17649,580.29968 C 416.13449,580.23368 416.10149,580.16468 416.10149,580.16468 C 415.74949,580.40768 414.86849,580.86568 414.32949,581.07968 C 413.57949,581.37768 412.83749,581.63968 411.78449,581.64268 L 411.77749,581.64268 C 410.46349,581.64268 409.55649,581.03468 409.35049,580.28968 C 409.35049,580.28968 408.84649,580.55568 408.16949,580.83368 C 407.10949,581.26868 405.92049,581.61068 404.55149,581.61068 C 404.52449,581.61068 404.49749,581.61068 404.47249,581.61068 C 401.12349,581.58068 397.75149,579.39468 397.75749,575.47868 C 397.76849,570.53268 402.36049,566.26768 408.05749,566.25968 L 408.07249,566.25968"
         style="fill:#ffffff;fill-rule:nonzero;stroke:none" />
      <path
         style="fill:#fbd104;fill-rule:nonzero;stroke:none"
         d="M 438.39549,577.92368 C 437.21649,578.85368 436.23549,579.43068 435.67349,579.42868 C 435.26149,579.42868 434.98049,579.19768 434.97949,578.85968 C 434.97949,578.54168 435.20449,578.12168 435.66049,577.46868 L 438.46749,573.34468 C 438.46749,573.34468 440.26449,573.11068 440.55549,573.07468 C 440.67949,573.05868 441.77249,572.93368 441.77249,572.93368 C 441.71349,573.02468 438.55049,577.65368 438.39549,577.92368 M 426.95749,577.73968 C 427.34849,576.08668 428.75649,575.02968 429.66149,575.03168 C 430.06449,575.03168 430.32149,575.25168 430.30349,575.61668 C 430.25549,576.62968 428.96949,577.55468 426.94749,577.83268 C 426.94749,577.83268 426.95249,577.76468 426.95749,577.73968 M 453.44649,578.32468 C 453.29249,578.32468 453.22449,578.35868 452.97549,578.55368 C 452.93649,578.58468 452.81349,578.69668 452.59749,578.84168 C 452.45249,578.93968 451.78949,579.39368 451.25149,579.38868 C 450.84849,579.38468 450.61449,579.14868 450.59249,578.81568 C 450.58549,578.70568 450.60249,578.54968 450.69149,578.32568 C 450.73549,578.21568 450.80149,578.08868 450.88749,577.94868 C 450.93949,577.86468 451.02649,577.72968 451.14349,577.54468 L 451.45749,577.08668 L 451.75949,576.63768 C 451.92749,576.38568 452.02449,576.19768 452.02349,576.07468 C 452.02349,575.81768 451.72949,575.68268 451.34049,575.68168 C 451.13049,575.68168 450.90049,575.72268 450.69249,575.82568 C 450.43249,575.95468 450.37549,576.07468 449.90349,576.79268 L 449.48049,577.40768 C 448.66149,578.69068 448.03649,579.17268 447.48049,579.16068 C 445.75249,579.11868 446.26149,575.53668 450.97049,574.89868 C 451.22949,574.86368 451.38649,574.72668 451.36249,574.52768 C 451.32649,574.22968 450.66049,574.08968 449.74349,574.08668 C 448.91249,574.08468 447.83249,574.24668 446.96049,574.67768 C 445.41149,575.44168 444.45549,576.69168 444.12949,578.05568 C 443.20449,578.75068 442.09949,579.44168 441.42749,579.45868 C 441.05049,579.46768 440.78249,579.23368 440.78449,578.90568 C 440.78549,578.62668 440.89949,578.30868 441.20449,577.85268 L 444.76849,572.60568 C 444.76849,572.60568 449.10449,572.23268 450.60649,572.11768 C 451.17649,572.07468 451.68549,572.10268 451.76349,571.71568 C 451.82249,571.43368 451.51949,571.36868 450.96549,571.35568 L 450.35849,571.34568 L 448.70549,571.32268 L 447.50549,571.32268 L 445.62149,571.35468 C 445.82549,571.05668 445.98749,570.86368 445.98749,570.69068 C 445.98849,570.44468 445.76949,570.10468 444.76249,570.10368 C 443.81249,570.10168 443.53749,570.35268 442.84649,571.34568 L 442.76849,571.46568 C 442.76849,571.46568 441.49149,571.53868 441.15949,571.56068 C 440.75649,571.58668 439.60549,571.67468 439.60549,571.67468 C 439.98149,571.13568 440.19049,570.86768 440.19049,570.69368 C 440.19049,570.44668 439.95349,570.10868 438.94649,570.10768 C 437.99549,570.10468 437.71249,570.35968 437.01849,571.35168 C 436.81649,571.64268 436.76549,571.71368 436.60049,571.95968 L 434.89549,572.17368 C 434.36949,572.24468 433.94649,572.32568 433.79149,572.40668 C 433.64649,572.48368 433.52549,572.62968 433.38549,572.89368 C 433.22549,573.19768 433.15049,573.42568 433.14949,573.60768 C 433.14849,573.87468 433.32449,574.01568 433.66249,574.01368 C 433.87549,574.01268 435.36549,573.77668 435.36549,573.77668 C 435.28749,573.91168 433.17949,577.01068 433.17949,577.01068 L 432.71449,577.68768 L 432.50549,577.96868 C 432.50549,577.96868 432.45649,578.01168 432.31349,578.11468 C 432.04849,578.30468 431.64449,578.61068 430.79949,579.04168 C 429.80849,579.54668 429.00949,579.79668 428.39349,579.79468 C 427.45349,579.79268 426.94749,579.35768 426.85849,578.63268 L 427.05049,578.60168 C 429.45249,578.25168 431.26549,576.96868 431.26749,575.61468 C 431.26949,574.54368 430.30349,573.79468 428.86949,573.81668 C 427.74949,573.83368 426.85249,574.41168 426.60649,574.57368 C 425.43649,575.34768 424.77949,576.75568 424.64549,577.47168 C 424.59949,577.71268 424.56849,577.95568 424.56849,577.95568 C 424.56849,577.95568 424.13149,577.94468 423.82349,577.89468 C 423.54349,577.84868 423.07349,577.74968 422.90549,577.63868 C 422.90549,577.63868 423.10949,577.21068 423.09849,576.53668 C 423.09049,575.95668 422.71949,575.50668 422.14049,575.50568 C 421.56749,575.50468 421.15249,576.03768 421.12449,576.65568 C 421.10349,577.14668 421.30949,577.57068 421.68049,577.86468 C 421.71049,577.88668 421.80249,577.96168 421.80249,577.96168 C 421.31649,578.65868 420.77149,578.96668 420.28049,579.06968 C 420.19849,579.08768 420.10649,579.09068 420.02849,579.09668 C 419.47749,579.14668 418.85349,578.73368 418.86749,577.92568 C 418.88749,576.88568 419.72249,575.78668 420.74649,575.49468 C 420.74649,575.49468 421.20449,574.79268 422.18549,574.79568 C 422.18549,574.79568 422.42649,574.80268 422.54849,574.84068 C 422.54849,574.84068 422.54449,574.79868 422.53249,574.76368 C 422.38249,574.35968 421.75149,573.91868 420.73249,573.93168 C 419.81049,573.94468 418.81149,574.38468 418.00649,575.08568 C 417.27949,575.72068 416.63349,576.88668 416.48049,577.75168 C 416.43849,577.98768 416.42849,578.13268 416.42849,578.13268 C 416.42849,578.13268 416.26049,578.23568 416.14249,578.30968 L 415.83249,578.49068 L 415.38949,578.74168 C 414.65249,579.15568 413.86049,579.50468 413.37449,579.49268 C 412.97149,579.48268 412.69749,579.25368 412.70749,578.88168 C 412.71149,578.76168 412.73649,578.67168 412.77549,578.55168 C 412.80449,578.46968 412.85049,578.37768 412.90649,578.27868 C 412.99249,578.12068 413.22649,577.77468 413.40049,577.52868 C 413.44049,577.47168 417.65849,571.27068 417.65849,571.27068 C 417.83849,570.99468 417.89649,570.82268 417.89749,570.69968 C 417.89849,570.31268 417.42649,570.11368 416.52249,570.11168 C 416.13749,570.11068 415.83049,570.18668 415.63849,570.32868 C 415.55249,570.39268 415.47949,570.42368 415.25249,570.71268 C 415.07849,570.93668 410.55549,577.61368 410.55549,577.61368 C 410.55549,577.61368 410.47849,577.67068 410.44249,577.69268 L 409.92649,578.02468 C 408.60949,578.81568 407.03849,579.29668 405.73949,579.29268 C 403.57849,579.28868 402.18049,577.92868 402.18349,575.84068 C 402.18649,574.39668 402.82749,572.77268 403.93549,571.40368 C 405.29349,569.72468 407.13449,568.77568 408.98849,568.72568 C 409.90949,568.70068 410.27349,568.94568 410.29049,568.94068 C 409.91049,569.04168 409.41049,569.52368 409.44149,570.20668 C 409.47249,570.89668 410.05949,571.52568 410.86449,571.52468 C 411.80649,571.52468 412.55049,570.75668 412.55249,569.75668 C 412.55449,568.10368 410.65149,566.96368 407.90649,566.95968 C 402.98949,566.94768 398.56149,570.94868 398.55249,575.41668 C 398.54549,578.55868 401.10049,580.87768 404.57549,580.88468 C 405.66049,580.88668 406.72149,580.65568 407.95749,580.13468 C 409.36049,579.54168 409.95049,579.11568 409.95049,579.11568 C 409.90749,579.32568 409.95149,579.83268 410.22049,580.21968 C 410.54449,580.68568 411.15649,580.91268 411.79249,580.91468 C 412.19649,580.91468 412.72649,580.84968 413.29449,580.66468 C 414.02349,580.42768 414.47549,580.21568 414.95049,579.96668 C 415.01149,579.93368 415.25749,579.80268 415.71549,579.53768 L 416.48149,579.08668 C 416.48149,579.08668 416.52949,579.39268 416.67649,579.66668 C 417.05949,580.37868 417.80649,580.85768 418.87749,580.85568 C 420.73549,580.85168 422.28149,579.13768 422.61849,578.35568 L 423.03849,578.49468 C 423.78449,578.70468 424.59749,578.73368 424.59749,578.73368 C 424.76849,579.97268 425.97549,580.91268 427.56549,580.90768 C 428.61649,580.90168 429.81549,580.42468 430.36349,580.15668 C 431.68649,579.50468 432.18049,579.11368 432.18049,579.11368 C 432.16649,580.18568 432.86249,580.87968 434.02249,580.88368 C 434.61449,580.88368 435.25449,580.73268 435.95349,580.42768 C 436.59049,580.14968 437.14549,579.79168 438.02749,579.22868 C 438.02749,579.22868 438.00149,579.80568 438.42049,580.30068 C 438.72049,580.65568 439.24849,580.86568 439.86949,580.86868 C 440.86049,580.87468 442.26249,580.37368 444.05149,579.09068 C 444.05149,579.09068 444.18949,579.82968 444.62749,580.22368 C 445.03449,580.59268 445.57249,580.77468 446.17949,580.77068 C 447.01349,580.76468 448.07949,580.36168 448.90349,579.48368 C 449.01649,580.43768 449.79049,580.75168 450.44949,580.78868 C 451.02649,580.81868 451.71849,580.59368 452.46749,580.04668 C 452.92149,579.71568 453.75549,578.99468 453.75549,578.60768 C 453.75549,578.43768 453.55649,578.32468 453.44649,578.32468"
         id="path3866" />
    </g>
  </g>
</svg>
