<?xml version="1.0" encoding="UTF-8" standalone="no"?>
<!-- Created with Inkscape (http://www.inkscape.org/) -->

<svg
   xmlns:dc="http://purl.org/dc/elements/1.1/"
   xmlns:cc="http://creativecommons.org/ns#"
   xmlns:rdf="http://www.w3.org/1999/02/22-rdf-syntax-ns#"
   xmlns:svg="http://www.w3.org/2000/svg"
   xmlns="http://www.w3.org/2000/svg"
   xmlns:sodipodi="http://sodipodi.sourceforge.net/DTD/sodipodi-0.dtd"
   xmlns:inkscape="http://www.inkscape.org/namespaces/inkscape"
   id="svg2985"
   version="1.1"
   inkscape:version="0.48.2 r9819"
   width="999.99994"
   height="584.76617"
   xml:space="preserve"
   sodipodi:docname="dairycrest-annual-report-2000.pdf"><metadata
     id="metadata2991"><rdf:RDF><cc:Work
         rdf:about=""><dc:format>image/svg+xml</dc:format><dc:type
           rdf:resource="http://purl.org/dc/dcmitype/StillImage" /><dc:title></dc:title></cc:Work></rdf:RDF></metadata><defs
     id="defs2989"><clipPath
       clipPathUnits="userSpaceOnUse"
       id="clipPath3001"><path
         d="m 45,1146 613,0 0,-860 -613,0 0,860 z"
         id="path3003"
         inkscape:connector-curvature="0" /></clipPath><clipPath
       clipPathUnits="userSpaceOnUse"
       id="clipPath3007"><path
         d="m 0,1191.12 841.92,0 L 841.92,0 0,0 0,1191.12 z"
         id="path3009"
         inkscape:connector-curvature="0" /></clipPath><clipPath
       clipPathUnits="userSpaceOnUse"
       id="clipPath3155"><path
         d="m 266.6,581.71 206.36,0 0,-223.49 -206.36,0 0,223.49 z"
         clip-rule="evenodd"
         id="path3157"
         inkscape:connector-curvature="0" /></clipPath><clipPath
       clipPathUnits="userSpaceOnUse"
       id="clipPath3163"><path
         d="m 266.59801,358.22301 206.35899,0 0,223.48498 -206.35899,0 0,-223.48498 z"
         id="path3165"
         inkscape:connector-curvature="0" /></clipPath><clipPath
       clipPathUnits="userSpaceOnUse"
       id="clipPath3171"><path
         d="m 266.6,581.71 206.36,0 0,-223.49 -206.36,0 0,223.49 z"
         clip-rule="evenodd"
         id="path3173"
         inkscape:connector-curvature="0" /></clipPath><clipPath
       clipPathUnits="userSpaceOnUse"
       id="clipPath3277"><path
         d="m 113.279,869.051 5.318,7.072 2.442,2.63 2.007,0.751 1.374,-0.375 1.819,-0.564 2.125,-0.939 2.066,-0.939 1.256,-0.687 5.13,-1.632 8.141,-3.064 8.012,-3.322 10.771,-4.132 7.39,-2.876 14.838,-5.764 11.892,-4.696 6.89,-2.688 5.195,-2.066 3.821,-1.567 0.563,-1.503 -0.375,-7.39 -0.065,-9.579 -0.44,-12.144 -0.311,-2.753 -1.878,-4.824 -2.753,-3.88 -6.01,-7.513 -9.392,-14.903 -5.323,-8.951 -2.067,-2.694 -1.502,-2.002 -2.002,-1.813 -2.571,0 -9.825,3.944 -21.788,9.016 -15.091,6.257 -18.782,7.513 -13.401,5.576 -8.51,3.251 -1.749,1.099 -0.946,1.66 -0.563,16.464 0.065,12.649 2.254,6.633 6.509,9.08 10.33,14.339 5.136,7.326"
         clip-rule="evenodd"
         id="path3279"
         inkscape:connector-curvature="0" /></clipPath><clipPath
       clipPathUnits="userSpaceOnUse"
       id="clipPath3283"><path
         d="m 113.24,869.39 5.31,7.09 c 0.57,0.95 2.44,2.64 2.44,2.64 0,0 1.58,0.88 2.01,0.75 0.43,-0.12 0.81,-0.37 1.37,-0.37 0.57,0 1.82,-0.57 1.82,-0.57 1,-0.56 2.12,-0.94 2.12,-0.94 l 2.07,-0.94 c 0,0 0.57,-0.44 1.25,-0.69 0.69,-0.25 3.12,-0.88 5.13,-1.64 l 8.13,-3.07 8.01,-3.33 10.76,-4.15 7.38,-2.88 14.83,-5.78 11.88,-4.71 6.88,-2.7 5.19,-2.07 c 0.94,-0.32 3.26,-0.94 3.82,-1.57 0.56,-0.63 0.56,-1.51 0.56,-1.51 l -0.37,-7.41 -0.07,-9.6 -0.44,-12.18 c 0,0 0,-1.45 -0.31,-2.77 -0.31,-1.31 -1.87,-4.83 -1.87,-4.83 0,0 -1.31,-2.45 -2.75,-3.9 -1.45,-1.44 -4.7,-5.52 -6.01,-7.53 l -9.38,-14.95 -5.32,-8.97 c -0.63,-1.32 -1.63,-2.39 -2.07,-2.71 -0.44,-0.31 -1.5,-2 -1.5,-2 0,0 -1.25,-1.57 -2,-1.82 -0.75,-0.25 -1.44,-0.31 -2.57,0 l -9.81,3.95 -36.85,15.32 -18.76,7.54 -13.39,5.59 -8.51,3.26 c -1.25,0.56 -2.5,1.45 -2.69,2.77 l -0.56,16.51 0.06,12.68 c 0.13,1.95 1.01,4.9 2.26,6.66 l 6.5,9.1 10.32,14.38 5.13,7.35"
         clip-rule="evenodd"
         id="path3285"
         inkscape:connector-curvature="0" /></clipPath><clipPath
       clipPathUnits="userSpaceOnUse"
       id="clipPath3295"><path
         d="m 104.237,791.21 6.574,7.513 4.719,3.429 4.499,1.67 5.714,0.348 6.668,-1.503 12.491,-4.414 31.648,-12.866 17.938,-7.513 13.054,-5.916 1.818,-1.268 2.032,-2.113 2.57,-2.723 1.905,-2.901 1.16,-3.486 0.867,-2.112 0.729,-4.086 -0.964,-3.521 -0.82,-1.55 -7.701,-11.176 -2.629,-4.32 -0.564,-1.878 -0.939,-2.912 -7.795,-11.927 -9.579,-14.462 -3.288,-4.742 -3.849,-3.335 -3.652,-0.844 -3.579,0.281 -12.867,5.259 -23.102,10.048 -30.24,13.148 -8.922,3.757 -2.466,1.597 -1.76,2.159 -2.724,13.43 -3.628,2.373 -2.91,2.7 -2.196,3.473 -1.022,6.129 0.459,2.323 1.315,2.911 1.972,4.508 14.275,18.126 4.789,6.386"
         clip-rule="evenodd"
         id="path3297"
         inkscape:connector-curvature="0" /></clipPath><clipPath
       clipPathUnits="userSpaceOnUse"
       id="clipPath3301"><path
         d="m 104.12,791.3 6.55,7.52 c 1.03,1.03 6.55,6.29 14.88,5.45 0,0 4.31,-0.57 6.65,-1.5 l 12.45,-4.42 31.55,-12.88 17.88,-7.52 13.01,-5.92 c 0,0 3.56,-2.25 3.84,-3.38 0,0 4.96,-4.23 5.61,-9.12 0,0 1.78,-3.57 1.6,-6.2 -0.19,-2.63 -1.78,-5.08 -1.78,-5.08 l -7.68,-11.18 c 0,0 -2.06,-3.2 -2.62,-4.32 -0.56,-1.13 -0.47,-1.32 -0.56,-1.88 -0.1,-0.57 -0.38,-1.79 -0.94,-2.92 l -7.77,-11.93 c 0,0 -8.05,-11.56 -9.55,-14.48 -1.49,-2.91 -4.86,-7.05 -7.11,-8.08 -2.25,-1.03 -5.06,-1.03 -7.21,-0.56 -2.15,0.47 -12.82,5.26 -12.82,5.26 l -23.03,10.06 -30.15,13.15 -8.89,3.76 c -1.59,0.75 -3.56,2.26 -4.21,3.76 -0.66,1.51 -2.72,13.44 -2.72,13.44 0,0 -6.74,3.48 -8.7,8.55 -1.97,5.08 -0.56,8.46 -0.56,8.46 0,0 0.65,2.07 1.31,2.92 0,0 0.47,2.44 1.96,4.51 l 14.23,18.14 4.78,6.39"
         clip-rule="evenodd"
         id="path3303"
         inkscape:connector-curvature="0" /></clipPath><clipPath
       clipPathUnits="userSpaceOnUse"
       id="clipPath3313"><path
         d="m 87.7,655.003 0.586,-3.403 1.552,-2.856 3.121,-2.381 14.034,-6.149 26.396,-11.343 27.452,-11.378 17.203,-6.254 2.019,-0.516 1.941,0.359 2.051,1.66 7.888,12.021 10.894,18.782 8.077,12.585 1.338,2.935 1.479,4.766 1.691,22.727 -0.565,2.114 -1.814,2.007 -3.82,2.077 -85.085,33.057 -2.325,1.058 -2.193,-0.184 -2.244,-2.001 -15.613,-23.314 -13.5,-20.074 -1.126,-6.198 0.563,-20.097"
         clip-rule="evenodd"
         id="path3315"
         inkscape:connector-curvature="0" /></clipPath><clipPath
       clipPathUnits="userSpaceOnUse"
       id="clipPath3319"><path
         d="m 87.67,654.89 -0.56,20.06 c 0,1.87 1.13,6.18 1.13,6.18 l 29.08,43.31 c 2.82,4.31 6.76,1.12 6.76,1.12 l 85.01,-32.99 c 6.76,-2.63 6.19,-6.19 6.19,-6.19 l -1.69,-22.68 c -0.18,-2.44 -2.81,-7.69 -2.81,-7.69 l -8.07,-12.56 -10.88,-18.74 c -2.44,-3.94 -5.26,-8.63 -7.89,-12 -2.62,-3.37 -6,-1.5 -6,-1.5 -11.07,2.63 -79.57,32.62 -85.01,35.06 -5.44,2.43 -5.26,8.62 -5.26,8.62"
         clip-rule="evenodd"
         id="path3321"
         inkscape:connector-curvature="0" /></clipPath></defs><sodipodi:namedview
     pagecolor="#ffffff"
     bordercolor="#666666"
     borderopacity="1"
     objecttolerance="10"
     gridtolerance="10"
     guidetolerance="10"
     inkscape:pageopacity="0"
     inkscape:pageshadow="2"
     inkscape:window-width="1920"
     inkscape:window-height="1028"
     id="namedview2987"
     showgrid="false"
     fit-margin-left="0.5"
     fit-margin-top="0.5"
     fit-margin-bottom="0.5"
     fit-margin-right="0.5"
     inkscape:zoom="0.44720124"
     inkscape:cx="919.57934"
     inkscape:cy="-29.44246"
     inkscape:window-x="-8"
     inkscape:window-y="-8"
     inkscape:window-maximized="1"
     inkscape:current-layer="g2993" /><g
     id="g2993"
     inkscape:groupmode="layer"
     inkscape:label="dairycrest-annual-report-2000"
     transform="matrix(1.25,0,0,-1.25,210.54901,1174.1668)"><path
       d="m 477.16903,596.83904 c -13.07092,-12.262 -29.0892,-19.21393 -45.44386,-19.21393 -16.20249,0 -30.92329,6.15102 -42.57659,17.81233 -7.03203,7.04003 -12.51825,15.64986 -16.27453,25.37295 -7.2723,-3.64416 -13.80776,-8.3295 -19.41416,-13.98396 -3.58009,-3.63615 -6.95994,-7.74483 -9.85925,-12.39815 -4.08466,-6.50342 -7.14415,-13.12698 -8.91417,-19.43017 32.30086,-1.21739 58.55478,-9.72309 76.23896,-17.01141 1.47368,0.86499 2.35469,1.36956 3.57208,2.04233 5.33408,2.93935 9.41074,4.02059 16.15443,6.41532 7.05605,2.50686 15.03316,4.59725 23.73108,6.23912 10.05147,1.87414 21.68875,3.22768 32.87752,3.83638 -2.42677,7.2723 -5.97482,14.17618 -10.09151,20.31919"
       style="fill:#fab20b;fill-opacity:1;fill-rule:nonzero;stroke:none"
       id="path3179"
       inkscape:connector-curvature="0" /><path
       d="m 451.91621,612.02437 c 3.5961,0 7.12813,0.46453 10.58007,1.36155 -0.63272,0.54462 -1.26544,1.05721 -1.89816,1.56178 -11.43706,8.98626 -25.70934,14.1041 -42.04799,14.94506 1.34554,-1.69794 2.77116,-3.3238 4.2929,-4.84553 8.51372,-8.51372 18.32491,-13.02286 29.07318,-13.02286"
       style="fill:#fab20b;fill-opacity:1;fill-rule:nonzero;stroke:none"
       id="path3181"
       inkscape:connector-curvature="0" /><path
       d="m 327.27,817.86727 c 7.01601,5.68649 10.47596,13.34323 10.58008,23.41072 0.0961,9.4668 -2.77117,17.41187 -8.29747,22.9622 -3.37986,3.38787 -9.57893,7.61669 -19.95878,8.47367 l -2.03432,0.1762 -3.0675,0.2563 2.06636,4.67733 c 2.58695,5.85468 3.89244,12.07779 3.89244,18.50913 0,9.71508 -3.29977,18.37296 -9.30662,24.37982 -5.27803,5.27802 -12.41417,8.18534 -20.11095,8.18534 -3.68421,0 -6.86384,-0.55263 -10.04346,-1.74599 l -0.98513,-0.37643 -1.49771,-0.56064 -0.98512,1.25743 -0.66476,0.83295 c -5.58237,7.05605 -13.03888,10.62813 -22.14527,10.62813 -7.881,0 -15.49769,-3.27574 -21.44047,-9.22653 -6.6556,-6.64758 -10.87641,-16.16244 -11.89357,-26.77455 l -0.20023,-2.13043 -0.31236,-3.17963 -2.85125,1.44164 -1.90618,0.9611 c -5.28603,2.67505 -11.08465,4.10068 -17.23567,4.25285 -9.23453,0.23227 -17.6201,-2.77116 -23.59492,-8.45765 -5.48626,-5.22196 -8.62585,-12.46222 -8.81807,-20.38326 -0.11212,-4.25285 0.51259,-7.93706 1.95423,-11.58122 l 0.38444,-0.9691 0.57666,-1.45767 -1.19336,-1.00915 -0.79291,-0.68077 c -6.63957,-5.67048 -10.2597,-13.143 -10.45993,-21.61667 -0.18421,-8.18534 2.84324,-15.95421 8.51371,-21.88097 6.88786,-7.17619 17.13155,-11.26085 28.87295,-11.48511 8.59381,-0.16819 16.87526,1.85812 24.59607,6.03088 l 2.37872,1.28947 3.58809,1.93021 -0.36842,-4.05263 -0.23226,-2.69908 c -0.14417,-1.56979 -0.21625,-3.13958 -0.21625,-4.65331 0,-10.05147 2.73112,-21.20019 7.89701,-32.26082 0,0 0.92105,-2.00228 0.92105,-2.01029 1.60984,-3.54004 2.99542,-6.59953 7.3604,-12.60639 4.381,-6.03088 7.01601,-7.94506 8.47367,-7.84895 1.14531,0.0721 3.28375,0.63272 3.74027,3.18764 0.62471,3.52402 0.45652,9.88327 2.99542,12.57434 3.19565,3.37185 10.80433,2.7151 14.95306,2.81922 3.45995,0.0961 3.49199,3.89244 2.1865,5.83867 l -5.10983,6.72767 c -9.2025,11.62927 -13.88785,22.05717 -13.88785,31.00338 0,3.29977 0,13.33522 9.14644,15.38556 l 1.85011,0.42449 2.77116,0.6167 -0.10412,-2.84325 -0.0801,-1.89015 c -0.63272,-16.35467 4.26887,-29.86609 14.56863,-40.17385 7.20021,-7.19221 14.2883,-8.60181 24.0995,-8.60181 20.13498,0 32.65326,10.45993 32.65326,27.29514 0,4.4691 -0.80091,9.05033 -2.37871,13.59952 l -0.33639,0.96911 -0.49656,1.44965 1.19336,0.9611 0.7929,0.64874"
       style="fill:#fab20b;fill-opacity:1;fill-rule:nonzero;stroke:none"
       id="path3183"
       inkscape:connector-curvature="0" /><path
       d="m 115.72459,772.31128 0.048,24.74825 82.366,-0.24028 -0.24028,-24.16357 -82.17377,-0.3444"
       style="fill:#ed192e;fill-opacity:1;fill-rule:nonzero;stroke:none"
       id="path3185"
       inkscape:connector-curvature="0" /><path
       d="m 558.5499,563.04847 33.92671,-0.04 c 7.76086,0.24027 9.635,-2.14645 9.635,-9.86726 l 0,-7.47253 c 0,-6.8398 -1.20938,-8.55376 -7.56864,-10.77229 l -7.31234,-2.50686 c -7.28832,-2.31464 -8.61784,-4.74141 -8.92218,-9.20251 l -0.17621,0.024 0,15.49769 -19.68646,0.12014 0.10412,24.21963"
       style="fill:#ed192e;fill-opacity:1;fill-rule:nonzero;stroke:none"
       id="path3187"
       inkscape:connector-curvature="0" /><path
       d="m 606.36446,544.94782 3.03547,0 c 10.39586,0 17.46793,-3.61212 21.59264,-11.0366 l 0,-26.3821 c -7.14415,8.95421 -13.77572,12.51828 -23.25854,12.51828 -1.746,0 -3.59611,-0.18421 -5.52631,-0.57666 l -4.85354,-0.96109 c -2.03432,-0.40847 -4.70136,-0.57666 -6.59953,-0.57666 -5.91876,0 -8.34552,1.48169 -8.34552,4.35697 0,2.63501 2.44278,4.58924 8.39357,6.71166 l 6.20709,2.21052 c 6.58351,2.34668 9.29861,5.4302 9.37069,11.60525 l -0.016,2.13043"
       style="fill:#ed192e;fill-opacity:1;fill-rule:nonzero;stroke:none"
       id="path3189"
       inkscape:connector-curvature="0" /><path
       d="m 341.49424,772.65568 251.15057,-0.32037 c 7.76085,-0.24027 9.63499,2.16247 9.63499,9.87527 l 0,7.45651 c 0,6.83981 -1.20938,8.56177 -7.56864,10.78831 l -7.31234,2.49885 c -7.28832,2.30664 -8.62584,4.74141 -8.93019,9.1945 l -0.16018,-0.016 0,-15.49769 -236.81421,0.0801 0,-24.05945"
       style="fill:#ed192e;fill-opacity:1;fill-rule:nonzero;stroke:none"
       id="path3191"
       inkscape:connector-curvature="0" /><path
       d="m 606.52465,790.39592 3.04347,0 c 10.39586,0 17.46793,3.61212 21.59264,11.0366 l 0,26.3821 c -7.14415,-8.95422 -13.76771,-12.52629 -23.25854,-12.52629 -1.74599,0 -3.59611,0.19222 -5.52631,0.58467 l -4.85354,0.9691 c -2.03432,0.40847 -4.70136,0.56865 -6.59953,0.56865 -5.91875,0 -8.34552,-1.48169 -8.34552,-4.36498 0,-2.63501 2.44278,-4.58123 8.39358,-6.70365 l 6.19907,-2.20251 c 6.59152,-2.35469 9.30662,-5.43821 9.3787,-11.62127 l -0.024,-2.12242"
       style="fill:#ed192e;fill-opacity:1;fill-rule:nonzero;stroke:none"
       id="path3193"
       inkscape:connector-curvature="0" /><path
       d="m 276.63622,563.08852 -406.11946,-0.18421 c -7.74484,0.23227 -9.62699,-2.15446 -9.635,-9.87527 l 0,-7.45651 c -0.008,-6.84781 1.20138,-8.56978 7.55262,-10.79632 l 7.30434,-2.49885 c 7.28832,-2.31464 8.62584,-4.74942 8.93019,-9.21051 l 0.16018,0.016 0.016,15.50569 402.69956,0.44851 -10.90845,24.05145"
       style="fill:#ed192e;fill-opacity:1;fill-rule:nonzero;stroke:none"
       id="path3195"
       inkscape:connector-curvature="0" /><path
       d="m -143.3791,544.8437 -3.03546,0.008 c -10.39587,0.008 -17.46794,-3.60411 -21.60065,-11.02058 l -0.024,-26.39011 c 7.15216,8.95421 13.78373,12.51828 23.27456,12.51027 1.74599,0 3.5961,-0.19222 5.52631,-0.58466 l 4.85354,-0.97712 c 2.02631,-0.40847 4.69335,-0.57666 6.59953,-0.57666 5.91875,0 8.33751,1.4897 8.33751,4.36498 0,2.63501 -2.43478,4.58123 -8.38557,6.70365 l -6.19106,2.21854 c -6.59152,2.36269 -9.29861,5.4382 -9.3707,11.61325 l 0.016,2.13043"
       style="fill:#ed192e;fill-opacity:1;fill-rule:nonzero;stroke:none"
       id="path3197"
       inkscape:connector-curvature="0" /><path
       d="m -143.29901,790.70828 -3.03546,0 c -10.39586,-0.008 -17.46793,3.5961 -21.60065,11.01257 l -0.024,26.39011 c 7.15216,-8.94621 13.78373,-12.51028 23.27456,-12.50227 1.74599,0 3.59611,0.19222 5.5183,0.57666 l 4.85354,0.97712 c 2.03432,0.40846 4.70136,0.56865 6.59953,0.57666 5.91875,0 8.34552,-1.4817 8.34552,-4.36499 0,-2.62699 -2.43478,-4.57322 -8.38557,-6.70365 l -6.19106,-2.21052 c -6.59953,-2.3627 -9.29861,-5.44621 -9.3787,-11.62927 l 0.024,-2.12242"
       style="fill:#ed192e;fill-opacity:1;fill-rule:nonzero;stroke:none"
       id="path3199"
       inkscape:connector-curvature="0" /><path
       d="m -127.94549,772.6797 c 2.93135,3.71624 6.08695,7.28031 9.47482,10.66818 4.93363,4.92562 10.25971,9.41875 15.91416,13.45535 l -12.51829,-0.20023 -0.016,15.8581 -0.16819,0.024 c -0.29634,-4.46109 -1.63386,-6.88786 -8.92218,-9.2025 l -7.30434,-2.50686 c -6.35124,-2.23455 -7.56062,-3.94851 -7.55261,-10.78831 l 0,-7.45651 c 0.008,-6.92791 5.1739,-9.56292 11.09265,-9.85125"
       style="fill:#ed192e;fill-opacity:1;fill-rule:nonzero;stroke:none"
       id="path3201"
       inkscape:connector-curvature="0" /><path
       d="m 526.56139,476.73397 c 5.39015,6.71967 8.98626,13.76771 8.98626,23.50683 0,3.28375 -0.27231,6.43935 -0.82494,9.45879 0,0 -1.3135,6.93592 -1.33753,7.64072 -0.36842,10.03546 4.66132,12.1739 6.58351,14.25627 2.16247,2.33066 2.93936,6.6556 2.93936,10.4279 0,1.56979 -0.21625,3.01945 -0.62472,4.28489 l -1.47368,4.51716 c -0.24828,0.76887 -0.39245,1.77002 -0.37643,2.94736 0.0561,7.67276 4.08466,12.40616 4.08466,12.40616 0,0 -22.48966,4.93363 -43.32944,4.88557 -14.35238,-0.024 -31.26769,-1.54576 -45.01137,-4.1247 -8.41761,-1.56979 -16.05032,-3.58009 -22.83406,-5.99084 -5.71852,-2.02631 -9.93133,-2.85125 -14.72881,-5.44622 32.73336,-12.9748 78.87401,-40.22991 107.94719,-78.76989 z"
       style="fill:#006b3b;fill-opacity:1;fill-rule:nonzero;stroke:none"
       id="path3203"
       inkscape:connector-curvature="0" /><path
       d="m 474.81434,486.53716 c -1.10526,3.00343 -2.49084,3.75629 -9.67504,5.24599 -3.30778,0.68878 -3.68421,0.92906 -5.62242,3.53203 -1.48169,1.96224 -3.03546,3.03546 -4.42905,3.03546 -1.32952,0 -2.13844,-0.43249 -4.58123,-2.48283 -0.53661,-0.44851 -1.35355,-1.08924 -2.4508,-1.9302 1.93821,8.16932 2.47483,9.36268 6.79976,15.26542 -2.06636,-0.72884 -2.67505,-1.28948 -5.47825,-4.9897 -1.03318,-1.36956 -1.8421,-1.99427 -2.55492,-1.99427 -0.95308,0 -1.60983,0.95308 -1.60983,2.33867 0,1.34553 0.52059,3.94049 1.79404,8.86611 -2.80319,-2.09839 -4.86955,-3.74027 -6.19106,-4.88557 -2.83524,-2.48284 -4.34095,-3.38787 -5.62242,-3.38787 -2.4588,0 -3.89244,2.57094 -5.99884,10.78831 l -6.25514,-10.28373 -4.62127,15.2494 c -2.01831,-3.45995 -2.4508,-3.91647 -4.02059,-4.16475 -2.54691,-0.40046 -3.45995,-1.72998 -4.24485,-6.15102 l -0.56865,-3.16361 -17.05145,13.79975 0.97711,-14.09609 -1.72997,1.754 -3.10755,3.508 c -3.27574,3.74027 -8.00914,6.06292 -12.25394,6.06292 -2.19451,0 -3.3238,-0.29634 -5.79862,-1.52974 4.58924,-1.11327 5.86269,-1.71396 8.40155,-3.92448 2.76315,-2.41075 4.17276,-4.61327 6.42333,-10.01944 -4.78146,2.43478 -6.90388,3.10755 -9.78713,3.10755 -4.00457,0 -7.40045,-1.46567 -10.76429,-4.66933 6.50342,-2.08237 8.77001,-3.82837 11.17275,-8.5858 -6.56749,-0.89702 -12.59837,-3.04347 -12.59837,-4.46109 0,-0.80892 2.21853,-1.12929 8.51371,-1.18535 4.99771,2.65103 8.62581,3.62013 13.59147,3.62013 6.69564,0 8.90617,-0.89702 18.58121,-7.54461 3.43592,-2.35468 5.11784,-3.1556 6.71166,-3.1556 0.98512,0 1.72196,0.40847 2.46681,1.36956 0.14417,0.20824 0.64073,0.84096 1.44165,1.91419 3.82036,5.06177 8.65788,7.38443 15.36153,7.38443 4.25285,0 6.54346,-0.6087 12.04574,-3.26773 2.1865,-1.06522 3.6762,-1.52174 4.86155,-1.52174 0.83295,0 1.54577,0.24027 2.84325,0.92906 2.59496,1.42563 3.9485,1.86613 5.67848,1.86613 1.70594,0 3.29175,-0.53661 5.33408,-1.79405 2.56293,-1.5778 3.12357,-1.8421 4.06865,-1.8421 0.47254,0 0.88901,0.13616 1.21739,0.36842 l 1.15331,0.83295 c 0.85698,0.6167 1.8421,0.88101 3.29176,0.88101 0.94508,0 2.11441,-0.19222 4.28489,-0.68879"
       style="fill:#006b3b;fill-opacity:1;fill-rule:nonzero;stroke:none"
       id="path3205"
       inkscape:connector-curvature="0" /><path
       d="m 312.4611,531.15608 c -0.60068,-0.032 -1.20137,-0.0481 -1.80205,-0.0481 -1.46568,0 -2.12243,0.11213 -4.15675,0.68078 2.41075,1.92219 3.78833,2.41075 10.05147,3.52402 -2.42677,4.10869 -3.64416,5.05377 -8.70593,6.75972 2.75514,2.41876 4.72539,3.22768 7.76085,3.22768 2.68307,0 4.4611,-0.52059 8.18535,-2.41876 -3.09153,7.55262 -5.15789,9.61097 -11.24484,11.25284 1.86613,0.49657 2.70709,0.63272 3.88444,0.63272 4.59724,0 6.86383,-1.49771 13.20707,-8.72996 l -0.48856,10.82035 12.95879,-10.66017 c 0.74485,5.36613 1.47368,7.17619 2.91533,7.33638 l 1.10526,0.12814 c 0.63272,0.0641 1.01716,0.3524 1.54576,1.18536 l 1.06522,1.64187 3.78031,-11.72538 5.33409,8.48969 3.01143,-9.20251 c 0.73685,-2.25857 0.9611,-2.44278 2.9714,-2.44278 l 0.20823,0.008 4.50114,0.10411 0.36041,0 c 2.77917,0 3.86842,-0.58466 3.86842,-2.07436 0,-0.64073 -0.72083,-2.84325 -1.71396,-5.27803 -0.7048,-1.72196 -1.56178,-2.61898 -2.49084,-2.61898 -0.48856,0 -1.17735,0.20823 -2.01831,0.59267 -2.69908,1.24943 -5.1739,1.81808 -7.92904,1.81808 -6.00686,0 -10.01944,-2.03432 -13.35124,-6.76773 -0.83295,-1.16132 -1.44165,-1.58581 -2.31464,-1.58581 -1.3135,0 -2.84325,0.77689 -5.43821,2.75515 -6.35926,4.85354 -8.38557,5.72653 -13.29517,5.72653 -3.86041,0 -6.86383,-0.7929 -11.76543,-3.13157"
       style="fill:#006b3b;fill-opacity:1;fill-rule:nonzero;stroke:none"
       id="path3207"
       inkscape:connector-curvature="0" /><path
       d="m 247.29874,848.49422 18.11667,66.17953 c -4.43706,11.10066 -11.00455,16.24253 -20.70362,16.24253 -14.2803,0 -25.55717,-14.51256 -25.55717,-32.90955 0,-17.53201 9.19449,-33.68645 28.14412,-49.51251"
       style="fill:#006b3b;fill-opacity:1;fill-rule:nonzero;stroke:none"
       id="path3209"
       inkscape:connector-curvature="0" /><path
       d="m 170.61923,858.61778 c -9.8192,-4.44508 -15.46565,-11.44507 -15.66587,-20.6796 -0.32037,-13.89586 11.46908,-24.81232 29.52169,-25.16472 17.28372,-0.33639 31.27569,9.3787 46.36491,29.52169 l -60.22073,16.32263"
       style="fill:#006b3b;fill-opacity:1;fill-rule:nonzero;stroke:none"
       id="path3211"
       inkscape:connector-curvature="0" /><path
       d="m 329.83293,841.35808 c 0.14416,14.68075 -8.11326,23.60293 -24.41987,23.50682 -11.44506,-0.0641 -25.18074,-7.79289 -32.64525,-17.72422 l -3.53204,-4.70137 c -2.66704,0.20824 -3.81235,0.2563 -5.41417,0.2563 -24.25168,0 -41.74364,-16.80318 -41.74364,-40.09376 0,-8.82607 2.49885,-18.93361 7.13614,-28.85693 1.97826,-4.22883 3.19565,-6.46338 7.29633,-13.39929 0.16018,-0.24829 0.28833,-0.4405 0.38444,-0.57666 0.1762,-0.28032 0.39245,-0.44851 0.56064,-0.44851 0.2643,0 0.41647,0.12814 0.41647,0.37643 0,0.0961 -0.016,0.21624 -0.0481,0.33638 -0.14417,1.00915 -0.18421,1.45767 -0.18421,2.09039 0,7.6247 4.01258,11.49311 11.94963,11.49311 l 0.60069,-0.016 0.4405,-0.016 c 0.64874,0 0.88101,0.12814 0.88101,0.48054 0,0.17621 -0.0801,0.36843 -0.28833,0.60069 -10.77229,13.61554 -15.64986,24.6201 -15.64986,35.36035 0,15.04918 8.04918,24.22765 21.60866,24.22765 2.30663,0 4.38901,-0.5286 6.93591,-1.15331 l 50.40152,-13.79174 c 9.82722,4.96566 15.19334,10.14758 15.31348,22.04916"
       style="fill:#006b3b;fill-opacity:1;fill-rule:nonzero;stroke:none"
       id="path3213"
       inkscape:connector-curvature="0" /><path
       d="m 253.66601,670.0666 c 0.0961,-1.62585 0.13615,-3.25972 0.13615,-4.89358 0,-47.02967 -30.04228,-79.69094 -73.28363,-79.69094 -41.39123,0 -70.46441,32.30086 -70.46441,78.30536 0,36.2814 27.57547,74.73328 71.93008,74.73328 41.04685,0 69.44726,-27.12696 71.68181,-68.45412 z m -33.294,-16.36267 c 0,40.91069 -17.6121,69.35915 -42.95302,69.35915 -21.8249,0 -33.76653,-17.04345 -33.76653,-48.23104 0,-43.68185 17.06748,-73.48386 42.08803,-73.48386 21.22422,0 34.63152,20.27113 34.63152,52.35575"
       style="fill:#006b3b;fill-opacity:1;fill-rule:nonzero;stroke:none"
       id="path3215"
       inkscape:connector-curvature="0" /><path
       d="m 49.889458,791.67738 1.577801,-63.07197 c 0,-2.04233 -0.672768,-2.9794 -2.170477,-2.9794 -1.754002,0 -2.739126,1.00114 -4.364981,4.39701 -0.184211,0.36042 -3.067501,5.75858 -4.381,8.34553 -19.622393,38.50794 -41.7276191,56.961 -68.245881,56.961 -40.269956,0 -68.390047,-40.34204 -68.390047,-98.09594 0,-54.96673 31.275692,-89.01359 81.757301,-89.01359 24.548014,0 43.617776,7.59267 58.715005,23.37067 1.153316,1.19337 1.834093,1.90618 2.026313,2.0984 0.536612,0.55263 1.121279,1.01716 1.737983,1.40961 0.768877,0.48055 1.633864,0.74485 2.474824,0.74485 1.818075,0 2.835236,-1.03318 2.835236,-2.85126 0,-2.48283 -3.564068,-8.81806 -9.074356,-16.1224 -18.020565,-23.88325 -45.0674304,-37.28254 -75.293925,-37.28254 -62.67152,0 -112.264114,51.55483 -112.264114,116.70919 0,65.09028 52.571994,114.15427 122.315585,114.15427 25.9976684,0 49.096028,-6.12699 70.744733,-18.77343"
       style="fill:#006b3b;fill-opacity:1;fill-rule:nonzero;stroke:none"
       id="path3217"
       inkscape:connector-curvature="0" /><path
       d="m 70.488966,839.41186 -2.154458,4.00457 c -0.352403,0.66476 -0.528604,1.29748 -0.528604,1.85011 0,1.0492 0.913042,1.89016 2.066359,1.89016 2.258577,0 7.024015,-4.52517 12.358102,-11.71738 13.671602,-18.42903 20.591495,-44.75507 20.591495,-78.32138 0,-13.24711 -1.18535,-25.84549 -4.477105,-47.40609 -5.694498,-37.37866 -6.815778,-48.05484 -6.815778,-64.94612 0,-29.20933 4.397018,-45.33974 15.417593,-56.53652 1.60183,-1.62585 2.0103,-2.35469 2.0103,-3.53203 0,-1.62586 -1.27346,-2.87528 -2.94737,-2.87528 -3.09954,0 -10.532017,5.77459 -16.755119,13.02286 -15.842079,18.44505 -25.653275,51.41868 -25.653275,86.27446 0,13.41531 1.129289,27.41528 3.251711,40.49421 0.192219,1.16132 1.818075,9.65902 4.877566,25.46105 4.37299,22.59379 6.407312,40.16584 6.407312,55.40723 0,13.5835 -3.067501,28.37639 -7.648729,36.93015"
       style="fill:#006b3b;fill-opacity:1;fill-rule:nonzero;stroke:none"
       id="path3219"
       inkscape:connector-curvature="0" /><path
       d="m 555.61855,705.71528 c 6.8318,11.9096 10.36383,16.5549 16.9073,22.23338 7.32836,6.35925 13.19906,9.08236 21.63268,9.08236 8.36955,0 13.97595,-1.97025 20.47137,-8.63385 0,0 -0.0561,-38.2036 -0.0561,-39.66126 0,-1.63387 -0.28032,-3.09153 -1.91418,-3.09153 -2.0984,0 -2.45881,1.54576 -3.28375,2.73112 -0.81693,1.18535 -0.57666,0.81693 -2.0984,3.49198 -8.44964,14.897 -15.44162,20.26313 -26.35007,20.26313 -13.95993,0 -25.6773,-15.08121 -25.6773,-33.07775 l 0,-54.51822 c 0,-10.97252 0.0801,-11.6533 1.90618,-15.9542 1.16933,-2.77117 2.95537,-5.254 5.44621,-7.56063 2.59496,-2.40274 6.71166,-4.9897 9.87527,-6.49542 0.94508,-0.45652 1.45766,-1.16132 1.45766,-1.82608 0,-0.68879 -0.45652,-1.82608 -1.81006,-1.87414 l -0.54462,0 -66.29165,0.0401 -0.90504,0 c -0.92105,0 -1.46567,0.84096 -1.46567,1.63386 0,0.57666 0.24828,1.20938 1.29748,1.79405 l 1.56979,0.85698 c 5.08581,2.81121 9.03431,6.0469 11.48511,9.42676 2.48283,3.41189 3.92448,7.69678 4.09267,12.18991 0.0481,1.4096 0.0801,4.00457 0.0801,7.76886 l 0.0481,65.92323 c 0,14.00799 -4.9016,20.79173 -18.02057,24.9725 -1.32151,0.40847 -1.85812,0.94508 -1.85812,1.80206 0,1.28947 0.67277,1.77803 3.88443,2.82722 l 3.42792,1.11327 40.58231,13.34323 c 2.14645,0.71282 3.05148,0.92105 3.91647,0.92105 1.60183,0 2.1945,-0.56865 2.1945,-2.12242 l 0,-27.5995"
       style="fill:#006b3b;fill-opacity:1;fill-rule:nonzero;stroke:none"
       id="path3221"
       inkscape:connector-curvature="0" /><path
       d="m 323.71394,637.67764 -28.09606,67.70126 c -2.41075,5.80663 -3.25171,9.09838 -3.25171,12.69449 0,6.08694 2.81922,9.84323 8.04919,12.01371 1.04919,0.4405 1.44164,1.20137 1.44164,2.25057 0,0.82494 -0.59267,1.63386 -2.27459,1.63386 l -58.61089,-0.0641 c -1.52975,0.024 -2.30663,-0.74485 -2.25858,-1.8421 0.024,-0.70481 0.33639,-1.43364 1.48169,-1.93021 l 2.23455,-0.95309 c 5.9588,-2.46681 10.22767,-7.24827 13.51142,-15.17732 l 1.32151,-3.17161 52.32371,-122.78813 c 34.92786,37.81916 61.44612,85.15318 61.44612,118.14282 0,19.89471 -10.24369,29.39355 -32.54914,29.39355 -6.86383,0 -13.8398,-1.47368 -21.06404,-4.02059 l 4.10869,-1.26544 c 9.49083,-3.29176 15.32949,-6.63958 19.43017,-11.94964 3.99656,-5.18192 5.99885,-11.88557 5.99885,-20.10294 0,-17.06748 -8.44163,-39.06859 -23.24253,-60.56512"
       style="fill:#006b3b;fill-opacity:1;fill-rule:nonzero;stroke:none"
       id="path3223"
       inkscape:connector-curvature="0" /><path
       d="m 497.52826,679.64553 -95.54904,0 c -0.0641,-2.78718 -0.0961,-4.30891 -0.0961,-6.97596 0,-34.75966 22.70591,-63.29623 50.37749,-63.29623 17.9645,0 34.62351,10.82035 47.70244,30.96334 1.0572,1.63386 1.77002,2.21052 2.73912,2.21052 0.97712,0 1.5778,-0.59268 1.5778,-1.56178 0,-0.68879 -0.24828,-1.56179 -1.13729,-3.82036 -1.78604,-4.59725 -5.39816,-11.70136 -8.30548,-16.32263 -13.95192,-22.22536 -35.44045,-35.45646 -57.56169,-35.45646 -35.56859,0 -62.21496,31.58804 -62.21496,73.76417 0,45.52396 27.57543,77.40834 66.94836,77.40834 31.94045,0 53.51707,-22.11323 55.51936,-56.91295 z m -64.08113,43.6338 c -17.21164,0 -28.81688,-12.67046 -30.26654,-33.05372 l 57.40151,0 c -1.746,21.60065 -11.14873,33.05372 -27.13497,33.05372"
       style="fill:#006b3b;fill-opacity:1;fill-rule:nonzero;stroke:none"
       id="path3225"
       inkscape:connector-curvature="0" /><path
       d="m 405.55931,669.24166 86.23441,-0.16819 6.32722,6.67161 -92.47353,0.15218 c 0,0 -0.0881,-6.35926 -0.0881,-6.6556"
       style="fill:#d1eed4;fill-opacity:1;fill-rule:nonzero;stroke:none"
       id="path3227"
       inkscape:connector-curvature="0" /><path
       d="m 203.43268,611.35961 c 8.47367,8.48168 13.08694,22.55373 13.08694,41.15897 0,24.75625 -6.64759,45.60404 -18.23682,57.20127 -6.39129,6.38329 -13.8478,9.62699 -22.1693,9.62699 -10.17961,0 -16.31461,-4.46109 -21.06403,-10.4279 4.23683,2.90732 8.72996,5.22196 15.5137,5.22196 8.31349,0 15.77,-3.2437 22.16129,-9.635 11.59724,-11.59723 18.25283,-32.44502 18.25283,-57.19326 0,-17.13956 -3.91647,-30.29057 -11.17275,-39.01252 1.26544,0.89702 2.47482,1.90617 3.62814,3.05949"
       style="fill:#1aae59;fill-opacity:1;fill-rule:nonzero;stroke:none"
       id="path3229"
       inkscape:connector-curvature="0" /><path
       d="m 41.96041,728.3331 c -0.0881,0.18421 -0.440503,0.85697 -1.802057,3.36383 -0.384438,0.6968 -1.225398,2.31465 -2.554915,4.93363 -19.045735,37.39468 -40.6303674,55.57543 -65.979295,55.57543 -15.74597,0 -28.752813,-6.38329 -39.605197,-17.84437 9.86726,8.19335 20.879827,12.63843 34.046853,12.63843 25.3489285,0 46.933561,-18.18075 65.987305,-55.57543 1.329517,-2.61898 2.170477,-4.23683 2.546906,-4.93363 1.369563,-2.49885 1.713956,-3.17962 1.802057,-3.36384 1.481691,-3.0675 4.717383,-6.21509 7.744838,-3.71624 2.090385,1.72197 3.63615,3.15561 3.63615,3.15561 -2.98741,0.39244 -4.469101,2.94736 -5.822645,5.76658"
       style="fill:#1aae59;fill-opacity:1;fill-rule:nonzero;stroke:none"
       id="path3231"
       inkscape:connector-curvature="0" /><path
       d="m -32.268299,575.83907 c -30.186449,0 -58.570841,11.75742 -79.923211,33.10979 -22.51369,22.5217 -34.91184,53.13263 -34.91184,86.17033 0,30.68302 11.7414,60.96558 32.91757,82.22183 -1.85011,-1.63386 -3.66819,-3.32379 -5.4302,-5.0858 -21.26427,-21.27228 -33.0377,-51.6109 -33.0377,-82.33396 0,-33.05372 12.39815,-63.65664 34.91985,-86.17034 21.352365,-21.36037 49.728748,-33.10978 79.915197,-33.10978 26.686454,0 50.697856,8.56177 68.72643,26.84664 -17.267706,-14.94506 -39.1486765,-21.64871 -63.176096,-21.64871"
       style="fill:#1aae59;fill-opacity:1;fill-rule:nonzero;stroke:none"
       id="path3233"
       inkscape:connector-curvature="0" /><path
       d="m 512.00878,685.44415 -0.04,-65.94726 c 0,-3.70022 -0.024,-6.28717 -0.0801,-7.67275 -0.14417,-3.97254 -1.42563,-7.7929 -3.60412,-10.78831 -0.12814,-0.1682 -0.2643,-0.32838 -0.39244,-0.49657 2.49885,1.81807 4.51715,3.74828 5.94278,5.71052 2.17848,2.9794 3.45194,6.80776 3.60411,10.77229 0.0561,1.38558 0.0801,3.97253 0.0881,7.68076 l 0.032,65.93925 c 0,12.81463 -4.24485,18.70134 -16.23453,22.52971 -3.66818,1.17735 -3.63615,2.82723 -3.63615,4.23684 0,0.008 0,0.008 0,0.008 0,-0.008 -2.04233,-1.81808 -3.58809,-3.25171 -0.90503,-0.85698 -1.76201,-1.81808 -1.63387,-3.16361 0.12014,-1.27346 0.6087,-2.05835 3.63615,-3.09954 12.72653,-4.32494 15.90615,-9.65902 15.90615,-22.45763"
       style="fill:#1aae59;fill-opacity:1;fill-rule:nonzero;stroke:none"
       id="path3235"
       inkscape:connector-curvature="0" /><path
       d="m 605.13906,689.93728 c -7.94506,13.99998 -14.26427,18.96564 -24.13153,18.96564 -6.06292,0 -11.66131,-3.26773 -15.83407,-8.51371 3.11555,2.11441 6.61555,3.31578 10.27572,3.31578 9.87527,0 15.2414,-2.70709 24.13955,-18.97365 2.91533,-5.33409 5.31807,-7.06406 9.05033,-4.78146 2.24256,1.36956 3.82036,2.37872 3.82036,2.37872 -3.54805,0.0881 -5.05377,3.62013 -7.32036,7.60868"
       style="fill:#1aae59;fill-opacity:1;fill-rule:nonzero;stroke:none"
       id="path3237"
       inkscape:connector-curvature="0" /><path
       d="m 504.06372,587.12395 -0.91304,0 c -1.4897,0 -2.77918,0.60869 -3.29977,1.1373 -0.68879,0.68878 -0.7048,2.3707 -0.7048,3.40388 0,0.0561 0.008,0.0881 0.008,0.12014 l -3.34783,-3.74027 c -0.82494,-1.08924 -1.85011,-1.9302 -1.77802,-3.69221 0.032,-1.04119 0.67276,-3.13959 3.57207,-3.16361 l 61.72644,0.024 c 3.82837,0 6.01487,0.0881 8.60983,2.28261 1.41762,1.17734 3.23569,3.63615 3.23569,3.63615 -8.01715,0.008 -67.10858,-0.008 -67.10858,-0.008"
       style="fill:#1aae59;fill-opacity:1;fill-rule:nonzero;stroke:none"
       id="path3239"
       inkscape:connector-curvature="0" /><path
       d="m 179.21304,581.7338 c -19.66244,0 -37.00223,6.94392 -50.15323,20.09493 -14.75284,14.76085 -22.88212,36.34548 -22.88212,60.78136 0,20.16702 8.39358,41.56744 22.4256,56.12005 -1.58581,-1.34554 -3.12357,-2.74714 -4.61327,-4.25286 -14.60066,-14.59265 -23.37067,-36.4576 -23.37067,-57.08114 0,-24.41986 8.12928,-46.01251 22.89012,-60.76534 13.15101,-13.15101 30.4908,-20.09493 50.14523,-20.09493 21.8249,0 40.54226,6.71166 53.86947,20.62353 -12.74254,-10.6922 -29.37752,-15.4256 -48.31113,-15.4256"
       style="fill:#1aae59;fill-opacity:1;fill-rule:nonzero;stroke:none"
       id="path3241"
       inkscape:connector-curvature="0" /><path
       d="m 312.5492,724.19237 c 11.05262,-3.7643 16.02629,-7.26429 19.72652,-12.06977 3.58809,-4.6373 5.65445,-11.79747 5.65445,-19.31004 0,-13.41531 -5.29404,-30.19446 -15.14529,-47.26994 0.21625,-0.51259 0.41648,-1.00115 0.6087,-1.45767 12.57435,19.51828 19.59836,39.12465 19.59836,54.4141 0,7.52058 -1.98626,13.53545 -5.97481,18.73338 -6.23912,8.13728 -22.87411,12.56634 -22.87411,12.56634 l -4.6453,-4.63729 3.05148,-0.96911"
       style="fill:#1aae59;fill-opacity:1;fill-rule:nonzero;stroke:none"
       id="path3243"
       inkscape:connector-curvature="0" /><path
       d="m 307.12702,584.03242 -53.47703,125.62336 c -0.008,0.024 -1.33753,3.20366 -1.33753,3.20366 -2.99542,7.23225 -6.67962,11.42103 -11.92561,13.59952 l -2.14645,0.881 c -1.36956,0.55263 -3.19564,1.64188 -3.19564,3.82837 0,0 -2.08238,-1.87414 -3.54805,-3.09954 -1.09726,-0.91304 -1.72998,-1.91418 -1.64188,-2.7231 0.20824,-1.91419 1.93021,-2.77117 3.63615,-3.5 0,0 2.29062,-0.97711 2.29062,-0.9691 5.24598,-2.17048 8.54575,-6.51944 11.54918,-13.74369 0,0 1.3215,-3.19564 1.32951,-3.21166 l 53.09259,-124.74236 5.37414,4.85354"
       style="fill:#1aae59;fill-opacity:1;fill-rule:nonzero;stroke:none"
       id="path3245"
       inkscape:connector-curvature="0" /><path
       d="m 247.27471,848.4702 c 33.78255,5.48626 55.16696,24.03542 55.16696,47.86262 0,14.39242 -8.85811,24.54801 -21.40843,24.54801 -5.52631,0 -9.69106,-1.6659 -15.61783,-6.23111 l -18.1407,-66.17952"
       style="fill:#1aae59;fill-opacity:1;fill-rule:nonzero;stroke:none"
       id="path3247"
       inkscape:connector-curvature="0" /><path
       d="m 230.83996,842.08691 c -5.70251,32.86951 -20.21507,53.42897 -42.16812,53.97359 -13.87984,0.3444 -23.88326,-8.35353 -24.20363,-21.032 -0.14416,-5.88671 1.51373,-10.31577 6.19107,-16.4748 l 60.18068,-16.46679"
       style="fill:#1aae59;fill-opacity:1;fill-rule:nonzero;stroke:none"
       id="path3249"
       inkscape:connector-curvature="0" /><path
       d="m 314.52746,819.51715 c 0.72082,-0.89702 5.94278,-8.95421 5.94278,-19.06976 0,-15.67388 -12.87869,-19.278 -24.6281,-19.278 -18.96565,0 -30.9313,15.86611 -30.9313,40.53426 0,2.48283 1.49771,11.3009 1.49771,11.3009 l 48.11891,-13.4874"
       style="fill:#1aae59;fill-opacity:1;fill-rule:nonzero;stroke:none"
       id="path3251"
       inkscape:connector-curvature="0" /><path
       d="m 296.11445,566.4844 c 11.57321,2.37871 18.25283,2.73111 28.18416,2.73111 48.08688,0 87.15542,-16.06633 110.36591,-27.59949 31.91642,-15.85009 51.44271,-31.88439 66.53193,-45.68414 0,0 16.69905,-16.68304 19.83864,-21.9931 0.18421,-0.29633 0.67276,-0.95308 1.36956,-2.0183 -6.72768,5.14988 -9.7231,7.07207 -14.28831,9.18648 -5.59839,2.58696 -9.61097,3.61213 -18.39699,4.74141 -6.27917,0.80092 -6.23912,0.91305 -11.40502,1.77002 -0.80892,4.71739 -3.74827,6.39931 -10.98053,7.89702 -3.20365,0.68077 -4.27688,1.15331 -5.24598,2.31464 l -1.44966,1.754 c -1.44965,1.754 -3.63615,0.59268 -5.59038,0.59268 -0.56064,0 -1.14531,-0.0881 -2.15446,-0.3444 1.68993,4.65331 4.13272,10.09152 9.85925,14.97709 l -1.39359,0.016 c -5.96681,0 -9.35467,-1.65789 -13.11096,-6.41532 l 0.80892,3.37185 c 0.98513,4.14072 1.37758,5.6945 2.21053,8.59381 l 0.54462,1.89015 c -5.63844,-4.34896 -7.90502,-6.135 -10.94049,-8.66589 -2.8913,-2.41075 -3.30777,-2.71509 -5.47024,-4.14873 -2.49084,3.37986 -3.48397,6.56749 -4.8215,15.56977 -2.25057,-3.89244 -3.19565,-5.49427 -4.74942,-8.06521 l -1.95423,-3.21166 -1.26545,4.05262 -1.80205,5.37414 c -0.97712,2.89931 -1.29748,3.37184 -2.22654,3.37184 -0.68879,0 -1.17735,-0.48855 -1.85812,-1.87413 -0.65675,-1.32952 -1.09726,-2.01831 -2.30664,-3.62814 -3.85239,-0.6087 -5.02173,-1.86613 -6.67962,-7.26429 l -18.37297,15.20134 0.76087,-12.67847 c -3.73226,4.0286 -8.762,6.28718 -13.98392,6.28718 -4.92562,0 -8.21737,-1.46567 -13.69562,-6.10297 1.0572,0.032 1.94622,-2.23455 2.65903,-2.23455 6.63958,0 10.47595,-1.79404 14.24021,-6.63156 -1.95423,0.50457 -2.83519,2.91532 -4.05258,2.91532 -1.85012,0 -3.70824,-0.38443 -5.59839,-1.18535 l -2.07437,-0.85698 c -1.36956,-0.57666 -2.78718,-0.86498 -4.26086,-0.86498 -3.13158,0 -6.62356,1.33752 -9.635,3.66017 -3.20365,2.47483 -3.52402,2.88329 -7.44049,9.41875 -0.42448,0.71281 -1.08123,0.23227 -1.97025,1.61785 2.38673,0.7048 2.65103,0.91304 4.38901,3.45194 2.26659,3.30777 5.94278,5.02173 10.75628,5.02173 1.67391,0 3.20365,-0.24028 4.54118,-0.72883 0.20824,-0.0721 0.92906,-0.37643 2.17048,-0.92105 1.52974,-0.67277 2.50686,0.57665 3.36383,0.57665 2.4508,0 4.40503,2.41876 6.0469,7.48054 0.49657,1.54576 0.76087,2.79519 0.76087,3.6842 0,3.15561 -2.24256,4.30091 -8.38557,4.30091 -0.68878,0 -1.79404,-0.024 -3.30777,-0.0561 l -0.99313,2.46681 -1.1373,3.59611 -2.21053,5.66246 -1.2334,3.3318 -1.46568,-2.51487 -3.40388,-5.68649 -2.21052,6.60754 -0.44051,1.46568 c -0.25629,0.85697 -0.80892,1.26544 -1.67391,1.26544 -0.76887,0 -1.28146,-0.48856 -2.22654,-2.13844 -0.57665,-1.01716 -0.78489,-1.33753 -1.44965,-2.19451 -2.7151,-0.11212 -4.06864,-1.48169 -5.06178,-5.13385 l -14.13613,11.8295 0.28032,-9.58694 c -3.57208,3.05949 -6.35125,4.22882 -10.04346,4.22882 -3.79633,0 -5.22196,-0.60068 -11.89357,-5.07779 7.28831,-0.024 10.92446,-1.30549 13.71164,-4.82952 -1.42562,0.22426 -2.09038,0.28833 -2.8913,0.28833 -3.54004,0 -6.01486,-1.01716 -9.57893,-3.91647 -4.42104,5.40617 -6.11898,9.05834 -7.12012,15.29746 -0.13616,0.86499 -0.30435,1.4897 -0.47254,1.85011 -0.0801,0.14417 -0.41648,0.60069 -1.02517,1.38558 -0.56064,0.71282 -0.93707,1.32952 -1.85812,3.15561"
       style="fill:#1aae59;fill-opacity:1;fill-rule:nonzero;stroke:none"
       id="path3253"
       inkscape:connector-curvature="0" /><path
       d="m 426.66339,714.36516 c 12.60639,0 19.93475,-5.86269 22.94619,-20.96793 l 6.36726,0 c -2.16247,18.55717 -9.77916,26.17387 -23.77113,26.17387 -8.5057,0 -14.68075,-3.33981 -19.55031,-9.47482 4.15675,2.83524 8.32951,4.26888 14.00799,4.26888"
       style="fill:#1aae59;fill-opacity:1;fill-rule:nonzero;stroke:none"
       id="path3255"
       inkscape:connector-curvature="0" /><path
       d="m 63.585088,846.09949 c 0.120137,-0.7048 0.456521,-2.69107 0.840959,-3.41189 l 1.802057,-3.42792 c 4.645301,-8.92218 7.688774,-23.1384 7.688774,-36.30543 0,-15.05718 -2.018303,-32.5091 -6.359257,-54.91066 -3.091528,-15.97823 -4.693356,-24.32376 -4.885575,-25.54115 -2.14645,-13.20707 -3.283748,-27.3432 -3.283748,-40.88666 0,-35.37637 10.067489,-69.06281 26.26197,-87.91633 5.726535,-6.67161 13.983959,-13.8478 18.629262,-13.90386 0,0 -1.07323,-0.92906 -3.7643,-3.40389 -4.613263,-4.24484 -14.664733,5.39816 -20.415296,12.10181 -16.20249,18.85352 -26.269979,52.53996 -26.269979,87.90832 0,13.55147 1.137298,27.6876 3.283748,40.90268 0.200228,1.21739 1.794047,9.5549 4.893584,25.54115 4.332945,22.39355 6.399303,39.84547 6.359257,54.90265 -0.04806,17.09952 -4.308917,29.44961 -8.970237,38.78026 -0.36842,0.72883 -1.001142,2.15446 -1.001142,3.19564 0,1.54577 1.177344,2.81922 1.729974,3.27574 l 3.459949,3.09954"
       style="fill:#1aae59;fill-opacity:1;fill-rule:nonzero;stroke:none"
       id="path3257"
       inkscape:connector-curvature="0" /><path
       d="m 436.03408,581.63769 c -16.20249,0 -30.9313,6.15903 -42.58459,17.82033 -14.31234,14.30433 -22.2013,35.08805 -22.2013,58.51478 0,24.05946 7.73679,46.89352 21.57658,61.48617 -1.4897,-1.24142 -2.93935,-2.56293 -4.34095,-3.95652 -14.60863,-14.60867 -22.77795,-37.97934 -22.77795,-62.72758 0,-23.43474 7.87298,-44.21045 22.19328,-58.5308 11.6533,-11.65329 26.38211,-17.81232 42.5846,-17.81232 17.48395,0 34.72763,6.5755 48.26308,20.47136 -12.51829,-10.66017 -27.54344,-15.26542 -42.71275,-15.26542"
       style="fill:#1aae59;fill-opacity:1;fill-rule:nonzero;stroke:none"
       id="path3259"
       inkscape:connector-curvature="0" /></g></svg>