<?xml version="1.0" encoding="utf-8"?>
<!-- Generator: Adobe Illustrator 13.0.1, SVG Export Plug-In  -->
<!DOCTYPE svg PUBLIC "-//W3C//DTD SVG 1.1//EN" "http://www.w3.org/Graphics/SVG/1.1/DTD/svg11.dtd" [
	<!ENTITY ns_flows "http://ns.adobe.com/Flows/1.0/">
]>
<svg version="1.1"
	 xmlns="http://www.w3.org/2000/svg" xmlns:xlink="http://www.w3.org/1999/xlink" xmlns:a="http://ns.adobe.com/AdobeSVGViewerExtensions/3.0/"
	 x="0px" y="0px" width="154px" height="48px" viewBox="-0.749 -0.607 154 48" enable-background="new -0.749 -0.607 154 48"
	 xml:space="preserve">
<defs>
</defs>
<polyline fill="#ED8D30" points="134.246,0 153.164,0 144.344,18.919 125.425,18.919 134.246,0 "/>
<path d="M15.58,32.315c-0.965,0.607-1.68,1.036-3.43,1.036c-3.218,0-4.683-2.215-4.683-5.074c0-3.251,1.931-4.967,4.182-4.967
	c1.93,0,2.645,0.786,3.181,1.322l0.393-0.107c0.179-2.179,0.25-2.858,0.571-4.895l-0.178-0.215c-1.645-0.571-2.859-1-5.003-1
	c-2.751,0-5.038,0.679-6.539,1.643C1.501,21.702,0,24.884,0,28.492c0,4.038,1.966,9.934,10.434,9.934
	c2.001,0,3.359-0.394,5.003-0.857l0.18-0.215l0.214-4.859L15.58,32.315"/>
<path fill-rule="evenodd" clip-rule="evenodd" d="M29.4,28.099c0,0.715,0,3.431-0.607,4.574c-0.393,0.821-1.001,1.322-1.787,1.322
	c-0.214,0-1.607,0-2.107-2.036c-0.25-1.001-0.286-2.037-0.286-3.182c0-3.215,0.25-5.931,2.466-5.931
	C28.829,22.847,29.4,24.848,29.4,28.099 M36.797,28.421c0-4.288-1.215-6.289-2.465-7.504c-1.894-1.858-4.61-2.466-7.29-2.466
	c-1.608,0-5.396,0.179-7.754,2.931c-1.68,1.965-2.073,4.645-2.073,7.218c0,2.608,0.394,7.361,5.146,9.076
	c1.501,0.572,3.466,0.75,4.717,0.75c3.216,0,6.289-0.894,8.146-3.501C36.654,32.852,36.797,29.707,36.797,28.421z"/>
<path d="M46.839,37.748c-0.214-4.682-0.286-6.897-0.286-11.007c0-2.68,0.072-14.544,0.072-16.938l-0.286-0.321l-7.396,1.286
	l-0.215,0.214c0.357,3.752,0.394,3.967,0.394,16.652c0,4.502-0.072,6.432-0.179,10.22l0.25,0.25
	c3.108-0.143,4.037-0.143,7.396-0.106L46.839,37.748"/>
<path d="M50.021,19.701c0.25,2.573,0.394,4.074,0.394,8.256c0,3.286-0.107,6.574-0.215,9.861l0.251,0.25
	c3.107-0.106,4.073-0.106,7.254-0.07l0.25-0.286l-0.108-6.254c-0.035-0.571-0.035-1.18-0.035-1.751c0-2.216,0-4.396,2.608-4.396
	c0.893,0,1.322,0.286,1.858,0.643l0.357-0.106c0.571-3.359,0.714-4.073,1.5-7.361l-0.25-0.214c-0.428-0.072-0.821-0.106-1.25-0.106
	c-1.68,0-2.966,0.785-3.931,2.251c-0.357,0.535-0.607,1.107-0.858,1.644l0.072-3.574l-0.25-0.286
	c-3.466,0.751-4.288,0.858-7.433,1.251L50.021,19.701"/>
<path d="M77.172,37.854l0.25,0.25c3.109-0.106,3.931-0.106,6.718-0.106l0.25-0.25c-0.106-2.573-0.143-3.574-0.143-7.362
	c0-3.787,0.036-7.611,0.072-11.398l-0.286-0.357c-3.073,0.215-3.824,0.25-6.933,0.321l-0.215,0.25l0.215,13.078
	c-0.679,0.358-1.357,0.715-2.108,0.715c-2.001,0-2.001-2.107-2.001-4.395c0-0.929,0.072-5.003,0.072-5.825
	c0-1.286-0.036-2.537-0.036-3.823l-0.286-0.321l-6.825,0.321l-0.25,0.215c0.179,3.537,0.179,4.537,0.143,8.397V29.1
	c-0.035,3.788-0.035,5.753,1.251,7.361c0.75,0.929,2.286,2.001,4.323,2.001c1.358,0,3.109-0.5,4.467-1.322
	c0.464-0.25,0.93-0.607,1.358-0.929L77.172,37.854"/>
<path d="M89.898,47.037c3.251-0.106,4.001-0.106,6.431-0.106l0.286-0.214c0.929-3.932,1.287-5.183,2.858-10.149l1.822-5.431
	l4.288-12.149l-0.214-0.251l-5.717,0.108l-0.215,0.214c-1.072,4.217-1.322,5.253-2.823,10.398
	c-1.358-4.859-1.572-5.824-2.681-10.612l-0.285-0.215c-3.359,0.25-4.146,0.286-7.647,0.321l-0.143,0.25
	c0.965,2.287,1.036,2.466,2.252,5.896c0.571,1.644,1.215,3.323,1.787,4.967c0.964,2.716,1.606,4.681,2.965,8.826
	c-1.395,3.752-1.751,4.574-3.145,7.861L89.898,47.037"/>
<path d="M118.22,23.633c0.536,0,1.072,0.036,1.645,0.036l0.286-0.286l0.393-4.288l-0.286-0.25c-1.607,0.143-2.107,0.143-3.395,0.143
	l0.106-6.683l-0.32-0.214c-2.967,0.893-3.896,1.144-6.647,1.821l-0.178,0.252v4.681h-2.037l-0.25,0.25l-0.215,4.358l0.215,0.216
	l2.287-0.072l-0.072,3.145c0,1.608-0.035,3.251-0.035,4.859c0,1.68,0,2.538,0.285,3.502c0.679,2.216,2.287,3.323,5.825,3.323
	c1.715,0,2.894-0.214,4.431-0.536l0.25-0.25l0.357-4.396l-0.285-0.143c-0.572,0.215-1.18,0.393-1.823,0.393
	c-0.679,0-1.357-0.285-1.679-0.856c-0.322-0.608-0.322-2.001-0.322-2.716l0.107-6.253L118.22,23.633"/>
</svg>
