<?xml version="1.0" encoding="UTF-8" standalone="no"?>
<!-- Created with Inkscape (http://www.inkscape.org/) -->

<svg
   xmlns:dc="http://purl.org/dc/elements/1.1/"
   xmlns:cc="http://creativecommons.org/ns#"
   xmlns:rdf="http://www.w3.org/1999/02/22-rdf-syntax-ns#"
   xmlns:svg="http://www.w3.org/2000/svg"
   xmlns="http://www.w3.org/2000/svg"
   xmlns:sodipodi="http://sodipodi.sourceforge.net/DTD/sodipodi-0.dtd"
   xmlns:inkscape="http://www.inkscape.org/namespaces/inkscape"
   width="682"
   height="177"
   id="svg2"
   version="1.1"
   inkscape:version="0.47 r22583">
  <g
     inkscape:label="Layer 1"
     inkscape:groupmode="layer"
     id="layer1"
     transform="translate(-122.44021,-345.98017)">
    <path
       id="path3812"
       d="m 280.03798,489.75163 c -16.20971,20.2452 -41.14381,33.22854 -69.10455,33.22854 -48.87626,0 -88.49322,-39.61696 -88.49322,-88.50677 0,-48.85934 39.61696,-88.49323 88.49322,-88.49323 27.96074,0 52.89484,12.98334 69.10455,33.23194 l -2.8675,1.7503 c -14.15134,-14.88937 -34.15956,-24.17915 -56.32773,-24.17915 -42.91442,0 -77.71045,34.79265 -77.71045,77.70707 0,42.91443 34.79603,77.70707 77.71045,77.70707 22.17832,0 42.19671,-9.28977 56.34465,-24.21638 z"
       style="fill:#e51635;fill-rule:nonzero;stroke:none" />
    <path
       id="path3816"
       d="m 306.57139,461.2956 c -15.78313,0 -26.22397,-12.22838 -26.22397,-26.81983 0,-14.58129 10.56271,-26.86045 26.22397,-26.86045 13.60289,0 25.31329,11.36508 25.31329,26.87738 0,15.15682 -11.41925,26.8029 -25.31329,26.8029 m 0,-69.11809 c -27.78468,0 -43.7371,18.65064 -43.7371,42.29826 0,23.65778 15.82038,42.27796 43.7371,42.27796 26.55237,0 42.82979,-18.42721 42.82979,-42.27796 0,-23.64762 -16.27742,-42.29826 -42.82979,-42.29826"
       style="fill:#1f1a1c;fill-rule:nonzero;stroke:none" />
    <path
       id="path3820"
       d="m 549.23223,450.44003 c -1.61827,2.26828 -7.84756,10.85726 -21.89733,10.85726 -15.16359,0 -26.22398,-11.49034 -26.22398,-26.82321 0,-15.49199 11.25674,-26.86045 26.22398,-26.86045 14.11748,0 20.76319,9.17467 21.80253,10.71845 l 13.01381,-7.98636 c -1.0258,-1.80108 -10.18693,-18.16652 -34.80957,-18.16652 -26.60654,0 -43.73033,17.39463 -43.73033,42.29488 0,24.79192 17.03238,42.29488 43.72356,42.29488 24.30102,0 33.4723,-15.86777 34.94499,-18.25793 z"
       style="fill:#1f1a1c;fill-rule:nonzero;stroke:none" />
    <path
       id="path3824"
       d="m 244.67895,451.2319 c -1.69952,2.38677 -8.22674,11.42263 -22.9773,11.42263 -15.92871,0 -27.53755,-12.07603 -27.53755,-28.18079 0,-16.26049 11.8052,-28.19771 27.53755,-28.19771 14.82166,0 21.79238,9.63509 22.87573,11.24658 l 13.67737,-8.37908 c -1.09013,-1.90603 -10.69814,-19.0806 -36.5531,-19.0806 -27.94042,0 -45.92412,18.25454 -45.92412,44.41081 0,26.03101 17.89906,44.40743 45.91396,44.40743 25.52996,0 35.13797,-16.65998 36.69191,-19.16863 z"
       style="fill:#1f1a1c;fill-rule:nonzero;stroke:none" />
    <path
       id="path3828"
       d="m 762.41529,393.65222 0.51121,-22.70307 -17.48943,8.88013 -0.51798,13.82294 -13.01719,0 0,13.56565 13.01719,0 0,45.84964 c 0,16.33159 9.32025,23.68486 21.64342,23.68486 7.0215,0 11.39555,-1.35758 12.26223,-1.59795 l 2.10239,-13.86018 c -0.61278,0.13881 -4.06259,1.11721 -7.89157,1.11721 -6.83868,0 -10.62027,-2.57635 -10.62027,-10.56271 l 0,-44.63087 16.91389,0 0,-13.56565 z"
       style="fill:#1f1a1c;fill-rule:nonzero;stroke:none" />
    <path
       id="path3832"
       d="m 612.2043,461.2956 c -16.99852,0 -26.97894,-12.3164 -26.97894,-26.8029 0,-15.76959 11.15518,-26.87738 26.9891,-26.87738 16.90712,0 26.97894,12.31302 26.97894,26.87738 0,14.46957 -10.13953,26.8029 -26.9891,26.8029 m 24.62942,-67.64202 c 0,0 -0.15574,8.10824 -0.18959,9.41165 l -0.22344,0 c -1.47607,-1.49638 -9.61478,-10.88772 -26.07163,-10.88772 -24.57525,0 -42.62328,16.62273 -42.62328,42.31519 0,24.31118 16.90035,42.26103 42.71469,42.26103 15.52245,0 23.97262,-8.76164 25.98022,-10.87418 l 0.22344,0 c 0.0169,0.10156 0.18959,9.41165 0.18959,9.41165 l 17.72302,0 0,-81.63762 z"
       style="fill:#1f1a1c;fill-rule:nonzero;stroke:none" />
    <path
       id="path3836"
       d="m 455.46339,475.3088 0,-51.1547 c 0,-10.73538 -5.69439,-16.9342 -15.12974,-16.9342 -9.6317,0 -14.974,6.49336 -14.974,16.9342 l 0,51.1547 -17.45557,0 0,-51.1547 c 0,-10.7523 -5.60975,-16.9342 -15.05187,-16.9342 -9.6351,0 -15.06203,6.47305 -15.06203,16.9342 l 0,51.1547 -17.46911,0 0,-81.65793 16.48055,0 0.1625,7.76292 0.32501,0 c 1.16122,-1.40836 7.78323,-9.23561 20.33661,-9.23561 14.52035,0 19.98791,9.68249 21.24054,11.72733 1.71983,-2.1464 8.70748,-11.72733 24.08097,-11.72733 18.57955,0 29.81936,11.58852 29.81936,28.2485 l 0,54.88212 z"
       style="fill:#1f1a1c;fill-rule:nonzero;stroke:none" />
    <path
       id="path3840"
       d="m 704.61759,427.00265 c 13.78908,4.72614 22.52025,11.81535 22.52025,24.27732 0,17.03916 -14.61176,25.4724 -33.57387,25.4724 -17.22874,0 -26.56591,-5.44724 -29.4842,-7.21447 l 6.79806,-13.31173 c 1.81462,0.92762 10.84371,6.27331 23.40048,6.27331 8.86998,0 15.3261,-3.78159 15.3261,-9.49968 0,-5.085 -3.41596,-8.22673 -12.30963,-11.19242 l -9.30332,-3.21282 c -10.87079,-3.72404 -20.11994,-10.74892 -20.11994,-23.31923 0,-14.25629 12.55,-23.08225 29.80582,-23.08225 15.21438,0 23.40725,4.99698 26.37632,6.80144 l -6.71003,12.58724 c -1.47946,-0.73804 -9.22545,-5.13578 -20.11317,-5.13578 -8.37908,0 -11.86613,4.0355 -11.86613,7.85094 0,4.01857 2.83365,7.07228 10.47808,9.71973 z"
       style="fill:#1f1a1c;fill-rule:nonzero;stroke:none" />
    <path
       id="path3844"
       d="m 794.26019,476.36 2.25135,0 c 1.22554,0 2.05837,-0.56538 2.05837,-1.68259 0,-1.11721 -0.85652,-1.5641 -2.05837,-1.5641 l -2.25135,0 z m -1.36435,-4.39437 3.63262,0 c 2.31568,0 3.46674,1.13076 3.46674,2.79642 0,1.71644 -1.33726,2.45447 -2.48833,2.64406 l 2.77948,4.29618 -1.59456,0 -2.67115,-4.19461 -1.76045,0 0,4.19461 -1.36435,0 z"
       style="fill:#1f1a1c;fill-rule:nonzero;stroke:none" />
    <path
       id="path3848"
       d="m 796.13812,468.52463 c -4.65166,0 -8.40616,3.7308 -8.40616,8.37907 0,4.54333 3.7545,8.3283 8.40616,8.3283 4.53994,0 8.29444,-3.78497 8.29444,-8.3283 0,-4.64827 -3.7545,-8.37907 -8.29444,-8.37907 m 7.16369,8.35199 c 0,3.97118 -3.22299,7.19754 -7.19755,7.19754 -3.9881,0 -7.21785,-3.22636 -7.21785,-7.19754 0,-3.99487 3.22975,-7.22124 7.21785,-7.22124 3.97456,0 7.19755,3.22637 7.19755,7.22124"
       style="fill:#1f1a1c;fill-rule:nonzero;stroke:none" />
  </g>
</svg>
