<?xml version="1.0" encoding="UTF-8" standalone="no"?>
<!-- Created with Inkscape (http://www.inkscape.org/) -->

<svg
   xmlns:dc="http://purl.org/dc/elements/1.1/"
   xmlns:cc="http://creativecommons.org/ns#"
   xmlns:rdf="http://www.w3.org/1999/02/22-rdf-syntax-ns#"
   xmlns:svg="http://www.w3.org/2000/svg"
   xmlns="http://www.w3.org/2000/svg"
   xmlns:sodipodi="http://sodipodi.sourceforge.net/DTD/sodipodi-0.dtd"
   xmlns:inkscape="http://www.inkscape.org/namespaces/inkscape"
   width="590"
   height="74"
   id="svg2"
   version="1.1"
   inkscape:version="0.47 r22583">
  <g
     inkscape:label="Layer 1"
     inkscape:groupmode="layer"
     id="layer1"
     transform="translate(-99.881997,-360.31609)">
    <path
       style="fill:#221e1f;fill-rule:evenodd;stroke:none"
       d="m 263.23032,405.6191 c -0.066,5.35066 -0.27052,5.41996 -15.31473,5.41996 -14.43325,0 -14.6379,-0.069 -14.6379,-9.28489 0,-5.48839 0.54141,-7.65731 2.16812,-8.73937 1.35678,-0.81539 3.79564,-1.08608 12.40051,-1.08608 8.60808,0 12.60514,0.34 13.62111,1.08608 0.81539,0.54141 0.95073,1.01595 1.0861,3.38633 l 13.68718,0 0,-1.75967 c 0,-5.82837 -1.35598,-8.47187 -5.21768,-10.0994 -3.11566,-1.28752 -7.2513,-1.62749 -19.31179,-1.62749 -23.51673,0 -28.39441,0.88143 -30.83406,5.76313 -1.01598,2.0328 -1.2867,5.01306 -1.2867,13.07647 0,4.54174 0.13539,7.522 0.33679,9.21559 0.54464,3.66028 1.89742,5.69306 4.81164,7.04986 3.66027,1.69278 9.3509,2.09884 26.90306,2.09884 10.03013,0 14.9086,-0.33679 18.56891,-1.2867 5.01387,-1.28749 6.91126,-3.93097 6.91126,-9.8263 0,-0.54141 -0.069,-1.35599 -0.13538,-3.38636 l -13.75646,0"
       id="path2833" />
    <path
       style="fill:#221e1f;fill-rule:evenodd;stroke:none"
       d="m 314.1337,382.9147 c -18.03222,0.0123 -22.15692,0.37268 -25.55857,2.44268 -3.45562,2.16815 -4.47234,5.82522 -4.47234,15.92141 0,10.57236 0.94741,14.16578 4.47234,16.33473 3.45566,2.09884 7.6575,2.50502 26.56321,2.50502 18.63496,0 22.90497,-0.40618 26.29452,-2.50502 3.45242,-2.10206 4.47264,-5.76242 4.47264,-16.13017 0,-10.36688 -1.02022,-13.95782 -4.47264,-16.12597 -3.38955,-2.10286 -7.59108,-2.44268 -26.42994,-2.44268 -0.29324,0 -0.58299,0 -0.86922,0 z m 0.86922,9.35414 c 12.53508,0 14.02703,0.20452 15.58444,1.62646 1.22143,1.21821 1.62765,3.25184 1.62765,8.67417 0,4.26779 -0.47529,5.89442 -2.03353,6.84196 -1.82811,1.08607 -4.06551,1.291 -15.04314,1.291 -11.31763,0 -13.48348,-0.13907 -15.31485,-1.291 -1.62749,-1.01681 -2.03354,-2.50477 -2.03354,-6.91114 0,-4.60778 0.27054,-6.7066 1.08612,-7.92803 1.35357,-2.09885 2.6403,-2.30342 16.12685,-2.30342 z"
       id="path2835" />
    <path
       style="fill:#221e1f;fill-rule:evenodd;stroke:none"
       d="m 354.57954,383.45921 0,36.11784 13.48254,0 -0.33677,-27.03762 2.43884,0 16.80684,27.03762 11.44979,0 16.87535,-27.03762 2.30349,0 -0.33921,27.03762 13.48576,0 0,-36.11784 -24.66805,0 -13.41726,23.3781 -13.28114,-23.3781 -24.80018,0"
       id="path2839" />
    <path
       style="fill:#221e1f;fill-rule:evenodd;stroke:none"
       d="m 484.61758,405.6191 c -0.066,5.35066 -0.27052,5.41996 -15.31473,5.41996 -14.43325,0 -14.63469,-0.069 -14.63469,-9.28489 0,-5.48839 0.54143,-7.65731 2.16895,-8.73937 1.35274,-0.81539 3.8617,-1.08608 12.39968,-1.08608 8.67414,0 12.67122,0.34 13.62192,1.08608 0.81136,0.54141 0.94671,1.01595 1.08206,3.38633 l 13.69122,0 0,-1.75967 c 0,-5.82837 -1.35679,-8.47187 -5.15244,-10.0994 -3.11562,-1.28752 -7.31733,-1.62749 -19.31176,-1.62749 -23.51592,0 -28.4637,0.88143 -30.90252,5.76313 -1.01681,2.0328 -1.28753,5.01306 -1.28753,13.07647 0,4.54174 0.13539,7.522 0.34002,9.21559 0.54141,3.66028 1.8974,5.69306 4.87847,7.04986 3.66031,1.69278 9.28409,2.09884 26.90225,2.09884 9.96167,0 14.90866,-0.33679 18.56894,-1.2867 4.9478,-1.28749 6.84521,-3.93097 6.84521,-9.8263 0,-0.54141 -0.0692,-1.35599 -0.13854,-3.38636 l -13.75648,0"
       id="path2841" />
    <path
       style="fill:#221e1f;fill-rule:evenodd;stroke:none"
       d="m 526.36316,383.45927 -23.78743,36.11771 15.6548,0 3.86161,-6.16499 29.68192,0 3.86491,6.16499 15.58468,0 -23.51603,-36.11771 -21.34446,0 z m 9.28405,8.40339 2.64367,0 8.74009,13.61798 -20.12624,0 8.74248,-13.61798 z"
       id="path2843" />
    <path
       style="fill:#221e1f;fill-rule:evenodd;stroke:none"
       d="m 574.88392,407.5834 0,1.69277 c 0,5.0171 1.0168,7.11591 4.13241,8.74345 3.18497,1.62347 8.60487,2.09884 22.566,2.09884 13.4858,0 19.11035,-0.27052 21.81992,-1.08206 4.6771,-1.42286 6.5052,-4.5417 6.5052,-10.84308 0,-4.94697 -1.08206,-7.38583 -4.20171,-9.01332 -2.91419,-1.49218 -5.82518,-1.76289 -20.66778,-2.09887 -9.48545,-0.27391 -13.21503,-0.40929 -14.43325,-0.68 -1.42288,-0.27052 -2.03279,-0.94747 -2.03279,-2.30427 0,-2.70957 0.94671,-2.91426 12.60435,-2.91426 9.69014,0 11.38369,0.13872 12.53585,0.68002 1.01599,0.47537 1.22064,0.94752 1.35601,2.98029 l 13.21262,0 c 0.0692,-0.74605 0.0692,-1.49132 0.0692,-1.69276 0,-4.27102 -1.08609,-6.57532 -3.79569,-8.06345 -3.1849,-1.69679 -7.92806,-2.17213 -21.00773,-2.17213 -10.7738,0 -16.94224,0.20482 -19.5825,0.61068 -6.23448,1.08609 -8.67416,4.20175 -8.67416,11.11621 0,7.92806 3.11563,10.1623 14.22865,10.433 l 3.66027,0.13538 7.31736,0.27052 10.77621,0.27391 c 4.33706,0.066 5.35384,0.60747 5.35384,2.77561 0,3.255 0,3.255 -14.70398,3.255 -9.62407,0 -11.11621,-0.13503 -12.4037,-0.81533 -1.08206,-0.54146 -1.35278,-1.21826 -1.35278,-3.38635 l -13.28193,0"
       id="path2847" />
    <path
       style="fill:#221e1f;fill-rule:evenodd;stroke:none"
       d="m 635.466,383.45921 0,9.21557 19.99095,0 0,26.90227 14.36396,0 0,-26.90227 20.06108,0 0,-9.21557 -54.41599,0"
       id="path2849" />
    <path
       style="fill:#221e1f;fill-rule:evenodd;stroke:none"
       d="m 104.45416,365.90708 c 32.93602,-7.45269 61.19567,-7.45269 94.12856,0 6.09913,22.2292 6.09913,40.65954 0,62.81946 -32.93289,7.45273 -61.26171,7.45273 -94.12856,0 -6.096216,-22.15992 -6.096216,-40.59026 0,-62.81946"
       id="path2851" />
    <path
       style="fill:#ffffff;fill-rule:evenodd;stroke:none"
       d="m 180.14918,401.82348 13.69039,0 c 0,0 0.066,11.51906 -4.47241,16.73758 -4.61104,5.1484 -19.11037,8.53797 -35.78105,8.53797 -16.73725,0 -31.85038,-2.37276 -38.76173,-7.58807 -6.98063,-5.15165 -5.96401,-21.54917 -5.96401,-21.54917 0,0 -0.2045,-16.33395 5.75942,-22.29529 5.96408,-5.96376 23.24571,-6.98057 35.98576,-6.98057 12.67067,0 29.20685,-0.54143 38.15087,7.38663 0,0 5.08315,4.9478 5.08315,17.07759 l -13.69039,0 c 0,0 -0.74288,-6.91208 -4.33709,-9.35415 -3.591,-2.36957 -14.29794,-3.72634 -24.59876,-3.72634 -10.36741,0 -22.2955,1.96747 -25.27596,5.35383 -2.98046,3.3896 -2.57445,10.91159 -2.57445,12.73972 0,1.76286 -0.20451,9.21555 3.59098,12.80655 3.72638,3.59421 19.85606,4.0003 25.61542,4.0003 5.75991,0 20.5332,-1.42287 24.0581,-4.4064 3.52176,-2.98026 3.52176,-7.58804 3.52176,-8.74018"
       id="path2853" />
    <path
       style="fill:#ffffff;fill-rule:evenodd;stroke:none"
       d="m 166.93651,401.82348 10.16226,0 c 0,0 0.68002,4.06313 -2.03276,6.84198 -2.70957,2.84894 -13.07649,4.47564 -23.31206,4.47564 -10.29746,0 -20.66769,-1.49136 -23.3082,-3.86493 -2.57452,-2.36955 -2.91438,-8.94404 -2.91438,-11.78975 0,-2.77884 0.13538,-8.2012 2.16846,-10.77621 2.03311,-2.64028 15.17918,-4.80841 24.25877,-4.80841 9.08022,0 20.39784,1.35274 23.71812,4.94699 0,0 1.83134,1.75964 1.42205,6.30136 l -10.30084,0 c 0,0 0,-2.84898 -15.04398,-2.84898 0,0 -12.19527,-0.47131 -13.48248,1.22145 0,0 -1.49181,0.7461 -1.49181,6.50521 0,5.69385 1.8978,5.89529 1.8978,5.89529 0,0 4.40296,0.94993 13.28114,0.94993 8.94487,0 13.69123,-0.67921 14.97791,-3.04957"
       id="path2855" />
  </g>
</svg>
