<?xml version="1.0" encoding="UTF-8" standalone="no"?>
<svg
   xmlns:dc="http://purl.org/dc/elements/1.1/"
   xmlns:cc="http://creativecommons.org/ns#"
   xmlns:rdf="http://www.w3.org/1999/02/22-rdf-syntax-ns#"
   xmlns:svg="http://www.w3.org/2000/svg"
   xmlns="http://www.w3.org/2000/svg"
   xmlns:sodipodi="http://sodipodi.sourceforge.net/DTD/sodipodi-0.dtd"
   xmlns:inkscape="http://www.inkscape.org/namespaces/inkscape"
   version="1.1"
   id="Layer_1"
   x="0px"
   y="0px"
   width="886"
   height="227"
   viewBox="0 0 886 227"
   enable-background="new 0 0 792 432"
   xml:space="preserve">
<path
   style="fill:#060809"
   d="m 820.30298,68.319288 h -21.5729 V 90.121791 H 820.293 V 131.9798 c 0,17.20042 0.66885,29.11992 14.535,36.94646 l 28.41114,-0.01 C 843.23354,156.94686 842.7943,143.97917 842.7943,127.48753 V 90.091843 h 21.84243 V 68.319288 H 842.7943 V 43.701625 h -22.49132 v 24.617663"
   id="path9" /><path
   style="fill:#d7133a"
   d="M 201.08791,41.655145 C 178.11742,13.723183 142.86804,-1.8899656 106.97976,0.18646332 76.711816,1.923476 48.929596,15.350384 28.754294,38.001429 8.5789918,60.632507 -1.553582,89.772392 0.19341347,120.04034 1.940409,150.2983 15.367317,178.07054 37.998396,198.23586 c 22.651044,20.1753 51.790929,30.31785 82.058874,28.57086 31.06657,-1.79691 60.22642,-16.46169 80.23202,-40.31067 l -2.1563,-2.14631 c -17.4999,18.38837 -40.88967,29.39944 -65.8168,30.85693 C 105.70196,216.78396 80.086013,207.6896 60.170265,189.60071 40.254516,171.51182 28.454809,146.58469 26.917453,119.43138 25.380097,92.278083 34.304748,66.133048 52.04424,45.827968 69.773748,25.522889 94.201737,13.483595 120.82595,11.91629 c 29.07999,-1.717047 57.3913,9.643415 77.67641,31.156417 l 0.60895,0.628918 1.9766,-2.04648"
   id="path11" /><path
   style="fill:#060809"
   d="m 245.01237,149.06043 c -18.8975,0 -34.21116,-15.38355 -34.21116,-34.35092 0,-18.977367 15.31366,-34.350928 34.21116,-34.350928 18.90748,0 34.22115,15.373561 34.22115,34.350928 -0.01,18.96737 -15.32365,34.35092 -34.22115,34.35092 m -0.11979,-89.33636 c -30.77707,0 -54.88561,24.178417 -54.88561,54.95549 0,30.77707 24.10854,55.05531 54.88561,55.05531 30.7571,0 54.85566,-24.27824 54.85566,-55.05531 0,-30.777073 -24.09856,-54.95549 -54.85566,-54.95549 z"
   id="path13" /><path
   style="fill:#060809"
   d="m 560.38998,132.23936 c -6.0496,10.19247 -16.99078,16.4517 -28.91028,16.4517 -18.51815,0 -33.60221,-15.05411 -33.60221,-33.54231 0,-18.488204 15.08406,-33.552297 33.60221,-33.552297 11.89954,0 23.03039,6.708463 29.08997,17.130539 l 17.6197,-10.811406 c -9.7133,-16.9209 -28.00184,-28.191516 -47.81776,-28.191516 -30.37776,0 -55.09525,24.697525 -55.09525,55.01538 0,30.31786 24.71749,54.99542 55.09525,54.99542 19.62624,0 37.49551,-10.48197 47.2687,-26.92369 l -17.25033,-10.57182"
   id="path15" /><path
   style="fill:#060809"
   d="m 163.86193,133.30752 c -6.41896,10.81141 -18.02899,17.45997 -30.66725,17.45997 -19.66618,0 -35.648695,-15.96255 -35.648695,-35.58879 0,-19.626248 15.992495,-35.598779 35.648695,-35.598779 12.62828,0 24.43797,7.107776 30.88688,18.168754 L 182.76942,86.278401 C 172.45715,68.309305 153.04055,56.349873 132.0167,56.349873 c -32.23456,0 -58.449476,26.224898 -58.449476,58.389577 0,32.17467 26.214916,58.35964 58.449476,58.35964 20.82419,0 39.7716,-11.12088 50.15375,-28.57087 l -18.30852,-11.2207"
   id="path17" /><path
   style="fill:#060809"
   d="m 788.15826,90.261551 c 0.0998,-7.36733 -2.85509,-14.335346 -8.57525,-19.81592 -7.23755,-6.928085 -18.42831,-10.721561 -30.12819,-10.721561 -26.26483,0 -39.68175,15.433457 -39.68175,30.856932 0,21.273418 24.67756,28.750558 37.93476,33.073118 6.47886,2.11636 20.82419,6.2792 20.82419,15.65308 0,9.04445 -6.38902,13.14739 -19.0772,13.14739 -8.36561,0 -19.4166,-3.56387 -19.4166,-18.91746 h -23.96878 c -0.61894,10.37216 2.81516,18.32847 9.17422,24.51783 7.86647,7.64685 21.02384,11.67991 34.22115,11.67991 14.72467,0 26.00527,-3.38418 33.75195,-10.79144 6.23927,-5.95975 9.46372,-12.15909 9.3639,-21.12367 0,-23.9588 -24.55777,-29.27964 -38.97298,-33.91168 -9.81312,-3.15457 -20.41489,-6.538753 -20.41489,-16.172185 0,-5.011382 3.9532,-11.550136 16.282,-11.550136 9.62345,0 16.01246,3.673682 17.2703,14.075792 h 21.41317"
   id="path19" /><path
   style="fill:#060809"
   d="m 392.75828,74.987819 c -6.44891,-10.282316 -13.51676,-16.232084 -29.67896,-16.232084 -10.17251,0 -22.23177,7.716729 -26.55433,16.920899 -0.10981,0 -0.13976,0 -0.26954,0 0,-0.888472 0,-14.135689 0,-14.135689 H 314.81233 V 168.92626 h 22.47135 v -50.4133 c 0,-14.42519 2.76525,-38.633554 21.27342,-38.633554 11.64996,0 17.56978,10.491956 17.56978,31.166404 v 57.88045 h 22.47135 v -54.00712 c 0,-23.25001 7.08781,-35.039734 21.06378,-35.039734 14.69472,0 17.76944,14.964265 17.76944,27.512684 v 61.53417 h 22.46137 v -64.75862 c 0,-29.289632 -12.6782,-45.411905 -35.69861,-45.411905 -12.08921,0 -24.87721,6.658549 -31.43593,16.232084"
   id="path21" /><path
   style="fill:#060809"
   d="m 637.16794,149.56955 c -18.20869,0 -32.98328,-15.96255 -32.98328,-35.64869 0,-19.686142 14.76461,-35.648689 32.98328,-35.648689 18.21866,0 32.98327,15.962547 32.98327,35.648689 0,19.68614 -14.76461,35.64869 -32.98327,35.64869 m 32.66382,-88.068536 c 0,0 0.3494,8.385578 0.3494,11.53017 l -0.17969,-0.0599 c -9.17422,-8.465441 -21.19355,-13.606599 -34.34094,-13.606599 -28.7805,0 -52.11038,24.567748 -52.11038,54.865642 0,30.29789 23.32988,54.86564 52.11038,54.86564 13.15737,0 25.19667,-5.15114 34.37089,-13.64653 l 0.0499,0.0998 c 0.0299,0.15972 -0.579,13.33706 -0.579,13.33706 h 20.14535 V 61.501014 h -19.81592 z"
   id="path23" /><path
   style="fill:#060809"
   d="m 873.15209,157.69558 h 2.0365 c 1.70706,0 3.2544,-0.0899 3.2544,-2.04648 0,-1.64717 -1.42755,-1.89674 -2.70535,-1.89674 h -2.58555 v 3.94322 m -1.91671,-5.51053 h 4.78178 c 2.95492,0 4.35252,1.15801 4.35252,3.55389 0,2.23616 -1.42755,3.17454 -3.25441,3.3742 l 3.54391,5.48057 h -2.08641 l -3.3742,-5.34081 h -2.05646 v 5.34081 h -1.90673 v -12.40866 z m 4.1329,15.27374 c 4.90157,0 8.70503,-3.92326 8.70503,-9.11433 0,-5.08126 -3.80346,-8.99453 -8.70503,-8.99453 -4.95149,0 -8.76493,3.91327 -8.76493,8.99453 0,5.19107 3.81344,9.11433 8.76493,9.11433 z m 0,-19.66618 c 5.80002,0 10.63171,4.56215 10.63171,10.55185 0,6.09951 -4.83169,10.65168 -10.63171,10.65168 -5.81001,0 -10.73155,-4.55217 -10.73155,-10.65168 0,-5.9897 4.92154,-10.55185 10.73155,-10.55185 z"
   id="path25" />
</svg>