<?xml version="1.0" encoding="UTF-8" standalone="no"?>
<svg
   xmlns:dc="http://purl.org/dc/elements/1.1/"
   xmlns:cc="http://creativecommons.org/ns#"
   xmlns:rdf="http://www.w3.org/1999/02/22-rdf-syntax-ns#"
   xmlns:svg="http://www.w3.org/2000/svg"
   xmlns="http://www.w3.org/2000/svg"
   xmlns:xlink="http://www.w3.org/1999/xlink"
   xmlns:sodipodi="http://sodipodi.sourceforge.net/DTD/sodipodi-0.dtd"
   xmlns:inkscape="http://www.inkscape.org/namespaces/inkscape"
   version="1.1"
   id="Layer_1"
   x="0px"
   y="0px"
   width="725"
   height="221"
   viewBox="0 0 725 221"
   enable-background="new 0 0 595.276 841.89"
   xml:space="preserve">
<path
   clip-path="url(#SVGID_4_)"
   d="m 372.012,65.758 c 0,1.641 -1.343,2.983 -2.983,2.983 h -143.08 c -1.641,0 -2.983,-1.342 -2.983,-2.983 V 26.29 c 0,-1.641 1.342,-2.983 2.983,-2.983 h 143.08 c 1.641,0 2.983,1.342 2.983,2.983 v 39.468"
   id="path19"
   inkscape:connector-curvature="0"
   transform="matrix(4.8641986,0,0,4.8641986,-1084.5509,-113.36988)" /><path
   clip-path="url(#SVGID_4_)"
   d="m 331.052,57.737 c -0.09,0.266 -0.138,0.472 -0.138,0.8 0,1.227 1.239,1.819 2.177,1.819 h 4.055 c 1.265,0 2.226,-0.674 2.574,-1.635 l 3.469,-9.61 h 2.955 c 1.194,0 2.201,-0.633 2.601,-1.858 l 0.326,-1.002 c 0.073,-0.203 0.164,-0.552 0.164,-0.818 0,-1.226 -1.358,-1.817 -2.201,-1.817 h -15.021 c -1.194,0 -2.203,0.653 -2.602,1.879 l -0.325,1.001 c -0.073,0.203 -0.143,0.531 -0.143,0.796 0,1.227 1.241,1.818 2.18,1.818 h 2.999 l -3.07,8.627"
   id="path23"
   inkscape:connector-curvature="0"
   style="fill:#fcaf17"
   transform="matrix(4.8641986,0,0,4.8641986,-1084.5509,-113.36988)" /><path
   clip-path="url(#SVGID_4_)"
   d="m 274.019,57.737 c -0.069,0.205 -0.14,0.515 -0.14,0.902 0,0.921 0.913,1.718 2.25,1.718 h 2.813 c 1.356,0 2.505,-0.674 2.974,-1.963 l 3.232,-8.687 c 0.188,-0.512 0.587,-0.82 1.221,-0.82 0.466,0 0.913,0.226 0.913,0.677 0,0.1 -0.023,0.204 -0.048,0.285 l -2.834,7.888 c -0.07,0.205 -0.14,0.515 -0.14,0.902 0,0.921 0.913,1.718 2.248,1.718 h 2.297 c 1.358,0 2.507,-0.674 2.975,-1.963 l 3.257,-8.687 c 0.188,-0.512 0.587,-0.82 1.219,-0.82 0.468,0 0.914,0.226 0.914,0.677 0,0.1 -0.024,0.264 -0.046,0.347 l -2.813,7.827 c -0.071,0.205 -0.14,0.515 -0.14,0.902 0,0.921 0.915,1.718 2.251,1.718 h 2.813 c 1.357,0 2.506,-0.674 2.975,-1.963 l 2.179,-5.99 c 0.4,-1.084 0.563,-2.064 0.563,-2.863 0,-4.187 -3.655,-6.189 -8.061,-6.189 -1.804,0 -3.655,0.369 -5.246,1.104 -1.479,-0.797 -3.234,-1.082 -5.064,-1.082 -5.061,0 -8.317,2.328 -9.396,5.417 l -3.166,8.945"
   id="path25"
   inkscape:connector-curvature="0"
   style="fill:#fcaf17"
   transform="matrix(4.8641986,0,0,4.8641986,-1084.5509,-113.36988)" /><path
   clip-path="url(#SVGID_4_)"
   d="m 323.954,50.032 h -9.047 c 0.119,-0.492 0.867,-1.613 2.72,-1.613 h 7.662 c 1.265,0 2.366,-0.656 2.602,-1.656 l 0.14,-0.592 c 0.047,-0.184 0.117,-0.51 0.117,-0.817 0,-0.798 -0.797,-1.737 -2.108,-1.737 h -8.576 c -8.646,0 -11.13,6.071 -11.152,9.666 0,3.701 2.6,7.075 8.011,7.075 h 8.298 c 1.074,0 1.943,-0.593 2.2,-1.391 l 0.329,-1.024 c 0.047,-0.142 0.094,-0.386 0.094,-0.591 0,-0.898 -0.843,-1.637 -1.874,-1.637 h -6.843 c -1.241,0 -2.226,-0.325 -2.226,-1.696 h 8.903 c 0.961,0 1.477,-0.367 1.663,-1 l 0.307,-1.083 c 0.045,-0.205 0.116,-0.493 0.116,-0.759 -0.001,-0.614 -0.611,-1.145 -1.336,-1.145"
   id="path27"
   inkscape:connector-curvature="0"
   style="fill:#fcaf17"
   transform="matrix(4.8641986,0,0,4.8641986,-1084.5509,-113.36988)" /><path
   clip-path="url(#SVGID_4_)"
   d="m 242.597,54.796 c -2.203,0 -3.022,-1.348 -3.022,-2.454 0,-1.288 1.125,-3.167 3.818,-3.167 h 5.132 c 1.195,0 2.203,-0.635 2.6,-1.86 l 0.352,-1.063 c 0.07,-0.203 0.165,-0.552 0.165,-0.818 0,-1.226 -1.358,-1.817 -2.204,-1.817 h -5.67 c -7.358,0 -12.279,3.454 -12.279,9.177 0,4.497 4.569,7.563 9.514,7.563 h 5.717 c 1.194,0 2.202,-0.636 2.6,-1.86 l 0.353,-1.063 c 0.069,-0.205 0.163,-0.553 0.163,-0.818 0,-1.227 -1.359,-1.82 -2.202,-1.82 h -5.037"
   id="path29"
   inkscape:connector-curvature="0"
   style="fill:#fcaf17"
   transform="matrix(4.8641986,0,0,4.8641986,-1084.5509,-113.36988)" /><path
   clip-path="url(#SVGID_4_)"
   d="m 273.762,51.199 c 0,5.887 -5.015,9.524 -12.396,9.524 -5.624,0 -10.123,-3.311 -10.123,-7.93 0,-5.887 4.944,-9.523 12.302,-9.523 5.647,0 10.217,3.31 10.217,7.929 m -7.827,0.675 c 0.072,-0.205 0.118,-0.532 0.118,-0.697 0,-1.041 -0.821,-2.387 -3.023,-2.387 -1.875,0 -3.187,0.999 -3.63,2.349 l -0.33,1.021 c -0.068,0.204 -0.117,0.53 -0.117,0.694 0,1.042 0.821,2.392 3.023,2.392 1.875,0 3.211,-1.001 3.632,-2.351 l 0.327,-1.021"
   id="path31"
   inkscape:connector-curvature="0"
   style="fill:#fcaf17"
   transform="matrix(4.8641986,0,0,4.8641986,-1084.5509,-113.36988)" /><path
   clip-path="url(#SVGID_4_)"
   d="m 363.522,37.063 -5.869,0.185 -1.789,-5.592 -1.64,5.64 c -12.928,-1.717 -30.964,-2.123 -50.079,-0.634 -13.922,1.086 -26.832,2.978 -37.646,5.355 -0.217,0.041 -0.345,0.207 -0.308,0.378 0.034,0.173 0.229,0.287 0.436,0.25 10.9,-2.027 23.887,-3.503 37.865,-4.133 18.764,-0.847 35.896,-0.015 48.681,2.029 l 0.04,0.025 -1.844,5.578 4.641,-3.599 4.733,3.472 -1.988,-5.526 4.767,-3.428"
   id="path33"
   inkscape:connector-curvature="0"
   style="fill:#fcaf17"
   transform="matrix(4.8641986,0,0,4.8641986,-1084.5509,-113.36988)" /><polyline
   clip-path="url(#SVGID_4_)"
   points="356.87,37.206 356.773,39.106 358.575,39.721 356.735,40.215     356.708,42.117 355.665,40.523 353.85,41.083 355.046,39.604 353.953,38.047 355.729,38.728 356.87,37.206   "
   id="polyline35"
   style="fill:#ffffff"
   transform="matrix(4.8641986,0,0,4.8641986,-1084.5509,-113.36988)" />
</svg>