<?xml version="1.0" encoding="UTF-8" standalone="no"?>
<svg
   xmlns:dc="http://purl.org/dc/elements/1.1/"
   xmlns:cc="http://creativecommons.org/ns#"
   xmlns:rdf="http://www.w3.org/1999/02/22-rdf-syntax-ns#"
   xmlns:svg="http://www.w3.org/2000/svg"
   xmlns="http://www.w3.org/2000/svg"
   xmlns:sodipodi="http://sodipodi.sourceforge.net/DTD/sodipodi-0.dtd"
   xmlns:inkscape="http://www.inkscape.org/namespaces/inkscape"
   version="1.1"
   id="Layer_1"
   x="0px"
   y="0px"
   width="631"
   height="214"
   viewBox="0 0 631.00001 214"
   enable-background="new 0 0 839.055 595.276"
   xml:space="preserve">
<path
   style="fill:#f58220"
   inkscape:connector-curvature="0"
   id="path5"
   d="m 385.46962,190.56525 c 2.52038,0 2.16193,-1.07535 6.85559,-1.07535 4.3351,0 7.94218,5.02964 7.94218,8.28939 0,5.78025 -8.65919,14.06975 -23.09851,14.06975 -14.79777,0 -22.37027,-7.58373 -22.37027,-23.09851 V 131.7325 c 0,-7.58373 -5.06334,-10.83236 -12.27739,-10.83236 -8.65918,0 -18.7633,6.8556 -18.7633,26.70548 v 51.59634 c 0,7.59497 -6.49714,12.63584 -14.79788,12.63584 -7.94218,0 -14.06964,-5.04087 -14.06964,-12.63584 v -64.22094 c 0,-10.4738 -5.78024,-14.08088 -12.99429,-14.08088 -8.67031,0 -19.49143,6.8556 -19.49143,26.70548 v 51.59634 c 0,7.59497 -6.85559,12.63584 -15.15633,12.63584 -8.30063,0 -13.72242,-5.04087 -13.72242,-12.63584 v -88.41717 c 0,-7.22528 6.13869,-12.983157 13.72242,-12.983157 9.01764,0 13.7113,4.323977 13.7113,11.538127 7.94218,-10.104221 19.13298,-12.99429 29.23709,-12.99429 16.60137,0 24.54355,5.052 28.86752,13.72242 9.02877,-10.832351 18.7633,-13.72242 31.04069,-13.72242 27.79206,0 32.11604,17.32939 32.11604,35.01734 v 53.76952 c 0,3.99901 0.7169,5.43292 3.24863,5.43292" /><path
   style="fill:#f58220"
   inkscape:connector-curvature="0"
   id="path7"
   d="m 511.31259,99.101147 h 7.03482 l 0.7276,-14.831478 c 0.35845,-7.953414 3.24852,-14.103237 12.29975,-14.103237 9.04,0 13.74479,2.531619 13.74479,11.213168 v 17.721547 h 27.13123 c 5.79137,0 10.12658,3.965423 10.12658,9.409573 0,5.78025 -4.33521,10.85472 -10.12658,10.85472 h -27.13123 v 54.25123 c 0,9.76813 2.16204,15.91795 12.65831,15.91795 4.70478,0 8.68155,-1.81471 13.38633,-5.79137 2.89007,-2.54285 5.4218,-3.25975 7.95342,-3.25975 4.70479,0 9.39845,2.9013 9.39845,7.96454 0,2.53173 -1.07535,5.42179 -1.80349,6.50838 -7.95341,13.38634 -23.50179,16.63496 -35.80154,16.63496 -20.99254,0 -33.28106,-11.57172 -33.28106,-28.93471 V 119.724 h -6.31792 c -7.59496,0 -9.39844,-5.43303 -9.39844,-10.5075 -0.0107,-4.68243 2.16193,-10.115353 9.39844,-10.115353" /><path
   style="fill:#f58220"
   inkscape:connector-curvature="0"
   id="path9"
   d="m 57.542986,213.99974 h -0.0321 c -17.654245,0 -32.373694,-5.67935 -42.601071,-16.43327 C 5.1416813,187.29426 -0.01122272,173.05652 1.22714e-5,156.38796 0.02141226,112.53232 31.287122,92.884022 62.271742,92.872787 c 9.7233,0 19.5811,2.094845 27.041565,5.735412 8.535922,4.167111 13.240813,10.014551 13.240813,16.466971 -0.0107,7.75172 -4.828048,12.63584 -12.579874,12.7254 -2.139572,0 -5.668216,-0.68373 -8.591883,-2.59882 -6.575576,-4.09991 -11.515657,-4.91771 -17.363098,-4.91771 h -0.907359 c -9.622507,0.13482 -17.844705,3.27099 -23.781811,9.10719 -6.586704,6.45231 -9.980957,16.04122 -9.83533,27.74734 0.25787,20.14114 11.269236,31.70152 30.222995,31.70152 h 0.62702 c 10.720326,-0.13482 16.769354,-3.47258 22.560834,-8.44626 3.259754,-3.04693 8.524687,-6.34028 13.442405,-6.34028 0.7169,0 1.411437,0.0856 2.06114,0.2354 4.973681,1.08658 7.718121,4.71602 7.706891,10.20501 0,6.14993 -3.98789,11.13474 -6.373885,13.55444 -8.983931,9.81286 -25.15965,15.94042 -42.197788,15.95155" /><path
   style="fill:#f58220"
   inkscape:connector-curvature="0"
   id="path11"
   d="m 424.53081,145.0404 c 5.42179,0.35845 13.74489,0.7169 20.9813,0.7169 15.90683,0 25.67496,-3.6182 25.67496,-14.47292 0,-10.11535 -11.21317,-12.6582 -18.08,-12.6582 -13.76715,0 -27.14236,9.04 -28.57626,26.41422 m 73.78749,45.56968 c -6.51961,13.75602 -26.4031,21.70944 -45.58091,21.70944 -37.25771,0 -56.78274,-23.14335 -56.78274,-54.97936 0,-37.61616 23.50168,-60.770739 56.78274,-60.770739 27.13123,0 45.93936,13.027999 45.93936,34.726199 0,17.36299 -15.54838,35.44298 -52.07795,35.44298 -7.6062,0 -15.55961,-0.35845 -20.62285,-1.07535 3.24852,17.72155 13.74478,23.87137 29.65161,23.87137 10.12659,0 16.28764,-2.89006 22.42634,-7.95341 3.6182,-3.25975 6.87806,-5.06324 11.58285,-5.06324 5.78025,0 9.76813,4.33521 9.76813,8.67032 0,1.81472 -0.7276,4.34633 -1.08658,5.42179" /><path
   style="fill:#f58220"
   inkscape:connector-curvature="0"
   id="path13"
   d="m 138.01798,153.35227 c 0,-21.33975 13.38633,-32.19447 29.30429,-32.19447 15.91806,0 29.29316,7.60609 29.29316,34.36764 0,21.70943 -13.3751,32.19447 -29.29316,32.19447 -15.91796,0 -29.30429,-7.59486 -29.30429,-34.36764 m -28.93472,1.08658 c 0,41.60415 26.76144,57.88067 58.23901,57.88067 31.46633,0 58.22788,-20.9813 58.22788,-57.88067 0,-41.59292 -26.76155,-57.869429 -58.22788,-57.869429 -31.46633,0 -58.23901,20.981299 -58.23901,57.869429" /><path
   style="fill:#f58220"
   inkscape:connector-curvature="0"
   id="path15"
   d="m 625.03504,25.582545 -19.18906,0.21293 c -4.42477,0.13482 -4.95121,-0.25787 -6.30668,-4.469603 L 593.97198,6.2816781 c -2.71095,-8.4238929 -6.96762,-8.3679319 -9.44328,0.1230499 l -5.13054,15.145095 c -1.24344,4.25678 -3.39414,5.399325 -6.20589,4.570397 C 520.07246,10.594311 464.84679,4.3884208 417.24957,4.3771858 281.50407,4.3343858 184.32692,44.625863 125.84138,86.207652 c -1.74752,1.086585 -2.44206,2.173169 -2.44206,3.965526 0,1.097712 1.05288,2.173169 2.78928,2.173169 0.69443,0 1.73639,0 3.12536,-0.7062 42.47791,-30.032428 149.05351,-70.31481 277.83139,-70.269977 48.95269,0.0107 103.93195,8.412658 159.16896,26.302196 3.95429,1.221083 4.5704,3.25986 4.21184,4.402406 l -6.09386,18.65127 c -1.53459,5.589785 3.69674,7.13572 6.66524,4.536798 l 15.32432,-11.381157 c 3.49494,-2.722079 3.59584,-2.744442 7.15798,-0.12305 l 15.89559,11.101138 c 4.05519,2.789382 7.66216,-0.0856 6.12757,-4.64872 l -6.64277,-18.236859 c -1.5011,-4.167113 -1.16502,-5.41056 2.44195,-8.009375 L 628.50761,32.09071 c 3.87586,-2.755677 3.56224,-6.732437 -3.47257,-6.508379 M 594.45359,45.085 l -0.19046,12.154125 -6.6876,-10.238612 -11.61645,3.685399 7.60609,-9.476772 -7.00122,-9.969828 11.40362,4.211946 7.43811,-9.790496 -0.75007,12.198958 11.63881,4.077448 -11.84051,3.147832 z" />
</svg>