<?xml version="1.0" encoding="UTF-8" standalone="no"?>
<svg
   xmlns:dc="http://purl.org/dc/elements/1.1/"
   xmlns:cc="http://creativecommons.org/ns#"
   xmlns:rdf="http://www.w3.org/1999/02/22-rdf-syntax-ns#"
   xmlns:svg="http://www.w3.org/2000/svg"
   xmlns="http://www.w3.org/2000/svg"
   xmlns:sodipodi="http://sodipodi.sourceforge.net/DTD/sodipodi-0.dtd"
   xmlns:inkscape="http://www.inkscape.org/namespaces/inkscape"
   version="1.1"
   id="Layer_1"
   x="0px"
   y="0px"
   width="750"
   height="200"
   viewBox="0 0 750 200"
   enable-background="new 0 0 595 842"
   xml:space="preserve">
<rect
   style="fill:#ef4137"
   id="rect9"
   height="750"
   width="200.00043"
   y="-750"
   x="-0.0004251365"
   transform="matrix(0,1,-1,0,0,0)" /><polyline
   style="fill:#ffffff"
   id="polyline11"
   points="48.067,65.921 31.807,58.667 31.807,68.089 38.311,74.259 31.807,74.342 31.807,83.515      37.311,88.101 37.311,84.849 48.067,89.685 48.067,82.764 42.48,80.346 48.067,80.679 48.067,75.843 42.73,71.007 48.067,73.175      48.067,65.921    "
   transform="matrix(0,6.3461978,-6.3461978,0,845.49124,-151.99821)" /><path
   style="fill:#ffffff"
   inkscape:connector-curvature="0"
   id="path13"
   d="m 603.88514,44.562574 -51.86112,0 -5.81312,6.352544 -51.3344,0 -28.57692,34.396393 20.1111,0 -34.3964,67.732969 c 9.74142,0 91.93103,0.019 92.07699,0.019 l 23.2842,-29.1227 -59.26714,0 3.70618,-7.40602 43.91568,0 19.05129,-23.817277 -53.44768,0 4.23292,-7.406012 43.92203,0 34.39639,-40.748937" /><polyline
   style="fill:#ffffff"
   id="polyline15"
   points="31.89,37.153 31.89,29.399 30.89,28.398 30.89,20.977 37.311,26.313 37.311,29.399      47.983,32.984 47.983,40.489 37.311,36.319 37.311,41.489 31.89,37.153    "
   transform="matrix(0,6.3461978,-6.3461978,0,845.49124,-151.99821)" /><path
   style="fill:#ffffff"
   inkscape:connector-curvature="0"
   id="path17"
   d="m 219.18498,80.018782 c 7.55197,0.361733 10.52834,1.35174 13.22548,7.406012 3.8331,10.274495 -8.05333,29.636746 -22.75112,31.223296 -8.00256,1.05347 -13.21279,-2.62098 -14.29164,-8.46583 -1.91655,-12.140277 8.38333,-30.798098 23.81728,-30.163478 M 232.41046,46.15547 c -53.56191,-3.47137 -103.48745,51.886513 -71.43281,93.13045 9.77949,12.03874 29.17347,15.98608 53.44133,11.64528 50.69343,-8.73872 81.93576,-62.059473 52.9146,-92.076988 -4.72157,-4.505801 -11.02969,-11.239116 -34.92312,-12.698742 z" /><path
   style="fill:#ffffff"
   inkscape:connector-curvature="0"
   id="path19"
   d="m 119.70198,44.03584 55.56096,0 L 139.28,85.311511 c -26.99672,-7.989863 -50.775926,-1.53578 -56.09404,16.404919 -2.931943,11.21373 12.457587,35.38005 58.20733,3.1731 L 117.58235,146.1652 C 83.750772,162.57012 38.65469,148.39906 38.210456,110.18226 37.905839,79.022429 60.656958,51.511661 114.40925,50.382038 l 5.29273,-6.346198" />
</svg>