<?xml version="1.0" encoding="UTF-8" standalone="no"?>
<svg
   xmlns:dc="http://purl.org/dc/elements/1.1/"
   xmlns:cc="http://creativecommons.org/ns#"
   xmlns:rdf="http://www.w3.org/1999/02/22-rdf-syntax-ns#"
   xmlns:svg="http://www.w3.org/2000/svg"
   xmlns="http://www.w3.org/2000/svg"
   xmlns:sodipodi="http://sodipodi.sourceforge.net/DTD/sodipodi-0.dtd"
   xmlns:inkscape="http://www.inkscape.org/namespaces/inkscape"
   version="1.1"
   id="Layer_1"
   x="0px"
   y="0px"
   width="721"
   height="326"
   viewBox="0 0 721 326"
   enable-background="new 0 0 1296 792"
   xml:space="preserve">
<path
   style="fill:#e00038"
   id="path15"
   d="M 28.734312,19.382066 C 45.388253,6.383433 66.606872,1.67263e-5 90.312883,1.67263e-5 c 12.321067,0 29.652577,2.4963080737 40.377787,5.4651315737 2.7281,0.6864847 4.32396,1.1411694 6.38341,0.9182847 0.2318,5.242247 1.36406,19.613849 3.19171,33.512936 -1.14117,1.604769 -4.57359,1.836569 -6.16053,0.4636 -3.41459,-15.503856 -13.6762,-33.2900513 -46.752285,-33.2900513 -34.894821,0 -64.55631,22.1190723 -64.55631,69.3260413 0,47.884541 30.347974,74.345401 67.756933,74.345401 29.420772,0 42.419402,-19.15916 47.670572,-32.60356 1.59585,-1.15009 5.01936,-0.68649 5.92873,0.90045 -1.59586,11.86638 -7.5335,26.92446 -10.95701,31.24843 -2.72811,0.45468 -5.47405,1.37297 -7.97927,2.28234 -5.01936,1.82765 -21.4415,5.24224 -36.035991,5.24224 -20.523218,0 -40.145983,-4.10107 -56.799924,-15.28097 C 14.139826,129.98634 2.3712497e-5,109.24024 2.3712497e-5,79.828382 2.3712497e-5,54.499771 11.411718,32.844298 28.734312,19.382066" /><path
   style="fill:#e00038"
   id="path17"
   d="m 196.98548,61.114987 c -26.91555,0 -48.57103,20.532134 -48.57103,49.266423 0,28.49357 20.53214,46.96625 46.75229,46.96625 28.50249,0 48.11633,-20.50539 48.11633,-49.0257 0,-28.056724 -20.75501,-47.206973 -46.29759,-47.206973 m 26.68375,50.862273 c 0,17.5544 -6.16054,38.54122 -26.22015,38.54122 -20.05962,0 -29.42969,-22.35088 -29.42969,-43.10589 0,-25.0879 11.17989,-39.450587 26.23798,-39.450587 21.65547,0 29.41186,24.633212 29.41186,44.015257 z" /><path
   style="fill:#e00038"
   id="path19"
   d="m 501.06254,119.94762 c -10.93918,0 -20.7461,-10.47558 -20.7461,-26.674836 0,-15.512771 8.19324,-25.551496 19.13242,-25.551496 13.92583,0 20.30925,13.007548 20.30925,28.511404 0.009,13.925828 -6.38342,23.714928 -18.69557,23.714928 m -15.04917,44.02417 c 3.19171,-2.05053 12.31215,-2.50522 19.62277,-2.50522 h 7.73855 c 16.42214,0 26.00618,5.91982 26.00618,19.83673 0,12.99864 -13.46223,24.3925 -33.74473,24.3925 -20.76394,0 -30.57086,-10.25269 -30.57086,-22.56484 0,-8.66576 5.48296,-15.74457 10.94809,-19.15917 z M 407.71845,86.434683 h -28.0478 c -6.39233,0 -6.61522,-0.240715 -4.79648,-5.474047 l 14.36269,-39.682383 c 2.51414,-6.847016 4.79647,-12.321063 5.48296,-13.453317 h 0.45468 c 1.36406,2.728108 3.42351,8.897555 5.23334,14.353771 l 12.32106,37.186075 c 2.06837,6.151616 1.59585,7.069901 -5.01045,7.069901 z M 553.29779,69.326057 h -18.45485 c -5.03719,0 -6.62413,-0.454684 -13.93475,-3.646392 -5.23333,-2.291255 -13.20369,-4.564678 -21.88727,-4.564678 -20.30034,0 -37.16825,14.826287 -37.16825,34.440136 0,14.603397 9.34333,23.483127 17.09972,27.602037 0,1.12334 -1.14117,2.96882 -2.27343,4.32396 -3.87819,4.10108 -8.21107,7.97927 -12.08926,10.48449 -2.49631,1.83657 -3.42351,2.73703 -3.42351,3.8782 0,1.98813 0.49035,3.95843 1.33731,5.83957 -6.71329,-1.8544 -9.7356,-6.82027 -15.33447,-23.40288 L 415.93844,32.612498 C 412.51493,22.573774 408.86854,12.080365 405.89971,2.0505555 405.43611,0.44578602 403.84917,1.67263e-5 402.48512,1.67263e-5 399.97098,2.9599248 396.08387,7.0699177 390.60983,8.6568564 c 0.6954,3.6463926 -0.67757,7.9881856 -3.86928,16.1992566 l -23.26024,61.57857 c -9.57513,25.542577 -15.96746,40.368867 -20.07745,50.853357 -2.21102,5.67019 -5.28683,8.58552 -8.78166,10.0209 -3.85144,-1.81874 -4.14565,-6.06246 -4.14565,-18.68665 V 89.403507 c 0,-15.289887 -7.75639,-28.28852 -26.68375,-28.28852 -11.65241,0 -22.34196,5.705847 -31.93491,11.643494 -1.60477,0 -2.50523,-1.150085 -2.50523,-2.514139 0,-2.050539 0,-5.482962 0.45469,-10.734124 -0.45469,-1.123339 -1.60477,-1.586939 -2.50523,-1.586939 -4.57359,3.423508 -17.57222,9.361155 -22.81447,11.179894 -1.13225,0.677569 -1.13225,3.182793 -0.22288,4.092162 l 2.05945,1.381885 c 6.15162,4.101077 6.15162,5.251162 6.15162,14.139802 v 39.905268 c 0,16.42214 -0.2318,18.70448 -8.67467,19.83673 l -4.79648,0.68649 c -1.59586,1.14117 -1.14117,5.02828 0.47251,5.70584 6.37451,-0.45468 13.21261,-0.67756 21.42368,-0.67756 7.98818,0 14.6034,0.22288 20.75502,0.67756 1.60476,-0.67756 2.05053,-4.56467 0.45468,-5.70584 l -4.10999,-0.68649 c -8.20216,-1.35514 -8.65684,-3.41459 -8.65684,-19.83673 V 93.727469 c 0,-6.606301 0.45468,-9.798009 3.43242,-13.676202 3.17388,-4.332878 10.69846,-7.988186 19.36422,-7.988186 15.51277,0 21.45042,9.58404 21.45042,22.582672 v 33.976537 c 0,16.42214 -0.24072,18.48159 -8.66576,19.83673 l -4.33288,0.68649 c -1.60476,1.14117 -1.15008,5.02828 0.45469,5.70584 31.2306,-2.12186 45.49521,-1.4532 67.20418,0 2.05945,-0.91828 2.05945,-4.56467 0.48143,-5.70584 l -7.54242,-0.68649 c -5.46513,-0.4636 -6.6063,-1.81874 -6.6063,-4.56467 0,-2.50523 1.59586,-8.65684 5.01936,-18.90954 l 7.98819,-23.95564 c 1.59585,-4.796478 2.95991,-5.474047 8.65684,-5.474047 h 34.44014 c 6.82918,0 7.73855,0.677569 9.35224,5.705847 l 10.04763,31.00771 c 1.80983,5.47405 2.951,9.57513 2.951,12.08927 0,2.28233 -3.19171,3.63747 -7.98819,4.10107 l -6.62413,0.68649 c -1.58694,1.14117 -1.35514,4.78756 0.48143,5.70584 6.59739,-0.21396 15.26314,-0.67756 26.22015,-0.67756 8.4607,0 15.40579,0.16047 22.8323,0.48143 2.79052,2.39823 6.21403,4.27047 9.84259,5.20658 2.05054,1.38189 0.2318,3.42351 -1.80982,5.49188 -5.25117,5.22442 -11.63458,11.15315 -15.50386,15.26314 -1.6226,1.82765 -2.50522,4.79648 -2.50522,8.43395 0,11.42061 9.78909,26.46087 37.8369,26.46087 29.65257,0 56.79992,-18.24979 56.79992,-43.10589 0,-22.80556 -19.15025,-25.07898 -31.94383,-25.07898 -10.02981,0 -19.39096,0.66865 -27.13843,0.66865 -10.7163,0 -15.94963,-4.32396 -15.94963,-9.58404 0,-6.59738 7.28387,-10.93026 10.02981,-12.52611 2.73702,0.24071 5.91982,0.68648 10.02981,0.68648 28.975,0 38.30941,-20.52322 38.30941,-36.267789 0,-3.869278 0,-7.756386 -0.45468,-11.625664 h 16.43105 c 3.40568,-0.454684 3.86928,-8.21107 1.36406,-9.35224 z" /><path
   style="fill:#e00038"
   id="path21"
   d="m 568.50744,88.717022 c 0,-8.88864 0,-10.038725 -6.15162,-14.139802 l -2.05945,-1.381885 c -0.90046,-0.909369 -0.90046,-3.414593 0.24071,-4.092162 5.24225,-1.818739 17.33151,-7.756386 23.02844,-11.179894 1.14117,0.222885 1.83657,0.686485 1.83657,1.586939 v 13.248263 c 0,1.132254 0.21397,1.818739 0.67757,2.041623 7.97927,-6.615216 16.63611,-13.685117 25.07898,-13.685117 5.69693,0 10.26161,3.646393 10.26161,9.129355 0,7.515671 -6.16053,10.484494 -9.81584,10.484494 -2.27342,0 -3.41459,-0.677569 -5.01045,-1.604769 -3.44133,-2.264508 -6.85593,-3.646393 -10.04763,-3.646393 -3.63748,0 -6.37451,2.059454 -8.20216,4.573593 -2.28234,3.182792 -2.95991,9.806924 -2.95991,17.56331 v 31.007713 c 0,16.42214 0.43686,19.15025 9.11153,19.83673 l 8.20215,0.68649 c 1.60477,1.14117 1.159,5.02828 -0.44577,5.70584 -10.72521,-0.45468 -17.33151,-0.67756 -25.31969,-0.67756 -8.20216,0 -15.04918,0.22288 -20.97791,0.67756 -1.6226,-0.67756 -2.05945,-4.56467 -0.48143,-5.70584 l 4.3418,-0.68649 c 8.43395,-1.35514 8.66575,-3.41459 8.66575,-19.83673 V 88.717022" /><path
   style="fill:#e00038"
   id="path23"
   d="m 637.17374,116.76483 c -14.6034,5.24224 -18.92737,10.48449 -18.92737,19.38204 0,6.38342 2.72811,12.08927 7.06991,15.96746 3.87819,3.42351 9.35224,5.23333 15.95854,5.23333 6.38341,0 11.41169,-2.95099 16.43105,-5.68801 4.56468,-2.51414 7.28387,-4.55577 8.89756,-4.55577 1.35514,0 2.73702,1.81874 3.63747,3.1828 3.88711,5.01936 9.35224,7.06098 14.81738,7.06098 11.17989,0 19.15916,-8.88864 19.15916,-10.02089 0,-1.58694 -0.6954,-2.96882 -1.59585,-2.96882 -0.68649,0 -1.80983,0.91828 -2.95991,1.60476 -1.37297,0.67757 -3.43243,1.36406 -5.71476,1.36406 -8.89756,0 -10.9481,-9.36116 -10.49341,-19.84565 l 1.36405,-39.682383 c 0.68649,-17.108625 -7.28387,-26.68375 -23.70601,-26.68375 -16.64503,0 -42.44615,16.190341 -42.44615,28.038889 0,2.077285 1.159,3.209539 3.21845,3.209539 3.41459,0 9.56621,-1.595854 12.98972,-4.341793 1.81874,-1.364054 2.05054,-4.092162 2.28234,-7.756386 0.45468,-7.069901 8.19324,-10.252694 14.59448,-10.252694 14.14872,0 16.88575,11.402779 16.64503,19.845649 l -0.21397,10.475579 c -0.2318,3.43242 -0.4636,5.47405 -3.89602,6.62413 l -27.11169,9.80693 m -1.38189,16.65394 c 0,-8.89756 6.61522,-12.32107 20.07745,-16.88574 4.10108,-1.36406 7.98819,-2.27343 9.35224,-2.27343 1.37297,0 2.29126,0.44577 2.29126,2.96883 l -0.47252,13.4444 c 0,4.78756 -0.22288,7.98818 -2.95991,10.71629 -2.27342,2.28234 -9.34332,5.71476 -13.92583,5.71476 -11.61675,0 -14.36269,-9.81584 -14.36269,-13.68511 z" /><path
   style="fill:#e00038"
   id="path25"
   d="m 706.16991,238.8967 v -4.32396 h 2.88859 c 1.47995,0 3.04014,0.32095 3.04014,2.05053 0,2.1397 -1.59585,2.27343 -3.37893,2.27343 h -2.5498 m 0,1.80091 h 2.42499 l 3.69096,6.05354 h 2.38041 l -3.97626,-6.15161 c 2.05945,-0.25855 3.62856,-1.34623 3.62856,-3.84254 0,-2.76376 -1.63151,-3.98517 -4.94804,-3.98517 h -5.32248 v 13.97932 h 2.11294 v -6.05354 z m 2.56763,11.1888 c 6.6063,0 12.24974,-5.13526 12.24974,-12.15167 0,-6.96291 -5.64344,-12.08926 -12.24974,-12.08926 -6.67762,0 -12.32106,5.12635 -12.32106,12.08926 0,7.01641 5.64344,12.15167 12.32106,12.15167 z m -9.86933,-12.15167 c 0,-5.7415 4.32396,-10.07438 9.86933,-10.07438 5.48296,0 9.81584,4.33288 9.81584,10.07438 0,5.83958 -4.32396,10.12788 -9.81584,10.12788 -5.54537,0 -9.86933,-4.2883 -9.86933,-10.12788 z" /><path
   style="fill:#e00038"
   id="path27"
   d="m 270.13622,234.84911 c 0,6.15162 0.68648,6.15162 7.51567,6.15162 h 15.52168 c 9.34333,0 16.65394,-0.45469 19.37314,-1.36406 2.50522,-0.90937 4.33287,-2.05053 5.71476,-7.98818 l 2.04162,-9.12044 c 1.13226,-1.35514 5.02828,-1.35514 5.92873,0 0,5.47405 -0.90045,14.61232 -0.90045,23.04627 0,8.20216 0.90045,16.86791 0.90045,22.11907 -0.90045,1.36406 -4.31504,1.36406 -5.92873,0 l -2.27342,-8.90647 c -0.90937,-4.09216 -2.97774,-7.29278 -7.29279,-8.66575 -3.18279,-0.90046 -8.89755,-1.14117 -17.56331,-1.14117 h -15.52168 c -6.82919,0 -7.51567,0.24071 -7.51567,6.16053 v 31.70311 c 0,23.94673 0.4636,27.37915 13.91691,28.51141 l 7.73856,0.67757 c 1.38188,0.9272 0.9272,5.01936 -0.45469,5.71476 -13.4444,-0.45469 -21.20078,-0.6954 -30.33014,-0.6954 -10.01198,0 -17.78619,0.24071 -28.50249,0.6954 -1.36405,-0.6954 -1.81874,-4.33288 -0.43685,-5.71476 l 5.68801,-0.67757 c 13.23935,-1.60477 13.67621,-4.56468 13.67621,-28.51141 v -82.09287 c 0,-23.95564 -0.43686,-27.14735 -13.67621,-28.73429 l -3.6553,-0.4636 c -1.36406,-0.90937 -0.90046,-5.01936 0.4636,-5.69693 9.58404,0.44577 17.33151,0.67757 26.45195,0.67757 h 41.97363 c 14.60341,0 27.81601,0 30.77592,-0.67757 0,10.49341 0.24071,21.43259 0.68648,30.08943 -0.68648,1.3908 -3.87819,2.06837 -5.45622,0.70431 -1.81873,-10.27052 -4.57359,-18.48159 -15.96745,-21.6733 -5.02828,-1.13226 -12.53503,-1.37297 -22.11907,-1.37297 h -13.91692 c -6.84702,0 -6.84702,0.45468 -6.84702,9.12935 v 48.11634" /><path
   style="fill:#e00038"
   id="path29"
   d="m 378.75236,227.6544 c -26.91555,0 -48.5621,20.53213 -48.5621,49.26642 0,28.50249 20.52321,46.97517 46.75228,46.97517 28.48466,0 48.10742,-20.50539 48.10742,-49.02571 0,-28.06564 -20.73719,-47.21588 -46.2976,-47.21588 m 26.68375,50.87119 c 0,17.55439 -6.13378,38.54121 -26.20232,38.54121 -20.09528,0 -29.42077,-22.35087 -29.42077,-43.10589 0,-25.0879 11.16206,-39.4595 26.22907,-39.4595 21.65547,0 29.39402,24.6243 29.39402,44.02418 z" /><path
   style="fill:#e00038"
   id="path31"
   d="m 479.16635,227.485 c -26.93338,0 -48.57993,20.54105 -48.57993,49.26643 0,28.5114 20.52321,46.98408 46.75228,46.98408 28.5114,0 48.10742,-20.5143 48.10742,-49.03462 0,-28.05672 -20.73719,-47.21589 -46.27977,-47.21589 m 26.68375,50.8712 c 0,17.55439 -6.16944,38.54121 -26.22015,38.54121 -20.07744,0 -29.42968,-22.35087 -29.42968,-43.09698 0,-25.09681 11.17989,-39.45949 26.22906,-39.45949 21.6733,0 29.42077,24.62429 29.42077,44.01526 z" /><path
   style="fill:#e00038"
   id="path33"
   d="m 619.53911,187.11614 c 0,-10.02981 0.47251,-21.44151 0.6954,-28.27069 -0.44577,-0.9272 -1.37297,-1.37297 -2.27343,-1.37297 -8.20215,4.33288 -18.94519,7.74747 -24.64212,9.57512 -1.14117,0.67757 -1.14117,3.8782 0,4.56468 l 2.28233,1.36405 c 6.83811,4.11 7.06991,5.48297 7.06991,18.93628 v 34.44014 c 0,1.81874 -0.2318,3.18279 -1.34623,3.18279 -2.53197,-0.90937 -7.55133,-2.05054 -15.2988,-2.05054 -31.01663,0 -55.19515,20.53214 -55.19515,52.45813 0,23.93782 16.86791,43.79238 42.20543,43.79238 10.93027,0 18.67774,-3.65531 28.72538,-10.49341 h 0.91828 c 0.4636,0.91829 0.4636,3.63748 0.4636,7.0699 v 3.87819 c 0,1.13226 1.15009,1.80983 2.49631,1.80983 6.39233,-2.49631 20.53213,-5.91982 30.12509,-7.28387 2.04162,-1.14117 1.80982,-6.8381 0.21397,-7.3017 -3.42351,1.14117 -7.3017,2.29125 -9.81584,2.29125 -6.3745,0 -6.62413,-8.44287 -6.62413,-26.46978 V 187.11614 m -16.859,110.83607 c 0,3.6464 -0.2318,7.08774 -1.59585,8.44287 -3.65531,3.6464 -11.4117,6.39234 -17.56331,6.39234 -22.35088,0 -33.99437,-19.62277 -33.99437,-40.3867 0,-19.83674 10.70738,-37.8369 31.47131,-37.8369 8.90647,0 15.75349,4.78756 19.16808,9.57512 1.58694,2.28234 2.49631,4.33288 2.49631,8.88864 v 44.92463 z" /><path
   style="fill:#e00038"
   id="path35"
   d="m 687.80422,232.11209 c 2.05945,5.02828 3.6553,12.32106 3.6553,18.47268 -0.9272,1.59585 -4.33287,2.06837 -5.48296,0.67757 -3.86928,-10.02981 -10.71629,-16.64503 -20.0507,-16.64503 -8.90647,0 -14.61232,5.71476 -14.61232,13.91692 0,9.34332 9.56621,14.3716 17.57223,18.93628 12.07143,6.8381 23.26024,14.59449 23.26024,30.77591 0,17.34043 -15.96746,26.00618 -32.86211,26.00618 -10.72521,0 -18.69557,-2.29125 -24.40142,-6.8381 -1.82765,-4.34179 -3.18279,-15.50386 -2.7281,-23.02844 1.14117,-1.36405 4.10107,-1.60477 5.25116,-0.24072 3.86036,12.54395 11.15315,23.49205 24.16069,23.49205 8.21999,0 15.28098,-4.77865 15.28098,-14.60341 0,-10.47557 -9.10261,-16.19034 -17.56331,-20.96898 -13.23044,-7.53351 -22.58268,-15.51278 -22.58268,-28.05672 0,-16.64503 13.69404,-26.00618 31.03446,-26.00618 9.58404,0 18.02691,2.28233 20.06854,4.10999" />
</svg>