<?xml version="1.0" encoding="UTF-8" standalone="no"?>
<svg
   xmlns:dc="http://purl.org/dc/elements/1.1/"
   xmlns:cc="http://creativecommons.org/ns#"
   xmlns:rdf="http://www.w3.org/1999/02/22-rdf-syntax-ns#"
   xmlns:svg="http://www.w3.org/2000/svg"
   xmlns="http://www.w3.org/2000/svg"
   xmlns:sodipodi="http://sodipodi.sourceforge.net/DTD/sodipodi-0.dtd"
   xmlns:inkscape="http://www.inkscape.org/namespaces/inkscape"
   version="1.1"
   id="Layer_1"
   x="0px"
   y="0px"
   width="621"
   height="377"
   viewBox="0 0 621 377"
   enable-background="new 0 0 612 792"
   xml:space="preserve">
<path
   style="fill:#bd3732"
   id="path5"
   d="m 152.19406,120.71731 c -18.86616,0 -31.82479,-15.14948 -31.82479,-33.801217 0,-18.45285 12.95553,-33.798114 31.82479,-33.798114 18.85684,0 31.81548,15.345264 31.81548,33.798114 0,18.648627 -12.95864,33.801217 -31.81548,33.801217 m 0,-81.978135 c -26.29329,0 -47.0644,21.566653 -47.0644,48.372696 0,26.806039 20.95446,47.987359 47.0644,47.987359 26.09752,0 47.06441,-21.17821 47.06441,-47.987359 -0.003,-26.806043 -20.76801,-48.372696 -47.06441,-48.372696" /><path
   style="fill:#bd3732"
   id="path7"
   d="m 574.021,120.55261 c -19.0495,0 -29.3294,-16.89905 -29.3294,-34.773893 0,-17.094835 11.43592,-32.822332 29.14606,-32.822332 18.86305,0 30.10941,14.761037 30.10941,33.018109 -0.003,18.449746 -10.29855,34.578116 -29.92607,34.578116 m -1.89873,-81.978137 c -26.86198,0 -43.06183,22.340442 -43.06183,48.375804 0,25.249143 16.56965,47.984243 42.87537,47.984243 12.56398,0 23.04897,-5.04982 30.86145,-15.1588 h 0.38845 v 12.62612 H 618.4222 V 41.169308 c 0,0 -1.12805,-0.220639 -2.77196,-0.220639 -4.39102,0 -12.46453,1.575547 -12.46453,13.151308 l -0.38845,0.0093 C 595.36391,44.407413 584.31955,38.574473 572.12227,38.574473" /><path
   style="fill:#bd3732"
   id="path9"
   d="m 51.352873,269.08594 c 7.427132,9.06794 18.654843,14.8294 31.262323,14.8294 14.030754,0 26.395844,-7.14123 33.655164,-18.01157 4.83851,-7.25311 15.70574,0 10.87345,7.25 -9.5838,14.35084 -25.94835,23.83208 -44.525506,23.83208 -16.700172,0 -31.573082,-7.65709 -41.371304,-19.6213 -5.525289,-6.74036 4.586799,-15.02207 10.105873,-8.27861 M 165.22728,243.48875 c 0,45.62869 -36.98339,82.61519 -82.612084,82.61519 C 36.983391,326.10394 8.8639995e-7,289.11744 8.8639995e-7,243.48875 8.8639995e-7,197.86005 36.983391,160.87666 82.615196,160.87666 c 22.088724,0 42.154414,8.67017 56.974494,22.78793 8.74475,-9.49367 19.58712,-19.63684 30.29276,-26.77496 12.27186,-8.18228 27.89059,2.0075 16.98607,10.07479 -14.35395,9.04929 -28.26972,17.47707 -39.23329,25.55058 11.01951,14.04319 17.59205,31.74089 17.59205,50.97375 m -149.767035,0 c 0,37.09526 30.065903,67.15495 67.151843,67.15495 37.085942,0 67.151842,-30.0628 67.151842,-67.15495 0,-15.48511 -5.2456,-29.74272 -14.0494,-41.10716 -1.82415,1.76822 -3.44942,3.524 -4.83851,5.27047 0.3263,12.24389 -5.96657,24.39144 -15.5628,31.24367 -13.25696,9.46571 -26.976957,9.83552 -32.949739,1.90495 -5.975889,-7.93056 -0.27036,-22.30625 12.741106,-32.10758 10.410413,-7.84355 22.337333,-10.38245 29.758253,-7.02936 1.28032,-1.85213 2.84344,-3.95907 4.64273,-6.23693 -12.10094,-11.81505 -28.64884,-19.08991 -46.896589,-19.08991 -37.082833,0 -67.148736,30.0628 -67.148736,67.15185 m 78.075011,-12.05122 c 2.427025,2.9118 9.546504,1.20885 15.907734,-3.80369 6.36123,-5.01875 9.55583,-11.44835 7.12881,-14.36016 -2.42081,-2.91492 -9.53719,-1.20574 -15.90463,3.80679 -6.361232,5.01876 -9.552724,11.44835 -7.131914,14.35706" /><path
   style="fill:#bd3732"
   id="path11"
   d="m 522.88877,347.25729 c 0.39777,-5.71486 3.49604,-9.51854 9.24507,-9.51854 5.14927,0 8.1916,3.80679 8.1916,9.51854 h -17.43667 z m 19.54361,9.99399 c -1.97331,3.21325 -5.27979,5.23629 -9.503,5.23629 -5.68066,0 -10.17113,-4.76083 -10.17113,-11.54158 h 22.32491 v -2.85276 c 0,-9.87591 -5.94482,-14.04319 -13.07362,-14.04319 -8.45575,0 -14.00279,6.06601 -14.00279,16.06312 0,11.30229 7.26554,16.06001 14.92574,16.06001 7.78761,0 10.96046,-3.68871 13.20725,-7.20028 l -3.70736,-1.72161 z M 516.81965,334.6467 h -4.82297 l -8.71678,25.58165 h -0.13052 l -8.71989,-25.58165 h -4.82297 l 10.56268,30.93602 h 6.3457 l 10.30475,-30.93602 z m -28.20756,15.46646 c 0,-8.92499 -4.68624,-16.06312 -14.05872,-16.06312 -9.38181,0 -14.06494,7.14124 -14.06494,16.06312 0,8.91877 4.68313,16.06001 14.06494,16.06001 9.37248,0.003 14.05872,-7.13813 14.05872,-16.06001 m -4.7515,0 c 0,7.96474 -3.62966,12.3713 -9.30722,12.3713 -5.68067,0 -9.31966,-4.40656 -9.31966,-12.3713 0,-7.97718 3.63899,-12.37752 9.31966,-12.37752 5.67756,0.003 9.30722,4.40345 9.30722,12.37752 m -33.54951,15.46646 h 4.75772 v -42.95307 h -4.75772 v 42.95307 z m -23.91909,0 v -30.93603 h -4.7515 v 23.13909 c -2.17842,2.08519 -6.27422,4.70178 -9.83862,4.70178 -3.43389,0 -5.61852,-1.37045 -5.61852,-5.46935 v -22.37152 h -4.7515 v 22.48339 c 0,6.66577 4.81676,9.04619 9.91009,9.04619 3.89381,0 7.46132,-2.01683 10.16803,-4.75772 h 0.13052 v 4.16417 h 4.7515 z M 396.9476,350.11316 c 0,-8.92499 -4.69246,-16.06312 -14.06494,-16.06312 -9.3818,0 -14.07115,7.14124 -14.07115,16.06312 0,8.91877 4.68935,16.06001 14.07115,16.06001 9.37248,0.003 14.06494,-7.13813 14.06494,-16.06001 m -4.76082,0 c 0,7.96474 -3.62966,12.3713 -9.30412,12.3713 -5.68377,0 -9.31343,-4.40656 -9.31343,-12.3713 0,-7.97718 3.62655,-12.37752 9.31343,-12.37752 5.67135,0.003 9.30412,4.40345 9.30412,12.37752 m -29.38224,-15.46646 -8.05797,23.61766 h -0.13362 l -9.24507,-23.61766 h -5.01876 l 11.95178,31.28407 c -1.65323,6.79319 -6.07844,7.38052 -8.98403,7.38052 -1.05347,0 -1.91738,-0.11809 -2.57619,-0.17402 v 3.50536 c 0.92606,0.1243 1.85212,0.35737 3.43699,0.35737 4.48425,0 9.03997,-1.78376 11.5509,-8.67949 l 12.0854,-33.67381 h -5.00943 z m -46.22224,23.67981 c -3.36863,2.97085 -5.6123,4.16106 -8.6422,4.16106 -5.95103,0 -9.71121,-4.28226 -9.71121,-12.13824 0,-9.33829 4.16106,-12.61369 9.71121,-12.61369 2.83723,0 6.07222,1.72471 8.6422,4.28536 v 16.30551 z m 0,-35.69996 v 14.99411 l -0.25793,-0.11809 c -2.64456,-1.9671 -5.81119,-3.45253 -9.0524,-3.45253 -5.81119,0 -13.80079,4.04297 -13.80079,16.06312 0,12.3713 7.99271,16.06001 14.06804,16.06001 4.08959,0 7.46132,-1.66878 9.03997,-3.63277 l 0.66502,3.03922 h 4.35684 c -0.39466,-2.26233 -0.25793,-4.51843 -0.25793,-6.78076 v -36.17542 h -4.76082 z m -26.08198,27.48661 c 0,-8.92499 -4.68624,-16.06312 -14.06494,-16.06312 -9.37558,0 -14.06183,7.14124 -14.06183,16.06312 0,8.91877 4.68935,16.06001 14.06183,16.06001 9.3787,0.003 14.06494,-7.13813 14.06494,-16.06001 m -4.75461,0 c 0,7.96474 -3.62966,12.3713 -9.31033,12.3713 -5.68066,0 -9.31033,-4.40656 -9.31033,-12.3713 0,-7.97718 3.62967,-12.37752 9.31033,-12.37752 5.67757,0.003 9.31033,4.40345 9.31033,12.37752 m -27.0764,0 c 0,-8.92499 -4.68624,-16.06312 -14.06183,-16.06312 -9.38491,0 -14.07115,7.14124 -14.07115,16.06312 0,8.91877 4.68624,16.06001 14.07115,16.06001 9.37559,0.003 14.06183,-7.13813 14.06183,-16.06001 m -4.75461,0 c 0,7.96474 -3.62966,12.3713 -9.30722,12.3713 -5.68378,0 -9.31033,-4.40656 -9.31033,-12.3713 0,-7.97718 3.62655,-12.37752 9.31033,-12.37752 5.67756,0.003 9.30722,4.40345 9.30722,12.37752 m -48.13962,-27.48661 v 42.95307 h 5.28289 v -20.46657 h 17.0389 v -4.04297 h -17.0389 v -14.39745 h 22.98061 v -4.04608 h -28.2635 z" /><path
   style="fill:#bd3732"
   id="path13"
   d="m 488.64938,41.178631 v 91.220099 h 15.2769 V 89.30272 c 0,-36.209601 -0.34495,-28.145414 18.37516,-33.266717 4.49668,-1.227497 16.08176,-4.888234 18.67349,-19.487677 -28.02422,-5.180347 -30.61595,16.206066 -36.55455,16.17499 h -0.5345 v -0.279683 c -0.1212,-4.266717 -2.77197,-12.765967 -15.03761,-11.314724 l -0.19889,0.04972 z" /><path
   style="fill:#8d9437"
   id="path15"
   d="m 612.6048,192.99668 v -2.44878 h 1.62527 c 0.84216,0 1.73093,0.18335 1.73093,1.16224 0,1.21817 -0.91053,1.28654 -1.92671,1.28654 h -1.42949 z m 0,1.01618 h 1.37977 l 2.08519,3.43388 h 1.34248 l -2.24679,-3.48671 c 1.15913,-0.14917 2.0479,-0.76136 2.0479,-2.17531 0,-1.56312 -0.92606,-2.253 -2.79061,-2.253 h -3.01436 v 7.91191 h 1.19953 v -3.43077 z m -4.14241,-0.54383 c 0,-3.25054 2.4581,-5.69931 5.59365,-5.69931 3.09827,0 5.55016,2.45188 5.55016,5.69931 0,3.30647 -2.455,5.7335 -5.55016,5.7335 -3.13555,0 -5.59365,-2.42703 -5.59365,-5.7335 m 5.59365,6.8833 c 3.72911,0 6.92992,-2.90559 6.92992,-6.88019 0,-3.93732 -3.20081,-6.84291 -6.92992,-6.84291 -3.77882,0 -6.9641,2.90559 -6.9641,6.84291 0,3.97149 3.18839,6.88019 6.9641,6.88019" /><path
   style="fill:#bd3732"
   id="path17"
   d="m 113.51704,126.19288 c -3.13245,-3.18217 -5.87334,-6.76211 -8.15742,-10.65591 -6.699953,3.24432 -13.999675,5.16481 -21.880515,5.16481 -28.592906,0 -51.81901,-24.717748 -51.81901,-52.844517 0,-28.132983 23.055187,-52.850728 51.474068,-52.850728 7.644663,0 13.281826,1.516502 17.045117,2.840334 14.30111,5.024968 15.51618,-9.8013287 15.51618,-9.8013287 C 106.01532,2.6196937 95.657738,-1.9248e-6 83.991857,-1.9248e-6 46.41181,-1.9248e-6 15.62184,30.789968 15.62184,68.373123 c 0,37.250647 31.327582,67.338297 68.370017,67.338297 10.935598,0 21.579083,-2.87141 31.134913,-7.94921 -0.54383,-0.51586 -1.08455,-1.03482 -1.60973,-1.56933 z" /><path
   style="fill:#8d9437"
   id="path19"
   d="m 402.20875,274.89091 c -18.86306,0 -31.8248,-15.14016 -31.8248,-33.79811 0,-18.45285 12.95864,-33.80433 31.8248,-33.80433 18.85683,0 31.82479,15.34837 31.82479,33.80433 0,18.65795 -12.96796,33.79811 -31.82479,33.79811 m 0,-81.96882 c -26.2933,0 -47.07062,21.56044 -47.07062,48.36338 0,26.81847 20.96378,47.98425 47.07062,47.98425 26.09751,0 47.06129,-21.16578 47.06129,-47.98425 0,-26.80605 -20.77733,-48.36338 -47.06129,-48.36338" /><path
   style="fill:#8d9437"
   id="path21"
   d="m 255.81344,241.24818 c 0,-26.79983 20.77111,-48.36648 47.0644,-48.36648 26.29951,0 47.0644,21.56976 47.0644,48.36648 0,26.81226 -20.95756,47.98735 -47.0644,47.98735 -26.10373,0 -47.0644,-21.17509 -47.0644,-47.98735 z m 15.24271,-0.19267 c 0,18.65173 12.95553,33.80433 31.81858,33.80433 18.86616,0 31.82169,-15.14949 31.82169,-33.80433 0,-18.45596 -12.95553,-33.80433 -31.82169,-33.80433 -18.85994,0 -31.81858,15.34837 -31.81858,33.80433 z" /><path
   style="fill:#bd3732"
   id="path23"
   d="m 433.76318,120.55261 c -19.05261,0 -29.34805,-16.89905 -29.34805,-34.773893 0,-17.094835 11.43592,-32.822332 29.15227,-32.822332 18.86616,0 30.1063,14.761037 30.1063,33.018109 -0.003,18.449746 -10.28922,34.578116 -29.91052,34.578116 m -1.90184,-81.978137 c -26.87441,0 -43.06805,22.340442 -43.06805,48.375804 0,25.249143 16.57587,47.984243 42.86916,47.984243 12.57641,0 23.0583,-5.04982 30.86766,-15.1588 h 0.38534 v 11.48874 c -0.11187,20.32051 -6.58187,37.65463 -29.97578,37.65463 -12.19728,0 -23.17017,-5.93238 -27.44931,-15.92327 h -15.96678 c 5.06225,18.93142 22.65741,30.30208 43.60565,30.30208 13.34087,0 27.50215,-5.25804 35.88331,-16.12838 8.1916,-10.79265 9.0524,-22.06076 9.1363,-34.76768 V 41.169308 c 0,0 -1.12805,-0.220639 -2.77507,-0.220639 -4.39102,0 -12.4521,1.575547 -12.4521,13.151308 l -0.39466,0.0093 C 455.09987,44.407413 444.04308,38.574473 431.86134,38.574473" /><path
   style="fill:#8d9437"
   d="m 541.08058,151.12505 c -4.39102,0 -12.46453,1.57555 -12.46453,13.15442 l -0.0311,44.14327 h -0.38224 c -7.24067,-9.71743 -18.67038,-15.54415 -30.67809,-15.54415 -26.8682,0 -43.05562,22.33733 -43.05562,48.36648 0,25.25846 16.57587,47.98735 42.86605,47.98735 12.19728,0 23.43742,-5.2456 30.86766,-15.14948 h 0.38224 v 12.62302 h 15.24582 l 0.0217,-135.36027 c 0,0.003 -1.12805,-0.22064 -2.77197,-0.22064 z m -41.64477,123.73479 c -19.05261,0 -29.34494,-16.90217 -29.34494,-34.77079 0,-17.09795 11.43592,-32.83477 29.14917,-32.83477 18.86615,0 30.1094,14.76104 30.1094,33.02744 0,18.45285 -10.29232,34.57812 -29.91363,34.57812 z"
   id="path25" /><path
   style="fill:#bd3732"
   d="m 341.28451,1.1373748 h -7.95232 L 281.09987,126.23328 V 78.242819 c 0,-21.352229 -5.79565,-39.593764 -31.02614,-39.593764 -11.21218,0 -21.88674,4.847836 -28.67371,13.514895 l -0.40398,0.0062 c -0.84527,-9.841727 -8.24754,-11.237034 -12.38374,-11.237034 -1.64702,0 -2.80926,0.226854 -2.80926,0.226854 l -0.0124,91.223215 h 15.22718 V 89.100727 c 0,-16.293078 4.01811,-36.094621 25.37345,-36.094621 18.04264,0 19.20177,13.194814 19.20177,27.946528 0,0 -0.0311,28.912986 0,39.230176 0.0435,9.05862 4.32577,12.16309 8.06108,12.19728 0.9012,0 3.81923,0 7.39295,0 5.29222,0 11.40485,0 14.58702,0 l 15.81761,-38.664597 h 51.29694 c 0,0 10.70874,26.771857 15.55036,38.677027 h 17.1632 L 341.28451,1.1373748 z m -24.07448,78.4572442 20.02529,-49.177561 19.79533,49.177561 h -39.82062 z"
   id="path27" /><path
   style="fill:#8d9437"
   d="m 260.68924,170.04715 c 4.39413,-0.0186 12.4521,-1.62838 12.40238,-13.21346 l -0.0124,-0.52208 c -0.028,-0.70542 -0.0839,-1.13116 -0.0808,-1.13116 h -67.22021 v 131.59077 h 15.82694 v -65.27487 c 0,0 20.83948,0 30.3114,0 1.98575,-5.41963 4.77326,-10.42284 8.21957,-14.87291 h -38.53097 v -36.5794 c 0,0 23.60834,0 38.96603,0 l 0.11809,0.003 z"
   id="path29" /><path
   style="fill:#8d9437"
   id="path33"
   d="m 582.59484,193.01843 c -14.53419,0.009 -26.45489,10.52229 -26.46111,25.74325 l 0,0 c 0.003,14.24207 10.14006,19.59023 20.47279,24.01232 l 0,0 c 10.27057,4.39724 20.80529,7.77829 20.83947,18.28504 l 0,0 c -0.0155,8.5614 -6.91748,14.26072 -15.35148,14.27315 l 0,0 c -7.80625,0.0155 -11.9642,-3.30958 -15.05004,-7.64777 l 0,0 c -1.94224,-2.70982 -4.7515,-4.3817 -8.22578,-4.3817 l 0,0 c -1.90184,0 -4.00879,0.50032 -6.27733,1.62838 l 0,0 c -0.59354,0.28589 -1.85212,1.09076 -2.34312,1.40462 l 0,0 c 4.84784,14.1706 16.65045,22.86563 31.70982,22.87184 l 0,0 c 16.65356,-0.003 30.90495,-12.34955 30.93603,-29.51275 l 0,0 c -0.006,-15.22407 -10.78644,-21.74378 -21.40195,-26.23425 l 0,0 c -10.55958,-4.49357 -21.34291,-7.35565 -21.40506,-16.06622 l 0,0 c 0.009,-6.04426 5.7335,-10.5689 11.60683,-10.57512 l 0,0 c 3.35931,0.003 6.28355,1.61906 7.81869,3.21014 l 0,0 c 3.3158,3.42767 5.99765,5.56569 9.43153,5.56258 l 0,0 c 2.26232,0 4.90066,-0.92606 8.3159,-3.10137 l 0,0 c -0.8608,-3.65763 -2.59483,-6.74347 -5.13995,-9.71121 l 0,0 c -0.009,0 -1.81794,-2.43324 -5.17102,-4.8758 l 0,0 c -3.36241,-2.44878 -8.22889,-4.88513 -14.30422,-4.88513 l 0,0" />
</svg>