<?xml version="1.0" encoding="UTF-8" standalone="no"?>
<!-- Created with Inkscape (http://www.inkscape.org/) -->
<svg
   xmlns:svg="http://www.w3.org/2000/svg"
   xmlns="http://www.w3.org/2000/svg"
   version="1.0"
   width="166"
   height="39"
   id="svg2">
  <defs
     id="defs4" />
  <g
     transform="translate(-37.075429,-421.90711)"
     id="layer1">
    <g
       transform="matrix(0.2324268,0,0,0.2324268,38.48388,422.96345)"
       id="g2384">
	<path
   d="M 63.35,121.287 C 59.012,123.26 52.069,124.549 45.45,124.549 C 26.009,124.549 15.425,112.705 15.425,97.018 C 15.425,79.373 27.616,68.881 45.716,68.881 C 52.902,68.881 59.095,70.475 63.269,72.367 L 66.585,60.873 C 63.314,59.166 55.772,56.998 45.114,56.998 C 18.334,56.998 0,73.826 0,97.666 C 0,120.963 16.471,136.611 43.137,136.611 C 53.875,136.611 62.283,134.459 65.971,132.615 L 63.35,121.287 L 63.35,121.287 z"
   id="path2386"
   style="fill-rule:evenodd" />

	<path
   d="M 96.668,136.611 C 112.676,136.611 127.93,126.545 127.93,106.795 C 127.93,90.453 115.826,78.348 97.676,78.348 C 78.824,78.348 66.11,90.383 66.11,107.983 C 66.11,125.479 79.594,136.612 96.555,136.612 L 96.668,136.612 L 96.668,136.611 z M 96.797,126.139 C 87.777,126.139 81.192,118.709 81.192,107.576 C 81.192,97.92 86.141,88.814 97.108,88.814 C 107.934,88.814 112.62,98.38 112.62,107.33 C 112.62,119.435 105.626,126.139 96.913,126.139 L 96.797,126.139 L 96.797,126.139 z"
   id="path2388"
   style="fill-rule:evenodd" />

	<path
   d="M 132.83,135.24 L 147.506,135.24 L 147.506,103.123 C 147.506,101.67 147.701,99.99 148.158,98.865 C 149.76,94.635 154.008,90.146 160.453,90.146 C 168.91,90.146 172.418,96.431 172.418,105.205 L 172.418,135.24 L 187.094,135.24 L 187.094,103.388 C 187.094,84.261 175.328,78.347 165.508,78.347 C 155.145,78.347 148.688,84.388 146.289,88.652 L 145.932,88.652 L 145.213,79.714 L 132.373,79.714 C 132.65,84.485 132.83,90.054 132.83,96.517 L 132.83,135.24 L 132.83,135.24 z"
   id="path2390"
   style="fill-rule:evenodd" />

	<path
   d="M 222.316,136.611 C 238.324,136.611 253.578,126.545 253.578,106.795 C 253.578,90.453 241.476,78.348 223.328,78.348 C 204.473,78.348 191.76,90.383 191.76,107.983 C 191.76,125.479 205.242,136.612 222.203,136.612 L 222.316,136.612 L 222.316,136.611 z M 222.447,126.139 C 213.426,126.139 206.84,118.709 206.84,107.576 C 206.84,97.92 211.789,88.814 222.758,88.814 C 233.582,88.814 238.268,98.38 238.268,107.33 C 238.268,119.435 231.276,126.139 222.561,126.139 L 222.447,126.139 L 222.447,126.139 z"
   id="path2392"
   style="fill-rule:evenodd" />

	<path
   d="M 304.729,122.65 C 301.665,123.888 297.668,125.134 292.006,125.134 C 281.727,125.134 273.279,118.732 273.279,107.333 C 273.213,97.169 280.308,89.562 291.945,89.562 C 297.718,89.562 301.535,90.738 304.144,92.041 L 306.847,81.186 C 303.072,79.59 297.253,78.348 291.425,78.348 C 270.292,78.348 258.212,91.455 258.212,108.084 C 258.212,124.975 270.251,136.611 289.064,136.611 C 296.988,136.611 303.541,134.927 306.843,133.396 L 304.729,122.65 L 304.729,122.65 z"
   id="path2394"
   style="fill-rule:evenodd" />

	<path
   d="M 337.693,136.611 C 353.699,136.611 368.953,126.545 368.953,106.795 C 368.953,90.453 356.851,78.348 338.701,78.348 C 319.847,78.348 307.135,90.383 307.135,107.983 C 307.135,125.479 320.619,136.612 337.578,136.612 L 337.693,136.612 L 337.693,136.611 z M 337.824,126.139 C 328.801,126.139 322.217,118.709 322.217,107.576 C 322.217,97.92 327.164,88.814 338.133,88.814 C 348.959,88.814 353.643,98.38 353.643,107.33 C 353.643,119.435 346.651,126.139 337.936,126.139 L 337.824,126.139 L 337.824,126.139 z"
   id="path2396"
   style="fill-rule:evenodd" />

	<path
   d="M 433.344,135.24 L 448.02,135.24 L 448.02,102.67 C 448.02,101.068 448.118,99.666 448.672,98.408 C 450.324,94.408 454.574,90.197 460.84,90.197 C 469.477,90.197 472.934,96.533 472.934,105.256 L 472.934,135.24 L 487.61,135.24 L 487.61,103.342 C 487.61,84.262 475.942,78.348 466.282,78.348 C 462.61,78.348 458.993,79.327 455.973,80.973 C 452.797,82.557 450.157,85.02 448.246,87.858 L 448.019,87.858 L 448.019,53.576 L 433.343,53.576 L 433.343,135.24 L 433.344,135.24 z"
   id="path2398"
   style="fill-rule:evenodd" />

	<path
   d="M 510.98,135.24 L 510.98,79.715 L 496.3,79.715 L 496.3,135.24 L 510.98,135.24 L 510.98,135.24 z M 503.648,71.111 C 509.031,71.111 512.285,67.418 512.285,63.027 C 512.219,58.586 508.98,55.006 503.699,55.006 C 498.414,55.006 495.062,58.637 495.062,63.027 C 495.062,67.417 498.316,71.111 503.535,71.111 L 503.648,71.111 L 503.648,71.111 z"
   id="path2400"
   style="fill-rule:evenodd" />

	<polygon
   points="521.055,135.24 535.73,135.24 535.73,53.576 521.055,53.576 521.055,135.24 "
   id="polygon2402"
   style="fill-rule:evenodd" />

	<polygon
   points="546.945,135.24 561.621,135.24 561.621,53.576 546.945,53.576 546.945,135.24 "
   id="polygon2404"
   style="fill-rule:evenodd" />

	<path
   d="M 586.371,135.24 L 586.371,79.715 L 571.695,79.715 L 571.695,135.24 L 586.371,135.24 L 586.371,135.24 z M 579.043,71.111 C 584.426,71.111 587.68,67.418 587.68,63.027 C 587.617,58.586 584.379,55.006 579.094,55.006 C 573.809,55.006 570.457,58.637 570.457,63.027 C 570.457,67.417 573.711,71.111 578.93,71.111 L 579.043,71.111 L 579.043,71.111 z"
   id="path2406"
   style="fill-rule:evenodd" />

	<path
   d="M 597.59,158.053 L 612.262,158.053 L 612.262,128.678 L 612.492,128.678 C 615.754,133.725 622.461,136.612 630.172,136.612 C 644.012,136.612 657.949,126.604 657.949,106.471 C 657.949,88.914 645.738,78.348 632.449,78.348 C 622.73,78.348 615.527,82.213 610.969,88.848 L 610.739,88.848 L 610.024,79.715 L 597.133,79.715 C 597.41,85.125 597.59,91.334 597.59,98.432 L 597.59,158.053 L 597.59,158.053 z M 612.262,104.506 C 612.262,103.416 612.508,102.236 612.774,101.143 C 614.489,94.143 620.672,89.661 627.348,89.661 C 637.528,89.661 643.016,97.835 643.016,107.28 C 643.016,118.538 636.746,125.491 626.922,125.491 C 619.645,125.491 614.012,120.386 612.574,114.577 C 612.363,113.401 612.261,112.245 612.261,111.022 L 612.261,104.506 L 612.262,104.506 z"
   id="path2408"
   style="fill-rule:evenodd" />

	<path
   d="M 660.449,132.49 C 665.074,134.885 671.535,136.611 679.043,136.611 C 695.109,136.611 702.992,128.795 702.992,119.052 C 702.929,110.45 698.023,105.404 687.012,102.111 C 679.434,99.83 676.317,98.146 676.317,94.455 C 676.317,90.894 679.337,88.541 684.59,88.541 C 690.149,88.541 695.309,90.691 697.719,92.01 L 700.598,81.867 C 697.145,79.959 691.176,78.347 684.516,78.347 C 670.575,78.347 662.078,86.15 662.078,95.982 C 662.015,102.873 667.047,108.978 678.789,112.302 C 686.176,114.454 688.691,116.236 688.691,120.091 C 688.691,123.607 685.898,126.286 679.109,126.286 C 673.636,126.286 666.847,123.973 663.406,121.856 L 660.449,132.49 L 660.449,132.49 z"
   id="path2410"
   style="fill-rule:evenodd" />

	<path
   d="M 374.086,135.209 L 388.633,135.209 L 388.633,103.943 C 390.785,104.451 393.574,104.627 396.656,104.627 C 407.781,104.627 416.89,101.908 422.918,96.236 C 427.441,92.099 429.754,85.881 429.754,78.761 C 429.754,71.318 426.5,65.261 421.781,61.546 C 416.761,57.474 408.961,55.093 397.976,55.093 C 387.206,55.093 379.574,55.843 374.085,56.704 L 374.085,135.209 L 374.086,135.209 z M 388.633,66.898 C 390.262,66.57 393.481,66.195 398.059,66.195 C 408.286,66.195 415.207,70.238 415.207,79.121 C 415.207,88.191 408.148,93.33 396.824,93.33 C 393.398,93.33 390.719,93.119 388.633,92.545 L 388.633,66.898 L 388.633,66.898 z"
   id="path2412"
   style="fill-rule:evenodd" />

	<path
   d="M 439.082,0 C 419.219,6.898 414.008,13.732 403.285,22.342 C 372.902,30.34 346.271,17.512 323.092,6.92 C 334.047,14.832 344.881,31.649 349.459,55.484 C 366.973,50.228 388.066,36.054 406.637,22.814 C 417.047,18.199 428.465,11.387 439.082,0 L 439.082,0 z"
   id="path2414"
   style="fill:#ef3e42;fill-rule:evenodd" />

</g>
  </g>
</svg>
