<?xml version="1.0" encoding="UTF-8" standalone="no"?>
<!-- Created with Inkscape (http://www.inkscape.org/) -->

<svg
   xmlns:svg="http://www.w3.org/2000/svg"
   xmlns="http://www.w3.org/2000/svg"
   version="1.1"
   width="240.94501"
   height="94.122963"
   id="svg2"
   xml:space="preserve"><defs
     id="defs6" /><g
     transform="matrix(1.25,0,0,-1.25,-262.0275,542.06147)"
     id="g12"><g
       transform="translate(8.362,-24.945)"
       id="g2841"><path
         d="m 269.441,432.167 c -3.06,-2.684 -4.85,-7.017 -4.85,-10.926 0,-7.582 6.169,-14.693 14.599,-14.693 l 10.172,0 0,6.829 -9.842,0 0,0 c -4.615,0.094 -8.053,3.909 -8.053,7.818 0,3.955 3.249,7.959 8.1,7.959 l 9.795,0 0,6.828 -9.136,0 0,0 c -3.908,0 -7.629,-1.036 -10.785,-3.815 l 0,0"
         id="path18"
         style="fill:#1a67bb;fill-opacity:1;fill-rule:evenodd;stroke:none" /><path
         d="m 304.621,435.982 c -8.1,0 -14.74,-6.782 -14.74,-14.693 0,-8.054 6.64,-14.741 14.74,-14.741 8.148,0 14.788,6.687 14.788,14.741 0,7.911 -6.64,14.693 -14.788,14.693 l 0,0 z m 0,-22.558 c -4.285,0 -7.864,3.532 -7.864,7.865 0,4.238 3.579,7.865 7.864,7.865 4.38,0 7.959,-3.627 7.959,-7.865 0,-4.333 -3.579,-7.865 -7.959,-7.865 l 0,0"
         id="path20"
         style="fill:#1a67bb;fill-opacity:1;fill-rule:evenodd;stroke:none" /><path
         d="m 343.568,426.422 c 0,5.133 -4.285,9.56 -9.607,9.56 l -12.621,0 0,-29.434 6.876,0 0,10.078 7.064,-10.078 8.241,0.047 -6.828,10.125 0,0 c 3.391,0.801 6.875,4.616 6.875,9.702 l 0,0 z m -9.748,-3.721 -5.604,0 0,6.453 5.604,0 0,0 c 1.601,0 2.92,-1.461 2.92,-3.156 0,-1.695 -1.46,-3.297 -2.92,-3.297 l 0,0"
         id="path22"
         style="fill:#1a67bb;fill-opacity:1;fill-rule:evenodd;stroke:none" /><path
         d="m 376.252,413.565 0,22.37 -6.875,0 0,-29.387 21.804,0 0,7.017 -14.929,0 0,0"
         id="path24"
         style="fill:#1a67bb;fill-opacity:1;fill-rule:evenodd;stroke:none" /><path
         d="m 345.593,406.548 21.146,0 0,6.829 -14.175,0 0,4.521 14.175,0 0,6.169 -14.175,0 0,5.087 14.175,0 0,6.781 -21.146,0 0,-29.387"
         id="path26"
         style="fill:#1a67bb;fill-opacity:1;fill-rule:evenodd;stroke:none" /><path
         d="m 227.901,451.698 0,-13.893 13.893,0 0,13.893 -13.893,0 0,0 z m -23.806,-23.807 0,-13.764 13.893,0 0,13.764 -13.893,0 0,0 z m 37.853,-23.805 9.682,-9.811 0,0 9.81,9.811 0,0 -9.81,9.81 0,0 -9.682,-9.81 0,0 z m -0.051,33.719 9.784,-9.785 9.707,9.785 -9.81,9.809 -9.681,-9.809 0,0 z m -33.693,-33.617 9.809,-9.81 9.81,9.81 -9.81,9.81 -9.809,-9.81 0,0 z m -0.026,33.617 9.81,-9.785 9.81,9.785 -9.81,9.809 -9.81,-9.809 0,0 z m 19.748,-33.719 0,-13.894 13.894,0 0,13.894 -13.894,0 0,0"
         id="path28"
         style="fill:#ed1c24;fill-opacity:1;fill-rule:evenodd;stroke:none" /></g></g></svg>