<?xml version="1.0" encoding="UTF-8" standalone="no"?>
<!-- Created with Inkscape (http://www.inkscape.org/) -->
<svg
   xmlns:dc="http://purl.org/dc/elements/1.1/"
   xmlns:cc="http://web.resource.org/cc/"
   xmlns:rdf="http://www.w3.org/1999/02/22-rdf-syntax-ns#"
   xmlns:svg="http://www.w3.org/2000/svg"
   xmlns="http://www.w3.org/2000/svg"
   xmlns:sodipodi="http://sodipodi.sourceforge.net/DTD/sodipodi-0.dtd"
   xmlns:inkscape="http://www.inkscape.org/namespaces/inkscape"
   id="svg2211"
   sodipodi:version="0.32"
   inkscape:version="0.45.1"
   width="1850"
   height="343"
   version="1.0"
   sodipodi:docbase="C:\Users\Chris\Desktop\SVGs"
   sodipodi:docname="Corel logo.png.svg"
   inkscape:output_extension="org.inkscape.output.svg.inkscape">
  <metadata
     id="metadata2216">
    <rdf:RDF>
      <cc:Work
         rdf:about="">
        <dc:format>image/svg+xml</dc:format>
        <dc:type
           rdf:resource="http://purl.org/dc/dcmitype/StillImage" />
      </cc:Work>
    </rdf:RDF>
  </metadata>
  <defs
     id="defs2214" />
  <sodipodi:namedview
     inkscape:window-height="575"
     inkscape:window-width="765"
     inkscape:pageshadow="2"
     inkscape:pageopacity="0.0"
     guidetolerance="10.0"
     gridtolerance="10.0"
     objecttolerance="10.0"
     borderopacity="1.0"
     bordercolor="#666666"
     pagecolor="#ffffff"
     id="base"
     inkscape:zoom="0.36756757"
     inkscape:cx="925"
     inkscape:cy="171.5"
     inkscape:window-x="115"
     inkscape:window-y="115"
     inkscape:current-layer="svg2211" />
  <path
     style="fill:#11589a;fill-opacity:1"
     d="M 529.38236,340.95476 C 498.85828,338.5478 472.20634,331.7974 450.93623,321.08595 C 418.53132,304.7671 394.71384,277.30937 383.39257,243.21895 C 374.67335,216.96378 373.96269,196.29236 380.84274,169.05038 C 392.25055,123.88045 421.24038,85.566114 467.41548,54.631714 C 496.76563,34.968964 526.59845,21.959594 563.49909,12.731974 C 606.0881,2.0818941 638.69145,1.3845441 681.88236,10.199884 C 756.33094,25.394974 799.24915,64.117084 806.9712,123.05882 C 808.5971,135.46916 807.55117,160.23797 804.85981,173.05882 C 797.61557,207.56825 778.11088,240.68302 747.69076,270.11951 C 707.28014,309.22348 653.38902,332.70299 588.38236,339.52768 C 577.73154,340.64585 537.73376,341.61331 529.38236,340.95476 z M 594.22074,260.05906 C 629.08551,255.48869 656.74446,242.22462 677.97779,219.89272 C 690.97596,206.22204 699.83269,190.91993 703.92726,175.05882 C 706.51507,165.03445 706.75303,147.91526 704.42767,139.05882 C 696.69814,109.61995 671.36412,91.405364 629.33812,85.071154 C 611.34327,82.358954 597.06558,83.293454 576.27467,88.544274 C 541.54246,97.316004 510.20668,117.52019 493.7506,141.75285 C 480.75945,160.88316 475.38968,182.98644 479.32237,201.14298 C 481.40291,210.74849 488.2586,225.26406 493.9239,232.05882 C 506.2647,246.85994 524.60204,256.57032 546.71786,260.0154 C 558.51904,261.85373 580.37701,261.87381 594.22074,260.05906 z M 146.88236,337.53347 C 79.59067,325.55359 31.594479,289.93106 17.570464,241.55882 C 14.29301,230.25408 12.882319,218.3891 12.888248,202.17783 C 12.897392,177.17702 16.514559,158.00788 25.319695,136.29749 C 52.943142,68.187714 124.15124,18.050994 211.89747,4.9304441 C 221.96707,3.4247541 234.99684,3.1659441 317.63236,2.8301841 C 369.46986,2.6195641 411.88163,2.5848441 411.88074,2.7530341 C 411.87985,2.9212141 407.4456,20.383824 402.02685,41.558824 L 392.17457,80.058824 L 309.77846,80.578364 C 228.59889,81.090244 227.22076,81.131934 216.43709,83.402144 C 182.90407,90.461594 155.04009,104.17579 136.88236,122.55769 C 126.74102,132.82423 120.23091,143.30592 115.76449,156.55882 C 112.92106,164.99593 112.51103,167.64183 112.0997,180.20758 C 111.43914,200.38712 114.24649,212.26747 122.92129,226.00303 C 130.67026,238.27266 143.60886,247.90923 160.24674,253.80274 C 176.28797,259.4849 177.67256,259.55882 268.05866,259.55882 L 350.97299,259.55882 L 350.34751,262.80882 C 350.0035,264.59632 346.02539,282.48382 341.50727,302.55882 L 333.29249,339.05882 L 245.33743,339.2308 C 163.39421,339.39102 156.66467,339.275 146.88236,337.53347 z M 757.88638,338.80882 C 757.8977,336.6957 786.8179,280.15341 794.07352,268.05882 C 825.88434,215.03249 855.8788,183.56966 891.73638,165.61495 C 904.40731,159.27032 915.17111,156.17272 944.0258,150.5671 C 981.70595,143.24695 1028.7589,133.26692 1047.3823,128.64497 C 1074.9855,121.7944 1086.3449,117.36308 1091.252,111.53126 C 1093.5777,108.7674 1093.8823,107.5419 1093.8823,100.94998 C 1093.8823,91.925674 1092.1286,87.289114 1087.6925,84.584454 C 1084.4213,82.590104 1082.9763,82.566254 965.17767,82.562564 L 845.97299,82.558824 L 845.34452,78.808824 C 842.34349,60.901964 831.64812,44.345154 807.14977,19.681954 C 798.20269,10.674684 790.88236,3.1371841 790.88236,2.9319541 C 790.88236,2.7267341 857.59486,2.5614741 939.13236,2.5647141 C 1101.1869,2.5711641 1095.039,2.3688841 1118.3229,8.4605941 C 1150.6719,16.923994 1174.05,33.194764 1184.8639,54.771944 C 1190.6886,66.394274 1192.232,74.880294 1191.6181,91.910064 C 1191.0615,107.35012 1189.2597,115.9872 1183.919,128.816 C 1174.5645,151.28663 1152.7781,173.24352 1124.8823,188.31472 C 1108.5338,197.14732 1082.4382,205.90395 1068.5571,207.21525 C 1055.7462,208.42544 1054.5524,213.00578 1065.6314,218.43989 C 1076.2056,223.62636 1088.0633,232.03253 1098.0612,241.42997 C 1114.5038,256.88517 1124.9919,273.63939 1128.2914,289.72105 C 1130.3784,299.8932 1131.3303,317.76247 1130.4269,329.80882 L 1129.6957,339.55882 L 1072.1806,339.55882 L 1014.6655,339.55882 L 1015.3064,337.00531 C 1018.4739,324.38485 1019.7252,303.27633 1017.8819,293.55687 C 1015.064,278.69779 985.44415,249.41776 961.73779,238.05678 C 952.81257,233.77948 949.90393,233.70826 942.16102,237.57744 C 925.11593,246.09497 899.68111,280.8024 876.76913,326.80882 L 870.41941,339.55882 L 814.15088,339.55882 C 783.2032,339.55882 757.88417,339.22132 757.88638,338.80882 z M 1168.8498,338.81202 C 1168.8319,338.39776 1185.8024,262.57132 1206.562,170.30882 L 1244.3068,2.5588241 L 1396.5945,2.5588241 C 1480.3528,2.5588241 1548.8823,2.7834341 1548.8823,3.0579641 C 1548.8823,3.5084841 1533.6354,73.925044 1532.3721,79.308824 L 1531.8442,81.558824 L 1428.8632,81.558824 C 1372.2237,81.558824 1325.8823,81.694494 1325.8823,81.860304 C 1325.8823,82.026114 1323.4073,94.490454 1320.3823,109.55882 C 1317.3573,124.62719 1314.8823,137.31652 1314.8823,137.75734 C 1314.8823,138.19815 1353.1323,138.55882 1399.8823,138.55882 C 1446.6323,138.55882 1484.8919,138.89632 1484.9036,139.30882 C 1484.9153,139.72132 1481.4278,155.92037 1477.1536,175.30671 L 1469.3823,210.5546 L 1383.3271,210.55671 L 1297.272,210.55882 L 1292.0771,234.90393 C 1289.22,248.29374 1286.8823,259.76874 1286.8823,260.40393 C 1286.8823,261.26953 1312.3072,261.55882 1388.3823,261.55882 C 1484.4048,261.55882 1489.8791,261.65326 1489.8234,263.30882 C 1489.7909,264.27132 1486.0716,281.70882 1481.5581,302.05882 L 1473.3517,339.05882 L 1321.117,339.31202 C 1237.3879,339.45129 1168.8677,339.22629 1168.8498,338.81202 z M 1510.8823,338.23715 C 1510.8823,337.31104 1581.0165,35.570344 1588.3817,4.8088241 L 1588.9204,2.5588241 L 1637.9687,2.5588241 C 1684.2174,2.5588241 1686.9867,2.6587141 1686.4851,4.3088241 C 1685.5199,7.4838541 1629.8823,257.2676 1629.8823,258.42573 C 1629.8823,259.26272 1657.5822,259.55882 1735.8823,259.55882 C 1794.1823,259.55882 1841.8823,259.79557 1841.8823,260.08493 C 1841.8823,260.66129 1828.7097,321.94165 1826.2499,332.80882 L 1824.722,339.55882 L 1667.8021,339.55882 C 1538.3947,339.55882 1510.8823,339.32709 1510.8823,338.23715 z "
     id="path2220" />
</svg>
