<?xml version="1.0" encoding="UTF-8"?>
<!-- Generator: Adobe Illustrator 14.0.0, SVG Export Plug-In . SVG Version: 6.00 Build 43363)  -->
<!DOCTYPE svg PUBLIC "-//W3C//DTD SVG 1.1//EN" "http://www.w3.org/Graphics/SVG/1.1/DTD/svg11.dtd">
<svg version="1.1" id="Layer_1" xmlns="http://www.w3.org/2000/svg" xmlns:xlink="http://www.w3.org/1999/xlink" x="0px" y="0px" width="201px" height="72px" viewBox="208.5 290.5 201 72" enable-background="new 208.5 290.5 201 72" xml:space="preserve">
<path fill="#FFFFFF" d="M401.434,311.283c-3.194-3.873-8.83-6.094-15.459-6.094c-7.014,0-13.328,2.385-17.701,6.256l0.713-4.469  l-1.896-0.564c-2.684-0.8-5.664-1.223-8.619-1.223c-5.078,0-9.934,1.57-13.857,4.157l1.129-3.72H315.38l-0.36,1.188  c-2.698-1.085-5.666-1.625-9.01-1.625c-6.251,0-13.017,2.426-16.53,7.097c-0.23-0.342-0.471-0.679-0.739-1.003  c-3.195-3.873-8.83-6.094-15.46-6.094c-6.806,0-12.961,2.244-17.315,5.916l1.695-10.305l-1.926-0.557  c-3.289-0.951-6.944-1.454-10.571-1.454c-13.306,0-25.417,8.458-27.571,19.254c-0.917,4.593,0.154,9.042,3.013,12.529  c2.437,2.971,6.036,5.089,10.312,6.171h-13.183v16.862h67.151l0.104-0.206l0.013,0.206h8.083l1.096-1.787l-0.339,1.787h18.275  l0.268-1.409c1.606,1.04,3.691,1.605,6.092,1.605c2.146,0,4.137-0.445,5.853-1.236l-0.197,1.04h10.904h3.597h11.122l0.044-0.229  c1.188,0.268,2.436,0.426,3.628,0.426c0.724,0,1.47-0.065,2.212-0.196h9.769l0.725-1.539h0.651l0.199,1.539h4.506h6.037h4.869h3.596  h11.122l1.498-7.89h-0.55l0.206-1.084h0.394l1.5-7.889h-0.834c0.68-0.615,1.175-1.405,1.346-2.304  c0.202-1.068-0.075-2.155-0.76-2.981c-0.178-0.214-0.382-0.402-0.602-0.571c2.39-2.455,4.047-5.426,4.691-8.766  C404.791,318.024,403.904,314.276,401.434,311.283z M384.002,345.126h-0.925l1.396-7.336c0.318-0.041,0.635-0.087,0.949-0.137  L384.002,345.126z M362.438,321.262c-0.096,0.49-0.162,0.974-0.211,1.451c-2.033,1.36-3.938,2.003-5.976,2.003  c-1.379,0-2.573-0.45-3.194-1.204c-0.354-0.428-0.473-0.907-0.363-1.464c0.363-1.879,2.912-3.527,5.453-3.527  c1.59,0,3.084,0.562,4.549,1.712C362.605,320.574,362.504,320.913,362.438,321.262z M364.496,336.742l-0.992,1.635l-0.825-0.462  c-0.543-0.305-1.126-0.54-1.727-0.744c0.44-0.105,0.851-0.223,1.209-0.353l1.157-0.42l1.137-4.985c0.154,0.214,0.3,0.433,0.47,0.639  c1.716,2.079,4.188,3.669,7.173,4.689L364.496,336.742L364.496,336.742z M374.559,337.432l-0.395,2.075l-0.549-2.305  C373.926,337.283,374.238,337.362,374.559,337.432z M384.227,318.739c1.238,0,2.191,0.329,2.685,0.926  c0.453,0.55,0.437,1.251,0.34,1.744c-0.394,2.033-2.481,3.453-5.082,3.453c-1.265,0-2.265-0.334-2.745-0.916  c-0.332-0.403-0.431-0.968-0.293-1.681C379.469,320.513,381.328,318.739,384.227,318.739z M327.044,338.257  c-0.356-0.241-0.743-0.454-1.147-0.646h1.271L327.044,338.257z M320.053,345.124c-0.164,0.146-0.431,0.244-0.74,0.262  C319.471,345.25,319.719,345.138,320.053,345.124z M318.066,318.929l-1.508,4.964c-0.097-1.326-0.51-2.531-1.234-3.603  c-0.299-0.439-0.655-0.839-1.047-1.219L318.066,318.929z M274.557,321.408c-0.393,2.034-2.483,3.454-5.082,3.454  c-1.264,0-2.265-0.334-2.745-0.916c-0.333-0.403-0.431-0.968-0.293-1.681c0.339-1.753,2.198-3.526,5.096-3.526  c1.238,0,2.192,0.329,2.685,0.926C274.67,320.215,274.652,320.917,274.557,321.408z M291.984,337.549l-0.049,0.104l-0.01-0.113  C291.945,337.542,291.964,337.546,291.984,337.549z M314.421,330.94l-1.761,5.802h-6.763  C309.354,335.601,312.454,333.688,314.421,330.94z M315.155,337.611h0.377c-0.14,0.059-0.276,0.119-0.411,0.182L315.155,337.611z   M242.395,322.392c-1.93,0-3.602-0.634-4.473-1.695c-0.504-0.614-0.673-1.294-0.517-2.078c0.504-2.525,3.871-4.658,7.352-4.658  c2.35,0,4.527,0.882,6.653,2.683c-0.562,1.05-1.009,2.15-1.334,3.297C247.479,321.603,245.026,322.392,242.395,322.392z   M282.175,334.347l2.197,0.989c1.214,0.546,2.563,1.013,3.975,1.407h-4.087l-0.438,0.877l-0.056-0.877H276.7  C278.676,336.136,280.511,335.329,282.175,334.347z M335.721,345.126l1.594-8.384h-7.736l5.421-17.865l1.653,0.063  c-0.305,0.816-0.562,1.647-0.729,2.504c-0.771,3.987,0.166,7.835,2.642,10.834c1.631,1.977,3.871,3.479,6.492,4.463h-6.817  l-1.595,8.384L335.721,345.126L335.721,345.126z M249.554,336.115l1.165-0.41l1.018-4.326c0.163,0.227,0.315,0.457,0.495,0.674  c1.715,2.079,4.187,3.669,7.171,4.689h-12.338C247.998,336.567,248.856,336.36,249.554,336.115z M389.395,336.742  c1.002-0.309,1.967-0.667,2.894-1.074c0.136,0.326,0.301,0.641,0.53,0.918c0.049,0.058,0.113,0.102,0.164,0.156H389.395z"/>
<g>
	<path fill="#005DAA" d="M281.647,339l0.466,7.369h0.118c0.241-0.753,0.509-1.539,0.885-2.276l2.54-5.093h4.127l0.624,7.369h0.118   c0.215-0.721,0.457-1.475,0.787-2.178l2.48-5.191h5.601l-7.574,12.347h-4.697l-0.414-6.714h-0.177   c-0.18,0.64-0.338,1.261-0.63,1.867l-2.415,4.847h-4.58L276.065,339H281.647z"/>
	<path fill="#005DAA" d="M299,339h5.188l-0.79,4.159h3.301L307.49,339h5.188l-2.346,12.347h-5.188l0.815-4.29h-3.302l-0.815,4.29   h-5.188L299,339z"/>
	<path fill="#005DAA" d="M327.873,345.206c-0.753,3.963-4.88,6.337-9.398,6.337c-4.521,0-7.746-2.375-6.992-6.337   c0.737-3.881,4.912-6.403,9.412-6.403S328.609,341.325,327.873,345.206z M316.895,345.271c-0.269,1.408,0.688,2.375,2.319,2.375   c1.632,0,2.955-0.967,3.224-2.375c0.248-1.311-0.604-2.407-2.314-2.407C318.412,342.865,317.143,343.961,316.895,345.271z"/>
	<path fill="#005DAA" d="M329.053,339h5.385l-1.594,8.384h4.521l-0.754,3.962h-9.905L329.053,339z"/>
	<path fill="#005DAA" d="M350.104,346.925l0.24,0.181c0.844,0.622,1.907,1.13,3.146,1.13c0.531,0,1.41-0.181,1.516-0.737   s-0.592-0.605-1.066-0.688l-1.051-0.163c-2.045-0.312-3.615-1.344-3.25-3.275c0.559-2.931,4.072-4.569,7.295-4.569   c1.69,0,3.179,0.345,4.492,1.081l-2.055,3.161c-0.824-0.524-1.788-0.934-2.948-0.934c-0.471,0-1.188,0.146-1.282,0.654   c-0.088,0.458,0.567,0.524,0.965,0.606l1.176,0.229c2.197,0.427,3.656,1.441,3.259,3.537c-0.562,2.948-4.062,4.405-7.265,4.405   c-1.866,0-3.948-0.426-5.484-1.13L350.104,346.925z"/>
	<path fill="#005DAA" d="M368.604,346.876l-0.215-2.178c-0.058-0.524-0.054-1.064-0.051-1.589h-0.197l-1.697,3.767H368.604z    M363.916,351.347h-5.699L365.713,339h5.954l2.94,12.347h-5.699l-0.198-1.539h-4.067L363.916,351.347z"/>
	<path fill="#005DAA" d="M376.504,339h5.385l-1.594,8.384h4.521l-0.754,3.962h-9.904L376.504,339z"/>
	<path fill="#005DAA" d="M387.409,339h9.965l-0.642,3.374h-4.541l-0.224,1.179h4.146l-0.609,3.21h-4.147l-0.229,1.211h4.698   l-0.643,3.373h-10.121L387.409,339z"/>
	<g>
		<path fill="#E31837" d="M314.348,316.81l6.799-0.255l-5.705,18.799h12.199l5.703-18.799l6.646,0.255l2.708-8.926h-25.644    L314.348,316.81z"/>
		<path fill="#E31837" d="M289.089,321.691c-1.706,8.815-11.052,14.099-21.292,14.099c-10.239,0-17.542-5.283-15.836-14.099    c1.67-8.635,11.125-14.244,21.32-14.244C283.475,307.447,290.759,313.057,289.089,321.691z M264.219,321.837    c-0.605,3.133,1.562,5.283,5.255,5.283c3.695,0,6.693-2.149,7.299-5.283c0.564-2.914-1.368-5.354-5.241-5.354    C267.659,316.481,264.783,318.923,264.219,321.837z"/>
		<path fill="#E31837" d="M285.298,333.276c3.481,1.565,8.195,2.514,12.424,2.514c7.257,0,15.185-3.242,16.453-9.8    c0.902-4.663-2.399-6.922-7.381-7.869l-2.662-0.51c-0.9-0.183-2.385-0.328-2.188-1.349c0.218-1.129,1.84-1.458,2.909-1.458    c2.625,0,4.81,0.911,6.676,2.077l4.654-7.031c-2.978-1.639-6.346-2.403-10.175-2.403c-7.301,0-15.263,3.643-16.524,10.164    c-0.832,4.299,2.731,6.594,7.36,7.287l2.378,0.363c1.078,0.184,2.66,0.292,2.42,1.53s-2.231,1.639-3.434,1.639    c-2.805,0-5.213-1.129-7.126-2.513l-0.545-0.401L285.298,333.276z"/>
		<path fill="#E31837" d="M366.443,308.576c-2.44-0.729-5.213-1.129-7.974-1.129c-9.838,0-18.78,6.412-20.331,14.427    c-1.516,7.833,4.787,13.917,14.359,13.917c2.18,0,6.784-0.328,8.893-1.093l2.344-10.273c-2.264,1.566-4.678,2.55-7.483,2.55    c-3.649,0-6.36-2.332-5.774-5.354c0.578-2.988,4.02-5.355,7.67-5.355c2.76,0,4.961,1.275,6.633,2.77L366.443,308.576z"/>
		<path fill="#E31837" d="M385.975,307.447c-10.194,0-19.649,5.609-21.32,14.244c-1.705,8.815,5.598,14.099,15.838,14.099    c10.238,0,19.586-5.283,21.291-14.099C403.452,313.057,396.168,307.447,385.975,307.447z M384.227,316.481    c3.873,0,5.806,2.44,5.24,5.354c-0.605,3.133-3.604,5.283-7.299,5.283s-5.861-2.149-5.255-5.283    C377.477,318.923,380.354,316.481,384.227,316.481z"/>
		<path fill="#E31837" d="M255.106,302.411c-3.045-0.881-6.501-1.365-9.944-1.365c-12.271,0-23.424,7.75-25.357,17.438    c-1.889,9.468,5.971,16.821,17.908,16.821c2.721,0,8.464-0.396,11.091-1.32l2.923-12.419c-2.821,1.894-5.834,3.083-9.333,3.083    c-4.553,0-7.932-2.819-7.203-6.475c0.721-3.61,5.013-6.474,9.565-6.474c3.442,0,6.188,1.542,8.271,3.347L255.106,302.411z"/>
		<path fill="#E31837" d="M394.277,334.018c0.183-0.959,1.252-1.732,2.416-1.732c1.155,0,1.938,0.773,1.756,1.732    c-0.185,0.965-1.259,1.738-2.416,1.738C394.87,335.756,394.095,334.982,394.277,334.018z M397.905,334.018    c0.146-0.772-0.408-1.279-1.3-1.279c-0.906,0-1.638,0.507-1.783,1.279c-0.147,0.773,0.391,1.285,1.298,1.285    C397.011,335.303,397.758,334.792,397.905,334.018z M397.162,334.925h-0.539l-0.339-0.769h-0.353l-0.146,0.769h-0.458l0.345-1.816    h1.057c0.466,0,0.718,0.129,0.638,0.556c-0.061,0.311-0.304,0.471-0.585,0.493L397.162,334.925z M396.494,333.809    c0.229,0,0.426,0,0.464-0.194c0.03-0.16-0.168-0.16-0.397-0.16h-0.496l-0.065,0.354H396.494z"/>
	</g>
	<polygon fill="#005DAA" points="220.658,351.367 277.751,351.367 277.747,351.347 277.7,351.347 276.978,348.207 220.658,348.207     "/>
	<polygon fill="#005DAA" points="220.658,346.879 276.672,346.879 275.944,343.72 220.658,343.72  "/>
	<polygon fill="#005DAA" points="220.658,342.372 275.616,342.372 275.369,341.221 274.864,339.024 220.658,339.024  "/>
	<path fill="#005DAA" d="M339.959,339h9.964l-0.641,3.374h-4.54l-0.225,1.179h4.146l-0.609,3.21h-4.146l-0.23,1.211h4.697   l-0.641,3.373h-10.123L339.959,339z"/>
</g>
</svg>