<?xml version="1.0" encoding="UTF-8" standalone="no"?>
<!-- Created with Inkscape (http://www.inkscape.org/) -->

<svg
   xmlns:dc="http://purl.org/dc/elements/1.1/"
   xmlns:cc="http://creativecommons.org/ns#"
   xmlns:rdf="http://www.w3.org/1999/02/22-rdf-syntax-ns#"
   xmlns:svg="http://www.w3.org/2000/svg"
   xmlns="http://www.w3.org/2000/svg"
   xmlns:sodipodi="http://sodipodi.sourceforge.net/DTD/sodipodi-0.dtd"
   xmlns:inkscape="http://www.inkscape.org/namespaces/inkscape"
   id="svg2985"
   version="1.1"
   inkscape:version="0.48.3.1 r9886"
   width="2559"
   height="561"
   sodipodi:docname="Costcoold.png">
  <metadata
     id="metadata2991">
    <rdf:RDF>
      <cc:Work
         rdf:about="">
        <dc:format>image/svg+xml</dc:format>
        <dc:type
           rdf:resource="http://purl.org/dc/dcmitype/StillImage" />
        <dc:title></dc:title>
      </cc:Work>
    </rdf:RDF>
  </metadata>
  <defs
     id="defs2989" />
  <sodipodi:namedview
     pagecolor="#ffffff"
     bordercolor="#666666"
     borderopacity="1"
     objecttolerance="10"
     gridtolerance="10"
     guidetolerance="10"
     inkscape:pageopacity="0"
     inkscape:pageshadow="2"
     inkscape:window-width="1366"
     inkscape:window-height="709"
     id="namedview2987"
     showgrid="false"
     inkscape:zoom="0.41243338"
     inkscape:cx="1279.5"
     inkscape:cy="280.5"
     inkscape:window-x="-8"
     inkscape:window-y="-8"
     inkscape:window-maximized="1"
     inkscape:current-layer="svg2985" />
  <path
     style="fill:#ce334f;fill-opacity:1"
     d="M 282.5,524.29925 C 261.0514,523.69334 241.82279,521.04919 217.67001,515.3844 160.28221,501.92466 111.97932,469.46266 81.055454,423.57247 57.004648,387.88172 43.262231,344.60936 41.176205,298 38.950864,248.27786 46.659732,207.20377 65.481024,168.5 77.41324,143.9628 89.043061,127.7017 107.94442,109.12665 128.5504,88.876395 154.29299,72.196958 182.5,60.819721 c 7.30243,-2.945419 28.40469,-9.349026 40.5,-12.289968 21.3687,-5.19574 61.59348,-8.180605 88.30394,-6.55256 35.11354,2.140226 53.36283,5.39637 80.81326,14.41917 38.86952,12.776192 74.08673,39.880999 95.633,73.603637 9.76083,15.27692 20.45815,41.59293 25.20267,62 C 515.33454,202.24397 518,217.36443 518,220.63099 l 0,2.36901 -74.03138,0 c -58.38067,0 -74.10186,-0.26426 -74.36472,-1.25 -4.98166,-18.68149 -7.19689,-24.28475 -13.14165,-33.24092 -5.98627,-9.01868 -12.12765,-15.15759 -21.30437,-21.29581 -6.98138,-4.66976 -10.70472,-6.36952 -19.16151,-8.74748 -9.68865,-2.72436 -11.76608,-2.95172 -26.99637,-2.95457 -14.14933,-0.003 -17.78218,0.33373 -25.5,2.36115 -29.14754,7.65686 -49.39484,28.73982 -61.04945,63.5691 -5.56338,16.62591 -7.6295,30.79495 -8.17443,56.05853 -0.6784,31.45079 2.19844,50.93047 10.96435,74.24194 C 210.61546,366.03582 217.13389,376.13389 228,387 c 8.11917,8.11917 10.90627,10.19357 19.17509,14.27175 14.95762,7.3771 22.29003,8.98722 41.32491,9.07454 13.77508,0.0632 17.11246,-0.24286 24,-2.20093 24.21693,-6.88464 40.47146,-22.78924 50.50661,-49.41931 2.18991,-5.81134 4.7463,-13.75207 5.68086,-17.64606 l 1.6992,-7.07999 75.31365,0 75.31364,0 -0.57206,7.25 c -3.60799,45.72568 -21.8788,85.0587 -54.80659,117.98648 -9.23522,9.23523 -28.41827,24.51339 -36.13531,28.77965 -2.2,1.21624 -6.925,3.94249 -10.5,6.05834 -7.37328,4.36385 -28.27018,13.55815 -38,16.7194 -10.47635,3.40379 -34.63846,8.98549 -46.15761,10.66289 -14.71561,2.14285 -36.06587,3.30229 -52.34239,2.84249 z m 464,-3.32865 C 707.63072,518.5924 671.98334,508.23206 644.72747,491.39208 624.87742,479.12776 606.31181,461.052 594.53326,442.52226 581.39527,421.85386 572.63387,397.01982 569.00785,370.17089 567.418,358.39879 567.63473,330.47888 569.41283,318 c 11.39619,-79.97942 66.78639,-132.05856 154.87626,-145.61823 16.00429,-2.46353 65.41753,-2.46353 81.42182,0 22.87521,3.52118 48.52763,11.2249 65.37792,19.63375 50.2098,25.05636 80.87301,68.13763 89.40778,125.61635 1.88818,12.71626 2.14835,40.30071 0.49554,52.53902 C 954.86884,415.511 935.1997,452.32863 903,478.7233 c -22.27488,18.25912 -48.39538,30.20827 -80.07989,36.63357 -27.07832,5.49121 -50.41018,7.20514 -76.42011,5.61373 z m 34.1962,-93.46122 c 21.40167,-5.04651 33.89236,-18.76065 41.00178,-45.01789 2.6269,-9.70193 2.7053,-10.77396 2.7053,-36.99149 0,-26.16912 -0.0828,-27.30773 -2.69163,-37 -8.07626,-30.0051 -24.77199,-44.76981 -52.27976,-46.23309 -12.865,-0.68435 -21.88017,0.87727 -31.43189,5.44467 -14.71466,7.0362 -24.09172,19.9091 -29.71165,40.78842 -2.6088,9.69227 -2.69163,10.83088 -2.69163,37 0,26.21753 0.0784,27.28956 2.7053,36.99149 7.04288,26.01148 19.54262,39.87483 40.5476,44.971 7.55442,1.83284 24.16884,1.85729 31.84658,0.0469 z M 1165.5,521.00016 c -16.7301,-0.93891 -28.409,-2.45745 -47,-6.11114 -32.4102,-6.36959 -59.2711,-18.2428 -79.355,-35.07693 -21.6647,-18.15909 -33.8776,-41.14357 -36.6965,-69.06209 l -0.6815,-6.75 65.9865,0 65.9864,0 0.5056,4.48543 c 1.1644,10.33082 10.8109,23.49505 20.9773,28.62704 17.6861,8.92791 44.3757,9.25529 62.7772,0.77003 11.6666,-5.37969 16,-11.26448 16,-21.72826 0,-11.04293 -4.4664,-16.67996 -17.4816,-22.06348 -8.4901,-3.5118 -18.6752,-5.91165 -45.0184,-10.60744 -42.1369,-7.51108 -61.0961,-11.66294 -77.9849,-17.07784 -49.6901,-15.9317 -75.4341,-38.87063 -81.5644,-72.67716 -1.5741,-8.68068 -1.3334,-27.9215 0.4546,-36.34375 8.7692,-41.30652 42.6969,-67.78339 104.207,-81.32225 20.0562,-4.41453 32.2483,-5.41582 65.8877,-5.41111 19.5697,0.003 35.8845,0.49 42,1.25437 76.4169,9.55126 120.8855,39.24208 129.8803,86.71871 0.8207,4.33164 1.7035,9.79158 1.9618,12.13319 l 0.4696,4.25748 -62.6112,-0.25748 -62.6112,-0.25748 -0.7822,-3.76553 c -2.7159,-13.07325 -17.4343,-25.68941 -34.6906,-29.73568 -6.8777,-1.61269 -26.6788,-0.77946 -33.7674,1.42094 -12.6678,3.93222 -19.3491,11.81963 -19.3491,22.84182 0,11.37395 4.9864,16.14605 22.2796,21.32213 8.9125,2.66763 33.5962,7.65376 46.7204,9.43756 36.707,4.98908 74.3185,14.99767 99.6294,26.51183 21.0788,9.58895 39.2087,26.80586 47.5129,45.12046 7.693,16.96657 9.3501,41.73736 4.2042,62.84647 -9.2076,37.77053 -38.3218,64.17072 -87.4696,79.31563 -6.1541,1.89639 -24.651,5.63188 -39.8769,8.05323 -17.6908,2.81333 -50.3324,4.26313 -70.5,3.1313 z m 709,0.37599 c -20.234,-1.15542 -50.345,-7.03813 -65.9589,-12.88621 -48.0275,-17.98841 -81.6442,-47.11354 -101.411,-87.86134 -12.453,-25.67093 -17.7185,-54.309 -15.9739,-86.8786 1.3678,-25.53519 9.1388,-51.92863 21.4978,-73.01462 22.0554,-37.62945 58.3205,-65.74701 102.9719,-79.83776 21.2416,-6.70325 31.9515,-8.74667 52.7662,-10.06764 99.4237,-6.30973 175.5647,34.71279 196.0765,105.6402 2.0965,7.24943 5.5093,24.40142 5.5274,27.77982 0,0.4125 -29.471,0.75 -65.496,0.75 l -65.5,0 0,-3.03155 c 0,-1.66735 -0.9255,-5.7788 -2.0566,-9.13656 -6.736,-19.99534 -23.7408,-30.80683 -48.4434,-30.79975 -11.8629,0.003 -20.903,2.02418 -29.7573,6.6518 -15.2697,7.98061 -23.7322,21.09063 -28.9286,44.81606 -0.9175,4.18916 -1.2968,14.29968 -1.2569,33.5 0.055,26.56572 0.1482,27.83974 2.7335,37.5 3.8733,14.47295 8.6018,23.21301 16.6828,30.83619 10.5312,9.93459 24.6494,14.31998 43.2805,13.44373 8.562,-0.40269 11.6108,-1.02618 18.5499,-3.79352 15.4917,-6.17814 27.8617,-20.834 31.8508,-37.7364 l 1.711,-7.25 65.3171,0 c 51.5919,0 65.3153,0.26267 65.3081,1.25 0,0.6875 -1.0888,5.975 -2.4086,11.75 -9.8919,43.28472 -34.1874,76.65076 -72.6222,99.73536 -6.3031,3.7857 -13.2601,7.61213 -15.4601,8.50318 -2.2,0.89104 -8.2834,3.39269 -13.5186,5.55923 -13.0306,5.39256 -36.3165,10.93729 -54.9814,13.09189 -10.0755,1.16308 -32.0436,1.96938 -40.5,1.48649 z m 421,-0.40555 c -38.8693,-2.3782 -74.5167,-12.73854 -101.7725,-29.57852 -19.8501,-12.26432 -38.4157,-30.34008 -50.1942,-48.86982 -13.138,-20.6684 -21.8994,-45.50244 -25.5254,-72.35137 -1.5899,-11.7721 -1.3732,-39.69201 0.4049,-52.17089 11.3962,-79.97942 66.7864,-132.05856 154.8763,-145.61823 16.0043,-2.46353 65.4175,-2.46353 81.4218,0 22.8752,3.52118 48.5276,11.2249 65.3779,19.63375 50.2098,25.05636 80.873,68.13763 89.4078,125.61635 1.8882,12.71626 2.1484,40.30071 0.4955,52.53902 -6.1233,45.34011 -25.7924,82.15774 -57.9921,108.55241 -22.2749,18.25912 -48.3954,30.20827 -80.0799,36.63357 -27.0783,5.49121 -50.4102,7.20514 -76.4201,5.61373 z m 34.1962,-93.46122 c 21.4017,-5.04651 33.8924,-18.76065 41.0018,-45.01789 2.6269,-9.70193 2.7053,-10.77396 2.7053,-36.99149 0,-26.16912 -0.083,-27.30773 -2.6916,-37 -8.0763,-30.0051 -24.772,-44.76981 -52.2798,-46.23309 -12.865,-0.68435 -21.8802,0.87727 -31.4319,5.44467 -14.7147,7.0362 -24.0917,19.9091 -29.7117,40.78842 -2.6088,9.69227 -2.6916,10.83088 -2.6916,37 0,26.21753 0.078,27.28956 2.7053,36.99149 7.0429,26.01148 19.5426,39.87483 40.5476,44.971 7.5544,1.83284 24.1689,1.85729 31.8466,0.0469 z M 1550,516.02131 c -27.6725,-1.98458 -39.7346,-4.84321 -57,-13.50856 -7.7895,-3.90948 -11.0489,-6.32048 -18.1026,-13.39036 -7.1308,-7.14718 -9.4011,-10.24775 -13.2692,-18.12239 -6.1767,-12.5743 -9.4413,-25.91583 -10.6416,-43.48942 -0.5263,-7.70582 -0.9636,-49.44808 -0.9718,-92.76058 L 1450,256 l -30.5,0 -30.5,0 0,-39 0,-39 30.5,0 30.5,0 0,-51 0,-51 69,0 69,0 0,51 0,51 37,0 37,0 0,39 0,39 -37,0 -37,0 0,66.2899 c 0,70.77746 0.079,72.06416 5.0196,81.74859 2.5002,4.9008 9.6767,10.24773 16.9804,12.65142 4.5721,1.5047 8.8743,1.80853 25.5,1.80086 11,-0.005 21.4625,-0.33133 23.25,-0.725 l 3.25,-0.71577 0,47.8227 0,47.8227 -18.229,0.70412 c -10.0259,0.38726 -23.9179,1.11069 -30.8709,1.60762 -19.9392,1.42504 -50.3369,1.91515 -62.9001,1.01417 z"
     id="path2995"
     inkscape:connector-curvature="0" />
</svg>
