<?xml version="1.0" encoding="UTF-8" standalone="no"?>
<!-- Created with Inkscape (http://www.inkscape.org/) -->

<svg
   xmlns:dc="http://purl.org/dc/elements/1.1/"
   xmlns:cc="http://creativecommons.org/ns#"
   xmlns:rdf="http://www.w3.org/1999/02/22-rdf-syntax-ns#"
   xmlns:svg="http://www.w3.org/2000/svg"
   xmlns="http://www.w3.org/2000/svg"
   xmlns:sodipodi="http://sodipodi.sourceforge.net/DTD/sodipodi-0.dtd"
   xmlns:inkscape="http://www.inkscape.org/namespaces/inkscape"
   id="svg2985"
   version="1.1"
   inkscape:version="0.48.2 r9819"
   width="999.99994"
   height="136.47925"
   xml:space="preserve"
   sodipodi:docname="Diabetes_Health_Fall_Winter_2012.pdf"><metadata
     id="metadata2991"><rdf:RDF><cc:Work
         rdf:about=""><dc:format>image/svg+xml</dc:format><dc:type
           rdf:resource="http://purl.org/dc/dcmitype/StillImage" /><dc:title></dc:title></cc:Work></rdf:RDF></metadata><defs
     id="defs2989"><clipPath
       clipPathUnits="userSpaceOnUse"
       id="clipPath3007"><path
         d="m 0,33.84 475.2,0 0,313.92 -475.2,0 0,-313.92 z"
         id="path3009"
         inkscape:connector-curvature="0" /></clipPath><clipPath
       clipPathUnits="userSpaceOnUse"
       id="clipPath3081"><path
         d="m 27.274,479.863 86.801,0 0,89.6 -86.801,0 0,-89.6 z"
         id="path3083"
         inkscape:connector-curvature="0" /></clipPath><clipPath
       clipPathUnits="userSpaceOnUse"
       id="clipPath3093"><path
         d="m 29.609,486.72 77.473,0 0,80.407 -77.473,0 0,-80.407 z"
         id="path3095"
         inkscape:connector-curvature="0" /></clipPath><clipPath
       clipPathUnits="userSpaceOnUse"
       id="clipPath3251"><path
         d="m 396.756,399.057 7.104,0 0,4.991 -7.104,0 0,-4.991 z"
         id="path3253"
         inkscape:connector-curvature="0" /></clipPath></defs><sodipodi:namedview
     pagecolor="#ffffff"
     bordercolor="#666666"
     borderopacity="1"
     objecttolerance="10"
     gridtolerance="10"
     guidetolerance="10"
     inkscape:pageopacity="0"
     inkscape:pageshadow="2"
     inkscape:window-width="1267"
     inkscape:window-height="1030"
     id="namedview2987"
     showgrid="false"
     fit-margin-left="0.5"
     fit-margin-bottom="0.5"
     fit-margin-top="0.5"
     fit-margin-right="0.5"
     inkscape:zoom="0.86241447"
     inkscape:cx="497.60398"
     inkscape:cy="-50.852282"
     inkscape:window-x="643"
     inkscape:window-y="-15"
     inkscape:window-maximized="0"
     inkscape:current-layer="g2993" /><g
     id="g2993"
     inkscape:groupmode="layer"
     inkscape:label="Diabetes_Health_Fall_Winter_2012"
     transform="matrix(1.25,0,0,-1.25,-389.65,812.17675)"><g
       id="g3025"
       transform="matrix(5.9652923,0,0,5.9652923,378.48984,583.18631)"><path
         d="m 0,0 c -0.156,-1.731 -1.142,-2.675 -2.731,-2.675 -2.082,0 -3.18,1.529 -3.18,4.474 0,2.989 1.007,4.473 3.046,4.473 1.656,0 2.573,-0.855 2.732,-2.495 l 4.945,0 c -0.312,4.181 -3.067,6.542 -7.745,6.542 -5.037,0 -8.193,-3.238 -8.193,-8.52 0,-5.261 3.134,-8.52 8.305,-8.52 4.634,0 7.433,2.472 7.724,6.721 L 0,0"
         style="fill:#e62e40;fill-opacity:1;fill-rule:nonzero;stroke:none"
         id="path3027"
         inkscape:connector-curvature="0" /></g><g
       id="g3029"
       transform="matrix(5.9652923,0,0,5.9652923,399.91717,642.18895)"><path
         d="m 0,0 5.417,-16.163 5.149,0 L 15.984,0 10.903,0 7.992,-10.431 5.284,0"
         style="fill:#e62e40;fill-opacity:1;fill-rule:nonzero;stroke:none"
         id="path3031"
         inkscape:connector-curvature="0" /></g><g
       id="g3033"
       transform="matrix(5.9652923,0,0,5.9652923,488.27502,575.80724)"><path
         d="m 0,0 c 0.315,-3.439 2.866,-5.484 7.188,-5.484 4.7,0 7.208,2.045 7.208,5.551 0,1.665 -0.65,2.834 -2.059,3.777 -1.029,0.698 -2.619,1.012 -4.612,1.53 -1.567,0.404 -2.396,0.562 -2.396,1.417 0,0.74 0.537,1.099 1.634,1.099 1.254,0 1.926,-0.449 2.083,-1.415 l 4.903,0 c -0.292,3.259 -2.732,5.081 -6.896,5.081 -4.298,0 -6.76,-2.025 -6.76,-5.148 0,-1.596 0.603,-2.833 1.858,-3.732 C 2.822,2.203 4.278,1.71 6.517,1.125 8.419,0.63 9.36,0.54 9.36,-0.472 9.36,-1.169 8.666,-1.641 7.412,-1.641 6.001,-1.641 5.306,-1.191 5.038,0 L 0,0"
         style="fill:#e62e40;fill-opacity:1;fill-rule:nonzero;stroke:none"
         id="path3035"
         inkscape:connector-curvature="0" /></g><g
       id="g3037"
       transform="matrix(5.9652923,0,0,5.9652923,650.28049,594.81863)"><path
         d="m 0,0 c 0,-1.366 -0.512,-2.05 -1.481,-2.05 -0.986,0 -1.479,0.684 -1.479,2.05 0,1.435 0.441,2.1 1.513,2.1 C -0.461,2.1 0,1.418 0,0 m -6.448,-8.147 3.488,0 0,4.492 c 0.629,-0.803 1.445,-1.161 2.55,-1.161 2.417,0 3.999,1.861 3.999,4.816 0,2.921 -1.634,4.8 -3.932,4.8 -1.291,0 -2.209,-0.427 -2.924,-1.401 l 0,1.161 -3.181,0 0,-12.707"
         style="fill:#e62e40;fill-opacity:1;fill-rule:nonzero;stroke:none"
         id="path3039"
         inkscape:connector-curvature="0" /></g><g
       id="g3041"
       transform="matrix(5.9652923,0,0,5.9652923,674.09394,567.92709)"><path
         d="m 0,0 3.589,0 0,4.68 c 0,1.229 0.442,1.828 1.344,1.828 0.987,0 1.224,-0.565 1.224,-1.81 l 0,-4.698 3.589,0 0,4.714 C 9.746,6.285 9.679,7.395 8.998,8.216 8.386,8.95 7.519,9.309 6.362,9.309 5.239,9.309 4.321,8.899 3.589,8.096 l 0,4.184 L 0,12.28 0,0"
         style="fill:#e62e40;fill-opacity:1;fill-rule:nonzero;stroke:none"
         id="path3043"
         inkscape:connector-curvature="0" /></g><g
       id="g3045"
       transform="matrix(5.9652923,0,0,5.9652923,772.07983,592.07453)"><path
         d="m 0,0 c 0.016,-0.154 0.016,-0.306 0.016,-0.461 0,-1.196 -0.511,-1.743 -1.719,-1.743 -0.663,0 -1.021,0.307 -1.021,0.821 0,0.87 1.056,0.751 2.724,1.383 m 0.324,-4.048 3.604,0 0,0.256 c -0.254,0.171 -0.393,0.444 -0.393,0.769 l 0,5.055 c 0,1.213 -0.201,1.895 -1.155,2.545 -0.612,0.41 -1.871,0.768 -3.521,0.768 -3.165,0 -4.797,-1.058 -4.83,-3.09 l 3.502,0 c 0.071,0.614 0.461,0.904 1.209,0.904 0.866,0 1.292,-0.222 1.292,-0.751 0,-0.837 -0.748,-0.752 -2.483,-0.973 -2.67,-0.342 -3.928,-0.905 -3.928,-2.922 0,-1.827 1.139,-2.886 3.195,-2.886 1.328,0 2.366,0.376 3.284,1.196 l 0.224,-0.871"
         style="fill:#e62e40;fill-opacity:1;fill-rule:nonzero;stroke:none"
         id="path3047"
         inkscape:connector-curvature="0" /></g><g
       id="g3049"
       transform="matrix(5.9652923,0,0,5.9652923,797.89761,567.92709)"><path
         d="m 0,0 3.604,0 0,3.723 c 0,1.401 0.666,2.033 2.11,2.033 0.224,0 0.461,-0.018 0.732,-0.052 l 0,3.605 -0.323,0 C 4.66,9.309 3.793,8.745 3.317,7.413 l 0,1.656 L 0,9.069 0,0"
         style="fill:#e62e40;fill-opacity:1;fill-rule:nonzero;stroke:none"
         id="path3051"
         inkscape:connector-curvature="0" /></g><g
       id="g3053"
       transform="matrix(5.9652923,0,0,5.9652923,840.51969,567.92709)"><path
         d="m 0,0 3.539,0 0,4.867 c 0,1.06 0.424,1.607 1.224,1.607 0.918,0 1.26,-0.531 1.26,-1.743 l 0,-4.731 3.521,0 0,4.817 c 0,1.126 0.39,1.657 1.276,1.657 0.867,0 1.206,-0.514 1.206,-1.623 l 0,-4.851 3.539,0 0,6.183 c 0,1.981 -1.224,3.143 -3.351,3.143 -1.328,0 -2.33,-0.512 -3.198,-1.59 C 8.335,8.831 7.519,9.309 6.33,9.309 5.052,9.309 4.066,8.814 3.266,7.736 l 0,1.333 L 0,9.069 0,0"
         style="fill:#e62e40;fill-opacity:1;fill-rule:nonzero;stroke:none"
         id="path3055"
         inkscape:connector-curvature="0" /></g><g
       id="g3057"
       transform="matrix(5.9652923,0,0,5.9652923,973.14001,592.07453)"><path
         d="m 0,0 c 0.016,-0.154 0.016,-0.306 0.016,-0.461 0,-1.196 -0.51,-1.743 -1.717,-1.743 -0.664,0 -1.022,0.307 -1.022,0.821 0,0.87 1.054,0.751 2.723,1.383 m 0.322,-4.048 3.608,0 0,0.256 c -0.257,0.171 -0.394,0.444 -0.394,0.769 l 0,5.055 c 0,1.213 -0.202,1.895 -1.155,2.545 -0.613,0.41 -1.871,0.768 -3.521,0.768 -3.164,0 -4.798,-1.058 -4.832,-3.09 l 3.503,0 c 0.068,0.614 0.461,0.904 1.21,0.904 0.865,0 1.291,-0.222 1.291,-0.751 0,-0.837 -0.746,-0.752 -2.483,-0.973 C -5.122,1.093 -6.38,0.53 -6.38,-1.487 c 0,-1.827 1.14,-2.886 3.198,-2.886 1.327,0 2.365,0.376 3.283,1.196 l 0.221,-0.871"
         style="fill:#e62e40;fill-opacity:1;fill-rule:nonzero;stroke:none"
         id="path3059"
         inkscape:connector-curvature="0" /></g><g
       id="g3061"
       transform="matrix(5.9652923,0,0,5.9652923,1034.7734,589.00843)"><path
         d="m 0,0 c -0.084,-0.887 -0.561,-1.348 -1.393,-1.348 -1.04,0 -1.482,0.75 -1.482,2.356 0,1.589 0.461,2.34 1.515,2.34 0.832,0 1.258,-0.409 1.326,-1.264 l 3.589,0 C 3.47,4.356 1.6,5.858 -1.344,5.858 c -3.196,0 -5.153,-1.843 -5.153,-4.85 0,-2.972 1.957,-4.867 5.186,-4.867 2.911,0 4.748,1.486 4.9,3.859 L 0,0"
         style="fill:#e62e40;fill-opacity:1;fill-rule:nonzero;stroke:none"
         id="path3063"
         inkscape:connector-curvature="0" /></g><g
       id="g3065"
       transform="matrix(5.9652923,0,0,5.9652923,1058.0499,546.62503)"><path
         d="m 0,0 c 0.782,-0.049 1.394,-0.067 1.82,-0.067 1.258,0 2.143,0.051 2.839,0.751 0.546,0.529 0.887,1.536 1.346,2.937 l 2.925,9.019 -3.384,0 -1.532,-5.499 -1.581,5.499 -3.641,0 L 1.82,4.339 C 1.938,3.998 2.006,3.707 2.006,3.451 2.006,2.888 1.683,2.682 1.02,2.682 L 0,2.682 0,0"
         style="fill:#e62e40;fill-opacity:1;fill-rule:nonzero;stroke:none"
         id="path3067"
         inkscape:connector-curvature="0" /></g><g
       id="g3069"
       transform="matrix(5.9652923,0,0,5.9652923,606.28646,649.3414)"><path
         d="m 0,0 1.814,-0.627 -6.012,-17.542 -1.817,0.629"
         style="fill:#e62e40;fill-opacity:1;fill-rule:nonzero;stroke:none"
         id="path3071"
         inkscape:connector-curvature="0" /></g></g></svg>