<?xml version="1.0" encoding="UTF-8" standalone="no"?>
<!-- Created with Inkscape (http://www.inkscape.org/) -->

<svg
   xmlns:dc="http://purl.org/dc/elements/1.1/"
   xmlns:cc="http://creativecommons.org/ns#"
   xmlns:rdf="http://www.w3.org/1999/02/22-rdf-syntax-ns#"
   xmlns:svg="http://www.w3.org/2000/svg"
   xmlns="http://www.w3.org/2000/svg"
   xmlns:sodipodi="http://sodipodi.sourceforge.net/DTD/sodipodi-0.dtd"
   xmlns:inkscape="http://www.inkscape.org/namespaces/inkscape"
   id="svg3152"
   version="1.1"
   inkscape:version="0.48.1 "
   width="288.31528"
   height="133.92563"
   xml:space="preserve"
   sodipodi:docname="Danone_Logos.pdf"><metadata
     id="metadata3158"><rdf:RDF><cc:Work
         rdf:about=""><dc:format>image/svg+xml</dc:format><dc:type
           rdf:resource="http://purl.org/dc/dcmitype/StillImage" /><dc:title></dc:title></cc:Work></rdf:RDF></metadata><defs
     id="defs3156" /><sodipodi:namedview
     pagecolor="#ffffff"
     bordercolor="#666666"
     borderopacity="1"
     objecttolerance="10"
     gridtolerance="10"
     guidetolerance="10"
     inkscape:pageopacity="0"
     inkscape:pageshadow="2"
     inkscape:window-width="1280"
     inkscape:window-height="744"
     id="namedview3154"
     showgrid="false"
     fit-margin-top="0"
     fit-margin-left="0"
     fit-margin-right="0"
     fit-margin-bottom="0"
     inkscape:zoom="1"
     inkscape:cx="92.204882"
     inkscape:cy="86.922694"
     inkscape:window-x="-4"
     inkscape:window-y="-4"
     inkscape:window-maximized="1"
     inkscape:current-layer="g3160" /><g
     id="g3160"
     inkscape:groupmode="layer"
     inkscape:label="Danone_Logos"
     transform="matrix(1.25,0,0,-1.25,-279.84236,569.96281)"><g
       transform="translate(41.561691,239.07114)"
       id="g4290"><path
         inkscape:connector-curvature="0"
         id="path4186"
         style="fill:#ffffff;fill-opacity:1;fill-rule:nonzero;stroke:none"
         d="m 182.3525,143.6114 -0.0403,44.3131 c -0.002,2.6334 0.8212,5.0698 2.2136,7.0657 1.4525,2.0809 3.5161,3.6776 5.9051,4.5192 16.0917,5.6705 32.4902,10.0798 49.042,13.036 15.9499,2.8486 32.1414,4.3566 48.4472,4.3537 18.8487,-0.004 38.0259,-0.6511 56.8882,-2.9936 19.08,-2.3695 37.9774,-6.4675 56.1294,-13.3665 3.2176,-1.2226 6.101,-2.6354 8.3055,-4.8175 2.6076,-2.5815 4.0425,-5.8581 3.6601,-10.3771 l 0.009,-40.7012 0,-0.1701 c -0.072,-1.8641 -0.5491,-4.0544 -1.6317,-5.9479 -1.0054,-1.7598 -2.5058,-3.293 -4.6445,-4.2256 -17.2242,-7.5167 -34.9759,-13.5522 -53.464,-17.7622 -18.4768,-4.2072 -37.6903,-6.5826 -57.8492,-6.7788 l -0.1133,0 c -19.6929,0.3152 -38.0563,2.842 -55.3964,6.9304 -17.3429,4.089 -33.6855,9.7336 -49.3248,16.2859 -2.5994,1.0857 -4.4949,2.4679 -5.8232,4.1247 -1.5259,1.9029 -2.2334,4.0255 -2.3125,6.3607 l 0,0.1511 z" /><path
         inkscape:connector-curvature="0"
         id="path4188"
         style="fill:#2744a0;fill-opacity:1;fill-rule:evenodd;stroke:none"
         d="m 187.1331,187.9245 0.0403,-44.3131 c 0.0875,-2.5832 1.5341,-4.6568 5.1675,-6.1745 30.8265,-12.9155 64.3757,-22.2397 102.9441,-22.8574 39.5669,0.3858 75.5003,9.3407 109.4225,24.1441 2.4122,1.0522 3.3018,3.801 3.3834,5.9196 l -0.008,41.0972 c 0.4915,5.8071 -3.5221,8.2568 -8.8464,10.2802 -35.4804,13.4849 -74.118,16.05 -111.3162,16.0577 -32.4777,0.006 -64.8091,-6.1756 -95.8816,-17.1253 -2.8364,-0.9992 -4.9079,-3.7547 -4.9051,-7.0285" /><path
         inkscape:connector-curvature="0"
         id="path4190"
         style="fill:#2744a0;fill-opacity:1;fill-rule:evenodd;stroke:none"
         d="m 297.9646,176.0995 c 31.038,0 56.2062,-11.6611 56.2062,-26.0396 0,-9.83 -25.1682,-26.0396 -56.2062,-26.0396 -31.0371,0 -56.2073,15.2526 -56.2073,26.0396 0,14.3785 25.1702,26.0396 56.2073,26.0396" /><path
         inkscape:connector-curvature="0"
         id="path4192"
         style="fill:#2549a3;fill-opacity:1;fill-rule:evenodd;stroke:none"
         d="m 297.949,175.0946 c 30.4611,0 55.1628,-11.4295 55.1628,-25.5251 0,-9.6542 -24.7017,-25.5251 -55.1628,-25.5251 -30.4608,0 -55.1627,14.936 -55.1627,25.5251 0,14.0956 24.7019,25.5251 55.1627,25.5251" /><path
         inkscape:connector-curvature="0"
         id="path4194"
         style="fill:#234ea6;fill-opacity:1;fill-rule:evenodd;stroke:none"
         d="m 297.9329,174.0906 c 29.8848,0 54.119,-11.1997 54.119,-25.0106 0,-9.4791 -24.2342,-25.0115 -54.119,-25.0115 -29.8848,0 -54.1194,14.6205 -54.1194,25.0115 0,13.8109 24.2346,25.0106 54.1194,25.0106" /><path
         inkscape:connector-curvature="0"
         id="path4196"
         style="fill:#2253a9;fill-opacity:1;fill-rule:evenodd;stroke:none"
         d="m 297.9173,173.0863 c 29.308,0 53.0759,-10.9698 53.0759,-24.497 0,-9.303 -23.7679,-24.497 -53.0759,-24.497 -29.3085,0 -53.0765,14.3045 -53.0765,24.497 0,13.5272 23.768,24.497 53.0765,24.497" /><path
         inkscape:connector-curvature="0"
         id="path4198"
         style="fill:#2057ad;fill-opacity:1;fill-rule:evenodd;stroke:none"
         d="m 297.9011,172.0823 c 28.7326,0 52.0322,-10.7399 52.0322,-23.9834 0,-9.127 -23.2996,-23.9825 -52.0322,-23.9825 -28.7317,0 -52.0313,13.989 -52.0313,23.9825 0,13.2435 23.2996,23.9834 52.0313,23.9834" /><path
         inkscape:connector-curvature="0"
         id="path4200"
         style="fill:#1e5caf;fill-opacity:1;fill-rule:evenodd;stroke:none"
         d="m 297.8855,171.0782 c 28.1557,0 50.9879,-10.51 50.9879,-23.4697 0,-8.9512 -22.8322,-23.4689 -50.9879,-23.4689 -28.1554,0 -50.9887,13.6744 -50.9887,23.4689 0,12.9597 22.8333,23.4697 50.9887,23.4697" /><path
         inkscape:connector-curvature="0"
         id="path4202"
         style="fill:#1c61b3;fill-opacity:1;fill-rule:evenodd;stroke:none"
         d="m 297.8694,170.0742 c 27.5794,0 49.945,-10.2793 49.945,-22.9552 0,-8.7761 -22.3656,-22.9544 -49.945,-22.9544 -27.5794,0 -49.9445,13.358 -49.9445,22.9544 0,12.6759 22.3651,22.9552 49.9445,22.9552" /><path
         inkscape:connector-curvature="0"
         id="path4204"
         style="fill:#1a66b5;fill-opacity:1;fill-rule:evenodd;stroke:none"
         d="m 297.8538,169.069 c 27.0025,0 48.9008,-10.0482 48.9008,-22.4407 0,-8.6009 -21.8983,-22.4408 -48.9008,-22.4408 -27.0031,0 -48.9016,13.0425 -48.9016,22.4408 0,12.3925 21.8985,22.4407 48.9016,22.4407" /><path
         inkscape:connector-curvature="0"
         id="path4206"
         style="fill:#196bb9;fill-opacity:1;fill-rule:evenodd;stroke:none"
         d="m 297.8376,168.065 c 26.4263,0 47.8574,-9.8186 47.8574,-21.9263 0,-8.4248 -21.4311,-21.9271 -47.8574,-21.9271 -26.4262,0 -47.8573,12.727 -47.8573,21.9271 0,12.1077 21.4311,21.9263 47.8573,21.9263" /><path
         inkscape:connector-curvature="0"
         id="path4208"
         style="fill:#1770bb;fill-opacity:1;fill-rule:evenodd;stroke:none"
         d="m 297.8223,167.061 c 25.85,0 46.8128,-9.5888 46.8128,-21.4127 0,-8.2491 -20.9628,-21.4117 -46.8128,-21.4117 -25.8502,0 -46.8139,12.4106 -46.8139,21.4117 0,11.8239 20.9637,21.4127 46.8139,21.4127" /><path
         inkscape:connector-curvature="0"
         id="path4210"
         style="fill:#1575bf;fill-opacity:1;fill-rule:evenodd;stroke:none"
         d="m 297.8067,166.0569 c 25.2732,0 45.7694,-9.3588 45.7694,-20.8981 0,-8.0751 -20.4962,-20.8981 -45.7694,-20.8981 -25.2751,0 -45.771,12.0943 -45.771,20.8981 0,11.5393 20.4959,20.8981 45.771,20.8981" /><path
         inkscape:connector-curvature="0"
         id="path4212"
         style="fill:#137ac2;fill-opacity:1;fill-rule:evenodd;stroke:none"
         d="m 297.7906,165.0518 c 24.6968,0 44.7256,-9.1279 44.7256,-20.3834 0,-7.899 -20.0288,-20.3845 -44.7256,-20.3845 -24.6983,0 -44.7268,11.7785 -44.7268,20.3845 0,11.2555 20.0285,20.3834 44.7268,20.3834" /><path
         inkscape:connector-curvature="0"
         id="path4214"
         style="fill:#1180c5;fill-opacity:1;fill-rule:evenodd;stroke:none"
         d="m 297.7741,164.0477 c 24.122,0 43.6822,-8.8971 43.6822,-19.87 0,-7.723 -19.5602,-19.87 -43.6822,-19.87 -24.1219,0 -43.6821,11.4633 -43.6821,19.87 0,10.9729 19.5602,19.87 43.6821,19.87" /><path
         inkscape:connector-curvature="0"
         id="path4216"
         style="fill:#0f84c7;fill-opacity:1;fill-rule:evenodd;stroke:none"
         d="m 297.7577,163.0437 c 23.546,0 42.6399,-8.6675 42.6399,-19.3555 0,-7.5478 -19.0939,-19.3564 -42.6399,-19.3564 -23.5448,0 -42.6387,11.147 -42.6387,19.3564 0,10.688 19.0939,19.3555 42.6387,19.3555" /><path
         inkscape:connector-curvature="0"
         id="path4218"
         style="fill:#0e89ca;fill-opacity:1;fill-rule:evenodd;stroke:none"
         d="m 297.7424,162.0397 c 22.9688,0 41.5953,-8.4376 41.5953,-18.8419 0,-7.3718 -18.6265,-18.8419 -41.5953,-18.8419 -22.9689,0 -41.5953,10.8315 -41.5953,18.8419 0,10.4043 18.6264,18.8419 41.5953,18.8419" /><path
         inkscape:connector-curvature="0"
         id="path4220"
         style="fill:#0b8fcf;fill-opacity:1;fill-rule:evenodd;stroke:none"
         d="m 297.7271,161.0345 c 22.3926,0 40.5507,-8.2066 40.5507,-18.3271 0,-7.196 -18.1581,-18.3285 -40.5507,-18.3285 -22.3929,0 -40.5519,10.5171 -40.5519,18.3285 0,10.1205 18.159,18.3271 40.5519,18.3271" /><path
         inkscape:connector-curvature="0"
         id="path4222"
         style="fill:#0994d1;fill-opacity:1;fill-rule:evenodd;stroke:none"
         d="m 297.7106,160.0305 c 21.8166,0 39.5082,-7.9767 39.5082,-17.8126 0,-7.0209 -17.6916,-17.8138 -39.5082,-17.8138 -21.8157,0 -39.5081,10.2005 -39.5081,17.8138 0,9.8359 17.6924,17.8126 39.5081,17.8126" /><path
         inkscape:connector-curvature="0"
         id="path4224"
         style="fill:#0799d3;fill-opacity:1;fill-rule:evenodd;stroke:none"
         d="m 297.6953,159.0265 c 21.2395,0 38.4636,-7.746 38.4636,-17.2993 0,-6.8448 -17.2241,-17.2993 -38.4636,-17.2993 -21.2405,0 -38.4638,9.8853 -38.4638,17.2993 0,9.5533 17.2233,17.2993 38.4638,17.2993" /><path
         inkscape:connector-curvature="0"
         id="path4226"
         style="fill:#069ed6;fill-opacity:1;fill-rule:evenodd;stroke:none"
         d="m 297.6789,158.0224 c 20.6634,0 37.4213,-7.5163 37.4213,-16.7856 0,-6.6688 -16.7579,-16.7848 -37.4213,-16.7848 -20.6634,0 -37.4202,9.5686 -37.4202,16.7848 0,9.2693 16.7568,16.7856 37.4202,16.7856" /><path
         inkscape:connector-curvature="0"
         id="path4228"
         style="fill:#04a3da;fill-opacity:1;fill-rule:evenodd;stroke:none"
         d="m 297.6636,157.0173 c 20.0871,0 36.3767,-7.2854 36.3767,-16.2701 0,-6.4938 -16.2896,-16.2711 -36.3767,-16.2711 -20.0874,0 -36.3779,9.2531 -36.3779,16.2711 0,8.9847 16.2905,16.2701 36.3779,16.2701" /><path
         inkscape:connector-curvature="0"
         id="path4230"
         style="fill:#02a7dc;fill-opacity:1;fill-rule:evenodd;stroke:none"
         d="m 297.6471,156.0141 c 19.5112,0 35.3333,-7.0563 35.3333,-15.7572 0,-6.319 -15.8221,-15.7567 -35.3333,-15.7567 -19.5102,0 -35.3332,8.9368 -35.3332,15.7567 0,8.7009 15.823,15.7572 35.3332,15.7572" /><path
         inkscape:connector-curvature="0"
         id="path4232"
         style="fill:#00acdf;fill-opacity:1;fill-rule:evenodd;stroke:none"
         d="m 297.6307,155.0092 c 18.9352,0 34.2899,-6.8255 34.2899,-15.2419 0,-6.143 -15.3547,-15.2442 -34.2899,-15.2442 -18.934,0 -34.2887,8.6225 -34.2887,15.2442 0,8.4164 15.3547,15.2419 34.2887,15.2419" /><path
         inkscape:connector-curvature="0"
         id="path4234"
         style="fill:#0dafde;fill-opacity:1;fill-rule:evenodd;stroke:none"
         d="m 297.6154,154.0052 c 18.358,0 33.2453,-6.5948 33.2453,-14.7286 0,-5.9666 -14.8873,-14.7294 -33.2453,-14.7294 -18.358,0 -33.2461,8.3058 -33.2461,14.7294 0,8.1338 14.8881,14.7286 33.2461,14.7286" /><path
         inkscape:connector-curvature="0"
         id="path4236"
         style="fill:#17b2df;fill-opacity:1;fill-rule:evenodd;stroke:none"
         d="m 297.599,153.0011 c 17.7831,0 32.2027,-6.3652 32.2027,-14.2149 0,-5.7917 -14.4196,-14.2149 -32.2027,-14.2149 -17.7821,0 -32.2016,7.9903 -32.2016,14.2149 0,7.8497 14.4195,14.2149 32.2016,14.2149" /><path
         inkscape:connector-curvature="0"
         id="path4238"
         style="fill:#23b4de;fill-opacity:1;fill-rule:evenodd;stroke:none"
         d="m 297.5837,151.9968 c 17.206,0 31.1581,-6.135 31.1581,-13.7001 0,-5.6157 -13.9521,-13.7013 -31.1581,-13.7013 -17.2061,0 -31.1582,7.6748 -31.1582,13.7013 0,7.5651 13.9521,13.7001 31.1582,13.7001" /><path
         inkscape:connector-curvature="0"
         id="path4240"
         style="fill:#30b8de;fill-opacity:1;fill-rule:evenodd;stroke:none"
         d="m 297.5683,150.9928 c 16.6289,0 30.1148,-5.9051 30.1148,-13.1868 0,-5.4405 -13.4859,-13.1865 -30.1148,-13.1865 -16.63,0 -30.1155,7.3585 -30.1155,13.1865 0,7.2817 13.4855,13.1868 30.1155,13.1868" /><path
         inkscape:connector-curvature="0"
         id="path4242"
         style="fill:#3cbbde;fill-opacity:1;fill-rule:evenodd;stroke:none"
         d="m 297.5519,149.9879 c 16.0529,0 29.0713,-5.6744 29.0713,-12.6723 0,-5.2648 -13.0184,-12.6723 -29.0713,-12.6723 -16.0526,0 -29.071,7.0433 -29.071,12.6723 0,6.9979 13.0184,12.6723 29.071,12.6723" /><path
         inkscape:connector-curvature="0"
         id="path4244"
         style="fill:#46bee1;fill-opacity:1;fill-rule:evenodd;stroke:none"
         d="m 297.5355,148.9839 c 15.4768,0 28.0278,-5.4437 28.0278,-12.1578 0,-5.0896 -12.551,-12.1587 -28.0278,-12.1587 -15.4766,0 -28.0265,6.7278 -28.0265,12.1587 0,6.7141 12.5499,12.1578 28.0265,12.1578" /><path
         inkscape:connector-curvature="0"
         id="path4246"
         style="fill:#51c0df;fill-opacity:1;fill-rule:evenodd;stroke:none"
         d="m 297.5202,147.9796 c 14.9006,0 26.9841,-5.2135 26.9841,-11.6439 0,-4.9136 -12.0835,-11.6442 -26.9841,-11.6442 -14.9006,0 -26.9842,6.4111 -26.9842,11.6442 0,6.4304 12.0836,11.6439 26.9842,11.6439" /><path
         inkscape:connector-curvature="0"
         id="path4248"
         style="fill:#5ec4df;fill-opacity:1;fill-rule:evenodd;stroke:none"
         d="m 297.5049,146.9755 c 14.3234,0 25.9395,-4.9838 25.9395,-11.1305 0,-4.7375 -11.6161,-11.1294 -25.9395,-11.1294 -14.3246,0 -25.9407,6.0956 -25.9407,11.1294 0,6.1467 11.6161,11.1305 25.9407,11.1305" /><path
         inkscape:connector-curvature="0"
         id="path4250"
         style="fill:#69c6e0;fill-opacity:1;fill-rule:evenodd;stroke:none"
         d="m 297.4884,145.9715 c 13.7475,0 24.8973,-4.754 24.8973,-10.6169 0,-4.5615 -11.1498,-10.616 -24.8973,-10.616 -13.7475,0 -24.8961,5.7804 -24.8961,10.616 0,5.8629 11.1486,10.6169 24.8961,10.6169" /><path
         inkscape:connector-curvature="0"
         id="path4252"
         style="fill:#73cae2;fill-opacity:1;fill-rule:evenodd;stroke:none"
         d="m 297.4731,144.9675 c 13.1703,0 23.8527,-4.5241 23.8527,-10.1024 0,-4.3866 -10.6824,-10.1024 -23.8527,-10.1024 -13.1715,0 -23.8535,5.4649 -23.8535,10.1024 0,5.5783 10.682,10.1024 23.8535,10.1024" /><path
         inkscape:connector-curvature="0"
         id="path4254"
         style="fill:#7fcee3;fill-opacity:1;fill-rule:evenodd;stroke:none"
         d="m 297.4567,143.9623 c 12.5951,0 22.8092,-4.2934 22.8092,-9.5876 0,-4.2117 -10.2141,-9.5879 -22.8092,-9.5879 -12.5952,0 -22.809,5.1483 -22.809,9.5879 0,5.2942 10.2138,9.5876 22.809,9.5876" /><path
         inkscape:connector-curvature="0"
         id="path4256"
         style="fill:#8ad0e1;fill-opacity:1;fill-rule:evenodd;stroke:none"
         d="m 297.4405,142.9583 c 12.02,0 21.7655,-4.0624 21.7655,-9.0732 0,-4.0357 -9.7455,-9.0742 -21.7655,-9.0742 -12.0183,0 -21.7647,4.8328 -21.7647,9.0742 0,5.0108 9.7464,9.0732 21.7647,9.0732" /><path
         inkscape:connector-curvature="0"
         id="path4258"
         style="fill:#95d2e2;fill-opacity:1;fill-rule:evenodd;stroke:none"
         d="m 297.4249,141.9542 c 11.4432,0 20.7221,-3.8335 20.7221,-8.5597 0,-3.8594 -9.2789,-8.5595 -20.7221,-8.5595 -11.4429,0 -20.7221,4.5173 -20.7221,8.5595 0,4.7262 9.2792,8.5597 20.7221,8.5597" /><path
         inkscape:connector-curvature="0"
         id="path4260"
         style="fill:#a1d5e2;fill-opacity:1;fill-rule:evenodd;stroke:none"
         d="m 297.4096,140.9502 c 10.8661,0 19.6775,-3.6028 19.6775,-8.0461 0,-3.6845 -8.8114,-8.0453 -19.6775,-8.0453 -10.8669,0 -19.6787,4.2021 -19.6787,8.0453 0,4.4433 8.8118,8.0461 19.6787,8.0461" /><path
         inkscape:connector-curvature="0"
         id="path4262"
         style="fill:#aad9e5;fill-opacity:1;fill-rule:evenodd;stroke:none"
         d="m 297.3932,139.945 c 10.29,0 18.6341,-3.3718 18.6341,-7.5305 0,-3.5096 -8.3441,-7.5316 -18.6341,-7.5316 -10.2898,0 -18.6341,3.8857 -18.6341,7.5316 0,4.1587 8.3443,7.5305 18.6341,7.5305" /><path
         inkscape:connector-curvature="0"
         id="path4264"
         style="fill:#b4dae3;fill-opacity:1;fill-rule:evenodd;stroke:none"
         d="m 297.377,138.941 c 9.7138,0 17.5904,-3.1419 17.5904,-7.0169 0,-3.3335 -7.8766,-7.0171 -17.5904,-7.0171 -9.7129,0 -17.5907,3.5702 -17.5907,7.0171 0,3.875 7.8778,7.0169 17.5907,7.0169" /><path
         inkscape:connector-curvature="0"
         id="path4266"
         style="fill:#bfdce4;fill-opacity:1;fill-rule:evenodd;stroke:none"
         d="m 297.3614,137.937 c 9.1378,0 16.5473,-2.9112 16.5473,-6.5036 0,-3.1575 -7.4095,-6.5023 -16.5473,-6.5023 -9.1375,0 -16.5469,3.2536 -16.5469,6.5023 0,3.5924 7.4094,6.5036 16.5469,6.5036" /><path
         inkscape:connector-curvature="0"
         id="path4268"
         style="fill:#c8dfe4;fill-opacity:1;fill-rule:evenodd;stroke:none"
         d="m 297.3461,136.9329 c 8.5606,0 15.5027,-2.6824 15.5027,-5.989 0,-2.9823 -6.9421,-5.9899 -15.5027,-5.9899 -8.5615,0 -15.5035,2.9393 -15.5035,5.9899 0,3.3066 6.942,5.989 15.5035,5.989" /><path
         inkscape:connector-curvature="0"
         id="path4270"
         style="fill:#d4e3e7;fill-opacity:1;fill-rule:evenodd;stroke:none"
         d="m 297.3297,135.9278 c 7.9846,0 14.4601,-2.4506 14.4601,-5.4743 0,-2.8066 -6.4755,-5.4754 -14.4601,-5.4754 -7.9844,0 -14.4601,2.6229 -14.4601,5.4754 0,3.0237 6.4757,5.4743 14.4601,5.4743" /><path
         inkscape:connector-curvature="0"
         id="path4272"
         style="fill:#dde5e6;fill-opacity:1;fill-rule:evenodd;stroke:none"
         d="m 297.3135,134.9237 c 7.4084,0 13.4164,-2.2206 13.4164,-4.9606 0,-2.6305 -6.008,-4.9609 -13.4164,-4.9609 -7.4075,0 -13.4158,2.3074 -13.4158,4.9609 0,2.74 6.0083,4.9606 13.4158,4.9606" /><path
         inkscape:connector-curvature="0"
         id="path4274"
         style="fill:#e9e9e9;fill-opacity:1;fill-rule:evenodd;stroke:none"
         d="m 297.2971,133.9197 c 6.8332,0 12.3729,-1.9908 12.3729,-4.4473 0,-2.4553 -5.5397,-4.4461 -12.3729,-4.4461 -6.8315,0 -12.3713,1.9908 -12.3713,4.4461 0,2.4565 5.5398,4.4473 12.3713,4.4473" /><path
         inkscape:connector-curvature="0"
         id="path4276"
         style="fill:#ed1b29;fill-opacity:1;fill-rule:evenodd;stroke:none"
         d="m 362.9557,143.6102 c 2.6138,1.8179 0.3895,5.0301 -2.5623,3.5884 -41.1644,-20.0968 -82.2305,-20.2708 -124.0231,-0.299 -6.6486,3.1787 -5.959,-1.9273 -3.2198,-3.7143 47.0446,-30.708 89.7726,-27.4226 129.8052,0.4249" /><path
         inkscape:connector-curvature="0"
         id="path4278"
         style="fill:#323696;fill-opacity:1;fill-rule:evenodd;stroke:none"
         d="m 204.7547,176.3416 c 0.6142,6.853 0.2494,9.068 0.1919,9.409 -0.0576,0.1174 -0.0386,0.2421 -0.0193,0.3785 0.0576,0.534 0.4992,0.9657 1.0176,0.9657 0.0383,0 0.0769,0.0151 0.2112,0.0341 0.8833,0.1323 3.3985,0.4994 7.3732,0.6851 2.6688,0.129 5.8368,0.0227 8.7361,-0.5528 2.4001,-0.4694 4.6466,-1.2571 6.4514,-2.484 2.0353,-1.3819 3.8018,-3.1425 5.0116,-5.5318 1.2286,-2.3814 1.9007,-5.3611 1.7278,-9.1857 -0.0193,-0.2687 -0.0193,-0.5337 -0.0576,-0.7951 0.4034,1.0831 0.8065,2.1393 1.2288,3.1618 1.1906,2.8624 2.528,5.4833 4.0516,7.8375 1.529,2.3632 3.187,4.4603 5.0111,6.3045 0.2112,0.2007 0.4799,0.3028 0.7106,0.3028 0,0 0,0 0,0.004 2.323,0 4.6466,0 6.9696,0 0.3265,0 0.576,-0.1551 0.7682,-0.3938 1.6129,-1.9536 3.0645,-4.1272 4.3585,-6.5086 1.2983,-2.3893 2.4576,-4.9941 3.4367,-7.8225 0.7489,-2.143 1.4199,-4.4147 1.9778,-6.8193 0.5558,-2.3964 1.0176,-4.9337 1.4017,-7.5954 0.0575,4.6953 0.1154,9.3906 0.2112,14.0853 0.0958,4.6953 0.2687,9.3901 0.4223,14.0851 0,0 0,0 0,0 0.0386,0.5338 0.4802,0.9655 0.9984,0.9655 1.997,0 3.9937,0 6.01,0 0.1919,0.008 0.4224,-0.053 0.6143,-0.1967 2.8417,-2.2644 5.5105,-4.7784 8.0067,-7.4934 1.9007,-2.0444 3.6672,-4.2103 5.3569,-6.4707 0,2.196 0.0386,4.3997 0.0576,6.5957 0.0193,2.196 0.0575,4.3996 0.0768,6.5996 0.0193,0.5338 0.4224,0.9692 0.9601,0.9692 2.3808,0 4.7809,0 7.2003,0 0.4989,0 0.9405,-0.4354 0.9215,-0.9692 0,-2.2226 -0.0193,-4.449 -0.0193,-6.6679 0,-2.2184 0,-4.4414 0,-6.66 0.7872,4.3656 2.9849,8.1915 6.0291,10.9425 3.0231,2.7318 6.9315,4.396 11.194,4.396 4.8577,0 9.2931,-2.1206 12.5569,-5.5468 1.3056,-1.3558 2.4273,-2.9155 3.3026,-4.631 0.8717,-1.7076 1.5168,-3.5782 1.8817,-5.5471 -0.0576,2.2833 -0.1058,4.5709 -0.1727,6.8536 -0.0671,2.2833 -0.1536,4.5737 -0.2307,6.8607 0,0 0,0 0.0196,0 -0.0196,0.5338 0.3838,0.9655 0.9022,0.9655 1.9967,0 3.9938,0 5.9905,0 0.2304,0.008 0.4416,-0.053 0.6338,-0.1967 3.0144,-2.2644 5.8751,-4.7784 8.5442,-7.4934 1.9967,-2.0444 3.8786,-4.2103 5.6642,-6.4707 -0.0768,2.196 -0.1729,4.3997 -0.288,6.5957 -0.1151,2.196 -0.2305,4.3996 -0.3456,6.5996 -0.0385,0.5338 0.3649,0.9692 0.8833,0.9692 2.3808,0 4.7809,0 7.1807,0 0.5378,0 0.9794,-0.4354 1.0177,-0.9692 0.1536,-2.2793 0.3172,-4.557 0.4419,-6.8343 0.1244,-2.274 0.2302,-4.5513 0.3263,-6.8267 0.1343,1.4916 0.3838,2.8774 0.7103,4.1573 0.6911,2.5103 1.7859,4.6117 3.2066,6.2739 1.4783,1.7189 3.168,3.0064 5.1457,3.8735 1.9392,0.8632 4.1088,1.3026 6.5475,1.3216 2.5534,0.0187 4.8384,-0.3787 6.8544,-1.1739 2.0736,-0.8217 3.8209,-2.0636 5.2611,-3.6918 1.3247,-1.5562 2.4191,-3.2375 3.2063,-5.0204 0.8067,-1.8593 1.3442,-3.8246 1.6129,-5.8692 0.1151,-0.9881 0.1922,-2.0029 0.1729,-3.0175 0,-1.0034 -0.0578,-1.9956 -0.1729,-2.9534 -0.0575,-0.4694 -0.4416,-0.8331 -0.9215,-0.8331 -7.3729,0 -14.7269,0 -22.0998,0 0.5568,-1.9273 1.4015,-3.4908 2.5345,-4.608 1.3632,-1.3022 3.187,-2.033 5.6256,-2.0786 1.1906,-0.0227 2.285,0.178 3.3024,0.5907 0.9986,0.4167 1.9202,1.0488 2.7649,1.8933 0.2115,0.2384 0.557,0.352 0.9025,0.2687 2.3426,-0.5718 4.7041,-1.1395 7.066,-1.7076 0.1533,-0.0266 0.2877,-0.0873 0.4416,-0.1817 0.4224,-0.322 0.4989,-0.9278 0.2112,-1.3518 -1.8241,-2.4801 -3.9937,-4.483 -6.6243,-5.8802 -2.5923,-1.3933 -5.6259,-2.1657 -9.1395,-2.1734 -2.3232,-0.004 -4.3585,0.3371 -6.1633,1.0035 -1.8434,0.6738 -3.4178,1.681 -4.7619,2.9911 -1.92,1.8553 -3.3024,3.9152 -4.205,6.2742 -0.5567,1.4233 -0.9601,2.9532 -1.2095,4.6078 0.0578,-2.0977 0.1151,-4.1993 0.1536,-6.293 0.0383,-2.0936 0.0576,-4.1913 0.0576,-6.2852 0,-0.5378 -0.4224,-0.9692 -0.9601,-0.9692 -2.1886,0 -4.3776,0 -6.5665,0 0,0 0,0 0,0.004 -0.4031,0 -0.7872,0.2574 -0.9215,0.6625 -0.7489,2.2492 -1.6591,4.3999 -2.6691,6.4632 -1.006,2.056 -2.1504,4.0286 -3.4175,5.9029 -2.1121,3.1351 -4.5504,6.0015 -7.3156,8.5949 0.0961,-3.4452 0.1729,-6.8913 0.2304,-10.3328 0.0576,-3.4418 0.0961,-6.8834 0.0961,-10.3252 0,-0.5378 -0.4416,-0.9692 -0.9793,-0.9692 -2.4577,0 -4.896,0 -7.3347,0 -0.5374,0 -0.9791,0.4314 -0.9791,0.9692 0,2.2527 -0.0195,4.5056 -0.0382,6.7586 -0.019,2.253 -0.0386,4.5057 -0.0771,6.7624 -0.2878,-1.965 -0.864,-3.8319 -1.6895,-5.5395 -0.8254,-1.7076 -1.8816,-3.2675 -3.1683,-4.6193 -3.2448,-3.4266 -7.6992,-5.5469 -12.653,-5.5469 -4.9538,0 -9.4467,2.1203 -12.6915,5.5469 -1.2481,1.3101 -2.3043,2.8133 -3.1298,4.4566 -0.8254,1.6429 -1.44,3.4381 -1.7665,5.3274 0,-2.1923 0,-4.3883 0,-6.5769 0,-2.1884 0,-4.3807 -0.019,-6.5693 0,-0.5378 -0.4417,-0.9692 -0.9601,-0.9692 -2.1889,0 -4.3778,0 -6.5668,0 0,0 0,0 0,0.004 -0.403,0 -0.7871,0.2574 -0.9215,0.6625 -0.7296,2.2492 -1.6208,4.3999 -2.592,6.4632 -0.9677,2.0563 -2.0545,4.0286 -3.2834,5.9029 -1.9967,3.1351 -4.3392,6.0015 -7.0081,8.5949 -0.0578,-3.4452 -0.0963,-6.891 -0.1346,-10.3328 -0.0383,-3.4416 -0.0576,-6.8834 -0.0765,-10.3252 0,-0.5378 -0.4224,-0.9692 -0.9601,-0.9692 -2.4577,0 -4.896,0 -7.3347,0 -0.2497,0 -0.4799,0.0947 -0.6528,0.2461 -0.1536,-0.1324 -0.3266,-0.2197 -0.5377,-0.2387 -0.0383,-0.004 -0.0769,-0.004 -0.1151,-0.004 -2.573,0 -5.146,0 -7.7188,0 -0.4991,0 -0.9215,0.3937 -0.9598,0.8935 0,0 0,0 0,0 -0.0961,1.2988 -0.2114,2.537 -0.3455,3.7182 -0.1154,0.9428 -0.2308,1.8669 -0.3841,2.7791 -4.5315,0 -9.0819,0 -13.6327,0 -0.1533,-0.8861 -0.3072,-1.8136 -0.4413,-2.7791 -0.1729,-1.2229 -0.3073,-2.4647 -0.4034,-3.7182 -0.0383,-0.5111 -0.4609,-0.8972 -0.9601,-0.8972 0,0 0,0 0,0 -2.5152,0 -5.0304,0 -7.5265,0 -0.5375,0 -0.9601,0.4314 -0.9601,0.9692 0,0.053 0.0192,0.106 0.0385,0.155 0.3456,2.7984 0.7872,5.4678 1.3249,8.0122 -1.2673,-2.2604 -2.8803,-3.9796 -4.5504,-5.4032 -1.8051,-1.5032 -4.2242,-2.7487 -6.8933,-3.6121 0,0 0,0 0,0 -0.019,0 -0.019,0 -0.019,0 -2.6113,-0.8558 -5.5106,-1.3442 -8.333,-1.3442 -5.5491,0 -9.0629,0.8027 -9.0629,0.8064 0,0 0,0 0,0 -0.4607,0.11 -0.8062,0.5454 -0.768,1.0338 0,0.008 0.288,2.5937 0.3839,7.4665 0,0 0,0 0.0195,0 0.0766,2.1812 0.1916,4.2332 0.307,6.5126 0.0576,1.3442 0.1539,2.7728 0.2497,4.4376 0.0961,1.6671 0.2688,3.5819 0.4417,5.8955 z m 166.1808,-3.2034 c 4.7809,0 9.5425,0 14.3237,0 -0.3265,1.8249 -1.133,3.2904 -2.2081,4.3466 -1.344,1.2989 -3.1298,1.9993 -5.069,2.0106 -1.8433,0.007 -3.6096,-0.8668 -4.9152,-2.23 -1.0945,-1.1285 -1.8627,-2.5747 -2.1314,-4.1272 z m -51.0542,3.2374 c -1.6705,1.84 -3.9172,2.9758 -6.3939,2.9758 0,-0.004 0,-0.004 0,-0.004 -2.4576,0 -4.7041,-1.1358 -6.298,-2.9721 -1.6512,-1.8706 -2.6685,-4.4566 -2.6495,-7.319 0,0 0,0 0,0 0,-2.8435 1.0369,-5.4182 2.6881,-7.2774 1.6511,-1.859 3.9362,-3.0138 6.4513,-3.0138 0,-0.004 0,-0.004 0,-0.004 2.477,0 4.7427,1.1361 6.3746,2.9761 1.6512,1.8666 2.6691,4.453 2.6305,7.3191 -0.0575,2.8661 -1.1137,5.4524 -2.8031,7.319 z m -66.1077,-9.462 c -0.5952,2.052 -1.2673,4.0133 -2.0545,5.8799 -0.7104,1.7606 -1.5358,3.4381 -2.4384,5.036 -1.0369,-1.5979 -1.997,-3.2791 -2.8417,-5.0474 -0.9218,-1.8742 -1.728,-3.8315 -2.4387,-5.8685 3.2451,0 6.5092,0 9.7733,0 z m -37.6523,12.4645 c -0.845,0 -1.5361,-0.0114 -2.0163,-0.0227 -0.2684,-3.4455 -0.5278,-6.8907 -0.691,-10.3368 -0.163,-3.445 -0.3073,-6.891 -0.3841,-10.3366 1.4017,-0.1176 4.4932,-0.1286 7.8723,1.4123 1.7859,0.8141 3.0144,2.0296 3.8594,3.3244 1.2478,1.9197 1.6512,4.0133 1.6895,5.2515 0.0385,1.0868 0.096,2.416 -0.192,3.7562 -0.2687,1.3139 -0.864,2.7034 -2.0928,4.0059 -1.2481,1.3102 -2.8224,2.0446 -4.2817,2.4534 -1.4975,0.4167 -2.8993,0.4924 -3.7633,0.4924" /><path
         inkscape:connector-curvature="0"
         id="path4280"
         style="fill:#ffffff;fill-opacity:1;fill-rule:evenodd;stroke:none"
         d="m 203.9562,187.3956 c 0,0 0.7789,-2.1149 0.7789,-9.7937 0,-7.6788 -0.1105,-11.9642 -0.1105,-16.8608 0,-4.8971 -0.279,-7.5679 -0.279,-7.5679 0,0 3.3951,-0.779 8.8473,-0.779 5.4541,0 11.241,1.8916 14.5802,4.7299 3.3384,2.8381 6.3428,6.9007 6.3428,14.1897 0,7.2893 -3.1158,11.2961 -7.2331,13.911 -4.1185,2.6161 -10.4063,3.1161 -15.2479,2.8939 -4.8404,-0.2231 -7.5112,-0.7231 -7.6787,-0.7231 z m 189.4189,-27.4334 -7.067,1.7246 c -1.9112,-1.891 -4.1933,-2.8307 -6.8449,-2.7817 -5.4598,0.1001 -8.1731,3.3183 -9.1819,8.6253 l 23.3727,0 c 0.3337,1.8918 0.4434,3.8951 0.3328,5.7869 -0.2231,3.8211 -1.3966,7.3381 -3.7837,10.3496 -2.3629,2.9815 -6.1024,4.5451 -11.1285,4.5077 -4.7194,-0.0358 -8.5768,-1.6532 -11.6305,-4.8975 -2.8698,-3.0478 -4.5876,-7.6957 -4.5077,-13.7435 0.0768,-5.7455 1.5387,-10.0233 5.1194,-13.5224 2.4928,-2.4361 5.8436,-3.7372 10.239,-3.7278 6.7062,0.0136 11.49,2.9307 15.0803,7.6788 z m -6.2881,13.4657 -16.6385,0 c 0.2974,4.3597 4.3974,8.3114 8.6261,8.2913 4.377,-0.0201 7.8106,-3.0421 8.0124,-8.2913 z m -73.3708,8.1499 c 5.5743,0 10.0947,-5.0463 10.0947,-11.2689 0,-6.2226 -4.5204,-11.2691 -10.0947,-11.2691 -5.5724,0 -10.0936,5.0465 -10.0936,11.2691 0,6.2226 4.5212,11.2689 10.0936,11.2689 z m 0,6.6373 c 9.354,0 16.9387,-8.0184 16.9387,-17.9062 0,-9.8878 -7.5847,-17.9062 -16.9387,-17.9062 -9.3521,0 -16.9376,8.0184 -16.9376,17.9062 0,9.8878 7.5855,17.9062 16.9376,17.9062 z m 18.6236,-34.5966 7.3449,0 0,22.8708 c 6.919,-6.0659 11.9086,-13.6899 14.9689,-22.8708 l 6.5659,0 0,33.5549 -7.3449,0 0,-16.1904 c -4.2684,6.1495 -9.4388,11.6731 -15.3584,16.1904 l -6.1764,0 0,-33.5549 z m -66.0606,0 7.3452,0 0,22.8708 c 6.9188,-6.0659 11.9095,-13.6899 14.9697,-22.8708 l 6.5659,0 0,33.5549 -7.346,0 0,-16.1904 c -4.2681,6.1495 -9.4388,11.6731 -15.3572,16.1904 l -6.1776,0 0,-33.5549 z m -20.9778,33.5549 7.1227,0 c 6.9162,-7.6519 11.1498,-18.7813 12.5762,-33.5549 l -7.7355,0 c -0.201,2.5659 -0.5145,5.0329 -0.9397,7.4007 l -15.27,0 c -0.424,-2.3641 -0.7347,-4.8308 -0.9289,-7.4007 l -7.5123,0 c 1.7464,15.0562 5.8966,26.3636 12.6875,33.5549 z m 9.5984,-19.9778 c -1.4609,5.1032 -3.5288,9.6659 -6.2044,13.6897 -2.6584,-4.0394 -4.7376,-8.5933 -6.2071,-13.6897 l 12.4115,0 z m -42.8745,14.3572 c 0,0 1.1676,0.0559 3.0047,0.0559 1.8368,0 6.0658,-0.334 9.0144,-3.2278 2.9489,-2.8939 3.0048,-6.1765 3.0048,-8.4586 0,-2.2814 -1.0012,-7.2335 -5.8428,-9.459 -4.8407,-2.2266 -9.2367,-1.3918 -9.2367,-1.3918 l 0.0556,22.4813 z" /></g></g></svg>