<?xml version="1.0" encoding="UTF-8" standalone="no"?>
<!-- Created with Inkscape (http://www.inkscape.org/) -->
<svg
   xmlns:dc="http://purl.org/dc/elements/1.1/"
   xmlns:cc="http://web.resource.org/cc/"
   xmlns:rdf="http://www.w3.org/1999/02/22-rdf-syntax-ns#"
   xmlns:svg="http://www.w3.org/2000/svg"
   xmlns="http://www.w3.org/2000/svg"
   xmlns:xlink="http://www.w3.org/1999/xlink"
   xmlns:sodipodi="http://sodipodi.sourceforge.net/DTD/sodipodi-0.dtd"
   xmlns:inkscape="http://www.inkscape.org/namespaces/inkscape"
   width="401"
   height="312"
   id="svg2"
   sodipodi:version="0.32"
   inkscape:version="0.45.1"
   version="1.0"
   inkscape:output_extension="org.inkscape.output.svg.inkscape">
  <g
     inkscape:label="Layer 1"
     inkscape:groupmode="layer"
     id="layer1"
     transform="translate(-230.70818,-658.92924)">
    <path
       id="path2194"
       d="M 123.25,171.86693 L 123.25,171.86693"
       style="fill:#ffffff;fill-rule:nonzero;stroke:none" />
    <g
       id="g2547">
      <path
         style="fill:#01805c;fill-rule:nonzero;stroke:none"
         d="M 431.10723,970.92924 L 431.30638,970.92924 C 438.92099,961.44373 449.47559,955.2336 474.15364,949.45845 C 495.18423,944.53227 516.64455,940.06202 521.57072,909.63501 C 547.52225,919.92758 596.28093,914.11574 618.20766,866.24796 C 654.0063,788.06323 612.82031,711.67603 562.28506,690.43058 C 544.78141,683.07799 512.40489,672.09367 470.12885,686.18568 C 462.07927,681.71019 455.14593,681.49009 447.53656,682.83169 C 447.98201,673.43526 435.45694,662.4719 431.2068,658.92924 C 426.95667,662.4719 414.4316,673.43526 414.88229,682.83169 C 407.27292,681.49009 400.33958,681.71019 392.29,686.18568 C 350.01396,672.09367 317.6322,683.07799 300.12855,690.43058 C 249.59854,711.67603 208.40731,788.06323 244.21119,866.24796 C 266.13268,914.11574 314.89136,919.92758 340.84288,909.63501 C 345.76906,940.06202 367.23462,944.53227 388.25997,949.45845 C 412.93802,955.2336 423.49262,961.44373 431.10723,970.92924 L 431.30638,970.92924 L 431.10723,970.92924"
         id="path2475" />
      <path
         style="fill:#f8f400;fill-rule:nonzero;stroke:none"
         d="M 431.11771,714.91473 C 481.53243,679.28379 532.30874,687.67401 555.01633,697.07044 C 613.40202,721.20871 642.0315,803.08807 610.39915,863.44423 C 584.13318,913.54975 536.56412,909.11095 517.98614,902.07281 C 513.29579,931.03768 493.28189,937.35787 469.87206,942.02725 C 446.23689,946.73857 438.37072,949.32743 431.11771,958.35701 C 423.85946,949.32743 415.9933,946.73857 392.35813,942.02725 C 368.9483,937.35787 348.93439,931.03768 344.24404,902.07281 C 325.66082,909.11095 278.097,913.54975 251.83628,863.44423 C 220.20393,803.08807 248.82293,721.20871 307.20862,697.07044 C 329.92144,687.67401 380.69776,679.28379 431.11771,714.91473"
         id="path2477" />
      <path
         style="fill:#df033f;fill-rule:nonzero;stroke:none"
         d="M 431.2068,737.40745 L 431.02338,737.40745 C 491.94029,692.36436 573.08073,694.52874 602.65876,759.69578 C 619.21386,796.15474 614.89559,847.36603 583.12175,869.93212 C 563.06067,884.17087 549.08395,888.09085 515.13001,880.37142 C 513.41109,908.40871 500.1995,915.39969 468.30512,920.14769 C 454.46465,922.20201 442.38504,922.87281 431.12819,934.29735 L 431.09675,934.29735 L 431.12819,934.29735 L 431.09675,934.29735 C 419.83991,922.87281 407.76553,922.20201 393.92507,920.14769 C 362.03069,915.39969 348.8191,908.40871 347.10018,880.37142 C 313.14623,888.09085 299.16427,884.17087 279.10844,869.93212 C 247.33983,847.36603 243.01633,796.15474 259.56619,759.69578 C 289.1547,694.52874 370.28466,692.36436 431.2068,737.40745 L 431.02338,737.40745 L 431.2068,737.40745"
         id="path2479" />
      <path
         style="fill:#ffffff;fill-rule:nonzero;stroke:#ffffff;stroke-width:0.4244898;stroke-linecap:butt;stroke-linejoin:miter;stroke-miterlimit:4"
         d="M 405.72693,865.37802 C 405.81078,865.03738 406.06233,863.97354 406.06233,863.50712 C 406.06233,863.08263 405.85271,862.61622 405.2972,862.61622 C 404.83079,862.61622 404.15475,863.08263 403.13283,863.72199 L 401.94321,864.48712 L 401.6445,863.6329 L 402.83412,862.78392 C 406.95848,859.85441 407.89131,859.64479 408.44157,859.64479 C 409.50542,859.64479 409.63119,860.78724 409.2067,862.78392 L 406.78554,874.29755 C 406.61784,875.06268 406.48682,875.78588 406.48682,876.55101 C 406.48682,876.9755 406.57591,877.60962 407.04233,877.60962 C 407.55067,877.60962 408.27387,877.35283 408.86606,876.92834 C 411.37108,875.14653 414.85609,871.06933 416.04571,867.88304 C 416.81084,865.84444 417.27725,863.93161 417.57596,862.53237 L 418.00045,860.36799 L 420.88803,859.64479 L 421.18675,860.02735 C 419.87135,865.03738 418.29917,871.87638 417.61789,875.18845 C 417.49211,875.82781 417.3611,876.37807 417.3611,876.88641 C 417.3611,877.35283 417.61789,877.60962 417.9166,877.60962 C 418.42494,877.60962 419.53071,877.10128 420.50547,876.46192 L 421.61124,875.74396 L 422.03573,876.50909 C 420.37969,877.73539 418.93328,878.79924 417.40827,879.69014 C 416.76891,880.07271 415.91993,880.4972 415.28058,880.4972 C 414.38967,880.4972 413.96518,879.86308 413.96518,878.79924 C 413.96518,877.78256 414.30582,876.50909 414.51545,875.57102 L 415.87801,870.51906 L 415.70507,870.4719 C 414.47352,872.55766 412.90134,874.33947 411.28723,876.12652 C 409.80413,877.73539 406.82746,880.58629 404.57924,880.58629 C 404.0709,880.58629 403.13283,880.03078 403.13283,879.0141 C 403.13283,878.2909 403.17476,877.52577 403.30053,876.84449 L 405.72693,865.37802 z "
         stroke-miterlimit="4"
         id="path2481" />
      <path
         style="fill:#ffffff;fill-rule:nonzero;stroke:#ffffff;stroke-width:0.4244898;stroke-linecap:butt;stroke-linejoin:miter;stroke-miterlimit:4"
         d="M 437.03437,876.16845 C 436.95052,876.55101 436.90859,877.60962 437.6318,877.60962 C 438.60655,877.60962 439.62847,876.59294 440.81809,875.61294 L 441.11157,876.50909 C 437.84142,879.26565 435.80282,880.4972 434.99577,880.4972 C 434.14679,880.4972 433.89524,879.86308 433.89524,879.09795 C 433.89524,878.33282 433.97909,877.60962 434.14679,876.84449 L 435.29448,871.74537 L 435.16871,871.70868 C 432.87332,875.06268 430.27922,877.82448 428.79612,878.92501 C 426.92522,880.28757 426.07624,880.58629 425.48405,880.58629 C 424.20534,880.58629 424.03764,877.82448 424.03764,877.01219 C 424.03764,872.8983 426.7156,864.1884 429.22061,862.40135 C 432.4069,860.1112 433.5546,859.64479 435.67705,859.64479 C 436.90859,859.64479 438.01436,860.02735 439.11489,860.45184 L 440.51938,859.68671 L 440.94387,860.06928 L 437.03437,876.16845 z M 429.38831,865.76059 C 428.41356,868.34945 427.09816,872.81445 427.09816,875.61294 C 427.09816,877.05935 427.26586,877.60962 427.90522,877.60962 C 429.43024,877.60962 432.02434,874.59626 433.46551,872.64151 C 434.99577,870.60291 436.35833,868.22368 437.41693,862.53237 C 435.97576,862.02403 434.91192,861.72007 433.84807,861.72007 C 431.13344,861.72007 430.36831,863.20841 429.38831,865.76059 z "
         stroke-miterlimit="4"
         id="path2483" />
      <path
         style="fill:#ffffff;fill-rule:nonzero;stroke:#ffffff;stroke-width:0.4244898;stroke-linecap:butt;stroke-linejoin:miter;stroke-miterlimit:4"
         d="M 447.91388,875.18845 C 447.78287,875.82781 447.61517,876.37807 447.61517,876.88641 C 447.61517,877.35283 447.86672,877.73539 448.16543,877.73539 C 448.67901,877.73539 449.77954,877.10128 450.75954,876.46192 L 451.86007,875.74396 L 452.28456,876.50909 C 450.62852,877.73539 449.18735,878.79924 447.65709,879.69014 C 447.01774,880.07271 446.16876,880.4972 445.53464,880.4972 C 444.6385,880.4972 444.21401,879.86308 444.21401,878.79924 C 444.21401,877.78256 444.4708,876.50909 445.61849,872.30087 C 446.6771,868.34945 448.97249,856.07593 449.22928,853.69669 C 449.2712,853.2722 449.35505,852.88964 449.35505,852.63285 C 449.35505,851.78387 448.67901,851.65809 447.91388,851.65809 L 445.87004,851.65809 L 446.04298,850.76195 C 447.10683,850.6781 448.29645,850.5104 449.48607,850.25361 C 450.67045,849.96013 451.73429,849.53564 452.84006,848.98014 L 453.3484,849.44655 L 447.91388,875.18845 z "
         stroke-miterlimit="4"
         id="path2485" />
      <path
         style="fill:#ffffff;fill-rule:nonzero;stroke:#ffffff;stroke-width:0.4244898;stroke-linecap:butt;stroke-linejoin:miter;stroke-miterlimit:4"
         d="M 459.45896,875.18845 C 459.29126,875.82781 459.16548,876.37807 459.16548,876.88641 C 459.16548,877.35283 459.42227,877.73539 459.71575,877.73539 C 460.22933,877.73539 461.32986,877.10128 462.30985,876.46192 L 463.41562,875.74396 L 463.84011,876.50909 C 462.18408,877.73539 460.73767,878.79924 459.20741,879.69014 C 458.57329,880.07271 457.71907,880.4972 457.08496,880.4972 C 456.19406,880.4972 455.76957,879.86308 455.76957,878.79924 C 455.76957,877.78256 456.06304,876.50909 456.31983,875.57102 L 459.12356,865.37802 C 459.29126,864.69674 459.45896,863.88969 459.45896,863.50712 C 459.45896,863.08263 459.24933,862.53237 458.69907,862.53237 C 458.23265,862.53237 457.55137,863.08263 456.52945,863.72199 L 455.33984,864.48712 L 455.04636,863.6329 L 456.23598,862.78392 C 460.3551,859.85441 461.28793,859.64479 461.84344,859.64479 C 463.03306,859.64479 463.20076,860.40992 462.73434,862.27558 L 459.45896,875.18845 z M 460.82152,852.63285 C 460.82152,851.35938 461.96921,849.87628 463.28461,849.87628 C 464.13359,849.87628 464.81487,850.59425 464.81487,851.48515 C 464.81487,853.18835 463.8768,854.46182 462.51948,854.46182 C 461.41371,854.46182 460.82152,853.78054 460.82152,852.63285 z "
         stroke-miterlimit="4"
         id="path2487" />
      <path
         style="fill:#ffffff;fill-rule:nonzero;stroke:#ffffff;stroke-width:0.4244898;stroke-linecap:butt;stroke-linejoin:miter;stroke-miterlimit:4"
         d="M 467.10502,863.54905 L 467.18887,862.99878 C 468.16886,862.74199 469.86682,861.94018 470.93066,861.4266 L 471.98927,854.20503 C 472.88017,853.86439 474.28466,853.2722 475.30134,852.67477 L 475.77299,853.31413 C 474.88209,855.98684 474.36851,858.70672 473.86017,861.68339 C 475.43235,861.68339 476.96261,861.5943 478.5348,861.4266 L 478.06314,863.54905 L 473.51953,863.54905 C 472.67055,867.71009 471.56478,873.2337 471.31323,875.18845 C 471.22938,875.78588 471.14029,876.37807 471.14029,876.88641 C 471.14029,877.35283 471.31323,877.73539 471.73772,877.73539 C 472.28798,877.73539 473.3099,877.1432 474.28466,876.46192 L 476.19748,875.14653 L 476.62197,875.91166 C 474.32658,877.73539 472.79632,879.09795 471.2713,879.86308 C 470.5481,880.20372 469.69912,880.4972 469.05976,880.4972 C 468.16886,880.4972 467.74437,879.86308 467.74437,878.79924 C 467.74437,877.78256 468.12694,876.50909 468.29463,875.57102 L 470.67387,863.54905 L 467.10502,863.54905 z "
         stroke-miterlimit="4"
         id="path2489" />
      <path
         style="fill:#ffffff;fill-rule:nonzero;stroke:#ffffff;stroke-width:0.4244898;stroke-linecap:butt;stroke-linejoin:miter;stroke-miterlimit:4"
         d="M 480.35329,886.31952 L 480.77778,886.48722 C 480.35329,888.65683 481.62676,890.05608 483.32996,890.05608 C 485.57818,890.05608 487.10844,888.14325 488.25614,885.8531 C 489.35667,883.59964 490.16896,880.92693 490.59345,879.43859 L 492.59013,872.55766 L 492.50103,872.46857 C 491.44243,874.08268 490.21089,875.65487 488.89025,877.10128 C 487.78972,878.37475 485.66203,880.58629 484.43049,880.58629 C 483.11509,880.58629 482.51766,879.09795 482.51766,877.99218 C 482.51766,877.3109 482.51766,876.59294 482.56483,875.86973 L 483.28803,865.54572 C 483.37188,864.06263 483.19894,862.70007 482.39189,862.70007 C 482.05125,862.70007 481.66868,862.99878 481.24419,863.25557 L 479.20559,864.48712 L 478.73918,863.72199 L 482.22419,861.34275 C 484.38856,859.85441 484.86022,859.64479 485.41048,859.64479 C 486.25946,859.64479 486.72588,860.49377 486.25946,866.43663 L 485.62011,874.68011 C 485.53626,875.95358 485.74588,877.26898 486.46909,877.26898 C 487.27614,877.26898 489.27282,875.65487 490.93409,873.2337 C 492.24949,871.32612 493.69065,868.30753 494.33001,866.05406 L 495.09514,863.25557 L 495.81834,860.45184 C 496.83502,860.36799 497.98272,860.02735 498.95747,859.64479 L 499.42913,860.02735 L 493.4391,878.71539 C 492.41718,881.81783 491.18564,884.62156 489.14704,887.21042 C 487.36523,889.45865 484.90214,891.83789 481.7997,891.83789 C 479.71918,891.83789 477.93213,890.18185 478.31469,887.76069 L 480.35329,886.31952 z "
         stroke-miterlimit="4"
         id="path2491" />
      <path
         style="fill:#ffffff;fill-rule:nonzero;stroke:none"
         d="M 289.79929,777.95409 L 276.37284,784.04892 C 276.37284,784.04892 276.37284,815.15721 276.37284,818.60553 C 276.37284,823.30637 272.73585,827.21062 270.68677,829.39072 C 270.68677,829.39072 285.26092,829.39072 292.56634,829.39072 C 302.4973,829.39072 312.8318,826.88571 312.8318,809.83275 C 312.8318,809.83275 312.8318,793.51871 312.8318,785.83073 C 312.8318,771.39808 303.7865,764.58004 291.47629,764.77394 C 283.70446,764.90495 276.24182,765.90591 273.43285,766.70773 L 268.83684,780.66348 C 269.49191,780.33332 282.0065,776.82735 287.29952,776.75923 C 288.29524,776.74874 299.35818,774.64202 299.35818,786.39672 C 299.35818,786.39672 299.35818,806.57832 299.35818,809.86943 C 299.35818,818.50596 293.15853,817.51549 289.78357,817.54169 L 289.79929,777.95933 L 289.79929,777.95409"
         id="path2493" />
      <path
         style="fill:#ffffff;fill-rule:nonzero;stroke:none"
         d="M 331.79758,796.22287 C 331.79758,799.18906 331.79758,805.29961 331.79758,805.29961 C 334.72709,802.77888 335.66516,801.89321 337.21114,800.19525 C 341.02106,796.02897 336.32023,789.10611 334.78997,787.58634 C 333.14442,785.93554 331.79758,786.59586 331.79758,788.74451 C 331.79758,789.80836 331.79758,793.46631 331.79758,795.83506 L 318.85326,795.83506 C 318.90043,793.25144 319.00524,790.97177 319.20438,789.40483 C 319.47166,787.28762 319.90139,785.49533 324.33495,782.96411 C 325.79708,782.13086 330.69181,779.47386 335.23543,777.43526 C 336.78665,776.73302 341.94865,774.1756 346.02585,780.03985 C 347.63472,782.36668 347.90199,782.68636 349.75717,786.06132 C 352.91726,791.81027 349.44797,796.10233 347.63996,798.01516 C 343.7357,802.15524 337.44172,807.80987 332.21683,811.38921 C 332.21683,816.05335 336.12109,817.21677 338.10728,817.97666 C 341.13636,819.13484 342.1478,819.465 348.23739,820.92189 L 341.07347,831.749 C 329.0777,828.15393 327.3221,826.62892 324.76468,825.14582 C 321.65175,823.33781 319.76513,820.72274 319.28823,815.83849 C 319.08909,813.83133 318.70653,803.50208 318.85326,795.83506 L 331.79758,795.83506 C 331.79758,795.96608 331.79758,796.10233 331.79758,796.22287"
         id="path2495" />
      <path
         style="fill:#ffffff;fill-rule:nonzero;stroke:none"
         d="M 368.87493,764.06646 L 355.2965,770.28707 C 355.2965,770.28707 355.2965,810.34108 355.2965,814.83229 C 355.2965,821.0529 356.73767,824.32829 360.47947,827.08485 C 363.71817,829.46409 368.72295,831.81188 368.72295,831.81188 L 375.80302,821.15247 C 372.22368,819.19772 368.87493,818.0081 368.87493,812.1491 C 368.87493,808.62216 368.87493,764.06646 368.87493,764.06646"
         id="path2497" />
      <path
         style="fill:#ffffff;fill-rule:nonzero;stroke:none"
         d="M 412.62358,829.35928 L 426.55838,829.35928 L 426.55838,778.54627 C 426.55838,778.54627 427.97334,777.6082 429.08435,776.98981 C 430.73515,776.06222 433.53888,776.71206 433.53888,779.91932 C 433.53888,779.91932 433.53888,813.49069 433.53888,817.17485 C 433.53888,822.5884 435.55651,824.60604 437.16014,826.21491 C 437.79426,826.85426 439.61275,828.30591 439.84858,828.46837 C 440.93863,829.22302 442.73092,830.74804 444.89529,831.78568 L 453.67856,821.67653 C 451.03205,820.12531 447.46843,819.09815 447.46843,813.16578 C 447.46843,813.16578 447.50512,779.91408 447.47367,776.0727 C 447.45271,772.6139 447.42127,772.38331 445.26737,770.03028 C 443.86289,768.49478 441.98675,767.20034 440.10537,766.06313 C 436.82474,764.07694 434.04198,764.37565 430.20585,766.25703 C 428.2511,767.22131 425.7094,768.5105 424.01668,769.3752 C 422.46022,768.04932 420.87231,767.08505 418.95425,765.93211 C 417.32966,764.95212 414.46828,763.69961 409.74649,766.42997 C 406.93228,768.04932 405.53827,768.88258 403.29005,770.17177 C 399.35435,767.22131 396.7288,766.07885 394.8841,765.43426 L 383.86309,774.46908 C 383.86309,774.46908 385.93313,775.48052 388.06606,776.55484 C 391.73973,778.41002 391.71353,777.98029 391.71353,782.72304 C 391.71353,786.24998 391.71353,829.35404 391.71353,829.35404 L 405.65357,829.35404 L 405.64308,778.52007 C 406.02565,778.279 407.49302,777.33569 408.26339,776.92168 C 409.67836,776.15131 412.6131,776.60725 412.6131,779.83547 L 412.6131,829.35928 L 412.62358,829.35928"
         id="path2499" />
      <path
         style="fill:#ffffff;fill-rule:nonzero;stroke:none"
         d="M 469.27987,803.98946 C 469.27987,797.42297 469.27987,790.22761 469.27987,789.40483 C 469.27987,788.20473 469.99259,787.64922 470.61623,787.29286 C 472.29846,786.33383 472.66531,786.9627 474.09075,788.22045 C 475.08123,789.09563 475.62101,789.76119 475.62101,791.28621 C 475.62101,793.6078 475.62101,817.46832 475.62101,817.46832 C 475.62101,819.04051 474.83492,820.5498 472.83301,819.10863 C 471.44948,818.11292 471.3866,818.1234 470.57954,817.31634 C 469.78297,816.51453 469.27987,816.33111 469.27987,814.72224 C 469.27987,814.72224 469.27987,809.62312 469.27987,803.98946 L 455.71716,803.9947 C 455.71716,811.42065 455.71716,817.21677 455.71716,817.21677 C 455.71716,819.96809 456.40892,822.58316 460.1874,825.33448 C 462.226,826.81234 462.86536,827.38356 467.17314,829.66847 C 471.2189,831.81188 473.72391,830.56462 477.49715,828.54174 C 480.07554,827.16346 483.19894,825.09342 485.21658,823.50551 C 487.23422,821.92284 489.24661,820.30349 489.24661,815.49785 C 489.24661,815.49785 489.24661,796.8465 489.24661,790.01798 C 489.24661,785.58966 489.25185,783.83406 486.55294,781.58059 C 484.78161,780.10274 483.03124,778.87119 480.71489,777.39858 C 477.68058,775.47003 475.53192,775.26565 470.46425,777.55056 C 468.0064,778.65109 465.04545,779.99268 461.57093,781.79546 C 457.40464,783.95983 455.71716,785.9565 455.71716,789.48868 C 455.71716,791.14471 455.7224,797.23955 455.7224,803.99994 L 469.27987,803.98946"
         id="path2501" />
      <path
         style="fill:#ffffff;fill-rule:nonzero;stroke:none"
         d="M 578.72487,795.77742 C 578.72487,798.7436 578.72487,804.84892 578.72487,804.84892 C 581.65961,802.33343 582.59768,801.44776 584.14367,799.7498 C 587.95359,795.57827 583.25276,788.66066 581.73298,787.14088 C 580.07695,785.49009 578.72487,786.14517 578.72487,788.29382 C 578.72487,789.35766 578.72487,793.02085 578.72487,795.37913 L 565.78579,795.37913 C 565.82772,792.80599 565.93777,790.52632 566.13691,788.96462 C 566.40418,786.84217 566.82867,785.04988 571.26748,782.51866 C 572.73485,781.68016 577.62434,779.02841 582.16271,776.98981 C 583.71918,776.28757 588.87594,773.73015 592.95314,779.58916 C 594.57249,781.91599 594.83976,782.23567 596.6897,785.61586 C 599.84979,791.36482 596.3805,795.65164 594.57249,797.56971 C 590.66299,801.70455 584.37425,807.36442 579.14412,810.94376 C 579.14412,815.6079 583.04838,816.76608 585.03981,817.53121 C 588.06889,818.69462 589.07508,819.01954 595.17516,820.47643 L 588.006,831.30878 C 576.00499,827.71372 574.25463,826.17822 571.69196,824.69513 C 568.58428,822.88712 566.69766,820.27729 566.22076,815.39304 C 566.02162,813.38064 565.63905,803.05663 565.78579,795.37913 L 578.72487,795.37913 C 578.72487,795.51539 578.72487,795.65164 578.72487,795.77742"
         id="path2503" />
      <path
         style="fill:#ffffff;fill-rule:nonzero;stroke:none"
         d="M 510.8065,789.18996 L 510.8065,829.36452 L 497.4901,829.36452 C 497.4901,829.36452 497.4901,796.27527 497.4901,792.74834 C 497.4901,788.17852 496.75117,788.39863 494.27236,786.44388 C 493.90028,786.15565 492.5482,785.26474 492.5482,785.26474 L 503.01371,776.68062 C 504.8584,777.45099 507.27957,779.39001 508.97229,781.05129 C 511.21003,779.7621 512.24243,779.19611 515.8899,777.43526 C 520.36014,775.28661 521.56024,776.30329 523.47307,777.70254 C 525.22867,778.99173 526.57551,780.10798 528.03764,781.69064 C 529.96095,783.77117 530.08672,784.97651 530.08672,787.93746 C 530.08672,791.78407 530.07624,814.08812 530.07624,814.08812 C 530.07624,819.31826 530.98811,819.45451 535.35354,822.02766 L 526.55455,832.19445 C 524.56312,831.00483 523.27392,829.87286 521.91661,828.85618 C 520.95233,828.12773 520.63265,827.88666 518.95042,826.28828 C 516.57118,824.01909 516.63407,821.10007 516.63407,817.50501 C 516.63407,813.82085 516.63407,789.6983 516.63407,789.6983 C 516.63407,787.2981 514.20242,787.00987 512.77173,787.86933 C 511.61356,788.57157 510.8065,789.18996 510.8065,789.18996"
         id="path2505" />
      <path
         style="fill:#ffffff;fill-rule:nonzero;stroke:none"
         d="M 554.03109,788.09992 L 554.03109,812.74129 C 554.03109,817.58361 556.74573,818.77323 562.35319,821.33065 L 555.2574,832.01103 L 548.20353,828.29019 C 543.79617,825.64368 540.45266,822.78754 540.45266,817.09624 L 540.45266,788.09992 L 533.26778,788.09992 L 533.26778,778.16895 L 540.45266,778.16895 L 540.45266,771.72823 L 554.03109,765.27704 L 554.03109,778.16895 L 562.00731,778.16895 L 562.00731,788.09992 L 554.03109,788.09992"
         id="path2507" />
      <path
         style="fill:#f8f400;fill-rule:nonzero;stroke:none"
         d="M 429.1158,707.363 C 417.87468,700.42443 410.10285,696.52017 398.73071,692.03945 C 403.86128,691.07517 409.43729,690.73977 413.27342,691.08565 C 418.55596,691.56255 419.72986,693.26575 421.09242,694.49729 C 425.45261,698.40155 429.1158,707.363 429.1158,707.363"
         id="path2509" />
      <path
         style="fill:#f8f400;fill-rule:nonzero;stroke:none"
         d="M 433.11439,707.363 C 444.35551,700.42443 452.12734,696.52017 463.50471,692.03945 C 458.37415,691.07517 452.78766,690.73977 448.95677,691.08565 C 443.67423,691.56255 442.50033,693.26575 441.12729,694.49729 C 436.77758,698.40155 433.11439,707.363 433.11439,707.363"
         id="path2511" />
      <path
         style="fill:#f8f400;fill-rule:nonzero;stroke:none"
         d="M 431.13344,671.04554 L 431.09151,671.04554 C 431.09151,671.04554 432.34926,672.6911 435.90239,677.24519 C 440.4198,683.03607 438.71136,687.81027 436.1225,692.14426 C 433.39738,696.71932 431.89857,698.81556 431.09151,699.77983 L 431.13868,699.77983 C 430.33162,698.81556 428.82756,696.71932 426.10245,692.14426 C 423.51358,687.81027 421.80514,683.03607 426.32779,677.24519 C 429.88093,672.6911 431.13344,671.04554 431.13344,671.04554 L 431.09151,671.04554 L 431.13344,671.04554"
         id="path2513" />
      <path
         style="fill:#ffffff;fill-rule:nonzero;stroke:#ffffff;stroke-width:0.45069289;stroke-linecap:butt;stroke-linejoin:miter;stroke-miterlimit:4"
         d="M 363.15742,863.48092 C 363.5295,859.99067 364.60907,856.54759 365.98211,853.76482 C 370.87161,843.83909 381.98695,839.56799 392.0961,843.15257 C 400.84268,846.25502 404.33293,856.22791 397.67211,869.53907 C 392.85074,879.18704 380.60867,883.07034 371.69962,879.73731 C 364.32608,876.9755 362.44994,870.14698 363.15742,863.48092 L 367.89494,863.50188 C 367.16125,871.05361 369.54573,876.96502 376.935,878.50052 C 384.58629,880.08319 392.61492,875.73348 395.12517,864.85396 C 397.81361,853.20931 394.98367,845.90914 387.34286,844.45749 C 377.31756,842.56563 371.3485,848.26217 368.87493,858.03592 C 368.46616,859.66575 368.08884,861.479 367.89494,863.50188 L 363.15742,863.48092 z "
         stroke-miterlimit="4"
         id="path2515" />
      <path
         style="fill:#ffffff;fill-rule:nonzero;stroke:#ffffff;stroke-width:0.45069289;stroke-linecap:butt;stroke-linejoin:miter;stroke-miterlimit:4"
         d="M 373.73298,887.28379 C 375.46238,883.5682 378.36568,881.79687 383.03507,883.18039 C 386.51484,884.21803 397.14805,888.18518 398.77788,888.76164 C 404.42726,890.76356 411.80081,892.00034 413.93374,888.21662 C 414.99758,886.33 415.62646,884.7683 415.62646,884.7683 C 416.31298,883.94028 415.69458,881.91216 415.76271,882.32093 C 415.21245,881.49291 414.73031,882.01173 414.58881,882.42574 C 414.79844,885.62776 413.4516,887.52486 406.94276,887.3886 C 404.04994,887.32572 401.25669,886.62347 397.2319,885.04081 C 394.51202,883.97696 392.46818,883.47386 391.81834,883.25376 C 388.72114,882.18467 383.89977,880.8588 381.41572,880.52864 C 375.86591,879.80543 373.92688,884.54295 372.93641,886.21471 C 372.49096,886.9746 373.49191,887.79737 373.73298,887.28379 z "
         stroke-miterlimit="4"
         id="path2517" />
    </g>
  </g>
</svg>
