<?xml version="1.0" encoding="UTF-8" ?>
<!DOCTYPE svg PUBLIC "-//W3C//DTD SVG 1.1//EN" "http://www.w3.org/Graphics/SVG/1.1/DTD/svg11.dtd">
<svg width="2264pt" height="338pt" viewBox="0 0 2264 338" version="1.1" xmlns="http://www.w3.org/2000/svg">
<g id="#ffffffff">
<path fill="#ffffff" opacity="1.00" d=" M 0.00 0.00 L 2264.00 0.00 L 2264.00 338.00 L 683.18 338.00 C 681.92 336.20 680.53 334.27 678.04 334.79 C 453.32 334.80 228.59 334.77 3.87 334.80 C 2.22 334.49 1.02 335.58 0.00 336.71 L 0.00 0.00 M 263.71 40.70 C 245.56 59.87 233.74 84.82 230.15 110.96 C 226.31 138.58 231.66 167.55 245.64 191.72 C 240.49 187.41 234.99 183.54 229.85 179.22 C 193.45 149.02 162.41 112.55 137.16 72.62 C 140.21 69.38 142.05 64.67 140.46 60.30 C 138.80 54.34 132.03 51.22 126.23 52.70 C 122.77 42.70 121.90 31.30 126.39 21.47 C 127.85 18.93 125.75 16.51 124.28 14.59 C 121.91 11.67 119.97 8.37 117.26 5.75 C 115.42 4.47 113.23 5.45 111.58 6.52 C 96.71 15.34 81.91 24.27 67.02 33.06 C 64.95 34.15 62.53 36.35 63.82 38.91 C 65.57 43.22 67.45 47.49 69.55 51.64 C 71.63 55.05 75.98 52.63 79.13 53.20 C 88.38 53.93 95.44 61.00 100.48 68.21 C 96.82 72.00 95.39 78.06 98.27 82.72 C 100.74 87.25 106.28 89.11 111.17 88.12 C 123.23 110.10 137.77 130.67 153.73 149.98 C 178.67 179.85 207.29 206.86 239.73 228.45 C 224.78 230.89 209.86 233.49 194.93 235.99 C 193.01 236.24 190.73 236.95 190.21 239.08 C 189.06 241.85 191.89 243.78 193.46 245.59 C 181.08 247.57 168.68 249.43 156.33 251.59 C 153.64 251.85 151.90 255.12 153.32 257.46 C 155.54 260.38 158.21 262.93 160.67 265.65 C 150.54 267.35 140.45 269.24 130.32 270.94 C 131.59 267.97 133.54 265.21 134.13 261.99 C 134.32 258.87 130.37 256.81 127.86 258.59 C 108.40 268.84 89.01 279.23 69.57 289.53 C 67.59 290.40 65.91 292.61 66.75 294.83 C 67.21 296.68 69.13 297.59 70.89 297.70 C 97.61 299.90 124.34 302.08 151.06 304.31 C 152.66 304.32 154.42 304.85 155.92 304.05 C 158.16 302.98 158.94 299.61 157.10 297.82 C 154.38 295.29 151.17 293.37 148.24 291.10 C 164.25 288.63 180.23 286.07 196.24 283.63 C 198.95 283.59 201.39 280.76 200.24 278.11 C 199.12 276.04 197.09 274.69 195.47 273.04 C 208.36 270.68 221.23 268.18 234.10 265.74 C 237.00 265.62 238.91 262.05 237.24 259.63 C 235.36 257.14 232.92 255.13 230.77 252.89 C 243.66 250.57 256.52 248.11 269.40 245.75 C 270.70 246.38 272.01 247.02 273.32 247.66 C 273.34 249.53 273.42 251.40 273.57 253.27 C 266.74 255.17 259.88 256.99 253.13 259.12 C 250.78 259.77 249.63 262.83 250.99 264.86 C 252.76 267.04 255.13 268.62 257.18 270.51 C 247.26 273.24 237.29 275.77 227.38 278.52 C 224.28 279.03 223.03 283.36 225.47 285.38 C 228.46 287.92 231.73 290.12 234.82 292.54 C 228.52 294.53 222.20 296.48 215.88 298.42 C 216.27 295.47 217.99 292.32 216.63 289.43 C 215.36 287.20 212.36 287.10 210.44 288.54 C 193.94 297.97 177.49 307.49 161.00 316.95 C 158.70 318.32 156.21 319.44 154.17 321.21 C 151.78 323.48 153.64 328.00 156.97 327.92 C 182.96 328.94 208.98 329.71 234.99 330.67 C 236.80 330.63 239.00 331.00 240.35 329.47 C 242.09 327.76 241.72 324.57 239.64 323.32 C 235.96 320.95 232.09 318.88 228.28 316.75 C 244.37 311.68 260.46 306.57 276.51 301.38 C 279.37 300.73 280.65 296.67 278.32 294.71 C 275.81 292.56 272.89 290.96 270.17 289.10 C 279.36 286.20 288.67 283.65 297.83 280.68 C 300.28 279.89 301.18 276.38 299.45 274.49 C 298.01 273.03 296.19 272.04 294.52 270.88 C 297.81 269.93 301.10 268.95 304.39 267.97 C 307.79 271.13 312.58 272.34 317.05 270.99 C 318.50 272.60 320.06 274.10 321.81 275.39 C 321.79 277.00 321.82 278.61 321.88 280.23 C 318.18 281.91 314.84 284.64 313.28 288.49 C 309.72 297.25 306.42 306.13 302.90 314.92 C 302.40 316.55 301.04 318.81 302.89 320.09 C 306.95 324.08 310.05 329.82 316.07 331.07 C 320.89 332.64 325.23 328.94 330.03 329.37 C 335.39 329.57 342.38 327.89 343.75 321.86 C 344.45 315.94 343.99 309.93 344.27 303.98 C 344.20 297.58 345.72 290.33 341.17 285.01 C 344.29 280.82 344.51 275.15 341.75 270.72 C 341.98 269.73 342.22 268.75 342.46 267.77 C 353.62 268.72 364.85 268.44 375.97 267.24 C 376.26 268.40 376.55 269.57 376.85 270.74 C 374.05 275.14 374.33 280.80 377.37 285.01 C 375.32 287.91 373.82 291.33 374.15 294.96 C 374.46 303.79 374.17 312.65 374.79 321.46 C 375.79 327.50 382.70 329.55 388.02 329.36 C 392.86 328.77 397.16 332.41 402.02 331.19 C 408.45 330.10 411.72 323.92 416.00 319.73 C 417.45 318.53 416.15 316.60 415.79 315.21 C 412.27 306.32 408.91 297.37 405.31 288.52 C 403.74 284.60 400.32 281.85 396.58 280.12 C 396.67 279.39 396.86 277.94 396.96 277.21 C 400.13 276.00 402.89 273.93 404.68 271.02 C 405.91 271.18 407.14 271.34 408.38 271.49 C 406.77 272.47 404.95 273.31 403.80 274.86 C 402.34 277.02 403.62 280.35 406.21 280.87 C 415.24 283.69 424.33 286.29 433.36 289.10 C 430.55 291.04 427.48 292.66 424.95 294.97 C 423.06 296.92 424.15 300.58 426.76 301.27 C 442.86 306.53 459.04 311.60 475.18 316.76 C 471.46 318.86 467.70 320.91 464.09 323.19 C 460.62 324.91 462.04 330.92 466.01 330.65 C 492.72 329.93 519.44 328.87 546.15 327.97 C 550.16 328.35 552.17 322.39 548.50 320.49 C 529.96 309.60 511.25 298.96 492.59 288.27 C 490.33 286.56 486.66 288.07 486.39 290.91 C 486.29 293.47 487.21 295.93 487.65 298.43 C 481.34 296.45 475.02 294.55 468.73 292.55 C 471.86 290.07 475.21 287.85 478.22 285.21 C 480.34 283.30 479.32 279.37 476.57 278.66 C 466.53 275.79 456.38 273.32 446.33 270.49 C 448.71 267.91 453.43 266.19 453.04 262.06 C 451.77 257.92 446.45 258.39 443.13 256.96 C 445.43 254.52 446.74 251.42 447.20 248.12 C 455.69 249.83 464.23 251.32 472.76 252.88 C 470.63 255.07 468.28 257.06 466.41 259.47 C 464.77 261.61 466.09 265.23 468.83 265.59 C 481.89 268.15 494.98 270.61 508.07 273.05 C 506.55 274.50 504.90 275.83 503.61 277.49 C 502.15 279.94 503.91 283.38 506.80 283.53 C 522.97 286.03 539.13 288.62 555.30 291.08 C 552.24 293.47 548.80 295.44 546.09 298.24 C 544.03 300.88 546.73 305.07 549.99 304.47 C 577.35 302.31 604.70 299.95 632.06 297.77 C 633.74 297.64 635.70 297.19 636.51 295.51 C 637.74 293.34 636.39 290.57 634.19 289.68 C 615.77 279.80 597.25 270.08 578.83 260.20 C 577.25 259.39 575.71 258.46 574.01 257.98 C 571.34 257.43 568.62 260.38 569.60 262.99 C 570.52 265.75 571.97 268.30 573.21 270.94 C 563.09 269.23 553.00 267.37 542.88 265.63 C 545.36 262.88 548.10 260.33 550.27 257.33 C 551.61 254.88 549.68 251.73 546.97 251.53 C 534.70 249.44 522.39 247.52 510.09 245.61 C 511.64 243.75 514.48 241.78 513.35 238.97 C 512.66 236.65 510.05 236.22 508.02 235.88 C 497.70 234.15 487.39 232.40 477.07 230.66 C 486.38 224.87 495.42 218.65 504.07 211.91 C 531.59 190.23 556.50 164.05 572.01 132.33 C 579.45 133.71 587.52 129.06 589.44 121.63 C 591.43 115.53 588.68 108.85 583.84 104.94 C 593.51 90.60 611.14 83.72 627.97 83.48 C 630.31 83.21 633.28 84.17 635.02 82.05 C 636.32 80.69 635.92 78.64 636.12 76.94 C 636.18 70.63 636.58 64.33 636.62 58.02 C 636.77 56.01 635.38 54.25 633.53 53.64 C 594.22 37.52 554.97 21.25 515.64 5.18 C 513.25 3.90 510.54 5.26 509.46 7.56 C 505.93 13.11 502.02 18.43 498.77 24.14 C 497.28 26.95 500.31 29.04 501.78 31.05 C 512.21 44.27 520.02 60.52 519.70 77.68 C 516.55 78.10 513.23 78.51 510.57 80.41 C 504.99 83.93 502.37 91.40 504.50 97.65 C 505.49 101.17 508.09 103.88 510.92 106.05 C 501.38 128.22 490.20 149.72 476.61 169.70 C 486.36 141.29 485.54 109.47 474.51 81.54 C 463.97 54.59 443.99 31.48 418.85 17.17 C 398.68 5.61 375.26 -0.19 352.02 0.67 C 318.80 1.49 286.31 16.38 263.71 40.70 M 704.22 95.00 C 704.22 142.67 704.22 190.33 704.22 238.00 C 725.80 238.00 747.39 237.99 768.98 238.01 C 779.01 238.07 789.00 236.28 798.60 233.43 C 812.21 228.85 823.09 217.89 829.20 205.07 C 834.11 195.15 835.39 183.92 835.85 172.99 C 836.43 159.88 835.31 146.56 831.17 134.05 C 826.67 120.39 817.28 108.01 804.20 101.60 C 789.99 94.29 773.54 94.96 758.02 95.00 C 740.08 95.00 722.15 95.00 704.22 95.00 M 1464.00 95.00 C 1464.00 142.68 1464.00 190.35 1464.00 238.03 C 1477.26 238.03 1490.52 238.03 1503.78 238.03 C 1503.81 220.70 1503.72 203.38 1503.82 186.05 C 1504.09 180.02 1504.49 173.41 1508.32 168.44 C 1513.53 161.58 1525.67 160.86 1530.86 168.07 C 1534.38 173.72 1533.58 180.71 1533.72 187.05 C 1533.71 204.05 1533.72 221.04 1533.72 238.03 C 1547.04 238.03 1560.36 238.03 1573.69 238.03 C 1573.68 218.02 1573.68 198.01 1573.69 178.00 C 1573.82 168.64 1573.68 158.91 1569.82 150.20 C 1566.68 142.78 1560.28 136.90 1552.71 134.23 C 1544.48 131.32 1535.42 131.47 1526.97 133.23 C 1517.85 135.14 1510.20 140.95 1503.77 147.44 C 1503.79 129.96 1503.77 112.48 1503.78 95.00 C 1490.52 95.00 1477.26 95.00 1464.00 95.00 M 1799.94 95.00 C 1799.94 142.68 1799.94 190.35 1799.94 238.03 C 1814.76 238.03 1829.58 238.03 1844.41 238.03 C 1844.41 220.36 1844.41 202.70 1844.41 185.03 C 1853.27 185.00 1862.14 185.09 1871.01 184.98 C 1881.54 184.73 1892.41 183.10 1901.68 177.78 C 1910.72 172.64 1917.19 163.53 1919.71 153.50 C 1921.86 144.92 1921.96 135.86 1920.38 127.18 C 1918.67 117.97 1913.82 109.17 1906.15 103.63 C 1897.20 97.11 1885.82 95.17 1874.99 95.01 C 1849.97 94.99 1824.95 95.01 1799.94 95.00 M 1131.59 115.42 C 1131.59 121.78 1131.59 128.14 1131.59 134.50 C 1126.70 134.50 1121.82 134.50 1116.94 134.50 C 1116.93 144.18 1116.93 153.85 1116.94 163.53 C 1121.82 163.53 1126.70 163.53 1131.59 163.53 C 1131.59 172.35 1131.59 181.17 1131.59 189.99 C 1131.71 200.92 1131.01 212.13 1134.09 222.75 C 1136.51 230.96 1143.58 237.57 1152.06 239.08 C 1166.20 241.92 1180.82 240.21 1194.81 237.32 C 1193.85 228.20 1192.84 219.09 1191.90 209.97 C 1186.81 211.30 1181.40 213.45 1176.12 211.94 C 1172.26 210.75 1171.55 206.31 1171.53 202.84 C 1171.38 189.74 1171.51 176.63 1171.47 163.53 C 1178.76 163.53 1186.05 163.53 1193.35 163.53 C 1193.34 153.85 1193.34 144.18 1193.35 134.50 C 1186.05 134.50 1178.76 134.50 1171.47 134.50 C 1171.47 121.32 1171.47 108.15 1171.47 94.97 C 1158.18 101.79 1144.89 108.61 1131.59 115.42 M 2200.59 115.42 C 2200.58 121.78 2200.58 128.14 2200.59 134.50 C 2195.70 134.50 2190.81 134.50 2185.94 134.50 C 2185.93 144.18 2185.93 153.85 2185.94 163.53 C 2190.81 163.53 2195.70 163.53 2200.59 163.53 C 2200.66 177.70 2200.44 191.86 2200.72 206.03 C 2201.16 214.97 2201.90 224.87 2208.20 231.85 C 2212.85 237.31 2220.10 239.43 2227.01 240.06 C 2239.15 241.28 2251.40 239.91 2263.30 237.43 C 2263.24 228.23 2261.71 219.13 2260.90 209.97 C 2255.59 211.32 2249.81 213.74 2244.41 211.64 C 2240.75 209.97 2240.60 205.51 2240.51 202.04 C 2240.42 189.21 2240.49 176.37 2240.47 163.53 C 2247.76 163.53 2255.05 163.53 2262.35 163.53 C 2262.34 153.85 2262.34 144.18 2262.35 134.50 C 2255.05 134.50 2247.76 134.50 2240.47 134.50 C 2240.47 121.33 2240.47 108.15 2240.47 94.97 C 2227.17 101.79 2213.89 108.61 2200.59 115.42 M 884.27 136.25 C 872.91 140.45 863.21 148.91 857.60 159.65 C 851.77 170.76 850.53 183.81 852.18 196.12 C 854.20 211.10 862.92 225.32 875.97 233.14 C 885.29 238.62 896.33 240.06 906.97 240.44 C 918.99 240.69 931.35 240.13 942.75 235.92 C 954.54 231.54 963.35 221.69 969.46 210.99 C 956.41 209.82 943.36 208.66 930.31 207.48 C 923.99 216.89 909.88 220.21 900.54 213.40 C 894.86 209.52 892.75 202.55 891.91 196.06 C 918.49 196.00 945.07 196.05 971.66 196.03 C 971.80 186.47 971.37 176.77 968.65 167.55 C 965.65 156.95 958.96 147.34 949.69 141.31 C 940.98 135.43 930.41 133.18 920.09 132.36 C 908.07 131.47 895.65 131.94 884.27 136.25 M 1238.54 133.80 C 1229.60 135.57 1220.71 139.68 1215.03 147.03 C 1209.63 153.83 1208.17 163.21 1210.23 171.54 C 1211.89 177.99 1216.12 183.60 1221.41 187.57 C 1227.41 192.04 1234.94 193.46 1242.08 195.15 C 1251.94 197.45 1262.08 198.50 1271.85 201.25 C 1275.40 202.12 1279.04 204.98 1278.77 209.00 C 1278.66 213.72 1273.99 216.62 1269.89 217.67 C 1264.28 218.94 1258.06 218.93 1252.81 216.37 C 1248.46 214.24 1246.10 209.77 1244.37 205.48 C 1231.21 206.67 1218.05 207.81 1204.89 208.99 C 1206.79 216.96 1210.80 224.59 1217.19 229.85 C 1223.73 235.57 1232.40 237.93 1240.81 239.20 C 1250.77 240.62 1260.89 240.80 1270.92 240.16 C 1281.21 239.45 1291.75 237.23 1300.41 231.35 C 1309.76 225.29 1315.70 214.16 1315.20 203.00 C 1314.89 195.23 1311.12 187.75 1305.26 182.67 C 1298.48 176.73 1289.51 174.32 1280.86 172.64 C 1271.53 170.70 1261.92 170.43 1252.64 168.21 C 1249.66 167.46 1246.13 166.19 1245.18 162.93 C 1243.88 158.67 1247.51 154.63 1251.51 153.75 C 1257.32 152.38 1263.89 152.74 1269.01 156.08 C 1271.69 157.75 1272.99 160.74 1274.21 163.52 C 1286.73 162.31 1299.26 161.19 1311.79 160.01 C 1308.73 152.21 1304.29 144.57 1297.23 139.77 C 1289.91 134.54 1280.80 132.90 1272.01 132.37 C 1260.86 131.74 1249.55 131.66 1238.54 133.80 M 1356.43 138.39 C 1344.67 144.71 1334.85 155.45 1331.40 168.54 C 1328.85 178.14 1328.73 188.26 1329.94 198.06 C 1331.94 215.32 1344.84 230.45 1361.09 236.18 C 1370.97 239.69 1381.57 240.42 1391.98 240.50 C 1402.90 240.51 1414.21 239.28 1424.02 234.10 C 1436.85 227.77 1445.69 215.17 1449.20 201.49 C 1436.61 200.14 1424.02 198.84 1411.44 197.48 C 1409.73 201.97 1407.49 206.53 1403.52 209.44 C 1394.93 215.70 1381.35 214.84 1374.46 206.40 C 1369.26 200.25 1368.48 191.70 1368.90 183.97 C 1369.28 176.70 1371.26 168.88 1377.01 163.96 C 1383.25 158.39 1392.76 157.76 1400.33 160.74 C 1405.32 162.71 1408.29 167.58 1409.80 172.51 C 1422.25 170.83 1434.71 169.19 1447.17 167.50 C 1443.53 155.56 1435.79 144.49 1424.50 138.71 C 1413.59 133.16 1401.08 132.00 1389.02 132.00 C 1377.93 132.13 1366.43 133.24 1356.43 138.39 M 1619.84 138.66 C 1604.93 146.09 1594.69 161.51 1593.02 178.01 C 1590.65 195.40 1595.51 214.23 1608.43 226.57 C 1615.21 233.40 1624.34 237.50 1633.77 239.04 C 1643.37 240.72 1653.20 240.78 1662.91 240.13 C 1672.67 239.33 1682.74 237.54 1691.17 232.24 C 1699.42 227.10 1705.64 219.32 1710.46 210.99 C 1697.41 209.82 1684.36 208.66 1671.31 207.48 C 1664.99 216.88 1650.91 220.20 1641.56 213.41 C 1635.86 209.53 1633.75 202.56 1632.91 196.06 C 1659.49 196.00 1686.07 196.05 1712.66 196.03 C 1712.86 183.13 1711.94 169.64 1705.81 158.01 C 1699.04 144.78 1685.43 135.96 1670.92 133.65 C 1653.94 130.89 1635.54 130.79 1619.84 138.66 M 1979.52 132.80 C 1965.89 134.56 1952.69 141.06 1943.97 151.84 C 1932.39 165.50 1929.66 185.04 1934.11 202.04 C 1937.11 213.35 1944.45 223.27 1953.95 230.00 C 1965.21 238.06 1979.41 240.76 1993.04 240.49 C 2006.65 240.36 2020.76 237.09 2031.62 228.52 C 2044.03 218.98 2051.14 203.53 2051.25 187.97 C 2052.06 171.85 2045.77 155.17 2033.12 144.84 C 2018.37 132.64 1997.89 130.54 1979.52 132.80 M 2076.12 144.12 C 2070.25 149.71 2067.31 157.97 2067.90 166.01 C 2068.34 177.76 2077.17 188.21 2088.16 191.84 C 2100.44 195.89 2113.35 197.36 2125.95 200.09 C 2129.15 200.91 2132.69 201.50 2135.20 203.87 C 2137.88 206.32 2137.90 210.89 2135.50 213.55 C 2132.61 216.79 2128.17 218.09 2123.98 218.39 C 2119.05 218.71 2113.73 218.25 2109.60 215.32 C 2106.21 212.98 2104.41 209.14 2102.85 205.48 C 2089.70 206.67 2076.55 207.82 2063.40 208.99 C 2065.71 219.47 2072.30 229.12 2081.95 234.09 C 2090.93 238.60 2101.12 239.74 2111.03 240.32 C 2122.22 240.75 2133.61 240.60 2144.52 237.78 C 2152.41 235.62 2160.07 231.73 2165.58 225.58 C 2171.11 219.11 2174.39 210.50 2173.63 201.93 C 2172.93 192.75 2167.36 184.27 2159.52 179.55 C 2145.17 171.15 2127.95 171.76 2112.13 168.45 C 2108.59 167.67 2104.02 166.23 2103.49 162.03 C 2102.86 157.84 2106.57 154.41 2110.41 153.64 C 2116.25 152.40 2122.86 152.82 2127.89 156.35 C 2130.33 158.04 2131.53 160.88 2132.69 163.52 C 2145.22 162.32 2157.75 161.19 2170.29 160.01 C 2167.56 153.19 2163.94 146.47 2158.23 141.70 C 2152.04 136.39 2144.01 133.72 2136.01 132.89 C 2125.70 131.78 2115.28 131.67 2104.97 132.61 C 2094.57 133.62 2083.72 136.57 2076.12 144.12 M 989.59 134.50 C 989.59 155.01 989.60 175.51 989.59 196.02 C 989.45 205.63 989.90 215.71 994.45 224.40 C 998.62 232.56 1006.94 238.13 1015.88 239.71 C 1023.83 241.10 1032.17 240.73 1039.91 238.38 C 1049.09 235.60 1056.22 228.67 1062.16 221.43 C 1062.15 226.96 1062.15 232.50 1062.16 238.03 C 1074.54 238.03 1086.93 238.03 1099.31 238.03 C 1099.31 203.52 1099.31 169.01 1099.31 134.50 C 1086.05 134.50 1072.79 134.50 1059.53 134.50 C 1059.50 151.69 1059.58 168.88 1059.49 186.07 C 1059.26 192.02 1058.87 198.43 1055.38 203.49 C 1050.97 209.83 1041.28 211.41 1035.00 207.04 C 1030.61 203.88 1029.78 198.01 1029.62 193.00 C 1029.55 173.50 1029.61 154.00 1029.59 134.50 C 1016.26 134.50 1002.92 134.50 989.59 134.50 Z" />
<path fill="#ffffff" opacity="1.00" d=" M 340.89 37.39 C 356.48 35.16 372.81 35.87 387.61 41.65 C 413.34 51.34 434.15 72.91 443.31 98.79 C 449.69 117.54 449.40 138.35 443.37 157.15 C 439.27 170.14 432.04 181.94 423.01 192.08 C 417.23 189.13 410.00 191.32 406.81 196.93 C 401.46 195.57 395.81 198.04 393.12 202.83 C 387.80 201.48 382.09 203.87 379.43 208.68 C 375.33 207.80 370.70 208.62 367.77 211.81 C 365.46 214.06 364.78 217.31 364.25 220.37 C 360.69 220.63 357.13 220.69 353.57 220.76 C 354.09 216.84 353.35 212.51 350.33 209.73 C 347.24 206.43 342.32 205.77 338.11 206.94 C 335.06 202.41 329.31 200.33 324.08 202.01 C 321.01 197.46 315.24 195.39 309.98 197.05 C 306.13 191.05 297.29 189.77 292.01 194.65 C 274.75 177.07 264.38 152.72 264.26 128.03 C 263.21 84.53 298.48 44.53 340.89 37.39 Z" />
<path fill="#ffffff" opacity="1.00" d=" M 1844.41 124.03 C 1852.90 124.38 1861.83 122.90 1869.95 126.09 C 1880.23 130.49 1881.34 147.02 1871.61 152.66 C 1863.33 157.24 1853.47 155.68 1844.41 156.00 C 1844.41 145.34 1844.40 134.69 1844.41 124.03 Z" />
<path fill="#ffffff" opacity="1.00" d=" M 748.50 205.50 C 748.50 179.51 748.50 153.52 748.50 127.53 C 758.09 127.67 768.23 126.58 777.18 130.81 C 782.28 133.08 786.24 137.53 788.10 142.78 C 791.61 152.40 791.66 162.85 791.39 172.96 C 790.96 180.61 790.44 188.72 786.27 195.40 C 783.81 199.54 779.79 202.80 775.05 203.90 C 766.37 206.07 757.35 205.36 748.50 205.50 Z" />
<path fill="#ffffff" opacity="1.00" d=" M 898.68 160.73 C 905.25 154.02 917.12 153.75 924.22 159.78 C 929.11 164.07 930.41 170.85 931.23 176.99 C 918.16 176.99 905.09 177.03 892.02 176.97 C 892.80 171.14 894.21 164.92 898.68 160.73 Z" />
<path fill="#ffffff" opacity="1.00" d=" M 1640.76 159.74 C 1647.29 154.15 1657.85 154.10 1664.63 159.29 C 1669.97 163.50 1671.39 170.62 1672.23 176.99 C 1659.16 176.99 1646.09 177.03 1633.02 176.97 C 1633.79 170.65 1635.57 163.91 1640.76 159.74 Z" />
<path fill="#ffffff" opacity="1.00" d=" M 1986.52 159.77 C 1992.57 157.96 1999.60 159.35 2004.11 163.90 C 2009.58 169.01 2011.09 176.85 2011.28 184.03 C 2011.37 191.18 2010.93 198.80 2007.12 205.07 C 2003.60 210.80 1996.75 214.15 1990.07 213.42 C 1982.32 212.98 1975.84 206.81 1973.76 199.54 C 1971.53 191.88 1971.50 183.64 1973.01 175.85 C 1974.35 168.66 1979.29 161.85 1986.52 159.77 Z" />
</g>
<g id="#000000ff">
<path fill="#000000" opacity="1.00" d=" M 263.71 40.70 C 286.31 16.38 318.80 1.49 352.02 0.67 C 375.26 -0.19 398.68 5.61 418.85 17.17 C 443.99 31.48 463.97 54.59 474.51 81.54 C 485.54 109.47 486.36 141.29 476.61 169.70 C 490.20 149.72 501.38 128.22 510.92 106.05 C 508.09 103.88 505.49 101.17 504.50 97.65 C 502.37 91.40 504.99 83.93 510.57 80.41 C 513.23 78.51 516.55 78.10 519.70 77.68 C 520.02 60.52 512.21 44.27 501.78 31.05 C 500.31 29.04 497.28 26.95 498.77 24.14 C 502.02 18.43 505.93 13.11 509.46 7.56 C 510.54 5.26 513.25 3.90 515.64 5.18 C 554.97 21.25 594.22 37.52 633.53 53.64 C 635.38 54.25 636.77 56.01 636.62 58.02 C 636.58 64.33 636.18 70.63 636.12 76.94 C 635.92 78.64 636.32 80.69 635.02 82.05 C 633.28 84.17 630.31 83.21 627.97 83.48 C 611.14 83.72 593.51 90.60 583.84 104.94 C 588.68 108.85 591.43 115.53 589.44 121.63 C 587.52 129.06 579.45 133.71 572.01 132.33 C 556.50 164.05 531.59 190.23 504.07 211.91 C 495.42 218.65 486.38 224.87 477.07 230.66 C 487.39 232.40 497.70 234.15 508.02 235.88 C 510.05 236.22 512.66 236.65 513.35 238.97 C 514.48 241.78 511.64 243.75 510.09 245.61 C 522.39 247.52 534.70 249.44 546.97 251.53 C 549.68 251.73 551.61 254.88 550.27 257.33 C 548.10 260.33 545.36 262.88 542.88 265.63 C 553.00 267.37 563.09 269.23 573.21 270.94 C 571.97 268.30 570.52 265.75 569.60 262.99 C 568.62 260.38 571.34 257.43 574.01 257.98 C 575.71 258.46 577.25 259.39 578.83 260.20 C 597.25 270.08 615.77 279.80 634.19 289.68 C 636.39 290.57 637.74 293.34 636.51 295.51 C 635.70 297.19 633.74 297.64 632.06 297.77 C 604.70 299.95 577.35 302.31 549.99 304.47 C 546.73 305.07 544.03 300.88 546.09 298.24 C 548.80 295.44 552.24 293.47 555.30 291.08 C 539.13 288.62 522.97 286.03 506.80 283.53 C 503.91 283.38 502.15 279.94 503.61 277.49 C 504.90 275.83 506.55 274.50 508.07 273.05 C 494.98 270.61 481.89 268.15 468.83 265.59 C 466.09 265.23 464.77 261.61 466.41 259.47 C 468.28 257.06 470.63 255.07 472.76 252.88 C 464.23 251.32 455.69 249.83 447.20 248.12 C 446.74 251.42 445.43 254.52 443.13 256.96 C 446.45 258.39 451.77 257.92 453.04 262.06 C 453.43 266.19 448.71 267.91 446.33 270.49 C 456.38 273.32 466.53 275.79 476.57 278.66 C 479.32 279.37 480.34 283.30 478.22 285.21 C 475.21 287.85 471.86 290.07 468.73 292.55 C 475.02 294.55 481.34 296.45 487.65 298.43 C 487.21 295.93 486.29 293.47 486.39 290.91 C 486.66 288.07 490.33 286.56 492.59 288.27 C 511.25 298.96 529.96 309.60 548.50 320.49 C 552.17 322.39 550.16 328.35 546.15 327.97 C 519.44 328.87 492.72 329.93 466.01 330.65 C 462.04 330.92 460.62 324.91 464.09 323.19 C 467.70 320.91 471.46 318.86 475.18 316.76 C 459.04 311.60 442.86 306.53 426.76 301.27 C 424.15 300.58 423.06 296.92 424.95 294.97 C 427.48 292.66 430.55 291.04 433.36 289.10 C 424.33 286.29 415.24 283.69 406.21 280.87 C 403.62 280.35 402.34 277.02 403.80 274.86 C 404.95 273.31 406.77 272.47 408.38 271.49 C 407.14 271.34 405.91 271.18 404.68 271.02 C 402.89 273.93 400.13 276.00 396.96 277.21 C 396.86 277.94 396.67 279.39 396.58 280.12 C 400.32 281.85 403.74 284.60 405.31 288.52 C 408.91 297.37 412.27 306.32 415.79 315.21 C 416.15 316.60 417.45 318.53 416.00 319.73 C 411.72 323.92 408.45 330.10 402.02 331.19 C 397.16 332.41 392.86 328.77 388.02 329.36 C 382.70 329.55 375.79 327.50 374.79 321.46 C 374.17 312.65 374.46 303.79 374.15 294.96 C 373.82 291.33 375.32 287.91 377.37 285.01 C 374.33 280.80 374.05 275.14 376.85 270.74 C 376.55 269.57 376.26 268.40 375.97 267.24 C 364.85 268.44 353.62 268.72 342.46 267.77 C 342.22 268.75 341.98 269.73 341.75 270.72 C 344.51 275.15 344.29 280.82 341.17 285.01 C 345.72 290.33 344.20 297.58 344.27 303.98 C 343.99 309.93 344.45 315.94 343.75 321.86 C 342.38 327.89 335.39 329.57 330.03 329.37 C 325.23 328.94 320.89 332.64 316.07 331.07 C 310.05 329.82 306.95 324.08 302.89 320.09 C 301.04 318.81 302.40 316.55 302.90 314.92 C 306.42 306.13 309.72 297.25 313.28 288.49 C 314.84 284.64 318.18 281.91 321.88 280.23 C 321.82 278.61 321.79 277.00 321.81 275.39 C 320.06 274.10 318.50 272.60 317.05 270.99 C 312.58 272.34 307.79 271.13 304.39 267.97 C 301.10 268.95 297.81 269.93 294.52 270.88 C 296.19 272.04 298.01 273.03 299.45 274.49 C 301.18 276.38 300.28 279.89 297.83 280.68 C 288.67 283.65 279.36 286.20 270.17 289.10 C 272.89 290.96 275.81 292.56 278.32 294.71 C 280.65 296.67 279.37 300.73 276.51 301.38 C 260.46 306.57 244.37 311.68 228.28 316.75 C 232.09 318.88 235.96 320.95 239.64 323.32 C 241.72 324.57 242.09 327.76 240.35 329.47 C 239.00 331.00 236.80 330.63 234.99 330.67 C 208.98 329.71 182.96 328.94 156.97 327.92 C 153.64 328.00 151.78 323.48 154.17 321.21 C 156.21 319.44 158.70 318.32 161.00 316.95 C 177.49 307.49 193.94 297.97 210.44 288.54 C 212.36 287.10 215.36 287.20 216.63 289.43 C 217.99 292.32 216.27 295.47 215.88 298.42 C 222.20 296.48 228.52 294.53 234.82 292.54 C 231.73 290.12 228.46 287.92 225.47 285.38 C 223.03 283.36 224.28 279.03 227.38 278.52 C 237.29 275.77 247.26 273.24 257.18 270.51 C 255.13 268.62 252.76 267.04 250.99 264.86 C 249.63 262.83 250.78 259.77 253.13 259.12 C 259.88 256.99 266.74 255.17 273.57 253.27 C 273.42 251.40 273.34 249.53 273.32 247.66 C 272.01 247.02 270.70 246.38 269.40 245.75 C 256.52 248.11 243.66 250.57 230.77 252.89 C 232.92 255.13 235.36 257.14 237.24 259.63 C 238.91 262.05 237.00 265.62 234.10 265.74 C 221.23 268.18 208.36 270.68 195.47 273.04 C 197.09 274.69 199.12 276.04 200.24 278.11 C 201.39 280.76 198.95 283.59 196.24 283.63 C 180.23 286.07 164.25 288.63 148.24 291.10 C 151.17 293.37 154.38 295.29 157.10 297.82 C 158.94 299.61 158.16 302.98 155.92 304.05 C 154.42 304.85 152.66 304.32 151.06 304.31 C 124.34 302.08 97.61 299.90 70.89 297.70 C 69.13 297.59 67.21 296.68 66.75 294.83 C 65.91 292.61 67.59 290.40 69.57 289.53 C 89.01 279.23 108.40 268.84 127.86 258.59 C 130.37 256.81 134.32 258.87 134.13 261.99 C 133.54 265.21 131.59 267.97 130.32 270.94 C 140.45 269.24 150.54 267.35 160.67 265.65 C 158.21 262.93 155.54 260.38 153.32 257.46 C 151.90 255.12 153.64 251.85 156.33 251.59 C 168.68 249.43 181.08 247.57 193.46 245.59 C 191.89 243.78 189.06 241.85 190.21 239.08 C 190.73 236.95 193.01 236.24 194.93 235.99 C 209.86 233.49 224.78 230.89 239.73 228.45 C 207.29 206.86 178.67 179.85 153.73 149.98 C 137.77 130.67 123.23 110.10 111.17 88.12 C 106.28 89.11 100.74 87.25 98.27 82.72 C 95.39 78.06 96.82 72.00 100.48 68.21 C 95.44 61.00 88.38 53.93 79.13 53.20 C 75.98 52.63 71.63 55.05 69.55 51.64 C 67.45 47.49 65.57 43.22 63.82 38.91 C 62.53 36.35 64.95 34.15 67.02 33.06 C 81.91 24.27 96.71 15.34 111.58 6.52 C 113.23 5.45 115.42 4.47 117.26 5.75 C 119.97 8.37 121.91 11.67 124.28 14.59 C 125.75 16.51 127.85 18.93 126.39 21.47 C 121.90 31.30 122.77 42.70 126.23 52.70 C 132.03 51.22 138.80 54.34 140.46 60.30 C 142.05 64.67 140.21 69.38 137.16 72.62 C 162.41 112.55 193.45 149.02 229.85 179.22 C 234.99 183.54 240.49 187.41 245.64 191.72 C 231.66 167.55 226.31 138.58 230.15 110.96 C 233.74 84.82 245.56 59.87 263.71 40.70 M 308.22 16.20 C 279.78 28.39 256.50 51.95 244.46 80.44 C 234.04 104.70 231.87 132.35 238.20 157.97 C 244.77 184.91 260.89 209.35 282.96 226.12 C 285.61 217.93 288.27 209.75 290.91 201.56 C 262.77 175.42 250.55 132.30 263.98 95.86 C 273.94 68.69 296.22 46.36 323.31 36.22 C 339.75 30.04 357.93 29.08 375.15 32.17 C 402.90 37.67 427.40 56.26 441.25 80.78 C 452.41 99.55 455.91 122.35 452.41 143.79 C 449.31 164.15 439.45 183.14 425.30 198.02 C 428.47 205.93 431.63 213.85 434.78 221.77 C 457.70 202.24 473.05 174.02 476.71 144.10 C 480.38 115.88 473.86 86.46 458.43 62.53 C 442.60 37.60 417.43 18.73 388.96 10.79 C 362.48 3.31 333.44 5.15 308.22 16.20 M 514.21 10.75 C 511.09 15.44 508.02 20.16 504.92 24.86 C 546.72 42.24 588.54 59.54 630.37 76.85 C 630.51 70.82 630.77 64.79 630.92 58.76 C 592.02 42.75 553.12 26.74 514.21 10.75 M 69.65 38.20 C 70.99 41.18 72.33 44.16 73.66 47.14 C 89.30 37.84 104.89 28.45 120.49 19.07 C 118.56 16.49 116.63 13.91 114.68 11.34 C 99.67 20.30 84.66 29.25 69.65 38.20 M 79.89 47.34 C 91.63 48.82 100.69 57.60 106.63 67.28 C 111.83 64.11 117.02 60.95 122.21 57.78 C 117.60 47.09 116.11 34.90 119.38 23.61 C 106.22 31.53 93.09 39.49 79.89 47.34 M 508.15 29.87 C 519.09 44.77 526.99 63.06 525.09 81.89 C 542.50 89.44 559.92 96.98 577.34 104.54 C 586.79 88.06 605.54 79.19 623.99 77.87 C 585.37 61.89 546.78 45.83 508.15 29.87 M 340.89 37.39 C 298.48 44.53 263.21 84.53 264.26 128.03 C 264.38 152.72 274.75 177.07 292.01 194.65 C 297.29 189.77 306.13 191.05 309.98 197.05 C 315.24 195.39 321.01 197.46 324.08 202.01 C 329.31 200.33 335.06 202.41 338.11 206.94 C 342.32 205.77 347.24 206.43 350.33 209.73 C 353.35 212.51 354.09 216.84 353.57 220.76 C 357.13 220.69 360.69 220.63 364.25 220.37 C 364.78 217.31 365.46 214.06 367.77 211.81 C 370.70 208.62 375.33 207.80 379.43 208.68 C 382.09 203.87 387.80 201.48 393.12 202.83 C 395.81 198.04 401.46 195.57 406.81 196.93 C 410.00 191.32 417.23 189.13 423.01 192.08 C 432.04 181.94 439.27 170.14 443.37 157.15 C 449.40 138.35 449.69 117.54 443.31 98.79 C 434.15 72.91 413.34 51.34 387.61 41.65 C 372.81 35.87 356.48 35.16 340.89 37.39 M 128.32 58.29 C 121.74 61.46 115.81 65.84 109.46 69.44 C 106.61 71.31 102.30 72.89 102.45 76.99 C 102.20 81.13 107.31 84.15 110.80 81.87 C 117.14 78.27 123.24 74.24 129.54 70.55 C 131.73 69.13 134.63 67.88 135.18 65.02 C 136.28 61.12 132.19 57.09 128.32 58.29 M 115.04 83.28 C 134.85 119.69 160.93 152.52 190.64 181.34 C 216.30 206.09 245.15 227.90 277.41 243.31 C 278.89 238.70 280.40 234.09 281.87 229.47 C 275.04 224.26 268.58 218.52 262.95 212.01 C 261.09 209.87 259.35 207.56 256.90 206.06 C 241.65 196.33 227.41 185.10 213.93 173.06 C 181.78 144.03 153.87 110.31 131.03 73.51 C 125.70 76.77 120.37 80.03 115.04 83.28 M 514.51 84.70 C 507.88 87.76 507.89 98.44 514.61 101.38 C 533.39 109.67 552.28 117.76 571.12 125.92 C 575.15 127.85 580.35 126.42 582.76 122.65 C 585.99 118.18 584.13 111.17 579.05 108.96 C 560.73 100.86 542.28 93.07 523.93 85.02 C 521.01 83.61 517.45 83.00 514.51 84.70 M 517.07 106.15 C 502.73 139.60 485.28 172.46 459.79 198.84 C 452.91 208.43 445.20 217.48 436.08 225.03 C 438.38 230.80 440.68 236.59 442.99 242.36 C 477.76 226.44 509.44 203.63 535.27 175.40 C 548.17 161.23 559.61 145.53 567.67 128.07 C 550.80 120.76 533.94 113.45 517.07 106.15 M 298.45 197.52 C 295.90 198.08 294.62 200.57 293.97 202.87 C 289.20 217.72 284.35 232.55 279.57 247.40 C 278.55 249.92 278.97 253.09 281.29 254.74 C 284.17 257.16 289.21 255.68 290.14 251.98 C 295.14 236.93 299.88 221.79 304.87 206.73 C 305.34 205.02 306.15 203.19 305.52 201.41 C 304.71 198.50 301.36 196.56 298.45 197.52 M 414.39 197.17 C 411.75 198.60 410.67 202.07 412.03 204.75 C 418.17 220.07 424.19 235.44 430.41 250.72 C 431.95 254.78 438.23 255.03 440.32 251.31 C 441.92 249.10 441.07 246.34 440.12 244.07 C 434.25 229.55 428.55 214.96 422.68 200.44 C 421.64 197.10 417.42 195.38 414.39 197.17 M 312.32 202.50 C 309.78 203.18 308.66 205.76 307.98 208.05 C 303.17 223.13 298.17 238.14 293.42 253.23 C 291.88 257.15 295.75 261.71 299.86 260.77 C 302.79 260.43 304.25 257.61 304.90 255.05 C 309.70 239.96 314.68 224.93 319.49 209.84 C 321.30 205.62 316.55 200.86 312.32 202.50 M 400.37 203.20 C 397.87 204.72 396.99 208.10 398.33 210.69 C 404.42 225.91 410.43 241.17 416.57 256.37 C 417.89 260.20 423.48 261.02 426.00 257.94 C 428.03 255.90 427.67 252.78 426.55 250.38 C 420.62 235.64 414.83 220.84 408.85 206.12 C 407.75 202.74 403.31 201.20 400.37 203.20 M 326.35 207.47 C 323.56 208.25 322.58 211.23 321.82 213.70 C 317.16 228.30 312.37 242.87 307.68 257.47 C 306.83 259.71 307.06 262.45 308.90 264.13 C 311.17 266.61 315.63 266.28 317.52 263.51 C 318.31 262.16 318.76 260.64 319.26 259.17 C 323.95 244.36 328.84 229.62 333.56 214.83 C 335.38 210.58 330.62 205.78 326.35 207.47 M 387.52 208.63 C 384.53 209.80 383.13 213.55 384.55 216.42 C 390.67 231.70 396.69 247.01 402.86 262.27 C 404.22 266.24 410.19 266.89 412.56 263.51 C 414.57 261.17 413.67 257.98 412.54 255.47 C 406.65 240.98 401.02 226.39 395.10 211.92 C 394.05 208.95 390.39 207.37 387.52 208.63 M 340.31 212.45 C 337.85 213.17 336.82 215.71 336.14 217.93 C 331.38 232.80 326.51 247.63 321.74 262.50 C 320.65 265.16 321.55 268.49 324.11 269.94 C 327.12 271.86 331.54 270.13 332.51 266.71 C 337.63 251.13 342.67 235.52 347.67 219.91 C 349.52 215.55 344.68 210.58 340.31 212.45 M 373.47 214.63 C 370.70 215.94 369.45 219.49 370.74 222.26 C 376.79 237.48 382.81 252.71 388.94 267.89 C 390.20 271.56 395.40 272.81 398.16 270.06 C 400.28 268.26 400.43 265.13 399.33 262.73 C 393.34 247.74 387.43 232.72 381.37 217.77 C 380.29 214.66 376.37 213.11 373.47 214.63 M 349.13 226.27 C 346.58 234.17 344.01 242.06 341.47 249.96 C 353.54 251.38 365.80 251.04 377.76 248.91 C 374.69 241.16 371.59 233.42 368.51 225.68 C 362.07 226.38 355.59 226.67 349.13 226.27 M 197.43 241.42 C 199.56 243.57 201.86 245.59 203.69 248.02 C 203.52 248.41 203.17 249.21 203.00 249.60 C 188.80 252.32 174.45 254.26 160.20 256.73 C 163.71 260.62 167.37 264.37 170.76 268.36 C 169.15 270.18 166.69 270.34 164.46 270.77 C 151.67 272.95 138.89 275.24 126.12 277.54 C 124.58 277.68 122.73 278.51 121.63 276.97 C 122.59 273.00 124.87 269.52 126.46 265.79 C 109.76 274.66 93.06 283.50 76.38 292.42 C 100.40 294.46 124.43 296.28 148.44 298.33 C 144.42 295.17 139.98 292.52 136.24 289.01 C 136.43 288.58 136.80 287.72 136.99 287.29 C 155.49 283.86 174.19 281.43 192.77 278.37 C 190.20 275.91 187.35 273.72 185.06 271.00 C 185.14 270.62 185.32 269.86 185.40 269.48 C 188.44 268.32 191.71 268.03 194.87 267.38 C 206.72 265.08 218.60 262.91 230.45 260.65 C 227.34 257.35 223.85 254.39 220.98 250.88 C 221.01 250.46 221.07 249.62 221.10 249.21 C 223.78 248.13 226.70 247.89 229.51 247.32 C 241.34 245.11 253.18 242.93 265.03 240.80 C 260.05 238.15 255.18 235.30 250.34 232.42 C 232.70 235.40 215.06 238.42 197.43 241.42 M 449.83 242.86 C 460.65 244.94 471.57 246.61 482.30 249.07 C 482.38 249.51 482.54 250.38 482.62 250.81 C 479.71 254.34 476.23 257.34 473.09 260.64 C 488.01 263.61 503.07 266.01 517.91 269.33 C 518.07 269.74 518.39 270.54 518.54 270.95 C 516.21 273.68 513.37 275.91 510.77 278.37 C 528.16 281.12 545.57 283.76 562.96 286.51 C 564.57 286.97 567.17 286.65 567.29 288.94 C 563.64 292.56 559.11 295.14 555.10 298.33 C 579.11 296.28 603.14 294.45 627.15 292.42 C 610.48 283.50 593.77 274.66 577.07 265.79 C 578.61 269.28 580.58 272.59 581.81 276.22 C 581.90 277.68 580.50 278.21 579.29 277.80 C 566.17 275.60 553.09 273.12 539.96 270.92 C 537.46 270.41 534.58 270.39 532.78 268.29 C 536.22 264.37 539.82 260.59 543.33 256.73 C 530.28 254.60 517.22 252.45 504.15 250.39 C 502.57 249.91 499.87 250.32 499.91 248.00 C 501.66 245.53 503.99 243.56 506.12 241.41 C 492.67 239.17 479.24 236.81 465.79 234.56 C 460.54 237.47 455.22 240.22 449.83 242.86 M 340.43 253.18 C 339.52 255.95 338.62 258.73 337.73 261.51 C 352.59 263.32 367.65 262.76 382.45 260.66 C 381.30 257.79 380.16 254.93 379.02 252.07 C 366.31 254.40 353.25 254.78 340.43 253.18 M 257.94 263.61 C 261.10 266.43 264.61 268.88 267.47 272.02 C 267.57 274.08 265.33 274.18 263.90 274.68 C 253.22 277.47 242.58 280.37 231.89 283.15 C 235.67 286.07 239.53 288.86 243.31 291.78 C 244.37 292.68 246.31 294.02 244.59 295.33 C 238.13 297.77 231.39 299.44 224.82 301.61 C 219.86 303.01 215.06 305.00 210.00 306.00 C 209.74 305.75 209.22 305.25 208.95 305.00 C 209.16 301.57 210.16 298.24 210.84 294.89 C 194.88 304.05 178.94 313.25 163.00 322.43 C 185.60 323.31 208.22 323.91 230.82 324.81 C 226.14 321.73 220.80 319.62 216.53 315.97 C 217.00 314.27 218.72 313.86 220.17 313.37 C 237.35 307.93 254.51 302.44 271.67 296.96 C 267.98 294.40 264.13 292.08 260.49 289.46 C 259.59 288.87 259.10 288.03 259.00 286.95 C 260.32 286.14 261.78 285.62 263.26 285.17 C 273.01 282.33 282.72 279.32 292.46 276.43 C 289.22 274.25 285.93 272.15 282.82 269.79 C 286.47 265.88 292.49 266.04 297.27 264.29 C 294.05 263.25 291.46 261.00 290.01 257.93 C 286.52 259.62 282.52 259.59 279.16 257.61 C 272.07 259.55 265.02 261.63 257.94 263.61 M 429.65 259.06 C 426.63 262.93 421.49 264.14 417.02 262.15 C 416.25 263.62 415.45 265.07 414.62 266.51 C 416.84 267.22 419.41 267.63 420.71 269.83 C 417.59 272.16 414.31 274.25 411.08 276.42 C 421.00 279.38 430.89 282.45 440.83 285.33 C 442.34 285.82 444.21 286.12 444.61 287.98 C 440.82 291.57 436.05 293.90 431.85 296.96 C 449.10 302.46 466.34 307.97 483.60 313.45 C 484.94 313.94 487.63 314.58 486.48 316.55 C 482.15 319.71 477.21 321.95 472.68 324.81 C 495.30 323.91 517.93 323.31 540.55 322.43 C 524.59 313.26 508.67 304.04 492.70 294.90 C 493.30 298.22 494.48 301.50 494.50 304.91 C 494.33 306.87 491.97 305.48 490.85 305.42 C 481.44 302.47 472.03 299.50 462.58 296.66 C 460.77 296.17 459.12 295.27 457.63 294.15 C 461.96 290.08 466.98 286.85 471.62 283.16 C 460.94 280.31 450.26 277.49 439.57 274.66 C 438.13 274.13 435.92 274.06 436.06 272.02 C 438.92 268.88 442.44 266.43 445.60 263.60 C 440.28 262.08 434.95 260.62 429.65 259.06 M 381.04 264.15 C 381.47 265.87 381.92 267.59 382.35 269.32 C 383.17 269.12 384.80 268.74 385.62 268.54 C 384.97 266.97 384.32 265.39 383.69 263.82 C 383.02 263.91 381.70 264.07 381.04 264.15 M 336.04 269.18 C 337.01 268.09 337.61 266.36 337.13 264.95 C 335.79 265.16 334.60 268.76 336.04 269.18 M 328.01 274.30 C 327.15 276.73 326.79 279.96 329.28 281.58 C 331.51 282.44 334.48 283.48 336.44 281.45 C 339.23 279.16 338.56 274.26 335.27 272.78 C 332.81 271.33 330.35 273.64 328.01 274.30 M 383.46 272.70 C 380.53 273.95 379.42 278.00 381.35 280.55 C 383.77 284.35 391.05 282.64 391.32 278.03 C 391.84 274.04 386.98 270.82 383.46 272.70 M 318.59 290.65 C 314.95 299.41 311.68 308.33 308.17 317.15 C 310.76 320.06 312.89 323.76 316.64 325.31 C 320.54 326.71 324.09 323.42 328.01 323.73 C 331.33 323.34 335.86 324.24 338.04 321.04 C 338.75 315.43 338.25 309.72 338.54 304.07 C 338.46 299.89 339.18 295.62 338.36 291.49 C 335.22 283.79 322.03 282.49 318.59 290.65 M 379.90 293.94 C 379.95 301.64 380.17 309.35 380.21 317.05 C 380.30 319.04 379.94 321.84 382.32 322.67 C 387.21 324.41 392.70 322.94 397.49 325.28 C 403.47 327.32 407.13 320.92 410.41 317.14 C 407.05 308.62 403.81 300.05 400.41 291.55 C 399.06 287.64 395.14 284.87 390.98 285.09 C 386.00 285.04 379.79 288.32 379.90 293.94 Z" />
<path fill="#000000" opacity="1.00" d=" M 704.22 95.00 C 722.15 95.00 740.08 95.00 758.02 95.00 C 773.54 94.96 789.99 94.29 804.20 101.60 C 817.28 108.01 826.67 120.39 831.17 134.05 C 835.31 146.56 836.43 159.88 835.85 172.99 C 835.39 183.92 834.11 195.15 829.20 205.07 C 823.09 217.89 812.21 228.85 798.60 233.43 C 789.00 236.28 779.01 238.07 768.98 238.01 C 747.39 237.99 725.80 238.00 704.22 238.00 C 704.22 190.33 704.22 142.67 704.22 95.00 M 748.50 205.50 C 757.35 205.36 766.37 206.07 775.05 203.90 C 779.79 202.80 783.81 199.54 786.27 195.40 C 790.44 188.72 790.96 180.61 791.39 172.96 C 791.66 162.85 791.61 152.40 788.10 142.78 C 786.24 137.53 782.28 133.08 777.18 130.81 C 768.23 126.58 758.09 127.67 748.50 127.53 C 748.50 153.52 748.50 179.51 748.50 205.50 Z" />
<path fill="#000000" opacity="1.00" d=" M 1464.00 95.00 C 1477.26 95.00 1490.52 95.00 1503.78 95.00 C 1503.77 112.48 1503.79 129.96 1503.77 147.44 C 1510.20 140.95 1517.85 135.14 1526.97 133.23 C 1535.42 131.47 1544.48 131.32 1552.71 134.23 C 1560.28 136.90 1566.68 142.78 1569.82 150.20 C 1573.68 158.91 1573.82 168.64 1573.69 178.00 C 1573.68 198.01 1573.68 218.02 1573.69 238.03 C 1560.36 238.03 1547.04 238.03 1533.72 238.03 C 1533.72 221.04 1533.71 204.05 1533.72 187.05 C 1533.58 180.71 1534.38 173.72 1530.86 168.07 C 1525.67 160.86 1513.53 161.58 1508.32 168.44 C 1504.49 173.41 1504.09 180.02 1503.82 186.05 C 1503.72 203.38 1503.81 220.70 1503.78 238.03 C 1490.52 238.03 1477.26 238.03 1464.00 238.03 C 1464.00 190.35 1464.00 142.68 1464.00 95.00 Z" />
<path fill="#000000" opacity="1.00" d=" M 1799.94 95.00 C 1824.95 95.01 1849.97 94.99 1874.99 95.01 C 1885.82 95.17 1897.20 97.11 1906.15 103.63 C 1913.82 109.17 1918.67 117.97 1920.38 127.18 C 1921.96 135.86 1921.86 144.92 1919.71 153.50 C 1917.19 163.53 1910.72 172.64 1901.68 177.78 C 1892.41 183.10 1881.54 184.73 1871.01 184.98 C 1862.14 185.09 1853.27 185.00 1844.41 185.03 C 1844.41 202.70 1844.41 220.36 1844.41 238.03 C 1829.58 238.03 1814.76 238.03 1799.94 238.03 C 1799.94 190.35 1799.94 142.68 1799.94 95.00 M 1844.41 124.03 C 1844.40 134.69 1844.41 145.34 1844.41 156.00 C 1853.47 155.68 1863.33 157.24 1871.61 152.66 C 1881.34 147.02 1880.23 130.49 1869.95 126.09 C 1861.83 122.90 1852.90 124.38 1844.41 124.03 Z" />
<path fill="#000000" opacity="1.00" d=" M 1131.59 115.42 C 1144.89 108.61 1158.18 101.79 1171.47 94.97 C 1171.47 108.15 1171.47 121.32 1171.47 134.50 C 1178.76 134.50 1186.05 134.50 1193.35 134.50 C 1193.34 144.18 1193.34 153.85 1193.35 163.53 C 1186.05 163.53 1178.76 163.53 1171.47 163.53 C 1171.51 176.63 1171.38 189.74 1171.53 202.84 C 1171.55 206.31 1172.26 210.75 1176.12 211.94 C 1181.40 213.45 1186.81 211.30 1191.90 209.97 C 1192.84 219.09 1193.85 228.20 1194.81 237.32 C 1180.82 240.21 1166.20 241.92 1152.06 239.08 C 1143.58 237.57 1136.51 230.96 1134.09 222.75 C 1131.01 212.13 1131.71 200.92 1131.59 189.99 C 1131.59 181.17 1131.59 172.35 1131.59 163.53 C 1126.70 163.53 1121.82 163.53 1116.94 163.53 C 1116.93 153.85 1116.93 144.18 1116.94 134.50 C 1121.82 134.50 1126.70 134.50 1131.59 134.50 C 1131.59 128.14 1131.59 121.78 1131.59 115.42 Z" />
<path fill="#000000" opacity="1.00" d=" M 2200.59 115.42 C 2213.89 108.61 2227.17 101.79 2240.47 94.97 C 2240.47 108.15 2240.47 121.33 2240.47 134.50 C 2247.76 134.50 2255.05 134.50 2262.35 134.50 C 2262.34 144.18 2262.34 153.85 2262.35 163.53 C 2255.05 163.53 2247.76 163.53 2240.47 163.53 C 2240.49 176.37 2240.42 189.21 2240.51 202.04 C 2240.60 205.51 2240.75 209.97 2244.41 211.64 C 2249.81 213.74 2255.59 211.32 2260.90 209.97 C 2261.71 219.13 2263.24 228.23 2263.30 237.43 C 2251.40 239.91 2239.15 241.28 2227.01 240.06 C 2220.10 239.43 2212.85 237.31 2208.20 231.85 C 2201.90 224.87 2201.16 214.97 2200.72 206.03 C 2200.44 191.86 2200.66 177.70 2200.59 163.53 C 2195.70 163.53 2190.81 163.53 2185.94 163.53 C 2185.93 153.85 2185.93 144.18 2185.94 134.50 C 2190.81 134.50 2195.70 134.50 2200.59 134.50 C 2200.58 128.14 2200.58 121.78 2200.59 115.42 Z" />
<path fill="#000000" opacity="1.00" d=" M 884.27 136.25 C 895.65 131.94 908.07 131.47 920.09 132.36 C 930.41 133.18 940.98 135.43 949.69 141.31 C 958.96 147.34 965.65 156.95 968.65 167.55 C 971.37 176.77 971.80 186.47 971.66 196.03 C 945.07 196.05 918.49 196.00 891.91 196.06 C 892.75 202.55 894.86 209.52 900.54 213.40 C 909.88 220.21 923.99 216.89 930.31 207.48 C 943.36 208.66 956.41 209.82 969.46 210.99 C 963.35 221.69 954.54 231.54 942.75 235.92 C 931.35 240.13 918.99 240.69 906.97 240.44 C 896.33 240.06 885.29 238.62 875.97 233.14 C 862.92 225.32 854.20 211.10 852.18 196.12 C 850.53 183.81 851.77 170.76 857.60 159.65 C 863.21 148.91 872.91 140.45 884.27 136.25 M 898.68 160.73 C 894.21 164.92 892.80 171.14 892.02 176.97 C 905.09 177.03 918.16 176.99 931.23 176.99 C 930.41 170.85 929.11 164.07 924.22 159.78 C 917.12 153.75 905.25 154.02 898.68 160.73 Z" />
<path fill="#000000" opacity="1.00" d=" M 1238.54 133.80 C 1249.55 131.66 1260.86 131.74 1272.01 132.37 C 1280.80 132.90 1289.91 134.54 1297.23 139.77 C 1304.29 144.57 1308.73 152.21 1311.79 160.01 C 1299.26 161.19 1286.73 162.31 1274.21 163.52 C 1272.99 160.74 1271.69 157.75 1269.01 156.08 C 1263.89 152.74 1257.32 152.38 1251.51 153.75 C 1247.51 154.63 1243.88 158.67 1245.18 162.93 C 1246.13 166.19 1249.66 167.46 1252.64 168.21 C 1261.92 170.43 1271.53 170.70 1280.86 172.64 C 1289.51 174.32 1298.48 176.73 1305.26 182.67 C 1311.12 187.75 1314.89 195.23 1315.20 203.00 C 1315.70 214.16 1309.76 225.29 1300.41 231.35 C 1291.75 237.23 1281.21 239.45 1270.92 240.16 C 1260.89 240.80 1250.77 240.62 1240.81 239.20 C 1232.40 237.93 1223.73 235.57 1217.19 229.85 C 1210.80 224.59 1206.79 216.96 1204.89 208.99 C 1218.05 207.81 1231.21 206.67 1244.37 205.48 C 1246.10 209.77 1248.46 214.24 1252.81 216.37 C 1258.06 218.93 1264.28 218.94 1269.89 217.67 C 1273.99 216.62 1278.66 213.72 1278.77 209.00 C 1279.04 204.98 1275.40 202.12 1271.85 201.25 C 1262.08 198.50 1251.94 197.45 1242.08 195.15 C 1234.94 193.46 1227.41 192.04 1221.41 187.57 C 1216.12 183.60 1211.89 177.99 1210.23 171.54 C 1208.17 163.21 1209.63 153.83 1215.03 147.03 C 1220.71 139.68 1229.60 135.57 1238.54 133.80 Z" />
<path fill="#000000" opacity="1.00" d=" M 1356.43 138.39 C 1366.43 133.24 1377.93 132.13 1389.02 132.00 C 1401.08 132.00 1413.59 133.16 1424.50 138.71 C 1435.79 144.49 1443.53 155.56 1447.17 167.50 C 1434.71 169.19 1422.25 170.83 1409.80 172.51 C 1408.29 167.58 1405.32 162.71 1400.33 160.74 C 1392.76 157.76 1383.25 158.39 1377.01 163.96 C 1371.26 168.88 1369.28 176.70 1368.90 183.97 C 1368.48 191.70 1369.26 200.25 1374.46 206.40 C 1381.35 214.84 1394.93 215.70 1403.52 209.44 C 1407.49 206.53 1409.73 201.97 1411.44 197.48 C 1424.02 198.84 1436.61 200.14 1449.20 201.49 C 1445.69 215.17 1436.85 227.77 1424.02 234.10 C 1414.21 239.28 1402.90 240.51 1391.98 240.50 C 1381.57 240.42 1370.97 239.69 1361.09 236.18 C 1344.84 230.45 1331.94 215.32 1329.94 198.06 C 1328.73 188.26 1328.85 178.14 1331.40 168.54 C 1334.85 155.45 1344.67 144.71 1356.43 138.39 Z" />
<path fill="#000000" opacity="1.00" d=" M 1619.84 138.66 C 1635.54 130.79 1653.94 130.89 1670.92 133.65 C 1685.43 135.96 1699.04 144.78 1705.81 158.01 C 1711.94 169.64 1712.86 183.13 1712.66 196.03 C 1686.07 196.05 1659.49 196.00 1632.91 196.06 C 1633.75 202.56 1635.86 209.53 1641.56 213.41 C 1650.91 220.20 1664.99 216.88 1671.31 207.48 C 1684.36 208.66 1697.41 209.82 1710.46 210.99 C 1705.64 219.32 1699.42 227.10 1691.17 232.24 C 1682.74 237.54 1672.67 239.33 1662.91 240.13 C 1653.20 240.78 1643.37 240.72 1633.77 239.04 C 1624.34 237.50 1615.21 233.40 1608.43 226.57 C 1595.51 214.23 1590.65 195.40 1593.02 178.01 C 1594.69 161.51 1604.93 146.09 1619.84 138.66 M 1640.76 159.74 C 1635.57 163.91 1633.79 170.65 1633.02 176.97 C 1646.09 177.03 1659.16 176.99 1672.23 176.99 C 1671.39 170.62 1669.97 163.50 1664.63 159.29 C 1657.85 154.10 1647.29 154.15 1640.76 159.74 Z" />
<path fill="#000000" opacity="1.00" d=" M 1979.52 132.80 C 1997.89 130.54 2018.37 132.64 2033.12 144.84 C 2045.77 155.17 2052.06 171.85 2051.25 187.97 C 2051.14 203.53 2044.03 218.98 2031.62 228.52 C 2020.76 237.09 2006.65 240.36 1993.04 240.49 C 1979.41 240.76 1965.21 238.06 1953.95 230.00 C 1944.45 223.27 1937.11 213.35 1934.11 202.04 C 1929.66 185.04 1932.39 165.50 1943.97 151.84 C 1952.69 141.06 1965.89 134.56 1979.52 132.80 M 1986.52 159.77 C 1979.29 161.85 1974.35 168.66 1973.01 175.85 C 1971.50 183.64 1971.53 191.88 1973.76 199.54 C 1975.84 206.81 1982.32 212.98 1990.07 213.42 C 1996.75 214.15 2003.60 210.80 2007.12 205.07 C 2010.93 198.80 2011.37 191.18 2011.28 184.03 C 2011.09 176.85 2009.58 169.01 2004.11 163.90 C 1999.60 159.35 1992.57 157.96 1986.52 159.77 Z" />
<path fill="#000000" opacity="1.00" d=" M 2076.12 144.12 C 2083.72 136.57 2094.57 133.62 2104.97 132.61 C 2115.28 131.67 2125.70 131.78 2136.01 132.89 C 2144.01 133.72 2152.04 136.39 2158.23 141.70 C 2163.94 146.47 2167.56 153.19 2170.29 160.01 C 2157.75 161.19 2145.22 162.32 2132.69 163.52 C 2131.53 160.88 2130.33 158.04 2127.89 156.35 C 2122.86 152.82 2116.25 152.40 2110.41 153.64 C 2106.57 154.41 2102.86 157.84 2103.49 162.03 C 2104.02 166.23 2108.59 167.67 2112.13 168.45 C 2127.95 171.76 2145.17 171.15 2159.52 179.55 C 2167.36 184.27 2172.93 192.75 2173.63 201.93 C 2174.39 210.50 2171.11 219.11 2165.58 225.58 C 2160.07 231.73 2152.41 235.62 2144.52 237.78 C 2133.61 240.60 2122.22 240.75 2111.03 240.32 C 2101.12 239.74 2090.93 238.60 2081.95 234.09 C 2072.30 229.12 2065.71 219.47 2063.40 208.99 C 2076.55 207.82 2089.70 206.67 2102.85 205.48 C 2104.41 209.14 2106.21 212.98 2109.60 215.32 C 2113.73 218.25 2119.05 218.71 2123.98 218.39 C 2128.17 218.09 2132.61 216.79 2135.50 213.55 C 2137.90 210.89 2137.88 206.32 2135.20 203.87 C 2132.69 201.50 2129.15 200.91 2125.95 200.09 C 2113.35 197.36 2100.44 195.89 2088.16 191.84 C 2077.17 188.21 2068.34 177.76 2067.90 166.01 C 2067.31 157.97 2070.25 149.71 2076.12 144.12 Z" />
<path fill="#000000" opacity="1.00" d=" M 989.59 134.50 C 1002.92 134.50 1016.26 134.50 1029.59 134.50 C 1029.61 154.00 1029.55 173.50 1029.62 193.00 C 1029.78 198.01 1030.61 203.88 1035.00 207.04 C 1041.28 211.41 1050.97 209.83 1055.38 203.49 C 1058.87 198.43 1059.26 192.02 1059.49 186.07 C 1059.58 168.88 1059.50 151.69 1059.53 134.50 C 1072.79 134.50 1086.05 134.50 1099.31 134.50 C 1099.31 169.01 1099.31 203.52 1099.31 238.03 C 1086.93 238.03 1074.54 238.03 1062.16 238.03 C 1062.15 232.50 1062.15 226.96 1062.16 221.43 C 1056.22 228.67 1049.09 235.60 1039.91 238.38 C 1032.17 240.73 1023.83 241.10 1015.88 239.71 C 1006.94 238.13 998.62 232.56 994.45 224.40 C 989.90 215.71 989.45 205.63 989.59 196.02 C 989.60 175.51 989.59 155.01 989.59 134.50 Z" />
<path fill="#000000" opacity="1.00" d=" M 0.00 336.71 C 1.02 335.58 2.22 334.49 3.87 334.80 C 228.59 334.77 453.32 334.80 678.04 334.79 C 680.53 334.27 681.92 336.20 683.18 338.00 L 681.10 338.00 C 679.10 337.57 677.07 337.28 675.03 337.28 C 452.37 337.31 229.71 337.27 7.05 337.29 C 5.11 337.33 3.19 337.65 1.28 338.00 L 0.00 338.00 L 0.00 336.71 Z" />
</g>
<g id="#fed109ff">
<path fill="#fed109" opacity="1.00" d=" M 308.22 16.20 C 333.44 5.15 362.48 3.31 388.96 10.79 C 417.43 18.73 442.60 37.60 458.43 62.53 C 473.86 86.46 480.38 115.88 476.71 144.10 C 473.05 174.02 457.70 202.24 434.78 221.77 C 431.63 213.85 428.47 205.93 425.30 198.02 C 439.45 183.14 449.31 164.15 452.41 143.79 C 455.91 122.35 452.41 99.55 441.25 80.78 C 427.40 56.26 402.90 37.67 375.15 32.17 C 357.93 29.08 339.75 30.04 323.31 36.22 C 296.22 46.36 273.94 68.69 263.98 95.86 C 250.55 132.30 262.77 175.42 290.91 201.56 C 288.27 209.75 285.61 217.93 282.96 226.12 C 260.89 209.35 244.77 184.91 238.20 157.97 C 231.87 132.35 234.04 104.70 244.46 80.44 C 256.50 51.95 279.78 28.39 308.22 16.20 Z" />
<path fill="#fed109" opacity="1.00" d=" M 514.21 10.75 C 553.12 26.74 592.02 42.75 630.92 58.76 C 630.77 64.79 630.51 70.82 630.37 76.85 C 588.54 59.54 546.72 42.24 504.92 24.86 C 508.02 20.16 511.09 15.44 514.21 10.75 Z" />
<path fill="#fed109" opacity="1.00" d=" M 69.65 38.20 C 84.66 29.25 99.67 20.30 114.68 11.34 C 116.63 13.91 118.56 16.49 120.49 19.07 C 104.89 28.45 89.30 37.84 73.66 47.14 C 72.33 44.16 70.99 41.18 69.65 38.20 Z" />
<path fill="#fed109" opacity="1.00" d=" M 79.89 47.34 C 93.09 39.49 106.22 31.53 119.38 23.61 C 116.11 34.90 117.60 47.09 122.21 57.78 C 117.02 60.95 111.83 64.11 106.63 67.28 C 100.69 57.60 91.63 48.82 79.89 47.34 Z" />
<path fill="#fed109" opacity="1.00" d=" M 508.15 29.87 C 546.78 45.83 585.37 61.89 623.99 77.87 C 605.54 79.19 586.79 88.06 577.34 104.54 C 559.92 96.98 542.50 89.44 525.09 81.89 C 526.99 63.06 519.09 44.77 508.15 29.87 Z" />
<path fill="#fed109" opacity="1.00" d=" M 128.32 58.29 C 132.19 57.09 136.28 61.12 135.18 65.02 C 134.63 67.88 131.73 69.13 129.54 70.55 C 123.24 74.24 117.14 78.27 110.80 81.87 C 107.31 84.15 102.20 81.13 102.45 76.99 C 102.30 72.89 106.61 71.31 109.46 69.44 C 115.81 65.84 121.74 61.46 128.32 58.29 Z" />
<path fill="#fed109" opacity="1.00" d=" M 115.04 83.28 C 120.37 80.03 125.70 76.77 131.03 73.51 C 153.87 110.31 181.78 144.03 213.93 173.06 C 227.41 185.10 241.65 196.33 256.90 206.06 C 259.35 207.56 261.09 209.87 262.95 212.01 C 268.58 218.52 275.04 224.26 281.87 229.47 C 280.40 234.09 278.89 238.70 277.41 243.31 C 245.15 227.90 216.30 206.09 190.64 181.34 C 160.93 152.52 134.85 119.69 115.04 83.28 Z" />
<path fill="#fed109" opacity="1.00" d=" M 514.51 84.70 C 517.45 83.00 521.01 83.61 523.93 85.02 C 542.28 93.07 560.73 100.86 579.05 108.96 C 584.13 111.17 585.99 118.18 582.76 122.65 C 580.35 126.42 575.15 127.85 571.12 125.92 C 552.28 117.76 533.39 109.67 514.61 101.38 C 507.89 98.44 507.88 87.76 514.51 84.70 Z" />
<path fill="#fed109" opacity="1.00" d=" M 517.07 106.15 C 533.94 113.45 550.80 120.76 567.67 128.07 C 559.61 145.53 548.17 161.23 535.27 175.40 C 509.44 203.63 477.76 226.44 442.99 242.36 C 440.68 236.59 438.38 230.80 436.08 225.03 C 445.20 217.48 452.91 208.43 459.79 198.84 C 485.28 172.46 502.73 139.60 517.07 106.15 Z" />
<path fill="#fed109" opacity="1.00" d=" M 298.45 197.52 C 301.36 196.56 304.71 198.50 305.52 201.41 C 306.15 203.19 305.34 205.02 304.87 206.73 C 299.88 221.79 295.14 236.93 290.14 251.98 C 289.21 255.68 284.17 257.16 281.29 254.74 C 278.97 253.09 278.55 249.92 279.57 247.40 C 284.35 232.55 289.20 217.72 293.97 202.87 C 294.62 200.57 295.90 198.08 298.45 197.52 Z" />
<path fill="#fed109" opacity="1.00" d=" M 414.39 197.17 C 417.42 195.38 421.64 197.10 422.68 200.44 C 428.55 214.96 434.25 229.55 440.12 244.07 C 441.07 246.34 441.92 249.10 440.32 251.31 C 438.23 255.03 431.95 254.78 430.41 250.72 C 424.19 235.44 418.17 220.07 412.03 204.75 C 410.67 202.07 411.75 198.60 414.39 197.17 Z" />
<path fill="#fed109" opacity="1.00" d=" M 312.32 202.50 C 316.55 200.86 321.30 205.62 319.49 209.84 C 314.68 224.93 309.70 239.96 304.90 255.05 C 304.25 257.61 302.79 260.43 299.86 260.77 C 295.75 261.71 291.88 257.15 293.42 253.23 C 298.17 238.14 303.17 223.13 307.98 208.05 C 308.66 205.76 309.78 203.18 312.32 202.50 Z" />
<path fill="#fed109" opacity="1.00" d=" M 400.37 203.20 C 403.31 201.20 407.75 202.74 408.85 206.12 C 414.83 220.84 420.62 235.64 426.55 250.38 C 427.67 252.78 428.03 255.90 426.00 257.94 C 423.48 261.02 417.89 260.20 416.57 256.37 C 410.43 241.17 404.42 225.91 398.33 210.69 C 396.99 208.10 397.87 204.72 400.37 203.20 Z" />
<path fill="#fed109" opacity="1.00" d=" M 326.35 207.47 C 330.62 205.78 335.38 210.58 333.56 214.83 C 328.84 229.62 323.95 244.36 319.26 259.17 C 318.76 260.64 318.31 262.16 317.52 263.51 C 315.63 266.28 311.17 266.61 308.90 264.13 C 307.06 262.45 306.83 259.71 307.68 257.47 C 312.37 242.87 317.16 228.30 321.82 213.70 C 322.58 211.23 323.56 208.25 326.35 207.47 Z" />
<path fill="#fed109" opacity="1.00" d=" M 387.52 208.63 C 390.39 207.37 394.05 208.95 395.10 211.92 C 401.02 226.39 406.65 240.98 412.54 255.47 C 413.67 257.98 414.57 261.17 412.56 263.51 C 410.19 266.89 404.22 266.24 402.86 262.27 C 396.69 247.01 390.67 231.70 384.55 216.42 C 383.13 213.55 384.53 209.80 387.52 208.63 Z" />
<path fill="#fed109" opacity="1.00" d=" M 340.31 212.45 C 344.68 210.58 349.52 215.55 347.67 219.91 C 342.67 235.52 337.63 251.13 332.51 266.71 C 331.54 270.13 327.12 271.86 324.11 269.94 C 321.55 268.49 320.65 265.16 321.74 262.50 C 326.51 247.63 331.38 232.80 336.14 217.93 C 336.82 215.71 337.85 213.17 340.31 212.45 Z" />
<path fill="#fed109" opacity="1.00" d=" M 373.47 214.63 C 376.37 213.11 380.29 214.66 381.37 217.77 C 387.43 232.72 393.34 247.74 399.33 262.73 C 400.43 265.13 400.28 268.26 398.16 270.06 C 395.40 272.81 390.20 271.56 388.94 267.89 C 382.81 252.71 376.79 237.48 370.74 222.26 C 369.45 219.49 370.70 215.94 373.47 214.63 Z" />
<path fill="#fed109" opacity="1.00" d=" M 349.13 226.27 C 355.59 226.67 362.07 226.38 368.51 225.68 C 371.59 233.42 374.69 241.16 377.76 248.91 C 365.80 251.04 353.54 251.38 341.47 249.96 C 344.01 242.06 346.58 234.17 349.13 226.27 Z" />
<path fill="#fed109" opacity="1.00" d=" M 197.43 241.42 C 215.06 238.42 232.70 235.40 250.34 232.42 C 255.18 235.30 260.05 238.15 265.03 240.80 C 253.18 242.93 241.34 245.11 229.51 247.32 C 226.70 247.89 223.78 248.13 221.10 249.21 C 221.07 249.62 221.01 250.46 220.98 250.88 C 223.85 254.39 227.34 257.35 230.45 260.65 C 218.60 262.91 206.72 265.08 194.87 267.38 C 191.71 268.03 188.44 268.32 185.40 269.48 C 185.32 269.86 185.14 270.62 185.06 271.00 C 187.35 273.72 190.20 275.91 192.77 278.37 C 174.19 281.43 155.49 283.86 136.99 287.29 C 136.80 287.72 136.43 288.58 136.24 289.01 C 139.98 292.52 144.42 295.17 148.44 298.33 C 124.43 296.28 100.40 294.46 76.38 292.42 C 93.06 283.50 109.76 274.66 126.46 265.79 C 124.87 269.52 122.59 273.00 121.63 276.97 C 122.73 278.51 124.58 277.68 126.12 277.54 C 138.89 275.24 151.67 272.95 164.46 270.77 C 166.69 270.34 169.15 270.18 170.76 268.36 C 167.37 264.37 163.71 260.62 160.20 256.73 C 174.45 254.26 188.80 252.32 203.00 249.60 C 203.17 249.21 203.52 248.41 203.69 248.02 C 201.86 245.59 199.56 243.57 197.43 241.42 Z" />
<path fill="#fed109" opacity="1.00" d=" M 449.83 242.86 C 455.22 240.22 460.54 237.47 465.79 234.56 C 479.24 236.81 492.67 239.17 506.12 241.41 C 503.99 243.56 501.66 245.53 499.91 248.00 C 499.87 250.32 502.57 249.91 504.15 250.39 C 517.22 252.45 530.28 254.60 543.33 256.73 C 539.82 260.59 536.22 264.37 532.78 268.29 C 534.58 270.39 537.46 270.41 539.96 270.92 C 553.09 273.12 566.17 275.60 579.29 277.80 C 580.50 278.21 581.90 277.68 581.81 276.22 C 580.58 272.59 578.61 269.28 577.07 265.79 C 593.77 274.66 610.48 283.50 627.15 292.42 C 603.14 294.45 579.11 296.28 555.10 298.33 C 559.11 295.14 563.64 292.56 567.29 288.94 C 567.17 286.65 564.57 286.97 562.96 286.51 C 545.57 283.76 528.16 281.12 510.77 278.37 C 513.37 275.91 516.21 273.68 518.54 270.95 C 518.39 270.54 518.07 269.74 517.91 269.33 C 503.07 266.01 488.01 263.61 473.09 260.64 C 476.23 257.34 479.71 254.34 482.62 250.81 C 482.54 250.38 482.38 249.51 482.30 249.07 C 471.57 246.61 460.65 244.94 449.83 242.86 Z" />
<path fill="#fed109" opacity="1.00" d=" M 340.43 253.18 C 353.25 254.78 366.31 254.40 379.02 252.07 C 380.16 254.93 381.30 257.79 382.45 260.66 C 367.65 262.76 352.59 263.32 337.73 261.51 C 338.62 258.73 339.52 255.95 340.43 253.18 Z" />
<path fill="#fed109" opacity="1.00" d=" M 257.94 263.61 C 265.02 261.63 272.07 259.55 279.16 257.61 C 282.52 259.59 286.52 259.62 290.01 257.93 C 291.46 261.00 294.05 263.25 297.27 264.29 C 292.49 266.04 286.47 265.88 282.82 269.79 C 285.93 272.15 289.22 274.25 292.46 276.43 C 282.72 279.32 273.01 282.33 263.26 285.17 C 261.78 285.62 260.32 286.14 259.00 286.95 C 259.10 288.03 259.59 288.87 260.49 289.46 C 264.13 292.08 267.98 294.40 271.67 296.96 C 254.51 302.44 237.35 307.93 220.17 313.37 C 218.72 313.86 217.00 314.27 216.53 315.97 C 220.80 319.62 226.14 321.73 230.82 324.81 C 208.22 323.91 185.60 323.31 163.00 322.43 C 178.94 313.25 194.88 304.05 210.84 294.89 C 210.16 298.24 209.16 301.57 208.95 305.00 C 209.22 305.25 209.74 305.75 210.00 306.00 C 215.06 305.00 219.86 303.01 224.82 301.61 C 231.39 299.44 238.13 297.77 244.59 295.33 C 246.31 294.02 244.37 292.68 243.31 291.78 C 239.53 288.86 235.67 286.07 231.89 283.15 C 242.58 280.37 253.22 277.47 263.90 274.68 C 265.33 274.18 267.57 274.08 267.47 272.02 C 264.61 268.88 261.10 266.43 257.94 263.61 Z" />
<path fill="#fed109" opacity="1.00" d=" M 429.65 259.06 C 434.95 260.62 440.28 262.08 445.60 263.60 C 442.44 266.43 438.92 268.88 436.06 272.02 C 435.92 274.06 438.13 274.13 439.57 274.66 C 450.26 277.49 460.94 280.31 471.62 283.16 C 466.98 286.85 461.96 290.08 457.63 294.15 C 459.12 295.27 460.77 296.17 462.58 296.66 C 472.03 299.50 481.44 302.47 490.85 305.42 C 491.97 305.48 494.33 306.87 494.50 304.91 C 494.48 301.50 493.30 298.22 492.70 294.90 C 508.67 304.04 524.59 313.26 540.55 322.43 C 517.93 323.31 495.30 323.91 472.68 324.81 C 477.21 321.95 482.15 319.71 486.48 316.55 C 487.63 314.58 484.94 313.94 483.60 313.45 C 466.34 307.97 449.10 302.46 431.85 296.96 C 436.05 293.90 440.82 291.57 444.61 287.98 C 444.21 286.12 442.34 285.82 440.83 285.33 C 430.89 282.45 421.00 279.38 411.08 276.42 C 414.31 274.25 417.59 272.16 420.71 269.83 C 419.41 267.63 416.84 267.22 414.62 266.51 C 415.45 265.07 416.25 263.62 417.02 262.15 C 421.49 264.14 426.63 262.93 429.65 259.06 Z" />
<path fill="#fed109" opacity="1.00" d=" M 381.04 264.15 C 381.70 264.07 383.02 263.91 383.69 263.82 C 384.32 265.39 384.97 266.97 385.62 268.54 C 384.80 268.74 383.17 269.12 382.35 269.32 C 381.92 267.59 381.47 265.87 381.04 264.15 Z" />
<path fill="#fed109" opacity="1.00" d=" M 336.04 269.18 C 334.60 268.76 335.79 265.16 337.13 264.95 C 337.61 266.36 337.01 268.09 336.04 269.18 Z" />
<path fill="#fed109" opacity="1.00" d=" M 328.01 274.30 C 330.35 273.64 332.81 271.33 335.27 272.78 C 338.56 274.26 339.23 279.16 336.44 281.45 C 334.48 283.48 331.51 282.44 329.28 281.58 C 326.79 279.96 327.15 276.73 328.01 274.30 Z" />
<path fill="#fed109" opacity="1.00" d=" M 383.46 272.70 C 386.98 270.82 391.84 274.04 391.32 278.03 C 391.05 282.64 383.77 284.35 381.35 280.55 C 379.42 278.00 380.53 273.95 383.46 272.70 Z" />
<path fill="#fed109" opacity="1.00" d=" M 318.59 290.65 C 322.03 282.49 335.22 283.79 338.36 291.49 C 339.18 295.62 338.46 299.89 338.54 304.07 C 338.25 309.72 338.75 315.43 338.04 321.04 C 335.86 324.24 331.33 323.34 328.01 323.73 C 324.09 323.42 320.54 326.71 316.64 325.31 C 312.89 323.76 310.76 320.06 308.17 317.15 C 311.68 308.33 314.95 299.41 318.59 290.65 Z" />
<path fill="#fed109" opacity="1.00" d=" M 379.90 293.94 C 379.79 288.32 386.00 285.04 390.98 285.09 C 395.14 284.87 399.06 287.64 400.41 291.55 C 403.81 300.05 407.05 308.62 410.41 317.14 C 407.13 320.92 403.47 327.32 397.49 325.28 C 392.70 322.94 387.21 324.41 382.32 322.67 C 379.94 321.84 380.30 319.04 380.21 317.05 C 380.17 309.35 379.95 301.64 379.90 293.94 Z" />
<path fill="#fed109" opacity="1.00" d=" M 1.28 338.00 C 3.19 337.65 5.11 337.33 7.05 337.29 C 229.71 337.27 452.37 337.31 675.03 337.28 C 677.07 337.28 679.10 337.57 681.10 338.00 L 1.28 338.00 Z" />
</g>
</svg>
