<?xml version="1.0" encoding="utf-8"?>
<!-- Generator: Adobe Illustrator 16.0.0, SVG Export Plug-In . SVG Version: 6.00 Build 0)  -->
<!DOCTYPE svg PUBLIC "-//W3C//DTD SVG 1.1//EN" "http://www.w3.org/Graphics/SVG/1.1/DTD/svg11.dtd">
<svg version="1.1" id="Ebene_1" xmlns="http://www.w3.org/2000/svg" xmlns:xlink="http://www.w3.org/1999/xlink" x="0px" y="0px"
	 width="1000px" height="250px" viewBox="0 0 1000 250" enable-background="new 0 0 1000 250" xml:space="preserve">
<g>
	<defs>
		<filter id="Adobe_OpacityMaskFilter" filterUnits="userSpaceOnUse" x="0" y="14.549" width="1000" height="221.545">
			<feColorMatrix  type="matrix" values="1 0 0 0 0  0 1 0 0 0  0 0 1 0 0  0 0 0 1 0"/>
		</filter>
	</defs>
	<mask maskUnits="userSpaceOnUse" x="0" y="14.549" width="1000" height="221.545" id="SVGID_1_">
		<g filter="url(#Adobe_OpacityMaskFilter)">
		</g>
	</mask>
	<polygon mask="url(#SVGID_1_)" fill-rule="evenodd" clip-rule="evenodd" fill="#F9C100" points="0,236.094 1000,236.094 
		1000,14.549 0,14.549 0,236.094 	"/>
	<path fill-rule="evenodd" clip-rule="evenodd" fill="#34312F" d="M832.642,167.076c-62.96-0.056-87.309-54.797-84.036-96.333
		l18.498-5.85c-3.014,23.577,4.269,40.608,9.35,48.416c-6.003-33.392,19.167-60.445,50.735-60.445
		c28.383-0.049,51.856,20.735,51.753,50.448c4.174-11.34,7.034-28.653,7.623-40.712l42.641,10.621
		C925.809,123.223,888.268,167.076,832.642,167.076L832.642,167.076z M893.887,195.979l-24.217-24.522h23.979l24.247,24.522H893.887
		L893.887,195.979L893.887,195.979z M861.5,195.979l-24.277-24.522h24.048l24.24,24.522H861.5L861.5,195.979L861.5,195.979z
		 M807.418,195.979h-24.039l24.246-24.522h24.035L807.418,195.979L807.418,195.979L807.418,195.979z M750.972,195.979l24.272-24.522
		h24.004l-24.24,24.522H750.972L750.972,195.979L750.972,195.979z M827.261,70.279c-18.808,0-34.062,15.275-34.062,34.088
		c0,18.809,15.255,34.083,34.062,34.083c18.861,0,34.113-15.275,34.113-34.083C861.374,85.554,846.122,70.279,827.261,70.279
		L827.261,70.279z"/>
	<path fill-rule="evenodd" clip-rule="evenodd" fill="#34312F" d="M699.518,172.23c-10.846,0-16.816-6.681-16.816-17.191v-27.125
		h-10.229v-10.104h10.229v-10.639l13.86-4.433v15.071h12.26v10.104h-12.26v24.84c0,4.53,1.211,8.728,6.493,8.728
		c2.473,0,4.87-0.513,6.309-1.391l0.386,10.896C706.869,171.842,703.675,172.23,699.518,172.23L699.518,172.23L699.518,172.23z
		 M645.472,172.23c-5.281,0-10.644-0.96-15.689-2.276l0.793-11.334c4.356,2.195,8.889,3.479,13.628,3.479
		c3.556,0,9.103-1.284,9.103-6.491c0-10.433-24.061-3.294-24.061-22.517c0-11.486,10.018-16.542,20.894-16.542
		c6.49,0,10.712,1.061,15.044,1.988l-0.909,10.438c-4.247-1.472-7.34-2.301-12.385-2.301c-3.708,0-8.172,1.371-8.172,5.954
		c0,8.425,24.065,3.008,24.065,22.234C667.782,167.338,656.758,172.23,645.472,172.23L645.472,172.23L645.472,172.23z
		 M595.593,172.23c-17.569,0-27.8-12.14-27.8-27.47c0-17.573,12.087-28.211,27.8-28.211c15.815,0,27.901,10.638,27.901,28.211
		C623.494,160.091,613.263,172.23,595.593,172.23L595.593,172.23L595.593,172.23z M540.104,143.632h-6.118v27.355h-14.45v-72.08
		h18.293c15.695,0,30.062,4.532,30.062,21.771C567.891,137.491,555.587,143.632,540.104,143.632L540.104,143.632L540.104,143.632z
		 M467.679,162.1c6.691,0,12.493-2.474,17.648-5.359v11.255c-5.051,2.819-10.797,4.235-18.295,4.235
		c-17.544,0-27.774-10.131-27.774-27.574c0-15.378,8.169-28.107,24.712-28.107c19.734,0,25.297,13.552,25.297,32.178H452.5
		C453.124,157.284,459.095,162.1,467.679,162.1L467.679,162.1L467.679,162.1z M432.567,170.987h-13.842v-28.44
		c0-6.49-0.104-15.256-8.992-15.256c-10.016,0-12.188,10.852-12.188,17.671v26.025h-13.828V93.513h13.828v31.483h0.207
		c3.502-5.147,9.504-8.447,16.721-8.447c12.625,0,18.094,8.916,18.094,20.898V170.987L432.567,170.987z M362.667,172.23
		c-17.472,0-26.231-11.907-26.231-28.08c0-15.391,9.101-27.601,25.741-27.601c5.535,0,9.584,0.647,13.421,1.732l-1.264,10.997
		c-2.469-1.133-5.153-1.987-9.375-1.987c-8.612,0-14.067,6.831-14.067,16.859c0,9.785,4.661,17.331,14.371,17.331
		c3.918,0,8.267-1.391,10.646-2.496l0.591,11.456C372.48,171.687,368.333,172.23,362.667,172.23L362.667,172.23L362.667,172.23z
		 M308.845,172.23c-5.284,0-10.64-0.96-15.69-2.276l0.793-11.334c4.355,2.195,8.919,3.479,13.657,3.479
		c3.509,0,9.078-1.284,9.078-6.491c0-10.433-24.071-3.294-24.071-22.517c0-11.486,10.021-16.542,20.899-16.542
		c6.458,0,10.712,1.061,15.073,1.988l-0.958,10.438c-4.228-1.472-7.346-2.301-12.396-2.301c-3.678,0-8.144,1.371-8.144,5.954
		c0,8.425,24.063,3.008,24.063,22.234C331.151,167.338,320.123,172.23,308.845,172.23L308.845,172.23L308.845,172.23z
		 M276.203,172.23c-10.87,0-16.855-6.681-16.855-17.191v-27.125h-10.198v-10.104h10.198v-10.639l13.86-4.433v15.071h12.328v10.104
		h-12.328v24.84c0,4.53,1.245,8.728,6.521,8.728c2.476,0,4.848-0.513,6.289-1.391l0.439,10.896
		C283.547,171.842,280.351,172.23,276.203,172.23L276.203,172.23L276.203,172.23z M242.89,170.987H229.75v-7.212h-0.207
		c-4.247,5.146-10.2,8.455-17.465,8.455c-12.579,0-18.062-8.87-18.062-20.844v-33.576h13.866v28.396
		c0,6.547,0.097,15.274,8.985,15.274c9.998,0,12.157-10.84,12.157-17.664v-26.007h13.865V170.987L242.89,170.987z M166.108,162.1
		c6.759,0,12.499-2.474,17.679-5.359v11.255c-5.045,2.819-10.847,4.235-18.29,4.235c-17.549,0-27.773-10.131-27.773-27.574
		c0-15.378,8.163-28.107,24.676-28.107c19.74,0,25.309,13.552,25.309,32.178h-36.778C151.555,157.284,157.562,162.1,166.108,162.1
		L166.108,162.1L166.108,162.1z M90.601,170.987H70.867v-72.08h19.734c22.076,0,41.609,7.441,41.609,36.069
		C132.209,163.568,112.677,170.987,90.601,170.987L90.601,170.987L90.601,170.987z M163.23,126.675
		c-7.761,0-11.675,5.417-12.299,12.499h23.557C174.068,132.45,170.982,126.675,163.23,126.675L163.23,126.675z M93.383,110.259
		h-8.034v49.367h8.034c12.085,0,23.753-8.984,23.753-24.649C117.136,119.208,105.468,110.259,93.383,110.259L93.383,110.259z
		 M539.043,110.259h-5.057v21.983h5.057c7.267,0,13.758-2.316,13.758-10.74C552.801,113.176,546.511,110.259,539.043,110.259
		L539.043,110.259z M595.593,127.291c-8.993,0-13.343,7.855-13.343,15.848c0,8.76,2.812,18.343,13.343,18.343
		c10.612,0,13.419-9.479,13.419-18.343C609.012,134.977,604.688,127.291,595.593,127.291L595.593,127.291z M464.794,126.675
		c-7.759,0-11.67,5.417-12.293,12.499h23.524C475.639,132.45,472.546,126.675,464.794,126.675L464.794,126.675z"/>
</g>
<g>
</g>
<g>
</g>
<g>
</g>
<g>
</g>
<g>
</g>
<g>
</g>
</svg>
