<?xml version="1.0" encoding="utf-8"?>
<!-- Generator: Adobe Illustrator 12.0.1, SVG Export Plug-In . SVG Version: 6.00 Build 51448)  -->
<!DOCTYPE svg PUBLIC "-//W3C//DTD SVG 1.1//EN" "http://www.w3.org/Graphics/SVG/1.1/DTD/svg11.dtd" [
	<!ENTITY ns_svg "http://www.w3.org/2000/svg">
	<!ENTITY ns_xlink "http://www.w3.org/1999/xlink">
]>
<svg  version="1.1" id="Layer_2" xmlns="&ns_svg;" xmlns:xlink="&ns_xlink;" width="154.577" height="122.861"
	 viewBox="0 0 154.577 122.861" overflow="visible" enable-background="new 0 0 154.577 122.861" xml:space="preserve">
<g>
	<g>
		<g>
			<path fill="#231F20" d="M117.225,8.598c0,0,0.943,28.15-4.838,36.077C114.549,24.798,97.079,0,69.281,0
				C32.047,0,22.634,31.807,24.737,45.533c-6.779-9-5.385-36.935-5.385-36.935L0.057,8.771c0,70.26,46.016,88.297,74.509,88.297
				c53.312,0,80.01-47.911,80.01-88.469H117.225z M68.928,69.607c-14.595,0-26.426-11.832-26.426-26.426
				c0-14.594,11.831-26.425,26.426-26.425c14.595,0,26.426,11.831,26.426,26.425C95.354,57.776,83.523,69.607,68.928,69.607z"/>
		</g>
	</g>
	<polygon fill="#231F20" points="0,107.178 15.855,91.322 31.941,91.322 23.922,101.026 51.381,100.974 42.051,114.418 
		24.011,114.418 31.941,122.812 15.855,122.812 	"/>
	<polygon fill="#231F20" points="75.062,100.974 56.962,100.974 41.649,122.861 59.75,122.861 	"/>
	<polygon fill="#231F20" points="152.193,107.178 136.337,91.322 120.251,91.322 128.27,101.026 100.811,100.974 110.141,114.418 
		128.182,114.418 120.251,122.812 136.337,122.812 	"/>
	<polygon fill="#231F20" points="77.13,100.974 95.231,100.974 110.544,122.861 92.444,122.861 	"/>
</g>
</svg>
