<?xml version="1.0" encoding="UTF-8" ?>
<!DOCTYPE svg PUBLIC "-//W3C//DTD SVG 1.1//EN" "http://www.w3.org/Graphics/SVG/1.1/DTD/svg11.dtd">
<svg width="596pt" height="350pt" viewBox="0 0 596 350" version="1.1" xmlns="http://www.w3.org/2000/svg">
<g id="#ffffffff">
</g>
<g id="#000000ff">
<path fill="#000000" opacity="1.00" d=" M 283.62 40.97 C 300.86 38.85 319.07 43.41 332.75 54.26 C 344.83 63.75 353.87 78.27 353.80 93.97 C 353.71 97.69 354.29 101.79 352.03 105.03 C 346.69 113.94 339.83 122.17 331.21 128.08 C 333.92 124.01 336.98 120.07 338.51 115.36 C 342.67 103.79 340.55 91.03 336.37 79.79 C 333.47 71.46 326.84 64.84 319.08 60.89 C 311.34 56.81 302.69 54.58 293.99 53.90 C 276.63 53.83 259.93 62.83 249.30 76.34 C 244.52 82.51 242.40 90.29 241.91 97.98 C 241.71 112.86 247.60 128.46 259.88 137.47 C 261.16 135.49 262.35 132.76 265.05 132.54 C 268.21 131.75 270.06 135.53 273.11 135.18 C 275.40 134.85 277.22 136.20 279.09 137.30 C 282.79 136.97 286.46 138.31 290.11 137.26 C 292.37 136.64 294.16 138.32 295.79 139.59 C 297.87 137.10 300.93 136.76 303.92 137.53 C 305.94 135.16 308.88 134.76 311.79 135.41 C 313.38 134.25 314.82 132.36 316.99 132.48 C 319.36 132.33 320.96 134.42 322.77 135.60 C 333.59 128.46 344.67 121.00 352.19 110.19 C 356.84 103.65 359.91 95.98 360.84 88.01 C 374.20 93.19 387.56 98.38 400.90 103.62 C 389.53 122.23 373.13 137.78 353.62 147.59 C 345.66 151.68 337.25 154.89 328.66 157.38 C 328.73 159.97 329.58 163.27 327.06 165.05 C 325.35 166.80 322.91 166.31 320.84 165.64 C 319.70 166.60 318.62 167.64 317.35 168.42 C 315.03 168.92 312.35 167.53 310.47 169.48 C 308.66 171.19 306.16 170.51 303.96 170.33 C 305.03 174.02 305.95 177.79 307.74 181.23 C 309.88 185.65 309.61 191.20 313.12 194.90 C 315.57 197.45 315.77 201.16 316.72 204.39 C 317.71 209.07 319.51 213.61 319.85 218.42 C 315.43 211.54 316.30 202.45 312.13 195.39 C 312.74 203.65 316.78 211.30 317.21 219.57 C 313.48 212.10 312.95 203.49 310.15 195.67 C 309.79 195.18 309.05 194.22 308.69 193.73 C 309.96 202.62 313.47 211.03 314.83 219.90 C 311.75 216.64 312.04 211.62 310.52 207.57 C 308.94 203.19 309.00 198.05 306.09 194.26 C 306.94 203.25 310.88 211.66 311.95 220.61 C 311.10 219.52 310.27 218.38 310.00 217.00 C 308.37 210.90 306.93 204.75 305.28 198.66 C 304.95 197.23 304.27 195.93 303.30 194.85 C 304.44 203.79 308.37 212.19 309.33 221.13 C 306.83 217.80 306.67 213.45 305.38 209.60 C 303.88 204.83 303.49 199.60 300.76 195.30 C 301.81 204.35 305.48 212.90 306.82 221.92 C 305.89 221.12 305.26 220.13 304.94 218.97 C 302.86 212.21 301.93 205.09 299.26 198.52 C 299.72 206.67 303.66 214.22 304.24 222.37 C 301.92 219.54 301.81 215.73 300.74 212.37 C 299.81 207.94 297.78 203.62 298.24 199.01 C 299.06 193.73 295.61 189.05 295.30 183.88 C 295.57 178.90 293.88 174.03 292.01 169.48 C 291.00 173.32 289.72 177.14 289.37 181.12 C 289.35 185.56 287.91 189.82 287.10 194.15 C 286.20 196.74 288.11 199.25 287.60 201.87 C 286.74 206.37 285.30 210.74 284.31 215.21 C 283.60 217.79 283.33 220.66 281.46 222.73 C 281.96 214.61 286.19 207.06 286.12 198.92 C 282.71 206.28 282.86 214.88 279.03 222.03 C 279.61 213.04 283.87 204.65 284.42 195.69 C 284.08 196.21 283.40 197.26 283.06 197.78 C 281.31 204.52 279.79 211.31 278.04 218.05 C 277.78 219.35 277.00 220.42 276.22 221.46 C 277.19 213.08 280.37 205.10 281.73 196.78 C 281.59 196.28 281.31 195.27 281.17 194.77 C 277.95 203.19 277.59 212.58 273.69 220.71 C 274.25 211.69 278.22 203.19 279.23 194.19 C 276.44 197.87 276.47 202.76 275.12 207.03 C 273.76 211.30 273.70 216.10 271.18 219.92 C 271.71 210.84 275.90 202.34 276.54 193.27 C 275.65 194.56 274.97 195.99 274.63 197.52 C 273.11 203.73 271.61 209.95 270.00 216.13 C 269.76 217.38 268.98 218.39 268.21 219.35 C 268.96 211.44 272.35 204.02 273.22 196.12 C 269.49 203.13 270.15 211.79 266.06 218.61 C 266.14 213.90 267.93 209.47 268.88 204.91 C 269.83 201.62 270.09 198.00 272.15 195.15 C 275.78 190.67 274.61 184.28 277.46 179.43 C 279.59 175.95 279.87 171.75 281.01 167.91 C 279.17 169.01 277.48 171.04 275.12 170.68 C 273.30 170.70 272.04 169.21 270.68 168.23 C 267.42 169.42 264.28 168.33 262.14 165.69 C 260.32 166.08 258.21 166.89 256.61 165.47 C 253.93 164.11 254.04 160.87 253.60 158.32 C 226.62 147.99 202.83 129.05 187.69 104.34 C 184.38 99.09 181.59 93.53 178.95 87.92 C 182.75 86.38 186.52 84.78 190.29 83.18 C 197.34 101.61 210.60 117.04 226.31 128.73 C 230.36 132.00 235.49 134.29 237.85 139.22 C 215.17 129.18 198.81 108.62 189.14 86.26 C 188.47 86.60 187.13 87.27 186.46 87.61 C 198.16 112.19 216.55 135.06 242.13 145.95 C 247.43 147.91 250.95 152.95 256.48 154.48 C 254.16 151.41 250.57 149.78 247.78 147.22 C 235.84 137.04 229.31 121.52 228.61 106.00 C 228.03 91.06 231.87 75.32 241.78 63.80 C 252.13 51.21 267.44 42.86 283.62 40.97 M 309.48 50.99 C 314.46 54.19 319.97 56.61 324.56 60.43 C 333.96 67.63 340.46 78.35 342.84 89.92 C 344.08 95.10 344.10 100.46 344.88 105.71 C 347.72 93.80 345.71 80.56 338.41 70.58 C 331.36 61.01 320.72 54.45 309.48 50.99 M 249.49 64.47 C 238.87 76.58 231.97 92.70 233.49 109.02 C 234.97 124.89 244.88 138.97 257.43 148.31 C 257.50 147.59 257.65 146.15 257.72 145.44 C 246.25 135.86 237.47 122.16 236.43 106.99 C 235.07 89.32 243.36 71.95 255.97 59.91 C 258.61 57.22 261.85 55.22 264.48 52.53 C 258.45 54.98 253.83 59.78 249.49 64.47 M 361.54 106.56 C 359.26 110.60 355.94 113.92 353.51 117.85 C 360.99 111.65 366.59 103.08 369.62 93.85 C 369.16 93.42 368.23 92.54 367.77 92.10 C 365.82 96.97 364.42 102.11 361.54 106.56 M 373.96 95.34 C 364.83 115.58 345.61 128.42 327.63 140.13 C 331.94 139.00 335.79 136.72 339.69 134.66 C 355.70 125.98 369.61 113.05 378.34 96.98 C 376.87 96.44 375.42 95.88 373.96 95.34 M 390.21 102.23 C 384.83 116.02 373.83 126.52 362.98 136.15 C 375.72 127.92 387.38 116.95 393.70 102.94 C 392.53 102.70 391.37 102.46 390.21 102.23 M 263.31 136.41 C 260.96 143.26 259.27 150.33 257.07 157.24 C 256.37 159.06 256.37 161.00 256.63 162.91 C 257.33 162.77 258.74 162.49 259.44 162.36 C 261.99 155.27 263.66 147.92 265.97 140.76 C 266.61 138.96 266.66 137.05 266.63 135.17 C 265.57 135.57 263.62 134.96 263.31 136.41 M 314.61 140.42 C 316.94 148.07 318.95 155.81 321.51 163.38 C 322.26 163.51 323.75 163.76 324.50 163.89 C 324.56 162.03 324.61 160.13 323.98 158.35 C 321.92 151.61 320.11 144.79 317.98 138.08 C 317.66 136.37 316.38 135.33 314.70 135.10 C 314.37 136.85 313.93 138.69 314.61 140.42 M 272.07 137.89 C 269.61 144.71 268.04 151.83 265.81 158.73 C 265.25 161.15 263.35 164.07 265.96 165.97 C 267.07 164.60 268.15 163.16 268.56 161.41 C 270.39 155.23 272.10 149.00 273.99 142.83 C 274.70 141.06 274.47 139.15 274.33 137.30 C 273.77 137.45 272.63 137.74 272.07 137.89 M 306.12 138.39 C 306.36 145.15 309.44 151.41 311.00 157.93 C 312.29 161.16 311.95 166.17 316.37 166.72 C 317.06 162.88 315.38 159.30 314.37 155.70 C 312.58 149.85 311.11 143.91 309.02 138.16 C 308.30 138.22 306.84 138.33 306.12 138.39 M 280.17 139.94 C 278.24 144.42 277.39 149.31 275.88 153.95 C 274.75 158.50 272.67 162.89 272.58 167.64 C 273.27 167.29 274.66 166.60 275.35 166.26 C 277.48 161.64 278.33 156.53 279.92 151.71 C 280.93 147.60 283.09 143.61 282.44 139.27 C 281.88 139.43 280.74 139.77 280.17 139.94 M 287.68 139.34 C 287.59 141.49 287.23 143.71 287.89 145.80 C 291.08 157.20 294.24 168.61 297.26 180.05 C 298.79 179.80 300.33 179.54 301.87 179.29 C 299.18 168.98 296.24 158.74 293.48 148.46 C 292.44 144.89 292.14 140.19 287.68 139.34 M 299.23 139.31 C 298.79 140.02 297.89 141.45 297.45 142.16 C 299.62 150.03 301.93 157.85 304.29 165.66 C 304.59 167.25 306.12 167.99 307.24 168.95 C 307.52 168.22 308.08 166.77 308.36 166.05 C 306.54 158.57 304.07 151.26 302.04 143.84 C 301.67 142.02 300.50 140.59 299.23 139.31 M 287.12 151.07 C 284.64 160.12 282.82 169.34 280.41 178.41 C 281.96 178.80 283.51 179.20 285.06 179.59 C 286.31 172.99 288.33 166.57 289.57 159.98 C 289.28 156.90 288.11 153.98 287.12 151.07 M 276.05 192.24 C 277.98 192.70 279.90 193.19 281.83 193.63 C 282.61 189.57 283.42 185.52 284.45 181.52 C 282.55 181.05 280.65 180.59 278.74 180.20 C 277.78 184.20 276.86 188.20 276.05 192.24 M 296.92 182.66 C 297.67 186.68 299.02 190.55 299.98 194.53 C 301.91 194.06 303.84 193.59 305.79 193.20 C 304.70 189.14 303.47 185.11 302.22 181.09 C 300.44 181.59 298.68 182.13 296.92 182.66 Z" />
<path fill="#000000" opacity="1.00" d=" M 347.49 55.71 C 349.76 51.72 354.62 51.89 358.31 53.64 C 381.30 62.02 404.25 70.51 427.26 78.83 C 429.08 79.52 431.01 80.19 432.41 81.61 C 432.84 83.15 432.82 84.75 432.98 86.33 C 425.04 84.03 417.28 81.14 409.47 78.46 C 388.76 71.02 367.98 63.73 347.49 55.71 Z" />
<path fill="#000000" opacity="1.00" d=" M 167.37 68.63 C 172.92 65.78 179.05 64.30 184.97 62.46 C 185.42 63.18 186.30 64.62 186.74 65.34 C 184.99 67.40 182.27 67.92 179.84 68.77 C 176.13 69.91 172.54 71.53 168.65 71.97 C 168.33 71.14 167.69 69.47 167.37 68.63 Z" />
<path fill="#000000" opacity="1.00" d=" M 357.94 62.23 C 378.81 69.87 399.72 77.39 420.66 84.86 C 414.21 87.98 408.22 92.26 404.04 98.16 C 402.03 97.40 400.03 96.64 398.02 95.90 C 401.27 91.06 405.46 86.99 409.91 83.25 C 407.95 82.65 406.00 82.02 404.06 81.39 C 400.09 85.13 396.71 89.45 393.96 94.15 C 389.93 92.64 385.95 91.02 381.94 89.46 C 383.83 84.73 385.41 79.89 386.64 74.95 C 384.05 74.10 381.51 73.15 378.92 72.32 C 378.75 77.35 377.85 82.31 376.75 87.21 C 375.22 86.70 373.68 86.20 372.14 85.71 C 372.35 80.43 372.99 75.16 372.82 69.86 C 371.65 69.44 370.48 69.01 369.31 68.62 C 369.40 73.81 369.33 79.00 368.50 84.14 C 366.13 83.15 363.75 82.18 361.34 81.29 C 360.92 74.82 359.83 68.43 357.94 62.23 Z" />
<path fill="#000000" opacity="1.00" d=" M 173.18 72.91 C 177.19 71.64 181.12 70.13 185.17 68.97 C 185.97 71.57 186.86 74.15 187.77 76.72 C 183.83 78.08 179.95 79.61 176.02 80.98 C 175.07 78.29 174.08 75.62 173.18 72.91 M 180.82 71.32 C 181.19 73.08 181.56 74.84 181.89 76.61 C 182.66 76.49 184.20 76.25 184.97 76.13 C 184.59 74.48 184.20 72.84 183.79 71.20 C 183.04 71.23 181.56 71.29 180.82 71.32 Z" />
<path fill="#000000" opacity="1.00" d=" M 176.86 82.40 C 180.73 81.05 184.57 79.61 188.39 78.16 C 188.81 79.35 189.22 80.54 189.63 81.73 C 185.77 83.28 181.96 84.94 178.10 86.49 C 177.68 85.12 177.27 83.76 176.86 82.40 Z" />
<path fill="#000000" opacity="1.00" d=" M 361.21 82.96 C 375.21 88.50 389.20 94.08 403.17 99.68 C 402.81 100.27 402.07 101.45 401.70 102.04 C 388.13 97.00 374.73 91.51 361.18 86.41 C 361.18 85.26 361.19 84.11 361.21 82.96 Z" />
<path fill="#000000" opacity="1.00" d=" M 328.42 165.83 C 331.54 164.21 334.19 160.95 337.97 161.21 C 347.55 161.26 357.13 161.36 366.71 161.35 C 363.97 163.10 361.21 164.82 358.51 166.63 C 364.35 166.91 370.19 166.60 376.04 166.86 C 372.50 169.22 368.82 171.36 365.22 173.60 C 368.47 173.42 372.84 175.17 375.06 171.89 C 378.02 173.78 381.02 175.61 384.04 177.43 C 380.77 179.65 377.48 181.84 374.30 184.17 C 374.30 182.58 374.30 181.00 374.31 179.41 C 363.90 179.44 353.48 179.36 343.07 179.45 C 346.84 177.02 350.52 174.45 354.09 171.72 C 348.34 171.41 342.59 171.61 336.84 171.61 C 339.41 169.92 341.94 168.16 344.45 166.38 C 339.13 165.62 333.76 165.84 328.42 165.83 Z" />
<path fill="#000000" opacity="1.00" d=" M 224.99 162.95 C 233.30 162.71 241.63 162.64 249.95 162.77 C 252.66 164.06 255.08 165.88 257.61 167.49 C 253.21 167.60 248.80 167.52 244.41 167.81 C 246.68 169.76 249.17 171.45 251.59 173.21 C 245.91 173.41 240.21 173.08 234.53 173.41 C 238.09 175.94 241.67 178.43 245.32 180.84 C 234.11 180.80 222.90 180.89 211.69 180.78 C 211.69 182.42 211.71 184.06 211.72 185.70 C 208.44 183.48 205.22 181.19 201.90 179.04 C 205.16 177.10 208.41 175.14 211.52 172.96 C 211.74 173.62 212.17 174.92 212.39 175.57 C 215.89 175.42 219.41 175.57 222.91 175.37 C 219.39 172.77 215.54 170.65 211.78 168.42 C 218.76 168.39 225.74 168.63 232.71 168.31 C 230.24 166.37 227.54 164.76 224.99 162.95 Z" />
<path fill="#000000" opacity="1.00" d=" M 318.42 171.55 C 319.69 170.35 321.40 168.12 323.29 169.62 C 327.91 172.36 332.30 175.48 336.97 178.13 C 334.81 179.63 332.68 181.16 330.59 182.76 C 333.36 184.38 336.09 186.08 338.82 187.79 C 336.60 189.29 334.41 190.82 332.33 192.50 C 335.56 194.77 338.76 197.09 342.00 199.36 C 342.86 198.28 343.72 197.19 344.60 196.12 C 346.33 199.73 348.19 203.28 350.15 206.76 C 346.05 206.70 341.95 206.57 337.85 206.54 C 338.58 205.33 339.33 204.13 340.07 202.93 C 333.90 198.97 327.85 194.82 321.65 190.91 C 324.07 189.44 326.48 187.93 328.80 186.31 C 325.95 184.53 323.13 182.71 320.28 180.95 C 322.36 179.45 324.42 177.94 326.43 176.36 C 323.74 174.78 321.09 173.15 318.42 171.55 Z" />
<path fill="#000000" opacity="1.00" d=" M 249.03 179.82 C 254.08 176.58 259.20 173.46 264.20 170.13 C 265.33 171.11 266.45 172.08 267.60 173.06 C 264.89 174.71 262.21 176.40 259.47 178.01 C 261.52 179.54 263.58 181.06 265.58 182.65 C 262.71 184.40 259.87 186.21 257.02 188.00 C 259.41 189.49 261.81 190.96 264.24 192.39 C 258.25 196.54 252.08 200.43 246.01 204.45 C 246.66 205.71 247.36 206.94 248.05 208.19 C 243.96 208.30 239.88 208.38 235.79 208.42 C 237.71 204.92 239.59 201.39 241.32 197.79 C 242.18 198.84 243.04 199.90 243.92 200.94 C 247.23 198.68 250.47 196.31 253.70 193.94 C 251.51 192.43 249.32 190.92 247.14 189.40 C 249.92 187.71 252.67 185.97 255.37 184.15 C 253.25 182.70 251.15 181.25 249.03 179.82 Z" />
<path fill="#000000" opacity="1.00" d=" M 14.17 276.84 C 21.73 276.41 30.04 275.09 36.89 279.19 C 47.29 285.97 46.54 303.64 36.46 310.38 C 29.79 314.47 21.66 313.68 14.19 313.36 C 14.15 301.19 14.19 289.01 14.17 276.84 M 20.26 281.49 C 20.20 290.51 20.24 299.52 20.24 308.53 C 24.77 308.68 29.91 308.81 33.46 305.48 C 38.38 300.48 39.04 291.62 35.17 285.84 C 31.83 281.07 25.48 281.02 20.26 281.49 Z" />
<path fill="#000000" opacity="1.00" d=" M 50.21 276.48 C 57.03 276.55 63.85 276.52 70.68 276.48 C 70.65 278.25 70.65 280.02 70.67 281.80 C 65.94 281.76 61.20 281.79 56.47 281.72 C 56.45 285.00 56.45 288.30 56.42 291.59 C 60.87 291.60 65.32 291.60 69.78 291.58 C 69.78 293.32 69.78 295.07 69.79 296.82 C 65.34 296.76 60.90 296.84 56.45 296.75 C 56.45 300.56 56.43 304.37 56.49 308.18 C 61.50 308.16 66.50 308.19 71.51 308.14 C 71.48 309.86 71.46 311.58 71.45 313.30 C 64.38 313.31 57.31 313.27 50.24 313.32 C 50.26 301.04 50.31 288.76 50.21 276.48 Z" />
<path fill="#000000" opacity="1.00" d=" M 77.37 276.47 C 79.47 276.52 81.56 276.52 83.66 276.49 C 83.59 283.68 83.62 290.87 83.61 298.06 C 83.68 301.29 84.20 304.95 86.78 307.21 C 88.72 308.90 91.52 308.98 93.87 308.24 C 97.21 307.03 98.57 303.21 98.64 299.93 C 98.77 292.13 98.66 284.33 98.68 276.53 C 100.73 276.52 102.79 276.51 104.85 276.47 C 104.75 284.65 104.96 292.84 104.75 301.01 C 104.59 306.47 101.03 311.96 95.56 313.31 C 90.82 314.24 85.09 314.22 81.46 310.55 C 78.51 307.47 77.46 303.06 77.42 298.90 C 77.33 291.42 77.44 283.95 77.37 276.47 Z" />
<path fill="#000000" opacity="1.00" d=" M 109.41 276.50 C 118.34 276.53 127.26 276.52 136.18 276.50 C 136.20 278.27 136.22 280.04 136.26 281.81 C 132.76 281.82 129.26 281.85 125.76 281.79 C 125.85 292.31 125.77 302.83 125.81 313.34 C 123.72 313.30 121.63 313.28 119.55 313.28 C 119.60 302.79 119.58 292.30 119.56 281.80 C 116.17 281.82 112.78 281.83 109.38 281.85 C 109.42 280.06 109.42 278.28 109.41 276.50 Z" />
<path fill="#000000" opacity="1.00" d=" M 142.27 279.28 C 147.01 274.90 154.25 275.77 159.95 277.44 C 159.62 279.23 159.26 281.01 158.92 282.80 C 154.66 281.53 148.70 279.66 145.69 284.15 C 144.83 286.77 146.31 289.23 148.70 290.32 C 152.53 292.34 157.23 293.35 159.87 297.08 C 163.03 301.71 161.70 308.93 156.72 311.73 C 151.35 314.86 144.65 314.01 139.02 312.06 C 139.22 310.13 139.46 308.20 139.71 306.28 C 143.46 307.89 147.67 309.37 151.73 308.05 C 154.00 307.29 155.99 304.61 155.04 302.19 C 154.44 299.21 151.25 298.18 148.80 297.14 C 145.24 295.84 141.59 293.83 139.86 290.28 C 138.52 286.56 139.12 281.94 142.27 279.28 Z" />
<path fill="#000000" opacity="1.00" d=" M 174.52 278.61 C 180.04 275.31 186.84 275.82 192.90 277.04 C 192.71 278.90 192.47 280.75 192.22 282.60 C 187.29 280.96 181.24 280.39 176.96 283.90 C 171.23 288.90 170.86 298.69 175.49 304.52 C 179.58 309.35 186.65 308.97 192.17 307.24 C 192.40 308.98 192.66 310.71 192.91 312.45 C 186.68 314.21 179.48 314.67 173.70 311.29 C 162.48 304.31 163.17 285.13 174.52 278.61 Z" />
<path fill="#000000" opacity="1.00" d=" M 198.80 276.48 C 200.92 276.51 203.05 276.52 205.17 276.51 C 205.26 281.48 205.23 286.45 205.21 291.42 C 210.29 291.38 215.38 291.39 220.46 291.41 C 220.46 286.44 220.50 281.46 220.42 276.49 C 222.51 276.52 224.61 276.51 226.71 276.47 C 226.65 288.76 226.67 301.04 226.69 313.33 C 224.61 313.29 222.53 313.28 220.45 313.31 C 220.49 307.79 220.46 302.28 220.44 296.76 C 215.38 296.86 210.33 296.82 205.27 296.80 C 205.18 302.29 205.23 307.79 205.24 313.29 C 203.08 313.28 200.91 313.28 198.75 313.28 C 198.80 301.01 198.72 288.74 198.80 276.48 Z" />
<path fill="#000000" opacity="1.00" d=" M 234.45 276.49 C 241.24 276.52 248.03 276.53 254.82 276.47 C 254.82 278.24 254.84 280.01 254.88 281.79 C 250.14 281.76 245.40 281.84 240.66 281.70 C 240.68 285.00 240.67 288.31 240.69 291.61 C 245.22 291.56 249.75 291.60 254.28 291.61 C 254.28 293.33 254.28 295.05 254.30 296.77 C 249.76 296.81 245.21 296.84 240.67 296.73 C 240.67 300.55 240.67 304.38 240.68 308.22 C 245.73 308.10 250.77 308.25 255.82 308.11 C 255.78 309.84 255.76 311.57 255.76 313.31 C 248.65 313.29 241.54 313.29 234.44 313.30 C 234.48 301.03 234.46 288.76 234.45 276.49 Z" />
<path fill="#000000" opacity="1.00" d=" M 272.73 276.85 C 279.43 276.62 287.14 274.75 292.95 279.09 C 295.90 281.11 296.32 285.18 295.43 288.39 C 294.59 290.72 292.37 292.01 290.46 293.37 C 292.83 294.97 295.73 296.47 296.64 299.39 C 298.60 304.19 295.86 310.09 291.11 311.99 C 285.32 314.46 278.86 313.48 272.76 313.35 C 272.65 301.18 272.72 289.01 272.73 276.85 M 278.81 281.32 C 278.80 284.76 278.82 288.21 278.77 291.66 C 281.64 291.54 284.84 292.12 287.40 290.47 C 290.20 288.79 290.44 284.12 287.73 282.26 C 285.09 280.56 281.77 280.78 278.81 281.32 M 278.78 296.30 C 278.80 300.42 278.84 304.54 278.77 308.67 C 281.72 308.57 284.97 309.20 287.68 307.73 C 290.88 306.11 291.58 301.38 289.37 298.70 C 286.59 295.90 282.36 296.39 278.78 296.30 Z" />
<path fill="#000000" opacity="1.00" d=" M 303.22 276.47 C 305.32 276.51 307.42 276.52 309.52 276.50 C 309.45 283.68 309.47 290.85 309.49 298.03 C 309.47 300.67 309.80 303.44 311.29 305.70 C 313.66 309.72 320.35 309.65 322.80 305.75 C 324.31 303.48 324.58 300.68 324.56 298.03 C 324.54 290.85 324.60 283.68 324.51 276.50 C 326.59 276.53 328.68 276.52 330.77 276.48 C 330.69 283.98 330.77 291.48 330.73 298.98 C 330.76 303.58 329.24 308.56 325.42 311.41 C 321.52 314.27 316.21 314.24 311.69 313.16 C 306.44 311.60 303.65 306.08 303.41 300.92 C 303.08 292.78 303.40 284.62 303.22 276.47 Z" />
<path fill="#000000" opacity="1.00" d=" M 338.52 276.51 C 340.93 276.52 343.35 276.51 345.78 276.48 C 351.16 285.62 356.55 294.77 361.26 304.28 C 360.87 295.03 360.58 285.77 360.80 276.51 C 362.74 276.52 364.69 276.52 366.64 276.48 C 366.55 288.76 366.59 301.04 366.62 313.32 C 364.43 313.29 362.24 313.29 360.06 313.30 C 354.60 303.74 348.91 294.30 344.22 284.33 C 344.32 294.00 344.43 303.67 344.34 313.34 C 342.39 313.30 340.45 313.28 338.51 313.27 C 338.56 301.01 338.54 288.76 338.52 276.51 Z" />
<path fill="#000000" opacity="1.00" d=" M 374.45 276.88 C 381.94 276.44 390.17 275.05 397.00 279.00 C 402.30 281.88 404.95 288.14 404.66 293.99 C 404.98 300.60 402.07 307.84 395.95 310.97 C 389.32 314.45 381.61 313.64 374.41 313.32 C 374.45 301.17 374.38 289.02 374.45 276.88 M 380.62 281.53 C 380.65 290.54 380.63 299.55 380.63 308.55 C 385.95 308.92 392.32 308.47 395.58 303.58 C 399.24 297.76 399.38 288.87 394.00 284.04 C 390.36 280.79 385.13 281.26 380.62 281.53 Z" />
<path fill="#000000" opacity="1.00" d=" M 410.53 276.51 C 417.44 276.52 424.35 276.52 431.26 276.50 C 431.27 278.25 431.28 279.99 431.33 281.74 C 426.47 281.75 421.61 281.82 416.76 281.74 C 416.80 285.02 416.81 288.30 416.74 291.59 C 421.29 291.59 425.84 291.61 430.40 291.60 C 430.39 293.32 430.40 295.06 430.41 296.79 C 425.86 296.79 421.30 296.81 416.75 296.76 C 416.81 300.42 416.79 304.09 416.76 307.76 C 421.78 308.38 426.85 308.18 431.90 308.11 C 431.85 309.84 431.82 311.58 431.81 313.33 C 424.72 313.27 417.64 313.34 410.56 313.27 C 410.59 301.02 410.63 288.76 410.53 276.51 Z" />
<path fill="#000000" opacity="1.00" d=" M 440.15 279.15 C 444.99 274.94 452.15 275.73 457.86 277.50 C 457.45 279.27 457.00 281.04 456.58 282.81 C 453.02 281.75 448.93 280.35 445.42 282.24 C 442.59 283.66 442.71 288.10 445.39 289.63 C 449.41 292.25 454.87 292.97 457.70 297.22 C 461.09 301.97 459.18 309.39 453.99 312.01 C 448.51 314.85 441.90 313.94 436.33 311.86 C 436.76 310.01 437.24 308.19 437.65 306.34 C 441.60 308.01 446.34 309.63 450.45 307.63 C 453.91 306.01 453.58 300.24 450.08 298.83 C 445.69 296.48 440.05 295.23 437.66 290.36 C 436.50 286.57 436.92 281.84 440.15 279.15 Z" />
<path fill="#000000" opacity="1.00" d=" M 465.48 276.79 C 471.79 276.61 478.82 274.99 484.55 278.45 C 491.35 282.54 490.57 294.08 483.60 297.59 C 479.96 299.67 475.66 299.70 471.60 299.49 C 471.62 304.09 471.59 308.70 471.63 313.31 C 469.57 313.28 467.51 313.28 465.45 313.30 C 465.48 301.13 465.45 288.96 465.48 276.79 M 471.67 281.97 C 471.49 286.14 471.65 290.31 471.64 294.48 C 474.27 294.43 477.13 294.91 479.55 293.56 C 484.42 291.35 483.97 282.58 478.42 281.58 C 476.24 281.40 473.58 280.71 471.67 281.97 Z" />
<path fill="#000000" opacity="1.00" d=" M 506.36 276.39 C 510.29 275.95 514.60 275.77 518.12 277.93 C 523.81 281.00 526.55 287.78 526.55 294.01 C 526.80 300.38 524.58 307.40 519.11 311.12 C 515.15 313.96 509.95 314.26 505.30 313.39 C 498.37 311.73 493.84 304.85 493.39 297.99 C 492.06 289.05 496.75 278.19 506.36 276.39 M 507.43 281.48 C 504.33 282.29 502.18 285.08 501.08 287.95 C 499.02 293.70 499.31 300.78 503.32 305.63 C 506.18 309.30 512.24 309.76 515.62 306.56 C 518.87 303.71 519.88 299.15 519.81 295.00 C 519.97 290.57 518.72 285.74 515.08 282.91 C 513.02 281.06 510.01 280.94 507.43 281.48 Z" />
<path fill="#000000" opacity="1.00" d=" M 535.45 278.50 C 540.21 275.13 546.60 275.85 551.94 277.30 C 551.74 279.16 551.46 281.02 551.17 282.88 C 547.69 281.78 543.86 280.54 540.29 281.92 C 537.60 283.09 536.76 286.97 539.00 289.00 C 542.50 291.77 547.30 292.32 550.58 295.45 C 555.62 299.66 554.53 308.72 548.81 311.83 C 543.35 314.91 536.63 313.91 530.97 311.95 C 531.32 310.07 531.67 308.19 532.06 306.33 C 536.15 308.07 541.12 309.75 545.33 307.40 C 548.17 305.74 548.16 301.28 545.52 299.45 C 541.80 296.68 536.53 296.30 533.54 292.49 C 529.94 288.47 530.97 281.45 535.45 278.50 Z" />
<path fill="#000000" opacity="1.00" d=" M 556.54 276.51 C 565.30 276.50 574.06 276.56 582.83 276.47 C 582.82 278.25 582.84 280.04 582.88 281.83 C 579.67 281.82 576.47 281.84 573.27 281.82 C 572.33 292.29 573.05 302.83 572.84 313.32 C 570.78 313.29 568.74 313.28 566.70 313.29 C 566.67 302.80 566.73 292.30 566.66 281.81 C 563.27 281.86 559.89 281.81 556.50 281.83 C 556.53 280.05 556.54 278.28 556.54 276.51 Z" />
</g>
</svg>
