<?xml version="1.0" encoding="UTF-8" standalone="no"?>
<!-- Created with Inkscape (http://www.inkscape.org/) -->
<svg xmlns:dc="http://purl.org/dc/elements/1.1/" xmlns:cc="http://creativecommons.org/ns#" xmlns:rdf="http://www.w3.org/1999/02/22-rdf-syntax-ns#" xmlns:svg="http://www.w3.org/2000/svg" xmlns="http://www.w3.org/2000/svg" version="1.1" width="300" height="148.58954" id="svg2878">
  <defs id="defs2880">
    <clipPath id="clipPath1296">
      <path d="m 379,108 -60.786,0 0,-30.107 60.786,0 L 379,108 Z" id="path1298"/>
    </clipPath>
  </defs>
  <metadata id="metadata2883">
    <rdf:RDF>
      <cc:Work rdf:about="">
        <dc:format>image/svg+xml</dc:format>
        <dc:type rdf:resource="http://purl.org/dc/dcmitype/StillImage"/>
        <cc:license rdf:resource=""/>
        <dc:title/>
      </cc:Work>
    </rdf:RDF>
  </metadata>
  <g transform="translate(-113.43762,-416.87523)" id="layer1">
    <g id="g2937">
      <g transform="matrix(4.9353819,0,0,-4.9353819,409.82208,545.17048)" id="g1288">
        <path d="m 0,0 -5.777,6.97 5.311,6.585 c 0.527,0.654 0.632,1.551 0.269,2.309 -0.362,0.757 -1.126,1.239 -1.966,1.239 l -5.979,0 c -0.707,0 -1.371,-0.344 -1.78,-0.923 l -1.597,-2.259 -1.716,2.304 c -0.411,0.553 -1.059,0.878 -1.747,0.878 l -5.984,0 c -0.797,0 -1.513,-0.444 -1.894,-1.135 -1.368,0.977 -2.995,1.481 -4.86,1.481 -1.072,0 -2.097,-0.199 -3.058,-0.586 l 0,5.889 c 0,1.204 -0.976,2.179 -2.179,2.179 l -12.518,0 c -1.204,0 -2.179,-0.975 -2.179,-2.179 l 0,-5.499 c -0.686,0.129 -1.378,0.196 -2.073,0.196 -2.932,0 -5.382,-1.03 -7.284,-3.06 -1.864,-1.988 -2.81,-4.545 -2.81,-7.596 0,-2.98 0.924,-5.515 2.748,-7.532 1.88,-2.086 4.259,-3.141 7.069,-3.141 1.203,0 2.338,0.209 3.398,0.626 0.33,-0.2 0.717,-0.316 1.131,-0.316 l 18.406,0 c -0.012,0 0.045,0 0.196,0 l 5.132,0 c 0.153,0 0.303,0.017 0.448,0.047 0.109,-0.017 0.214,-0.047 0.327,-0.047 l 5.782,0 c 0.695,0 1.347,0.332 1.758,0.892 l 1.978,2.7 2.073,-2.731 c 0.412,-0.543 1.055,-0.861 1.736,-0.861 l 5.961,0 c 0.844,0 1.613,0.488 1.972,1.253 C 0.653,-1.553 0.538,-0.651 0,0" id="path1290" style="fill:#00adef;fill-opacity:1;fill-rule:nonzero;stroke:none"/>
      </g>
      <g transform="matrix(4.9353819,0,0,-4.9353819,-1457.07,949.89647)" id="g1292">
        <g clip-path="url(#clipPath1296)" id="g1294">
          <g transform="translate(378.267,82.005)" id="g1300">
            <path d="m 0,0 -5.777,6.97 5.311,6.585 c 0.527,0.654 0.632,1.551 0.269,2.309 -0.362,0.757 -1.126,1.239 -1.966,1.239 l -5.979,0 c -0.707,0 -1.371,-0.344 -1.78,-0.923 l -1.597,-2.259 -1.716,2.304 c -0.411,0.553 -1.059,0.878 -1.747,0.878 l -5.984,0 c -0.797,0 -1.513,-0.444 -1.894,-1.135 -1.368,0.977 -2.995,1.481 -4.86,1.481 -1.072,0 -2.097,-0.199 -3.058,-0.586 l 0,5.889 c 0,1.204 -0.976,2.179 -2.179,2.179 l -12.518,0 c -1.204,0 -2.179,-0.975 -2.179,-2.179 l 0,-5.499 c -0.686,0.129 -1.378,0.196 -2.073,0.196 -2.932,0 -5.382,-1.03 -7.284,-3.06 -1.864,-1.988 -2.81,-4.545 -2.81,-7.596 0,-2.98 0.924,-5.515 2.748,-7.532 1.88,-2.086 4.259,-3.141 7.069,-3.141 1.203,0 2.338,0.209 3.398,0.626 0.33,-0.2 0.717,-0.316 1.131,-0.316 l 18.406,0 c -0.012,0 0.045,0 0.196,0 l 5.132,0 c 0.153,0 0.303,0.017 0.448,0.047 0.109,-0.017 0.214,-0.047 0.327,-0.047 l 5.782,0 c 0.695,0 1.347,0.332 1.758,0.892 l 1.978,2.7 2.073,-2.731 c 0.412,-0.543 1.055,-0.861 1.736,-0.861 l 5.961,0 c 0.844,0 1.613,0.488 1.972,1.253 C 0.653,-1.553 0.538,-0.651 0,0 Z" id="path1302" style="fill:none;stroke:#00adef;stroke-width:0.46399999;stroke-linecap:butt;stroke-linejoin:miter;stroke-miterlimit:4;stroke-opacity:1;stroke-dasharray:none"/>
          </g>
        </g>
      </g>
      <g transform="matrix(4.9353819,0,0,-4.9353819,185.38559,529.94483)" id="g1304">
        <path d="m 0,0 0,7.795 c -0.934,0.634 -1.89,0.95 -2.869,0.95 -1.291,0 -2.296,-0.449 -3.016,-1.348 -0.72,-0.899 -1.08,-2.16 -1.08,-3.784 0,-1.499 0.357,-2.699 1.071,-3.605 0.715,-0.904 1.665,-1.355 2.852,-1.355 C -1.994,-1.347 -0.98,-0.898 0,0 z m 5.132,19.667 0,-24.143 -5.132,0 0,1.314 c -1.313,-1.083 -2.823,-1.624 -4.529,-1.624 -2.177,0 -3.994,0.807 -5.452,2.421 -1.457,1.614 -2.186,3.638 -2.186,6.073 0,2.491 0.74,4.527 2.221,6.107 1.48,1.58 3.379,2.37 5.694,2.37 1.44,0 2.858,-0.346 4.252,-1.037 l 0,8.519 5.132,0" id="path1306" style="fill:#ffffff;fill-opacity:1;fill-rule:nonzero;stroke:none"/>
      </g>
      <g transform="matrix(4.9353819,0,0,-4.9353819,247.1667,432.88067)" id="g1308">
        <path d="m 0,0 0,-10.213 0.069,0 c 1.428,1.82 3.151,2.731 5.168,2.731 1.739,0 3.17,-0.552 4.294,-1.654 1.124,-1.101 1.685,-2.632 1.685,-4.591 l 0,-10.416 -5.132,0 0,9.328 c 0,2.377 -0.882,3.565 -2.645,3.565 -1.164,0 -2.311,-0.826 -3.439,-2.476 l 0,-10.417 -5.133,0 L -5.133,0 0,0" id="path1310" style="fill:#ffffff;fill-opacity:1;fill-rule:nonzero;stroke:none"/>
      </g>
      <g transform="matrix(4.9353819,0,0,-4.9353819,399.14685,471.51484)" id="g1312">
        <path d="m 0,0 -6.429,-7.973 6.914,-8.342 -5.961,0 -3.84,5.056 -3.705,-5.056 -5.782,0 6.657,8.329 L -18.803,0 -12.819,0 -9.31,-4.714 -5.979,0 0,0" id="path1314" style="fill:#ffffff;fill-opacity:1;fill-rule:nonzero;stroke:none"/>
      </g>
      <g transform="matrix(4.9353819,0,0,-4.9353819,279.46384,427.10134)" id="g1316">
        <path d="m 0,0 0,-0.532 c 0.444,0.414 0.925,0.62 1.444,0.62 0.713,0 1.212,-0.294 1.497,-0.884 0.502,0.59 1.047,0.884 1.637,0.884 0.478,0 0.869,-0.145 1.171,-0.436 0.303,-0.29 0.453,-0.669 0.453,-1.135 l 0,-2.669 -1.306,0 0,2.435 c 0,0.294 -0.067,0.522 -0.203,0.686 -0.134,0.162 -0.323,0.244 -0.564,0.244 -0.383,0 -0.726,-0.235 -1.032,-0.705 l 0,-2.66 -1.302,0 0,2.462 c 0,0.291 -0.073,0.514 -0.217,0.67 C 1.432,-0.865 1.24,-0.787 0.999,-0.787 0.656,-0.787 0.323,-0.98 0,-1.364 l 0,-2.788 -1.306,0 0,4.152 L 0,0" id="path1318" style="fill:#191735;fill-opacity:1;fill-rule:nonzero;stroke:none"/>
      </g>
      <g transform="matrix(4.9353819,0,0,-4.9353819,323.48251,434.98314)" id="g1320">
        <path d="M 0,0 1.804,0 C 1.733,0.605 1.432,0.907 0.901,0.907 0.365,0.907 0.064,0.605 0,0 z m 2.881,-1.266 0,-0.823 C 2.382,-2.452 1.765,-2.634 1.029,-2.634 c -0.73,0 -1.314,0.196 -1.75,0.587 -0.438,0.393 -0.656,0.911 -0.656,1.557 0,0.634 0.205,1.155 0.616,1.563 0.41,0.409 0.934,0.612 1.57,0.612 0.64,0 1.164,-0.214 1.572,-0.644 0.41,-0.429 0.601,-1.005 0.575,-1.727 l -2.983,0 C 0,-1.062 0.133,-1.352 0.374,-1.556 0.614,-1.758 0.937,-1.86 1.341,-1.86 c 0.49,0 1.003,0.198 1.54,0.594" id="path1322" style="fill:#191735;fill-opacity:1;fill-rule:nonzero;stroke:none"/>
      </g>
      <g transform="matrix(4.9353819,0,0,-4.9353819,358.63723,441.97164)" id="g1324">
        <path d="m 0,0 0,1.984 c -0.238,0.161 -0.481,0.242 -0.73,0.242 -0.329,0 -0.585,-0.114 -0.768,-0.343 -0.183,-0.229 -0.275,-0.55 -0.275,-0.964 0,-0.381 0.091,-0.687 0.273,-0.917 0.181,-0.23 0.424,-0.345 0.725,-0.345 C -0.508,-0.343 -0.25,-0.228 0,0 z m 1.306,5.006 0,-6.145 -1.306,0 0,0.334 c -0.335,-0.275 -0.718,-0.413 -1.153,-0.413 -0.554,0 -1.017,0.205 -1.387,0.616 -0.371,0.411 -0.557,0.926 -0.557,1.546 0,0.634 0.188,1.152 0.565,1.554 0.377,0.402 0.86,0.603 1.45,0.603 0.366,0 0.727,-0.088 1.082,-0.264 l 0,2.169 1.306,0" id="path1326" style="fill:#191735;fill-opacity:1;fill-rule:nonzero;stroke:none"/>
      </g>
      <path d="m 372.73762,427.10134 6.44561,0 0,20.4917 -6.44561,0 L 372.73762,427.10134 Z M 379.18323,427.10134 z m -6.79602,-6.66277 c 0,-0.99201 0.35061,-1.83102 1.04136,-2.52198 0.69589,-0.69589 1.52504,-1.04136 2.49731,-1.04136 0.98214,0 1.82115,0.34547 2.51704,1.04136 0.69589,0.69096 1.0463,1.52997 1.0463,2.52198 0,0.9624 -0.35061,1.80142 -1.0463,2.50224 -0.69589,0.70576 -1.5349,1.05617 -2.51704,1.05617 -0.97227,0 -1.80142,-0.35061 -2.49731,-1.05617 -0.69095,-0.70082 -1.04136,-1.53984 -1.04136,-2.50224" id="path1328" style="fill:#191735;fill-opacity:1;fill-rule:nonzero;stroke:none"/>
      <g transform="matrix(4.9353819,0,0,-4.9353819,397.85871,442.61324)" id="g1330">
        <path d="M 0,0 0,1.006 C -0.436,0.853 -0.736,0.715 -0.899,0.593 -1.062,0.47 -1.143,0.316 -1.143,0.127 c 0,-0.121 0.041,-0.224 0.122,-0.311 0.083,-0.087 0.183,-0.13 0.3,-0.13 C -0.475,-0.314 -0.234,-0.21 0,0 z m 2.015,0.016 0,-0.726 C 1.581,-0.962 1.173,-1.088 0.792,-1.088 c -0.411,0 -0.654,0.156 -0.73,0.466 -0.454,-0.31 -0.911,-0.466 -1.368,-0.466 -0.322,0 -0.596,0.102 -0.823,0.306 -0.225,0.204 -0.339,0.441 -0.339,0.712 0,0.361 0.117,0.652 0.35,0.874 0.233,0.221 0.939,0.507 2.118,0.857 0.03,0.463 -0.211,0.695 -0.721,0.695 -0.554,0 -1.065,-0.232 -1.531,-0.695 l 0,1.064 c 0.545,0.338 1.146,0.506 1.799,0.506 1.173,0 1.76,-0.421 1.76,-1.264 l 0,-1.893 c 0,-0.194 0.071,-0.291 0.215,-0.291 0.109,0 0.273,0.077 0.493,0.233" id="path1332" style="fill:#191735;fill-opacity:1;fill-rule:nonzero;stroke:none"/>
      </g>
    </g>
  </g>
</svg>