<?xml version="1.0" encoding="UTF-8" standalone="no"?>
<!-- Generator: Adobe Illustrator 13.0.0, SVG Export Plug-In  -->

<svg
   xmlns:dc="http://purl.org/dc/elements/1.1/"
   xmlns:cc="http://creativecommons.org/ns#"
   xmlns:rdf="http://www.w3.org/1999/02/22-rdf-syntax-ns#"
   xmlns:svg="http://www.w3.org/2000/svg"
   xmlns="http://www.w3.org/2000/svg"
   xmlns:sodipodi="http://sodipodi.sourceforge.net/DTD/sodipodi-0.dtd"
   xmlns:inkscape="http://www.inkscape.org/namespaces/inkscape"
   version="1.2"
   x="0px"
   y="0px"
   width="123.786"
   height="55.123001"
   viewBox="-14.75 -15.25 123.786 55.123001"
   xml:space="preserve"
   id="svg2"
   inkscape:version="0.48.1 "
   sodipodi:docname="AJAX.svg"><metadata
   id="metadata40"><rdf:RDF><cc:Work
       rdf:about=""><dc:format>image/svg+xml</dc:format><dc:type
         rdf:resource="http://purl.org/dc/dcmitype/StillImage" /></cc:Work></rdf:RDF></metadata><sodipodi:namedview
   pagecolor="#ffffff"
   bordercolor="#666666"
   borderopacity="1"
   objecttolerance="10"
   gridtolerance="10"
   guidetolerance="10"
   inkscape:pageopacity="0"
   inkscape:pageshadow="2"
   inkscape:window-width="1280"
   inkscape:window-height="1004"
   id="namedview38"
   showgrid="false"
   fit-margin-top="0"
   fit-margin-left="0"
   fit-margin-right="0"
   fit-margin-bottom="0"
   inkscape:zoom="2.25"
   inkscape:cx="65.749998"
   inkscape:cy="100.36111"
   inkscape:window-x="-8"
   inkscape:window-y="-8"
   inkscape:window-maximized="1"
   inkscape:current-layer="svg2" />
<defs
   id="defs4">
</defs>







<path
   d="m 47.365998,12.286 c 0,6.086 4.458,9.105 9.421,11.914 l 4.43,2.518 c 2.41,1.358 3.489,2.896 3.489,4.979 0,2.758 -2.033,4.473 -5.312,4.473 -6.043,0 -7.857,-5.022 -8.84,-9.934 l -0.153,-0.77 h -2.957 V 39.3 h 2.295 l 0.285,-0.32 c 0.53,-0.598 0.53,-0.598 1.044,-0.598 0.888,-0.032 2.033,0.239 3.353,0.55 1.659,0.386 3.539,0.827 5.504,0.827 4.999,0 12.035,-3.355 12.035,-10.813 0,-5.2 -3.116,-7.528 -6.874,-9.833 -0.002,-0.002 -8.258,-4.897 -8.258,-4.897 -1.894,-1.131 -2.816,-2.638 -2.816,-4.61 0,-1.611 1.289,-4.011 4.849,-4.011 2.645,0 5.893,0.979 7.545,8.645 l 0.163,0.754 h 2.897 l -0.362,-12.377 h -2.316 l -0.28,0.479 c -0.124,0.224 -0.332,0.361 -0.547,0.361 -0.119,-0.007 -0.769,-0.217 -1.158,-0.34 -1.479,-0.474 -3.696,-1.188 -5.941,-1.188 -6.661,-0.001 -11.496,4.353 -11.496,10.357"
   id="path20"
   style="fill:#ed1944;fill-opacity:1;stroke:none"
   inkscape:connector-curvature="0" />
<path
   d="m -6.2770018,19.237 c 0,-9.788 4.589,-13.261 8.52,-13.261 4.327,0 6.913,3.633 6.913,7.148 v 16.977 c -0.528,2.19 -2.981,3.779 -5.846,3.779 -4.423,0 -9.587,-3.839 -9.587,-14.643 m 22.3429998,-34.386 -0.246,0.086 v -10e-4 c -1.372,0.49 -6.7729998,2.263 -11.1339998,3.336 l -0.726,0.181 v 3.028 l 1.05,-0.111 c 2.445,-0.251 3.373,0.07 3.721,0.382 0.4,0.362 0.423,1.098 0.423,2.264 V 4.208 c -2.239,-1.588 -4.405,-2.281 -7.144,-2.281 -4.343,0 -8.663,2.184 -11.842,5.989 -3.1260002,3.741 -4.9180002,8.762 -4.9180002,13.768 0,17.567 13.3320002,18.076 14.85300023,18.076 3.71599997,0 6.75399997,-1.16 9.05199997,-3.413 v 2.709 l 1.0959998,0.817 12.341,-4.367 v -2.927 l -1.026,0.079 c -2.399,0.186 -3.317,-0.161 -3.668,-0.482 -0.355,-0.329 -0.421,-0.91 -0.421,-1.933 v -44.899 l -1.317,-0.527 -0.094,0.034 z"
   id="path22"
   style="fill:#ed1944;fill-opacity:1;stroke:none"
   inkscape:connector-curvature="0" />
<path
   d="m 108.246,35.958 c -3.361,-0.595 -3.797,-0.674 -3.797,-5.561 V 15.034 c 0,-8.695 -3.483,-13.106 -10.345002,-13.106 -3.876,0 -7.415,1.655 -10.271,4.751 v -21.154 l -1.257,-0.752 -0.12,0.05 -0.324,0.131 c -1.609,0.66 -7.869,2.529 -10.737,3.33 l -0.697,0.192 v 3.015 l 1.058,-0.119 c 0.64,-0.07 1.129,-0.07 1.809,-0.07 0.707,0 1.207,0.148 1.497,0.439 0.479,0.489 0.465,1.455 0.451,2.231 0,0.005 -0.004,0.348 -0.004,0.348 v 35.923 c 0,4.884 -0.304,5.308 -4.03,5.702 l -0.856,0.094 v 2.957 h 17.709 v -3.032 l -0.157,-0.019 c -3.419,-0.362 -4.34,-0.463 -4.34,-5.626 v -18.11 c 0.43,-0.53 3.575,-4.245 7.445,-4.245 3.356,0 4.852,2.275 4.852,7.376 v 15.058 c 0,4.743 -0.818,5.284 -4.313,5.548 l -0.068,0.002 v 3.049 H 109.036 v -2.9 l -0.79,-0.139"
   id="path24"
   style="fill:#ed1944;fill-opacity:1;stroke:none"
   inkscape:connector-curvature="0" />

<path
   d="m 34.874998,38.287 c 5.841,0 8.792,-3.378 10.87,-7.382 0.137,-0.264 0.029,-0.449 -0.235,-0.329 -1.548,0.721 -5.613,2.608 -10.635,2.608 -5.022,0 -9.086,-1.888 -10.638,-2.608 -0.263,-0.12 -0.372,0.065 -0.232,0.329 2.077,4.004 5.027,7.382 10.87,7.382"
   id="path28"
   style="fill:#ed1944;fill-opacity:1;fill-rule:evenodd;stroke:none"
   inkscape:connector-curvature="0" />
<path
   d="m 26.334998,21.211 c 1.611,3.123 3.924,5.85 8.54,5.85 4.612,0 6.928,-2.727 8.536,-5.85 0.107,-0.21 0.02,-0.367 -0.205,-0.268 -1.029,0.474 -4.239,1.905 -8.331,1.905 -4.095,0 -7.305,-1.432 -8.334,-1.905 -0.222,-0.099 -0.314,0.058 -0.206,0.268"
   id="path30"
   style="fill:#ed1944;fill-opacity:1;fill-rule:evenodd;stroke:none"
   inkscape:connector-curvature="0" />
<path
   d="m 28.476998,12.323 c 1.182,2.322 2.911,4.444 6.399,4.444 3.487,0 5.215,-2.122 6.397,-4.444 0.081,-0.16 0.012,-0.293 -0.175,-0.214 -0.554,0.248 -2.981,1.263 -6.222,1.263 -3.244,0 -5.67,-1.015 -6.223,-1.263 -0.188,-0.079 -0.259,0.054 -0.176,0.214"
   id="path32"
   style="fill:#ed1944;fill-opacity:1;fill-rule:evenodd;stroke:none"
   inkscape:connector-curvature="0" />
<path
   d="m 34.874998,7.099 c 2.427,0 3.61,-1.559 4.389,-3.118 0.057,-0.118 0.003,-0.228 -0.152,-0.168 -0.104,0.038 -1.796,0.661 -4.237,0.661 -2.442,0 -4.135,-0.623 -4.239,-0.661 -0.155,-0.059 -0.21,0.05 -0.153,0.168 0.781,1.559 1.963,3.118 4.392,3.118"
   id="path34"
   style="fill:#ed1944;fill-opacity:1;fill-rule:evenodd;stroke:none"
   inkscape:connector-curvature="0" />
<path
   d="m 27.828998,-8.591 c 0,-3.677 2.979,-6.659 6.654,-6.659 3.672,0 6.651,2.982 6.651,6.659 0,3.677 -2.979,6.655 -6.651,6.655 -3.676,0 -6.654,-2.978 -6.654,-6.655"
   id="path36"
   style="fill:#ed1944;fill-opacity:1;stroke:none"
   inkscape:connector-curvature="0" />
</svg>