<?xml version="1.0" encoding="utf-8"?>
<!-- Generator: Adobe Illustrator 13.0.0, SVG Export Plug-In  -->
<!DOCTYPE svg [
	<!ENTITY ns_flows "http://ns.adobe.com/Flows/1.0/">
]>
<svg version="1.2" baseProfile="tiny"
	 xmlns="http://www.w3.org/2000/svg" xmlns:xlink="http://www.w3.org/1999/xlink" xmlns:a="http://ns.adobe.com/AdobeSVGViewerExtensions/3.0/"
	 x="0px" y="0px" width="162px" height="116px" viewBox="-14.75 -15.25 162 116" xml:space="preserve">
<defs>
</defs>
<path fill="#0A0A0A" d="M3.278,74.703H0v0.467c1.38,0,1.411,0.354,1.411,1.845v5.945c0,1.53-0.187,1.858-1.055,1.858H0v0.479h3.436
	v-0.479h-0.37c-0.858,0-1.043-0.328-1.043-1.858v-5.894L8.69,85.5h0.428v-8.485c0-1.521,0.184-1.845,1.054-1.845h0.353v-0.467H7.004
	v0.467c1.484,0,1.501,0.279,1.501,1.845v4.315L3.278,74.703"/>
<path fill="#0A0A0A" d="M26.052,74.703h-8.823v0.477c1.376,0,1.409,0.345,1.409,1.853v5.928c0,1.544-0.184,1.858-1.059,1.858h-0.351
	v0.479h8.823l0.751-3.312H26.33c-0.784,1.851-1.933,2.756-3.955,2.756c-1.055,0-1.239-0.204-1.239-1.369v-3.148
	c1.715,0,2.08,0.856,2.236,2.412h0.471v-5.381h-0.471c-0.183,1.503-0.584,2.271-2.236,2.306v-3.585c0-0.559,0.15-0.64,1.286-0.64
	c1.134,0,1.668,0.126,2.221,0.548c0.627,0.468,0.765,0.776,0.937,2.006h0.472V74.703"/>
<path fill="#0A0A0A" d="M34.963,74.703v3.282h0.416c0.272-1.963,1.041-2.584,2.907-2.648v7.623c0,1.563,0,1.858-1.501,1.858v0.479
	h5.5v-0.479c-1.485,0-1.499-0.295-1.499-1.858v-7.623c1.947,0.034,2.62,0.734,2.91,2.648h0.416v-3.282H34.963"/>
<path fill="#0A0A0A" d="M57.679,81.785l-1.549-4.771c-0.138-0.397-0.305-0.79-0.305-1.226c0-0.433,0.21-0.619,0.75-0.619h0.293
	v-0.467h-4.601v0.467c0.738,0.293,0.861,0.466,1.335,1.845l2.895,8.485h0.381l2.959-7.422l2.545,7.422h0.429l2.851-8.485
	c0.246-0.708,0.52-1.739,1.409-1.845v-0.467h-2.989v0.467h0.487c0.554,0,0.752,0.187,0.752,0.638c0,0.264-0.013,0.326-0.307,1.207
	l-1.578,4.771l-1.483-4.771c-0.245-0.741-0.281-0.933-0.281-1.19c0-0.468,0.219-0.654,0.756-0.654h0.229v-0.467h-4.936v0.467
	c1.194,0,1.438,1.025,1.791,1.976L57.679,81.785"/>
<path fill="#0A0A0A" d="M116.627,79.932v-2.917c0-1.521,0.186-1.845,1.059-1.845h0.355v-0.467h-5.32v0.467
	c1.38,0,1.408,0.354,1.408,1.845v5.969c0,1.521-0.183,1.851-1.056,1.851h-0.353v0.464h5.32v-0.464h-0.355
	c-0.873,0-1.059-0.33-1.059-1.851v-2.276L117,80.336l2.02,2.647c0.308,0.39,0.985,1.057,0.985,1.555
	c0,0.204-0.173,0.296-0.571,0.296h-0.691v0.464H124v-0.464c-0.691-0.281-0.816-0.387-1.979-1.851l-3.43-4.299l1.515-1.588
	c1.06-1.105,1.83-1.821,3.388-1.883v-0.511h-4.386v0.467h1.014c0.38,0,0.51,0.06,0.51,0.248c0,0.19-0.233,0.559-0.57,0.913
	l-0.672,0.684L116.627,79.932"/>
<path fill="#0A0A0A" d="M80.619,75.09c1.684,0,2.728,1.883,2.728,4.934c0,3.141-0.963,4.887-2.728,4.887
	c-1.763,0-2.725-1.746-2.725-4.887C77.895,76.973,78.93,75.09,80.619,75.09 M80.619,74.5c-3.106,0-5.436,2.33-5.436,5.479
	c0,3.161,2.329,5.521,5.436,5.521c3.113,0,5.441-2.359,5.441-5.521C86.061,76.83,83.746,74.5,80.619,74.5"/>
<path fill="#0A0A0A" d="M98.214,76.054c0-0.561,0.229-0.762,0.859-0.762c1.212,0,1.745,0.685,1.745,2.195
	c0,1.931-0.776,2.363-2.604,2.382V76.054 M101.047,80.086c1.353-0.343,2.379-1.138,2.379-2.645c0-1.217-0.8-2.04-1.874-2.462
	c-0.684-0.246-0.917-0.276-2.602-0.276H94.31v0.477c1.38,0,1.404,0.363,1.404,1.853v5.928c0,1.53-0.178,1.858-1.053,1.858H94.31
	v0.479h5.317v-0.479h-0.359c-0.87,0-1.054-0.314-1.054-1.858v-2.58h0.322l3.157,4.918h3.171v-0.479
	c-0.612-0.158-0.813-0.359-1.833-1.858L101.047,80.086z"/>
<path fill="#0A0A0A" d="M62.616,44.413c0,6.086,4.458,9.105,9.421,11.914l4.43,2.518c2.41,1.358,3.489,2.896,3.489,4.979
	c0,2.758-2.033,4.473-5.312,4.473c-6.043,0-7.857-5.022-8.84-9.934l-0.153-0.77h-2.957v13.834h2.295l0.285-0.32
	c0.53-0.598,0.53-0.598,1.044-0.598c0.888-0.032,2.033,0.239,3.353,0.55c1.659,0.386,3.539,0.827,5.504,0.827
	c4.999,0,12.035-3.355,12.035-10.813c0-5.2-3.116-7.528-6.874-9.833c-0.002-0.002-8.258-4.897-8.258-4.897
	c-1.894-1.131-2.816-2.638-2.816-4.61c0-1.611,1.289-4.011,4.849-4.011c2.645,0,5.893,0.979,7.545,8.645l0.163,0.754h2.897
	l-0.362-12.377h-2.316l-0.28,0.479c-0.124,0.224-0.332,0.361-0.547,0.361c-0.119-0.007-0.769-0.217-1.158-0.34
	c-1.479-0.474-3.696-1.188-5.941-1.188C67.451,34.055,62.616,38.409,62.616,44.413"/>
<path fill="#0A0A0A" d="M8.973,51.364c0-9.788,4.589-13.261,8.52-13.261c4.327,0,6.913,3.633,6.913,7.148v16.977
	c-0.528,2.19-2.981,3.779-5.846,3.779C14.137,66.007,8.973,62.168,8.973,51.364 M31.316,16.978l-0.246,0.086v-0.001
	c-1.372,0.49-6.773,2.263-11.134,3.336l-0.726,0.181v3.028l1.05-0.111c2.445-0.251,3.373,0.07,3.721,0.382
	c0.4,0.362,0.423,1.098,0.423,2.264v10.192c-2.239-1.588-4.405-2.281-7.144-2.281c-4.343,0-8.663,2.184-11.842,5.989
	C2.292,43.784,0.5,48.805,0.5,53.811c0,17.567,13.332,18.076,14.853,18.076c3.716,0,6.754-1.16,9.052-3.413v2.709L25.501,72
	l12.341-4.367v-2.927l-1.026,0.079c-2.399,0.186-3.317-0.161-3.668-0.482c-0.355-0.329-0.421-0.91-0.421-1.933V17.471l-1.317-0.527
	L31.316,16.978z"/>
<path fill="#0A0A0A" d="M123.496,68.085c-3.361-0.595-3.797-0.674-3.797-5.561V47.161c0-8.695-3.483-13.106-10.345-13.106
	c-3.876,0-7.415,1.655-10.271,4.751V17.652L97.826,16.9l-0.12,0.05l-0.324,0.131c-1.609,0.66-7.869,2.529-10.737,3.33l-0.697,0.192
	v3.015l1.058-0.119c0.64-0.07,1.129-0.07,1.809-0.07c0.707,0,1.207,0.148,1.497,0.439c0.479,0.489,0.465,1.455,0.451,2.231
	c0,0.005-0.004,0.348-0.004,0.348V62.37c0,4.884-0.304,5.308-4.03,5.702l-0.856,0.094v2.957h17.709v-3.032l-0.157-0.019
	c-3.419-0.362-4.34-0.463-4.34-5.626v-18.11c0.43-0.53,3.575-4.245,7.445-4.245c3.356,0,4.852,2.275,4.852,7.376v15.058
	c0,4.743-0.818,5.284-4.313,5.548l-0.068,0.002v3.049h17.285v-2.9L123.496,68.085"/>
<path fill="#FF0000" d="M118.505,15.144c-9.058-12.71-34.969-9.77-60.879,5.984c-0.137-0.452-0.311-0.885-0.519-1.3
	c31.939-20.212,63.403-25.88,72.74-12.777c5.766,8.093,1.849,21.775-8.958,36.619c-0.201-2.556-0.757-4.666-1.678-6.326
	C122.504,28.642,122.521,20.779,118.505,15.144"/>
<path fill-rule="evenodd" fill="#FF0000" d="M50.125,70.414c5.841,0,8.792-3.378,10.87-7.382c0.137-0.264,0.029-0.449-0.235-0.329
	c-1.548,0.721-5.613,2.608-10.635,2.608c-5.022,0-9.086-1.888-10.638-2.608c-0.263-0.12-0.372,0.065-0.232,0.329
	C41.332,67.036,44.282,70.414,50.125,70.414"/>
<path fill-rule="evenodd" fill="#FF0000" d="M41.585,53.338c1.611,3.123,3.924,5.85,8.54,5.85c4.612,0,6.928-2.727,8.536-5.85
	c0.107-0.21,0.02-0.367-0.205-0.268c-1.029,0.474-4.239,1.905-8.331,1.905c-4.095,0-7.305-1.432-8.334-1.905
	C41.569,52.971,41.477,53.128,41.585,53.338"/>
<path fill-rule="evenodd" fill="#FF0000" d="M43.727,44.45c1.182,2.322,2.911,4.444,6.399,4.444c3.487,0,5.215-2.122,6.397-4.444
	c0.081-0.16,0.012-0.293-0.175-0.214c-0.554,0.248-2.981,1.263-6.222,1.263c-3.244,0-5.67-1.015-6.223-1.263
	C43.715,44.157,43.644,44.29,43.727,44.45"/>
<path fill-rule="evenodd" fill="#FF0000" d="M50.125,39.226c2.427,0,3.61-1.559,4.389-3.118c0.057-0.118,0.003-0.228-0.152-0.168
	c-0.104,0.038-1.796,0.661-4.237,0.661c-2.442,0-4.135-0.623-4.239-0.661c-0.155-0.059-0.21,0.05-0.153,0.168
	C46.514,37.667,47.696,39.226,50.125,39.226"/>
<path fill="#FF0000" d="M43.079,23.536c0-3.677,2.979-6.659,6.654-6.659c3.672,0,6.651,2.982,6.651,6.659
	c0,3.677-2.979,6.655-6.651,6.655C46.057,30.191,43.079,27.213,43.079,23.536"/>
</svg>
