<?xml version="1.0" encoding="UTF-8" standalone="no"?>
<!-- Created with Inkscape (http://www.inkscape.org/) -->
<svg
   xmlns:dc="http://purl.org/dc/elements/1.1/"
   xmlns:cc="http://creativecommons.org/ns#"
   xmlns:rdf="http://www.w3.org/1999/02/22-rdf-syntax-ns#"
   xmlns:svg="http://www.w3.org/2000/svg"
   xmlns="http://www.w3.org/2000/svg"
   xmlns:sodipodi="http://sodipodi.sourceforge.net/DTD/sodipodi-0.dtd"
   xmlns:inkscape="http://www.inkscape.org/namespaces/inkscape"
   width="1492.0464"
   height="190.57986"
   id="svg5676"
   sodipodi:version="0.32"
   inkscape:version="0.46"
   sodipodi:docname="The Walt Disney Company.svg"
   inkscape:output_extension="org.inkscape.output.svg.inkscape"
   version="1.0">
  <defs
     id="defs5678">
    <inkscape:perspective
       sodipodi:type="inkscape:persp3d"
       inkscape:vp_x="0 : 526.18109 : 1"
       inkscape:vp_y="0 : 1000 : 0"
       inkscape:vp_z="744.09448 : 526.18109 : 1"
       inkscape:persp3d-origin="372.04724 : 350.78739 : 1"
       id="perspective5684" />
    <inkscape:perspective
       id="perspective5693"
       inkscape:persp3d-origin="372.04724 : 350.78739 : 1"
       inkscape:vp_z="744.09448 : 526.18109 : 1"
       inkscape:vp_y="0 : 1000 : 0"
       inkscape:vp_x="0 : 526.18109 : 1"
       sodipodi:type="inkscape:persp3d" />
    <inkscape:perspective
       id="perspective5835"
       inkscape:persp3d-origin="372.04724 : 350.78739 : 1"
       inkscape:vp_z="744.09448 : 526.18109 : 1"
       inkscape:vp_y="0 : 1000 : 0"
       inkscape:vp_x="0 : 526.18109 : 1"
       sodipodi:type="inkscape:persp3d" />
  </defs>
  <sodipodi:namedview
     id="base"
     pagecolor="#ffffff"
     bordercolor="#666666"
     borderopacity="1.0"
     gridtolerance="10000"
     guidetolerance="10"
     objecttolerance="10"
     inkscape:pageopacity="0.0"
     inkscape:pageshadow="2"
     inkscape:zoom="0.35"
     inkscape:cx="550.72665"
     inkscape:cy="520"
     inkscape:document-units="px"
     inkscape:current-layer="layer1"
     showgrid="false"
     inkscape:window-width="1024"
     inkscape:window-height="721"
     inkscape:window-x="-4"
     inkscape:window-y="-4" />
  <metadata
     id="metadata5681">
    <rdf:RDF>
      <cc:Work
         rdf:about="">
        <dc:format>image/svg+xml</dc:format>
        <dc:type
           rdf:resource="http://purl.org/dc/dcmitype/StillImage" />
      </cc:Work>
    </rdf:RDF>
  </metadata>
  <g
     inkscape:label="Layer 1"
     inkscape:groupmode="layer"
     id="layer1"
     transform="translate(6.8761344,-365.27502)">
    <path
       style="font-size:336.33859253px;font-style:normal;font-weight:normal;line-height:125%;fill:#000000;fill-opacity:1;stroke:none;stroke-width:1px;stroke-linecap:butt;stroke-linejoin:miter;stroke-opacity:1;font-family:Bitstream Vera Sans"
       d="M 93.62007,414.35077 L 94.53498,433.74685 L 92.21721,433.74685 C 91.76986,430.33125 91.15992,427.8915 90.3874,426.42757 C 89.12679,424.06922 87.44945,422.33089 85.355395,421.21259 C 83.261207,420.09444 80.506316,419.53533 77.090714,419.53526 L 65.440869,419.53526 L 65.440869,482.72499 C 65.440825,487.80783 65.989769,490.97951 67.087706,492.24005 C 68.632839,493.94788 71.0116,494.8018 74.223998,494.8018 L 77.090714,494.8018 L 77.090714,497.05857 L 42.019191,497.05857 L 42.019191,494.8018 L 44.9469,494.8018 C 48.44386,494.8018 50.924278,493.74457 52.388163,491.63011 C 53.282708,490.32891 53.729997,487.36054 53.730029,482.72499 L 53.730029,419.53526 L 43.788015,419.53526 C 39.925046,419.53533 37.180321,419.81997 35.553832,420.38917 C 33.439362,421.16183 31.629877,422.64602 30.12537,424.84173 C 28.620845,427.03758 27.726268,430.00595 27.441636,433.74685 L 25.123866,433.74685 L 26.099769,414.35077 L 93.62007,414.35077 z M 118.01765,410.32517 L 118.01765,451.19112 C 122.53118,446.23033 126.10949,443.04847 128.75259,441.64556 C 131.39562,440.24276 134.0387,439.54133 136.68181,439.54127 C 139.85344,439.54133 142.57784,440.41558 144.85499,442.16402 C 147.13205,443.91256 148.81955,446.65728 149.91749,450.3982 C 150.69003,453.00065 151.07633,457.75817 151.07638,464.67078 L 151.07638,484.43282 C 151.07633,487.97048 151.36096,490.38991 151.93029,491.6911 C 152.33686,492.66701 153.02813,493.4396 154.00409,494.00888 C 154.97993,494.57815 156.76909,494.86279 159.37156,494.86279 L 159.37156,497.05857 L 131.92428,497.05857 L 131.92428,494.86279 L 133.20515,494.86279 C 135.80752,494.86279 137.61701,494.46633 138.63361,493.67341 C 139.65014,492.88049 140.36173,491.71144 140.7684,490.16625 C 140.89034,489.51566 140.95134,487.60452 140.95138,484.43282 L 140.95138,464.67078 C 140.95134,458.57142 140.6362,454.56616 140.00597,452.65497 C 139.37566,450.74387 138.36926,449.31052 136.98678,448.3549 C 135.60421,447.39937 133.93704,446.9216 131.98527,446.92154 C 129.99277,446.9216 127.91897,447.4502 125.76389,448.50738 C 123.60874,449.56466 121.02667,451.69945 118.01765,454.91175 L 118.01765,484.43282 C 118.01763,488.25512 118.23111,490.63388 118.65809,491.56911 C 119.08503,492.50436 119.87795,493.28712 121.03685,493.91739 C 122.19571,494.54765 124.19835,494.86279 127.04476,494.86279 L 127.04476,497.05857 L 99.3535,497.05857 L 99.3535,494.86279 C 101.83392,494.86279 103.78573,494.47649 105.20892,493.7039 C 106.02217,493.29728 106.67277,492.52469 107.16073,491.38613 C 107.64867,490.24759 107.89265,487.92982 107.89266,484.43282 L 107.89266,433.86884 C 107.89265,427.48487 107.74016,423.56093 107.4352,422.097 C 107.13022,420.63322 106.6626,419.63698 106.03234,419.1083 C 105.40206,418.57976 104.55831,418.31545 103.50109,418.31537 C 102.64717,418.31545 101.26464,418.64076 99.3535,419.29128 L 98.49959,417.15649 L 115.21193,410.32517 L 118.01765,410.32517 z M 173.46115,462.23102 C 173.42047,470.52623 175.43327,477.03225 179.49955,481.74908 C 183.56579,486.46597 188.34365,488.82439 193.83313,488.82438 C 197.49273,488.82439 200.67458,487.818 203.37868,485.80519 C 206.0827,483.7924 208.34964,480.34625 210.17951,475.46671 L 212.07032,476.68659 C 211.21636,482.25739 208.73594,487.33005 204.62906,491.90459 C 200.52209,496.47913 195.37827,498.7664 189.19759,498.7664 C 182.48823,498.7664 176.74465,496.15382 171.9668,490.92867 C 167.18893,485.70354 164.8,478.67908 164.80001,469.85527 C 164.8,460.29959 167.24993,452.84816 172.14978,447.50098 C 177.04961,442.1539 183.19983,439.48034 190.60046,439.48028 C 196.86247,439.48034 202.00627,441.54397 206.03192,445.67116 C 210.05747,449.79847 212.07027,455.31842 212.07032,462.23102 L 173.46115,462.23102 z M 173.46115,458.69337 L 199.32259,458.69337 C 199.11924,455.1151 198.69227,452.59402 198.04171,451.13012 C 197.02512,448.85307 195.51043,447.06391 193.49767,445.76265 C 191.48484,444.4615 189.38055,443.8109 187.18479,443.81085 C 183.80976,443.8109 180.79057,445.12227 178.12719,447.74496 C 175.46377,450.36774 173.90842,454.01722 173.46115,458.69337 L 173.46115,458.69337 z M 1040.2463,412.45996 L 1042.137,440.57817 L 1040.2463,440.57817 C 1037.7251,432.16107 1034.1265,426.10234 1029.4503,422.40197 C 1024.774,418.70175 1019.1626,416.8516 1012.616,416.85152 C 1007.1265,416.8516 1002.1656,418.24429 997.7334,421.02961 C 993.3012,423.81507 989.8144,428.25746 987.273,434.35679 C 984.73153,440.45624 983.46082,448.03981 983.46084,457.10753 C 983.46082,464.58949 984.66037,471.07518 987.0595,476.5646 C 989.4585,482.05407 993.0674,486.26265 997.8859,489.19035 C 1002.7044,492.11806 1008.204,493.58192 1014.3848,493.58191 C 1019.7522,493.58192 1024.4894,492.4332 1028.5964,490.13576 C 1032.7032,487.83833 1037.2168,483.27395 1042.137,476.44261 L 1044.0279,477.6625 C 1039.8802,485.02244 1035.0414,490.41024 1029.5113,493.82589 C 1023.9811,497.24155 1017.4141,498.94938 1009.8102,498.94938 C 996.1069,498.94938 985.49396,493.86656 977.97139,483.7009 C 972.35994,476.13767 969.55422,467.23256 969.55423,456.98555 C 969.55422,448.73108 971.40437,441.1475 975.10468,434.2348 C 978.80496,427.32222 983.89795,421.96492 990.3837,418.1629 C 996.8693,414.36102 1003.9547,412.46004 1011.64,412.45996 C 1017.6174,412.46004 1023.5135,413.92389 1029.3283,416.85152 C 1031.0361,417.74618 1032.2559,418.19347 1032.988,418.19339 C 1034.0858,418.19347 1035.0414,417.80718 1035.8547,417.03451 C 1036.9118,415.93669 1037.6641,414.41185 1038.1114,412.45996 L 1040.2463,412.45996 z M 1079.7093,439.54127 C 1088.1671,439.54133 1094.9577,442.75368 1100.0813,449.17832 C 1104.4321,454.66782 1106.6076,460.97052 1106.6077,468.08645 C 1106.6076,473.08797 1105.4081,478.15047 1103.009,483.27393 C 1100.6098,488.39744 1097.306,492.26039 1093.0975,494.86279 C 1088.8888,497.4652 1084.2025,498.7664 1079.0384,498.7664 C 1070.6212,498.7664 1063.9322,495.41173 1058.9713,488.7024 C 1054.7831,483.0503 1052.689,476.70695 1052.689,469.67228 C 1052.689,464.54883 1053.9596,459.45583 1056.5011,454.3933 C 1059.0425,449.33085 1062.387,445.58989 1066.5346,443.17041 C 1070.6822,440.75104 1075.0737,439.54133 1079.7093,439.54127 L 1079.7093,439.54127 z M 1077.8184,443.50588 C 1075.6633,443.50593 1073.498,444.14637 1071.3227,445.42719 C 1069.1472,446.70811 1067.3885,448.95472 1066.0466,452.16702 C 1064.7048,455.37941 1064.0338,459.50666 1064.0338,464.5488 C 1064.0338,472.68135 1065.6502,479.69564 1068.8829,485.59171 C 1072.1155,491.48779 1076.3749,494.43583 1081.6611,494.43583 C 1085.6053,494.43583 1088.8583,492.80933 1091.4201,489.55631 C 1093.9819,486.30332 1095.2627,480.7122 1095.2627,472.78298 C 1095.2627,462.86133 1093.128,455.05411 1088.8584,449.3613 C 1085.9713,445.45773 1082.2913,443.50593 1077.8184,443.50588 L 1077.8184,443.50588 z M 1131.4322,451.4351 C 1135.4984,447.36888 1137.8975,445.03078 1138.6294,444.42079 C 1140.4593,442.87566 1142.4314,441.67611 1144.5459,440.82215 C 1146.6603,439.96829 1148.7544,439.54133 1150.8283,439.54127 C 1154.3252,439.54133 1157.3343,440.55789 1159.8553,442.59097 C 1162.3764,444.62415 1164.0638,447.5722 1164.9178,451.4351 C 1169.1061,446.55563 1172.6437,443.35345 1175.5308,441.82854 C 1178.4178,440.30375 1181.3862,439.54133 1184.4359,439.54127 C 1187.4043,439.54133 1190.0371,440.30375 1192.3347,441.82854 C 1194.632,443.35345 1196.4517,445.84403 1197.7936,449.3003 C 1198.6881,451.65878 1199.1354,455.35908 1199.1355,460.4012 L 1199.1355,484.43282 C 1199.1354,487.92982 1199.3997,490.32891 1199.9284,491.63011 C 1200.3349,492.52469 1201.0872,493.28712 1202.1852,493.91739 C 1203.283,494.54765 1205.0721,494.86279 1207.5526,494.86279 L 1207.5526,497.05857 L 1179.9833,497.05857 L 1179.9833,494.86279 L 1181.1423,494.86279 C 1183.5413,494.86279 1185.4118,494.39517 1186.7537,493.45993 C 1187.6889,492.80933 1188.3598,491.77243 1188.7665,490.34923 C 1188.9291,489.65798 1189.0104,487.68584 1189.0104,484.43282 L 1189.0104,460.4012 C 1189.0104,455.84703 1188.4615,452.63469 1187.3637,450.76416 C 1185.7778,448.1618 1183.2363,446.8606 1179.7394,446.86055 C 1177.5842,446.8606 1175.4189,447.39937 1173.2435,448.47689 C 1171.068,449.55449 1168.4351,451.55713 1165.3448,454.48479 L 1165.2229,455.15572 L 1165.3448,457.77847 L 1165.3448,484.43282 C 1165.3447,488.25512 1165.5583,490.63388 1165.9853,491.56911 C 1166.4122,492.50436 1167.2152,493.28712 1168.3945,493.91739 C 1169.5737,494.54765 1171.5865,494.86279 1174.4329,494.86279 L 1174.4329,497.05857 L 1146.1928,497.05857 L 1146.1928,494.86279 C 1149.283,494.86279 1151.4077,494.49683 1152.5666,493.7649 C 1153.7254,493.03298 1154.5285,491.93508 1154.9758,490.47123 C 1155.1792,489.77996 1155.2808,487.76717 1155.2808,484.43282 L 1155.2808,460.4012 C 1155.2808,455.84703 1154.6099,452.57369 1153.2681,450.58118 C 1151.4788,447.97882 1148.9781,446.67761 1145.7658,446.67757 C 1143.57,446.67761 1141.3945,447.26722 1139.2394,448.44639 C 1135.8644,450.2356 1133.262,452.24839 1131.4322,454.48479 L 1131.4322,484.43282 C 1131.4322,488.09247 1131.6863,490.47123 1132.1946,491.56911 C 1132.7028,492.66701 1133.4551,493.49043 1134.4514,494.03937 C 1135.4476,494.58832 1137.4705,494.86279 1140.5203,494.86279 L 1140.5203,497.05857 L 1112.89,497.05857 L 1112.89,494.86279 C 1115.4518,494.86279 1117.2409,494.58832 1118.2575,494.03937 C 1119.2741,493.49043 1120.0467,492.61618 1120.5753,491.41663 C 1121.1039,490.21709 1121.3681,487.88916 1121.3681,484.43282 L 1121.3681,463.08494 C 1121.3681,456.94492 1121.1852,452.98032 1120.8192,451.19112 C 1120.5346,449.8493 1120.0873,448.92422 1119.4774,448.41589 C 1118.8674,447.90766 1118.0339,447.65352 1116.9766,447.65347 C 1115.8381,447.65352 1114.4758,447.95848 1112.89,448.56838 L 1111.9751,446.3726 L 1128.8094,439.54127 L 1131.4322,439.54127 L 1131.4322,451.4351 z M 1207.9186,446.73856 L 1225.1189,439.78525 L 1227.4367,439.78525 L 1227.4367,452.83795 C 1230.3237,447.91783 1233.2209,444.47167 1236.1283,442.49948 C 1239.0357,440.5274 1242.0956,439.54133 1245.3079,439.54127 C 1250.9193,439.54133 1255.5955,441.73711 1259.3365,446.12862 C 1263.9313,451.49613 1266.2287,458.4901 1266.2288,467.11054 C 1266.2287,476.7476 1263.4637,484.71747 1257.9337,491.02017 C 1253.3794,496.18433 1247.646,498.7664 1240.7334,498.7664 C 1237.7243,498.7664 1235.1219,498.33944 1232.9262,497.48553 C 1231.2996,496.87559 1229.4697,495.65571 1227.4367,493.82589 L 1227.4367,510.84321 C 1227.4367,514.66547 1227.6705,517.09507 1228.1381,518.13198 C 1228.6057,519.16885 1229.4189,519.99228 1230.5779,520.60224 C 1231.7367,521.21215 1233.841,521.51712 1236.8908,521.51714 L 1236.8908,523.77392 L 1207.6136,523.77392 L 1207.6136,521.51714 L 1209.1385,521.51714 C 1211.3749,521.55778 1213.2861,521.13083 1214.8719,520.23627 C 1215.6445,519.78896 1216.2443,519.0672 1216.6713,518.07099 C 1217.0982,517.07473 1217.3117,514.54349 1217.3117,510.47724 L 1217.3117,457.65648 C 1217.3117,454.03755 1217.149,451.7401 1216.8237,450.76416 C 1216.4984,449.7883 1215.9799,449.05638 1215.2683,448.56838 C 1214.5568,448.08048 1213.591,447.8365 1212.3712,447.83645 C 1211.3952,447.8365 1210.155,448.12113 1208.6505,448.69037 L 1207.9186,446.73856 z M 1227.4367,456.4366 L 1227.4367,477.29653 C 1227.4367,481.8101 1227.6197,484.77847 1227.9856,486.20165 C 1228.5548,488.56009 1229.9475,490.63388 1232.1637,492.42303 C 1234.3798,494.21219 1237.1754,495.10676 1240.5504,495.10676 C 1244.6166,495.10676 1247.9103,493.52093 1250.4314,490.34923 C 1253.725,486.20166 1255.3718,480.36657 1255.3719,472.84397 C 1255.3718,464.30485 1253.5014,457.73784 1249.7605,453.14292 C 1247.158,449.97128 1244.0677,448.38545 1240.4894,448.3854 C 1238.5375,448.38545 1236.6061,448.8734 1234.695,449.84925 C 1233.2311,450.58122 1230.8116,452.777 1227.4367,456.4366 L 1227.4367,456.4366 z M 1306.0578,489.00737 C 1300.3244,493.4396 1296.7258,496.00134 1295.262,496.69261 C 1293.0662,497.70918 1290.7281,498.21745 1288.2477,498.21746 C 1284.3847,498.21745 1281.2028,496.89592 1278.7021,494.25285 C 1276.2013,491.60978 1274.951,488.13313 1274.951,483.82288 C 1274.951,481.0985 1275.5609,478.74007 1276.7808,476.74758 C 1278.448,473.98255 1281.3451,471.38014 1285.4724,468.94036 C 1289.5996,466.50063 1296.4615,463.53226 1306.0578,460.03524 L 1306.0578,457.83945 C 1306.0578,452.26872 1305.1734,448.44643 1303.4047,446.3726 C 1301.6358,444.29885 1299.0639,443.26196 1295.6889,443.2619 C 1293.1272,443.26196 1291.094,443.95323 1289.5895,445.3357 C 1288.0444,446.71828 1287.2717,448.30412 1287.2717,450.09322 L 1287.3937,453.63087 C 1287.3937,455.5014 1286.9159,456.94492 1285.9604,457.96145 C 1285.0048,458.97805 1283.7544,459.48634 1282.2093,459.4863 C 1280.7047,459.48634 1279.4746,458.95772 1278.5191,457.90045 C 1277.5635,456.84327 1277.0857,455.39974 1277.0857,453.56988 C 1277.0857,450.07295 1278.8749,446.8606 1282.4533,443.93284 C 1286.0315,441.00518 1291.0534,439.54133 1297.5188,439.54127 C 1302.4796,439.54133 1306.5458,440.37491 1309.7175,442.04202 C 1312.1166,443.30262 1313.8854,445.27476 1315.024,447.95844 C 1315.7559,449.70698 1316.1219,453.28529 1316.1219,458.69337 L 1316.1219,477.6625 C 1316.1219,482.98932 1316.2235,486.25248 1316.4268,487.45202 C 1316.6301,488.65158 1316.9656,489.45466 1317.4332,489.86128 C 1317.9008,490.26792 1318.4396,490.47123 1319.0496,490.47123 C 1319.7002,490.47123 1320.2695,490.32891 1320.7574,490.04426 C 1321.6113,489.51566 1323.2581,488.03147 1325.6979,485.59171 L 1325.6979,489.00737 C 1321.1437,495.10676 1316.7928,498.15646 1312.6452,498.15646 C 1310.6527,498.15646 1309.0668,497.4652 1307.8877,496.08266 C 1306.7084,494.70014 1306.0985,492.34171 1306.0578,489.00737 L 1306.0578,489.00737 z M 1306.0578,485.04276 L 1306.0578,463.75587 C 1299.9178,466.19566 1295.9532,467.92382 1294.1641,468.94036 C 1290.9517,470.72954 1288.6542,472.60002 1287.2717,474.5518 C 1285.8892,476.50363 1285.1979,478.63842 1285.1979,480.95617 C 1285.1979,483.88389 1286.0721,486.31348 1287.8207,488.24494 C 1289.5691,490.17643 1291.582,491.14216 1293.8591,491.14216 C 1296.9494,491.14216 1301.0157,489.10904 1306.0578,485.04276 L 1306.0578,485.04276 z M 1346.0699,451.3741 C 1352.6166,443.4856 1358.8584,439.54133 1364.7951,439.54127 C 1367.8448,439.54133 1370.4675,440.30375 1372.6633,441.82854 C 1374.859,443.35345 1376.6076,445.86436 1377.9088,449.3613 C 1378.8033,451.8011 1379.2506,455.54206 1379.2507,460.58418 L 1379.2507,484.43282 C 1379.2506,487.97048 1379.5352,490.36957 1380.1046,491.63011 C 1380.5518,492.64668 1381.2736,493.4396 1382.2698,494.00888 C 1383.266,494.57815 1385.1061,494.86279 1387.7898,494.86279 L 1387.7898,497.05857 L 1360.1596,497.05857 L 1360.1596,494.86279 L 1361.3184,494.86279 C 1363.9209,494.86279 1365.7405,494.46633 1366.7774,493.67341 C 1367.8143,492.88049 1368.536,491.71144 1368.9427,490.16625 C 1369.1053,489.55632 1369.1867,487.64518 1369.1867,484.43282 L 1369.1867,461.56009 C 1369.1867,456.4773 1368.5259,452.78717 1367.2043,450.48969 C 1365.8828,448.19229 1363.6565,447.04358 1360.5256,447.04353 C 1355.6866,447.04358 1350.8682,449.68665 1346.0699,454.97274 L 1346.0699,484.43282 C 1346.0699,488.21446 1346.2936,490.55256 1346.7409,491.44713 C 1347.3101,492.62634 1348.093,493.49043 1349.0891,494.03937 C 1350.0854,494.58832 1352.1084,494.86279 1355.158,494.86279 L 1355.158,497.05857 L 1327.5278,497.05857 L 1327.5278,494.86279 L 1328.7477,494.86279 C 1331.594,494.86279 1333.5154,494.14103 1334.5116,492.6975 C 1335.5078,491.25398 1336.006,488.49909 1336.006,484.43282 L 1336.006,463.69488 C 1336.006,456.98559 1335.8535,452.89899 1335.5485,451.4351 C 1335.2436,449.97128 1334.7759,448.97505 1334.1457,448.44639 C 1333.5154,447.91783 1332.6716,447.65352 1331.6144,447.65347 C 1330.4758,447.65352 1329.1137,447.95848 1327.5278,448.56838 L 1326.6129,446.3726 L 1343.4472,439.54127 L 1346.0699,439.54127 L 1346.0699,451.3741 z M 1389.0707,441.18811 L 1415.1151,441.18811 L 1415.1151,443.44489 L 1413.8343,443.44489 C 1412.0044,443.44494 1410.6321,443.8414 1409.7171,444.63426 C 1408.8022,445.42724 1408.3448,446.41331 1408.3448,447.59247 C 1408.3448,449.17837 1409.0157,451.37415 1410.3576,454.17982 L 1423.9592,482.35903 L 1436.463,451.49609 C 1437.1542,449.82897 1437.4999,448.18213 1437.4999,446.55557 C 1437.4999,445.8237 1437.3576,445.27476 1437.073,444.90874 C 1436.7476,444.4615 1436.2393,444.10571 1435.5481,443.84135 C 1434.8567,443.57709 1433.6369,443.44494 1431.8884,443.44489 L 1431.8884,441.18811 L 1450.0646,441.18811 L 1450.0646,443.44489 C 1448.5601,443.60759 1447.4012,443.93289 1446.588,444.42079 C 1445.7747,444.90879 1444.8801,445.8237 1443.9043,447.16552 C 1443.5383,447.73485 1442.8469,449.30035 1441.8305,451.86205 L 1419.0797,507.61053 C 1416.8839,513.01864 1414.007,517.10523 1410.4491,519.87031 C 1406.891,522.63534 1403.4653,524.01788 1400.1716,524.01789 C 1397.7725,524.01788 1395.8003,523.32661 1394.2552,521.94411 C 1392.71,520.56155 1391.9375,518.97571 1391.9375,517.18658 C 1391.9375,515.47872 1392.4965,514.10636 1393.6148,513.06948 C 1394.733,512.03257 1396.268,511.51412 1398.2198,511.51414 C 1399.5616,511.51412 1401.3914,511.96141 1403.7093,512.85601 C 1405.3358,513.46592 1406.3523,513.77089 1406.759,513.77091 C 1407.9788,513.77089 1409.3105,513.14062 1410.754,511.8801 C 1412.1975,510.61955 1413.6513,508.17979 1415.1151,504.56083 L 1419.0797,494.86279 L 1399.0128,452.71597 C 1398.4028,451.45547 1397.4268,449.88996 1396.085,448.01943 C 1395.0684,446.59629 1394.2349,445.64072 1393.5842,445.15272 C 1392.649,444.50216 1391.1445,443.93289 1389.0707,443.44489 L 1389.0707,441.18811 z"
       id="text5841" />
    <path
       style="font-size:461.02346802px;font-style:normal;font-weight:normal;line-height:125%;fill:#000000;fill-opacity:1;stroke:none;stroke-width:1px;stroke-linecap:butt;stroke-linejoin:miter;stroke-opacity:1;font-family:Bitstream Vera Sans"
       d="M 314.42673,370.47162 C 317.96593,373.55469 321.13421,377.15057 323.9316,381.2593 C 326.72879,385.36826 329.0976,389.73401 331.03804,394.35657 C 332.97827,398.97934 334.43352,403.7457 335.4038,408.65566 C 336.37385,413.56582 336.85894,418.41752 336.85905,423.2108 C 336.85894,435.19428 335.51777,445.75202 332.83555,454.88409 C 330.15311,464.01626 326.84287,471.63564 322.90482,477.74227 C 318.96659,483.84894 314.65744,488.47248 309.97738,491.61289 C 305.29715,494.75332 301.01675,496.32352 297.13615,496.32351 C 289.14482,496.32352 284.06407,493.06989 281.89388,486.56262 C 290.45638,479.25764 296.96364,471.66699 301.41568,463.79066 C 305.86758,455.9144 308.09356,448.0381 308.09365,440.16175 C 308.09356,437.99156 307.86539,435.62275 307.40913,433.05531 C 306.9527,430.488 306.15323,428.09133 305.01071,425.86526 C 303.86803,423.63936 302.41277,421.75563 300.64495,420.21408 C 298.87698,418.67269 296.67973,417.90195 294.05321,417.90188 C 291.88289,417.90195 289.11434,418.64395 285.74756,420.12786 C 282.38065,421.61193 279.07041,423.95201 275.81683,427.14808 C 272.56315,430.34431 269.76673,434.48189 267.42757,439.56084 C 265.08833,444.63991 263.91874,450.77617 263.91876,457.96965 C 263.91874,458.31108 263.97534,459.22377 264.08859,460.70772 C 264.20177,462.19175 264.3446,463.98926 264.51707,466.10025 C 264.68947,468.21132 264.91764,470.4373 265.20158,472.77821 C 265.48545,475.11918 265.7415,477.25982 265.96971,479.20013 C 266.19784,481.14049 266.39814,482.79517 266.57062,484.16419 C 266.74302,485.53324 266.88671,486.21776 267.00171,486.21774 C 265.97402,487.36036 264.60412,488.21731 262.89199,488.7886 C 261.17979,489.35991 259.46676,489.64557 257.75289,489.64555 C 254.89984,489.64557 252.53189,488.90357 250.64906,487.41957 C 248.76618,485.93559 247.28219,484.0806 246.19708,481.8546 C 245.11194,479.62863 244.36995,477.14573 243.9711,474.4059 C 243.57222,471.66612 243.37279,468.98292 243.3728,466.3563 C 243.37279,459.28124 244.17139,452.17656 245.76861,445.0422 C 247.36579,437.90796 249.59091,431.00182 252.44396,424.3238 C 255.29696,417.64591 258.72128,411.28148 262.71694,405.23047 C 266.71254,399.17964 271.16451,393.64429 276.07286,388.62439 C 276.41769,388.27963 276.90365,387.79368 277.53074,387.16653 C 278.15772,386.5396 278.47125,385.76973 278.47129,384.85693 C 278.47125,383.59949 277.67177,382.97071 276.07286,382.97059 C 274.9337,382.97071 273.62215,383.37045 272.1382,384.1698 C 270.65417,384.9694 269.28339,385.82547 268.02588,386.73805 C 262.08987,390.84875 256.75308,395.7858 252.01548,401.54922 C 247.27783,407.31285 243.25435,413.56233 239.94499,420.29768 C 236.63561,427.0332 234.0961,434.13963 232.32647,441.617 C 230.55682,449.09449 229.672,456.4857 229.67201,463.79066 C 229.672,467.89779 230.15708,471.92042 231.12725,475.85854 C 232.09742,479.79672 233.61015,483.33599 235.66544,486.4764 C 237.72073,489.61682 240.40306,492.1572 243.71244,494.09753 C 247.02179,496.03787 251.0749,497.00804 255.87178,497.00804 C 258.15346,497.00804 260.55014,496.72239 263.06181,496.15108 C 265.57342,495.57979 267.91262,494.83779 270.07943,493.92509 C 270.19433,494.61136 270.82312,495.89592 271.96576,497.77877 C 273.10832,499.66163 274.7064,501.54449 276.75999,503.42735 C 278.8135,505.3102 281.32427,506.99362 284.2923,508.47762 C 287.26022,509.9616 290.62707,510.70359 294.39285,510.7036 C 297.93207,510.70359 301.81361,510.01908 306.03748,508.65005 C 310.2612,507.28101 314.51374,505.22659 318.79511,502.48678 C 323.07629,499.74698 327.21387,496.29392 331.20786,492.12758 C 335.20164,487.96127 338.74005,483.05296 341.8231,477.40262 C 344.90593,471.75234 347.38882,465.3313 349.2718,458.13947 C 351.15454,450.94774 352.09596,443.01483 352.09609,434.34074 C 352.09596,428.97615 351.41145,423.35458 350.04254,417.47601 C 348.67339,411.59761 346.73304,405.91856 344.22153,400.43884 C 341.70978,394.95933 338.71305,389.82197 335.23136,385.02675 C 331.74944,380.23177 327.955,376.17954 323.84799,372.87004 C 322.59034,371.84253 321.10548,370.98644 319.3934,370.3018 C 317.68115,369.61742 316.14055,369.27515 314.77161,369.27502 L 314.42673,370.47162 z M 280.1852,474.40328 C 279.7288,474.06193 279.47189,473.06389 279.41447,471.40918 C 279.35694,469.75452 279.32819,468.2984 279.32825,467.04081 C 279.32819,465.78677 279.41354,463.87517 279.58429,461.30602 C 279.75493,458.73694 280.01184,455.88305 280.35502,452.74432 C 280.6981,449.6057 281.15444,446.38168 281.72406,443.07225 C 282.29356,439.76294 282.97807,436.73836 283.77761,433.99848 C 284.57702,431.25874 285.51933,429.03275 286.60451,427.32052 C 287.68957,425.60843 288.91665,424.75234 290.28575,424.75227 C 291.19837,424.75234 291.91163,425.12334 292.42552,425.86526 C 292.93927,426.60734 293.33901,427.57751 293.62472,428.77577 C 293.91031,429.97418 294.08188,431.25787 294.13943,432.62684 C 294.19683,433.99593 294.22558,435.25175 294.22564,436.39429 C 294.22558,443.243 293.19792,449.72066 291.1427,455.82727 C 289.08735,461.93397 285.43484,468.12597 280.1852,474.40328 L 280.1852,474.40328 z M 382.37161,436.56672 L 381.8543,438.62027 L 373.63487,448.72082 C 372.6072,450.31983 371.4942,452.17481 370.29588,454.2858 C 369.09753,456.39687 367.89918,458.59411 366.70086,460.87754 C 365.50251,463.16104 364.38952,465.35916 363.36188,467.4719 C 362.33423,469.5847 361.47901,471.38309 360.79625,472.86704 L 355.14244,472.86704 C 354.00333,472.86707 353.2056,472.8096 352.74925,472.69461 L 352.40438,475.94476 C 354.22976,476.1747 355.54218,476.91757 356.34166,478.17336 C 357.14113,479.4292 357.54086,480.74163 357.54087,482.11064 C 354.34645,487.81671 352.74925,492.72502 352.74925,496.8356 C 352.74925,498.66098 352.97742,500.20158 353.43377,501.4574 C 353.89011,502.71322 354.74532,503.96991 355.9994,505.22746 C 356.68566,505.33893 357.28569,505.45215 357.79952,505.56711 C 358.31335,505.68206 358.8559,505.73955 359.42721,505.73955 C 361.25259,505.73955 362.62161,505.2832 363.53432,504.37051 L 365.42066,499.40646 C 366.67472,496.20857 367.70149,493.21097 368.50098,490.41368 C 369.30044,487.6164 370.32722,485.98958 371.58131,485.53323 C 371.69625,485.42176 372.03938,485.36603 372.6107,485.36602 C 373.29346,485.36603 374.29149,485.3939 375.60481,485.44962 C 376.91808,485.50538 379.05872,485.53324 382.02674,485.53323 L 387.5081,485.53323 L 388.19261,495.46656 C 389.10526,497.74829 390.21739,499.65989 391.52898,501.20136 C 392.8405,502.74282 394.29575,503.51356 395.89474,503.51356 C 396.58096,503.51356 397.20974,503.34287 397.78108,503.00148 C 398.00747,501.97383 398.14942,500.86084 398.20694,499.6625 C 398.26438,498.46416 398.29312,496.381 398.29316,493.41301 C 398.29312,490.10017 398.20776,487.04597 398.03712,484.25041 C 397.86638,481.45488 397.63821,478.65846 397.35261,475.86116 C 397.06691,473.06389 396.69591,470.15252 396.23961,467.12703 C 395.78322,464.1016 395.32688,460.70602 394.87057,456.94026 C 394.64062,455.7977 394.32623,454.45654 393.9274,452.91676 C 393.5285,451.37708 393.1009,449.83648 392.64459,448.29496 C 392.18821,446.75355 391.73099,445.32617 391.27294,444.01281 C 390.81482,442.69958 390.47255,441.70154 390.24616,441.0187 C 390.01621,439.7612 389.41617,438.56199 388.44604,437.42107 C 387.47584,436.28027 386.4212,435.70984 385.28211,435.70977 L 384.25272,435.70977 C 383.79634,435.70984 383.42534,435.73857 383.13973,435.79599 C 382.85405,435.85354 382.598,436.11045 382.37161,436.56672 L 382.37161,436.56672 z M 376.20572,472.01009 C 376.54708,470.98247 377.00343,469.66918 377.57476,468.0702 C 378.14603,466.47128 378.77394,464.90195 379.45849,463.36218 C 380.14298,461.82249 380.85623,460.48133 381.59826,459.33868 C 382.34022,458.19612 382.99687,457.5116 383.5682,457.28513 C 384.13947,458.31282 384.56795,459.48242 384.85364,460.79394 C 385.13925,462.10553 385.36742,463.47457 385.53815,464.90104 C 385.70881,466.32759 385.82289,467.66875 385.88041,468.92454 C 385.93785,470.18039 385.9666,471.20891 385.96662,472.01009 C 385.16538,472.1216 384.30842,472.17733 383.39576,472.1773 C 382.598,472.17733 381.79853,472.17733 380.99734,472.1773 C 380.19958,472.17733 379.40185,472.17733 378.60415,472.1773 C 377.8029,472.17733 377.00343,472.1216 376.20572,472.01009 L 376.20572,472.01009 z M 420.37538,439.81688 C 418.77642,440.38824 417.63469,440.9308 416.95019,441.44457 C 416.26565,441.95845 415.63774,442.67171 415.06646,443.58434 C 414.15375,445.29829 413.0695,447.69584 411.81369,450.77699 C 410.55786,453.85823 409.35953,457.22509 408.21868,460.87754 C 407.0778,464.53008 406.10764,468.26879 405.30817,472.09369 C 404.50869,475.91866 404.10896,479.42833 404.10896,482.62272 C 404.10896,484.79299 404.25178,487.04771 404.53743,489.3869 C 404.82308,491.72611 405.42225,493.86588 406.33495,495.80621 C 407.24763,497.74655 408.56005,499.34463 410.27223,500.60045 C 411.98437,501.85626 414.26697,502.48417 417.12001,502.48417 C 419.17529,502.48417 421.43001,501.885 423.88419,500.68667 C 426.33833,499.48832 428.62179,497.97647 430.73459,496.15108 C 432.84733,494.32571 434.61697,492.3279 436.04351,490.15764 C 437.47,487.9874 438.18325,485.98958 438.18328,484.16419 C 438.18325,483.5929 438.09791,482.7943 437.92724,481.76838 C 437.75651,480.7425 437.21308,480.22954 436.29695,480.22953 C 435.38422,480.22954 434.18588,480.54306 432.70192,481.17008 C 431.2179,481.79714 429.84887,482.3963 428.59482,482.96759 C 425.9682,483.8803 423.71347,484.76425 421.83064,485.61944 C 419.94776,486.47467 418.37756,486.90227 417.12001,486.90226 C 416.55218,486.90227 416.0967,486.61749 415.75359,486.04792 C 415.41045,485.47838 415.23888,484.79299 415.2389,483.99176 L 415.2389,483.30724 C 415.92514,477.3713 416.72461,472.5492 417.63732,468.84093 C 418.54999,465.13273 419.43394,461.90871 420.28917,459.16886 C 421.14436,456.42909 421.85762,453.91745 422.42893,451.63394 C 423.00022,449.35053 423.28587,446.66733 423.28589,443.58434 C 423.28587,442.33031 423.11431,441.38889 422.77119,440.76004 C 422.42804,440.13133 421.62944,439.81694 420.37538,439.81688 L 420.37538,439.81688 z M 470.98263,516.52461 C 470.86764,513.67158 470.78142,510.64699 470.72397,507.45085 C 470.66647,504.25468 470.63772,501.00192 470.63776,497.69255 C 470.63772,491.98302 470.83803,486.13241 471.23867,480.14069 C 471.63924,474.14902 472.58154,468.41336 474.06557,462.93371 L 475.08973,462.93371 C 476.57368,462.93375 478.45741,462.79092 480.74091,462.50523 C 483.02434,462.21962 485.22245,461.67706 487.33527,460.87754 C 489.448,460.07811 491.24637,458.90851 492.73041,457.36873 C 494.21435,455.82905 494.95635,453.86085 494.95641,451.46412 C 494.95635,448.38124 494.55661,445.89746 493.75719,444.01281 C 492.95766,442.12827 491.95876,440.72963 490.76047,439.81688 C 489.56208,438.90425 488.27753,438.30508 486.9068,438.01936 C 485.53598,437.73378 484.28103,437.59095 483.14195,437.59089 C 481.08661,437.59095 479.20288,437.99069 477.49076,438.7901 C 475.77857,439.58963 474.26584,440.53194 472.95257,441.617 C 471.63924,442.70218 470.46878,443.84391 469.44115,445.0422 C 468.41348,446.2406 467.50079,447.18115 466.70308,447.86387 C 463.16377,447.29611 459.91015,446.52624 456.94218,445.55428 C 453.97418,444.58242 451.00621,442.89813 448.03823,440.5014 C 447.69684,440.27503 447.52615,439.87616 447.52616,439.3048 C 447.52615,438.73356 447.4974,438.13439 447.43994,437.50729 C 447.38244,436.88031 447.26837,436.33862 447.09767,435.88221 C 446.92697,435.42593 446.55597,435.19776 445.98468,435.1977 C 444.72711,435.6541 443.84229,436.73836 443.33022,438.45045 C 442.81813,440.16268 442.56209,441.58832 442.56209,442.72739 C 442.56209,449.2347 448.49631,454.82927 460.36477,459.51112 C 458.88076,464.07461 457.5396,469.3243 456.34127,475.26024 C 455.14291,481.19623 454.54374,487.87418 454.54376,495.29413 C 454.54374,497.92072 454.68657,500.88871 454.97223,504.19808 C 455.25787,507.50744 456.14269,510.30473 457.6267,512.58995 C 458.42442,513.61758 459.65149,514.81592 461.30794,516.18497 C 462.96435,517.55398 464.59203,518.23851 466.191,518.23852 C 467.44505,518.23851 468.35774,518.12442 468.92908,517.89626 C 469.50034,517.66807 470.18487,517.21086 470.98263,516.52461 L 470.98263,516.52461 z M 477.66059,449.0657 C 477.77551,446.8955 478.71781,445.23995 480.48749,444.09903 C 482.25709,442.95822 483.99712,442.3878 485.70759,442.38773 C 486.50527,442.3878 487.13318,442.67258 487.59131,443.24208 C 488.04935,443.81169 488.2784,444.4396 488.27844,445.12581 C 488.2784,445.69716 487.99274,446.23973 487.42149,446.75349 C 486.85014,447.26737 486.16476,447.72371 485.36532,448.12253 C 484.56581,448.52144 483.70972,448.83497 482.79708,449.06308 C 481.88435,449.29131 481.08488,449.40539 480.39865,449.40535 C 479.82732,449.40539 479.34223,449.37753 478.9434,449.32174 C 478.5445,449.26606 478.1169,449.18071 477.66059,449.0657 L 477.66059,449.0657 z M 535.96474,396.32652 C 536.42108,395.87027 536.64926,395.41393 536.64925,394.95748 C 536.64926,394.38629 536.3636,393.92994 535.7923,393.58844 C 535.56587,393.4736 535.10953,393.35951 534.42326,393.24619 C 533.73702,393.13308 533.02289,392.99025 532.28088,392.81771 C 531.53889,392.64539 530.85438,392.44508 530.22733,392.2168 C 529.6003,391.98874 529.28678,391.70396 529.28678,391.36246 C 529.28678,390.56484 530.60008,389.88032 533.22666,389.30891 C 535.5084,388.73772 537.8476,388.33798 540.24428,388.1097 C 542.64096,387.88164 544.9819,387.76755 547.26711,387.76744 C 558.56772,387.76755 569.15508,388.73772 579.02923,390.67794 C 588.9033,392.61839 598.91937,395.52889 609.07745,399.40945 C 613.87074,401.23493 618.8644,403.40344 624.05845,405.91498 C 629.25233,408.42672 634.33221,411.224 639.2981,414.30685 C 644.2638,417.38988 649.00142,420.75759 653.51098,424.41002 C 658.02032,428.06258 661.95847,431.972 665.32544,436.13825 C 668.69216,440.30463 671.37449,444.69913 673.37244,449.32174 C 675.37012,453.94445 676.36903,458.76742 676.36915,463.79066 C 676.36903,468.92545 675.37012,473.2912 673.37244,476.88793 C 671.37449,480.48472 668.74877,483.53891 665.49526,486.05053 C 662.2415,488.56218 658.56026,490.56 654.45154,492.04398 C 650.34258,493.52797 646.14752,494.69757 641.86635,495.55278 C 637.58498,496.40799 633.38992,496.94969 629.28116,497.17786 C 625.17224,497.40603 621.57634,497.52012 618.49348,497.52012 C 616.32664,497.52012 613.73053,497.32068 610.70513,496.92182 C 607.67961,496.52296 604.79611,495.46657 602.05462,493.75266 L 601.8874,456.76782 C 602.57012,456.54144 603.19716,456.37074 603.76852,456.25575 C 604.33976,456.14083 605.19671,456.08335 606.33938,456.08331 C 609.76364,456.08335 613.35866,456.369 617.12445,456.94026 C 620.89009,457.5116 624.45724,458.22486 627.82591,459.08003 C 631.19441,459.93528 634.13365,460.87671 636.64364,461.90432 C 639.15344,462.932 640.86647,463.95964 641.78275,464.98726 C 641.21135,466.1299 640.15496,467.3291 638.61358,468.58489 C 637.07202,469.84074 635.67425,471.21065 634.42026,472.69461 C 635.33287,473.37741 636.55907,473.91911 638.09889,474.31968 C 639.63853,474.72031 640.92221,474.92062 641.94995,474.92059 C 643.43384,474.92062 644.86123,474.49215 646.2321,473.63517 C 647.60278,472.77824 648.8586,471.7506 649.99957,470.55222 C 651.14032,469.35392 652.053,468.07023 652.73763,466.70116 C 653.42204,465.33217 653.76429,464.13382 653.76441,463.10614 C 653.76429,460.25315 652.85161,457.74152 651.02634,455.57122 C 649.20085,453.40103 646.80417,451.5739 643.8363,450.08986 C 640.86822,448.60592 637.55798,447.37884 633.90557,446.40862 C 630.25299,445.43851 626.62835,444.69651 623.03167,444.18263 C 619.43483,443.66887 616.03837,443.29787 612.8423,443.06964 C 609.64607,442.84153 607.07783,442.72744 605.13755,442.72739 L 602.73913,442.72739 C 602.51265,440.78711 602.34195,438.93212 602.22705,437.16241 C 602.11203,435.39284 601.99882,433.65281 601.8874,431.94231 C 601.77239,430.00205 601.60083,428.1758 601.37271,426.46357 C 601.14448,424.75148 600.77348,423.18214 600.25972,421.75554 C 599.74584,420.32912 599.03259,418.93048 598.11994,417.55962 C 597.2072,416.18893 595.95139,414.87649 594.35249,413.62234 C 593.3248,414.53511 592.46871,416.16106 591.78425,418.50017 C 591.09967,420.83946 590.52925,423.32236 590.07295,425.94887 C 589.61656,428.57554 589.24556,430.97309 588.95995,433.14153 C 588.67426,435.3101 588.53143,436.62253 588.53148,437.07881 L 588.18661,444.09641 C 579.73897,445.58046 572.77623,447.23602 567.29838,449.06308 C 561.82049,450.89026 557.08374,453.28781 553.08811,456.25575 C 549.31891,458.88238 547.43431,461.50724 547.43431,464.13031 C 547.43431,466.75694 548.34787,469.38265 550.17499,472.00748 C 552.00211,474.63236 553.88584,476.97243 555.82619,479.02769 C 558.1079,481.65432 561.76039,484.85134 566.78369,488.61878 C 571.80694,492.38624 578.25672,496.5517 586.13306,501.11514 C 586.70432,503.74173 587.27561,506.22462 587.84697,508.56383 C 588.41822,510.90303 589.33091,512.8721 590.58503,514.47106 L 594.52493,514.81594 C 595.66399,514.81592 596.69077,514.75845 597.60525,514.6435 C 598.51963,514.52853 599.49066,514.35783 600.51837,514.13141 C 601.08613,512.19107 601.51286,510.73495 601.79858,509.76305 C 602.08417,508.79113 602.34195,507.84883 602.57193,506.93615 C 606.45253,507.50744 610.59011,508.07875 614.98467,508.65005 C 619.3791,509.22135 623.57416,509.50699 627.56986,509.507 C 635.33112,509.50699 643.06459,508.56557 650.7703,506.68272 C 658.47579,504.79986 665.41066,501.94596 671.57492,498.12103 C 677.73892,494.2961 682.73258,489.501 686.55592,483.73572 C 690.37897,477.97046 692.29056,471.20716 692.29072,463.44578 C 692.29056,457.62482 690.97814,451.9179 688.35343,446.32502 C 685.72844,440.73224 682.24663,435.39545 677.90801,430.31463 C 673.56912,425.23394 668.6608,420.46846 663.18305,416.01815 C 657.70506,411.568 652.11223,407.5445 646.40454,403.94765 C 640.69665,400.35098 635.10294,397.21144 629.62341,394.52901 C 624.14371,391.84678 619.29288,389.70615 615.07089,388.10708 C 606.62323,385.13922 597.80463,382.59971 588.61508,380.48856 C 579.42545,378.37765 570.94999,377.32214 563.18866,377.32202 C 561.24831,377.32214 558.90823,377.35088 556.16844,377.40824 C 553.42862,377.46584 550.60347,377.66527 547.69297,378.00653 C 544.78247,378.34805 541.87196,378.88974 538.96146,379.63161 C 536.05096,380.37372 533.48271,381.34389 531.25671,382.54212 C 529.03074,383.74058 527.2045,385.25331 525.77797,387.08031 C 524.35148,388.90754 523.63822,391.13439 523.6382,393.76088 C 523.63822,394.90011 524.52217,395.64123 526.29005,395.98426 C 528.05796,396.32749 529.91383,396.49905 531.85763,396.49895 C 532.77033,396.49905 533.59767,396.47032 534.33966,396.41274 C 535.08166,396.35536 535.62335,396.32662 535.96474,396.32652 L 535.96474,396.32652 z M 587.50209,456.60062 L 585.96062,489.81799 C 581.96495,488.90183 578.05554,487.53105 574.23239,485.70566 C 570.40916,483.8803 567.12679,481.82501 564.38526,479.53978 C 563.13116,478.62711 561.79087,477.60033 560.36438,476.45945 C 558.93785,475.31862 557.56794,474.14902 556.25466,472.95064 C 554.94135,471.75234 553.8571,470.52525 553.0019,469.26941 C 552.14668,468.01363 551.71907,466.81441 551.71908,465.67177 C 551.71907,464.18782 552.80333,462.96074 554.97184,461.99053 C 557.14034,461.0204 559.87927,460.19306 563.18866,459.5085 C 566.49801,458.82403 570.15051,458.28234 574.14617,457.88343 C 578.14176,457.48461 581.96669,457.057 585.62098,456.60062 L 587.50209,456.60062 z M 735.25332,395.98687 C 734.68198,394.04664 733.05517,392.44856 730.37288,391.19264 C 727.69051,389.93693 724.46649,389.30902 720.7008,389.30891 C 716.5902,389.30902 712.56583,390.1651 708.6277,391.87715 C 704.68953,393.58943 701.15112,395.72919 698.01245,398.29647 C 694.87377,400.86393 692.33427,403.6891 690.39393,406.77194 C 688.4536,409.85497 687.48344,412.82295 687.48343,415.67589 C 687.48344,417.61631 687.91104,419.38595 688.76625,420.98481 C 689.62146,422.58384 690.67784,424.23852 691.9354,425.94887 C 691.82044,426.40529 691.70549,426.89038 691.59053,427.40412 C 691.47557,427.91802 691.4181,428.40311 691.41809,428.85938 C 691.64801,430.79978 692.19057,432.45533 693.04579,433.82604 C 693.90099,435.19688 694.78494,435.99549 695.69763,436.22185 C 696.95519,435.99549 697.89749,435.48254 698.52453,434.68299 C 699.15156,433.88359 699.92143,432.91255 700.83413,431.76988 C 702.43307,432.34126 704.20271,432.74099 706.14305,432.96909 C 708.08337,433.19733 709.9105,433.31142 711.62442,433.31135 C 714.47742,433.31142 717.84427,432.45533 721.72496,430.74311 C 725.60561,429.03102 729.31558,426.83376 732.8549,424.15136 C 736.39415,421.4691 739.39087,418.44452 741.84507,415.07758 C 744.29918,411.71083 745.52626,408.37098 745.52631,405.05803 C 745.52626,403.46266 745.15527,402.09363 744.41332,400.95093 C 743.67127,399.80842 742.78645,398.83826 741.75885,398.04042 C 740.73116,397.2428 739.67565,396.67236 738.59231,396.32913 C 737.50888,395.9861 736.62406,395.81454 735.93785,395.81443 C 735.70789,395.81454 735.56506,395.84328 735.50937,395.90065 C 735.45359,395.95823 735.36824,395.98698 735.25332,395.98687 L 735.25332,395.98687 z M 705.45854,443.07225 C 704.88722,443.07231 704.54584,443.47118 704.43438,444.26885 C 703.29176,452.94641 702.54889,459.65311 702.20577,464.38895 C 701.86264,469.12487 701.63533,472.1216 701.52387,473.37913 C 701.40891,475.66087 701.32269,477.45839 701.26522,478.77166 C 701.20773,480.08497 701.15025,481.31206 701.09278,482.4529 C 701.03529,483.59378 701.00656,484.84872 701.00657,486.21774 C 701.00656,487.47532 701.00656,489.18748 701.00657,491.35423 C 701.00656,491.81407 701.09278,492.50033 701.26522,493.41301 C 701.43764,494.32571 701.66582,495.26714 701.94973,496.2373 C 702.23364,497.20747 702.57589,498.12016 702.97651,498.97537 C 703.37711,499.83058 703.86306,500.31567 704.43438,500.43062 C 705.11713,500.66054 705.91575,500.88958 706.83018,501.11775 C 707.7446,501.34592 708.54321,501.46001 709.22599,501.46001 C 711.39623,501.46001 712.82361,500.80336 713.50815,499.49006 C 714.19265,498.17677 714.5349,496.83561 714.53493,495.46656 C 714.5349,488.61792 714.30673,481.62645 713.8504,474.49212 C 713.39405,467.35785 713.05091,460.30889 712.82102,453.34523 C 712.59457,450.03592 712.08161,447.52515 711.28216,445.81294 C 710.48267,444.10083 708.54146,443.18727 705.45854,443.07225 L 705.45854,443.07225 z M 706.14305,421.84176 C 707.85695,419.44517 709.76941,417.1051 711.88046,414.82154 C 713.99147,412.53816 716.18871,410.48287 718.47221,408.65566 C 720.75564,406.82864 723.09572,405.37339 725.49243,404.2899 C 727.88907,403.20662 730.34323,402.66493 732.8549,402.66483 C 735.13659,402.66493 736.44901,403.0638 736.79218,403.86143 C 737.13528,404.65926 737.30684,405.6869 737.30688,406.94438 C 737.30684,409.56758 736.36541,411.87804 734.48259,413.87576 C 732.59969,415.87366 730.28836,417.55795 727.54859,418.92865 C 724.80875,420.2995 721.95486,421.3559 718.9869,422.09781 C 716.01889,422.83988 713.44978,423.21088 711.27954,423.2108 L 707.51209,423.2108 C 707.28564,423.21088 707.00086,423.03932 706.65775,422.69611 C 706.31461,422.35306 706.14304,422.06828 706.14305,421.84176 L 706.14305,421.84176 z M 695.87007,415.67589 C 696.21494,412.3666 697.64232,409.31328 700.15222,406.51589 C 702.66211,403.7187 706.08557,401.86371 710.42259,400.95093 C 710.65249,401.17746 710.76745,401.46311 710.76747,401.80788 L 710.76747,401.98031 C 709.73981,402.8931 708.56933,403.97735 707.25605,405.23308 C 705.94273,406.48899 704.65906,407.77268 703.40499,409.08415 C 702.1509,410.39579 700.9813,411.62287 699.89618,412.76538 C 698.81105,413.90807 697.98283,414.87824 697.41154,415.67589 C 697.1851,415.90589 696.89945,416.02084 696.55459,416.02076 C 696.32816,416.02084 696.09998,415.90589 695.87007,415.67589 L 695.87007,415.67589 z M 734.38069,458.13686 C 735.29684,457.56909 736.43945,457.11361 737.8085,456.77044 C 739.17752,456.42735 741.28854,456.02761 744.14159,455.57122 C 745.5106,455.34136 747.50842,455.11231 750.13503,454.88409 C 752.7616,454.65597 755.53015,454.4278 758.44069,454.19958 C 761.35115,453.97145 764.17631,453.77202 766.91616,453.60128 C 769.65592,453.43063 771.76783,453.23032 773.25187,453.00036 C 773.93458,452.88894 774.87601,452.74699 776.07615,452.5745 C 777.27618,452.40212 778.2176,452.20268 778.90044,451.97621 C 779.81307,451.63486 780.64041,451.14978 781.38247,450.52095 C 782.1244,449.89222 782.55288,449.06401 782.66789,448.03631 C 782.66783,447.12368 782.49626,446.49577 782.1532,446.15258 C 781.81001,445.80951 781.35453,445.5822 780.78678,445.47067 C 777.93022,444.78447 774.64698,444.12782 770.93704,443.50073 C 767.22702,442.87375 763.20353,442.56023 758.86655,442.56017 C 758.64008,442.56023 757.64205,442.61684 755.87244,442.72999 C 754.10277,442.84327 751.93339,443.09931 749.3643,443.49812 C 746.79516,443.89704 744.08409,444.46747 741.23108,445.20941 C 738.37804,445.95146 735.72446,446.95037 733.2703,448.20613 C 730.81614,449.46201 728.78958,451.06008 727.19064,453.00036 C 725.59169,454.94074 724.79221,457.22421 724.79221,459.85076 C 724.79221,461.67618 725.02126,463.18891 725.47935,464.38895 C 725.93743,465.58908 726.93634,466.56012 728.47607,467.30208 C 730.0158,468.0441 732.26965,468.58579 735.23764,468.92714 C 738.20561,469.26857 742.14376,469.49674 747.0521,469.61167 C 748.88093,469.6117 751.22188,469.81113 754.07493,470.20996 C 756.92792,470.60887 759.72434,471.15143 762.46419,471.83766 C 765.20395,472.52394 767.54402,473.40876 769.4844,474.49212 C 771.42469,475.57553 772.39486,476.85922 772.39491,478.34318 C 772.39486,479.94215 771.13904,481.31206 768.62745,482.4529 C 766.11577,483.59378 763.29062,484.53521 760.15198,485.27718 C 757.01327,486.0192 753.98868,486.56176 751.0782,486.90487 C 748.16767,487.24802 746.31182,487.41958 745.51062,487.41957 C 743.91514,487.41958 742.31794,487.39084 740.71901,487.33335 C 739.12004,487.27589 737.63604,487.13306 736.26702,486.90487 C 734.89798,486.67671 733.78499,486.24911 732.92805,485.62205 C 732.07109,484.99503 731.64261,484.16769 731.64261,483.14003 C 731.64261,481.19972 732.21391,480.0005 733.35652,479.54239 C 734.49911,479.08433 735.69746,478.85528 736.95155,478.85526 C 738.66195,478.85528 740.34537,479.08433 742.00182,479.54239 C 743.65823,480.0005 745.28504,480.48559 746.88227,480.99764 C 748.47945,481.50975 749.99131,481.96609 751.41785,482.36668 C 752.84433,482.7673 754.18637,482.96761 755.44396,482.96759 C 757.61418,482.96761 759.61199,482.56787 761.43741,481.76838 C 763.26275,480.96892 764.51857,480.22606 765.20487,479.53978 C 765.43126,479.31337 765.54447,478.97199 765.54451,478.51562 C 765.54447,478.28573 765.43126,478.05755 765.20487,477.8311 C 761.66554,476.00226 757.92683,474.66022 753.98871,473.80499 C 750.05053,472.9498 746.42678,472.5222 743.11742,472.52217 C 741.4035,472.5222 739.63386,472.69376 737.8085,473.03686 C 735.98311,473.38002 734.29968,473.95045 732.75823,474.74816 C 731.21674,475.54591 729.96093,476.63017 728.99077,478.00092 C 728.02059,479.37172 727.53551,481.08475 727.53551,483.14003 C 727.53551,484.85047 728.2775,486.67585 729.7615,488.61617 C 731.24549,490.55651 733.24242,492.32615 735.75233,493.92509 C 738.26221,495.52405 741.17272,496.83734 744.48385,497.86499 C 747.79493,498.89263 751.27761,499.40646 754.93188,499.40646 C 756.30088,499.40646 758.41191,499.26363 761.26497,498.97798 C 764.11795,498.69234 766.99972,497.89286 769.91026,496.57955 C 772.82072,495.26626 775.38896,493.32506 777.61501,490.75594 C 779.84093,488.18683 780.95393,484.56307 780.95399,479.88465 C 780.95393,475.88904 779.98376,472.77824 778.04348,470.55222 C 776.10309,468.32627 773.70641,466.67159 770.85344,465.58817 C 768.00037,464.50482 764.86169,463.8203 761.43741,463.53462 C 758.01305,463.249 754.87437,462.99122 752.02138,462.76127 C 748.59702,462.53488 745.62904,462.19349 743.11742,461.73711 C 740.60577,461.2808 737.69353,460.42385 734.38069,459.16625 C 734.15424,459.16629 734.04103,459.05307 734.04104,458.82661 C 734.04103,458.59673 734.15424,458.36682 734.38069,458.13686 L 734.38069,458.13686 z M 817.49989,438.1082 L 818.01197,440.16175 C 819.03959,444.15744 820.00975,447.58176 820.92248,450.43473 C 821.83513,453.28781 822.63373,455.99887 823.31829,458.56795 C 824.00276,461.13711 824.54532,463.81944 824.94598,466.61494 C 825.34654,469.41052 825.54685,472.74863 825.54689,476.62927 C 825.54685,478.11329 825.51811,479.22628 825.46067,479.96826 C 825.40315,480.71028 825.08876,481.08127 824.5175,481.08125 C 824.63241,481.08127 824.23355,480.62492 823.3209,479.71222 C 821.03914,476.85922 818.72781,473.54898 816.38689,469.78149 C 814.04592,466.01407 811.7912,462.44692 809.62271,459.08003 C 807.45419,455.71323 805.42763,452.8602 803.54306,450.52095 C 801.65844,448.1818 800.0891,447.0122 798.83503,447.01215 C 797.58094,447.0122 796.44009,447.8108 795.41245,449.40795 C 794.38479,451.00521 793.41376,453.05963 792.49933,455.57122 C 791.5849,458.08291 790.78542,460.85146 790.10091,463.87688 C 789.41639,466.90237 788.84595,469.92696 788.38962,472.95064 C 787.93327,475.97439 787.59101,478.77081 787.36284,481.3399 C 787.13467,483.90903 787.02058,485.93559 787.02059,487.41957 C 787.02058,488.44722 787.10593,489.73091 787.27662,491.27063 C 787.44731,492.81037 787.78957,494.29435 788.3034,495.7226 C 788.81722,497.15086 789.50261,498.37794 790.35956,499.40385 C 791.21651,500.42975 792.3295,500.9427 793.69855,500.9427 C 794.61123,500.9427 795.38196,500.62918 796.01075,500.00214 C 796.63952,499.37511 797.1246,498.63311 797.46601,497.77615 C 797.80738,496.91921 798.09216,496.03439 798.32034,495.12169 C 798.5485,494.20901 798.72007,493.46701 798.83503,492.89571 C 799.06494,491.52668 799.26524,489.55848 799.43595,486.99109 C 799.60663,484.42374 799.74858,481.77014 799.86182,479.03031 C 799.97502,476.29053 800.0891,473.83637 800.20407,471.66784 C 800.31902,469.49936 800.43397,468.12945 800.54894,467.55812 C 800.89031,466.30059 801.28918,465.67181 801.74555,465.67177 C 802.08691,465.67181 802.68608,466.47128 803.54306,468.0702 C 804.39999,469.66918 805.3989,471.63825 806.53978,473.97742 C 807.68061,476.31666 808.93643,478.85615 810.30724,481.59595 C 811.67798,484.33577 813.13323,486.87615 814.67299,489.21708 C 816.21269,491.55804 817.83864,493.5271 819.55083,495.12431 C 821.26295,496.72152 822.91852,497.52012 824.5175,497.52012 C 826.57275,497.52012 828.42774,496.80686 830.08247,495.38035 C 831.73711,493.95384 833.13575,492.12759 834.2784,489.90159 C 835.42095,487.67562 836.27704,485.22147 836.84665,482.53912 C 837.41615,479.85681 837.70094,477.20235 837.70099,474.57572 C 837.70094,468.63979 836.95894,463.16104 835.475,458.13947 C 833.99096,453.11798 832.25093,448.80884 830.2549,445.21202 C 828.25878,441.61532 826.20436,438.81803 824.09164,436.82016 C 821.97883,434.82241 820.35114,433.8235 819.20857,433.82343 C 818.4108,433.8235 817.92659,434.25197 817.75593,435.10886 C 817.5852,435.96588 817.49986,436.73748 817.49989,437.42368 L 817.49989,438.1082 z M 883.93988,490.33007 C 883.93984,489.18748 883.48263,488.04575 882.56824,486.90487 C 881.65376,485.76403 880.68447,485.1936 879.66035,485.19358 C 878.74414,485.1936 877.80097,485.22234 876.83083,485.2798 C 875.86063,485.33729 874.91921,485.42176 874.00655,485.53323 C 868.52689,486.10454 864.21776,486.70458 861.0791,487.33335 C 857.9404,487.96214 856.14289,488.27653 855.68656,488.27652 C 856.59924,486.3362 857.39784,484.39499 858.08237,482.4529 C 858.76688,480.51084 859.33731,478.62711 859.79367,476.80171 C 860.02357,476.34539 860.3667,476.11722 860.82306,476.11719 C 865.16005,476.11722 869.06946,476.06061 872.55129,475.94737 C 876.03306,475.83418 878.57345,475.72009 880.17242,475.60512 C 880.97012,475.49018 881.48307,474.94762 881.71128,473.97742 C 881.93942,473.00729 882.05351,472.17907 882.05355,471.49278 C 882.05351,470.69508 881.99689,469.81113 881.88372,468.84093 C 881.77047,467.87079 881.48569,467.10006 881.02938,466.52873 L 878.63096,466.18908 L 865.95955,466.18908 C 865.38823,466.18912 864.98849,465.98881 864.76034,465.58817 C 864.53214,465.18759 864.41805,464.8166 864.41808,464.47517 C 864.41805,462.30497 864.67497,460.64941 865.18882,459.5085 C 865.70261,458.36769 866.13022,457.62656 866.47163,457.28513 C 867.04291,457.17022 867.89986,457.11274 869.04249,457.1127 C 870.18507,457.11274 871.21271,457.084 872.12543,457.02648 C 873.03809,456.96904 873.95077,456.94031 874.8635,456.94026 C 875.77615,456.94031 876.86041,456.91156 878.11627,456.85404 C 879.37205,456.79661 880.91265,456.71213 882.73806,456.60062 C 883.53924,456.60065 884.48153,456.45783 885.56496,456.17213 C 886.6483,455.88653 887.64721,455.57214 888.56168,455.22897 C 889.47606,454.88588 890.27554,454.51489 890.9601,454.11598 C 891.64457,453.71716 891.98683,453.28955 891.98688,452.83316 C 891.98683,451.34921 891.27357,449.80775 889.84711,448.20875 C 888.42055,446.60985 887.30669,445.35404 886.50552,444.44129 C 884.68009,443.87004 883.25358,443.52778 882.22598,443.41452 C 881.19829,443.30136 880.2856,443.24475 879.48791,443.24468 C 875.94859,443.24475 872.75244,443.41544 869.89945,443.75677 C 867.04639,444.09822 864.44941,444.46922 862.10849,444.86976 C 859.76752,445.27042 857.59815,445.64142 855.60035,445.98276 C 853.60252,446.3242 851.69092,446.55237 849.86555,446.66727 C 848.38156,446.78229 847.26857,447.01046 846.52658,447.3518 C 845.78457,447.69324 845.41357,448.32201 845.41358,449.23813 C 845.41357,450.15088 845.7271,450.97821 846.35414,451.72016 C 846.98117,452.46221 847.77977,453.14672 848.74995,453.77371 C 849.72011,454.4008 850.77649,454.97123 851.9191,455.485 C 853.0617,455.99887 854.14682,456.48396 855.17449,456.94026 L 851.06215,466.3563 C 850.26441,466.47128 849.49455,466.67159 848.75256,466.95721 C 848.01056,467.24289 847.29643,467.49892 846.61018,467.72532 C 846.38374,468.41161 846.18519,468.98292 846.01449,469.43923 C 845.84379,469.89561 845.75845,470.46691 845.75845,471.15314 C 845.75845,472.06585 845.92914,472.80785 846.27054,473.37913 C 846.61192,473.95045 846.89757,474.69245 847.12749,475.60512 C 846.21479,478.22824 845.2725,480.82436 844.30059,483.39345 C 843.32868,485.96259 842.84272,488.21731 842.84272,490.15764 C 842.84272,493.81188 843.92784,497.12299 846.0981,500.09098 C 848.26834,503.05896 851.75014,504.54295 856.54351,504.54295 C 859.39653,504.54295 862.13546,504.11447 864.76034,503.25752 C 867.38516,502.40056 869.86806,501.34418 872.20904,500.08836 C 874.54995,498.83254 876.6331,497.54886 878.45852,496.2373 C 880.28387,494.92575 881.76785,493.81188 882.9105,492.89571 C 883.59671,492.43937 883.93984,491.58416 883.93988,490.33007 L 883.93988,490.33007 z M 898.77979,549.91442 C 899.92239,545.34745 900.89343,541.26648 901.69291,537.6715 C 902.49238,534.07644 903.31972,530.56676 904.17494,527.14247 C 905.03014,523.71812 906.00031,520.15097 907.08544,516.44101 C 908.17055,512.73101 909.56833,508.42188 911.27877,503.51356 C 911.96501,503.3986 912.62165,503.31238 913.24871,503.25491 C 913.87573,503.19742 914.4749,503.16869 915.04622,503.16869 C 917.90271,503.16869 921.44198,502.3126 925.66408,500.60045 C 929.8861,498.88828 933.93834,496.49161 937.82079,493.4104 C 941.70315,490.32921 945.01339,486.67671 947.75151,482.4529 C 950.48953,478.22912 951.85856,473.60558 951.85862,468.58228 C 951.85856,466.87189 951.68787,464.81834 951.34654,462.42162 C 951.00509,460.02498 950.43466,457.71365 949.63524,455.48762 C 948.83571,453.26168 947.69398,451.34921 946.21005,449.75022 C 944.72601,448.15132 942.90063,447.35184 940.73391,447.3518 C 938.56361,447.35184 935.96576,448.49357 932.94034,450.77699 C 929.91484,453.0605 926.80404,455.82905 923.60791,459.08264 C 920.41173,462.33631 917.32967,465.76064 914.3617,469.35563 C 911.3937,472.95067 908.88207,476.11722 906.82679,478.85526 C 906.48538,479.31163 906.25722,479.5398 906.14227,479.53978 L 905.80263,479.53978 C 905.5727,479.31337 905.42987,479.00072 905.37415,478.60184 C 905.3184,478.20299 905.29053,477.83112 905.29054,477.48623 C 905.29053,474.4068 906.0604,471.269 907.60014,468.07281 C 909.13985,464.87669 910.59423,462.19349 911.96328,460.0232 C 914.58985,456.02761 916.47445,453.17372 917.61708,451.4615 C 918.75965,449.74939 919.33096,448.03637 919.33099,446.3224 C 919.33096,444.727 919.18814,443.587 918.90251,442.90243 C 918.61683,442.21798 917.84523,441.76076 916.58769,441.53079 C 915.67498,441.6458 914.10564,442.90162 911.87968,445.29824 C 909.65367,447.69497 907.37108,450.7483 905.03189,454.45823 C 902.69268,458.16825 900.60952,462.30584 898.7824,466.87099 C 896.95528,471.4362 896.04172,475.94478 896.04172,480.39673 C 896.04172,482.45205 896.32737,484.53607 896.89868,486.64883 C 897.46997,488.76162 898.21197,490.84391 899.12467,492.89571 C 896.72797,498.60525 894.73017,503.99951 893.13122,509.07853 C 891.53227,514.15753 890.27645,518.66611 889.36376,522.60428 C 888.45107,526.54241 887.7953,529.8239 887.39643,532.44878 C 886.99756,535.0736 886.79814,536.78664 886.79813,537.58789 C 886.79814,541.23861 887.85365,544.34854 889.96467,546.9177 C 892.07571,549.48677 894.84338,550.94202 898.26771,551.28346 L 898.77979,549.91442 z M 919.84307,488.44373 C 920.18443,487.76097 920.7836,486.53476 921.64058,484.7651 C 922.49751,482.99548 923.46767,481.11175 924.55108,479.11391 C 925.63444,477.11613 926.66121,475.26113 927.63141,473.54895 C 928.60154,471.83681 929.3148,470.6376 929.77118,469.95131 C 930.45741,469.15361 931.31436,468.12683 932.34204,466.87099 C 933.36965,465.61521 934.4539,464.41686 935.59481,463.27596 C 936.73562,462.13514 937.87735,461.13624 939.02,460.27924 C 940.16255,459.42233 941.07524,458.99385 941.75807,458.99381 C 942.90063,458.99385 943.55728,459.56515 943.72801,460.70772 C 943.89866,461.85036 943.98401,462.87801 943.98406,463.79066 C 943.98401,470.7543 941.52985,476.34713 936.62158,480.56917 C 931.37183,485.13612 925.779,487.76097 919.84307,488.44373 L 919.84307,488.44373 z"
       id="text5845" />
  </g>
</svg>
