<?xml version="1.0" encoding="UTF-8" standalone="no"?>
<svg
   xmlns:dc="http://purl.org/dc/elements/1.1/"
   xmlns:cc="http://creativecommons.org/ns#"
   xmlns:rdf="http://www.w3.org/1999/02/22-rdf-syntax-ns#"
   xmlns:svg="http://www.w3.org/2000/svg"
   xmlns="http://www.w3.org/2000/svg"
   xmlns:sodipodi="http://sodipodi.sourceforge.net/DTD/sodipodi-0.dtd"
   xmlns:inkscape="http://www.inkscape.org/namespaces/inkscape"
   version="1.1"
   id="Layer_1"
   x="0px"
   y="0px"
   width="890"
   height="150"
   viewBox="0 0 890 149.99999"
   enable-background="new 0 0 386 70"
   xml:space="preserve"
   inkscape:version="0.47 r22583"
   sodipodi:docname="twdc_logotype.svg"><metadata
   id="metadata2977"><rdf:RDF><cc:Work
       rdf:about=""><dc:format>image/svg+xml</dc:format><dc:type
         rdf:resource="http://purl.org/dc/dcmitype/StillImage" /></cc:Work></rdf:RDF></metadata><defs
   id="defs2975" /><sodipodi:namedview
   pagecolor="#ffffff"
   bordercolor="#666666"
   borderopacity="1"
   objecttolerance="10"
   gridtolerance="10"
   guidetolerance="10"
   inkscape:pageopacity="0"
   inkscape:pageshadow="2"
   inkscape:window-width="1063"
   inkscape:window-height="630"
   id="namedview2973"
   showgrid="false"
   inkscape:zoom="0.69818655"
   inkscape:cx="351.28307"
   inkscape:cy="26.669732"
   inkscape:window-x="0"
   inkscape:window-y="0"
   inkscape:window-maximized="0"
   inkscape:current-layer="Layer_1" />
<g
   id="g2931"
   transform="matrix(2.352663,0,0,2.352663,-9.0651353,-7.3431872)">
	<path
   d="m 95.834,37.526 c -1.298,2.161 -2.161,4.908 -4.325,6.863 -3.864,3.651 -9.049,6.901 -14.645,4.321 -1.753,-0.87 -3.033,-2.368 -4.115,-4.321 -2.167,1.084 -5.399,1.49 -7.567,0.419 -4.309,-2.166 -5.387,-7.119 -4.977,-11.897 0.867,-6.238 3.029,-12.103 7.345,-17.052 1.952,-2.409 4.321,-4.114 6.898,-4.99 0.251,0 0.871,0 0.871,0.418 l -0.208,0.668 c -7.355,6.902 -11.003,16.007 -10.377,26.155 0.247,1.952 1.073,4.116 3.237,4.989 1.322,0.211 2.816,0 3.899,-0.873 C 70.996,38.11 70.134,32.911 71.462,28.84 l 4.938,0.207 c -0.628,2.783 -0.882,5.818 -0.882,8.642 0.254,0.421 0,0.873 0.254,1.089 1.701,-1.955 2.786,-4.124 3.65,-6.28 0.669,-2.83 1.501,-6.283 -0.202,-8.865 -0.451,-0.205 -0.87,0 -1.082,0.42 -0.876,1.541 -1.533,3.246 -1.738,4.994 L 71.462,28.84 c 0.621,-2.168 1.895,-4.328 4.311,-5.865 1.701,-1.083 4.319,-2.167 6.232,-1.083 2.609,1.952 2.609,5.407 2.152,8.655 -0.622,4.526 -3.855,8.231 -7.552,11.465 0.258,1.087 1.328,2.169 2.164,2.58 2.613,1.287 5.388,-0.203 7.344,-1.693 6.062,-5.662 7.559,-13.439 7.142,-21.418 -0.871,-5.416 -2.824,-10.612 -7.142,-14.266 0,-0.249 0,-0.457 0.206,-0.668 1.536,0 2.613,1.292 3.692,1.955 7.977,6.905 9.714,19.002 6.021,28.528 l -0.198,0.496"
   id="path2933"
   style="fill:#231f20" />
	<path
   d="m 98.11,37.653 c 1.074,-1.508 1.742,-3.245 2.617,-4.95 1.078,-1.953 2.367,-3.705 3.863,-5.61 0,-0.462 0.205,-0.877 0.658,-1.084 0.622,-0.249 1.496,0 1.698,0.834 0.879,2.826 1.757,5.656 2.159,8.437 l -3.235,0.457 c 0,-0.866 -0.202,-1.947 -0.622,-2.825 -0.874,1.287 -1.534,2.825 -2.154,4.534 0.869,0 1.949,0 2.776,-0.208 v -1.501 l 3.235,-0.457 c 0.672,3.461 0.875,7.152 0.875,10.601 0,0.673 -0.203,1.293 -0.615,1.506 -1.326,-0.624 -2.621,-1.706 -2.621,-3.242 l -0.208,-2.372 h -5.18 l -1.961,5.86 c -0.617,0.409 -1.494,0.409 -1.908,0.209 -1.325,-0.668 -1.073,-2.161 -1.539,-3.248 0.214,-1.536 0.875,-2.821 1.539,-4.324 -0.462,-0.454 -1.073,-1.952 -1.539,-2.615 h 2.162"
   id="path2935"
   style="fill:#231f20" />
	<path
   d="m 116.255,26.425 c 1.072,1.499 0.42,3.659 0,5.405 -0.873,3.04 -1.529,5.615 -1.743,8.857 0.662,0.876 1.743,0 2.367,0 1.536,-0.419 2.818,-1.503 4.314,-1.503 0.461,0.419 0.461,1.295 0.257,1.96 -0.664,2.377 -3.247,4.329 -5.402,4.949 -1.082,0.211 -1.942,0 -3.034,-0.414 -3.438,-3.034 -1.534,-8.648 -0.663,-12.353 l 1.289,-4.536 c 0.671,-0.866 1.326,-2.365 2.615,-2.365"
   id="path2937"
   style="fill:#231f20" />
	<path
   d="m 132.4,34.409 c -1.078,0.462 -2.162,0.462 -3.239,0.246 l -0.417,0.419 c -0.871,4.989 -1.078,10.4 -0.464,15.549 -0.2,0.462 -0.614,0.668 -1.074,0.874 -1.494,0.205 -2.568,-1.288 -3.438,-2.57 -1.299,-4.537 -0.629,-9.933 0.869,-14.272 l 0.417,-0.866 c -1.915,-1.086 -4.939,-1.956 -5.609,-4.791 0,-1.074 0.67,-1.906 1.29,-2.573 0.46,0.206 0,0.875 0.46,1.293 1.493,1.534 3.647,2.154 5.596,2.613 1.489,-1.957 3.658,-3.906 6.27,-3.239 1.954,0.626 1.954,2.78 2.366,4.534 -0.206,0.872 -1.08,1.698 -1.947,2.361 -0.419,0.211 -0.872,0.422 -1.08,0.422 l -1.078,-4.077 h 1.078 c 0.46,-0.248 1.079,-0.663 0.876,-1.333 -0.216,-0.415 -1.087,-0.203 -1.292,-0.203 -0.879,0.203 -1.535,1.078 -1.746,1.75 l 1.084,-0.214 1.078,4.077"
   id="path2939"
   style="fill:#231f20" />
	<path
   d="m 145.678,34.198 c -1.487,0.211 -3.241,0.457 -4.526,1.082 -0.626,0 -1.498,0.663 -1.286,1.544 2.571,3.445 6.478,5.614 10.381,6.906 0,-3.461 0.413,-6.698 0.413,-10.156 -1.747,0.215 -3.449,0.215 -4.982,0.624 l -1.487,-2.78 c 2.152,-0.872 4.314,-1.334 6.469,-1.749 0.415,-3.244 0.212,-6.693 1.747,-9.315 1.499,0.455 2.153,1.955 2.366,3.498 l 0.204,5.147 0.414,0.254 c 4.988,-0.254 10.38,0.208 14.289,3.659 0.617,0.878 1.08,1.959 0.83,3.234 -0.423,1.3 -1.9,2.382 -2.991,3.039 -0.878,0 -1.955,-0.19 -2.614,-0.444 -0.21,-1.087 1.073,-1.087 1.538,-1.917 0.198,-0.249 0.62,-0.678 0.62,-1.082 -3.235,-1.754 -6.899,-1.953 -10.582,-2.417 -0.626,0 -1.09,-0.204 -1.504,0.249 0,4.334 0,7.571 0.211,11.645 6.687,1.335 14.238,0.876 19.635,-3.446 2.827,-2.168 3.238,-6.279 2.163,-9.525 -3.453,-8.649 -12.493,-13.389 -20.505,-16.636 -6.689,-2.57 -14.455,-3.908 -22.227,-2.57 -0.441,0.202 -1.074,0.202 -1.277,0.624 0.622,0.448 1.699,0 2.359,0.867 0.211,0.668 -0.87,0.668 -1.082,0.877 -1.277,-0.209 -2.81,0 -3.44,-1.088 0.631,-1.28 1.074,-3.035 2.575,-3.453 13.822,-4.319 27.65,1.088 38.663,8.657 4.515,3.651 8.423,8.195 10.124,13.387 1.076,4.996 -0.871,9.526 -4.737,12.562 -6.261,4.527 -14.694,5.149 -22.251,3.237 -0.211,0.841 0,2.169 -1.076,2.58 -0.622,0 -1.498,0.206 -2.369,0 -1.083,-1.087 -1.083,-2.818 -1.291,-4.329 -4.522,-2.153 -9.3,-5.609 -11.87,-10.139 -0.209,-0.881 0,-1.75 0.627,-2.415 1.529,-1.498 3.229,-2.366 4.982,-2.991 l 1.487,2.78"
   id="path2941"
   style="fill:#231f20" />
	<path
   d="m 186.576,29.502 c 1.288,0 1.495,1.5 1.71,2.581 0.448,4.78 0.867,9.521 0.655,14.505 -0.655,0.627 -1.736,0.876 -2.574,0.627 -1.732,-0.416 -1.327,-2.582 -1.539,-4.075 0,-4.322 0,-8.45 0.673,-12.553 0.213,-0.42 0.413,-1.085 1.075,-1.085 M 180.97,19.105 c 0.42,-0.625 0.84,-1.5 1.504,-2.162 l 1.734,1.538 c -0.453,0.416 -0.863,1.088 -1.078,1.501 -0.241,0.451 -0.453,1.289 0,1.743 1.286,-1.743 2.995,-3.447 4.532,-4.989 -0.457,0 -0.872,0 -1.295,0.207 -0.653,0.458 -1.539,0.871 -2.159,1.538 l -1.734,-1.538 c 1.489,-1.494 3.44,-2.989 5.391,-3.451 2.161,-0.414 4.523,-0.628 6.067,0.462 l 0.82,1.072 c 0.877,-0.244 1.549,0.423 2.17,0.625 1.326,1.085 1.072,2.83 0.671,4.122 -1.088,1.953 -2.841,3.656 -4.741,4.988 l -1.331,-2.163 c 0.663,-0.251 1.331,-0.456 1.748,-0.873 1.281,-0.877 2.565,-2.157 2.36,-3.911 -0.414,-0.871 -1.486,-0.619 -2.36,-0.619 -2.831,0.824 -5.404,3.453 -6.901,6.027 1.704,0.207 3.456,0 5.153,-0.625 l 1.331,2.163 c -1.086,0.627 -1.949,1.081 -3.239,1.5 -1.748,0.415 -3.487,0.207 -5.196,-0.209 -0.208,0.209 -0.661,1.498 -1.286,1.498 -0.656,0 -0.87,-0.419 -1.32,-1.289 v -1.959 c -1.289,-1.287 -1.711,-3.453 -0.841,-5.196"
   id="path2943"
   style="fill:#231f20" />
	<path
   d="m 193.22,42.435 c 1.535,1.747 4.321,0.876 6.276,0.876 2.162,-0.411 4.983,-0.876 6.055,-2.366 -0.455,-1.95 -2.361,-1.95 -3.697,-2.382 -3.238,-0.658 -6.683,-0.449 -9.927,-1.076 -0.613,-0.252 -1.08,-1.082 -1.282,-1.745 0,-1.754 0.669,-3.243 2.154,-4.118 4.333,-2.372 11.008,-3.041 15.749,-1.078 0.455,0.457 0,0.869 0,1.288 -0.84,0.875 -2.117,0.875 -3.452,1.078 -3.658,0.451 -7.763,0.245 -11.21,1.744 0,0.419 0.869,0.419 1.285,0.666 4.112,1.287 9.925,-0.666 12.743,3.674 0.634,1.739 0.426,4.316 -0.442,5.599 -2.376,2.62 -6.236,3.045 -9.677,2.62 -2.624,-0.66 -5.192,-1.955 -6.067,-4.567 -0.212,-1.082 0.199,-1.912 0.875,-2.583 1.907,-1.5 4.529,-1.068 7.098,-0.875 1.327,0.205 3.029,0.875 3.697,1.292 0,0.657 0,1.533 -3.029,1.955 -1.95,0.211 -4.739,-2.372 -6.901,-1.082 -0.451,0.208 -0.451,0.872 -0.248,1.08"
   id="path2945"
   style="fill:#231f20" />
	<path
   d="m 213.654,31.003 c 3.242,3.03 4.981,6.901 7.348,10.134 0.628,0 0.21,-0.611 0.418,-0.825 0,-4.575 -1.701,-8.228 -2.369,-12.349 0,-0.415 -0.204,-1.074 0.216,-1.286 1.28,0.212 1.945,1.495 2.607,2.165 2.58,3.658 3.651,8.229 3.243,12.972 -0.463,1.498 -1.092,3.445 -2.827,4.111 -0.416,0.419 -1.288,0.629 -1.743,0.213 -3.241,-2.585 -4.319,-6.49 -6.478,-9.732 l -0.211,0.665 -0.615,9.067 c -0.256,0.663 -0.672,1.29 -1.079,1.29 -0.875,0 -1.54,-0.627 -1.95,-1.29 -0.878,-1.955 -0.212,-4.537 -0.212,-6.695 0.411,-2.829 0.827,-5.409 2.162,-7.777 0.203,-0.663 0.823,-1.078 1.49,-0.663"
   id="path2947"
   style="fill:#231f20" />
	<path
   d="m 228.433,36.196 c 1.082,0 1.082,-1.326 1.497,-1.95 l 0.458,-1.288 c -1.283,-0.459 -2.82,-0.67 -3.233,-2.412 0,-0.419 0.861,-0.214 1.071,-0.419 3.65,-0.419 7.357,-1.287 11.001,-1.08 1.288,0.661 2.582,1.746 2.371,3.241 -1.083,0.869 -2.78,0.67 -4.322,0.869 h -3.44 l -0.879,2.578 h 0.214 c 1.745,0 3.69,-0.206 5.187,0.462 0.461,0.413 0.211,1.29 0.211,1.917 -0.825,0.873 -2.365,0.665 -3.652,0.665 -1.08,0.208 -3.039,-0.424 -3.449,1.079 l -0.66,2.58 v 0.251 c 2.614,-0.251 5.185,-1.336 7.762,-0.876 0.456,0.625 0.87,1.498 0.659,2.163 -2.818,2.161 -6.057,4.322 -9.922,3.656 -1.54,-0.629 -2.613,-2.371 -2.82,-4.11 -0.202,-2.377 2.153,-4.08 1.083,-6.49 -0.214,-0.628 0.656,-0.628 0.863,-0.836"
   id="path2949"
   style="fill:#231f20" />
	<path
   d="m 252.096,38.778 c -1.079,1.747 -2.159,3.448 -3.025,4.989 1.946,0 3.65,-0.868 5.188,-2.168 1.707,-1.537 2.577,-3.697 2.368,-6.066 -0.21,-0.213 -0.21,-1.082 -0.868,-0.878 -1.5,1.333 -2.58,2.828 -3.663,4.123 l -3.475,-2.374 c 1.941,-2.158 3.893,-3.906 6.258,-5.192 0.88,-0.209 1.748,0 2.37,0.662 1.541,1.953 2.409,4.322 1.739,6.904 -1.077,4.532 -5.391,8.648 -9.711,9.52 l -2.572,0.208 c -1.533,4.783 -3.039,9.732 -3.908,14.927 -1.278,0.211 -2.821,-1.29 -3.438,-2.574 -0.462,-1.082 0,-2.412 0,-3.496 0.861,-4.073 1.699,-8.404 3.438,-12.104 -0.207,-0.868 -0.668,-1.49 -0.863,-2.358 -0.626,-4.751 1.732,-8.653 4.771,-12.107 0.41,-0.461 1.078,-1.54 1.705,-1.29 0.453,3.868 -3.452,6.485 -3.86,10.355 0,0.668 0,1.084 0.205,1.539 1.272,-1.539 2.57,-3.494 3.866,-4.992 l 3.475,2.372"
   id="path2951"
   style="fill:#231f20" />
	<path
   d="m 276.062,46.553 c -5.623,0 -9.245,-4.172 -9.245,-10.336 0,-6.198 3.679,-10.4 9.301,-10.4 2.376,0 4.145,0.608 5.679,1.65 l -0.405,2.783 c -1.447,-1.102 -3.156,-1.941 -5.298,-1.941 -4.057,0 -6.463,3.067 -6.463,7.879 0,4.809 2.43,7.843 6.463,7.843 2.142,0 4.023,-0.835 5.618,-1.995 l 0.404,2.579 c -1.538,1.131 -3.766,1.938 -6.054,1.938"
   id="path2953"
   style="fill:#231f20" />
	<path
   d="m 290.557,46.475 c -3.679,0 -6.348,-2.639 -6.348,-7.191 0,-4.547 2.669,-7.208 6.348,-7.208 3.711,0 6.436,2.661 6.436,7.208 -10e-4,4.552 -2.725,7.191 -6.436,7.191 m 0,-12.229 c -2.493,0 -3.739,2.138 -3.739,5.037 0,2.839 1.307,5.041 3.739,5.041 2.551,0 3.828,-2.144 3.828,-5.041 0,-2.838 -1.335,-5.037 -3.828,-5.037 z"
   id="path2955"
   style="fill:#231f20" />
	<path
   d="m 316.762,46.178 v -9.413 c 0,-1.419 -0.521,-2.374 -2.033,-2.374 -1.358,0 -2.661,0.896 -3.908,2.227 v 9.561 h -2.581 v -9.413 c 0,-1.419 -0.521,-2.374 -2.03,-2.374 -1.358,0 -2.666,0.896 -3.909,2.227 v 9.561 h -2.583 V 32.364 h 2.062 l 0.317,1.994 c 1.301,-1.185 2.868,-2.282 4.812,-2.282 2.024,0 3.129,0.869 3.651,2.282 1.245,-1.185 2.928,-2.282 4.867,-2.282 2.641,0 3.913,1.561 3.913,4.054 v 10.048 h -2.578"
   id="path2957"
   style="fill:#231f20" />
	<path
   d="m 328.831,46.353 c -1.365,0 -2.613,-0.264 -3.482,-0.606 v 5.443 l -2.578,0.373 V 32.364 h 2.058 l 0.322,1.994 c 1.04,-1.214 2.459,-2.282 4.489,-2.282 2.986,0 5.449,2.204 5.449,6.809 0,5.035 -2.901,7.468 -6.258,7.468 m 0.401,-11.995 c -1.565,0 -2.778,0.959 -3.884,2.437 v 6.633 c 1.046,0.518 1.883,0.749 3.363,0.749 2.173,0 3.769,-1.765 3.769,-5.178 0,-3.014 -1.363,-4.641 -3.248,-4.641 z"
   id="path2959"
   style="fill:#231f20" />
	<path
   d="m 346.097,46.178 -0.295,-1.854 c -1.102,1.132 -2.607,2.15 -4.863,2.15 -2.496,0 -4.062,-1.514 -4.062,-3.853 0,-3.455 2.956,-4.812 8.726,-5.421 v -0.584 c 0,-1.734 -1.042,-2.338 -2.638,-2.338 -1.681,0 -3.273,0.515 -4.781,1.183 l -0.351,-2.232 c 1.654,-0.662 3.22,-1.154 5.361,-1.154 3.365,0 4.988,1.36 4.988,4.428 v 9.674 h -2.085 m -0.494,-7.01 c -5.099,0.492 -6.172,1.887 -6.172,3.306 0,1.13 0.754,1.852 2.057,1.852 1.503,0 2.954,-0.752 4.115,-1.943 v -3.215 z"
   id="path2961"
   style="fill:#231f20" />
	<path
   d="m 360.278,46.178 v -9.413 c 0,-1.419 -0.607,-2.374 -2.113,-2.374 -1.365,0 -2.751,0.896 -3.999,2.227 v 9.561 h -2.582 V 32.364 h 2.059 l 0.324,1.994 c 1.3,-1.185 2.92,-2.282 4.893,-2.282 2.614,0 4.002,1.561 4.002,4.054 v 10.048 h -2.584"
   id="path2963"
   style="fill:#231f20" />
	<path
   d="m 371.6,47.398 c -1.188,3.21 -2.664,4.055 -4.957,4.055 -0.347,0 -0.635,-0.058 -0.898,-0.119 l -0.343,-2.257 c 0.433,0.114 0.952,0.2 1.446,0.2 1.068,0 1.795,-0.522 2.204,-1.617 l 0.522,-1.422 -5.043,-13.67 2.546,-0.409 3.77,11.006 3.678,-10.802 h 2.637 L 371.6,47.398"
   id="path2965"
   style="fill:#231f20" />
	<polyline
   points="17.938,28.653 17.938,46.145 15.213,46.145 15.213,28.653 8.839,28.653 8.839,26.16 24.081,26.16    24.487,28.653 17.938,28.653  "
   id="polyline2967"
   style="fill:#231f20" />
	<path
   d="m 35.481,46.145 v -9.41 c 0,-1.422 -0.609,-2.379 -2.116,-2.379 -1.359,0 -2.753,0.901 -3.998,2.229 v 9.561 H 26.786 V 25.639 l 2.581,-0.406 v 8.922 c 1.129,-1.014 2.723,-2.113 4.696,-2.113 2.606,0 3.996,1.562 3.996,4.056 v 10.047 h -2.578"
   id="path2969"
   style="fill:#231f20" />
	<path
   d="m 47.123,46.437 c -3.595,0 -6.405,-2.177 -6.405,-7.244 0,-4.431 2.609,-7.151 6.088,-7.151 4.028,0 5.881,3.101 5.881,6.925 v 0.543 h -9.39 c 0.089,3.222 1.623,4.72 4.029,4.72 2,0 3.447,-0.774 4.957,-1.965 l 0.375,2.32 c -1.477,1.158 -3.245,1.852 -5.535,1.852 m -3.71,-8.865 h 6.666 c -0.319,-2.234 -1.305,-3.504 -3.303,-3.504 -1.593,0 -2.958,1.158 -3.363,3.504 z"
   id="path2971"
   style="fill:#231f20" />
</g>
</svg>