<?xml version="1.0" encoding="UTF-8" standalone="no"?>
<!-- Created with Inkscape (http://www.inkscape.org/) -->

<svg
   xmlns:dc="http://purl.org/dc/elements/1.1/"
   xmlns:cc="http://creativecommons.org/ns#"
   xmlns:rdf="http://www.w3.org/1999/02/22-rdf-syntax-ns#"
   xmlns:svg="http://www.w3.org/2000/svg"
   xmlns="http://www.w3.org/2000/svg"
   xmlns:sodipodi="http://sodipodi.sourceforge.net/DTD/sodipodi-0.dtd"
   xmlns:inkscape="http://www.inkscape.org/namespaces/inkscape"
   version="1.1"
   width="230.66"
   height="50.400002"
   id="svg4440"
   inkscape:version="0.48.4 r9939"
   sodipodi:docname="Dolby_Logo.svg">
  <metadata
     id="metadata3115">
    <rdf:RDF>
      <cc:Work
         rdf:about="">
        <dc:format>image/svg+xml</dc:format>
        <dc:type
           rdf:resource="http://purl.org/dc/dcmitype/StillImage" />
      </cc:Work>
    </rdf:RDF>
  </metadata>
  <sodipodi:namedview
     pagecolor="#ffffff"
     bordercolor="#666666"
     borderopacity="1"
     objecttolerance="10"
     gridtolerance="10"
     guidetolerance="10"
     inkscape:pageopacity="0"
     inkscape:pageshadow="2"
     inkscape:window-width="1280"
     inkscape:window-height="750"
     id="namedview3113"
     showgrid="false"
     inkscape:zoom="2"
     inkscape:cx="234.83895"
     inkscape:cy="24.327741"
     inkscape:window-x="-8"
     inkscape:window-y="-8"
     inkscape:window-maximized="1"
     inkscape:current-layer="svg4440" />
  <defs
     id="defs4442" />
  <path
     d="m 224.4986,6.8310334 0.84772,0 0,-1.899569 0.67125,0 c 0.4498,0 0.76121,0.051901 0.94113,0.1557024 0.30448,0.1799227 0.45673,0.5466883 0.45673,1.1037568 l 0,0.3840659 0.0173,0.1557023 c 0.003,0.0173 0.007,0.038061 0.01,0.051901 0.003,0.0173 0.007,0.031141 0.01,0.048441 l 0.79582,0 -0.0277,-0.058821 c -0.0208,-0.041521 -0.0346,-0.1245619 -0.045,-0.2525839 -0.007,-0.1280219 -0.01,-0.2456637 -0.01,-0.3563854 l 0,-0.3529254 c 0,-0.2456637 -0.0865,-0.4913275 -0.26297,-0.7473714 -0.173,-0.2560439 -0.45326,-0.4117463 -0.83041,-0.4740272 0.29756,-0.044981 0.53285,-0.1245619 0.69893,-0.2318235 0.31487,-0.2041432 0.47057,-0.519008 0.47057,-0.9480545 0,-0.6055092 -0.24567,-1.0137955 -0.74391,-1.2213986 -0.28027,-0.1141818 -0.71969,-0.1730027 -1.31482,-0.1730027 l -1.68505,0 0,4.8163935 z m 2.42204,-2.5984996 c -0.18338,0.072661 -0.44981,0.1072616 -0.80965,0.1072616 l -0.76467,0 0,-1.7473266 0.72315,0 c 0.47056,0 0.81311,0.062281 1.02417,0.1833827 0.21453,0.1176418 0.32179,0.3529254 0.32179,0.7023908 0,0.3702256 -0.16609,0.6228095 -0.49479,0.7542915 z m 2.45318,-2.8926041 c -0.8581,-0.85117302 -1.89265,-1.27675951 -3.10713,-1.27675951 -1.20756,0 -2.23519,0.42558649 -3.08637,1.27675951 -0.85809,0.858093 -1.28714,1.8891888 -1.28714,3.0967472 0,1.2179385 0.42559,2.2559544 1.2733,3.1105874 0.85118,0.8615531 1.88573,1.2905997 3.10021,1.2905997 1.21448,0 2.24903,-0.4290466 3.10713,-1.2905997 0.85809,-0.8580931 1.28368,-1.8961089 1.28368,-3.1105874 0,-1.2110185 -0.42559,-2.2421142 -1.28368,-3.0967472 z m -0.43597,0.4255864 c 0.73353,0.7369913 1.09684,1.6262248 1.09684,2.6711608 0,1.048396 -0.36331,1.9445496 -1.09684,2.6850009 -0.73353,0.7439113 -1.62276,1.114137 -2.67116,1.114137 -1.0484,0 -1.93763,-0.3702257 -2.67116,-1.114137 -0.73007,-0.7404513 -1.09338,-1.6366049 -1.09338,-2.6850009 0,-1.044936 0.36677,-1.9341695 1.1003,-2.6711608 0.73699,-0.7404512 1.62622,-1.11067689 2.66424,-1.11067689 1.04148,0 1.93417,0.37022569 2.67116,1.11067689"
     id="path412"
     style="fill:#000000;fill-opacity:1;fill-rule:nonzero;stroke:none"
     inkscape:connector-curvature="0" />
  <path
     d="m 15.7121,44.01622 c 8.688192,0 15.732859,-8.452909 15.732859,-18.878048 0,-10.428599 -7.044667,-18.8780473 -15.732859,-18.8780473 l -7.8647004,0 0,37.7560953 7.8647004,0 z m 22.043996,6.356117 -37.756096,0 0,-50.34376733 37.756096,0 0,50.34376733 z"
     id="path416"
     style="fill:#000000;fill-opacity:1;fill-rule:nonzero;stroke:none"
     inkscape:connector-curvature="0" />
  <path
     d="m 61.692741,6.3846866 c -8.688193,0 -15.73286,8.4529084 -15.73286,18.8780474 0,10.425139 7.044667,18.878048 15.73286,18.878048 l 7.864699,0 0,-37.7560954 -7.864699,0 z m -22.047457,-6.35611693 37.756096,0 0,50.34376733 -37.756096,0 0,-50.34376733 z"
     id="path420"
     style="fill:#000000;fill-opacity:1;fill-rule:nonzero;stroke:none"
     inkscape:connector-curvature="0" />
  <path
     d="m 109.00896,31.376648 5.28696,0 c 2.2352,0 3.04831,-1.480903 3.04831,-3.864879 l 0,-4.743733 c 0,-2.930664 -0.93422,-3.536174 -3.04831,-3.536174 l -5.28696,0 0,12.144786 z m -6.04125,-17.400606 11.48045,0 c 6.31114,0 9.1207,2.356296 9.1207,8.791994 l 0,4.743733 c 0,6.190034 -1.99299,9.120699 -8.30758,9.120699 l -12.29357,0 0,-22.656426"
     id="path424"
     style="fill:#000000;fill-opacity:1;fill-rule:nonzero;stroke:none"
     inkscape:connector-curvature="0" />
  <path
     d="m 139.33286,27.843934 0,-5.103578 c 0,-3.352791 -1.11759,-3.684956 -4.25932,-3.684956 -3.14173,0 -4.16936,0.332165 -4.25933,3.684956 l 0,5.103578 c 0.09,3.383931 1.1176,3.716096 4.25933,3.716096 3.14173,0 4.25932,-0.332165 4.25932,-3.716096 z m -14.74328,0.66433 0,-6.404558 c 0,-6.975466 4.35275,-8.304126 10.48396,-8.304126 6.13121,0 10.4805,1.32866 10.4805,8.304126 l 0,6.404558 c 0,6.978926 -4.34929,8.307587 -10.4805,8.307587 -6.13121,0 -10.48396,-1.328661 -10.48396,-8.307587"
     id="path428"
     style="fill:#000000;fill-opacity:1;fill-rule:nonzero;stroke:none"
     inkscape:connector-curvature="0" />
  <path
     d="m 153.12809,31.376648 9.45633,0 0,5.25582 -15.49758,0 0,-22.656426 6.04125,0 0,17.400606"
     id="path432"
     style="fill:#000000;fill-opacity:1;fill-rule:nonzero;stroke:none"
     inkscape:connector-curvature="0" />
  <path
     d="m 169.64985,31.681132 4.56035,0 c 1.96531,0 2.77842,-0.453267 2.77842,-2.297475 0,-1.871888 -0.69201,-2.141772 -2.65732,-2.141772 l -4.68145,0 0,4.439247 z m 0,-8.639751 4.34928,0 c 2.11409,0 2.62964,-0.359846 2.62964,-2.172914 0,-1.3598 -0.21106,-1.875348 -1.90303,-1.934169 l -5.07589,0 0,4.107083 z m -6.04126,-9.061879 11.90259,0 c 4.50152,0 7.15884,0.847713 7.15884,5.799049 0,2.871844 -0.57436,4.743732 -3.56385,5.228139 l 0,0.238744 c 3.35279,0.214523 3.9237,2.238654 3.9237,5.075897 0,5.556845 -2.59504,6.314597 -7.39759,6.314597 l -12.02369,0 0,-22.656426"
     id="path436"
     style="fill:#000000;fill-opacity:1;fill-rule:nonzero;stroke:none"
     inkscape:connector-curvature="0" />
  <path
     d="m 196.46872,28.688187 0,7.944281 -6.04126,0 0,-7.944281 -8.03424,-14.712145 6.91665,0 4.0448,8.733173 0.21106,0 4.16936,-8.733173 7.01007,0 -8.27644,14.712145"
     id="path440"
     style="fill:#000000;fill-opacity:1;fill-rule:nonzero;stroke:none"
     inkscape:connector-curvature="0" />
  <path
     d="m 220.03859,50.400018 0,-50.3991287565 -133.035564,0 0,50.3403077565 133.035564,0.05882 z m -3.49465,-3.553475 -126.04972,0 0,-43.2921796 126.04972,0 0,43.2921796 z"
     id="path444"
     style="fill:#000000;fill-opacity:1;fill-rule:nonzero;stroke:none"
     inkscape:connector-curvature="0" />
</svg>
