<?xml version="1.0" encoding="UTF-8" standalone="no"?>
<!-- Created with sK1/UniConvertor (http://sk1project.org/) -->

<svg
   xmlns:dc="http://purl.org/dc/elements/1.1/"
   xmlns:cc="http://creativecommons.org/ns#"
   xmlns:rdf="http://www.w3.org/1999/02/22-rdf-syntax-ns#"
   xmlns:svg="http://www.w3.org/2000/svg"
   xmlns="http://www.w3.org/2000/svg"
   xmlns:sodipodi="http://sodipodi.sourceforge.net/DTD/sodipodi-0.dtd"
   xmlns:inkscape="http://www.inkscape.org/namespaces/inkscape"
   width="224.37012"
   height="39.82"
   viewBox="0 0 179.4961 31.855998"
   id="svg2"
   version="1.1"
   inkscape:version="0.48.1 "
   sodipodi:docname="Dollar_General_2009.eps.svg"
   style="fill-rule:evenodd">
  <metadata
     id="metadata48">
    <rdf:RDF>
      <cc:Work
         rdf:about="">
        <dc:format>image/svg+xml</dc:format>
        <dc:type
           rdf:resource="http://purl.org/dc/dcmitype/StillImage" />
      </cc:Work>
    </rdf:RDF>
  </metadata>
  <defs
     id="defs46" />
  <sodipodi:namedview
     pagecolor="#ffffff"
     bordercolor="#666666"
     borderopacity="1"
     objecttolerance="10"
     gridtolerance="10"
     guidetolerance="10"
     inkscape:pageopacity="0"
     inkscape:pageshadow="2"
     inkscape:window-width="1366"
     inkscape:window-height="706"
     id="namedview44"
     showgrid="false"
     fit-margin-top="0"
     fit-margin-left="0"
     fit-margin-right="0"
     fit-margin-bottom="0"
     inkscape:zoom="2"
     inkscape:cx="24.775613"
     inkscape:cy="-28.54527"
     inkscape:window-x="-8"
     inkscape:window-y="-8"
     inkscape:window-maximized="1"
     inkscape:current-layer="svg2" />
  <g
     id="g4"
     transform="translate(89.2451,-827.39104)">
    <g
       id="g6">
      <g
         id="g8">
        <path
           style="fill:#c5c6c8;stroke:none"
           d="m 90.251,855.835 c 0,1.877 -1.5352,3.412 -3.4116,3.412 0,0 -57.9986,-2.942 -86.400435,-2.58 -34.286165,0.438 -86.272465,2.58 -86.272465,2.58 -1.8765,0 -3.4116,-1.535 -3.4116,-3.412 l 0,-25.032 c 0,-1.877 1.5351,-3.412 3.4116,-3.412 0,0 42.9014,2.686 86.272465,2.686 41.451635,0 86.400435,-2.686 86.400435,-2.686 1.8764,0 3.4116,1.535 3.4116,3.412 l 0,25.032 z"
           id="path10"
           inkscape:connector-curvature="0" />
        <path
           style="fill:#fcf000;stroke:none"
           d="m -85.8574,857.882 c -1.1182,-0.013 -2.023,-0.926 -2.023,-2.047 l 0,-25.032 c 0,-1.117 0.898,-2.028 2.0103,-2.047 1.6826,0.103 44.042,2.686 86.309065,2.686 40.432135,0 84.747035,-2.586 86.435535,-2.686 1.1123,0.019 2.0117,0.93 2.0117,2.047 l 0,25.032 c 0,1.119 -0.9023,2.031 -2.0171,2.047 -1.6816,-0.085 -52.1464,-2.61 -81.2065,-2.61 -1.86377,0 -3.62744,0.009 -5.241213,0.031 -33.567387,0.428 -84.734887,2.515 -86.278787,2.579 l 0,0 z"
           id="path12"
           inkscape:connector-curvature="0" />
      </g>
      <g
         id="g14">
        <path
           style="fill:#000000;stroke:none"
           d="m -78.106,849.777 0,-10.409 -1.3076,0 0.0117,-2.567 6.7886,0 c 0.8638,0 1.5781,0.071 2.1426,0.215 0.564,0.142 1.0571,0.371 1.4785,0.683 0.7666,0.584 1.3589,1.354 1.7778,2.309 0.4185,0.957 0.6275,2.023 0.6275,3.2 0,1.177 -0.189,2.2 -0.5664,3.07 -0.3784,0.87 -0.9751,1.656 -1.7905,2.358 -0.459,0.389 -0.9966,0.677 -1.6124,0.862 -0.6152,0.187 -1.3496,0.279 -2.2031,0.279 l -5.3467,0 z m 3.6851,-2.459 1.3359,0 c 0.8848,0 1.5855,-0.367 2.1021,-1.099 0.5166,-0.732 0.7749,-1.731 0.7749,-2.996 0,-1.154 -0.2583,-2.085 -0.7749,-2.792 -0.5166,-0.706 -1.1875,-1.061 -2.0127,-1.061 l -1.4253,0 0,7.948 z"
           id="path16"
           inkscape:connector-curvature="0" />
        <path
           style="fill:#000000;stroke:none"
           d="m -65.7334,843.319 c 0,-1.007 0.1455,-1.916 0.437,-2.721 0.2915,-0.807 0.7368,-1.539 1.336,-2.197 0.5556,-0.604 1.2119,-1.061 1.9672,-1.372 0.7559,-0.31 1.5918,-0.464 2.5098,-0.464 0.8955,0 1.7246,0.15 2.4849,0.453 0.7612,0.301 1.4355,0.746 2.0244,1.335 0.6367,0.641 1.1157,1.385 1.437,2.232 0.3208,0.847 0.4814,1.785 0.4814,2.816 0,0.982 -0.1469,1.879 -0.4414,2.694 -0.2939,0.814 -0.7378,1.54 -1.3315,2.176 -0.5669,0.621 -1.2276,1.088 -1.9834,1.404 -0.7559,0.315 -1.5923,0.474 -2.5098,0.474 -0.8906,0 -1.7134,-0.152 -2.4692,-0.454 -0.7554,-0.302 -1.4248,-0.748 -2.0078,-1.335 -0.6416,-0.647 -1.125,-1.39 -1.4488,-2.229 -0.3242,-0.839 -0.4858,-1.775 -0.4858,-2.812 z m 3.9243,0.066 c 0,1.153 0.2168,2.048 0.6519,2.682 0.435,0.633 1.0468,0.95 1.8354,0.95 0.7027,0 1.2686,-0.335 1.6978,-1.007 0.4297,-0.672 0.6445,-1.568 0.6445,-2.691 0,-1.148 -0.2187,-2.04 -0.6562,-2.673 -0.4375,-0.634 -1.0484,-0.951 -1.8321,-0.951 -0.7016,0 -1.268,0.334 -1.6977,1.003 -0.4292,0.669 -0.6436,1.565 -0.6436,2.687 z"
           id="path18"
           inkscape:connector-curvature="0" />
        <path
           style="fill:#000000;stroke:none"
           d="m -52.1445,849.777 0,-12.992 3.8525,0 0,9.684 5.1826,0 0,3.308 -9.0351,0 z"
           id="path20"
           inkscape:connector-curvature="0" />
        <path
           style="fill:#000000;stroke:none"
           d="m -42.0635,849.777 0,-12.992 3.8526,0 0,9.684 5.1826,0 0,3.308 -9.0352,0 z"
           id="path22"
           inkscape:connector-curvature="0" />
        <path
           style="fill:#000000;stroke:none"
           d="m 71.6367,849.777 0,-12.992 3.8526,0 0,9.684 5.1821,0 0,3.308 -9.0347,0 z"
           id="path24"
           inkscape:connector-curvature="0" />
        <path
           style="fill:#000000;stroke:none"
           d="m -32.3418,849.777 4.7954,-12.976 4.1641,0 4.0342,12.976 -3.9859,0 -0.4614,-1.927 -3.6699,0 -0.5425,1.927 -4.334,0 z m 5.5898,-4.528 2.3086,0 -0.6967,-2.818 c -0.0918,-0.352 -0.1661,-0.765 -0.2232,-1.239 -0.0561,-0.476 -0.0981,-1.019 -0.125,-1.629 l -0.1138,0 c -0.0107,0.507 -0.0483,1.001 -0.1132,1.478 -0.0645,0.479 -0.1621,0.946 -0.2915,1.405 l -0.7452,2.803 z"
           id="path26"
           inkscape:connector-curvature="0" />
        <path
           style="fill:#000000;stroke:none"
           d="m 57.6582,849.777 4.7954,-12.976 4.1636,0 4.0342,12.976 -3.9859,0 -0.4614,-1.927 -3.6699,0 -0.5425,1.927 -4.3335,0 z m 5.5894,-4.528 2.3086,0 -0.6968,-2.818 c -0.0923,-0.352 -0.166,-0.765 -0.2227,-1.239 -0.0566,-0.476 -0.0986,-1.019 -0.1255,-1.629 l -0.1137,0 c -0.0108,0.507 -0.0484,1.001 -0.1133,1.478 -0.0645,0.479 -0.1621,0.946 -0.2915,1.405 l -0.7451,2.803 z"
           id="path28"
           inkscape:connector-curvature="0" />
        <path
           style="fill:#000000;stroke:none"
           d="m 8.59277,848.336 c -0.41797,0.569 -0.91211,0.995 -1.48193,1.277 -0.57031,0.282 -1.21631,0.423 -1.93896,0.423 -0.87159,0 -1.66749,-0.17 -2.38721,-0.508 -0.72022,-0.338 -1.34033,-0.835 -1.86133,-1.49 -0.536621,-0.66 -0.94043,-1.404 -1.210938,-2.23 -0.270996,-0.827 -0.406738,-1.721 -0.406738,-2.682 0,-1.079 0.167969,-2.046 0.503418,-2.899 0.335449,-0.854 0.837891,-1.597 1.508788,-2.231 0.53125,-0.505 1.13281,-0.878 1.80322,-1.119 0.6709,-0.242 1.43213,-0.362 2.28321,-0.362 1.57324,0 2.85156,0.421 3.83496,1.263 0.98294,0.843 1.30224,1.517 1.61674,2.917 l -3.45903,0.544 c -0.05224,-0.553 -0.36865,-0.951 -0.68115,-1.261 -0.31201,-0.312 -0.72363,-0.468 -1.23389,-0.468 -0.80517,0 -1.41015,0.31 -1.81543,0.931 -0.40478,0.62 -0.60742,1.552 -0.60742,2.797 0,1.182 0.21826,2.099 0.6543,2.75 0.43603,0.653 1.04834,0.979 1.83789,0.979 0.57275,0 1.05908,-0.159 1.4585,-0.48 0.3999,-0.318 0.6206,-0.719 0.66211,-1.203 l -1.47071,0 0,-2.186 4.74123,0 0,6.661 -2.24123,0 -0.1084,-1.423 z"
           id="path30"
           inkscape:connector-curvature="0" />
        <path
           style="fill:#000000;stroke:none"
           d="m 12.5283,849.762 0,-13.005 8.6821,0 0,3.149 -5.5932,0 0,1.705 4.8423,0 0,2.882 -4.8423,0 0,1.997 5.686,0 0,3.272 -8.7749,0 z"
           id="path32"
           inkscape:connector-curvature="0" />
        <path
           style="fill:#000000;stroke:none"
           d="m 35.2417,849.762 0,-13.005 8.6821,0 0,3.149 -5.5927,0 0,1.705 4.8427,0 0,2.882 -4.8427,0 0,1.997 5.686,0 0,3.272 -8.7754,0 z"
           id="path34"
           inkscape:connector-curvature="0" />
        <path
           style="fill:#000000;stroke:none"
           d="m 22.6816,849.762 0,-12.959 3.8326,0 3.0322,5.767 c 0.1919,0.373 0.3506,0.718 0.4761,1.037 0.1254,0.318 0.2197,0.62 0.2841,0.906 l 0.0957,-0.049 c -0.1118,-0.318 -0.1923,-0.679 -0.2402,-1.08 -0.0478,-0.402 -0.0713,-0.959 -0.0713,-1.671 l 0,-4.91 3.6079,0 0,12.959 -3.8081,0 -3.0962,-6.027 c -0.1601,-0.312 -0.3017,-0.632 -0.4243,-0.958 -0.1225,-0.326 -0.2265,-0.659 -0.312,-1 l -0.0962,0.049 c 0.1123,0.351 0.1948,0.748 0.2481,1.194 0.0532,0.445 0.08,0.969 0.08,1.573 l 0,5.169 -3.6084,0 z"
           id="path36"
           inkscape:connector-curvature="0" />
        <path
           style="fill:#000000;stroke:none"
           d="m -9.75098,844.998 c 0,0 1.34131,-0.495 2.13819,-1.729 0.57177,-0.886 0.60595,-1.924 0.60595,-2.683 0,-1.214 -0.42578,-2.156 -1.27636,-2.829 -0.85108,-0.672 -2.0454,-1.008 -3.585,-1.008 l -6.5112,0 0,13.023 3.8286,0 -10e-4,-4.256 c 1.2012,-0.193 1.5811,1.166 2.0367,1.9 1.1377,1.836 2.85543,3.568 5.78805,2.247 0.14795,-0.745 0.15723,-1.629 0.25928,-2.42 -1.92578,0.978 -2.66993,-1.087 -3.28321,-2.245 z m -1.77592,-2.448 c -0.2744,0.327 -0.684,0.49 -1.2285,0.49 l -1.7954,0 0,-3.945 1.8252,0 c 0.5396,0 0.9424,0.167 1.2095,0.502 0.2671,0.335 0.4004,0.838 0.4004,1.508 0,0.636 -0.1367,1.119 -0.4112,1.445 z"
           id="path38"
           inkscape:connector-curvature="0" />
        <path
           style="fill:#000000;stroke:none"
           d="m 54.0586,844.998 c 0,0 1.3408,-0.495 2.1377,-1.729 0.5718,-0.886 0.6059,-1.924 0.6059,-2.683 0,-1.214 -0.4257,-2.156 -1.2763,-2.829 -0.8506,-0.672 -2.0459,-1.008 -3.5845,-1.008 l -6.5117,0 0,13.023 3.8286,0 -10e-4,-4.256 c 1.2012,-0.193 1.5816,1.166 2.0366,1.9 1.1377,1.836 2.856,3.568 5.7881,2.247 0.1485,-0.745 0.1573,-1.629 0.2593,-2.42 -1.9258,0.978 -2.6699,-1.087 -3.2827,-2.245 z m -1.7764,-2.448 c -0.2749,0.327 -0.6841,0.49 -1.228,0.49 l -1.7959,0 0,-3.945 1.8257,0 c 0.539,0 0.9424,0.167 1.2095,0.502 0.267,0.335 0.4003,0.838 0.4003,1.508 0,0.636 -0.1367,1.119 -0.4116,1.445 z"
           id="path40"
           inkscape:connector-curvature="0" />
        <path
           style="fill:#000000;stroke:none"
           d="m 77.8569,836.8 c 0.6939,0 1.2452,0.536 1.2452,1.223 0,0.686 -0.5513,1.23 -1.2525,1.23 -0.7007,0 -1.2602,-0.544 -1.2602,-1.23 0,-0.687 0.5595,-1.223 1.2602,-1.223 l 0.0073,0 z m -0.0146,0.245 c -0.5298,0 -0.9404,0.44 -0.9404,0.978 0,0.544 0.4106,0.976 0.955,0.976 0.5293,0.008 0.9317,-0.432 0.9317,-0.969 0,-0.545 -0.4024,-0.985 -0.939,-0.985 l -0.0073,0 z m -0.1865,1.611 -0.2837,0 0,-1.222 c 0.1118,-0.016 0.2685,-0.038 0.4702,-0.038 0.2314,0 0.3349,0.038 0.4175,0.096 0.0747,0.053 0.1264,0.143 0.1264,0.262 0,0.148 -0.1118,0.246 -0.2529,0.291 l 0,0.015 c 0.1191,0.037 0.1782,0.133 0.2158,0.298 0.0371,0.186 0.0674,0.253 0.0894,0.298 l -0.2979,0 c -0.0371,-0.045 -0.0595,-0.149 -0.0971,-0.298 -0.022,-0.126 -0.0967,-0.187 -0.2535,-0.187 l -0.1342,0 0,0.485 z m 0.0073,-0.686 0.1338,0 c 0.1572,0 0.2842,-0.052 0.2842,-0.179 0,-0.111 -0.0821,-0.185 -0.2613,-0.185 -0.0747,0 -0.1269,0.006 -0.1567,0.014 l 0,0.35 z"
           id="path42"
           inkscape:connector-curvature="0" />
      </g>
    </g>
  </g>
</svg>
