<?xml version="1.0" encoding="UTF-8" standalone="no"?>
<!-- Created with sK1/UniConvertor (http://sk1project.org/) -->

<svg
   xmlns:dc="http://purl.org/dc/elements/1.1/"
   xmlns:cc="http://creativecommons.org/ns#"
   xmlns:rdf="http://www.w3.org/1999/02/22-rdf-syntax-ns#"
   xmlns:svg="http://www.w3.org/2000/svg"
   xmlns="http://www.w3.org/2000/svg"
   xmlns:sodipodi="http://sodipodi.sourceforge.net/DTD/sodipodi-0.dtd"
   xmlns:inkscape="http://www.inkscape.org/namespaces/inkscape"
   width="219.68507"
   height="39.494999"
   viewBox="0 0 175.74807 31.595998"
   id="svg2"
   version="1.1"
   inkscape:version="0.48.1 "
   sodipodi:docname="Dollar_General_previous_logo.eps.svg"
   style="fill-rule:evenodd">
  <metadata
     id="metadata46">
    <rdf:RDF>
      <cc:Work
         rdf:about="">
        <dc:format>image/svg+xml</dc:format>
        <dc:type
           rdf:resource="http://purl.org/dc/dcmitype/StillImage" />
      </cc:Work>
    </rdf:RDF>
  </metadata>
  <defs
     id="defs44" />
  <sodipodi:namedview
     pagecolor="#ffffff"
     bordercolor="#666666"
     borderopacity="1"
     objecttolerance="10"
     gridtolerance="10"
     guidetolerance="10"
     inkscape:pageopacity="0"
     inkscape:pageshadow="2"
     inkscape:window-width="1366"
     inkscape:window-height="706"
     id="namedview42"
     showgrid="false"
     fit-margin-top="0"
     fit-margin-left="0"
     fit-margin-right="0"
     fit-margin-bottom="0"
     inkscape:zoom="2.8284271"
     inkscape:cx="130.7096"
     inkscape:cy="9.6468772"
     inkscape:window-x="-8"
     inkscape:window-y="-8"
     inkscape:window-maximized="1"
     inkscape:current-layer="svg2" />
  <g
     id="g3041"
     transform="translate(-8.50394,-729.71404)">
    <path
       style="fill:none;stroke:none"
       d="m 182.993,760.05 -173.22991,0 0,-29.077 173.22991,0 0,29.077"
       id="path8"
       inkscape:connector-curvature="0" />
    <path
       style="fill:#ffffff;stroke:none"
       d="m 182.993,761.31 -173.22991,0 c -0.62958,0 -1.25915,-0.63 -1.25915,-1.26 l 0,-29.077 c 0,-0.629 0.62957,-1.259 1.25915,-1.259 l 173.22991,0 c 0.629,0 1.259,0.63 1.259,1.259 l 0,29.077 c 0,0.63 -0.63,1.26 -1.259,1.26"
       id="path10"
       inkscape:connector-curvature="0" />
    <path
       style="fill:#ffe900;stroke:none"
       d="m 182.993,760.05 -173.22991,0 0,-29.077 173.22991,0 0,29.077"
       id="path12"
       inkscape:connector-curvature="0" />
    <path
       style="fill:#2c2c2b;stroke:none"
       d="m 17.3713,754.64 0,-14.027 -0.9408,0 1.1117,-3.934 9.0663,0 c 0,0 1.6677,0.171 1.6677,1.668 0,1.497 0,14.925 0,14.925 0,0 -0.5559,1.368 -2.6085,1.368 -2.0528,0 -8.2964,0 -8.2964,0 l 0,0 4.5329,-13.77 0,9.323 c 0,0 0,0.77 0.5989,0.77 0.5987,0 0.5987,0 0.5987,0 0,0 0.7696,-0.086 0.7696,-0.77 0,-0.685 0,-9.323 0,-9.323 0,0 0,-0.77 -0.7696,-0.77 l -0.5987,0 c 0,0 -0.5989,-0.13 -0.5989,0.77"
       id="path14"
       inkscape:connector-curvature="0" />
    <path
       style="fill:#2c2c2b;stroke:none"
       d="m 33.0231,736.384 c 0,0 4.1057,0.085 6.4148,0.085 2.3093,0 2.1384,2.138 2.1384,2.138 0,0 0,11.204 0,13.856 0,2.652 -2.1384,2.138 -2.1384,2.138 0,0 -4.0199,0 -6.4148,0 -2.3948,0 -2.2238,-2.223 -2.2238,-2.223 l 0,-13.771 c 0,-1.967 2.2238,-2.223 2.2238,-2.223 l 0,0 2.116,4.447 0,9.323 c 0,0 0,0.769 0.5987,0.769 0.5987,0 0.5987,0 0.5987,0 0,0 0.7696,-0.085 0.7696,-0.769 0,-0.684 0,-9.323 0,-9.323 0,0 3e-4,-0.77 -0.7696,-0.77 l -0.5987,0 c 0,0 -0.5987,-0.13 -0.5987,0.77"
       id="path16"
       inkscape:connector-curvature="0" />
    <path
       style="fill:#2c2c2b;stroke:none"
       d="m 44.1476,736.687 4.4297,0 0,14.083 3.4974,0 0,3.87 -7.9271,0 0,-17.953"
       id="path18"
       inkscape:connector-curvature="0" />
    <path
       style="fill:#2c2c2b;stroke:none"
       d="m 53.6136,736.687 4.43,0 0,14.083 3.4974,0 0,3.87 -7.9274,0 0,-17.953"
       id="path20"
       inkscape:connector-curvature="0" />
    <path
       style="fill:#2c2c2b;stroke:none"
       d="m 62.7999,754.64 3.3108,-17.859 5.5024,0 3.5906,17.859 -4.4765,0 -0.6528,-2.704 -2.3315,0 -0.8393,2.704 -4.1037,0 0,0 6.8082,-6.295 -0.6996,-3.917 -0.7928,3.917 1.4924,0"
       id="path22"
       inkscape:connector-curvature="0" />
    <path
       style="fill:#2c2c2b;stroke:none"
       d="m 82.1591,740.391 0.5987,0 c 0.7696,0 0.7696,0.37 0.7696,0.37 0,0 0,4.145 0,4.474 0,0.328 -0.7696,0.369 -0.7696,0.369 0,0 0,0 -0.5987,0 -0.5987,0 -0.5987,-0.369 -0.5987,-0.369 l 0,-4.474 c 0,-0.432 0.5987,-0.37 0.5987,-0.37 l 0,0 -6.046,0.073 1.2356,0 0,14.176 4.197,0 0,-5.362 0.839,0 2.0053,5.362 4.943,0 -2.9378,-6.388 c 1.5854,-0.466 1.3056,-1.819 1.3056,-1.819 0,0 0,-6.062 0,-7.927 0,-1.865 -1.7254,-1.725 -1.7254,-1.725 l -8.6267,0 -1.2356,3.683"
       id="path24"
       inkscape:connector-curvature="0" />
    <path
       style="fill:#2c2c2b;stroke:none"
       d="m 168.398,736.687 4.43,0 0,14.083 3.497,0 0,3.87 -7.927,0 0,-17.953"
       id="path26"
       inkscape:connector-curvature="0" />
    <path
       style="fill:#2c2c2b;stroke:none"
       d="m 154.544,754.64 3.311,-17.859 5.502,0 3.591,17.859 -4.477,0 -0.653,-2.704 -2.331,0 -0.84,2.704 -4.103,0 0,0 6.808,-6.295 -0.7,-3.917 -0.792,3.917 1.492,0"
       id="path28"
       inkscape:connector-curvature="0" />
    <path
       style="fill:#2c2c2b;stroke:none"
       d="m 146.932,740.391 0.599,0 c 0.769,0 0.769,0.369 0.769,0.369 0,0 0,4.146 0,4.475 0,0.328 -0.769,0.369 -0.769,0.369 0,0 0,0 -0.599,0 -0.599,0 -0.599,-0.369 -0.599,-0.369 l 0,-4.475 c 0,-0.431 0.599,-0.369 0.599,-0.369 l 0,0 -6.046,0.073 1.235,0 0,14.176 4.197,0 0,-5.362 0.84,0 2.005,5.362 4.943,0 -2.938,-6.388 c 1.585,-0.466 1.306,-1.819 1.306,-1.819 0,0 0,-6.062 0,-7.927 0,-1.865 -1.726,-1.725 -1.726,-1.725 l -8.627,0 -1.235,3.683"
       id="path30"
       inkscape:connector-curvature="0" />
    <path
       style="fill:#2c2c2b;stroke:none"
       d="m 139.557,736.734 0,3.707 -3.707,0 0,2.868 3.357,0 0,3.567 -3.357,0 0,3.847 3.707,0 0,3.917 -7.974,0 0,-17.906 7.974,0"
       id="path32"
       inkscape:connector-curvature="0" />
    <path
       style="fill:#2c2c2b;stroke:none"
       d="m 114.936,736.734 0,3.707 -3.707,0 0,2.868 3.357,0 0,3.567 -3.357,0 0,3.847 3.707,0 0,3.917 -7.974,0 0,-17.906 7.974,0"
       id="path34"
       inkscape:connector-curvature="0" />
    <path
       style="fill:#2c2c2b;stroke:none"
       d="m 117.874,754.64 0,-17.906 3.497,0 3.147,6.575 0,-6.575 4.197,0 0,17.906 -3.917,0 -3.007,-6.085 0,6.085 -3.917,0"
       id="path36"
       inkscape:connector-curvature="0" />
    <path
       style="fill:#2c2c2b;stroke:none"
       d="m 95.0012,736.615 7.0648,0 c 0,0 1.993,0.069 1.993,1.993 0,1.924 0,2.203 0,2.203 l -4.0918,0.98 0,-0.98 c 0,0 0,-0.559 -0.5593,-0.559 l -1.1778,0 c 0,0 -0.7177,-0.073 -0.7177,0.718 0,0.79 0,9.22 0,9.22 0,0 -0.1942,0.747 0.7463,0.747 0.9403,0 1.0372,0 1.0372,0 0,0 0.7005,0.145 0.7005,-0.701 0,-0.845 0,-3.655 0,-3.655 l -1.1846,0 0,-3.125 5.2472,0 0,9.06 c 0,0 0.364,2.091 -2.091,2.091 -2.4538,0 -6.3784,0 -6.3784,0 0,0 -1.978,0.46 -1.978,-1.979 0,-2.438 0,-14.624 0,-14.624 0,0 -0.0955,-1.278 1.3896,-1.389"
       id="path38"
       inkscape:connector-curvature="0" />
    <path
       style="fill:#2c2c2b;stroke:none"
       d="m 174.656,736.705 c 0.814,0 1.463,0.661 1.463,1.489 0,0.84 -0.649,1.495 -1.469,1.495 -0.815,0 -1.476,-0.655 -1.476,-1.495 0,-0.828 0.661,-1.489 1.476,-1.489 l 0.006,0 0,0 -0.006,0.231 c -0.655,0 -1.192,0.563 -1.192,1.258 0,0.708 0.537,1.264 1.198,1.264 0.662,0.007 1.192,-0.556 1.192,-1.258 0,-0.701 -0.53,-1.264 -1.192,-1.264 l -0.006,0 0,0 -0.278,2.125 -0.265,0 0,-1.661 c 0.139,-0.02 0.271,-0.04 0.47,-0.04 0.251,0 0.417,0.053 0.516,0.126 0.099,0.072 0.152,0.185 0.152,0.344 0,0.218 -0.146,0.351 -0.324,0.404 l 0,0.013 c 0.146,0.026 0.245,0.159 0.278,0.404 0.04,0.258 0.079,0.357 0.106,0.41 l -0.278,0 c -0.04,-0.053 -0.08,-0.205 -0.113,-0.424 -0.039,-0.212 -0.145,-0.291 -0.357,-0.291 l -0.185,0 0,0.715 0,0 0,-0.92 0.192,0 c 0.218,0 0.403,-0.08 0.403,-0.285 0,-0.145 -0.106,-0.291 -0.403,-0.291 -0.086,0 -0.146,0.007 -0.192,0.013 l 0,0.563"
       id="path40"
       inkscape:connector-curvature="0" />
  </g>
</svg>
