<?xml version="1.0" encoding="utf-8" ?>
<!DOCTYPE svg PUBLIC "-//W3C//DTD SVG 1.0//EN" "http://www.w3.org/TR/2001/REC-SVG-20010904/DTD/svg10.dtd">
<svg xmlns="http://www.w3.org/2000/svg"
	preserveAspectRatio="xMinYMin meet"
	viewBox="0 0
	100 100">
<desc>
A representation of the Domino's Pizza trademark logo.
This representation is dedicated to the public domain by the author:
http://creativecommons.org/licenses/publicdomain
</desc>

<g id="logo" transform="translate(14,14) scale(.72) rotate(-45,50,50)">
	<rect x="0" y="0" width="100" height="48.5" rx="4"
		style="fill:#de2939"/>
	<circle cx="15.5" cy="15.5" r="8" style="fill:white"/>
	<circle cx="33" cy="33.25" r="8" style="fill:white"/>
	<circle cx="76" cy="24.25" r="8" style="fill:white"/>
	<rect x="50" y="0" width="3" height="48.5" style="fill:white;stroke:none"/>

	<rect x="0" y="51" width="100" height="48.5" rx="4"
		style="fill:#007bad"/>
	
	<path style="stroke:none; fill:white; fill-rule:evenodd"
		d="M5,73 V55.5 H11 C18.5,56.5 18.5,71.5 11,73 Z
			M9.5,59.5 V68.5 C13,68 13,60 9.5,59.5
			
			M23.25,60.25 C30.25,60.25 30.25,73 23.25,73
			C16.25,73 16.25,60.25 23.25,60.25Z
			M23.25,63.5 C25,63.5 25,69.75 23.25,69.75
			C21.5,69.75 21.5,63.5 23.25,63.5Z
			
			M30,61 H34.5 V62.5 A3.5,3.5 0 0,1 40.5,62.5
			A3.5,3.5 0 0,1 46.5,62.5 V73 H42.25 V65.5
			A1,1.5 0 0,0 40.5,65.5 V73 H36 V65.5
			A1,1.5 0 0,0 34.25,65.5 V73 H30 Z

			M48.5,61 H53 V73 H48.5 Z
			M50.75,54 A2.6,2.6 0 1,0 50.76,54
			
			M55,61 H59.25 V63 A3.15,3.15 0 0,1 65.25,64
			V73 H61 V65.5 A1,1.5 0 0,0 59.25,65.5 V73 H55 Z
			
			M72.25,60.25 C79.25,60.25 79.25,73 72.25,73
			C65.25,73 65.25,60.25 72.25,60.25Z
			M72.25,63.5 C74,63.5 74,69.75 72.25,69.75
			C70.5,69.75 70.5,63.5 72.25,63.5Z
			
			M80.5,55.5 H85 L82,63.25 H78.75 Z
		
			M90.5,64 C86,62 86.5,65 89.5,65.5 C93,67 93,73 87.5,73
			Q85,72.75 83.25,71.5 L84.75,69 C89,71 89,68 85,67
			C81,65 84,57 92,61 Z
			
			M10,95 H5 V77 H10 A6,6 0 1,1 10,89 Z
			M10,80.5 A2.2,2 0 1,1 10,85.25 Z
			
			M17.75,82.5 H22.25 V95 H17.75 Z
			M20,76.2 A2.6,2.6 0 1,0 20.01,76.2

			M24,82.5 H33.5 L29.5,91.25 H33.25 V95 H23.5 L27.5,86
			H24 Z
			
			M35.25,82.5 H44.75 L40.75,91.25 H44.5 V95 H34.5 L38.75,86
			H35 Z
			
			M52.25,93 A4,6.3 0 1,1 52.25,84 V82.5 H57 V95 H52.25 Z
			M52.25,90 A1,2.5 0 1,1 52.25,87 Z
	"/>
	<path style="fill:none; stroke:#007bad" d="
		M11,107 A2.7,2.7 0 1,1 11,107.01
		M11,108 L15,104.75 A1.25,1.25 0 1,1 13.25,106 L13,110
	"/>
</g>


</svg>