<?xml version="1.0" encoding="UTF-8" standalone="no"?>
<!-- Created with Inkscape (http://www.inkscape.org/) -->

<svg
   xmlns:dc="http://purl.org/dc/elements/1.1/"
   xmlns:cc="http://creativecommons.org/ns#"
   xmlns:rdf="http://www.w3.org/1999/02/22-rdf-syntax-ns#"
   xmlns:svg="http://www.w3.org/2000/svg"
   xmlns="http://www.w3.org/2000/svg"
   xmlns:sodipodi="http://sodipodi.sourceforge.net/DTD/sodipodi-0.dtd"
   xmlns:inkscape="http://www.inkscape.org/namespaces/inkscape"
   id="svg2985"
   version="1.1"
   inkscape:version="0.48.2 r9819"
   width="1000"
   height="320.85895"
   xml:space="preserve"
   sodipodi:docname="4515869_78601T14_CNB_v1.pdf"><metadata
     id="metadata2991"><rdf:RDF><cc:Work
         rdf:about=""><dc:format>image/svg+xml</dc:format><dc:type
           rdf:resource="http://purl.org/dc/dcmitype/StillImage" /><dc:title></dc:title></cc:Work></rdf:RDF></metadata><defs
     id="defs2989"><clipPath
       clipPathUnits="userSpaceOnUse"
       id="clipPath2999"><path
         d="m 409.99,53.869 98.01,0 0,31.381 -98.01,0 0,-31.381 z"
         id="path3001"
         inkscape:connector-curvature="0" /></clipPath><linearGradient
       x1="0"
       y1="0"
       x2="1"
       y2="0"
       gradientUnits="userSpaceOnUse"
       gradientTransform="matrix(475.157,0,0,475.157,50.4216,635.881)"
       spreadMethod="pad"
       id="linearGradient3073"><stop
         style="stop-opacity:1;stop-color:#ffffff"
         offset="0"
         id="stop3075" /><stop
         style="stop-opacity:1;stop-color:#dad9d9"
         offset="0.5"
         id="stop3077" /><stop
         style="stop-opacity:1;stop-color:#ffffff"
         offset="1"
         id="stop3079" /></linearGradient><clipPath
       clipPathUnits="userSpaceOnUse"
       id="clipPath3087"><path
         d="m 35,137.619 504,0 0,546.381 -504,0 0,-546.381 z"
         id="path3089"
         inkscape:connector-curvature="0" /></clipPath><clipPath
       clipPathUnits="userSpaceOnUse"
       id="clipPath3135"><path
         d="m 72,225.837 467,0 0,457.944 -467,0 0,-457.944 z"
         id="path3137"
         inkscape:connector-curvature="0" /></clipPath><clipPath
       clipPathUnits="userSpaceOnUse"
       id="clipPath3163"><path
         d="m 35,137.619 504,0 0,546.381 -504,0 0,-546.381 z"
         id="path3165"
         inkscape:connector-curvature="0" /></clipPath></defs><sodipodi:namedview
     pagecolor="#ffffff"
     bordercolor="#666666"
     borderopacity="1"
     objecttolerance="10"
     gridtolerance="10"
     guidetolerance="10"
     inkscape:pageopacity="0"
     inkscape:pageshadow="2"
     inkscape:window-width="1451"
     inkscape:window-height="1037"
     id="namedview2987"
     showgrid="false"
     fit-margin-left="0.5"
     fit-margin-bottom="0.5"
     fit-margin-top="0.5"
     fit-margin-right="0.5"
     inkscape:zoom="1.1971482"
     inkscape:cx="548.52745"
     inkscape:cy="116.90813"
     inkscape:window-x="465"
     inkscape:window-y="-20"
     inkscape:window-maximized="0"
     inkscape:current-layer="g2993" /><g
     id="g2993"
     inkscape:groupmode="layer"
     inkscape:label="4515869_78601T14_CNB_v1"
     transform="matrix(1.25,0,0,-1.25,-511.98746,387.6952)"><g
       id="g2995"
       transform="matrix(8.1542949,0,0,8.1542949,-2933.1894,-385.39471)"><g
         id="g2997"
         clip-path="url(#clipPath2999)"><g
           id="g3003"
           transform="translate(445.963,81.7318)"><path
             d="M 0,0 0.384,0 C 3.029,0 6.185,-0.814 6.185,-4.684 6.185,-8.558 3.029,-9.37 0.384,-9.37 L 0,-9.37 0,0 z m 0.867,1.766 -2.768,0 0,-12.902 2.719,0 c 4.482,0 7.268,2.496 7.268,6.518 0,3.878 -2.834,6.384 -7.219,6.384"
             style="fill:#04517d;fill-opacity:1;fill-rule:nonzero;stroke:none"
             id="path3005"
             inkscape:connector-curvature="0" /></g><g
           id="g3007"
           transform="translate(462.7674,75.9132)"><path
             d="m 0,0 c 0,-2.548 -0.937,-3.785 -2.865,-3.785 -1.93,0 -2.868,1.237 -2.868,3.785 l 0,7.585 -1.901,0 0,-8.119 c 0,-3.021 1.915,-5.05 4.769,-5.05 2.85,0 4.767,2.029 4.767,5.05 l 0,8.119 L 0,7.585 0,0 z"
             style="fill:#04517d;fill-opacity:1;fill-rule:nonzero;stroke:none"
             id="path3009"
             inkscape:connector-curvature="0" /></g><g
           id="g3011"
           transform="translate(470.0696,77.6698)"><path
             d="m 0,0 5.828,5.828 -2.524,0 -5.098,-5.208 0,5.208 -1.901,0 0,-12.902 1.901,0 0,5.345 0.45,0.428 4.671,-5.773 2.551,0 L 0,0 z"
             style="fill:#04517d;fill-opacity:1;fill-rule:nonzero;stroke:none"
             id="path3013"
             inkscape:connector-curvature="0" /></g><g
           id="g3015"
           transform="translate(483.746,72.3616)"><path
             d="m 0,0 -5.186,0 0,4.418 5.035,0 0,1.768 -5.035,0 0,3.184 5.186,0 0,1.767 -7.086,0 0,-12.903 7.086,0 L 0,0 z"
             style="fill:#04517d;fill-opacity:1;fill-rule:nonzero;stroke:none"
             id="path3017"
             inkscape:connector-curvature="0" /></g><g
           id="g3019"
           transform="translate(444.1962,54.1346)"><path
             d="m 0,0 7.086,0 0,1.767 -5.186,0 0,4.418 5.034,0 0,1.767 -5.034,0 0,3.183 5.186,0 0,1.768 L 0,12.903 0,0 z"
             style="fill:#04517d;fill-opacity:1;fill-rule:nonzero;stroke:none"
             id="path3021"
             inkscape:connector-curvature="0" /></g><g
           id="g3023"
           transform="translate(465.7887,54.1346)"><path
             d="m 0,0 7.086,0 0,1.767 -5.186,0 0,4.418 5.037,0 0,1.767 -5.037,0 0,3.183 5.186,0 0,1.768 L 0,12.903 0,0 z"
             style="fill:#04517d;fill-opacity:1;fill-rule:nonzero;stroke:none"
             id="path3025"
             inkscape:connector-curvature="0" /></g><g
           id="g3027"
           transform="translate(465.7887,54.1346)"><path
             d="m 0,0 7.086,0 0,1.767 -5.186,0 0,4.418 5.037,0 0,1.767 -5.037,0 0,3.183 5.186,0 0,1.768 L 0,12.903 0,0 z"
             style="fill:#04517d;fill-opacity:1;fill-rule:nonzero;stroke:none"
             id="path3029"
             inkscape:connector-curvature="0" /></g><g
           id="g3031"
           transform="translate(462.2338,67.0375)"><path
             d="M 0,0 0,-9.036 -0.002,-9.035 -8.26,0 l -1.174,0 -0.004,0 0,-12.903 0.004,0 1.899,0 0,9.119 8.229,-9.119 1.203,0 L 1.897,0 0,0 z"
             style="fill:#04517d;fill-opacity:1;fill-rule:nonzero;stroke:none"
             id="path3033"
             inkscape:connector-curvature="0" /></g><g
           id="g3035"
           transform="translate(479.9435,63.2215)"><path
             d="m 0,0 c 0,-1.479 -0.977,-2.135 -3.168,-2.135 l -0.334,0 0,4.217 0.251,0 C -1.034,2.082 0,1.42 0,0 m 1.8,0.065 c 0,1.312 -0.663,2.517 -1.735,3.147 -1.069,0.604 -2.36,0.604 -3.398,0.604 l -2.068,0 0,-12.903 1.899,0 0,5.318 0.398,0 3.7,-5.318 2.315,0 -4,5.512 c 1.716,0.332 2.889,1.79 2.889,3.64"
             style="fill:#04517d;fill-opacity:1;fill-rule:nonzero;stroke:none"
             id="path3037"
             inkscape:connector-curvature="0" /></g><g
           id="g3039"
           transform="translate(490.0659,59.0363)"><path
             d="m 0,0 3.238,0 c -0.173,-1.931 -2.217,-3.402 -3.94,-3.402 -2.512,0 -4.717,2.322 -4.717,4.969 0,2.767 2.132,4.935 4.851,4.935 1.463,0 2.924,-0.76 3.817,-1.983 L 3.361,4.366 4.71,5.653 4.613,5.771 C 3.369,7.336 1.41,8.269 -0.635,8.269 c -3.686,0 -6.685,-3.03 -6.685,-6.754 0,-3.623 2.985,-6.683 6.518,-6.683 3.546,0 6.118,2.637 6.118,6.269 l 0,0.664 L 0,1.765 0,0 z"
             style="fill:#04517d;fill-opacity:1;fill-rule:nonzero;stroke:none"
             id="path3041"
             inkscape:connector-curvature="0" /></g><g
           id="g3043"
           transform="translate(503.3419,67.0375)"><path
             d="M 0,0 -2.987,-5.199 -5.975,0 l -2.188,0 4.226,-7.314 0,-5.589 1.9,0 0,5.589 L 2.187,0 0,0 z"
             style="fill:#04517d;fill-opacity:1;fill-rule:nonzero;stroke:none"
             id="path3045"
             inkscape:connector-curvature="0" /></g><g
           id="g3047"
           transform="translate(429.2021,57.6731)"><path
             d="m 0,0 c -0.057,-0.06 -1.242,-1.311 -2.682,-1.399 -1.571,-0.092 -3.066,0.86 -3.527,4.33 l -6.267,1.848 C -9.73,-4.971 -2.1,-4.634 0.458,-0.338 0.633,-0.064 0.585,0.084 0.453,0.156 0.309,0.234 0.158,0.172 0,0"
             style="fill:#04517d;fill-opacity:1;fill-rule:nonzero;stroke:none"
             id="path3049"
             inkscape:connector-curvature="0" /></g><g
           id="g3051"
           transform="translate(429.1954,83.2908)"><path
             d="m 0,0 c -2.518,5.096 -11.484,0.067 -13.021,-12.966 -0.101,-0.861 0.32,-1.303 0.687,-1.494 0.821,-0.429 1.25,-0.596 2.554,-0.852 0.845,-0.161 1.369,-0.223 2.096,-0.174 0.629,0.044 1.196,0.491 1.258,1.143 1.333,14 4.524,17.122 6.005,14.12 C -0.246,-0.568 0.189,-0.414 0,0"
             style="fill:#04517d;fill-opacity:1;fill-rule:nonzero;stroke:none"
             id="path3053"
             inkscape:connector-curvature="0" /></g><g
           id="g3055"
           transform="translate(427.6635,78.8851)"><path
             d="m 0,0 c -0.707,0.015 -1.253,-0.126 -1.604,-0.704 -0.341,-0.565 -0.56,-1.258 -0.712,-2.149 -0.136,-0.783 -0.263,-1.964 -0.142,-2.348 0.124,-0.383 0.414,-0.675 0.926,-0.706 2.858,-0.177 11.242,-1.372 12.39,-3.809 0.788,-1.676 -1.555,-2.105 -3.276,-2.548 -0.656,-0.17 -1.051,-0.601 -1.126,-1.128 -0.196,-1.367 0.157,-2.055 0.466,-2.513 0.212,-0.318 0.631,-0.511 1.165,-0.193 1.273,0.753 2.32,2.091 2.363,2.149 C 16.05,-6.125 4.288,-0.086 0,0"
             style="fill:#4fbe37;fill-opacity:1;fill-rule:nonzero;stroke:none"
             id="path3057"
             inkscape:connector-curvature="0" /></g><g
           id="g3059"
           transform="translate(430.5426,66.0842)"><path
             d="m 0,0 c -14.06,-1.548 -25.16,4.874 -16.756,6.432 0.04,0.004 1.07,0.248 1.275,0.854 0.202,0.608 0.262,0.805 0.5,1.673 0.15,0.55 0.275,0.864 0.418,1.287 0.221,0.658 -0.191,1.053 -1.128,0.595 -7.675,-3.746 -5.398,-10.748 0.835,-14.262 6.758,-3.812 12.997,-2.426 13.597,-2.248 0.6,0.174 1.209,0.322 1.855,1.291 0.353,0.647 0.901,1.444 0.753,3.222 C 1.349,-1.145 1.324,0.145 0,0"
             style="fill:#53c3da;fill-opacity:1;fill-rule:nonzero;stroke:none"
             id="path3061"
             inkscape:connector-curvature="0" /></g><g
           id="g3063"
           transform="translate(505.5917,56.7585)"><path
             d="m 0,0 0,-0.553 0.342,0 c 0.297,0 0.705,-0.048 0.705,0.253 0,0.279 -0.235,0.3 -0.498,0.3 L 0,0 z m 1.34,-1.887 -0.366,0 -0.562,1.018 -0.412,0 0,-1.018 -0.317,0 0,2.203 0.928,0 c 0.396,0 0.757,-0.119 0.757,-0.584 0,-0.434 -0.295,-0.59 -0.588,-0.601 l 0.56,-1.018 z m -2.55,1.119 c 0,-0.929 0.752,-1.645 1.648,-1.645 0.902,0 1.65,0.716 1.65,1.645 0,0.929 -0.748,1.638 -1.65,1.638 -0.896,0 -1.648,-0.709 -1.648,-1.638 m -0.318,0 c 0,1.092 0.871,1.961 1.966,1.961 1.1,0 1.97,-0.869 1.97,-1.961 0,-1.095 -0.87,-1.965 -1.97,-1.965 -1.095,0 -1.966,0.87 -1.966,1.965"
             style="fill:#04517d;fill-opacity:1;fill-rule:nonzero;stroke:none"
             id="path3065"
             inkscape:connector-curvature="0" /></g></g></g><g
       id="g3083"><g
         id="g3085"
         clip-path="url(#clipPath3087)"><g
           id="g3091"
           transform="translate(596.9666,632.4451)"><path
             d="m 0,0 5.603,0 c 38.599,0 84.655,-11.872 84.655,-68.352 0,-56.53 -46.056,-68.387 -84.655,-68.387 L 0,-136.739 0,0 z m 12.653,25.779 -40.389,0 0,-188.286 39.68,0 c 65.404,0 106.06,36.427 106.06,95.113 0,56.597 -41.361,93.173 -105.351,93.173"
             style="fill:#04517d;fill-opacity:1;fill-rule:nonzero;stroke:none"
             id="path3093"
             inkscape:connector-curvature="0" /></g><g
           id="g3095"
           transform="translate(842.192,547.5367)"><path
             d="m 0,0 c 0,-37.186 -13.668,-55.228 -41.803,-55.228 -28.173,0 -41.853,18.042 -41.853,55.228 l 0,110.687 -27.752,0 0,-118.475 c 0,-44.097 27.957,-73.706 69.605,-73.706 41.582,0 69.561,29.609 69.561,73.706 l 0,118.475 L 0,110.687 0,0 z"
             style="fill:#04517d;fill-opacity:1;fill-rule:nonzero;stroke:none"
             id="path3097"
             inkscape:connector-curvature="0" /></g><g
           id="g3099"
           transform="translate(948.7559,573.1714)"><path
             d="m 0,0 85.047,85.053 -36.836,0 -74.394,-76.013 0,76.013 -27.736,0 0,-188.286 27.736,0 0,78.003 6.573,6.241 68.164,-84.244 37.225,0 L 0,0 z"
             style="fill:#04517d;fill-opacity:1;fill-rule:nonzero;stroke:none"
             id="path3101"
             inkscape:connector-curvature="0" /></g><g
           id="g3103"
           transform="translate(1148.3374,495.7058)"><path
             d="m 0,0 -75.68,0 0,64.467 73.474,0 0,25.802 -73.474,0 0,46.47 75.68,0 0,25.779 -103.404,0 0,-188.285 L 0,-25.767 0,0 z"
             style="fill:#04517d;fill-opacity:1;fill-rule:nonzero;stroke:none"
             id="path3105"
             inkscape:connector-curvature="0" /></g><g
           id="g3107"
           transform="translate(571.1816,229.7176)"><path
             d="m 0,0 103.411,0 0,25.784 -75.686,0 0,64.474 73.468,0 0,25.784 -73.468,0 0,46.448 75.686,0 0,25.807 L 0,188.297 0,0 z"
             style="fill:#04517d;fill-opacity:1;fill-rule:nonzero;stroke:none"
             id="path3109"
             inkscape:connector-curvature="0" /></g><g
           id="g3111"
           transform="translate(886.2787,229.7176)"><path
             d="m 0,0 103.405,0 0,25.784 -75.68,0 0,64.474 73.507,0 0,25.784 -73.507,0 0,46.448 75.68,0 0,25.807 L 0,188.297 0,0 z"
             style="fill:#04517d;fill-opacity:1;fill-rule:nonzero;stroke:none"
             id="path3113"
             inkscape:connector-curvature="0" /></g><g
           id="g3115"
           transform="translate(886.2787,229.7176)"><path
             d="m 0,0 103.405,0 0,25.784 -75.68,0 0,64.474 73.507,0 0,25.784 -73.507,0 0,46.448 75.68,0 0,25.807 L 0,188.297 0,0 z"
             style="fill:#04517d;fill-opacity:1;fill-rule:nonzero;stroke:none"
             id="path3117"
             inkscape:connector-curvature="0" /></g><g
           id="g3119"
           transform="translate(834.4105,418.0144)"><path
             d="M 0,0 0,-131.861 -0.034,-131.85 -120.543,0 l -17.133,0 -0.054,0 0,-188.297 0.054,0 27.709,0 0,133.07 120.098,-133.07 17.548,0 L 27.679,0 0,0 z"
             style="fill:#04517d;fill-opacity:1;fill-rule:nonzero;stroke:none"
             id="path3121"
             inkscape:connector-curvature="0" /></g><g
           id="g3123"
           transform="translate(1092.8447,362.3217)"><path
             d="m 0,0 c 0,-21.584 -14.257,-31.151 -46.227,-31.151 l -4.866,0 0,61.547 3.647,0 C -15.087,30.396 0,20.729 0,0 m 26.272,0.942 c 0,19.156 -9.677,36.748 -25.32,45.927 -15.608,8.824 -34.441,8.824 -49.596,8.824 l -30.174,0 0,-188.297 27.725,0 0,77.609 5.797,0 53.987,-77.609 33.799,0 -58.375,80.435 c 25.03,4.856 42.157,26.129 42.157,53.111"
             style="fill:#04517d;fill-opacity:1;fill-rule:nonzero;stroke:none"
             id="path3125"
             inkscape:connector-curvature="0" /></g><g
           id="g3127"
           transform="translate(1240.5647,301.2521)"><path
             d="m 0,0 47.245,0 c -2.52,-28.18 -32.341,-49.652 -57.484,-49.652 -36.66,0 -68.841,33.888 -68.841,72.521 0,40.373 31.106,72.011 70.805,72.011 21.34,0 42.659,-11.097 55.69,-28.944 l 1.635,-2.228 19.683,18.778 -1.408,1.718 c -18.162,22.847 -46.756,36.461 -76.588,36.461 -53.787,0 -97.552,-44.221 -97.552,-98.562 0,-52.865 43.554,-97.518 95.123,-97.518 51.74,0 89.268,38.478 89.268,91.477 l 0,9.7 L 0,25.762 0,0 z"
             style="fill:#04517d;fill-opacity:1;fill-rule:nonzero;stroke:none"
             id="path3129"
             inkscape:connector-curvature="0" /></g></g></g><g
       id="g3159"><g
         id="g3161"
         clip-path="url(#clipPath3163)"><g
           id="g3167"
           transform="translate(1467.1284,268.007)"><path
             d="m 0,0 0,-8.071 5.006,0 c 4.336,0 10.284,-0.709 10.284,3.703 C 15.29,-0.311 11.851,0 8.014,0 L 0,0 z m 19.558,-27.536 -5.346,0 -8.196,14.854 -6.016,0 0,-14.854 -4.62,0 0,32.147 13.542,0 c 5.778,0 11.045,-1.729 11.045,-8.513 0,-6.342 -4.302,-8.614 -8.582,-8.78 l 8.173,-14.854 z m -37.209,16.339 c 0,-13.568 10.965,-24.022 24.053,-24.022 13.156,0 24.077,10.454 24.077,24.022 0,13.558 -10.921,23.9 -24.077,23.9 -13.088,0 -24.053,-10.342 -24.053,-23.9 m -4.643,0 c 0,15.919 12.713,28.611 28.696,28.611 16.051,0 28.754,-12.692 28.754,-28.611 0,-15.985 -12.703,-28.688 -28.754,-28.688 -15.983,0 -28.696,12.703 -28.696,28.688"
             style="fill:#04517d;fill-opacity:1;fill-rule:nonzero;stroke:none"
             id="path3169"
             inkscape:connector-curvature="0" /></g></g></g></g></svg>