<?xml version="1.0" encoding="UTF-8" standalone="no"?>
<!-- Created with Inkscape (http://www.inkscape.org/) -->

<svg
   xmlns:dc="http://purl.org/dc/elements/1.1/"
   xmlns:cc="http://creativecommons.org/ns#"
   xmlns:rdf="http://www.w3.org/1999/02/22-rdf-syntax-ns#"
   xmlns:svg="http://www.w3.org/2000/svg"
   xmlns="http://www.w3.org/2000/svg"
   xmlns:sodipodi="http://sodipodi.sourceforge.net/DTD/sodipodi-0.dtd"
   xmlns:inkscape="http://www.inkscape.org/namespaces/inkscape"
   id="svg2"
   version="1.1"
   inkscape:version="0.48.2 r9819"
   width="96.950249"
   height="29.621"
   xml:space="preserve"
   sodipodi:docname="Progress Energy.svg"><metadata
     id="metadata8"><rdf:RDF><cc:Work
         rdf:about=""><dc:format>image/svg+xml</dc:format><dc:type
           rdf:resource="http://purl.org/dc/dcmitype/StillImage" /><dc:title></dc:title></cc:Work></rdf:RDF></metadata><defs
     id="defs6"><clipPath
       clipPathUnits="userSpaceOnUse"
       id="clipPath16"><path
         d="m 1.5e-5,503.952 503.952005,0 0,-503.702 -503.952005,0 0,503.702 z"
         id="path18"
         inkscape:connector-curvature="0" /></clipPath><clipPath
       clipPathUnits="userSpaceOnUse"
       id="clipPath92"><path
         d="m 368.313,27.767 102.118,0 0,17.485 -102.118,0 0,-17.485 z"
         id="path94"
         inkscape:connector-curvature="0" /></clipPath><clipPath
       clipPathUnits="userSpaceOnUse"
       id="clipPath280"><path
         d="m 1.5e-5,503.952 503.952005,0 0,-503.702 -503.952005,0 0,503.702 z"
         id="path282"
         inkscape:connector-curvature="0" /></clipPath><clipPath
       clipPathUnits="userSpaceOnUse"
       id="clipPath292"><path
         d="m 1.5e-5,503.952 503.952005,0 0,-503.702 -503.952005,0 0,503.702 z"
         id="path294"
         inkscape:connector-curvature="0" /></clipPath><clipPath
       clipPathUnits="userSpaceOnUse"
       id="clipPath302"><path
         d="m 1.5e-5,503.952 503.952005,0 0,-503.702 -503.952005,0 0,503.702 z"
         id="path304"
         inkscape:connector-curvature="0" /></clipPath><clipPath
       clipPathUnits="userSpaceOnUse"
       id="clipPath4643"><path
         inkscape:connector-curvature="0"
         d="M 0,0 612,0 612,792 0,792 0,0 z"
         id="path4645" /></clipPath><clipPath
       clipPathUnits="userSpaceOnUse"
       id="clipPath4671"><path
         inkscape:connector-curvature="0"
         d="M 0,0 612,0 612,792 0,792 0,0 z"
         id="path4673" /></clipPath><clipPath
       clipPathUnits="userSpaceOnUse"
       id="clipPath4687"><path
         inkscape:connector-curvature="0"
         d="M 0,0 612,0 612,792 0,792 0,0 z"
         id="path4689" /></clipPath></defs><sodipodi:namedview
     pagecolor="#ffffff"
     bordercolor="#666666"
     borderopacity="1"
     objecttolerance="10"
     gridtolerance="10"
     guidetolerance="10"
     inkscape:pageopacity="0"
     inkscape:pageshadow="2"
     inkscape:window-width="1920"
     inkscape:window-height="1028"
     id="namedview4"
     showgrid="false"
     fit-margin-left="0.1"
     fit-margin-top="0.1"
     fit-margin-bottom="0.1"
     fit-margin-right="0.1"
     inkscape:zoom="2.9971108"
     inkscape:cx="-2.6862671"
     inkscape:cy="23.113452"
     inkscape:window-x="-8"
     inkscape:window-y="-8"
     inkscape:window-maximized="1"
     inkscape:current-layer="g10" /><g
     id="g10"
     inkscape:groupmode="layer"
     inkscape:label="flaresrates"
     transform="matrix(1.25,0,0,-1.25,-540.94046,24.06025)"><g
       id="g4789"
       transform="translate(-69.567632,-712.5644)"><g
         id="g4639"><g
           clip-path="url(#clipPath4643)"
           id="g4641"><g
             transform="translate(512.2807,717.3749)"
             id="g4647"><path
               id="path4649"
               style="fill:#ee2722;fill-opacity:1;fill-rule:nonzero;stroke:none"
               d="M 0,0 C 4.473,3.384 12.189,3.267 12.189,3.267 12.07,0.478 10.652,-1.661 10.652,-1.661 8.233,-5.633 4.238,-6.454 4.238,-6.454 1.873,-7.04 0.014,-6.854 -0.686,-6.464 -2.634,-5.376 -2.16,-2.933 -2.16,-2.933 -1.85,-1.565 -1.008,-0.763 0,0"
               inkscape:connector-curvature="0" /></g><g
             transform="translate(507.246,710.7266)"
             id="g4651"><path
               id="path4653"
               style="fill:#ee2722;fill-opacity:1;fill-rule:nonzero;stroke:none"
               d="m 0,0 -4.846,0 3.679,21.006 8.118,0 c 2.425,-0.02 4.216,-0.959 4.216,-0.959 1.964,-0.903 3.367,-2.513 3.367,-2.513 2.708,-2.965 2.684,-6.6 2.684,-6.6 C 12.168,11.129 9.484,10.678 9.484,10.678 3.592,9.93 0.355,7.75 0.355,7.75 -2.101,6.254 -2.56,4.626 -2.56,4.626 -3.626,1.743 0,0 0,0"
               inkscape:connector-curvature="0" /></g><g
             transform="translate(527.1356,721.7022)"
             id="g4655"><path
               id="path4657"
               style="fill:#231f20;fill-opacity:1;fill-rule:nonzero;stroke:none"
               d="m 0,0 1.761,9.987 4.383,0 c 3.218,0 4.951,-1.498 4.371,-4.786 C 9.852,1.442 7.504,0 4.299,0 L 0,0 z m 3.684,2.33 0.694,0 c 1.526,0 2.499,0.805 2.832,2.691 0.367,2.081 -0.215,2.635 -1.963,2.635 l -0.624,0 L 3.684,2.33 z"
               inkscape:connector-curvature="0" /></g><g
             transform="translate(545.3192,721.7022)"
             id="g4659"><path
               id="path4661"
               style="fill:#231f20;fill-opacity:1;fill-rule:nonzero;stroke:none"
               d="m 0,0 -2.676,0 0.188,1.068 c -0.898,-0.998 -1.654,-1.276 -2.847,-1.276 -1.581,0 -2.436,0.971 -2.069,3.051 l 0.78,4.425 2.885,0 -0.692,-3.925 c -0.177,-0.999 0.114,-1.318 0.808,-1.318 0.832,0 1.206,0.624 1.404,1.748 l 0.616,3.495 2.885,0 L 0,0 z"
               inkscape:connector-curvature="0" /></g></g></g><g
         transform="translate(549.7015,723.7413)"
         id="g4663"><path
           id="path4665"
           style="fill:#231f20;fill-opacity:1;fill-rule:nonzero;stroke:none"
           d="m 0,0 -0.359,-2.039 -2.886,0 1.761,9.987 2.885,0 -0.87,-4.938 2.236,2.219 3.37,0 -3.187,-2.816 2.253,-4.452 -3.468,0 L 0.636,0.541 0,0 z"
           inkscape:connector-curvature="0" /></g><g
         id="g4667"><g
           clip-path="url(#clipPath4671)"
           id="g4669"><g
             transform="translate(557.7044,724.6841)"
             id="g4675"><path
               id="path4677"
               style="fill:#231f20;fill-opacity:1;fill-rule:nonzero;stroke:none"
               d="m 0,0 c -0.152,-0.86 0.414,-1.429 1.176,-1.429 0.459,0 0.912,0.209 1.195,0.638 l 2.76,0 C 4.314,-2.594 2.379,-3.19 0.686,-3.19 c -2.33,0 -3.899,1.331 -3.469,3.773 0.421,2.386 2.479,3.911 4.81,3.911 C 4.718,4.494 6.013,2.635 5.506,0 L 0,0 z M 2.881,1.47 C 2.998,2.136 2.507,2.732 1.827,2.732 0.968,2.732 0.396,2.247 0.26,1.47 l 2.621,0 z"
               inkscape:connector-curvature="0" /></g></g></g><g
         transform="translate(525.2004,710.6649)"
         id="g4679"><path
           id="path4681"
           style="fill:#231f20;fill-opacity:1;fill-rule:nonzero;stroke:none"
           d="m 0,0 1.761,9.986 8.142,0 -0.411,-2.329 -4.869,0 -0.251,-1.43 4.119,0 -0.411,-2.33 -4.119,0 L 3.685,2.33 8.747,2.33 8.336,0 0,0 z"
           inkscape:connector-curvature="0" /></g><g
         id="g4683"><g
           clip-path="url(#clipPath4687)"
           id="g4685"><g
             transform="translate(535.8305,717.9323)"
             id="g4691"><path
               id="path4693"
               style="fill:#231f20;fill-opacity:1;fill-rule:nonzero;stroke:none"
               d="M 0,0 2.635,0 2.434,-1.137 c 0.807,0.873 1.597,1.345 2.693,1.345 1.914,0 2.618,-1.123 2.265,-3.12 l -0.767,-4.355 -2.885,0 0.677,3.841 c 0.127,0.721 0.045,1.36 -0.773,1.36 -0.888,0 -1.224,-0.569 -1.388,-1.498 l -0.653,-3.703 -2.884,0 L 0,0 z"
               inkscape:connector-curvature="0" /></g><g
             transform="translate(546.6987,713.6469)"
             id="g4695"><path
               id="path4697"
               style="fill:#231f20;fill-opacity:1;fill-rule:nonzero;stroke:none"
               d="m 0,0 c -0.152,-0.86 0.413,-1.429 1.176,-1.429 0.458,0 0.91,0.208 1.195,0.638 l 2.76,0 C 4.313,-2.594 2.377,-3.19 0.685,-3.19 c -2.33,0 -3.899,1.331 -3.468,3.772 0.421,2.386 2.479,3.912 4.809,3.912 2.691,0 3.986,-1.859 3.48,-4.494 L 0,0 z M 2.88,1.47 C 2.998,2.136 2.507,2.732 1.827,2.732 0.966,2.732 0.396,2.247 0.258,1.47 l 2.622,0 z"
               inkscape:connector-curvature="0" /></g><g
             transform="translate(553.8334,717.9323)"
             id="g4699"><path
               id="path4701"
               style="fill:#231f20;fill-opacity:1;fill-rule:nonzero;stroke:none"
               d="m 0,0 2.622,0 -0.259,-1.47 0.028,0 c 0.603,1.137 1.405,1.678 2.529,1.678 0.125,0 0.245,-0.027 0.367,-0.041 L 4.778,-2.718 c -0.19,0.028 -0.388,0.083 -0.582,0.083 -1.179,0 -1.872,-0.555 -2.149,-2.122 l -0.443,-2.51 -2.885,0 L 0,0 z"
               inkscape:connector-curvature="0" /></g><g
             transform="translate(561.6685,710.2899)"
             id="g4703"><path
               id="path4705"
               style="fill:#231f20;fill-opacity:1;fill-rule:nonzero;stroke:none"
               d="M 0,0 C -0.014,-0.083 0.018,-0.208 0.125,-0.319 0.229,-0.43 0.426,-0.5 0.717,-0.5 c 0.832,0 1.23,0.375 1.414,1.415 L 2.236,1.512 C 1.747,1.096 1.057,0.721 0.016,0.721 c -2.011,0 -2.883,1.582 -2.556,3.44 0.316,1.79 1.511,3.69 3.897,3.69 0.874,0 1.611,-0.458 1.999,-1.165 l 0.169,0.956 2.538,0 L 5.032,1.79 C 4.647,-0.388 4.097,-2.094 0.519,-2.094 -2.048,-2.094 -2.948,-1.067 -2.899,0 L 0,0 z M 0.34,4.134 C 0.213,3.412 0.454,2.733 1.229,2.718 2.109,2.677 2.576,3.44 2.713,4.216 2.855,5.021 2.684,5.784 1.769,5.784 0.898,5.798 0.507,5.077 0.34,4.134"
               inkscape:connector-curvature="0" /></g><g
             transform="translate(571.7132,713.4528)"
             id="g4707"><path
               id="path4709"
               style="fill:#231f20;fill-opacity:1;fill-rule:nonzero;stroke:none"
               d="m 0,0 2.052,4.479 2.775,0 L 1.3,-2.303 c -1.158,-2.247 -1.589,-2.954 -4.155,-2.954 -0.527,0 -1.044,0.055 -1.266,0.055 l 0.355,2.012 c 0.208,0 0.4,-0.015 0.594,-0.015 0.901,0 1.156,0.264 1.006,1.069 l -1.219,6.615 2.899,0 L 0,0 z"
               inkscape:connector-curvature="0" /></g><g
             transform="translate(575.8622,712.5598)"
             id="g4711"><path
               id="path4713"
               style="fill:#231f20;fill-opacity:1;fill-rule:nonzero;stroke:none"
               d="M 0,0 C 0,1.115 0.905,1.938 1.974,1.938 3.033,1.938 3.938,1.115 3.938,0 3.938,-1.126 3.033,-1.949 1.974,-1.949 0.905,-1.949 0,-1.126 0,0 m 1.974,-1.625 c 0.879,0 1.573,0.689 1.573,1.625 0,0.92 -0.694,1.614 -1.573,1.614 C 1.084,1.614 0.391,0.92 0.391,0 c 0,-0.936 0.693,-1.625 1.583,-1.625 m -0.411,0.499 -0.34,0 0,2.241 0.854,0 c 0.53,0 0.792,-0.195 0.792,-0.636 0,-0.402 -0.252,-0.577 -0.581,-0.618 l 0.637,-0.987 -0.38,0 -0.591,0.971 -0.391,0 0,-0.971 z m 0.406,1.26 c 0.288,0 0.545,0.02 0.545,0.364 0,0.278 -0.252,0.329 -0.489,0.329 l -0.462,0 0,-0.693 0.406,0 z"
               inkscape:connector-curvature="0" /></g></g></g></g></g></svg>