<?xml version="1.0" encoding="UTF-8" standalone="no"?>
<svg
   xmlns:dc="http://purl.org/dc/elements/1.1/"
   xmlns:cc="http://creativecommons.org/ns#"
   xmlns:rdf="http://www.w3.org/1999/02/22-rdf-syntax-ns#"
   xmlns:svg="http://www.w3.org/2000/svg"
   xmlns="http://www.w3.org/2000/svg"
   xmlns:sodipodi="http://sodipodi.sourceforge.net/DTD/sodipodi-0.dtd"
   xmlns:inkscape="http://www.inkscape.org/namespaces/inkscape"
   version="1.1"
   id="Layer_1"
   x="0px"
   y="0px"
   width="501"
   height="358"
   viewBox="0 0 501 357.99999"
   enable-background="new 0 0 595.276 841.89"
   xml:space="preserve">
<path
   style="fill:#cecfcf"
   id="path11"
   d="M 109.33868,117.26195 C 93.296023,127.32242 73.643253,163.13749 79.641041,210.47476 91.985145,307.81268 232.30114,314.85605 231.29197,313.644 231.18794,313.52956 118.23912,297.62736 106.74293,208.33678 91.626214,90.888327 312.14507,17.71843 312.14507,17.71843 243.08988,34.827472 25.093939,69.976697 27.944579,210.94293 30.946074,359.4051 258.86203,358.27629 257.75403,356.77294 257.64479,356.61688 70.657363,340.83432 59.572119,214.57386 57.038794,185.67211 70.42848,148.23925 109.22423,116.94984 l 0.11445,0.31211"
   clip-path="none" /><path
   style="fill:none;stroke:#cecfcf;stroke-width:1.87268341;stroke-miterlimit:3.86400008"
   id="path13"
   d="M 109.33868,117.26195 C 93.296023,127.32242 73.643253,163.13749 79.641041,210.47476 91.985145,307.81268 232.30114,314.85605 231.29197,313.644 231.18794,313.52956 118.23912,297.62736 106.74293,208.33678 91.626214,90.888327 312.14507,17.71843 312.14507,17.71843 243.08988,34.827472 25.093939,69.976697 27.944579,210.94293 30.946074,359.4051 258.86203,358.27629 257.75403,356.77294 257.64479,356.61688 70.657363,340.83432 59.572119,214.57386 57.038794,185.67211 70.42848,148.23925 109.22423,116.94984 l 0.11445,0.31211 z"
   stroke-miterlimit="3.864"
   clip-path="none" /><polyline
   style="fill:#cecfcf"
   points="531.165,739.333 521.329,739.003 524.263,741.925 523.602,746.227 531.165,739.333 "
   id="polyline15"
   clip-path="none"
   transform="matrix(5.201898,0,0,5.201898,-2409.8729,-3843.2239)" /><polygon
   style="fill:none;stroke:#cecfcf;stroke-width:0.36000001;stroke-miterlimit:3.86400008"
   stroke-miterlimit="3.864"
   points="531.165,739.333 521.329,739.003 524.263,741.925 523.602,746.227 "
   id="polygon17"
   clip-path="none"
   transform="matrix(5.201898,0,0,5.201898,-2409.8729,-3843.2239)" /><polyline
   style="fill:#0e9ed1"
   points="545.814,740.92 547.585,752.019 558.683,753.791 559.579,753.969 558.683,754.148 547.585,755.919   545.814,767.018 545.635,767.917 545.455,767.018 543.685,755.919 532.583,754.148 531.687,753.969 532.583,753.791   543.685,752.019 545.455,740.92 545.635,740.022 545.814,740.92 "
   id="polyline19"
   clip-path="none"
   transform="matrix(5.201898,0,0,5.201898,-2409.8729,-3843.2239)" /><polyline
   style="fill:#ffffff"
   points="543.93,752.086 545.635,741.396 545.635,753.793 543.93,752.086 "
   id="polyline21"
   clip-path="none"
   transform="matrix(5.201898,0,0,5.201898,-2409.8729,-3843.2239)" /><polyline
   style="fill:#ffffff"
   points="533.06,753.969 543.751,752.264 545.456,753.969 533.06,753.969 "
   id="polyline23"
   clip-path="none"
   transform="matrix(5.201898,0,0,5.201898,-2409.8729,-3843.2239)" /><polyline
   style="fill:#ffffff"
   points="547.365,752.239 558.206,753.969 545.795,753.969 547.723,755.897 547.585,755.919   547.566,756.041 545.635,754.11 545.635,766.542 543.906,755.699 547.365,752.239 "
   id="polyline25"
   clip-path="none"
   transform="matrix(5.201898,0,0,5.201898,-2409.8729,-3843.2239)" /><path
   style="fill:#151616;fill-rule:evenodd"
   clip-rule="evenodd"
   d="m 111.47666,198.09944 h 28.62604 l -13.6966,-36.93347 -14.92944,36.93347 m 11.38695,-56.93997 h 15.85018 l 40.16906,97.5772 H 155.34426 L 144.57113,209.64246 H 106.71172 L 95.01265,238.73667 H 76.244202 l 46.619408,-97.5772 z"
   id="path27"
   clip-path="none" /><path
   style="fill:#151616"
   d="m 366.27082,145.10251 c -0.31731,-1.38891 -0.31731,-2.00273 -1.69582,-2.62176 -1.53456,-0.60862 -11.84992,-3.07952 -22.4722,-3.07952 -22.61785,0 -39.39917,10.47142 -39.39917,28.48039 0,17.69165 15.09071,24.16282 30.17621,30.62877 13.08277,5.69088 19.08056,8.15658 19.08056,16.00624 0,6.46076 -4.62449,13.38449 -17.69686,13.38449 -3.23037,0 -10.92398,-0.15086 -22.62305,-6.31511 -2.48651,-1.30567 -8.26061,-5.05104 -9.45705,-4.57246 l -1.0872,0.44216 c -1.07679,0.61382 -0.38494,4.28636 -0.22888,6.13824 l 1.3837,10.62227 c 0.15606,1.69062 0.31212,2.15359 2.62176,2.76221 7.07458,2.15359 19.54353,3.69855 27.3932,3.69855 23.39293,0 39.09226,-13.85265 39.09226,-30.47272 0,-16.31315 -12.31289,-21.85317 -28.46999,-29.23987 -16.00624,-7.38669 -20.62552,-9.38942 -20.62552,-17.23909 0,-7.38669 5.99778,-12.30769 16.61486,-12.30769 7.38669,0 13.85265,2.61656 17.70206,4.45803 4.61408,2.37206 8.09935,5.16028 9.23857,4.80135 l 1.23805,-0.68145 c 0.67104,-0.46297 0.44216,-3.96384 0.29651,-5.81052 l -1.082,-9.08251"
   id="path29"
   clip-path="none" /><path
   style="fill:#151616;fill-rule:evenodd"
   clip-rule="evenodd"
   d="m 213.39224,152.45279 v 74.18947 h 13.32727 c 20.92723,0 39.24832,-4.15632 39.24832,-37.5525 0,-22.78432 -7.3867,-36.94388 -38.01548,-36.94388 -5.54522,0 -7.63638,0.15085 -14.56011,0.30691 m -21.3954,86.3411 v -97.5772 c 9.54028,0 20.09493,-1.07679 31.78879,-1.07679 h 6.31511 c 15.54327,0 58.47453,0 58.47453,46.47896 0,22.77911 -10.92398,37.08953 -22.77391,44.01325 -13.85265,8.16178 -37.5525,8.16178 -45.55302,8.16178 h -28.2515 z"
   id="path31"
   clip-path="none" /><polyline
   style="fill:#151616"
   points="463.268,765.947 463.268,784.706 477.035,784.706 477.035,782.22 467.38,782.22 467.38,776.007   475.901,776.007 475.901,773.669 467.38,773.669 467.38,768.255 476.877,768.255 476.877,765.947 463.268,765.947 "
   id="polyline33"
   clip-path="none"
   transform="matrix(5.201898,0,0,5.201898,-2409.8729,-3843.2239)" />
</svg>