<?xml version="1.0" encoding="utf-8"?>
<!DOCTYPE svg PUBLIC "-//W3C//DTD SVG 1.1//EN" "http://www.w3.org/Graphics/SVG/1.1/DTD/svg11.dtd">
<svg version="1.1" id="VARG" xmlns="http://www.w3.org/2000/svg" xmlns:xlink="http://www.w3.org/1999/xlink" x="0px" y="0px"
 width="216px" height="29px" viewBox="0 0 216 29" enable-background="new 0 0 216 29" xml:space="preserve">
<g>
<path d="M2.707,2.181h26.078v25.421H2.707V2.181L2.707,2.181z M20.251,25.931l1.492-0.716l1.432-1.015l1.134-1.133l1.074-1.373
l0.895-1.492l0.597-1.612l0.418-1.67l0.179-1.731l-0.179-1.85l-0.418-1.671l-0.597-1.671l-0.895-1.432L24.31,7.193L23.175,6
l-1.432-0.955L20.251,4.27V25.931L20.251,25.931z M18.401,26.528l-0.537-2.148l-0.775-1.969l-1.194-1.791l-1.432-1.432l-1.73-1.253
l-1.85-0.955l-2.089-0.597l-2.148-0.179H6.288H5.989H5.691H5.333l-0.298,0.06l-0.239,0.059H4.438l-0.238,0.12l0.417,2.088
l0.776,1.97l1.134,1.79l1.492,1.492l1.612,1.253l1.909,0.895l2.029,0.597l2.208,0.239l0.358-0.06h0.299h0.298h0.358l0.357-0.06
l0.299-0.06h0.358L18.401,26.528L18.401,26.528z M4.14,14.235l0.238,0.06h0.358l0.238,0.06l0.298,0.06h0.358H5.93h0.298l0.298,0.06
l2.268-0.239l2.148-0.656l1.969-0.895l1.67-1.373l1.492-1.551l1.134-1.85l0.835-2.029l0.417-2.148l-0.298-0.119h-0.358l-0.358-0.06
l-0.298-0.06H16.79h-0.298h-0.358h-0.358l-2.268,0.179L11.419,4.27L9.51,5.224L7.839,6.597L6.348,8.148l-1.075,1.85l-0.835,2.029
L4.14,14.235z"/>
<path d="M58.383,8.864V2.957H37.796l0.775,0.239l0.716,0.298l0.597,0.239l0.417,0.298l0.418,0.298l0.238,0.537l0.179,0.597
l0.06,0.776v17.783l-0.06,0.597l-0.179,0.597l-0.238,0.418l-0.418,0.478l-0.478,0.357l-0.597,0.358l-0.656,0.417l-0.775,0.418
H58.86v-6.027l-0.478,0.716l-0.358,0.776l-0.477,0.597l-0.537,0.656l-0.895,0.477l-1.432,0.478l-1.969,0.239l-2.566,0.119
l-0.418-0.06h-0.478l-0.477-0.06l-0.657-0.06l-0.537-0.179l-0.478-0.239l-0.298-0.418l-0.06-0.417v-9.13h4.894h1.074l0.835,0.06
l0.597,0.12l0.298,0.179l0.239,0.418l0.179,0.477l0.239,0.657l0.298,0.895v-7.101l-0.418,0.955l-0.417,0.656l-0.418,0.478
l-0.478,0.299l-0.418,0.179l-0.478,0.06h-0.417h-0.418h-5.192V6V5.522l0.12-0.418l0.119-0.238l0.179-0.179l0.18-0.06l0.238-0.06
h0.239h0.239h2.805l2.208,0.06l1.551,0.239l1.134,0.358l0.775,0.597l0.537,0.596l0.358,0.716l0.358,0.835L58.383,8.864
L58.383,8.864z M195.216,14.474l5.61,5.788l-4.536,4.476l-0.298,0.18l-0.299,0.357l-0.477,0.299l-0.537,0.357l-0.657,0.418
l-0.776,0.417l-0.895,0.477l-0.955,0.418h8.951l-0.657-0.18l-0.478-0.179l-0.537-0.239l-0.358-0.298l-0.238-0.358l-0.12-0.358
l0.06-0.417l0.239-0.358l0.298-0.537l0.478-0.477l0.418-0.537l0.478-0.478l0.477-0.537l0.538-0.478l0.477-0.597l0.597-0.418
l2.625,3.103l0.179,0.239l0.298,0.478l0.06,0.418v0.477l-0.119,0.537l-0.358,0.478l-0.537,0.418l-0.776,0.299h11.995l-1.492-0.896
l-1.373-1.015l-1.313-1.134l-1.373-1.253l-1.253-1.253l-1.193-1.373l-1.134-1.313l-1.015-1.193l4.237-3.76l0.835-0.716l0.657-0.596
l0.537-0.418l0.478-0.418l0.478-0.298l0.417-0.239l0.537-0.298l0.597-0.299h-8.533l0.238,0.179l0.358,0.298l0.298,0.299
l0.239,0.298l0.119,0.298l0.179,0.358l0.12,0.418l0.06,0.478l-0.18,0.417l-0.238,0.478l-0.358,0.477l-0.537,0.358l-0.418,0.478
l-0.417,0.417l-0.478,0.417l-0.238,0.299l-0.299-0.358l-0.418-0.418l-0.358-0.417l-0.477-0.537l-0.358-0.418l-0.298-0.537
l-0.18-0.417l-0.119-0.478v-0.179v-0.179l0.119-0.239l0.18-0.298l0.179-0.418l0.239-0.358l0.358-0.417l0.597-0.299h-12.233
l0.716,0.358l0.597,0.418l0.596,0.417l0.478,0.477l0.478,0.358l0.358,0.478l0.418,0.358L195.216,14.474L195.216,14.474z
 M157.979,3.613l0.418,0.119l0.478,0.179l0.417,0.12l0.418,0.179l0.299,0.299l0.179,0.358l0.179,0.597l0.06,0.776V24.32
l-0.06,0.537l-0.12,0.537l-0.119,0.417l-0.299,0.418l-0.357,0.358l-0.418,0.358l-0.537,0.358l-0.537,0.358h10.443l-0.657-0.418
l-0.537-0.417l-0.478-0.358l-0.358-0.298l-0.298-0.418l-0.298-0.417l-0.119-0.537V24.32V2.181L157.979,3.613L157.979,3.613z
 M59.935,3.613l0.537,0.059l0.418,0.12l0.478,0.119l0.358,0.12l0.298,0.179l0.239,0.358l0.179,0.358l0.06,0.537V24.32l-0.06,0.537
l-0.059,0.537l-0.18,0.417l-0.238,0.358l-0.358,0.358l-0.417,0.298l-0.597,0.417l-0.656,0.418h10.443l-0.716-0.478l-0.537-0.418
l-0.417-0.299l-0.298-0.298l-0.358-0.358l-0.179-0.357l-0.12-0.537V24.32V1.524L59.935,3.613L59.935,3.613z M95.739,18.949v1.73
l0.358,1.432l0.537,1.134l0.656,0.895l0.776,0.537l0.716,0.418l0.716,0.239l0.716,0.06l1.372-0.06l1.254-0.12l1.015-0.298
l0.895-0.299l0.775-0.418l0.657-0.537l0.776-0.597l0.836-0.716l-0.776,1.313l-0.895,1.134l-0.955,0.955l-0.955,0.716l-1.193,0.597
l-1.253,0.358l-1.313,0.179l-1.373,0.119l-2.268-0.239l-1.85-0.597l-1.671-0.835l-1.313-1.193l-1.015-1.313l-0.716-1.491
l-0.537-1.612l-0.12-1.611l0.418-3.282l1.193-2.387l1.91-1.73l2.447-1.134l2.864-0.537l3.043-0.06l3.044,0.358l2.924,0.835v5.371
l-0.418-0.895l-0.478-0.896l-0.775-0.716l-0.835-0.716l-1.015-0.597l-1.074-0.357l-1.134-0.119l-1.193,0.179l-1.015,0.298
l-0.955,0.478l-0.835,0.597l-0.597,0.776l-0.597,0.955l-0.418,1.015l-0.298,1.253L95.739,18.949L95.739,18.949z M80.463,25.394
l1.253-0.06l1.074-0.179l1.014-0.298l1.015-0.358l0.835-0.418l0.835-0.537l0.835-0.537l0.836-0.656l-0.836,1.313l-0.835,1.134
l-0.955,0.955l-1.074,0.716l-1.134,0.597l-1.253,0.358l-1.313,0.179l-1.432,0.119l-2.208-0.239l-1.91-0.597L73.66,26.05
l-1.433-1.193l-1.074-1.313l-0.716-1.491L69.9,20.441l-0.119-1.611L69.9,17.04l0.537-1.67l0.775-1.433l1.134-1.373l1.432-1.074
l1.611-0.835l1.85-0.537l2.089-0.179l1.79,0.119l1.671,0.418l1.492,0.775l1.253,1.015l1.074,1.193l0.835,1.492l0.537,1.551
l0.18,1.85v0.955H76.106v1.67l0.298,1.313l0.597,1.074l0.656,0.776l0.716,0.537l0.716,0.418l0.776,0.239L80.463,25.394
L80.463,25.394z M76.106,16.92h6.922l-0.06-0.418l-0.119-0.537l-0.298-0.716l-0.298-0.835l-0.418-0.835l-0.656-0.657l-0.776-0.537
l-0.895-0.12h-0.537l-0.597,0.179l-0.537,0.358L77.3,13.221l-0.478,0.656l-0.417,0.716l-0.239,1.015L76.106,16.92L76.106,16.92z
 M116.565,10.416V2.957l-7.877,9.19h2.805v9.07v0.895l0.12,1.074l0.298,1.074l0.358,1.074l0.657,0.955l0.895,0.776l1.074,0.537
l1.433,0.179l1.074-0.119l1.014-0.18l0.955-0.358l0.896-0.597l0.716-0.716l0.537-0.895l0.418-0.955l0.119-1.253l-0.716,0.775
l-0.835,0.776l-0.954,0.477l-0.836,0.358l-0.835-0.06l-0.716-0.478l-0.477-1.015l-0.12-1.491v-9.906h4.297v-1.73H116.565
L116.565,10.416z M125.696,13.042v11.398l-0.061,0.656l-0.059,0.478l-0.12,0.477l-0.179,0.358l-0.298,0.358l-0.358,0.298
l-0.358,0.298l-0.358,0.299h7.938l-0.597-0.418l-0.478-0.477l-0.298-0.299l-0.179-0.357l-0.12-0.418l-0.06-0.358v-0.478v-0.417
v-6.206l0.18-2.447l0.716-1.492l0.836-0.835l1.074-0.179l1.133,0.179l1.015,0.537l0.717,0.597l0.477,0.657l1.671-5.072
l-1.313-0.239l-1.193,0.06l-1.074,0.179l-0.955,0.478l-0.895,0.537l-0.836,0.657l-0.716,0.596l-0.776,0.776v-2.924h-0.776h-0.775
h-0.776h-0.775h-0.835h-0.835h-0.776h-0.657l0.299,0.239l0.358,0.298l0.298,0.239l0.299,0.298l0.179,0.358l0.119,0.358l0.119,0.417
L125.696,13.042L125.696,13.042z M138.347,18.591l0.179,1.97l0.537,1.79l0.955,1.611l1.253,1.313l1.373,1.015l1.551,0.776
l1.73,0.478l1.85,0.179l2.029-0.179l1.91-0.597l1.611-0.775l1.432-1.074l1.193-1.372l0.835-1.552l0.537-1.731l0.179-1.85
l-0.179-1.909l-0.537-1.611l-0.835-1.552l-1.193-1.253l-1.432-1.015l-1.611-0.775l-1.91-0.418l-2.029-0.119l-1.85,0.119
l-1.73,0.358l-1.551,0.716l-1.373,1.015l-1.253,1.193l-0.955,1.552l-0.537,1.671L138.347,18.591L138.347,18.591z M144.075,18.591
v-1.193v-1.253l0.239-1.074l0.238-1.134l0.418-0.955l0.656-0.775l0.896-0.478l1.253-0.179l1.313,0.239l1.015,0.537l0.716,0.836
l0.478,1.074l0.298,1.134l0.179,1.074v1.134l0.06,1.014l-0.06,1.193l-0.06,1.313l-0.179,1.134l-0.358,1.134l-0.478,0.895
l-0.775,0.657l-0.955,0.537l-1.193,0.179l-1.253-0.179l-0.896-0.537l-0.656-0.717l-0.418-0.954l-0.238-1.074l-0.239-1.194v-1.253
V18.591L144.075,18.591z M187.816,10.177v13.844v0.537l0.06,0.597l0.179,0.478l0.179,0.537l0.358,0.417l0.358,0.478l0.478,0.298
l0.597,0.299h-7.161l-0.119-2.745l-0.955,0.835l-1.015,0.716l-1.074,0.597l-1.074,0.358l-1.074,0.239l-1.074,0.179l-0.895,0.06
l-0.776,0.06l-1.193-0.119l-1.074-0.358l-0.895-0.597l-0.716-0.656l-0.537-0.895l-0.358-0.955l-0.298-1.015l-0.06-1.015v-8.652
l-0.06-0.597l-0.06-0.358l-0.18-0.358l-0.179-0.239l-0.239-0.179l-0.358-0.18l-0.298-0.239l-0.358-0.179l6.862-1.193v12.412
l0.358,1.492l0.835,0.776l1.313,0.358l1.432-0.06l1.433-0.418l1.313-0.596l0.896-0.657l0.358-0.656v-9.13l-0.06-0.597l-0.119-0.417
l-0.179-0.358l-0.299-0.238l-0.298-0.179l-0.358-0.179l-0.418-0.238l-0.358-0.12L187.816,10.177z"/>
</g>
</svg>
