<?xml version="1.0" encoding="utf-8"?>
<!DOCTYPE svg PUBLIC "-//W3C//DTD SVG 1.1//EN" "http://www.w3.org/Graphics/SVG/1.1/DTD/svg11.dtd">
<svg version="1.1" xmlns="http://www.w3.org/2000/svg" width="1020" height="495">
	<rect width="1020" height="495" fill="#CF001A" />
	<path d="M 480.67207,234.84785 529.48997,380.24708 591.1622,380.24708 639.40234,234.84785 639.40234,380.24708 730.53866,380.24708 730.53866,113.88645 605.89421,113.88645 561.84259,240.95739 517.79098,113.88645 389.53581,113.88645 389.53581,380.24708 480.67207,380.24708 480.67207,234.84785 M 780.65632,380.24708 882.04722,380.24708 882.04722,113.88645 780.65632,113.88645 780.65632,380.24708 z M 342.56004,320.54686 228.34385,320.54686 228.34385,278.4035 342.56004,278.4035 342.56004,217.95311 228.34385,217.95311 228.34385,173.97614 342.56004,173.97614 342.56004,114.13202 137.95273,114.13202 137.95273,380.39098 342.56004,380.39098 342.56004,320.54686" fill="#FFF" />
</svg>
