<?xml version="1.0" encoding="UTF-8"?>
<!DOCTYPE svg PUBLIC "-//W3C//DTD SVG 1.1//EN" "http://www.w3.org/Graphics/SVG/1.1/DTD/svg11.dtd">
<!-- Creator: CorelDRAW X6 -->
<svg xmlns="http://www.w3.org/2000/svg" xml:space="preserve" width="46.55in" height="25.75in" version="1.1" style="shape-rendering:geometricPrecision; text-rendering:geometricPrecision; image-rendering:optimizeQuality; fill-rule:evenodd; clip-rule:evenodd"
viewBox="0 0 46550 25750"
 xmlns:xlink="http://www.w3.org/1999/xlink"
 xmlns:dc="http://purl.org/dc/elements/1.1/"
 xmlns:cc="http://creativecommons.org/ns#"
 xmlns:rdf="http://www.w3.org/1999/02/22-rdf-syntax-ns#"
 xmlns:svg="http://www.w3.org/2000/svg">
 <defs>
  <style type="text/css">
   <![CDATA[
    .fil0 {fill:#ED3237}
    .fil1 {fill:#FEFEFE}
   ]]>
  </style>
 </defs>
 <g id="Layer_x0020_1">
  <metadata id="CorelCorpID_0Corel-Layer"/>
  <g id="_192482120">
   <polygon class="fil0" points="46526,9 39,9 20,25698 46526,25714 "/>
   <polygon class="fil1" points="45005,1602 1488,1602 1470,24189 45005,24203 "/>
   <polygon class="fil0" points="43505,3078 3022,3078 3005,22649 43505,22661 "/>
   <polygon class="fil1" points="32119,7568 27119,7568 25349,12651 23640,7568 18453,7568 18449,18217 22119,18224 22119,12579 24036,18228 26557,18233 28432,12583 28432,18236 32114,18244 "/>
   <polygon class="fil1" points="16557,7568 8373,7568 8369,18217 16557,18224 16557,15807 12010,15807 12010,14172 16557,14172 16557,11682 12010,11682 12010,9974 16557,9974 "/>
   <polygon class="fil1" points="38244,7568 34205,7568 34203,18217 38244,18224 "/>
  </g>
 </g>
</svg>
