<?xml version="1.0" encoding="UTF-8" standalone="no"?>
<svg
   xmlns:dc="http://purl.org/dc/elements/1.1/"
   xmlns:cc="http://creativecommons.org/ns#"
   xmlns:rdf="http://www.w3.org/1999/02/22-rdf-syntax-ns#"
   xmlns:svg="http://www.w3.org/2000/svg"
   xmlns="http://www.w3.org/2000/svg"
   xmlns:sodipodi="http://sodipodi.sourceforge.net/DTD/sodipodi-0.dtd"
   xmlns:inkscape="http://www.inkscape.org/namespaces/inkscape"
   version="1.1"
   id="Layer_1"
   x="0px"
   y="0px"
   width="772"
   height="293"
   viewBox="0 0 772 293"
   enable-background="new 0 0 680 907"
   xml:space="preserve">
<path
   style="fill:#2f84c5"
   inkscape:connector-curvature="0"
   d="m 743.02177,163.90716 -58.25456,128.72828 c -11.83172,1.03316 -23.42501,-0.50665 -35.84285,-0.0397 l 59.06917,-128.73821 c 12.62646,-0.0397 23.13692,0.21855 35.02824,0.0497"
   id="path3" /><path
   style="fill:#2f84c5"
   inkscape:connector-curvature="0"
   d="m 690.82711,200.57455 c 0,0 -37.90917,82.75248 0,0"
   id="path5" /><path
   style="fill:#2f84c5"
   inkscape:connector-curvature="0"
   d="m 209.22362,286.02915 -0.48678,6.42747 12.57678,-30.13064 c 12.01054,-26.28608 22.16336,-65.21849 56.43659,-78.441 11.26547,-2.42396 22.32231,0.79474 29.52466,9.72565 4.03331,5.58306 4.94726,13.51061 3.06968,20.31558 l -35.93225,78.58008 36.16074,0.0397 c 16.25247,-33.81626 26.23641,-69.72864 51.8569,-94.95176 11.45421,-7.53017 25.1337,-18.74596 39.64767,-10.75881 8.56334,5.51352 13.78877,15.04048 11.96086,25.23305 l -36.79654,80.5868 h 37.58135 l 19.27248,-43.0452 c 12.3483,-23.62369 24.02107,-55.70145 53.55565,-64.06611 8.72229,-2.10606 16.93794,-0.53645 22.97797,6.15925 5.16582,5.58306 7.53018,12.87482 5.66254,20.53414 l -35.71371,80.27884 c 12.696,-0.75501 25.17345,1.06297 36.727,0.0497 l 27.81596,-60.42023 c 9.04019,-19.06387 23.39521,-40.17419 44.78369,-46.14469 7.30169,-2.66238 16.6399,-1.94712 22.08388,3.33791 6.01024,5.5632 8.12624,14.28549 5.99037,22.22297 l -35.69383,80.87489 h 37.28331 c 10.71908,-23.54422 23.6833,-52.40327 32.12743,-72.62945 2.72199,-6.81491 4.32141,-14.4643 3.62601,-22.08388 -2.18554,-14.66298 -11.7125,-28.06432 -26.2066,-34.06461 -30.09091,-10.28197 -59.66523,6.71556 -78.85824,24.48797 -2.39416,-9.29847 -9.73559,-18.64662 -18.84531,-23.32566 -30.6969,-13.38147 -61.82097,3.47699 -84.3817,23.85218 -3.54653,-10.67934 -11.88138,-20.44473 -22.67994,-24.79594 -29.52465,-10.01375 -59.83411,3.99358 -80.14969,25.19331 -4.62937,-7.83814 -11.50389,-16.2028 -19.22281,-21.17987 -21.59711,-13.87817 -46.48246,-11.27539 -67.7418,-1.55968 -40.36294,18.44794 -49.05542,50.47603 -69.6889,89.07067 l -11.48402,25.00456 -5.19562,12.15955 c 0,0 37.8595,0.10928 37.89924,0"
   id="path7" /><polyline
   style="fill:#2f84c5"
   points="579.466,812.099 583.05,812.099 584.463,808.939 580.85,808.939 579.466,812.099 "
   id="polyline9"
   transform="matrix(9.9342705,0,0,9.9342705,-5034.2135,-7935.0466)" /><polyline
   style="fill:#2f84c5"
   points="558.956,811.782 559.648,810.198 545.938,810.198 545.268,811.782 558.956,811.782 "
   id="polyline11"
   transform="matrix(9.9342705,0,0,9.9342705,-5034.2135,-7935.0466)" /><path
   style="fill:#2f84c5"
   inkscape:connector-curvature="0"
   d="m 397.28929,97.407155 h 135.58292 c 0,0 1.96699,-4.42075 5.31484,-11.046908 3.65581,-7.271886 3.1591,-6.159248 6.39767,-12.199284 3.5962,-6.725502 2.33455,-4.37108 5.63273,-10.073351 3.93397,-6.755304 3.68561,-6.208919 7.81827,-12.437706 4.01345,-6.049971 3.22864,-5.165821 8.09643,-11.503886 4.83799,-6.347999 2.116,-2.950478 8.18584,-10.401181 6.06984,-7.460637 3.95384,-5.225426 6.6957,-8.543473 2.72199,-3.308112 1.13251,-1.609351 3.78496,-4.549895 0,0 -4.70885,0.586122 -11.47409,3.079623 -6.55662,2.423962 -5.53339,1.728564 -11.35487,4.480356 -5.96056,2.811399 -4.68897,2.245146 -9.19913,4.758516 -4.08299,2.294816 -5.6228,3.258441 -11.14625,7.063266 -4.28167,2.960413 -2.41403,1.957052 -6.57649,5.145952 -4.2022,3.198836 -7.32156,6.099643 -10.36144,8.871304 -2.89088,2.612713 -7.97722,7.679191 -7.97722,7.679191 0,0 0.26822,-3.109427 0.23842,-8.215642 -0.0199,-6.516881 0.26822,-2.751793 -0.23842,-13.202645 0,0 -0.55632,-5.394309 -1.89745,-11.176054 -0.96362,-4.202197 -3.66575,-11.404543 -4.70884,-13.301989 -1.53982,-2.841201 -3.477,-6.1195102 -8.69249,-11.83171577 0,0 -4.11279,2.63258167 -10.18263,7.32155737 -6.06984,4.6889754 -3.55647,2.3345536 -9.92433,7.8679424 -6.38774,5.51352 -5.47379,4.927398 -8.39446,7.808336 -3.51673,3.447192 -3.31805,3.258441 -8.90111,9.358083 -6.33806,6.934121 -7.13281,8.563341 -11.38467,14.086796 -4.25187,5.533388 -7.48051,11.712505 -7.48051,11.712505 0,0 -0.33776,-1.519944 -1.90738,-5.175755 0,0 -2.28488,-6.089708 -5.05654,-10.967435 -3.58627,-6.32813 -3.31805,-5.573126 -6.3182,-10.182627 -3.05975,-4.718779 -1.41066,-2.255079 -6.33806,-8.275247 -5.49365,-6.705633 -9.42763,-8.523605 -9.42763,-8.523605 0,0 -0.22848,1.480207 -0.91395,10.311773 -0.65566,8.911041 -0.19868,6.099642 -1.41066,14.106664 -1.22192,8.016957 -1.19212,9.278609 -2.4339,15.209369 -1.361,6.506947 -0.52652,3.407454 -2.54317,10.81842 -2.38423,8.811698 -1.30139,4.788318 -3.1293,10.311773 -1.82791,5.523454 -2.93061,8.086496 -4.13266,11.672768 -1.20204,3.596206 -4.24193,9.944204 -4.24193,9.944204"
   id="path13" /><path
   style="fill:#2f84c5"
   inkscape:connector-curvature="0"
   d="m 229.13189,71.389301 -6.83477,-0.337765 h -16.11339 c 0,0 -10.65947,-0.218554 -19.55065,0 -7.1626,0.188751 -16.13325,-0.04967 -26.902,0.904018 -13.34173,1.182179 -23.94159,2.821333 -34.56133,4.728713 -8.4938,1.529878 -19.14334,4.241934 -26.03772,6.735436 -7.013595,2.533239 -11.076712,4.033313 -18.616823,7.559979 -7.301689,3.407455 -12.507247,6.238722 -19.520842,10.868088 -7.21228,4.76845 -13.768899,9.77533 -18.934719,14.29542 -4.957201,4.32141 -7.579849,7.05333 -11.821782,11.57342 -4.172394,4.42076 -6.129445,6.81491 -10.659472,13.12318 -4.460488,6.25859 -5.275098,8.25537 -9.6859142,16.71937 -3.268375,6.24866 -7.0036607,17.3055 -8.5534069,25.87878 -1.32125794,7.28182 -1.81797147,19.78906 -0.78480734,27.76628 1.11263834,8.55341 1.36099504,10.67934 4.35121044,18.83538 2.5233048,6.86458 6.74537,14.53384 10.937632,20.63348 4.728713,6.85465 8.265313,10.87803 13.669556,15.61667 5.742008,5.04661 9.517031,7.61959 14.662983,10.83829 5.106215,3.19884 9.050121,5.593 17.861819,8.90111 6.46721,2.4339 12.596655,3.90417 19.063865,4.94727 6.288393,1.03316 9.596505,1.28152 14.8418,1.54974 3.725351,0.18875 9.387881,-0.0993 19.282421,0.0497 9.70578,0.13908 21.40835,0.0397 25.50127,0.0397 4.09292,0 17.13662,-0.0497 17.13662,-0.0497 h 23.73297 l 25.06416,-0.0199 3.02002,-28.19346 -32.66388,0.11921 -50.43629,0.0795 c 0,0 -14.93121,-0.33777 -20.8719,-1.21198 -5.811551,-0.85435 -12.189353,-1.54975 -17.235963,-3.07963 -4.947266,-1.49014 -7.440768,-2.51337 -13.778833,-5.98043 -6.18905,-3.36772 -10.113087,-6.99373 -14.692786,-11.47408 -4.49029,-4.40088 -5.910891,-6.28839 -10.937632,-13.83844 -4.053182,-6.06984 -6.020168,-12.01053 -7.361294,-17.38497 -1.549746,-6.24866 -1.440469,-10.77869 -1.490141,-16.19286 -0.05961,-5.6228 0.635794,-9.02032 1.817972,-14.10667 1.211981,-5.22542 3.198835,-10.61973 4.669107,-14.15633 1.410666,-3.39752 5.553257,-10.50053 7.69906,-13.82851 2.056394,-3.20877 5.126083,-6.76524 9.427622,-11.63303 4.261802,-4.79825 6.218854,-6.70563 10.659473,-10.62967 4.62937,-4.09292 7.937482,-6.44734 14.136467,-10.39125 6.347998,-4.04324 11.275397,-6.64602 17.881688,-9.26867 6.61622,-2.62265 13.99739,-5.12608 18.87511,-6.33806 4.97707,-1.24179 13.00396,-3.54654 18.91485,-4.30154 7.55005,-0.963628 14.91134,-2.523309 23.66344,-3.039891 8.91104,-0.526516 19.77913,-1.231849 25.93838,-1.182178 6.76523,0.06954 12.71586,-0.04967 17.03727,-0.03974 5.07641,0 6.83478,0.109277 6.83478,0.109277 l 11.3648,-25.19331"
   id="path15" /><polyline
   style="fill:#2f84c5"
   points="512.644,817.891 524.428,817.891 525.69,815.131 513.877,815.131 512.644,817.891 "
   id="polyline17"
   transform="matrix(9.9342705,0,0,9.9342705,-5034.2135,-7935.0466)" />
</svg>