<?xml version="1.0" encoding="UTF-8" standalone="no"?>
<!-- Created with Inkscape (http://www.inkscape.org/) -->
<svg
   xmlns:svg="http://www.w3.org/2000/svg"
   xmlns="http://www.w3.org/2000/svg"
   version="1.0"
   width="300"
   height="78"
   id="svg2"
   xml:space="preserve"><defs
     id="defs5"><clipPath
       id="clipPath19"><path
         d="M 0,0 L 201,0 L 201,202 L 0,202 L 0,0 z"
         id="path21" /></clipPath><clipPath
       id="clipPath61"><path
         d="M 0.06,0 L 201,0 L 201,201 L 0.06,201 L 0.06,0 z"
         id="path63" /></clipPath></defs><g
     transform="matrix(1.25,0,0,-1.25,-12.675704,193.60241)"
     id="g11"><g
       transform="matrix(1.3593883,0,0,1.3593883,-0.3361409,-27.506945)"
       id="g3243"><g
         id="g13" /><path
         d="M 7.7069272,98.552956 L 24.166927,133.61996 L 43.777927,133.61796 L 40.482927,126.61196 L 29.469927,126.61196 L 26.440927,120.16296 L 36.851927,120.16296 L 33.563927,113.14696 L 23.144927,113.14496 L 19.593927,105.56696 L 30.642927,105.56796 L 27.354927,98.553956 L 7.7069272,98.552956"
         id="path35"
         style="fill:#000000;fill-opacity:1;fill-rule:nonzero;stroke:none" /><path
         d="M 91.319933,122.00896 C 93.481923,124.81396 95.780923,125.16196 98.290923,125.14796 L 94.698923,117.60196 C 93.946923,117.61896 93.813923,117.59596 93.044923,117.59596 C 91.486923,117.59296 89.371923,116.35096 88.223923,114.19696 L 80.855923,98.555956 L 73.327923,98.555956 L 85.619933,124.74296 L 92.632923,124.74296 L 91.319933,122.00896"
         id="path37"
         style="fill:#000000;fill-opacity:1;fill-rule:nonzero;stroke:none" /><path
         d="M 122.84192,127.65696 L 124.99292,132.24196 L 132.53792,132.24596 L 130.36592,127.65096 L 122.84192,127.65696 z M 109.17792,98.553956 L 121.47692,124.74196 L 128.99492,124.74096 L 116.70492,98.552956 L 109.17792,98.553956"
         id="path39"
         style="fill:#000000;fill-opacity:1;fill-rule:nonzero;stroke:none" /><path
         d="M 131.18292,124.75196 L 148.39092,124.75396 L 145.64092,118.92996 L 130.93292,104.44496 L 139.59192,104.44496 L 136.80292,98.518966 L 118.96092,98.527956 L 121.81192,104.61597 L 136.36592,118.89496 L 128.43292,118.88996 L 131.18292,124.75196"
         id="path41"
         style="fill:#000000;fill-opacity:1;fill-rule:nonzero;stroke:none" /><path
         d="M 71.366927,115.17296 L 72.447927,117.47896 C 73.036923,118.63496 73.462923,120.61196 71.620937,120.64096 C 69.499937,120.66896 68.416937,118.54596 67.739927,117.07196 L 66.854927,115.17796 L 71.366927,115.17296 z M 64.624937,110.42796 L 62.473927,105.84696 C 61.790937,104.39896 61.840927,102.97396 63.465927,102.97196 C 65.842927,102.96796 66.415937,104.71697 67.926937,107.62296 L 75.319933,107.62296 C 71.395927,99.678956 68.460927,97.707956 60.962927,97.655966 C 54.686927,97.612956 52.896927,100.76296 55.837927,107.59596 L 59.944937,116.29096 C 63.112927,123.02196 67.771927,125.13796 73.616923,125.15896 C 79.234933,125.16896 81.053933,120.68796 78.908923,116.00596 L 76.403923,110.42996 L 64.624937,110.42796"
         id="path43"
         style="fill:#000000;fill-opacity:1;fill-rule:nonzero;stroke:none" /><path
         d="M 157.70492,115.17296 L 158.77892,117.47896 C 159.37192,118.63496 159.79592,120.61196 157.95992,120.64096 C 155.83792,120.66896 154.76092,118.54596 154.08392,117.07196 L 153.19992,115.17796 L 157.70492,115.17296 z M 150.97192,110.42796 L 148.82592,105.84696 C 148.14092,104.39896 148.18792,102.97396 149.81992,102.97196 C 152.18592,102.96796 152.75792,104.71697 154.27092,107.62296 L 161.67192,107.62296 C 157.73592,99.678956 154.79892,97.707956 147.31492,97.655966 C 141.02792,97.612956 139.23992,100.76296 142.17592,107.59596 L 146.29892,116.29096 C 149.46292,123.02196 154.11892,125.13796 159.95292,125.15896 C 165.58192,125.16896 167.39592,120.68796 165.25592,116.00596 L 162.75092,110.42996 L 150.97192,110.42796"
         id="path45"
         style="fill:#000000;fill-opacity:1;fill-rule:nonzero;stroke:none" /><path
         d="M 99.721923,109.15996 C 98.698923,106.80696 97.645923,104.77796 99.909923,104.84496 C 101.29492,104.89297 102.43092,106.34396 103.77592,109.03296 L 106.73192,115.37896 C 108.03792,118.27396 108.11392,119.52496 106.55692,119.51696 C 105.06992,119.49596 103.90092,118.04496 102.53792,115.32496 L 99.721923,109.15996 z M 94.220923,99.304956 C 90.752923,99.346956 89.288933,102.34896 92.757923,110.08396 L 96.161923,117.31096 C 99.828923,124.21696 103.83392,125.23496 106.93892,125.21896 C 108.89492,125.21296 110.56592,124.62696 110.61592,122.00896 L 111.88092,124.74596 L 118.89392,124.74296 L 106.35592,98.039956 C 103.48792,91.912956 101.10892,88.876956 92.842923,88.816956 C 87.168923,88.779956 84.587923,92.251956 86.878923,97.107956 L 93.844923,97.107956 C 93.003923,94.686966 93.180923,93.987956 94.871923,93.956956 C 96.768923,93.924966 97.811923,95.093956 98.643923,96.773956 L 101.07892,101.81796 C 98.929923,100.14397 96.496923,99.060966 94.220923,99.304956"
         id="path47"
         style="fill:#000000;fill-opacity:1;fill-rule:nonzero;stroke:none" /><path
         d="M 48.031927,122.17696 C 49.685927,124.18096 52.267927,125.27496 54.633927,125.26196 C 58.935927,125.23696 59.971927,121.59896 58.309927,118.04096 L 49.290927,98.555956 L 41.849927,98.553956 L 50.358927,116.95996 C 50.829927,118.17396 51.423927,119.91996 49.527927,119.90096 C 48.187927,119.89196 46.682927,118.29196 46.048927,116.93496 L 37.419927,98.552956 L 29.889927,98.552956 L 42.177927,124.74296 L 49.194927,124.74296 L 48.031927,122.17696"
         id="path49"
         style="fill:#000000;fill-opacity:1;fill-rule:nonzero;stroke:none" /><path
         d="M 177.29492,122.00796 C 179.46092,124.80796 181.09892,124.79996 184.25692,125.14496 L 180.66792,117.59696 C 179.91692,117.61796 179.78192,117.59296 179.03392,117.59296 C 177.46092,117.58696 175.35492,116.34396 174.18192,114.19396 L 166.83092,98.552956 L 159.29792,98.552956 L 171.59092,124.73796 L 178.61092,124.73796 L 177.29492,122.00796"
         id="path51"
         style="fill:#000000;fill-opacity:1;fill-rule:nonzero;stroke:none" /><path
         d="M 174.93092,100.13197 C 174.93892,98.937966 174.10892,98.127966 173.15492,98.126956 L 173.15492,98.134956 C 172.17692,98.125956 171.38192,98.930956 171.37892,100.12797 C 171.37592,101.32497 172.16192,102.13197 173.14992,102.13396 C 174.10192,102.13496 174.93092,101.33396 174.93092,100.13197 z M 175.65092,100.13796 C 175.64892,101.78597 174.45892,102.74297 173.14792,102.74097 C 171.83292,102.73796 170.66392,101.78097 170.66992,100.12696 C 170.67092,98.485956 171.84292,97.521966 173.15492,97.524956 C 174.47392,97.526956 175.65492,98.488966 175.65092,100.13796 z M 172.73992,100.38696 L 172.73992,101.06297 L 173.13692,101.06097 C 173.35292,101.06297 173.64292,101.04096 173.64392,100.75096 C 173.64392,100.44196 173.49692,100.38696 173.24392,100.38696 L 172.73992,100.38696 z M 172.74292,99.907966 L 173.00592,99.907966 L 173.62492,98.733956 L 174.29592,98.735956 L 173.61792,99.961966 C 173.96892,99.989956 174.25592,100.17596 174.25692,100.69396 C 174.25592,101.33396 173.85092,101.54096 173.16092,101.53896 L 172.16392,101.53896 L 172.17092,98.730956 L 172.74292,98.733956 L 172.74292,99.907966"
         id="path53"
         style="fill:#000000;fill-opacity:1;fill-rule:evenodd;stroke:none" /></g></g></svg>