<?xml version="1.0" encoding="UTF-8" standalone="no"?>
<!-- Generator: Adobe Illustrator 14.0.0, SVG Export Plug-In . SVG Version: 6.00 Build 43363)  -->

<svg
   xmlns:dc="http://purl.org/dc/elements/1.1/"
   xmlns:cc="http://creativecommons.org/ns#"
   xmlns:rdf="http://www.w3.org/1999/02/22-rdf-syntax-ns#"
   xmlns:svg="http://www.w3.org/2000/svg"
   xmlns="http://www.w3.org/2000/svg"
   xmlns:xlink="http://www.w3.org/1999/xlink"
   xmlns:sodipodi="http://sodipodi.sourceforge.net/DTD/sodipodi-0.dtd"
   xmlns:inkscape="http://www.inkscape.org/namespaces/inkscape"
   version="1.1"
   x="0px"
   y="0px"
   width="712"
   height="169"
   viewBox="0 0 711.99998 169"
   enable-background="new 0 0 1190.55 841.89"
   xml:space="preserve"
   id="svg2"><defs
   id="defs118">
			<linearGradient
   id="SVGID_5_"
   gradientUnits="userSpaceOnUse"
   x1="437.29489"
   y1="159.3477"
   x2="341.42361"
   y2="85.3498"
   gradientTransform="matrix(0.8068,-0.5908,0.5908,0.8068,391.1348,508.6628)">
			<stop
   offset="0"
   style="stop-color:#FFFFFF"
   id="stop75" />
			<stop
   offset="0.3352"
   style="stop-color:#FFDD00"
   id="stop77" />
			<stop
   offset="0.7582"
   style="stop-color:#FAA61A"
   id="stop79" />
			<stop
   offset="0.9945"
   style="stop-color:#D16821"
   id="stop81" />
		</linearGradient>
		
		
			<linearGradient
   id="SVGID_6_"
   gradientUnits="userSpaceOnUse"
   x1="334.94531"
   y1="66.887703"
   x2="437.15329"
   y2="66.887703"
   gradientTransform="matrix(0.8068,-0.5908,0.5908,0.8068,391.1348,508.6628)">
			<stop
   offset="0"
   style="stop-color:#2A2F8B"
   id="stop86" />
			<stop
   offset="0.2565"
   style="stop-color:#2A2C82"
   id="stop88" />
			<stop
   offset="0.7094"
   style="stop-color:#26266E"
   id="stop90" />
			<stop
   offset="1"
   style="stop-color:#22205F"
   id="stop92" />
		</linearGradient>
		
		<linearGradient
   id="SVGID_7_"
   gradientUnits="userSpaceOnUse"
   x1="814.08008"
   y1="307.396"
   x2="744.67072"
   y2="401.1311">
			<stop
   offset="0"
   style="stop-color:#FFFFFF"
   id="stop97" />
			<stop
   offset="0.5153"
   style="stop-color:#2B3990"
   id="stop99" />
			<stop
   offset="1"
   style="stop-color:#262262"
   id="stop101" />
		</linearGradient>
		
		<linearGradient
   id="SVGID_8_"
   gradientUnits="userSpaceOnUse"
   x1="684.28027"
   y1="367.98441"
   x2="788.63373"
   y2="345.81781">
			<stop
   offset="0"
   style="stop-color:#FFFFFF"
   id="stop106" />
			<stop
   offset="0.3352"
   style="stop-color:#FFDD00"
   id="stop108" />
			<stop
   offset="0.7582"
   style="stop-color:#FAA61A"
   id="stop110" />
			<stop
   offset="0.9945"
   style="stop-color:#E77326"
   id="stop112" />
		</linearGradient>
		
	<linearGradient
   inkscape:collect="always"
   xlink:href="#SVGID_5_"
   id="linearGradient3184"
   gradientUnits="userSpaceOnUse"
   gradientTransform="matrix(0.8068,-0.5908,0.5908,0.8068,391.1348,508.6628)"
   x1="437.29489"
   y1="159.3477"
   x2="341.42361"
   y2="85.3498" /><linearGradient
   inkscape:collect="always"
   xlink:href="#SVGID_6_"
   id="linearGradient3186"
   gradientUnits="userSpaceOnUse"
   gradientTransform="matrix(0.8068,-0.5908,0.5908,0.8068,391.1348,508.6628)"
   x1="334.94531"
   y1="66.887703"
   x2="437.15329"
   y2="66.887703" /><linearGradient
   inkscape:collect="always"
   xlink:href="#SVGID_7_"
   id="linearGradient3188"
   gradientUnits="userSpaceOnUse"
   x1="814.08008"
   y1="307.396"
   x2="744.67072"
   y2="401.1311" /><linearGradient
   inkscape:collect="always"
   xlink:href="#SVGID_8_"
   id="linearGradient3190"
   gradientUnits="userSpaceOnUse"
   x1="684.28027"
   y1="367.98441"
   x2="788.63373"
   y2="345.81781" /><linearGradient
   inkscape:collect="always"
   xlink:href="#SVGID_8_"
   id="linearGradient3193"
   gradientUnits="userSpaceOnUse"
   x1="684.28027"
   y1="367.98441"
   x2="788.63373"
   y2="345.81781"
   gradientTransform="matrix(1.674517,0,0,1.674517,-637.45012,-506.53784)" /><linearGradient
   inkscape:collect="always"
   xlink:href="#SVGID_7_"
   id="linearGradient3196"
   gradientUnits="userSpaceOnUse"
   x1="814.08008"
   y1="307.396"
   x2="744.67072"
   y2="401.1311"
   gradientTransform="matrix(1.674517,0,0,1.674517,-637.45012,-506.53784)" /><linearGradient
   inkscape:collect="always"
   xlink:href="#SVGID_6_"
   id="linearGradient3199"
   gradientUnits="userSpaceOnUse"
   gradientTransform="matrix(1.3510003,-0.98930464,0.98930464,1.3510003,17.511752,345.22667)"
   x1="334.94531"
   y1="66.887703"
   x2="437.15329"
   y2="66.887703" /><linearGradient
   inkscape:collect="always"
   xlink:href="#SVGID_5_"
   id="linearGradient3202"
   gradientUnits="userSpaceOnUse"
   gradientTransform="matrix(1.3510003,-0.98930464,0.98930464,1.3510003,17.511752,345.22667)"
   x1="437.29489"
   y1="159.3477"
   x2="341.42361"
   y2="85.3498" /></defs>
<g
   id="Layer_1"
   display="none"
   style="display:none"
   transform="translate(-380.677,-234.42258)">
	<path
   display="inline"
   d="m 272.366,341.104 c 0,13.362 -5.427,22.604 -16.243,27.751 -10.834,5.14 -28.257,7.717 -52.256,7.717 h -23.832 c 1.446,9.202 5.914,16.514 13.405,21.934 7.485,5.405 16.656,8.116 27.479,8.116 7.584,0 15.477,-0.945 23.694,-2.844 8.211,-1.896 15.207,-5.553 20.978,-10.959 h 1.348 v 11.365 c 0,4.692 -0.851,9.027 -2.56,12.998 -1.723,3.971 -4.657,7.445 -8.803,10.419 -4.152,2.977 -9.604,5.33 -16.38,7.047 -6.771,1.701 -15.119,2.57 -25.035,2.57 -9.034,0 -17.878,-1.717 -26.542,-5.148 -8.663,-3.424 -16.338,-8.348 -23.012,-14.755 -6.681,-6.4 -12.052,-14.117 -16.104,-23.139 -4.065,-9.026 -6.096,-19.138 -6.096,-30.336 0,-12.078 1.758,-23.052 5.281,-32.887 3.523,-9.843 8.432,-18.184 14.752,-25.045 6.32,-6.859 13.856,-12.14 22.602,-15.837 8.768,-3.703 18.369,-5.551 28.842,-5.551 7.58,0 14.884,1.308 21.923,3.925 7.042,2.617 13.274,6.36 18.684,11.238 5.417,4.863 9.742,10.833 12.998,17.859 3.249,7.049 4.877,14.896 4.877,23.562 z m -34.115,-4.331 c 0,-7.402 -2.489,-12.907 -7.452,-16.517 -4.958,-3.606 -11.681,-5.42 -20.161,-5.42 -4.332,0 -8.348,0.868 -12.045,2.577 -3.706,1.719 -6.912,3.978 -9.62,6.772 -2.706,2.794 -4.828,6.085 -6.362,9.874 -1.533,3.792 -2.388,7.763 -2.577,11.919 l -0.266,4.867 h 16.244 c 8.666,0 15.711,-0.273 21.121,-0.805 5.414,-0.546 9.703,-1.358 12.858,-2.43 3.156,-1.096 5.319,-2.535 6.496,-4.338 1.176,-1.807 1.764,-3.971 1.764,-6.499 z"
   id="path5"
   inkscape:connector-curvature="0"
   style="display:inline" />
	<path
   display="inline"
   d="m 393.249,433.97 v -80.365 c 0,-23.134 -9.938,-34.714 -29.801,-34.714 -7.251,0 -12.879,0.658 -16.842,1.961 -3.981,1.31 -6.832,2.43 -8.554,3.354 V 433.97 H 301.783 V 299.849 c 0.683,-0.371 2.755,-1.304 6.219,-2.792 3.445,-1.499 7.896,-3.032 13.337,-4.624 5.444,-1.586 11.835,-2.987 19.171,-4.204 7.345,-1.213 15.339,-1.815 23.971,-1.815 9.679,0 18.53,1.299 26.566,3.918 8.021,2.617 14.896,6.441 20.599,11.485 5.701,5.039 10.105,11.247 13.211,18.614 3.106,7.378 4.661,15.813 4.661,25.34 v 88.198 h -36.269 z"
   id="path7"
   inkscape:connector-curvature="0"
   style="display:inline" />
	<path
   display="inline"
   d="m 460.278,302.258 c 0,-6.134 1.804,-10.375 5.417,-12.719 3.606,-2.35 8.39,-3.524 14.35,-3.524 4.145,0 7.987,0.458 11.506,1.355 3.516,0.901 5.725,1.535 6.632,1.889 V 433.97 H 460.278 V 302.258 z"
   id="path9"
   inkscape:connector-curvature="0"
   style="display:inline" />
	<path
   display="inline"
   d="m 530.058,433.97 v -90.436 c 0,-7.206 0.988,-14.3 2.97,-21.248 1.988,-6.939 5.147,-13.034 9.479,-18.279 4.332,-5.231 9.933,-9.473 16.789,-12.728 6.856,-3.237 15.07,-4.865 24.637,-4.865 5.596,0 10.336,0.72 14.208,2.162 3.887,1.452 6.996,3.3 9.342,5.551 2.347,2.263 4.065,4.836 5.142,7.716 1.085,2.89 1.631,5.691 1.631,8.402 v 12.99 h -1.358 c -2.703,-1.089 -5.725,-2.069 -9.069,-2.979 -3.34,-0.896 -7.353,-1.352 -12.041,-1.352 -8.12,0 -14.347,2.388 -18.688,7.171 -4.32,4.783 -6.492,12.773 -6.492,23.964 v 83.93 h -36.55 z"
   id="path11"
   inkscape:connector-curvature="0"
   style="display:inline" />
	<path
   display="inline"
   d="m 632.726,363.575 c 0,-11.007 1.534,-21.297 4.608,-30.868 3.064,-9.565 7.665,-17.91 13.799,-25.039 6.135,-7.128 13.72,-12.769 22.754,-16.923 9.02,-4.149 19.395,-6.226 31.128,-6.226 11.005,0 20.803,2.032 29.378,6.089 8.571,4.059 15.791,9.524 21.66,16.384 5.858,6.853 10.322,14.713 13.4,23.547 3.064,8.849 4.601,18.142 4.601,27.883 0,11.014 -1.579,21.301 -4.737,30.875 -3.158,9.565 -7.767,17.913 -13.811,25.042 -6.046,7.13 -13.578,12.732 -22.604,16.787 -9.027,4.063 -19.406,6.094 -31.137,6.094 -11.004,0 -20.806,-2.031 -29.377,-6.094 -8.572,-4.055 -15.788,-9.482 -21.66,-16.24 -5.861,-6.779 -10.329,-14.58 -13.394,-23.426 -3.074,-8.844 -4.608,-18.136 -4.608,-27.885 z m 103.701,0 c 0,-14.62 -2.806,-26.042 -8.393,-34.25 -5.606,-8.214 -14.356,-12.322 -26.27,-12.322 -10.466,0 -18.322,3.89 -23.551,11.639 -5.237,7.766 -7.85,17.693 -7.85,29.78 0,14.628 2.741,26 8.249,34.125 5.511,8.123 14.307,12.178 26.401,12.178 10.648,0 18.548,-3.88 23.692,-11.639 5.148,-7.759 7.722,-17.599 7.722,-29.511 z"
   id="path13"
   inkscape:connector-curvature="0"
   style="display:inline" />
	<path
   display="inline"
   d="m 986.837,329.15 c -2.829,-3.915 -5.021,-6.547 -5.021,-6.547 -2.332,-3.187 -4.859,-6.142 -7.548,-8.873 l -82.573,60.462 c 0,0 -1.331,0.91 -3.383,2.57 2.815,3.921 5.021,6.548 5.021,6.548 2.331,3.18 4.86,6.128 7.542,8.879 l 82.58,-60.476 c 0,0 1.322,-0.903 3.382,-2.563 z"
   id="path15"
   inkscape:connector-curvature="0"
   style="fill:none;display:inline" />
	
		<linearGradient
   id="SVGID_1_"
   gradientUnits="userSpaceOnUse"
   x1="641.50879"
   y1="344.88181"
   x2="438.1886"
   y2="187.9501"
   gradientTransform="matrix(0.8068,-0.5908,0.5908,0.8068,391.1348,508.6628)">
		<stop
   offset="0"
   style="stop-color:#FFFFFF"
   id="stop18" />
		<stop
   offset="0.3352"
   style="stop-color:#FFDD00"
   id="stop20" />
		<stop
   offset="0.7582"
   style="stop-color:#FAA61A"
   id="stop22" />
		<stop
   offset="0.9945"
   style="stop-color:#D16821"
   id="stop24" />
	</linearGradient>
	<path
   display="inline"
   d="m 1044.143,352.957 c 0,-1.113 -0.049,-2.216 -0.084,-3.323 -1.744,24.733 -13.943,48.571 -35.519,64.37 -38.917,28.496 -94.905,21.031 -119.78,-12.941 l 12.115,-8.873 c -2.682,-2.751 -5.211,-5.7 -7.542,-8.879 0,0 -2.206,-2.626 -5.021,-6.548 -11.247,9.09 -44.315,40.807 -1.31,70.632 11.744,6.316 24.812,10.484 38.678,12.025 25.729,2.619 52.48,-3.895 74.988,-20.379 2.052,-1.506 4.026,-3.082 5.938,-4.691 0.729,-0.625 1.463,-1.24 2.171,-1.885 0.168,-0.146 0.33,-0.295 0.497,-0.441 21.423,-19.582 34.869,-47.755 34.869,-79.067 z"
   id="path26"
   inkscape:connector-curvature="0"
   style="fill:url(#SVGID_1_);display:inline" />
	
		<linearGradient
   id="SVGID_2_"
   gradientUnits="userSpaceOnUse"
   x1="424.4487"
   y1="148.79691"
   x2="641.20697"
   y2="148.79691"
   gradientTransform="matrix(0.8068,-0.5908,0.5908,0.8068,391.1348,508.6628)">
		<stop
   offset="0"
   style="stop-color:#2A2F8B"
   id="stop29" />
		<stop
   offset="0.2565"
   style="stop-color:#2A2C82"
   id="stop31" />
		<stop
   offset="0.7094"
   style="stop-color:#26266E"
   id="stop33" />
		<stop
   offset="1"
   style="stop-color:#22205F"
   id="stop35" />
	</linearGradient>
	<path
   display="inline"
   d="m 934.748,245.995 c -0.196,0.003 -0.398,0.009 -0.581,0.02 -20.813,0.812 -41.618,7.621 -59.7,20.856 -19.385,14.204 -32.676,33.653 -39.351,54.961 -2.997,9.871 -4.628,20.326 -4.628,31.17 0,2.91 0.153,5.784 0.384,8.642 0.246,-26.619 12.606,-52.798 35.737,-69.728 38.915,-28.504 94.905,-21.031 119.779,12.937 l -12.121,8.876 c 2.688,2.731 5.216,5.686 7.548,8.873 0,0 2.192,2.633 5.021,6.547 11.058,-8.936 43.181,-39.761 3.334,-69.16 -10.723,-6.136 -22.599,-10.475 -35.226,-12.598 -0.714,-0.117 -1.422,-0.25 -2.136,-0.352 -0.784,-0.116 -1.583,-0.203 -2.366,-0.303 -1.611,-0.192 -3.223,-0.369 -4.854,-0.492 -0.23,-0.018 -0.462,-0.037 -0.692,-0.053 -2.15,-0.146 -4.314,-0.238 -6.499,-0.252 -1.218,0.001 -2.437,0.014 -3.649,0.056 z"
   id="path37"
   inkscape:connector-curvature="0"
   style="fill:url(#SVGID_2_);display:inline" />
	<linearGradient
   id="SVGID_3_"
   gradientUnits="userSpaceOnUse"
   x1="1061.5488"
   y1="256.33151"
   x2="914.34912"
   y2="455.11981">
		<stop
   offset="0"
   style="stop-color:#FFFFFF"
   id="stop40" />
		<stop
   offset="0.5153"
   style="stop-color:#2B3990"
   id="stop42" />
		<stop
   offset="1"
   style="stop-color:#262262"
   id="stop44" />
	</linearGradient>
	<path
   display="inline"
   d="m 1023.364,357.141 c -2.101,1.695 -52.074,39.061 -57.767,43.319 -1.205,0.896 -2.613,1.33 -4.007,1.33 -2.038,0 -4.048,-0.925 -5.364,-2.682 -2.221,-2.963 -1.61,-7.165 1.352,-9.377 22.13,-16.548 55.674,-41.659 57.376,-43.014 7.339,-5.936 23.804,-21.475 19.531,-38.188 -9.343,-20.451 -24.916,-37.437 -44.314,-48.54 39.847,29.399 7.724,60.225 -3.334,69.16 -2.06,1.66 -3.382,2.563 -3.382,2.563 l -82.58,60.476 -12.115,8.873 c 24.875,33.972 80.863,41.437 119.78,12.941 21.575,-15.799 33.774,-39.637 35.519,-64.37 -0.154,-4.93 -0.623,-9.776 -1.422,-14.514 -5.714,10.125 -14.188,17.916 -19.273,22.023 z"
   id="path46"
   inkscape:connector-curvature="0"
   style="fill:url(#SVGID_3_);display:inline" />
	<linearGradient
   id="SVGID_4_"
   gradientUnits="userSpaceOnUse"
   x1="786.27539"
   y1="384.8252"
   x2="1007.5825"
   y2="337.81561">
		<stop
   offset="0"
   style="stop-color:#FFFFFF"
   id="stop49" />
		<stop
   offset="0.3352"
   style="stop-color:#FFDD00"
   id="stop51" />
		<stop
   offset="0.7582"
   style="stop-color:#FAA61A"
   id="stop53" />
		<stop
   offset="0.9945"
   style="stop-color:#E77326"
   id="stop55" />
	</linearGradient>
	<path
   display="inline"
   d="m 974.268,313.729 12.121,-8.876 c -24.874,-33.968 -80.864,-41.441 -119.779,-12.937 -23.131,16.93 -35.491,43.109 -35.737,69.728 0.28,3.465 0.75,6.882 1.346,10.25 5.707,-10.657 14.615,-18.871 19.881,-23.129 2.102,-1.688 52.103,-39.077 57.796,-43.333 2.963,-2.218 7.157,-1.605 9.371,1.353 2.22,2.959 1.61,7.157 -1.352,9.374 -22.145,16.555 -55.71,41.682 -57.412,43.041 -7.408,5.985 -24.54,21.961 -19.785,38.874 0.182,0.651 0.319,0.989 0.583,1.777 9.86,20.245 25.912,36.919 45.702,47.542 -43.006,-29.825 -9.938,-61.542 1.31,-70.632 2.052,-1.66 3.383,-2.57 3.383,-2.57 l 82.572,-60.462 z"
   id="path57"
   inkscape:connector-curvature="0"
   style="fill:url(#SVGID_4_);display:inline" />
</g>
<path
   d="m 102.61272,75.13913 c 0,10.549457 -4.285094,17.847002 -12.82513,21.911055 -8.553433,4.059025 -22.311265,6.093565 -41.260099,6.093565 H 29.710943 c 1.142021,7.26573 4.670228,13.03947 10.584622,17.31786 5.909371,4.26834 13.151657,6.40837 21.696717,6.40837 5.988073,0 12.220625,-0.74683 18.709378,-2.24552 6.48373,-1.4987 12.006287,-4.38556 16.564322,-8.65391 h 1.064993 v 8.97374 c 0,3.70403 -0.671481,7.12842 -2.021142,10.26311 -1.359708,3.1347 -3.677239,5.87756 -6.95092,8.22691 -3.278704,2.34934 -7.583887,4.20806 -12.933969,5.56442 -5.346733,1.34296 -11.937632,2.02951 -19.767673,2.02951 -7.133443,0 -14.116179,-1.35636 -20.956581,-4.06405 C 28.861963,144.25984 22.800211,140.37161 17.530506,135.3129 12.255778,130.25921 8.0142264,124.16564 4.8142244,117.04224 1.6041753,109.9155 -1.1991e-5,101.9314 -1.1991e-5,93.089953 c 0,-9.536375 1.388174591,-18.202 4.169547291,-25.96841 2.7813728,-7.771434 6.6578797,-14.357309 11.6479407,-19.774371 4.99006,-5.417063 10.941294,-9.58661 17.847002,-12.505293 6.922453,-2.923707 14.504666,-4.382211 22.773431,-4.382211 5.984724,0 11.753435,1.031502 17.309482,3.099531 5.559397,2.066354 10.480802,5.021876 14.752495,8.873265 4.276716,3.839668 7.691057,8.553433 10.263115,14.101108 2.563689,5.566094 3.849719,11.761807 3.849719,18.605558 z M 75.676435,71.718092 c 0,-5.844064 -1.965883,-10.19111 -5.884253,-13.041138 -3.915021,-2.848354 -9.22324,-4.280066 -15.917959,-4.280066 -3.421038,0 -6.592573,0.684878 -9.511256,2.034538 -2.927056,1.358034 -5.457251,3.13972 -7.595609,5.346733 -2.136684,2.205339 -3.812875,4.805864 -5.023551,7.796551 -1.210676,2.994037 -1.883832,6.130407 -2.034538,9.410786 l -0.209315,3.843016 H 42.32508 c 6.842076,0 12.406496,-0.216012 16.676515,-0.636316 4.275041,-0.432025 7.660915,-1.073366 10.152596,-1.918997 2.491681,-0.865725 4.199689,-2.001047 5.129046,-3.424387 0.929357,-1.425014 1.393198,-3.134696 1.393198,-5.13072 z"
   id="path62"
   inkscape:connector-curvature="0"
   clip-path="none" /><path
   d="M 198.06186,148.46456 V 85.008733 c 0,-18.265631 -7.84679,-27.410168 -23.53031,-27.410168 -5.72518,0 -10.16935,0.520775 -13.29902,1.548928 -3.14307,1.034851 -5.39362,1.918996 -6.755,2.649086 V 148.46456 H 125.83994 V 42.564751 c 0.5392,-0.29304 2.1752,-1.029828 4.90968,-2.203664 2.72109,-1.183884 6.23423,-2.39456 10.53104,-3.652122 4.29849,-1.252539 9.34548,-2.35772 15.13764,-3.318893 5.79885,-0.957823 12.11178,-1.433386 18.92706,-1.433386 7.6425,0 14.63026,1.024804 20.97668,3.094507 6.33302,2.066354 11.7618,5.085508 16.26458,9.069184 4.5011,3.976978 7.97907,8.879964 10.43057,14.697236 2.45316,5.825645 3.68058,12.485199 3.68058,20.008804 v 69.639813 h -28.63591 z"
   id="path64"
   inkscape:connector-curvature="0"
   clip-path="none" /><path
   d="m 250.98664,44.465328 c 0,-4.842703 1.42502,-8.191737 4.27839,-10.042079 2.84668,-1.855364 6.62439,-2.783047 11.32979,-2.783047 3.27368,0 6.30623,0.361696 9.08425,1.070017 2.77635,0.711669 4.5212,1.21235 5.23622,1.491994 V 148.46456 H 250.98497 V 44.465328 z"
   id="path66"
   inkscape:connector-curvature="0"
   clip-path="none" /><path
   d="M 306.08328,148.46456 V 77.056452 c 0,-5.690009 0.78032,-11.291268 2.34432,-16.776986 1.5707,-5.479019 4.06405,-10.291581 7.48509,-14.434336 3.41936,-4.131034 7.84344,-7.480068 13.25715,-10.048777 5.41372,-2.555313 11.89912,-3.841342 19.45287,-3.841342 4.41905,0 8.16159,0.567662 11.21926,1.706333 3.06939,1.147044 5.52423,2.607223 7.37625,4.383886 1.85201,1.785035 3.21005,3.817898 4.0607,6.091893 0.85735,2.282366 1.2877,4.494403 1.2877,6.634436 v 10.256417 h -1.07336 c -2.13334,-0.859028 -4.51952,-1.634329 -7.16024,-2.352697 -2.63569,-0.708321 -5.80555,-1.066667 -9.5079,-1.066667 -6.41173,0 -11.32811,1.885506 -14.75585,5.661542 -3.41099,3.776036 -5.12737,10.085616 -5.12737,18.922042 v 66.270684 h -28.85862 z"
   id="path68"
   inkscape:connector-curvature="0"
   clip-path="none" /><path
   d="m 387.14832,92.880638 c 0,-8.690743 1.21235,-16.8155 3.6404,-24.372595 2.418,-7.553746 6.0517,-14.141296 10.89441,-19.771022 4.84437,-5.628052 10.83412,-10.082267 17.96589,-13.360971 7.12172,-3.27703 15.31513,-4.916382 24.57856,-4.916382 8.68907,0 16.42701,1.604187 23.19708,4.807538 6.7684,3.205026 12.46846,7.520256 17.10352,12.935644 4.62502,5.410364 8.14987,11.617799 10.5796,18.592162 2.41968,6.98776 3.63203,14.325493 3.63203,22.01655 0,8.695766 -1.24584,16.818848 -3.7392,24.379288 -2.49336,7.55208 -6.13208,14.14298 -10.90446,19.7727 -4.77572,5.62973 -10.72193,10.05213 -17.84867,13.25548 -7.12842,3.20837 -15.32183,4.81089 -24.58526,4.81089 -8.68739,0 -16.42869,-1.60419 -23.19708,-4.81089 -6.7684,-3.20168 -12.46511,-7.48677 -17.10185,-12.82345 -4.63004,-5.35343 -8.15657,-11.51231 -10.57457,-18.49672 -2.42805,-6.98273 -3.6404,-14.32047 -3.6404,-22.018222 z m 81.88053,0 c 0,-11.54412 -2.21371,-20.561394 -6.62606,-27.041775 -4.42743,-6.487079 -11.33648,-9.728944 -20.74225,-9.728944 -8.26541,0 -14.46782,3.071064 -18.59551,9.189749 -4.13438,6.132082 -6.19738,13.970496 -6.19738,23.513568 0,11.549144 2.16515,20.529574 6.51387,26.944654 4.35207,6.4134 11.29629,9.61508 20.84606,9.61508 8.40775,0 14.64533,-3.06437 18.7077,-9.18975 4.06238,-6.12706 6.09357,-13.89682 6.09357,-23.302582 z"
   id="path70"
   inkscape:connector-curvature="0"
   clip-path="none" /><path
   d="m 666.75247,65.698203 c -2.23548,-3.091158 -3.96526,-5.169234 -3.96526,-5.169234 -1.84197,-2.516799 -3.83632,-4.849401 -5.9596,-7.006179 l -65.20067,47.74048 c 0,0 -1.0516,0.71837 -2.67086,2.02784 2.22209,3.09618 3.96359,5.16923 3.96359,5.16923 1.84196,2.51178 3.83799,4.83936 5.95625,7.01121 l 65.20402,-47.75053 c 0.002,0.0017 1.0449,-0.709995 2.67253,-2.022817 z"
   id="path72"
   inkscape:connector-curvature="0"
   style="fill:none"
   clip-path="none" /><path
   d="m 711.99792,84.496331 c 0,-0.879121 -0.0368,-1.74987 -0.0653,-2.623968 -1.37645,19.528217 -11.00995,38.349787 -28.04481,50.824937 -30.72906,22.50049 -74.93631,16.60619 -94.57672,-10.2179 l 9.56652,-7.00618 c -2.11827,-2.17185 -4.11429,-4.5011 -5.95626,-7.0112 0,0 -1.7415,-2.07305 -3.96358,-5.16924 -8.88164,7.17698 -34.99071,32.22106 -1.03485,55.76979 9.27347,4.98839 19.59185,8.27882 30.53984,9.49451 20.31524,2.06803 41.4376,-3.07441 59.20924,-16.09043 1.62094,-1.18891 3.17824,-2.43307 4.68865,-3.70403 0.57604,-0.49398 1.15542,-0.97959 1.71303,-1.48865 0.13396,-0.11554 0.26123,-0.23275 0.39184,-0.3483 16.91597,-15.46081 27.53241,-37.7051 27.53241,-62.429339 z"
   id="path83"
   style="fill:url(#linearGradient3202)"
   inkscape:connector-curvature="0"
   clip-path="none" /><path
   d="m 625.62298,0.04039187 c -0.15573,0.0016745 -0.31481,0.0066981 -0.45882,0.01507066 -16.43203,0.64134001 -32.86072,6.01821407 -47.13765,16.46887447 -15.30676,11.214241 -25.80096,26.571236 -31.07234,43.396783 -2.36609,7.793202 -3.65379,16.048571 -3.65379,24.612051 0,2.297437 0.12056,4.568082 0.30309,6.823656 0.19424,-21.018537 9.95332,-41.688775 28.21896,-55.056444 30.72738,-22.505508 74.93631,-16.606185 94.57504,10.216228 l -9.56986,7.007854 c 2.12328,2.156778 4.11763,4.48938 5.9596,7.006179 0,0 1.72978,2.078076 3.96526,5.169234 8.73093,-7.05474 34.09317,-31.395519 2.63067,-54.607674 -8.46636,-4.8443776 -17.84198,-8.2704394 -27.81206,-9.9466309 -0.56431,-0.092098 -1.1236,-0.19759301 -1.68791,-0.27796983 -0.6179,-0.0920984 -1.24919,-0.16075363 -1.86709,-0.23945593 -1.27263,-0.15070653 -2.54526,-0.29136596 -3.83297,-0.38681343 -0.18084,-0.0133961 -0.36504,-0.0301413 -0.54589,-0.0418629 -1.69963,-0.11554167 -3.40764,-0.18922042 -5.13072,-0.199267524 -0.96452,-0.001674516 -1.92737,0.006698064 -2.88352,0.040188404 z"
   id="path94"
   style="fill:url(#linearGradient3199)"
   inkscape:connector-curvature="0"
   clip-path="none" /><path
   d="m 695.59268,87.801828 c -1.65778,1.337939 -41.11777,30.841252 -45.61217,34.203682 -0.95113,0.70665 -2.06301,1.04992 -3.16484,1.04992 -1.60921,0 -3.19498,-0.73009 -4.23485,-2.11659 -1.75322,-2.3393 -1.27096,-5.65651 1.06834,-7.40471 17.47358,-13.06626 43.95942,-32.894211 45.30406,-33.964228 5.79382,-4.686973 18.79477,-16.956159 15.4223,-30.151353 -7.37792,-16.149042 -19.6739,-29.560248 -34.99071,-38.326345 31.4625,23.212155 6.10027,47.552934 -2.63067,54.607674 -1.62763,1.311147 -2.67085,2.024491 -2.67085,2.024491 l -65.20402,47.750531 -9.56651,7.00617 c 19.64041,26.82409 63.84933,32.71839 94.57672,10.21791 17.03486,-12.47515 26.66835,-31.29673 28.04481,-50.824942 -0.12057,-3.893252 -0.49231,-7.719524 -1.1236,-11.460395 -4.51283,7.99247 -11.20252,14.144645 -15.21801,17.388185 z"
   id="path103"
   style="fill:url(#linearGradient3196)"
   inkscape:connector-curvature="0"
   clip-path="none" /><path
   d="m 656.82761,53.52279 9.56986,-7.007853 C 646.75706,19.692523 602.54814,13.7932 571.82243,36.298708 c -18.26396,13.36767 -28.02305,34.037908 -28.21896,55.056445 0.22103,2.736161 0.59277,5.433808 1.06331,8.092941 4.50445,-8.414448 11.54077,-14.899853 15.69693,-18.262283 1.65944,-1.332915 41.13953,-30.85465 45.63561,-34.215406 2.3393,-1.751544 5.65149,-1.267609 7.39969,1.068342 1.75322,2.337626 1.27096,5.651495 -1.06834,7.401365 -17.48364,13.07128 -43.98789,32.910957 -45.33085,33.984323 -5.84909,4.725487 -19.37584,17.339625 -15.62157,30.693895 0.14233,0.51408 0.25118,0.78033 0.45882,1.40325 7.78482,15.98494 20.46092,29.15166 36.08584,37.53932 -33.95586,-23.54873 -7.84679,-48.59281 1.03485,-55.76979 1.61926,-1.31115 2.67085,-2.02784 2.67085,-2.02784 l 65.199,-47.74048 z"
   id="path114"
   style="fill:url(#linearGradient3193)"
   inkscape:connector-curvature="0"
   clip-path="none" />
</svg>