<?xml version="1.0" encoding="UTF-8" standalone="no"?>
<svg
   xmlns:dc="http://purl.org/dc/elements/1.1/"
   xmlns:cc="http://creativecommons.org/ns#"
   xmlns:rdf="http://www.w3.org/1999/02/22-rdf-syntax-ns#"
   xmlns:svg="http://www.w3.org/2000/svg"
   xmlns="http://www.w3.org/2000/svg"
   xmlns:sodipodi="http://sodipodi.sourceforge.net/DTD/sodipodi-0.dtd"
   xmlns:inkscape="http://www.inkscape.org/namespaces/inkscape"
   version="1.1"
   id="Layer_1"
   x="0px"
   y="0px"
   width="634"
   height="328"
   viewBox="0 0 634 328"
   enable-background="new 0 0 1207 785"
   xml:space="preserve">
<path
   inkscape:connector-curvature="0"
   d="m 284.20847,269.69955 h 29.14737 v 14.57656 h -29.14737 v -14.57656 z m 14.57081,-14.57082 h -43.72394 v 72.87132 h 72.88281 v -14.57656 h -43.72394 v -14.56507 h 43.72394 v -43.72394 h -29.15887 z"
   id="path9" /><polyline
   points="1106.169,555.253 1098.564,555.253 1098.564,567.931 1103.635,567.931 1103.635,560.324 1108.705,560.324   1108.705,567.931 1111.241,567.931 1111.241,555.253 1106.169,555.253 "
   id="polyline11"
   transform="matrix(5.7478559,0,0,5.7478559,-5971.8786,-2936.3855)" /><rect
   x="429.95096"
   y="255.12868"
   width="29.147377"
   height="72.871323"
   id="rect13" /><polyline
   points="1128.99,555.253 1121.383,555.253 1121.383,567.931 1126.455,567.931 1126.455,557.788 1128.99,557.788   1128.99,560.324 1134.063,560.324 1134.063,555.253 1128.99,555.253 "
   id="polyline15"
   transform="matrix(5.7478559,0,0,5.7478559,-5971.8786,-2936.3855)" /><path
   inkscape:connector-curvature="0"
   d="m 619.42342,284.27611 v 14.57656 H 590.2703 v -29.15312 h 29.15312 v 14.57656 m 0,-29.14738 h -58.30625 v 72.87132 h 72.88282 v -72.87132 h -14.57657 z"
   id="path17" /><polyline
   style="fill:#ffe300"
   points="1083.349,510.867 1051.652,510.867 1051.652,548.909 1089.686,548.909 1089.686,510.867   1083.349,510.867 "
   id="polyline19"
   transform="matrix(5.7478559,0,0,5.7478559,-5971.8786,-2936.3855)" /><polyline
   style="fill:#a6ce39"
   points="1064.33,529.888 1051.652,529.888 1051.652,536.227 1070.671,536.227 1070.671,529.888   1064.33,529.888 "
   id="polyline21"
   transform="matrix(5.7478559,0,0,5.7478559,-5971.8786,-2936.3855)" /><polyline
   style="fill:#2e3192"
   points="1064.33,536.227 1051.652,536.227 1051.652,529.888 1038.975,529.888 1038.975,561.589   1070.671,561.589 1070.671,536.227 1064.33,536.227 "
   id="polyline23"
   transform="matrix(5.7478559,0,0,5.7478559,-5971.8786,-2936.3855)" /><polyline
   style="fill:#ffffff"
   points="1064.33,536.227 1051.652,536.227 1051.652,548.909 1070.668,548.909 1070.668,536.227   1064.33,536.227 "
   id="polyline25"
   transform="matrix(5.7478559,0,0,5.7478559,-5971.8786,-2936.3855)" /><rect
   style="fill:#faa61a"
   x="182.1666"
   y="145.76436"
   width="36.447155"
   height="72.905807"
   id="rect27" /><polyline
   style="fill:#a3238e"
   points="1064.33,548.909 1051.652,548.909 1051.652,536.227 1045.311,536.227 1045.311,561.589   1070.668,561.589 1070.668,548.909 1064.33,548.909 "
   id="polyline29"
   transform="matrix(5.7478559,0,0,5.7478559,-5971.8786,-2936.3855)" /><polyline
   style="fill:#ed1c24"
   points="1070.668,548.909 1070.668,561.589 1045.311,561.589 1045.311,567.931 1077.008,567.931   1077.008,548.909 1070.668,548.909 "
   id="polyline31"
   transform="matrix(5.7478559,0,0,5.7478559,-5971.8786,-2936.3855)" />
</svg>