<?xml version="1.0" encoding="UTF-8" standalone="no"?>
<svg
   xmlns:dc="http://purl.org/dc/elements/1.1/"
   xmlns:cc="http://creativecommons.org/ns#"
   xmlns:rdf="http://www.w3.org/1999/02/22-rdf-syntax-ns#"
   xmlns:svg="http://www.w3.org/2000/svg"
   xmlns="http://www.w3.org/2000/svg"
   xmlns:sodipodi="http://sodipodi.sourceforge.net/DTD/sodipodi-0.dtd"
   xmlns:inkscape="http://www.inkscape.org/namespaces/inkscape"
   version="1.1"
   id="Lager_1"
   x="0px"
   y="0px"
   width="1025"
   height="228"
   viewBox="0 0 1025 228"
   enable-background="new 0 0 841.89 595.275"
   xml:space="preserve">
<path
   d="M 264.96526,81.79462 V 227.9559 h 146.1597 v -29.23194 h -87.6959 v -29.23342 h 87.6959 V 81.79462 h -146.1597 l 0,0 z m 116.92768,58.46398 h -58.46388 v -29.23204 h 58.46388 v 29.23204 l 0,0 z"
   id="path3"
   inkscape:connector-curvature="0"
   clip-path="none" /><polygon
   points="474.771,332.49 474.771,233.25 375.532,233.25 375.532,233.25 375.532,332.49 415.227,332.49 415.227,272.946 454.924,272.946 454.924,332.49 "
   id="polygon5"
   transform="matrix(1.47279,0,0,1.47279,-112.72146,-261.73359)"
   clip-path="none" /><polygon
   points="494.619,233.25 494.619,332.49 534.316,332.49 534.316,233.25 494.619,233.25 "
   id="polygon7"
   transform="matrix(1.47279,0,0,1.47279,-112.72146,-261.73359)"
   clip-path="none" /><polygon
   points="653.404,272.946 653.404,233.25 554.164,233.25 554.164,233.25 554.164,332.49 593.859,332.49 593.859,253.098 613.709,253.098 613.709,272.946 "
   id="polygon9"
   transform="matrix(1.47279,0,0,1.47279,-112.72146,-261.73359)"
   clip-path="none" /><path
   d="M 878.83726,81.79462 V 227.9559 H 1025 V 81.79462 H 878.83726 l 0,0 z m 116.92936,87.69592 h -58.4624 v -58.46398 h 58.4624 v 58.46398 l 0,0 z"
   id="path11"
   inkscape:connector-curvature="0"
   clip-path="none" /><polygon
   points="205.057,277.025 205.057,189.397 117.43,189.397 117.43,189.397 117.43,233.21 161.244,233.21 161.244,247.815 175.847,247.815 175.847,277.025 "
   id="polygon13"
   transform="matrix(1.47279,0,0,1.47279,-112.72146,-261.73359)"
   style="fill:#ffe600"
   clip-path="none" /><polygon
   points="161.235,247.815 161.244,247.815 161.244,233.21 117.43,233.21 117.43,247.815 161.235,247.815 "
   id="polygon15"
   transform="matrix(1.47279,0,0,1.47279,-112.72146,-261.73359)"
   style="fill:#7fc31c"
   clip-path="none" /><polygon
   points="88.219,306.233 102.823,306.233 102.823,247.816 117.43,247.816 117.43,247.816 117.43,233.21 88.219,233.21 "
   id="polygon17"
   transform="matrix(1.47279,0,0,1.47279,-112.72146,-261.73359)"
   style="fill:#0a50a1"
   clip-path="none" /><polygon
   points="161.251,277.025 175.848,277.025 175.848,247.815 161.251,247.815 161.251,247.815 161.244,247.815 161.244,277.025 "
   id="polygon19"
   transform="matrix(1.47279,0,0,1.47279,-112.72146,-261.73359)"
   style="fill:#ff7f00"
   clip-path="none" /><polygon
   points="117.428,277.025 117.428,247.815 102.824,247.815 102.824,306.233 102.824,306.233 161.244,306.233 161.244,277.025 "
   id="polygon21"
   transform="matrix(1.47279,0,0,1.47279,-112.72146,-261.73359)"
   style="fill:#660177"
   clip-path="none" /><polygon
   points="161.251,277.025 161.244,277.025 161.244,277.025 161.244,306.235 102.824,306.235 102.824,320.839 175.848,320.839 175.848,277.025 "
   id="polygon23"
   transform="matrix(1.47279,0,0,1.47279,-112.72146,-261.73359)"
   style="fill:#ff0000"
   clip-path="none" /><path
   d="M 189.28444,3.3155052e-4 H 43.018712 c 0,0 0,45.40911844948 0,64.52737144948 -10.752821,0 -43.01871261280003,0 -43.01871261280003,0 V 206.48993 H 21.510094 v 21.51009 H 163.4738 c 0,0 0,-45.40912 0,-64.52877 10.75432,0 43.02022,0 43.02022,0 V 3.3155052e-4 h -17.20958 l 0,0 z m 0,146.26575844948 h -43.01872 v 64.52887 H 38.718172 V 189.28477 H 17.2066 V 81.73584 H 60.226801 V 17.208368 H 189.28296 V 146.26609 l 0.001,0 z"
   id="path25"
   inkscape:connector-curvature="0"
   clip-path="none" /><polygon
   points="161.234,277.026 161.243,277.026 161.243,247.816 117.429,247.816 117.429,277.026 161.234,277.026 "
   id="polygon27"
   transform="matrix(1.47279,0,0,1.47279,-112.72146,-261.73359)"
   style="fill:#ffffff"
   clip-path="none" />
</svg>