<?xml version="1.0" encoding="UTF-8" standalone="no"?>
<svg
   xmlns:dc="http://purl.org/dc/elements/1.1/"
   xmlns:cc="http://creativecommons.org/ns#"
   xmlns:rdf="http://www.w3.org/1999/02/22-rdf-syntax-ns#"
   xmlns:svg="http://www.w3.org/2000/svg"
   xmlns="http://www.w3.org/2000/svg"
   xmlns:sodipodi="http://sodipodi.sourceforge.net/DTD/sodipodi-0.dtd"
   xmlns:inkscape="http://www.inkscape.org/namespaces/inkscape"
   version="1.1"
   id="Layer_1"
   x="0px"
   y="0px"
   width="414"
   height="475"
   viewBox="0 0 414.00001 474.99999"
   enable-background="new 0 0 1777.32 841.89"
   xml:space="preserve">
<path
   clip-path="url(#SVGID_2_)"
   d="m 326.14894,470.09458 c -3.32956,0.20882 -6.15011,-0.96878 -6.15011,-5.77605 v -12.98706 h 5.42042 c 0.009,0 0.0274,0 0.0274,0 1.18344,0 2.14001,-0.96267 2.14001,-2.13992 0,-1.17733 -0.95657,-2.14612 -2.14001,-2.14612 h -5.45106 v -4.28603 c 0,-0.0365 0.006,-0.0821 0.006,-0.11673 0,-1.22639 -0.99332,-2.2197 -2.21971,-2.2197 -1.2263,0 -2.21351,0.99331 -2.21351,2.2197 h -0.006 v 4.40258 h -2.50786 c -1.18336,0 -2.13992,0.96268 -2.13992,2.14612 0,1.17113 0.95656,2.13992 2.13992,2.13992 0.009,0 0.0274,0 0.0365,0 h 2.47103 v 12.98705 c 0,6.82455 4.20022,10.36256 10.47298,9.94565 0.0365,0 0.073,0.006 0.11034,0.006 1.15272,0 2.08475,-0.93815 2.08475,-2.08475 0,-1.15891 -0.93203,-2.09095 -2.08475,-2.09095"
   id="path105"
   inkscape:connector-curvature="0"
   style="fill:#0079c1;fill-opacity:1" /><path
   clip-path="url(#SVGID_2_)"
   d="m 282.58915,460.89695 c 0.0638,-3.88745 -1.53288,-7.81794 -4.24318,-10.58332 -2.56915,-2.59988 -5.93546,-4.03463 -9.4857,-4.03463 -7.56043,0 -13.72285,6.49343 -13.72285,14.45856 0,7.99576 6.16242,14.26241 14.02323,14.26241 3.5258,0 6.52417,-0.91361 8.86652,-2.87581 l 0.006,0.006 c 1.37348,-1.03006 2.36069,-2.52619 2.99846,-3.80775 1.34895,-2.69799 -2.36078,-4.53745 -3.63614,-2.25646 -0.52707,1.01174 -1.20186,1.85176 -1.98672,2.53239 -1.73523,1.40412 -4.04074,2.12159 -6.65904,2.12159 -5.05247,0 -8.53532,-3.54412 -9.22206,-8.58447 0,-0.15958 0.11034,-0.25168 0.33101,-0.25168 l 21.43648,0.006 v 0.006 c 1.15892,0 1.29378,-0.0638 1.29378,-0.99952 m -4.95444,-3.28661 -17.89847,-0.006 c -0.17143,0 -0.21429,-0.0456 -0.1842,-0.17144 1.26925,-4.06527 5.08321,-6.81232 9.19754,-6.81232 4.07758,0 7.7015,2.71641 9.01981,6.76336 0.0456,0.16505 0.0274,0.22067 -0.13496,0.22706"
   id="path107"
   inkscape:connector-curvature="0"
   style="fill:#0079c1;fill-opacity:1" /><path
   clip-path="url(#SVGID_2_)"
   d="m 297.87552,446.279 h -0.11672 c -3.2744,0 -6.25434,1.17113 -8.40046,3.32336 -2.14001,2.14612 -3.31115,5.11995 -3.31115,8.39435 l -0.009,14.09681 c 0,2.86961 4.29835,2.85739 4.30446,0.006 v -14.10292 c 0,-2.07864 0.74228,-3.95503 2.09095,-5.28556 1.34284,-1.34895 3.23756,-2.08484 5.32851,-2.08484 h 0.0821 c 4.22476,0.0456 7.2906,3.13953 7.2906,7.3704 l 0.009,14.18262 c 0.0821,2.75927 4.21254,2.74094 4.29224,0 v -14.18262 c 0,-6.73883 -4.86244,-11.66255 -11.55831,-11.71771"
   id="path109"
   inkscape:connector-curvature="0"
   style="fill:#0079c1;fill-opacity:1" /><path
   clip-path="url(#SVGID_2_)"
   d="m 71.057002,470.09458 c -3.329563,0.20882 -6.150112,-0.96878 -6.150112,-5.77605 v -12.98706 h 5.420422 c 0.0091,0 0.02736,0 0.03648,0 1.177242,0 2.133809,-0.96267 2.133809,-2.13992 0,-1.17733 -0.956567,-2.14612 -2.133809,-2.14612 h -5.457262 v -4.28603 c 0,-0.0365 0.0061,-0.0821 0.0061,-0.11673 0,-1.22639 -0.993315,-2.2197 -2.219708,-2.2197 -1.220192,0 -2.213508,0.99331 -2.213508,2.2197 h -0.0061 v 4.40258 h -2.507863 c -1.183444,0 -2.14001,0.96268 -2.14001,2.14612 0,1.17113 0.956566,2.13992 2.14001,2.13992 0.0091,0 0.02736,0 0.03648,0 h 2.471115 v 12.98705 c 0,6.82455 4.20023,10.36256 10.466789,9.94565 0.04559,0 0.08207,0.006 0.116721,0.006 1.152804,0 2.08475,-0.93815 2.08475,-2.08475 0,-1.15891 -0.931946,-2.09095 -2.08475,-2.09095"
   id="path111"
   inkscape:connector-curvature="0"
   style="fill:#0079c1;fill-opacity:1" /><path
   clip-path="url(#SVGID_2_)"
   d="m 101.03501,460.89695 c 0.0638,-3.88745 -1.539076,-7.81794 -4.249287,-10.58332 -2.569234,-2.59988 -5.929345,-4.03463 -9.485784,-4.03463 -7.560432,0 -13.716653,6.49343 -13.716653,14.45856 0,7.99576 6.156221,14.26241 14.017119,14.26241 3.531818,0 6.524166,-0.91361 8.872633,-2.87581 v 0.006 c 1.379589,-1.03006 2.366795,-2.52619 3.004476,-3.80775 1.342836,-2.69799 -2.366796,-4.53745 -3.636047,-2.25646 -0.533452,1.01174 -1.207973,1.85176 -1.992832,2.53239 -1.735315,1.40412 -4.040832,2.12159 -6.659034,2.12159 -5.052568,0 -8.529217,-3.54412 -9.216049,-8.58447 0,-0.15958 0.103955,-0.25168 0.324631,-0.25168 l 21.442683,0.006 v 0.006 c 1.152714,0 1.293784,-0.0638 1.293784,-0.99952 m -4.960561,-3.28661 -17.892353,-0.006 h -0.0062 c -0.165051,0 -0.208822,-0.0456 -0.177818,-0.17144 1.269343,-4.06527 5.077098,-6.81232 9.191519,-6.81232 4.083691,0 7.701409,2.71641 9.01972,6.76336 0.05471,0.16505 0.02736,0.22067 -0.134959,0.22706"
   id="path113"
   inkscape:connector-curvature="0"
   style="fill:#0079c1;fill-opacity:1" /><path
   clip-path="url(#SVGID_2_)"
   d="m 27.497207,460.89695 c 0.06383,-3.88745 -1.532878,-7.81794 -4.243089,-10.58332 -2.569233,-2.59988 -5.935545,-4.03463 -9.485784,-4.03463 -7.5604314,0 -13.72276229,6.49343 -13.72276229,14.45856 0,7.99576 6.16233089,14.26241 14.02322829,14.26241 3.525709,0 6.517966,-0.91361 8.872542,-2.87581 v 0.006 c 1.373571,-1.03006 2.360777,-2.52619 2.998458,-3.80775 1.34895,-2.69799 -2.360686,-4.53745 -3.630029,-2.25646 -0.533452,1.01174 -1.207882,1.85176 -1.99274,2.53239 -1.735316,1.40412 -4.040833,2.12159 -6.659035,2.12159 -5.0525675,0 -8.5354179,-3.54412 -9.2221579,-8.58447 0,-0.15958 0.110338,-0.25168 0.331014,-0.25168 l 21.4364819,0.006 v 0.006 c 1.158914,0 1.293781,-0.0638 1.293781,-0.99952 m -4.954357,-3.28661 -17.8985544,-0.006 c -0.1714342,0 -0.2142928,-0.0456 -0.1842006,-0.17144 1.2692516,-4.06527 5.0832072,-6.81232 9.197629,-6.81232 4.077581,0 7.701409,2.71641 9.01972,6.76336 0.04559,0.16505 0.02736,0.22067 -0.134959,0.22706"
   id="path115"
   inkscape:connector-curvature="0"
   style="fill:#0079c1;fill-opacity:1" /><path
   clip-path="url(#SVGID_2_)"
   d="m 193.24994,446.279 h -0.11672 c -3.2682,0 -6.24823,1.17113 -8.40046,3.32336 -2.14612,2.14612 -3.31115,5.11995 -3.31115,8.39435 l -0.009,14.09681 c 0,2.86961 4.29834,2.85739 4.30445,0.006 v -14.10292 c 0,-2.07864 0.74775,-3.95503 2.09095,-5.28556 1.34895,-1.34895 3.23756,-2.08484 5.32851,-2.08484 h 0.0821 c 4.22476,0.0456 7.29671,3.13953 7.29671,7.3704 l 0.009,14.18262 c 0.0729,2.75927 4.20634,2.74094 4.27993,0 l 0.006,-14.18262 c 0,-6.73883 -4.86244,-11.66255 -11.55831,-11.71771"
   id="path117"
   inkscape:connector-curvature="0"
   style="fill:#0079c1;fill-opacity:1" /><path
   clip-path="url(#SVGID_2_)"
   d="m 42.777467,446.279 h -0.116721 c -3.268193,0 -6.24823,1.17113 -8.39435,3.32336 -2.146119,2.14612 -3.317252,5.11995 -3.317252,8.39435 l -0.0091,14.09681 c 0,2.86961 4.298349,2.85739 4.30455,0.006 v -14.10292 c 0,-2.07864 0.742273,-3.95503 2.096968,-5.28556 1.342932,-1.34895 3.231444,-2.08484 5.322395,-2.08484 h 0.08207 c 4.22476,0.0456 7.296715,3.13953 7.296715,7.3704 l 0.0091,14.18262 c 0.07295,2.75927 4.206339,2.74094 4.286038,0 v -14.18262 c 0.0061,-6.73883 -4.85633,-11.66255 -11.558314,-11.71771"
   id="path119"
   inkscape:connector-curvature="0"
   style="fill:#0079c1;fill-opacity:1" /><path
   clip-path="url(#SVGID_2_)"
   d="m 239.97981,446.279 h -0.11672 c -3.2744,0 -6.24823,1.17113 -8.39435,3.32336 -0.43497,0.42949 -0.82161,0.89547 -1.17734,1.39801 -2.0418,-2.90025 -5.402,-4.69074 -9.42441,-4.72137 h -0.11672 c -3.2743,0 -6.24823,1.17113 -8.40046,3.32336 -2.14612,2.14612 -3.31725,5.11995 -3.31725,8.39435 l -0.006,14.09681 c 0,2.86961 4.29834,2.85739 4.30445,0.006 v -14.10292 c 0,-2.07864 0.74228,-3.95503 2.09095,-5.28556 1.34285,-1.34895 3.23756,-2.08484 5.32842,-2.08484 h 0.0821 c 4.22476,0.0456 7.2968,3.13953 7.2968,7.3704 l 0.006,14.18262 c 0.0365,1.29378 0.96879,1.97441 1.95599,2.06031 1.1405,0.0921 2.34847,-0.62555 2.35458,-2.14001 v -14.10292 c 0,-2.07864 0.74227,-3.95503 2.09706,-5.28556 1.33673,-1.34895 3.23144,-2.08484 5.32239,-2.08484 h 0.0821 c 4.22476,0.0456 7.29672,3.13953 7.29672,7.3704 l 0.006,14.18262 c 0.0821,2.75927 4.21254,2.74094 4.29224,0 v -14.18262 c 0,-6.73883 -4.86244,-11.66255 -11.55832,-11.71771"
   id="path121"
   inkscape:connector-curvature="0"
   style="fill:#0079c1;fill-opacity:1" /><path
   clip-path="url(#SVGID_2_)"
   d="m 342.78426,446.26668 c -7.59718,0 -13.76571,6.43216 -13.76571,14.34212 0,7.90996 6.16853,14.34211 13.76571,14.34211 7.59107,0 13.76571,-6.43215 13.76571,-14.34211 0,-7.90996 -6.17464,-14.34212 -13.76571,-14.34212 m 0,22.83459 c -4.35352,0 -7.89153,-3.80785 -7.89153,-8.49247 0,-4.69073 3.53801,-8.49858 7.89153,-8.49858 4.34741,0 7.88543,3.80785 7.88543,8.49858 0,4.67851 -3.53802,8.49247 -7.88543,8.49247"
   id="path123"
   inkscape:connector-curvature="0"
   style="fill:#0079c1;fill-opacity:1" /><path
   clip-path="url(#SVGID_2_)"
   d="m 371.46238,446.26668 c -3.37251,0 -6.45058,1.2202 -8.67028,3.44602 -2.21971,2.20128 -3.4338,5.28555 -3.4338,8.67028 l -0.009,12.91338 c 0,2.02347 1.5574,3.09046 3.09648,3.09046 1.53908,0 3.10269,-1.06079 3.10269,-3.09046 v -12.91338 c 0,-1.66783 0.58816,-3.17627 1.65552,-4.22476 1.0608,-1.06079 2.58756,-1.6433 4.32288,-1.6433 3.36631,0.0273 5.8129,2.49564 5.8129,5.86806 l 0.006,13.0177 c 0.0547,1.95599 1.60035,2.97994 3.09037,2.97994 1.49613,0 3.04132,-1.03006 3.09038,-3.01068 l 0.006,-12.98696 c 0,-6.97181 -5.07701,-12.06113 -12.06715,-12.1163"
   id="path125"
   inkscape:connector-curvature="0"
   style="fill:#0079c1;fill-opacity:1" /><path
   clip-path="url(#SVGID_2_)"
   d="m 413.99193,460.8541 c 0.0638,-3.83849 -1.51446,-7.7812 -4.22476,-10.52816 -2.57525,-2.61219 -5.94776,-4.04083 -9.50411,-4.04083 -7.56654,0 -13.72286,6.46279 -13.72286,14.4095 0,7.98965 6.15021,14.23177 13.99879,14.23177 3.54413,0 6.50575,-0.95656 8.79285,-2.83286 l 0.0456,-0.0365 c 1.50224,-1.12818 2.34236,-2.1215 2.91256,-3.26199 0.49698,-1.00563 0.48421,-2.07873 -0.0547,-2.94329 -0.53346,-0.85808 -1.53908,-1.41643 -2.55082,-1.41643 -0.99942,0 -1.80881,0.55807 -2.38521,1.44096 -0.36202,0.56445 -1.07311,1.20186 -1.4778,1.4778 -1.43476,1.16502 -3.39084,1.78428 -5.65952,1.78428 -3.88144,0 -6.81852,-2.56303 -7.6156,-6.48122 l 19.34553,0.006 c 1.19575,0 2.10317,-0.14134 2.10317,-1.80881 m -13.8331,-8.73156 c 3.09648,0 5.89871,1.8824 7.21702,4.7459 l -14.5751,-0.006 c 1.3122,-2.83286 4.20633,-4.73979 7.35808,-4.73979"
   id="path127"
   inkscape:connector-curvature="0"
   style="fill:#0079c1;fill-opacity:1" /><path
   clip-path="url(#SVGID_2_)"
   d="m 117.4006,447.05765 v -0.009 c -2.20129,0 -5.70867,1.10375 -7.76889,3.99789 v -2.59988 h -0.006 c 0,-1.19566 -0.96879,-2.17064 -2.15834,-2.17064 -1.19566,0 -2.16454,0.96887 -2.16454,2.17064 v 23.56419 c 0,1.23861 0.99952,2.23201 2.22582,2.23201 1.2325,0 2.23202,-0.9934 2.23202,-2.23201 h 0.0273 v -12.56385 c 0,-5.45106 4.02242,-7.97735 7.60949,-7.95902 v -0.0182 c 1.2202,0 2.20129,-0.9872 2.20129,-2.20129 0,-1.22028 -0.98109,-2.20749 -2.20129,-2.20749"
   id="path129"
   inkscape:connector-curvature="0"
   style="fill:#0079c1;fill-opacity:1" /><path
   clip-path="url(#SVGID_2_)"
   d="m 137.65975,470.09458 c -3.32948,0.20882 -6.15012,-0.96878 -6.15012,-5.77605 v -12.98706 h 5.42043 c 0.006,0 0.0182,0 0.0274,0 1.18335,0 2.13992,-0.96267 2.13992,-2.13992 0,-1.17733 -0.95657,-2.14612 -2.13992,-2.14612 h -5.45115 v -4.28603 c 0,-0.0365 0.006,-0.0821 0.006,-0.11673 0,-1.22639 -0.99332,-2.2197 -2.21962,-2.2197 -1.22639,0 -2.2136,0.99331 -2.2136,2.2197 h -0.006 v 4.40258 h -2.50786 c -1.18344,0 -2.14001,0.96268 -2.14001,2.14612 0,1.17113 0.95657,2.13992 2.14001,2.13992 0.009,0 0.0182,0 0.0274,0 h 2.47722 v 12.98705 c 0,6.82455 4.20023,10.36256 10.46688,9.94565 0.0456,0 0.0821,0.006 0.11672,0.006 1.15281,0 2.08484,-0.93815 2.08484,-2.08475 0.006,-1.15891 -0.92592,-2.09095 -2.08484,-2.09095"
   id="path131"
   inkscape:connector-curvature="0"
   style="fill:#0079c1;fill-opacity:1" /><path
   clip-path="url(#SVGID_2_)"
   d="m 165.36288,446.30353 c -1.19566,0 -2.16445,0.96267 -2.16445,2.15833 v 2.92487 c -1.90091,-2.74705 -5.38978,-5.01582 -9.39998,-5.01582 -7.81794,0 -13.62464,6.44447 -13.62464,14.30537 0,7.86701 5.8067,14.25621 13.62464,14.25621 4.0102,0 7.49907,-2.26256 9.39998,-5.06478 v 2.31782 c 0,1.19567 0.96879,2.16445 2.16445,2.16445 1.19566,0 2.16454,-0.96267 2.16454,-2.16445 v -23.71756 c 0,-1.20177 -0.96888,-2.16444 -2.16454,-2.16444 m -11.56443,24.34293 c -5.11995,0 -9.13625,-4.48848 -9.13625,-9.92732 0,-5.54307 4.0163,-10.08663 9.13625,-10.08663 5.01573,0 9.24049,4.53745 9.24049,10.08663 0,5.43884 -4.22476,9.92732 -9.24049,9.92732"
   id="path133"
   inkscape:connector-curvature="0"
   style="fill:#0079c1;fill-opacity:1" /><path
   clip-path="url(#SVGID_2_)"
   d="m 176.99478,448.45575 v 23.71747 h -0.009 c -0.0921,1.15892 -1.05459,2.06022 -2.23192,2.06022 -1.18345,0 -2.14612,-0.89547 -2.23804,-2.06022 h -0.006 v -23.71747 c 0,-1.2325 0.99951,-2.23812 2.24424,-2.23812 1.2325,0 2.24423,1.00562 2.24423,2.23812 m -2.44658,-5.05256 c 1.42254,0 2.56923,-1.15281 2.56923,-2.56924 0,-1.41643 -1.14669,-2.57525 -2.56923,-2.57525 -1.42254,0 -2.56914,1.15271 -2.56914,2.57525 0,1.42263 1.1466,2.56924 2.56914,2.56924"
   id="path135"
   inkscape:connector-curvature="0"
   style="fill:#0079c1;fill-opacity:1" /><path
   clip-path="url(#SVGID_2_)"
   d="m 80.671544,287.39986 c -21.920875,0 -39.672251,18.98999 -39.672251,42.4132 0,23.41089 17.751376,42.40079 39.672251,42.40079 21.902546,0 39.672246,-18.9899 39.672246,-42.40079 -0.006,-23.42932 -17.7759,-42.4132 -39.672246,-42.4132"
   id="path137"
   inkscape:connector-curvature="0"
   style="fill:#0079c1;fill-opacity:1" /><path
   clip-path="url(#SVGID_2_)"
   d="m 319.3979,287.46123 c -17.37121,0 -33.46697,11.59507 -38.82612,28.74551 -0.12857,0.57631 0.0547,0.75413 0.75413,0.75413 h 0.0182 l 75.57961,0.0182 c 0.66841,-0.0182 0.77236,-0.26992 0.57631,-0.9873 -5.5738,-17.04612 -20.86017,-28.53085 -38.10254,-28.53085"
   id="path139"
   inkscape:connector-curvature="0"
   style="fill:#0079c1;fill-opacity:1" /><path
   clip-path="url(#SVGID_2_)"
   d="m 42.023339,184.68131 h 0.01824 l 75.579603,0.0182 c 0.66841,-0.0182 0.77875,-0.26992 0.57631,-0.98721 -5.57371,-17.04621 -20.860077,-28.53705 -38.10864,-28.53705 -17.371211,0 -33.460769,11.60117 -38.826022,28.74551 -0.123105,0.58269 0.05471,0.76051 0.760511,0.76051"
   id="path141"
   inkscape:connector-curvature="0"
   style="fill:#0079c1;fill-opacity:1" /><path
   clip-path="url(#SVGID_2_)"
   d="M 413.74672,82.275439 C 413.61815,36.814821 378.26239,-4.0314033e-5 334.66585,-4.0314033e-5 H 0.04557171 V 329.26729 c -0.01823768,0.69942 -0.04559420816,1.41032 -0.04559420816,2.1277 0,45.56485 35.392231498158,82.50847 79.062364498158,82.52078 l 0.02736,0.0274 H 413.99211 V 82.523472 L 413.7532,82.278175 z M 80.579535,136.86612 c 14.998215,0 29.199265,6.05819 40.046305,17.04621 11.45409,11.6319 18.21735,28.26112 17.92919,44.66345 0,3.99177 -0.57631,4.21865 -5.46948,4.21865 v -0.0182 l -90.541069,-0.0274 c -0.919726,0 -1.38579,0.38025 -1.38579,1.0669 2.912649,21.2894 17.585777,36.26919 38.936451,36.26919 11.061611,0 20.804908,-3.02299 28.132358,-8.96464 3.31725,-2.88192 6.16853,-6.41985 8.40657,-10.68145 5.36525,-9.63907 21.01957,-1.87018 15.34774,9.51642 -2.69799,5.41432 -6.86138,11.73003 -12.68039,16.07123 l -0.006,-0.0182 c -9.90881,8.30234 -22.570867,12.16535 -37.458653,12.16535 -33.197143,0 -59.220129,-26.46452 -59.220129,-60.23806 0,-33.68154 26.022986,-61.07199 57.963097,-61.07199 m 0.08207,253.71226 c -32.13024,0 -58.153317,-27.21254 -58.153317,-60.76532 0,-33.57119 26.023077,-60.75309 58.153317,-60.75309 32.117925,0 58.159335,27.188 58.159335,60.75309 0,33.55278 -26.04141,60.76532 -58.159335,60.76532 M 249.66411,379.22605 c -0.32463,11.70541 -17.91077,11.71772 -18.23577,0 l -0.0547,-60.30554 c 0,-18.03333 -13.05445,-31.22273 -31.03261,-31.36371 l -0.32463,-0.0182 c -8.90327,0 -16.96031,3.15175 -22.67509,8.84811 -5.73931,5.68404 -8.90327,13.68601 -8.90327,22.53402 v 59.99897 c -0.0182,12.11621 -18.30936,12.15305 -18.30936,-0.0182 l 0.0365,-59.98055 c 0,-13.93733 4.98509,-26.63613 14.12135,-35.73564 9.13626,-9.13015 21.81054,-14.13366 35.72954,-14.13366 h 0.48421 c 28.50021,0.22068 49.18256,21.18517 49.18256,49.8693 l -0.0182,60.30555 z m 122.72028,-44.15452 v -0.0182 l -90.54098,-0.009 c -0.91982,0 -1.38579,0.38026 -1.38579,1.05469 2.91255,21.30161 17.58577,36.2753 38.93034,36.2753 11.06772,0 20.81102,-3.02299 28.13226,-8.96465 3.31735,-2.88182 6.16854,-6.42595 8.40666,-10.68755 5.37137,-9.63296 21.02568,-1.85787 15.35385,9.52253 -2.69799,5.42051 -6.86758,11.73613 -12.68047,16.07132 l -0.009,-0.009 c -9.9089,8.29623 -22.56476,12.15925 -37.45255,12.15925 -33.19714,0 -59.22022,-26.46452 -59.22022,-60.24418 0,-33.67542 26.02308,-61.06587 57.95708,-61.06587 14.99822,0 29.20537,6.05819 40.04622,17.04621 11.46019,11.63191 18.22355,28.26723 17.9353,44.66956 0,3.99789 -0.57631,4.20643 -5.46948,4.20643"
   id="path143"
   inkscape:connector-curvature="0"
   style="fill:#0079c1;fill-opacity:1" />
</svg>