<?xml version="1.0" encoding="utf-8"?>
<!-- Generator: Adobe Illustrator 16.0.0, SVG Export Plug-In . SVG Version: 6.00 Build 0)  -->
<!DOCTYPE svg PUBLIC "-//W3C//DTD SVG 1.1//EN" "http://www.w3.org/Graphics/SVG/1.1/DTD/svg11.dtd">
<svg version="1.1" id="svg2964" xmlns:svg="http://www.w3.org/2000/svg"
	 xmlns="http://www.w3.org/2000/svg" xmlns:xlink="http://www.w3.org/1999/xlink" x="0px" y="0px" width="190px" height="45.75px"
	 viewBox="4.5 1.408 190 45.75" enable-background="new 4.5 1.408 190 45.75" xml:space="preserve">
<g id="layer1" transform="translate(-281.11032,-466.18907)">
	<path id="path20173" fill="#0064A8" d="M376.69,467.644c-7.882,0-16.298,4.256-16.298,13.174c0,8.004,6.471,10.529,13.197,12.306
		c6.418,1.711,13.071,2.576,13.071,7.284c0,4.459-5.444,5.425-8.798,5.425c-5.133,0-9.971-2.064-9.971-8.064h-8.966
		c-0.121,11,8.914,15.52,18.56,15.52c11.86,0,18.142-5.98,18.142-13.984c0-9.897-9.937-11.812-13.114-12.606
		c-10.935-2.813-13.155-3.342-13.155-6.702c0-3.668,3.853-4.895,6.913-4.895c4.58,0,8.614,1.668,8.924,6.668h8.966
		C394.161,471.768,385.79,467.644,376.69,467.644z M417.623,467.598c-12.874,0-20.278,9.652-20.278,22.875
		c0,13.228,7.404,22.875,20.278,22.875c12.876,0,20.319-9.647,20.319-22.875C437.942,477.25,430.499,467.598,417.623,467.598z
		 M285.61,468.768v43h33v-7h-24v-11h22v-8h-22v-9h24v-8H285.61z M322.61,468.768v43h9v-13h7.708c10.995,0,18.393-5.29,18.393-15
		c0-9.708-7.397-15-18.393-15H322.61z M441.61,468.768v43h9v-17.19c0-4.786-0.41-9.025-0.572-12.778
		c1.041,2.16,4.078,8.502,5.537,10.941l11.318,19.027h8.717v-43h-8v17.18c0,4.779,0.022,9.488,0.187,13.239
		c-1.041-2.16-4.261-8.731-5.731-11.166l-11.512-19.253H441.61z M417.623,475.306c8.177,0,11.354,7.52,11.354,15.167
		c0,7.652-3.178,15.208-11.354,15.208c-8.179,0-11.312-7.556-11.312-15.208C406.311,482.825,409.444,475.306,417.623,475.306z
		 M331.61,476.768h7.708c5.649,0,9.427,2.538,9.427,7.5c0,4.966-3.777,7.5-9.427,7.5h-7.708V476.768z"/>
</g>
</svg>
