<?xml version="1.0" encoding="UTF-8" standalone="no"?>
<svg
   xmlns:dc="http://purl.org/dc/elements/1.1/"
   xmlns:cc="http://creativecommons.org/ns#"
   xmlns:rdf="http://www.w3.org/1999/02/22-rdf-syntax-ns#"
   xmlns:svg="http://www.w3.org/2000/svg"
   xmlns="http://www.w3.org/2000/svg"
   xmlns:xlink="http://www.w3.org/1999/xlink"
   xmlns:sodipodi="http://sodipodi.sourceforge.net/DTD/sodipodi-0.dtd"
   xmlns:inkscape="http://www.inkscape.org/namespaces/inkscape"
   version="1.1"
   id="Layer_1"
   x="0px"
   y="0px"
   width="892"
   height="177"
   viewBox="0 0 892 177"
   enable-background="new 0 0 581 827"
   xml:space="preserve">

<polyline
   style="fill:#009ad9"
   id="polyline197"
   points="56.882,757.72 67.196,757.72 67.196,760.523 60.523,760.523      60.523,762.945 66.924,762.945 66.924,765.856 60.523,765.856 60.523,768.36 67.305,768.36 67.305,771.185 56.882,771.185      56.882,757.72    "
   clip-path="url(#SVGID_32_)"
   transform="matrix(7.0051054,0,0,7.0051054,-398.46441,-5253.5533)" /><polyline
   style="fill:#009ad9"
   id="polyline199"
   points="83.224,757.72 86.898,757.72 86.898,771.217 83.229,771.217      83.224,757.72    "
   clip-path="url(#SVGID_32_)"
   transform="matrix(7.0051054,0,0,7.0051054,-398.46441,-5253.5533)" /><path
   style="fill:#009ad9"
   id="path201"
   d="m 100.286,758.128 -0.245,2.885 c -2.966,-1.715 -7.51,-1.171 -7.592,3.319 -0.082,4.49 4.681,5.144 7.701,3.62 l 0.191,2.938 c -5.334,1.66 -11.702,-0.027 -11.675,-6.559 0.028,-6.393 6.45,-8.162 11.62,-6.203 z"
   clip-path="url(#SVGID_32_)"
   transform="matrix(7.0051054,0,0,7.0051054,-398.46441,-5253.5533)" /><path
   style="fill:none;stroke:#009ad9;stroke-width:0.054;stroke-miterlimit:3.86400008"
   id="path203"
   d="m 100.286,758.128 -0.245,2.885 c -2.966,-1.715 -7.51,-1.171 -7.592,3.319 -0.082,4.49 4.681,5.144 7.701,3.62 l 0.191,2.938 c -5.334,1.66 -11.702,-0.027 -11.675,-6.559 0.028,-6.393 6.45,-8.162 11.62,-6.203 z"
   stroke-miterlimit="3.864"
   clip-path="url(#SVGID_32_)"
   transform="matrix(7.0051054,0,0,7.0051054,-398.46441,-5253.5533)" /><path
   style="fill:#009ad9"
   id="path205"
   d="m 111.09,757.938 -0.245,2.774 c -1.851,-1.007 -5.361,-1.034 -5.361,0.544 0,2.341 6.259,0.654 6.259,5.661 0,4.925 -5.96,4.98 -9.824,3.837 l 0.272,-2.938 c 2.422,1.114 5.851,1.359 5.851,-0.572 0,-2.122 -6.286,-0.925 -6.286,-5.688 0,-3.904 4.898,-4.952 9.334,-3.618"
   clip-path="url(#SVGID_32_)"
   transform="matrix(7.0051054,0,0,7.0051054,-398.46441,-5253.5533)" /><path
   style="fill:#009ad9"
   id="path207"
   d="m 122.165,757.938 -0.245,2.774 c -1.85,-1.007 -5.361,-1.034 -5.361,0.544 0,2.341 6.259,0.654 6.259,5.661 0,4.925 -5.959,4.98 -9.824,3.837 l 0.273,-2.938 c 2.421,1.114 5.85,1.359 5.85,-0.572 0,-2.122 -6.286,-0.925 -6.286,-5.688 0,-3.904 4.898,-4.952 9.334,-3.618"
   clip-path="url(#SVGID_32_)"
   transform="matrix(7.0051054,0,0,7.0051054,-398.46441,-5253.5533)" /><polyline
   style="fill:#009ad9"
   id="polyline209"
   points="139.064,757.72 143.717,757.72 148.153,766.428 148.153,757.72      151.527,757.72 151.527,771.217 147.146,771.217 142.466,762.346 142.466,771.217 139.064,771.217 139.064,757.72    "
   clip-path="url(#SVGID_32_)"
   transform="matrix(7.0051054,0,0,7.0051054,-398.46441,-5253.5533)" /><path
   style="fill:#009ad9"
   id="path211"
   d="M 166.766,762.836"
   clip-path="url(#SVGID_32_)"
   transform="matrix(7.0051054,0,0,7.0051054,-398.46441,-5253.5533)" /><path
   style="fill:none;stroke:#231f20;stroke-width:0.054;stroke-miterlimit:3.86400008"
   id="path213"
   d="M 166.766,762.836"
   stroke-miterlimit="3.864"
   clip-path="url(#SVGID_32_)"
   transform="matrix(7.0051054,0,0,7.0051054,-398.46441,-5253.5533)" /><path
   style="fill:#009ad9"
   id="path215"
   d="m 165.134,766.02 c -0.428,-1.288 0.2,-2.674 1.469,-3.156 l 14.205,-5.226 c 1.289,-0.488 2.736,0.132 3.238,1.415 0.514,1.314 -0.167,2.821 -1.496,3.293 l -14.233,5.252 c -1.317,0.429 -2.747,-0.263 -3.183,-1.578"
   clip-path="url(#SVGID_32_)"
   transform="matrix(7.0051054,0,0,7.0051054,-398.46441,-5253.5533)" /><path
   style="fill:#009ad9"
   id="path217"
   d="m 165.132,758.509 c -0.427,-1.289 0.201,-2.673 1.47,-3.156 l 14.205,-5.225 c 1.288,-0.49 2.736,0.131 3.238,1.415 0.514,1.313 -0.167,2.822 -1.497,3.293 l -14.232,5.252 c -1.318,0.428 -2.747,-0.263 -3.184,-1.579"
   clip-path="url(#SVGID_32_)"
   transform="matrix(7.0051054,0,0,7.0051054,-398.46441,-5253.5533)" /><path
   style="fill:#009ad9"
   id="path219"
   d="m 165.131,773.525 c -0.425,-1.29 0.2,-2.675 1.469,-3.157 l 14.205,-5.226 c 1.289,-0.488 2.733,0.134 3.238,1.415 0.518,1.313 -0.167,2.822 -1.496,3.293 l -14.232,5.252 c -1.32,0.426 -2.751,-0.261 -3.184,-1.577"
   clip-path="url(#SVGID_32_)"
   transform="matrix(7.0051054,0,0,7.0051054,-398.46441,-5253.5533)" /><path
   style="fill:#009ad9"
   id="path221"
   d="m 127.662,764.387 c 10e-4,2.058 0.881,4.383 2.939,4.381 2.058,-0.002 2.922,-2.323 2.939,-4.381 0.015,-1.861 -0.882,-4.379 -2.939,-4.381 -2.058,-0.003 -2.94,2.323 -2.939,4.381 m 2.939,-7.103 c 3.814,0.002 6.721,2.231 6.721,7.103 0,4.653 -2.923,7.046 -6.721,7.048 -3.791,0.002 -6.694,-2.34 -6.694,-7.048 0,-4.871 2.888,-7.105 6.694,-7.103 z"
   clip-path="url(#SVGID_32_)"
   transform="matrix(7.0051054,0,0,7.0051054,-398.46441,-5253.5533)" /><path
   style="fill:#009ad9"
   id="path223"
   d="m 73.373,763.407 h 2.014 c 0.905,0.015 1.721,-0.529 1.714,-1.524 -0.006,-0.883 -0.727,-1.509 -1.66,-1.496 h -2.068 v 3.02 m -3.505,-5.687 h 6.607 c 1.796,0 4.3,0.789 4.3,3.592 0,1.797 -0.817,2.804 -2.368,3.266 0.028,-0.027 0.878,0.314 1.225,1.361 0.011,0.034 1.892,5.267 1.912,5.278 h -3.899 l -1.387,-4.054 c -0.214,-0.623 -0.676,-1.035 -1.334,-1.035 -0.571,0 -1.469,-0.038 -1.469,0 v 5.089 h -3.592 l 0.005,-13.497 z"
   clip-path="url(#SVGID_32_)"
   transform="matrix(7.0051054,0,0,7.0051054,-398.46441,-5253.5533)" />

</svg>