<?xml version="1.0" encoding="UTF-8" standalone="no"?>
<svg
   xmlns:dc="http://purl.org/dc/elements/1.1/"
   xmlns:cc="http://creativecommons.org/ns#"
   xmlns:rdf="http://www.w3.org/1999/02/22-rdf-syntax-ns#"
   xmlns:svg="http://www.w3.org/2000/svg"
   xmlns="http://www.w3.org/2000/svg"
   xmlns:sodipodi="http://sodipodi.sourceforge.net/DTD/sodipodi-0.dtd"
   xmlns:inkscape="http://www.inkscape.org/namespaces/inkscape"
   version="1.1"
   x="0px"
   y="0px"
   width="703"
   height="496"
   viewBox="0 0 703 496"
   enable-background="new 0 0 612 792"
   xml:space="preserve"
   id="svg2">
<path
   d="M 351.26994,2.908226e-4 C 566.84401,-0.21851249 702.87177,123.07841 702.995,247.67055 703.12327,372.33814 567.29922,495.78093 351.73018,495.99973 136.1561,496.21099 0.13085883,372.92161 7.98392e-5,248.32193 -0.12315421,123.65434 135.70089,0.21406417 351.26994,2.908226e-4 z"
   id="path8-7"
   style="fill:#ffffff" /><path
   style="fill:#006bb6"
   id="path10-4"
   d="M 629.36895,247.71582 C 629.47457,347.54546 505.14651,428.61083 351.68491,428.76424 198.22582,428.92017 73.734281,348.10882 73.636197,248.27415 73.530568,148.44199 197.86618,67.386681 351.31772,67.233267 504.77932,67.079853 629.26835,147.88618 629.36895,247.71582 z M 16.86554,248.33954 C 16.993804,377.04115 166.92186,481.23428 351.73521,481.04818 536.54856,480.85955 686.2729,376.37217 686.13709,247.66049 686.00128,118.95887 536.08077,14.765742 351.26742,14.95185 166.45407,15.135444 16.737276,119.63037 16.86554,248.33954 z" /><path
   style="fill:#ed1c2e"
   id="path12-0"
   d="m 451.19263,193.09799 c -15.88965,-9.47897 -36.08997,-13.74437 -55.21388,-10.51765 -5.39464,0.91294 -10.36927,2.98779 -15.25085,5.74673 -5.88254,3.33486 -10.30639,7.8065 -14.26245,13.15083 -2.9878,4.04912 -4.7005,8.5786 -5.79703,13.62617 -1.64983,7.58769 -1.2248,14.62209 0.56587,22.10416 4.91176,20.48955 26.78203,25.13472 43.58713,32.18924 2.99785,1.26 5.98817,3.06576 7.42422,6.10889 1.66743,3.53857 1.3933,8.16614 -1.77809,11.0131 -2.56277,2.30623 -6.36793,3.00791 -9.29285,3.24181 -13.76701,1.09653 -27.88611,-4.30314 -39.81969,-11.16149 0,0.13581 0.24898,35.64985 0.24898,35.5241 6.13655,3.44804 11.32496,4.57978 17.39612,6.47608 24.20166,7.54494 53.59424,5.60589 70.08497,-16.48319 8.36482,-11.19669 10.37429,-25.37363 5.69894,-38.35345 -2.46216,-6.83069 -6.55907,-12.33598 -12.81131,-16.66175 -5.23116,-3.62408 -10.36926,-6.27739 -16.00282,-8.64147 -8.22902,-3.45558 -18.33169,-3.73726 -24.43304,-11.05585 -1.36563,-1.64229 -1.50899,-5.24374 -0.66647,-7.38399 0.96324,-2.42695 2.03211,-3.97115 4.68793,-5.05259 5.73667,-2.33642 11.39286,-1.47378 17.35839,-0.67402 9.95178,1.34552 19.71997,6.93632 28.75629,10.744 l -0.48036,-33.93966 z" /><path
   style="fill:#ed1c2e"
   id="path14-9"
   d="m 342.3996,193.28158 c -15.88965,-9.48399 -36.08997,-13.75191 -55.21389,-10.52519 -5.39966,0.92048 -10.36926,2.98779 -15.25838,5.75427 -5.875,3.32732 -10.30388,7.79896 -14.25491,13.15084 -2.99283,4.04157 -4.7005,8.57105 -5.79703,13.61862 -1.64983,7.58769 -1.2248,14.62964 0.56587,22.10416 4.91175,20.48955 26.77448,25.14226 43.59216,32.19678 2.98528,1.25246 5.98062,3.0557 7.41667,6.10134 1.66995,3.54613 1.3933,8.16615 -1.77557,11.01813 -2.57031,2.30121 -6.37045,3.00289 -9.29537,3.24433 -13.77455,1.0915 -27.89365,-4.30313 -39.81969,-11.16903 0,0.13581 0.24898,35.6574 0.24898,35.5241 6.13656,3.45307 11.32245,4.57978 17.39613,6.47608 24.19914,7.54494 53.59172,5.60589 70.08244,-16.47564 8.36735,-11.20424 10.36927,-25.37364 5.69895,-38.361 -2.46217,-6.82314 -6.56158,-12.33598 -12.81131,-16.66175 -5.23116,-3.61654 -10.36927,-6.27739 -16.00282,-8.64147 -8.23153,-3.45558 -18.33924,-3.72972 -24.44058,-11.05586 -1.36061,-1.64228 -1.50899,-5.2387 -0.65893,-7.38398 0.95569,-2.42695 2.03211,-3.97115 4.68541,-5.05259 5.7417,-2.32888 11.39538,-1.46624 17.36091,-0.66647 9.95932,1.33797 19.71996,6.93631 28.75629,10.73645 l -0.47533,-33.93212 z" /><path
   style="fill:#ed1c2e"
   id="path16-4"
   d="m 239.53186,151.77686 c -19.28487,-11.57143 -43.5494,-14.70007 -65.60327,-8.11836 -14.50389,4.33079 -26.97568,13.58089 -33.11726,27.45353 -2.95007,6.66721 -4.55966,13.84496 -4.39619,21.09817 0.35461,16.19899 11.18412,29.43533 24.76502,37.5889 -1.8133,2.56276 -4.77092,3.19905 -7.3186,4.87152 -4.29055,2.81677 -7.53739,6.129 -10.66603,9.92159 -5.37954,6.54147 -8.76722,13.82485 -9.60974,22.18968 -0.75198,7.46698 -0.69414,14.91383 1.90384,22.06141 6.47607,17.85636 22.20225,30.85881 41.62293,34.30685 9.13944,1.62719 17.57468,2.11007 26.45759,1.38072 7.15512,-0.59353 13.21371,-1.91138 20.00165,-3.94852 5.15822,-1.54168 9.32554,-2.80923 14.15431,-6.06613 0,-0.12826 -4.94697,-32.66457 -4.82122,-32.66457 -13.29922,2.48229 -27.32527,7.9071 -40.54149,2.65582 -7.975,-3.16384 -10.55286,-12.1549 -9.23501,-20.20787 1.13426,-6.91619 6.20194,-11.44316 12.33598,-13.70916 10.66603,-3.93594 22.57195,-3.34241 33.78374,-3.00791 l -0.43258,-31.16313 c -8.66411,1.11665 -17.9972,0.87018 -27.67988,-0.89785 -3.05067,-0.56084 -5.81715,-1.90384 -8.54087,-3.78001 -2.64073,-1.80324 -4.3987,-4.16984 -5.792,-6.80051 -2.75893,-5.18086 -3.00792,-11.0131 -0.15593,-16.08079 9.79585,-17.40366 33.34361,-10.21333 48.72272,-4.38109 l 4.16229,-32.70229 z" /><path
   style="fill:#ed1c2e"
   id="path18-8"
   d="m 524.52443,180.68907 c 32.17415,-0.57844 58.59905,17.41121 59.56732,71.01299 0.94312,52.02238 -24.77256,72.54713 -56.94922,73.1281 -32.1666,0.58599 -58.58396,-17.41122 -59.56732,-71.01048 -0.94563,-52.54549 24.78011,-72.5421 56.94922,-73.13061 z m -0.43006,34.48542 c -11.9537,0.2188 -19.82559,13.40987 -19.38547,37.70962 0.44767,24.29219 8.78231,37.1865 20.74356,36.97524 11.96879,-0.21126 20.35625,-13.41994 19.93122,-37.1865 -0.46024,-25.35352 -9.32806,-37.71968 -21.28931,-37.49836 z" /></svg>