<?xml version="1.0" encoding="UTF-8" standalone="no"?>
<!-- Generator: Adobe Illustrator 14.0.0, SVG Export Plug-In . SVG Version: 6.00 Build 43363)  -->

<svg
   xmlns:dc="http://purl.org/dc/elements/1.1/"
   xmlns:cc="http://creativecommons.org/ns#"
   xmlns:rdf="http://www.w3.org/1999/02/22-rdf-syntax-ns#"
   xmlns:svg="http://www.w3.org/2000/svg"
   xmlns="http://www.w3.org/2000/svg"
   xmlns:sodipodi="http://sodipodi.sourceforge.net/DTD/sodipodi-0.dtd"
   xmlns:inkscape="http://www.inkscape.org/namespaces/inkscape"
   version="1.1"
   id="Layer_1"
   x="0px"
   y="0px"
   width="799"
   height="147"
   viewBox="0 0 799 147"
   enable-background="new 0 0 612 792"
   xml:space="preserve">
<path
   id="path5"
   d="m 795.84316,104.48559 1.60515,-4.19132 h 1.55171 v 5.70104 h -1.00966 v -4.63794 h -0.0286 l -1.78647,4.63794 h -0.69092 l -1.78646,-4.63794 h -0.0286 v 4.63794 h -1.00966 v -5.70104 h 1.55171 l 1.63186,4.19132 z m -4.17986,-3.36298 h -1.75784 v 4.8727 h -1.00966 v -4.8727 h -1.75783 v -0.83025 h 4.52533 v 0.83025 z" /><path
   id="path11"
   d="m 305.16667,28.436793 h 21.54827 v 7.357714 c 2.31515,-2.019315 9.77784,-9.167081 23.57523,-9.167081 16.23277,0 29.12929,11.986107 29.12929,30.80315 V 106.26442 H 356.64967 V 63.475162 c 0,-10.480209 -5.10363,-16.704205 -14.36233,-16.704205 -8.97622,0 -14.37188,5.863268 -14.37188,16.704205 V 106.26442 H 305.16667 V 28.436793 z"
   style="fill:#ed1b2f" /><path
   id="path13"
   d="m 544.3544,67.349652 c 0,-10.762684 8.04291,-19.597667 19.21786,-19.597667 11.17685,0 19.21021,8.834983 19.21021,19.597667 0,10.756959 -8.03336,19.595759 -19.21021,19.595759 -11.17495,0 -19.21786,-8.8388 -19.21786,-19.595759 z m -22.45486,0 c 0,22.449139 17.9887,40.680238 41.52003,40.680238 23.5485,0 41.52575,-18.231099 41.52575,-40.680238 0,-22.44723 -17.97725,-40.720318 -41.52575,-40.720318 -23.53133,0 -41.52003,18.273088 -41.52003,40.720318 z"
   style="fill:#ed1b2f" /><path
   id="path15"
   d="m 231.87582,67.35347 c 0,-10.760776 8.041,-19.595759 19.20831,-19.595759 11.17877,0 19.21595,8.834983 19.21595,19.595759 0,10.758867 -8.03718,19.605301 -19.21595,19.605301 -11.16731,-0.0019 -19.20831,-8.846434 -19.20831,-19.605301 z m -22.4644,0.0038 c 0,22.449139 17.9887,40.680233 41.52575,40.680233 23.54087,0 41.52575,-18.231094 41.52575,-40.680233 0,-22.447231 -17.98488,-40.726044 -41.52575,-40.726044 -23.53705,0.0019 -41.52575,18.280722 -41.52575,40.726044 z"
   style="fill:#ed1b2f" /><path
   id="path17"
   d="m 715.30721,28.436793 h 23.06753 V 106.26633 H 715.30721 V 28.436793 z m 0,-28.43264916 h 23.06753 V 19.806033 H 715.30721 V 0.00414384 z"
   style="fill:#ed1b2f" /><path
   id="path19"
   d="m 756.15922,0.00414384 h 23.06944 V 106.26442 H 756.15922 V 0.00414384 z"
   style="fill:#ed1b2f" /><path
   id="path21"
   d="m 678.52055,67.303846 c 0,10.976449 -8.42081,19.502236 -19.43734,19.502236 -11.14059,0 -19.5156,-8.499066 -19.5156,-19.446887 0,-11.081423 8.47998,-19.485058 19.53468,-19.485058 11.11578,-0.0019 19.41826,8.47998 19.41826,19.429709 z m -38.36508,38.962484 0.23475,-5.99115 c 1.60897,1.2177 8.73383,7.76807 23.66111,7.76807 19.62439,0 37.82495,-17.578352 37.82495,-40.685963 0,-23.147693 -17.08593,-40.726044 -37.56919,-40.726044 -15.65065,0 -22.81941,7.174487 -23.91877,7.976105 V 0.00414384 H 618.26937 V 106.26442 h 21.8861 z"
   style="fill:#ed1b2f" /><polygon
   id="polygon23"
   points="184.072,310.798 198.106,310.798 173.651,341.696 204.704,372.918 187.771,372.918 166.165,350.932 154.685,365.808 140.655,365.808 158.585,343.358 150.75,335.429 138.189,351.576 124.209,351.576 143.221,327.781 126.399,310.798 143.098,310.798 150.554,318.486 164.279,300.819 178.279,300.819 158.173,326.141 166,334 "
   style="fill:#ed1b2f"
   transform="matrix(1.9086158,0,0,1.9086158,-161.79527,-564.75718)" /><path
   id="path25"
   d="M -1.8199984e-8,0.00414384 H 69.981307 V 19.806033 H 23.804256 V 41.833368 H 67.902824 V 61.047403 H 23.804256 v 25.38459 H 69.981307 V 106.26633 H -1.8199984e-8 V 0.00414384 z"
   style="fill:#ed1b2f" /><path
   id="path27"
   d="m 397.62766,0.00414384 h 37.62645 L 453.00805,77.568381 h 0.80353 L 472.01977,0.00414384 h 36.55572 V 106.26442 H 486.19125 V 26.031938 h -1.01921 L 465.45223,106.26442 H 440.3043 L 421.03874,26.031938 h -1.01539 v 80.232482 h -22.3976 V 0.00414384 z"
   style="fill:#ed1b2f" />
</svg>