<?xml version="1.0" encoding="UTF-8" standalone="no"?>
<!-- Created with Inkscape (http://www.inkscape.org/) -->

<svg
   xmlns:dc="http://purl.org/dc/elements/1.1/"
   xmlns:cc="http://creativecommons.org/ns#"
   xmlns:rdf="http://www.w3.org/1999/02/22-rdf-syntax-ns#"
   xmlns:svg="http://www.w3.org/2000/svg"
   xmlns="http://www.w3.org/2000/svg"
   version="1.1"
   width="354.64053"
   height="98.250351"
   id="svg3010">
  <defs
     id="defs3012" />
  <metadata
     id="metadata3015">
    <rdf:RDF>
      <cc:Work
         rdf:about="">
        <dc:format>image/svg+xml</dc:format>
        <dc:type
           rdf:resource="http://purl.org/dc/dcmitype/StillImage" />
        <dc:title></dc:title>
      </cc:Work>
    </rdf:RDF>
  </metadata>
  <path
     d="m 352.45688,85.49547 c 0,-5.45511 -3.87151,-9.45712 -9.21348,-9.45712 -5.33349,0 -9.21387,4.00201 -9.21387,9.45712 0,5.45511 3.88038,9.45225 9.21387,9.45225 5.34197,0 9.21348,-3.99714 9.21348,-9.45225 l 0,0 z m -11.63233,0.482 0,6.1861 -2.001,0 0,-13.64222 4.9678,0 c 2.90573,0 4.24566,1.27535 4.24566,3.75835 0,1.51946 -1.03524,2.732 -2.36629,2.90618 l 0,0.066 c 1.1484,0.18255 1.5747,1.21298 1.81838,3.09239 0.18236,1.20942 0.42629,3.33204 0.85261,3.81939 l -2.36674,0 c -0.54793,-1.27357 -0.48688,-3.0924 -0.91319,-4.60608 -0.35681,-1.15373 -0.96577,-1.58004 -2.29723,-1.58004 l -1.94,0 0,0 z m 2.47944,-1.75735 c 1.94042,0 2.48833,-1.03035 2.48833,-1.94042 0,-1.08737 -0.54791,-1.93464 -2.48833,-1.93464 l -2.47944,0 0,3.87506 2.47944,0 0,0 z m -11.45814,1.27535 c 0,-6.73046 5.34195,-11.2755 11.39755,-11.2755 6.06408,0 11.39712,4.54504 11.39712,11.2755 0,6.72913 -5.33304,11.27595 -11.39712,11.27595 -6.0556,0 -11.39755,-4.54682 -11.39755,-11.27595 l 0,0"
     id="path14"
     style="fill:#f47920;fill-opacity:1;fill-rule:nonzero;stroke:none" />
  <path
     d="m 292.35445,94.80827 -13.14109,-14.73851 -13.02082,14.73851 -27.39227,0 26.77975,-30.08908 -26.77975,-30.09487 28.25335,0 13.26491,14.61645 12.77226,-14.61645 27.27018,0 -26.65277,29.97105 27.01852,30.2129 -28.37227,0"
     id="path16"
     style="fill:#f47920;fill-opacity:1;fill-rule:nonzero;stroke:none" />
  <path
     d="m 186.1749,94.80827 0,-94.80827 52.62537,0 0,21.13356 -30.33497,0 0,13.49076 30.33497,0 0,20.3326 -30.33497,0 0,18.66258 30.33497,0 0,21.18877 -52.62537,0"
     id="path18"
     style="fill:#f47920;fill-opacity:1;fill-rule:nonzero;stroke:none" />
  <path
     d="m 163.9767,0 0,38.80052 -0.24364,0 c -4.91565,-5.64844 -11.05634,-7.61292 -18.18058,-7.61292 -14.59374,0 -25.5877,9.92219 -29.44539,23.03878 -4.4025,-14.45164 -15.75284,-23.3083 -32.58144,-23.3083 -13.66807,0 -24.45845,6.13357 -30.09264,16.13058 l 0,-12.42434 -28.25023,0 0,-13.49076 30.83078,0 L 56.01356,0 0,0 l 0,94.80827 25.18278,0 0,-39.85135 25.10037,0 c -0.74793,2.92712 -1.1484,6.06273 -1.1484,9.37071 0,19.77578 15.10914,33.65278 34.3909,33.65278 16.21253,0 26.90002,-7.61249 32.55026,-21.48992 l -21.58078,0 c -2.91957,4.17129 -5.13308,5.40655 -10.9695,5.40655 -6.76699,0 -12.60341,-5.90235 -12.60341,-12.90275 l 43.94423,0 c 1.90525,15.70961 14.14337,29.25606 30.93502,29.25606 7.24231,0 13.877,-3.5619 17.93157,-9.57919 l 0.24365,0 0,6.13711 22.19819,0 0,-94.80827 -22.19819,0 z M 71.62381,55.23891 c 1.40053,-6.0204 6.07075,-9.9565 11.90182,-9.9565 6.41908,0 10.85141,3.81403 12.01719,9.9565 0.49223,0 -23.91901,0 -23.91901,0 z m 78.8795,25.13555 c -8.18178,0 -13.26805,-7.62494 -13.26805,-15.58576 0,-8.50921 4.42475,-16.69276 13.26805,-16.69276 9.17203,0 12.82437,8.18355 12.82437,16.69276 0,8.06861 -3.87195,15.58576 -12.82437,15.58576"
     id="path20"
     style="fill:#412c91;fill-opacity:1;fill-rule:nonzero;stroke:none" />
</svg>
