<?xml version="1.0" encoding="UTF-8" standalone="no"?>
<!-- Created with Inkscape (http://www.inkscape.org/) -->

<svg
   xmlns:dc="http://purl.org/dc/elements/1.1/"
   xmlns:cc="http://creativecommons.org/ns#"
   xmlns:rdf="http://www.w3.org/1999/02/22-rdf-syntax-ns#"
   xmlns:svg="http://www.w3.org/2000/svg"
   xmlns="http://www.w3.org/2000/svg"
   version="1.1"
   width="701.84186"
   height="258.20935"
   id="svg3330">
  <defs
     id="defs3332" />
  <metadata
     id="metadata3335">
    <rdf:RDF>
      <cc:Work
         rdf:about="">
        <dc:format>image/svg+xml</dc:format>
        <dc:type
           rdf:resource="http://purl.org/dc/dcmitype/StillImage" />
        <dc:title></dc:title>
      </cc:Work>
    </rdf:RDF>
  </metadata>
  <g
     transform="translate(-468.31242,-264.82894)"
     id="layer1">
    <path
       d="m 973.7516,428.72905 -22.72514,-25.47471 -22.49911,25.47471 -47.3712,0 46.29145,-52.02289 -46.29145,-52.0229 48.85269,0 22.92606,25.27066 22.07217,-25.27066 47.14523,0 -46.07797,51.8157 46.71827,52.23009 -49.041,0 0,0 z"
       id="path96"
       style="fill:#9e9e9e;fill-opacity:1;fill-rule:nonzero;stroke:none" />
    <path
       d="m 790.16788,428.72905 0,-163.90011 90.98827,0 0,36.5328 -52.44352,0 0,23.32152 52.44352,0 0,35.14856 -52.44352,0 0,32.26713 52.44352,0 0,36.6301 -90.98827,0 0,0 z"
       id="path98"
       style="fill:#9e9e9e;fill-opacity:1;fill-rule:nonzero;stroke:none" />
    <path
       d="m 751.79884,264.82894 0,67.07986 -0.4145,0 c -8.49989,-9.76801 -19.10913,-13.17368 -31.42594,-13.17368 -25.24868,0 -44.25738,17.1631 -50.92427,39.84426 C 661.42558,333.59121 641.80162,318.28 612.72356,318.28 c -23.62911,0 -42.28626,10.5967 -52.04176,27.88218 l 0,-21.47892 -48.82766,0 0,-23.32152 53.29734,0 0,-36.5328 -96.83906,0 0,163.90011 43.54177,0 0,-68.89723 43.39116,0 c -1.29318,5.06603 -1.98373,10.48052 -1.98373,16.20887 0,34.18812 26.12756,58.18447 59.46194,58.18447 28.02351,0 46.49232,-13.17055 56.26034,-37.1669 l -37.30179,0 c -5.04726,7.22564 -8.88919,9.36005 -18.95855,9.36005 -11.70155,0 -21.79596,-10.2075 -21.79596,-22.31079 l 75.97208,0 c 3.28949,27.15085 24.44524,50.57904 53.46056,50.57904 12.54273,0 24.01831,-6.15838 31.02415,-16.57303 l 0.4145,0 0,10.61552 38.36904,0 0,-163.90011 -38.36904,0 0,0 m -159.65335,95.49884 c 2.39806,-10.40837 10.48366,-17.21025 20.57813,-17.21025 11.08632,0 18.75762,6.5884 20.77899,17.21025 0.82869,0 -41.35712,0 -41.35712,0 l 0,0 m 136.36319,43.4539 c -14.14981,0 -22.93855,-13.19565 -22.93855,-26.94998 0,-14.70543 7.6336,-28.85211 22.93855,-28.85211 15.85738,0 22.17266,14.14668 22.17266,28.85211 0,13.95526 -6.69198,26.94998 -22.17266,26.94998 l 0,0 z"
       id="path100"
       style="fill:#660099;fill-opacity:1;fill-rule:nonzero;stroke:none" />
    <path
       d="m 828.68749,445.56887 0,21.47902 -2.83741,0 c -1.38116,-9.00849 -5.53694,-19.5047 -15.14172,-19.5047 -7.6713,0 -12.91943,6.76728 -12.91943,28.66377 0,21.53235 7.74664,28.66376 14.32559,28.66376 5.91354,0 13.84855,-3.06346 14.61445,-20.55302 l 3.37732,0 c -0.41449,17.48956 -7.84706,23.93356 -18.95849,23.93356 -12.20378,0 -23.3278,-12.28226 -23.3278,-32.0443 0,-19.76831 11.12402,-32.04743 22.43637,-32.04743 8.37435,0 11.38764,4.79923 12.90684,4.79923 1.15513,0 1.95868,-1.41557 2.68687,-3.38989 l 2.83747,0 0,0 z"
       id="path102"
       style="fill:#660099;fill-opacity:1;fill-rule:nonzero;stroke:none" />
    <path
       d="m 841.85804,485.55441 c 0,-15.39906 3.56576,-19.49843 8.55017,-19.49843 4.99701,0 8.55018,4.09937 8.55018,19.49843 0,15.39284 -3.55317,19.49523 -8.55018,19.49523 -4.98441,0 -8.55017,-4.10239 -8.55017,-19.49523 l 0,0 m -8.18608,0 c 0,13.44048 8.3619,22.34843 16.73625,22.34843 8.38701,0 16.73626,-8.90795 16.73626,-22.34843 0,-13.44357 -8.34925,-22.34849 -16.73626,-22.34849 -8.37435,0 -16.73625,8.90492 -16.73625,22.34849 l 0,0 z"
       id="path104"
       style="fill:#660099;fill-opacity:1;fill-rule:nonzero;stroke:none" />
    <path
       d="m 869.25374,506.82942 0,-2.85007 c 3.75402,-0.17896 5.17278,-1.7829 5.17278,-4.45714 l 0,-24.20981 c 0,-6.05481 -1.07975,-8.01345 -5.52435,-8.18294 l 0,-2.85628 12.29167,-0.0309 0,9.82453 0.16302,0 c 1.16764,-4.62669 4.3818,-10.86041 9.70527,-10.86041 3.77913,0 6.72963,3.00707 6.72963,7.78115 0,3.36803 -1.94604,5.15083 -4.25626,5.15083 -1.94604,0 -4.15578,-1.2869 -4.15578,-4.63919 0,-2.15323 1.82049,-3.92353 2.73707,-4.29392 -0.16353,-0.84122 -1.0672,-1.14881 -1.44391,-1.14881 -5.44895,0 -8.60037,13.08266 -8.60037,20.83244 l 0,12.63379 c 0,2.67424 1.43136,4.27818 7.49558,4.45715 l 0,2.85006 -20.31452,0 0,0 z"
       id="path106"
       style="fill:#660099;fill-opacity:1;fill-rule:nonzero;stroke:none" />
    <path
       d="m 912.95879,487.24937 c 0,-15.13853 4.43199,-20.65979 9.0775,-20.65979 4.54502,0 7.75919,5.52126 7.75919,19.22849 0,13.52832 -3.21417,19.23157 -7.92242,19.23157 -3.66619,0 -8.91427,-4.10239 -8.91427,-17.80027 l 0,0 m 6.57899,35.78892 0,-2.85006 c -5.14774,-0.18821 -6.57899,-1.77344 -6.57899,-4.44772 l 0,-13.63196 0.17536,0 c 1.78291,3.29584 4.72085,5.79429 9.35372,5.79429 9.70527,0 16.0206,-10.06304 16.0206,-22.34843 0,-9.09005 -5.08495,-22.34849 -15.24221,-22.34849 -5.67498,0 -9.32857,4.09303 -10.67199,8.37446 l -0.17588,0 0,-7.33857 -11.82707,0 0,2.85005 c 3.32719,0.18206 4.70825,0.79722 4.70825,4.62341 l 0,44.02524 c 0,2.67428 -1.41875,4.25935 -5.70012,4.44772 l 0,2.85006 19.93787,0 0,0 z"
       id="path108"
       style="fill:#660099;fill-opacity:1;fill-rule:nonzero;stroke:none" />
    <path
       d="m 951.90534,485.55441 c 0,-15.39906 3.55317,-19.49843 8.53763,-19.49843 4.98447,0 8.55018,4.09937 8.55018,19.49843 0,15.39284 -3.56571,19.49523 -8.55018,19.49523 -4.98446,0 -8.53763,-4.10239 -8.53763,-19.49523 l 0,0 m -8.19862,0 c 0,13.44048 8.36185,22.34843 16.73625,22.34843 8.37436,0 16.73621,-8.90795 16.73621,-22.34843 0,-13.44357 -8.36185,-22.34849 -16.73621,-22.34849 -8.3744,0 -16.73625,8.90492 -16.73625,22.34849 l 0,0 z"
       id="path110"
       style="fill:#660099;fill-opacity:1;fill-rule:nonzero;stroke:none" />
    <path
       d="m 979.6024,506.82942 0,-2.85007 c 3.74148,-0.17896 5.16019,-1.7829 5.16019,-4.45714 l 0,-24.20981 c 0,-6.05481 -1.06721,-8.01345 -5.5118,-8.18294 l 0,-2.85628 12.27907,-0.0309 0,9.82453 0.1764,0 c 1.15513,-4.62669 4.3693,-10.86041 9.70524,-10.86041 3.7666,0 6.7171,3.00707 6.7171,7.78115 0,3.36803 -1.9335,5.15083 -4.2437,5.15083 -1.9587,0 -4.15574,-1.2869 -4.15574,-4.63919 0,-2.15323 1.80794,-3.92353 2.72444,-4.29392 -0.1507,-0.84122 -1.0672,-1.14881 -1.4439,-1.14881 -5.44892,0 -8.60035,13.08266 -8.60035,20.83244 l 0,12.63379 c 0,2.67424 1.43131,4.27818 7.49553,4.45715 l 0,2.85006 -20.30191,0 0,0 z"
       id="path112"
       style="fill:#660099;fill-opacity:1;fill-rule:nonzero;stroke:none" />
    <path
       d="m 1059.2407,449.483 0,14.79018 10.22,0 0,3.38674 -10.22,0 0,31.33497 c 0,3.91094 1.3308,5.52429 3.7289,5.52429 2.9505,0 5.1603,-1.87702 5.1603,-11.31544 l 0,-2.47659 2.8499,0 0,4.1621 c 0,9.00844 -3.2894,13.01359 -9.9688,13.01359 -5.8759,0 -9.4416,-3.74777 -9.4416,-10.87913 l 0,-29.36379 -5.4993,0 0,-2.66796 c 5.3235,-2.86265 9.7807,-4.1025 10.3206,-15.50896 l 2.85,0 0,0 z"
       id="path114"
       style="fill:#660099;fill-opacity:1;fill-rule:nonzero;stroke:none" />
    <path
       d="m 1082.1667,445.16081 c -2.6492,0 -4.545,2.19406 -4.545,4.60782 0,2.3667 1.8958,4.60468 4.545,4.60468 2.6742,0 4.545,-2.17211 4.545,-4.60468 0,-2.48596 -1.8708,-4.60782 -4.545,-4.60782 l 0,0 m 10.2451,61.66861 0,-2.85007 c -4.2814,-0.17896 -5.7001,-1.7829 -5.7001,-4.45714 l 0,-35.2804 -12.5051,0 0,2.85005 c 3.7918,0.17536 4.8463,0.79722 4.8463,4.62341 l 0,27.80694 c 0,2.67424 -1.4312,4.27818 -5.6875,4.45714 l 0,2.85007 19.0464,0 0,0 z"
       id="path116"
       style="fill:#660099;fill-opacity:1;fill-rule:nonzero;stroke:none" />
    <path
       d="m 1101.8659,485.55441 c 0,-15.39906 3.5532,-19.49843 8.5502,-19.49843 4.9846,0 8.5502,4.09937 8.5502,19.49843 0,15.39284 -3.5656,19.49523 -8.5502,19.49523 -4.997,0 -8.5502,-4.10239 -8.5502,-19.49523 l 0,0 m -8.1861,0 c 0,13.44048 8.3744,22.34843 16.7363,22.34843 8.3619,0 16.7363,-8.90795 16.7363,-22.34843 0,-13.44357 -8.3744,-22.34849 -16.7363,-22.34849 -8.3619,0 -16.7363,8.90492 -16.7363,22.34849 l 0,0 z"
       id="path118"
       style="fill:#660099;fill-opacity:1;fill-rule:nonzero;stroke:none" />
    <path
       d="m 1128.8473,506.82942 0,-2.85007 c 4.2688,-0.17896 5.7002,-1.7829 5.7002,-4.45714 l 0,-27.76611 c 0,-3.83879 -1.0798,-4.45715 -5.876,-4.62664 l 0,-2.85628 12.9948,-0.0309 0,8.05422 0.1758,0 c 2.4107,-4.99705 5.8759,-9.0901 11.9276,-9.0901 7.3825,0 10.8477,4.80869 10.8477,12.64322 l 0,23.67307 c 0,3.03834 1.2556,4.27818 5.5369,4.45715 l 0,2.85006 -13.1704,0 0,-31.70216 c 0,-5.86967 -2.2349,-7.82829 -5.2607,-7.82829 -4.7208,0 -9.5295,6.22744 -9.5295,14.95967 l 0,17.26357 c 0,2.67424 1.4313,4.27818 5.7,4.45715 l 0,2.85006 -19.0464,0 0,0 z"
       id="path120"
       style="fill:#660099;fill-opacity:1;fill-rule:nonzero;stroke:none" />
    <path
       d="m 1031.0289,489.22056 c 0,10.04427 -4.093,15.36769 -8.6255,15.36769 -2.7621,0 -4.884,-2.31646 -4.884,-7.01217 0,-7.54885 6.4158,-10.93565 13.5095,-13.41533 l 0,5.05981 0,0 m -6.1897,-23.05787 c 5.1853,0 6.1897,2.69316 6.1897,7.28215 l 0,7.28206 c -7.6337,2.85633 -21.683,7.01843 -21.683,17.15676 0,5.84453 4.0052,10.02545 10.8478,10.02545 6.2149,0 8.8766,-2.93167 11.011,-6.92422 l 0.1882,0 c 0.5271,4.78982 2.9253,6.92422 7.1941,6.92422 5.4993,0 7.3574,-3.98627 7.3574,-13.32117 l -2.8375,0 c -0.1753,6.39695 -0.8788,8.34931 -2.5738,8.34931 -1.243,0 -1.8707,-1.1551 -1.8707,-3.72894 l 0,-24.69004 c 0,-7.41072 -3.5657,-11.18682 -13.3714,-11.18682 l 0,0 c -7.5081,0.16971 -12.9948,4.98452 -12.9948,10.43034 0,2.98504 2.3604,4.89344 4.4823,4.89344 2.1846,0 4.2186,-1.78914 4.2186,-4.72708 0,-1.93034 -0.8915,-4.29391 -3.729,-4.57012 1.8708,-2.20975 4.3065,-3.19534 7.571,-3.19534 l 0,0 0,0 z"
       id="path122"
       style="fill:#660099;fill-opacity:1;fill-rule:nonzero;stroke:none" />
    <path
       d="m 1038.8635,412.6206 c 0,-8.84834 7.1565,-15.98296 16.0958,-15.98296 8.9017,0 16.0457,7.13462 16.0457,15.98296 0,8.91429 -7.144,16.10845 -16.0457,16.10845 -8.9393,0 -16.0958,-7.19416 -16.0958,-16.10845 l 0,0 m 29.2286,0 c 0,-7.21303 -5.8381,-13.15794 -13.1328,-13.15794 -7.3448,0 -13.3087,5.94491 -13.3087,13.15794 0,7.37 5.9639,13.27721 13.3087,13.27721 7.2947,0 13.1328,-5.90721 13.1328,-13.27721 l 0,0 m -16.5352,1.07662 0,8.14212 -2.9631,0 0,-18.79219 6.127,0 c 3.4151,0 7.0309,0.86319 7.0309,5.13828 0,2.16583 -1.3309,3.92667 -3.9046,4.40694 l 0,0.0849 c 2.6491,0.5086 2.8751,1.70125 3.2267,3.70071 0.3388,1.8582 0.5521,3.78221 1.1551,5.4615 l -3.754,0 c -0.2387,-0.96678 -0.5401,-2.25048 -0.6529,-3.37106 -0.1882,-1.5788 -0.1882,-3.07917 -1.1049,-3.97374 -0.6529,-0.79731 -1.6572,-0.69996 -2.712,-0.79731 l -2.4482,0 0,0 m 3.1011,-2.91593 c 2.7873,-0.11983 3.3774,-1.24931 3.3774,-2.68684 0,-1.4439 -0.5901,-2.12813 -2.9755,-2.12813 l -3.503,0 0,4.81497 3.1011,0 0,0 z"
       id="path124"
       style="fill:#9e9e9e;fill-opacity:1;fill-rule:nonzero;stroke:none" />
  </g>
</svg>
