<?xml version="1.0" encoding="UTF-8" standalone="no"?>
<!-- Created with Inkscape (http://www.inkscape.org/) -->

<svg
   xmlns:dc="http://purl.org/dc/elements/1.1/"
   xmlns:cc="http://creativecommons.org/ns#"
   xmlns:rdf="http://www.w3.org/1999/02/22-rdf-syntax-ns#"
   xmlns:svg="http://www.w3.org/2000/svg"
   xmlns="http://www.w3.org/2000/svg"
   version="1.1"
   width="211.11385"
   height="77.399734"
   id="svg2"
   xml:space="preserve"><metadata
     id="metadata8"><rdf:RDF><cc:Work
         rdf:about=""><dc:format>image/svg+xml</dc:format><dc:type
           rdf:resource="http://purl.org/dc/dcmitype/StillImage" /><dc:title></dc:title></cc:Work></rdf:RDF></metadata><defs
     id="defs6" /><path
     d="m 180.5221,43.78925 c 0,-2.79401 -1.98292,-4.843772 -4.71898,-4.843772 -2.73172,0 -4.71918,2.049762 -4.71918,4.843772 0,2.794009 1.98746,4.841262 4.71918,4.841262 2.73606,0 4.71898,-2.047253 4.71898,-4.841262 l 0,0 z m -5.95787,0.246865 0,3.168416 -1.02488,0 0,-6.987307 2.54442,0 c 1.48826,0 2.17455,0.653214 2.17455,1.924961 0,0.778243 -0.53023,1.399286 -1.21197,1.488495 l 0,0.03377 c 0.58819,0.09354 0.80653,0.621271 0.93134,1.583865 0.0934,0.619446 0.21834,1.706614 0.43669,1.956218 l -1.2122,0 c -0.28064,-0.652301 -0.24937,-1.583866 -0.46772,-2.359143 -0.18275,-0.590926 -0.49465,-0.809273 -1.1766,-0.809273 l -0.99363,0 0,0 z m 1.26992,-0.900079 c 0.99385,0 1.27448,-0.527727 1.27448,-0.993851 0,-0.556932 -0.28063,-0.990886 -1.27448,-0.990886 l -1.26992,0 0,1.984737 1.26992,0 0,0 z m -5.86865,0.653214 c 0,-3.447224 2.73605,-5.775109 5.83762,-5.775109 3.10591,0 5.8374,2.327885 5.8374,5.775109 0,3.446538 -2.73149,5.775336 -5.8374,5.775336 -3.10157,0 -5.83762,-2.328798 -5.83762,-5.775336 l 0,0"
     id="path14"
     style="fill:#adabab;fill-opacity:1;fill-rule:nonzero;stroke:none" /><path
     d="m 149.73871,48.559099 -6.73063,-7.548801 -6.66903,7.548801 -14.02983,0 13.71611,-15.411089 -13.71611,-15.414055 14.47086,0 6.79405,7.486285 6.54172,-7.486285 13.9673,0 -13.65107,15.350627 13.8384,15.474517 -14.53177,0"
     id="path16"
     style="fill:#adabab;fill-opacity:1;fill-rule:nonzero;stroke:none" /><path
     d="m 95.35545,48.559099 0,-48.559099 26.95377,0 0,10.824222 -15.53703,0 0,6.909733 15.53703,0 0,10.413995 -15.53703,0 0,9.558635 15.53703,0 0,10.852514 -26.95377,0"
     id="path18"
     style="fill:#adabab;fill-opacity:1;fill-rule:nonzero;stroke:none" /><path
     d="m 83.98593,0 0,19.872926 -0.12479,0 c -2.517715,-2.89303 -5.662858,-3.899202 -9.311772,-3.899202 -7.47465,0 -13.105563,5.081968 -15.081402,11.800049 -2.254875,-7.401868 -8.068314,-11.938084 -16.687627,-11.938084 -7.000539,0 -12.527185,3.141493 -15.412914,8.261791 l 0,-6.363525 -14.469257,0 0,-6.909733 15.79097,0 L 28.689138,0 0,0 l 0,48.559099 12.898168,0 0,-20.411149 12.855959,0 c -0.383075,1.49922 -0.588188,3.105216 -0.588188,4.79951 0,10.128799 7.738627,17.236344 17.6144,17.236344 8.303772,0 13.777713,-3.898974 16.671656,-11.006747 l -11.053291,0 c -1.49535,2.136462 -2.629062,2.769141 -5.618374,2.769141 -3.465932,0 -6.455244,-3.02308 -6.455244,-6.608566 l 22.507454,0 c 0.975827,8.046183 7.243983,14.984435 15.844359,14.984435 3.709375,0 7.107545,-1.824343 9.184231,-4.906287 l 0.12479,0 0,3.143319 11.36952,0 L 95.35544,0 83.98592,0 z M 36.684433,28.292374 c 0.717325,-3.083541 3.109323,-5.099536 6.095897,-5.099536 3.287742,0 5.557903,1.95348 6.15499,5.099536 0.252113,0 -12.250887,0 -12.250887,0 z m 40.400662,12.873983 c -4.190558,0 -6.795654,-3.905362 -6.795654,-7.982755 0,-4.358254 2.266282,-8.549725 6.795654,-8.549725 4.697751,0 6.568415,4.191471 6.568415,8.549725 0,4.132607 -1.983145,7.982755 -6.568415,7.982755"
     id="path20"
     style="fill:#412c91;fill-opacity:1;fill-rule:nonzero;stroke:none" /><path
     d="m 101.6163,71.824946 c 1.7559,0 3.65416,-1.033779 4.01511,-2.883219 l 1.72897,0 c -0.62378,2.667611 -2.93227,4.180063 -5.79131,4.180063 -5.28685,0 -7.42582,-4.083781 -7.42582,-8.985504 0,-4.901952 2.13897,-8.988243 7.42582,-8.988243 2.85904,0 5.16753,1.512452 5.79131,4.18166 l -1.72897,0 c -0.36095,-1.851037 -2.25921,-2.882991 -4.01511,-2.882991 -4.34913,0 -5.81526,3.964227 -5.81526,7.689574 0,3.722608 1.46613,7.68866 5.81526,7.68866"
     id="path22"
     style="fill:#412c91;fill-opacity:1;fill-rule:nonzero;stroke:none" /><path
     d="m 114.5706,73.12179 c -3.70322,0 -5.69503,-2.85835 -5.69503,-6.368088 0,-3.507 1.99181,-6.36786 5.69503,-6.36786 3.69865,0 5.69502,2.86086 5.69502,6.36786 0,3.509738 -1.99637,6.368088 -5.69502,6.368088 z m 0,-1.105192 c 2.90808,0 4.13352,-2.642514 4.13352,-5.262896 0,-2.617416 -1.22544,-5.262668 -4.13352,-5.262668 -2.90992,0 -4.13535,2.645252 -4.13535,5.262668 0,2.620382 1.22543,5.262896 4.13535,5.262896"
     id="path24"
     style="fill:#412c91;fill-opacity:1;fill-rule:nonzero;stroke:none" /><path
     d="m 127.9034,61.802924 c -2.42416,0 -3.26629,2.045427 -3.26629,4.157704 l 0,6.875966 -1.46614,0 0,-8.58007 c 0,-1.174552 -0.0242,-2.379677 -0.0714,-3.580923 l 1.43944,0 0.0981,1.753842 c 0.72189,-1.392898 1.92062,-2.043601 3.53187,-2.043601 0.21561,0 0.45631,0.0251 0.67466,0.04906 l 0,1.467049 c -0.33859,-0.04722 -0.60142,-0.09902 -0.94024,-0.09902"
     id="path26"
     style="fill:#412c91;fill-opacity:1;fill-rule:nonzero;stroke:none" /><path
     d="m 131.95866,77.399733 -1.46613,0 0,-13.096893 c 0,-1.200334 0,-2.425993 -0.0733,-3.627239 l 1.44127,0 0.049,1.827081 c 0.91354,-1.443777 2.11479,-2.11684 3.917,-2.11684 3.74748,0 5.35804,3.101565 5.35804,6.36786 0,3.270858 -1.61056,6.368088 -5.35804,6.368088 -1.68174,0 -3.00346,-0.64614 -3.86794,-2.041092 l 0,6.319035 z m 7.66448,-10.646031 c 0,-2.59346 -1.08283,-5.142429 -3.96582,-5.142429 -2.71393,0 -3.69866,2.237078 -3.69866,5.142429 0,2.909914 0.98473,5.142657 3.69866,5.142657 2.88299,0 3.96582,-2.544634 3.96582,-5.142657"
     id="path28"
     style="fill:#412c91;fill-opacity:1;fill-rule:nonzero;stroke:none" /><path
     d="m 148.73162,73.12179 c -3.70298,0 -5.69502,-2.85835 -5.69502,-6.368088 0,-3.507 1.99204,-6.36786 5.69502,-6.36786 3.69865,0 5.69502,2.86086 5.69502,6.36786 0,3.509738 -1.99637,6.368088 -5.69502,6.368088 z m 0,-1.105192 c 2.90809,0 4.13351,-2.642514 4.13351,-5.262896 0,-2.617416 -1.22542,-5.262668 -4.13351,-5.262668 -2.90991,0 -4.13534,2.645252 -4.13534,5.262668 0,2.620382 1.22543,5.262896 4.13534,5.262896"
     id="path30"
     style="fill:#412c91;fill-opacity:1;fill-rule:nonzero;stroke:none" /><path
     d="m 162.06898,61.802924 c -2.4285,0 -3.26903,2.045427 -3.26903,4.157704 l 0,6.875966 -1.46522,0 0,-8.58007 c 0,-1.174552 -0.0248,-2.379677 -0.0739,-3.580923 l 1.44376,0 0.0955,1.753842 c 0.72007,-1.392898 1.92337,-2.043601 3.53211,-2.043601 0.21834,0 0.45701,0.0251 0.67283,0.04906 l 0,1.467049 c -0.33424,-0.04722 -0.60164,-0.09902 -0.9359,-0.09902"
     id="path32"
     style="fill:#412c91;fill-opacity:1;fill-rule:nonzero;stroke:none" /><path
     d="m 171.64086,72.836594 c -0.0978,-0.57929 -0.14419,-0.986779 -0.19165,-1.635429 -0.93842,1.417083 -2.16384,1.920625 -4.06393,1.920625 -2.21039,0 -4.22888,-1.127551 -4.22888,-3.578413 0,-3.533695 3.72534,-4.061422 6.70644,-4.061422 0.57496,0 1.05613,0.02419 1.41708,0.04631 l 0,-0.91354 c 0,-2.063224 -0.84212,-3.123697 -2.9811,-3.123697 -1.55968,0 -2.66488,0.60165 -2.85813,2.330623 l -1.46614,0 c 0.0239,-2.617645 2.30554,-3.435815 4.32427,-3.435815 3.00619,0 4.44723,0.81817 4.44723,3.821628 l 0,4.132835 c 0,1.875907 0.0714,2.981099 0.28976,4.496289 l -1.39495,0 z m -0.36094,-6.203131 c -0.40999,-0.02236 -0.74401,-0.04448 -1.15402,-0.04448 -2.01873,0 -5.4055,0.118422 -5.4055,2.90535 0,1.682658 1.39313,2.522275 2.93228,2.522275 2.45086,0 3.62724,-1.439442 3.62724,-4.251248 l 0,-1.131887"
     id="path34"
     style="fill:#412c91;fill-opacity:1;fill-rule:nonzero;stroke:none" /><path
     d="m 179.08997,73.12179 c -1.75407,0 -2.57133,-1.031269 -2.57133,-2.785111 l 0,-8.555886 -1.97219,0 0,-1.105192 1.97219,0 0,-2.475046 1.46522,-0.648879 0,3.123925 2.69156,0 0,1.105192 -2.69156,0 0,7.90792 c 0,1.703876 0.28793,2.207646 1.51336,2.207646 0.45905,0 1.03379,-0.166773 1.29936,-0.312118 l 0,1.252353 c -0.50629,0.142607 -0.93842,0.285196 -1.70661,0.285196"
     id="path36"
     style="fill:#412c91;fill-opacity:1;fill-rule:nonzero;stroke:none" /><path
     d="m 182.61658,57.287014 0,-1.827081 1.75385,0 0,1.827081 -1.75385,0 z m 0.14255,15.54958 0,-12.160993 1.46614,0 0,12.160993 -1.46614,0"
     id="path38"
     style="fill:#412c91;fill-opacity:1;fill-rule:nonzero;stroke:none" /><path
     d="m 192.83003,73.12179 c -3.70025,0 -5.69503,-2.85835 -5.69503,-6.368088 0,-3.507 1.99478,-6.36786 5.69503,-6.36786 3.70047,0 5.69411,2.86086 5.69411,6.36786 0,3.509738 -1.99364,6.368088 -5.69411,6.368088 z m 0,-1.105192 c 2.90831,0 4.13375,-2.642514 4.13375,-5.262896 0,-2.617416 -1.22544,-5.262668 -4.13375,-5.262668 -2.90717,0 -4.13353,2.645252 -4.13353,5.262668 0,2.620382 1.22636,5.262896 4.13353,5.262896"
     id="path40"
     style="fill:#412c91;fill-opacity:1;fill-rule:nonzero;stroke:none" /><path
     d="m 202.79752,60.675601 0.0502,1.827081 c 0.8419,-1.418908 2.16065,-2.11684 3.94027,-2.11684 3.24667,0 4.32586,1.778027 4.32586,4.830538 l 0,7.620214 -1.46705,0 0,-7.042748 c 0,-2.25921 -0.52704,-4.182573 -3.09837,-4.182573 -2.73789,0 -3.6528,2.429643 -3.6528,4.830538 l 0,6.394783 -1.46476,0 0,-8.533754 c 0,-1.200334 -0.0252,-2.425993 -0.0708,-3.627239 l 1.43739,0"
     id="path42"
     style="fill:#412c91;fill-opacity:1;fill-rule:nonzero;stroke:none" /></svg>