<?xml version="1.0" encoding="UTF-8" standalone="no"?>
<!-- Created with Inkscape (http://www.inkscape.org/) -->
<svg
   xmlns:dc="http://purl.org/dc/elements/1.1/"
   xmlns:cc="http://web.resource.org/cc/"
   xmlns:rdf="http://www.w3.org/1999/02/22-rdf-syntax-ns#"
   xmlns:svg="http://www.w3.org/2000/svg"
   xmlns="http://www.w3.org/2000/svg"
   xmlns:sodipodi="http://sodipodi.sourceforge.net/DTD/sodipodi-0.dtd"
   xmlns:inkscape="http://www.inkscape.org/namespaces/inkscape"
   version="1.0"
   width="442.92001"
   height="85.760002"
   id="svg10140"
   sodipodi:version="0.32"
   inkscape:version="0.45.1"
   sodipodi:docname="Fujifilm logo 2.svg"
   inkscape:output_extension="org.inkscape.output.svg.inkscape"
   sodipodi:docbase="C:\Documents and Settings\Cristan Meijer\Bureaublad">
  <metadata
     id="metadata17">
    <rdf:RDF>
      <cc:Work
         rdf:about="">
        <dc:format>image/svg+xml</dc:format>
        <dc:type
           rdf:resource="http://purl.org/dc/dcmitype/StillImage" />
      </cc:Work>
    </rdf:RDF>
  </metadata>
  <sodipodi:namedview
     inkscape:window-height="573"
     inkscape:window-width="819"
     inkscape:pageshadow="2"
     inkscape:pageopacity="0.0"
     guidetolerance="10.0"
     gridtolerance="10.0"
     objecttolerance="10.0"
     borderopacity="1.0"
     bordercolor="#666666"
     pagecolor="#ffffff"
     id="base"
     width="442.92001px"
     height="85.76px"
     inkscape:zoom="0.82860449"
     inkscape:cx="442.91336"
     inkscape:cy="88.759842"
     inkscape:window-x="110"
     inkscape:window-y="145"
     inkscape:current-layer="svg10140" />
  <defs
     id="defs10142" />
  <g
     transform="matrix(0.5,0,0,0.5,-88.454054,-662.05623)"
     id="layer1">
    <g
       transform="matrix(1.2721108,0,0,1.2721108,-25.92097,-374.95806)"
       id="g97864">
      <path
         d="M 682.5551,1345.0399 L 682.5551,1432.0757 C 682.5551,1437.8086 685.33467,1440.588 691.06756,1440.9356 C 691.06756,1440.9356 719.73205,1440.9356 719.73205,1440.9356 C 719.73205,1440.9356 719.73205,1450.3166 719.73205,1450.6642 C 719.73205,1451.7066 719.21088,1452.5751 717.99481,1452.5751 C 717.64736,1452.5751 671.43676,1452.5751 671.43676,1452.5751 C 657.19138,1452.5751 655.10668,1444.5837 655.10668,1437.4611 L 655.10668,1350.9465 C 655.10668,1346.7771 656.49648,1344.8662 661.36075,1345.0399 L 682.5551,1345.0399"
         style="font-size:3.3757px;letter-spacing:0;word-spacing:0;fill:#000000;fill-rule:nonzero;stroke:none;stroke-width:0.26300001;stroke-linecap:butt;stroke-linejoin:miter;stroke-miterlimit:4;stroke-dasharray:none;font-family:fnt0, &quot;Myriad&quot;, Arial"
         id="path96053" />
      <path
         d="M 629.04806,1345.0399 L 629.04806,1446.8421 C 629.04806,1451.3591 627.13709,1452.5751 623.31517,1452.5751 L 601.42595,1452.5751 L 601.42595,1350.5992 C 601.42595,1347.2983 602.81575,1345.0399 607.68001,1345.0399 L 629.04806,1345.0399"
         style="font-size:3.3757px;letter-spacing:0;word-spacing:0;fill:#000000;fill-rule:nonzero;stroke:none;stroke-width:0.26300001;stroke-linecap:butt;stroke-linejoin:miter;stroke-miterlimit:4;stroke-dasharray:none;font-family:fnt0, &quot;Myriad&quot;, Arial"
         id="path96063" />
      <path
         d="M 173.36979,1359.8064 C 173.36979,1351.6413 173.36979,1345.0399 186.74655,1345.0399 L 245.98642,1345.0399 L 245.98642,1355.2897 C 245.98642,1355.9846 245.63897,1356.6794 244.59665,1356.6794 L 209.15692,1356.6794 C 204.29265,1356.6794 202.03425,1358.9379 202.03425,1363.8021 C 202.03425,1363.8021 202.03425,1391.0768 202.03425,1391.0768 L 243.72803,1391.0768 L 243.72803,1402.0212 C 243.72803,1402.89 243.03313,1403.4112 242.1645,1403.4112 C 242.1645,1403.4112 202.03425,1403.4112 202.03425,1403.4112 L 202.03425,1446.8421 C 201.86053,1451.0115 199.77583,1452.5751 195.25901,1452.5751 L 173.36979,1452.5751 L 173.36979,1359.8064"
         style="font-size:3.3757px;letter-spacing:0;word-spacing:0;fill:#000000;fill-rule:nonzero;stroke:none;stroke-width:0.022;stroke-linecap:butt;stroke-linejoin:miter;stroke-miterlimit:4;stroke-dasharray:none;font-family:fnt0, &quot;Myriad&quot;, Arial"
         id="path96067" />
      <path
         d="M 288.7226,1345.0399 L 288.7226,1427.0376 C 288.7226,1433.9866 289.76492,1439.0247 294.62919,1441.8043 C 301.23074,1445.6261 312.52277,1445.6261 319.29801,1441.978 C 323.81483,1439.3719 325.72583,1435.2026 325.72583,1427.0376 L 325.72583,1350.4253 C 325.72583,1346.9508 326.94191,1345.0399 331.80618,1345.0399 L 353.17422,1345.0399 L 353.17422,1424.6055 C 353.17422,1443.0204 341.53471,1450.6642 331.285,1453.4439 C 317.56076,1457.092 296.71389,1457.2656 283.85828,1453.2699 C 268.39685,1448.753 261.27418,1439.5459 261.27418,1424.6055 L 261.27418,1350.4253 C 261.27418,1346.9508 262.49023,1345.0399 266.65963,1345.0399 L 288.7226,1345.0399"
         style="font-size:3.3757px;letter-spacing:0;word-spacing:0;fill:#000000;fill-rule:nonzero;stroke:none;stroke-width:0.022;stroke-linecap:butt;stroke-linejoin:miter;stroke-miterlimit:4;stroke-dasharray:none;font-family:fnt0, &quot;Myriad&quot;, Arial"
         id="path96077" />
      <path
         d="M 288.7226,1345.0399 L 288.7226,1427.0376 C 288.7226,1433.9866 289.76492,1439.0247 294.62919,1441.8043 C 301.23074,1445.6261 312.52277,1445.6261 319.29801,1441.978 C 323.81483,1439.3719 325.72583,1435.2026 325.72583,1427.0376 L 325.72583,1350.4253 C 325.72583,1346.9508 326.94191,1345.0399 331.80618,1345.0399 L 353.17422,1345.0399 L 353.17422,1424.6055 C 353.17422,1443.0204 341.53471,1450.6642 331.285,1453.4439 C 317.56076,1457.092 296.71389,1457.2656 283.85828,1453.2699 C 268.39685,1448.753 261.27418,1439.5459 261.27418,1424.6055 L 261.27418,1350.4253 C 261.27418,1346.9508 262.49023,1345.0399 266.65963,1345.0399 L 288.7226,1345.0399 z "
         style="font-size:3.3757px;letter-spacing:0;word-spacing:0;fill:#000000;stroke:#231e1f;stroke-width:0.382193;stroke-linecap:butt;stroke-linejoin:miter;stroke-miterlimit:4;stroke-dasharray:none;font-family:fnt0, &quot;Myriad&quot;, Arial"
         id="path96079" />
      <path
         d="M 810.06857,1345.0399 C 804.5094,1345.0399 801.55611,1347.472 800.34003,1352.3362 L 782.62015,1426.5164 L 782.2727,1426.5164 L 764.0317,1345.0399 L 739.36285,1345.0399 C 734.49858,1345.0399 733.10879,1347.472 733.10879,1351.294 L 733.10879,1452.5751 L 743.53222,1452.5751 C 745.09575,1452.5751 745.79064,1451.7066 745.79064,1449.9691 L 745.79064,1365.0181 L 747.52792,1365.0181 L 769.93829,1452.5751 L 784.70485,1452.5751 C 790.09032,1452.5751 792.17499,1450.3166 793.56479,1444.7576 L 813.71676,1365.0181 L 815.28029,1365.0181 L 815.28029,1452.5751 L 834.91111,1452.5751 C 839.60166,1452.5751 841.86008,1450.6642 841.86008,1445.9737 L 841.86008,1345.0399 L 810.06857,1345.0399"
         style="font-size:3.3757px;letter-spacing:0;word-spacing:0;fill:#000000;fill-rule:nonzero;stroke:none;stroke-width:0.022;stroke-linecap:butt;stroke-linejoin:miter;stroke-miterlimit:4;stroke-dasharray:none;font-family:fnt0, &quot;Myriad&quot;, Arial"
         id="path96081" />
      <path
         d="M 484.16219,1403.4112 L 456.54005,1403.4112 C 456.54005,1427.7324 456.54005,1452.5751 456.54005,1452.5751 L 478.4293,1452.5751 C 482.25124,1452.5751 484.16219,1451.3591 484.16219,1446.8421 C 484.16219,1446.8421 484.16219,1425.8215 484.16219,1403.4112"
         style="font-size:3.3757px;letter-spacing:0;word-spacing:0;fill:#000000;fill-rule:nonzero;stroke:none;stroke-width:0.022;stroke-linecap:butt;stroke-linejoin:miter;stroke-miterlimit:4;stroke-dasharray:none;font-family:fnt0, &quot;Myriad&quot;, Arial"
         id="path96091" />
      <path
         d="M 482.59869,1382.3906 C 483.46729,1381.6957 484.16219,1381.0009 484.16219,1379.4373 C 484.16219,1368.6662 484.16219,1345.0399 484.16219,1345.0399 L 462.79411,1345.0399 C 457.92985,1345.0399 456.54005,1347.2983 456.54005,1350.7728 C 456.54005,1350.7728 456.54005,1376.8313 456.54005,1402.7164 L 482.59869,1382.3906"
         style="font-size:3.3757px;letter-spacing:0;word-spacing:0;fill:#ec002b;fill-opacity:1;fill-rule:nonzero;stroke:none;stroke-width:0.022;stroke-linecap:butt;stroke-linejoin:miter;stroke-miterlimit:4;stroke-dasharray:none;font-family:fnt0, &quot;Myriad&quot;, Arial"
         id="path96095" />
      <path
         d="M 388.09275,1444.0625 C 400.07971,1442.3252 404.07539,1435.2026 404.07539,1424.7791 L 404.07539,1350.7728 C 404.07539,1346.4296 406.50754,1345.0399 409.46083,1345.0399 L 431.52378,1345.0399 L 431.52378,1414.8771 C 431.52378,1432.0757 428.04931,1440.7619 417.7996,1448.0582 C 412.41415,1451.8803 403.20676,1456.2232 383.22849,1456.2232 C 371.58897,1456.2232 366.55098,1455.5284 365.85608,1455.3548 C 364.81376,1455.1808 364.46631,1454.6599 364.46631,1453.7911 C 364.46631,1453.7911 364.46631,1446.8421 364.46631,1444.7576 C 369.15686,1444.9313 380.10147,1445.2785 388.09275,1444.0625"
         style="font-size:3.3757px;letter-spacing:0;word-spacing:0;fill:#000000;fill-rule:nonzero;stroke:none;stroke-width:0.022;stroke-linecap:butt;stroke-linejoin:miter;stroke-miterlimit:4;stroke-dasharray:none;font-family:fnt0, &quot;Myriad&quot;, Arial"
         id="path96097" />
      <path
         d="M 525.85596,1345.0399 C 512.4792,1345.0399 512.4792,1351.6413 512.4792,1359.8064 L 512.4792,1387.4287 C 512.4792,1388.1235 512.30548,1388.2972 511.95803,1388.6447 L 493.19583,1403.4112 L 512.4792,1403.4112 L 512.4792,1452.5751 L 534.36845,1452.5751 C 538.88527,1452.5751 540.96994,1451.0115 541.14367,1446.8421 L 541.14367,1403.4112 C 541.14367,1403.4112 581.27395,1403.4112 581.27395,1403.4112 C 582.3163,1403.4112 582.83747,1402.89 582.83747,1402.0212 L 582.83747,1391.0768 L 541.14367,1391.0768 C 541.14367,1391.0768 541.14367,1363.8021 541.14367,1363.8021 C 541.14367,1358.9379 543.57582,1356.6794 548.26636,1356.6794 L 583.70607,1356.6794 C 584.74841,1356.6794 585.09586,1355.9846 585.09586,1355.2897 L 585.09586,1345.0399 L 525.85596,1345.0399"
         style="font-size:3.3757px;letter-spacing:0;word-spacing:0;fill:#000000;fill-rule:nonzero;stroke:none;stroke-width:0.022;stroke-linecap:butt;stroke-linejoin:miter;stroke-miterlimit:4;stroke-dasharray:none;font-family:fnt0, &quot;Myriad&quot;, Arial"
         id="path96101" />
    </g>
  </g>
</svg>
