<?xml version="1.0" encoding="UTF-8" standalone="no"?>
<!-- Created with Inkscape (http://www.inkscape.org/) -->

<svg
   xmlns:dc="http://purl.org/dc/elements/1.1/"
   xmlns:cc="http://creativecommons.org/ns#"
   xmlns:rdf="http://www.w3.org/1999/02/22-rdf-syntax-ns#"
   xmlns:svg="http://www.w3.org/2000/svg"
   xmlns="http://www.w3.org/2000/svg"
   xmlns:xlink="http://www.w3.org/1999/xlink"
   xmlns:sodipodi="http://sodipodi.sourceforge.net/DTD/sodipodi-0.dtd"
   xmlns:inkscape="http://www.inkscape.org/namespaces/inkscape"
   width="300"
   height="300"
   id="svg2"
   sodipodi:version="0.32"
   inkscape:version="0.47 r22583"
   version="1.0"
   inkscape:output_extension="org.inkscape.output.svg.inkscape">
  <g
     inkscape:label="Layer 1"
     inkscape:groupmode="layer"
     id="layer1"
     transform="translate(-5.7572275,-746.36601)">
    <path
       style="fill:#0e0c0d;fill-rule:nonzero;stroke:none"
       d="m 303.77211,1044.336 -296.136655,0 0,-296.495 296.136655,0 0,296.495 z"
       id="path228269" />
    <path
       id="path228273"
       d="m 304.56279,933.6235 c 0.53375,0 0.99125,-0.325 1.1945,-0.75 l 0,-184.1825 c 0,-1.3 -1.042,-2.3 -2.33825,-2.3 l -295.3236125,0 c -1.296175,0 -2.3382,1.025 -2.3382,2.3 l 0,295.375 c 0.05075,1.275 1.042025,2.3 2.3382,2.3 l 295.3236125,0 c 1.29625,0 2.33825,-1.05 2.33825,-2.3 l 0,-102.6025 -24.88138,0 c -0.78775,0 -1.14375,0.375 -1.39775,1.1 -1.6265,4.0925 -6.15045,8.6425 -13.39375,8.565 -9.65775,0 -15.35072,-7.775 -16.03695,-17.51 l 53.88005,0 0.63525,0 z m -23.8648,-15.4525 c 0,0.325 -0.305,0.625 -0.66075,0.625 l -29.02408,0 c -0.38125,0 -0.737,-0.25 -0.6355,-0.625 0.86425,-6.9625 5.61675,-14.8925 15.19825,-14.8925 10.49643,0 14.9695,9.225 15.12198,14.8675 l 0,0.025 z m -14.56285,-32.71 c -18.1464,0 -31.99763,10.2175 -37.76685,24.095 -1.6265,-15.4775 -15.4524,-23.89 -36.4961,-23.89 -25.33888,0 -32.30263,11.64 -34.18333,19.9 l 0,-16.0875 c 0,-0.725 -0.6355,-1.3 -1.3215,-1.3 l -23.3819,0 c -0.737,0 -1.347,0.55 -1.347,1.3 l 0,44.8575 c 0,9.605 -4.90512,14.6625 -12.6313,14.5625 -9.14945,0 -11.43681,-6.2775 -11.43681,-13.395 l 0,-46.025 c 0,-0.725 -0.58455,-1.3 -1.347,-1.3 l -36.165703,0 0,-1.75 c 0,-6.38 1.77905,-7.855 8.590308,-7.855 l 5.108437,0 c 0.711625,0 1.27075,-0.55 1.27075,-1.3 l 0,-15.6825 c 0,-0.7 -0.559125,-1.325 -1.27075,-1.325 l -8.00576,0 c -22.238225,-0.25 -31.540155,7.7 -31.36225,24.55 l 0,3.355 -8.031175,0 c -0.6862,0 -1.27075,0.55 -1.27075,1.3 l 0,13.8 c 0,0.7 0.58455,1.3 1.27075,1.3 l 7.726195,0 0,60.7175 c 0,0.725 0.559125,1.3 1.296175,1.3 l 23.40732,0 c 0.711625,0 1.27075,-0.575 1.27075,-1.3 l 0,-60.7175 11.513045,0 0,34.4375 c 0,19.7225 10.318535,30.345 28.007458,30.0675 11.20806,-0.3 19.34089,-5.2375 23.25481,-12.505 l 0,8.7175 c 0,0.725 0.5845,1.3 1.3215,1.3 l 22.2128,0 c 0.68625,0 1.32151,-0.575 1.32151,-1.3 l 0,-11.5125 c 5.10842,9.785 16.164,15.605 34.00539,15.605 18.07015,0 33.52255,-4.525 37.84313,-20.9175 6.53167,12.81 19.62045,20.51 36.1911,20.6125 18.93427,0 32.938,-9.505 38.19893,-24.2975 l 0,99.2975 c 0,0.25 -0.23001,0.425 -0.50826,0.425 l -295.3236075,0 c -0.279575,0 -0.5083,-0.25 -0.5083,-0.425 l 0,-295.375 c 0,-0.25 0.22875,-0.45 0.5083,-0.45 l 295.3236075,0 c 0.2795,0 0.50826,0.25 0.50826,0.45 l 0,165.8575 c -4.87971,-17.3575 -18.34973,-29.1 -37.79228,-29.1 m -84.88647,23.205 c 0,-5.9225 8.2345,-6.71 10.64892,-6.71 5.26093,0 12.80923,2.125 12.80923,9.76 0,0.725 0.61,1.275 1.3215,1.275 l 21.06912,0 c -0.61,2 -2.18575,12.555 -2.18575,15.5025 -1.27075,-1.4 -3.65977,-4.65 -16.3165,-8.5375 -7.9295,-2.45 -27.34665,-3.8125 -27.34665,-11.285 m 23.45815,36.09 c 0,7.115 -8.69197,7.4975 -11.00475,7.4975 -5.43882,0 -14.84242,-1.175 -14.84242,-11.565 0,-0.6 -0.50825,-1.125 -1.09275,-1.125 l -20.07793,0 0,-21.78 c 3.5327,11.435 15.85903,14.5625 36.0132,19.8225 6.27753,1.625 11.00475,3.2275 11.00475,7.1425"
       style="fill:#ffffff;fill-rule:nonzero;stroke:none" />
  </g>
</svg>
