<?xml version="1.0" encoding="UTF-8" standalone="no"?>
<!-- Created with Inkscape (http://www.inkscape.org/) -->

<svg
   xmlns:dc="http://purl.org/dc/elements/1.1/"
   xmlns:cc="http://creativecommons.org/ns#"
   xmlns:rdf="http://www.w3.org/1999/02/22-rdf-syntax-ns#"
   xmlns:svg="http://www.w3.org/2000/svg"
   xmlns="http://www.w3.org/2000/svg"
   xmlns:xlink="http://www.w3.org/1999/xlink"
   xmlns:sodipodi="http://sodipodi.sourceforge.net/DTD/sodipodi-0.dtd"
   xmlns:inkscape="http://www.inkscape.org/namespaces/inkscape"
   width="300"
   height="377"
   id="svg2"
   sodipodi:version="0.32"
   inkscape:version="0.47 r22583"
   version="1.0"
   sodipodi:docname="Fuse logo 2003.svg"
   inkscape:output_extension="org.inkscape.output.svg.inkscape">
  <defs
     id="defs4">
    <inkscape:perspective
       sodipodi:type="inkscape:persp3d"
       inkscape:vp_x="0 : 8 : 1"
       inkscape:vp_y="0 : 1000 : 0"
       inkscape:vp_z="15 : 8 : 1"
       inkscape:persp3d-origin="7.5 : 5.3333333 : 1"
       id="perspective223" />
  </defs>
  <sodipodi:namedview
     id="base"
     pagecolor="#ffffff"
     bordercolor="#666666"
     borderopacity="1.0"
     gridtolerance="10000"
     guidetolerance="10"
     objecttolerance="10"
     inkscape:pageopacity="0.0"
     inkscape:pageshadow="2"
     inkscape:zoom="0.87003954"
     inkscape:cx="150"
     inkscape:cy="188.49718"
     inkscape:document-units="px"
     inkscape:current-layer="layer1"
     width="15px"
     height="16px"
     inkscape:window-width="784"
     inkscape:window-height="575"
     inkscape:window-x="-11"
     inkscape:window-y="49"
     showgrid="false"
     inkscape:window-maximized="0" />
  <metadata
     id="metadata7">
    <rdf:RDF>
      <cc:Work
         rdf:about="">
        <dc:format>image/svg+xml</dc:format>
        <dc:type
           rdf:resource="http://purl.org/dc/dcmitype/StillImage" />
      </cc:Work>
    </rdf:RDF>
  </metadata>
  <g
     inkscape:label="Layer 1"
     inkscape:groupmode="layer"
     id="layer1"
     transform="translate(-111.93564,-580.82209)">
    <g
       id="g22215"
       clip-path="url(#id19)"
       transform="matrix(1,0,0,-1,-115.67198,1298.66)">
      <g
         id="g22217"
         transform="matrix(16.086182,0,0,5.3088531,61.316742,466.9218)">
        <use
           id="use22219"
           xlink:href="#id20"
           x="0"
           y="0"
           width="744.09448"
           height="1052.3622" />
      </g>
    </g>
    <g
       id="g22221"
       clip-path="url(#id21)"
       transform="matrix(1,0,0,-1,-115.67198,1298.66)">
      <g
         id="g22223"
         transform="matrix(6.5063324,0,0,5.3088379,58.821991,467.81987)">
        <use
           id="use22225"
           xlink:href="#id22"
           x="0"
           y="0"
           width="744.09448"
           height="1052.3622" />
      </g>
    </g>
    <g
       id="g22227"
       clip-path="url(#id23)"
       transform="matrix(1,0,0,-1,-115.67198,1298.66)">
      <g
         id="g22229"
         transform="matrix(6.5063324,0,0,5.3088379,72.992172,467.81987)">
        <use
           id="use22231"
           xlink:href="#id22"
           x="0"
           y="0"
           width="744.09448"
           height="1052.3622" />
      </g>
    </g>
    <g
       transform="matrix(1,0,0,-1,291.93535,897.61683)"
       id="g25215" />
    <g
       id="g29445"
       clip-path="url(#id59)"
       transform="matrix(1,0,0,-1,-115.67198,1298.66)">
      <g
         id="g29447"
         transform="matrix(11.465256,0,0,11.256973,216.71066,491.86533)">
        <use
           id="use29449"
           xlink:href="#id60"
           x="0"
           y="0"
           width="744.09448"
           height="1052.3622" />
      </g>
    </g>
    <g
       id="g29451"
       clip-path="url(#id61)"
       transform="matrix(1,0,0,-1,-115.67198,1298.66)">
      <g
         id="g29453"
         transform="matrix(1.5762482,0,0,0.3432465,216.71066,491.8653)">
        <use
           id="use29455"
           xlink:href="#id62"
           x="0"
           y="0"
           width="744.09448"
           height="1052.3622" />
      </g>
    </g>
    <g
       id="g29457"
       clip-path="url(#id63)"
       transform="matrix(1,0,0,-1,-115.67198,1298.66)">
      <g
         id="g29459"
         transform="matrix(0.9097595,0,0,0.3432465,218.94339,491.8653)">
        <use
           id="use29461"
           xlink:href="#id64"
           x="0"
           y="0"
           width="744.09448"
           height="1052.3622" />
      </g>
    </g>
    <g
       id="g29463"
       clip-path="url(#id65)"
       transform="matrix(1,0,0,-1,-115.67198,1298.66)">
      <g
         id="g29465"
         transform="matrix(1.8345184,0,0,0.3432465,221.17613,491.8653)">
        <use
           id="use29467"
           xlink:href="#id66"
           x="0"
           y="0"
           width="744.09448"
           height="1052.3622" />
      </g>
    </g>
    <g
       id="g29469"
       clip-path="url(#id67)"
       transform="matrix(1,0,0,-1,-115.67198,1298.66)">
      <g
         id="g29471"
         transform="matrix(1.5762482,0,0,0.3432465,223.86708,491.8653)">
        <use
           id="use29473"
           xlink:href="#id62"
           x="0"
           y="0"
           width="744.09448"
           height="1052.3622" />
      </g>
    </g>
    <g
       id="g29475"
       clip-path="url(#id68)"
       transform="matrix(1,0,0,-1,-115.67198,1298.66)">
      <g
         id="g29477"
         transform="matrix(0.8431091,0,0,0.3432465,225.89986,491.8653)">
        <use
           id="use29479"
           xlink:href="#id69"
           x="0"
           y="0"
           width="744.09448"
           height="1052.3622" />
      </g>
    </g>
    <g
       id="g29481"
       clip-path="url(#id70)"
       transform="matrix(1,0,0,-1,-115.67198,1298.66)">
      <g
         id="g29483"
         transform="matrix(0.7098083,0,0,0.3432465,227.46608,491.8653)">
        <use
           id="use29485"
           xlink:href="#id69"
           x="0"
           y="0"
           width="744.09448"
           height="1052.3622" />
      </g>
    </g>
    <g
       id="g29645"
       clip-path="url(#id76)"
       transform="matrix(1,0,0,-1,-115.67198,1298.66)">
      <g
         id="g29647"
         transform="matrix(3.688736,0,0,3.4783478,397.16225,493.43713)">
        <use
           id="use29649"
           xlink:href="#id77"
           x="0"
           y="0"
           width="744.09448"
           height="1052.3622" />
      </g>
    </g>
    <g
       id="g30581"
       clip-path="url(#id98)"
       transform="matrix(1,0,0,-1,-66.960257,1389.9945)" />
    <path
       style="fill:#2f97da;fill-rule:nonzero;stroke:none"
       d="m 173.57135,877.93991 0,31.2848 -22.59258,0 0,-31.2848 -39.04313,0 0,79.88219 299.98922,0 0,-79.88219 -238.35351,0 z"
       id="path31447" />
    <path
       id="path31453"
       d="m 370.70077,771.55365 c -19.57545,0 -34.66111,-10.20078 -40.69538,-26.65134 -0.35918,5.85467 -2.83754,11.85301 -7.83018,17.06116 -5.20815,5.27999 -13.14608,8.65631 -25.43012,9.59018 -29.9199,2.47835 -44.89781,-8.51263 -47.41209,-26.83093 -0.32326,-1.58041 -0.32326,-3.08897 -0.32326,-4.63346 l 26.1844,0 0,2.33469 c 0.61061,6.35753 3.91508,9.62609 11.63751,10.81139 2.01142,0.35919 3.9151,0.50285 5.74693,0.35919 6.03426,-0.43103 9.12323,-2.80162 9.94935,-5.74693 1.22123,-4.48977 -0.82612,-6.96814 -9.48241,-9.30282 l -6.78856,-1.83183 -4.52569,-1.25714 -3.41224,-0.7902 c -0.89796,-0.35919 -2.01143,-0.57469 -2.94529,-0.75429 -20.00647,-5.89059 -26.68727,-15.80403 -22.48483,-31.32071 3.26856,-12.24812 15.51669,-20.61708 38.14518,-19.97055 2.76571,0 5.38774,0.35918 8.00977,0.5747 17.70769,2.65794 26.72319,10.8473 28.87828,23.74196 0.14359,1.54449 0.32325,3.26855 0.32325,4.81304 l -25.57379,0 c 0.14374,-0.61061 0.14374,-1.25714 0.14374,-1.86775 -0.14374,-4.95671 -3.55591,-8.54853 -10.38039,-9.76976 -1.86774,0 -3.59182,-0.35919 -5.27997,0 -4.05876,0.35919 -6.50121,1.54449 -7.93793,3.12488 -2.29877,2.62203 -1.79592,6.46529 1.07755,8.18937 0.79019,0.46694 1.86774,0.93388 3.12488,1.25714 l 3.26856,0.89795 0.93388,0.35918 6.82446,1.86775 4.34611,1.11347 2.80162,0.75429 2.44245,0.57469 5.45957,1.72408 c 3.41223,1.11346 6.68079,2.37059 9.4465,4.02283 3.66366,2.04734 6.46529,4.99264 8.40487,8.47671 -0.35919,-4.41795 -0.21551,-9.08731 0.53877,-14.07995 1.43673,-8.97957 5.31591,-16.88159 11.35017,-23.05952 6.03426,-6.17794 13.64893,-10.20078 22.30523,-11.9967 24.99911,-4.81305 44.75414,8.22528 50.35739,32.21868 l 0,-134.72936 -299.9533,0 0,104.45027 7.54283,0 0,-3.59183 c -0.17959,-17.95912 9.73383,-26.36399 33.43989,-26.1844 l 8.18936,0 1.75999,0 0,19.53953 -1.22122,0 -5.60325,0 c -7.2914,0 -9.15916,1.50857 -9.15916,8.29711 l 0,1.93959 47.77128,0 0,50.53699 c 0,5.89059 0.96979,8.51262 3.44816,10.99097 2.191,2.04735 5.1363,3.26856 8.83588,3.26856 8.2612,0 13.50526,-5.27997 13.50526,-15.48076 l 0,-49.31576 27.72889,0 0,83.68953 -26.50766,0 0,-10.73956 c -4.16651,7.83018 -12.85873,13.07424 -24.7836,13.3975 -18.92892,0.35919 -29.9199,-11.0269 -29.9199,-32.075 l 0,-36.78029 -20.07831,0 0,66.19735 -27.72888,0 0,-66.19735 -7.21956,0 0,160.84194 39.04313,0 0,-31.32073 22.59258,0 0,31.32073 238.31759,0 0,-119.28451 c -5.17222,16.59423 -20.40157,27.29786 -41.19823,27.29786"
       style="fill:#2f97da;fill-rule:nonzero;stroke:none" />
    <path
       id="path31457"
       d="m 353.96358,733.703 c 0.1796,0.82611 0.1796,1.54448 0.32326,2.33468 1.22123,8.65631 6.35753,14.43915 13.14609,15.98363 6.6808,1.4008 12.71505,-0.93388 16.30688,-5.74693 0.93388,-1.25714 1.68816,-2.62203 2.19101,-4.34611 l 26.00481,0 0,-8.22527 -57.97205,0"
       style="fill:#2f97da;fill-rule:nonzero;stroke:none" />
    <path
       id="path31461"
       d="m 386.53389,715.74746 c -1.25714,-8.69221 -7.79425,-14.43913 -15.98362,-14.43913 -7.90201,0 -14.25955,5.45957 -15.98362,14.58281 -0.1077,0.64652 -0.28735,1.36489 -0.28735,2.01141 l 32.43418,0 c 0,-0.64652 0,-1.36489 -0.17959,-2.15509"
       style="fill:#2f97da;fill-rule:nonzero;stroke:none" />
    <g
       id="g33693"
       clip-path="url(#id313)"
       transform="matrix(1,0,0,-1,-115.67198,1298.66)">
      <g
         id="g33695"
         transform="matrix(9.2934113,0,0,1.2019653,356.69939,574.58167)">
        <use
           id="use33697"
           xlink:href="#id314"
           x="0"
           y="0"
           width="744.09448"
           height="1052.3622" />
      </g>
    </g>
    <g
       id="g33717"
       clip-path="url(#id318)"
       transform="matrix(1,0,0,-1,-115.67198,1298.66)">
      <g
         id="g33719"
         transform="matrix(6.5531311,0,0,0.6256714,359.29854,575.80486)">
        <use
           id="use33721"
           xlink:href="#id319"
           x="0"
           y="0"
           width="744.09448"
           height="1052.3622" />
      </g>
    </g>
    <g
       id="g33723"
       clip-path="url(#id320)"
       transform="matrix(1,0,0,-1,-115.67198,1298.66)">
      <g
         id="g33725"
         transform="matrix(0.4257507,0,0,2.7661438,358.56935,578.60406)">
        <use
           id="use33727"
           xlink:href="#id321"
           x="0"
           y="0"
           width="744.09448"
           height="1052.3622" />
      </g>
    </g>
    <g
       id="g33879"
       clip-path="url(#id345)"
       transform="matrix(1,0,0,-1,-115.67198,1298.66)">
      <g
         id="g33881"
         transform="matrix(1.4842224,0,0,0.2493439,361.9212,576.83972)">
        <use
           id="use33883"
           xlink:href="#id346"
           x="0"
           y="0"
           width="744.09448"
           height="1052.3622" />
      </g>
    </g>
    <g
       id="g33885"
       clip-path="url(#id347)"
       transform="matrix(1,0,0,-1,-115.67198,1298.66)">
      <g
         id="g33887"
         transform="matrix(1.0137787,0,0,0.1552429,362.10937,576.8398)">
        <use
           id="use33889"
           xlink:href="#id348"
           x="0"
           y="0"
           width="744.09448"
           height="1052.3622" />
      </g>
    </g>
    <g
       id="g33891"
       clip-path="url(#id349)"
       transform="matrix(1,0,0,-1,-115.67198,1298.66)">
      <g
         id="g33893"
         transform="matrix(2.4721222,0,0,4.2009735,361.21555,576.93387)">
        <use
           id="use33895"
           xlink:href="#id350"
           x="0"
           y="0"
           width="744.09448"
           height="1052.3622" />
      </g>
    </g>
    <g
       id="g33907"
       clip-path="url(#id352)"
       transform="matrix(1,0,0,-1,-115.67198,1298.66)">
      <g
         id="g33909"
         transform="matrix(1.1078644,0,0,0.6727142,361.87416,581.60292)">
        <use
           id="use33911"
           xlink:href="#id353"
           x="0"
           y="0"
           width="744.09448"
           height="1052.3622" />
      </g>
    </g>
    <g
       id="g33913"
       clip-path="url(#id354)"
       transform="matrix(1,0,0,-1,-115.67198,1298.66)">
      <g
         id="g33915"
         transform="matrix(1.0608215,0,0,0.4375,361.87416,581.36771)">
        <use
           id="use33917"
           xlink:href="#id355"
           x="0"
           y="0"
           width="744.09448"
           height="1052.3622" />
      </g>
    </g>
    <g
       id="g33919"
       clip-path="url(#id356)"
       transform="matrix(1,0,0,-1,-115.67198,1298.66)">
      <g
         id="g33921"
         transform="matrix(0.7785645,0,0,0.2493286,362.01529,581.22653)">
        <use
           id="use33923"
           xlink:href="#id357"
           x="0"
           y="0"
           width="744.09448"
           height="1052.3622" />
      </g>
    </g>
    <g
       id="g33925"
       clip-path="url(#id358)"
       transform="matrix(1,0,0,-1,-115.67198,1298.66)">
      <g
         id="g33927"
         transform="matrix(2.236908,0,0,1.296051,361.30963,581.55588)">
        <use
           id="use33929"
           xlink:href="#id359"
           x="0"
           y="0"
           width="744.09448"
           height="1052.3622" />
      </g>
    </g>
    <g
       id="g33931"
       clip-path="url(#id360)"
       transform="matrix(1,0,0,-1,-115.67198,1298.66)">
      <g
         id="g33933"
         transform="matrix(2.236908,0,0,0.5315857,361.30963,581.32066)">
        <use
           id="use33935"
           xlink:href="#id361"
           x="0"
           y="0"
           width="744.09448"
           height="1052.3622" />
      </g>
    </g>
    <g
       id="g33937"
       clip-path="url(#id362)"
       transform="matrix(1,0,0,-1,-115.67198,1298.66)">
      <g
         id="g33939"
         transform="matrix(2.0957794,0,0,0.6727142,361.35667,580.80315)">
        <use
           id="use33941"
           xlink:href="#id363"
           x="0"
           y="0"
           width="744.09448"
           height="1052.3622" />
      </g>
    </g>
    <g
       id="g33943"
       clip-path="url(#id364)"
       transform="matrix(1,0,0,-1,-115.67198,1298.66)">
      <g
         id="g33945"
         transform="matrix(1.6488647,0,0,0.331665,361.58012,580.81496)">
        <use
           id="use33947"
           xlink:href="#id365"
           x="0"
           y="0"
           width="744.09448"
           height="1052.3622" />
      </g>
    </g>
    <g
       id="g33949"
       clip-path="url(#id366)"
       transform="matrix(1,0,0,-1,-115.67198,1298.66)">
      <g
         id="g33951"
         transform="matrix(1.1078644,0,0,0.2493286,361.87416,580.66203)">
        <use
           id="use33953"
           xlink:href="#id367"
           x="0"
           y="0"
           width="744.09448"
           height="1052.3622" />
      </g>
    </g>
    <g
       id="g84291"
       clip-path="url(#id387)"
       transform="matrix(1,0,0,-1,-115.67198,1298.66)">
      <g
         id="g84293"
         transform="matrix(10.564056,0,0,3.2564392,189.88084,575.2923)">
        <use
           id="use84295"
           xlink:href="#id388"
           x="0"
           y="0"
           width="744.09448"
           height="1052.3622" />
      </g>
    </g>
    <g
       id="g84297"
       clip-path="url(#id389)"
       transform="matrix(1,0,0,-1,-115.67198,1298.66)">
      <g
         id="g84299"
         transform="matrix(10.960175,0,0,10.9478,189.48473,573.04756)">
        <use
           id="use84301"
           xlink:href="#id390"
           x="0"
           y="0"
           width="744.09448"
           height="1052.3622" />
      </g>
    </g>
    <g
       id="g84303"
       clip-path="url(#id391)"
       transform="matrix(1,0,0,-1,-115.67198,1298.66)">
      <g
         id="g84305"
         transform="matrix(0.2153931,0,0,0.896225,192.07602,578.56026)">
        <use
           id="use84307"
           xlink:href="#id392"
           x="0"
           y="0"
           width="744.09448"
           height="1052.3622" />
      </g>
    </g>
    <g
       id="g84309"
       clip-path="url(#id393)"
       transform="matrix(1,0,0,-1,-115.67198,1298.66)">
      <g
         id="g84311"
         transform="matrix(1.2057037,0,0,2.6292572,192.07602,576.11746)">
        <use
           id="use84313"
           xlink:href="#id394"
           x="0"
           y="0"
           width="744.09448"
           height="1052.3622" />
      </g>
    </g>
    <g
       id="g84315"
       clip-path="url(#id395)"
       transform="matrix(1,0,0,-1,-115.67198,1298.66)">
      <g
         id="g84317"
         transform="matrix(0.0668488,0,0,0.3350525,197.78676,578.13118)">
        <use
           id="use84319"
           xlink:href="#id396"
           x="0"
           y="0"
           width="744.09448"
           height="1052.3622" />
      </g>
    </g>
    <g
       id="g84321"
       clip-path="url(#id397)"
       transform="matrix(1,0,0,-1,-115.67198,1298.66)">
      <g
         id="g84323"
         transform="matrix(0.2360229,0,0,0.8137054,197.61758,577.3884)">
        <use
           id="use84325"
           xlink:href="#id398"
           x="0"
           y="0"
           width="744.09448"
           height="1052.3622" />
      </g>
    </g>
    <g
       id="g84327"
       clip-path="url(#id399)"
       transform="matrix(1,0,0,-1,-115.67198,1298.66)">
      <g
         id="g84329"
         transform="matrix(10.167923,0,0,4.1642151,189.88084,575.29221)">
        <use
           id="use84331"
           xlink:href="#id400"
           x="0"
           y="0"
           width="744.09448"
           height="1052.3622" />
      </g>
    </g>
    <g
       id="g84333"
       clip-path="url(#id401)"
       transform="matrix(1,0,0,-1,-115.67198,1298.66)">
      <g
         id="g84335"
         transform="matrix(10.167923,0,0,3.338974,189.88084,575.53984)">
        <use
           id="use84337"
           xlink:href="#id402"
           x="0"
           y="0"
           width="744.09448"
           height="1052.3622" />
      </g>
    </g>
    <g
       id="g84339"
       clip-path="url(#id403)"
       transform="matrix(1,0,0,-1,-115.67198,1298.66)">
      <g
         id="g84341"
         transform="matrix(5.7610779,0,0,1.3088379,192.09251,578.14763)">
        <use
           id="use84343"
           xlink:href="#id404"
           x="0"
           y="0"
           width="744.09448"
           height="1052.3622" />
      </g>
    </g>
    <g
       id="g84345"
       clip-path="url(#id405)"
       transform="matrix(1,0,0,-1,-115.67198,1298.66)">
      <g
         id="g84347"
         transform="matrix(5.7775879,0,0,4.6923828,192.07602,575.55638)">
        <use
           id="use84349"
           xlink:href="#id406"
           x="0"
           y="0"
           width="744.09448"
           height="1052.3622" />
      </g>
    </g>
    <g
       id="g84351"
       clip-path="url(#id407)"
       transform="matrix(1,0,0,-1,-115.67198,1298.66)">
      <g
         id="g84353"
         transform="matrix(4.444809,0,0,1.8865204,193.22725,575.55635)">
        <use
           id="use84355"
           xlink:href="#id408"
           x="0"
           y="0"
           width="744.09448"
           height="1052.3622" />
      </g>
    </g>
    <g
       id="g84357"
       clip-path="url(#id409)"
       transform="matrix(1,0,0,-1,-115.67198,1298.66)">
      <g
         id="g84359"
         transform="matrix(0.2153931,0,0,1.0282593,197.63821,578.4117)">
        <use
           id="use84361"
           xlink:href="#id410"
           x="0"
           y="0"
           width="744.09448"
           height="1052.3622" />
      </g>
    </g>
    <g
       id="g84381"
       clip-path="url(#id412)"
       transform="matrix(1,0,0,-1,-100.81275,1060.9123)">
      <g
         id="g84383"
         transform="matrix(0.0668488,0,0,0.0544586,199.25571,578.47775)">
        <use
           id="use84385"
           xlink:href="#id413"
           x="0"
           y="0"
           width="744.09448"
           height="1052.3622" />
      </g>
    </g>
    <g
       id="g84387"
       clip-path="url(#id414)"
       transform="matrix(1,0,0,-1,-115.67198,1298.66)">
      <g
         id="g84389"
         transform="matrix(5.2329254,0,0,4.4117889,189.94685,579.35249)">
        <use
           id="use84391"
           xlink:href="#id415"
           x="0"
           y="0"
           width="744.09448"
           height="1052.3622" />
      </g>
    </g>
    <g
       id="g84393"
       clip-path="url(#id416)"
       transform="matrix(1,0,0,-1,-115.67198,1298.66)">
      <g
         id="g84395"
         transform="matrix(10.019379,0,0,5.0390015,189.94685,578.72528)">
        <use
           id="use84397"
           xlink:href="#id417"
           x="0"
           y="0"
           width="744.09448"
           height="1052.3622" />
      </g>
    </g>
    <g
       id="g84399"
       clip-path="url(#id418)"
       transform="matrix(1,0,0,-1,-115.67198,1298.66)">
      <g
         id="g84401"
         transform="matrix(2.7571716,0,0,1.9360504,192.24106,579.40199)">
        <use
           id="use84403"
           xlink:href="#id419"
           x="0"
           y="0"
           width="744.09448"
           height="1052.3622" />
      </g>
    </g>
    <g
       id="g84405"
       clip-path="url(#id420)"
       transform="matrix(1,0,0,-1,-115.67198,1298.66)">
      <g
         id="g84407"
         transform="matrix(9.72229,0,0,3.0748901,190.11192,578.47771)">
        <use
           id="use84409"
           xlink:href="#id421"
           x="0"
           y="0"
           width="744.09448"
           height="1052.3622" />
      </g>
    </g>
    <g
       id="g84411"
       clip-path="url(#id422)"
       transform="matrix(1,0,0,-1,-115.67198,1298.66)">
      <g
         id="g84413"
         transform="matrix(9.72229,0,0,2.8438263,190.11192,578.7253)">
        <use
           id="use84415"
           xlink:href="#id423"
           x="0"
           y="0"
           width="744.09448"
           height="1052.3622" />
      </g>
    </g>
    <g
       id="g84417"
       clip-path="url(#id424)"
       transform="matrix(1,0,0,-1,-115.67198,1298.66)">
      <g
         id="g84419"
         transform="matrix(5.4474792,0,0,1.9525452,192.24106,579.38556)">
        <use
           id="use84421"
           xlink:href="#id425"
           x="0"
           y="0"
           width="744.09448"
           height="1052.3622" />
      </g>
    </g>
    <g
       id="g84423"
       clip-path="url(#id426)"
       transform="matrix(1,0,0,-1,-115.67198,1298.66)">
      <g
         id="g84425"
         transform="matrix(5.4474792,0,0,1.9360504,192.24106,579.40205)">
        <use
           id="use84427"
           xlink:href="#id427"
           x="0"
           y="0"
           width="744.09448"
           height="1052.3622" />
      </g>
    </g>
    <g
       id="g84429"
       clip-path="url(#id428)"
       transform="matrix(1,0,0,-1,-115.67198,1298.66)">
      <g
         id="g84431"
         transform="matrix(2.7447968,0,0,1.9525452,194.94377,579.38556)">
        <use
           id="use84433"
           xlink:href="#id429"
           x="0"
           y="0"
           width="744.09448"
           height="1052.3622" />
      </g>
    </g>
    <g
       id="g84737"
       clip-path="url(#id495)"
       transform="matrix(1,0,0,-1,-115.67198,1298.66)">
      <g
         id="g84739"
         transform="matrix(3.103241,0,0,3.1032257,264.98459,577.73311)">
        <use
           id="use84741"
           xlink:href="#id496"
           x="0"
           y="0"
           width="744.09448"
           height="1052.3622" />
      </g>
    </g>
    <g
       id="g85547"
       transform="matrix(1,0,0,-1,115.78736,461.34164)" />
    <g
       id="g92263"
       transform="matrix(10.449539,0,0,-7.9721222,-7.420349,762.45924)">
      <use
         id="use92265"
         xlink:href="#id553"
         x="0"
         y="0"
         width="744.09448"
         height="1052.3622" />
    </g>
  </g>
</svg>
