<?xml version="1.0" encoding="UTF-8" standalone="no"?>
<!-- Created with Inkscape (http://www.inkscape.org/) -->

<svg
   xmlns:dc="http://purl.org/dc/elements/1.1/"
   xmlns:cc="http://creativecommons.org/ns#"
   xmlns:rdf="http://www.w3.org/1999/02/22-rdf-syntax-ns#"
   xmlns:svg="http://www.w3.org/2000/svg"
   xmlns="http://www.w3.org/2000/svg"
   xmlns:xlink="http://www.w3.org/1999/xlink"
   xmlns:sodipodi="http://sodipodi.sourceforge.net/DTD/sodipodi-0.dtd"
   xmlns:inkscape="http://www.inkscape.org/namespaces/inkscape"
   width="453"
   height="303"
   id="svg2"
   version="1.1">
  <g
     inkscape:label="Layer 1"
     inkscape:groupmode="layer"
     id="layer1"
     transform="translate(-537.66701,-282.07204)">
    <path
       style="fill:#f0aa00;fill-rule:nonzero;stroke:none"
       d="M 816.62262,573.90609 C 894.12461,542.42413 931.43211,454.07873 899.95015,376.57674 868.48537,299.07475 780.13998,261.76725 702.63798,293.24921 c -77.50199,31.46478 -114.80949,119.81017 -83.34471,197.31216 31.48196,77.502 119.82736,114.8095 197.32935,83.34472"
       id="path16911" />
    <path
       style="fill:#54bfef;fill-rule:nonzero;stroke:none"
       d="m 810.91737,559.86637 c 69.7518,-28.3372 103.33026,-107.84978 75.01025,-177.58439 -28.33721,-69.75179 -107.8326,-103.33026 -177.58439,-75.01024 -69.75179,28.32002 -103.33026,107.8326 -75.01024,177.58439 28.32002,69.75179 107.83259,103.33026 177.58438,75.01024"
       id="path16913" />
    <path
       id="path16923"
       stroke-miterlimit="4"
       d="m 644.22795,367.89858 c 16.8236,7.13156 55.02469,0.61864 91.9885,-16.60021 31.0008,-14.41777 52.49858,-32.35837 57.0181,-45.84818 m -99.42939,240.70297 c 26.77342,2.07932 69.32218,0.51553 107.76386,-15.10516 34.3174,-13.93661 65.3182,-41.60362 84.78821,-66.10868 M 627.06065,413.62647 c 35.58906,6.49573 85.61307,-2.06214 132.68135,-25.29555 35.22818,-17.39069 62.19062,-39.71333 77.3817,-61.84693 M 652.06407,508.38168 c 35.74371,10.99806 95.61443,5.01786 147.97553,-20.82759 42.17071,-20.82759 74.56345,-52.24081 87.03938,-78.39558 m -257.25162,59.49266 c 38.92284,7.40651 97.2985,-2.93855 152.73563,-29.81507 42.41129,-20.53545 74.47752,-46.58712 91.14646,-71.34995 M 687.44691,330.36768 c -18.02652,35.03915 -35.02197,80.01092 -18.64516,139.38329 12.54467,45.41858 34.72983,71.21248 56.07295,92.07443 m 9.19369,-250.37783 c 37.34187,12.54467 80.88734,32.92546 110.53056,86.9019 22.68351,41.31148 24.76283,75.26801 24.0239,105.10026"
       style="fill:none;stroke:#000000;stroke-width:9.43427849;stroke-linecap:butt;stroke-linejoin:miter;stroke-miterlimit:4" />
    <path
       id="path16925"
       stroke-miterlimit="4"
       d="m 723.63742,560.45064 c 70.54227,19.31535 143.38727,-22.20234 162.70262,-92.74462 19.33254,-70.54228 -22.20234,-143.40446 -92.74462,-162.71981 -70.54228,-19.31536 -143.38728,22.20234 -162.71981,92.74462 -19.31535,70.54228 22.21953,143.40446 92.76181,162.71981 z"
       style="fill:none;stroke:#000000;stroke-width:11.53078461;stroke-linecap:butt;stroke-linejoin:miter;stroke-miterlimit:4" />
    <path
       id="path16927"
       d="m 682.30875,333.40933 c 4.9835,5.48185 23.01001,3.36816 40.26323,-4.72573 17.25321,-8.09389 27.22021,-19.09195 22.2539,-24.5738 -4.9835,-5.48185 -23.01002,-3.35097 -40.26323,4.72573 -17.2704,8.09389 -27.22022,19.09195 -22.2539,24.5738"
       style="fill:#000000;fill-rule:nonzero;stroke:none" />
    <path
       style="fill:none;stroke:#000000;stroke-width:9.43427849;stroke-linecap:butt;stroke-linejoin:miter;stroke-miterlimit:4"
       d="m 707.20906,330.26457 c 0,0 0.15466,15.63788 1.11699,27.83886 0.92796,12.0635 0.53271,44.97177 16.46273,96.26744 16.53146,53.25469 45.47012,95.23637 54.09673,108.14191 m -52.258,-240.13588 c 0,0 10.77467,11.32457 18.59361,20.74166 7.7502,9.2968 30.98361,32.59895 55.33401,80.49209 25.26119,49.69751 33.80187,99.9621 36.62012,115.2391"
       stroke-miterlimit="4"
       id="path16935" />
    <path
       style="fill:#f0aa00;fill-rule:nonzero;stroke:none"
       d="m 537.66701,478.87593 15.31136,-72.82781 427.68727,-39.5243 -32.66769,142.39058 -410.33094,-30.03847 z m 399.9687,15.68943 29.7807,-113.17697 -406.41289,32.16934 -12.08068,58.44441 388.71287,22.56322"
       id="path16937" />
    <path
       style="fill:#000000;fill-rule:nonzero;stroke:none"
       d="m 980.66564,366.52382 10.00136,8.85 -26.39535,117.02629 -16.2737,16.2737 32.66769,-142.14999"
       id="path16939" />
    <path
       style="fill:#f8f400;fill-rule:nonzero;stroke:none"
       d="m 561.00352,413.31715 406.20667,-32.11779 -28.8871,113.33163 -389.40025,-22.99283 12.08068,-58.22101"
       id="path16941" />
    <path
       style="fill:#000000;fill-rule:nonzero;stroke:none"
       d="m 554.43905,469.25262 12.35564,-52.51576 13.48982,-1.16854 -0.75612,21.85865 9.58894,-22.66632 12.80243,-0.61864 -11.68544,56.51974 -11.37612,-0.36087 3.95243,-23.35371 -1.13418,-0.0344 -6.46136,23.26778 -7.18311,-0.53271 2.64641,-23.18186 -0.72175,0.0687 -5.84272,23.04439 -9.67487,-0.32651"
       id="path16943" />
    <path
       style="fill:#000000;fill-rule:nonzero;stroke:none"
       d="m 615.97667,413.17967 c 0,0 -1.64971,8.88438 -3.6603,19.02322 -2.16524,10.87777 -4.07272,17.94059 -4.22738,20.60419 0,0 -0.30932,1.68408 1.01389,1.68408 0.82485,0 1.52941,0.15466 2.01058,-1.83874 1.23728,-5.15535 3.67748,-16.23933 4.39923,-20.56982 l 4.07272,-19.28098 10.91214,-0.68738 c 0,0 -10.87777,50.8145 -10.94651,51.10663 -2.62923,10.70593 -8.38603,9.05622 -12.39001,8.72972 -3.67748,-0.32651 -13.74758,1.13417 -11.11836,-11.03244 l 9.69205,-47.11983 10.24195,-0.61865"
       id="path16945" />
    <path
       style="fill:#000000;fill-rule:nonzero;stroke:none"
       d="m 634.32969,416.47909 c 3.11039,-5.98019 7.42369,-6.8566 15.56913,-7.04563 10.62001,-0.24058 10.7403,6.06612 7.44088,19.67622 l -1.9934,8.04234 -11.54796,0 1.52941,-7.5268 c 0.0516,-1.42631 0.30932,-2.23398 -1.04825,-2.61204 -1.25447,-0.36088 -1.85592,0.60145 -2.23398,2.11369 -0.63583,2.42301 -2.40583,12.26972 -4.4336,20.44953 0,0 -0.80767,3.45408 0.79049,3.95243 1.04825,0.30932 1.85592,-0.97952 2.47456,-2.95573 l 1.6669,-7.26904 11.54797,0 -2.33709,9.86389 c -2.71515,10.86059 -4.69136,20.74167 -17.42506,20.00273 -3.59156,-0.20621 -13.64448,0.85923 -10.1904,-13.31797 0,0 8.14545,-39.43837 10.1904,-43.37362"
       id="path16947" />
    <path
       style="fill:#000000;fill-rule:nonzero;stroke:none"
       d="m 666.00068,409.43346 -14.57244,63.70285 11.85729,0.48117 5.92865,-23.83487 3.57437,-0.0344 -5.63651,24.0239 13.61011,0.70456 15.6035,-66.93353 -14.03972,0.92796 -5.31,22.08205 -3.35097,0.24058 4.91476,-22.23671 -12.57904,0.87641"
       id="path16949" />
    <path
       style="fill:#000000;fill-rule:nonzero;stroke:none"
       d="m 701.6241,407.54317 -16.23933,67.39751 13.40389,0.61865 5.61933,-25.58769 0.46398,-0.0515 -0.34369,25.69079 7.18311,0.30932 10.24195,-25.67361 0.84204,0 -5.89428,25.93138 15.277,0.63582 17.78593,-72.08888 -19.96836,1.25447 -12.16661,28.38875 0.39524,-27.68419 -16.6002,0.85923"
       id="path16951" />
    <path
       style="fill:#000000;fill-rule:nonzero;stroke:none"
       d="m 774.89871,403.09239 c 0,0 -12.81962,48.7008 -13.09457,49.56003 -0.85923,2.73233 -0.10311,3.28223 2.16524,3.41971 2.78389,0.17184 3.23068,-0.15466 3.88369,-3.28224 l 12.93992,-50.43644 19.09195,-1.63252 -18.02652,64.80266 c -3.41971,11.80574 -7.69864,15.67224 -24.65972,14.58962 -13.45545,-0.84204 -19.84807,-0.89359 -15.39729,-17.94059 l 14.79583,-57.94606 18.30147,-1.13417"
       id="path16953" />
    <path
       style="fill:#000000;fill-rule:nonzero;stroke:none"
       d="m 821.96699,423.45599 c 2.57767,-0.15466 2.62923,0.84204 2.07932,3.90088 l 20.96507,-0.60146 3.78058,-9.82952 c 4.91476,-15.68943 3.7634,-19.8137 -18.47331,-18.817 -18.2671,0.80767 -25.244,3.74621 -31.73973,25.3471 -6.13486,20.43234 -4.15864,23.88642 1.01388,25.31274 l 17.35633,0.37805 c 0,0 -1.04826,3.90088 -1.70127,5.77399 -0.75611,2.13087 -1.2201,3.3166 -3.23068,3.17913 -1.78719,-0.13748 -2.37146,-0.87641 -2.13087,-2.26835 0.1031,-0.63583 0.48116,-1.9934 0.48116,-1.9934 l -19.65904,0 -1.89029,7.04563 c -4.27894,17.09856 -3.29942,20.55264 18.11244,22.0305 17.64845,1.20292 26.85933,-2.44019 31.68817,-26.3438 4.62263,-16.46273 4.86321,-23.42244 -0.72175,-25.244 l -14.65836,-0.12029 c 0,0 -6.27233,1.47787 -4.77728,-4.45078 0.53272,-2.11369 0.96233,-3.16194 3.50563,-3.29942"
       id="path16955" />
    <path
       style="fill:#000000;fill-rule:nonzero;stroke:none"
       d="m 886.85558,394.62044 -24.33322,1.52942 -23.73176,87.27996 22.8038,1.08262 25.26118,-89.892"
       id="path16957" />
    <path
       style="fill:#000000;fill-rule:nonzero;stroke:none"
       d="m 915.62239,434.12755 28.54342,0.0344 3.90087,-11.77137 c 3.45408,-10.48253 4.26176,-16.3768 5.18972,-20.00273 2.71514,-10.62 -12.11506,-12.95709 -25.6908,-12.47593 -8.16262,0.29214 -25.45021,0.51554 -32.30681,11.92603 -5.46467,9.12496 -16.1706,48.71799 -19.36691,63.04985 -5.32719,23.73176 10.56845,22.88972 23.93798,23.21622 25.69079,0.63583 26.72186,5.32719 36.6373,-23.78331 l 5.60214,-20.20895 -29.95254,-0.85922 c 0,0 -1.78719,8.5235 -4.19301,14.53807 -0.53272,1.35757 -1.18573,3.43689 -3.7634,3.33379 -1.39195,-0.0516 -2.92137,-1.2201 -1.94185,-3.69467 0,0 9.33117,-33.73313 10.13884,-35.91555 1.49505,-3.95243 3.29942,-4.17583 4.74292,-4.08991 1.06543,0.0859 1.85592,0.61864 2.14806,2.3199 l -3.62593,14.38341"
       id="path16959" />
  </g>
</svg>
