<?xml version="1.0" encoding="UTF-8" standalone="no"?>
<!-- Created with Inkscape (http://www.inkscape.org/) -->
<svg xmlns="http://www.w3.org/2000/svg" width="675.78845" height="150.65224">
  <defs>
  </defs>
  <path
     style="fill:#f46f1a"
     d="M 597.0625 0 C 584.72552 0 575.96605 2.8773682 570.78125 8.625 C 566.51286 13.336664 564.37501 21.212954 564.375 32.25 L 564.375 35 L 551.40625 35 L 551.40625 57.0625 L 564.375 57.0625 L 564.375 121.03125 L 595.71875 121.03125 L 595.71875 57.0625 L 617.8125 57.0625 L 625.90625 57.0625 L 625.90625 83.96875 L 625.90625 93.8125 C 625.7917 103.01668 628.11491 109.98355 632.90625 114.75 C 637.6976 119.52143 645.52226 121.90625 656.375 121.90625 C 662.03298 121.90625 668.50459 121.28637 675.78125 120.03125 L 675.78125 96.15625 C 671.94119 97.047781 668.81054 97.468747 666.375 97.46875 C 663.46632 97.46875 661.4417 96.819866 660.28125 95.5 C 659.12076 94.185118 658.53123 91.858302 658.53125 88.53125 L 658.53125 57.0625 L 675.78125 57.0625 L 675.78125 35.03125 L 658.53125 35.03125 L 659.34375 6.6875 L 629.875 7.75 L 627.625 35.03125 L 617.8125 35.03125 L 617.8125 35 L 595.90625 35 C 595.79169 34.432209 595.71872 33.541345 595.71875 32.28125 C 595.71875 25.896099 599.30028 22.687499 606.4375 22.6875 C 608.73855 22.6875 611.3087 22.8538 614.1875 23.1875 L 618.5 23.6875 L 621.4375 24.21875 L 621.4375 2.25 C 612.9057 0.74585383 604.78247 -1.685554e-13 597.0625 0 z M 423.25 5.625 L 423.25 121.03125 L 456.53125 121.03125 L 456.53125 5.625 L 423.25 5.625 z M 86.3125 15.125 C 74.339097 15.125 67.207293 21.772849 64.90625 35.03125 C 59.377766 33.875747 53.981894 33.28125 48.6875 33.28125 C 35.563575 33.28125 25.337814 35.687359 18.03125 40.46875 C 10.719705 45.250142 7.0625001 51.915666 7.0625 60.4375 C 7.0625 65.28364 8.120544 69.189166 10.1875 72.1875 C 12.254456 75.18085 15.814694 77.89192 20.875 80.3125 C 9.9525083 85.034125 4.46875 91.363432 4.46875 99.3125 C 4.46875 104.26821 7.1005269 108.78318 12.375 112.8125 C 4.0772925 116.27403 -0.062500001 121.72791 -0.0625 129.21875 C -0.0625 143.50814 15.536474 150.65625 46.75 150.65625 C 55.271835 150.65625 62.654212 150.23936 68.875 149.4375 C 78.089141 148.28199 85.249948 145.35162 90.375 140.625 C 95.500055 135.89342 98.062503 129.95968 98.0625 122.8125 C 98.0625 114.97301 95.482377 108.65639 90.3125 103.875 C 85.14262 99.088623 78.017162 96.536145 68.9375 96.1875 L 41.53125 95 C 36.705032 94.775872 34.312499 93.507101 34.3125 91.15625 C 34.3125 88.466717 37.13323 87.093746 42.78125 87.09375 L 43.625 87.09375 L 47.96875 87.09375 L 50.03125 87.09375 C 62.696958 87.09375 72.425187 84.862538 79.21875 80.375 C 86.012311 75.892445 89.4375 69.532767 89.4375 61.25 C 89.4375 53.435413 86.23886 46.851916 79.84375 41.5625 C 81.2184 39.495544 84.303764 38.468751 89.125 38.46875 L 95.65625 38.46875 L 97.21875 38.46875 L 98.0625 15.8125 L 94.4375 15.46875 C 92.016921 15.244623 89.305853 15.125 86.3125 15.125 z M 373.53125 30.40625 C 368.92629 30.502052 364.07499 31.250713 359.09375 32.71875 C 333.19454 40.359016 320.00642 63.853352 327.4375 89.125 C 334.65441 113.53999 358.15214 124.95951 384.71875 117.125 C 407.33572 110.45595 420.10072 95.136807 419 75.6875 L 388.71875 82.4375 C 389.05246 90.18236 386.58565 93.936659 379.6875 95.96875 C 370.33888 98.742952 365.9502 95.922404 362.46875 84.65625 L 416.90625 68.625 C 416.48289 66.602867 415.92432 64.631172 415.75 63.96875 C 409.29544 42.1082 393.48608 29.99111 373.53125 30.40625 z M 140.90625 33.28125 C 116.21235 33.28125 101.39819 42.308937 96.4375 60.34375 L 127.03125 63.125 C 128.18177 56.784675 132.50417 53.593751 140 53.59375 C 146.79854 53.59375 150.21875 56.784677 150.21875 63.125 L 150.21875 65.1875 C 135.92438 65.884786 124.31296 67.725403 115.4375 70.71875 C 108.74853 72.915202 103.51896 76.367145 99.71875 81.09375 C 95.913559 85.820355 93.999997 91.23253 94 97.34375 C 94 104.95413 96.779039 111.11442 102.3125 115.78125 C 107.84099 120.44809 115.14045 122.78125 124.25 122.78125 C 136.12379 122.78125 145.36807 118.22957 151.9375 109.125 L 151.9375 110.84375 C 151.9375 113.72753 152.34938 117.11648 153.15625 121.03125 L 185.125 121.03125 C 183.45152 116.07055 182.625 110.48075 182.625 104.25 L 182.625 69.96875 C 182.625 62.238833 182.39572 57.243524 181.9375 54.9375 C 180.89655 49.742717 178.42472 45.471974 174.5 42.125 C 167.46238 36.242892 156.25651 33.28125 140.90625 33.28125 z M 245.28125 33.28125 C 234.79705 33.28125 226.85143 37.752272 221.4375 46.6875 L 221.4375 35 L 191.1875 35 L 191.1875 121.03125 L 223.59375 121.03125 L 223.59375 67.4375 C 223.59375 60.519423 226.39046 57.0625 231.96875 57.0625 C 237.1984 57.0625 239.81251 60.519426 239.8125 67.4375 L 239.8125 121.03125 L 272.25 121.03125 L 272.25 71.375 C 272.25 62.260472 275.35666 57.718751 281.5625 57.71875 C 284.43631 57.71875 286.37027 58.584226 287.40625 60.3125 C 288.09357 61.702092 288.43749 64.059272 288.4375 67.40625 L 288.4375 121.03125 L 321.3125 121.03125 L 321.3125 62.53125 C 321.3125 56.87825 320.96857 52.790116 320.28125 50.25 C 319.35984 46.325274 317.28495 42.915026 314.0625 40.03125 C 309.11177 35.528773 302.63158 33.281249 294.6875 33.28125 C 283.74508 33.28125 275.22627 37.752272 269.125 46.6875 C 264.05971 37.752274 256.10912 33.281249 245.28125 33.28125 z M 508.4375 33.28125 C 494.60633 33.28125 483.24548 37.484028 474.375 45.90625 C 465.49456 54.333453 461.0625 65.127439 461.0625 78.28125 C 461.0625 91.20595 465.45783 101.8563 474.21875 110.21875 C 482.97965 118.58619 494.10127 122.78125 507.59375 122.78125 C 521.65403 122.78125 533.12455 118.58619 542 110.21875 C 550.87546 101.8563 555.31251 91.054596 555.3125 77.78125 C 555.3125 64.741996 550.95609 54.057669 542.25 45.75 C 533.54886 37.442332 522.27365 33.281251 508.4375 33.28125 z M 48.78125 50.15625 C 55.420411 50.15625 58.75 53.671177 58.75 60.71875 C 58.75 67.646788 55.30577 71.125004 48.4375 71.125 C 41.907912 71.125 38.625001 67.537128 38.625 60.375 C 38.625 53.561517 42.022553 50.15625 48.78125 50.15625 z M 369.1875 50.75 C 374.36002 50.665651 377.81745 54.24575 380.375 61.90625 L 357.5625 68.625 C 354.98253 59.226575 357.28375 53.745773 365.3125 51.375 C 366.69742 50.966901 367.99384 50.769465 369.1875 50.75 z M 508.375 54.46875 C 512.28977 54.46875 515.1155 56.194721 516.84375 59.65625 C 518.57203 63.122759 519.43751 68.958158 519.4375 77.15625 L 519.4375 78.375 C 519.4375 87.270381 518.53306 93.512685 516.75 97.09375 C 514.96196 100.67481 511.9926 102.46875 507.84375 102.46875 C 503.924 102.46875 501.13726 100.60187 499.46875 96.90625 C 497.79526 93.215613 496.93749 86.994594 496.9375 78.21875 C 496.9375 62.400312 500.76462 54.468749 508.375 54.46875 z M 150.21875 80.9375 L 150.21875 85.0625 C 150.21875 96.657375 145.87642 102.46875 137.25 102.46875 C 131.61194 102.46875 128.8125 99.883647 128.8125 94.71875 C 128.8125 87.028678 135.95426 82.431687 150.21875 80.9375 z M 36.59375 119.84375 C 38.197509 119.84375 39.41189 119.89541 40.21875 120 L 60.71875 120.84375 C 65.883649 121.07286 68.468752 122.90351 68.46875 126.375 C 68.46875 129.61738 66.149648 131.6986 61.5625 132.625 C 59.839206 132.96867 56.300256 133.15624 50.90625 133.15625 C 35.526106 133.15625 27.8125 130.49186 27.8125 125.1875 C 27.8125 121.6164 30.736546 119.84375 36.59375 119.84375 z " />
</svg>
