<?xml version="1.0" encoding="UTF-8" standalone="no"?>
<svg
   xmlns:dc="http://purl.org/dc/elements/1.1/"
   xmlns:cc="http://creativecommons.org/ns#"
   xmlns:rdf="http://www.w3.org/1999/02/22-rdf-syntax-ns#"
   xmlns:svg="http://www.w3.org/2000/svg"
   xmlns="http://www.w3.org/2000/svg"
   xmlns:xlink="http://www.w3.org/1999/xlink"
   xmlns:sodipodi="http://sodipodi.sourceforge.net/DTD/sodipodi-0.dtd"
   xmlns:inkscape="http://www.inkscape.org/namespaces/inkscape"
   version="1.1"
   id="Layer_1"
   x="0px"
   y="0px"
   width="500"
   height="500"
   viewBox="0 0 500 500"
   enable-background="new 0 0 576 792"
   xml:space="preserve">
<rect
   x="0"
   y="0"
   clip-path="none"
   width="500"
   height="500"
   id="rect67"
   style="fill:#072e5e" /><path
   clip-path="none"
   d="m 359.24985,129.14855 h 10.36056 c 9.79561,-0.0101 14.3252,9.1298 14.3252,16.0402 v 107.50963 c 0.0202,7.7578 -4.54977,14.94058 -13.3063,14.90023 H 359.24985 V 129.14855 m 10.42108,-3.98482 h -41.22026 v 3.98482 h 10.90531 v 241.70249 h -10.90531 v 4.27738 h 46.49638 v -4.27738 h -15.6972 v -98.34958 h 13.54842 c 19.70219,0 30.92024,-10.38073 30.92024,-24.33267 v -96.57406 c -0.0101,-13.94185 -9.68464,-26.45118 -34.04758,-26.431 z"
   id="path69"
   inkscape:connector-curvature="0"
   style="fill:#ffffff" /><path
   clip-path="none"
   d="m 151.53442,128.37177 c 0,3.98482 -2.33037,3.69227 -4.19668,2.37072 -6.69854,-4.70109 -14.90023,-8.10081 -22.22424,-8.03019 -11.94439,0.0807 -29.094279,5.86123 -29.134639,31.06148 v 185.27934 c 0.19168,32.19135 15.666929,38.19382 30.930339,38.36531 11.88386,0.12106 17.54332,-6.16387 22.34529,-8.24203 2.54222,-1.1097 5.30638,1.4527 5.30638,6.19414 h 4.9432 V 257.50035 h 9.88641 v -3.96465 h -41.81547 v 3.96465 H 139.701 v 101.38611 c 0,8.22186 -5.58885,14.45635 -12.61022,14.45635 -6.77925,0 -11.97466,-6.43625 -11.97466,-14.45635 V 146.40941 c -0.0101,-5.77043 1.00882,-19.20787 9.94694,-19.14734 17.20033,0.14123 26.30995,50.41059 26.45118,76.42798 h 4.93312 v -78.68773 h -4.91294 l 0,3.36945"
   id="path71"
   inkscape:connector-curvature="0"
   style="fill:#ffffff" /><path
   clip-path="none"
   d="M 227.4479,267.92143 239.50327,160.0688 251.80075,267.92143 H 227.4479 m 24.85726,4.41862 11.19787,98.45046 h -11.0062 v 4.27738 h 41.37159 v -4.27738 h -10.9154 L 255.47284,125.11329 H 237.8589 L 212.32574,357.1513 c -1.50314,8.32274 -2.27993,13.46771 -14.26468,13.64929 v 4.2673 h 31.03122 v -4.27738 c -8.7868,0.0202 -12.76154,-5.60903 -11.89396,-11.57114 l 9.74518,-86.86923 h 25.36166 z"
   id="path73"
   inkscape:connector-curvature="0"
   style="fill:#ffffff" />
</svg>