<?xml version="1.0" encoding="UTF-8" standalone="no"?>
<!-- Created with Inkscape (http://www.inkscape.org/) -->

<svg
   xmlns:dc="http://purl.org/dc/elements/1.1/"
   xmlns:cc="http://creativecommons.org/ns#"
   xmlns:rdf="http://www.w3.org/1999/02/22-rdf-syntax-ns#"
   xmlns:svg="http://www.w3.org/2000/svg"
   xmlns="http://www.w3.org/2000/svg"
   version="1.1"
   width="180"
   height="130"
   id="svg2">
  <metadata
     id="metadata8">
    <rdf:RDF>
      <cc:Work
         rdf:about="">
        <dc:format>image/svg+xml</dc:format>
        <dc:type
           rdf:resource="http://purl.org/dc/dcmitype/StillImage" />
        <dc:title></dc:title>
      </cc:Work>
    </rdf:RDF>
  </metadata>
  <defs
     id="defs6" />
  <path
     d="m 32.885835,47.568205 c -14.554786,0 -26.40625,11.882714 -26.40625,26.4375 0,14.554786 11.851464,26.437505 26.40625,26.437505 7.668413,0 14.601907,-3.314882 19.4375,-8.562505 l 0,6.531253 c 0,10.771692 -8.665795,19.406242 -19.4375,19.406242 -10.771705,0 -19.40625,-8.63455 -19.40625,-19.406242 l -7,0 c 0,14.554772 11.851464,26.406242 26.40625,26.406242 14.554786,0 26.4375,-11.85147 26.4375,-26.406242 l 0,-24.406253 c 0,-14.554786 -11.882714,-26.4375 -26.4375,-26.4375 z m -1,7.03125 c 0.332264,-0.01669 0.663384,0 1,0 10.771705,0 19.4375,8.634545 19.4375,19.40625 0,10.771705 -8.665795,19.40625 -19.4375,19.40625 -10.771705,0 -19.40625,-8.634545 -19.40625,-19.40625 0,-10.435089 8.106071,-18.888968 18.40625,-19.40625 z"
     id="path2987"
     style="font-size:medium;font-style:normal;font-variant:normal;font-weight:normal;font-stretch:normal;text-indent:0;text-align:start;text-decoration:none;line-height:normal;letter-spacing:normal;word-spacing:normal;text-transform:none;direction:ltr;block-progression:tb;writing-mode:lr-tb;text-anchor:start;baseline-shift:baseline;color:#000000;fill:#000000;fill-opacity:1;stroke:none;stroke-width:6.08356619;marker:none;visibility:visible;display:inline;overflow:visible;enable-background:accumulate;font-family:Sans;-inkscape-font-specification:Sans" />
  <path
     d="m 89.601165,47.568205 c -14.554788,0 -26.406252,11.882714 -26.406252,26.4375 0,14.554786 11.851464,26.437505 26.406252,26.437505 7.66841,0 14.601905,-3.314882 19.437495,-8.562505 l 0,9.469215 7,0 0,-27.344215 c 0,-14.554786 -11.88272,-26.4375 -26.437495,-26.4375 z m -1,7.03125 c 0.33226,-0.01669 0.66338,0 1,0 10.771695,0 19.437495,8.634545 19.437495,19.40625 0,10.771705 -8.6658,19.40625 -19.437495,19.40625 -10.771707,0 -19.406252,-8.634545 -19.406252,-19.40625 0,-10.435089 8.106071,-18.888968 18.406252,-19.40625 z"
     id="path3768"
     style="font-size:medium;font-style:normal;font-variant:normal;font-weight:normal;font-stretch:normal;text-indent:0;text-align:start;text-decoration:none;line-height:normal;letter-spacing:normal;word-spacing:normal;text-transform:none;direction:ltr;block-progression:tb;writing-mode:lr-tb;text-anchor:start;baseline-shift:baseline;color:#000000;fill:#000000;fill-opacity:1;stroke:none;stroke-width:6.08356619;marker:none;visibility:visible;display:inline;overflow:visible;enable-background:accumulate;font-family:Sans;-inkscape-font-specification:Sans" />
  <path
     d="m 147.11417,47.568205 c 14.55478,0 26.40625,11.882714 26.40625,26.4375 0,14.554786 -11.85147,26.437505 -26.40625,26.437505 -7.66841,0 -14.60192,-3.314882 -19.4375,-8.562505 l 0,33.483795 -7,0 0,-51.358795 c 0,-14.554786 11.88272,-26.4375 26.4375,-26.4375 z m 1,7.03125 c -0.33227,-0.01669 -0.66339,0 -1,0 -10.77171,0 -19.4375,8.634545 -19.4375,19.40625 0,10.771705 8.66579,19.40625 19.4375,19.40625 10.7717,0 19.40625,-8.634545 19.40625,-19.40625 0,-10.435089 -8.10607,-18.888968 -18.40625,-19.40625 z"
     id="path3770"
     style="font-size:medium;font-style:normal;font-variant:normal;font-weight:normal;font-stretch:normal;text-indent:0;text-align:start;text-decoration:none;line-height:normal;letter-spacing:normal;word-spacing:normal;text-transform:none;direction:ltr;block-progression:tb;writing-mode:lr-tb;text-anchor:start;baseline-shift:baseline;color:#000000;fill:#000000;fill-opacity:1;stroke:none;stroke-width:6.08356619;marker:none;visibility:visible;display:inline;overflow:visible;enable-background:accumulate;font-family:Sans;-inkscape-font-specification:Sans" />
  <path
     d="m 26.804414,4.6355019 -3.475708,8.5721621 -8.572161,-3.4757068 -0.751505,1.8534398 8.572162,3.475707 -7.444589,18.360644 1.85344,0.751504 7.444589,-18.360643 10.702308,4.339405 0.751504,-1.85344 -10.702307,-4.339406 3.475707,-8.5721619 z"
     id="path3776"
     style="font-size:medium;font-style:normal;font-variant:normal;font-weight:normal;font-stretch:normal;text-indent:0;text-align:start;text-decoration:none;line-height:normal;letter-spacing:normal;word-spacing:normal;text-transform:none;direction:ltr;block-progression:tb;writing-mode:lr-tb;text-anchor:start;baseline-shift:baseline;color:#000000;fill:#000000;fill-opacity:1;stroke:none;stroke-width:2;marker:none;visibility:visible;display:inline;overflow:visible;enable-background:accumulate;font-family:Sans;-inkscape-font-specification:Sans" />
  <path
     d="m 38.446335,9.3558882 -7.526784,18.5633638 -4.145015,10.222882 1.85344,0.751505 4.145016,-10.222882 c 0.5384,-1.307371 1.446609,-2.512289 2.644982,-3.446178 3.66585,-2.856789 8.934018,-2.223484 11.790806,1.442366 l 0.09783,0.174552 c 1.741095,2.347973 2.148922,5.428578 1.046864,8.146592 l -4.145015,10.222882 1.85344,0.751504 4.145015,-10.222881 C 51.601596,32.299885 51.062861,28.37758 48.781325,25.449898 47.901026,24.320293 46.834093,23.422317 45.654499,22.765796 45.212151,22.5196 44.728783,22.310286 44.258942,22.132505 41.281587,21.005921 37.872671,21.279711 35.050989,23.052516 L 40.29978,10.107392 38.446338,9.3558882 z"
     id="path3782"
     style="font-size:medium;font-style:normal;font-variant:normal;font-weight:normal;font-stretch:normal;text-indent:0;text-align:start;text-decoration:none;line-height:normal;letter-spacing:normal;word-spacing:normal;text-transform:none;direction:ltr;block-progression:tb;writing-mode:lr-tb;text-anchor:start;baseline-shift:baseline;color:#000000;fill:#000000;fill-opacity:1;stroke:none;stroke-width:2;marker:none;visibility:visible;display:inline;overflow:visible;enable-background:accumulate;font-family:Sans;-inkscape-font-specification:Sans" />
  <path
     d="m 66.616067,31.197525 c -3.288885,-1.24446 -7.150725,-0.814736 -10.115937,1.496045 -4.518416,3.521191 -5.319052,10.061981 -1.797862,14.580398 3.521191,4.518418 10.061981,5.319052 14.580398,1.797863 l 0.780401,-0.594044 -1.217048,-1.572545 -0.780402,0.594044 c -3.665849,2.856788 -8.934017,2.223485 -11.790804,-1.442367 -1.6997,-2.181064 -2.145668,-4.904168 -1.462528,-7.370938 l 15.493604,6.282106 0.637118,0.25833 1.216322,0.493175 0.375752,-0.926721 c 1.39468,-3.439709 0.855943,-7.362013 -1.425592,-10.289695 -0.880298,-1.129605 -1.947231,-2.027581 -3.126827,-2.684102 -0.442349,-0.246196 -0.896755,-0.443769 -1.366595,-0.621549 z m -1.099025,1.712533 c 1.537837,0.497662 2.948607,1.435471 4.019902,2.810165 l 0.09783,0.174552 c 1.536216,2.071681 2.025701,4.736297 1.364697,7.196388 L 55.563787,36.832541 c 0.532959,-0.951805 1.265888,-1.840487 2.182351,-2.554685 2.291156,-1.785492 5.207842,-2.197235 7.770902,-1.367798 z"
     id="path15"
     style="font-size:medium;font-style:normal;font-variant:normal;font-weight:normal;font-stretch:normal;text-indent:0;text-align:start;text-decoration:none;line-height:normal;letter-spacing:normal;word-spacing:normal;text-transform:none;direction:ltr;block-progression:tb;writing-mode:lr-tb;text-anchor:start;baseline-shift:baseline;color:#000000;fill:#000000;fill-opacity:1;stroke:none;stroke-width:2;marker:none;visibility:visible;display:inline;overflow:visible;enable-background:accumulate;font-family:Sans;-inkscape-font-specification:Sans" />
</svg>
