<?xml version="1.0" encoding="UTF-8" standalone="no"?>
<!-- Created with Inkscape (http://www.inkscape.org/) -->

<svg
   xmlns:dc="http://purl.org/dc/elements/1.1/"
   xmlns:cc="http://creativecommons.org/ns#"
   xmlns:rdf="http://www.w3.org/1999/02/22-rdf-syntax-ns#"
   xmlns:svg="http://www.w3.org/2000/svg"
   xmlns="http://www.w3.org/2000/svg"
   xmlns:sodipodi="http://sodipodi.sourceforge.net/DTD/sodipodi-0.dtd"
   xmlns:inkscape="http://www.inkscape.org/namespaces/inkscape"
   width="1000"
   height="171.89192"
   id="svg3208"
   version="1.1"
   inkscape:version="0.48.2 r9819"
   sodipodi:docname="New document 4">
  <defs
     id="defs3210">
    <clipPath
       clipPathUnits="userSpaceOnUse"
       id="clipPath3049">
      <path
         inkscape:connector-curvature="0"
         d="m -119.97235,-14.33386 0,60.4653 353.46806,0 0,-60.4653 -353.46806,0 z"
         id="path3051" />
    </clipPath>
  </defs>
  <sodipodi:namedview
     id="base"
     pagecolor="#ffffff"
     bordercolor="#666666"
     borderopacity="1.0"
     inkscape:pageopacity="0.0"
     inkscape:pageshadow="2"
     inkscape:zoom="0.35"
     inkscape:cx="1535"
     inkscape:cy="-28.339755"
     inkscape:document-units="px"
     inkscape:current-layer="layer1"
     showgrid="false"
     fit-margin-left="0.5"
     fit-margin-bottom="0.5"
     fit-margin-top="0.5"
     fit-margin-right="0.5"
     inkscape:window-width="1920"
     inkscape:window-height="1028"
     inkscape:window-x="-8"
     inkscape:window-y="-8"
     inkscape:window-maximized="1" />
  <metadata
     id="metadata3213">
    <rdf:RDF>
      <cc:Work
         rdf:about="">
        <dc:format>image/svg+xml</dc:format>
        <dc:type
           rdf:resource="http://purl.org/dc/dcmitype/StillImage" />
        <dc:title></dc:title>
      </cc:Work>
    </rdf:RDF>
  </metadata>
  <g
     inkscape:label="Layer 1"
     inkscape:groupmode="layer"
     id="layer1"
     transform="translate(1160,-332.13051)">
    <g
       id="g3045"
       transform="matrix(2.8262809,0,0,2.8262809,-820.42445,373.14202)"
       style="fill:#231f20;fill-opacity:1">
      <g
         id="g3047"
         clip-path="url(#clipPath3049)"
         style="fill:#231f20;fill-opacity:1">
        <g
           id="g3053"
           transform="matrix(1.22763,0,0,-1.22763,-326.47092,552.53674)"
           style="fill:#231f20;fill-opacity:1">
          <path
             d="m 242.82761,449.8931 c 6.03416,0 18.55178,-0.1026 18.55178,-0.1026 l 0.9228,11.28521 c 0,0 -16.6088,0 -21.019,0 -7.48491,0 -19.06441,-6.56842 -19.26949,-19.38479 0,-13.02539 6.6709,-27.2973 25.58148,-27.28662 l 11.38089,0 2.30222,31.23391 -16.09229,0 -1.12841,-10.51269 4.84822,-0.0269 -0.67533,-10.66113 c -3.80079,0.43414 -10.82179,2.52002 -12.58009,9.05081 -2.2222,8.2529 -0.3076,11.07321 0.5127,12.50879 0.82029,1.43552 2.7617,3.896 6.66452,3.896 z"
             style="fill:#231f20;fill-opacity:1;fill-rule:nonzero;stroke:none"
             id="path3055"
             inkscape:connector-curvature="0" />
          <path
             d="m 290.73386,461.12064 c -5.04837,-0.25632 -18.72068,-2.2725 -25.04197,-17.68705 -5.84423,-14.25198 -1.53762,-26.04296 -0.4165,-29.02246 0,3e-5 11.58637,0 12.50882,0 -2.34183,3.17871 -3.24612,9.32669 -3.43072,14.25778 l 13.74121,0 -1.15482,-14.20059 11.44241,0 3.79349,46.65232 -11.44192,0 z m -14.9502,-22.10205 c 1.9277,4.65963 6.13385,10.31594 13.79834,10.46432 0.0772,0.0762 0.14899,0.15283 0.22369,0.22849 l -0.86923,-10.69281 -13.1528,0 z"
             style="fill:#231f20;fill-opacity:1;fill-rule:nonzero;stroke:none"
             id="path3057"
             inkscape:connector-curvature="0" />
          <path
             d="m 330.38956,432.36044 c 2.76864,1.9477 8.46985,5.19379 10.86822,12.20108 3.89649,11.38092 -8.57907,14.76957 -11.07318,15.48243 -2.15329,0.61529 -9.58301,0.93655 -12.21579,1.00927 l 0.002,0.0225 -11.88092,0 -4.00528,-46.67141 11.88028,0 3.02152,35.20749 c 1.61328,0.0908 5.2305,0.3609 8.8916,-0.23139 6.97269,-1.12747 1.8457,-6.35696 0.10351,-7.89456 -1.7431,-1.53799 -5.9472,-4.6142 -8.71582,-6.5625 2.15332,-7.79245 10.65732,-20.51221 10.65732,-20.51221 0,3e-5 13.80268,0 14.35437,0 -1.0253,0 -11.47748,15.38578 -11.88772,17.94931 z"
             style="fill:#231f20;fill-opacity:1;fill-rule:nonzero;stroke:none"
             id="path3059"
             inkscape:connector-curvature="0" />
          <path
             d="m 365.7637,446.6123 -8.76962,14.45704 -12.25388,0 -2.56253,-46.70993 12.27152,0 1.77151,27.94628 8.20999,-13.4317 10.29587,13.34085 -1.52929,-27.85543 11.51562,0 2.66498,46.70993 -9.93646,0 -11.67771,-14.45704 z"
             style="fill:#231f20;fill-opacity:1;fill-rule:nonzero;stroke:none"
             id="path3061"
             inkscape:connector-curvature="0" />
          <path
             d="m 404.73141,461.0625 -2.9794,-46.65137 -12.28524,0 2.98053,46.65137 12.28411,0 z"
             style="fill:#231f20;fill-opacity:1;fill-rule:nonzero;stroke:none"
             id="path3063"
             inkscape:connector-curvature="0" />
          <path
             d="m 435.46478,461.0625 -1.01562,-17.93457 -13.67765,17.94141 -11.04791,-0.007 -2.79391,-46.65137 11.84277,0 1.71582,28.64801 12.71869,-16.18023 -0.82416,-12.46778 11.84275,0 3.082,46.65137 -11.84278,0 z"
             style="fill:#231f20;fill-opacity:1;fill-rule:nonzero;stroke:none"
             id="path3065"
             inkscape:connector-curvature="0" />
          <path
             d="m 181.07808,416.39163 c 3.3457,-1.76123 7.1548,-2.75979 11.19881,-2.75979 4.04339,0 7.85299,0.99856 11.19819,2.75979 l -22.397,0 z"
             style="fill:#231f20;fill-opacity:1;fill-rule:nonzero;stroke:none"
             id="path3067"
             inkscape:connector-curvature="0" />
          <path
             d="m 192.27689,461.76031 c -4.24659,0 -8.2349,-1.10162 -11.69831,-3.03082 l 2.68363,0 c 0,0 0.5571,0.0605 1.39697,0.14942 l 0,0.72219 0.7661,0.60795 1.5776,-0.78864 2.1866,0.7442 0.81101,-0.49612 5.72409,1.19433 3.42581,-0.90191 -0.66901,-0.97211 c 1.4097,-0.14307 2.47901,-0.25931 2.47901,-0.25931 l 3.0137,0 c -3.46341,1.9292 -7.4512,3.03082 -11.6972,3.03082 z"
             style="fill:#231f20;fill-opacity:1;fill-rule:nonzero;stroke:none"
             id="path3069"
             inkscape:connector-curvature="0" />
          <path
             d="m 183.08109,420.9697 1.35299,-2.56491 -2.74899,-0.40528 -2.74471,2.97019 -3.9653,0 c 1.252,-1.29441 2.64752,-2.4477 4.16112,-3.43601 l 26.28079,0 c 1.51369,0.98831 2.90921,2.1416 4.1606,3.43601 l -26.4965,0 z"
             style="fill:#231f20;fill-opacity:1;fill-rule:nonzero;stroke:none"
             id="path3071"
             inkscape:connector-curvature="0" />
          <path
             d="m 178.1221,425.72714 -6.72951,0 c 0.7378,-1.2847 1.5923,-2.49472 2.54729,-3.61633 l 4.41852,0 -0.2363,3.61633 z"
             style="fill:#231f20;fill-opacity:1;fill-rule:nonzero;stroke:none"
             id="path3073"
             inkscape:connector-curvature="0" />
          <path
             d="m 177.94379,428.45612 -2.8593,1.84759 -5.7173,0 c 0.38331,-1.1875 0.85589,-2.33591 1.41009,-3.4346 l 7.27011,0 -0.1036,1.58701 z"
             style="fill:#231f20;fill-opacity:1;fill-rule:nonzero;stroke:none"
             id="path3075"
             inkscape:connector-curvature="0" />
          <path
             d="m 174.02249,433.2334 0.54239,1.55762 -6.18159,0 c 0.13769,-1.14209 0.35501,-2.25827 0.647,-3.34519 l 5.1606,0 -0.1684,1.78757 z"
             style="fill:#231f20;fill-opacity:1;fill-rule:nonzero;stroke:none"
             id="path3077"
             inkscape:connector-curvature="0" />
          <path
             d="m 175.05858,436.20804 -3.6055,1.21777 -1.05859,1.853 -2.1328,0 c -0.0337,-0.52338 -0.0532,-1.05127 -0.0532,-1.5835 0,-0.59228 0.022,-1.18017 0.064,-1.76172 l 6.69038,0 0.0957,0.27445 z"
             style="fill:#231f20;fill-opacity:1;fill-rule:nonzero;stroke:none"
             id="path3079"
             inkscape:connector-curvature="0" />
          <path
             d="m 184.43408,454.9136 -0.3784,-0.48239 c 1.02632,0.0576 2.1181,0.11618 3.16701,0.16889 l -0.7164,2.75442 c -1.78171,0.11908 -3.24408,0.23239 -3.24408,0.23239 l -3.18903,0 4.3609,-2.67331 z"
             style="fill:#231f20;fill-opacity:1;fill-rule:nonzero;stroke:none"
             id="path3081"
             inkscape:connector-curvature="0" />
          <path
             d="m 179.88181,454.10211 c 0.19628,0.0122 0.73147,0.0297 0.99169,0.0454 l -0.27102,0.63034 -0.72067,-0.67572 z"
             style="fill:#231f20;fill-opacity:1;fill-rule:nonzero;stroke:none"
             id="path3083"
             inkscape:connector-curvature="0" />
          <path
             d="m 210.396,425.0527 -2.7949,-0.78851 0.15378,1.46295 -22.85159,0 -1.935,-3.61633 27.64551,0 c 0.95459,1.12161 1.80858,2.33163 2.54678,3.61633 l -2.33688,0.002 -0.4277,-0.67679 z"
             style="fill:#231f20;fill-opacity:1;fill-rule:nonzero;stroke:none"
             id="path3085"
             inkscape:connector-curvature="0" />
          <path
             d="m 211.56738,426.86911 2.20751,0 c 0.55571,1.09869 1.0278,2.2471 1.41111,3.4346 l -1.34271,0 -2.27591,-3.4346 z"
             style="fill:#231f20;fill-opacity:1;fill-rule:nonzero;stroke:none"
             id="path3087"
             inkscape:connector-curvature="0" />
          <path
             d="m 208.20169,429.97363 -0.4268,0.33008 -17.69969,0 -0.45801,-1.12652 -3.4697,-1.12687 -0.6329,-1.18121 22.36041,0 0.32669,3.10452 z"
             style="fill:#231f20;fill-opacity:1;fill-rule:nonzero;stroke:none"
             id="path3089"
             inkscape:connector-curvature="0" />
          <path
             d="m 214.58739,431.44583 0.81149,0 c 0.0899,0.59329 0.0674,0.61566 0.0899,1.42771 l -0.90141,-1.42771 z"
             style="fill:#231f20;fill-opacity:1;fill-rule:nonzero;stroke:none"
             id="path3091"
             inkscape:connector-curvature="0" />
          <path
             d="m 207.16359,431.44583 0.73781,1.17191 -0.11582,2.17328 -11.18258,0 c 0,0 -2.65921,-0.47608 -4.50681,-0.47608 -1.8482,0 -4.0112,0.47608 -4.0112,0.47608 l -2.36871,0 0.79101,-0.79151 4.2818,-1.93802 -0.25001,-0.61566 16.62451,0 z"
             style="fill:#231f20;fill-opacity:1;fill-rule:nonzero;stroke:none"
             id="path3093"
             inkscape:connector-curvature="0" />
          <path
             d="m 207.72119,435.98291 -1.86281,0.66113 0.84081,0.78177 -4.26608,0.36081 -3.45603,0.99072 -0.0567,0.22269 c -2.8647,-0.11523 -5.80267,-0.22269 -6.82419,-0.22269 -2.20849,0 -11.40329,0.50147 -11.40329,0.50147 l -7.76521,0 0.2383,-1.3125 10.99809,-1.62302 0.3999,-0.40036 c 0.705,0.0888 5.7729,0.71631 7.53221,0.71631 1.80319,0 6.8057,-0.72565 6.8057,-0.72565 l 8.8217,0 -0.002,0.0493 z"
             style="fill:#231f20;fill-opacity:1;fill-rule:nonzero;stroke:none"
             id="path3095"
             inkscape:connector-curvature="0" />
          <path
             d="m 198.46628,441.21143 1.082,1.14206 0.0415,1.21835 c -3.0063,-0.14313 -6.31729,-0.28711 -7.49359,-0.28711 -2.34331,0 -12.43991,0.57129 -12.43991,0.57129 l -2.85449,0 -0.4805,-0.48151 0.81099,-1.80218 -0.4511,-0.67633 -2.34329,1.93801 -2.7041,-1.89309 0.61519,-0.52051 8.4893,0 c 0,0 9.41991,0.70071 11.35791,0.70071 0.86859,0 3.64749,-0.14111 6.44919,-0.29589 l -0.0791,0.3862 z"
             style="fill:#231f20;fill-opacity:1;fill-rule:nonzero;stroke:none"
             id="path3097"
             inkscape:connector-curvature="0" />
          <path
             d="m 204.17578,446.31982 2.94483,-0.06 3.06488,-0.90192 1.02099,1.14212 -1.44229,0.42041 -1.62259,0.18018 -0.91801,1.32028 -0.0571,0 -0.28711,-1.32028 -0.78079,-0.0596 0.4507,0.54052 -0.0781,0.83939 -0.2539,0 -1.02149,-0.51367 -2.76269,-1.88819 -1.52543,2.08789 0.13581,0.11328 c -3.6353,-0.16159 -8.06159,-0.3833 -8.9473,-0.3833 -1.082,0 -6.4702,0.27488 -9.74661,0.44779 l -4.6763,-2.92679 -0.0805,-0.35992 2.1089,0 c 0,0 10.5463,0.76571 12.3945,0.72082 1.19769,-0.0298 6.37549,-0.32379 9.8682,-0.52688 l 2.21139,1.12789 z"
             style="fill:#231f20;fill-opacity:1;fill-rule:nonzero;stroke:none"
             id="path3099"
             inkscape:connector-curvature="0" />
          <path
             d="m 205.82318,457.58691 -5.01309,0 c 0,0 -1.58789,-0.12399 -3.46439,-0.24997 l -0.42682,-0.62063 -3.4926,-1.32959 -0.65289,-0.62402 c 1.6407,-0.0527 4.9204,-0.22706 7.586,-0.37598 l 0.27049,0.70709 0.2715,-0.73688 c 2.0063,-0.1137 3.54442,-0.20459 3.54442,-0.20459 l 5.38919,0 c -1.2061,1.28516 -2.55081,2.439 -4.01181,3.43457 z"
             style="fill:#231f20;fill-opacity:1;fill-rule:nonzero;stroke:none"
             id="path3101"
             inkscape:connector-curvature="0" />
          <path
             d="m 204.53558,453.01031 c 0,0 -1.0952,-0.0596 -2.64199,-0.14212 l 0.4194,-0.53909 0,-1.86279 -2.88141,-0.522 0.37601,2.81353 c -3.07761,-0.1611 -6.70121,-0.3442 -7.7114,-0.36825 -0.33789,-0.008 -0.9649,0.006 -1.76709,0.0362 l -0.50882,-0.4873 -2.02829,0.47311 -0.0332,0.12549 c -1.63431,0.0801 -3.44629,0.17868 -4.98099,0.26562 l -0.64212,-0.81933 -0.55658,0.88672 c -1.40719,0.0816 -2.37402,0.14019 -2.37402,0.14019 l -0.3281,0 -1.78959,-1.8384 0.0391,-1.6084 1.2451,0 0.20261,2.19479 1.3526,0.63129 3.39111,-2.62928 c 3.25681,0.18061 7.76709,0.42093 8.77829,0.42093 1.0298,0 6.39549,-0.24911 10.18109,-0.43124 l 1.65781,1.37744 2.34369,0 0.3677,1.88287 -2.1109,0 z"
             style="fill:#231f20;fill-opacity:1;fill-rule:nonzero;stroke:none"
             id="path3103"
             inkscape:connector-curvature="0" />
          <path
             d="m 447.51166,416.77441 c 0,2.44339 1.98245,4.24558 4.32422,4.24558 2.32043,0 4.30178,-1.80219 4.30178,-4.24558 0,-2.4663 -1.98135,-4.26812 -4.30178,-4.26812 -2.34177,0 -4.32422,1.80182 -4.32422,4.26812 z m 4.32422,-3.55859 c 1.92578,0 3.44543,1.50928 3.44543,3.55859 0,2.0156 -1.51965,3.53608 -3.44543,3.53608 -1.94818,0 -3.46869,-1.52048 -3.46869,-3.53608 0,-2.04931 1.52051,-3.55859 3.46869,-3.55859 z m -0.90039,1.09229 -0.74408,0 0,4.90969 1.86908,0 c 1.16021,0 1.7344,-0.42779 1.7344,-1.39599 0,-0.87842 -0.55173,-1.26132 -1.27243,-1.3516 l 1.39642,-2.1621 -0.83297,0 -1.29492,2.12838 -0.8555,0 0,-2.12838 z m 0.88867,2.7593 c 0.63092,0 1.19443,0.0449 1.19443,0.79932 0,0.60791 -0.55182,0.7207 -1.07041,0.7207 l -1.01269,0 0,-1.52002 0.88867,0 z"
             style="fill:#231f20;fill-opacity:1;fill-rule:nonzero;stroke:none"
             id="path3105"
             inkscape:connector-curvature="0" />
        </g>
      </g>
    </g>
  </g>
</svg>
