<?xml version="1.0" encoding="UTF-8" standalone="no"?>
<!-- Created with Inkscape (http://www.inkscape.org/) -->
<svg
   xmlns:svg="http://www.w3.org/2000/svg"
   xmlns="http://www.w3.org/2000/svg"
   xmlns:xlink="http://www.w3.org/1999/xlink"
   version="1.0"
   width="154.90875"
   height="90.340698"
   id="svg2829">
  <defs
     id="defs2831">
    <clipPath
       id="clip24">
      <path
         d="M 234,354.157 L 360,354.157 L 360,282.60001 L 234,282.60001 L 234,354.157 z "
         id="path144" />
    </clipPath>
    <clipPath
       id="clip23">
      <path
         d="M 0,774 L 594,774 L 594,0 L 0,0 L 0,774 z "
         id="path141" />
    </clipPath>
    <clipPath
       id="clip22">
      <path
         d="M 234.011,282.60001 L 360,282.60001 L 360,354.157 L 234.011,354.157 L 234.011,282.60001 z "
         id="path138" />
    </clipPath>
    <clipPath
       id="clip21">
      <path
         d="M 234,354.157 L 360,354.157 L 360,282.60001 L 234,282.60001 L 234,354.157 z "
         id="path135" />
    </clipPath>
    <clipPath
       id="clip20">
      <path
         d="M 0,774 L 594,774 L 594,0 L 0,0 L 0,774 z "
         id="path132" />
    </clipPath>
    <clipPath
       id="clip19">
      <path
         d="M 234,354.157 L 360,354.157 L 360,282.60001 L 234,282.60001 L 234,354.157 z "
         id="path129" />
    </clipPath>
    <clipPath
       id="clip18">
      <path
         d="M 0,774 L 594,774 L 594,0 L 0,0 L 0,774 z "
         id="path126" />
    </clipPath>
  </defs>
  <g
     transform="translate(-291.74688,-352.80278)"
     id="layer1">
    <g
       transform="scale(1.25,1.25)"
       id="g2803">
      <g
         clip-path="url(#clip18)"
         id="g415">
        <g
           clip-path="url(#clip19)"
           id="g417">
          <path
             d="M 277.29401,329.067 L 279.838,329.067 L 279.838,332.631 L 282.81,332.631 L 282.81,334.866 L 279.838,334.866 L 279.838,343.911 C 279.838,344.702 280.09399,344.98399 281.084,344.98399 L 282.865,344.98399 L 282.865,347.33099 C 282.5,347.35899 281.285,347.35899 280.687,347.35899 C 278.082,347.35899 277.29401,346.455 277.29401,344.19501 L 277.29401,334.866 L 275.254,334.866 L 275.254,332.631 L 277.29401,332.631 L 277.29401,329.067 z "
             style="opacity:1;fill:#383335;fill-rule:nonzero;stroke:none"
             id="path419" />
          <path
             d="M 297.69299,338.88 C 297.433,336.451 295.46001,334.668 292.826,334.668 C 289.72099,334.668 288.22099,336.875 287.968,338.88 L 297.69299,338.88 z M 299.924,344.505 C 297.944,346.71001 295.858,347.699 293.28,347.699 C 288.05,347.699 285.25301,343.911 285.25301,339.98 C 285.25301,335.802 288.25101,332.291 292.855,332.291 C 297.40601,332.291 300.574,335.76601 300.574,340.966 L 287.968,340.966 C 288.365,343.487 290.394,345.32201 293.257,345.32201 C 295.06101,345.32201 296.673,344.47301 297.96899,342.948 L 299.924,344.505"
             style="opacity:1;fill:#383335;fill-rule:nonzero;stroke:none"
             id="path421" />
          <path
             d="M 321.578,332.631 L 324.28999,332.631 L 318.86301,347.35899 L 316.77,347.35899 L 312.81599,335.85699 L 312.761,335.85699 L 308.802,347.35899 L 306.709,347.35899 L 301.282,332.631 L 303.992,332.631 L 307.69501,343.28799 L 307.754,343.28799 L 311.42999,332.631 L 314.144,332.631 L 317.815,343.28799 L 317.877,343.28799 L 321.578,332.631 z "
             style="opacity:1;fill:#383335;fill-rule:nonzero;stroke:none"
             id="path423" />
        </g>
      </g>
      <g
         clip-path="url(#clip20)"
         id="g425">
        <g
           clip-path="url(#clip21)"
           id="g427">
          <g
             clip-path="url(#clip22)"
             id="g429">
            <path
               d="M 347.599,346.802 L 341.614,332.631 L 344.49699,332.631 L 349.216,343.996 L 353.996,332.631 L 356.711,332.631 L 347.12,354.157 L 344.453,354.157 L 347.599,346.802 z "
               style="opacity:1;fill:#383335;fill-rule:nonzero;stroke:none"
               id="path431" />
            <path
               d="M 247.474,337.61 L 247.474,340.103 L 253.771,340.103 C 252.53101,344.00301 249.186,346.24899 245.57201,346.24899 C 241.123,346.24899 236.929,342.66 236.929,337.574 C 236.929,332.54401 241.006,328.896 245.57201,328.896 C 247.49899,328.896 249.771,329.702 251.524,331.339 L 253.27499,329.271 C 250.69099,327.056 248.129,326.30701 245.57201,326.30701 C 238.162,326.30701 234,332.172 234,337.574 C 234,342.97301 238.162,348.834 245.57201,348.834 C 251.385,348.834 256.53999,344.73599 257.049,337.61 L 247.474,337.61 z "
               style="opacity:1;fill:#383335;fill-rule:nonzero;stroke:none"
               id="path433" />
          </g>
        </g>
      </g>
      <g
         clip-path="url(#clip23)"
         id="g435">
        <g
           clip-path="url(#clip24)"
           id="g437">
          <path
             d="M 265.199,345.466 C 262.088,345.466 261.03999,343.966 261.03999,342.52299 C 261.03999,341.08501 262.088,339.58701 265.199,339.58701 C 268.306,339.58701 269.35001,341.08501 269.35001,342.52299 C 269.35001,343.966 268.306,345.466 265.199,345.466 M 272.98199,345.133 C 272.27,345.133 271.94099,344.98 271.81101,344.605 L 271.81101,337.295 C 271.81101,333.793 268.535,332.291 265.00101,332.291 C 263.67,332.291 261.914,332.487 259.68401,333.41901 L 260.786,335.54201 C 262.168,334.866 263.46699,334.524 264.855,334.524 C 266.838,334.524 269.265,335.063 269.265,337.492 L 269.265,339.021 C 267.909,337.804 266.272,337.355 264.715,337.355 C 260.615,337.355 258.321,339.72701 258.321,342.414 C 258.321,345.688 261.15199,347.699 264.743,347.699 C 266.66,347.699 268.08299,347.149 269.375,345.84 C 269.729,347.007 270.66499,347.509 272.58,347.509 C 273.176,347.509 273.77,347.509 274.14,347.47701 L 274.14,345.133 L 272.98199,345.133 z "
             style="opacity:1;fill:#383335;fill-rule:nonzero;stroke:none"
             id="path439" />
          <path
             d="M 332.271,345.466 C 329.164,345.466 328.116,343.966 328.116,342.52299 C 328.116,341.08501 329.164,339.58701 332.271,339.58701 C 335.381,339.58701 336.429,341.08501 336.429,342.52299 C 336.429,343.966 335.381,345.466 332.271,345.466 M 340.054,345.133 C 339.349,345.133 339.022,344.98399 338.89,344.61 L 338.89,337.295 C 338.89,333.793 335.614,332.291 332.075,332.291 C 330.744,332.291 328.998,332.487 326.756,333.41901 L 327.865,335.54201 C 329.246,334.866 330.545,334.524 331.93601,334.524 C 333.91499,334.524 336.34399,335.063 336.34399,337.492 L 336.34399,339.021 C 334.98801,337.804 333.347,337.355 331.79201,337.355 C 327.694,337.355 325.40401,339.72701 325.40401,342.414 C 325.40401,345.688 328.233,347.699 331.819,347.699 C 333.742,347.699 335.162,347.149 336.449,345.84 C 336.80499,347.007 337.737,347.509 339.659,347.509 C 340.25301,347.509 340.84599,347.509 341.218,347.47701 L 341.218,345.133 L 340.054,345.133 z "
             style="opacity:1;fill:#383335;fill-rule:nonzero;stroke:none"
             id="path441" />
          <g
             style="opacity:1;fill:#383335"
             id="g443">
            <use
               id="use445"
               x="355.35349"
               y="347.52841"
               width="744.09448"
               height="1052.3622"
               xlink:href="#glyph1-0" />
          </g>
          <path
             d="M 305.92999,297.491 C 303.886,296.386 301.92999,290.72301 301.92999,290.72301 C 299.90601,285.955 294.214,283.595 293.444,283.338 L 285.171,284.731 C 294.68401,287.89 287.879,290.155 287.879,290.155 C 287.879,290.155 288.282,304.735 274.405,303.75 L 274.40199,312.049 L 285.011,316.60001 C 285.62601,315.466 284.879,313.282 284.879,310.91299 C 284.879,302.745 295.046,302.981 295.774,303.008 L 295.774,303.006 C 298.12399,303.006 304.47701,306.57001 304.492,316.87601 L 312.31,312.935 C 309.707,306.51401 316.558,302.879 317.05,302.629 L 317.05,292.513 C 316.603,293.071 310.81799,300.131 305.92999,297.491"
             style="opacity:1;fill:#ffffff;fill-rule:nonzero;stroke:none"
             id="path447" />
          <path
             d="M 295.774,321.289 C 297.172,317.72099 297.036,304.89799 295.774,303.03101 L 295.774,303.008 C 295.046,302.981 284.879,302.745 284.879,310.91299 C 284.879,313.282 285.62601,315.466 285.011,316.60001 C 284.99,316.638 284.972,316.67799 284.949,316.714 L 295.774,321.3 L 295.774,321.289 z "
             style="opacity:1;fill:#2e2828;fill-rule:nonzero;stroke:none"
             id="path449" />
          <path
             d="M 287.879,290.155 C 287.879,290.155 279.664,285.73801 274.269,286.52299 L 274.259,303.741 C 274.308,303.745 274.356,303.746 274.405,303.75 C 288.282,304.735 287.879,290.155 287.879,290.155"
             style="opacity:1;fill:#2e2828;fill-rule:nonzero;stroke:none"
             id="path451" />
          <path
             d="M 295.774,303.006 L 295.774,303.008 L 295.774,321.3 L 304.493,316.912 C 304.493,316.89999 304.492,316.888 304.492,316.87601 C 304.47701,306.57001 298.12399,303.006 295.774,303.006"
             style="opacity:1;fill:#383335;fill-rule:nonzero;stroke:none"
             id="path453" />
          <path
             d="M 312.31,312.935 C 312.315,312.949 312.32001,312.96201 312.325,312.976 L 317.078,310.579 L 317.078,302.614 C 317.078,302.614 317.06799,302.619 317.05,302.629 C 316.558,302.879 309.707,306.51401 312.31,312.935"
             style="opacity:1;fill:#383335;fill-rule:nonzero;stroke:none"
             id="path455" />
          <path
             d="M 301.92999,290.72301 C 301.785,290.763 301.92999,290.72301 301.92999,290.72301 C 301.92999,290.72301 303.886,296.386 305.92999,297.491 C 310.81799,300.131 316.603,293.071 317.05,292.513 C 317.06799,292.49 317.078,292.47701 317.078,292.47701 L 317.078,286.57001 C 317.078,286.57001 307.68401,285.074 301.92999,290.72301"
             style="opacity:1;fill:#383335;fill-rule:nonzero;stroke:none"
             id="path457" />
          <path
             d="M 301.92999,290.72301 L 317.078,286.57001 L 297.60699,282.60001 L 293.36301,283.313 C 293.375,283.31599 293.40601,283.325 293.444,283.338 C 294.214,283.595 299.90601,285.955 301.92999,290.72301"
             style="opacity:1;fill:#423f3f;fill-rule:nonzero;stroke:none"
             id="path459" />
          <path
             d="M 287.879,290.155 C 287.879,290.155 294.68401,287.89 285.171,284.731 C 285.14301,284.722 285.118,284.713 285.09,284.704 L 274.269,286.52299 L 287.879,290.155 z "
             style="opacity:1;fill:#423f3f;fill-rule:nonzero;stroke:none"
             id="path461" />
        </g>
      </g>
    </g>
  </g>
</svg>
