<?xml version="1.0" encoding="UTF-8"?>
<!DOCTYPE svg PUBLIC "-//W3C//DTD SVG 1.1//EN" "http://www.w3.org/Graphics/SVG/1.1/DTD/svg11.dtd">
<!-- Creator: CorelDRAW X6 -->
<svg xmlns="http://www.w3.org/2000/svg" xml:space="preserve" width="48.9in" height="48.9in" version="1.1" style="shape-rendering:geometricPrecision; text-rendering:geometricPrecision; image-rendering:optimizeQuality; fill-rule:evenodd; clip-rule:evenodd"
viewBox="0 0 48900 48900"
 xmlns:xlink="http://www.w3.org/1999/xlink">
 <defs>
  <style type="text/css">
   <![CDATA[
    .fil0 {fill:#FEFEFE}
    .fil1 {fill:#3A73B8}
   ]]>
  </style>
 </defs>
 <g id="Layer_x0020_1">
  <metadata id="CorelCorpID_0Corel-Layer"/>
  <ellipse class="fil0" cx="24435" cy="24479" rx="23788" ry="23809"/>
  <g id="__x0023_3a73b8ff">
   <path class="fil1" d="M22686 724c4699,-358 9495,740 13574,3099 3263,1881 6084,4535 8126,7703 2536,3873 3878,8509 3839,13138 -30,4838 -1570,9658 -4384,13597 -2854,4040 -7004,7152 -11687,8744 -4160,1439 -8718,1665 -13010,704 -4501,-1003 -8682,-3371 -11880,-6691 -3390,-3511 -5684,-8080 -6385,-12915 -689,-4306 -119,-8799 1563,-12817 1562,-3738 4105,-7051 7289,-9551 3690,-2910 8265,-4685 12955,-5010m-6 1143c-2792,200 -5539,947 -8063,2155 -4062,1958 -7535,5138 -9787,9048 -3355,5639 -4003,12776 -1803,18949 1411,4014 3987,7595 7318,10238 3870,3070 8766,4839 13710,4881 3610,79 7237,-741 10460,-2366 4106,-2032 7556,-5356 9762,-9369 2204,-3984 3171,-8652 2680,-13181 -652,-7351 -5244,-14162 -11723,-17653 -3800,-2094 -8224,-3053 -12551,-2700z"/>
   <path class="fil1" d="M18672 4022c3958,-1105 8242,-1058 12157,206 170,53 301,178 435,291 -646,-47 -1239,-340 -1874,-449 -1601,-320 -3259,-478 -4881,-236 -1016,183 -2083,576 -2728,1425 -485,630 -537,1621 26,2219 625,661 1733,625 2425,91 818,-600 1611,-1316 2631,-1539 2074,-514 4249,-101 6258,497 2412,658 4694,1848 6545,3536 3085,2725 4938,6637 5642,10648 613,3423 429,6999 -633,10316 -37,155 -137,246 -298,271 616,-2258 1074,-4655 613,-6987 -242,-1126 -796,-2395 -1981,-2779 -907,-321 -2011,302 -2084,1288 -173,1055 689,1815 1226,2605 1153,1655 1010,3801 728,5700 -530,2571 -1388,5130 -2945,7272 -2404,3450 -6232,5727 -10278,6700 -3516,841 -7243,835 -10753,-30 -462,-138 -987,-200 -1346,-554 669,-1 1290,289 1945,393 1789,325 3659,527 5446,79 810,-223 1631,-609 2140,-1303 472,-648 462,-1639 -118,-2218 -502,-530 -1339,-639 -1981,-305 -763,413 -1346,1092 -2124,1483 -1570,763 -3392,651 -5068,368 -2778,-546 -5523,-1553 -7762,-3325 -2974,-2286 -5033,-5619 -6042,-9209 -1068,-3758 -1075,-7797 -101,-11575 168,-391 104,-1009 550,-1195 -570,2159 -1020,4422 -674,6658 176,993 524,2045 1346,2690 570,471 1461,643 2091,191 672,-393 894,-1326 581,-2015 -328,-777 -995,-1343 -1376,-2091 -825,-1507 -734,-3306 -515,-4956 461,-2643 1357,-5254 2916,-7459 2314,-3354 5957,-5649 9859,-6703m535 8024c-1290,695 -2176,1937 -2825,3218 -689,1317 -974,2788 -1110,4253 -636,-85 -1149,-579 -1295,-1198 -297,-905 17,-1834 178,-2728 72,-259 -125,-471 -230,-684 -541,-33 -1094,233 -1340,730 -737,1377 -672,3236 347,4458 584,740 1507,1105 2424,1203 309,953 914,1883 1886,2257 1189,479 2494,-23 3528,-648 -37,383 -58,776 -191,1141 -363,292 -805,463 -1211,689 -1993,1051 -4024,2109 -5700,3639 -1221,1146 -2181,2670 -2365,4358 -89,1327 439,2784 1602,3513 1215,805 2817,760 4141,261 1670,-636 2915,-2052 3738,-3598 1218,-2188 1426,-4740 1603,-7188 49,-286 -12,-692 325,-816 1989,-1118 3922,-2336 5770,-3676 219,269 435,540 641,818 -951,567 -1900,1179 -2618,2038 -2686,2938 -2730,7980 85,10847 1439,1518 3652,2168 5700,1864 1883,-268 3595,-1452 4545,-3093 1267,-2090 1059,-5013 -587,-6837 -1540,-1701 -4538,-1668 -6044,59 -1185,1246 -1223,3450 13,4671 501,499 1373,802 2002,371 406,-292 367,-917 40,-1255 -423,-511 -924,-1103 -797,-1816 127,-928 1164,-1497 2038,-1300 748,117 1346,701 1624,1386 655,1559 284,3490 -892,4704 -1246,1300 -3414,1504 -4918,541 -1336,-822 -2096,-2346 -2330,-3859 -246,-1824 104,-3791 1235,-5278 728,-941 1744,-1714 2913,-1993 982,75 1999,252 2961,-62 452,-154 892,-661 662,-1156 -249,-508 -861,-661 -1370,-767 -761,-151 -1518,52 -2263,194 -520,-178 -794,-724 -987,-1205 1445,-1080 2873,-2253 3855,-3788 570,-923 941,-2055 674,-3139 -212,-718 -800,-1329 -1552,-1465 -1252,-315 -2533,317 -3384,1213 -1367,1484 -2061,3541 -1998,5547 -19,415 142,849 24,1248 -1025,826 -2171,1491 -3274,2205 -635,368 -1239,793 -1913,1091 12,-639 45,-1287 227,-1903 485,-664 1095,-1241 1481,-1978 282,-508 548,-1152 255,-1713 -269,-416 -865,-376 -1255,-168 -832,417 -1288,1298 -1624,2124 -230,528 -256,1183 -748,1557 -685,599 -1511,1200 -2464,1166 -544,3 -907,-510 -1022,-990 1506,-584 2762,-1675 3781,-2907 943,-1212 1693,-2643 1819,-4194 71,-782 -209,-1667 -923,-2076 -892,-487 -2011,-348 -2886,112z"/>
   <path class="fil1" d="M20069 13480c350,-265 927,-153 1092,275 128,527 -66,1061 -291,1531 -638,1301 -1589,2430 -2677,3377 -269,246 -583,438 -915,584 45,-1157 442,-2273 934,-3310 458,-920 987,-1865 1857,-2457z"/>
   <path class="fil1" d="M31320 13932c309,-357 842,-714 1314,-471 518,307 248,993 43,1413 -712,1314 -1769,2422 -2915,3368 -17,-1559 541,-3128 1557,-4311z"/>
   <path class="fil1" d="M15912 29052c1343,-1130 2833,-2100 4427,-2837 -168,1763 -581,3511 -1248,5151 -571,1321 -1419,2682 -2824,3223 -728,273 -1678,445 -2309,-131 -597,-530 -557,-1428 -383,-2139 363,-1326 1337,-2371 2336,-3267z"/>
  </g>
 </g>
</svg>
