<?xml version="1.0" encoding="UTF-8" standalone="no"?>
<!-- Created with Inkscape (http://www.inkscape.org/) -->

<svg
   xmlns:dc="http://purl.org/dc/elements/1.1/"
   xmlns:cc="http://creativecommons.org/ns#"
   xmlns:rdf="http://www.w3.org/1999/02/22-rdf-syntax-ns#"
   xmlns:svg="http://www.w3.org/2000/svg"
   xmlns="http://www.w3.org/2000/svg"
   xmlns:xlink="http://www.w3.org/1999/xlink"
   xmlns:sodipodi="http://sodipodi.sourceforge.net/DTD/sodipodi-0.dtd"
   xmlns:inkscape="http://www.inkscape.org/namespaces/inkscape"
   width="416.04999"
   height="415.88"
   id="svg2"
   version="1.1"
   inkscape:version="0.48.4 r9939"
   sodipodi:docname="New document 1">
  <defs
     id="defs4">
    <linearGradient
       id="linearGradient3844">
      <stop
         style="stop-color:#808080;stop-opacity:1;"
         offset="0"
         id="stop3846" />
      <stop
         style="stop-color:#fefffe;stop-opacity:1;"
         offset="1"
         id="stop3848" />
    </linearGradient>
    <linearGradient
       inkscape:collect="always"
       xlink:href="#linearGradient3844"
       id="linearGradient3850"
       x1="276.84201"
       y1="279.08923"
       x2="66.540627"
       y2="93.221153"
       gradientUnits="userSpaceOnUse" />
    <linearGradient
       inkscape:collect="always"
       xlink:href="#linearGradient3844"
       id="linearGradient3866"
       gradientUnits="userSpaceOnUse"
       x1="276.84201"
       y1="279.08923"
       x2="66.540627"
       y2="93.221153" />
    <linearGradient
       inkscape:collect="always"
       xlink:href="#linearGradient3844"
       id="linearGradient3868"
       gradientUnits="userSpaceOnUse"
       x1="276.84201"
       y1="279.08923"
       x2="66.540627"
       y2="93.221153" />
  </defs>
  <sodipodi:namedview
     id="base"
     pagecolor="#ffffff"
     bordercolor="#666666"
     borderopacity="1.0"
     inkscape:pageopacity="0.0"
     inkscape:pageshadow="2"
     inkscape:zoom="0.49497475"
     inkscape:cx="458.18309"
     inkscape:cy="318.78663"
     inkscape:document-units="px"
     inkscape:current-layer="g3009"
     showgrid="false"
     inkscape:window-width="1280"
     inkscape:window-height="750"
     inkscape:window-x="-8"
     inkscape:window-y="-8"
     inkscape:window-maximized="1" />
  <metadata
     id="metadata7">
    <rdf:RDF>
      <cc:Work
         rdf:about="">
        <dc:format>image/svg+xml</dc:format>
        <dc:type
           rdf:resource="http://purl.org/dc/dcmitype/StillImage" />
        <dc:title></dc:title>
      </cc:Work>
    </rdf:RDF>
  </metadata>
  <g
     inkscape:label="Layer 1"
     inkscape:groupmode="layer"
     id="layer1"
     transform="translate(0,-636.48215)">
    <g
       id="g3009"
       transform="matrix(1.9061262,0,0,1.9061262,52.653631,310.32948)">
      <g
         id="#fefffeff"
         transform="matrix(0.65578029,0,0,0.65578029,-31.427593,165.06632)"
         style="fill:url(#linearGradient3850);fill-opacity:1;stroke:none">
        <path
           style="fill:url(#linearGradient3866);fill-opacity:1;stroke:none"
           inkscape:connector-curvature="0"
           d="m 160.47,18.62 c 30.06,-2.45 60.8,4.21 87.2,18.76 45.02,24.26 76.92,71.58 81.45,122.65 3.41,31.47 -3.31,63.9 -18.62,91.58 -15.32,27.88 -39.29,50.97 -67.82,65.09 -22.39,11.29 -47.59,16.99 -72.67,16.44 C 135.66,332.85 101.65,320.56 74.76,299.23 51.62,280.87 33.72,255.99 23.92,228.1 8.64,185.21 13.14,135.63 36.45,96.45 52.1,69.29 76.23,47.19 104.45,33.59 121.99,25.2 141.07,20.01 160.47,18.62 m -27.85,14.97 c -27.11,7.32 -52.42,23.27 -68.5,46.57 -10.83,15.32 -17.06,33.46 -20.26,51.82 -1.52,11.46 -2.15,23.96 3.58,34.43 2.65,5.2 7.28,9.13 9.56,14.53 2.17,4.79 0.63,11.27 -4.04,14 -4.38,3.14 -10.57,1.94 -14.53,-1.33 -5.71,-4.48 -8.13,-11.79 -9.35,-18.69 -2.41,-15.54 0.72,-31.26 4.68,-46.26 -3.1,1.29 -2.65,5.58 -3.82,8.3 -6.77,26.25 -6.72,54.31 0.7,80.42 7.01,24.94 21.32,48.1 41.98,63.98 15.56,12.31 34.63,19.31 53.93,23.1 11.64,1.96 24.3,2.74 35.21,-2.56 5.41,-2.71 9.46,-7.43 14.76,-10.3 4.46,-2.32 10.27,-1.56 13.76,2.12 4.03,4.02 4.1,10.91 0.82,15.41 -3.54,4.82 -9.24,7.5 -14.87,9.05 -12.42,3.11 -25.41,1.71 -37.84,-0.55 -4.55,-0.72 -8.86,-2.74 -13.51,-2.73 2.49,2.46 6.14,2.89 9.35,3.85 24.39,6.01 50.28,6.05 74.71,0.21 28.11,-6.76 54.71,-22.58 71.41,-46.55 10.82,-14.88 16.78,-32.66 20.46,-50.52 1.96,-13.19 2.95,-28.1 -5.06,-39.6 -3.73,-5.49 -9.72,-10.77 -8.52,-18.1 0.51,-6.85 8.18,-11.18 14.48,-8.95 8.23,2.67 12.08,11.49 13.76,19.31 3.2,16.2 0.02,32.85 -4.26,48.54 1.12,-0.17 1.81,-0.8 2.07,-1.88 7.38,-23.04 8.66,-47.89 4.4,-71.67 -4.89,-27.87 -17.77,-55.05 -39.2,-73.98 -12.86,-11.73 -28.71,-20 -45.47,-24.57 -13.96,-4.15 -29.07,-7.02 -43.48,-3.45 -7.09,1.55 -12.6,6.52 -18.28,10.69 -4.81,3.71 -12.51,3.96 -16.85,-0.63 -3.91,-4.16 -3.55,-11.04 -0.18,-15.42 4.48,-5.9 11.89,-8.63 18.95,-9.9 11.27,-1.68 22.79,-0.58 33.91,1.64 4.41,0.76 8.53,2.79 13.02,3.12 -0.93,-0.78 -1.84,-1.65 -3.02,-2.02 -27.2,-8.78 -56.96,-9.11 -84.46,-1.43 z"
           id="path3798" />
        <path
           style="fill:url(#linearGradient3868);fill-opacity:1;stroke:none"
           inkscape:connector-curvature="0"
           d="m 136.34,89.34 c 6.08,-3.2 13.85,-4.16 20.05,-0.78 4.96,2.84 6.9,8.99 6.41,14.42 -0.88,10.78 -6.09,20.72 -12.64,29.14 -7.08,8.56 -15.81,16.14 -26.27,20.2 0.8,3.34 3.32,6.9 7.1,6.88 6.62,0.24 12.36,-3.94 17.12,-8.1 3.42,-2.6 3.6,-7.15 5.2,-10.82 2.33,-5.74 5.5,-11.86 11.28,-14.76 2.71,-1.44 6.85,-1.72 8.72,1.17 2.04,3.9 0.19,8.37 -1.77,11.9 -2.68,5.12 -6.92,9.13 -10.29,13.74 -1.27,4.28 -1.5,8.78 -1.58,13.22 4.68,-2.07 8.88,-5.02 13.29,-7.58 7.67,-4.96 15.63,-9.58 22.75,-15.32 0.82,-2.77 -0.3,-5.79 -0.17,-8.67 -0.44,-13.94 4.38,-28.23 13.88,-38.54 5.91,-6.23 14.81,-10.62 23.51,-8.43 5.22,0.95 9.31,5.19 10.78,10.18 1.86,7.53 -0.72,15.4 -4.68,21.81 -6.82,10.67 -16.74,18.82 -26.78,26.32 1.34,3.34 3.25,7.13 6.86,8.37 5.17,-0.99 10.43,-2.4 15.72,-1.35 3.54,0.74 7.79,1.8 9.52,5.33 1.6,3.44 -1.46,6.96 -4.6,8.03 -6.68,2.18 -13.75,0.95 -20.57,0.43 -8.12,1.94 -15.18,7.31 -20.24,13.85 -7.86,10.33 -10.29,24 -8.58,36.67 1.63,10.51 6.91,21.1 16.19,26.81 10.45,6.69 25.51,5.27 34.17,-3.76 8.17,-8.43 10.75,-21.85 6.2,-32.68 -1.93,-4.76 -6.08,-8.82 -11.28,-9.63 -6.07,-1.37 -13.28,2.58 -14.16,9.03 -0.88,4.96 2.6,9.07 5.54,12.62 2.27,2.35 2.54,6.69 -0.28,8.72 -4.37,2.99 -10.43,0.89 -13.91,-2.58 -8.59,-8.48 -8.32,-23.79 -0.09,-32.45 10.46,-12 31.29,-12.23 41.99,-0.41 11.44,12.67 12.88,32.98 4.08,47.5 -6.6,11.4 -18.5,19.63 -31.58,21.49 -14.23,2.11 -29.6,-2.4 -39.6,-12.95 -19.56,-19.92 -19.25,-54.95 -0.59,-75.36 4.99,-5.97 11.58,-10.22 18.19,-14.16 -1.43,-1.93 -2.93,-3.81 -4.45,-5.68 -12.84,9.31 -26.27,17.77 -40.09,25.54 -2.34,0.86 -1.92,3.68 -2.26,5.67 -1.23,17.01 -2.68,34.74 -11.14,49.94 -5.72,10.74 -14.37,20.58 -25.97,25 -9.2,3.47 -20.33,3.78 -28.77,-1.81 -8.08,-5.07 -11.75,-15.19 -11.13,-24.41 1.28,-11.73 7.95,-22.32 16.43,-30.28 11.64,-10.63 25.75,-17.98 39.6,-25.28 2.82,-1.57 5.89,-2.76 8.41,-4.79 0.93,-2.54 1.07,-5.27 1.33,-7.93 -7.18,4.34 -16.25,7.83 -24.51,4.5 -6.75,-2.6 -10.95,-9.06 -13.1,-15.68 -6.37,-0.68 -12.78,-3.22 -16.84,-8.36 -7.08,-8.49 -7.53,-21.4 -2.41,-30.97 1.71,-3.45 5.55,-5.3 9.31,-5.07 0.73,1.48 2.1,2.95 1.6,4.75 -1.12,6.21 -3.3,12.66 -1.24,18.95 1.02,4.3 4.58,7.73 9,8.32 0.94,-10.18 2.92,-20.4 7.71,-29.55 4.51,-8.9 10.67,-17.53 19.63,-22.36 m 5.99,9.96 c -6.04,4.11 -9.72,10.68 -12.9,17.07 -3.42,7.21 -6.18,14.96 -6.49,23 2.31,-1.02 4.49,-2.35 6.36,-4.06 7.56,-6.58 14.17,-14.42 18.6,-23.46 1.56,-3.27 2.91,-6.98 2.02,-10.64 -1.15,-2.97 -5.16,-3.75 -7.59,-1.91 m 78.17,3.14 c -7.06,8.22 -10.94,19.12 -10.82,29.95 7.96,-6.57 15.3,-14.27 20.25,-23.4 1.42,-2.92 3.3,-7.69 -0.3,-9.82 -3.28,-1.69 -6.98,0.79 -9.13,3.27 M 113.45,207.49 c -6.94,6.23 -13.71,13.49 -16.23,22.7 -1.21,4.94 -1.49,11.18 2.66,14.86 4.38,4 10.98,2.81 16.04,0.91 9.76,-3.76 15.65,-13.21 19.62,-22.39 4.63,-11.4 7.5,-23.54 8.67,-35.79 -11.08,5.12 -21.43,11.86 -30.76,19.71 z"
           id="path3800" />
      </g>
      <path
         id="path3803"
         d="m 73.831547,172.07028 c 21.411213,-1.63289 43.261803,3.37071 61.846613,14.11896 14.86654,8.57105 27.71984,20.66363 37.02536,35.09735 11.55485,17.64705 17.66672,38.76973 17.48966,59.85964 -0.13771,22.04077 -7.15456,44.00285 -19.97507,61.95156 -13.00412,18.40775 -31.91027,32.58572 -53.24936,39.83865 -18.952046,6.5578 -39.720583,7.58737 -59.275953,3.20676 -20.50625,-4.57078 -39.55667,-15.35837 -54.1281035,-30.48722 -15.4436315,-15.99448 -25.8967665,-36.8155 -29.0904165,-58.84316 -3.14118,-19.62095 -0.5443,-40.08786 7.121778,-58.39725 7.115207,-17.03061 18.70284703,-32.12667 33.208712,-43.51757 16.81421,-13.25988 37.6549,-21.34566 59.02678,-22.82772 m -0.0262,5.2069 c -12.72213,0.91153 -25.23442,4.31503 -36.73681,9.81703 -18.50612,8.91862 -34.3301035,23.41135 -44.5930653,41.22235 -15.2862347,25.69347 -18.2372447,58.20706 -8.2169277,86.33348 6.4266477,18.28971 18.165119,34.60553 33.339873,46.64565 17.63394,13.9878 39.93702,22.04734 62.46308,22.23751 16.446951,0.36068 32.972603,-3.37727 47.655523,-10.78103 18.70941,-9.25961 34.42847,-24.40158 44.47502,-42.68473 10.04,-18.152 14.44684,-39.41896 12.21063,-60.05636 -2.97069,-33.49071 -23.89008,-64.52224 -53.41331,-80.43146 -17.3126,-9.54161 -37.471266,-13.90911 -57.184013,-12.30244 z"
         inkscape:connector-curvature="0"
         style="fill:#000000;fill-opacity:1" />
      <path
         id="path3805"
         d="m 55.542167,187.09412 c 18.03396,-5.03639 37.549967,-4.81998 55.387183,0.93777 0.77382,0.24264 1.37058,0.81317 1.98045,1.32467 -2.94445,-0.2164 -5.64627,-1.54764 -8.53826,-2.04603 -7.292264,-1.45583 -14.84684,-2.17719 -22.237479,-1.07548 -4.629814,0.83284 -9.489144,2.62312 -12.427034,6.49223 -2.20998,2.87231 -2.44606,7.38408 0.11804,10.11213 2.84608,3.01003 7.89559,2.84609 11.049894,0.41314 3.72484,-2.73461 7.338183,-5.99383 11.987653,-7.01029 9.449776,-2.34114 19.358616,-0.45905 28.513316,2.26244 10.99087,2.99692 21.38499,8.42022 29.81833,16.11253 14.05337,12.41392 22.49982,30.23802 25.70658,48.51462 2.79363,15.59446 1.95423,31.8906 -2.88543,46.99977 -0.1705,0.70825 -0.62299,1.12139 -1.35747,1.23287 2.80674,-10.28919 4.89213,-21.20793 2.79363,-31.83157 -1.10171,-5.12821 -3.62647,-10.91219 -9.02354,-12.66312 -4.13141,-1.46239 -9.16125,1.37714 -9.4957,5.86923 -0.78693,4.80687 3.14119,8.26939 5.58725,11.86963 5.2528,7.54147 4.60358,17.31915 3.31825,25.9689 -2.41327,11.71223 -6.32172,23.37201 -13.41727,33.13002 -10.95153,15.71905 -28.39528,26.09349 -46.82927,30.52657 -16.02069,3.82976 -32.998833,3.80352 -48.993313,-0.13772 -2.10506,-0.62954 -4.49865,-0.91153 -6.13155,-2.52475 3.04938,-0.007 5.87579,1.31812 8.85959,1.79028 8.15135,1.48206 16.66994,2.40016 24.814734,0.36068 3.692033,-1.01646 7.429977,-2.77395 9.751431,-5.93481 2.150956,-2.95101 2.105056,-7.46934 -0.537738,-10.10558 -2.288666,-2.41327 -6.098736,-2.91166 -9.023513,-1.39025 -3.47564,1.88209 -6.131554,4.97737 -9.679324,6.75454 -7.15456,3.47563 -15.45674,2.96412 -23.09002,1.67879 -12.65656,-2.4854 -25.16229,-7.07587 -35.36624,-15.14852 -13.548424,-10.41379 -22.9326353,-25.60166 -27.529655,-41.95682 -4.865888,-17.12243 -4.898678,-35.52362 -0.45905,-52.73785 0.76726,-1.78373 0.47216,-4.59702 2.5050797,-5.44298 -2.5968897,9.8367 -4.6494787,20.14557 -3.0690487,30.3364 0.800049,4.52488 2.3870385,9.31863 6.1315487,12.25653 2.59689,2.1444 6.65617033,2.93134 9.5284818,0.87219 3.0625015,-1.79028 4.072402,-6.03974 2.6493615,-9.18093 -1.495181,-3.54121 -4.5314525,-6.11843 -6.26926294,-9.52848 -3.75762036,-6.86602 -3.34448036,-15.06328 -2.34770076,-22.57852 2.09850026,-12.04013 6.1840122,-23.93598 13.2861157,-33.98253 10.54495,-15.27969 27.14275,-25.73939 44.92095,-30.5397 m 2.4395,36.55976 c -5.87579,3.16742 -9.91539,8.8268 -12.87296,14.66325 -3.14119,6.00039 -4.43963,12.70246 -5.05607,19.3783 -2.89855,-0.38691 -5.23313,-2.63623 -5.90202,-5.45609 -1.35091,-4.12486 0.0787,-8.35464 0.81317,-12.42704 0.32789,-1.1804 -0.57053,-2.1444 -1.04925,-3.11495 -2.46574,-0.15083 -4.98393,1.06236 -6.10532,3.3248 -3.35759,6.27582 -3.06249,14.74195 1.58043,20.30952 2.66247,3.37071 6.86602,5.03639 11.04334,5.48232 1.40993,4.34127 4.16421,8.57761 8.59073,10.28264 5.41674,2.18375 11.36467,-0.10493 16.07317,-2.95101 -0.1705,1.74437 -0.26231,3.53465 -0.87219,5.20033 -1.65256,1.33124 -3.66581,2.11162 -5.51511,3.14119 -9.08256,4.7872 -18.33562,9.60718 -25.9689,16.57813 -5.56102,5.22001 -9.93507,12.16472 -10.77447,19.85702 -0.40658,6.0463 2.00013,12.6828 7.29884,16.0076 5.53478,3.66581 12.83362,3.46252 18.86679,1.18696 7.60706,-2.89854 13.27956,-9.35142 17.03062,-16.3945 5.5479,-9.96786 6.49878,-21.59485 7.30539,-32.74967 0.22297,-1.305 -0.0525,-3.1543 1.48206,-3.71828 9.062894,-5.09541 17.870009,-10.64331 26.290213,-16.74862 0.99678,1.22631 1.98045,2.45917 2.91822,3.72483 -4.334706,2.58377 -8.656288,5.37084 -11.928622,9.28585 -12.236851,13.38447 -12.440151,36.35646 0.386908,49.4196 6.557788,6.91848 16.637124,9.87605 25.968884,8.49235 8.5776,-1.21975 16.38139,-6.61682 20.70954,-14.09271 5.77086,-9.52193 4.82654,-22.84083 -2.67559,-31.14957 -7.01685,-7.75132 -20.67675,-7.60049 -27.53621,0.26887 -5.39707,5.67906 -5.57413,15.71906 0.059,21.28007 2.28211,2.27556 6.25614,3.6527 9.1219,1.69192 1.8493,-1.33124 1.67224,-4.17732 0.18362,-5.71841 -1.92799,-2.32802 -4.21011,-5.02328 -3.63302,-8.27595 0.57709,-4.22978 5.30526,-6.82011 9.28585,-5.92169 3.41006,0.53118 6.13154,3.19365 7.3972,6.31516 2.9838,7.1021 1.29189,15.90267 -4.06584,21.4309 -5.67906,5.9217 -15.55511,6.85291 -22.40801,2.46574 -6.085636,-3.74451 -9.548148,-10.68922 -10.617066,-17.58147 -1.121388,-8.30874 0.472158,-17.27326 5.626578,-24.04747 3.318248,-4.2888 7.948058,-7.81034 13.272988,-9.08255 4.47243,0.341 9.10879,1.14761 13.4894,-0.28199 2.05915,-0.70168 4.06584,-3.01003 3.01659,-5.26591 -1.1345,-2.31491 -3.92156,-3.01004 -6.24302,-3.49531 -3.46908,-0.68857 -6.91849,0.23608 -10.30887,0.8853 -2.36737,-0.81317 -3.61991,-3.29858 -4.49865,-5.48888 6.58403,-4.91835 13.08937,-10.26296 17.56179,-17.26014 2.59689,-4.20355 4.28881,-9.36454 3.06905,-14.30257 -0.96399,-3.27234 -3.64613,-6.05285 -7.06931,-6.67584 -5.70529,-1.43616 -11.54173,1.44272 -15.41739,5.52823 -6.229908,6.76109 -9.390772,16.13219 -9.102222,25.27377 -0.0852,1.88865 0.649218,3.8691 0.111478,5.68562 -4.66915,3.76417 -9.889145,6.79388 -14.918975,10.04655 -2.891994,1.6788 -5.646274,3.61335 -8.715324,4.97081 0.0525,-2.91166 0.20329,-5.86267 1.03613,-8.66941 2.20998,-3.02315 4.99049,-5.65283 6.747984,-9.01042 1.28533,-2.31491 2.49852,-5.24624 1.16073,-7.80379 -1.22631,-1.8952 -3.941244,-1.71158 -5.718404,-0.76726 -3.79041,1.90176 -5.86924,5.91514 -7.3972,9.67932 -1.04925,2.40671 -1.16729,5.39051 -3.41006,7.09554 -3.12152,2.72804 -6.88569,5.46921 -11.22696,5.31182 -2.47885,0.0131 -4.13142,-2.32146 -4.65604,-4.51177 6.85946,-2.66247 12.58442,-7.63328 17.22735,-13.24676 4.29536,-5.52167 7.71197,-12.04013 8.28906,-19.10944 0.32133,-3.56089 -0.95088,-7.59393 -4.20355,-9.45635 -4.06584,-2.21654 -9.16125,-1.58699 -13.1484,0.51151 z"
         inkscape:connector-curvature="0"
         style="fill:#000000;fill-opacity:1" />
      <path
         id="path3807"
         d="m 61.909737,230.18525 c 1.59354,-1.20664 4.22322,-0.69513 4.97737,1.25254 0.58365,2.40016 -0.30166,4.8331 -1.32468,6.9775 -2.9051,5.92826 -7.23981,11.06957 -12.19751,15.38461 -1.22631,1.12138 -2.65591,1.99357 -4.17076,2.66247 0.20329,-5.27248 2.01324,-10.35477 4.25601,-15.08295 2.08538,-4.19044 4.49866,-8.49891 8.45957,-11.19417 z"
         inkscape:connector-curvature="0"
         style="fill:#000000;fill-opacity:1" />
      <path
         id="path3809"
         d="m 113.17205,232.2444 c 1.40993,-1.62634 3.83632,-3.25267 5.98728,-2.1444 2.36081,1.39681 1.12794,4.52488 0.19673,6.43976 -3.24611,5.98727 -8.05954,11.03678 -13.27955,15.34526 -0.0787,-7.1021 2.46574,-14.25011 7.09554,-19.64062 z"
         inkscape:connector-curvature="0"
         style="fill:#000000;fill-opacity:1" />
      <path
         id="path3811"
         d="m 42.970797,301.13412 c 6.11843,-5.14788 12.90576,-9.56784 20.17181,-12.92543 -0.76727,8.03331 -2.64936,15.99448 -5.68562,23.47038 -2.60345,6.02006 -6.46599,12.21718 -12.86641,14.68292 -3.31825,1.24598 -7.6464,2.02636 -10.51871,-0.59676 -2.72149,-2.41327 -2.53787,-6.50534 -1.74438,-9.7449 1.65257,-6.03973 6.0922,-10.8007 10.64331,-14.88621 z"
         inkscape:connector-curvature="0"
         style="fill:#000000;fill-opacity:1" />
    </g>
  </g>
</svg>
