<?xml version="1.0" encoding="UTF-8" standalone="no"?>
<!-- Created with Inkscape (http://www.inkscape.org/) -->
<svg
   xmlns:svg="http://www.w3.org/2000/svg"
   xmlns="http://www.w3.org/2000/svg"
   version="1.0"
   width="184.11"
   height="32.48"
   id="svg2"
   xml:space="preserve"><defs
     id="defs5"><clipPath
       id="clipPath17"><path
         d="M 0,0 L 595.229,0 L 595.229,841.84302 L 0,841.84302 L 0,0 z"
         id="path19" /></clipPath><clipPath
       id="clipPath27"><path
         d="M 504.6918,692.80084 L 22.6518,692.80084 L 22.6518,39.778801 L 504.6918,39.778801 L 504.6918,692.80084"
         id="path29" /></clipPath><clipPath
       id="clipPath35"><path
         d="M 22.355947,693.20068 L 332.75275,693.20068 L 332.75275,417.62305 L 22.355947,417.62305 L 22.355947,693.20068 z"
         id="path37" /></clipPath><clipPath
       id="clipPath47"><path
         d="M 332.15756,693.20068 L 505.06314,693.20068 L 505.06314,176.86467 L 332.15756,176.86467 L 332.15756,693.20068 z"
         id="path49" /></clipPath><clipPath
       id="clipPath59"><path
         d="M 22.355947,418.21826 L 332.75275,418.21826 L 332.75275,142.64067 L 22.355947,142.64067 L 22.355947,418.21826 z"
         id="path61" /></clipPath><clipPath
       id="clipPath71"><path
         d="M 332.15756,177.4599 L 505.06314,177.4599 L 505.06314,39.373505 L 332.15756,39.373505 L 332.15756,177.4599 z"
         id="path73" /></clipPath><clipPath
       id="clipPath83"><path
         d="M 22.355947,143.23589 L 332.75275,143.23589 L 332.75275,39.373474 L 22.355947,39.373474 L 22.355947,143.23589 z"
         id="path85" /></clipPath><clipPath
       id="clipPath95"><path
         d="M -0.019199,-8.5242 L 603.75482,-8.5242 L 603.75482,848.95081 L -0.019199,848.95081 L -0.019199,-8.5242"
         id="path97" /></clipPath></defs><g
     transform="matrix(1.25,0,0,-1.25,-501.79347,983.041)"
     id="g11"><g
       id="g13"><g
         transform="translate(1.1941516,-0.9951263)"
         clip-path="url(#clipPath17)"
         id="g15"><path
           d="M 517.96381,762.05279 C 510.70377,762.05279 506.04379,767.14484 506.04379,774.00879 C 506.04379,781.1958 511.20981,786.4328 518.97479,786.4328 C 522.00983,786.4328 524.3208,785.74683 525.87482,785.0968 L 525.83783,781.44879 C 524.10382,782.35181 521.8288,783.21783 519.22784,783.21783 C 513.05279,783.21783 510.12576,779.31781 510.12576,774.36981 C 510.12576,769.02283 513.48584,765.26782 518.93884,765.26782 C 520.70984,765.26782 522.08282,765.59283 522.94879,766.06183 L 522.94879,772.96283 L 520.25983,772.96283 L 520.25983,776.21179 L 526.74182,776.21179 L 526.74182,764.14679 C 524.82684,763.1358 521.68384,762.05279 517.96381,762.05279 M 537.36383,765.64984 L 546.32184,765.64984 L 546.32184,762.39984 L 533.5708,762.39984 L 533.5708,786.20184 L 546.28583,786.20184 L 545.1308,782.94983 L 537.36383,782.94983"
           id="path117"
           style="fill:#948d84;fill-opacity:1;fill-rule:nonzero;stroke:none" /><path
           d="M 539.7168,772.9458 L 545.08771,772.9458 L 545.08771,776.19379 L 539.7168,776.19379 L 539.7168,772.9458 z M 432.62979,765.64984 L 441.5878,765.64984 L 441.5878,762.39984 L 428.83679,762.39984 L 428.83679,786.20184 L 441.55179,786.20184 L 440.39578,782.94983 L 432.62979,782.94983"
           id="path119"
           style="fill:#948d84;fill-opacity:1;fill-rule:nonzero;stroke:none" /><path
           d="M 434.98279,772.9458 L 440.35379,772.9458 L 440.35379,776.19379 L 434.98279,776.19379 L 434.98279,772.9458 z M 413.35379,762.05279 C 406.09378,762.05279 401.43478,767.14484 401.43478,774.00879 C 401.43478,781.1958 406.59979,786.4328 414.36578,786.4328 C 417.39978,786.4328 419.71078,785.74683 421.2648,785.0968 L 421.22778,781.44879 C 419.49478,782.35181 417.21878,783.21783 414.6178,783.21783 C 408.44177,783.21783 405.51578,779.31781 405.51578,774.36981 C 405.51578,769.02283 408.87479,765.26782 414.3288,765.26782 C 416.09878,765.26782 417.4718,765.59283 418.33878,766.06183 L 418.33878,772.96283 L 415.63779,772.96283 L 415.63779,776.21179 L 422.1308,776.21179 L 422.1308,764.14679 C 420.2168,763.1358 417.0748,762.05279 413.35379,762.05279 M 462.90878,782.96484 L 456.37079,782.96484 L 456.37079,762.41382 L 452.54178,762.41382 L 452.54178,782.96484 L 445.64279,782.96484 L 445.64279,786.21582 L 463.95578,786.21582 M 468.50677,762.41382 L 472.29977,762.41382 L 472.29977,786.21582 L 468.50677,786.21582 L 468.50677,762.41382 z M 496.7178,762.41382 L 485.51977,777.04181 C 484.3638,778.55884 483.71378,779.49884 483.13577,780.47382 L 483.06378,780.47382 C 483.13577,779.67883 483.13577,778.52283 483.13577,777.36682 L 483.13577,762.41382 L 479.37979,762.41382 L 479.37979,786.21582 L 483.20779,786.21582 L 493.97177,772.12885 C 495.27176,770.43182 495.92276,769.52881 496.46378,768.55279 L 496.53677,768.55279 C 496.50076,769.52881 496.46378,770.72082 496.46378,771.87683 L 496.46378,786.21582 L 500.2568,786.21582 L 500.2568,762.41382"
           id="path121"
           style="fill:#948d84;fill-opacity:1;fill-rule:nonzero;stroke:none" /></g></g></g></svg>