<?xml version="1.0" encoding="UTF-8" standalone="no"?>
<!-- Created with Inkscape (http://www.inkscape.org/) -->
<svg
   xmlns:dc="http://purl.org/dc/elements/1.1/"
   xmlns:cc="http://web.resource.org/cc/"
   xmlns:rdf="http://www.w3.org/1999/02/22-rdf-syntax-ns#"
   xmlns:svg="http://www.w3.org/2000/svg"
   xmlns="http://www.w3.org/2000/svg"
   xmlns:xlink="http://www.w3.org/1999/xlink"
   xmlns:sodipodi="http://sodipodi.sourceforge.net/DTD/sodipodi-0.dtd"
   xmlns:inkscape="http://www.inkscape.org/namespaces/inkscape"
   width="470"
   height="370"
   id="svg2"
   sodipodi:version="0.32"
   inkscape:version="0.45.1"
   version="1.0"
   inkscape:output_extension="org.inkscape.output.svg.inkscape">
  <g
     inkscape:label="Layer 1"
     inkscape:groupmode="layer"
     id="layer1"
     transform="translate(-388.512,-92.3637)">
    <g
       id="g24575"
       transform="matrix(10,0,0,10,-3496.608,-4161.2731)">
      <g
         transform="matrix(0,-1,-1,0,795.5,831.86368)"
         id="g10139"
         clip-path="url(#id202)">
          <path
   id="path10141"
   d="M 405.051,383.439 C 405.007,383.402 405.045,383.386 405.073,383.371 C 405.891,383.097 406.477,382.349 406.542,381.438 C 406.607,380.602 406.173,379.81 405.5,379.395 C 405.225,379.262 404.95,379.099 404.625,379.129 C 404.437,379.121 404.213,379.114 404.068,379.24 C 403.865,379.373 403.67,379.588 403.685,379.862 C 403.728,379.921 403.699,380.017 403.786,380.061 C 403.873,380.091 403.901,379.987 403.988,380.01 C 404.075,379.95 404.198,379.995 404.285,379.943 C 404.43,380.002 404.625,379.936 404.762,380.024 C 405.153,380.121 405.479,380.454 405.638,380.831 C 405.797,381.298 405.688,381.883 405.37,382.238 C 405.11,382.519 404.704,382.704 404.292,382.638 C 404.075,382.667 403.894,382.519 403.706,382.453 C 403.287,382.164 403.033,381.638 403.091,381.076 C 402.961,379.18 402.737,377.278 402.382,375.457 C 401.948,373.191 401.326,371.008 400.451,368.935 C 400.292,368.572 400.104,368.246 400.053,367.846 C 400.046,367.565 400.234,367.306 400.473,367.202 C 400.646,367.143 400.871,367.128 401.015,367.239 C 401.218,367.336 401.333,367.528 401.37,367.758 C 401.406,368.128 401.131,368.372 400.885,368.557 C 400.791,368.579 400.762,368.661 400.74,368.742 C 400.762,368.831 400.777,368.935 400.863,368.964 C 401.037,369.016 401.239,369.038 401.413,368.972 C 401.71,368.927 401.927,368.69 402.071,368.439 C 402.274,368.076 402.281,367.535 402.093,367.158 C 401.876,366.699 401.449,366.44 400.972,366.321 C 400.654,366.284 400.357,366.381 400.118,366.529 L 400.046,366.536 L 400.046,366.551 C 399.952,366.632 399.851,366.714 399.757,366.795 C 399.351,367.188 399.301,367.869 399.503,368.394 C 399.518,368.476 399.576,368.542 399.568,368.631 C 399.424,368.638 399.243,368.616 399.105,368.676 C 399.004,368.69 398.896,368.713 398.845,368.801 C 398.737,368.809 398.744,368.653 398.686,368.602 C 398.237,367.661 397.775,366.677 397.174,365.825 C 396.668,365.041 396.089,364.293 395.481,363.553 C 394.606,362.568 393.63,361.739 392.516,361.065 C 392.414,361.036 392.342,360.984 392.262,360.939 C 392.045,360.821 391.814,360.688 391.568,360.614 C 391.344,360.458 391.098,360.421 390.852,360.31 C 390.324,360.14 389.774,359.999 389.188,359.955 C 389.007,359.918 388.797,359.947 388.616,359.91 C 388.58,359.962 388.566,359.888 388.522,359.91 C 388.074,359.858 387.633,359.962 387.191,360.007 C 386.909,360.081 386.605,360.118 386.331,360.214 C 385.759,360.347 385.274,360.621 384.725,360.821 C 384.645,360.91 384.529,360.939 384.428,360.999 C 384.392,361.028 384.327,361.065 384.269,361.08 C 384.073,361.213 383.871,361.317 383.676,361.45 C 383.567,361.524 383.488,361.598 383.365,361.65 C 383.14,361.88 382.894,362.013 382.648,362.227 C 382.504,362.39 382.309,362.516 382.164,362.679 C 381.744,363.086 381.332,363.538 380.963,363.982 C 380.862,364.115 380.753,364.241 380.652,364.374 C 380.572,364.397 380.572,364.5 380.514,364.545 C 380.261,364.841 380.095,365.181 379.871,365.492 C 379.299,366.344 378.851,367.262 378.359,368.187 C 378.243,368.402 378.171,368.631 378.041,368.846 C 377.939,368.735 377.787,368.683 377.643,368.631 C 377.541,368.572 377.411,368.616 377.303,368.594 C 377.628,367.743 378.026,366.951 378.438,366.144 L 373.022,366.141 C 371.683,368.969 370.828,372.133 370.293,375.287 C 369.931,377.53 369.584,379.662 369.541,381.949 C 369.512,382.432 369.5,382.931 369.5,383.439 C 369.501,383.938 369.522,384.429 369.547,384.934 C 369.561,385.882 369.684,386.815 369.742,387.785 C 370.002,390.361 370.465,392.885 371.153,395.351 C 371.673,397.209 372.588,399.581 373.149,400.822 C 373.865,400.859 378.423,400.822 378.423,400.822 L 378.415,400.681 C 378.032,399.926 377.634,399.141 377.33,398.334 C 377.338,398.312 377.345,398.282 377.366,398.29 C 377.605,398.371 377.851,398.282 378.032,398.149 L 378.104,398.23 C 378.777,399.733 379.595,401.177 380.643,402.487 C 381.859,404.057 383.349,405.456 385.107,406.233 C 385.186,406.285 385.28,406.307 385.374,406.337 C 385.685,406.544 386.054,406.566 386.394,406.707 C 386.51,406.751 386.633,406.781 386.756,406.811 C 387.335,406.914 387.913,407.04 388.535,406.988 C 388.846,406.966 389.194,406.951 389.498,406.899 C 389.932,406.848 390.351,406.751 390.742,406.618 C 391.299,406.448 391.863,406.218 392.37,405.937 C 392.876,405.678 393.339,405.33 393.809,405.019 C 394.106,404.775 394.388,404.53 394.67,404.264 C 394.952,404.034 395.198,403.746 395.458,403.479 C 395.567,403.346 395.675,403.235 395.791,403.079 C 395.95,402.954 396.073,402.739 396.225,402.576 C 396.63,402.028 397.035,401.473 397.39,400.881 L 397.44,400.829 C 397.947,400.037 398.388,399.215 398.786,398.371 C 398.858,398.408 398.938,398.46 399.032,398.482 C 399.09,398.519 399.177,398.482 399.234,398.534 L 399.567,398.549 C 399.567,398.726 399.444,398.86 399.408,399.023 C 399.263,399.511 399.408,400.037 399.705,400.4 C 400.117,400.784 400.732,401.007 401.31,400.762 C 401.716,400.644 401.998,400.274 402.142,399.881 C 402.309,399.326 402.157,398.704 401.752,398.341 C 401.636,398.186 401.477,398.082 401.282,398.112 C 401.13,398.156 400.978,398.171 400.869,398.297 C 400.811,398.341 400.782,398.415 400.775,398.49 C 400.775,398.786 401.144,398.734 401.26,398.971 C 401.39,399.126 401.426,399.356 401.39,399.548 C 401.332,399.77 401.18,399.933 400.992,400.029 C 400.761,400.118 400.486,400.059 400.319,399.896 C 400.139,399.741 400.059,399.496 400.095,399.245 C 400.254,398.837 400.515,398.415 400.667,397.971 C 401.961,394.884 402.627,391.553 402.96,388.155 C 403.025,387.696 403.047,387.192 403.09,386.711 C 403.126,386.637 403.104,386.548 403.112,386.467 C 403.148,386.134 403.184,385.741 403.155,385.416 C 403.206,384.89 403.553,384.498 403.994,384.29 C 404.269,384.201 404.566,384.179 404.841,384.283 C 405.347,384.446 405.709,384.949 405.745,385.512 C 405.781,386.052 405.455,386.533 405.036,386.756 C 404.877,386.867 404.66,386.874 404.457,386.911 C 404.37,386.889 404.276,386.926 404.19,386.904 C 404.103,386.904 404.001,386.874 403.922,386.933 C 403.828,387.052 403.835,387.229 403.907,387.37 C 404.038,387.629 404.334,387.711 404.58,387.733 C 405.405,387.696 406.07,387.17 406.396,386.445 C 406.497,386.208 406.541,385.934 406.584,385.69 C 406.598,384.875 406.222,384.12 405.571,383.691 C 405.405,383.587 405.246,383.498 405.051,383.439 z M 403.961,383.09 C 403.939,383.142 403.88,383.099 403.837,383.129 C 403.511,383.255 403.222,383.492 402.976,383.736 C 402.629,384.202 402.397,384.758 402.455,385.417 C 402.39,386.86 402.289,388.215 402.101,389.592 C 402.014,390.251 401.891,390.976 401.746,391.628 C 401.746,391.776 401.674,391.931 401.659,392.087 C 401.305,393.878 400.806,395.603 400.104,397.276 L 400.039,397.35 C 399.844,397.165 399.547,397.188 399.272,397.202 L 399.279,397.106 C 399.518,396.581 399.706,396.055 399.887,395.492 C 399.981,395.129 400.147,394.811 400.191,394.419 C 400.755,392.598 401.088,390.769 401.377,388.837 C 401.507,387.578 401.659,386.401 401.688,385.083 C 401.736,384.397 401.739,383.771 401.732,383.107 C 401.731,382.962 401.729,382.818 401.726,382.676 C 401.697,380.425 401.465,378.197 401.096,376.006 C 400.916,374.969 400.67,373.948 400.438,372.933 C 400.12,371.823 399.787,370.72 399.382,369.646 C 399.295,369.491 399.23,369.372 399.194,369.202 C 399.317,369.158 399.454,369.202 399.577,369.158 C 399.686,369.084 399.838,369.099 399.946,369.002 L 399.997,369.069 C 401.198,372.015 401.878,375.191 402.232,378.486 C 402.333,379.47 402.398,380.425 402.449,381.432 C 402.63,382.217 403.194,382.824 403.925,383.053 L 403.961,383.09 z M 374.521,383.106 C 374.517,382.59 374.517,382.062 374.534,381.536 C 374.613,379.211 374.932,376.783 375.431,374.503 L 375.452,374.473 C 375.532,373.962 375.691,373.459 375.807,372.963 C 376.169,371.653 376.559,370.327 377.051,369.076 L 377.094,369.054 C 377.304,369.173 377.586,369.232 377.832,369.143 L 377.84,369.187 C 377.008,371.201 376.357,373.34 375.995,375.524 C 375.626,377.131 375.517,378.878 375.358,380.499 C 375.358,380.862 375.293,381.217 375.315,381.61 C 375.287,382.105 375.263,382.602 375.252,383.097 C 375.238,383.751 375.253,384.404 375.306,385.054 C 375.364,385.683 375.357,386.357 375.458,386.986 C 375.509,387.534 375.588,388.111 375.639,388.667 C 375.965,390.769 376.37,392.901 376.999,394.9 C 377.252,395.633 377.534,396.373 377.809,397.106 C 377.708,397.128 377.592,397.091 377.484,397.114 C 377.368,397.151 377.238,397.173 377.137,397.232 L 377.108,397.217 C 375.426,392.781 374.555,387.937 374.521,383.106 z M 399.434,397.873 C 399.645,397.892 399.823,397.831 399.831,397.737 C 399.839,397.643 399.674,397.551 399.463,397.532 C 399.252,397.513 399.074,397.574 399.066,397.668 C 399.059,397.762 399.223,397.854 399.434,397.873 z M 399.434,368.55 C 399.645,368.531 399.823,368.592 399.831,368.686 C 399.839,368.78 399.674,368.871 399.463,368.89 C 399.252,368.909 399.074,368.848 399.066,368.754 C 399.059,368.66 399.223,368.569 399.434,368.55 z M 377.643,397.672 C 377.813,397.672 377.951,397.616 377.951,397.547 C 377.951,397.478 377.813,397.423 377.643,397.423 C 377.474,397.423 377.336,397.478 377.336,397.547 C 377.336,397.616 377.474,397.672 377.643,397.672 z M 377.542,368.863 C 377.728,368.873 377.882,368.82 377.886,368.744 C 377.89,368.668 377.742,368.599 377.555,368.589 C 377.369,368.579 377.215,368.632 377.211,368.708 C 377.207,368.784 377.355,368.853 377.542,368.863"
   style="fill:#231f20;fill-rule:nonzero;stroke:none" />

        </g>
      <path
         id="path10143"
         d="M 397.116,456.30968 L 397.448,456.42968 L 397.51,456.26568 C 397.7,455.76168 398.001,455.77468 398.29,455.87968 C 398.431,455.92968 398.529,455.97468 398.592,456.01868 L 398.464,456.35768 C 398.411,456.32168 398.356,456.29268 398.266,456.26068 C 398.145,456.21668 398.031,456.22368 397.969,456.38768 L 397.893,456.58968 L 398.272,456.72668 L 398.149,457.05068 L 397.77,456.91468 L 397.147,458.56268 L 396.702,458.40268 L 397.325,456.75368 L 396.993,456.63368 L 397.116,456.30968"
         style="fill:#ffffff;fill-rule:nonzero;stroke:none" />
      <path
         id="path10145"
         d="M 400.402,456.58768 L 400.267,457.00668 L 399.814,456.86768 L 399.949,456.44868 L 400.402,456.58768 z M 399.131,456.65768 L 399.266,456.23868 L 399.719,456.37768 L 399.584,456.79668 L 399.131,456.65768 z M 399.858,458.33068 C 399.969,457.98568 399.907,457.56968 399.502,457.44568 C 399.097,457.32068 398.802,457.62668 398.69,457.97268 C 398.578,458.32168 398.641,458.73768 399.046,458.86168 C 399.451,458.98668 399.745,458.68068 399.858,458.33068 z M 398.238,457.83268 C 398.435,457.21968 398.955,456.89368 399.614,457.09668 C 400.273,457.29868 400.508,457.85768 400.311,458.47068 C 400.112,459.08768 399.592,459.41368 398.933,459.21068 C 398.274,459.00868 398.039,458.44968 398.238,457.83268"
         style="fill:#ffffff;fill-rule:nonzero;stroke:none" />
      <path
         id="path10147"
         d="M 401.134,457.59768 L 401.564,457.71068 L 401.456,458.10368 L 401.464,458.10568 C 401.576,457.90368 401.913,457.74368 402.194,457.81768 C 402.299,457.84468 402.325,457.85968 402.364,457.87468 L 402.245,458.30668 C 402.183,458.28168 402.118,458.25168 402.054,458.23568 C 401.74,458.15268 401.423,458.33568 401.3,458.78268 L 401.034,459.74968 L 400.575,459.62968 L 401.134,457.59768"
         style="fill:#ffffff;fill-rule:nonzero;stroke:none" />
      <path
         id="path10149"
         d="M 405.477,460.61068 C 405.353,461.22968 404.92,461.46568 404.254,461.33768 C 403.829,461.25668 403.383,461.00568 403.439,460.51468 L 403.905,460.60368 C 403.91,460.87468 404.114,460.95868 404.351,461.00468 C 404.727,461.07668 404.932,460.92068 405,460.58168 L 405.063,460.26568 L 405.055,460.26468 C 404.878,460.46668 404.61,460.55668 404.349,460.50668 C 403.679,460.37768 403.5,459.82968 403.619,459.23968 C 403.73,458.68468 404.182,458.27368 404.782,458.38868 C 405.048,458.43968 405.267,458.59368 405.339,458.84768 L 405.347,458.84868 L 405.404,458.56568 L 405.87,458.65468 L 405.477,460.61068 z M 405.206,459.55168 C 405.278,459.19668 405.18,458.83768 404.776,458.76068 C 404.363,458.68168 404.145,459.02868 404.076,459.37268 C 404.008,459.71168 404.106,460.08668 404.494,460.16168 C 404.907,460.24068 405.136,459.90268 405.206,459.55168"
         style="fill:#ffffff;fill-rule:nonzero;stroke:none" />
      <path
         id="path10151"
         d="M 406.2,459.77468 C 406.289,459.13768 406.746,458.73068 407.431,458.82268 C 408.116,458.91468 408.443,459.42768 408.353,460.06468 C 408.263,460.70468 407.807,461.11168 407.122,461.01968 C 406.437,460.92768 406.11,460.41568 406.2,459.77468 z M 407.883,460.00068 C 407.934,459.64268 407.801,459.24268 407.38,459.18568 C 406.959,459.12968 406.721,459.47968 406.67,459.83768 C 406.619,460.20068 406.752,460.60068 407.173,460.65668 C 407.593,460.71368 407.832,460.36368 407.883,460.00068"
         style="fill:#ffffff;fill-rule:nonzero;stroke:none" />
      <path
         id="path10153"
         d="M 410.866,461.31868 L 410.418,461.28668 L 410.439,461.00268 L 410.431,461.00168 C 410.288,461.23268 410.01,461.31468 409.741,461.29568 C 409.063,461.24668 408.772,460.73268 408.819,460.10368 C 408.876,459.34468 409.362,459.04468 409.831,459.07768 C 410.101,459.09768 410.393,459.21668 410.521,459.45768 L 410.53,459.45868 L 410.61,458.38668 L 411.083,458.42068 L 410.866,461.31868 z M 409.83,460.93468 C 410.254,460.96468 410.461,460.60068 410.488,460.23468 C 410.523,459.77268 410.315,459.47968 409.949,459.45368 C 409.505,459.42168 409.318,459.79668 409.29,460.17368 C 409.263,460.53468 409.419,460.90468 409.83,460.93468"
         style="fill:#ffffff;fill-rule:nonzero;stroke:none" />
      <path
         id="path10155"
         d="M 413.442,460.88368 C 413.441,460.99768 413.466,461.04268 413.554,461.04268 C 413.583,461.04268 413.62,461.04268 413.67,461.03468 L 413.669,461.35668 C 413.598,461.38068 413.448,461.40868 413.369,461.40868 C 413.178,461.40768 413.04,461.34268 413.004,461.15068 C 412.816,461.32968 412.512,461.40568 412.258,461.40568 C 411.87,461.40368 411.521,461.19968 411.522,460.78868 C 411.524,460.26368 411.953,460.17968 412.353,460.13668 C 412.695,460.07568 412.998,460.11368 412.999,459.84068 C 413,459.60068 412.746,459.55568 412.555,459.55468 C 412.288,459.55368 412.1,459.65968 412.079,459.88668 L 411.604,459.88568 C 411.639,459.34468 412.11,459.18768 412.585,459.18868 C 413.005,459.18968 413.446,459.35868 413.445,459.80168 L 413.442,460.88368 z M 412.969,460.29668 C 412.823,460.38968 412.594,460.38468 412.385,460.42068 C 412.181,460.45268 411.998,460.52568 411.997,460.76968 C 411.997,460.97768 412.267,461.03868 412.433,461.03968 C 412.642,461.03968 412.967,460.93568 412.968,460.64268 L 412.969,460.29668"
         style="fill:#ffffff;fill-rule:nonzero;stroke:none" />
      <path
         id="path10157"
         d="M 415.264,458.35768 L 415.737,458.31168 L 415.902,459.95568 L 416.671,459.02768 L 417.251,458.97168 L 416.508,459.81968 L 417.54,461.05668 L 416.964,461.11268 L 416.207,460.15968 L 415.953,460.45368 L 416.028,461.20268 L 415.556,461.24768 L 415.264,458.35768"
         style="fill:#ffffff;fill-rule:nonzero;stroke:none" />
      <path
         id="path10159"
         d="M 419.7,460.25168 C 419.719,460.36468 419.751,460.40468 419.837,460.39068 C 419.866,460.38668 419.903,460.38068 419.951,460.36568 L 420.003,460.68268 C 419.937,460.71768 419.793,460.76868 419.715,460.78068 C 419.526,460.81068 419.38,460.76768 419.312,460.58468 C 419.156,460.78968 418.869,460.91268 418.618,460.95168 C 418.235,461.01168 417.857,460.86468 417.791,460.45868 C 417.706,459.94068 418.116,459.79068 418.503,459.68468 C 418.831,459.57168 419.137,459.56168 419.093,459.29168 C 419.054,459.05568 418.796,459.05068 418.607,459.07968 C 418.344,459.12068 418.176,459.25368 418.192,459.48268 L 417.724,459.55568 C 417.669,459.01568 418.108,458.78668 418.577,458.71368 C 418.992,458.64868 419.454,458.74568 419.526,459.18368 L 419.7,460.25168 z M 419.137,459.74668 C 419.009,459.86168 418.782,459.89268 418.582,459.96068 C 418.386,460.02468 418.217,460.12468 418.257,460.36568 C 418.29,460.57068 418.567,460.58968 418.731,460.56368 C 418.937,460.53168 419.24,460.37668 419.193,460.08768 L 419.137,459.74668"
         style="fill:#ffffff;fill-rule:nonzero;stroke:none" />
      <path
         id="path10161"
         d="M 419.878,457.73868 L 420.342,457.63968 L 420.702,459.25368 L 421.354,458.24368 L 421.924,458.12268 L 421.287,459.04968 L 422.46,460.16068 L 421.894,460.28168 L 421.029,459.42068 L 420.811,459.74268 L 420.975,460.47768 L 420.511,460.57568 L 419.878,457.73868"
         style="fill:#ffffff;fill-rule:nonzero;stroke:none" />
      <path
         id="path10163"
         d="M 422.509,459.06168 C 422.333,458.44268 422.587,457.89168 423.253,457.71168 C 423.919,457.53068 424.427,457.87368 424.603,458.49268 C 424.781,459.11668 424.527,459.66668 423.861,459.84768 C 423.195,460.02868 422.687,459.68468 422.509,459.06168 z M 424.146,458.61768 C 424.047,458.26868 423.763,457.95268 423.353,458.06368 C 422.944,458.17568 422.867,458.58868 422.967,458.93768 C 423.067,459.29068 423.351,459.60568 423.76,459.49468 C 424.17,459.38368 424.246,458.96968 424.146,458.61768"
         style="fill:#ffffff;fill-rule:nonzero;stroke:none" />
      <path
         id="path10165"
         d="M 424.796,457.32368 L 425.219,457.18668 L 425.35,457.57268 L 425.358,457.56968 C 425.337,457.34068 425.528,457.02568 425.804,456.93568 C 425.907,456.90268 425.937,456.90168 425.978,456.89268 L 426.123,457.31668 C 426.057,457.32968 425.986,457.34068 425.922,457.36068 C 425.614,457.46068 425.452,457.78368 425.602,458.22368 L 425.925,459.17368 L 425.474,459.31968 L 424.796,457.32368"
         style="fill:#ffffff;fill-rule:nonzero;stroke:none" />
      <g
         id="g10167"
         transform="matrix(1.0116,0,0,0.9885,795.5,831.86368)">
          <path
   id="path10169"
   stroke-miterlimit="3.864"
   d="M -388.172,-392.661 L -388.186,-392.654 L -388.186,-392.661 L -388.172,-392.661 z M -372.027,-395.553 L -372.041,-395.582 L -372.041,-395.612 L -372.027,-395.553 z M -372.012,-395.524 L -372.027,-395.531 L -372.005,-395.538 L -372.012,-395.524 z "
   style="fill:none;stroke:#231f20;stroke-width:0.021;stroke-linecap:butt;stroke-linejoin:miter;stroke-miterlimit:3.86400008" />

        </g>
      <path
         id="path10171"
         d="M 391.909,440.74368 C 392.042,440.55568 392.198,440.38268 392.331,440.20868 C 392.642,439.94868 392.975,439.69568 393.323,439.47868 C 393.486,439.34768 393.73,439.28968 393.922,439.18868 C 394.811,438.86368 395.906,438.74768 396.824,439.09468 C 397.528,439.34768 398.394,439.45668 399.112,439.33368 C 399.416,439.30468 399.719,439.11668 400.03,439.20368 C 400.259,439.40568 400.156,439.73868 400.2,439.99868 C 400.171,440.20168 400.141,440.38968 400.082,440.57768 C 399.993,440.92468 399.845,441.29368 399.519,441.46068 C 399.097,441.72768 398.572,441.90168 398.083,441.66268 C 397.779,441.54668 397.454,441.38068 397.254,441.12068 C 397.047,440.86668 396.81,440.65768 396.647,440.38268 C 396.358,439.94868 395.929,439.44168 395.307,439.50668 C 395.033,439.59368 394.907,439.83268 394.744,440.04268 C 394.692,440.15768 394.611,440.25268 394.596,440.38268 C 394.433,441.27168 394.359,442.24168 394.404,443.20368 C 394.426,443.95568 394.404,444.63568 394.529,445.36668 C 394.581,445.80768 394.626,446.26368 394.766,446.66868 C 394.944,447.14568 395.41,447.58768 395.966,447.60868 C 396.373,447.63068 396.699,447.41368 396.95,447.16768 C 396.973,447.13168 397.009,447.08068 397.039,447.05168 C 397.15,446.92868 397.232,446.75568 397.298,446.60368 C 397.461,445.96668 397.394,445.24368 397.306,444.59268 C 397.269,444.44068 397.232,444.28868 397.128,444.16568 C 396.98,443.85468 396.521,443.68068 396.617,443.24668 C 396.691,443.18968 396.736,443.10968 396.832,443.09468 C 397.343,443.16768 397.876,443.23968 398.394,443.33368 C 398.993,443.36968 399.497,443.34068 400.06,443.18168 C 400.304,443.16768 400.674,442.99368 400.837,443.25468 C 400.837,443.39168 400.726,443.49268 400.674,443.60868 C 400.119,444.65068 400.06,446.14768 400.563,447.24068 L 400.844,447.78968 C 400.874,447.90568 400.807,447.98568 400.704,448.01368 C 400.578,448.00668 400.459,447.95668 400.333,447.92768 C 399.327,447.76068 398.179,447.71768 397.232,448.03568 L 396.291,448.17368 C 395.684,448.19468 395.085,448.21668 394.507,448.07968 C 393.863,447.92068 393.286,447.60868 392.753,447.23268 C 391.324,446.01768 390.732,443.99968 391.287,442.12568 C 391.42,441.63368 391.664,441.18568 391.909,440.74368"
         style="fill:#d180b5;fill-rule:nonzero;stroke:none" />
      <path
         id="path10173"
         d="M 401.37,447.76068 C 401.644,447.41368 401.947,447.06668 402.118,446.64668 C 402.14,446.50268 402.229,446.37968 402.258,446.23468 C 402.466,445.67068 402.436,445.00468 402.466,444.38268 L 402.473,443.39868 C 402.488,443.02268 402.436,442.61068 402.436,442.24168 C 402.399,441.62668 402.436,440.98968 402.221,440.44768 C 402.118,440.14368 401.999,439.84668 401.77,439.60868 C 401.636,439.45668 401.4,439.33368 401.437,439.09468 C 401.659,438.90668 401.918,439.10968 402.162,439.10968 C 402.962,439.27568 403.761,439.28268 404.583,439.22468 C 404.894,439.14568 405.227,439.10168 405.516,438.98668 C 405.686,438.95768 405.878,438.84868 406.064,438.92068 C 406.13,438.99368 406.145,439.09468 406.175,439.18868 C 406.093,439.39868 405.871,439.50668 405.76,439.69568 L 405.597,439.96968 C 405.575,440.15068 405.457,440.28868 405.427,440.46968 C 405.338,440.89568 405.323,441.35868 405.234,441.79268 C 405.153,442.34968 405.108,442.88568 405.168,443.44968 C 405.116,444.37568 405.323,445.19268 405.449,446.07568 C 405.597,446.59668 405.834,447.13168 406.241,447.51468 C 406.308,447.59468 406.374,447.68868 406.345,447.81168 C 406.308,447.87668 406.293,447.94168 406.219,447.97768 L 406.108,448.01368 C 405.419,447.84068 404.701,447.78968 403.991,447.74668 C 403.48,447.78968 402.962,447.81168 402.458,447.90568 C 402.192,447.94868 401.977,448.05768 401.718,448.11568 L 401.666,448.10868 L 401.666,448.10068 C 401.585,448.13668 401.444,448.12968 401.355,448.04368 C 401.289,447.97068 401.318,447.82568 401.37,447.76068"
         style="fill:#d180b5;fill-rule:nonzero;stroke:none" />
      <path
         id="path10175"
         d="M 415.438,438.81868 C 415.667,438.60868 415.904,438.91968 416.141,438.94868 C 417.126,439.07868 418.132,439.22368 419.095,438.92668 C 419.324,438.89068 419.546,438.78268 419.776,438.73168 C 419.879,438.73168 419.953,438.79668 420.013,438.86168 C 420.05,438.91968 420.072,438.99968 420.042,439.06468 C 419.939,439.23068 419.754,439.33968 419.657,439.51268 C 419.487,439.77368 419.317,440.06268 419.287,440.39568 L 419.257,440.43868 L 419.206,440.90868 L 419.184,440.93768 C 419.095,441.38668 419.117,441.82768 419.058,442.29068 C 418.984,443.39068 419.095,444.43168 419.243,445.48068 C 419.317,445.95868 419.406,446.45068 419.731,446.80468 C 420.131,447.18768 420.708,447.35468 421.271,447.24568 C 421.789,447.20268 422.285,446.84768 422.426,446.34868 C 422.537,446.04568 422.582,445.71268 422.596,445.37268 C 422.663,445.10468 422.863,444.86568 423.107,444.74368 C 423.351,444.67768 423.588,444.78668 423.788,444.91668 C 424.143,445.17668 423.995,445.68368 423.951,446.05268 C 423.744,446.68168 423.24,447.23168 422.715,447.58568 C 422.041,448.00568 421.182,448.11368 420.368,448.02768 C 418.961,447.77368 417.34,447.38368 415.97,447.91168 C 415.815,447.94068 415.637,447.91868 415.548,447.78168 C 415.489,447.54268 415.645,447.33268 415.771,447.15168 C 415.941,446.96368 416.096,446.74668 416.163,446.49368 C 416.467,445.72668 416.4,444.79368 416.444,443.94068 C 416.518,443.31068 416.422,442.65268 416.43,442.00868 C 416.355,441.56068 416.333,441.08968 416.156,440.68468 C 416.015,440.17868 415.808,439.70868 415.43,439.32468 C 415.326,439.18768 415.319,438.95568 415.438,438.81868"
         style="fill:#d180b5;fill-rule:nonzero;stroke:none" />
      <path
         id="path10177"
         d="M 423.981,439.07168 C 424.262,438.93468 424.506,439.14368 424.773,439.18768 C 425.898,439.38268 427.06,439.12268 428.126,438.91268 C 428.482,438.81868 428.844,438.73868 429.192,438.63768 C 429.903,438.50068 430.651,438.68868 431.287,438.87668 C 431.406,438.89768 431.517,438.96368 431.643,438.97768 C 432.139,439.16568 432.561,439.52068 432.783,439.98368 C 432.842,440.08468 432.946,440.19268 432.901,440.30168 C 432.139,440.40268 431.436,440.58368 430.732,440.82268 C 430.643,440.85168 430.562,440.90868 430.473,440.88768 C 430.392,440.69168 430.451,440.43168 430.347,440.23668 C 430.281,440.06968 430.221,439.88168 430.096,439.72968 C 429.748,439.34668 429.2,439.16568 428.645,439.28868 C 428.489,439.34668 428.312,439.39768 428.215,439.54168 C 427.986,439.81668 427.823,440.12068 427.704,440.45368 C 427.497,441.09768 427.564,441.91468 427.667,442.55868 C 427.697,442.61668 427.764,442.66668 427.83,442.67468 C 428.008,442.64568 428.082,442.48668 428.223,442.40668 C 428.748,442.08068 429.304,441.65468 430.029,441.78468 C 430.658,441.94368 431.036,442.47868 431.695,442.57968 C 432.072,442.65268 432.457,442.52268 432.746,442.36368 C 432.827,442.34168 432.872,442.24768 432.976,442.26868 C 433.094,442.31268 433.057,442.44268 433.101,442.52968 C 433.19,443.02168 433.012,443.45568 432.768,443.80968 C 432.487,444.12068 432.132,444.29468 431.695,444.40268 C 431.147,444.46068 430.606,444.34568 430.155,444.10668 C 429.57,443.73768 429.007,443.06468 428.245,443.39768 L 428.245,443.41168 C 428.171,443.41168 428.119,443.47768 428.052,443.50568 C 427.838,443.71568 427.793,444.01968 427.749,444.30868 C 427.712,444.95268 427.616,445.61168 427.727,446.24768 C 427.778,446.44268 427.823,446.64568 427.964,446.80468 C 428.26,447.09368 428.622,447.39768 429.089,447.43368 C 429.118,447.48468 429.141,447.41968 429.185,447.44168 C 429.229,447.42668 429.311,447.47068 429.326,447.42668 C 429.955,447.35468 430.495,446.96368 430.695,446.37768 C 430.769,446.12468 430.732,445.82868 430.703,445.56768 L 430.732,445.55368 C 431.095,445.61168 431.495,445.70568 431.85,445.66868 C 432.428,445.74168 432.953,445.53868 433.471,445.39368 C 433.531,445.40868 433.583,445.45168 433.605,445.50268 C 433.634,445.73368 433.56,445.93668 433.508,446.14668 C 433.227,446.86968 432.642,447.48468 431.887,447.71668 C 431.458,447.89668 430.947,447.94068 430.481,448.02768 C 429.911,448.12168 429.341,448.07768 428.77,447.98368 C 428.045,447.77368 427.312,447.52068 426.52,447.49968 C 425.787,447.41268 425.091,447.58568 424.454,447.84668 C 424.343,447.84668 424.24,447.83968 424.151,447.78168 C 424.077,447.68768 423.995,447.57868 424.047,447.46268 C 424.114,447.31068 424.255,447.22468 424.358,447.07968 C 424.765,446.42168 424.899,445.62568 424.943,444.83668 C 425.113,443.50568 425.054,442.20368 424.706,440.95968 C 424.625,440.33768 424.262,439.80968 423.892,439.31768 C 423.87,439.22368 423.899,439.12268 423.981,439.07168"
         style="fill:#d180b5;fill-rule:nonzero;stroke:none" />
      <path
         id="path10179"
         d="M 412.393,448.11668 C 412.817,448.12368 413.234,448.08568 413.631,447.94768 C 414.031,447.87568 414.32,447.62268 414.631,447.40468 C 414.912,447.18068 415.09,446.86968 415.304,446.59468 C 415.497,446.12468 415.719,445.50268 415.371,445.03968 C 415.208,444.78668 414.897,444.71368 414.616,444.75068 C 414.446,444.83668 414.26,444.98868 414.201,445.17668 C 413.972,445.59668 414.179,446.16868 413.957,446.58768 C 413.698,446.88468 413.424,447.23168 412.995,447.30368 C 412.8,447.35568 412.596,447.38168 412.394,447.36868 C 411.957,447.28168 411.505,447.10968 411.231,446.75568 C 410.72,446.16268 410.765,445.31568 410.705,444.52068 C 410.713,443.63768 410.609,442.77668 410.69,441.90868 L 410.683,441.36668 C 410.705,440.70768 410.824,440.08568 411.238,439.59368 C 411.342,439.44168 411.46,439.28968 411.542,439.13068 C 411.579,439.02968 411.497,438.95768 411.453,438.88468 C 411.386,438.84868 411.312,438.81968 411.216,438.83468 C 410.868,438.95768 410.483,439.03668 410.128,439.11668 C 409.402,439.21068 408.729,439.21768 407.974,439.10968 C 407.626,439.08768 407.3,438.84168 406.944,438.99368 C 406.804,439.13868 406.819,439.42768 406.981,439.55768 C 407.181,439.79668 407.374,440.02068 407.529,440.29568 C 407.685,440.55568 407.796,440.85268 407.87,441.14968 C 407.936,441.25768 407.87,441.40968 407.944,441.51068 C 407.936,441.78568 408.04,442.04668 408.003,442.34268 C 408.085,442.84168 408.003,443.42768 408.07,443.89068 C 408.07,443.97068 408.07,444.08568 408.07,444.12968 C 407.996,444.80968 408.025,445.51868 407.885,446.16968 C 407.855,446.52368 407.759,446.85668 407.611,447.16068 C 407.522,447.48568 407.13,447.62368 407.167,447.98568 C 407.189,448.05068 407.263,448.05768 407.3,448.10068 C 407.618,448.12268 407.87,447.96368 408.151,447.92768 C 408.285,447.86268 408.44,447.84768 408.588,447.81868 C 409.735,447.72468 410.839,447.96368 411.964,448.08668 C 412.106,448.10568 412.25,448.11568 412.393,448.11668"
         style="fill:#d180b5;fill-rule:nonzero;stroke:none" />
    </g>
    <path
       style="fill:#ffffff;fill-rule:nonzero;stroke:none"
       d="M -2.394,522.01368 L -2.394,521.96668 L -2.394,522.01368"
       id="path11043" />
    <path
       style="fill:#ef3e42;fill-rule:nonzero;stroke:none"
       d="M 0.977,527.17868 L 0.977,527.11668 L 0.977,527.17868"
       id="path11191" />
    <path
       style="fill:#ef3e42;fill-rule:nonzero;stroke:none"
       d="M 4.099,527.49568 L 4.114,527.49568 L 4.099,527.49568"
       id="path11209" />
    <path
       style="fill:#ffffff;fill-rule:nonzero;stroke:none"
       d="M 3.087,529.18768 L 3.13,529.18768 L 3.087,529.18768"
       id="path11299" />
    <text
       id="text12893"
       x="795.5"
       y="831.86371">
      <tspan
         style="font-size:6.59399986px;letter-spacing:0;fill:#231f20;fill-rule:nonzero;stroke:none;font-family:font1"
         font-size="6.594"
         letter-spacing="0"
         y="442.36368"
         x="725.51178"
         id="tspan12895"></tspan>
    </text>
  </g>
</svg>
