<?xml version="1.0" encoding="UTF-8" standalone="no"?>
<!-- Created with Inkscape (http://www.inkscape.org/) -->
<svg
   xmlns:svg="http://www.w3.org/2000/svg"
   xmlns="http://www.w3.org/2000/svg"
   xmlns:xlink="http://www.w3.org/1999/xlink"
   version="1.0"
   width="125"
   height="44"
   id="svg2">
  <defs
     id="defs4" />
  <g
     transform="translate(-416.30086,-665.7634)"
     id="layer1">
    <g
       transform="translate(417.92125,667.15231)"
       id="g2449">
      <path
         d="M 48.598,11.864 C 48.598,4.336 43.249,1.381 36.972,0.393 C 34.747,0.079 32.338,0 30.114,0 C 21.137,0 6.198,1.42 1.272,11.548 C 0.518,13.085 0,15.213 0,16.947 C 0,23.37 3.514,30.25 8.154,35.157 C 12.517,39.773 17.28,41.769 22.366,41.769 C 26.299,41.769 29.596,40.449 32.616,38.241 C 39.568,33.077 48.598,21.242 48.598,11.864"
         id="path2384"
         style="fill:#ffffff" />
      <g
         id="g2386">
	<defs
   id="defs2388">
		<path
   d="M 8.842,17.089 C 8.842,18.943 9.921,20.395 11.894,20.395 C 13.627,20.395 14.523,19.217 14.523,17.565 C 14.523,15.752 13.485,14.311 11.551,14.311 C 9.858,14.311 8.842,15.438 8.842,17.089 M 25.563,23.014 C 25.563,21.684 24.152,21.04 22.621,20.314 C 20.93,19.508 19.116,18.624 19.116,16.569 C 19.116,14.071 21.533,12.983 23.709,12.983 C 24.878,12.983 26.046,13.265 27.053,13.828 L 27.053,15.641 C 26.086,14.875 24.917,14.433 23.669,14.433 C 22.459,14.433 21.292,14.915 21.292,16.002 C 21.292,17.291 22.823,18.019 24.434,18.824 C 26.127,19.671 27.899,20.636 27.899,22.489 C 27.899,25.189 25.201,26.116 22.945,26.116 C 21.533,26.116 20.285,25.835 18.995,25.31 L 18.995,23.457 C 20.326,24.181 21.976,24.624 23.024,24.624 C 24.151,24.625 25.563,24.343 25.563,23.014 M 29.712,22.532 L 29.712,11.371 C 29.712,9.558 29.591,8.752 29.227,8.267 L 32.008,7.541 L 32.008,18.34 L 35.674,14.914 C 35.674,14.914 36.399,14.27 37.044,13.424 L 40.227,13.424 C 40.067,13.464 39.503,13.586 37.488,15.479 L 34.062,18.702 C 34.062,18.702 36.118,21.121 38.053,23.255 C 39.542,24.868 40.671,25.35 41.356,25.35 C 41.476,25.35 41.637,25.311 41.758,25.27 C 41.154,25.714 40.268,25.955 39.3,25.955 C 38.053,25.955 37.004,25.27 35.715,23.74 C 33.661,21.282 32.008,19.308 32.008,19.308 L 32.008,22.533 C 32.008,24.787 32.129,25.15 32.331,25.674 L 29.35,25.674 C 29.592,25.029 29.712,24.786 29.712,22.532 M 2.516,11.611 C 1.831,12.982 1.428,14.915 1.428,16.527 C 1.428,18.983 1.792,21.2 2.839,23.538 C 4.612,27.487 7.795,29.743 12.145,29.743 C 13.354,29.743 14.442,29.621 15.127,29.38 C 15.812,29.096 16.497,28.573 16.497,27.607 C 16.497,27.125 16.135,26.601 15.61,26.399 C 15.047,26.198 14.563,26.159 13.073,26.078 C 11.582,25.996 11.057,25.955 10.011,25.875 C 8.359,25.715 7.512,24.626 7.512,23.58 C 7.512,22.652 8.157,21.846 9.366,21.282 C 7.754,20.677 6.64,19.15 6.64,17.423 C 6.64,14.92 8.591,12.984 11.748,12.984 C 12.433,12.984 13.234,13.144 13.918,13.345 C 14.484,13.506 15.088,13.626 15.732,13.626 C 16.497,13.626 17.384,13.588 18.109,13.386 L 18.109,14.997 C 17.706,14.916 16.417,14.835 15.732,14.835 C 16.376,15.562 16.739,16.569 16.739,17.535 C 16.739,19.791 14.966,21.684 11.824,21.684 C 11.554,21.684 11.262,21.67 10.922,21.631 C 10.594,21.697 10.298,21.838 10.067,22.027 C 9.725,22.303 9.568,22.661 9.568,22.972 C 9.568,23.496 9.85,23.9 11.138,23.981 L 13.918,24.142 C 16.619,24.303 18.069,25.392 18.029,27.324 C 17.948,29.54 16.175,31.153 11.904,31.153 C 10.776,31.153 9.285,30.951 7.956,30.548 C 6.989,30.268 6.062,29.743 5.257,29.139 C 8.882,35.342 15.329,40.702 22.783,40.702 C 26.408,40.702 29.512,39.413 32.413,37.279 C 39.342,32.121 48.126,20.556 48.126,11.573 C 48.126,4.844 43.25,1.862 37.126,0.895 C 34.91,0.533 32.896,0.493 30.679,0.493 C 21.413,0.492 7.109,2.104 2.516,11.611"
   id="SVGID_1_" />

	</defs>

	<clipPath
   id="SVGID_2_">
		<use
   id="use2392"
   style="overflow:visible"
   x="0"
   y="0"
   width="744.09448"
   height="1052.3622"
   xlink:href="#SVGID_1_" />

	</clipPath>

	
		<radialGradient
   cx="-144.5674"
   cy="103.2422"
   r="1"
   id="SVGID_3_"
   gradientUnits="userSpaceOnUse"
   gradientTransform="matrix(31.5556,0,0,-31.5556,4595.979,3269.499)">
		<stop
   id="stop2395"
   style="stop-color:#faa71a;stop-opacity:1"
   offset="0" />

		<stop
   id="stop2397"
   style="stop-color:#f99f1c;stop-opacity:1"
   offset="0.0501" />

		<stop
   id="stop2399"
   style="stop-color:#f58120;stop-opacity:1"
   offset="0.26019999" />

		<stop
   id="stop2401"
   style="stop-color:#f26922;stop-opacity:1"
   offset="0.46509999" />

		<stop
   id="stop2403"
   style="stop-color:#f15523;stop-opacity:1"
   offset="0.66079998" />

		<stop
   id="stop2405"
   style="stop-color:#ef4723;stop-opacity:1"
   offset="0.84350002" />

		<stop
   id="stop2407"
   style="stop-color:#ef4223;stop-opacity:1"
   offset="1" />

	</radialGradient>

	<rect
   width="46.698002"
   height="40.209"
   x="1.428"
   y="0.49200001"
   clip-path="url(#SVGID_2_)"
   id="rect2409"
   style="fill:url(#SVGID_3_)" />

</g>
      <path
         d="M 120.601,30.831 L 117.983,30.831 C 118.063,30.148 118.346,29.302 119.352,29.302 C 120.238,29.302 120.601,29.986 120.601,30.831 M 121.669,31.597 C 121.681,31.517 121.684,31.4 121.684,31.306 C 121.684,29.68 121.115,28.497 119.352,28.497 C 117.822,28.497 116.896,29.664 116.896,31.276 C 116.896,33.088 117.702,34.254 119.635,34.254 C 120.56,34.254 120.883,34.054 121.246,33.895 L 121.246,32.886 C 121.003,33.088 120.36,33.45 119.675,33.45 C 118.708,33.45 117.983,32.682 117.983,31.596 L 121.669,31.596 L 121.669,31.597 z"
         id="path2411"
         style="fill:#a19589" />
      <path
         d="M 115.929,34.136 L 115.929,30.872 C 115.929,29.383 115.326,28.497 113.916,28.497 C 113.15,28.497 112.467,28.858 112.185,29.504 L 112.144,29.504 L 112.144,28.618 L 111.177,28.618 L 111.177,34.136 L 112.185,34.136 L 112.185,31.597 C 112.185,30.228 112.627,29.262 113.795,29.302 C 114.682,29.343 114.923,29.987 114.923,31.277 L 114.923,34.136 L 115.929,34.136 z"
         id="path2413"
         style="fill:#a19589" />
      <path
         d="M 109.79,26.807 C 109.79,26.486 109.549,26.203 109.227,26.203 C 108.905,26.203 108.623,26.486 108.623,26.807 C 108.623,27.126 108.905,27.37 109.227,27.37 C 109.549,27.37 109.79,27.126 109.79,26.807 M 109.71,28.618 L 108.702,28.618 L 108.702,34.136 L 109.71,34.136 L 109.71,28.618 z"
         id="path2415"
         style="fill:#a19589" />
      <path
         d="M 107.706,34.094 C 107.304,33.973 107.223,33.692 107.223,33.329 L 107.223,26.484 L 106.176,26.484 L 106.176,33.45 C 106.176,33.972 106.418,34.254 106.981,34.254 C 107.342,34.254 107.544,34.174 107.706,34.094"
         id="path2417"
         style="fill:#a19589" />
      <polygon
         points="105.534,34.137 102.367,30.183 105.262,26.608 104.022,26.608 101.365,29.951 101.365,26.608 100.308,26.608 100.308,34.137 101.365,34.137 101.365,30.473 104.143,34.137 105.534,34.137 "
         id="polygon2419"
         style="fill:#a19589" />
      <path
         d="M 98.794,34.136 L 98.794,30.872 C 98.794,29.383 98.19,28.497 96.779,28.497 C 96.016,28.497 95.451,28.82 95.089,29.424 L 95.049,29.424 L 95.049,26.485 L 94.042,26.485 L 94.042,34.136 L 95.049,34.136 L 95.049,31.597 C 95.049,30.228 95.492,29.262 96.66,29.302 C 97.546,29.343 97.787,29.987 97.787,31.277 L 97.787,34.136 L 98.794,34.136 z"
         id="path2421"
         style="fill:#a19589" />
      <path
         d="M 93.097,34.094 L 93.097,33.249 C 92.936,33.329 92.735,33.45 92.412,33.45 C 91.929,33.45 91.566,33.088 91.566,32.443 L 91.566,29.422 L 92.936,29.422 L 92.936,28.617 L 91.566,28.617 L 91.566,27.006 L 90.56,27.327 L 90.56,28.617 L 89.592,28.617 L 89.592,29.422 L 90.56,29.422 L 90.56,32.645 C 90.56,33.772 91.205,34.253 92.251,34.253 C 92.573,34.254 92.895,34.174 93.097,34.094"
         id="path2423"
         style="fill:#a19589" />
      <path
         d="M 88.803,26.807 C 88.803,26.486 88.521,26.203 88.199,26.203 C 87.876,26.203 87.636,26.486 87.636,26.807 C 87.636,27.126 87.876,27.37 88.199,27.37 C 88.521,27.37 88.803,27.126 88.803,26.807 M 88.682,28.618 L 87.675,28.618 L 87.675,34.136 L 88.682,34.136 L 88.682,28.618 z"
         id="path2425"
         style="fill:#a19589" />
      <path
         d="M 86.31,34.136 L 86.31,30.591 C 86.31,29.383 85.787,28.497 84.378,28.497 C 83.894,28.497 83.049,28.777 82.687,29.544 C 82.405,28.82 81.761,28.497 81.116,28.497 C 80.311,28.497 79.747,28.777 79.344,29.424 L 79.344,28.618 L 78.377,28.618 L 78.377,34.136 L 79.385,34.136 L 79.385,31.357 C 79.385,30.309 79.828,29.302 80.834,29.302 C 81.68,29.302 81.84,30.148 81.84,30.832 L 81.84,34.136 L 82.848,34.136 L 82.848,31.357 C 82.848,30.309 83.25,29.302 84.297,29.302 C 85.103,29.302 85.263,30.148 85.263,30.832 L 85.263,34.136 L 86.31,34.136 L 86.31,34.136 z"
         id="path2427"
         style="fill:#a19589" />
      <path
         d="M 77.503,32.04 C 77.503,30.511 76.214,30.066 75.086,29.544 C 74.885,29.464 74.684,29.383 74.523,29.262 C 74.2,29.061 73.959,28.778 73.959,28.375 C 73.959,27.57 74.763,27.328 75.449,27.328 C 75.984,27.328 76.567,27.495 76.978,27.652 L 77.141,26.765 C 76.576,26.564 75.932,26.443 75.408,26.443 C 73.878,26.443 72.75,27.168 72.75,28.496 C 72.75,29.946 74.16,30.309 75.167,30.793 C 75.73,31.033 76.375,31.397 76.375,32.081 C 76.375,33.048 75.368,33.369 74.724,33.369 C 74.12,33.369 73.379,33.18 72.951,33.007 L 72.871,33.973 C 73.311,34.113 74.043,34.255 74.542,34.255 C 76.192,34.255 77.503,33.611 77.503,32.04"
         id="path2429"
         style="fill:#a19589" />
      <polygon
         points="66.354,34.136 64.583,31.233 66.194,28.618 65.024,28.618 63.978,30.591 62.931,28.618 61.684,28.618 63.293,31.233 61.481,34.136 62.689,34.136 63.898,31.96 65.104,34.136 66.354,34.136 "
         id="polygon2431"
         style="fill:#a19589" />
      <path
         d="M 55.461,34.094 C 55.058,33.973 54.977,33.692 54.977,33.329 L 54.977,26.484 L 53.931,26.484 L 53.931,33.45 C 53.931,33.972 54.171,34.254 54.736,34.254 C 55.098,34.254 55.339,34.174 55.461,34.094"
         id="path2433"
         style="fill:#a19589" />
      <path
         d="M 52.685,33.933 L 52.685,30.645 L 51.597,30.645 L 51.597,33.168 C 51.315,33.249 51.114,33.29 50.39,33.29 C 48.819,33.29 47.53,32.121 47.53,30.349 C 47.53,28.658 48.698,27.411 50.429,27.411 C 51.356,27.411 52.081,27.651 52.522,27.933 L 52.604,26.845 C 51.959,26.604 51.476,26.442 50.39,26.442 C 48.093,26.442 46.403,28.012 46.403,30.308 C 46.403,32.725 47.973,34.254 50.349,34.254 C 51.556,34.255 52.241,34.054 52.685,33.933"
         id="path2435"
         style="fill:#a19589" />
      <path
         d="M 71.971,31.356 C 71.971,29.704 71.004,28.496 69.353,28.496 C 67.662,28.496 66.696,29.704 66.696,31.356 C 66.696,32.967 67.662,34.254 69.353,34.254 C 71.004,34.255 71.971,32.968 71.971,31.356 M 70.883,31.356 C 70.883,32.362 70.521,33.449 69.353,33.449 C 68.145,33.449 67.783,32.362 67.783,31.356 C 67.783,30.308 68.226,29.301 69.353,29.301 C 70.4,29.302 70.883,30.309 70.883,31.356"
         id="path2437"
         style="fill:#a19589" />
      <path
         d="M 60.727,34.136 C 60.687,33.973 60.687,33.692 60.687,33.047 L 60.687,30.753 C 60.687,29.262 60.123,28.497 58.552,28.497 C 57.827,28.497 57.304,28.697 56.781,29.02 L 56.861,29.865 C 57.264,29.544 57.787,29.302 58.392,29.302 C 59.398,29.302 59.64,29.784 59.64,30.753 C 59.237,30.711 58.995,30.711 58.592,30.711 C 57.546,30.711 56.176,31.154 56.176,32.523 C 56.176,33.732 56.942,34.255 58.109,34.255 C 59.036,34.255 59.518,33.732 59.72,33.409 L 59.761,33.409 L 59.761,34.136 L 60.727,34.136 z M 59.64,31.999 C 59.64,32.806 59.197,33.449 58.19,33.449 C 57.746,33.449 57.264,33.128 57.264,32.522 C 57.264,31.557 58.513,31.476 59.036,31.476 C 59.277,31.476 59.438,31.518 59.64,31.518 L 59.64,31.999 L 59.64,31.999 z"
         id="path2439"
         style="fill:#a19589" />
    </g>
  </g>
</svg>
