<?xml version="1.0" encoding="UTF-8" standalone="no"?>
<svg
   xmlns:dc="http://purl.org/dc/elements/1.1/"
   xmlns:cc="http://creativecommons.org/ns#"
   xmlns:rdf="http://www.w3.org/1999/02/22-rdf-syntax-ns#"
   xmlns:svg="http://www.w3.org/2000/svg"
   xmlns="http://www.w3.org/2000/svg"
   xmlns:sodipodi="http://sodipodi.sourceforge.net/DTD/sodipodi-0.dtd"
   xmlns:inkscape="http://www.inkscape.org/namespaces/inkscape"
   version="1.1"
   id="Layer_1"
   x="0px"
   y="0px"
   width="508"
   height="256"
   viewBox="0 0 508.00001 256"
   enable-background="new 0 0 1167.87 819.213"
   xml:space="preserve">
<path
   style="fill:#ffffff"
   inkscape:connector-curvature="0"
   d="m 507.48344,256.00004 c 0,0 -24.89283,-43.55278 -24.89283,-127.94839 0,-84.395605 25.40901,-127.974193 25.40901,-127.974193 V 0.02583889 2.9834999e-5 c 0,0 -93.01583,42.894648165001 -252.87711,44.585141165001 h -1.7292 C 93.532026,42.894678 0.51619551,2.9834999e-5 0.51619551,2.9834999e-5 V 0.02583889 c 0,0 25.40901349,43.60439711 25.40901349,127.97419111 0,84.39561 -25.92519457,127.94839 -25.92519457,127.94839 v 0.0516 c 0,0 93.01583057,-42.90756 252.87711557,-44.58514 h 1.7292 c 159.86128,1.67758 252.87711,44.58514 252.87711,44.58514"
   id="path3"
   clip-path="none" /><path
   style="fill:#05365d"
   inkscape:connector-curvature="0"
   d="m 421.42315,107.22374 c -0.69684,0.86461 -1.94858,0.98075 -2.80028,0.24519 -0.83879,-0.73556 -0.95493,-2.03891 -0.27099,-2.87771 0.69684,-0.87751 1.94858,-0.98074 2.78737,-0.25809 0.8517,0.74846 0.98075,2.03892 0.2839,2.89061"
   id="path5"
   clip-path="none" /><path
   style="fill:#05365d"
   inkscape:connector-curvature="0"
   d="m 421.92643,107.59798 c -0.5549,0.96784 -0.21938,2.23248 0.73556,2.80028 0.95493,0.5678 2.15505,0.24518 2.68414,-0.73556 0.54199,-0.96784 0.21938,-2.21958 -0.73556,-2.80028 -0.92913,-0.5678 -2.14215,-0.24519 -2.68414,0.73556"
   id="path7"
   clip-path="none" /><path
   style="fill:#05365d"
   inkscape:connector-curvature="0"
   d="m 423.60402,112.01132 c -0.50328,0.8388 -0.21938,1.96149 0.61942,2.49058 0.82588,0.52908 1.92277,0.27099 2.41314,-0.60651 0.50328,-0.8517 0.21938,-1.96149 -0.61942,-2.49058 -0.83879,-0.52908 -1.92277,-0.25809 -2.41314,0.60651"
   id="path9"
   clip-path="none" /><path
   style="fill:#05365d"
   inkscape:connector-curvature="0"
   d="m 413.95143,104.99126 c -0.50328,0.8388 -0.23228,1.97439 0.61942,2.49058 0.83879,0.51618 1.93568,0.27099 2.42605,-0.61942 0.50328,-0.8388 0.21938,-1.94859 -0.61942,-2.47767 -0.8517,-0.52909 -1.93568,-0.25809 -2.42605,0.60651"
   id="path11"
   clip-path="none" /><path
   style="fill:#05365d"
   inkscape:connector-curvature="0"
   d="m 253.89658,200.29119 c 165.75865,0 253.59977,55.65723 253.59977,55.65723 v 0.0516 c 0,0 -93.02874,-42.90756 -252.89002,-44.58514 h -1.7292 C 93.015845,213.09248 1.443e-5,256.00004 1.443e-5,256.00004 v -0.0516 c 0,0 87.84111557,-55.65723 253.59976557,-55.65723 h 0.2968"
   id="path13"
   clip-path="none" /><path
   style="fill:#05365d"
   inkscape:connector-curvature="0"
   d="m 254.39986,55.399164 c 165.75865,0 253.59976,-55.37332511 253.59976,-55.37332511 V 2.9835e-5 c 0,0 -93.01583,42.894648165 -252.87711,44.585141165 h -1.7292 C 93.532026,42.894678 0.51619551,2.9835e-5 0.51619551,2.9835e-5 V 0.02583889 c 0,0 87.84111549,55.37332511 253.58686449,55.37332511 h 0.2968"
   id="path15"
   clip-path="none" /><path
   style="fill:#05365d"
   inkscape:connector-curvature="0"
   d="m 388.73599,109.082 c -16.98236,-0.25809 -36.33915,13.36909 -36.82952,37.68122 -0.38714,19.30517 13.73041,32.82911 30.94505,33.0872 19.25356,0.271 28.84162,-11.1366 29.00938,-19.21484 0.0387,-1.92277 -0.65813,-3.81974 -1.90987,-5.01986 -0.8388,-0.81298 -2.72286,-1.50983 -5.35538,1.45821 -3.7036,4.16816 -8.95574,7.80724 -17.26626,7.36849 -4.95534,-0.24519 -8.96864,-3.30356 -10.51719,-9.51064 17.52435,-1.88406 34.89384,-10.28491 35.19065,-25.06059 0.2968,-14.28531 -11.63989,-20.60853 -23.26686,-20.78919 m -2.29701,14.00141 c 2.2841,0.0387 3.85845,2.19377 3.75522,6.43936 -0.20648,8.22018 -7.38139,12.00121 -14.74988,13.48523 0.23228,-7.89757 3.71651,-20.04073 10.99466,-19.92459"
   id="path17"
   clip-path="none" /><path
   style="fill:#05365d"
   inkscape:connector-curvature="0"
   d="m 320.76784,152.10569 c 0,-16.46618 2.20668,-33.47434 2.20668,-49.94052 0,-5.961891 -0.5549,-9.768727 -1.44531,-12.427059 -1.39369,-4.258494 -1.4324,-4.606917 0.47747,-6.723259 4.5811,-5.032766 12.29801,-9.897772 17.57596,-9.897772 7.35558,0 7.93629,5.807037 7.93629,11.394697 0,18.350233 -2.70995,42.894643 -2.70995,65.077533 0,12.13025 3.21322,20.45367 7.78143,25.44772 1.62597,1.78083 1.89696,3.11 -1.03237,3.80684 -2.61962,0.61942 -5.29085,1.00655 -8.2847,1.00655 -12.74968,-0.0129 -22.5055,-8.25889 -22.5055,-27.74473"
   id="path19"
   clip-path="none" /><path
   style="fill:#05365d;fill-rule:evenodd"
   inkscape:connector-curvature="0"
   clip-rule="evenodd"
   d="m 219.95768,115.39231 c 4.37463,-3.4326 8.40084,-6.41355 12.42706,-6.41355 5.61347,0 6.01351,6.00061 6.01351,11.38179 0,6.29741 -0.89042,16.98236 -0.89042,29.22876 0,7.82014 0.42585,15.62738 5.08439,20.86662 1.22593,1.36788 0.99365,2.568 -0.91622,4.25849 -3.01966,2.69705 -7.62658,5.1231 -13.13681,5.1231 -4.07783,0 -7.13621,-2.59381 -8.74927,-8.09114 -4.37464,5.4199 -11.13661,8.20728 -17.56306,8.20728 -16.22099,0 -29.69332,-8.94284 -29.69332,-33.17754 0,-25.04769 12.76258,-37.66831 30.53211,-37.66831 7.14911,0 12.58192,2.64542 16.89203,6.2845 m -23.80886,27.6544 c -0.16775,12.20768 1.67759,20.29882 9.12351,20.16978 7.44591,-0.12905 9.34287,-8.32342 9.23964,-20.5053 -0.0903,-11.87216 -1.61307,-19.3826 -8.72346,-19.25355 -7.09749,0.14195 -9.47193,7.72981 -9.63969,19.58907"
   id="path21"
   clip-path="none" /><path
   style="fill:#05365d"
   inkscape:connector-curvature="0"
   d="m 140.65936,155.88672 c 0,-6.11675 0.30971,-13.04648 0.68394,-20.15688 -8.29761,-0.21937 -16.59522,-0.23228 -24.90574,-0.0129 -0.18066,4.81339 -0.2839,9.56225 -0.2839,14.13046 0,11.26565 1.30336,17.13721 4.65854,21.79574 1.32916,1.84535 1.60016,2.5551 -0.67104,4.29721 -3.17451,2.43896 -8.16856,3.9746 -12.32382,3.9746 -12.349635,0 -15.717716,-8.23309 -15.717716,-24.02823 0,-16.46618 2.206674,-38.71359 2.206674,-55.15395 0,-5.961894 -0.567799,-9.768729 -1.458212,-12.427062 -1.393689,-4.245589 -1.445307,-4.632725 0.477468,-6.736163 4.568202,-5.019861 12.310916,-9.884868 17.588866,-9.884868 7.34268,0 7.92338,5.794133 7.92338,11.381793 0,10.684948 -0.91622,24.06694 -1.67758,37.77155 8.41375,0.16776 16.73717,0.16776 25.02187,-0.0516 0.38714,-7.08458 0.68394,-13.9627 0.68394,-20.05363 0,-5.961894 -0.5807,-9.768729 -1.45821,-12.427062 -1.39369,-4.245589 -1.44531,-4.632725 0.46456,-6.736163 4.58111,-5.019861 12.31092,-9.884868 17.58887,-9.884868 7.35558,0 7.92338,5.794133 7.92338,11.381793 0,18.35024 -2.68414,44.62385 -2.68414,66.79383 0,11.26565 1.31626,17.13721 4.67144,21.79575 1.32917,1.84535 1.58726,2.55509 -0.67103,4.29721 -3.18742,2.43895 -8.16857,3.97459 -12.33673,3.97459 -12.33673,-0.0129 -15.70481,-8.24599 -15.70481,-24.04113"
   id="path23"
   clip-path="none" /><path
   style="fill:#05365d"
   inkscape:connector-curvature="0"
   d="m 270.56923,136.56864 c 11.16242,-13.05938 21.33119,-27.49955 34.23571,-27.49955 9.6913,0 13.93689,7.89757 13.93689,10.42686 0,1.23883 -0.73556,2.02601 -2.96804,2.91642 -9.08479,3.60037 -19.12451,9.20093 -26.19619,15.78224 9.84615,13.79494 23.04749,26.44138 27.20274,29.68041 3.36808,2.60672 4.2585,3.63908 4.2585,4.77468 0,2.65833 -7.56206,7.23944 -14.16917,7.23944 -16.49199,0 -21.12471,-14.54341 -36.50691,-32.46779 0,16.18227 0.96784,22.86682 5.27795,27.61568 1.63888,1.78083 1.90987,3.11 -1.03236,3.80684 -2.61962,0.61942 -5.26505,1.00655 -8.2589,1.00655 -12.76258,0 -20.20849,-7.80724 -20.20849,-27.73183 0,-16.46617 2.20668,-33.47434 2.20668,-49.94052 0,-5.961887 -0.5678,-9.768722 -1.44531,-12.427055 -1.39369,-4.258494 -1.4324,-4.606916 0.46456,-6.723258 4.58111,-5.032766 12.31092,-9.897773 17.58887,-9.897773 7.35558,0 7.93629,5.807037 7.93629,11.394698 0,15.033774 -1.7034,34.880938 -2.32282,52.043958"
   id="path25"
   clip-path="none" /><path
   style="fill:#05365d"
   inkscape:connector-curvature="0"
   d="m 421.17797,113.76634 c 0,2.07763 -1.6905,3.78103 -3.78103,3.78103 -2.09053,0 -3.78103,-1.7034 -3.78103,-3.78103 0,-2.07763 1.6905,-3.76812 3.78103,-3.76812 2.09053,0 3.78103,1.69049 3.78103,3.76812 m -3.75522,-5.58766 c -2.96804,0 -5.36828,2.46476 -5.36828,5.53604 0,3.07128 2.40024,5.54895 5.36828,5.54895 2.96804,0 5.36828,-2.46477 5.36828,-5.54895 0,-3.05837 -2.40024,-5.53604 -5.36828,-5.53604 z"
   id="path27"
   clip-path="none" /><path
   style="fill:#05365d"
   inkscape:connector-curvature="0"
   d="m 418.51963,116.15368 c -0.76136,-1.22593 -1.17431,-1.93568 -1.36788,-1.9744 h -0.47746 v 1.9744 h -0.65813 V 111.379 h 1.09688 c 1.16141,0 1.62597,0.59361 1.62597,1.30336 0,0.67104 -0.43875,1.10979 -0.92912,1.27755 v 0.0129 c 0.18066,0.10324 0.70974,0.96784 1.47111,2.19377 h -0.76137 m -1.39368,-4.21978 h -0.45166 v 1.69049 h 0.46456 c 0.52909,0 0.91622,-0.40004 0.91622,-0.8775 0,-0.43876 -0.24518,-0.81299 -0.92912,-0.81299 z"
   id="path29"
   clip-path="none" />
</svg>