<?xml version="1.0" encoding="UTF-8" standalone="no"?>
<svg
   xmlns:dc="http://purl.org/dc/elements/1.1/"
   xmlns:cc="http://creativecommons.org/ns#"
   xmlns:rdf="http://www.w3.org/1999/02/22-rdf-syntax-ns#"
   xmlns:svg="http://www.w3.org/2000/svg"
   xmlns="http://www.w3.org/2000/svg"
   xmlns:sodipodi="http://sodipodi.sourceforge.net/DTD/sodipodi-0.dtd"
   xmlns:inkscape="http://www.inkscape.org/namespaces/inkscape"
   version="1.1"
   id="Layer_1"
   x="0px"
   y="0px"
   width="417"
   height="400"
   viewBox="0 0 417 400"
   enable-background="new 0 0 612 792"
   xml:space="preserve">
<polyline
   style="fill:#ffffff"
   id="polyline9"
   points="335.092,714.213 339.051,713.628 335.117,687.036 335.092,660.158 331.14,660.155      330.554,656.196 303.962,660.13 277.084,660.125 277.08,664.107 273.122,664.692 277.056,691.284 277.032,718.162      281.032,718.165 281.618,722.124 308.21,718.19 335.088,718.173 335.092,714.213    "
   transform="matrix(6.0672249,0,0,6.0672249,-1657.0926,-3981.2887)"
   clip-path="none" /><polyline
   style="fill:#00949b"
   id="polyline11"
   points="329.248,657.956 274.882,665.999 282.925,720.364 337.29,712.321 329.248,657.956    "
   transform="matrix(6.0672249,0,0,6.0672249,-1657.0926,-3981.2887)"
   clip-path="none" /><path
   style="fill:#ffffff"
   inkscape:connector-curvature="0"
   id="path13"
   d="m 349.79978,169.98545 c -3.3127,12.24366 -11.19403,18.69919 -13.09914,19.5122 -1.91117,0.81907 -5.5151,2.14779 -5.1086,-5.86701 0.40044,-8.00874 5.8306,-17.29159 8.48198,-20.24633 2.65138,-2.95474 4.60503,-5.27242 7.91773,-5.58791 0.006,0 5.12074,-0.0485 1.80803,12.18905 m -0.86154,-18.95401 c -19.47579,3.96797 -28.55843,21.89055 -28.55843,21.89055 -5.27849,7.31707 -8.72467,26.37422 10.12013,24.20216 18.8448,-2.17207 28.57056,-15.2166 32.48392,-21.59326 0.55212,-0.88581 1.0557,-1.8687 1.50468,-2.9062 l -3.02755,-20.43441 c -2.77879,-1.69276 -6.83776,-2.31768 -12.52275,-1.15884 z"
   clip-path="none" /><path
   style="fill:#ffffff"
   inkscape:connector-curvature="0"
   id="path15"
   d="m 323.5469,148.95645 c -10.24147,0.69773 -18.76593,10.30215 -22.73389,15.61097 -0.0425,0.0425 -0.10314,0.0728 -0.15775,0.0849 -0.10314,0.0121 -0.19415,-0.0303 -0.24875,-0.10314 -0.0121,-0.0243 -0.0303,-0.0485 -0.0425,-0.0728 -0.006,-0.0182 -0.0182,-0.0425 -0.0182,-0.0607 0,0 -0.006,0.006 -0.006,0.0182 -1.66242,-2.83946 -4.94479,-6.20677 -11.07269,-5.83667 -3.80415,0.23055 -8.28176,3.19743 -8.65793,4.21672 0,0 -0.76447,1.24985 0.63099,1.50467 1.39546,0.26089 8.50018,0.60066 8.14829,8.03908 0,0 0.0667,10.72078 -3.98617,25.42167 0,0 -2.31161,4.98119 3.03361,4.85378 5.35129,-0.12741 15.41682,-1.48647 15.75052,-5.04793 0.33976,-3.56146 0.16381,-2.93047 0.16381,-2.93047 0,0 0.0607,-12.88679 -1.22558,-21.32023 -0.006,-0.20629 0.0364,-0.38224 0.0728,-0.49751 5.054,-10.16261 13.45104,-12.36501 13.45104,-12.36501 3.22169,-0.81301 5.39376,1.29232 6.1825,2.13567 0.78874,0.84334 1.29838,0.50357 1.29838,0.50357 2.21454,-0.722 4.18639,-4.39873 4.18639,-4.39873 0.95862,-1.26199 4.3502,-10.37496 -4.76884,-9.7561"
   clip-path="none" /><path
   style="fill:#ffffff"
   inkscape:connector-curvature="0"
   id="path17"
   d="m 252.02039,198.01603 c 0,0 -1.07997,-11.2547 -2.39656,-23.65611 2.84553,-2.17207 9.13724,-6.17644 11.96457,-1.38939 3.63427,6.14003 -1.97185,20.33733 -9.56801,25.0455 m 21.13214,-35.97258 c -9.71363,-3.36124 -20.12498,3.28844 -23.83206,6.00656 -0.0182,0.0121 -0.0303,0.0243 -0.0485,0.0243 -0.15774,0.0243 -0.29729,-0.0849 -0.33976,-0.23055 -1.20738,-11.03021 -2.47543,-21.59932 -3.2217,-24.72394 -1.74129,-7.29281 -0.95862,-16.41791 -11.34571,-14.8829 -3.20349,0.47324 -10.42349,1.67455 -14.44606,4.22278 -0.26696,0.16989 -0.70987,0.75234 0.56425,1.11031 0,0 3.78595,1.35906 5.71533,7.73571 0,0 8.95522,25.36707 10.45383,61.90996 0.16988,4.20459 2.15386,5.18141 2.15386,5.18141 6.68608,3.9801 20.55576,-6.72855 30.25118,-17.12777 9.89565,-10.60551 16.17523,-25.05158 4.09538,-29.22583 z"
   clip-path="none" /><path
   style="fill:#ffffff"
   inkscape:connector-curvature="0"
   id="path19"
   d="m 278.12159,214.90112 c 0,0 -0.42471,-1.37726 -0.64313,-1.92331 -0.26089,-0.65526 -0.93435,-0.52785 -0.93435,-0.52785 -1.4622,0.21842 -0.98896,1.90511 -0.98896,1.90511 4.6657,19.61533 7.14719,66.24196 -31.14913,81.98034 -38.30239,15.73231 -70.44048,-5.65465 -75.54908,-9.13724 -14.31259,-9.76823 -16.58173,-17.85584 -16.86082,-19.13603 0.006,-0.0789 0.0607,-0.14561 0.14561,-0.16381 2.60891,0.26695 33.45468,3.05181 64.27011,-9.11298 32.21697,-12.7169 53.68281,-38.32059 58.32424,-49.95753 0,0 0.7948,-1.52287 -0.17595,-1.94151 -0.92222,-0.38223 -1.51681,0.722 -1.51681,0.722 -0.33976,0.43684 -0.69773,0.88582 -1.0739,1.37119 -13.42677,17.15812 -32.89649,34.62566 -68.70525,44.51523 -38.75743,10.70866 -69.41512,0.0303 -69.41512,0.0303 0,0 -0.54605,-0.26696 -0.89188,-0.11528 -0.33977,0.14562 -0.3155,1.20131 -0.29123,1.59568 0,0 2.76665,38.68463 56.12183,53.45225 50.73413,14.0335 109.61655,-14.02135 89.33382,-93.5566"
   clip-path="none" /><path
   style="fill:#ffffff"
   inkscape:connector-curvature="0"
   id="path21"
   d="m 44.836791,193.10764 c 0,0 10.423493,-5.38769 24.147555,-8.74287 l 0.163815,-0.0243 c 0.139546,0.98896 0.273025,1.94758 0.388303,2.85767 0.145613,1.15884 0.315495,2.42689 0.491445,3.76774 -11.655139,3.03968 -19.724548,5.00546 -24.274967,5.64859 0,0 -4.204587,0.94649 -4.344133,-0.51571 -0.127412,-1.30446 2.147798,-2.26915 3.427982,-2.99115 m 8.542653,9.79857 c 4.034704,-1.09816 11.703677,-3.16102 17.679893,-4.63536 1.820168,12.6259 4.125713,27.26004 4.192453,27.56341 0,0 1.352991,6.69821 2.979007,7.83885 1.474336,1.04356 1.765562,1.39546 7.796384,0.77054 6.036889,-0.63099 10.836064,-2.00219 10.751123,-3.91336 0,0 0.04247,-0.83728 -0.206286,-2.05679 0,0 -2.966873,-16.35117 -5.745662,-35.26878 3.646402,-0.89795 7.10472,-1.77163 9.944184,-2.45723 3.36124,-0.80694 6.47979,-1.74129 9.59835,-2.40262 1.49253,10.46597 3.94976,26.57445 3.94976,26.57445 0.7584,4.92052 1.86871,9.1069 1.86871,9.1069 0,0 1.55927,4.60503 5.27848,4.27133 2.96081,-0.26089 8.91276,-1.31659 10.95134,-2.97294 1.57141,-1.28019 -0.16988,-3.19136 -0.4065,-4.3138 0,0 -4.82345,-13.96675 -7.5901,-35.43866 13.7362,-2.46329 22.54581,-3.33091 22.54581,-3.33091 0,0 -15.79906,16.20556 -10.67225,28.16406 5.1268,11.96457 21.12608,8.39097 32.12596,-5.60005 0,0 4.61715,13.49351 19.34231,8.93096 0,0 0.69773,-0.20629 0.75233,-0.70987 0.0607,-0.50358 -0.41863,-1.06176 -0.99502,-1.37726 0,0 -4.94479,-2.28127 -5.43623,-10.55697 -0.49752,-8.26962 2.74238,-22.19997 2.73025,-22.72782 -0.0121,-0.52785 0.15774,-3.86482 -4.06504,-2.83946 -4.22279,1.01929 -9.29499,4.19852 -10.40529,5.31489 -1.12851,1.1285 -1.34086,2.14779 -1.91118,4.12571 0,0 -4.65963,15.31367 -13.08094,22.88557 -9.14331,8.21502 -6.93484,-2.97294 -4.31986,-8.59119 0,0 5.13287,-11.91603 17.19451,-21.32023 0,0 3.66461,-2.6089 7.08652,-4.02863 1.04963,-0.43685 1.69276,-1.90511 -0.64312,-2.55431 0,0 -2.76059,-0.53998 -6.92271,-0.32156 0,0 -16.27836,0.63099 -44.224,6.46766 -0.43684,-4.68996 -0.7584,-9.64689 -0.90402,-14.8283 -0.48537,-17.38259 0.87975,-24.50552 0.87975,-24.50552 0,0 0.40044,-2.40869 -1.0739,-3.25203 0,0 -1.24985,-1.23771 -4.96299,-0.85548 -5.97015,0.61886 -10.80572,2.69992 -13.24475,4.11965 0,0 -1.12244,0.62492 -0.78267,1.14064 0.28516,0.41863 0.89795,0.49751 1.58961,1.78376 0,0 1.08604,1.32872 1.51681,8.91882 0,0 2.75452,30.31792 2.79699,30.67589 -3.51292,0.84941 -7.16539,1.76556 -10.945275,2.76665 -3.01541,0.80695 -5.897342,1.57142 -8.670064,2.30555 -1.15884,-8.40311 -2.184201,-16.89722 -2.803058,-24.3235 l -1.26805,-17.09138 c 0,0 0.266958,-5.80633 -3.701007,-5.75173 -3.567528,0.0546 -14.785827,3.15496 -21.999758,8.88849 -2.25094,1.78983 0.39437,2.22667 0.758403,2.43902 0,0 2.220605,0.69773 2.960806,3.90123 0,0 3.08215,14.99211 4.999394,27.31464 l -0.254824,0.0667 c 0,0 -25.221454,6.74676 -37.659265,14.00923 l 1.680621,11.3275 c 4.507949,0.24269 11.30324,-0.70379 20.944061,-3.6464 z"
   clip-path="none" /><path
   style="fill:#ffffff"
   inkscape:connector-curvature="0"
   id="path23"
   d="m 204.82344,196.06845 c -3.45831,-0.55212 -5.4787,-0.97682 -10.1626,-2.2024 -4.68996,-1.22558 -5.87914,-4.3684 -5.87914,-4.3684 -3.96796,-11.13943 10.32035,-22.46087 10.32035,-22.46087 10.53877,-8.91275 18.81447,-10.73292 18.81447,-10.73292 8.54872,-1.78983 10.37495,7.40808 10.37495,7.40808 0,0 0.38224,2.29341 0.30336,3.19743 0,0 0.12135,0.32156 -0.33976,0.38223 -5.78207,0.79481 -10.25968,2.5179 -10.25968,2.5179 -13.87574,5.63645 -14.69482,12.18299 -14.69482,12.18299 -0.46111,2.24487 0.12741,5.73959 3.50079,7.09865 3.26417,1.30446 15.93253,4.26526 15.93253,4.26526 7.97234,1.92938 8.69434,5.93375 8.69434,5.93375 3.56146,9.27678 -8.09975,21.33843 -8.09975,21.33843 -11.29717,12.33466 -17.55248,15.253 -25.35493,17.13384 -7.80245,1.88084 -13.93642,-7.61437 -13.93642,-7.61437 -0.61279,-0.87974 -2.60284,-2.96687 -2.42082,-4.45334 0.17595,-1.47434 2.13566,-0.92829 2.36015,-0.7402 0.54605,0.45504 1.69882,0.88581 1.69882,0.88581 6.00656,2.52397 11.9403,-1.535 11.9403,-1.535 8.92489,-6.53441 14.4582,-14.64629 14.74336,-15.13166 0.27909,-0.48538 3.84662,-6.07936 1.78983,-9.21612 -2.05072,-3.14889 -9.67116,-3.87696 -9.67116,-3.87696"
   clip-path="none" /><path
   style="fill:#00949b;fill-opacity:1"
   inkscape:connector-curvature="0"
   id="path25"
   d="m 400.51572,365.84154 v -4.56862 h 3.05181 c 1.55321,0 3.21563,0.33976 3.21563,2.15993 0,2.26914 -1.69276,2.40262 -3.5918,2.40262 h -2.67564 m 0,1.90511 h 2.5725 l 3.90123,6.40092 h 2.50576 l -4.19852,-6.498 c 2.166,-0.27302 3.82235,-1.42579 3.82235,-4.06504 0,-2.91227 -1.72309,-4.19852 -5.20568,-4.19852 h -5.62432 v 14.76763 h 2.23274 v -6.40699 z m 2.71205,11.81289 c 6.97124,0 12.92925,-5.41804 12.92925,-12.83218 0,-7.34741 -5.95195,-12.76545 -12.92925,-12.76545 -7.04405,0 -13.00207,5.41804 -13.00207,12.76545 0,7.41414 5.95802,12.83218 13.00207,12.83218 z m -10.42956,-12.83218 c 0,-6.06116 4.56862,-10.62978 10.42956,-10.62978 5.78813,0 10.35675,4.56862 10.35675,10.62978 0,6.17036 -4.56862,10.70258 -10.35675,10.70258 -5.86094,-0.006 -10.42956,-4.53828 -10.42956,-10.70258 z"
   clip-path="none" />
</svg>