<?xml version="1.0" encoding="UTF-8" standalone="no"?>
<!-- Created with Inkscape (http://www.inkscape.org/) -->

<svg
   xmlns:dc="http://purl.org/dc/elements/1.1/"
   xmlns:cc="http://creativecommons.org/ns#"
   xmlns:rdf="http://www.w3.org/1999/02/22-rdf-syntax-ns#"
   xmlns:svg="http://www.w3.org/2000/svg"
   xmlns="http://www.w3.org/2000/svg"
   xmlns:sodipodi="http://sodipodi.sourceforge.net/DTD/sodipodi-0.dtd"
   xmlns:inkscape="http://www.inkscape.org/namespaces/inkscape"
   width="200"
   height="68.360649"
   id="svg2"
   version="1.1"
   inkscape:version="0.48.2 r9819"
   sodipodi:docname="New document 1">
  <defs
     id="defs4">
    <clipPath
       id="clipPath3961"
       clipPathUnits="userSpaceOnUse">
      <path
         id="path3963"
         d="m 0,0 665.622,0 0,912.236 L 0,912.236 0,0 z"
         inkscape:connector-curvature="0" />
    </clipPath>
    <clipPath
       id="clipPath3837"
       clipPathUnits="userSpaceOnUse">
      <path
         id="path3839"
         d="m 0,0 665.622,0 0,912.236 L 0,912.236 0,0 z"
         inkscape:connector-curvature="0" />
    </clipPath>
    <clipPath
       id="clipPath3817"
       clipPathUnits="userSpaceOnUse">
      <path
         id="path3819"
         d="m 0,0 665.622,0 0,912.236 L 0,912.236 0,0 z"
         inkscape:connector-curvature="0" />
    </clipPath>
    <clipPath
       id="clipPath3685"
       clipPathUnits="userSpaceOnUse">
      <path
         id="path3687"
         d="m 279.718,438.642 169.313,0 0,190.106 -169.313,0 0,-190.106 z"
         inkscape:connector-curvature="0" />
    </clipPath>
    <clipPath
       id="clipPath3673"
       clipPathUnits="userSpaceOnUse">
      <path
         id="path3675"
         d="m 274.685,627.614 139.2,0 0,2.835 -139.2,0 0,-2.835 z"
         inkscape:connector-curvature="0" />
    </clipPath>
    <clipPath
       id="clipPath3661"
       clipPathUnits="userSpaceOnUse">
      <path
         id="path3663"
         d="m 274.685,433.621 104.583,0 0,64.758 -104.583,0 0,-64.758 z"
         inkscape:connector-curvature="0" />
    </clipPath>
    <clipPath
       id="clipPath3649"
       clipPathUnits="userSpaceOnUse">
      <path
         id="path3651"
         d="m 274.685,498.198 104.583,0 0,64.905 -104.583,0 0,-64.905 z"
         inkscape:connector-curvature="0" />
    </clipPath>
    <clipPath
       id="clipPath3637"
       clipPathUnits="userSpaceOnUse">
      <path
         id="path3639"
         d="m 379.088,433.621 34.798,0 0,193.993 -34.798,0 0,-193.993 z"
         inkscape:connector-curvature="0" />
    </clipPath>
    <clipPath
       id="clipPath3625"
       clipPathUnits="userSpaceOnUse">
      <path
         id="path3627"
         d="m 274.685,562.923 104.583,0 0,64.691 -104.583,0 0,-64.691 z"
         inkscape:connector-curvature="0" />
    </clipPath>
    <clipPath
       id="clipPath3613"
       clipPathUnits="userSpaceOnUse">
      <path
         id="path3615"
         d="m 274.685,630.449 139.2,0 0,3.572 -139.2,0 0,-3.572 z"
         inkscape:connector-curvature="0" />
    </clipPath>
    <clipPath
       id="clipPath3437"
       clipPathUnits="userSpaceOnUse">
      <path
         id="path3439"
         d="m 547.571,97.433 62.311,-3.266 4.618,88.115 -62.311,3.266 -4.618,-88.115 z"
         inkscape:connector-curvature="0" />
    </clipPath>
    <clipPath
       id="clipPath3421"
       clipPathUnits="userSpaceOnUse">
      <path
         id="path3423"
         d="m 543.896,88.663 76.08,0 0,100.56 -76.08,0 0,-100.56 z"
         inkscape:connector-curvature="0" />
    </clipPath>
    <clipPath
       id="clipPath3393"
       clipPathUnits="userSpaceOnUse">
      <path
         id="path3395"
         d="m 21,21 623.623,0 0,870.236 L 21,891.236 21,21 z"
         inkscape:connector-curvature="0" />
    </clipPath>
    <clipPath
       id="clipPath3381"
       clipPathUnits="userSpaceOnUse">
      <path
         id="path3383"
         d="m 21,21 623.623,0 0,870.236 L 21,891.236 21,21 z"
         inkscape:connector-curvature="0" />
    </clipPath>
    <clipPath
       id="clipPath3369"
       clipPathUnits="userSpaceOnUse">
      <path
         id="path3371"
         d="m 444.494,304.477 198.991,0 0,-110.304 -198.991,0 0,110.304 z"
         inkscape:connector-curvature="0" />
    </clipPath>
    <clipPath
       id="clipPath3359"
       clipPathUnits="userSpaceOnUse">
      <path
         id="path3361"
         d="m 21,21 623.623,0 0,870.236 L 21,891.236 21,21 z"
         inkscape:connector-curvature="0" />
    </clipPath>
    <clipPath
       id="clipPath3347"
       clipPathUnits="userSpaceOnUse">
      <path
         id="path3349"
         d="m 441.661,300.567 202.961,0 0,110.764 -202.961,0 0,-110.764 z"
         inkscape:connector-curvature="0" />
    </clipPath>
    <clipPath
       id="clipPath3291"
       clipPathUnits="userSpaceOnUse">
      <path
         id="path3293"
         d="m 21,21 623.623,0 0,870.236 L 21,891.236 21,21 z"
         inkscape:connector-curvature="0" />
    </clipPath>
    <clipPath
       id="clipPath3273"
       clipPathUnits="userSpaceOnUse">
      <path
         id="path3275"
         d="m 413.886,627.614 0,-193.993 -139.201,0 0,193.993 -253.685,0 0,-216.615 421.074,0 0,216.615 -28.188,0 z"
         inkscape:connector-curvature="0" />
    </clipPath>
    <clipPath
       id="clipPath3113"
       clipPathUnits="userSpaceOnUse">
      <path
         id="path3115"
         d="m 411.047,785.94 208.854,0 0,62.925 -208.854,0 0,-62.925 z"
         inkscape:connector-curvature="0" />
    </clipPath>
    <clipPath
       id="clipPath3097"
       clipPathUnits="userSpaceOnUse">
      <path
         id="path3099"
         d="m 411.047,793.175 208.854,0 0,55.69 -208.854,0 0,-55.69 z"
         inkscape:connector-curvature="0" />
    </clipPath>
    <clipPath
       id="clipPath3009"
       clipPathUnits="userSpaceOnUse">
      <path
         id="path3011"
         d="m 411.047,785.94 208.854,0 0,62.925 -208.854,0 0,-62.925 z"
         inkscape:connector-curvature="0" />
    </clipPath>
  </defs>
  <sodipodi:namedview
     id="base"
     pagecolor="#ffffff"
     bordercolor="#666666"
     borderopacity="1.0"
     inkscape:pageopacity="0.0"
     inkscape:pageshadow="2"
     inkscape:zoom="0.98994949"
     inkscape:cx="294.70072"
     inkscape:cy="-42.265588"
     inkscape:document-units="px"
     inkscape:current-layer="g2993"
     showgrid="false"
     fit-margin-left="0.2"
     fit-margin-bottom="0.2"
     fit-margin-top="0.2"
     fit-margin-right="0.2"
     inkscape:window-width="1920"
     inkscape:window-height="1028"
     inkscape:window-x="-8"
     inkscape:window-y="-8"
     inkscape:window-maximized="1" />
  <metadata
     id="metadata7">
    <rdf:RDF>
      <cc:Work
         rdf:about="">
        <dc:format>image/svg+xml</dc:format>
        <dc:type
           rdf:resource="http://purl.org/dc/dcmitype/StillImage" />
        <dc:title></dc:title>
      </cc:Work>
    </rdf:RDF>
  </metadata>
  <g
     inkscape:label="Layer 1"
     inkscape:groupmode="layer"
     id="layer1"
     transform="translate(-472.59533,-26.275108)">
    <g
       transform="matrix(1.25,0,0,-1.25,-41.01375,1102.5097)"
       inkscape:label="DWP_T679691"
       id="g2993">
      <g
         id="g4555"
         transform="matrix(1.337484,0,0,1.337484,-138.72188,-272.16706)">
        <g
           id="g3005">
          <g
             id="g3007"
             clip-path="url(#clipPath3009)">
            <g
               id="g3073"
               transform="translate(445.3418,807.1201)">
              <path
                 inkscape:connector-curvature="0"
                 d="m 0,0 c -5.381,2.012 -5.471,11.017 -3.888,17.971 0.893,3.918 2.223,6.512 3.658,7.971 1.099,1.194 2.468,1.994 3.426,1.815 -0.799,0.698 -1.975,0.554 -2.321,0.498 -2.977,-0.48 -6.837,-4.42 -8.334,-12.626 C -8.576,9.502 -7.095,3.753 -3.926,1.238 -2.767,0.386 -1.539,-0.175 0,0"
                 style="fill:#00a888;fill-opacity:1;fill-rule:nonzero;stroke:none"
                 id="path3075" />
            </g>
            <g
               id="g3077"
               transform="translate(508.4997,819.0103)">
              <path
                 inkscape:connector-curvature="0"
                 d="m 0,0 c -3.092,0.467 -6.348,1.332 -9.449,1.306 -3.277,-0.026 -6.15,-1.219 -7.981,-2.256 2.116,2.61 4.063,5.195 7.529,5.368 3.692,0.183 6.516,-2.374 8.889,-3.843 C -0.661,0.358 -0.342,0.191 0,0"
                 style="fill:#fff200;fill-opacity:1;fill-rule:nonzero;stroke:none"
                 id="path3079" />
            </g>
            <g
               style="fill:#287ac8;fill-opacity:1"
               id="g3081"
               transform="translate(463.8378,825.2513)">
              <path
                 inkscape:connector-curvature="0"
                 d="m 0,0 c -1.37,-0.675 -2.34,-2.104 -3.022,-3.565 -0.771,-1.651 -2.19,-4.95 -3.159,-7.003 -2.483,-5.266 -5.079,-7.449 -8.757,-8.098 -1.801,-0.317 -3.718,-0.029 -5.687,0.779 1.994,-0.379 3.349,-0.208 4.833,0.447 3,1.326 4.856,4.734 6.799,9.214 2,4.611 4.373,7.913 7.112,8.286 C -1.219,0.149 -0.54,0.173 0,0"
                 style="fill:#287ac8;fill-opacity:1;fill-rule:nonzero;stroke:none"
                 id="path3083" />
            </g>
            <g
               id="g3085"
               transform="translate(491.7772,818.9315)">
              <path
                 inkscape:connector-curvature="0"
                 d="m 0,0 c -2.314,-2.179 -4.679,-3.606 -7.239,-3.606 -4.068,0 -6.365,1.878 -9.604,5.269 -1.494,1.563 -4.156,4.522 -6.691,5.208 -2.403,0.65 -5.685,0.033 -7.181,-0.721 1.836,0.49 2.79,0.238 3.66,-0.184 0.88,-0.428 2.469,-1.605 3.405,-2.647 2.955,-3.285 6.085,-6.313 8.314,-7.585 2.549,-1.455 7.118,-2.885 10.859,-0.428 C -2.67,-3.507 -1.297,-1.728 0,0"
                 style="fill:#ed1c24;fill-opacity:1;fill-rule:nonzero;stroke:none"
                 id="path3087" />
            </g>
            <g
               id="g3089"
               transform="translate(507.2203,819.7545)">
              <path
                 inkscape:connector-curvature="0"
                 d="M 0,0 C 0.081,-0.052 0.176,-0.117 0.284,-0.186 8.031,-5.053 13.543,-2.849 16.37,-1.36 14.831,-0.818 12.873,0.499 12.206,1.753 10.349,-0.254 7.803,-0.963 5.29,-0.935 4.133,-0.922 1.816,-0.651 0,0"
                 style="fill:#00a888;fill-opacity:1;fill-rule:nonzero;stroke:none"
                 id="path3091" />
            </g>
          </g>
        </g>
        <g
           id="g3093">
          <g
             id="g3095"
             clip-path="url(#clipPath3097)">
            <g
               id="g3101"
               transform="translate(431.652,845.9197)">
              <path
                 inkscape:connector-curvature="0"
                 d="m 0,0 c -0.086,-0.003 -0.451,0.004 -0.624,-0.071 -2.239,-0.969 -4.169,-7.132 -3.684,-13.711 0.6,-8.135 3.441,-12.879 7.786,-15.128 3.898,-2.018 7.683,-1.825 10.407,-0.597 3.72,1.678 6.932,5.48 7.176,11.339 0.107,2.581 -0.551,5.023 -1.966,6.427 -1.078,1.069 -2.947,1.8 -5.369,0.985 1.327,0.345 2.484,0.075 3.232,-0.449 1.21,-0.851 1.764,-2.575 1.828,-4.96 0.069,-2.578 -0.787,-8.269 -5.282,-10.47 -3.807,-1.864 -8.794,-0.026 -12.013,4.707 -2.986,4.39 -3.401,10.097 -3.376,13.258 C -1.847,-3.811 -0.89,-0.582 0,0"
                 style="fill:#fff200;fill-opacity:1;fill-rule:nonzero;stroke:none"
                 id="path3103" />
            </g>
            <g
               style="fill:#287ac8;fill-opacity:1"
               id="g3105"
               transform="translate(411.1617,817.4677)">
              <path
                 inkscape:connector-curvature="0"
                 d="M 0,0 C -0.313,-1.958 -0.011,-4.594 1.243,-6.377 2.951,-8.804 5.1,-9.509 7.158,-9.246 5.002,-8.477 3.811,-6.817 3.306,-4.368 2.993,-2.844 3.063,-1.054 3.464,0.578 2.467,-0.025 1.084,-0.226 0,0"
                 style="fill:#287ac8;fill-opacity:1;fill-rule:nonzero;stroke:none"
                 id="path3107" />
            </g>
          </g>
        </g>
        <g
           id="g3109">
          <g
             id="g3111"
             clip-path="url(#clipPath3113)">
            <g
               id="g3117"
               transform="translate(421.5751,807.9387)">
              <path
                 inkscape:connector-curvature="0"
                 d="m 0,0 c 5.814,0.829 11.222,9.062 13.918,19.483 2.572,9.943 0.91,19.415 -2.19,19.446 -0.72,0.007 -1.615,-0.387 -2.701,-1.263 0.225,0.145 0.488,0.258 0.692,0.288 1.374,0.199 1.967,-1.634 2.324,-4.613 C 12.421,30.189 12.097,23.699 9.494,16.317 6.468,7.739 1.19,1.279 -2.516,0.423 -3.589,0.176 -4.677,0.158 -5.735,0.494 -4.245,-0.138 -2.322,-0.331 0,0"
                 style="fill:#ed1c24;fill-opacity:1;fill-rule:nonzero;stroke:none"
                 id="path3119" />
            </g>
            <g
               style="fill:#287ac8;fill-opacity:1"
               id="g3121"
               transform="translate(465.517,828.11)">
              <path
                 inkscape:connector-curvature="0"
                 d="m 0,0 1.691,7.986 -4.004,0 -1.69,-7.986 -4.879,0 4.034,18.999 4.879,0 -1.472,-6.979 4.003,0 1.473,6.979 4.878,0 L 4.88,0 0,0 z"
                 style="fill:#287ac8;fill-opacity:1;fill-rule:nonzero;stroke:none"
                 id="path3123" />
            </g>
            <g
               style="fill:#287ac8;fill-opacity:1"
               id="g3125"
               transform="translate(487.2353,837.8407)">
              <path
                 inkscape:connector-curvature="0"
                 d="m 0,0 -0.857,-4.046 c -0.59,-2.863 -0.605,-4.652 -0.094,-5.684 l -4.371,0 c -0.089,0.487 -0.104,1.012 -0.129,1.514 -0.603,-0.942 -2.157,-1.912 -3.792,-1.951 -3.015,-0.071 -4.45,2.077 -4.291,5.01 0.161,3.004 1.323,5.509 3.148,7.336 1.61,1.608 3.862,2.41 6.147,2.51 C -2.306,4.772 0.027,4.362 1.063,3.843 0.654,2.862 0.236,1.359 0,0 m -6.905,0.522 c -0.983,-1.193 -1.703,-3.771 -1.706,-5.515 -10e-4,-0.875 0.409,-1.444 1.018,-1.48 1.079,-0.064 1.704,0.94 1.93,1.967 l 1.21,5.894 C -5.394,1.614 -6.269,1.294 -6.905,0.522"
                 style="fill:#287ac8;fill-opacity:1;fill-rule:nonzero;stroke:none"
                 id="path3127" />
            </g>
            <g
               style="fill:#287ac8;fill-opacity:1"
               id="g3129"
               transform="translate(496.6481,828.11)">
              <path
                 inkscape:connector-curvature="0"
                 d="m 0,0 -5.204,0 -1.555,13.511 4.708,0.771 0.38,-4.785 c 0.148,-1.9 0.178,-2.672 0.205,-4.171 l 0.056,0 c 0.53,1.465 0.884,2.459 1.811,4.47 l 1.97,4.269 4.885,0 L 0,0"
                 style="fill:#287ac8;fill-opacity:1;fill-rule:nonzero;stroke:none"
                 id="path3131" />
            </g>
            <g
               style="fill:#287ac8;fill-opacity:1"
               id="g3133"
               transform="translate(507.4726,832.8256)">
              <path
                 inkscape:connector-curvature="0"
                 d="m 0,0 c 0.085,-1.158 0.885,-1.708 2.15,-1.752 1.139,-0.041 2.695,0.404 3.8,1.355 l 0.979,-3.065 c -1.852,-1.352 -3.99,-1.744 -5.55,-1.73 -2.259,0.02 -3.881,0.709 -4.922,2.133 -0.804,1.1 -1.073,2.406 -1.093,3.796 -0.072,4.67 2.978,8.994 7.925,8.994 2.796,0 4.995,-1.118 4.995,-4.007 C 8.284,3.107 6.086,0.8 1.678,0.86 1.2,0.867 0.371,0.951 0.055,1.033 0.013,0.697 -0.024,0.33 0,0 M 1.763,3.696 C 3.068,3.714 4.094,4.318 4.094,5.423 4.094,6.08 3.645,6.519 2.967,6.519 1.735,6.519 0.935,5.395 0.693,3.844 0.973,3.757 1.349,3.691 1.763,3.696"
                 style="fill:#287ac8;fill-opacity:1;fill-rule:nonzero;stroke:none"
                 id="path3135" />
            </g>
            <g
               style="fill:#287ac8;fill-opacity:1"
               id="g3137"
               transform="translate(529.2641,828.1108)">
              <path
                 inkscape:connector-curvature="0"
                 d="m 0,0 c -0.51,1.032 -0.496,2.821 0.093,5.684 l 0.926,4.379 c 0.469,2.16 -0.007,4.344 -3.376,4.356 -1.553,0.005 -3.163,-0.604 -4.311,-1.58 -0.013,0.543 -0.079,1.166 -0.214,1.58 l -4.435,-0.79 c 0.377,-1.332 0.272,-2.971 -0.157,-5.098 l -1.812,-8.532 4.686,0 2.041,9.537 c 0.552,0.678 1.187,1.038 1.949,1.038 0.791,0 0.919,-0.625 0.674,-1.716 L -5.03,3.583 C -5.313,2.247 -5.425,0.863 -5.286,-0.001 L 0,0"
                 style="fill:#287ac8;fill-opacity:1;fill-rule:nonzero;stroke:none"
                 id="path3139" />
            </g>
          </g>
        </g>
      </g>
    </g>
  </g>
</svg>
