<?xml version="1.0" encoding="UTF-8" standalone="no"?>
<svg
   xmlns:dc="http://purl.org/dc/elements/1.1/"
   xmlns:cc="http://creativecommons.org/ns#"
   xmlns:rdf="http://www.w3.org/1999/02/22-rdf-syntax-ns#"
   xmlns:svg="http://www.w3.org/2000/svg"
   xmlns="http://www.w3.org/2000/svg"
   xmlns:sodipodi="http://sodipodi.sourceforge.net/DTD/sodipodi-0.dtd"
   xmlns:inkscape="http://www.inkscape.org/namespaces/inkscape"
   version="1.1"
   id="Layer_1"
   x="0px"
   y="0px"
   width="547"
   height="305"
   viewBox="0 0 547 304.99999"
   enable-background="new 0 0 595.276 841.89"
   xml:space="preserve">
<path
   style="fill:#e20015;fill-rule:evenodd"
   inkscape:connector-curvature="0"
   id="path21"
   d="M 469.54475,198.71038 H 488.3207 V 97.955001 H 469.54475 V 198.71038 z m -149.91491,0 h 18.7619 v -39.43315 l 27.7415,39.43315 h 23.35523 l -30.56377,-40.85841 27.10497,-31.94758 h -22.4284 l -25.20953,31.38059 V 97.941401 h -18.7619 V 198.71038 z m -83.12779,0 h 18.77565 v -39.39186 c 0,-14.77677 5.21625,-20.85079 16.06389,-20.85079 9.28403,0 13.46261,5.92183 13.46261,17.90398 v 42.33867 h 18.77565 v -44.7739 c 0,-18.04258 -5.35459,-30.01073 -26.60703,-30.01073 -8.46765,0 -17.19835,3.94319 -22.2624,12.12035 h -0.42899 v -10.12811 h -17.77942 v 72.79239 z m -177.767454,0 H 78.72797 v -43.37634 h 43.1412 v 43.37634 h 20.00712 V 97.941401 H 121.86917 V 139.21461 H 78.72797 V 97.941401 H 58.734596 V 198.71038 z M 422.61281,137.66485 c -11.15218,0 -16.92171,7.44439 -17.80728,17.00491 h 34.95028 c -1.35626,-10.19711 -5.61793,-17.00491 -17.143,-17.00491 m 35.90476,29.48505 h -53.80874 c 0.59498,13.25531 8.05257,19.39833 19.16294,19.39833 8.31516,0 13.9744,-4.64876 15.41336,-9.35292 h 17.65498 c -4.53836,16.03573 -17.62728,23.45242 -33.76032,23.45242 -22.95393,0 -37.17782,-15.77375 -37.17782,-38.29879 0,-21.81987 15.06756,-38.45089 37.17782,-38.45089 24.78088,0.01 36.74894,20.8649 35.33778,43.25185 M 189.55576,137.66485 c -11.16573,0 -16.93546,7.44439 -17.83473,17.00491 h 34.96398 c -1.35591,-10.19711 -5.61744,-17.00491 -17.12925,-17.00491 m 35.90501,29.48505 h -53.80899 c 0.58148,13.25531 8.03886,19.39833 19.16309,19.39833 8.30176,0 13.9608,-4.64876 15.41355,-9.35292 h 17.64119 c -4.53827,16.03573 -17.61354,23.45242 -33.76037,23.45242 -22.95423,0 -37.17782,-15.77375 -37.17782,-38.29879 0,-21.81987 15.05376,-38.45089 37.17782,-38.45089 24.78063,0.01 36.73514,20.8649 35.35153,43.25185 M 273.51382,13.762053 c -143.34299,0 -259.663771,62.234888 -259.663771,138.735567 0,76.51428 116.334731,138.65238 259.677621,138.65238 143.30141,0 259.69133,-62.1245 259.69133,-138.65238 0,-76.500679 -116.41762,-138.735567 -259.70518,-138.735567 m 0,-13.75320954 C 424.49416,0.00884346 547,68.318261 547,152.49762 547,236.70468 424.50825,305 273.52767,305 122.5472,305 5.9980719e-7,236.69058 5.9980719e-7,152.49762 -0.0098994,68.318261 122.53335,0.00884346 273.51382,0.00884346"
   clip-rule="evenodd"
   clip-path="none" />
</svg>