<?xml version="1.0" encoding="UTF-8" standalone="no"?>
<!-- Created with Inkscape (http://www.inkscape.org/) -->
<svg
   xmlns:dc="http://purl.org/dc/elements/1.1/"
   xmlns:cc="http://web.resource.org/cc/"
   xmlns:rdf="http://www.w3.org/1999/02/22-rdf-syntax-ns#"
   xmlns:svg="http://www.w3.org/2000/svg"
   xmlns="http://www.w3.org/2000/svg"
   xmlns:sodipodi="http://sodipodi.sourceforge.net/DTD/sodipodi-0.dtd"
   xmlns:inkscape="http://www.inkscape.org/namespaces/inkscape"
   width="684"
   height="196"
   id="svg2"
   sodipodi:version="0.32"
   inkscape:version="0.45.1"
   version="1.0">
  <g
     inkscape:label="Layer 1"
     inkscape:groupmode="layer"
     id="layer1"
     transform="translate(-33.783918,-397.97448)">
    <path
       clip-rule="evenodd"
       d="M 398.82248,430.00788 L 369.87723,447.8505 C 367.54887,444.24766 364.64454,441.01246 360.9069,437.88755 C 357.15701,434.76264 352.58606,431.73577 345.8093,429.77504 C 339.04478,427.82657 330.0622,426.94424 320.36885,427.28737 C 310.66324,427.61824 300.22237,429.19908 288.55603,434.18668 C 276.8897,439.17428 263.9734,447.5809 252.74824,457.70316 L 274.3285,400.43764 L 220.2124,400.43764 L 183.64482,425.38791 L 191.48774,400.43764 L 137.56771,400.43764 L 97.862965,426.7114 L 33.783918,593.74093 L 85.657433,593.74093 L 124.16123,566.37652 L 114.3821,593.97377 L 167.32176,593.97377 L 195.0293,571.41314 C 196.57337,575.48165 199.50221,578.85165 206.37701,582.79762 C 213.23956,586.71907 224.03582,591.20424 236.47419,592.36842 C 248.91256,593.5326 262.98079,591.43708 274.94123,586.81711 C 286.88941,582.18489 296.74207,575.02823 302.80808,570.76365 C 308.87408,566.47456 311.16568,565.10205 313.45728,563.75405 L 302.44044,591.70668 L 354.90217,591.70668 L 390.62419,562.62663 C 390.01146,567.66325 391.44524,572.94496 395.21965,577.52816 C 398.98179,582.12362 405.08456,586.04507 413.51569,588.37344 C 421.94682,590.7018 432.70632,591.41257 442.52221,590.68955 C 452.35036,589.95428 461.23491,587.77297 470.36455,583.11624 C 479.49419,578.45951 488.84442,571.32736 496.72409,562.89623 L 487.07976,590.46897 L 593.85366,590.46897 L 637.05095,559.41593 L 648.30063,523.28952 L 607.65229,523.28952 L 668.76573,463.18095 L 681.85359,429.92209 L 579.08693,429.92209 L 566.40347,434.78715 L 567.93529,429.97111 L 513.94174,429.97111 L 525.6816,397.97448 L 479.37165,397.97448 L 437.96352,430.00788 L 398.82248,430.00788"
       id="path6845"
       style="fill:#231f20;fill-rule:evenodd" />
    <path
       clip-rule="evenodd"
       d="M 692.79691,456.83309 L 696.49778,456.83309 L 696.49778,449.34556 L 697.46589,449.34556 C 699.6472,449.34556 700.73786,450.31367 702.60055,453.90425 L 704.12011,456.83309 L 708.70331,456.83309 L 706.54651,453.16898 C 704.65931,449.94603 704.21815,449.43134 702.67408,448.84312 C 705.7132,448.41421 707.58815,446.45348 707.58815,443.74523 C 707.58815,440.42424 705.38233,438.56155 701.46087,438.5493 L 692.79691,438.5493 L 692.79691,456.83309 M 696.49778,446.45348 L 696.49778,441.45363 L 699.88004,441.45363 C 702.30644,441.45363 703.66669,442.29919 703.66669,443.81876 C 703.66669,445.75497 702.6128,446.42897 699.50015,446.44123 L 698.01735,446.45348 L 696.49778,446.45348 z M 700.56629,430.40002 C 691.05676,430.40002 683.3609,438.12039 683.3609,447.62992 C 683.3609,457.15171 691.05676,464.85982 700.56629,464.85982 C 710.07582,464.85982 717.78394,457.13945 717.78394,447.62992 C 717.78394,438.12039 710.08808,430.40002 700.56629,430.40002 z M 700.60306,433.75777 C 708.23764,433.75777 714.42619,439.97083 714.42619,447.62992 C 714.42619,455.28901 708.23764,461.51433 700.60306,461.51433 C 692.95622,461.51433 686.77992,455.28901 686.77992,447.62992 C 686.77992,439.95857 692.95622,433.75777 700.60306,433.75777 z "
       id="path6847"
       style="fill:#231f20;fill-rule:evenodd" />
    <polyline
       clip-rule="evenodd"
       points="242.895,603.685 244.631,598.957 240.834,598.957   235.928,611.803 239.757,611.803 241.755,606.485 244.61,606.485 242.64,611.751 246.521,611.751 251.343,598.935 247.499,598.935   245.658,603.685 242.895,603.685 "
       id="polyline6849"
       transform="matrix(12.254551,0,0,12.254551,-2810.865,-6936.2517)"
       style="fill:#ffd520;fill-rule:evenodd" />
    <path
       clip-rule="evenodd"
       d="M 367.56112,452.0048 C 366.56851,448.5245 364.50974,445.6937 360.08585,442.29919 C 355.6497,438.89243 348.83617,434.92195 339.79231,433.19406 C 330.74845,431.46617 319.46201,431.9686 312.35437,432.66711 C 305.24673,433.36562 302.30564,434.2357 299.43807,435.08126 C 296.55826,435.93908 293.73971,436.76013 290.38196,438.25519 C 287.03647,439.73799 283.13952,441.88254 279.47541,444.35796 C 275.82356,446.83337 272.38003,449.62741 269.2061,452.69105 C 263.7038,464.63924 258.54464,476.73448 253.66733,489.08707 C 248.79002,501.4274 244.19456,513.98831 242.05001,521.46359 C 239.90547,528.93887 240.23634,531.26723 240.26085,533.57109 C 240.28536,535.86269 239.99125,538.11753 241.14318,541.19342 C 242.2951,544.26931 244.89307,548.154 248.25082,551.13186 C 251.59631,554.09746 255.70158,556.14397 260.70144,557.61452 C 265.7013,559.10957 271.58348,560.02866 277.9681,560.55561 C 284.36498,561.08255 291.26429,561.22961 298.64153,560.35954 C 306.01877,559.52623 313.87394,557.66353 320.69972,554.23226 C 327.52551,550.80099 333.33416,545.80113 338.12569,539.28171 C 342.92948,532.75003 346.72839,524.7233 348.9097,516.30442 L 311.03088,516.30442 C 307.47706,522.33366 303.43306,528.15458 300.74931,531.37752 C 298.06557,534.61272 296.72982,535.22545 295.30829,535.86269 C 293.87451,536.49992 292.35494,537.13716 290.33294,536.94109 C 288.29869,536.74502 285.77425,535.70338 284.58556,532.55396 C 283.40912,529.39228 283.56843,524.12283 284.58556,519.23326 C 285.60269,514.3437 287.47763,509.85853 290.14913,505.90031 L 352.45126,505.90031 C 354.98795,498.65787 357.54916,491.42769 360.22065,484.41808 C 362.87989,477.40848 365.64941,470.58269 367.07094,465.11716 C 368.49247,459.63938 368.54149,455.5096 367.56112,452.0048 M 327.25591,473.4135 C 326.20201,475.86441 325.2094,478.04572 324.05747,480.1535 L 299.85473,480.1535 C 301.08018,476.73448 302.48946,473.36448 303.89873,470.19055 C 305.308,466.99211 306.72953,464.01426 308.73928,461.78393 C 310.74903,459.5536 313.3715,458.09531 316.3371,457.37229 C 319.31496,456.64927 322.63594,456.64927 325.05009,458.14433 C 327.46423,459.62713 328.9838,462.58047 329.19212,465.41127 C 329.40045,468.25433 328.3098,470.95033 327.25591,473.4135 z "
       id="path6851"
       style="fill:#ffd520;fill-rule:evenodd" />
    <path
       clip-rule="evenodd"
       d="M 419.00573,482.02845 C 421.39537,475.47226 424.76537,469.32048 429.72846,466.20782 C 434.69155,463.10742 441.73792,463.26673 448.79654,463.41378 L 459.26193,434.13766 L 398.69994,434.13766 L 350.85817,558.96252 L 390.7835,558.96252 L 419.00573,482.02845"
       id="path6853"
       style="fill:#ffd520;fill-rule:evenodd" />
    <path
       clip-rule="evenodd"
       d="M 433.47835,538.11753 C 434.16461,544.71047 436.99541,548.86477 441.4193,552.0632 C 445.8432,555.24939 451.84793,557.47972 461.38197,558.79095 C 470.90375,560.08994 483.95485,560.48208 493.41536,558.92575 C 502.87588,557.35717 508.73355,553.85237 513.64763,549.47749 C 518.54945,545.10262 522.91207,540.02924 525.19141,534.04901 L 540.70567,493.26587 L 504.19937,493.26587 L 493.01096,523.39981 C 491.87129,526.43894 490.73162,529.60061 488.24394,531.65938 C 485.74401,533.7304 482.45979,534.83331 479.88634,534.44116 C 477.30063,534.07352 475.45019,532.17407 474.60463,530.01727 C 473.75906,527.8237 474.15121,525.48308 474.94775,523.39981 L 497.52064,464.21033 L 550.82793,464.21033 L 562.81288,433.36562 L 508.81933,433.36562 L 521.18418,401.05037 L 480.92798,401.05037 L 437.62039,514.57653 C 434.5445,522.59101 432.80435,531.53683 433.47835,538.11753"
       id="path6855"
       style="fill:#ffd520;fill-rule:evenodd" />
    <polyline
       clip-rule="evenodd"
       points="273.819,608.989 272.957,611.515 281.097,611.515   281.946,608.989 278.149,608.989 283.655,603.793 284.604,601.309 276.629,601.309 275.68,603.793 279.516,603.793 273.819,608.989   "
       id="polyline6857"
       transform="matrix(12.254551,0,0,12.254551,-2810.865,-6936.2517)"
       style="fill:#ffd520;fill-rule:evenodd" />
  </g>
</svg>
