<svg version="1.0" xmlns="http://www.w3.org/2000/svg" width="200px" height="80px">
<g>
	<path fill="#F9DC31" d="M197.022,68.14c0.008,4.375-3.901,7.955-8.769,7.976L12.042,76.837c-4.848,0.038-8.807-3.504-8.815-7.9 
		L2.974,11.843C2.953,7.457,6.87,3.897,11.734,3.869l176.211-0.732c4.865-0.032,8.803,3.523,8.819,7.889L197.022,68.14"/>
	<linearGradient id="Grad1" gradientUnits="userSpaceOnUse" x1="100" y1="0" x2="100" y2="80">
		<stop offset="0.06" style="stop-color:#F9DC31"/>
		<stop offset="0.21" style="stop-color:#FCE576"/>
		<stop offset="0.39" style="stop-color:#FDEDA6"/>
		<stop offset="0.58" style="stop-color:#FDF0B5"/>
	</linearGradient>
	<path id="SVGID_15_" fill="url(#Grad1)" d="M187.949,3.137L11.726,3.872c-4.84,0.025-8.765,3.568-8.748,7.947v0.024L3.102,40.42
		c0.129,0.042,22.429,7.672,49.555,7.672c16.164,0,34.03-2.704,49.973-11.32c13.372-7.211,26.481-9.691,38.555-9.691
		c13.139,0,25.037,2.933,34.62,5.857c9.587,2.938,16.869,5.878,20.799,5.878l0.287-0.008l-0.125-27.783
		c-0.024-4.358-3.929-7.889-8.761-7.889"/>
	<path fill="#F9DC31" d="M197.022,68.14h-1.982v0.017c0,1.591-0.701,3.024-1.906,4.13c-1.212,1.116-2.933,1.84-4.88,1.84
		L12.038,74.861h-0.042c-1.936,0-3.66-0.703-4.885-1.795c-1.205-1.117-1.903-2.555-1.915-4.13L4.955,11.839v-0.032l-0.627,0.007
		h0.627v-0.007l-0.627,0.007h0.627c0-1.579,0.698-3.023,1.902-4.133c1.226-1.113,2.946-1.819,4.877-1.84l176.215-0.727h0.055
		c1.923,0,3.635,0.718,4.869,1.803c1.217,1.11,1.911,2.538,1.919,4.121l0.248,57.102H197.022L199,68.119l-0.259-57.094
		c0-2.787-1.278-5.313-3.244-7.057c-1.943-1.753-4.614-2.808-7.493-2.808h-0.066L11.722,1.891C8.814,1.912,6.164,2.979,4.203,4.745
		C2.259,6.514,1,9.027,1,11.814v0.05v-0.017l0.242,57.118c0.02,2.779,1.283,5.301,3.244,7.037c1.96,1.774,4.615,2.837,7.51,2.837
		h0.045l176.228-0.747c2.911-0.008,5.571-1.092,7.516-2.841c1.944-1.778,3.215-4.3,3.215-7.096v-0.037"/> 
	<path fill="#272425" d="M133.041,53.463c-1.387-1.495-0.564-4.49,0.146-7.867l2.451-11.494h9.991l1.798-8.554H137.42l1.785-8.54
		h-9.434l-6.168,29.368c-0.927,4.396-1.275,7.814,0.619,11.52c1.749,3.424,7.776,6.705,15.387,4.628l1.682-7.93
		C136.128,55.237,134.059,54.572,133.041,53.463 M53.226,17.008l-4.508,21.21H32.185l4.487-21.21h-9.509l-9.625,45.516h9.509
		l3.335-15.769h16.545l-3.344,15.769h9.43l9.628-45.516H53.226z M107.531,28.763c-3.307,2.771-5.172,6.385-6.38,12.105
		l-4.579,21.655h9.434l3.796-17.945c0.89-4.204,1.583-6.829,3.15-8.458c2.168-2.214,5.288-2.335,9.051-2.019l1.815-8.554
		C117.189,23.849,111.407,25.524,107.531,28.763 M181.153,25.548h-29.435l-1.812,8.554h17.09l-21.368,20.209l-1.729,8.213h29.428
		l1.827-8.536h-17.189l21.473-20.306L181.153,25.548z M81.784,24.879c-3.178,0-7.544,0.976-11.81,4.361
		c-9.67,7.59-14.457,33.956,6.285,33.956c5.362,0,11.34-1.69,15.478-4.86l-3.726-6.36c-3.145,2.435-18.951,7.701-17.298-5.163
		h24.712c0.021-0.029,3.153-10.327-1.379-16.541C90.192,24.958,83.093,24.879,81.784,24.879 M87.92,38.979h-15.13
		c0.54-2.044,3.76-7.071,9.708-6.531C88.913,33.042,87.92,38.979,87.92,38.979"/>
	<path fill="#272425" d="M183.618,53.414h-0.025c-2.746,0.027-5.363,2.234-5.934,4.943l-0.106,1.018h0.336l-0.336,0.009
		c0,2.188,1.574,3.846,3.935,3.846h0.019c2.738-0.008,5.356-2.26,5.942-4.943l0.094-1C187.559,55.079,185.973,53.414,183.618,53.414
		 M186.782,58.157c-0.489,2.351-2.921,4.42-5.276,4.391h-0.007c-2.061-0.024-3.249-1.304-3.27-3.173l0.083-0.898
		c0.489-2.33,2.896-4.382,5.251-4.391c2.102,0.042,3.27,1.316,3.327,3.2L186.782,58.157 M183.242,55.973h-2.089l-1.005,4.706h1.043
		l0.314-1.512h0.828l0.681,1.512h1.192l-0.784-1.686c0.655-0.225,1.158-0.707,1.328-1.464
		C184.959,56.541,184.356,55.973,183.242,55.973 M183.684,57.58c-0.091,0.411-0.433,0.686-0.951,0.686h-1.026l0.291-1.375h1.018
		C183.513,56.891,183.779,57.135,183.684,57.58"/>
</g>
</svg>
