<?xml version="1.0" encoding="UTF-8" standalone="no"?>
<!-- Created with Inkscape (http://www.inkscape.org/) -->

<svg
   xmlns:dc="http://purl.org/dc/elements/1.1/"
   xmlns:cc="http://creativecommons.org/ns#"
   xmlns:rdf="http://www.w3.org/1999/02/22-rdf-syntax-ns#"
   xmlns:svg="http://www.w3.org/2000/svg"
   xmlns="http://www.w3.org/2000/svg"
   xmlns:xlink="http://www.w3.org/1999/xlink"
   xmlns:sodipodi="http://sodipodi.sourceforge.net/DTD/sodipodi-0.dtd"
   xmlns:inkscape="http://www.inkscape.org/namespaces/inkscape"
   width="80"
   height="122"
   id="svg3787"
   version="1.1"
   inkscape:version="0.47 r22583"
   sodipodi:docname="HP-original-logo-1954-trademark.svg">
  <title
     id="title3699">Hewlett-Packard original 1954 trademark</title>
  <defs
     id="defs3789">
    <inkscape:perspective
       sodipodi:type="inkscape:persp3d"
       inkscape:vp_x="0 : 526.18109 : 1"
       inkscape:vp_y="0 : 1000 : 0"
       inkscape:vp_z="744.09448 : 526.18109 : 1"
       inkscape:persp3d-origin="372.04724 : 350.78739 : 1"
       id="perspective3795" />
    <inkscape:perspective
       id="perspective3778"
       inkscape:persp3d-origin="0.5 : 0.33333333 : 1"
       inkscape:vp_z="1 : 0.5 : 1"
       inkscape:vp_y="0 : 1000 : 0"
       inkscape:vp_x="0 : 0.5 : 1"
       sodipodi:type="inkscape:persp3d" />
    <inkscape:perspective
       id="perspective3918"
       inkscape:persp3d-origin="0.5 : 0.33333333 : 1"
       inkscape:vp_z="1 : 0.5 : 1"
       inkscape:vp_y="0 : 1000 : 0"
       inkscape:vp_x="0 : 0.5 : 1"
       sodipodi:type="inkscape:persp3d" />
  </defs>
  <sodipodi:namedview
     id="base"
     pagecolor="#ffffff"
     bordercolor="#666666"
     borderopacity="1.0"
     inkscape:pageopacity="0.0"
     inkscape:pageshadow="2"
     inkscape:zoom="3.8820194"
     inkscape:cx="35.492037"
     inkscape:cy="61.00001"
     inkscape:document-units="px"
     inkscape:current-layer="layer1"
     showgrid="false"
     inkscape:window-width="1024"
     inkscape:window-height="689"
     inkscape:window-x="0"
     inkscape:window-y="27"
     inkscape:window-maximized="1" />
  <metadata
     id="metadata3792">
    <rdf:RDF>
      <cc:Work
         rdf:about="">
        <dc:format>image/svg+xml</dc:format>
        <dc:type
           rdf:resource="http://purl.org/dc/dcmitype/StillImage" />
        <dc:title>Hewlett-Packard original 1954 trademark</dc:title>
        <dc:description>Original Hewlett-Packard trademark from 1954, based on small, low-resolution JPEG sample found at trademarkia.com</dc:description>
        <dc:creator>
          <cc:Agent>
            <dc:title>Hydrargyrum</dc:title>
          </cc:Agent>
        </dc:creator>
        <dc:date>2011-11-02</dc:date>
        <cc:license
           rdf:resource="http://creativecommons.org/licenses/publicdomain/" />
      </cc:Work>
      <cc:License
         rdf:about="http://creativecommons.org/licenses/publicdomain/">
        <cc:permits
           rdf:resource="http://creativecommons.org/ns#Reproduction" />
        <cc:permits
           rdf:resource="http://creativecommons.org/ns#Distribution" />
        <cc:permits
           rdf:resource="http://creativecommons.org/ns#DerivativeWorks" />
      </cc:License>
    </rdf:RDF>
  </metadata>
  <g
     inkscape:groupmode="layer"
     id="layer2"
     inkscape:label="Prototype"
     style="display:none"
     transform="translate(-110.13505,-911.33188)"
     sodipodi:insensitive="true">
    <image
       style="display:inline"
       y="905.00714"
       x="104.9171"
       id="image3920"
       height="131"
       width="92"
       xlink:href="file:///home/sysop/Pictures/Logos/Hewlett-Packard/HP-original-logo1954-trademarkia.jpeg" />
  </g>
  <g
     inkscape:label="Layer 1"
     inkscape:groupmode="layer"
     id="layer1"
     transform="translate(-110.13505,-911.33188)"
     style="display:inline">
    <g
       id="g3764"
       transform="matrix(0.24636703,0,0,0.24636703,-20.059583,1241.3831)"
       inkscape:export-filename="/home/sysop/Pictures/Logos/Hewlett-Packard/HP-original-logo1954-trademark.png"
       inkscape:export-xdpi="92"
       inkscape:export-ydpi="92">
      <path
         transform="matrix(1.0102965,0,0,1.0138324,-109.51606,-1618.7106)"
         d="m 947.15083,519.7865 c 0,85.58978 -69.38423,154.97401 -154.97401,154.97401 -85.58979,0 -154.97402,-69.38423 -154.97402,-154.97401 0,-85.58979 69.38423,-154.97402 154.97402,-154.97402 85.58978,0 154.97401,69.38423 154.97401,154.97402 z"
         sodipodi:ry="154.97401"
         sodipodi:rx="154.97401"
         sodipodi:cy="519.7865"
         sodipodi:cx="792.17682"
         id="path3762"
         style="fill:none;stroke:#000000;stroke-width:6.9165659;stroke-linecap:round;stroke-linejoin:round;stroke-miterlimit:4;stroke-opacity:1;stroke-dasharray:none"
         sodipodi:type="arc" />
      <g
         style="fill:#000000;fill-opacity:1;stroke:none"
         transform="translate(636.46658,-1362.3849)"
         id="g3758">
        <path
           style="fill:#000000;fill-opacity:1;stroke:none"
           d="M 111.78125,191.125 87.125,198.3125 C 69.752279,303.14168 31.5,514.90625 31.5,514.90625 c 0,0 2.15571,0.44071 6.25,-0.875 6.371118,-2.38983 19.46875,-6.1875 19.46875,-6.1875 l 29.75,-155.75 13.53125,-0.25 c 8.86157,-0.16537 19.42351,-1.37362 26,-5.59375 10.06586,-6.45924 14.68527,-15.23166 18.5,-35.21875 2.70469,-15.5961 5.72505,-31.13361 8.125,-46.78125 3.71531,-26.35969 5.62715,-36.46536 -1.09375,-48.9375 -4.16548,-7.72998 -26.49771,-11.7082 -36.8125,-6.5625 -3.38501,1.68866 -6.71875,3.65625 -6.71875,3.65625 l 3.28125,-21.28125 z m 9.09375,39.8125 c 0.51314,-0.0223 1.04356,-0.0214 1.625,0 8.60413,0.31597 10.5048,4.40325 8.03125,17.3125 -2.74984,14.35113 -7.93333,43.16148 -9.09375,50.5 -2.51068,15.87754 -3.60921,19.63901 -6.53125,22.53125 -2.51632,2.49066 -3.86402,3.12507 -10.40625,3.40625 -16.720749,0.71866 -15.152439,1.9939 -11.09375,-20.25 1.074187,-5.88715 3.85959,-21.4875 6.15625,-34.6875 2.29666,-13.2 3.40484,-18.24328 5.4375,-25.5 0.57892,-2.06677 1.34621,-4.15973 2.59375,-5.90625 1.31702,-1.84379 3.022,-3.48847 5,-4.59375 2.62515,-1.46689 4.68924,-2.65664 8.28125,-2.8125 z"
           id="path3729" />
        <path
           style="fill:#000000;fill-opacity:1;stroke:none"
           d="m 16.01452,32.898047 c 0,0 26.23561,-7.25506 26.23561,-7.25506 0,0 -31.80938,183.870673 -31.80938,183.870673 0,0 4.915643,-1.86248 8.456165,-2.56663 7.027349,-1.39763 14.805971,-2.47362 21.494745,0.0949 5.669468,2.1771 10.248199,5.92637 13.59031,12.13455 4.61585,9.10894 2.310184,29.39126 -0.30215,41.07801 -11.965537,59.00295 -16.03267,84.2536 -16.03267,84.2536 0,0 -24.99392,7.72225 -24.99392,7.72225 0,0 17.37604,-104.37825 17.37604,-104.37825 0,0 1.58582,-11.06943 -0.25033,-13.69084 -2.29963,-3.28319 -10.529756,-3.5299 -15.38378,-1.77385 -3.570252,1.29161 -5.7716648,3.84999 -7.8613398,8.24221 -2.089675,4.39222 -2.2494301,5.51851 -4.02494,12.61111 -6.1220722,29.85464 -12.1936971,59.14898 -18.1854652,88.7439 0,0 -25.403275,9.99509 -25.403275,9.99509 L 16.01452,32.898047 z"
           id="path3727" />
      </g>
    </g>
  </g>
</svg>
