<?xml version="1.0" encoding="UTF-8" standalone="no"?>
<!-- Created with Inkscape (http://www.inkscape.org/) -->
<svg
   xmlns:svg="http://www.w3.org/2000/svg"
   xmlns="http://www.w3.org/2000/svg"
   version="1.0"
   width="744.09448"
   height="340.86612"
   id="svg3633">
  <defs
     id="defs3635"><clipPath
   id="clp4">
<path
   d="M 0,0 L 111.08,0 L 111.08,55.357 L 0,55.357 L 0,0 z "
   id="path25050" />

</clipPath>










</defs>
  <g
     transform="translate(-610.89575,-421.82933)"
     id="layer1">
    <g
       transform="translate(17.716516,17.734)"
       id="g27333">
      <path
         d="M 715.43423,457.56819 C 723.3526,455.45948 731.66362,454.33969 740.2364,454.33969 C 793.94171,454.33969 837.65635,498.25885 837.65635,553.07781 L 813.77763,552.92511 C 813.47951,511.66001 780.65717,478.72791 740.2873,478.72791 L 736.48445,478.82971 L 715.43423,457.56819 z M 660.85638,495.86656 C 667.18235,486.85005 674.96256,478.9606 683.84801,472.55451 L 701.13899,490.15126 C 691.87545,496.07743 684.0007,504.04687 678.14009,513.45604 L 660.85638,495.86656 z M 740.2364,651.62687 C 686.48019,651.62687 642.86008,607.5841 642.86008,553.22324 C 642.86008,544.40305 643.99439,535.86644 646.11032,527.73704 L 666.91331,548.92585 C 666.82606,550.44557 666.78243,551.97256 666.78243,553.51409 C 666.78243,594.5247 699.69929,627.76219 740.2873,627.76219 L 740.2364,651.62687 z "
         style="fill:#ff3333;fill-rule:nonzero;stroke:none"
         id="path25054" />
      <path
         d="M 864.23997,725.32962 L 864.23997,671.68862 L 812.25067,671.68862 L 812.25067,725.32962 L 788.77187,725.32962 L 788.77187,601.63611 L 812.25067,601.63611 L 812.25067,651.23422 L 864.23997,651.23422 L 864.23997,601.63611 L 887.7115,601.63611 L 887.7115,725.32962 L 864.23997,725.32962 z "
         style="fill:#666666;fill-rule:nonzero;stroke:none"
         id="path25056" />
      <path
         d="M 971.18523,679.25086 C 971.18523,697.88742 962.48157,707.2675 951.05119,707.2675 C 937.58487,707.2675 930.88807,697.70563 930.88807,678.90183 C 930.88807,660.13439 941.04598,652.03407 951.43657,652.03407 C 965.01923,652.03407 971.18523,661.61048 971.18523,679.25086 M 995.17302,677.96382 C 995.17302,646.60962 978.60916,632.35044 953.05078,632.35044 C 925.63097,632.35044 906.90755,652.75394 906.90755,681.28685 C 906.90755,713.83356 923.46414,727.22745 949.07342,727.22745 C 976.09331,727.22745 995.17302,706.71488 995.17302,677.96382"
         style="fill:#666666;fill-rule:nonzero;stroke:none"
         id="path25058" />
      <path
         d="M 1013.8383,591.7034 L 1037.048,591.7034 L 1037.048,725.33689 L 1013.8383,725.33689 L 1013.8383,591.7034 z "
         style="fill:#666666;fill-rule:nonzero;stroke:none"
         id="path25060" />
      <path
         d="M 1096.2431,726.97295 C 1071.2665,726.97295 1055.6624,713.81902 1055.6624,682.84292 C 1055.6624,654.46271 1070.3648,632.64856 1102.2782,632.64856 C 1108.4297,632.64856 1114.952,633.54294 1120.7254,635.20809 L 1118.384,655.59705 C 1113.4905,653.73557 1107.8844,652.31038 1102.0819,652.31038 C 1087.3577,652.31038 1079.9192,663.29017 1079.9192,680.487 C 1079.9192,696.10593 1085.9253,706.72942 1101.3403,706.72942 C 1107.5353,706.72942 1114.2176,705.43511 1119.1184,702.89013 L 1120.9144,722.78463 C 1114.7557,725.15511 1105.8702,726.97295 1096.2431,726.97295"
         style="fill:#666666;fill-rule:nonzero;stroke:none"
         id="path25062" />
      <path
         d="M 1150.7483,622.39591 C 1142.779,622.39591 1136.3731,616.01164 1136.3731,608.18036 C 1136.3731,600.45815 1142.779,594.09569 1150.7483,594.09569 C 1158.7103,594.09569 1165.2253,600.26909 1165.2253,608.18036 C 1165.2253,616.01164 1158.7103,622.39591 1150.7483,622.39591 M 1139.1434,635.81161 L 1162.3023,635.81161 L 1162.3023,725.33689 L 1139.1434,725.33689 L 1139.1434,635.81161 z "
         style="fill:#666666;fill-rule:nonzero;stroke:none"
         id="path25064" />
      <path
         d="M 1296.4347,725.32962 L 1296.4347,667.7039 C 1296.4347,658.00388 1294.2533,652.01953 1285.7096,652.01953 C 1275.6244,652.01953 1264.6957,664.03913 1264.6957,681.74494 L 1264.6957,725.32962 L 1241.7841,725.32962 L 1241.7841,667.7039 C 1241.7841,658.75283 1239.9663,652.01953 1231.1463,652.01953 C 1220.5157,652.01953 1210.5469,664.77353 1210.5469,681.74494 L 1210.5469,725.32962 L 1187.3807,725.32962 L 1187.3807,635.76071 L 1209.2744,635.76071 C 1209.2744,639.9563 1208.9108,645.35167 1208.0238,650.74704 L 1208.3655,650.74704 C 1213.8407,639.51275 1224.6531,632.40133 1237.9958,632.40133 C 1253.9925,632.40133 1260.682,641.88322 1262.8707,650.74704 C 1267.0225,641.72325 1277.4495,632.40133 1292.6536,632.40133 C 1309.9591,632.40133 1319.5572,642.08682 1319.5572,662.78845 L 1319.5572,725.32962 L 1296.4347,725.32962 z "
         style="fill:#666666;fill-rule:nonzero;stroke:none"
         id="path25066" />
      <path
         d="M 703.40035,539.16765 L 633.99645,468.51889 L 610.89575,491.87457 L 680.24148,562.49425 L 703.40035,539.16765 z M 749.43451,491.91093 L 680.05243,421.82933 L 656.92991,445.14866 L 726.34108,515.81197 L 749.43451,491.91093 z "
         style="fill:#000000;fill-rule:nonzero;stroke:none"
         id="path25068" />
    </g>
  </g>
</svg>
