<?xml version="1.0" encoding="UTF-8" standalone="no"?>
<!-- Created with Inkscape (http://www.inkscape.org/) -->
<svg
   xmlns:dc="http://purl.org/dc/elements/1.1/"
   xmlns:cc="http://web.resource.org/cc/"
   xmlns:rdf="http://www.w3.org/1999/02/22-rdf-syntax-ns#"
   xmlns:svg="http://www.w3.org/2000/svg"
   xmlns="http://www.w3.org/2000/svg"
   xmlns:sodipodi="http://sodipodi.sourceforge.net/DTD/sodipodi-0.dtd"
   xmlns:inkscape="http://www.inkscape.org/namespaces/inkscape"
   width="500"
   height="500"
   id="svg2"
   sodipodi:version="0.32"
   inkscape:version="0.45.1"
   version="1.0"
   inkscape:output_extension="org.inkscape.output.svg.inkscape">
  <g
     inkscape:label="Layer 1"
     inkscape:groupmode="layer"
     id="layer1"
     transform="translate(-478.66339,-190.47034)">
    <g
       id="g273718"
       transform="matrix(1,0,0,-1,483.69291,361.96967)">
      <path
         id="path273720"
         d="M 0,0 L 31.776,0"
         style="fill:#221e1f;fill-rule:nonzero;stroke:none" />
    </g>
    <g
       id="g274868"
       clip-path="url(#id1568)"
       transform="matrix(6.3608376,0,0,-6.3608376,-1710.8196,2530.3617)">
      <path
         id="path274870"
         d="M 344.213,289.253 L 422.819,289.253 L 422.819,367.859 L 344.213,367.859 L 344.213,289.253 z "
         style="fill:#ffffff;fill-rule:nonzero;stroke:none" />
      <path
         id="path274872"
         d="M 347.681,292.721 L 419.351,292.721 L 419.351,364.391 L 347.681,364.391 L 347.681,292.721 z "
         style="fill:#f57115;fill-rule:nonzero;stroke:none" />
      <g
         id="g274874"
         transform="translate(363.49899,292.72099)">
        <path
           id="path274876"
           d="M 0,0 L -2.438,0 C -2.431,0.013 -2.425,0.025 -2.418,0.038 C -1.913,1.006 -2.06,1.114 -2.842,1.896 L -13.931,12.983 C -14.715,13.768 -14.819,13.916 -15.791,13.41 C -15.8,13.405 -15.809,13.4 -15.818,13.396 L -15.818,15.835 L -10.725,20.927 C -10.641,21.01 -9.902,21.667 -9.29,21.055 C -8.995,20.757 -8.991,20.378 -9.182,20.019 C -9.69,19.045 -9.542,18.941 -8.757,18.156 L 2.33,7.071 C 3.113,6.285 3.218,6.138 4.191,6.645 C 4.55,6.835 4.931,6.835 5.226,6.538 C 5.839,5.924 5.184,5.186 5.101,5.102 L 0,0 z M 0.081,14.936 L -1.779,13.077 L -3.002,14.303 L -1.146,16.162 L -5.952,20.965 C -6.732,21.747 -6.839,21.894 -7.811,21.39 C -8.168,21.199 -8.552,21.201 -8.846,21.498 C -9.459,22.11 -8.804,22.846 -8.719,22.933 L -2.744,28.907 C -2.66,28.992 -1.923,29.645 -1.309,29.035 C -1.012,28.737 -1.01,28.357 -1.2,27.999 C -1.708,27.027 -1.559,26.922 -0.777,26.14 L 10.31,15.051 C 11.092,14.266 11.198,14.118 12.171,14.628 C 12.531,14.816 12.909,14.814 13.207,14.519 C 13.818,13.905 13.166,13.166 13.083,13.081 L 7.106,7.107 C 7.021,7.023 6.281,6.37 5.668,6.98 C 5.374,7.279 5.373,7.658 5.561,8.018 C 6.07,8.989 5.921,9.095 5.139,9.878"
           style="fill:#ffffff;fill-rule:evenodd;stroke:none" />
      </g>
      <g
         id="g274878"
         transform="translate(407.533,354.27299)">
        <path
           id="path274880"
           d="M 0,0 C 0.655,1.119 0.229,2.345 -0.386,3.34 C -0.635,3.803 -0.849,4.271 -0.408,4.714 C 0.247,5.365 0.907,4.501 1.075,4.331 L 5.644,-0.238 C 5.812,-0.406 6.68,-1.065 6.028,-1.718 C 5.583,-2.163 5.118,-1.947 4.651,-1.695 C 3.656,-1.082 2.431,-0.66 1.312,-1.31 L 0,0 z M 11.819,-2.108 L 11.819,-5.701 L 8.758,-8.758 L 7.532,-7.533 C 9.032,-5.61 9.176,-3.137 8.053,-0.876 C 7.884,-0.41 7.672,0.056 8.052,0.434 C 8.729,1.11 9.298,0.411 9.381,0.326 L 11.819,-2.108 z M -4.016,10.118 L -0.701,10.118 L 1.935,7.481 C 2.04,7.376 2.424,6.95 1.789,6.32 C 1.428,5.959 1.111,6.065 0.689,6.275 C -1.572,7.444 -3.688,7.4 -5.841,5.839 L -7.069,7.065 L -4.016,10.118 z M -13.591,0.542 L -8.02,6.115 L 7.81,-9.708 L 2.236,-15.284 C 2.151,-15.368 1.41,-16.022 0.798,-15.41 C 0.502,-15.113 0.502,-14.731 0.691,-14.374 C 1.197,-13.402 1.052,-13.296 0.268,-12.511 L -10.823,-1.424 C -11.606,-0.644 -11.71,-0.494 -12.684,-1.001 C -13.042,-1.191 -13.423,-1.191 -13.718,-0.894 C -14.331,-0.283 -13.675,0.459 -13.591,0.542"
           style="fill:#ffffff;fill-rule:evenodd;stroke:none" />
      </g>
      <g
         id="g274882"
         transform="translate(387.89,295.334)">
        <path
           id="path274884"
           d="M 0,0 L -2.614,-2.613 L -4.004,-2.613 C -3.967,-2.53 -3.922,-2.445 -3.879,-2.355 C -3.723,-2.06 -4.068,-1.759 -4.246,-1.582 L -10.48,4.653 C -10.659,4.83 -10.955,5.175 -11.252,5.02 C -11.573,4.866 -11.835,4.675 -12.134,4.972 C -12.442,5.281 -12.181,5.616 -11.942,5.852 L -8.897,8.897"
           style="fill:#ffffff;fill-rule:evenodd;stroke:none" />
      </g>
      <g
         id="g274886"
         transform="translate(405.57899,330.81799)">
        <path
           id="path274888"
           d="M 0,0 L 1.713,1.712 L 2.404,1.023 C 2.224,-0.037 2.843,-0.987 3.366,-1.725 C 3.592,-2.022 3.841,-2.391 3.508,-2.723 C 3.152,-3.08 2.82,-2.82 2.771,-2.771 L 0,0 z M 10.183,4.64 C 10.23,4.591 10.492,4.259 10.134,3.903 C 9.801,3.57 9.432,3.819 9.137,4.047 C 8.398,4.568 7.446,5.186 6.388,5.007 L 5.697,5.697 L 7.41,7.411 L 10.183,4.64 z M 2.247,2.248 L 5.163,5.163 L 12.728,-2.403 C 13.167,-2.843 13.228,-2.927 13.772,-2.642 L 13.772,-4.024 L 10.92,-6.875 C 10.872,-6.923 10.456,-7.293 10.111,-6.946 C 9.945,-6.78 9.944,-6.567 10.051,-6.365 C 10.337,-5.818 10.253,-5.758 9.815,-5.318"
           style="fill:#ffffff;fill-rule:evenodd;stroke:none" />
      </g>
    </g>
    <g
       id="g274890"
       transform="matrix(6.3608376,0,0,-6.3608376,933.43295,645.23961)">
      <path
         id="path274892"
         d="M 0,0 C 0.299,0 0.565,0.021 0.565,0.378 C 0.565,0.665 0.304,0.719 0.058,0.719 L -0.421,0.719 L -0.421,0 L 0,0 z M -0.421,-1.306 L -0.772,-1.306 L -0.772,1.018 L 0.113,1.018 C 0.661,1.018 0.932,0.816 0.932,0.357 C 0.932,-0.058 0.671,-0.241 0.331,-0.283 L 0.992,-1.306 L 0.597,-1.306 L -0.016,-0.299 L -0.421,-0.299 L -0.421,-1.306 z M 0.005,-1.823 C 0.917,-1.823 1.637,-1.109 1.637,-0.138 C 1.637,0.816 0.917,1.534 0.005,1.534 C -0.917,1.534 -1.636,0.816 -1.635,-0.138 C -1.635,-1.109 -0.917,-1.823 0.005,-1.823 z M -2.041,-0.138 C -2.041,1.018 -1.103,1.87 0.005,1.87 C 1.102,1.87 2.041,1.018 2.041,-0.138 C 2.041,-1.306 1.102,-2.159 0.005,-2.159 C -1.103,-2.159 -2.041,-1.306 -2.041,-0.138"
         style="fill:#ffffff;fill-rule:evenodd;stroke:none" />
    </g>
    <g
       id="g274894"
       transform="matrix(6.3608376,0,0,-6.3608376,733.17032,525.01939)">
      <path
         id="path274896"
         d="M 0,0 C 0.632,1.351 0.082,2.073 -0.449,2.601 L -11.407,13.563 C -11.937,14.09 -12.657,14.64 -14.006,14.007 L -15.234,15.233 C -10.358,19.308 -4.648,17.781 -0.438,13.571 C 3.772,9.36 5.3,3.653 1.226,-1.226 L 0,0 z M -14.958,13.057 C -15.592,11.706 -15.041,10.987 -14.511,10.459 L -3.551,-0.501 C -3.022,-1.031 -2.302,-1.581 -0.952,-0.948 L 0.276,-2.176 C -4.602,-6.25 -10.309,-4.723 -14.521,-0.512 C -18.73,3.7 -20.259,9.408 -16.185,14.285"
         style="fill:#ffffff;fill-rule:evenodd;stroke:none" />
    </g>
    <g
       id="g274898"
       transform="matrix(6.3608376,0,0,-6.3608376,881.56193,379.8521)">
      <path
         id="path274900"
         d="M 0,0 C -0.298,0.293 -0.677,0.297 -1.037,0.105 C -2.009,-0.401 -2.112,-0.253 -2.897,0.531 L -13.986,11.617 C -14.77,12.4 -14.919,12.505 -14.409,13.479 C -14.222,13.837 -14.222,14.219 -14.517,14.515 C -15.13,15.128 -15.869,14.473 -15.952,14.389 L -21.527,8.816 L -16.974,0.377 L -17.018,0.337 L -25.769,4.571 L -31.13,-0.789 C -31.382,-1.042 -32.019,-1.675 -31.364,-2.332 C -30.857,-2.841 -30.242,-2.313 -29.969,-2.079 C -29.588,-1.743 -29.248,-1.912 -28.743,-2.04 C -28.299,-2.145 -27.876,-2.358 -27.452,-2.572 L -9.946,-11.253 L -9.335,-10.642 L -17.898,5.185 L -8.072,-4.641 C -7.289,-5.425 -7.14,-5.532 -7.648,-6.502 C -7.84,-6.863 -7.837,-7.242 -7.538,-7.538 C -6.927,-8.151 -6.188,-7.498 -6.103,-7.412 L -0.125,-1.437 C -0.039,-1.352 0.612,-0.612 0,0"
         style="fill:#ffffff;fill-rule:evenodd;stroke:none" />
    </g>
    <g
       id="g274902"
       transform="matrix(6.3608376,0,0,-6.3608376,776.36462,450.84639)">
      <path
         id="path274904"
         d="M 0,0 L -3.639,3.639 L -8.311,5.948 L -8.354,5.905 L -1.225,-1.226 C 1.082,-4.208 -1.092,-4.735 -0.182,-5.646 C 0.473,-6.299 1.295,-5.391 1.527,-5.157 L 3.934,-2.753 C 4.166,-2.521 5.072,-1.7 4.416,-1.044 C 3.506,-0.134 2.982,-2.308 0,0"
         style="fill:#ffffff;fill-rule:evenodd;stroke:none" />
    </g>
    <g
       id="g274906"
       transform="matrix(6.3608376,0,0,-6.3608376,703.29387,591.78342)">
      <path
         id="path274908"
         d="M 0,0 C 1.998,2.047 5.09,2.332 8.303,-0.597 C 11.229,-3.259 10.873,-6.923 8.898,-8.898 L 8.209,-8.208 C 8.84,-7.386 8.197,-6.672 7.743,-6.222 L 2.677,-1.153 C 2.224,-0.702 1.511,-0.06 0.691,-0.69"
         style="fill:#ffffff;fill-rule:evenodd;stroke:none" />
    </g>
    <g
       id="g274910"
       transform="matrix(6.3608376,0,0,-6.3608376,780.15605,565.44876)">
      <path
         id="path274912"
         d="M 0,0 C 0.369,0.629 0.132,1.318 -0.214,1.878 C -0.358,2.14 -0.477,2.404 -0.226,2.654 C 0.143,3.021 0.512,2.533 0.608,2.438 L 3.178,-0.133 C 3.272,-0.226 3.759,-0.595 3.389,-0.965 C 3.142,-1.215 2.879,-1.096 2.617,-0.952 C 2.058,-0.609 1.37,-0.37 0.738,-0.739 L 0,0 z M 4.235,-4.236 C 5.08,-3.154 5.164,-1.762 4.533,-0.487 C 4.439,-0.226 4.317,0.035 4.532,0.249 C 4.913,0.63 5.234,0.238 5.282,0.189 L 7.662,-2.191 L 4.927,-4.927 L 4.235,-4.236 z M -3.972,3.973 L -1.32,6.624 L 1.095,4.211 C 1.154,4.151 1.37,3.913 1.012,3.555 C 0.809,3.353 0.633,3.412 0.394,3.532 C -0.881,4.186 -2.068,4.162 -3.283,3.283 L -3.972,3.973 z M -7.648,0.297 L -4.508,3.437 L 4.39,-5.462 L 1.25,-8.601 C 1.203,-8.648 0.786,-9.017 0.44,-8.673 C 0.275,-8.506 0.274,-8.292 0.38,-8.09 C 0.667,-7.544 0.583,-7.484 0.144,-7.043 L -6.089,-0.809 C -6.529,-0.371 -6.59,-0.287 -7.136,-0.57 C -7.339,-0.68 -7.553,-0.68 -7.72,-0.513 C -8.065,-0.169 -7.695,0.25 -7.648,0.297"
         style="fill:#ffffff;fill-rule:evenodd;stroke:none" />
    </g>
    <g
       id="g274914"
       transform="matrix(6.3608376,0,0,-6.3608376,787.49249,524.54761)">
      <path
         id="path274916"
         d="M 0,0 C -0.44,0.44 -0.5,0.523 -1.048,0.239 C -1.25,0.131 -1.463,0.133 -1.63,0.3 C -1.974,0.644 -1.605,1.062 -1.558,1.109 L 1.582,4.248 L 9.149,-3.319 C 9.587,-3.757 9.648,-3.843 10.195,-3.556 C 10.398,-3.449 10.612,-3.448 10.779,-3.614 C 11.125,-3.959 10.756,-4.376 10.708,-4.423 L 7.341,-7.79 C 7.294,-7.839 6.97,-8.114 6.625,-7.77 C 6.459,-7.602 6.43,-7.416 6.537,-7.213 C 6.823,-6.667 6.673,-6.672 6.234,-6.231 L 0,0 z M 2.118,4.784 C 3.249,5.916 4.034,6.464 4.915,6.7 C 6.32,7.058 7.449,6.617 8.45,5.619 C 9.448,4.621 9.888,3.489 9.531,2.085 C 9.293,1.203 8.746,0.418 7.615,-0.712 L 6.925,-0.024 C 7.496,0.812 7.045,1.335 6.462,1.919 L 4.666,3.715 C 4.131,4.249 3.534,4.631 2.808,4.094"
         style="fill:#ffffff;fill-rule:evenodd;stroke:none" />
    </g>
    <g
       id="g274918"
       transform="matrix(6.3608376,0,0,-6.3608376,902.41753,499.35023)">
      <path
         id="path274920"
         d="M 0,0 C 0.357,0.761 0.048,1.164 -0.25,1.463 L -6.411,7.624 C -6.71,7.923 -7.113,8.232 -7.875,7.876 L -8.564,8.564 C -5.815,10.862 -2.604,10.004 -0.238,7.636 C 2.13,5.269 2.988,2.059 0.692,-0.691 L 0,0 z M -8.409,7.338 C -8.766,6.577 -8.458,6.174 -8.161,5.877 L -1.997,-0.285 C -1.7,-0.583 -1.296,-0.893 -0.535,-0.535 L 0.156,-1.225 C -2.592,-3.522 -5.804,-2.667 -8.17,-0.298 C -10.539,2.069 -11.396,5.281 -9.1,8.03"
         style="fill:#ffffff;fill-rule:evenodd;stroke:none" />
    </g>
    <g
       id="g274922"
       transform="matrix(6.3608376,0,0,-6.3608376,541.91271,398.59175)">
      <path
         id="path274924"
         d="M 0,0 L 1.61,1.61 L 2.259,0.962 C 2.091,-0.033 2.672,-0.928 3.164,-1.621 C 3.377,-1.901 3.612,-2.247 3.299,-2.56 C 2.963,-2.896 2.65,-2.65 2.605,-2.604 L 0,0 z M 9.571,4.361 C 9.616,4.316 9.862,4.004 9.527,3.668 C 9.213,3.355 8.866,3.59 8.587,3.802 C 7.894,4.294 6.999,4.876 6.004,4.708 L 5.356,5.356 L 6.966,6.965 L 9.571,4.361 z M 2.113,2.113 L 4.853,4.853 L 11.964,-2.258 C 12.378,-2.672 12.434,-2.75 12.948,-2.482 C 13.138,-2.381 13.339,-2.381 13.496,-2.538 C 13.82,-2.862 13.473,-3.253 13.429,-3.298 L 10.264,-6.463 C 10.22,-6.507 9.829,-6.854 9.504,-6.529 C 9.347,-6.373 9.347,-6.172 9.448,-5.982 C 9.716,-5.467 9.638,-5.411 9.224,-4.998"
         style="fill:#ffffff;fill-rule:evenodd;stroke:none" />
    </g>
    <g
       id="g274926"
       transform="matrix(6.3608376,0,0,-6.3608376,647.45408,349.5165)">
      <path
         id="path274928"
         d="M 0,0 L -0.984,-0.984 L -1.633,-0.335 L -0.649,0.649 L -3.187,3.187 C -3.6,3.6 -3.656,3.679 -4.171,3.41 C -4.361,3.309 -4.562,3.309 -4.719,3.466 C -5.043,3.79 -4.696,4.182 -4.651,4.227 L -1.487,7.39 C -1.442,7.435 -1.051,7.782 -0.727,7.458 C -0.571,7.301 -0.571,7.1 -0.671,6.91 C -0.939,6.396 -0.861,6.339 -0.447,5.926 L 5.412,0.067 C 5.826,-0.347 5.881,-0.424 6.396,-0.157 C 6.586,-0.056 6.787,-0.056 6.943,-0.212 C 7.268,-0.537 6.921,-0.928 6.876,-0.973 L 3.712,-4.137 C 3.668,-4.182 3.276,-4.528 2.952,-4.204 C 2.796,-4.048 2.796,-3.846 2.896,-3.656 C 3.164,-3.142 3.086,-3.086 2.672,-2.672 L 0,0 z M 1.185,-4.16 C 1.599,-4.573 1.655,-4.651 2.169,-4.383 C 2.359,-4.283 2.56,-4.283 2.717,-4.439 C 3.041,-4.763 2.694,-5.155 2.65,-5.199 L -0.514,-8.363 C -0.559,-8.408 -0.951,-8.755 -1.275,-8.431 C -1.431,-8.274 -1.431,-8.073 -1.331,-7.882 C -1.062,-7.369 -1.141,-7.313 -1.554,-6.899 L -7.413,-1.04 C -7.827,-0.626 -7.883,-0.548 -8.397,-0.816 C -8.588,-0.917 -8.789,-0.917 -8.945,-0.76 C -9.269,-0.436 -8.923,-0.045 -8.878,0 L -5.714,3.165 C -5.669,3.209 -5.277,3.556 -4.954,3.231 C -4.797,3.075 -4.797,2.873 -4.898,2.683 C -5.166,2.169 -5.088,2.113 -4.674,1.7"
         style="fill:#ffffff;fill-rule:evenodd;stroke:none" />
    </g>
    <g
       id="g274930"
       transform="matrix(6.3608376,0,0,-6.3608376,690.4316,297.58207)">
      <path
         id="path274932"
         d="M 0,0 C 0.346,0.592 0.123,1.241 -0.201,1.766 C -0.336,2.012 -0.447,2.258 -0.213,2.493 C 0.134,2.839 0.481,2.381 0.57,2.292 L 2.985,-0.124 C 3.075,-0.213 3.533,-0.56 3.187,-0.906 C 2.952,-1.141 2.706,-1.029 2.46,-0.895 C 1.934,-0.571 1.285,-0.347 0.693,-0.694 L 0,0 z M 3.98,-3.981 C 4.774,-2.964 4.852,-1.656 4.26,-0.459 C 4.17,-0.213 4.058,0.033 4.26,0.234 C 4.617,0.592 4.919,0.223 4.964,0.178 L 7.2,-2.058 L 4.629,-4.63 L 3.98,-3.981 z M -3.734,3.734 L -1.241,6.227 L 1.029,3.957 C 1.084,3.902 1.285,3.678 0.95,3.343 C 0.76,3.153 0.592,3.209 0.369,3.32 C -0.828,3.935 -1.946,3.913 -3.086,3.086 L -3.734,3.734 z M -7.19,0.279 L -4.238,3.231 L 4.126,-5.133 L 1.174,-8.084 C 1.129,-8.129 0.738,-8.476 0.413,-8.152 C 0.257,-7.995 0.257,-7.794 0.358,-7.604 C 0.626,-7.089 0.548,-7.033 0.134,-6.62 L -5.725,-0.761 C -6.139,-0.347 -6.195,-0.268 -6.709,-0.537 C -6.899,-0.638 -7.1,-0.638 -7.257,-0.482 C -7.581,-0.157 -7.234,0.234 -7.19,0.279"
         style="fill:#ffffff;fill-rule:evenodd;stroke:none" />
    </g>
    <g
       id="g274998"
       transform="matrix(1,0,0,-1,363.17589,768.35668)">
      <path
         id="path275000"
         d="M 0,0 L 80.595,0"
         style="fill:#ffffff;fill-rule:nonzero;stroke:none" />
    </g>
    <g
       id="g275006"
       transform="matrix(1,0,0,-1,363.17589,767.67967)">
      <path
         id="path275008"
         d="M 0,0 L 80.595,0"
         style="fill:#ffffff;fill-rule:nonzero;stroke:none" />
    </g>
  </g>
</svg>
