<?xml version="1.0" encoding="UTF-8" standalone="no"?>
<!-- Created with Inkscape (http://www.inkscape.org/) -->
<svg
   xmlns:dc="http://purl.org/dc/elements/1.1/"
   xmlns:cc="http://web.resource.org/cc/"
   xmlns:rdf="http://www.w3.org/1999/02/22-rdf-syntax-ns#"
   xmlns:svg="http://www.w3.org/2000/svg"
   xmlns="http://www.w3.org/2000/svg"
   xmlns:sodipodi="http://sodipodi.sourceforge.net/DTD/sodipodi-0.dtd"
   xmlns:inkscape="http://www.inkscape.org/namespaces/inkscape"
   width="187.8717"
   height="39.59671"
   id="svg2219"
   sodipodi:version="0.32"
   inkscape:version="0.45.1"
   version="1.0"
   inkscape:export-filename="C:\Users\bjweeks\Pictures\honda-logo.png"
   inkscape:export-xdpi="90"
   inkscape:export-ydpi="90"
   sodipodi:docbase="C:\Users\bjweeks\Pictures"
   sodipodi:docname="honda-logo.svg"
   inkscape:output_extension="org.inkscape.output.svg.inkscape">
  <defs
     id="defs2221" />
  <sodipodi:namedview
     id="base"
     pagecolor="#ffffff"
     bordercolor="#666666"
     borderopacity="1.0"
     gridtolerance="10000"
     guidetolerance="10"
     objecttolerance="10"
     inkscape:pageopacity="0.0"
     inkscape:pageshadow="2"
     inkscape:zoom="6.3607237"
     inkscape:cx="93.935852"
     inkscape:cy="19.798355"
     inkscape:document-units="px"
     inkscape:current-layer="svg2219"
     inkscape:window-width="1280"
     inkscape:window-height="974"
     inkscape:window-x="-8"
     inkscape:window-y="-8" />
  <metadata
     id="metadata2224">
    <rdf:RDF>
      <cc:Work
         rdf:about="">
        <dc:format>image/svg+xml</dc:format>
        <dc:type
           rdf:resource="http://purl.org/dc/dcmitype/StillImage" />
        <cc:license
           rdf:resource="http://web.resource.org/cc/PublicDomain" />
      </cc:Work>
      <cc:License
         rdf:about="http://web.resource.org/cc/PublicDomain">
        <cc:permits
           rdf:resource="http://web.resource.org/cc/Reproduction" />
        <cc:permits
           rdf:resource="http://web.resource.org/cc/Distribution" />
        <cc:permits
           rdf:resource="http://web.resource.org/cc/DerivativeWorks" />
      </cc:License>
    </rdf:RDF>
  </metadata>
  <g
     inkscape:label="Layer 1"
     inkscape:groupmode="layer"
     id="layer1"
     transform="translate(-228.92129,-481.13526)">
    <g
       transform="matrix(1.0180412,0,0,1.0180412,243.80621,511.18987)"
       style="fill:#161413;fill-rule:evenodd;stroke:none;stroke-width:1;stroke-linecap:butt;stroke-linejoin:miter;stroke-dasharray:none"
       id="g2297">
      <path
         d="M 5.0615,1.032 C 5.0615,1.032 8.8095,1.032 8.8095,1.032 C 8.8095,1.032 8.8095,0 8.8095,0 C 8.8095,0 0,0 0,0 C 0,0 0,1.032 0,1.032 C 0,1.032 3.749,1.032 3.749,1.032 C 3.749,1.032 3.749,9.186 3.749,9.186 C 3.749,9.186 5.0615,9.186 5.0615,9.186 C 5.0615,9.186 5.0615,1.032 5.0615,1.032 z "
         id="path2299" />
    </g>
    <g
       transform="matrix(1.0180412,0,0,1.0180412,253.53817,511.18987)"
       style="fill:#161413;fill-rule:evenodd;stroke:none;stroke-width:1;stroke-linecap:butt;stroke-linejoin:miter;stroke-dasharray:none"
       id="g2301">
      <path
         d="M 5.9053,9.186 C 5.9053,9.186 7.2168,9.186 7.2168,9.186 C 7.2168,9.186 7.2168,5.437 7.2168,5.437 C 7.2168,3.281 5.9053,2.343 4.1241,2.343 C 2.9063,2.343 1.875,2.812 1.3125,3.749 C 1.3125,3.749 1.3125,0 1.3125,0 C 1.3125,0 0,0 0,0 C 0,0 0,9.186 0,9.186 C 0,9.186 1.3125,9.186 1.3125,9.186 C 1.3125,9.186 1.3125,6.092 1.3125,6.092 C 1.3125,4.031 2.6241,3.187 3.9366,3.187 C 5.1553,3.187 5.9053,3.843 5.9053,5.531 C 5.9053,5.531 5.9053,9.186 5.9053,9.186 z "
         id="path2303" />
    </g>
    <g
       transform="matrix(1.0180412,0,0,1.0180412,262.41223,513.57514)"
       style="fill:#161413;fill-rule:evenodd;stroke:none;stroke-width:1;stroke-linecap:butt;stroke-linejoin:miter;stroke-dasharray:none"
       id="g2305">
      <path
         d="M 1.3116,3.843 C 1.4063,5.155 2.2491,6.187 3.7491,6.187 C 4.8741,6.187 5.6231,5.812 5.9043,4.874 C 5.9043,4.874 7.3106,4.874 7.3106,4.874 C 7.0293,6.468 5.4356,7.03 3.8428,7.03 C 1.4063,7.03 0,5.718 0,3.655 C 0,1.313 1.4991,0 3.8428,0 C 6.1856,0 7.4043,1.219 7.4043,3.469 C 7.4043,3.469 7.4043,3.843 7.4043,3.843 C 7.4043,3.843 1.3116,3.843 1.3116,3.843 z M 3.8428,0.844 C 2.5303,0.844 1.5928,1.5 1.4063,3 C 1.4063,3 6.0918,3 6.0918,3 C 6.0918,1.5 4.9668,0.844 3.8428,0.844 z "
         id="path2307" />
    </g>
    <g
       transform="matrix(1.0180412,0,0,1.0180412,316.60807,513.67084)"
       style="fill:#161413;fill-rule:evenodd;stroke:none;stroke-width:1;stroke-linecap:butt;stroke-linejoin:miter;stroke-dasharray:none"
       id="g2309">
      <path
         d="M 3.6553,1.125 C 3.8428,1.125 4.123,1.125 4.5918,1.219 C 4.5918,1.219 4.5918,0.095 4.5918,0.095 C 4.4043,0 4.2168,0 3.8428,0 C 2.624,0 1.7803,0.656 1.3115,1.5 C 1.3115,1.5 1.2178,0.187 1.2178,0.187 C 1.2178,0.187 0,0.187 0,0.187 C 0,0.656 0.0937,1.125 0.0937,1.687 C 0.0937,1.687 0.0937,6.749 0.0937,6.749 C 0.0937,6.749 1.3115,6.749 1.3115,6.749 C 1.3115,6.749 1.3115,3.561 1.3115,3.561 C 1.3115,1.969 2.0615,1.125 3.6553,1.125 z "
         id="path2311" />
    </g>
    <g
       transform="matrix(1.0180412,0,0,1.0180412,356.29996,513.67084)"
       style="fill:#161413;fill-rule:evenodd;stroke:none;stroke-width:1;stroke-linecap:butt;stroke-linejoin:miter;stroke-dasharray:none"
       id="g2313">
      <path
         d="M 3.561,1.125 C 3.844,1.125 4.124,1.125 4.593,1.219 C 4.593,1.219 4.593,0.095 4.593,0.095 C 4.405,0 4.218,0 3.749,0 C 2.531,0 1.781,0.656 1.219,1.5 C 1.219,1.5 1.219,0.187 1.219,0.187 C 1.219,0.187 0,0.187 0,0.187 C 0,0.656 0,1.125 0,1.687 C 0,1.687 0,6.749 0,6.749 C 0,6.749 1.312,6.749 1.312,6.749 C 1.312,6.749 1.312,3.561 1.312,3.561 C 1.312,1.969 2.062,1.125 3.561,1.125 z "
         id="path2315" />
    </g>
    <g
       transform="matrix(1.0180412,0,0,1.0180412,293.04,513.86121)"
       style="fill:#161413;fill-rule:evenodd;stroke:none;stroke-width:1;stroke-linecap:butt;stroke-linejoin:miter;stroke-dasharray:none"
       id="g2317">
      <path
         d="M 3.5615,5.624 C 3.5615,5.624 1.5,0 1.5,0 C 1.5,0 0,0 0,0 C 0,0 2.625,6.562 2.625,6.562 C 2.625,6.562 4.4053,6.562 4.4053,6.562 C 4.4053,6.562 6.5605,1.032 6.5605,1.032 C 6.5605,1.032 8.9043,6.562 8.9043,6.562 C 8.9043,6.562 10.5908,6.562 10.5908,6.562 C 10.5908,6.562 13.2148,0 13.2148,0 C 13.2148,0 11.8096,0 11.8096,0 C 11.8096,0 9.7471,5.624 9.7471,5.624 C 9.7471,5.624 7.498,0 7.498,0 C 7.498,0 5.8115,0 5.8115,0 C 5.8115,0 3.5615,5.624 3.5615,5.624 z "
         id="path2319" />
    </g>
    <g
       transform="matrix(1.0180412,0,0,1.0180412,275.38829,511.09519)"
       style="fill:#161413;fill-rule:evenodd;stroke:none;stroke-width:1;stroke-linecap:butt;stroke-linejoin:miter;stroke-dasharray:none"
       id="g2321">
      <path
         d="M 4.1241,5.716 C 4.1241,5.716 1.3125,5.716 1.3125,5.716 C 1.3125,5.716 1.3125,9.279 1.3125,9.279 C 1.3125,9.279 0,9.279 0,9.279 C 0,9.279 0,0.093 0,0.093 C 0,0.093 3.9366,0.093 3.9366,0.093 C 6.7481,0 7.6856,1.218 7.6856,2.811 C 7.6856,4.499 6.5606,5.716 4.1241,5.716 z M 3.9366,1.031 C 3.9366,1.031 1.3125,1.031 1.3125,1.031 C 1.3125,1.031 1.3125,4.686 1.3125,4.686 C 1.3125,4.686 4.0303,4.686 4.0303,4.686 C 5.7178,4.686 6.2793,4.03 6.2793,2.811 C 6.2793,1.781 5.7178,1.031 3.9366,1.031 z "
         id="path2323" />
    </g>
    <g
       transform="matrix(1.0180412,0,0,1.0180412,283.97608,513.57514)"
       style="fill:#161413;fill-rule:evenodd;stroke:none;stroke-width:1;stroke-linecap:butt;stroke-linejoin:miter;stroke-dasharray:none"
       id="g2325">
      <path
         d="M 4.0302,7.03 C 1.4052,7.03 0,5.812 0,3.563 C 0,1.406 1.4052,0 4.0302,0 C 6.8418,0 8.1533,1.313 8.1533,3.563 C 8.1533,5.812 6.748,7.03 4.0302,7.03 z M 4.0302,0.844 C 2.249,0.844 1.3125,1.969 1.3125,3.563 C 1.3125,4.968 2.249,6.187 4.0302,6.187 C 5.9043,6.187 6.8418,4.968 6.8418,3.563 C 6.8418,1.969 5.9043,0.844 4.0302,0.844 z "
         id="path2327" />
    </g>
    <g
       transform="matrix(1.0180412,0,0,1.0180412,307.25675,513.57514)"
       style="fill:#161413;fill-rule:evenodd;stroke:none;stroke-width:1;stroke-linecap:butt;stroke-linejoin:miter;stroke-dasharray:none"
       id="g2329">
      <path
         d="M 1.2188,3.843 C 1.4063,5.155 2.1553,6.187 3.6553,6.187 C 4.7803,6.187 5.6241,5.812 5.9053,4.874 C 5.9053,4.874 7.2168,4.874 7.2168,4.874 C 6.9356,6.468 5.3428,7.03 3.7491,7.03 C 1.3125,7.03 0,5.718 0,3.655 C 0,1.313 1.4063,0 3.7491,0 C 6.0918,0 7.4043,1.219 7.4043,3.469 C 7.4043,3.469 7.4043,3.843 7.4043,3.843 C 7.4043,3.843 1.2188,3.843 1.2188,3.843 z M 3.7491,0.844 C 2.4375,0.844 1.5,1.5 1.3125,3 C 1.3125,3 5.9991,3 5.9991,3 C 5.9991,1.5 4.8741,0.844 3.7491,0.844 z "
         id="path2331" />
    </g>
    <g
       transform="matrix(1.0180412,0,0,1.0180412,361.64366,513.57514)"
       style="fill:#161413;fill-rule:evenodd;stroke:none;stroke-width:1;stroke-linecap:butt;stroke-linejoin:miter;stroke-dasharray:none"
       id="g2333">
      <path
         d="M 1.312,3.843 C 1.406,5.155 2.249,6.187 3.749,6.187 C 4.874,6.187 5.623,5.812 5.904,4.874 C 5.904,4.874 7.31,4.874 7.31,4.874 C 7.029,6.468 5.435,7.03 3.749,7.03 C 1.406,7.03 0,5.718 0,3.655 C 0,1.313 1.499,0 3.843,0 C 6.185,0 7.404,1.219 7.404,3.469 C 7.404,3.469 7.404,3.843 7.404,3.843 C 7.404,3.843 1.312,3.843 1.312,3.843 z M 3.843,0.844 C 2.53,0.844 1.499,1.5 1.406,3 C 1.406,3 6.092,3 6.092,3 C 6.092,1.5 4.967,0.844 3.843,0.844 z "
         id="path2335" />
    </g>
    <g
       transform="matrix(1.0180412,0,0,1.0180412,333.9733,510.9995)"
       style="fill:#161413;fill-rule:evenodd;stroke:none;stroke-width:1;stroke-linecap:butt;stroke-linejoin:miter;stroke-dasharray:none"
       id="g2337">
      <path
         d="M 4.404,0.844 C 4.686,0.844 5.154,0.937 5.811,1.031 C 5.811,1.031 5.811,0.094 5.811,0.094 C 5.342,0 4.779,0 4.123,0 C 2.249,0 1.687,0.937 1.687,2.53 C 1.687,2.53 1.687,2.811 1.687,2.811 C 1.687,2.811 0,2.811 0,2.811 C 0,2.811 0,3.655 0,3.655 C 0,3.655 1.687,3.655 1.687,3.655 C 1.687,3.655 1.687,9.373 1.687,9.373 C 1.687,9.373 2.905,9.373 2.905,9.373 C 2.905,9.373 2.905,3.655 2.905,3.655 C 2.905,3.655 5.623,3.655 5.623,3.655 C 5.623,3.655 5.623,2.811 5.623,2.811 C 5.623,2.811 2.905,2.811 2.905,2.811 C 2.905,2.811 2.905,2.25 2.905,2.25 C 2.905,1.219 3.374,0.844 4.404,0.844 z "
         id="path2339" />
    </g>
    <g
       transform="matrix(1.0180412,0,0,1.0180412,325.00436,513.57514)"
       style="fill:#161413;fill-rule:evenodd;stroke:none;stroke-width:1;stroke-linecap:butt;stroke-linejoin:miter;stroke-dasharray:none"
       id="g2341">
      <path
         d="M 4.124,7.03 C 1.406,7.03 0,5.812 0,3.563 C 0,1.406 1.5,0 4.124,0 C 6.841,0 8.248,1.313 8.248,3.563 C 8.248,5.812 6.748,7.03 4.124,7.03 z M 4.124,0.844 C 2.342,0.844 1.406,1.969 1.406,3.563 C 1.406,4.968 2.342,6.187 4.124,6.187 C 5.904,6.187 6.841,4.968 6.841,3.563 C 6.841,1.969 5.998,0.844 4.124,0.844 z "
         id="path2343" />
    </g>
    <g
       transform="matrix(1.0180412,0,0,1.0180412,380.05901,513.57514)"
       style="fill:#161413;fill-rule:evenodd;stroke:none;stroke-width:1;stroke-linecap:butt;stroke-linejoin:miter;stroke-dasharray:none"
       id="g2345">
      <path
         d="M 6.091,1.594 C 5.717,0.564 4.686,0 3.749,0 C 2.811,0 1.874,0.469 1.311,1.406 C 1.311,1.406 1.217,0.281 1.217,0.281 C 1.217,0.281 0,0.281 0,0.281 C 0,0.75 0.093,1.219 0.093,1.781 C 0.093,1.781 0.093,6.843 0.093,6.843 C 0.093,6.843 1.311,6.843 1.311,6.843 C 1.311,6.843 1.311,3.655 1.311,3.655 C 1.311,1.688 2.437,0.844 3.467,0.844 C 4.498,0.844 5.06,1.594 5.06,3.469 C 5.06,3.469 5.06,6.843 5.06,6.843 C 5.06,6.843 6.373,6.843 6.373,6.843 C 6.373,6.843 6.373,3.655 6.373,3.655 C 6.373,1.313 7.779,0.844 8.434,0.844 C 9.747,0.844 10.122,1.781 10.122,3.469 C 10.122,3.469 10.122,6.843 10.122,6.843 C 10.122,6.843 11.34,6.843 11.34,6.843 C 11.34,6.843 11.34,3 11.34,3 C 11.34,0.844 10.215,0 8.622,0 C 7.31,0 6.373,0.938 6.091,1.594 z "
         id="path2347" />
    </g>
    <g
       transform="matrix(1.0180412,0,0,1.0180412,393.22534,513.57514)"
       style="fill:#161413;fill-rule:evenodd;stroke:none;stroke-width:1;stroke-linecap:butt;stroke-linejoin:miter;stroke-dasharray:none"
       id="g2349">
      <path
         d="M 3.374,7.03 C 5.811,7.03 7.03,6.374 7.03,4.968 C 7.03,3.937 6.373,3.469 5.155,3.28 C 5.155,3.28 2.999,2.813 2.999,2.813 C 2.063,2.625 1.593,2.438 1.593,1.875 C 1.593,1.219 2.344,0.844 3.562,0.844 C 4.499,0.844 5.343,1.125 5.437,1.969 C 5.437,1.969 6.748,1.969 6.748,1.969 C 6.748,0.375 4.968,0 3.562,0 C 1.875,0 0.375,0.564 0.375,2.063 C 0.375,3.094 1.125,3.563 2.156,3.749 C 2.156,3.749 4.218,4.124 4.218,4.124 C 4.874,4.312 5.623,4.499 5.623,5.062 C 5.623,5.812 4.874,6.187 3.468,6.187 C 2.344,6.187 1.5,5.812 1.313,4.968 C 1.313,4.968 0,4.968 0,4.968 C 0.094,6.468 1.5,7.03 3.374,7.03 z "
         id="path2351" />
    </g>
    <g
       transform="matrix(1.0180412,0,0,1.0180412,345.13714,511.18987)"
       style="fill:#161413;fill-rule:evenodd;stroke:none;stroke-width:1;stroke-linecap:butt;stroke-linejoin:miter;stroke-dasharray:none"
       id="g2353">
      <path
         d="M 3.935,9.186 C 3.935,9.186 0,9.186 0,9.186 C 0,9.186 0,0 0,0 C 0,0 3.935,0 3.935,0 C 7.498,0 9.091,1.594 9.091,4.593 C 9.091,7.498 7.217,9.186 3.935,9.186 z M 3.561,0.938 C 3.561,0.938 1.405,0.938 1.405,0.938 C 1.405,0.938 1.405,8.155 1.405,8.155 C 1.405,8.155 3.748,8.155 3.748,8.155 C 6.935,8.155 7.684,6.467 7.684,4.593 C 7.684,2.157 6.842,0.938 3.561,0.938 z "
         id="path2355" />
    </g>
    <g
       transform="matrix(1.0180412,0,0,1.0180412,370.80298,513.57514)"
       style="fill:#161413;fill-rule:evenodd;stroke:none;stroke-width:1;stroke-linecap:butt;stroke-linejoin:miter;stroke-dasharray:none"
       id="g2357">
      <path
         d="M 5.718,6.843 C 5.718,6.843 6.935,6.843 6.935,6.843 C 6.935,6.468 6.935,6.093 6.935,5.53 C 6.935,5.53 6.935,2.344 6.935,2.344 C 6.935,0.75 5.624,0 3.749,0 C 2.344,0 0.656,0.375 0.469,1.969 C 0.469,1.969 1.875,1.969 1.875,1.969 C 1.969,1.313 2.625,0.844 3.749,0.844 C 4.874,0.844 5.624,1.313 5.624,2.438 C 5.624,2.438 5.624,2.719 5.624,2.719 C 5.624,2.719 4.874,2.719 4.874,2.719 C 3.374,2.719 0,2.625 0,4.874 C 0,6.187 1.125,7.03 2.812,7.03 C 4.124,7.03 4.968,6.937 5.624,5.905 C 5.624,5.905 5.718,6.843 5.718,6.843 z M 5.624,3.937 C 5.624,5.53 4.78,6.187 3.186,6.187 C 1.875,6.187 1.406,5.624 1.406,4.874 C 1.406,3.469 4.03,3.563 4.968,3.563 C 4.968,3.563 5.624,3.563 5.624,3.563 C 5.624,3.563 5.624,3.937 5.624,3.937 z "
         id="path2359" />
    </g>
    <g
       transform="matrix(1.0180412,0,0,1.0180412,376.52844,481.89777)"
       style="fill:#e11428;fill-rule:evenodd;stroke:none;stroke-width:1;stroke-linecap:butt;stroke-linejoin:miter;stroke-dasharray:none"
       id="g2361">
      <path
         d="M 0,20.9004 C 0,20.9004 0,18.0889 0,18.0889 C 0,18.0889 2.905,17.8076 2.905,17.8076 C 3.843,17.6201 4.218,16.7764 4.404,16.5889 C 4.404,16.5889 11.434,5.0615 11.434,5.0615 C 11.996,4.2178 11.434,3.374 10.684,3.2803 C 10.684,3.2803 7.029,2.9063 7.029,2.9063 C 7.029,2.9063 7.029,0 7.029,0 C 7.029,0 23.056,0 23.056,0 C 23.993,0 24.556,0.6563 24.931,1.2188 C 24.931,1.2188 34.303,15.5586 34.303,15.5586 C 35.053,16.6836 35.615,17.6201 36.552,17.7139 C 36.552,17.7139 39.551,17.9951 39.551,17.9951 C 39.551,17.9951 39.551,20.9004 39.551,20.9004 C 39.551,20.9004 21.463,20.9004 21.463,20.9004 C 21.463,20.9004 21.463,18.0889 21.463,18.0889 C 21.463,18.0889 23.712,17.8076 23.712,17.8076 C 24.837,17.7139 25.773,17.1514 24.837,15.8398 C 24.837,15.8398 23.993,14.5273 23.993,14.5273 C 23.993,14.5273 11.153,14.5273 11.153,14.5273 C 11.153,14.5273 10.122,16.1211 10.122,16.1211 C 9.559,17.0586 10.122,17.7139 11.059,17.8076 C 11.059,17.8076 13.402,18.0889 13.402,18.0889 C 13.402,18.0889 13.402,20.9004 13.402,20.9004 C 13.402,20.9004 0,20.9004 0,20.9004 z M 13.402,10.7783 C 13.402,10.7783 21.556,10.7783 21.556,10.7783 C 21.556,10.7783 17.433,4.4053 17.433,4.4053 C 17.433,4.4053 13.402,10.7783 13.402,10.7783 z "
         id="path2363" />
    </g>
    <g
       transform="matrix(1.0180412,0,0,1.0180412,343.32401,481.89777)"
       style="fill:#e11428;fill-rule:evenodd;stroke:none;stroke-width:1;stroke-linecap:butt;stroke-linejoin:miter;stroke-dasharray:none"
       id="g2365">
      <path
         d="M 20.619,0 C 20.619,0 0,0 0,0 C 0,0 0,2.9063 0,2.9063 C 0,2.9063 2.53,3.0938 2.53,3.0938 C 3.561,3.2803 3.936,3.9365 3.936,4.874 C 3.936,5.8115 3.936,15.3711 3.936,16.1211 C 3.936,16.9639 3.561,17.7139 2.717,17.8076 C 2.717,17.8076 0,18.1826 0,18.1826 C 0,18.1826 0,20.9004 0,20.9004 C 0,20.9004 20.619,20.9004 20.619,20.9004 C 30.178,20.9004 34.302,16.3086 34.302,10.123 C 34.302,4.6865 30.178,0 20.619,0 z M 17.432,16.8711 C 17.432,16.8711 12.09,16.8711 12.09,16.8711 C 12.09,16.8711 12.09,4.0303 12.09,4.0303 C 12.09,4.0303 17.432,4.0303 17.432,4.0303 C 22.588,4.0303 24.649,5.1553 24.649,10.4971 C 24.649,15.7461 22.588,16.8711 17.432,16.8711 z "
         id="path2367" />
    </g>
    <g
       style="fill:#e11428;fill-rule:evenodd;stroke:none;stroke-width:1;stroke-linecap:butt;stroke-linejoin:miter;stroke-dasharray:none"
       id="g2369"
       transform="matrix(1.0180412,0,0,1.0180412,228.92129,481.89777)">
      <path
         d="M 0,20.9004 C 0,20.9004 16.7763,20.9004 16.7763,20.9004 C 16.7763,20.9004 16.7763,18.0889 16.7763,18.0889 C 16.7763,18.0889 13.8711,17.8076 13.8711,17.8076 C 13.2148,17.7139 12.5595,17.3398 12.5595,15.9336 C 12.5595,15.9336 12.5595,12.5596 12.5595,12.5596 C 12.5595,12.5596 25.4931,12.5596 25.4931,12.5596 C 25.4931,12.5596 25.4931,15.7461 25.4931,15.7461 C 25.4931,16.6836 25.3056,17.6201 24.1806,17.7139 C 24.1806,17.7139 21.2754,17.9951 21.2754,17.9951 C 21.2754,17.9951 21.2754,20.9004 21.2754,20.9004 C 21.2754,20.9004 38.0517,20.9004 38.0517,20.9004 C 38.0517,20.9004 38.0517,17.9951 38.0517,17.9951 C 38.0517,17.9951 35.0527,17.7139 35.0527,17.7139 C 34.4902,17.6201 33.8349,17.1514 33.8349,16.0273 C 33.8349,16.0273 33.8349,5.1553 33.8349,5.1553 C 33.8349,4.0303 34.209,3.2803 35.1465,3.1865 C 35.1465,3.1865 38.0517,2.9063 38.0517,2.9063 C 38.0517,2.9063 38.0517,0 38.0517,0 C 38.0517,0 21.2754,0 21.2754,0 C 21.2754,0 21.2754,2.8125 21.2754,2.8125 C 21.2754,2.8125 24.1806,3.1865 24.1806,3.1865 C 25.2119,3.2803 25.4931,4.124 25.4931,5.1553 C 25.4931,5.1553 25.4931,8.3418 25.4931,8.3418 C 25.4931,8.3418 12.5595,8.3418 12.5595,8.3418 C 12.5595,8.3418 12.5595,5.0615 12.5595,5.0615 C 12.5595,3.8428 13.1211,3.2803 13.9648,3.1865 C 13.9648,3.1865 16.7763,2.9063 16.7763,2.9063 C 16.7763,2.9063 16.7763,0 16.7763,0 C 16.7763,0 0.09375,0 0.09375,0 C 0.09375,0 0.09375,2.9063 0.09375,2.9063 C 0.09375,2.9063 2.90528,3.1865 2.90528,3.1865 C 3.93653,3.2803 4.31153,4.124 4.21778,5.1553 C 4.21778,5.1553 4.21778,15.7461 4.21778,15.7461 C 4.21778,16.9639 3.93653,17.7139 2.81153,17.8076 C 2.81153,17.8076 0,18.0889 0,18.0889 C 0,18.0889 0,20.9004 0,20.9004 z "
         id="path2371" />
    </g>
    <g
       transform="matrix(1.0180412,0,0,1.0180412,268.42305,481.13526)"
       style="fill:#e11428;fill-rule:evenodd;stroke:none;stroke-width:1;stroke-linecap:butt;stroke-linejoin:miter;stroke-dasharray:none"
       id="g2373">
      <path
         d="M 0,11.1523 C 0,4.5918 5.3428,0 17.1514,0 C 28.8672,0 34.209,4.5918 34.209,11.1523 C 34.209,17.8076 28.8672,22.399 17.1514,22.399 C 5.3428,22.399 0,17.8076 0,11.1523 z M 17.1514,3.9355 C 12.3721,3.9355 9.6534,5.7168 9.6534,11.1523 C 9.6534,16.6826 12.3721,18.4629 17.1514,18.4629 C 21.8379,18.4629 24.5557,16.6826 24.5557,11.1523 C 24.5557,5.7168 21.8379,3.9355 17.1514,3.9355 z "
         id="path2375" />
    </g>
    <g
       transform="matrix(1.0180412,0,0,1.0180412,304.20364,481.89777)"
       style="fill:#e11428;fill-rule:evenodd;stroke:none;stroke-width:1;stroke-linecap:butt;stroke-linejoin:miter;stroke-dasharray:none"
       id="g2377">
      <path
         d="M 0,20.9004 C 0,20.9004 13.3086,20.9004 13.3086,20.9004 C 13.3086,20.9004 13.3086,18.0889 13.3086,18.0889 C 13.3086,18.0889 10.4971,17.8076 10.4971,17.8076 C 9.6533,17.7139 9.1846,17.0586 9.1846,16.0273 C 9.1846,16.0273 9.1846,5.4365 9.1846,5.4365 C 9.1846,5.4365 20.2451,20.0576 20.2451,20.0576 C 20.6191,20.6191 21.3691,20.9004 22.0251,20.9004 C 22.0251,20.9004 32.5221,20.9004 32.5221,20.9004 C 32.5221,20.9004 32.5221,5.0615 32.5221,5.0615 C 32.5221,4.3115 32.7101,3.2803 33.7401,3.1865 C 33.7401,3.1865 36.6461,2.9063 36.6461,2.9063 C 36.6461,2.9063 36.6461,0 36.6461,0 C 36.6461,0 23.3371,0 23.3371,0 C 23.3371,0 23.3371,2.8125 23.3371,2.8125 C 23.3371,2.8125 26.2431,3.1865 26.2431,3.1865 C 27.2731,3.2803 27.4611,4.2178 27.4611,5.1553 C 27.4611,5.1553 27.4611,15.4648 27.4611,15.4648 C 27.4611,15.4648 16.4951,0.9375 16.4951,0.9375 C 16.0274,0.375 15.4649,0 14.7149,0 C 14.7149,0 0,0 0,0 C 0,0 0,2.9063 0,2.9063 C 0,2.9063 2.7178,3.1865 2.7178,3.1865 C 3.749,3.374 4.124,3.8428 4.124,5.1553 C 4.124,5.1553 4.124,15.7461 4.124,15.7461 C 4.124,17.0586 3.749,17.6201 2.7178,17.8076 C 2.7178,17.8076 0,18.0889 0,18.0889 C 0,18.0889 0,20.9004 0,20.9004 z "
         id="path2379" />
    </g>
  </g>
</svg>
