<?xml version="1.0" encoding="utf-8"?>
<!-- Generator: Adobe Illustrator 14.0.0, SVG Export Plug-In . SVG Version: 6.00 Build 43363)  -->
<!DOCTYPE svg PUBLIC "-//W3C//DTD SVG 1.1//EN" "http://www.w3.org/Graphics/SVG/1.1/DTD/svg11.dtd">
<svg version="1.1" id="Layer_1" xmlns="http://www.w3.org/2000/svg" xmlns:xlink="http://www.w3.org/1999/xlink" x="0px" y="0px"
	 width="250px" height="97px" viewBox="0 0 250 97" enable-background="new 0 0 250 97" xml:space="preserve">
<g>
	<path fill="#FFFFFF" d="M241.525,29.976c-5.409-13.918-17.035-23.507-29.634-24.433L157.82,5.405l-37.797-0.107l0.001,0.072
		L39.996,5.297L39.878,5.3c-6.722,0.263-12.862,2.468-18.293,6.587C11.043,20.194,4.998,33.656,4.999,48.821
		c0,0.736,0.014,1.477,0.042,2.211c0.561,15.941,9.312,31.245,21.301,37.271c5.089,3.085,10.929,3.513,16.485,3.513
		c1.142,0,2.292-0.018,3.441-0.036c1.121-0.018,2.242-0.035,3.358-0.035h0.128l0,0.141l4.075-0.017l0.294,0.021l0.16-0.006
		c0.092-0.003,0.184-0.009,0.287-0.018l13.488-0.053l21.828,0.072l1.294-0.062l0.003-0.004l120.68,0.044l0.266-0.012
		c10.995-0.998,20.542-7.735,26.855-18.925c3.822-6.477,6.014-15.396,6.013-24.468C244.998,41.668,243.797,35.278,241.525,29.976z"
		/>
	<path fill="#00904C" d="M153.189,9.063c0.73-0.241,1.588-0.077,2.246,0.412c0.729,0.577,0.926,1.64,0.99,2.621
		c0.528,0.001,0.794,0.821,0.925,1.312c0.067,0.901-0.399,1.801-1.124,2.045c-4.364,2.451-8.595,5.314-12.236,9.812
		c1.456-3.272,2.386-7.037,1.795-11.132c-0.132-1.309-1.383-2.62-0.456-4.01c0.395-0.737,0.991-1.309,1.783-1.146
		c0.727-0.408,1.651,1.476,1.784-0.245C150.091,7.346,152.533,7.18,153.189,9.063"/>
	<path fill="#00904C" d="M142.354,8.316c-1.126,0.004-2.048,0.49-2.976,1.226c-1.588-0.654-3.304-0.001-4.558,1.145l-0.529,0.899
		l-95.69-0.009c-9.188,0.812-17.98,7.599-22.354,18.156c-4.964,10.965-3.66,27.178,2.943,36.677
		c5.275,7.866,12.078,11.967,19.945,12.546l28.678,0.026c11.499-0.401,22.206-3.419,31.666-9.877
		c-9.592,8.012-20.5,12.426-31.473,16.588c-4.493,1.469-8.926,3.103-13.816,3.265c-8.988-0.663-18.832,1.457-26.429-3.218
		C16.534,80.163,8.484,65.664,7.967,50.929c-0.581-15.063,5.052-28.565,15.43-36.743c4.961-3.763,10.447-5.721,16.596-5.962
		L142.354,8.316"/>
	<path fill="#00904C" d="M211.678,8.461c11.298,0.83,22.127,9.682,27.138,22.622c5.143,11.955,4.071,29.475-2.351,40.356
		c-5.956,10.557-14.748,16.604-24.599,17.497L68.069,88.885c8.264-2.037,15.934-5.797,23.47-9.879l120.669,0.025
		c9.054-0.973,17.848-8.415,21.89-18.974c4.636-10.966,3.064-26.601-3.403-35.942c-5.276-7.698-12.018-11.878-19.883-12.378
		l-51.214-0.047l-1.78-3.358L211.678,8.461"/>
	<path fill="#00904C" d="M143.541,12.33c2.634,9.746-3.85,17.6-9.538,23.405c1.854-3.437,4.764-7.118,3.184-11.542
		c-1.057-3.031-5.748-2.214-4.224-6.55c0.463-1.31,1.523-2.619,2.777-2.538c-0.2-0.819-0.065-2.129,0.795-2.452
		c1.058-0.408,2.578-0.651,3.637,0.004c0.197-0.902,0.99-1.069,1.584-1.314C142.481,11.266,143.212,11.43,143.541,12.33"/>
	<path fill="#00904C" d="M159.395,19.304c0.99,1.556-1.256,2.945,0.196,4.095c0.194,1.145,0.26,2.537-0.27,3.52
		c-0.528,1.063-1.454,1.555-2.316,1.715c0.135,0.901-0.132,1.803-0.727,2.458c-0.596,0.732-1.456,1.225-2.248,0.732
		c-1.124-1.31-1.253-3.767-3.037-4.422c-3.103-1.151-6.016,0.815-8.656,2.201c4.56-4.498,9.788-8.75,15.208-11.525
		C158.339,17.994,158.998,18.487,159.395,19.304"/>
	<path fill="#D2232A" d="M55.639,22.484l0.397,0.491c-1.66,8.267-3.45,16.451-5.178,24.716c3.57-2.531,7.273-5.148,11.31-6.536
		l3.379-15.309c0.001-1.311-1.119-2.044-0.392-3.438c3.769,0.335,7.664,0.089,11.364,0.177l0.333,0.493l-8.958,43.216
		c-0.001,0.487,0.13,0.979,0.525,1.389l-0.464,2.211c-3.703-0.329-7.665-0.496-11.303,0.154c-0.458-0.576-0.129-1.64-0.062-2.295
		l4.38-20.543c-3.966,0.65-7.8,2.205-11.104,5.068l-2.79,13.748c-0.068,0.657,0.261,1.23,0.528,1.803l-0.466,2.047
		c-3.699-0.331-7.665-0.498-11.299,0.153c-0.463-0.74-0.196-1.802,0.001-2.538l8.894-41.988c-0.131-0.571-0.194-1.149-0.661-1.474
		l0.266-1.638C48.042,22.64,51.941,22.563,55.639,22.484"/>
	<path fill="#D2232A" d="M220.256,22.715l0.327,0.41l-2.854,13.996l-6.106,28.973c0.001,0.656,0.063,1.23,0.528,1.719l-0.399,2.211
		c-3.768-0.328-7.729-0.496-11.363,0.154c-0.463-0.738-0.132-1.8,0-2.619l8.894-41.905c-0.066-0.494-0.266-0.983-0.594-1.393
		l0.266-1.722C212.655,22.874,216.556,22.63,220.256,22.715"/>
	<path fill="#D2232A" d="M133.345,33.525l-0.001,1.227l-6.089,9.164c-0.133,0.08-0.396,0.078-0.527,0
		c-0.265-0.986,0.265-2.376-0.459-3.193c-0.596-0.738-1.587-0.657-2.378-0.41c-3.572,1.551-5.821,6.295-7.148,10.303l-3.053,15.393
		c0,0.733,0.132,1.306,0.529,1.882l-0.467,2.047c-3.702-0.33-7.665-0.498-11.303,0.152c-0.459-0.734-0.195-1.8,0.004-2.535
		l5.175-25.129c-0.129-0.409-0.193-0.902-0.591-1.232l0.201-1.633c3.37,0.329,7.267,0.005,10.638,0.007
		c0.397,1.23-1.392,2.537-0.071,3.602c3.113-5.153,7.151-13.011,13.36-11.531C132.025,31.969,133.081,32.295,133.345,33.525"/>
	<path fill="#D2232A" d="M201.471,40.708c1.253,2.702,1.184,6.469,0.652,9.58l-18.173,0.065c-0.798,4.337-1.067,10.069,1.772,13.183
		c2.905,2.377,6.94,0.822,9.58-1.139l2.778-2.615l1.587,2.049c-5.293,6.462-12.502,11.366-19.969,7.836
		c-2.772-1.147-5.083-4.669-5.608-8.104c-1.116-7.696,0.608-15.148,5.506-20.137c4.96-4.908,11.9-6.946,18.308-4.403
		C199.29,37.677,200.68,38.99,201.471,40.708"/>
	<path fill="#D2232A" d="M171.204,39.205c1.719,2.376,1.913,5.734,1.443,8.845l-3.646,18.007c-0.002,0.656,0.13,1.227,0.526,1.718
		l-0.4,2.128c-3.635-0.164-7.664-0.415-11.364,0.233c-0.658-0.899,0.065-2.044,0.066-2.944l4.582-21.935
		c0.13-1.063-0.197-1.967-0.592-2.784c-0.597-0.902-1.652-0.657-2.312-0.333c-2.648,1.962-4.106,5.402-4.966,8.759l-3.053,15.388
		c-0.001,0.573,0.195,0.983,0.457,1.474l-0.329,2.13c-3.7-0.168-7.732-0.419-11.366,0.233l-0.332-0.655
		c1.465-8.021,3.386-15.796,4.911-23.817c0.07-1.31,0.07-2.538-0.723-3.358c-0.527-0.739-1.455-0.493-2.114-0.168
		c-2.446,1.636-3.838,4.827-4.765,7.777l-3.252,16.448c-0.002,0.494,0.131,0.982,0.528,1.395l-0.469,2.209
		c-3.698-0.331-7.664-0.498-11.364,0.153c-0.461-0.571-0.132-1.636,0.002-2.291l4.177-19.81c-0.061-0.491-0.591-0.162-0.658-0.736
		l0.068-0.737l11.307-8.339c0.66-0.162,1.454-0.081,1.654,0.738c0.067,1.228-0.596,2.209-0.401,3.355
		c0.926-0.082,1.059-1.636,1.854-2.292c2.514-3.187,6.478-4.004,9.913-2.69c1.85,0.82,3.633,3.115,3.894,5.571
		c3.379-4.662,7.873-7.358,13.026-6.458C168.896,36.833,170.213,37.816,171.204,39.205"/>
	<path fill="#D2232A" d="M101.879,42.746c2.838,5.488,1.113,13.185-1.799,18.007C95.314,68.2,88.307,72.367,80.645,70.56
		c-3.567-0.984-7.268-4.999-7.859-9.666c-1.113-8.923,3.388-16.862,9.472-21.193c4.364-3.188,10.644-4.413,15.465-1.626
		C99.241,39.061,100.893,40.779,101.879,42.746"/>
	<path fill="#FFFFFF" d="M93.357,41.182c2.107,6.96-0.013,14.492-2.597,20.465c-1.258,2.701-3.641,6.75-5.888,6.544
		c-0.792-0.001-1.452-0.492-1.979-1.229c-2.177-4.341-0.916-10.564,0.076-15.063c1.528-4.666,4.421-11.848,7.613-12.52
		C91.709,39.137,92.828,39.871,93.357,41.182"/>
	<path fill="#FFFFFF" d="M192.217,41.189c0.923,1.802,0.596,4.425-0.468,6.057c-2.243,0.244-4.626,0.081-6.937,0.078
		c0.663-2.866,2.118-6.627,4.96-7.116C190.7,40.126,191.559,40.29,192.217,41.189"/>
</g>
</svg>
