<?xml version="1.0" encoding="UTF-8" standalone="no"?>
<svg
   xmlns:dc="http://purl.org/dc/elements/1.1/"
   xmlns:cc="http://creativecommons.org/ns#"
   xmlns:rdf="http://www.w3.org/1999/02/22-rdf-syntax-ns#"
   xmlns:svg="http://www.w3.org/2000/svg"
   xmlns="http://www.w3.org/2000/svg"
   xmlns:sodipodi="http://sodipodi.sourceforge.net/DTD/sodipodi-0.dtd"
   xmlns:inkscape="http://www.inkscape.org/namespaces/inkscape"
   version="1.1"
   id="Layer_1"
   x="0px"
   y="0px"
   width="749"
   height="198"
   viewBox="0 0 749 198"
   enable-background="new 0 0 612 792"
   xml:space="preserve"><defs
   id="defs58"><clipPath
     clipPathUnits="userSpaceOnUse"
     id="clipPath3037"><polygon
       id="polygon3039"
       points="575.911,329.114 575.911,410.824 494.237,410.824 494.237,329.114 494.237,329.114 " /></clipPath></defs>
<polygon
   id="polygon5"
   points="581.036,469.667 30,469.667 30,324 30,324 581.036,324 "
   clip-path="none"
   transform="matrix(1.3592578,0,0,1.3592578,-40.777734,-440.39854)" /><polygon
   style="fill:#f99d27"
   id="polygon7"
   points="489.225,410.823 35.032,410.823 35.032,329.098 35.032,329.098 489.225,329.098 "
   clip-path="none"
   transform="matrix(1.3592578,0,0,1.3592578,-40.777734,-440.39854)" /><polygon
   style="fill:#fffcd5"
   id="polygon9"
   points="575.934,464.597 35.032,464.597 35.032,415.943 35.032,415.943 575.934,415.943 "
   clip-path="none"
   transform="matrix(1.3592578,0,0,1.3592578,-40.777734,-440.39854)" /><path
   inkscape:connector-curvature="0"
   id="path11"
   d="m 139.08096,175.69344 c 1.7191,-1.54249 -0.7101,-3.02748 -1.12693,-4.50938 -3.14278,-3.43388 -8.00343,-0.168 -11.91676,-2.07199 -1.48127,-1.83799 1.2454,-2.60589 1.00856,-4.14828 0.7704,-1.0098 -0.238,-1.90079 -0.356,-2.91059 0.296,-1.65829 -1.00893,-2.72439 -0.88869,-4.38428 0.5919,-0.168 0.77039,-1.124 1.48169,-0.888 1.83746,1.066 3.67494,-0.68099 5.39479,0.594 0.94889,-0.51 2.01586,-0.51 2.84596,-1.42199 0.4139,-0.494 -0.118,-1.4241 0.296,-2.01809 1.89765,-0.839 -0.474,-1.7225 -0.5919,-2.72929 -1.77913,-3.55189 -5.63263,-0.503 -8.24142,-1.89599 -2.19385,-0.503 -0.296,-2.48789 -0.178,-3.67189 0.178,-2.25619 -1.95585,-5.16148 0.356,-6.99727 3.31973,-1.36199 7.17327,0.594 10.55222,-1.006 l 1.24492,-2.48968 -1.24492,-3.38189 c -0.7704,-0.594 -1.95586,-0.694 -2.96479,-0.503 -1.18492,-0.88599 -2.54853,0.104 -3.91171,-0.336 -3.7353,0.836 -7.46942,0.09 -11.26419,0.505 -2.19386,1.89699 -0.11799,5.09618 -0.82849,7.64697 l -0.178,7.17187 c 0.5919,2.07509 -0.091,4.68358 0.356,6.75897 l -0.238,4.50438 c 0.534,4.21008 -0.5919,8.77366 -0.2359,13.22214 -0.2359,1.4215 -0.178,3.02259 0.118,4.38479 0.474,0.94699 1.65942,1.18679 2.66685,1.36489 1.48142,-0.426 3.26085,0.679 4.8607,-0.09 2.84593,0.51 5.6327,0.258 8.59572,0.336 1.36471,-0.29 3.0844,-0.487 4.3893,-1.0699 l 0,0 z"
   clip-path="none" /><path
   inkscape:connector-curvature="0"
   id="path13"
   d="m 160.58809,168.93207 c -0.089,-2.19189 0.416,-4.68108 -1.00701,-6.52247 -0.23589,-0.698 0.2359,-1.42479 -0.41389,-1.95679 -2.25352,-0.256 -2.5485,-2.96189 -4.86181,-3.31589 -0.9488,-1.83599 -2.90479,-2.07299 -4.38664,-3.02339 -1.00833,-1.30679 -2.19385,-2.49398 -1.7192,-4.33188 0.534,-0.59199 1.12677,-1.71809 2.13413,-1.65809 1.65955,0.09 2.13385,1.83609 2.90474,2.90199 1.24497,1.84059 3.55682,0.297 5.15668,0.335 1.30492,-0.1 1.95605,-1.4814 2.01584,-2.48979 -0.534,-0.889 0.296,-2.07369 -0.3539,-2.90409 -2.13399,-0.506 -2.90472,-3.26009 -5.27664,-3.31979 -2.25228,-1.60189 -4.56438,-0.42599 -7.35084,-0.83699 l -2.13408,1.77989 c -0.474,0.492 -1.24511,0.424 -1.30353,1.24549 -2.49018,1.1253 -1.7195,4.02899 -2.78652,5.98528 -0.118,3.61788 2.19384,6.87787 5.27665,8.83366 1.36335,2.07449 4.09003,2.48929 5.51318,4.56448 0.53399,1.5423 2.07421,3.43729 0.77039,5.21668 -0.77039,1.30369 -2.37194,0.507 -3.43898,0.336 -0.8288,-0.838 -1.95598,-1.83909 -2.13405,-3.14239 -0.652,-2.60829 -3.26097,-0.89199 -5.04005,-1.00839 -1.83768,0.29799 -0.9488,2.37149 -1.42175,3.61668 1.54127,1.83779 2.01575,4.38658 4.38769,5.57348 3.67536,1.89719 9.42641,2.42999 12.7443,-0.493 2.5486,-0.505 2.43043,-3.49639 2.7266,-5.45418 l 0,0 z"
   clip-path="none" /><path
   style="fill-rule:evenodd"
   inkscape:connector-curvature="0"
   id="path15"
   d="m 199.79588,146.94167 c 0.236,-1.066 -0.71009,-1.6 -0.88869,-2.54989 -0.356,-1.0098 -1.42293,-1.3068 -2.25185,-1.6038 -1.77954,-0.89299 -2.07456,1.4256 -3.67572,1.3068 -1.24491,-1.3662 -3.02276,-1.782 -4.80214,-2.07859 -1.24541,-0.482 -2.37203,0.49499 -3.55726,0.09 -1.83785,1.54109 -4.5057,1.65919 -5.15676,4.38638 0.356,1.66149 -1.36372,2.84668 -0.8306,4.50628 0.8306,2.72589 -0.089,5.33468 0.296,7.94356 -0.53399,1.5414 0.236,3.02399 0.5919,4.44539 0.7101,1.36299 3.14258,2.01459 2.43057,3.79458 -1.83785,1.48149 -3.25972,3.08259 -3.08278,5.57218 0.178,1.77899 2.13385,2.31169 2.60843,3.73548 -0.356,1.30409 -1.7195,1.83819 -2.78642,2.43079 -1.89786,1.36329 -1.71987,3.97108 -1.18694,6.04507 1.36374,1.0676 2.72679,2.60939 4.56465,2.66919 2.07385,1.83769 5.09864,0.677 7.46926,1.6012 2.66802,-0.492 4.97986,-1.9562 7.52864,-2.72829 0.88869,-1.3042 1.60111,-2.49099 1.06692,-4.03209 2.01586,-1.71899 0.8285,-4.44528 0.8887,-6.63957 0.089,-1.30439 -1.60092,-1.42379 -2.07384,-2.66889 -2.07586,-0.09 -3.61693,-2.36979 -5.75122,-1.48119 -1.83756,-0.697 -3.85323,-0.107 -5.51299,-0.836 -0.77039,-0.298 -1.77784,-1.00699 -1.71984,-2.01549 2.54878,-2.48849 7.23283,-0.09 9.18895,-3.37748 3.7351,-1.0669 0.7101,-5.51488 2.25217,-7.94507 -0.356,-1.60109 -0.296,-3.20059 -0.089,-4.86098 0.178,-1.00729 -0.178,-2.49009 0.474,-3.61538 1.42587,-0.428 3.32204,-0.506 3.97449,-2.0755 l 0,0 z m -10.8482,12.68304 c -0.118,1.0061 -1.06693,1.60009 -1.77784,2.07209 -0.474,0.496 -1.24493,0.118 -1.83781,0 -0.77,-0.424 -0.8887,-1.42199 -1.12662,-2.18999 0.296,-2.13189 1.42163,-4.32408 0.7701,-6.52187 -0.652,-1.1874 -0.474,-2.60929 -0.238,-3.97138 0.652,-0.946 1.83766,-1.4819 2.84632,-0.886 2.90478,3.25579 0.29599,7.58927 1.36328,11.49905 l 0,0 z m 3.55774,20.51071 c -0.1759,0.836 -0.1759,1.7771 -1.0077,2.37109 -2.31204,0.594 -4.86082,0.336 -6.99466,-0.70199 -0.7101,-1.422 -0.534,-3.31889 1.06692,-4.09109 1.06692,-0.33299 2.4308,-0.29599 3.26077,0.09 0.8291,-0.33599 1.89787,-0.59399 2.66697,0.258 0.6499,0.507 1.0077,1.3033 1.0077,2.13369 l 0,0 z"
   clip-rule="evenodd"
   clip-path="none" /><path
   style="fill-rule:evenodd"
   inkscape:connector-curvature="0"
   id="path17"
   d="m 210.38484,132.53163 c -1.4814,-2.37069 -3.73525,-1.8987 -6.16568,-1.8388 -2.13423,0.836 -0.7101,3.56139 -1.77804,5.22158 0.2359,0.503 0.5319,1.4219 1.18569,1.4219 2.01585,0.168 4.2097,1.12399 5.98756,-0.168 2.84583,-0.948 -0.2359,-3.14429 0.7704,-4.62628 l 0,0 z m 0.356,40.31253 c -1.59988,-1.4256 -1.12694,-3.67599 -0.8288,-5.51208 -0.88879,-1.89589 0.089,-3.73449 0.534,-5.51648 -0.416,-3.14268 -1.18695,-6.04267 -0.2359,-9.12766 -0.356,-0.297 -0.534,-0.711 -0.356,-1.0098 1.77785,-2.31069 -0.178,-4.85857 0.356,-7.34576 -0.652,-1.485 -1.95585,-2.25719 -3.67572,-2.13839 -1.12683,0.33599 -2.54846,-0.09 -3.55677,1.12859 -1.59985,3.20099 1.00831,7.34697 -0.7704,10.73155 0.9488,4.56269 0.296,9.78106 0.296,14.46394 v 1.8961 c 0.4139,1.83789 -1.12683,4.68718 1.24508,5.63727 1.95597,-0.118 4.3861,1.0659 6.04575,-0.336 0.8288,-0.70599 0.9476,-1.78119 0.9476,-2.84818 l 0,0 z"
   clip-rule="evenodd"
   clip-path="none" /><path
   style="fill-rule:evenodd"
   inkscape:connector-curvature="0"
   id="path19"
   d="m 234.43805,146.52567 c -1.6009,-1.1241 -2.07382,-3.38129 -4.26768,-3.73769 -2.66851,-0.83599 -5.74957,-0.09 -7.94342,1.485 -0.5919,0.09 -0.7101,-0.681 -0.7704,-1.0692 0.7101,-1.30549 1.77786,-2.60959 1.12693,-4.14948 -0.9488,-2.36989 0.4139,-4.68128 -0.474,-7.11527 -1.83768,-1.1862 -3.7352,-0.503 -5.92792,-0.764 -0.53399,0.336 -0.76989,0.764 -0.94849,1.3621 0.089,4.03418 0.2359,7.53126 0.118,11.67785 0.296,1.48499 -0.474,3.08778 0.118,4.62878 l -0.356,15.88393 0.238,2.37459 c 0.7101,3.37599 -1.95604,7.58477 1.36306,9.78116 1.71975,-0.592 3.61699,0.1 5.09865,-1.0688 2.96474,0.168 5.63157,1.84089 8.35829,1.0096 1.65962,-1.4248 4.50461,-2.43419 3.43884,-5.34008 -0.118,-0.762 -0.474,-1.18379 -0.091,-1.83579 0.296,-2.48809 -0.2359,-5.27728 -0.118,-7.59147 -0.474,-1.65789 1.24509,-2.84389 0.296,-4.61788 0.118,-3.50228 -1.06836,-7.88737 0.7101,-10.90865 l 0,0 z m -8.24101,6.75627 c 0.296,5.39488 -0.356,10.90965 -0.089,16.30223 0.089,1.00589 -0.88869,1.30399 -1.65965,1.65789 -1.24506,0.258 -1.83772,-0.88799 -2.49019,-1.53989 -0.534,-1.302 0.414,-2.60599 0.118,-3.90798 l 0.416,-1.1274 c -0.296,-1.84139 -0.8303,-3.73788 -0.118,-5.39798 -0.534,-2.07189 0.296,-4.32388 -0.7703,-6.16507 0.8887,-1.4242 -0.7101,-3.79418 1.59986,-4.26818 0.71009,-0.168 1.5414,-0.491 2.25227,0 0.83029,1.24389 0.94869,3.02198 0.71009,4.44638 l 0,0 z"
   clip-rule="evenodd"
   clip-path="none" /><path
   inkscape:connector-curvature="0"
   id="path21"
   d="m 254.22618,172.48776 c 0.296,-0.592 -0.356,-1.0098 -0.88869,-1.2474 -1.06692,-2.42809 -4.02985,-0.88999 -5.3946,-2.96229 -0.296,-1.00589 -0.8887,-2.12999 -0.118,-2.96188 -0.416,-3.91639 1.30311,-7.70727 0.178,-11.44025 1.303,-1.485 -0.238,-2.91049 -0.238,-4.50849 1.00824,-0.94599 2.54861,-0.42599 3.79476,-0.59399 1.06692,-0.764 3.14279,-1.1238 2.54879,-3.01979 -1.12692,-0.682 0.118,-2.01529 -0.77039,-2.84689 -1.65973,-0.118 -2.96454,-0.76599 -4.74257,-0.83899 -2.43001,-0.764 -0.091,-2.96599 -0.356,-4.62338 1.3038,-0.89 0.089,-1.836 -0.118,-2.84399 -0.8887,-1.3042 -2.6088,-1.7794 -4.26815,-1.423 -0.829,0.426 -2.43035,0.09 -3.08281,1.245 l 0.474,6.22227 -0.178,1.2451 c -0.178,1.36579 -1.36365,0.94799 -2.49032,1.12819 -0.7704,0.336 -0.7704,1.1857 -1.18647,1.95569 -0.29599,1.0659 -0.29599,2.66589 0.7101,3.49479 0.296,-0.1 0.534,0.09 0.5919,-0.168 0.83,-0.503 1.83785,0.09 2.25216,0.7 0.594,4.44708 -0.296,9.48486 0.416,14.05024 l -0.594,1.42209 c 0.652,3.79378 -0.6499,8.53716 2.96479,11.14335 2.60858,0.336 6.04756,1.1873 8.53741,0.258 0.892,-1.00819 2.31384,-1.89909 1.95758,-3.38108 l 0,0 z"
   clip-path="none" /><path
   style="fill-rule:evenodd"
   inkscape:connector-curvature="0"
   id="path23"
   d="m 280.44895,132.53163 c -1.48119,-2.37069 -3.73475,-1.8987 -6.16556,-1.8388 -2.13384,0.836 -0.7101,3.56139 -1.77785,5.22158 0.23599,0.503 0.53189,1.4219 1.18554,1.4219 2.01563,0.168 4.20946,1.12399 5.9875,-0.168 2.84623,-0.948 -0.236,-3.14429 0.76989,-4.62628 l 0,0 z m 0.356,40.31253 c -1.6016,-1.4256 -1.12691,-3.67599 -0.8306,-5.51208 -0.88869,-1.89589 0.089,-3.73449 0.534,-5.51648 -0.4139,-3.14268 -1.18617,-6.04267 -0.2359,-9.12766 -0.356,-0.297 -0.53399,-0.711 -0.356,-1.0098 1.77794,-2.31069 -0.17799,-4.85857 0.356,-7.34576 -0.65199,-1.485 -1.95611,-2.25719 -3.67571,-2.13839 -1.12693,0.33599 -2.54879,-0.09 -3.55708,1.12859 -1.59983,3.20099 1.00829,7.34697 -0.77039,10.73155 0.94859,4.56269 0.296,9.78106 0.296,14.46394 v 1.8961 c 0.41399,1.83789 -1.12693,4.68718 1.24492,5.63727 1.95598,-0.118 4.3877,1.0659 6.04757,-0.336 0.8285,-0.70599 0.9474,-1.78119 0.9474,-2.84818 l 0,0 z"
   clip-rule="evenodd"
   clip-path="none" /><path
   inkscape:connector-curvature="0"
   id="path25"
   d="m 313.51465,173.02235 c -1.0672,-0.59199 -0.296,-1.78199 -0.414,-2.67028 -0.47399,-4.08589 -0.53399,-7.94247 -0.35599,-12.03125 0.29599,-1.126 -0.5919,-1.95389 -0.089,-2.96389 -0.178,-2.07499 -0.8303,-4.74538 0.77029,-6.46547 0.5919,-1.7179 -0.236,-3.37379 -1.00859,-4.85608 -1.42178,-1.84139 -4.20825,-2.07899 -6.46191,-1.90079 -1.89753,0.16799 -3.02299,1.90079 -4.86072,2.19709 -0.82869,-0.258 -0.77029,-1.2467 -1.30354,-1.8407 -1.24508,-0.89099 -3.25951,-0.59199 -4.74244,-0.29899 -1.42314,-0.09 -2.01578,1.78049 -3.43759,1.54259 -1.24506,1.06749 -1.48159,-0.764 -2.25228,-1.3644 -1.42316,-0.70999 -2.78646,0.256 -4.38769,0.1 -0.77029,0.09 -0.59189,0.89 -0.88869,1.4238 0.118,5.39338 0.296,10.25555 0.118,15.88583 -0.118,4.80128 -0.118,9.54346 -0.3539,14.40644 0.6499,3.02279 3.85352,1.30429 5.80947,2.01469 1.06703,-1.24459 1.5414,-2.66709 1.48162,-4.26878 -1.30355,-1.54199 0.65199,-3.79448 -0.4139,-5.69238 0.5919,-1.30419 -0.178,-3.08118 0.089,-4.32648 -0.178,-3.73648 0.356,-7.88546 -0.236,-11.97735 0.7101,-1.30339 2.19383,-1.48149 3.37907,-2.07439 1.3633,0.765 0.7101,2.90629 1.067,4.38928 -0.356,3.61379 0.178,7.23127 -0.534,11.02596 0.8302,2.66688 -0.64989,5.03757 0.178,7.82446 0.118,1.0682 -0.77039,2.13489 -0.296,3.25949 0.178,2.60969 2.78637,0.764 4.0315,1.66029 1.36342,-0.168 2.78648,0.258 3.14257,-1.36249 0.474,-3.85369 -0.82869,-8.06337 -0.2359,-11.91575 -1.00735,-1.364 0.2359,-2.78769 0,-4.21068 0.118,-3.08329 -0.41399,-6.28288 0.652,-9.07047 1.12556,-0.33599 2.49019,-2.54888 3.49746,-0.59399 0.82859,3.43988 0,6.99467 -0.178,10.25675 0.59189,5.09728 0.118,10.07776 -0.091,15.35444 0.474,0.68 0.77029,1.60099 1.71946,1.71939 1.30351,-0.594 2.78647,0.335 4.08998,-0.168 1.42045,-0.158 2.13134,-1.83009 2.48747,-3.01619 l 0,0 z"
   clip-path="none" /><path
   inkscape:connector-curvature="0"
   id="path27"
   d="m 346.28521,173.02235 c -1.06699,-0.59199 -0.296,-1.78199 -0.4139,-2.67028 -0.47399,-4.08589 -0.53399,-7.94247 -0.35599,-12.03125 0.29599,-1.126 -0.5919,-1.95389 -0.091,-2.96389 -0.1759,-2.07499 -0.8287,-4.74538 0.77019,-6.46547 0.5919,-1.7179 -0.238,-3.37379 -1.00857,-4.85608 -1.42177,-1.84139 -4.20825,-2.07899 -6.4619,-1.90079 -1.89754,0.16799 -3.02303,1.90079 -4.86074,2.19709 -0.8287,-0.258 -0.7703,-1.2467 -1.30351,-1.8407 -1.2451,-0.89099 -3.26088,-0.59199 -4.74245,-0.29899 -1.4218,-0.09 -2.01441,1.78049 -3.43759,1.54259 -1.24507,1.06749 -1.48159,-0.764 -2.25229,-1.3644 -1.42314,-0.70999 -2.78646,0.256 -4.38768,0.1 -0.77029,0.09 -0.59399,0.89 -0.88869,1.4238 0.118,5.39338 0.296,10.25555 0.118,15.88583 -0.118,4.80128 -0.118,9.54346 -0.356,14.40644 0.6499,3.02279 3.85349,1.30429 5.80945,2.01469 1.06704,-1.24459 1.54143,-2.66709 1.4816,-4.26878 -1.30354,-1.54199 0.652,-3.79448 -0.4139,-5.69238 0.5919,-1.30419 -0.178,-3.08118 0.089,-4.32648 -0.178,-3.73648 0.356,-7.88546 -0.2359,-11.97735 0.7101,-1.30339 2.19385,-1.48149 3.37897,-2.07439 1.36349,0.765 0.71009,2.90629 1.06703,4.38928 -0.356,3.61379 0.178,7.23127 -0.534,11.02596 0.8305,2.66688 -0.65199,5.03757 0.178,7.82446 0.118,1.0682 -0.77019,2.13489 -0.296,3.25949 0.178,2.60969 2.78635,0.764 4.03155,1.66029 1.36327,-0.168 2.78636,0.258 3.14249,-1.36249 0.474,-3.85369 -0.82869,-8.06337 -0.2359,-11.91575 -1.00734,-1.364 0.2359,-2.78769 0,-4.21068 0.118,-3.08329 -0.41389,-6.28288 0.652,-9.07047 1.12684,-0.33599 2.49027,-2.54888 3.49744,-0.59399 0.82869,3.43988 0,6.99467 -0.178,10.25675 0.5919,5.09728 0.118,10.07776 -0.091,15.35444 0.474,0.68 0.77029,1.60099 1.71947,1.71939 1.3035,-0.594 2.78645,0.335 4.08999,-0.168 1.42315,-0.158 2.13541,-1.83009 2.49015,-3.01619 l 0,0 z"
   clip-path="none" /><path
   style="fill-rule:evenodd"
   inkscape:connector-curvature="0"
   id="path29"
   d="m 369.57209,155.18273 c -1.00766,-1.48499 0.236,-2.96999 0,-4.56908 -1.42348,-2.07409 0.236,-5.68798 -3.20149,-6.28127 -1.12511,-1.0692 -2.54833,-1.3068 -3.73497,-2.079 -2.72678,-0.48799 -5.2167,-0.42399 -7.82542,0.495 -1.95584,1.5424 -4.08969,3.08249 -4.50464,5.57208 0.118,1.83749 -0.8887,3.43698 -0.534,5.04058 -0.474,0.83599 -0.178,2.07309 -0.178,3.02319 -0.534,2.54788 0.296,5.45197 0.089,8.00496 -0.356,1.2441 1.00858,1.95429 0.089,2.96279 0.652,2.60789 0.7101,5.33398 2.84631,7.23267 1.60118,0.503 3.14259,2.19249 4.92051,1.54189 2.13404,0.837 4.44615,0.424 6.75823,-0.09 0.88869,-0.88999 2.13405,-1.00659 3.26088,-1.54069 0.118,-1.0669 1.36333,-1.1851 1.65962,-2.31139 0.118,-2.54759 1.06706,-5.92918 -1.48156,-7.70777 -1.83909,-0.258 -3.31934,-0.592 -5.15703,-0.09 -2.25231,0.946 0,2.96339 -1.24512,4.50438 -0.534,0.68 -1.18662,1.71949 -2.37188,1.4816 -2.19385,-0.68 -2.49014,-2.84459 -2.54862,-4.85968 0.296,-1.6018 -0.6499,-3.32039 0.356,-4.86178 1.65966,0.296 3.20108,-0.505 4.92055,-0.168 2.31209,-0.696 4.26805,0.507 6.63998,-0.09 2.31074,-1.01 1.00587,-3.32339 1.30351,-5.27778 l 0,0 z m -7.76734,-0.766 c -0.83,0.592 -2.07389,0.707 -2.96415,0.424 -0.8306,-0.166 -1.95618,0.09 -2.37201,-0.88799 0.296,-1.008 -0.296,-2.2514 0.7699,-2.90519 -1.0072,-0.676 0.178,-1.4234 0.238,-2.19249 0.71009,-1.3632 2.31246,-0.494 3.37967,-0.494 1.36298,1.54119 0.9483,4.09088 0.9483,6.04877 l 0,0 z"
   clip-rule="evenodd"
   clip-path="none" /><path
   inkscape:connector-curvature="0"
   id="path31"
   d="m 390.47998,147.65156 c -0.178,-1.95389 -1.65988,-3.79438 -3.02278,-5.27938 -0.9488,0.112 -2.13419,-0.42599 -2.72819,0.594 -1.71951,-0.09 -2.31246,1.78199 -3.79367,2.25549 -0.8888,-0.513 0.118,-2.01789 -0.9486,-2.49309 -2.01481,-0.101 -4.1499,-0.336 -5.74974,1.1286 -0.23799,4.56238 0.118,8.94956 -0.35599,13.63374 1.06706,3.13989 -0.829,6.46307 0.35599,9.54516 -0.59399,1.89599 0.118,3.90798 -0.29599,6.04567 0.29599,0.766 -0.236,1.8397 0.53399,2.37169 2.43035,0.102 4.92034,1.3639 7.17299,-0.168 -0.12,-0.88999 0.356,-1.90019 -0.178,-2.72878 0.8887,-1.5399 -0.091,-3.25619 -0.091,-4.73958 -0.47399,-1.6018 -0.64989,-4.03479 0.356,-5.45768 -0.82869,-0.888 -0.534,-2.54589 -0.356,-3.67198 -0.29599,-0.681 -0.29599,-1.2445 -0.091,-1.8385 0.238,-1.48319 -0.089,-2.72909 0.356,-4.33088 0.7101,-1.00579 1.24512,-2.07179 2.31211,-2.72589 2.37327,0.297 4.62557,-0.88599 6.46194,-2.12939 l 0,0 z"
   clip-path="none" /><path
   inkscape:connector-curvature="0"
   id="path33"
   d="m 437.87597,144.51058 c 0,-0.84 -0.53399,-1.782 -1.36336,-2.079 -1.66092,-0.1 -3.08279,-0.42399 -4.74263,0 -2.66786,1.7226 -1.24494,4.80398 -1.89719,7.23187 -1.24531,2.19289 -0.356,5.33948 -1.7796,7.53137 -0.238,0.09 -0.534,-0.09 -0.7101,-0.294 -1.06692,-2.72799 -0.296,-5.51867 -1.00698,-8.53726 0.118,-0.838 -0.88869,-1.54199 -0.12,-2.30999 -0.94709,-0.947 -0.1759,-2.61189 -1.59984,-3.38399 -1.71934,-0.94699 -3.55705,-0.168 -5.15832,0.168 -1.12552,1.3631 -1.12552,3.25749 -1.06704,5.03698 -1.4233,2.84669 -0.534,6.70137 -1.65961,9.60326 -0.29599,0.764 -0.178,1.83879 -0.94869,2.01609 -0.474,-0.107 -0.7683,-0.694 -0.9473,-1.12739 0.118,-3.25819 0.089,-6.28198 -0.594,-9.24776 1.12673,-2.19279 -0.35599,-4.68158 -1.60126,-6.46058 l -5.2167,-0.42599 -0.88869,0.76399 c -0.089,1.3047 0.091,2.90409 0.77039,4.09048 1.89717,8.53667 2.90468,16.95623 4.80085,25.551 0.8887,0.94699 -0.089,3.61638 2.0158,2.96428 1.423,0.838 3.37775,0.106 5.03871,-0.168 0.594,-0.33599 1.30364,-0.94399 1.24492,-1.65919 -0.296,-4.74328 0.82879,-9.19016 0.534,-13.87294 l 0.53399,-0.681 c 0.474,-0.1 1.007,0.299 1.18499,0.698 -0.091,3.85368 0.474,6.99487 1.65987,10.31536 0.594,1.65969 -0.474,3.73558 1.00857,5.03937 0.71009,0.168 1.12526,0.168 1.77928,0 1.65976,0.836 3.67368,0.168 5.15662,-0.76399 0.416,-1.3034 0.88879,-2.72629 0.356,-4.03008 1.18502,-1.7211 0.71009,-4.03169 1.54102,-5.86938 0.474,-0.837 1.71987,-1.60109 1.00735,-2.78619 -1.18535,-0.681 -0.178,-1.83809 -0.296,-2.72719 0.178,-2.90588 1.30492,-5.45437 1.48184,-8.47726 0.83,-1.0076 0.534,-2.60879 0.534,-3.97198 0.296,-0.693 0.94879,-1.3621 0.94879,-2.19239 l 0,0 z"
   clip-path="none" /><path
   style="fill-rule:evenodd"
   inkscape:connector-curvature="0"
   id="path35"
   d="m 458.3694,174.32915 c -0.8887,-1.3662 -0.7701,-3.20509 -0.5919,-4.74498 -1.18655,-2.13209 -0.298,-4.44218 -0.7101,-6.93697 0.089,-0.693 0.8287,-1.188 0.474,-1.95639 0.118,-3.31589 0.238,-6.39908 -0.12,-9.84126 0.71,-1.95399 0,-4.26388 -1.12537,-5.98258 -2.43053,-2.13839 -5.98753,-3.38268 -9.42649,-2.19779 -2.72665,0.948 -5.27666,3.02939 -6.40208,5.87038 0,1.06589 -0.77039,2.90399 0.4139,3.91078 1.3049,0.298 2.90474,-0.09 4.32875,0.115 2.60738,-0.115 0.829,-3.97518 3.49637,-3.97518 1.83922,0.94599 1.60121,3.67818 1.83922,5.39898 -0.296,1.42259 -1.60151,1.77849 -2.7868,2.13249 -2.48983,2.90198 -6.40356,3.61248 -7.76647,7.53056 -0.474,1.8967 -1.24528,3.73059 -0.7687,5.92308 -0.652,2.43359 0.6499,4.45048 2.0146,6.34687 1.60111,1.3021 3.85354,1.422 5.92772,1.006 0.59399,-1.006 1.71952,-1.3039 2.54988,-1.89599 1.9547,2.13009 4.62295,1.65799 7.17296,1.77799 1.24367,-0.294 1.1254,-1.59999 1.48139,-2.48809 l 0,0 z m -8.24116,-12.81045 c -0.71009,2.85109 1.71961,7.70957 -2.2521,8.95337 -0.414,0.33599 -1.12572,0.16799 -1.65987,-0.09 -1.00692,-1.2452 -0.238,-2.96459 -0.091,-4.38769 0.534,-2.01369 1.71945,-3.61518 3.02435,-5.27517 h 0.356 l 0.58989,0.76499 0,0 z"
   clip-rule="evenodd"
   clip-path="none" /><path
   inkscape:connector-curvature="0"
   id="path37"
   d="m 480.47283,168.93207 c -0.09,-2.19189 0.4169,-4.68108 -1.00755,-6.52247 -0.2396,-0.698 0.2395,-1.42479 -0.4168,-1.95679 -2.25243,-0.256 -2.54884,-2.96189 -4.86099,-3.31589 -0.9487,-1.83599 -2.9046,-2.07299 -4.3875,-3.02339 -1.00729,-1.30679 -2.19251,-2.49398 -1.71938,-4.33188 0.53279,-0.59199 1.12676,-1.71809 2.13426,-1.65809 1.6595,0.09 2.13376,1.83609 2.9046,2.90199 1.24486,1.84059 3.55654,0.297 5.15808,0.335 1.30394,-0.1 1.95635,-1.4814 2.01478,-2.48979 -0.53029,-0.889 0.2945,-2.07369 -0.35419,-2.90409 -2.13459,-0.506 -2.90517,-3.26009 -5.27697,-3.31979 -2.25205,-1.60189 -4.56416,-0.42599 -7.35076,-0.83699 l -2.1326,1.77969 c -0.4766,0.497 -1.24508,0.424 -1.3049,1.24549 -2.48881,1.1251 -1.71956,4.02879 -2.78659,5.98518 -0.118,3.61788 2.19261,6.87777 5.27664,8.83366 1.36337,2.07449 4.09021,2.48929 5.5134,4.56438 0.5318,1.5423 2.07542,3.43729 0.7703,5.21678 -0.7703,1.30379 -2.37197,0.508 -3.43747,0.336 -0.83069,-0.838 -1.95618,-1.83919 -2.13426,-3.14239 -0.652,-2.60849 -3.26094,-0.88999 -5.03887,-1.00859 -1.83913,0.29299 -0.94849,2.37159 -1.4232,3.61668 1.54166,1.83789 2.01472,4.38678 4.38766,5.57358 3.67549,1.89719 9.42651,2.42989 12.74573,-0.498 2.55063,-0.504 2.43229,-3.49649 2.72724,-5.45398 l 0,0 z"
   clip-path="none" /><path
   inkscape:connector-curvature="0"
   id="path39"
   d="m 517.78393,171.95316 c -1.36338,-1.065 -2.96402,-2.60699 -4.91973,-2.30889 -2.01572,0.335 -4.56542,0.762 -6.58092,-0.336 -1.24464,-1.1268 0.8286,-2.01619 1.1255,-3.02489 -0.4164,-2.60869 2.72726,-3.67498 2.96525,-6.04547 1.06728,-0.764 0.71059,-2.19379 1.77941,-3.08429 0.8284,-1.18579 0,-2.96549 1.4829,-3.85418 0.3504,-2.66609 2.19188,-4.97788 3.97099,-6.99447 0.29399,-1.89799 -1.89739,-2.72679 -2.90404,-3.97119 -2.01544,0.287 -3.79522,-0.09 -5.51582,0.1 -3.08218,-0.42399 -5.9862,-0.1 -8.95183,-0.09 -1.95423,0.294 -1.00739,2.60809 -1.48142,3.85299 0.88849,3.43798 3.67638,0.94499 6.04642,1.54139 1.06665,-0.09 1.83864,-0.594 2.96412,-0.289 0.77009,0.256 0.5255,1.0648 0.6595,1.6588 -1.72066,1.95599 -2.19347,4.38798 -3.6747,6.40237 -0.7098,3.26078 -2.9651,6.10537 -3.79578,9.36826 l -0.6569,0.888 c -1.71944,2.37089 -2.72625,5.51327 -2.13378,8.47676 1.185,1.12629 3.02417,1.06679 4.50531,1.06679 4.32887,-0.09 8.656,0.426 12.74543,0 1.18657,-0.83599 2.25184,-1.77769 2.37136,-3.37938 l 0,0 z"
   clip-path="none" /><path
   inkscape:connector-curvature="0"
   id="path41"
   d="m 538.80667,171.83436 c -1.42252,-1.1242 -0.7018,-3.08029 -0.8281,-4.56028 -1.1266,-2.25089 0.706,-4.44868 -0.2459,-6.58327 0.4851,-1.3041 0.09,-2.36799 -0.418,-3.49389 1.54205,-2.19239 -0.1741,-5.04348 0.592,-7.70937 1.0674,-1.83599 -0.524,-3.72988 0.09,-5.68977 -0.9468,-2.43349 -4.09031,-0.892 -5.92597,-1.1286 -2.78849,1.1286 -0.88929,4.56638 -1.54282,6.99427 0.8905,3.32149 -0.1744,6.82147 0.3488,10.13746 -0.8305,2.25229 0.4196,4.39068 0.1744,6.93927 -0.4196,1.304 -1.30511,3.19799 -2.96534,3.43599 -0.83039,0.295 -1.36486,-0.503 -1.66125,-1.126 0.4845,-3.08009 -0.1087,-6.46237 0.7054,-9.60336 -1.60111,-1.89599 0.82919,-3.84988 -0.3492,-5.86787 -0.09,-3.37949 0.82889,-6.69727 0.1746,-9.89996 -0.1746,-1.0692 -1.48169,-0.424 -2.13416,-0.837 -1.6009,0.168 -3.43668,-0.492 -4.56328,1.0087 -0.59199,0.497 -0.17489,1.30679 0,1.84139 -0.29349,5.92388 0.09,11.79595 0.1092,17.89922 l -0.24419,0.765 c 0.09,3.25999 -0.1093,6.63997 0.70559,9.66256 0.594,2.13449 3.08376,1.72239 4.68204,2.07659 2.19425,0.424 3.73587,-2.49249 5.5734,-0.764 2.01554,-0.50699 3.37871,1.7184 5.45434,0.503 0.66219,-0.258 0.77069,-1.18509 1.54316,-1.30459 1.00588,-0.766 0.66,-1.66119 0.7028,-2.72839 l 0,0 z"
   clip-path="none" /><path
   inkscape:connector-curvature="0"
   id="path43"
   d="m 573.15303,172.48776 c 0.29,-0.592 -0.3459,-1.0098 -0.8882,-1.2474 -1.06674,-2.42809 -4.03418,-0.88999 -5.39683,-2.96229 -0.3005,-1.00589 -0.8882,-2.12999 -0.1065,-2.96188 -0.4193,-3.91639 1.3051,-7.70727 0.1727,-11.44025 1.30444,-1.485 -0.2463,-2.91049 -0.2463,-4.50849 1.00666,-0.94599 2.54738,-0.42599 3.79286,-0.59399 1.06826,-0.764 3.14486,-1.1238 2.55086,-3.01979 -1.12638,-0.682 0.103,-2.01529 -0.7675,-2.84689 -1.66226,-0.118 -2.9662,-0.76599 -4.74312,-0.83899 -2.42936,-0.764 -0.09,-2.96599 -0.34629,-4.62338 1.30275,-0.89 0.09,-1.836 -0.1138,-2.84399 -0.8869,-1.3042 -2.60812,-1.7794 -4.2674,-1.423 -0.82849,0.426 -2.43011,0.09 -3.0828,1.245 l 0.48,6.22227 -0.173,1.2451 c -0.173,1.36579 -1.36316,0.94799 -2.48983,1.12819 -0.7671,0.336 -0.7671,1.1857 -1.18492,1.95569 -0.298,1.0659 -0.298,2.66589 0.7018,3.49479 0.2965,-0.1 0.5234,0.09 0.592,-0.168 0.83019,-0.503 1.83909,0.09 2.25401,0.7 0.59199,4.44708 -0.297,9.48486 0.419,14.05024 l -0.592,1.42209 c 0.66329,3.79378 -0.6643,8.53716 2.96607,11.14335 2.60783,0.336 6.04458,1.1873 8.53495,0.258 0.8906,-1.00819 2.31452,-1.89909 1.95845,-3.38108 l 0,0 z"
   clip-path="none" /><path
   inkscape:connector-curvature="0"
   id="path45"
   d="m 593.52382,171.83436 c -1.42248,-1.1242 -0.70279,-3.08029 -0.82879,-4.56028 -1.12659,-2.25089 0.69799,-4.44868 -0.2477,-6.58327 0.491,-1.3041 0.09,-2.36799 -0.4222,-3.49389 1.54309,-2.19239 -0.1697,-5.04348 0.594,-7.70937 1.06715,-1.83599 -0.5178,-3.72988 0.09,-5.68977 -0.9485,-2.43349 -4.09342,-0.892 -5.92976,-1.1286 -2.78512,1.1286 -0.88809,4.56638 -1.54231,6.99427 0.8881,3.32149 -0.1719,6.82147 0.3459,10.13746 -0.829,2.25229 0.4221,4.39068 0.1719,6.93927 -0.4201,1.304 -1.30373,3.19799 -2.9635,3.43599 -0.8303,0.295 -1.36463,-0.503 -1.66073,-1.126 0.49349,-3.08009 -0.1005,-6.46237 0.70639,-9.60336 -1.60105,-1.89599 0.8283,-3.84988 -0.34599,-5.86787 -0.09,-3.37949 0.82789,-6.69727 0.17209,-9.89996 -0.17209,-1.0692 -1.4824,-0.424 -2.13298,-0.837 -1.6014,0.168 -3.43813,-0.492 -4.56488,1.0087 -0.59199,0.497 -0.1724,1.30679 0,1.84139 -0.297,5.92388 0.09,11.79595 0.1081,17.89922 l -0.2472,0.765 c 0.09,3.25999 -0.1093,6.63997 0.7015,9.66256 0.592,2.13449 3.08313,1.72239 4.68294,2.07659 2.19235,0.424 3.73508,-2.49249 5.57265,-0.764 2.01592,-0.50699 3.37952,1.7184 5.45502,0.503 0.6652,-0.258 0.7657,-1.18509 1.54132,-1.30459 1.00707,-0.766 0.66659,-1.66119 0.69899,-2.72839 l 0,0 z"
   clip-path="none" /><path
   inkscape:connector-curvature="0"
   id="path47"
   d="m 617.09393,145.57767 c 0.3441,-1.89869 -2.13356,-0.764 -2.25148,-2.49269 -2.90463,-1.66279 -7.23258,-0.682 -9.90098,1.3662 -0.4812,-0.09 -0.4208,-0.514 -0.4208,-0.948 -0.09,-0.51 -0.594,-0.675 -1.00832,-0.89 -1.83651,0.679 -4.44362,-1.18449 -5.74648,0.594 -0.1136,3.44269 0,6.58277 0.1714,9.89966 0.1078,1.66319 -0.4206,3.62188 0.1078,5.04238 -0.3457,3.90998 -0.4226,8.00576 0,11.97525 -0.832,1.36209 -0.7015,3.25748 -0.4226,4.86128 0,1.00919 1.12681,1.48499 2.01405,1.36529 1.60086,-0.838 3.08347,0.594 4.5056,-0.256 1.42356,-1.42289 0.7662,-3.61688 0.49,-5.33648 -0.2474,-1.54119 0.51579,-2.54859 0.3451,-3.97258 -0.9483,-1.30419 -0.09,-3.14169 -0.101,-4.74148 -0.7682,-1.48309 0.29699,-3.49738 -0.594,-4.80178 0.94879,-2.78559 -0.9493,-6.34297 1.65948,-8.29876 1.00865,0.09 2.19462,-0.947 3.02477,0.09 0.299,2.36979 0.171,4.97628 0.423,7.40646 -0.249,0.683 -0.491,1.4251 -0.249,2.077 -0.669,5.33417 0.491,10.90795 -0.592,16.18133 0.171,0.59199 0.7015,1.30399 1.36249,1.48219 2.25268,-0.838 4.44713,1.4251 6.52244,-0.503 0.169,-1.59979 0.51379,-3.25928 0.2482,-5.03868 -0.4233,-2.31199 -0.3441,-4.74248 -0.4233,-7.05327 0.94859,-2.37179 -0.1707,-4.86197 0.5138,-7.17287 -1.18537,-1.77939 0.51379,-3.43868 0,-5.39477 0.83359,-1.72219 -0.09,-3.61959 0.29649,-5.39748 l 0,0 z"
   clip-path="none" /><path
   inkscape:connector-curvature="0"
   id="path49"
   d="m 630.83503,172.48776 c 0.29799,-1.1878 -0.8905,-1.8397 -1.54169,-2.54959 -1.66044,-2.54799 -4.44309,0 -6.45783,-0.888 -2.25674,0.594 -1.42514,3.91238 -1.30639,5.69438 0.42349,0.88799 1.36464,1.30489 2.25289,1.36489 1.7784,-0.336 3.55489,0.503 5.27334,-0.09 1.24508,-0.766 0.8885,-2.54859 1.77968,-3.55848 l 0,0 z"
   clip-path="none" /><polygon
   style="fill:#c40075"
   id="polygon51"
   points="575.911,410.824 494.237,410.824 494.237,329.114 494.237,329.114 575.911,329.114 "
   clip-path="none"
   transform="matrix(1.3592578,0,0,1.3592578,-40.777734,-440.39854)" />
			
		<g
   id="g3168"
   clip-path="url(#clipPath3037)"
   transform="matrix(1.3592578,0,0,1.3592578,-40.777734,-440.39854)"><polygon
     style="fill:#f99d27"
     id="polygon61"
     points="481.296,418.1 481.296,418.1 581.706,317.69 587.308,323.287 486.897,423.696 "
     clip-path="none" /><polygon
     style="fill:#f99d27"
     id="polygon63"
     points="472.901,409.714 472.901,409.714 573.312,309.304 578.913,314.9 478.504,415.31 "
     clip-path="none" /><polygon
     style="fill:#f99d27"
     id="polygon65"
     points="464.508,401.327 464.508,401.327 564.917,300.918 570.519,306.514 470.109,406.924 "
     clip-path="none" /><polygon
     style="fill:#f99d27"
     id="polygon67"
     points="456.113,392.941 456.113,392.941 556.523,292.532 562.125,298.128 461.715,398.537 "
     clip-path="none" /><polygon
     style="fill:#f99d27"
     id="polygon69"
     points="650.166,467.031 650.166,467.031 549.661,366.622 555.263,361.019 655.768,461.429 "
     clip-path="none" /><polygon
     style="fill:#f99d27"
     id="polygon71"
     points="641.771,475.426 641.771,475.426 541.267,375.017 546.868,369.415 647.373,469.824 "
     clip-path="none" /><polygon
     style="fill:#f99d27"
     id="polygon73"
     points="633.378,483.821 633.378,483.821 532.872,383.412 538.474,377.81 638.979,478.22 "
     clip-path="none" /><polygon
     style="fill:#f99d27"
     id="polygon75"
     points="624.983,492.217 624.983,492.217 524.478,391.807 530.079,386.205 630.585,486.614 "
     clip-path="none" /></g><path
   inkscape:connector-curvature="0"
   id="path77"
   d="m 183.75586,39.132425 3.30118,7.01217 -0.025,-26.60148 h 39.02313 c 9.00645,0 17.11307,4.73138 22.06486,12.36534 4.74519,8.04797 4.53856,21.04731 0.2073,29.09238 -2.68187,4.33188 -7.22181,8.66606 -11.9669,10.31526 l 17.33053,20.22061 -0.095,-72.00429 h 22.96507 c 11.88807,14.93023 23.42413,29.46337 34.7712,44.11511 l -0.1087,-44.11391 24.55236,-0.001 h 1.44486 l 36.29089,-0.02 c 9.10432,0 14.90292,4.11838 18.64768,11.31335 4.29935,8.26196 4.27621,20.68321 -2.53231,27.28248 7.427,3.09799 12.5854,10.72916 12.5854,18.56902 l 21.66385,-55.70346 0.5836,-1.46139 h 26.90791 l 17.28575,46.4703 -0.2081,-1.88709 c -1.03295,-17.12453 7.63368,-32.39457 22.48897,-41.05883 11.55414,-6.81117 28.99035,-7.80627 41.47176,-3.52438 l 1.85648,0.02 24.75741,-0.02 v 30.96646 h 24.76034 l 0.099,-30.96646 h 25.90747 V 105.17474 H 583.79496 V 72.347485 H 559.0353 l 0.05,32.804355 c 0,0 -25.67479,0.03 -26.97377,0.03 -18.32327,5.12858 -37.62188,2.79199 -49.71238,-9.557255 l -4.73879,-5.19538 c 1.36349,3.70059 5.25898,14.729835 5.25898,14.729835 h -27.62078 c -1.68823,-4.27588 -3.44026,-9.079055 -5.38822,-13.823235 h -24.55337 l -5.5376,13.823135 h -27.55701 c 0.4553,-1.35699 2.73878,-7.376565 2.73878,-7.376565 -3.04343,3.655285 -6.56629,7.385765 -21.12693,7.385765 -6.3558,0 -35.84088,-0.02 -38.26565,-0.02 H 312.70742 C 300.74051,90.912705 289.52516,75.368075 277.97144,60.716835 V 105.14814 H 229.55897 C 223.36906,97.722175 218.83042,89.266915 213.67194,81.218345 l -0.4098,-0.81999 -0.039,24.747985 -25.9714,0.02 V 77.507665 c -4.95178,15.89073 -22.28372,29.505165 -39.40766,30.127965 -17.9504,1.64909 -34.24926,-4.33188 -44.77132,-19.398215 -2.26991,-3.29968 -3.713459,-6.80957 -5.158349,-10.31575 l -0.4119,-1.2771 -0.033,28.513675 -25.97546,0.02 V 72.360685 H 46.529255 l 0.0041,32.807455 c 0,0 -24.205687,0.003 -25.79477,0.003 V 19.540815 l 25.81102,-0.004 -0.031,30.91816 c 8.121536,0 16.733819,-0.02 24.957326,-0.02 l 0.058,-30.90376 h 25.94614 l 0.033,26.20578 c 6.601889,-15.26993 23.108769,-28.06258 40.234059,-28.88447 18.97931,-1.4427 35.69289,6.39737 46.00818,22.2806 l 0,0 z"
   clip-path="none" /><path
   style="fill:#ffffff"
   inkscape:connector-curvature="0"
   id="path79"
   d="m 181.89872,42.019615 c 8.04669,14.23724 5.5717,35.07225 -4.74509,47.4516 -10.93512,12.792635 -26.2041,17.538315 -42.91571,15.063325 -12.58564,-2.05989 -25.37729,-9.698745 -31.15469,-22.076895 -7.426929,-13.40814 -6.808259,-33.83806 3.30208,-45.80261 10.9351,-13.41324 26.20208,-18.77782 43.32758,-16.50763 12.79183,2.06159 25.58424,9.70026 32.18583,21.87221 l 0,0 z"
   clip-path="none" /><path
   style="fill:#ffffff"
   inkscape:connector-curvature="0"
   id="path81"
   d="m 532.18119,22.643695 0.08,25.79599 c -5.77623,-7.63886 -15.06126,-9.72006 -24.34484,-7.45077 -5.778,1.6511 -11.55563,6.60108 -13.61833,12.38065 -3.09551,8.66197 -1.85743,19.38912 5.365,25.78639 5.3621,4.54078 12.58489,6.39738 20.01215,4.74708 4.74439,-1.02959 9.07777,-3.92038 12.58602,-7.63427 v 24.761195 c -13.20511,5.77668 -31.15472,4.33398 -42.91372,-3.920375 -14.4439,-9.49086 -20.22068,-25.5828 -17.53753,-42.29732 2.06328,-15.26794 15.88698,-29.50518 30.53555,-33.21946 9.69683,-2.89079 20.99141,-2.87099 29.862,1.05089 l 0,0 z"
   clip-path="none" /><path
   style="fill:#ffffff"
   inkscape:connector-curvature="0"
   id="path83"
   d="m 43.868787,52.955565 c 9.941648,0 20.430773,0.03 30.541134,0.03 0,-10.10555 -0.005,-20.45401 -0.005,-30.75787 h 20.63185 V 102.48525 H 74.404921 V 69.649995 c -9.925342,0 -19.79535,0.05 -30.329135,0.05 l -0.0029,32.805155 H 23.236224 V 22.242395 h 20.632563 v 30.74277 l 0,0 z"
   clip-path="none" /><path
   style="fill:#ffffff"
   inkscape:connector-curvature="0"
   id="path85"
   d="m 240.28863,27.572275 c 8.46015,6.60537 9.90374,17.74463 7.22147,27.64998 -1.85651,7.01797 -8.87166,13.20455 -16.09182,14.44464 l 24.96551,29.26428 -0.021,-76.72218 h 18.99573 l 38.41135,49.43789 c 0,-15.98793 -0.054,-32.92726 -0.054,-49.22699 h 21.399 v 80.055455 h -21.39664 l -38.0552,-48.846385 -0.099,48.846385 H 230.54068 C 223.93876,92.159405 217.54207,81.843845 210.73355,71.526785 l 0.004,30.948565 H 189.90516 V 22.211095 c 11.95194,0 27.0235,0.02 37.06568,0.02 4.81581,-0.002 9.36254,2.62819 13.27589,5.35218 l 0,0 z"
   clip-path="none" /><path
   style="fill:#ffffff"
   inkscape:connector-curvature="0"
   id="path87"
   d="m 386.94062,27.968275 c 5.95195,6.42877 6.44,18.17632 2.52003,25.80939 -1.44359,2.47729 -3.71202,4.33188 -6.19037,5.77438 5.77851,1.03279 12.97167,4.84808 14.57152,10.55535 2.35839,8.42137 2.7237,18.69532 -4.39704,25.81419 -5.00517,5.009075 -8.9059,6.514165 -19.50277,6.514165 -12.46598,0 -23.87134,0.06 -35.78242,0.06 l -0.056,-80.085055 c 11.90981,0 26.08962,0 36.85769,0 4.51544,0.001 8.73594,2.10299 11.96012,5.58378 l 0,0 z"
   clip-path="none" /><polygon
   style="fill:#ffffff"
   id="polygon89"
   points="337.319,399.389 321.229,399.389 343.847,340.342 360.392,340.342 382.705,399.389 382.705,399.389 366.312,399.389 362.668,389.218 341.418,389.218 "
   clip-path="none"
   transform="matrix(1.3592578,0,0,1.3592578,-40.777734,-440.39854)" /><path
   style="fill:#ffffff"
   inkscape:connector-curvature="0"
   id="path91"
   d="m 556.16988,53.173565 c 9.93412,0 20.22573,-0.02 30.33336,-0.02 0,-10.04525 0,-20.64141 0,-30.94847 h 20.83292 v 80.262655 h -20.6339 V 69.866195 c -9.9402,0 -20.66483,0.1 -30.5501,0.1 0,10.48366 0.02,21.51991 0.02,32.530155 H 535.53878 V 22.409895 h 20.6325 v 30.78977 l 0.002,0 z"
   clip-path="none" /><path
   inkscape:connector-curvature="0"
   id="path93"
   d="m 225.87628,43.441705 c 1.75771,2.74449 1.69357,7.28527 -0.1664,9.96946 -3.5083,4.74378 -10.04765,4.58238 -14.92876,4.69628 l 0.023,-19.80361 c 5.77816,-0.209 11.77793,-0.03 15.0782,5.13787 l 0,0 z"
   clip-path="none" /><path
   inkscape:connector-curvature="0"
   id="path95"
   d="m 372.54208,43.253805 c 0.8178,2.82449 0.4119,5.57318 -1.23734,7.42767 -2.88849,3.30389 -7.42698,2.88809 -11.76015,2.88809 v -15.26573 c 4.95065,0 11.48691,-0.287 12.99749,4.94997 l 0,0 z"
   clip-path="none" /><path
   style="fill:#f99d27"
   inkscape:connector-curvature="0"
   id="path97"
   d="m 222.8572,43.887405 c 1.902,1.90079 1.95586,5.56028 0.51119,7.82677 -2.27013,3.09609 -6.1903,3.50808 -9.9036,3.71658 v -14.44364 c 3.50682,0.209 6.91597,0.438 9.39113,2.90029 l 0,0 z"
   clip-path="none" /><path
   style="fill:#f99d27"
   inkscape:connector-curvature="0"
   id="path99"
   d="m 368.68127,42.461815 c 1.61938,1.08119 2.00371,4.29968 0.76399,5.95307 -1.85671,2.06539 -4.74512,2.26449 -7.22184,2.47539 v -9.90526 c 2.47672,0.211 4.59977,0.26 6.45653,1.4768 l 0,0 z"
   clip-path="none" /><path
   style="fill:#f99d27"
   inkscape:connector-curvature="0"
   id="path101"
   d="m 532.11835,54.148165 c 0,6.18607 -10e-4,18.21152 -10e-4,18.21152 -8.12888,9.21976 -19.89359,10.51306 -25.87746,7.41707 -7.01389,-2.68489 -10.10949,-10.10986 -10.72799,-16.92103 0.2077,-7.01077 3.09391,-13.82034 9.48926,-17.32602 4.95334,-2.88969 11.62604,-3.24929 16.71395,-0.836 5.66426,2.69529 7.67642,4.31968 10.40373,9.44816 l 0,0 z"
   clip-path="none" /><path
   inkscape:connector-curvature="0"
   id="path103"
   d="m 446.34148,72.555485 c -5.53223,0 -11.48979,0.002 -17.06135,0.002 l 8.45981,-25.38329 8.60154,25.38129 0,0 z"
   clip-path="none" /><polygon
   style="fill:#f99d27"
   id="polygon105"
   points="348.703,375.253 352.043,365.539 355.382,375.253 348.703,375.253 "
   clip-path="none"
   transform="matrix(1.3592578,0,0,1.3592578,-40.777734,-440.39854)" /><path
   inkscape:connector-curvature="0"
   id="path107"
   d="m 377.90568,74.201175 c 1.03172,2.68839 0.8235,6.60628 -1.03173,8.67157 -4.53878,4.53488 -11.14209,3.29928 -17.33049,3.50528 v -16.91843 c 6.60327,0.42 14.6482,-1.44479 18.36222,4.74158 l 0,0 z"
   clip-path="none" /><path
   style="fill:#f99d27"
   inkscape:connector-curvature="0"
   id="path109"
   d="m 374.60529,74.412175 c 1.44493,1.85449 1.44493,4.95268 0,6.80727 -3.50677,2.47529 -8.04555,2.47529 -12.37887,2.47529 v -11.55285 c 4.33215,-0.211 8.8721,-0.211 12.37887,2.27029 l 0,0 z"
   clip-path="none" /><path
   inkscape:connector-curvature="0"
   id="path111"
   d="m 120.06174,62.325425 c 0,-12.45844 10.101,-22.5564 22.55992,-22.5564 12.45891,0 22.55803,10.09796 22.55803,22.5564 0,12.46135 -10.09912,22.56131 -22.55803,22.56131 -12.45892,0 -22.55992,-10.09996 -22.55992,-22.56131 l 0,0 z"
   clip-path="none" /><path
   style="fill:#f99d27"
   inkscape:connector-curvature="0"
   id="path113"
   d="m 122.88267,62.325425 c 0,-10.89915 8.83646,-19.73841 19.73746,-19.73841 10.90138,0 19.73946,8.83926 19.73946,19.73841 0,10.90546 -8.83808,19.73642 -19.73946,19.73642 -10.901,0 -19.73746,-8.83096 -19.73746,-19.73642 l 0,0 z"
   clip-path="none" />
</svg>