<?xml version="1.0" encoding="UTF-8" standalone="no"?>
<!-- Created with Inkscape (http://www.inkscape.org/) -->
<svg xmlns:svg="http://www.w3.org/2000/svg" xmlns="http://www.w3.org/2000/svg" version="1.0" width="44" height="28" id="svg2">
  <defs id="defs4"/>
  <g transform="translate(-304.83, -410.801)" id="layer1">
    <g transform="translate(305.988, 411.728)" id="g2400">
      <path d="M 22.459,24.108 C 28.276,24.108 32.993,19.107 32.993,12.939 C 32.993,6.772 28.276,1.771 22.459,1.771 C 22.242,1.771 22.026,1.778 21.813,1.792 L 22.388,0 L 39.077,0 C 40.563,0 41.769,1.254 41.769,2.8 L 41.769,23.176 C 41.769,24.722 40.563,25.975 39.077,25.975 L 21.813,25.975 L 22.459,24.108" id="path2384" style="fill:#005699"/>
      <path d="M 16.646,0 L 2.691,0 C 1.205,0 0,1.254 0,2.8 L 0,23.176 C 0,24.722 1.205,25.975 2.691,25.975 L 16.071,25.975 L 16.858,23.896 C 12.113,22.785 8.556,18.203 8.556,12.719 C 8.556,7.598 11.658,3.264 15.933,1.808 L 16.646,0" id="path2386" style="fill:#005699"/>
      <path d="M 24.959,16.771 L 23.554,16.771 L 26.195,9.356 L 27.601,9.356 L 24.959,16.771 M 28.49,7.837 L 23.935,7.837 L 17.474,25.98 L 20.273,25.98 L 23.026,18.249 L 25.826,18.249 C 26.445,18.249 27.225,18.064 27.549,17.141 C 27.871,16.217 29.621,11.374 30.106,9.919 C 30.59,8.462 29.433,7.837 28.49,7.837 z" id="path2388" style="fill:#005699"/>
      <path d="M 21.447,10.151 L 18.69,17.883 L 15.916,17.883 L 18.949,9.375 L 17.52,9.375 L 14.487,17.883 L 11.688,17.883 L 18.063,0.01 L 20.862,0.01 L 18.055,7.881 L 19.94,7.881 C 21.297,7.881 21.854,8.945 21.447,10.151" id="path2390" style="fill:#005699"/>
    </g>
  </g>
</svg>