<?xml version="1.0" encoding="UTF-8" standalone="no"?>
<svg
   xmlns:dc="http://purl.org/dc/elements/1.1/"
   xmlns:cc="http://creativecommons.org/ns#"
   xmlns:rdf="http://www.w3.org/1999/02/22-rdf-syntax-ns#"
   xmlns:svg="http://www.w3.org/2000/svg"
   xmlns="http://www.w3.org/2000/svg"
   xmlns:sodipodi="http://sodipodi.sourceforge.net/DTD/sodipodi-0.dtd"
   xmlns:inkscape="http://www.inkscape.org/namespaces/inkscape"
   width="819"
   height="193"
   id="svg2"
   version="1.1">
  <g
     inkscape:label="Layer 1"
     inkscape:groupmode="layer"
     id="layer1"
     transform="translate(-339.27994,-399.91252)">
    <path
       id="path6080"
       d="m 829.06441,591.66657 -69.22889,-163.476 c -0.32602,-0.62368 -0.63786,-1.23319 -1.26154,-1.87105 l -1.24737,0.9497 c -5.32966,14.40142 -19.1074,48.84577 -19.1074,48.84577 l -45.17454,115.26809 -14.04706,0 47.01724,-109.93843 34.11833,-80.1717 c 0.9497,-1.88522 3.77046,-1.26154 5.64151,-1.26154 l 3.13259,5.6415 12.53037,27.55548 70.07937,158.42983 -22.45261,0.0283 z"
       style="fill:#0c264f;fill-rule:nonzero;stroke:none" />
    <path
       id="path6084"
       d="m 920.54463,547.01082 -0.0851,-133.28404 -47.54171,0.12757 -0.0425,-9.04341 114.57352,-0.0283 c 0,3.81298 0.0283,6.57703 -0.28349,9.07176 l -47.5417,0.0425 -0.0567,133.09976 -19.02235,0.0142 z"
       style="fill:#0c264f;fill-rule:nonzero;stroke:none" />
    <path
       id="path6088"
       d="m 1091.3858,547.01082 -0.085,-133.28404 -47.5417,0.12757 -0.057,-9.04341 114.5735,-0.0283 c 0,3.81298 0.028,6.57703 -0.2693,9.07176 l -47.5559,0.0425 -0.071,133.09976 -18.994,0.0142 z"
       style="fill:#0c264f;fill-rule:nonzero;stroke:none" />
    <path
       id="path6094"
       d="m 558.16031,404.72306 c 15.03928,24.42288 28.81702,49.15761 44.15397,73.25448 l 0.93553,0 c 16.28665,-24.73473 30.13526,-49.99392 46.11007,-73.48128 l 13.069,0 -0.92135,1.47416 -51.35468,77.96046 -0.0142,63.23302 c -6.60538,0.0992 -13.2958,-0.17009 -18.75304,0.0283 l -0.0709,-61.0643 -53.55175,-81.63169 20.39729,0.2268 z"
       style="fill:#0c264f;fill-rule:nonzero;stroke:none" />
    <path
       id="path6098"
       d="m 339.27994,547.21493 0.0425,-142.71016 18.14352,0.21262 -0.0992,61.23439 81.05053,0 0,-61.44701 18.35614,0.21262 0.0142,142.48337 -17.93091,-0.085 -0.31184,-70.70305 -2.50891,-0.0283 -78.85346,0.31184 -0.0425,70.50461 -17.86004,0.0142 z"
       style="fill:#0c264f;fill-rule:nonzero;stroke:none" />
    <path
       id="path6102"
       d="m 791.73977,517.13495 c -22.0699,0.34019 -63.88505,-0.15592 -63.88505,-0.15592 1.88522,-6.88887 5.03199,-13.62182 7.55508,-20.19885 20.26972,-0.62368 48.50558,0 48.50558,0 l 7.82439,20.35477 z"
       style="fill:#ef2721;fill-rule:nonzero;stroke:none" />
    <path
       id="path6106"
       d="m 615.47543,512.11005 c 30.99991,-7.81022 63.88505,-12.5162 97.39387,-14.07541 0,0 -5.34383,14.40142 -8.77409,21.27612 -30.06439,1.88522 -58.86724,6.90304 -87.68426,11.59484 l -0.93552,-0.29766 0,-18.49789 z"
       style="fill:#ef2721;fill-rule:nonzero;stroke:none" />
    <path
       id="path6110"
       d="m 914.82375,515.57716 0.18427,18.11518 -2.36717,-0.2835 c -28.491,-6.88887 -57.93171,-10.3333 -87.69843,-13.76356 -3.41608,-6.57703 -6.25101,-13.79191 -8.4339,-20.97845 12.84221,0.29767 25.98209,2.49473 38.82431,4.05394 20.0571,3.44444 40.08585,7.21489 59.49092,12.85639"
       style="fill:#ef2721;fill-rule:nonzero;stroke:none" />
    <path
       id="path6114"
       d="m 585.98511,537.17788 c -56.3725,12.84221 -110.80307,31.31175 -162.4696,55.73464 l -0.63786,-0.62368 c 49.79548,-32.5733 103.97091,-56.68435 161.27893,-72.64498 l 1.77183,-0.51029 0.0567,18.04431 z"
       style="fill:#ef2721;fill-rule:nonzero;stroke:none" />
    <path
       id="path6118"
       d="m 945.21415,524.96927 c 47.89607,15.01093 92.99975,37.87461 135.90635,64.8064 l 0,0.63786 -1.5734,0.31184 C 1036.6547,569.43508 991.23917,554.3958 945.21415,540.91573 l 0,-15.94646 z"
       style="fill:#ef2721;fill-rule:nonzero;stroke:none" />
    <path
       id="path6122"
       d="m 1142.3606,539.06169 0,-2.97668 2.523,0 c 1.1482,0 2.6507,0 2.6507,1.21902 0,1.45999 -0.7513,1.75766 -2.0553,1.75766 l -3.1184,0 z m 4.4224,1.75765 c 2.0695,-0.15592 3.1893,-1.02057 3.1893,-3.18929 0,-3.09007 -1.8427,-3.58618 -4.55,-3.58618 l -5.684,0 0,11.72242 2.6223,0 0,-4.94695 1.8143,0 2.6081,4.94695 2.8491,0 -2.8491,-4.94695 z m -2.5514,10.47505 c 6.251,0 11.2688,-5.01782 11.2688,-11.24048 0,-6.27936 -5.0178,-11.32553 -11.2688,-11.32553 -6.2935,0 -11.2546,5.04617 -11.2546,11.32553 0,6.22266 4.9611,11.24048 11.2546,11.24048 m 0,-2.66483 c -4.9044,0 -8.5898,-3.57201 -8.5898,-8.57565 0,-5.06034 3.6854,-8.64652 8.5898,-8.64652 4.8336,0 8.5757,3.58618 8.5757,8.64652 0,5.00364 -3.7421,8.57565 -8.5757,8.57565"
       style="fill:#0c264f;fill-rule:nonzero;stroke:none" />
  </g>
</svg>
