<?xml version="1.0" encoding="UTF-8" standalone="no"?>
<!-- Created with Inkscape (http://www.inkscape.org/) -->

<svg
   xmlns:dc="http://purl.org/dc/elements/1.1/"
   xmlns:cc="http://creativecommons.org/ns#"
   xmlns:rdf="http://www.w3.org/1999/02/22-rdf-syntax-ns#"
   xmlns:svg="http://www.w3.org/2000/svg"
   xmlns="http://www.w3.org/2000/svg"
   xmlns:sodipodi="http://sodipodi.sourceforge.net/DTD/sodipodi-0.dtd"
   xmlns:inkscape="http://www.inkscape.org/namespaces/inkscape"
   version="1.0"
   id="svg2"
   inkscape:version="0.48.4 r9939"
   width="560.5"
   height="538.81"
   sodipodi:docname="IBM_1924_logo.svg">
  <metadata
     id="metadata3013">
    <rdf:RDF>
      <cc:Work
         rdf:about="">
        <dc:format>image/svg+xml</dc:format>
        <dc:type
           rdf:resource="http://purl.org/dc/dcmitype/StillImage" />
      </cc:Work>
    </rdf:RDF>
  </metadata>
  <sodipodi:namedview
     pagecolor="#ffffff"
     bordercolor="#666666"
     borderopacity="1"
     objecttolerance="10"
     gridtolerance="10"
     guidetolerance="10"
     inkscape:pageopacity="0"
     inkscape:pageshadow="2"
     inkscape:window-width="1360"
     inkscape:window-height="706"
     id="namedview3011"
     showgrid="false"
     inkscape:zoom="256"
     inkscape:cx="561.78003"
     inkscape:cy="538.08792"
     inkscape:window-x="-8"
     inkscape:window-y="-8"
     inkscape:window-maximized="1"
     inkscape:current-layer="svg2" />
  <defs
     id="defs4" />
  <g
     id="layer1"
     transform="translate(-22.680735,-22.750199)">
    <path
       d="m 281.40296,560.63323 c -4.37481,-0.46535 -8.0747,-0.96659 -8.22197,-1.11386 -0.75924,-0.75925 -2.43185,-30.23269 -2.99686,-52.80843 l -0.64199,-25.65127 -8.09248,-0.42799 c -4.45087,-0.2354 -8.47243,-0.10238 -8.93681,0.29559 -1.74452,1.49505 2.76106,54.05091 6.18837,72.18494 0.84279,4.45928 0.76793,4.74854 -1.22316,4.7262 -2.84383,-0.0319 -18.47582,-3.49779 -19.24497,-4.26695 -0.82946,-0.82945 -3.89304,-26.27717 -5.80379,-48.20925 -2.48169,-28.48559 -3.96418,-74.65981 -3.10978,-96.85884 l 0.76432,-19.85883 8.63666,0.68688 c 13.50928,1.07442 13.1971,0.91317 12.35381,6.38095 -0.81483,5.28322 -0.9935,61.704 -0.19793,62.50127 0.28556,0.28617 4.78556,0.66167 10,0.83444 l 9.48079,0.31413 1.18598,-28 c 0.65229,-15.4 1.47999,-30.42509 1.83933,-33.38909 l 0.65336,-5.38909 10.51749,0.57924 c 5.78461,0.31859 10.68444,0.74621 10.88851,0.95027 0.20406,0.20407 -0.0505,5.16903 -0.56574,11.03325 -1.13168,12.88073 -2.70129,64.29864 -3.56291,116.71542 -0.34807,21.175 -0.93057,38.75135 -1.29444,39.05856 -0.36387,0.30721 -4.24097,0.17781 -8.61579,-0.28754 z m 21.45421,-0.16422 c 0,-0.80414 0.44374,-4.75714 0.9861,-8.78444 4.03153,-29.93643 8.15269,-83.63208 10.03573,-130.75812 0.559,-13.98967 1.23423,-25.65363 1.50052,-25.91992 0.55338,-0.55338 20.73079,-0.22451 21.30251,0.34721 0.48568,0.48568 -1.59043,48.84158 -2.87693,67.00847 -2.14518,30.29242 -5.59332,59.40774 -10.06903,85.02076 l -2.1668,12.39987 -4.10605,0.49643 c -13.80903,1.66954 -14.60605,1.67989 -14.60605,0.18974 z m 32,-2.99531 c 0,-0.73618 0.44355,-3.67733 0.98566,-6.53589 5.02072,-26.47416 11.37593,-82.01001 13.05415,-114.0756 0.61889,-11.825 1.42562,-26.225 1.79272,-32 l 0.66747,-10.5 9.15758,-0.2863 9.15757,-0.28631 1.57158,4.78631 c 2.70875,8.24956 6.38816,25.24739 8.54154,39.45946 1.13945,7.52024 2.07173,13.9593 2.07173,14.30902 0,0.34972 0.39799,0.38988 0.88443,0.0893 1.65998,-1.02593 4.44344,-20.69682 5.5994,-39.57143 0.32,-5.225 0.82259,-11.84784 1.11688,-14.71742 0.60722,-5.921 -0.0532,-5.60648 14.30523,-6.81241 l 7.40593,-0.622 -0.6866,13.82591 c -1.34129,27.009 -5.82592,64.66065 -11.235,94.32592 -3.85908,21.16447 -9.42002,45.38542 -10.71319,46.66178 -1.13488,1.12013 -14.20022,5.33822 -16.53489,5.33822 -0.80846,0 -1.14882,-4.74797 -1.16488,-16.25 -0.021,-15.01123 -0.9279,-31.70635 -2.59395,-47.75 -0.94137,-9.06518 -1.85475,-5.83442 -3.8166,13.5 -2.03431,20.04852 -6.60147,52.74882 -7.50882,53.76226 -0.58502,0.65343 -4.82783,1.57434 -19.30794,4.19083 -1.87781,0.33931 -2.75,0.0724 -2.75,-0.8416 z M 203.63449,541.93594 c -18.6823,-11.84796 -31.12886,-52.33143 -31.22865,-101.57373 -0.0418,-20.61217 1.08503,-26.6376 7.49692,-40.0891 4.08999,-8.5804 9.78395,-14.82804 14.62015,-16.04185 3.75924,-0.94351 10.70695,1.10327 15.92014,4.69004 5.12276,3.52455 11.68248,11.68707 10.69892,13.3131 -1.22976,2.03305 -10.42225,16.09859 -10.70781,16.38415 -0.15331,0.15331 -2.31164,-1.75415 -4.79629,-4.2388 -5.12422,-5.12422 -6.54857,-5.45798 -9.56948,-2.24238 -4.01549,4.2743 -5.61624,13.563 -5.55342,32.22484 0.11542,34.27958 6.76775,63.55826 15.55364,68.45568 2.60582,1.45254 2.84797,1.37907 6.21683,-1.88616 l 3.5054,-3.39756 7.49555,5.74112 7.49555,5.74113 -2.42147,6.43325 c -1.33181,3.53829 -3.78802,8.41947 -5.45825,10.84706 -6.32426,9.192 -11.34738,10.66215 -19.26773,5.63921 z m 204.93304,-25.81458 c 7.79246,-42.62617 13.16907,-84.18744 14.86331,-114.89374 l 0.66953,-12.13459 6.1284,-0.68111 c 3.37062,-0.37461 13.99488,-2.00154 23.60946,-3.61541 9.61459,-1.61386 17.86691,-2.9343 18.33849,-2.9343 0.47158,0 0.61281,3.0375 0.31384,6.75 -0.29896,3.7125 -0.56378,8.61125 -0.58848,10.88612 l -0.0449,4.13612 -11.25,3.10218 c -6.1875,1.7062 -12.68373,3.38294 -14.43607,3.7261 -1.75234,0.34315 -3.42071,1.23536 -3.70749,1.9827 -0.28678,0.74733 -0.83471,6.59912 -1.21763,13.00396 l -0.69621,11.64516 2.4037,-0.7144 c 2.93429,-0.87209 17.78544,-6.03507 20.01196,-6.95712 1.38528,-0.57368 1.55388,0.0692 1.216,4.63658 -1.17439,15.87535 -1.09094,15.6137 -6.15206,19.28846 -2.56971,1.86581 -8.1597,5.25127 -12.4222,7.52324 -4.2625,2.27197 -7.75089,4.43686 -7.75198,4.81088 -0.001,0.37401 -0.68496,7.15865 -1.51971,15.07698 -0.83474,7.91834 -1.29287,14.62181 -1.01806,14.89662 0.65686,0.65686 14.73588,-7.46257 25.9383,-14.95873 l 8.89855,-5.95452 -0.71513,13.7876 c -0.41229,7.94878 -1.20769,14.38109 -1.87824,15.18906 -2.91388,3.51101 -31.93545,21.56852 -44.86753,27.91702 -7.88491,3.87079 -15.26613,7.30927 -16.40272,7.64105 -2.00151,0.58427 -1.92987,-0.14426 2.27688,-23.15591 z M 179.31298,530.9936 c -3.8743,-2.11226 -10.05313,-5.74079 -13.73073,-8.0634 -6.62041,-4.18117 -6.70712,-4.29386 -8.76873,-11.39546 -5.47666,-18.86542 -5.01078,-17.94233 -10.32595,-20.46003 -2.67828,-1.26865 -5.06285,-2.11338 -5.29905,-1.87719 -0.23619,0.2362 0.2014,4.08238 0.97243,8.54707 0.77104,4.46469 1.13061,8.11757 0.79905,8.11752 -0.33156,-6e-5 -4.25813,-3.11294 -8.72573,-6.9175 l -8.12289,-6.9174 -1.11994,-7.8325 c -5.28318,-36.94896 -4.80871,-72.44185 1.42161,-106.3438 0.94959,-5.16712 2.13917,-8.97899 2.79801,-8.96586 0.63036,0.0126 4.29611,0.82778 8.14611,1.81159 l 7,1.78876 0.78205,6.43841 c 4.76935,39.26502 12.60414,75.56362 23.40563,108.4384 4.19597,12.77059 11.94785,33.46356 15.64016,41.75 1.40915,3.1625 2.47437,5.74367 2.36713,5.73593 -0.10723,-0.008 -3.36486,-1.74227 -7.23916,-3.85454 z m -35.45581,-69.24844 c 0,-2.24397 -6.2225,-34.44199 -7.03127,-36.38295 -1.02862,-2.46858 -1.22919,14.49992 -0.31084,26.29765 0.59102,7.59271 0.86662,8.41763 3.244,9.70996 3.19363,1.73604 4.09811,1.81888 4.09811,0.37534 z m -33.57837,15.66675 c -5.14722,-5.19767 -9.59519,-10.48517 -9.88438,-11.75 -0.911041,-3.98456 -4.375711,-32.75255 -5.576091,-46.2997 -0.63355,-7.15 -1.37905,-13.675 -1.65669,-14.5 -0.83079,-2.46872 -2.28091,2.5132 -3.9212,13.47132 -0.82091,5.48423 -1.72977,10.20852 -2.01968,10.49843 -1.42567,1.42567 -6.97871,-9.14825 -11.27512,-21.46975 -1.72603,-4.95 -3.36263,-9.62691 -3.63689,-10.39313 -0.27426,-0.76622 -0.71709,-1.17469 -0.98408,-0.9077 -1.72216,1.72216 5.88282,28.49123 12.06675,42.47418 1.37041,3.09874 2.32056,5.80518 2.11144,6.0143 -0.20913,0.20912 -2.61567,-1.38679 -5.34788,-3.54648 -8.03385,-6.3504 -19.21655,-25.34215 -26.57997,-45.14117 -5.79802,-15.58993 -10.71784,-41.78807 -10.71784,-57.0727 l 0,-3.86079 9.19861,4.47706 9.19861,4.47706 2.64818,7.23968 c 1.4565,3.98183 3.89818,9.71469 5.42596,12.73969 3.13815,6.21355 10.66851,18 11.50019,18 0.84632,0 2.90699,-3.597 8.29908,-14.48639 2.72714,-5.50748 5.02802,-10.09724 5.11308,-10.19946 0.08506,-0.10221 3.74602,1.09857 8.135471,2.66841 5.28268,1.8893 7.85309,3.30444 7.60301,4.18585 -0.20779,0.73237 -0.60542,10.41095 -0.88362,21.50794 -0.6927,27.6306 1.4696,49.36353 8.61356,86.57365 1.55752,8.1125 2.62851,14.75 2.37997,14.75 -0.24854,0 -4.66325,-4.25264 -9.81047,-9.4503 z m 366.57837,-3.41681 0,-11.86712 3.92433,-2.597 c 6.95331,-4.60148 11.1454,-8.87287 13.74717,-14.00722 2.09073,-4.12585 2.46827,-6.0525 2.12256,-10.83188 -0.36663,-5.06868 -1.1363,-6.87131 -6.00807,-14.07154 -7.62604,-11.27091 -8.11184,-12.40864 -8.05111,-18.85577 0.10031,-10.64923 7.42098,-21.57218 17.30869,-25.82576 7.74409,-3.33141 22.13391,-5.40165 32.45643,-4.66945 13.61281,0.9656 14.7814,1.33551 14.00402,4.43284 -0.84865,3.38132 -5.14452,12.08885 -7.30149,14.7998 -1.59037,1.99882 -2.16366,2.07868 -8.70253,1.21233 -12.28034,-1.62705 -21.69602,0.46502 -25.03621,5.5628 -2.38321,3.63724 -0.94421,6.94815 6.51736,14.99547 8.47521,9.14053 10.47499,13.97044 9.78383,23.63022 -0.88245,12.33344 -10.18435,27.65572 -23.00187,37.88917 -6.08458,4.85789 -18.42917,12.07022 -20.65934,12.07022 -0.74302,0 -1.10377,-3.87861 -1.10377,-11.86711 z m -172.5,-91.8574 C 231.23809,379.3151 160.80474,367.99416 105.58394,350.18834 63.765939,336.70422 41.306079,325.53771 34.092679,314.64457 l -2.73551,-4.13096 -0.60673,-40.5757 -0.60673,-40.5757 -3.7456,-14.5 c -4.4478,-17.21839 -4.79771,-23.7724 -1.61969,-30.33731 4.4032,-9.0958 17.05236,-16.72578 34.06565,-20.54841 l 3.86798,-0.86908 -2.02635,4.17085 c -1.75132,3.60473 -2.86125,4.48993 -8.17744,6.52174 -18.42756,7.04287 -25.09481,15.92421 -21.2879,28.3573 0.80752,2.6373 2.62414,6.31058 4.03693,8.16284 8.8529,11.60676 51.24261,30.40843 91.099881,40.40674 40.59529,10.18345 92.0773,18.16015 150.21316,23.27426 47.87243,4.21125 126.52423,1.77052 184.28684,-5.7188 32.05485,-4.15614 76.41877,-16.77141 94.45962,-26.86042 7.82495,-4.37597 15.79382,-11.46668 17.91835,-15.94379 5.46763,-11.52218 -1.68154,-24.41045 -17.75976,-32.01667 -3.63469,-1.71949 -6.06982,-3.6995 -7.47144,-6.07507 -1.8807,-3.18754 -1.91538,-3.52315 -0.36304,-3.51336 0.94395,0.006 3.78601,0.63904 6.3157,1.40686 18.38911,5.5815 28.96995,18.10464 29.21873,34.58232 0.0804,5.32279 -0.795,9.12609 -4.83332,21 l -4.93146,14.5 -0.52669,35 -0.52669,35 -2.67232,5.06346 c -5.07172,9.6098 -13.7802,15.31386 -35.60794,23.32323 -56.55647,20.75257 -144.85679,31.66474 -229.71974,28.3888 z m 20.5,-20.22439 c 0,-0.5219 -3.6221,-14.5844 -8.04911,-31.25 -4.42701,-16.66561 -8.49435,-31.9886 -9.03854,-34.0511 -0.95293,-3.61165 -1.15096,-3.75 -5.36758,-3.75 l -4.37814,0 -2.03642,8.75 c -6.76169,29.05331 -13.15914,58.5544 -12.78001,58.93353 0.24279,0.24279 2.03283,0.63882 3.97788,0.88007 3.88592,0.48197 3.60028,0.90135 5.69624,-8.36317 l 1.19894,-5.29956 7.1498,0.18924 c 7.7476,0.20506 11.62694,1.19726 11.62694,2.97376 0,0.62057 0.70693,3.56007 1.57096,6.53222 l 1.57096,5.40391 4.42904,0 c 2.43597,0 4.42904,-0.42701 4.42904,-0.9489 z m -24.10571,-22.78025 -4.60571,-0.36865 2.83843,-12.2011 c 1.56113,-6.7106 2.87817,-12.6511 2.92674,-13.2011 0.082,-0.92841 0.89488,1.78901 5.9081,19.75 l 1.88404,6.75 -2.17294,-0.18025 c -1.19512,-0.0991 -4.24552,-0.34614 -6.77866,-0.5489 z m 50.34061,-5.52085 0.2651,-29.25 8.25,-0.29044 8.25,-0.29044 0,-4.95956 0,-4.95956 -21.5,0 -21.5,0 0,5 0,5 8.5,0 8.5,0 0,29.5 0,29.5 4.4849,0 4.48489,0 0.26511,-29.25 z m 35.7651,-5.75 0,-34 -5.5,0 -5.5,0 0,34 0,34 5.5,0 5.5,0 0,-34 z m -114.23647,-2.56353 -0.26353,-33.93647 -4.23143,-0.30659 -4.23143,-0.30659 -0.26857,23.14727 -0.26857,23.14728 -10.40288,-23.84069 c -5.72158,-13.11237 -10.44658,-23.91109 -10.5,-23.99714 -0.0534,-0.0861 -2.23462,-0.47464 -4.84712,-0.86354 l -4.75,-0.70709 0,34.61355 c 0,28.7024 0.23482,34.61354 1.375,34.61354 0.75625,0 2.78125,0.28125 4.5,0.625 l 3.125,0.625 0,-21.79167 c 0,-11.98541 0.28968,-21.50198 0.64373,-21.14793 0.35406,0.35405 5.21865,10.44155 10.81022,22.41667 l 10.16648,21.77293 3.93979,0.54364 c 2.16688,0.299 4.28337,0.27041 4.70331,-0.0635 0.41994,-0.33394 0.64494,-15.87858 0.5,-34.54364 z m 149.86836,31.93392 c 9.33876,-4.43153 14.51629,-16.24519 14.6251,-33.37039 0.13445,-21.15895 -6.21113,-31.14286 -19.7938,-31.14286 -14.46617,0 -21.5829,11.04071 -21.68586,33.64286 -0.0666,14.60929 2.01894,22.2086 7.73063,28.16965 3.9548,4.12745 4.41957,4.33035 9.91949,4.33035 3.26156,0 7.26335,-0.7085 9.20444,-1.62961 z m -12.45901,-12.04366 c -3.53538,-3.53538 -5.17519,-10.23957 -5.1673,-21.12595 0.0102,-14.06136 3.96473,-21.20078 11.74318,-21.20078 6.91315,0 10.30458,5.52516 11.0112,17.93898 0.9163,16.09721 -2.91745,25.44036 -10.96357,26.71906 -3.17396,0.50442 -4.12118,0.17102 -6.62351,-2.33131 z m -187.17288,10.31842 c 0,-0.19517 -2.72142,-7.25279 -6.0476,-15.68361 -5.14468,-13.04013 -5.81944,-15.45644 -4.5194,-16.18398 3.36553,-1.88345 6.83333,-9.76758 7.32621,-16.65634 0.97484,-13.6246 -6.01732,-20.41214 -24.31443,-23.60289 -4.78872,-0.83508 -8.87281,-1.51833 -9.07577,-1.51833 -0.73001,0 -0.35153,67.89273 0.38099,68.34395 0.4125,0.25409 2.55,0.61711 4.75,0.80672 l 4,0.34473 0.27822,-13.7477 0.27822,-13.7477 2.4461,0 c 2.9614,0 3.69962,1.35976 9.50085,17.5 2.37221,6.6 4.47526,12.19586 4.67343,12.43524 0.19818,0.23938 2.26447,0.74556 4.59175,1.12483 2.32729,0.37928 4.56893,0.74592 4.98143,0.81476 0.4125,0.0688 0.75,-0.0345 0.75,-0.22968 z m -23,-42.52679 -3.5,-0.61836 -0.28934,-9.38723 -0.28934,-9.38722 3.64511,0.59152 c 5.01322,0.81353 8.33969,3.214 10.0171,7.22859 1.83474,4.39117 1.79251,7.47245 -0.14023,10.23183 -1.58228,2.25902 -3.05934,2.46875 -9.4433,1.34087 z m 254.22698,40.46131 2.72698,-0.60622 0.27302,-17.53669 0.27302,-17.5367 7.37743,15.79997 c 4.05759,8.68998 7.49967,15.94205 7.64906,16.11569 0.14939,0.17365 2.11705,-0.18119 4.37257,-0.78854 l 4.10094,-1.10427 0,-31.46145 0,-31.46146 -2.75,0.0153 c -5.13913,0.0286 -5.18772,0.21824 -5.47818,21.37945 l -0.27182,19.8037 -7.86133,-18.65129 -7.86133,-18.65129 -4.13867,0.30206 -4.13867,0.30206 -0.26376,32.82175 c -0.24865,30.94238 -0.16276,32.79434 1.5,32.34295 0.97007,-0.26335 2.9909,-0.75161 4.49074,-1.08503 z M 173.65854,342.61773 c 0.34446,-5.24408 1.20418,-4.71641 -12.05137,-7.39671 l -8.75,-1.76926 0,-8.79478 c 0,-9.88353 -0.58831,-9.3871 8.75,-7.3836 l 6.25,1.34091 0,-5.71691 0,-5.71691 -5.75,-1.2303 c -10.06531,-2.15364 -9.25,-1.18461 -9.25,-10.99395 l 0,-8.77121 9.25,1.80839 c 5.0875,0.99461 9.8125,1.82198 10.5,1.8386 1.47629,0.0357 1.77153,-8.52943 0.32484,-9.42354 -0.50885,-0.31448 -6.47135,-1.68608 -13.25,-3.04799 -6.77866,-1.36191 -13.34334,-2.71625 -14.58817,-3.00963 l -2.26333,-0.53342 0.26333,33.75186 0.26333,33.75185 14,3.14358 c 7.7,1.72897 14.45,3.05304 15,2.94237 0.55,-0.11066 1.13562,-2.26587 1.30137,-4.78935 z m 325.12707,-4.32635 1.20814,-5.39856 6.18171,-1.90565 6.18171,-1.90565 0.5,4.14034 c 0.46536,3.85348 0.70164,4.12579 3.4102,3.93015 1.60061,-0.11561 3.2405,-0.56561 3.64421,-1 0.72214,-0.77703 -4.35729,-58.92602 -5.22293,-59.79165 -0.53877,-0.53877 -8.06353,1.42262 -8.99563,2.34478 -0.76921,0.761 -15.83585,62.92108 -15.83585,65.33357 0,1.37214 0.57202,1.46565 3.86015,0.63103 3.64818,-0.92601 3.92648,-1.27624 5.06829,-6.37836 z m 4.11034,-16.61178 c 0.0213,-0.17457 1.54052,-6.37857 3.376,-13.78668 3.7312,-15.05941 3.49196,-15.23153 5.1514,3.70596 0.60886,6.94831 0.54048,7.27173 -1.71603,8.11647 -3.81787,1.42925 -6.85294,2.3045 -6.81137,1.96425 z m -380.03878,-14.78589 0,-27.85048 5.25,1.39762 c 7.71421,2.05363 7.75,2.03788 7.75,-3.40986 l 0,-4.83122 -14.98238,-4.16878 c -8.24031,-2.29283 -15.44031,-4.16878 -16,-4.16878 -0.55969,0 -1.01762,2.21807 -1.01762,4.92904 l 0,4.92904 5.5,1.5989 5.5,1.59889 0,28.3274 0,28.32741 3.25,0.98351 c 1.7875,0.54093 3.5875,0.80447 4,0.58564 0.4125,-0.21882 0.75,-12.93058 0.75,-28.24833 z m 437,5.95018 0,-5.004 -7.9778,4.01116 c -4.38779,2.20614 -8.21279,4.01116 -8.5,4.01116 -0.28721,0 -0.5222,-11.25 -0.5222,-25 0,-13.75 -0.39504,-25 -0.87788,-25 -0.48283,0 -2.50783,0.68104 -4.5,1.51342 l -3.62212,1.51342 0,30.99374 0,30.99373 13,-6.51431 13,-6.51431 0,-5.00401 z m -464.000001,-18.96826 0,-32.98658 -3.62212,-1.51342 c -1.99217,-0.83238 -3.78285,-1.51342 -3.97929,-1.51342 -0.19645,0 -0.47899,9.1125 -0.62788,20.25 l -0.27071,20.25 -6.89147,-23.13225 c -6.79794,-22.81828 -6.93752,-23.15421 -10.28393,-24.75 -1.86585,-0.88976 -3.60218,-1.61775 -3.85852,-1.61775 -0.25634,0 -0.46608,14.87296 -0.46608,33.05103 l 0,33.05102 3.46788,1.44898 c 1.90734,0.79693 3.72833,1.44897 4.04665,1.44897 0.31832,0 0.44527,-7.4037 0.28212,-16.45267 -0.16316,-9.04897 -0.01924,-16.13647 0.31982,-15.75 0.33906,0.38647 3.20966,8.12767 6.37911,17.20267 3.16945,9.075 6.17824,17.6792 6.68619,19.12044 0.7955,2.25711 4.15156,4.24435 8.06823,4.77747 0.4125,0.0562 0.75,-14.74187 0.75,-32.88449 z m -42,-18.82928 0,-32.81586 -4,-2.24812 -4,-2.24813 0,33.38256 0,33.38256 3.25,1.61747 c 1.7875,0.88961 3.5875,1.64625 4,1.68143 0.4125,0.0352 0.75,-14.70319 0.75,-32.75191 z m 249.000001,-7.21531 c -61.91836,-3.06257 -140.15957,-14.09367 -177.6672,-25.049 -43.498271,-12.7051 -76.244621,-27.91312 -84.428011,-39.20996 -5.81713,-8.03032 -3.01707,-15.10041 8.22869,-20.77725 3.22659,-1.62878 5.86652,-2.78489 5.86652,-2.56914 0,2.06445 -3.39449,7.62695 -4.95692,8.12285 -2.7714,0.87961 -6.04308,5.31021 -6.04308,8.18371 0,5.31997 6.12143,10.36112 22.62479,18.6321 16.67207,8.35552 47.938051,19.56781 69.875211,25.05793 35.25307,8.82263 108.43083,18.67472 160.5,21.60848 23.60198,1.32982 93.29967,0.4666 114.5,-1.4181 61.99422,-5.51126 104.62912,-14.73858 133.24528,-28.83779 16.22547,-7.99431 20.63925,-14.7883 14.2988,-22.00968 -1.74199,-1.98401 -4.03954,-3.88415 -5.10567,-4.22253 -1.21805,-0.38659 -1.93841,-1.51925 -1.93841,-3.04784 0,-3.16514 0.57446,-3.06201 6.28689,1.12867 18.59552,13.64181 6.85968,28.09605 -34.28689,42.22882 -30.30657,10.40952 -70.42597,17.36226 -122.5,21.22941 -19.38959,1.43992 -77.29758,1.99802 -98.5,0.94932 z m -12.90973,-16.7154 -8.40972,-0.33948 0.66268,-27.70697 c 0.71585,-29.93006 2.51978,-62.15183 5.69891,-101.79397 2.69361,-33.587923 8.57198,-96.371663 9.06398,-96.807513 0.21663,-0.19191 4.03788,-0.65661 8.49165,-1.03266 l 8.09776,-0.68373 2.62162,9.30545 c 3.71817,13.19763 8.13771,35.8766 10.76083,55.21939 1.23711,9.12233 2.62958,16.586053 3.09438,16.586053 0.46481,0 0.62948,-2.3625 0.36593,-5.250003 -0.26355,-2.8875 -0.72432,-14.09775 -1.02392,-24.91166 -0.49803,-17.97606 -1.54179,-33.00546 -3.11881,-44.90842 l -0.60549,-4.57008 7.35497,0.77096 c 11.36953,1.19177 13.70001,1.79019 14.22995,3.65394 0.61163,2.15107 3.42196,36.09815 4.52963,54.71526 1.27629,21.451143 1.00726,94.594313 -0.4285,116.500003 -1.27304,19.42296 -3.02127,39.66689 -4.12361,47.75 l -0.5796,4.25 -9.34114,0 -9.34114,0 -0.56723,-3.25 c -0.80655,-4.62124 -5.77704,-48.78321 -10.48512,-93.15852 -2.21209,-20.84968 -4.20446,-38.09099 -4.42749,-38.31402 -1.87892,-1.87893 -6.53662,88.08993 -6.59926,127.47254 l -0.0115,7.25 -3.75,-0.20355 c -2.0625,-0.11195 -7.53438,-0.35631 -12.15973,-0.54302 z m 71.90973,-3.62245 c 0,-2.56001 0.77287,-16.68676 1.71748,-31.39277 1.26702,-19.72513 1.71612,-40.63941 1.71228,-79.73821 -0.005,-47.415393 -0.23718,-55.265463 -2.20668,-74.500003 -1.21081,-11.825 -2.58913,-23.8625 -3.06293,-26.75 -1.03847,-6.32873 -1.18333,-6.29315 10.77467,-2.64574 10.15968,3.09889 20.41851,7.10429 32.20428,12.57365 l 8.6391,4.00911 1.6109,10.34301 c 1.49915,9.62552 2.09523,18.46997 1.24479,18.46997 -0.20136,0 -4.59318,-2.00238 -9.7596,-4.44974 -5.16643,-2.44736 -11.29719,-4.75416 -13.62393,-5.12622 l -4.23044,-0.67647 0.52365,18.87621 c 0.28801,10.38192 0.77078,22.975453 1.07282,27.985623 l 0.54918,9.10939 5.16721,1.15909 c 6.34947,1.4243 15.39623,5.53211 18.41722,8.36262 2.08985,1.95808 2.25,2.95747 2.25,14.0408 0,9.17184 -0.28921,11.80585 -1.25,11.3845 -7.42398,-3.2557 -17.28012,-6.72694 -20.61404,-7.26005 l -4.13596,-0.66137 -0.0305,26.37781 c -0.0168,14.5078 -0.293,31.14882 -0.61382,36.98005 l -0.58331,10.60223 3.16397,0.6328 c 1.74018,0.34803 6.26997,0.35789 10.06618,0.0219 l 6.90222,-0.6109 -0.4939,7.37587 c -0.27165,4.05673 -0.72671,9.69125 -1.01125,12.52115 l -0.51734,5.14529 -4.19112,0.57473 c -2.30512,0.3161 -12.17863,0.87747 -21.94113,1.24748 l -17.75,0.67276 0,-4.65456 z m -111.4548,1.44243 -6.9548,-0.57341 0.19898,-10.5 c 1.2894,-68.03956 8.09568,-142.069083 18.24296,-198.422353 1.08221,-6.01009 1.96766,-11.23703 1.96766,-11.61543 0,-0.69812 20.9374,-3.35816 21.55682,-2.73873 0.18536,0.18536 -0.74946,7.07341 -2.07739,15.30677 -5.6961,35.31677 -10.14811,80.080733 -12.92616,129.969743 -1.38385,24.85163 -3.54935,71.94616 -3.5521,77.25 -10e-4,2.48385 -1.20611,2.58074 -16.45597,1.32341 z M 433.0905,244.2523 c -6.00958,-2.20833 -14.61731,-10.46358 -18.90517,-18.13099 l -3.6425,-6.51339 2.40717,-1.84043 c 1.32394,-1.01223 5.61244,-4.08888 9.52999,-6.83699 l 7.12282,-4.99656 3.07546,4.94738 c 5.7157,9.19464 12.80128,11.14254 18.35811,5.04682 7.76686,-8.52006 2.34755,-33.0768 -12.77714,-57.89754 -19.41691,-31.86458 -22.61818,-39.54169 -22.79617,-54.66839 -0.0937,-7.964973 0.21767,-9.658923 2.70766,-14.729593 5.06122,-10.30676 14.54253,-16.05868 26.68644,-16.18957 5.99219,-0.06459 8.47355,0.39844 12.34253,2.30316 5.81395,2.86223 13.72811,10.48618 19.11741,18.41638 l 3.94189,5.80038 -3.81507,11.699623 c -2.09829,6.43479 -4.14188,12.05529 -4.54131,12.49001 -0.39942,0.43471 -1.85921,-0.92168 -3.24398,-3.0142 -7.19384,-10.87063 -17.65156,-19.27619 -23.98234,-19.27619 -3.99855,0 -7.82086,3.58405 -7.80936,7.32258 0.0141,4.59253 3.1509,10.66944 17.3229,33.55983 20.15454,32.55328 25.49969,44.94473 26.39155,61.18245 1.02758,18.709 -6.03379,32.18836 -20.72422,39.5602 -6.872,3.44845 -19.85568,4.30461 -26.76667,1.76503 z m -242.73333,-2.26938 c -4.97073,-1.31328 -10.8162,-4.74749 -14.09888,-8.28308 -3.73894,-4.02701 -6.4056,-7.9131 -6.38867,-9.31014 0.007,-0.56512 2.88548,-5.93795 6.39696,-11.93962 l 6.38451,-10.91214 2.04413,4.00682 c 2.38116,4.66746 8.11386,10.01629 11.6997,10.91628 5.77419,1.44923 13.72941,-5.34578 17.23102,-14.718 5.68314,-15.2112 5.50439,-32.73054 -0.60077,-58.88083 -7.36264,-31.53648 -9.37301,-55.643673 -5.75411,-69.000003 4.10341,-15.14454 16.17275,-33.19112 26.78507,-40.0502 6.00206,-3.87932 15.19502,-6.59431 18.6333,-5.50304 1.76515,0.56024 1.72848,1.12356 -0.84096,12.91849 -1.47763,6.78299 -2.97079,12.79255 -3.31814,13.35457 -0.34735,0.56202 -2.07996,1.31154 -3.85024,1.6656 -4.65985,0.93197 -12.07053,9.03177 -14.85588,16.23732 -3.91556,10.12934 -2.67456,27.592133 4.05883,57.114053 5.8833,25.79476 7.12754,40.53182 4.92136,58.28944 -4.225,34.00723 -18.12126,53.58266 -38.73594,54.56672 -3.69121,0.1762 -8.06129,-0.0363 -9.71129,-0.47224 z m 318.5,-9.57959 c -4.6064,-0.97424 -16.04358,-6.10613 -20.76477,-9.31719 -1.00536,-0.68379 -0.85154,-2.86855 0.75,-10.65215 1.10812,-5.38557 2.01477,-9.92007 2.01477,-10.07668 0,-0.15661 3.8434,1.69292 8.54088,4.11008 7.0476,3.62643 9.50329,4.39482 14.04545,4.39482 7.08229,0 10.41367,-2.84138 10.41367,-8.88197 0,-4.98857 -2.51007,-7.14914 -11.80409,-10.16054 -13.76742,-4.46084 -26.71595,-14.48514 -32.33272,-25.03086 -2.0008,-3.75659 -2.35766,-5.8646 -2.35766,-13.92663 0,-7.8778 0.37624,-10.20424 2.20338,-13.62421 4.12273,-7.71674 10.67857,-11.38325 20.29109,-11.34825 12.09237,0.044 24,12.66246 24,25.43262 0,3.04691 -0.27274,5.53984 -0.6061,5.53984 -0.33335,0 -2.24585,-1.28834 -4.25,-2.86299 -5.3412,-4.19653 -9.60088,-6.13701 -13.4718,-6.13701 -4.32093,0 -6.12665,2.12913 -6.12665,7.22398 0,5.96884 4.68115,9.80945 15.51431,12.72859 18.9588,5.10871 27.77822,13.19306 30.90128,28.32578 2.14768,10.40651 -0.96459,19.03386 -9.61236,26.64594 -8.59822,7.56845 -16.79007,9.84994 -27.34868,7.61683 z m -375,-2.62203 c -12.40215,-5.61401 -17.30041,-17.02091 -14.46148,-33.67745 4.99051,-29.28026 18.99817,-71.72437 40.4406,-122.537553 l 6.24365,-14.7959 8.99288,-4.5165 c 4.94609,-2.48407 9.15902,-4.35036 9.36207,-4.14731 0.20305,0.20306 -1.66823,5.51864 -4.1584,11.81241 -7.87615,19.90653 -19.06237,51.885103 -23.76678,67.943213 -8.40054,28.67456 -14.65254,56.43719 -14.65254,65.06609 0,5.06528 1.98214,8.28214 4.7654,7.73386 3.45504,-0.68062 5.15135,-5.35976 7.7218,-21.29995 5.88718,-36.50836 16.18446,-73.45126 30.52151,-109.500003 7.6764,-19.30139 10.82523,-26.27508 12.28179,-27.20039 2.00636,-1.27459 16.8031,-6.03934 17.27852,-5.56393 0.24319,0.2432 -1.61748,5.35216 -4.13482,11.35325 -12.35694,29.45768 -24.59361,73.282703 -34.95948,125.205643 -3.0421,15.23799 -6.43783,30.46603 -7.54606,33.8401 -5.87953,17.90055 -20.23501,26.48304 -33.92866,20.28442 z m -68.149511,-24.16909 -10.35049,-5.25 0.14512,-4.55416 c 0.29767,-9.34145 16.85346,-44.45123 30.86056,-65.44584 10.00189,-14.99136 18.647601,-25.5153 29.251831,-35.606613 8.1223,-7.72942 17.42637,-14.89339 19.34251,-14.89339 5.8054,0 6.31002,29.854063 0.78419,46.394323 -3.6395,10.89401 -10.50963,19.55195 -18.56134,23.39154 -2.75426,1.31341 -3.31349,2.05019 -2.7919,3.67827 2.9582,9.23352 3.51148,12.50912 2.962,17.53587 -1.91101,17.4823 -10.15459,31.66256 -21.772381,37.45195 -4.05696,2.02166 -6.60133,2.54805 -12.31645,2.54805 -6.70853,0 -7.91394,-0.36052 -17.55365,-5.25 z m 22.4385,-18.76268 c 3.09184,-2.43204 5.37034,-8.91158 6.67679,-18.98732 1.28673,-9.92363 1.27412,-15 -0.03724,-15 -1.07093,0 -11.02264,20.20269 -14.451,29.33658 -1.54684,4.12111 -1.60549,4.96944 -0.39646,5.73469 2.32777,1.47336 5.48727,1.05611 8.20791,-1.08395 z m 25.193661,-55.56791 c 1.32676,-0.86933 3.83338,-3.79516 5.57026,-6.50186 4.47572,-6.9748 8.64028,-21.0056 6.19709,-20.87855 -1.79535,0.0934 -18.25,24.43689 -18.25,26.99963 0,2.4313 3.0773,2.61205 6.48265,0.38078 z"
       id="path3223"
       style="fill:#000000"
       inkscape:connector-curvature="0" />
  </g>
</svg>
