<?xml version="1.0" encoding="UTF-8" standalone="no"?>
<!DOCTYPE svg PUBLIC "-//W3C//DTD SVG 1.1//EN" "http://www.w3.org/Graphics/SVG/1.1/DTD/svg11.dtd">
<svg
    xmlns:svg="http://www.w3.org/2000/svg"
    xmlns="http://www.w3.org/2000/svg"
    version="1.1"
    width="743.04431"
    height="312.07315"
    id="svg2985">
  <defs id="defs2989" />
  <path
      d="m 0.42091893,286.16307 0.42092092,-25.72756 9.59317515,-0.45698 9.593176,-0.45695 0,-103.45983 0,-103.45981 -9.593176,-0.45697 -9.59317515,-0.456968 0,-25.325984 0,-25.3259834 59.86141615,0 59.861414,0 0,25.3259834 0,25.325984 -10.36063,0.453857 -10.360628,0.453857 0,103.466034 0,103.46604 10.360628,0.45386 10.36063,0.45386 0,25.32598 0,25.32598 -60.282335,0.40158 L -4.5125029e-7,311.89063 0.42091893,286.16307 z m 157.74900107,-0.40158 0,-26.09344 9.20945,0 9.20945,0 0,-103.6063 0,-103.606294 -9.20945,0 -9.20945,0 0,-26.093438 0,-26.09343737 72.52441,0.0535529 c 79.89109,0.0589865 88.95497,0.81742297 106.19766,8.88625527 12.35172,5.7800662 21.41412,14.8071372 27.13222,27.0264552 11.24825,24.036943 11.86088,62.828603 1.33562,84.570896 -4.24992,8.77916 -16.65755,20.92264 -26.80754,26.23685 l -8.28075,4.33553 10.26466,4.80564 c 18.89692,8.84702 30.8117,23.38992 35.73956,43.62288 3.25343,13.35804 2.47485,45.76245 -1.44989,60.3433 -8.32921,30.94403 -23.7238,45.15679 -54.28323,50.11591 -5.62631,0.91303 -41.48641,1.57072 -86.01104,1.57749 l -76.36168,0.0116 0,-26.09344 z m 128.43715,-30.02056 c 2.38282,-1.73783 5.8865,-6.20111 7.78594,-9.91841 3.07998,-6.02764 3.45355,-9.01281 3.45355,-27.59699 0,-18.55756 -0.37799,-21.5878 -3.45355,-27.68684 -4.7151,-9.35032 -10.83355,-12.21532 -26.09343,-12.21839 l -11.89554,-0.002 0,40.83258 0,40.83256 12.93531,-0.54122 c 10.043,-0.42023 13.90403,-1.24775 17.26772,-3.70091 z m -7.20985,-129.99361 c 10.98546,-5.61253 13.07716,-11.44335 13.07716,-36.45407 0,-18.052726 -0.40207,-21.4131 -3.12203,-26.093437 -4.2853,-7.373863 -11.60187,-10.739049 -23.35514,-10.741972 l -9.59317,-0.0024 0,38.372703 0,38.372706 8.11676,0 c 5.39126,0 10.38657,-1.15965 14.87642,-3.45354 z m 128.96272,160.01417 0,-26.09344 10.36063,0 10.36063,0 0,-103.6063 0,-103.606294 -10.36063,0 -10.36063,0 0,-26.093438 0,-26.09343737 60.51995,0 60.51996,0 2.31114,8.05826747 c 1.27112,4.4320469 10.3444,38.1040939 20.16286,74.8267699 9.81845,36.722682 18.93449,70.541742 20.25784,75.153462 l 2.4061,8.38497 22.03304,-82.828009 c 12.11818,-45.555403 22.04171,-83.00068348 22.05229,-83.21173335 0.0106,-0.21104986 27.99293,-0.38372702 62.18301,-0.38372702 l 62.16378,0 0,26.09343737 0,26.093438 -9.97691,0 -9.9769,0 0,103.533054 0,103.53307 9.59318,0.45695 9.59317,0.45698 0.42092,25.72756 0.42092,25.72756 -60.28234,-0.40158 -60.28233,-0.40158 0,-25.32598 0,-25.32598 10.36063,-0.45386 10.36063,-0.45386 -0.17805,-82.43118 c -0.0979,-45.33715 -0.48333,-81.395118 -0.85643,-80.128819 -0.37311,1.266299 -13.63283,49.961259 -29.46603,108.211019 l -28.78765,105.90866 -25.99698,0.41833 -25.99699,0.41834 -28.67602,-108.62936 -28.67605,-108.629351 -0.10285,82.501311 -0.10284,82.50131 9.9769,0 9.9769,0 0,26.09344 0,26.09344 -42.97742,0 -42.97743,0 0,-26.09344 z"
      id="path3033"
      style="fill:#4e73b4;fill-opacity:1;"
  />
</svg>
