<?xml version="1.0" encoding="UTF-8" standalone="no"?>
<!DOCTYPE svg PUBLIC "-//W3C//DTD SVG 1.1//EN" "http://www.w3.org/Graphics/SVG/1.1/DTD/svg11.dtd">
<svg
    xmlns:svg="http://www.w3.org/2000/svg"
    xmlns="http://www.w3.org/2000/svg"
    version="1.1"
    width="661.18353"
    height="262.94577"
    id="svg3803">
  <defs id="defs3807" />
  <path
      d="m 0.0519894,235.87144 0,-26.90651 18.5783096,0 18.578309,0 0,-77.5164 0,-77.51639 -18.578309,0 -18.5783096,0 0,-26.906517 0,-26.90651665 64.7037666,0 64.703764,0 0,26.90651665 0,26.906517 -17.93768,0 -17.937673,0 0,77.51639 0,77.5164 17.937673,0 17.93768,0 0,26.90651 0,26.90652 -64.703764,0 -64.7037666,0 0,-26.90652 z M 146.6877,261.13862 c -0.34599,-0.90163 -0.47204,-12.86543 -0.2801,-26.5862 l 0.34897,-24.94686 18.25799,-0.3555 18.258,-0.35549 0,-77.44604 0,-77.446032 -18.258,-0.355494 -18.25799,-0.355495 0.35208,-26.265886 0.35209,-26.2658853 70.11736,-0.37234391 c 78.73792,-0.41812086 78.95452,-0.39886861 98.68047,8.77136691 32.69906,15.2011913 45.96134,56.3027663 28.9849,89.8280593 -4.09344,8.08378 -15.7618,20.43831 -25.01088,26.48165 l -7.59418,4.96205 5.19166,3.59782 c 7.07856,4.90543 19.79814,18.70817 25.80607,28.0036 20.67157,31.98294 7.02166,75.83917 -29.31414,94.18428 -12.34144,6.23092 -16.54298,6.52257 -94.25335,6.5428 -57.92713,0.0151 -72.88007,-0.31511 -73.38095,-1.6204 z m 146.77345,-77.15832 0,-24.98462 -26.90652,0 -26.90652,0 0,24.98462 0,24.98463 26.90652,0 26.90652,0 0,-24.98463 z m 0,-105.063537 0,-24.984623 -26.90652,0 -26.90652,0 0,24.984623 0,24.984627 26.90652,0 26.90652,0 0,-24.984627 z m 73.03197,156.954677 0,-26.90651 18.57831,0 18.57831,0 0,-77.5164 0,-77.51639 -18.57831,0 -18.57831,0 0,-26.906517 0,-26.90651665 53.03257,0 53.03256,0 6.38698,18.25799365 c 3.51284,10.041896 12.64022,36.244189 20.28308,58.227318 7.64286,21.983122 14.12453,39.740912 14.4037,39.461752 0.27916,-0.27918 9.89861,-26.337331 21.37655,-57.907009 l 20.86898,-57.3994233 52.653,-0.33452872 52.653,-0.33452872 0,26.92072974 0,26.92073 -18.57831,0 -18.57831,0 0,77.51639 0,77.5164 18.57831,0 18.57831,0 0,26.90651 0,26.90652 -46.76609,0 -46.76608,0 -0.0609,-74.63355 -0.0609,-74.63355 -4.45433,12.81262 c -36.0095,103.57937 -47.69846,135.85259 -49.31699,136.1643 -1.36344,0.26257 -8.49568,-18.7694 -27.36785,-73.02964 -14.0381,-40.36162 -25.85726,-73.78856 -26.26479,-74.2821 -0.40752,-0.49355 -0.58763,32.51498 -0.40025,73.35229 l 0.34065,74.24963 -46.78648,0 -46.78649,0 0,-26.90652 z"
      id="path3851"
      style="fill:#4e74b5;fill-opacity:1;"
  />
</svg>
