<?xml version="1.0" encoding="UTF-8" standalone="no"?>
<!-- Generator: Adobe Illustrator 14.0.0, SVG Export Plug-In . SVG Version: 6.00 Build 43363)  -->

<svg
   xmlns:dc="http://purl.org/dc/elements/1.1/"
   xmlns:cc="http://creativecommons.org/ns#"
   xmlns:rdf="http://www.w3.org/1999/02/22-rdf-syntax-ns#"
   xmlns:svg="http://www.w3.org/2000/svg"
   xmlns="http://www.w3.org/2000/svg"
   xmlns:sodipodi="http://sodipodi.sourceforge.net/DTD/sodipodi-0.dtd"
   xmlns:inkscape="http://www.inkscape.org/namespaces/inkscape"
   version="1.1"
   id="Layer_1"
   x="0px"
   y="0px"
   width="735"
   height="169"
   viewBox="0 0 735 169"
   enable-background="new 0 0 2370 939"
   xml:space="preserve">
<polyline
   points="1731.902,851.443 1735.554,851.443 1732.737,865 1729.086,865 1731.902,851.443 "
   id="polyline309"
   transform="matrix(4.2852072,0,0,4.2852072,-7409.4918,-3574.2099)" /><path
   d="m 80.964696,88.378148 c -4.910847,-2.828237 -9.573153,-3.492444 -14.488285,-3.492444 -15.559588,0 -21.803135,10.987272 -21.803135,21.974546 0,10.31878 6.573508,15.14392 15.893834,15.14392 5.583625,0 10.65731,-1.16129 14.736827,-3.2439 l -1.666945,12.48281 c -3.749556,1.25128 -10.241645,2.24973 -15.482454,2.24973 -18.726355,0 -29.465085,-11.06869 -29.465085,-27.05251 0,-19.309147 13.566966,-33.038951 35.374386,-33.038951 11.154394,0 17.397941,1.911202 20.560424,3.076779 l -3.659567,11.90002"
   id="path311" /><polyline
   points="1750.292,851.443 1759.828,851.443 1759.304,854.007 1753.341,854.007 1752.719,856.803 1758.371,856.803   1757.808,859.367 1752.176,859.367 1751.516,862.436 1757.711,862.436 1757.188,865 1747.378,865 1750.292,851.443 "
   id="polyline313"
   transform="matrix(4.2852072,0,0,4.2852072,-7409.4918,-3574.2099)" /><polyline
   points="1762.156,851.443 1765.827,851.443 1763.574,862.32 1769.245,862.32 1768.682,865 1759.34,865 1762.156,851.443   "
   id="polyline315"
   transform="matrix(4.2852072,0,0,4.2852072,-7409.4918,-3574.2099)" /><path
   d="m 215.19881,86.385527 h -0.16712 L 202.71172,109.1057 h 14.98108 l -2.49399,-22.720173 m -7.74337,-11.985725 h 19.47627 l 9.48745,58.094558 h -15.64529 l -1.57696,-12.40139 h -22.56162 l -6.90346,12.40139 h -16.81516 l 34.53877,-58.094558 z"
   id="path317" /><polyline
   points="1788.295,851.443 1792.82,851.443 1795.598,860.844 1795.636,860.844 1797.54,851.443 1800.958,851.443   1798.084,865 1793.578,865 1790.742,855.619 1790.703,855.619 1788.819,865 1785.401,865 1788.295,851.443 "
   id="polyline319"
   transform="matrix(4.2852072,0,0,4.2852072,-7409.4918,-3574.2099)" /><path
   d="m 324.37304,121.01 h 6.82205 c 15.23391,0 21.14321,-11.40722 21.14321,-22.227369 0,-10.653025 -7.32342,-12.902759 -16.81087,-12.902759 h -3.83098 L 324.37304,121.01 m -5.82789,-46.610198 h 20.14476 c 18.47353,0 29.62793,7.816218 29.62793,23.302957 0,24.301411 -15.22963,34.791601 -37.03705,34.791601 h -25.05561 l 12.31997,-58.094558 z"
   id="path321" /><path
   d="m 404.01361,86.385527 h -0.16712 L 391.52652,109.1057 h 14.98537 l -2.49828,-22.720173 m -7.73908,-11.985725 h 19.47626 l 9.48745,58.094558 h -15.64957 l -1.58125,-12.40139 h -22.55304 l -6.91204,12.40139 h -16.81087 l 34.54306,-58.094558 z"
   id="path323" /><polyline
   points="1832.085,851.443 1835.736,851.443 1832.92,865 1829.27,865 1832.085,851.443 "
   id="polyline325"
   transform="matrix(4.2852072,0,0,4.2852072,-7409.4918,-3574.2099)" /><path
   d="m 467.73893,74.399802 h 18.55494 c 11.07302,0.08142 24.38716,0.415665 24.38716,14.813962 0,10.23736 -7.99191,13.815506 -16.89228,14.895376 v 0.16713 c 4.57231,0.41995 6.07642,6.5735 6.90346,10.32306 l 4.16523,17.89503 h -15.4825 l -2.99536,-14.81825 c -1.49554,-7.57196 -1.99691,-8.15475 -8.98608,-8.15475 h -1.67123 l -4.65802,22.973 H 455.49609 L 467.73893,74.399802 M 477.972,98.538374 h 5.2451 c 6.74063,0 11.98576,-1.67123 11.98576,-7.160581 0,-4.165221 -2.49399,-5.9093 -7.16062,-5.990719 h -7.40484 l -2.6654,13.1513 z"
   id="path327" /><path
   d="m 509.55831,169.00004 c 9.85169,-20.01192 18.97489,-40.77375 30.95633,-61.4413 9.80456,-16.913717 28.50092,-30.776362 48.21716,-33.780293 23.9543,-3.655281 84.60284,-0.668492 120.28576,-2.168315 5.88359,-0.252827 10.49447,-2.382575 19.11203,-6.864902 -8.72897,27.682439 -29.04942,66.34786 -58.64306,66.31787 -37.52128,3.06821 -83.89151,-0.59993 -109.36706,2.63111 -5.98215,0.76277 -12.81706,5.9393 -14.09833,12.32855 -1.86407,9.30318 3.18819,16.54518 9.09749,22.97299 h -45.56032"
   id="path329"
   style="fill:#0079bf" /><path
   d="M 554.94722,79.186379 C 569.35409,51.079705 583.52955,12.542836 617.11701,8.7461428 651.58721,4.8508894 680.12669,8.4076114 713.2642,6.7406658 721.26897,6.3335711 724.82141,5.3779699 734.9902,3.4897049e-5 727.23398,24.408575 710.74879,52.502394 689.84126,60.237193 c -4.37948,1.615523 -12.8042,2.112607 -17.37652,2.502561 -29.28082,2.506846 -57.23751,-1.045591 -86.89114,1.988336 -8.20617,0.8399 -22.66875,8.189031 -31.14917,15.778133 0.15855,-0.449947 0.35567,-0.994169 0.52279,-1.319844"
   id="path331"
   style="fill:#0079bf" />
</svg>