<svg version="1.0" viewBox="0 0 150px 80.9118px" width="150" height="80.9118" xmlns="http://www.w3.org/2000/svg" xmlns:cc="http://creativecommons.org/ns#" xmlns:dc="http://purl.org/dc/elements/1.1/" xmlns:rdf="http://www.w3.org/1999/02/22-rdf-syntax-ns#" xmlns:svg="http://www.w3.org/2000/svg">
  <defs>
  </defs>
  <metadata>
    <rdf:RDF>
      <cc:Work rdf:about="">
        <dc:format>image/svg+xml</dc:format>
        <dc:type rdf:resource="http://purl.org/dc/dcmitype/StillImage"/>
      </cc:Work>
    </rdf:RDF>
  </metadata>
    <path d="M77.548,56.364h-3.810c-1.866,0-3.422-1.554-3.422-3.419v-23.944c0-4.743-1.397-7.076-5.517-7.076-4.665,0-6.920,6.686-6.920,6.686v24.334c0,1.865-1.477,3.419-3.421,3.419h-3.808c-1.867,0-3.422-1.554-3.422-3.419v-36.149c0-1.789,1.477-3.188,3.189-3.188h3.031c1.710,0,3.109,1.399,3.109,3.188v3.574h2.178l2.253-4.353c0,0,3.731-2.486,9.020-2.486,6.216,0,10.960,4.819,10.960,14.303v25.111c0,1.865-1.555,3.419-3.420,3.419" fill="#666a6f" fill-rule="nonzero"/>
    <path d="M110.74,27.058c0-3.265-2.49-5.520-5.75-5.520-3.27,0-5.755,2.255-5.755,5.520v4.742h11.505v-4.742zm6.84,11.272h-18.345v2.409c0,5.598,2.335,7.308,7.075,7.308h10.03c1.40,0,2.49,1.089,2.49,2.487v3.032c0,1.322-1.09,2.411-2.49,2.411h-12.13c-10.883,0-15.626-7.852-15.626-15.238v-12.128c0-8.085,7.151-14.615,14.536-14.615h3.42c7.31,0,14.85,6.530,14.85,14.615v5.987c0,2.100-1.71,3.732-3.81,3.732" fill="#666a6f" fill-rule="nonzero"/>
    <path d="M147.59,21.925h-4.67v31.020c0,1.865-1.55,3.419-3.42,3.419h-3.88c-1.87,0-3.42-1.554-3.42-3.419v-31.020h-4.59c-1.32,0-2.41-1.086-2.41-2.486v-3.032c0-1.321,1.09-2.411,2.41-2.411h4.59v-10.573c0-1.8637,1.55-3.4200,3.42-3.4200h3.88c1.87,0,3.42,1.5563,3.42,3.4200v10.573h4.67c1.32,0,2.41,1.090,2.41,2.411v3.032c0,1.400-1.09,2.486-2.41,2.486" fill="#666a6f" fill-rule="nonzero"/>
    <path d="M16.203,51.832c0,2.509-2.036,4.542-4.540,4.542h-6.9652c-2.5084,0-4.5427-2.033-4.5427-4.542v-33.011c0-2.508,2.0343-4.544,4.5427-4.544h6.9652c2.504,0,4.540,2.036,4.540,4.544v33.011zm0-46.366c0,2.5097-2.036,4.5435-4.540,4.5435h-6.9652c-2.5084,0-4.5427-2.0338-4.5427-4.5435v-0.9078c0-2.5097,2.0343-4.5427,4.5427-4.5427h6.9652c2.504,0,4.540,2.0330,4.540,4.5427v0.9078z" fill="#f78b11" fill-rule="nonzero"/>
    <path d="M39.600,51.832c0,2.509-2.031,4.542-4.540,4.542h-6.968c-2.507,0-4.540-2.033-4.540-4.542v-33.011c0-2.508,2.033-4.544,4.540-4.544h6.968c2.509,0,4.540,2.036,4.540,4.544v33.011zm0-46.366c0,2.5097-2.031,4.5435-4.540,4.5435h-6.968c-2.507,0-4.540-2.0338-4.540-4.5435v-0.9078c0-2.5097,2.033-4.5427,4.540-4.5427h6.968c2.509,0,4.540,2.0330,4.540,4.5427v0.9078z" fill="#ef293d" fill-rule="nonzero"/>
    <path d="M94.236,80.915c-1.592,0-2.602-0.749-2.602-0.749l-0.726-1.314h-0.654v1.077c0,0.541-0.421,0.961-0.939,0.961h-0.912c-0.516,0-0.962-0.420-0.962-0.961v-15.136c0-0.564,0.470-1.029,1.028-1.029h1.149c0.589,0,1.032,0.465,1.032,1.029v2.413l-0.396,2.837h0.654l0.726-1.313c0,0,1.010-0.750,2.602-0.750,1.875,0,3.609,1.453,3.609,4.309v4.312c0,2.862-1.734,4.314-3.609,4.314m0.400-8.273c0-1.428-0.656-2.133-1.900-2.133-1.404,0-2.086,2.019-2.086,2.019v3.842c0,0,0.682,2.013,2.086,2.013,1.244,0,1.900-0.703,1.900-2.132v-3.609z" fill="#666a6f" fill-rule="nonzero"/>
    <path d="M108.42,75.454h-5.54v0.725c0,1.690,0.70,2.203,2.14,2.203h3.02c0.42,0,0.75,0.331,0.75,0.750v0.916c0,0.395-0.33,0.726-0.75,0.726h-3.66c-3.28,0-4.705-2.364-4.705-4.595v-3.653c0-2.438,2.155-4.406,4.385-4.406h1.03c2.20,0,4.47,1.968,4.47,4.406v1.803c0,0.633-0.51,1.125-1.14,1.125m-2.07-3.398c0-0.982-0.75-1.663-1.73-1.663-0.98,0-1.74,0.681-1.74,1.663v1.428h3.47v-1.428z" fill="#666a6f" fill-rule="nonzero"/>
    <path d="M117.46,70.509h-1.41v9.350c0,0.562-0.47,1.031-1.03,1.031h-1.17c-0.56,0-1.03-0.469-1.03-1.031v-9.350h-1.38c-0.40,0-0.73-0.327-0.73-0.750v-0.913c0-0.399,0.33-0.726,0.73-0.726h1.38v-3.185c0-0.565,0.47-1.033,1.03-1.033h1.17c0.56,0,1.03,0.468,1.03,1.033v3.185h1.41c0.40,0,0.72,0.327,0.72,0.726v0.913c0,0.423-0.32,0.750-0.72,0.750" fill="#666a6f" fill-rule="nonzero"/>
    <path d="M125.87,70.509h-1.41v9.350c0,0.562-0.47,1.031-1.03,1.031h-1.17c-0.56,0-1.03-0.469-1.03-1.031v-9.350h-1.38c-0.40,0-0.73-0.327-0.73-0.750v-0.913c0-0.399,0.33-0.726,0.73-0.726h1.38v-3.185c0-0.565,0.47-1.033,1.03-1.033h1.17c0.56,0,1.03,0.468,1.03,1.033v3.185h1.41c0.40,0,0.73,0.327,0.73,0.726v0.913c0,0.423-0.33,0.750-0.73,0.750" fill="#666a6f" fill-rule="nonzero"/>
    <path d="M136.72,75.454h-5.53v0.725c0,1.690,0.70,2.203,2.13,2.203h3.02c0.43,0,0.76,0.331,0.76,0.750v0.916c0,0.395-0.33,0.726-0.76,0.726h-3.65c-3.28,0-4.71-2.364-4.71-4.595v-3.653c0-2.438,2.15-4.406,4.38-4.406h1.03c2.20,0,4.48,1.968,4.48,4.406v1.803c0,0.633-0.52,1.125-1.15,1.125m-2.06-3.398c0-0.982-0.75-1.663-1.74-1.663-0.98,0-1.73,0.681-1.73,1.663v1.428h3.47v-1.428z" fill="#666a6f" fill-rule="nonzero"/>
    <path d="M146.09,71.260h-0.89c-1.43,0-2.06,0.751-2.06,2.177v6.422c0,0.562-0.47,1.031-1.04,1.031h-1.14c-0.58,0-1.03-0.469-1.03-1.031v-10.897c0-0.538,0.42-0.958,0.96-0.958h0.91c0.52,0,0.94,0.420,0.94,0.958v1.311h0.66l0.60-1.544c0,0,0.66-0.704,1.63-0.704h0.46c0.47,0,0.73,0.353,0.73,0.704v1.802c0,0.356-0.26,0.729-0.73,0.729" fill="#666a6f" fill-rule="nonzero"/>
    <path d="M7.1228,80.774h-2.5318c-2.5761,0-4.5909-2.392-4.5909-4.617v-3.421c0-2.227,2.0148-4.616,4.5909-4.616h2.5318c0.3998,0,0.7254,0.327,0.7254,0.724v1.031c0,0.398-0.3256,0.726-0.7254,0.726h-1.6618c-1.4548,0-2.2519,0.962-2.2519,2.369v2.950c0,1.408,0.7971,2.371,2.2519,2.371h1.6618c0.3998,0,0.7254,0.324,0.7254,0.724v1.033c0,0.395-0.3256,0.726-0.7254,0.726" fill="#666a6f" fill-rule="nonzero"/>
    <path d="M15.583,80.774h-1.946c-2.225,0-4.2402-2.014-4.2402-4.501v-3.656c0-2.505,2.0152-4.497,4.2402-4.497h1.946c2.225,0,4.265,1.992,4.265,4.497v3.656c0,2.487-2.040,4.501-4.265,4.501m1.052-8.038c0-1.524-0.586-2.343-2.013-2.343-1.431,0-2.015,0.819-2.015,2.343v3.493c0,1.521,0.584,2.273,2.015,2.273,1.427,0,2.013-0.752,2.013-2.273v-3.493z" fill="#666a6f" fill-rule="nonzero"/>
    <path d="M31.374,80.890h-1.147c-0.563,0-1.029-0.469-1.029-1.031v-7.217c0-1.430-0.424-2.133-1.663-2.133-1.410,0-2.089,2.017-2.089,2.017v7.333c0,0.562-0.444,1.031-1.030,1.031h-1.149c-0.563,0-1.031-0.469-1.031-1.031v-10.897c0-0.537,0.446-0.958,0.962-0.958h0.908c0.518,0,0.944,0.421,0.944,0.958v1.079h0.654l0.678-1.312c0,0,1.126-0.749,2.720-0.749,1.876,0,3.303,1.453,3.303,4.309v7.570c0,0.562-0.471,1.031-1.031,1.031" fill="#666a6f" fill-rule="nonzero"/>
    <path d="M44.357,80.890h-1.150c-0.560,0-1.031-0.469-1.031-1.031v-7.217c0-1.430-0.422-2.133-1.663-2.133-1.406,0-2.085,2.017-2.085,2.017v7.333c0,0.562-0.445,1.031-1.031,1.031h-1.148c-0.565,0-1.033-0.469-1.033-1.031v-10.897c0-0.537,0.446-0.958,0.963-0.958h0.909c0.520,0,0.940,0.421,0.940,0.958v1.079h0.655l0.682-1.312c0,0,1.122-0.749,2.718-0.749,1.874,0,3.304,1.453,3.304,4.309v7.570c0,0.562-0.468,1.031-1.030,1.031" fill="#666a6f" fill-rule="nonzero"/>
    <path d="M56.424,75.454h-5.530v0.725c0,1.690,0.705,2.203,2.132,2.203h3.023c0.421,0,0.749,0.331,0.749,0.750v0.916c0,0.395-0.328,0.726-0.749,0.726h-3.653c-3.282,0-4.711-2.364-4.711-4.595v-3.653c0-2.438,2.156-4.406,4.378-4.406h1.036c2.199,0,4.471,1.968,4.471,4.406v1.803c0,0.633-0.515,1.125-1.146,1.125m-2.063-3.398c0-0.982-0.747-1.663-1.734-1.663-0.984,0-1.733,0.681-1.733,1.663v1.428h3.467v-1.428z" fill="#666a6f" fill-rule="nonzero"/>
    <path d="M66.287,80.774h-2.526c-2.583,0-4.598-2.392-4.598-4.617v-3.421c0-2.227,2.015-4.616,4.598-4.616h2.526c0.401,0,0.726,0.327,0.726,0.724v1.031c0,0.398-0.325,0.726-0.726,0.726h-1.662c-1.453,0-2.251,0.962-2.251,2.369v2.950c0,1.408,0.798,2.371,2.251,2.371h1.662c0.401,0,0.726,0.324,0.726,0.724v1.033c0,0.395-0.325,0.726-0.726,0.726" fill="#666a6f" fill-rule="nonzero"/>
    <path d="M74.793,70.509h-1.404v9.350c0,0.562-0.469,1.031-1.033,1.031h-1.172c-0.561,0-1.029-0.469-1.029-1.031v-9.350h-1.383c-0.400,0-0.729-0.327-0.729-0.750v-0.913c0-0.399,0.329-0.726,0.729-0.726h1.383v-3.185c0-0.565,0.468-1.033,1.029-1.033h1.172c0.564,0,1.033,0.468,1.033,1.033v3.185h1.404c0.404,0,0.728,0.327,0.728,0.726v0.913c0,0.423-0.324,0.750-0.728,0.750" fill="#666a6f" fill-rule="nonzero"/>
</svg>