<?xml version="1.0" encoding="UTF-8" standalone="no"?>
<!-- Created with Inkscape (http://www.inkscape.org/) -->

<svg
   xmlns:dc="http://purl.org/dc/elements/1.1/"
   xmlns:cc="http://creativecommons.org/ns#"
   xmlns:rdf="http://www.w3.org/1999/02/22-rdf-syntax-ns#"
   xmlns:svg="http://www.w3.org/2000/svg"
   xmlns="http://www.w3.org/2000/svg"
   xmlns:sodipodi="http://sodipodi.sourceforge.net/DTD/sodipodi-0.dtd"
   xmlns:inkscape="http://www.inkscape.org/namespaces/inkscape"
   width="100"
   height="37.189999"
   id="svg6506"
   version="1.1"
   inkscape:version="0.47 r22583"
   sodipodi:docname="New document 6">
  <defs
     id="defs6508">
    <inkscape:perspective
       sodipodi:type="inkscape:persp3d"
       inkscape:vp_x="0 : 526.18109 : 1"
       inkscape:vp_y="0 : 1000 : 0"
       inkscape:vp_z="744.09448 : 526.18109 : 1"
       inkscape:persp3d-origin="372.04724 : 350.78739 : 1"
       id="perspective6514" />
    <inkscape:perspective
       id="perspective6493"
       inkscape:persp3d-origin="0.5 : 0.33333333 : 1"
       inkscape:vp_z="1 : 0.5 : 1"
       inkscape:vp_y="0 : 1000 : 0"
       inkscape:vp_x="0 : 0.5 : 1"
       sodipodi:type="inkscape:persp3d" />
  </defs>
  <sodipodi:namedview
     id="base"
     pagecolor="#ffffff"
     bordercolor="#666666"
     borderopacity="1.0"
     inkscape:pageopacity="0.0"
     inkscape:pageshadow="2"
     inkscape:zoom="3.959798"
     inkscape:cx="44.032986"
     inkscape:cy="-13.006813"
     inkscape:document-units="px"
     inkscape:current-layer="layer1"
     showgrid="false"
     inkscape:window-width="1920"
     inkscape:window-height="1000"
     inkscape:window-x="-8"
     inkscape:window-y="-8"
     inkscape:window-maximized="1" />
  <metadata
     id="metadata6511">
    <rdf:RDF>
      <cc:Work
         rdf:about="">
        <dc:format>image/svg+xml</dc:format>
        <dc:type
           rdf:resource="http://purl.org/dc/dcmitype/StillImage" />
        <dc:title></dc:title>
      </cc:Work>
    </rdf:RDF>
  </metadata>
  <g
     inkscape:label="Layer 1"
     inkscape:groupmode="layer"
     id="layer1"
     transform="translate(-544.59754,-315.93862)">
    <g
       id="g6475"
       transform="matrix(0.63371762,0,0,0.63371762,657.38689,824.94068)">
      <g
         transform="translate(0,1.0958739e-5)"
         id="g5872">
        <path
           id="path5874"
           style="fill:#1c63b7;fill-opacity:1;fill-rule:nonzero;stroke:none"
           d="m -139.91,-783.334 c -0.164,0.019 -0.3,0.162 -0.347,0.357 -0.005,0.028 -3.199,29.007 -3.199,29.007 l -0.026,0.258 c -0.25,2.406 -0.49,4.682 -2.278,5.01 -1.002,0.195 -1.457,0.195 -1.99,0.195 -0.637,0 -1.29,0.33 -1.29,0.943 0,0.563 0.309,1.223 1.781,1.223 1.204,0 2.999,-0.086 4.305,-0.146 l 1.559,-0.063 1.228,0.047 c 1.39,0.068 3.48,0.162 5.25,0.162 0.505,0 1.85,0 1.85,-1.223 0,-0.527 -0.507,-0.943 -1.155,-0.943 -0.405,0 -1.395,-0.066 -2.513,-0.328 -0.786,-0.162 -1.357,-0.822 -1.357,-1.586 0,-1.187 0,-2.42 0.067,-3.519 l 1.992,-23.068 c 0.031,-0.333 -0.031,-0.466 -0.133,-0.642 0,-0.005 -0.026,-0.044 -0.026,-0.048 l -3.257,-5.331 c -0.156,-0.295 -0.356,-0.32 -0.461,-0.305" />
      </g>
      <path
         id="path5884"
         style="fill:#1c63b7;fill-opacity:1;fill-rule:nonzero;stroke:none"
         d="m -167.39,-800.019 -1.152,0.043 c 0.015,0 -1.078,-0.038 -1.078,-0.038 -1.492,-0.061 -4.277,-0.171 -5.947,-0.171 -0.424,0 -1.709,0 -1.709,1.151 0,0.586 0.481,1.011 1.147,1.011 0.395,0 1.259,0.057 2.008,0.261 1.266,0.286 1.804,1.228 1.93,3.361 0.136,2.213 0.136,4.17 0.136,15.013 l 0,12.257 c 0,6.525 0,12.157 -0.343,15.046 -0.28,2.057 -0.602,3.131 -1.546,3.322 -0.758,0.166 -1.491,0.266 -1.974,0.266 -0.79,0 -1.149,0.523 -1.149,1.014 0,1.148 1.285,1.148 1.706,1.148 1.483,0 4.094,-0.105 5.653,-0.168 0.033,0 1.181,-0.041 1.181,-0.041 l 0.809,0.027 c 1.558,0.057 4.8,0.182 7.752,0.182 1.544,0 1.711,-0.805 1.711,-1.148 0,-0.491 -0.362,-1.014 -1.155,-1.014 -0.583,0 -2.067,-0.133 -3.049,-0.276 -1.613,-0.208 -1.997,-1.238 -2.211,-3.296 -0.345,-2.905 -0.345,-8.537 -0.345,-15.062 l 0,-12.257 c 0,-10.843 0,-12.8 0.138,-15.009 0.134,-2.351 0.626,-3.151 2.09,-3.427 0.804,-0.129 1.202,-0.199 1.638,-0.199 0.666,0 1.152,-0.425 1.152,-1.011 0,-1.151 -1.288,-1.151 -1.71,-1.151 -1.508,0 -4.121,0.104 -5.683,0.166" />
      <path
         id="path5886"
         style="fill:#1c63b7;fill-opacity:1;fill-rule:nonzero;stroke:none"
         d="m -140.767,-802.389 c -0.489,0.243 -0.476,0.938 -0.218,1.471 -0.003,-0.004 0.102,0.233 0.102,0.233 l 24.216,54.198 c 0.253,0.48 0.534,0.586 0.724,0.589 0.276,0.01 0.534,-0.185 0.762,-0.566 0.01,-0.019 3.843,-8.045 3.843,-8.045 0.01,-0.017 0.146,-0.412 0.146,-0.412 0.004,-0.006 0.214,-0.482 -0.058,-1.053 -0.271,-0.586 -27.058,-43.94 -28.199,-45.782 0,0 0.003,0.005 0.006,0.01 -0.343,-0.629 -0.852,-0.876 -1.324,-0.643" />
      <path
         id="path5888"
         style="fill:#1c63b7;fill-opacity:1;fill-rule:nonzero;stroke:none"
         d="m -95.797,-748.259 c 0.004,0.006 0.025,0.006 0.043,0.006 -0.018,0 -0.03,0 -0.043,-0.006 m 1.066,-51.493 -2.592,5.531 c -0.002,0 -0.06,0.119 -0.06,0.119 -0.125,0.239 -0.252,0.486 -0.186,1.209 l 3.903,41.902 0.025,0.258 c 0.066,1.226 -0.209,1.828 -0.904,1.937 -1,0.156 -1.196,0.147 -1.205,0.147 -0.7,0.052 -1.166,0.439 -1.166,0.937 0,1.225 1.343,1.225 1.847,1.225 2.037,0 4.375,-0.102 5.285,-0.139 -0.021,0 0.245,0.01 0.245,0.01 l 0.142,0.004 2.686,0.109 0.64,0.023 c 2.645,0.082 5.09,0.139 5.846,0.139 1.857,0 2.057,-0.851 2.057,-1.223 0,-0.218 -0.084,-0.943 -1.151,-0.943 -0.662,0 -2.424,0 -4.357,-0.599 -2.684,-0.87 -3.104,-4.639 -3.356,-6.887 l -4.681,-42.816 c -0.096,-0.9 -0.258,-2.414 -1.434,-2.414 -0.931,0 -1.361,0.957 -1.584,1.471" />
      <path
         id="path5890"
         style="fill:#1c63b7;fill-opacity:1;fill-rule:nonzero;stroke:none"
         d="m -127.639,-802.322 c -0.519,0.257 -0.437,1.019 -0.214,1.475 -0.005,-0.009 0.1,0.224 0.1,0.224 0,0.005 18.003,41.037 18.003,41.037 0.11,0.242 0.288,0.271 0.362,0.271 0.186,0.004 0.335,-0.129 0.4,-0.268 l 4.008,-8.391 c 0.004,-0.019 0.15,-0.418 0.15,-0.418 0.002,-0.006 0.21,-0.486 -0.06,-1.053 -0.273,-0.59 -20.568,-30.958 -21.43,-32.254 0,0.009 0.005,0.009 0.009,0.014 -0.347,-0.627 -0.859,-0.875 -1.328,-0.637" />
      <path
         id="path5892"
         style="fill:#1c63b7;fill-opacity:1;fill-rule:nonzero;stroke:none"
         d="m -62.223,-796.681 c -7.463,4.693 -11.918,13.451 -11.918,23.424 0,9.533 4.58,16.893 8.498,20.297 5.772,5.045 13.609,7.6 23.307,7.6 4.355,0 10.601,-0.842 15.047,-3.208 1.185,-0.685 1.218,-1.214 1.218,-4.279 l 0,-7.801 c 0,-2.903 0,-4.999 0.139,-7.211 0.137,-2.348 0.623,-3.152 2.094,-3.422 0.795,-0.134 1.189,-0.2 1.637,-0.2 0.662,0 1.146,-0.425 1.146,-1.015 0,-1.147 -1.283,-1.147 -1.707,-1.147 -1.514,0 -4.227,0.11 -5.686,0.166 l -1.146,0.044 c 0.01,0 -0.908,-0.034 -0.908,-0.034 -1.491,-0.057 -4.6,-0.176 -6.959,-0.176 -0.424,0 -1.705,0 -1.705,1.147 0,0.59 0.482,1.015 1.148,1.015 0.613,0 1.752,0.07 2.227,0.19 2.298,0.632 2.685,0.903 2.685,6.601 l 0,11.843 c 0,0.92 -0.34,1.51 -1.08,1.912 -1.662,0.959 -5.137,1.391 -7.664,1.391 -6.873,0 -12.877,-2.449 -17.836,-7.281 -2.49,-2.419 -7.205,-9.483 -7.205,-18.874 0,-7.473 2.494,-13.914 6.672,-17.227 4.975,-3.928 9.928,-4.471 14.541,-4.471 8.475,0 14.166,2.791 15.871,5.375 1.139,1.824 1.342,3.918 1.371,4.318 0.061,0.605 0.174,1.594 1.08,1.594 1.213,0 1.213,-1.336 1.213,-2.056 0,-5.035 0.262,-7.445 0.4,-8.735 0,-0.005 0.09,-1.143 0.09,-1.143 0,-0.417 -0.175,-1.112 -1.371,-1.232 -1.855,-0.076 -4.244,-0.367 -5.562,-0.681 -0.235,-0.052 -5.742,-1.2 -10.793,-1.2 -5.426,0 -12.465,0.51 -18.844,4.476" />
      <path
         id="path5894"
         style="fill:#1c63b7;fill-opacity:1;fill-rule:nonzero;stroke:none"
         d="m -114.567,-802.332 c -0.52,0.257 -0.434,1.019 -0.21,1.476 -0.004,-0.009 0.101,0.228 0.101,0.228 l 11.262,27.609 c 0.088,0.195 0.228,0.304 0.386,0.304 0.159,0 0.299,-0.109 0.386,-0.299 l 4.064,-8.535 c 0.005,-0.015 0.154,-0.41 0.154,-0.41 0.004,-0.004 0.209,-0.485 -0.063,-1.056 -0.271,-0.586 -13.286,-16.851 -14.771,-18.703 0.007,0.009 0.014,0.019 0.019,0.028 -0.35,-0.632 -0.86,-0.88 -1.328,-0.642" />
    </g>
  </g>
</svg>
