<?xml version="1.0" encoding="UTF-8" standalone="no"?>
<!-- Created with Inkscape (http://www.inkscape.org/) -->

<svg
   xmlns:dc="http://purl.org/dc/elements/1.1/"
   xmlns:cc="http://creativecommons.org/ns#"
   xmlns:rdf="http://www.w3.org/1999/02/22-rdf-syntax-ns#"
   xmlns:svg="http://www.w3.org/2000/svg"
   xmlns="http://www.w3.org/2000/svg"
   xmlns:sodipodi="http://sodipodi.sourceforge.net/DTD/sodipodi-0.dtd"
   xmlns:inkscape="http://www.inkscape.org/namespaces/inkscape"
   width="500"
   height="72.811653"
   id="svg5910"
   version="1.1"
   inkscape:version="0.48.2 r9819"
   sodipodi:docname="Monsoon.svg">
  <defs
     id="defs5912">
    <clipPath
       id="clipPath4867"
       clipPathUnits="userSpaceOnUse">
      <path
         inkscape:connector-curvature="0"
         id="path4869"
         d="m 267.95,266.251 122.381,0 0,17.338 -122.381,0 0,-17.338 z" />
    </clipPath>
    <clipPath
       id="clipPath7628"
       clipPathUnits="userSpaceOnUse">
      <path
         inkscape:connector-curvature="0"
         id="path7630"
         d="m 35.433,420.943 269.291,0 0,38.756 -269.291,0 0,-38.756 z" />
    </clipPath>
  </defs>
  <sodipodi:namedview
     id="base"
     pagecolor="#ffffff"
     bordercolor="#666666"
     borderopacity="1.0"
     inkscape:pageopacity="0.0"
     inkscape:pageshadow="2"
     inkscape:zoom="0.98994949"
     inkscape:cx="556.03845"
     inkscape:cy="106.38952"
     inkscape:document-units="px"
     inkscape:current-layer="layer1"
     showgrid="false"
     fit-margin-left="0.5"
     fit-margin-bottom="0.5"
     fit-margin-top="0.5"
     fit-margin-right="0.5"
     inkscape:window-width="1920"
     inkscape:window-height="1028"
     inkscape:window-x="-8"
     inkscape:window-y="-8"
     inkscape:window-maximized="1" />
  <metadata
     id="metadata5915">
    <rdf:RDF>
      <cc:Work
         rdf:about="">
        <dc:format>image/svg+xml</dc:format>
        <dc:type
           rdf:resource="http://purl.org/dc/dcmitype/StillImage" />
        <dc:title></dc:title>
      </cc:Work>
    </rdf:RDF>
  </metadata>
  <g
     inkscape:label="Layer 1"
     inkscape:groupmode="layer"
     id="layer1"
     transform="translate(-165.54022,-795.1268)">
    <g
       transform="matrix(1.8530223,0,0,-1.8530223,100.38172,1647.4593)"
       id="g7624"
       style="fill:#ff0000">
      <g
         clip-path="url(#clipPath7628)"
         id="g7626"
         style="fill:#ff0000">
        <g
           transform="translate(220.5753,440.87579)"
           id="g7632"
           style="fill:#2a2a86;fill-opacity:1">
          <path
             id="path7634"
             style="fill:#2a2a86;fill-opacity:1;fill-rule:nonzero;stroke:none"
             d="m 0,0 -1.362,-1.777 c -1.358,1.325 -2.746,2.105 -4.802,2.105 -3.668,0 -5.973,-2.619 -5.973,-6.497 0,-3.711 2.519,-6.246 6.14,-6.246 1.879,0 3.462,0.818 4.851,2.022 l 1.106,-1.852 c -1.363,-1.309 -3.522,-2.363 -6.093,-2.363 -5.049,0 -8.534,3.582 -8.534,8.439 0,5.057 3.666,8.657 8.618,8.657 C -3.592,2.488 -1.4,1.48 0,0"
             inkscape:connector-curvature="0" />
        </g>
        <g
           transform="translate(234.0428,437.7007)"
           id="g7636"
           style="fill:#2a2a86;fill-opacity:1">
          <path
             id="path7638"
             style="fill:#2a2a86;fill-opacity:1;fill-rule:nonzero;stroke:none"
             d="m 0,0 2.117,0 0,-1.718 0.048,0 c 0.659,1.118 1.952,2 3.669,2 1.187,0 2.31,-0.416 3.063,-1.277 0.609,-0.694 0.984,-1.633 0.984,-3.071 l 0,-7.086 -2.118,0 0,6.531 c 0,1.104 -0.273,1.766 -0.708,2.224 -0.47,0.494 -1.128,0.703 -1.832,0.703 -0.976,0 -1.722,-0.321 -2.239,-0.895 C 2.407,-3.231 2.117,-4.082 2.117,-5.501 l 0,-5.651 -2.117,0 L 0,0 z"
             inkscape:connector-curvature="0" />
        </g>
        <g
           transform="translate(232.3951,431.49409)"
           id="g7640"
           style="fill:#2a2a86;fill-opacity:1">
          <path
             id="path7642"
             style="fill:#2a2a86;fill-opacity:1;fill-rule:nonzero;stroke:none"
             d="m 0,0 -8.888,0 c 0.222,-2.366 1.87,-3.386 3.686,-3.386 1.604,0 2.851,0.741 4.021,1.727 l 0.951,-1.567 c -1.138,-1.078 -3.094,-2.002 -5.131,-2.002 -3.529,0 -5.749,2.541 -5.749,5.858 0,3.186 2.244,5.858 5.707,5.858 3.13,0 5.46,-2.163 5.46,-5.833 C 0.057,0.418 0.036,0.241 0,0 m -5.417,4.73 c -1.993,0 -3.128,-1.302 -3.42,-3.166 l 6.635,0 C -2.248,3.422 -3.498,4.73 -5.417,4.73"
             inkscape:connector-curvature="0" />
        </g>
        <g
           transform="translate(271.22301,431.49409)"
           id="g7644"
           style="fill:#2a2a86;fill-opacity:1">
          <path
             id="path7646"
             style="fill:#2a2a86;fill-opacity:1;fill-rule:nonzero;stroke:none"
             d="m 0,0 -8.888,0 c 0.223,-2.366 1.871,-3.386 3.686,-3.386 1.604,0 2.851,0.741 4.021,1.727 l 0.951,-1.567 c -1.138,-1.078 -3.094,-2.002 -5.131,-2.002 -3.529,0 -5.748,2.541 -5.748,5.858 0,3.186 2.243,5.858 5.706,5.858 3.13,0 5.46,-2.163 5.46,-5.833 C 0.057,0.418 0.037,0.241 0,0 m -5.417,4.73 c -1.993,0 -3.128,-1.302 -3.42,-3.166 l 6.635,0 C -2.248,3.422 -3.498,4.73 -5.417,4.73"
             inkscape:connector-curvature="0" />
        </g>
        <g
           transform="translate(253.4968,437.7007)"
           id="g7648"
           style="fill:#2a2a86;fill-opacity:1">
          <path
             id="path7650"
             style="fill:#2a2a86;fill-opacity:1;fill-rule:nonzero;stroke:none"
             d="m 0,0 2.117,0 0,-1.718 0.047,0 c 0.57,1.114 1.937,1.991 3.325,1.991 0.299,0 0.667,-0.041 0.926,-0.117 l 0,-1.911 -0.994,0 C 4.335,-1.755 3.53,-2.112 2.99,-2.665 2.417,-3.252 2.117,-4.134 2.117,-5.553 l 0,-5.599 -2.117,0 L 0,0 z"
             inkscape:connector-curvature="0" />
        </g>
        <g
           transform="translate(279.72301,434.73331)"
           id="g7652"
           style="fill:#2a2a86;fill-opacity:1">
          <path
             id="path7654"
             style="fill:#2a2a86;fill-opacity:1;fill-rule:nonzero;stroke:none"
             d="m 0,0 c -0.804,0.949 -1.833,1.493 -2.965,1.493 -1.174,0 -1.945,-0.562 -1.945,-1.483 0,-1.003 1.247,-1.292 2.631,-1.662 2.326,-0.62 3.794,-1.243 3.794,-3.269 0,-2.418 -2.033,-3.554 -4.243,-3.554 -1.982,0 -3.561,0.723 -4.641,2.002 l 1.352,1.361 c 0.727,-0.924 2.003,-1.614 3.224,-1.614 1.537,0 2.231,0.762 2.231,1.615 0,0.861 -0.76,1.229 -2.387,1.64 -2.195,0.555 -4.029,1.121 -4.029,3.423 0,1.707 1.44,3.289 4.154,3.289 1.531,0 3.2,-0.636 4.138,-1.94 L 0,0 z"
             inkscape:connector-curvature="0" />
        </g>
        <g
           transform="translate(249.03259,435.94679)"
           id="g7656"
           style="fill:#2a2a86;fill-opacity:1">
          <path
             id="path7658"
             style="fill:#2a2a86;fill-opacity:1;fill-rule:nonzero;stroke:none"
             d="m 0,0 0,-9.398 -2.118,0 0,9.398 -2.056,0 0,1.754 2.056,0 0,3.543 2.118,0 0,-3.543 3.197,0 L 3.197,0 0,0 z"
             inkscape:connector-curvature="0" />
        </g>
        <g
           transform="translate(50.099197,440.87579)"
           id="g7660"
           style="fill:#2a2a86;fill-opacity:1">
          <path
             id="path7662"
             style="fill:#2a2a86;fill-opacity:1;fill-rule:nonzero;stroke:none"
             d="m 0,0 -1.362,-1.777 c -1.357,1.325 -2.746,2.105 -4.802,2.105 -3.668,0 -5.973,-2.619 -5.973,-6.497 0,-3.711 2.519,-6.246 6.14,-6.246 1.88,0 3.462,0.818 4.851,2.022 l 1.106,-1.852 c -1.363,-1.309 -3.523,-2.363 -6.093,-2.363 -5.049,0 -8.533,3.582 -8.533,8.439 0,5.057 3.665,8.657 8.617,8.657 C -3.592,2.488 -1.4,1.48 0,0"
             inkscape:connector-curvature="0" />
        </g>
        <g
           transform="translate(66.771393,432.1241)"
           id="g7664"
           style="fill:#2a2a86;fill-opacity:1">
          <path
             id="path7666"
             style="fill:#2a2a86;fill-opacity:1;fill-rule:nonzero;stroke:none"
             d="m 0,0 c 0,-2.258 1.412,-3.881 3.67,-3.881 2.258,0 3.67,1.623 3.67,3.881 0,2.259 -1.412,3.883 -3.67,3.883 C 1.412,3.883 0,2.259 0,0 m -2.118,5.576 2.118,0 0,-1.641 0.047,0 c 0.824,1.201 2.376,1.923 3.882,1.923 3.458,0 5.67,-2.564 5.67,-5.858 0,-3.34 -2.236,-5.858 -5.67,-5.858 -1.6,0 -3.129,0.762 -3.882,1.915 l -0.047,0 0,-7.149 -2.118,0 0,16.668 z"
             inkscape:connector-curvature="0" />
        </g>
        <path
           id="path7668"
           style="fill:#2a2a86;fill-opacity:1;fill-rule:nonzero;stroke:none"
           d="m 102.471,443.078 2.117,0 0,-16.53 -2.117,0 0,16.53 z"
           inkscape:connector-curvature="0" />
        <path
           id="path7670"
           style="fill:#2a2a86;fill-opacity:1;fill-rule:nonzero;stroke:none"
           d="m 80.15,442.321 -2.398,0 0,-2.39 2.398,0 0,2.39 z m -2.255,-4.62 2.118,0 0,-11.152 -2.118,0 0,11.152 z"
           inkscape:connector-curvature="0" />
        <g
           transform="translate(85.481506,435.94679)"
           id="g7672"
           style="fill:#2a2a86;fill-opacity:1">
          <path
             id="path7674"
             style="fill:#2a2a86;fill-opacity:1;fill-rule:nonzero;stroke:none"
             d="m 0,0 0,-9.398 -2.118,0 0,9.398 -2.056,0 0,1.754 2.056,0 0,3.543 2.118,0 0,-3.543 3.197,0 L 3.197,0 0,0 z"
             inkscape:connector-curvature="0" />
        </g>
        <g
           transform="translate(94.645599,428.23779)"
           id="g7676"
           style="fill:#2a2a86;fill-opacity:1">
          <path
             id="path7678"
             style="fill:#2a2a86;fill-opacity:1;fill-rule:nonzero;stroke:none"
             d="m 0,0 c -2.188,0 -3.646,1.555 -3.646,3.813 0,2.258 1.419,3.955 3.678,3.955 2.259,0 3.662,-1.697 3.662,-3.955 C 3.694,1.555 2.258,0 0,0 m 5.811,-1.689 0,11.151 -2.117,0 0,-1.64 -0.047,0 c -0.823,1.199 -2.368,1.922 -3.874,1.922 -3.458,0 -5.678,-2.637 -5.678,-5.931 -0.023,-3.246 2.377,-5.782 5.646,-5.782 1.529,0 3.083,0.692 3.883,2.034 l 0.07,0 0,-1.754 2.117,0 z"
             inkscape:connector-curvature="0" />
        </g>
        <g
           transform="translate(56.818695,428.23779)"
           id="g7680"
           style="fill:#2a2a86;fill-opacity:1">
          <path
             id="path7682"
             style="fill:#2a2a86;fill-opacity:1;fill-rule:nonzero;stroke:none"
             d="m 0,0 c -2.188,0 -3.646,1.555 -3.646,3.813 0,2.258 1.419,3.955 3.678,3.955 2.259,0 3.663,-1.697 3.663,-3.955 C 3.695,1.555 2.259,0 0,0 m 5.811,-1.689 0,11.151 -2.116,0 0,-1.64 -0.047,0 C 2.824,9.021 1.28,9.744 -0.227,9.744 c -3.458,0 -5.678,-2.637 -5.678,-5.931 0,-3.334 2.361,-5.782 5.63,-5.782 1.529,0 3.099,0.692 3.899,2.034 l 0.071,0 0,-1.754 2.116,0 z"
             inkscape:connector-curvature="0" />
        </g>
        <g
           transform="translate(149.3412,432.1241)"
           id="g7684"
           style="fill:#2a2a86;fill-opacity:1">
          <path
             id="path7686"
             style="fill:#2a2a86;fill-opacity:1;fill-rule:nonzero;stroke:none"
             d="m 0,0 c 0,-2.258 1.412,-3.881 3.67,-3.881 2.258,0 3.67,1.623 3.67,3.881 0,2.259 -1.412,3.883 -3.67,3.883 C 1.412,3.883 0,2.259 0,0 m -2.118,5.576 2.118,0 0,-1.641 0.047,0 c 0.824,1.201 2.376,1.923 3.882,1.923 3.459,0 5.67,-2.564 5.67,-5.858 0,-3.34 -2.236,-5.858 -5.67,-5.858 -1.6,0 -3.129,0.762 -3.882,1.915 l -0.047,0 0,-7.149 -2.118,0 0,16.668 z"
             inkscape:connector-curvature="0" />
        </g>
        <g
           transform="translate(162.5475,432.1241)"
           id="g7688"
           style="fill:#2a2a86;fill-opacity:1">
          <path
             id="path7690"
             style="fill:#2a2a86;fill-opacity:1;fill-rule:nonzero;stroke:none"
             d="m 0,0 c 0,-2.258 1.412,-3.881 3.67,-3.881 2.259,0 3.67,1.623 3.67,3.881 0,2.259 -1.411,3.883 -3.67,3.883 C 1.412,3.883 0,2.259 0,0 m -2.117,5.576 2.117,0 0,-1.641 0.047,0 c 0.824,1.201 2.376,1.923 3.882,1.923 3.459,0 5.672,-2.564 5.672,-5.858 0,-3.34 -2.238,-5.858 -5.672,-5.858 -1.6,0 -3.129,0.762 -3.882,1.915 l -0.047,0 0,-7.149 -2.117,0 0,16.668 z"
             inkscape:connector-curvature="0" />
        </g>
        <g
           transform="translate(122.6105,443.08009)"
           id="g7692"
           style="fill:#2a2a86;fill-opacity:1">
          <path
             id="path7694"
             style="fill:#2a2a86;fill-opacity:1;fill-rule:nonzero;stroke:none"
             d="m 0,0 2.117,0 0,-7.097 0.047,0 c 0.66,1.118 1.953,1.999 3.67,1.999 1.187,0 2.31,-0.416 3.063,-1.276 0.609,-0.694 0.984,-1.633 0.984,-3.071 l 0,-7.086 -2.118,0 0,6.53 c 0,1.104 -0.273,1.766 -0.708,2.224 -0.47,0.494 -1.128,0.703 -1.832,0.703 -0.975,0 -1.722,-0.321 -2.239,-0.895 C 2.407,-8.61 2.117,-9.462 2.117,-10.881 l 0,-5.65 -2.117,0 L 0,0 z"
             inkscape:connector-curvature="0" />
        </g>
        <g
           transform="translate(177.7684,437.7007)"
           id="g7696"
           style="fill:#2a2a86;fill-opacity:1">
          <path
             id="path7698"
             style="fill:#2a2a86;fill-opacity:1;fill-rule:nonzero;stroke:none"
             d="m 0,0 2.117,0 0,-1.718 0.048,0 c 0.659,1.118 1.952,2 3.67,2 1.187,0 2.309,-0.416 3.063,-1.277 0.608,-0.694 0.983,-1.633 0.983,-3.071 l 0,-7.086 -2.117,0 0,6.531 c 0,1.104 -0.274,1.766 -0.708,2.224 -0.471,0.494 -1.128,0.703 -1.833,0.703 -0.975,0 -1.722,-0.321 -2.239,-0.895 C 2.407,-3.231 2.117,-4.082 2.117,-5.501 l 0,-5.651 -2.117,0 L 0,0 z"
             inkscape:connector-curvature="0" />
        </g>
        <g
           transform="translate(139.8134,428.2429)"
           id="g7700"
           style="fill:#2a2a86;fill-opacity:1">
          <path
             id="path7702"
             style="fill:#2a2a86;fill-opacity:1;fill-rule:nonzero;stroke:none"
             d="M 0,0 C 2.259,0 3.67,1.623 3.67,3.881 3.67,6.14 2.259,7.764 0,7.764 -2.259,7.764 -3.67,6.14 -3.67,3.881 -3.67,1.623 -2.259,0 0,0 m 0,9.739 c 3.317,0 5.928,-2.611 5.928,-5.858 0,-3.246 -2.611,-5.857 -5.928,-5.857 -3.317,0 -5.928,2.611 -5.928,5.857 0,3.247 2.611,5.858 5.928,5.858"
             inkscape:connector-curvature="0" />
        </g>
        <g
           transform="translate(195.0108,428.3672)"
           id="g7704"
           style="fill:#2a2a86;fill-opacity:1">
          <path
             id="path7706"
             style="fill:#2a2a86;fill-opacity:1;fill-rule:nonzero;stroke:none"
             d="m 0,0 c -2.259,0 -3.67,1.49 -3.67,3.748 0,2.259 1.411,3.891 3.67,3.891 2.259,0 3.67,-1.632 3.67,-3.891 C 3.67,1.49 2.259,0 0,0 m 3.67,9.332 0,-1.632 -0.047,0 C 2.8,8.9 1.247,9.614 -0.259,9.614 c -3.458,0 -5.67,-2.572 -5.67,-5.866 -0.023,-3.246 2.401,-5.724 5.67,-5.724 1.53,0 3.059,0.659 3.859,2 l 0.07,0 0,-1.213 c 0,-1.584 -0.311,-2.633 -0.958,-3.341 -0.61,-0.666 -1.574,-1.022 -2.661,-1.022 -1.468,0 -2.794,0.586 -3.948,1.482 L -4.97,-5.706 c 1.361,-1.057 3.26,-1.716 5.106,-1.716 1.91,0 3.23,0.562 4.177,1.528 0.997,1.016 1.474,2.341 1.474,4.245 l 0,10.981 -2.117,0 z"
             inkscape:connector-curvature="0" />
        </g>
        <path
           id="path7708"
           style="fill:#2a2a86;fill-opacity:1;fill-rule:nonzero;stroke:none"
           d="m 175.897,442.321 -2.399,0 0,-2.39 2.399,0 0,2.39 z m -2.256,-4.62 2.118,0 0,-11.152 -2.118,0 0,11.152 z"
           inkscape:connector-curvature="0" />
        <g
           transform="translate(116.1431,436.1407)"
           id="g7710"
           style="fill:#2a2a86;fill-opacity:1">
          <path
             id="path7712"
             style="fill:#2a2a86;fill-opacity:1;fill-rule:nonzero;stroke:none"
             d="m 0,0 c 2.17,-0.925 4.558,-2.013 4.558,-4.895 0,-3.108 -2.256,-4.978 -5.383,-4.978 -2.027,0 -4.301,1.002 -5.399,2.536 l 1.509,1.429 c 0.869,-1.064 2.228,-1.958 4.02,-1.958 1.692,0 3.025,1.081 3.025,2.735 0,1.818 -1.591,2.569 -3.355,3.309 -2.765,1.161 -4.643,2.155 -4.643,4.735 0,2.393 2.06,4.309 5.203,4.309 1.914,0 3.629,-0.83 4.808,-2.294 L 2.869,3.491 C 1.999,4.567 0.802,5.238 -0.66,5.238 -2.335,5.238 -3.465,4.272 -3.465,2.921 -3.465,1.606 -2.356,1.005 0,0"
             inkscape:connector-curvature="0" />
        </g>
        <path
           id="path7714"
           style="fill:#ed1d24;fill-opacity:1;fill-rule:nonzero;stroke:none"
           d="m 304.723,446.19 -13.512,0 0,13.509 13.512,0 0,-13.509 z"
           inkscape:connector-curvature="0" />
        <g
           transform="translate(289.7448,444.8391)"
           id="g7716"
           style="fill:#2a2a86;fill-opacity:1">
          <path
             id="path7718"
             style="fill:#2a2a86;fill-opacity:1;fill-rule:nonzero;stroke:none"
             d="m 0,0 0,8.07 -5.321,0 0,-13.508 13.508,0 L 8.187,0 0,0 z"
             inkscape:connector-curvature="0" />
        </g>
      </g>
    </g>
  </g>
</svg>
