<?xml version="1.0" encoding="UTF-8" standalone="no"?>
<svg
   xmlns:dc="http://purl.org/dc/elements/1.1/"
   xmlns:cc="http://creativecommons.org/ns#"
   xmlns:rdf="http://www.w3.org/1999/02/22-rdf-syntax-ns#"
   xmlns:svg="http://www.w3.org/2000/svg"
   xmlns="http://www.w3.org/2000/svg"
   xmlns:sodipodi="http://sodipodi.sourceforge.net/DTD/sodipodi-0.dtd"
   xmlns:inkscape="http://www.inkscape.org/namespaces/inkscape"
   version="1.1"
   id="Layer_1"
   x="0px"
   y="0px"
   width="673"
   height="275"
   viewBox="0 0 672.99998 275"
   enable-background="new 0 0 552.567 889.89"
   xml:space="preserve">
<path
   style="fill:#004b96"
   inkscape:connector-curvature="0"
   id="path11"
   d="m 48.252282,90.33993 v 113.64831 c 0,0 0.881779,10.01036 10.436794,10.01036 h 17.85964 c 0,0 9.576698,-1.3299 9.576698,-13.935 V 90.33993 c 0,0 -0.440889,-11.304119 -10.429566,-11.304119 H 57.843436 c 0,0 -9.591154,1.300986 -9.591154,11.304119"
   clip-path="url(#SVGID_2_)" /><path
   style="fill:#004b96"
   inkscape:connector-curvature="0"
   id="path13"
   d="m 106.16782,118.22438 c 0,0 -1.74188,-26.554554 28.73732,-38.321245 24.87051,-11.195703 51.81536,6.107404 51.81536,6.107404 0,0 13.40738,3.982461 4.76306,15.076981 -8.65879,11.09451 -8.507,10.74758 -8.507,10.74758 0,0 -3.28138,3.81622 -7.94324,1.04079 -4.69801,-2.77544 -15.06975,-9.7068 -25.28249,-5.73156 -10.24164,3.99691 -7.11928,12.82193 -2.4285,15.59737 3.6283,2.93444 17.65003,7.09759 26.48228,10.55966 0,0 30.83335,7.0976 27.55198,43.63361 -3.31029,36.56492 -42.6145,41.23401 -57.15663,39.65837 -14.55658,-1.51781 -28.24584,-5.68097 -34.12919,-10.71867 -5.87611,-5.03048 -5.87611,-7.80592 -2.75375,-11.42699 3.09346,-3.64276 9.51165,-12.47501 9.51165,-12.47501 0,0 5.36295,-7.80591 15.92262,-2.4285 10.56689,5.3774 21.82764,7.79868 30.66712,-1.38772 5.87611,-10.55244 -10.75482,-15.40945 -10.75482,-15.40945 0,0 -22.68051,-6.58443 -30.62375,-12.48223 -7.97938,-5.86889 -13.52302,-12.64125 -15.06975,-20.93864 -1.58286,-8.31908 -0.80227,-11.10175 -0.80227,-11.10175"
   clip-path="url(#SVGID_2_)" /><path
   style="fill:#004b96"
   inkscape:connector-curvature="0"
   id="path15"
   d="M 202.31787,203.76418 260.09608,80.481351 c 0,0 2.04544,-4.632954 4.36553,-4.632954 2.32009,0 4.64018,4.379984 4.64018,4.379984 L 329.2001,205.02903 c 0,0 3.58493,8.01551 -5.69543,8.01551 h -21.38676 c 0,0 -5.91948,1.01188 -8.52145,-5.69542 -2.56583,-6.66394 -4.37276,-10.29224 -4.37276,-10.29224 0,0 -0.26019,-1.56119 -3.35365,-1.56119 H 244.8601 c 0,0 -3.08623,-1.01187 -4.64018,3.11514 -1.54673,4.10533 -4.38722,10.55244 -4.38722,10.55244 0,0 -1.01187,4.13424 -7.45898,4.13424 h -22.45645 c 0,0 -8.73829,1.01188 -3.5994,-9.53333 m 61.64503,-65.24442 -12.12807,30.6888 c 0,0 -3.08623,3.85959 1.81415,3.85959 4.89315,0 23.7213,0.2602 23.7213,0.2602 0,0 2.84048,-0.51317 0.76614,-4.11979 -2.04544,-3.61385 -14.17352,-30.6888 -14.17352,-30.6888"
   clip-path="url(#SVGID_2_)" /><path
   style="fill:#004b96"
   inkscape:connector-curvature="0"
   id="path17"
   d="M 449.51234,203.76418 507.26887,80.481351 c 0,0 2.06712,-4.632954 4.38721,-4.632954 2.32009,0 4.64741,4.379984 4.64741,4.379984 l 60.07662,124.800649 c 0,0 3.6283,8.01551 -5.64483,8.01551 H 549.2907 c 0,0 -5.8978,1.01188 -8.52868,-5.69542 -2.56584,-6.66394 -4.33662,-10.29224 -4.33662,-10.29224 0,0 -0.30356,-1.56119 -3.38256,-1.56119 h -41.00996 c 0,0 -3.079,-1.01187 -4.64741,3.11514 -1.51058,4.10533 -4.38721,10.55244 -4.38721,10.55244 0,0 -1.01188,4.13424 -7.45898,4.13424 h -22.44923 c 0,0 -8.72383,1.01188 -3.57771,-9.53333 m 61.6378,-65.24442 -12.14976,30.6888 c 0,0 -3.08622,3.85959 1.81416,3.85959 4.88592,0 23.69961,0.2602 23.69961,0.2602 0,0 2.8694,-0.51317 0.80228,-4.11979 -2.05989,-3.61385 -14.16629,-30.6888 -14.16629,-30.6888"
   clip-path="url(#SVGID_2_)" /><path
   style="fill:#004b96"
   inkscape:connector-curvature="0"
   id="path19"
   d="M 336.1676,203.00527 V 81.522139 c 0,0 0.50593,-7.993833 8.52868,-1.040788 7.97215,6.9675 60.8283,54.684759 60.8283,54.684759 0,0 3.8885,3.59939 3.8885,-2.32009 0,-5.92672 -0.24574,-47.189638 -0.24574,-47.189638 0,0 1.51059,-7.993833 8.77442,-7.993833 7.21324,0 15.99489,0.252969 15.99489,0.252969 0,0 8.9768,1.033561 8.9768,9.807985 V 209.96554 c 0,0 0,8.73106 -9.7863,0 -9.7863,-8.77442 -63.70492,-58.02395 -63.70492,-58.02395 l 0.5493,51.06368 c 0,0 0.25297,9.79353 -8.26848,9.79353 -8.52868,0 -17.00677,0.24574 -17.00677,0.24574 0,0 -8.52868,0.50594 -8.52868,-10.03927"
   clip-path="url(#SVGID_2_)" /><path
   style="fill:#a7a9ac"
   inkscape:connector-curvature="0"
   id="path21"
   d="m 657.08457,254.85677 c 0,0 -86.33484,-29.59019 -220.80614,-26.55456 -129.68657,2.89831 -193.76011,20.99646 -290.69798,19.60152 C 48.613667,246.49433 43.554279,230.17419 31.086501,220.97333 15.221706,209.30782 -5.6374279,223.32956 1.4095768,238.1897 7.1989621,250.41174 54.106716,280.13203 144.4457,274.23423 c 90.34622,-5.9484 188.43329,-30.83336 290.58234,-31.96088 108.73347,-1.19257 222.05653,12.58342 222.05653,12.58342"
   clip-path="url(#SVGID_2_)" /><path
   style="fill:#ffffff;fill-rule:evenodd"
   inkscape:connector-curvature="0"
   id="path23"
   d="m 672.99996,64.197349 c 0,35.451854 -28.74455,64.167491 -64.1964,64.167491 -35.45908,0 -64.20364,-28.715637 -64.20364,-64.167491 0,-35.459082 28.74456,-64.196405535 64.20364,-64.196405535 35.45185,0 64.1964,28.737323535 64.1964,64.196405535"
   clip-rule="evenodd"
   clip-path="url(#SVGID_2_)" /><path
   style="fill:#d7213d;fill-rule:evenodd"
   inkscape:connector-curvature="0"
   id="path25"
   d="m 571.73993,32.099146 h 48.5918 l 3.08623,-6.129087 c 1.9298,-4.163153 8.61542,-0.852868 6.90245,2.912762 l -1.57564,3.216325 h 17.11519 c -8.99848,-10.371745 -22.25408,-16.920039 -37.0564,-16.920039 -14.81678,0 -28.06515,6.533839 -37.06363,16.920039 m 55.43643,77.545964 -20.03517,-20.129138 8.00106,-15.394995 h 13.47965 l -3.64276,8.904523 5.65206,3.715036 5.57256,-12.619559 5.79661,-0.0072 -3.79454,8.91175 5.65929,3.715036 5.80384,-12.634014 c 1.56118,-4.184837 -0.11565,-8.073338 -5.27622,-8.16007 h -7.5674 l 0.007,-27.436338 13.73985,-0.0072 c 4.61127,7.480666 7.2277,16.255091 7.2277,25.694463 -0.007,20.570026 -12.63402,38.169471 -30.62376,45.447761 m -15.88647,3.4982 c 2.63811,-0.13009 5.23285,-0.4698 7.76254,-1.01187 l -22.89011,-22.875665 7.61799,-15.149253 h -6.6278 l -8.44195,16.500832 22.57933,22.535956 z M 567.04915,38.488431 c -4.61127,7.466211 -7.29997,16.262318 -7.29997,25.708918 0,24.039321 17.33924,44.045591 40.2149,48.208741 l -22.1818,-22.008339 5.31959,-10.436795 c -3.44761,-2.797118 -6.29533,-6.476016 -6.29533,-11.557087 0,-4.199292 0.91792,-6.396512 2.63811,-8.853929 h -6.158 v 22.644375 c -2.78989,-1.163659 -5.48582,-2.283952 -5.48582,-5.948395 V 59.680038 c 0,-3.028405 2.47187,-5.449683 5.50751,-5.449683 h 46.43072 l -6.56997,-15.720241 -46.11994,-0.02168 z M 608.80356,5.8264673 c 32.2283,0 58.36365,26.1425807 58.36365,58.3708817 0,32.228301 -26.13535,58.341971 -58.36365,58.341971 -32.2283,0 -58.37088,-26.11367 -58.37088,-58.341971 0,-32.228301 26.14258,-58.3708817 58.37088,-58.3708817"
   clip-rule="evenodd"
   clip-path="url(#SVGID_2_)" />
</svg>