<?xml version="1.0" encoding="UTF-8" standalone="no"?>
<svg
   xmlns:dc="http://purl.org/dc/elements/1.1/"
   xmlns:cc="http://creativecommons.org/ns#"
   xmlns:rdf="http://www.w3.org/1999/02/22-rdf-syntax-ns#"
   xmlns:svg="http://www.w3.org/2000/svg"
   xmlns="http://www.w3.org/2000/svg"
   xmlns:sodipodi="http://sodipodi.sourceforge.net/DTD/sodipodi-0.dtd"
   xmlns:inkscape="http://www.inkscape.org/namespaces/inkscape"
   width="637"
   height="333"
   id="svg2"
   version="1.1">
  <g
     inkscape:label="Layer 1"
     inkscape:groupmode="layer"
     id="layer1"
     transform="translate(-196.125,187.59381)">
    <path
       style="font-size:375.95590210000000000px;font-style:normal;font-variant:normal;font-weight:normal;font-stretch:normal;fill:#00a8fd;fill-opacity:1;stroke:none;font-family:TV Logos;-inkscape-font-specification:TV Logos"
       d="m 392.90625,-819.875 23.125,50.46875 122.8125,0 -5.5,10.28125 -111.96875,0 12.28125,27.71875 87.1875,0 -5.3125,10.84375 -77.09375,0 13.9375,29.1875 49.75,0 -5.3125,11 -39.09375,0 45.6875,97.28125 112.71875,-236.78125 -223.21875,0 z"
       id="path3006"
       transform="translate(217,632.28119)"
       inkscape:connector-curvature="0" />
    <path
       style="font-size:375.95590210000000000px;font-style:normal;font-variant:normal;font-weight:normal;font-stretch:normal;fill:#8f8f8f;fill-opacity:1;stroke:none;font-family:TV Logos;-inkscape-font-specification:TV Logos"
       d="m -20.875,-819.875 c 12.850027,3.79415 18.7915176,16.98474 17.8125,39.625 l 0,290.25 90.875,0 c -15.053031,-0.85667 -22.138022,-15.18814 -21.28125,-42.96875 l 0,-236.0625 148.6875,0 -28.8125,25.5 0,253.53125 95.4375,0 c -15.90989,-3.05954 -23.87529,-17.13053 -23.875,-42.21875 l 0,-236.8125 102.09375,0 -26.8125,26.0625 124.09375,256.09375 36.53125,-76.1875 -117.3125,-256.8125 -277,0 -33.03125,36.6875 0,-36.6875 -87.40625,0 z"
       id="text2816-4-9-5-1-1"
       transform="translate(217,632.28119)"
       inkscape:connector-curvature="0" />
  </g>
</svg>
