<?xml version="1.0" encoding="UTF-8" standalone="no"?>
<!-- Created with Inkscape (http://www.inkscape.org/) -->
<svg
   xmlns:dc="http://purl.org/dc/elements/1.1/"
   xmlns:cc="http://web.resource.org/cc/"
   xmlns:rdf="http://www.w3.org/1999/02/22-rdf-syntax-ns#"
   xmlns:svg="http://www.w3.org/2000/svg"
   xmlns="http://www.w3.org/2000/svg"
   xmlns:xlink="http://www.w3.org/1999/xlink"
   xmlns:sodipodi="http://sodipodi.sourceforge.net/DTD/sodipodi-0.dtd"
   xmlns:inkscape="http://www.inkscape.org/namespaces/inkscape"
   width="541"
   height="171"
   id="svg2"
   sodipodi:version="0.32"
   inkscape:version="0.45.1"
   version="1.0"
   inkscape:output_extension="org.inkscape.output.svg.inkscape">
  <g
     inkscape:label="Layer 1"
     inkscape:groupmode="layer"
     id="layer1"
     transform="translate(-1098.2713,-626.47541)">
    <path
       id="path2213"
       d="M -30.559517,-47.8123 L -30.559517,-47.8123"
       style="fill:#ffffff;fill-rule:nonzero;stroke:none" />
    <path
       id="path2303"
       d="M 1098.2713,626.47541 L 1639.2663,626.47541 L 1639.2663,797.47541 L 1098.2713,797.47541 L 1098.2713,626.47541 z "
       style="fill:#036bb5;fill-rule:nonzero;stroke:none" />
    <path
       id="path2305"
       d="M 1177.5873,654.79241 L 1215.6213,654.79241 L 1215.6213,672.22211 L 1177.5873,672.22211 L 1177.5873,654.79241 z "
       style="fill:#f6ca25;fill-rule:nonzero;stroke:none" />
    <path
       id="path2307"
       d="M 1341.7333,666.01131 L 1341.7333,735.62601 C 1341.7333,742.46891 1345.5133,749.60931 1365.5343,749.60931 C 1377.3793,749.60931 1394.0643,746.98211 1403.5293,743.93131 L 1403.5293,757.76431 C 1392.7043,760.53471 1377.7203,762.13021 1364.8513,762.13021 C 1323.7943,762.13021 1308.9923,750.84721 1308.2493,734.17071 L 1308.2553,699.57571 L 1269.2413,699.55971 L 1269.2503,686.40971 L 1308.2523,686.40971 L 1308.2493,669.94351 L 1341.7333,666.01131"
       style="fill:#f6ca25;fill-rule:nonzero;stroke:none" />
    <path
       id="path2309"
       d="M 1356.0073,686.41271 L 1402.9683,686.41271 L 1402.9623,699.52461 L 1356.1073,699.54061 L 1356.0073,686.41271"
       style="fill:#f6ca25;fill-rule:nonzero;stroke:none" />
    <path
       id="path2311"
       d="M 1145.8293,686.41271 L 1145.8213,699.54361 L 1183.9883,699.55971 L 1184.0773,758.63861 L 1215.6033,758.62561 L 1215.6033,686.41271 L 1145.8293,686.41271"
       style="fill:#f6ca25;fill-rule:nonzero;stroke:none" />
    <path
       id="path2313"
       d="M 1481.4593,686.85641 L 1448.9553,686.85641 L 1500.8233,759.40791 L 1542.7393,759.40791 L 1594.6783,686.85641 L 1562.1743,686.85641 L 1521.5153,745.09911 L 1481.4593,686.85641"
       style="fill:#f6ca25;fill-rule:nonzero;stroke:none" />
  </g>
</svg>
