<?xml version="1.0" encoding="UTF-8" standalone="no"?>
<!-- Created with Inkscape (http://www.inkscape.org/) -->

<svg
   xmlns:dc="http://purl.org/dc/elements/1.1/"
   xmlns:cc="http://creativecommons.org/ns#"
   xmlns:rdf="http://www.w3.org/1999/02/22-rdf-syntax-ns#"
   xmlns:svg="http://www.w3.org/2000/svg"
   xmlns="http://www.w3.org/2000/svg"
   xmlns:xlink="http://www.w3.org/1999/xlink"
   xmlns:sodipodi="http://sodipodi.sourceforge.net/DTD/sodipodi-0.dtd"
   xmlns:inkscape="http://www.inkscape.org/namespaces/inkscape"
   width="414"
   height="299"
   id="svg2"
   version="1.1"
   inkscape:version="0.47 r22583">
  <g
     inkscape:label="Layer 1"
     inkscape:groupmode="layer"
     id="layer1"
     transform="translate(-108.16541,-175.88667)">
    <path
       id="path3514"
       d="m 509.32005,175.88667 -51.33221,0 0,0.0392 -336.98611,0 c -7.08481,0 -12.83632,5.75151 -12.83632,12.83632 l 0,273.30122 c 0,7.08481 5.75151,12.82325 12.83632,12.82325 l 354.93343,0 0,-0.0392 33.38489,0 c 7.08481,0 12.83632,-5.73844 12.83632,-12.82325 l 0,-273.3143 c 0,-7.08481 -5.75151,-12.82325 -12.83632,-12.82325"
       style="fill:#0073ae;fill-rule:nonzero;stroke:none" />
    <path
       style="fill:#ffffff;fill-rule:nonzero;stroke:none"
       d="m 156.30554,276.87793 40.35206,0 0,143.55242 -40.35206,0 z"
       id="path3516" />
    <path
       id="path3520"
       d="m 198.78827,242.01072 c 0,12.66639 -10.27429,22.15638 -22.94068,22.15638 -12.66639,0 -22.9276,-9.48999 -22.9276,-22.15638 0,-12.66639 10.26121,-22.14331 22.9276,-22.14331 12.66639,0 22.94068,9.47692 22.94068,22.14331"
       style="fill:#ffffff;fill-rule:nonzero;stroke:none" />
    <path
       id="path3524"
       d="m 408.69872,375.54245 c -2.28753,-7.88219 -4.43128,-14.784 -5.50315,-17.71204 -2.91497,-8.03904 -27.92096,-80.95248 -27.92096,-80.95248 l -42.07751,0 56.77,144.42822 32.6921,0 c 0,0 62.54765,-144.34979 62.54765,-144.42822 l -37.93381,0 c 0,0 -29.34577,73.61931 -32.23459,80.71719 -1.30716,3.22869 -3.75155,10.1305 -6.33973,17.94733"
       style="fill:#ffffff;fill-rule:nonzero;stroke:none" />
    <path
       id="path3528"
       d="m 312.83937,394.19433 c -24.18248,0 -28.26082,-16.44409 -28.26082,-42.74417 l 0,-44.57419 43.68532,0 -11.72523,-29.99934 -31.96009,0 0,-56.70465 -40.35206,14.06505 0,42.6396 -33.79011,0 0,29.99934 33.79011,0 0,55.44977 c 0,24.26091 5.3855,38.22139 14.86242,48.03817 11.24159,11.63373 28.46997,16.07808 48.77018,16.07808 14.67942,0 30.99279,-3.24176 43.89447,-8.35276 l -11.05859,-28.18239 c -8.88869,2.60125 -19.48977,4.28749 -27.8556,4.28749"
       style="fill:#ffffff;fill-rule:nonzero;stroke:none" />
  </g>
</svg>
