<?xml version="1.0" encoding="UTF-8" standalone="no"?>
<!-- Created with Inkscape (http://www.inkscape.org/) -->
<svg
   xmlns:dc="http://purl.org/dc/elements/1.1/"
   xmlns:cc="http://creativecommons.org/ns#"
   xmlns:rdf="http://www.w3.org/1999/02/22-rdf-syntax-ns#"
   xmlns:svg="http://www.w3.org/2000/svg"
   xmlns="http://www.w3.org/2000/svg"
   xmlns:sodipodi="http://sodipodi.sourceforge.net/DTD/sodipodi-0.dtd"
   xmlns:inkscape="http://www.inkscape.org/namespaces/inkscape"
   width="181.56903"
   height="174.30624"
   id="svg2"
   sodipodi:version="0.32"
   inkscape:version="0.46"
   version="1.0"
   sodipodi:docname="Jack in the Box 2009 logo.svg"
   inkscape:output_extension="org.inkscape.output.svg.inkscape">
  <defs
     id="defs4">
    <inkscape:perspective
       sodipodi:type="inkscape:persp3d"
       inkscape:vp_x="0 : 526.18109 : 1"
       inkscape:vp_y="0 : 1000 : 0"
       inkscape:vp_z="744.09448 : 526.18109 : 1"
       inkscape:persp3d-origin="372.04724 : 350.78739 : 1"
       id="perspective10" />
    <inkscape:perspective
       id="perspective2390"
       inkscape:persp3d-origin="372.04724 : 350.78739 : 1"
       inkscape:vp_z="744.09448 : 526.18109 : 1"
       inkscape:vp_y="0 : 1000 : 0"
       inkscape:vp_x="0 : 526.18109 : 1"
       sodipodi:type="inkscape:persp3d" />
    <inkscape:perspective
       id="perspective3186"
       inkscape:persp3d-origin="372.04724 : 350.78739 : 1"
       inkscape:vp_z="744.09448 : 526.18109 : 1"
       inkscape:vp_y="0 : 1000 : 0"
       inkscape:vp_x="0 : 526.18109 : 1"
       sodipodi:type="inkscape:persp3d" />
  </defs>
  <sodipodi:namedview
     id="base"
     pagecolor="#ffffff"
     bordercolor="#666666"
     borderopacity="1.0"
     gridtolerance="10000"
     guidetolerance="10"
     objecttolerance="10"
     inkscape:pageopacity="0.0"
     inkscape:pageshadow="2"
     inkscape:zoom="1.4572054"
     inkscape:cx="90.784515"
     inkscape:cy="87.153122"
     inkscape:document-units="px"
     inkscape:current-layer="layer1"
     showgrid="false"
     showguides="true"
     inkscape:guide-bbox="true"
     inkscape:window-width="1024"
     inkscape:window-height="721"
     inkscape:window-x="-4"
     inkscape:window-y="-4" />
  <metadata
     id="metadata7">
    <rdf:RDF>
      <cc:Work
         rdf:about="">
        <dc:format>image/svg+xml</dc:format>
        <dc:type
           rdf:resource="http://purl.org/dc/dcmitype/StillImage" />
      </cc:Work>
    </rdf:RDF>
  </metadata>
  <g
     inkscape:label="Layer 1"
     inkscape:groupmode="layer"
     id="layer1"
     transform="translate(-424.03351,-470.224)">
    <path
       style="font-size:39.26917267px;font-style:normal;font-weight:normal;text-align:start;line-height:125%;text-anchor:start;fill:#e4011a;fill-opacity:1;stroke:#e40826;stroke-width:0.9601205px;stroke-linecap:butt;stroke-linejoin:miter;stroke-opacity:1;font-family:Bitstream Vera Sans"
       d="M 456.02277,617.1973 C 456.02276,617.62967 455.89402,617.9815 455.63652,618.25277 C 455.379,618.52406 455.08062,618.65969 454.73224,618.65969 C 454.38385,618.65969 454.07787,618.53253 453.82341,618.2782 C 453.53864,617.99845 453.39625,617.63815 453.39625,617.1973 C 453.39625,616.75648 453.53106,616.40465 453.80068,616.14182 C 454.0703,615.87903 454.38081,615.74762 454.73224,615.74761 C 455.07758,615.74762 455.379,615.87903 455.63652,616.14182 C 455.89402,616.40465 456.02276,616.75648 456.02277,617.1973 L 456.02277,617.1973 z M 455.74103,632.46965 C 455.74103,633.17331 455.48959,633.52513 454.98671,633.52513 L 454.48686,633.52513 C 453.98396,633.52513 453.73251,633.17331 453.73252,632.46965 L 453.73252,621.7539 C 453.73251,621.05875 453.98396,620.85589 454.48686,620.85587 L 454.98671,620.85587 C 455.48959,620.85589 455.74103,621.05875 455.74103,621.7539 L 455.74103,632.46965 z M 473.29156,632.46965 C 473.29155,633.17331 473.0401,633.52513 472.53723,633.52513 L 472.01012,633.52513 C 471.50722,633.52513 471.25577,633.17331 471.25578,632.46965 L 471.25578,624.08858 C 471.25577,623.5884 471.03463,623.10459 470.59233,622.92655 C 470.23485,622.78243 469.60472,622.71038 468.70197,622.71037 L 465.41201,622.71037 C 464.47288,622.71038 463.8276,622.7782 463.4762,622.91383 C 463.02178,623.09186 462.79457,623.58417 462.79458,624.10131 L 462.79458,632.46965 C 462.79457,633.17331 462.54615,633.52513 462.04934,633.52513 L 461.52221,633.52513 C 461.02538,633.52513 460.77697,633.17331 460.77697,632.46965 L 460.77697,623.47548 C 460.77697,622.28861 461.12838,621.75604 461.83121,621.15411 C 462.58856,620.50982 463.77914,620.65801 465.40292,620.658 L 468.70197,620.658 C 470.24697,620.65801 471.39815,620.53116 472.15552,621.14577 C 472.91287,621.76042 473.29155,622.51645 473.29156,623.70332 L 473.29156,632.46965 z M 483.1267,620.79591 L 483.1267,618.26533 C 483.1267,617.57018 483.37512,617.22259 483.87194,617.22258 L 484.39907,617.22258 C 484.89589,617.22259 485.1443,617.57018 485.14431,618.26533 L 485.14431,620.79591 L 489.04574,620.79591 C 489.54861,620.79592 489.80005,621.14351 489.80006,621.83866 L 489.80006,621.78646 C 489.80005,622.49012 489.54861,622.58654 489.04574,622.58654 L 485.14431,622.58654 L 485.06736,631.62322 L 489.4861,631.6396 C 489.80667,631.6396 490.00388,633.52513 489.50706,633.52513 L 488.59683,633.52513 C 488.29273,633.52513 486.01528,633.50502 484.50085,633.51278 C 483.55577,633.51762 483.1267,632.43223 483.1267,631.83115 L 483.1267,623.16119 L 483.1267,620.79591 z M 506.22025,632.46965 C 506.22023,633.17331 505.97183,633.52513 505.47502,633.52513 L 504.9479,633.52513 C 504.45105,633.52513 504.20264,633.17331 504.20265,632.46965 L 504.20265,624.90334 C 504.20264,624.24209 503.98906,623.78642 503.56193,623.53632 C 503.13477,623.28623 502.76482,623.16119 501.81359,623.16119 L 495.87892,623.16119 L 495.87892,632.46965 C 495.87892,633.17331 495.63052,633.52513 495.13369,633.52513 L 494.60656,633.52513 C 494.10974,633.52513 493.86132,633.17331 493.86132,632.46965 L 493.86132,618.26533 C 493.86132,617.57018 494.10974,617.22259 494.60656,617.22258 L 495.13369,617.22258 C 495.63052,617.22259 495.87892,617.57018 495.87892,618.26533 L 495.87892,620.79591 L 501.33192,620.79591 C 503.25861,620.79592 504.29656,621.11383 505.08421,621.74965 C 505.84156,622.36005 506.22023,623.39856 506.22025,624.86519 L 506.22025,632.46965 z M 522.93035,627.3322 C 522.93034,627.63739 522.88185,627.90868 522.78493,628.14605 C 522.68797,628.38342 522.54862,628.50211 522.36687,628.50211 L 512.65264,628.50211 C 512.64388,629.71417 512.48641,630.51758 513.78364,631.06814 C 514.66269,631.44122 517.15765,631.78224 519.80341,631.54296 L 521.05667,631.54296 C 521.55349,631.54296 522.05731,631.51168 522.05731,632.21532 L 522.05731,632.46965 C 522.05731,633.17331 521.80889,633.52513 521.31207,633.52513 L 520.02152,633.52513 C 519.10663,633.52513 513.48002,633.42127 512.84688,633.21358 C 512.21372,633.00587 511.72144,632.71552 511.37002,632.34249 C 510.62479,631.52016 510.25216,630.56219 510.25216,629.46857 L 510.25216,624.75074 C 510.25216,623.49606 510.68537,622.50417 511.55179,621.77509 C 512.4182,621.04601 513.59666,620.68148 515.08715,620.68146 L 518.85879,620.68146 C 519.99179,620.68148 520.93393,620.97396 521.68525,621.55891 C 522.5153,622.20321 522.93034,623.0976 522.93035,624.24208 L 522.93035,627.3322 z M 520.64803,626.04782 L 520.64803,624.47099 C 520.64801,624.10645 520.3784,623.78218 519.83917,623.49817 C 519.29991,623.21417 518.97995,623.07218 518.24078,623.07217 L 515.31435,623.07217 C 514.43581,623.07218 514.0492,623.18663 513.51602,623.41551 C 512.89801,623.67833 512.58902,624.06406 512.58902,624.57271 L 512.58902,626.04782 L 520.64803,626.04782 z M 544.09942,629.49399 C 544.09941,630.5537 543.84797,631.40571 543.3451,632.05001 C 542.9149,632.60107 542.30901,632.99528 541.52744,633.23265 C 540.89125,633.42763 540.15509,633.52513 539.31897,633.52513 L 536.66681,633.52513 L 531.73187,633.45242 L 531.73187,618.0992 C 531.73187,617.39559 531.98028,617.2353 532.47712,617.23528 L 533.00423,617.23528 C 533.50105,617.2353 533.74946,617.33174 533.74946,618.03535 L 533.74946,620.79591 L 539.31897,620.79591 C 540.92456,620.79592 542.13331,621.15199 542.94521,621.8641 C 543.71467,622.54232 544.09941,623.51301 544.09942,624.77617 L 544.09942,629.49399 z M 542.08182,629.39226 L 542.08182,624.82704 C 542.0818,624.3523 541.8758,623.9708 541.46382,623.68256 C 540.98516,623.34347 540.28232,623.17392 539.35532,623.17391 L 533.74946,623.17391 L 533.74946,631.07726 L 536.9122,631.15986 L 539.33714,631.15986 C 540.36716,631.15986 541.05787,631.06661 541.40928,630.8801 C 541.85763,630.64272 542.0818,630.14678 542.08182,629.39226 L 542.08182,629.39226 z M 560.74682,629.73641 C 560.74681,630.35528 560.6438,630.9148 560.43782,631.41499 C 560.15909,632.09321 559.72285,632.62306 559.1291,633.00455 C 558.39596,633.47931 557.44169,633.52513 556.26628,633.52513 L 552.9127,633.52513 C 551.74939,633.52513 550.79209,633.42818 550.04079,632.97885 C 549.40461,632.59736 548.92899,632.07174 548.61394,631.40201 C 548.35945,630.85944 548.23222,630.28297 548.23223,629.67256 L 548.23223,624.55892 C 548.23222,623.51618 548.5806,622.61331 549.27738,621.85031 C 550.13168,620.9093 551.34041,620.69419 552.90362,620.69418 L 556.26628,620.69418 C 557.81128,620.69419 558.94429,620.71192 559.6653,621.38589 C 560.3863,622.05987 560.74681,623.0878 560.74682,624.46965 L 560.74682,629.73641 z M 558.69286,629.54486 L 558.69286,624.59813 C 558.69284,624.08949 558.46715,623.70801 558.01578,623.45366 C 557.56438,623.19934 556.96305,623.07218 556.21175,623.07217 L 553.31397,623.07217 C 552.39302,623.07218 551.69323,623.27139 551.21457,623.66984 C 550.82681,623.992 550.63293,624.37349 550.63293,624.81432 L 550.63293,629.54486 C 550.63293,629.9518 550.8056,630.29514 551.15097,630.57491 C 551.62961,630.96488 552.35364,631.15986 553.32306,631.15986 L 556.22084,631.15986 C 557.03272,631.15986 557.66587,630.9776 558.12031,630.61305 C 558.50199,630.30786 558.69284,629.9518 558.69286,629.54486 L 558.69286,629.54486 z M 576.55832,631.61766 C 576.70372,631.76177 576.80975,631.9165 576.87642,632.0818 C 576.94306,632.24712 576.97637,632.4188 576.97639,632.59683 C 576.97637,632.85963 576.89912,633.08006 576.74464,633.25807 C 576.59012,633.43611 576.37958,633.52513 576.113,633.52513 L 575.51318,633.52513 C 575.45864,633.52513 575.38289,633.50393 575.28597,633.46155 C 575.189,633.41916 575.11631,633.37253 575.06784,633.32166 L 570.56005,628.70556 L 565.99772,633.32166 C 565.96136,633.35558 565.89017,633.39795 565.78415,633.44882 C 565.67811,633.49969 565.6039,633.52513 565.56148,633.52513 L 564.93439,633.52513 C 564.67386,633.52513 564.46483,633.434 564.3073,633.25172 C 564.14977,633.06945 564.071,632.85115 564.071,632.59683 C 564.071,632.42728 564.10583,632.25772 564.17552,632.08816 C 564.24519,631.91861 564.35274,631.76177 564.49815,631.61766 L 568.99686,627.11601 L 564.55267,622.60166 C 564.40727,622.45754 564.30123,622.30282 564.23459,622.1375 C 564.16794,621.97219 564.13461,621.80052 564.13461,621.62248 C 564.13461,621.35968 564.21187,621.13927 564.36636,620.96122 C 564.52087,620.78322 564.73141,620.69419 564.998,620.69418 L 565.63419,620.69418 C 565.68871,620.69419 565.76294,620.71539 565.85685,620.75776 C 565.95076,620.80017 566.02498,620.8468 566.07951,620.89764 L 570.56913,625.50102 L 574.95878,620.91037 C 574.99513,620.86798 575.0648,620.82136 575.16781,620.77048 C 575.27081,620.71962 575.34957,620.69419 575.4041,620.69418 L 576.01303,620.69418 C 576.27355,620.69419 576.48106,620.78322 576.63558,620.96122 C 576.79006,621.13927 576.86732,621.35968 576.86732,621.62248 C 576.86732,621.79205 576.83398,621.95949 576.76736,622.12479 C 576.7007,622.29011 576.59769,622.44483 576.45835,622.58894 L 572.11414,627.07786 L 576.55832,631.61766 z"
       id="text3201"
       sodipodi:nodetypes="cszsssssccccccccccccccccsccsccccccsccsccccccccccccccsccsccccccccsccccccccccccscccsccscsccccscccsccsccccsccsccccsscccccccccsccccscccccscccssccssccsccsccccsccsccsccscccsssccscccsccssscccsssccscccsccsssccc" />
    <path
       style="fill:#b50a37;fill-opacity:1;fill-rule:nonzero;stroke:#921b2f;stroke-width:0;marker:none;marker-start:none;marker-mid:none;marker-end:none;stroke-miterlimit:4;stroke-dasharray:none;stroke-opacity:1;visibility:visible;display:inline;overflow:visible;enable-background:accumulate"
       d="M 514.94266,607.90769 L 576.54752,590.08655 C 583.91753,588.46851 588.70674,583.57801 588.70674,576.69931 L 588.70674,512.59918 C 588.70674,505.7205 583.28372,501.80083 576.54752,500.18277 L 514.94266,482.17026"
       id="path3171"
       sodipodi:nodetypes="cccccc" />
    <path
       style="fill:#d0dcdb;fill-opacity:1;fill-rule:evenodd;stroke:#000000;stroke-width:0;stroke-linecap:butt;stroke-linejoin:miter;stroke-miterlimit:4;stroke-dasharray:none;stroke-opacity:1"
       d="M 514.64017,560.782 L 516.56579,551.66589 C 516.24008,534.8994 517.0735,517.55336 518.00999,500.15577 C 518.26681,496.02608 525.22087,496.92007 524.99034,499.19297 C 525.51377,514.83855 525.98259,530.24346 525.23104,545.88906 C 532.29887,538.18419 536.78318,531.3405 542.08014,524.22593 C 543.84529,518.93052 548.01745,525.75033 545.93137,528.07715 C 543.9628,535.16868 537.32598,548.07904 529.80855,556.80226 C 546.99154,593.01831 573.18602,576.39863 579.38888,555.99852 C 580.14138,551.99889 580.80385,552.57407 581.31449,552.62869 C 581.78889,552.78105 582.18489,552.54316 581.55519,556.23922 C 581.64419,568.56142 570.7596,585.63432 553.86582,586.01443 C 544.47068,586.22886 531.33778,581.1738 524.26823,564.90446 C 524.57235,569.87896 524.60486,574.85346 524.74964,579.82795 C 524.64591,583.40354 517.07595,584.19468 516.81853,578.9322 C 516.80227,575.46291 516.59313,573.55504 516.81853,568.47544 C 516.22397,569.47462 516.0161,569.87671 514.88088,571.63993 L 514.64017,560.782 z"
       id="path3177"
       sodipodi:nodetypes="cccccccccccscccccc" />
    <path
       style="fill:#e51837;fill-opacity:1;fill-rule:nonzero;stroke:#c1071e;stroke-width:0;marker:none;marker-start:none;marker-mid:none;marker-end:none;stroke-miterlimit:4;stroke-dasharray:none;stroke-opacity:1;visibility:visible;display:inline;overflow:visible;enable-background:accumulate"
       d="M 515.08858,607.90488 L 453.2704,590.08453 C 445.83597,588.46657 441.0049,583.57627 441.0049,576.6979 L 441.0049,512.60064 C 441.0049,505.72226 446.47533,501.80275 453.2704,500.18478 L 515.08858,482.17308"
       id="rect2396"
       sodipodi:nodetypes="cccccc" />
    <path
       style="fill:#fffffd;fill-opacity:1;fill-rule:evenodd;stroke:#000000;stroke-width:0;stroke-linecap:butt;stroke-linejoin:miter;stroke-miterlimit:4;stroke-dasharray:none;stroke-opacity:1"
       d="M 455.23569,517.34807 C 455.30358,515.80941 459.91265,514.84776 460.76453,518.64898 C 464.43653,530.57395 466.30366,542.49892 466.94384,554.42388 C 467.29881,549.72612 467.93206,544.68381 469.73112,541.01403 C 472.31267,535.74806 477.15962,533.08047 481.9904,536.81595 C 482.67259,537.23824 482.59244,536.67317 482.78919,536.00322 L 483.20583,534.59506 C 483.69375,533.22986 488.4542,533.07919 488.1743,534.8063 C 488.74406,539.2288 485.90135,554.03487 485.79314,564.65914 C 486.13463,569.10254 489.51398,568.1626 490.54598,565.57453 C 487.29271,544.83401 496.2408,524.98007 503.36921,527.10486 C 509.39903,525.8829 516.68994,537.50377 511.12819,551.32471 C 509.85649,553.16548 504.85439,552.14053 504.94889,550.14943 C 505.49135,544.61933 504.87808,542.41705 504.67012,539.13825 C 504.19008,536.48982 502.5672,535.26742 499.46648,539.13825 C 495.08217,550.31803 496.74388,587.3203 515.09073,558.68843 L 515.0885,571.32794 C 513.08099,575.96284 500.97218,582.18833 494.91332,571.66088 C 491.77604,577.64229 485.19883,577.31752 482.22949,571.33565 C 481.96908,574.06333 472.09201,584.29904 467.5943,562.22932 C 469.6029,572.9292 466.71981,582.20154 459.13841,582.39337 C 450.50178,582.45668 447.56756,573.45622 446.7798,566.45727 C 446.78263,565.6543 448.82541,565.01672 449.27448,566.0198 C 451.5963,570.68535 453.23913,575.02472 457.0014,574.21661 C 461.63484,573.82189 462.4766,562.9039 455.23569,517.34807 z"
       id="path3173"
       sodipodi:nodetypes="cccsccccccccccccccccccccc" />
    <path
       style="fill:#e51837;fill-opacity:1;fill-rule:evenodd;stroke:#000000;stroke-width:0;stroke-linecap:butt;stroke-linejoin:miter;stroke-miterlimit:4;stroke-dasharray:none;stroke-opacity:1"
       d="M 478.55867,542.77028 C 480.60973,542.14001 479.86631,568.81318 476.86499,568.5144 C 472.13659,569.4189 471.31368,541.12781 478.55867,542.77028 z"
       id="path3175"
       sodipodi:nodetypes="ccc" />
  </g>
</svg>
