<?xml version="1.0" encoding="utf-8"?>
<!-- Generator: Adobe Illustrator 13.0.0, SVG Export Plug-In  -->
<!DOCTYPE svg PUBLIC "-//W3C//DTD SVG 1.1//EN" "http://www.w3.org/Graphics/SVG/1.1/DTD/svg11.dtd" [
	<!ENTITY ns_flows "http://ns.adobe.com/Flows/1.0/">
]>
<svg version="1.1"
	 xmlns="http://www.w3.org/2000/svg" xmlns:xlink="http://www.w3.org/1999/xlink" xmlns:a="http://ns.adobe.com/AdobeSVGViewerExtensions/3.0/"
	 x="0px" y="0px" width="193px" height="193px" viewBox="0 0 193 193" enable-background="new 0 0 193 193" xml:space="preserve">
<defs>
</defs>
<polygon opacity="0" fill-rule="evenodd" clip-rule="evenodd" fill="#FFFFFF" points="0,0 192.756,0 192.756,192.756 0,192.756 0,0 
	"/>
<path fill-rule="evenodd" clip-rule="evenodd" fill="#ED1A3B" d="M10.128,45.777L133.057,3.541
	c5.674-2.101,11.978,1.051,13.869,6.724l42.447,122.929c1.891,5.674-1.261,11.979-6.935,13.869L59.72,189.299
	c-5.673,1.893-11.978-1.051-14.079-6.725L3.404,59.646C1.513,53.973,4.455,47.668,10.128,45.777L10.128,45.777z"/>
<path fill-rule="evenodd" clip-rule="evenodd" fill="#FFFFFF" d="M68.125,131.932c2.101,2.523,1.681,6.305-0.841,8.195
	c-2.732,1.893-6.304,1.473-8.405-1.049l-15.55-20.174c-2.101-2.521-1.681-6.094,1.051-8.195c2.522-1.891,6.094-1.471,8.195,1.051
	L68.125,131.932L68.125,131.932z"/>
<path fill-rule="evenodd" clip-rule="evenodd" fill="#FFFFFF" d="M73.799,106.717c-1.051-1.471-3.152-1.682-4.623-0.631
	c-1.471,1.051-1.681,3.152-0.63,4.623l10.297,13.238c2.101,2.521,1.471,6.305-1.051,8.195c-2.521,2.102-6.094,1.682-8.195-0.84
	L59.3,118.064c-5.043-6.725-3.993-16.182,2.731-21.224c6.514-5.253,15.76-3.993,21.014,2.521l10.507,13.449
	c1.891,2.521,1.471,6.305-1.051,8.195c-2.521,2.102-6.304,1.682-8.195-0.84l-10.507-13.66V106.717L73.799,106.717z"/>
<path fill-rule="evenodd" clip-rule="evenodd" fill="#FFFFFF" d="M142.093,83.812c-2.521,2.101-6.304,1.681-8.195-1.051
	l-4.413-5.464l-5.884,4.413l4.413,5.463c1.892,2.522,1.471,6.304-1.051,8.195c-2.521,2.102-6.304,1.471-8.195-1.051l-12.188-15.55
	l-3.572,2.732l12.188,15.55c2.102,2.521,1.471,6.303-1.051,8.195c-2.521,2.102-6.094,1.68-8.195-1.051l-12.188-15.34l-2.732,2.102
	c-2.521,1.891-6.094,1.471-8.195-1.051c-1.891-2.521-1.471-6.304,1.051-8.195l20.173-15.76c2.521-1.892,6.304-1.471,8.195,1.05
	l4.202,5.463l5.674-4.413l-3.992-5.253c-2.102-2.521-1.682-6.304,0.84-8.195l11.768-9.036c2.521-2.101,6.304-1.681,8.195,0.84
	c1.892,2.522,1.471,6.304-1.051,8.195l-6.935,5.463l1.261,1.892l4.203-3.362c2.102-1.471,5.043-1.261,6.515,0.84
	c1.681,2.102,1.261,5.043-0.631,6.515l-4.203,3.362l1.262,1.681l6.514-5.253c2.731-1.891,6.304-1.471,8.405,1.051
	c1.892,2.521,1.471,6.094-1.051,8.195l-11.347,8.826H142.093L142.093,83.812z"/>
<path fill-rule="evenodd" clip-rule="evenodd" fill="#FFFFFF" d="M71.277,37.372c2.521-1.891,6.724-1.681,8.405,1.051
	c1.891,2.521,1.261,6.304-1.471,7.985c-3.782,2.522-3.992,7.985-1.26,11.558c2.942,3.572,8.405,4.203,11.978,1.471
	c3.993-3.362,3.993-8.195,1.261-11.768l-7.355-9.246c-1.891-2.521-1.471-6.304,1.051-8.195c2.521-2.101,6.094-1.681,8.195,0.841
	l3.362,4.413l0.21-11.137c0-3.152,2.522-5.673,5.884-5.673c3.151,0,5.883,2.521,5.883,5.673v11.558l11.558,2.731
	c3.152,0.63,5.254,3.783,4.413,6.935c-0.63,3.152-3.782,5.253-6.935,4.413l-13.448-3.152c3.362,6.514,0,16.601-6.725,21.854
	c-4.413,3.572-9.666,4.833-14.709,4.203c0.42,1.471,0.42,2.942-0.21,4.413c-1.471,2.942-5.043,3.993-7.985,2.522l-0.42-0.21
	l-10.927,8.826c0.631,3.362-1.471,6.514-4.623,7.144c-1.681,0.42-3.362,0-4.623-1.05c-0.42,3.362-2.101,6.723-5.253,9.036
	c-5.884,4.623-14.5,3.572-19.333-2.313l-3.152-4.201c-1.891-2.522-1.471-6.305,1.05-8.196c2.522-2.102,6.304-1.471,8.195,1.051
	l3.152,3.993c0.63,1.05,2.101,1.05,3.152,0.42c0.841-0.84,1.051-2.101,0.21-3.152L30.091,77.297
	c-1.891-2.521-1.471-6.093,1.051-8.195c2.521-1.891,6.304-1.471,8.195,1.051l9.456,11.978L44.8,63.009
	c-0.63-3.362,1.471-6.304,4.623-6.935c1.471-0.21,2.731-0.21,3.783,0.42l13.659,6.934C61.611,54.813,62.662,43.256,71.277,37.372
	L71.277,37.372z M63.712,74.776l-5.043-2.522l1.261,5.674L63.712,74.776L63.712,74.776z"/>
<path fill-rule="evenodd" clip-rule="evenodd" fill="#FFFFFF" d="M107.841,138.447c-2.731-3.363-2.102-8.406,1.261-11.139
	c3.572-2.73,8.615-2.1,11.347,1.262c2.732,3.572,2.102,8.615-1.471,11.348C115.615,142.65,110.572,142.02,107.841,138.447
	L107.841,138.447z M85.566,149.373c0.63-0.42,0.63-1.471,0.21-2.1c-0.63-0.631-1.471-0.842-2.101-0.211l-2.942,2.102l1.891,2.521
	L85.566,149.373L85.566,149.373z M93.342,156.939c0.84-0.631,1.05-1.893,0.42-2.732c-0.84-0.84-1.892-1.051-2.732-0.42l-4.203,3.361
	l2.312,2.941L93.342,156.939L93.342,156.939z M77.581,136.977c4.413-3.572,10.927-2.732,14.5,1.68
	c1.261,1.682,1.891,3.363,2.102,5.254c1.05,0,1.891,0,2.942,0.211c-5.464-8.617-3.572-19.963,4.623-26.479
	c4.412-3.361,9.666-4.621,14.709-3.992l7.564,1.051l1.472-12.398c0.42-3.15,3.151-5.462,6.514-5.042
	c3.152,0.419,5.464,3.362,5.043,6.515l-1.26,12.607l13.028,1.891c3.151,0.42,5.463,3.363,5.043,6.516
	c-0.21,3.361-3.152,5.463-6.515,5.043l-12.607-1.682l-0.631,8.195c-0.841,5.043-3.362,9.666-7.564,13.027
	c-6.095,4.834-14.079,5.465-20.594,2.521c1.471,4.623,0,9.877-4.202,13.24l-9.877,7.984c-2.521,1.891-6.304,1.471-8.195-1.051
	l-15.76-20.174c-1.891-2.521-1.471-6.094,1.051-8.195L77.581,136.977L77.581,136.977z"/>
<path fill-rule="evenodd" clip-rule="evenodd" fill="#FFFFFF" d="M161.005,121.426c1.471-1.051,1.681-3.152,0.63-4.623
	c-1.261-1.471-3.361-1.682-4.833-0.631c-1.471,1.262-1.681,3.363-0.42,4.834C157.433,122.477,159.533,122.688,161.005,121.426
	L161.005,121.426z M160.584,121.006c-1.051,1.051-2.941,0.84-3.782-0.42c-0.841-1.262-0.63-2.943,0.421-3.783
	c1.261-1.051,2.941-0.84,3.782,0.42C162.056,118.484,161.846,120.166,160.584,121.006L160.584,121.006z M159.744,118.693
	c0.42-0.42,0.63-0.84,0.21-1.471c-0.21-0.209-0.631-0.42-0.841-0.42c-0.42,0-0.63,0.211-1.051,0.42l-1.261,1.051l2.102,2.943
	l0.63-0.422l-0.84-1.26l0.42-0.42l1.682,0.629l0.63-0.42L159.744,118.693L159.744,118.693z M158.273,119.115l-0.631-0.842
	l0.631-0.631c0.42-0.209,0.84-0.42,1.05,0c0.21,0.211,0.21,0.631-0.21,0.842L158.273,119.115L158.273,119.115z"/>
</svg>
