<?xml version="1.0" encoding="UTF-8" standalone="no"?>
<svg
   xmlns:dc="http://purl.org/dc/elements/1.1/"
   xmlns:cc="http://creativecommons.org/ns#"
   xmlns:rdf="http://www.w3.org/1999/02/22-rdf-syntax-ns#"
   xmlns:svg="http://www.w3.org/2000/svg"
   xmlns="http://www.w3.org/2000/svg"
   xmlns:sodipodi="http://sodipodi.sourceforge.net/DTD/sodipodi-0.dtd"
   xmlns:inkscape="http://www.inkscape.org/namespaces/inkscape"
   version="1.1"
   id="Layer_1"
   x="0px"
   y="0px"
   width="774"
   height="203"
   viewBox="0 0 773.99997 203"
   enable-background="new 0 0 595.275 841.89"
   xml:space="preserve">
<rect
   style="fill:#2c3a65"
   id="rect5"
   height="202.99205"
   width="774"
   y="0.0079490766"
   x="-4.1771178e-005"
   clip-path="none" /><path
   style="fill:#e6c01f"
   inkscape:connector-curvature="0"
   id="path7"
   d="m 764.22059,79.97248 c -26.06307,-2.692835 -52.13359,-5.385671 -78.20412,-8.078506 19.78227,-3.080723 39.57946,-6.153987 59.36173,-9.23471 0.57437,-7.161003 -0.73102,-13.397043 -3.07326,-19.103467 -3.29705,-6.064474 -7.69062,-9.630057 -12.69586,-11.800736 -6.38523,-1.92452 -12.99424,-2.088626 -19.87179,-0.126809 -6.34047,1.372525 -12.21846,3.990767 -17.82045,7.31019 -14.70244,8.816985 -27.13722,20.155239 -37.6997,33.589579 -10.25664,13.031533 -18.73795,28.017419 -24.36979,46.158629 -1.52917,6.01226 -2.63316,12.37511 -2.95391,19.35709 0.23124,7.13116 1.41728,14.14298 6.03464,20.77437 4.36373,5.38567 10.15967,8.45147 17.69364,8.72001 6.5195,0.32075 12.27814,-1.07415 17.82046,-2.94646 16.85819,-6.49711 32.51543,-18.83493 47.18802,-36.02879 3.42386,-4.22201 6.6836,-8.61558 9.86876,-13.07629 -16.5822,-1.6709 -33.1644,-3.33434 -49.74659,-4.99778 23.88493,-3.08073 47.77731,-6.15399 71.6697,-9.23471 -26.3689,-3.759531 -52.7378,-7.519057 -79.1067,-11.278584 31.97089,-3.334342 63.94179,-6.668684 95.90522,-10.003026 l 0,0 z"
   clip-path="none" /><path
   style="fill:#ffffff"
   inkscape:connector-curvature="0"
   id="path9"
   d="m 293.01914,98.635844 c -0.0298,-1.738035 0.0224,-3.394017 0.73102,-5.087296 h -20.10302 c 0.80561,1.693279 0.79815,3.386558 0.77577,5.087296 v 25.167946 c -0.007,1.81262 -0.2387,3.64763 -0.7534,5.44534 h 20.18508 c -0.67134,-1.82755 -0.83545,-3.66255 -0.83545,-5.4901 V 98.635844 z"
   clip-path="none" /><path
   style="fill:#ffffff"
   inkscape:connector-curvature="0"
   id="path11"
   d="m 53.30457,98.635844 0.01492,21.408416 c -0.164106,2.20797 -1.730575,3.95347 -4.982864,4.11012 l -3.058345,0.007 c -3.289586,0 -12.054355,0 -16.403172,-0.73848 l 1.387444,5.82577 h 31.351766 c 5.788477,0 10.293941,-3.66255 10.293941,-8.86174 V 98.628385 c -0.02984,-1.738035 0.02238,-3.394017 0.731019,-5.087296 H 52.536254 c 0.798153,1.700738 0.790694,3.394017 0.768316,5.094755 z"
   clip-path="none" /><path
   style="fill:#ffffff"
   inkscape:connector-curvature="0"
   id="path13"
   d="m 100.01519,124.13946 v -10.68183 h 19.84941 c 1.1935,0 2.39446,0.15665 3.57304,0.49232 v -6.10177 c -1.20096,0.4401 -2.40192,0.54453 -3.60288,0.54453 h -19.81957 v -9.756866 h 9.58531 c 3.28212,0 11.47998,0 15.83625,0.738479 l -1.38744,-5.825775 H 80.710324 c 0.805613,1.693279 0.790694,3.386558 0.775776,5.087296 v 25.167946 c -0.01492,1.81262 -0.2387,3.64763 -0.753397,5.44534 h 44.502647 l 1.37999,-5.82577 c -4.34882,0.73848 -12.54668,0.73848 -15.83626,0.73848 l -10.76389,-0.0224 z"
   clip-path="none" /><path
   style="fill:#ffffff"
   inkscape:connector-curvature="0"
   id="path15"
   d="m 177.67478,93.548548 h -47.43419 l -1.45457,5.825775 c 4.34881,-0.738479 12.55413,-0.738479 15.94815,-0.738479 v 25.167946 c -0.0149,1.81262 -0.24616,3.64763 -0.7534,5.44534 h 20.17762 c -0.67135,-1.83501 -0.83545,-3.66255 -0.82799,-5.4901 l -0.1119,-25.123186 c 3.29705,0 11.49491,0 15.84372,0.738479 l -1.38744,-5.825775 z"
   clip-path="none" /><path
   style="fill:#ffffff"
   inkscape:connector-curvature="0"
   id="path17"
   d="m 237.17824,114.77794 h -11.18907 c -0.93242,-0.0149 -1.56647,-0.37297 -1.49933,-1.33523 l 7.53397,-10.98021 6.65376,11.00259 c 0.0597,0.93988 -0.56691,1.29793 -1.49933,1.31285 z m 10.14475,-21.229392 h -19.50627 c 0.29837,1.835007 -0.97718,3.394017 -2.02895,4.975405 L 208.8699,123.75157 c -1.26064,1.83501 -2.71522,3.97585 -4.62482,5.4901 h 11.34572 c -0.15665,-1.74549 0.46248,-3.47607 1.71565,-5.44534 l 3.11056,-4.51293 21.76647,0 2.70029,4.50547 c 1.08907,1.96927 1.5441,3.69985 1.23826,5.44534 h 22.94505 c -1.77533,-1.52171 -3.04343,-3.66255 -4.14742,-5.4901 L 247.32299,93.548548 z"
   clip-path="none" /><path
   style="fill:#ffffff"
   inkscape:connector-curvature="0"
   id="path19"
   d="m 553.66473,93.548548 h -10.18951 c 0.30583,1.491876 -2.05879,3.84158 -3.26721,5.445346 l -8.45894,9.615136 -8.71255,-9.615136 c -1.40236,-1.946897 -3.05834,-3.707311 -2.59586,-5.445346 h -23.39261 l 19.11838,22.094682 -0.0298,8.1531 c -0.007,1.81262 -0.2387,3.64763 -0.7534,5.44534 h 20.17762 c -0.67135,-1.835 -0.82799,-3.66255 -0.82799,-5.4901 l 0.007,-8.00391 18.92444,-22.199112 z"
   clip-path="none" /><path
   style="fill:#ffffff"
   inkscape:connector-curvature="0"
   id="path21"
   d="m 471.48476,114.77794 h -11.19653 c -0.93242,-0.0149 -1.55901,-0.37297 -1.49933,-1.33523 l 7.53397,-10.98021 6.66122,11.00259 c 0.0597,0.93988 -0.57437,1.29793 -1.49933,1.31285 z m 10.12983,-21.229392 h -19.50627 c 0.30584,1.835007 -0.96972,3.394017 -2.02149,4.975405 l -16.91787,25.227617 c -1.26809,1.83501 -2.71521,3.97585 -4.62481,5.4901 h 11.34571 c -0.15665,-1.74549 0.46248,-3.47607 1.71566,-5.44534 l 3.11056,-4.51293 21.76646,0 2.7003,4.50547 c 1.08907,1.96927 1.55155,3.69985 1.24571,5.44534 h 22.93759 c -1.76787,-1.52171 -3.04342,-3.66255 -4.14741,-5.4901 L 481.61459,93.548548 z"
   clip-path="none" /><path
   style="fill:#ffffff"
   inkscape:connector-curvature="0"
   id="path23"
   d="m 607.66316,112.20445 c 0.0746,-4.28168 -3.42385,-7.00435 -6.99689,-7.01927 l -20.93848,0.0447 c -4.08028,0.0448 -4.59497,-6.743273 0.37297,-6.646302 L 590.156,98.56871 c 3.28959,0 12.05436,0 16.41064,0.738478 l -1.38745,-5.825774 h -37.37148 c -5.78848,0 -9.30931,3.662554 -9.31677,8.861736 l 0.0746,8.1904 c -0.0746,4.27423 2.20051,7.00436 5.7661,7.01182 l 22.16927,-0.0448 c 4.07282,-0.0522 4.59498,6.73582 -0.37297,6.64631 l -10.54756,0.007 c -3.28959,0 -12.05436,0 -16.40317,-0.73848 l 1.37998,5.82577 h 36.87917 c 5.78847,0 10.29394,-3.66255 10.29394,-8.86174 l -0.0671,-8.17548 z"
   clip-path="none" /><path
   style="fill:#ffffff"
   inkscape:connector-curvature="0"
   id="path25"
   d="m 338.40946,106.12506 c -0.12681,1.96928 -2.07371,2.70775 -3.71477,2.70775 H 322.20023 V 98.635844 h 12.49446 c 1.64106,0 3.58796,0.738479 3.71477,2.707756 v 4.78146 z m 18.43212,1.70074 v -7.62349 c -0.0373,-3.394014 -3.07326,-6.653762 -10.86831,-6.653762 h -43.14505 c 0.79816,1.693279 0.78324,3.386558 0.77578,5.087296 v 25.167946 c -0.0149,1.81262 -0.2387,3.64763 -0.7534,5.44534 h 20.17762 c -0.67135,-1.83501 -0.83545,-3.66255 -0.82799,-5.4901 l -0.007,-9.8986 h 7.33257 l 9.51816,15.3887 h 20.25221 l -9.61513,-15.5528 c 5.07237,-0.52216 7.13862,-2.31241 7.161,-5.87053 z"
   clip-path="none" /><path
   style="fill:#ffffff"
   inkscape:connector-curvature="0"
   id="path27"
   d="m 445.18299,93.548548 h -9.00347 c 0.30584,1.738035 0.17903,3.47607 -0.57437,5.445346 l -7.15354,18.432126 -9.39136,-23.877472 h -19.52119 l -8.95871,23.877472 -7.0342,-18.432126 c -0.73848,-1.864844 -0.8802,-3.707311 -0.57437,-5.445346 h -22.38559 c 1.77533,1.514254 2.49143,3.662555 3.58796,5.490102 l 11.60679,30.21048 h 17.95472 l 9.6599,-24.8994 9.59276,24.8994 h 18.11883 l 11.34571,-30.21048 c 0.68626,-1.827547 1.50679,-4.050442 2.73013,-5.490102 z"
   clip-path="none" />
</svg>