<?xml version="1.0" encoding="UTF-8" standalone="no"?>
<!-- Created with Inkscape (http://www.inkscape.org/) -->

<svg
   xmlns:dc="http://purl.org/dc/elements/1.1/"
   xmlns:cc="http://creativecommons.org/ns#"
   xmlns:rdf="http://www.w3.org/1999/02/22-rdf-syntax-ns#"
   xmlns:svg="http://www.w3.org/2000/svg"
   xmlns="http://www.w3.org/2000/svg"
   xmlns:sodipodi="http://sodipodi.sourceforge.net/DTD/sodipodi-0.dtd"
   xmlns:inkscape="http://www.inkscape.org/namespaces/inkscape"
   width="682"
   height="115"
   id="svg2"
   version="1.1">
  <g
     inkscape:label="Layer 1"
     inkscape:groupmode="layer"
     id="layer1"
     transform="translate(-123.56925,-274.8814)">
    <path
       style="font-size:9px;letter-spacing:0px;word-spacing:0;fill:#f8b100;fill-rule:evenodd;stroke:none;font-family:fnt0"
       d="m 791.88173,299.33757 c 0.29331,-7.3326 -1.27098,-13.68752 -4.98616,-18.18484 -11.34109,-13.49198 -38.42281,-4.49733 -60.42061,20.1402 -21.99779,24.63752 -30.60137,55.43443 -19.26028,69.02418 11.43885,13.39421 38.42281,4.49733 60.4206,-20.1402 3.51965,-3.91072 6.74599,-8.01697 9.58126,-12.221 l -36.27192,-3.71518 52.40363,-6.64822 -57.87863,-8.31028 70.09963,-7.23483 -57.19426,-5.86607 z"
       class="ps05"
       id="path3536" />
    <path
       style="font-size:9px;letter-spacing:0px;word-spacing:0;fill:#02123b;fill-rule:nonzero;stroke:none;font-family:fnt0"
       d="m 655.29989,299.33757 c 4.20402,0 8.01697,1.27098 10.55894,1.17321 0.68437,0 1.27098,0.0978 1.27098,1.17322 0,0.19553 -0.0978,0.39107 -0.0978,0.68437 0,1.27099 0.58661,4.00849 0.58661,7.62591 0,1.36875 -0.2933,1.85759 -1.46652,1.85759 -0.97768,0 -1.27098,-0.68438 -1.36875,-1.56429 -0.39107,-2.1509 -0.68438,-3.12857 -1.85759,-4.30179 -1.75983,-1.95536 -4.49733,-2.83527 -8.40805,-2.83527 -6.45268,0 -9.87456,3.91072 -9.67903,8.60358 0.29331,5.27947 4.5951,8.11474 12.12323,12.61207 10.46117,6.35491 13.49198,10.46117 13.49198,17.4027 0,7.6259 -5.86608,16.03394 -20.72681,16.03394 -3.71518,0 -7.3326,-0.58661 -10.55894,-1.95536 -1.36875,-0.68437 -1.46652,-0.97768 -1.56429,-3.42188 -0.0978,-2.93304 -0.0978,-6.94152 0.0978,-8.31027 0.19554,-0.87992 0.39107,-1.36876 1.46652,-1.36876 0.87991,0 1.27098,0.39108 1.46652,1.46652 0,0.68438 0.0978,2.24867 0.48884,3.42188 1.56429,5.67055 6.94153,6.45269 10.65671,6.45269 7.3326,0 11.53662,-4.5951 11.53662,-9.38573 0,-6.15938 -3.51965,-9.38572 -13.49198,-15.05626 -9.7768,-5.57278 -11.82992,-11.34109 -11.73216,-16.42502 0.29331,-8.40805 6.64823,-13.88305 17.20717,-13.88305 m -287.88756,29.23262 c 0,-3.32411 0.1271,-17.20716 0.20532,-27.37503 0.01,-0.2933 -0.20532,-0.58661 -0.61594,-0.58661 l -11.97658,0 c -1.30031,0 -1.84781,0.39107 -1.84781,1.46652 0,0.87991 0.4204,1.27098 1.25143,1.36875 3.93027,0.39107 4.46799,2.1509 4.58531,6.94153 0.19554,7.13706 0.18576,12.5143 0.18576,18.18484 0,7.43037 -0.0782,17.01163 -0.41062,27.37503 -0.01,0.39107 0.21509,0.58661 0.62571,0.58661 l 7.55747,0 c 0.4204,0 0.61594,-0.19554 0.61594,-0.58661 -0.0782,-10.16787 -0.17599,-18.96699 -0.17599,-27.37503 m 227.76026,-1.56429 c 1.46652,2.24867 2.83527,4.30179 4.00848,6.15938 0,6.64823 -0.0978,14.46966 -0.39107,22.77994 0,0.39107 0.19554,0.58661 0.68438,0.58661 l 7.52813,0 c 0.39107,0 0.58661,-0.19554 0.58661,-0.58661 -0.0978,-8.31028 -0.0978,-15.74064 -0.19554,-22.77994 6.35492,-10.16786 13.78529,-21.50895 20.62904,-31.87235 0.29331,-0.39107 0.0978,-0.68438 -0.2933,-0.68438 l -10.75448,0 c -1.36875,0 -1.85759,0.39107 -1.85759,1.46652 0,0.87991 0.39107,1.17322 1.27099,1.36875 2.24866,0.39107 2.83527,1.95536 1.56428,4.00849 -4.00848,6.64822 -8.40804,13.58975 -12.70983,20.53127 -1.17322,-1.85759 -2.24867,-3.61741 -3.42188,-5.475 -4.5951,-7.0393 -8.50581,-13.19868 -13.68752,-21.31342 -0.2933,-0.48884 -0.39107,-0.58661 -0.97768,-0.58661 l -8.89688,0 c -0.39107,0 -0.58661,0.29331 -0.39107,0.68438 6.25715,9.09242 13.19867,19.45582 17.30493,25.71297 m -27.36526,28.93932 c 0.14665,0.39107 0.40085,0.58661 0.81148,0.58661 l 8.36893,0 c 0.39108,0 0.58661,-0.19554 0.48884,-0.58661 -4.57554,-9.7768 -9.45416,-20.92234 -12.33831,-27.7661 -5.47501,-12.80761 -7.97787,-19.45583 -10.67626,-26.98396 -0.11733,-0.2933 -0.39108,-0.58661 -0.81148,-0.58661 l -9.2684,0 c -1.29054,0 -1.84782,0.39107 -1.84782,1.46652 0,0.87991 0.43996,1.27098 1.26121,1.36875 1.93581,0.29331 3.29478,1.07545 3.29478,3.42188 0,1.36875 -0.55728,2.83527 -1.21232,4.49733 -2.60063,6.64822 -4.73197,11.63439 -6.94153,16.81609 -2.90371,6.84376 -7.753,17.89154 -12.27965,27.7661 -0.17599,0.39107 0.01,0.58661 0.43017,0.58661 l 5.30881,0 c 0.4204,0 0.68437,-0.19554 0.82125,-0.58661 2.00424,-5.08393 3.77384,-9.58126 5.475,-13.88305 4.65376,-0.0978 8.23207,-0.19554 11.64417,-0.19554 3.44143,0 7.01974,0.0978 11.67349,0.19554 1.93581,4.69286 3.88139,9.38572 5.79764,13.88305 m -27.29681,-18.47815 c 0.78214,-2.05312 1.58384,-4.00848 2.39531,-6.06161 2.04335,-4.98617 4.06715,-9.87456 7.18595,-17.50047 3.26545,7.62591 5.32835,12.5143 7.46947,17.50047 0.8408,1.95536 1.68161,4.00849 2.53219,6.06161 -3.47076,0 -6.50157,0 -9.75724,0 -3.26545,0 -6.30604,0 -9.82568,0 m -28.29405,-36.85852 c -1.29054,0 -1.8967,0.29331 -1.8967,1.46652 0,0.78214 0.48884,1.17322 1.31009,1.36875 2.42465,0.48884 2.9917,2.4442 2.18023,4.79063 -2.18023,6.35492 -4.05738,11.82993 -6.05184,17.50047 -1.68161,4.79063 -3.35344,9.58126 -5.84653,16.62055 -2.75705,-7.33259 -4.35067,-11.63439 -6.29625,-16.62055 -2.98193,-7.72367 -5.35769,-14.07859 -8.90666,-23.46431 -0.3813,-1.07545 -0.69416,-1.66206 -1.7305,-1.66206 -0.94835,0 -1.28076,0.58661 -1.63272,1.66206 -3.44144,9.38572 -5.74876,15.74064 -8.63291,23.46431 -1.7696,4.79063 -3.5392,9.58126 -6.14961,16.62055 -2.62018,-7.33259 -4.13558,-11.63439 -5.95407,-16.62055 -2.83527,-7.72367 -5.44567,-15.05627 -8.80889,-24.53976 -0.13688,-0.2933 -0.41063,-0.58661 -0.82125,-0.58661 l -8.05608,0 c -0.42041,0 -0.57683,0.19554 -0.43996,0.58661 3.82273,9.58126 8.1343,20.92234 10.63716,27.7661 4.71241,12.90537 6.9904,18.67368 9.77679,26.69066 0.48884,1.36875 0.81148,1.95536 1.78916,1.95536 1.12433,0 1.54473,-1.17322 1.86736,-1.95536 2.38554,-6.64823 8.01698,-21.41119 10.07988,-26.69066 1.44697,-3.71518 2.9917,-7.52813 4.80041,-12.02546 2.00424,4.8884 2.81572,6.94153 4.77107,12.02546 4.96662,12.90537 7.36193,18.67368 10.3243,26.69066 0.5084,1.36875 0.84081,1.95536 1.81849,1.95536 1.1341,0 1.49585,-1.07545 1.81848,-1.95536 2.26822,-6.64823 7.59657,-21.41119 9.51282,-26.69066 2.28777,-6.15938 7.27394,-19.06475 10.78381,-27.7661 0.14665,-0.2933 -0.0293,-0.58661 -0.43018,-0.58661 z m -281.11224,0 c -8.39826,0 -12.54363,-0.0978 -22.69194,-0.19553 -0.36174,0 -0.48884,0.0978 -0.58661,0.5866 l -1.07545,4.69287 c -0.0978,0.48884 0.14666,0.78214 0.62572,0.78214 5.96385,-0.2933 13.14001,-0.58661 19.65136,-0.78214 0.16621,7.13706 0.0978,17.30493 0.0978,22.8777 0,7.43037 -0.088,17.01163 -0.41063,27.37503 -0.01,0.39107 0.21509,0.58661 0.63549,0.58661 l 7.55747,0 c 0.4204,0 0.61594,-0.19554 0.61594,-0.58661 -0.0782,-10.16787 -0.17599,-18.96699 -0.17599,-27.37503 0,-2.83527 0.088,-13.49198 0.16621,-22.8777 6.26693,0.0978 12.54363,0.39107 19.03542,0.78214 0.35197,0 0.59639,-0.19554 0.68438,-0.58661 l 1.07545,-4.8884 c 0.0782,-0.39107 -0.1271,-0.5866 -0.49862,-0.5866 -10.12876,0.0978 -16.29792,0.19553 -24.70597,0.19553 m 102.19686,55.33667 c 0.14665,0.39107 0.41063,0.58661 0.82125,0.58661 l 8.35916,0 c 0.41063,0 0.60616,-0.19554 0.44973,-0.58661 -4.54621,-9.7768 -9.41505,-20.92234 -12.31876,-27.7661 -5.45545,-12.80761 -7.97787,-19.45583 -10.66648,-26.98396 -0.1271,-0.2933 -0.39108,-0.58661 -0.8017,-0.58661 l -9.27818,0 c -1.30032,0 -1.83804,0.39107 -1.83804,1.46652 0,0.87991 0.4204,1.27098 1.25143,1.36875 1.94558,0.29331 3.29478,1.07545 3.29478,3.42188 0,1.36875 -0.56705,2.83527 -1.2221,4.49733 -2.60063,6.64822 -4.71241,11.63439 -6.9513,16.81609 -2.90371,6.84376 -7.72367,17.89154 -12.26988,27.7661 -0.16621,0.39107 0.0196,0.58661 0.43018,0.58661 l 5.31858,0 c 0.40084,0 0.66482,-0.19554 0.81147,-0.58661 2.0238,-5.08393 3.77384,-9.58126 5.46523,-13.88305 4.67331,-0.0978 8.25162,-0.19554 11.68327,-0.19554 3.4121,0 6.99041,0.0978 11.65394,0.19554 1.93581,4.69286 3.89117,9.38572 5.80742,13.88305 m -27.32615,-18.47815 c 0.8017,-2.05312 1.61317,-4.00848 2.41487,-6.06161 2.03358,-4.98617 4.07693,-9.87456 7.19572,-17.50047 3.25568,7.62591 5.31858,12.5143 7.4597,17.50047 0.83103,1.95536 1.68161,4.00849 2.53219,6.06161 -3.48054,0 -6.50157,0 -9.73769,0 -3.285,0 -6.32559,0 -9.86479,0 m 94.78605,-32.55673 c 1.3883,-0.19553 3.38277,-0.2933 5.33813,-0.2933 8.21251,0 13.58974,3.81295 13.58974,12.8076 0,6.94153 -3.80317,12.41653 -12.27965,12.41653 -2.72773,0 -5.40657,-0.2933 -6.81443,-0.78214 0.0293,-4.69286 0.088,-12.70984 0.16621,-24.14869 m 9.53237,29.13486 c 6.18872,9.28795 9.71814,14.37189 14.22524,18.38037 3.61742,3.22635 7.98764,4.5951 13.1889,4.5951 3.88139,0 8.08541,-0.58661 8.08541,-1.85759 0,-0.78215 -0.65504,-0.87992 -2.90371,-1.27099 -4.16491,-0.68437 -7.10773,-1.85759 -12.04501,-6.35491 -4.03782,-3.51965 -8.52537,-9.38573 -12.9347,-15.93618 5.48478,-2.93304 10.08965,-8.60358 10.08965,-15.83841 0,-12.02546 -11.66372,-15.15404 -20.55083,-15.15404 l -19.25051,0 c -1.30031,0 -1.84781,0.39107 -1.84781,1.46652 0,0.87991 0.43995,1.27098 1.2612,1.36875 3.94005,0.39107 4.468,2.1509 4.5951,6.94153 0.19554,7.13706 0.18576,12.5143 0.18576,18.18484 0,7.43037 -0.088,17.01163 -0.4204,27.37503 -0.01,0.39107 0.20531,0.58661 0.62571,0.58661 l 7.56724,0 c 0.40085,0 0.60616,-0.19554 0.60616,-0.58661 -0.0684,-8.11474 -0.14665,-15.44734 -0.1662,-22.38886 2.54196,0.39107 5.16215,0.5866 8.3396,0.48884 0.43018,0 0.88969,0 1.3492,0 M 180.0498,351.54566 c -0.0684,-7.72367 -0.1271,-14.76296 -0.13687,-21.50895 3.7054,0.0978 10.22653,0.68437 15.44734,0.97768 0.35196,0 0.5866,-0.19554 0.6746,-0.58661 l 1.06567,-4.8884 c 0.088,-0.39107 -0.11733,-0.58661 -0.46929,-0.58661 -6.03228,0.19554 -10.95001,0.39108 -16.69877,0.48884 0.0196,-4.69286 0.088,-12.90537 0.14665,-20.1402 4.73197,0.0978 9.97234,0.68438 16.69877,1.17322 0.35197,0 0.58661,-0.19554 0.68438,-0.58661 l 1.06567,-4.8884 c 0.0782,-0.39107 -0.11732,-0.5866 -0.46929,-0.5866 -7.57702,0 -13.7364,0.19553 -20.38462,0.19553 l -10.16787,0 c -1.30031,0 -1.84781,0.39107 -1.84781,1.46652 0,0.87991 0.43995,1.27098 1.26121,1.36875 3.94004,0.39107 4.46799,2.1509 4.60487,6.94153 0.18576,7.13706 0.1662,12.5143 0.1662,18.18484 0,7.43037 -0.0782,17.01163 -0.40085,27.37503 -0.01,0.39107 0.20532,0.58661 0.62572,0.58661 l 7.55746,0 c 6.35492,0 12.62185,0.19553 19.27007,0.2933 0.37152,0 0.60616,-0.19553 0.69415,-0.58661 l 1.06567,-4.88839 c 0.088,-0.39108 -0.10754,-0.68438 -0.46928,-0.68438 -7.753,0.58661 -14.72386,0.87991 -19.98378,0.87991 m -33.12378,-50.3505 c 0,-0.2933 -0.20532,-0.58661 -0.60617,-0.58661 l -12.50452,0 c -1.31009,0 -1.85759,0.39107 -1.85759,1.46652 0,0.87991 0.43018,1.27098 1.27098,1.36875 4.0476,0.39107 4.92751,1.66206 5.06438,6.94153 0.19554,7.13706 0.22487,12.5143 0.22487,18.18484 0,10.55894 -0.01,18.18484 -0.1662,25.41967 -0.23465,10.85225 -0.77237,17.696 -3.49032,22.97547 -5.0546,9.7768 -11.2922,9.87457 -11.2922,11.73216 0,0.68437 0.66482,1.27098 1.3883,1.17321 2.75706,-0.48884 21.91958,-7.6259 21.91958,-33.82771 0,-9.19019 -0.15643,-17.1094 -0.15643,-27.4728 0,-3.32411 0.11732,-17.20716 0.20532,-27.37503"
       class="ps06"
       id="path3538" />
  </g>
</svg>
