<?xml version="1.0" encoding="UTF-8" standalone="no"?>
<!-- Generator: Adobe Illustrator 14.0.0, SVG Export Plug-In . SVG Version: 6.00 Build 43363)  -->
<svg
   xmlns:dc="http://purl.org/dc/elements/1.1/"
   xmlns:cc="http://web.resource.org/cc/"
   xmlns:rdf="http://www.w3.org/1999/02/22-rdf-syntax-ns#"
   xmlns:svg="http://www.w3.org/2000/svg"
   xmlns="http://www.w3.org/2000/svg"
   xmlns:xlink="http://www.w3.org/1999/xlink"
   xmlns:sodipodi="http://sodipodi.sourceforge.net/DTD/sodipodi-0.dtd"
   xmlns:inkscape="http://www.inkscape.org/namespaces/inkscape"
   version="1.0"
   id="Layer_1"
   x="0px"
   y="0px"
   width="687"
   height="225"
   viewBox="0 0 612 792"
   enable-background="new 0 0 612 792"
   xml:space="preserve"
   sodipodi:version="0.32"
   inkscape:version="0.45.1">
<path
   style="fill:#0e43a3"
   id="path128"
   d="M 496.156,55 L 499.236,55 L 499.236,58.081 L 496.156,58.081 L 496.156,55 z M 496.156,61.194 L 499.236,61.194 L 499.236,77.708 C 499.236,80.277 497.364,82 494.768,82 L 493.559,82 L 493.559,79.099 L 494.435,79.099 C 495.492,79.099 496.156,78.614 496.156,77.465 L 496.156,61.194 L 496.156,61.194 z "
   clip-path="url(#SVGID_17_)"
   transform="matrix(29.333333,0,0,29.333333,-15380.851,-1613.3333)" /><path
   style="fill:#0e43a3"
   id="path130"
   d="M 513.854,70.017 L 513.854,67.478 C 513.854,63.521 510.925,61.012 507.541,61.012 C 504.58,61.012 501.228,62.947 501.228,68.899 C 501.228,75.186 504.886,76.696 508.026,76.696 C 510.084,76.696 512.042,75.972 513.556,74.22 L 511.319,72.314 C 510.409,73.25 509.141,73.795 507.965,73.795 C 505.848,73.795 504.308,72.527 504.308,70.017 L 513.854,70.017 L 513.854,70.017 z M 504.309,67.478 C 504.369,65.154 505.73,63.914 507.541,63.914 C 509.354,63.914 510.688,65.155 510.774,67.478 L 504.309,67.478 z "
   clip-path="url(#SVGID_17_)"
   transform="matrix(29.333333,0,0,29.333333,-15380.851,-1613.3333)" /><path
   style="fill:#0e43a3"
   id="path132"
   d="M 516.298,56.54 L 519.385,56.54 L 519.385,61.194 L 521.616,61.194 L 521.616,63.551 L 519.385,63.551 L 519.385,72.463 C 519.385,73.313 519.717,73.612 520.467,73.612 L 521.616,73.612 L 521.616,76.513 L 520.014,76.513 C 517.87,76.513 516.297,75.155 516.297,72.739 L 516.297,63.551 L 514.757,63.551 L 514.757,61.194 L 516.297,61.194 L 516.297,56.54 L 516.298,56.54 z "
   clip-path="url(#SVGID_17_)"
   transform="matrix(29.333333,0,0,29.333333,-15380.851,-1613.3333)" /><path
   style="fill:#0e43a3"
   id="path134"
   d="M 531.561,57.901 C 533.917,57.901 535.033,59.322 535.033,60.981 C 535.033,62.674 533.918,64.065 531.561,64.065 L 526.847,64.065 L 526.847,57.901 L 531.561,57.901 L 531.561,57.901 z M 523.58,76.514 L 532.649,76.514 C 535.882,76.514 538.63,74.127 538.63,70.412 C 538.63,68.235 537.482,65.998 535.123,65.457 L 535.123,65.394 C 537.634,64.279 538.299,62.555 538.299,60.773 C 538.299,57.387 536.12,55.001 531.917,55.001 L 523.579,55.001 L 523.579,76.514 L 523.58,76.514 z M 531.865,66.966 C 534.282,66.966 535.363,68.506 535.363,70.199 C 535.363,71.892 534.282,73.432 531.865,73.432 L 526.846,73.432 L 526.846,66.966 L 531.865,66.966 L 531.865,66.966 z "
   clip-path="url(#SVGID_17_)"
   transform="matrix(29.333333,0,0,29.333333,-15380.851,-1613.3333)" /><path
   style="fill:#0e43a3"
   id="path136"
   d="M 540.403,55 L 543.483,55 L 543.483,72.556 C 543.483,73.25 543.876,73.612 544.631,73.612 L 545.694,73.612 L 545.694,76.513 L 544.333,76.513 C 542.096,76.513 540.403,75.547 540.403,72.799 L 540.403,55 L 540.403,55 z "
   clip-path="url(#SVGID_17_)"
   transform="matrix(29.333333,0,0,29.333333,-15380.851,-1613.3333)" /><path
   style="fill:#0e43a3"
   id="path138"
   d="M 546.989,61.194 L 550.068,61.194 L 550.068,70.319 C 550.068,72.407 551.37,73.612 553.123,73.612 C 554.849,73.612 556.144,72.407 556.144,70.319 L 556.144,61.194 L 559.231,61.194 L 559.231,76.513 L 556.144,76.513 L 556.144,74.883 L 556.084,74.883 C 555.121,76.091 553.727,76.695 552.127,76.695 C 549.71,76.695 546.989,74.853 546.989,71.378 L 546.989,61.194 L 546.989,61.194 z "
   clip-path="url(#SVGID_17_)"
   transform="matrix(29.333333,0,0,29.333333,-15380.851,-1613.3333)" /><path
   style="fill:#0e43a3"
   id="path140"
   d="M 573.518,70.017 L 573.518,67.478 C 573.518,63.521 570.582,61.012 567.197,61.012 C 564.237,61.012 560.884,62.947 560.884,68.899 C 560.884,75.186 564.541,76.696 567.682,76.696 C 569.74,76.696 571.704,75.972 573.211,74.22 L 570.975,72.314 C 570.072,73.25 568.804,73.795 567.622,73.795 C 565.504,73.795 563.963,72.527 563.963,70.017 L 573.518,70.017 L 573.518,70.017 z M 563.963,67.478 C 564.025,65.154 565.385,63.914 567.196,63.914 C 569.016,63.914 570.343,65.155 570.43,67.478 L 563.963,67.478 z "
   clip-path="url(#SVGID_17_)"
   transform="matrix(29.333333,0,0,29.333333,-15380.851,-1613.3333)" /><path
   style="fill:#0e43a3"
   id="path142"
   d="M 574.394,62.156 L 574.586,62.156 C 574.805,62.156 575.004,62.143 575.004,61.934 C 575.004,61.751 574.818,61.708 574.646,61.708 L 574.394,61.708 L 574.394,62.156 L 574.394,62.156 z M 574.127,61.459 L 574.726,61.459 C 575.09,61.459 575.27,61.605 575.27,61.934 C 575.27,62.249 575.09,62.372 574.865,62.399 L 575.323,63.049 L 575.005,63.049 L 574.554,62.405 L 574.395,62.405 L 574.395,63.049 L 574.128,63.049 L 574.128,61.459 L 574.127,61.459 z M 574.639,63.384 C 575.257,63.384 575.708,62.93 575.708,62.293 C 575.708,61.655 575.257,61.2 574.639,61.2 C 574.029,61.2 573.571,61.655 573.571,62.293 C 573.57,62.931 574.028,63.384 574.639,63.384 M 574.639,60.928 C 575.397,60.928 575.999,61.539 575.999,62.293 C 575.999,63.046 575.396,63.657 574.639,63.657 C 573.889,63.657 573.278,63.046 573.278,62.293 C 573.277,61.54 573.889,60.928 574.639,60.928"
   clip-path="url(#SVGID_17_)"
   transform="matrix(29.333333,0,0,29.333333,-15380.851,-1613.3333)" />

</svg>