<?xml version="1.0" encoding="UTF-8" ?>
<!DOCTYPE svg PUBLIC "-//W3C//DTD SVG 1.1//EN" "http://www.w3.org/Graphics/SVG/1.1/DTD/svg11.dtd">
<svg width="500pt" height="500pt" viewBox="0 0 500 500" version="1.1" xmlns="http://www.w3.org/2000/svg">
<g id="#231f20ff">
<path fill="#231f20" opacity="1.00" d=" M 272.82 20.87 C 286.07 12.97 301.39 7.51 317.01 8.52 C 328.86 9.23 340.39 14.96 347.73 24.35 C 356.17 34.73 360.25 48.86 357.18 62.04 C 353.65 78.69 340.70 91.56 326.50 99.99 C 328.66 107.92 330.85 115.86 333.40 123.69 C 336.67 123.73 339.93 123.76 343.20 123.75 C 342.92 109.01 347.93 93.97 358.07 83.12 C 360.96 80.17 364.29 77.49 368.20 76.05 C 372.26 74.56 377.83 76.03 379.43 80.37 C 381.10 86.56 377.67 92.50 374.49 97.55 C 368.66 106.33 360.00 114.07 358.90 125.17 C 385.32 128.48 410.95 140.18 429.54 159.45 C 448.80 178.78 460.85 205.34 461.42 232.74 C 471.28 233.24 481.19 237.96 486.40 246.59 C 493.06 257.69 494.72 271.20 493.32 283.90 C 491.22 300.11 483.78 315.13 474.47 328.38 C 463.24 344.25 449.31 358.07 434.23 370.27 C 431.58 372.57 428.14 374.17 426.50 377.44 C 421.85 385.54 415.17 392.53 406.95 397.04 C 393.09 404.60 376.58 407.31 361.05 404.38 C 357.53 403.86 354.18 402.63 350.71 401.97 C 326.08 399.64 301.35 397.78 276.96 393.51 C 259.01 390.17 241.11 385.03 225.30 375.69 C 212.02 367.91 200.39 356.26 195.32 341.47 C 191.89 331.43 190.66 320.12 194.14 309.94 C 196.92 301.87 202.80 295.29 209.55 290.25 C 203.71 276.27 201.06 261.12 200.84 246.02 C 201.42 222.20 209.26 198.55 222.96 179.07 C 220.51 176.56 218.20 173.94 215.96 171.26 C 205.82 176.77 193.78 178.63 182.47 176.23 C 170.25 173.89 158.20 167.15 152.09 155.95 C 146.10 144.80 145.49 130.63 151.23 119.25 C 156.27 109.08 165.30 101.57 174.92 95.91 C 190.65 86.71 208.45 81.77 226.27 78.61 C 233.82 54.41 251.28 33.91 272.82 20.87 M 274.47 26.49 C 250.17 41.21 234.04 66.49 225.53 93.14 C 224.59 95.55 224.03 99.52 220.65 99.44 C 220.55 94.26 222.79 89.47 223.94 84.51 C 207.91 87.89 191.85 92.38 177.57 100.63 C 168.92 105.66 160.80 112.40 156.30 121.53 C 150.41 133.47 152.18 148.89 161.07 158.90 C 167.12 165.67 175.80 169.61 184.64 171.16 C 193.67 172.53 203.51 172.22 211.49 167.28 C 204.09 160.76 196.75 154.16 188.91 148.17 C 187.86 147.49 187.10 146.53 187.06 145.24 C 202.16 149.90 213.81 161.33 224.65 172.31 C 225.33 172.84 226.42 174.69 227.33 173.50 C 239.43 158.51 255.58 147.19 272.90 139.00 C 267.87 129.47 264.17 118.94 264.60 108.02 C 264.83 101.21 265.64 94.06 269.14 88.08 C 271.70 83.85 277.12 81.18 281.92 83.11 C 284.87 84.25 286.50 87.28 287.30 90.18 C 290.71 103.95 284.79 118.32 289.24 131.97 C 301.54 128.22 314.08 124.71 327.02 124.25 C 323.22 110.03 318.98 95.82 317.52 81.12 C 317.22 76.69 317.01 72.16 317.94 67.78 C 318.31 67.62 319.04 67.31 319.41 67.15 C 320.79 76.19 322.90 85.08 324.90 93.99 C 338.09 86.58 349.20 73.80 351.98 58.61 C 355.45 39.18 341.40 18.29 321.83 14.77 C 305.24 12.17 288.57 18.10 274.47 26.49 M 368.40 80.60 C 364.07 82.05 360.70 85.43 358.01 89.01 C 352.82 96.49 348.53 104.84 347.26 113.95 C 345.63 122.64 346.60 131.51 346.20 140.27 C 342.60 137.82 344.03 132.50 343.27 128.74 C 325.55 127.93 307.93 131.35 291.18 136.96 C 292.43 141.80 296.46 145.49 297.07 150.49 C 295.83 149.96 294.71 149.20 293.87 148.14 C 288.61 142.18 284.64 134.87 283.46 126.94 C 282.07 119.32 283.90 111.66 283.77 104.01 C 283.65 98.96 284.28 93.20 281.07 88.93 C 278.48 87.12 274.71 88.47 273.05 90.94 C 269.94 95.64 269.15 101.46 269.13 106.99 C 268.84 121.02 273.89 134.75 281.86 146.17 C 283.55 149.38 286.84 151.85 287.33 155.60 C 281.80 153.32 279.45 147.10 275.25 143.51 C 268.24 146.78 261.54 150.72 255.20 155.16 C 233.95 169.89 218.11 192.05 210.87 216.86 C 203.52 239.95 205.22 265.41 213.95 287.88 C 227.67 280.90 244.33 281.22 258.25 287.46 C 258.60 288.15 258.94 288.85 259.27 289.55 C 251.86 288.48 244.46 287.11 236.94 287.22 C 226.87 286.98 216.68 290.41 209.07 297.05 C 202.98 302.35 198.81 309.88 197.86 317.92 C 196.46 332.75 202.16 347.88 212.51 358.52 C 225.47 372.01 243.23 379.83 261.16 384.21 C 286.42 390.38 312.34 393.13 338.20 395.30 C 335.74 393.47 333.13 391.68 331.38 389.12 L 331.75 387.68 C 336.64 388.81 341.06 391.49 345.82 393.10 C 361.42 399.99 379.72 402.01 395.86 395.77 C 410.08 390.65 421.73 379.11 426.77 364.84 C 427.88 362.94 427.73 359.70 430.17 359.01 C 430.26 361.35 430.28 363.70 430.30 366.05 C 443.90 355.53 456.44 343.55 466.79 329.78 C 476.10 317.38 483.79 303.36 486.82 288.02 C 489.17 276.41 488.30 264.09 483.85 253.08 C 481.09 246.43 475.65 240.90 468.86 238.40 C 460.33 235.09 450.64 236.63 442.62 240.62 L 442.60 239.06 C 446.52 235.81 451.41 234.15 456.32 233.08 C 455.67 201.46 439.53 170.68 413.97 152.08 C 397.52 140.17 378.07 132.00 357.76 130.17 C 357.45 134.00 357.44 137.86 357.04 141.69 C 355.11 140.48 354.88 138.13 354.77 136.08 C 354.45 129.37 354.69 122.40 357.43 116.15 C 361.48 106.56 369.15 99.14 373.90 89.94 C 375.15 87.39 376.37 84.00 374.38 81.49 C 372.96 79.73 370.33 80.17 368.40 80.60 Z" />
<path fill="#231f20" opacity="1.00" d=" M 384.06 183.80 C 392.12 181.27 400.97 183.66 407.83 188.22 C 415.83 193.58 421.26 201.89 425.31 210.46 C 429.93 220.07 432.17 230.74 432.44 241.37 C 434.09 241.36 436.27 241.62 435.14 243.87 C 423.01 250.65 410.15 256.02 397.91 262.58 C 393.64 264.66 389.64 267.32 385.17 268.97 C 377.51 259.50 372.58 248.12 369.26 236.48 C 366.38 225.65 364.28 214.08 366.93 202.99 C 368.97 194.30 375.30 186.34 384.06 183.80 M 373.01 198.78 C 368.88 208.31 369.41 219.35 372.06 229.20 C 373.01 223.06 375.55 216.59 381.19 213.33 C 388.41 208.67 398.53 209.38 404.89 215.23 C 402.76 220.57 400.22 225.74 398.13 231.09 C 402.64 228.36 407.03 225.43 411.36 222.43 C 416.03 229.95 418.88 238.74 418.83 247.64 C 422.10 246.25 425.34 244.81 428.53 243.24 C 427.81 226.76 422.66 209.94 411.52 197.47 C 406.11 191.41 398.36 186.55 389.94 187.33 C 382.69 187.49 375.82 192.06 373.01 198.78 Z" />
<path fill="#231f20" opacity="1.00" d=" M 294.15 203.09 C 306.34 202.54 317.36 210.18 324.58 219.45 C 333.96 231.55 337.01 247.19 338.10 262.12 C 338.49 268.96 338.36 275.83 337.52 282.63 C 329.99 282.59 322.46 282.65 314.93 282.79 C 300.47 283.36 286.10 285.25 271.81 287.52 C 271.48 286.86 270.81 285.53 270.47 284.86 C 271.66 284.28 272.85 283.71 274.05 283.15 C 267.32 270.48 262.69 256.40 262.67 241.95 C 262.68 231.09 266.11 219.77 274.15 212.13 C 279.60 207.13 286.54 203.03 294.15 203.09 M 288.82 208.96 C 281.02 211.07 275.03 217.33 271.46 224.36 C 266.88 233.60 266.02 244.61 268.87 254.49 C 269.67 244.72 276.47 235.13 286.17 232.57 C 293.31 230.55 300.87 233.32 306.56 237.69 C 303.97 243.80 301.10 249.83 299.04 256.14 C 304.00 253.04 308.79 249.66 313.96 246.90 C 319.50 256.45 320.19 267.93 318.56 278.64 C 323.50 278.60 328.44 278.55 333.38 278.45 C 334.14 264.82 333.09 250.93 328.87 237.90 C 325.28 226.92 318.14 216.65 307.79 211.14 C 302.05 208.00 295.12 207.31 288.82 208.96 Z" />
<path fill="#231f20" opacity="1.00" d=" M 436.93 279.66 C 439.67 279.22 442.14 277.31 445.00 277.68 C 441.38 282.47 434.66 283.36 431.37 288.45 C 421.84 300.86 414.17 314.67 408.39 329.19 C 404.47 338.20 399.20 347.58 390.12 352.21 C 380.81 356.35 369.76 355.71 360.58 351.49 C 351.95 347.74 344.44 341.91 335.88 338.03 C 324.92 332.99 313.68 328.52 302.15 324.96 C 299.50 324.29 296.70 323.03 293.98 324.11 C 288.77 325.74 283.19 326.15 277.83 325.10 C 278.03 324.77 278.44 324.12 278.64 323.80 C 285.21 322.86 291.91 320.56 296.45 315.48 C 297.98 314.11 298.93 311.55 301.33 311.62 C 301.75 314.35 300.56 316.84 299.33 319.18 C 306.26 321.94 313.72 322.92 321.07 323.97 C 341.71 326.45 363.12 326.39 383.10 320.06 C 398.36 315.16 413.07 306.85 423.13 294.14 C 425.24 291.30 427.46 288.45 428.65 285.08 C 425.70 284.58 422.10 283.59 421.25 280.30 C 426.48 280.43 431.80 281.15 436.93 279.66 M 380.72 333.18 C 382.04 335.14 383.47 337.03 384.59 339.12 C 374.32 331.90 359.93 333.45 349.77 340.06 C 358.08 346.38 368.43 351.00 379.06 350.20 C 389.39 349.28 398.12 341.41 401.86 332.00 C 398.43 330.59 394.86 329.07 391.08 329.38 C 387.30 329.49 383.85 331.21 380.72 333.18 Z" />
<path fill="#231f20" opacity="1.00" d=" M 382.52 284.06 C 385.03 285.90 386.94 288.72 386.86 291.94 C 387.19 296.15 384.04 299.75 380.58 301.70 C 375.25 304.33 368.86 304.44 363.21 302.89 C 358.97 301.45 353.90 298.90 353.15 294.00 C 359.25 297.99 366.88 299.62 374.01 297.81 C 377.83 296.95 381.66 294.78 383.35 291.10 C 384.32 288.71 383.29 286.32 382.52 284.06 Z" />
</g>
<g id="#ffffffff">
<path fill="#ffffff" opacity="1.00" d=" M 274.47 26.49 C 288.57 18.10 305.24 12.17 321.83 14.77 C 341.40 18.29 355.45 39.18 351.98 58.61 C 349.20 73.80 338.09 86.58 324.90 93.99 C 322.90 85.08 320.79 76.19 319.41 67.15 C 319.04 67.31 318.31 67.62 317.94 67.78 C 317.01 72.16 317.22 76.69 317.52 81.12 C 318.98 95.82 323.22 110.03 327.02 124.25 C 314.08 124.71 301.54 128.22 289.24 131.97 C 284.79 118.32 290.71 103.95 287.30 90.18 C 286.50 87.28 284.87 84.25 281.92 83.11 C 277.12 81.18 271.70 83.85 269.14 88.08 C 265.64 94.06 264.83 101.21 264.60 108.02 C 264.17 118.94 267.87 129.47 272.90 139.00 C 255.58 147.19 239.43 158.51 227.33 173.50 C 226.42 174.69 225.33 172.84 224.65 172.31 C 213.81 161.33 202.16 149.90 187.06 145.24 C 187.10 146.53 187.86 147.49 188.91 148.17 C 196.75 154.16 204.09 160.76 211.49 167.28 C 203.51 172.22 193.67 172.53 184.64 171.16 C 175.80 169.61 167.12 165.67 161.07 158.90 C 152.18 148.89 150.41 133.47 156.30 121.53 C 160.80 112.40 168.92 105.66 177.57 100.63 C 191.85 92.38 207.91 87.89 223.94 84.51 C 222.79 89.47 220.55 94.26 220.65 99.44 C 224.03 99.52 224.59 95.55 225.53 93.14 C 234.04 66.49 250.17 41.21 274.47 26.49 Z" />
<path fill="#ffffff" opacity="1.00" d=" M 369.59 168.54 C 378.08 164.69 387.96 163.50 396.97 166.19 C 407.27 169.15 415.73 176.37 422.61 184.35 C 435.93 199.19 442.21 219.36 442.60 239.06 L 442.62 240.62 C 450.64 236.63 460.33 235.09 468.86 238.40 C 475.65 240.90 481.09 246.43 483.85 253.08 C 488.30 264.09 489.17 276.41 486.82 288.02 C 483.79 303.36 476.10 317.38 466.79 329.78 C 456.44 343.55 443.90 355.53 430.30 366.05 C 430.28 363.70 430.26 361.35 430.17 359.01 C 427.73 359.70 427.88 362.94 426.77 364.84 C 421.73 379.11 410.08 390.65 395.86 395.77 C 379.72 402.01 361.42 399.99 345.82 393.10 C 341.06 391.49 336.64 388.81 331.75 387.68 L 331.38 389.12 C 333.13 391.68 335.74 393.47 338.20 395.30 C 312.34 393.13 286.42 390.38 261.16 384.21 C 243.23 379.83 225.47 372.01 212.51 358.52 C 202.16 347.88 196.46 332.75 197.86 317.92 C 198.81 309.88 202.98 302.35 209.07 297.05 C 216.68 290.41 226.87 286.98 236.94 287.22 C 244.46 287.11 251.86 288.48 259.27 289.55 C 258.94 288.85 258.60 288.15 258.25 287.46 C 247.84 267.66 242.33 244.17 247.78 222.07 C 250.91 208.87 259.07 196.67 270.98 189.89 C 283.16 182.81 298.61 180.99 311.81 186.32 C 327.27 192.43 339.84 204.74 347.78 219.19 C 347.86 211.32 347.20 203.29 349.43 195.63 C 352.39 184.55 358.98 173.68 369.59 168.54 M 384.06 183.80 C 375.30 186.34 368.97 194.30 366.93 202.99 C 364.28 214.08 366.38 225.65 369.26 236.48 C 372.58 248.12 377.51 259.50 385.17 268.97 C 389.64 267.32 393.64 264.66 397.91 262.58 C 410.15 256.02 423.01 250.65 435.14 243.87 C 436.27 241.62 434.09 241.36 432.44 241.37 C 432.17 230.74 429.93 220.07 425.31 210.46 C 421.26 201.89 415.83 193.58 407.83 188.22 C 400.97 183.66 392.12 181.27 384.06 183.80 M 294.15 203.09 C 286.54 203.03 279.60 207.13 274.15 212.13 C 266.11 219.77 262.68 231.09 262.67 241.95 C 262.69 256.40 267.32 270.48 274.05 283.15 C 272.85 283.71 271.66 284.28 270.47 284.86 C 270.81 285.53 271.48 286.86 271.81 287.52 C 286.10 285.25 300.47 283.36 314.93 282.79 C 322.46 282.65 329.99 282.59 337.52 282.63 C 338.36 275.83 338.49 268.96 338.10 262.12 C 337.01 247.19 333.96 231.55 324.58 219.45 C 317.36 210.18 306.34 202.54 294.15 203.09 M 436.93 279.66 C 431.80 281.15 426.48 280.43 421.25 280.30 C 422.10 283.59 425.70 284.58 428.65 285.08 C 427.46 288.45 425.24 291.30 423.13 294.14 C 413.07 306.85 398.36 315.16 383.10 320.06 C 363.12 326.39 341.71 326.45 321.07 323.97 C 313.72 322.92 306.26 321.94 299.33 319.18 C 300.56 316.84 301.75 314.35 301.33 311.62 C 298.93 311.55 297.98 314.11 296.45 315.48 C 291.91 320.56 285.21 322.86 278.64 323.80 C 278.44 324.12 278.03 324.77 277.83 325.10 C 283.19 326.15 288.77 325.74 293.98 324.11 C 296.70 323.03 299.50 324.29 302.15 324.96 C 313.68 328.52 324.92 332.99 335.88 338.03 C 344.44 341.91 351.95 347.74 360.58 351.49 C 369.76 355.71 380.81 356.35 390.12 352.21 C 399.20 347.58 404.47 338.20 408.39 329.19 C 414.17 314.67 421.84 300.86 431.37 288.45 C 434.66 283.36 441.38 282.47 445.00 277.68 C 442.14 277.31 439.67 279.22 436.93 279.66 M 382.52 284.06 C 383.29 286.32 384.32 288.71 383.35 291.10 C 381.66 294.78 377.83 296.95 374.01 297.81 C 366.88 299.62 359.25 297.99 353.15 294.00 C 353.90 298.90 358.97 301.45 363.21 302.89 C 368.86 304.44 375.25 304.33 380.58 301.70 C 384.04 299.75 387.19 296.15 386.86 291.94 C 386.94 288.72 385.03 285.90 382.52 284.06 M 382.98 364.65 C 373.07 366.81 363.22 363.27 354.20 359.49 C 361.25 368.46 374.04 371.05 384.79 368.80 C 394.26 366.94 403.11 360.15 405.51 350.52 C 399.63 357.33 392.08 363.18 382.98 364.65 Z" />
<path fill="#ffffff" opacity="1.00" d=" M 373.01 198.78 C 375.82 192.06 382.69 187.49 389.94 187.33 C 398.36 186.55 406.11 191.41 411.52 197.47 C 422.66 209.94 427.81 226.76 428.53 243.24 C 425.34 244.81 422.10 246.25 418.83 247.64 C 418.88 238.74 416.03 229.95 411.36 222.43 C 407.03 225.43 402.64 228.36 398.13 231.09 C 400.22 225.74 402.76 220.57 404.89 215.23 C 398.53 209.38 388.41 208.67 381.19 213.33 C 375.55 216.59 373.01 223.06 372.06 229.20 C 369.41 219.35 368.88 208.31 373.01 198.78 Z" />
<path fill="#ffffff" opacity="1.00" d=" M 288.82 208.96 C 295.12 207.31 302.05 208.00 307.79 211.14 C 318.14 216.65 325.28 226.92 328.87 237.90 C 333.09 250.93 334.14 264.82 333.38 278.45 C 328.44 278.55 323.50 278.60 318.56 278.64 C 320.19 267.93 319.50 256.45 313.96 246.90 C 308.79 249.66 304.00 253.04 299.04 256.14 C 301.10 249.83 303.97 243.80 306.56 237.69 C 300.87 233.32 293.31 230.55 286.17 232.57 C 276.47 235.13 269.67 244.72 268.87 254.49 C 266.02 244.61 266.88 233.60 271.46 224.36 C 275.03 217.33 281.02 211.07 288.82 208.96 Z" />
</g>
<g id="#e5173fff">
<path fill="#e5173f" opacity="1.00" d=" M 368.40 80.60 C 370.33 80.17 372.96 79.73 374.38 81.49 C 376.37 84.00 375.15 87.39 373.90 89.94 C 369.15 99.14 361.48 106.56 357.43 116.15 C 354.69 122.40 354.45 129.37 354.77 136.08 C 354.88 138.13 355.11 140.48 357.04 141.69 C 357.44 137.86 357.45 134.00 357.76 130.17 C 378.07 132.00 397.52 140.17 413.97 152.08 C 439.53 170.68 455.67 201.46 456.32 233.08 C 451.41 234.15 446.52 235.81 442.60 239.06 C 442.21 219.36 435.93 199.19 422.61 184.35 C 415.73 176.37 407.27 169.15 396.97 166.19 C 387.96 163.50 378.08 164.69 369.59 168.54 C 358.98 173.68 352.39 184.55 349.43 195.63 C 347.20 203.29 347.86 211.32 347.78 219.19 C 339.84 204.74 327.27 192.43 311.81 186.32 C 298.61 180.99 283.16 182.81 270.98 189.89 C 259.07 196.67 250.91 208.87 247.78 222.07 C 242.33 244.17 247.84 267.66 258.25 287.46 C 244.33 281.22 227.67 280.90 213.95 287.88 C 205.22 265.41 203.52 239.95 210.87 216.86 C 218.11 192.05 233.95 169.89 255.20 155.16 C 261.54 150.72 268.24 146.78 275.25 143.51 C 279.45 147.10 281.80 153.32 287.33 155.60 C 286.84 151.85 283.55 149.38 281.86 146.17 C 273.89 134.75 268.84 121.02 269.13 106.99 C 269.15 101.46 269.94 95.64 273.05 90.94 C 274.71 88.47 278.48 87.12 281.07 88.93 C 284.28 93.20 283.65 98.96 283.77 104.01 C 283.90 111.66 282.07 119.32 283.46 126.94 C 284.64 134.87 288.61 142.18 293.87 148.14 C 294.71 149.20 295.83 149.96 297.07 150.49 C 296.46 145.49 292.43 141.80 291.18 136.96 C 307.93 131.35 325.55 127.93 343.27 128.74 C 344.03 132.50 342.60 137.82 346.20 140.27 C 346.60 131.51 345.63 122.64 347.26 113.95 C 348.53 104.84 352.82 96.49 358.01 89.01 C 360.70 85.43 364.07 82.05 368.40 80.60 Z" />
<path fill="#e5173f" opacity="1.00" d=" M 380.72 333.18 C 383.85 331.21 387.30 329.49 391.08 329.38 C 394.86 329.07 398.43 330.59 401.86 332.00 C 398.12 341.41 389.39 349.28 379.06 350.20 C 368.43 351.00 358.08 346.38 349.77 340.06 C 359.93 333.45 374.32 331.90 384.59 339.12 C 383.47 337.03 382.04 335.14 380.72 333.18 Z" />
<path fill="#e5173f" opacity="1.00" d=" M 212.62 391.07 C 217.66 390.19 223.12 392.86 225.50 397.40 C 228.83 403.42 226.28 411.97 219.80 414.68 C 212.63 418.33 202.91 413.13 202.25 405.06 C 201.13 398.54 206.11 391.94 212.62 391.07 Z" />
<path fill="#e5173f" opacity="1.00" d=" M 43.94 400.93 C 47.57 397.13 53.92 396.65 58.19 399.63 C 61.23 401.67 62.74 405.41 62.70 409.00 C 62.74 423.98 62.74 438.97 62.76 453.96 C 63.11 462.18 62.72 470.97 57.93 478.01 C 50.14 490.29 33.33 493.76 20.12 489.40 C 10.47 486.36 2.51 478.27 0.00 468.43 L 0.00 464.47 C 0.91 457.65 9.05 454.34 14.93 457.16 C 19.86 459.50 21.20 465.47 25.40 468.64 C 29.40 471.61 35.95 471.13 38.89 466.89 C 40.85 464.34 40.84 461.00 40.84 457.94 C 40.76 442.29 40.88 426.64 40.75 410.99 C 40.67 407.43 41.30 403.54 43.94 400.93 Z" />
<path fill="#e5173f" opacity="1.00" d=" M 235.21 407.90 C 235.19 401.10 242.75 396.10 249.08 398.12 C 253.95 399.24 257.35 404.08 257.38 408.98 C 257.48 415.71 257.36 422.44 257.43 429.18 C 270.68 424.20 286.95 429.55 294.57 441.49 C 301.44 451.82 301.28 466.18 294.39 476.45 C 290.36 482.77 283.97 487.45 276.84 489.68 C 269.50 491.90 261.48 491.38 254.27 488.92 C 246.57 486.26 240.15 480.11 237.38 472.42 C 235.57 467.84 235.09 462.87 235.17 457.99 C 235.23 441.29 235.05 424.59 235.21 407.90 M 265.68 447.02 C 259.91 447.77 255.19 453.21 255.46 459.05 C 255.44 465.51 261.54 471.22 268.00 470.65 C 273.70 470.53 278.63 465.69 279.24 460.08 C 280.28 452.71 272.99 445.69 265.68 447.02 Z" />
<path fill="#e5173f" opacity="1.00" d=" M 180.45 403.66 C 184.03 402.83 188.06 403.66 190.68 406.33 C 193.37 408.75 194.20 412.52 194.17 416.02 C 194.12 436.70 194.20 457.38 194.13 478.07 C 194.31 483.47 190.41 488.90 184.87 489.54 C 178.56 490.75 172.22 485.37 172.39 478.96 C 172.35 457.33 172.36 435.70 172.39 414.07 C 172.32 409.30 175.78 404.74 180.45 403.66 Z" />
<path fill="#e5173f" opacity="1.00" d=" M 146.42 404.75 C 152.88 400.72 162.42 405.56 162.62 413.26 C 162.74 435.18 162.67 457.10 162.66 479.01 C 162.78 484.68 157.70 489.84 151.99 489.62 C 146.24 489.97 140.93 484.77 141.14 479.02 C 141.11 464.68 140.70 450.33 141.15 435.99 C 141.15 428.31 140.73 420.63 141.22 412.96 C 141.34 409.54 143.56 406.47 146.42 404.75 Z" />
<path fill="#e5173f" opacity="1.00" d=" M 438.57 423.77 C 443.86 422.99 448.47 429.07 446.07 433.95 C 444.20 438.67 437.32 439.89 434.01 436.01 C 430.01 431.95 432.75 424.12 438.57 423.77 M 438.09 425.01 C 435.06 425.78 432.69 428.80 433.36 432.01 C 433.87 436.97 440.97 439.06 444.01 435.01 C 448.01 430.97 443.44 423.52 438.09 425.01 Z" />
<path fill="#e5173f" opacity="1.00" d=" M 98.59 426.07 C 114.87 424.07 131.22 436.37 133.82 452.57 C 137.37 469.11 125.66 486.89 109.13 490.29 C 95.47 493.72 80.09 486.98 73.35 474.61 C 67.39 464.24 67.80 450.53 74.50 440.60 C 79.77 432.43 88.92 426.95 98.59 426.07 M 99.98 446.85 C 94.65 447.67 89.98 452.50 90.10 458.03 C 89.52 463.85 94.23 469.29 99.89 470.21 C 106.60 471.45 113.46 465.77 113.52 458.95 C 114.05 451.81 106.98 445.60 99.98 446.85 Z" />
<path fill="#e5173f" opacity="1.00" d=" M 312.15 436.18 C 321.18 425.62 337.61 422.99 349.80 429.38 C 357.67 433.40 363.22 441.39 364.61 450.08 C 365.17 453.63 365.92 457.53 364.27 460.91 C 362.62 464.30 358.52 465.37 355.05 465.51 C 345.11 465.71 335.15 465.36 325.21 465.69 C 329.49 473.75 340.19 473.91 347.83 471.39 C 351.45 470.20 355.98 469.15 359.26 471.71 C 362.43 474.26 362.37 479.25 360.28 482.47 C 357.69 486.37 353.14 488.27 348.87 489.68 C 337.18 492.86 323.53 490.97 314.46 482.48 C 301.67 470.86 300.83 449.08 312.15 436.18 M 324.91 451.56 C 332.01 451.62 339.12 451.62 346.22 451.56 C 345.51 448.03 343.43 444.61 339.91 443.35 C 333.78 440.55 325.44 444.54 324.91 451.56 Z" />
<path fill="#e5173f" opacity="1.00" d=" M 210.47 426.73 C 217.01 424.06 225.12 428.76 225.35 435.96 C 225.49 450.29 225.40 464.63 225.39 478.97 C 225.47 484.56 220.61 489.69 214.96 489.64 C 209.06 490.11 203.72 484.90 203.71 479.04 C 203.64 465.03 203.68 451.01 203.69 437.00 C 203.64 432.64 206.33 428.28 210.47 426.73 Z" />
<path fill="#e5173f" opacity="1.00" d=" M 386.39 429.38 C 396.23 424.33 408.81 424.79 418.05 430.99 C 427.11 436.91 431.70 448.36 430.51 458.95 C 429.77 463.39 424.95 465.45 420.88 465.49 C 410.91 465.69 400.94 465.44 390.97 465.61 C 392.45 469.41 396.29 471.65 400.13 472.41 C 405.09 473.22 410.21 472.62 414.93 470.93 C 418.39 469.92 422.95 469.39 425.57 472.44 C 428.46 475.66 427.56 480.77 424.83 483.81 C 421.79 487.12 417.43 488.83 413.19 490.01 C 402.16 492.61 389.52 490.85 380.84 483.17 C 370.93 474.79 367.40 460.27 371.24 448.03 C 373.53 440.12 379.04 433.15 386.39 429.38 M 390.34 451.57 C 397.50 451.61 404.67 451.62 411.84 451.57 C 411.01 446.42 406.34 442.20 401.03 442.51 C 395.77 442.30 391.03 446.38 390.34 451.57 Z" />
<path fill="#e5173f" opacity="1.00" d=" M 436.50 427.36 C 438.38 427.43 440.35 427.12 442.14 427.86 C 442.54 430.40 442.30 433.02 442.18 435.59 C 441.58 434.34 441.04 433.08 440.56 431.80 C 439.88 431.76 438.52 431.68 437.83 431.63 C 437.81 432.42 437.75 433.98 437.72 434.77 C 437.42 434.75 436.81 434.70 436.51 434.68 C 436.49 432.24 436.49 429.80 436.50 427.36 M 438.03 428.84 C 436.81 430.44 439.76 431.45 440.71 430.28 C 441.92 428.67 438.96 427.61 438.03 428.84 Z" />
</g>
<g id="#221e1fff">
<path fill="#221e1f" opacity="1.00" d=" M 382.98 364.65 C 392.08 363.18 399.63 357.33 405.51 350.52 C 403.11 360.15 394.26 366.94 384.79 368.80 C 374.04 371.05 361.25 368.46 354.20 359.49 C 363.22 363.27 373.07 366.81 382.98 364.65 Z" />
</g>
</svg>
