<?xml version="1.0" encoding="UTF-8" standalone="no"?>
<!-- Created with Inkscape (http://www.inkscape.org/) -->

<svg
   xmlns:dc="http://purl.org/dc/elements/1.1/"
   xmlns:cc="http://creativecommons.org/ns#"
   xmlns:rdf="http://www.w3.org/1999/02/22-rdf-syntax-ns#"
   xmlns:svg="http://www.w3.org/2000/svg"
   xmlns="http://www.w3.org/2000/svg"
   xmlns:sodipodi="http://sodipodi.sourceforge.net/DTD/sodipodi-0.dtd"
   xmlns:inkscape="http://www.inkscape.org/namespaces/inkscape"
   id="svg2"
   version="1.1"
   inkscape:version="0.47 r22583"
   width="413.5"
   height="159.87834"
   sodipodi:docname="JVC_logo.png">
  <metadata
     id="metadata8">
    <rdf:RDF>
      <cc:Work
         rdf:about="">
        <dc:format>image/svg+xml</dc:format>
        <dc:type
           rdf:resource="http://purl.org/dc/dcmitype/StillImage" />
        <dc:title></dc:title>
      </cc:Work>
    </rdf:RDF>
  </metadata>
  <defs
     id="defs6">
    <inkscape:perspective
       sodipodi:type="inkscape:persp3d"
       inkscape:vp_x="0 : 0.5 : 1"
       inkscape:vp_y="0 : 1000 : 0"
       inkscape:vp_z="1 : 0.5 : 1"
       inkscape:persp3d-origin="0.5 : 0.33333333 : 1"
       id="perspective10" />
  </defs>
  <sodipodi:namedview
     pagecolor="#ffffff"
     bordercolor="#666666"
     borderopacity="1"
     objecttolerance="10"
     gridtolerance="10"
     guidetolerance="10"
     inkscape:pageopacity="0"
     inkscape:pageshadow="2"
     inkscape:window-width="1280"
     inkscape:window-height="968"
     id="namedview4"
     showgrid="false"
     inkscape:zoom="1"
     inkscape:cx="272.55556"
     inkscape:cy="67.892642"
     inkscape:window-x="-4"
     inkscape:window-y="-4"
     inkscape:window-maximized="1"
     inkscape:current-layer="svg2" />
  <path
     style="fill:#ff0000;stroke:#ff0000"
     d="M 17.26404,158.57505 C 9.7354,156.22695 3.69233,149.85304 1.58844,142.04126 0.96842,139.73908 0.50879,128.38488 0.50558,115.29126 L 0.5,92.54126 l 19.5,0 19.5,0 0,15 0,15 22.99225,0 22.99226,0 0.25774,-60.75 0.25775,-60.75 19.5,0 19.5,0 0,69 c 0,74.3108 0.0709,73.22892 -5.2668,80.37081 -1.42643,1.90858 -4.95152,4.51133 -8.12624,6 L 106,159.04126 63,159.23481 c -23.65,0.10646 -44.23118,-0.19043 -45.73596,-0.65976 z m 168.53838,-0.2657 C 184.50246,156.61426 135.44361,4.52808 135.47525,2.29126 c 0.0228,-1.60865 1.67194,-1.75 20.41776,-1.75 18.48972,0 20.45806,0.16333 21.09002,1.75 0.38335,0.9625 6.30181,18.175 13.15214,38.25 17.65052,51.72514 19.10744,55.70228 19.7815,54 0.32667,-0.825 7.48102,-22.2 15.89856,-47.5 l 15.30461,-46 L 261.92173,0.77063 282.72363,0.5 c -3.22771,16.15698 -9.10876,31.857041 -14.13826,47.54126 -7.28498,22.55 -18.30229,56.75 -24.48291,76 l -11.23748,35 -23.04503,0.26809 c -17.69069,0.20581 -23.27098,-0.0265 -24.01753,-1 z m 120.44555,-0.16473 c -6.07153,-2.21544 -10.40257,-6.19946 -13.42036,-12.34505 L 290,140.04126 l 0,-59 c 0,-48.55624 0.25649,-59.88447 1.44901,-63.99663 1.97053,-6.79498 8.86533,-13.71558 15.2715,-15.32868 3.20084,-0.80598 17.71918,-1.17469 46.25443,-1.17469 46.24494,0 45.78598,-0.0586 52.75588,6.73305 6.26892,6.10856 7.22655,10.63517 7.24938,34.26695 l 0.0198,20.5 -19.22164,0.27149 -19.22164,0.2715 -0.27836,-13.7715 L 374,35.04126 351.75,34.77213 329.5,34.503 l 0,45.03826 0,45.03826 22.25,-0.26913 22.25,-0.26913 0.27836,-13.77149 0.27836,-13.7715 19.22164,0.2715 19.22164,0.27149 -0.003,21.5 c -0.002,11.825 -0.36153,23.19712 -0.79932,25.27138 -1.03464,4.90216 -6.0389,10.52593 -11.69733,13.14541 -4.31149,1.99594 -6.30132,2.09311 -47.5,2.31943 -34.36189,0.18877 -43.75373,-0.0388 -46.75203,-1.13286 l -3.5e-4,0 z"
     id="path2818"
     sodipodi:nodetypes="cscccccccccccccscccccssssscccccccccccccsssscccccccccccccccccssscc" />
</svg>
