<?xml version="1.0" encoding="UTF-8" standalone="no"?>
<svg
   xmlns:dc="http://purl.org/dc/elements/1.1/"
   xmlns:cc="http://creativecommons.org/ns#"
   xmlns:rdf="http://www.w3.org/1999/02/22-rdf-syntax-ns#"
   xmlns:svg="http://www.w3.org/2000/svg"
   xmlns="http://www.w3.org/2000/svg"
   xmlns:sodipodi="http://sodipodi.sourceforge.net/DTD/sodipodi-0.dtd"
   xmlns:inkscape="http://www.inkscape.org/namespaces/inkscape"
   version="1.1"
   id="Layer_1"
   x="0px"
   y="0px"
   width="602"
   height="314"
   viewBox="0 0 602 314"
   enable-background="new 0 0 612 792"
   xml:space="preserve">
<rect
   style="fill:#2a5caa"
   id="rect5"
   height="313.99347"
   width="602"
   y="0.00650744"
   x="4.3718528e-06" /><path
   style="fill:#2a5caa"
   id="path7"
   d="M 251.95731,156.85305" /><path
   d="M 302.96846,193.51461"
   id="path9"
   clip-path="none" /><polygon
   points="533.851,10.95 533.851,-55.617 312.434,-55.617 312.716,10.95 "
   id="polygon11"
   transform="matrix(2.2769651,0,0,2.2769651,-662.45558,243.40054)"
   style="fill:#ffffff"
   clip-path="none" /><rect
   x="47.987068"
   y="116.0088"
   width="506.02588"
   height="153.48111"
   id="rect13"
   clip-path="none" /><path
   d="m 86.142207,147.87734 h 8.424748 v 48.38775 l 38.826855,-48.38775 h 10.70169 l -33.24821,40.98766 33.24821,43.15076 h -10.47632 l -28.12281,-36.43371 -10.929415,13.43411 v 22.9996 h -8.424748 v -84.13842 z"
   id="path15"
   style="fill:#ffffff"
   clip-path="none" /><path
   d="m 203.39224,232.01576 h -8.08548 v -11.72629 c -4.78163,8.76847 -14.34716,13.20635 -24.13813,13.20635 -9.33787,0 -19.47031,-4.09856 -27.43969,-13.20635 -2.27697,-2.50473 -6.14781,-10.36022 -6.14781,-19.80964 0,-8.31099 4.21465,-16.84963 6.4916,-18.90115 9.44715,-10.13247 18.21799,-13.20636 26.86823,-13.20636 9.79319,0 19.698,4.3262 24.3658,13.20636 v -11.84017 h 8.08548 v 62.27725 z m -57.38408,-30.85509 c 0,13.66175 11.84023,24.25191 25.16274,24.25191 12.98097,0 24.1381,-11.15713 24.1381,-24.13814 0,-13.77793 -10.47402,-24.82118 -24.36578,-24.82118 -13.66407,0.004 -24.93506,10.93168 -24.93506,24.70741 z"
   id="path17"
   style="fill:#ffffff"
   clip-path="none" /><path
   d="m 223.06749,169.7362 v 10.70174 c 4.89546,-8.08324 15.82491,-12.06792 24.81891,-12.06792 9.11015,0 17.53264,3.52928 25.50203,12.06792 3.75698,3.41551 7.40241,11.61483 7.40241,20.72273 0,18.55722 -15.59949,32.33515 -33.70136,32.33515 -9.22401,0 -19.47035,-4.44008 -23.56888,-13.09258 v 33.47369 h -8.42474 v -84.13842 h 7.97163 z m 49.30086,31.31059 c 0,-13.55028 -10.93171,-24.59353 -24.47964,-24.59353 -13.6618,0 -24.9328,10.13246 -24.9328,23.90819 0,6.83082 1.70773,12.52321 6.6032,17.41879 4.6678,4.89547 11.04332,7.63004 17.76034,7.63004 13.88948,0.002 25.0489,-10.35791 25.0489,-24.36349 z"
   id="path19"
   style="fill:#ffffff"
   clip-path="none" /><path
   d="m 297.28518,169.7362 v 10.70174 c 4.8932,-8.08324 15.82263,-12.06792 24.81891,-12.06792 9.10785,0 17.53264,3.52928 25.50202,12.06792 3.75696,3.41551 7.40239,11.61483 7.40239,20.72273 0,18.55722 -15.60175,32.33515 -33.70364,32.33515 -9.22169,0 -19.46803,-4.44008 -23.56885,-13.09258 v 33.47369 h -8.42479 v -84.13842 h 7.97396 z m 49.29857,31.31059 c 0,-13.55028 -10.93172,-24.59353 -24.47966,-24.59353 -13.66177,0 -24.93506,10.13246 -24.93506,23.90819 0,6.83082 1.70773,12.52321 6.60323,17.41879 4.67006,4.89997 11.04328,7.63234 17.76258,7.63234 13.8895,0 25.04891,-10.36021 25.04891,-24.36579 z"
   id="path21"
   style="fill:#ffffff"
   clip-path="none" /><path
   d="m 391.08247,147.87734 h 9.33783 l 36.09218,84.13842 h -9.11015 l -12.18404,-28.2344 h -39.16603 l -12.17952,28.2344 h -9.10784 l 36.31757,-84.13842 z m 20.83878,48.27398 -16.171,-38.59691 -16.39419,38.59691 h 32.56519 z"
   id="path23"
   style="fill:#ffffff"
   clip-path="none" /><path
   d="m 442.08649,147.87734 h 8.42479 v 30.85519 c 3.64313,-6.83092 11.38482,-10.36021 18.89881,-10.36021 8.0855,0 15.94103,3.41541 21.29191,9.5633 5.35312,6.14778 6.49159,13.32023 6.49159,21.2919 v 32.78824 h -8.42248 v -32.79055 c 0,-5.46474 -0.45769,-10.36021 -3.6477,-14.91416 -3.64315,-5.12312 -9.79093,-7.85549 -16.05261,-7.85549 -5.80629,0 -11.84021,2.96001 -15.37178,7.62784 -3.18548,4.3262 -3.18548,9.90482 -3.18548,15.14181 v 32.79055 h -8.42477 v -84.13842 z"
   id="path25"
   style="fill:#ffffff"
   clip-path="none" /><path
   d="m 508.10256,147.87734 h 8.42472 v 84.13842 h -8.42472 v -84.13842 z"
   id="path27"
   style="fill:#ffffff"
   clip-path="none" />
</svg>