<?xml version="1.0" encoding="UTF-8" standalone="no"?>
<svg
   xmlns:dc="http://purl.org/dc/elements/1.1/"
   xmlns:cc="http://creativecommons.org/ns#"
   xmlns:rdf="http://www.w3.org/1999/02/22-rdf-syntax-ns#"
   xmlns:svg="http://www.w3.org/2000/svg"
   xmlns="http://www.w3.org/2000/svg"
   xmlns:sodipodi="http://sodipodi.sourceforge.net/DTD/sodipodi-0.dtd"
   xmlns:inkscape="http://www.inkscape.org/namespaces/inkscape"
   version="1.1"
   id="Layer_1"
   x="0px"
   y="0px"
   width="796"
   height="177"
   viewBox="0 0 796 177.00001"
   enable-background="new 0 0 782.362 1128.189"
   xml:space="preserve">
<path
   d="m 602.94852,112.23053 h -67.72728 l -12.9841,29.29803 H 494.67033 L 557.54284,1.2571e-5 h 23.3235 L 644.12194,141.52856 H 615.81107 L 602.94852,112.23053 M 592.52809,88.501857 569.24143,35.475156 545.74112,88.501857 h 46.78697 z"
   id="path3" /><path
   d="m 170.74923,32.896753 c 7.36318,0 24.35117,1.668595 36.75698,15.352548 0,-4.917383 0,-12.774145 0,-12.774145 h 25.20941 V 141.52856 h -25.20941 c 0,0 0,-7.98937 0,-12.97674 -12.6526,13.69132 -29.49694,15.37465 -36.75698,15.37465 -31.84696,0 -56.79854,-24.46167 -56.79854,-55.68982 0,-27.205836 21.24236,-55.339897 56.79854,-55.339897 m 36.75698,55.789276 c 0,-18.505567 -15.19048,-33.39032 -33.63711,-33.39032 -17.31951,0 -34.53956,11.492311 -34.53956,33.567125 0,19.087546 14.39118,32.848856 34.53956,32.848856 18.82602,0 33.63711,-14.42064 33.63711,-33.025661 z"
   id="path5" /><path
   d="m 370.26238,88.23665 c 0,31.23183 -24.94789,55.68982 -56.79854,55.68982 -7.26373,0 -24.11175,-1.68333 -36.75698,-15.37465 v 48.4482 H 251.49008 V 35.475156 h 25.21678 v 12.774145 c 12.4058,-13.683953 29.39011,-15.352548 36.75698,-15.352548 35.5525,0 56.79854,28.134061 56.79854,55.339897 m -59.91841,33.47504 c 20.14101,0 34.53587,-13.76131 34.53587,-32.848856 0,-22.074814 -17.22005,-33.567125 -34.53587,-33.567125 -18.45031,0 -33.63711,14.884753 -33.63711,33.39032 0,18.605021 14.81109,33.025661 33.63711,33.025661 z"
   id="path7" /><path
   d="m 500.44227,88.23665 c 0,31.23183 -24.94421,55.68982 -56.79854,55.68982 -7.26005,0 -24.10807,-1.68333 -36.75698,-15.37465 v 48.4482 H 381.67734 V 35.475156 h 25.20941 v 12.774145 c 12.4058,-13.683953 29.39011,-15.352548 36.75698,-15.352548 35.55986,0 56.79854,28.134061 56.79854,55.339897 m -59.91473,33.47504 c 20.1447,0 34.53956,-13.76131 34.53956,-32.848856 0,-22.074814 -17.22005,-33.567125 -34.53956,-33.567125 -18.44663,0 -33.63711,14.884753 -33.63711,33.39032 0,18.605021 14.80741,33.025661 33.63711,33.025661 z"
   id="path9" /><path
   d="M 677.42017,141.53224 V 82.858838 c 0,-10.052089 2.73679,-17.61786 7.3816,-21.953261 6.44601,-6.018729 14.85529,-6.538093 17.33055,-6.538093 17.57366,0 24.89633,13.241941 24.89633,28.491354 v 58.673402 h 25.94242 V 83.459237 c 0,-15.993466 -4.61166,-28.940733 -13.33772,-37.460513 -9.06124,-9.053878 -19.46694,-13.101971 -33.73287,-13.101971 -12.69311,0 -22.31793,5.038936 -28.47663,11.009781 V 1.2570998e-5 H 652.19234 V 141.52856"
   id="path11" /><polyline
   points="551.823,1066.811 531.446,1047.1 551.408,1028.388 541.928,1028.388 524.267,1045.099 524.267,1028.388   516.804,1028.388 516.804,1066.811 524.267,1066.811 524.267,1049.281 542.047,1066.811 "
   id="polyline13"
   transform="matrix(3.683433,0,0,3.683433,-1903.6129,-3787.9946)" /><rect
   x="770.65521"
   y="0.0034729836"
   width="25.227833"
   height="141.52855"
   id="rect15" />
</svg>