<?xml version="1.0" encoding="UTF-8" standalone="no"?>
<svg
   xmlns:dc="http://purl.org/dc/elements/1.1/"
   xmlns:cc="http://creativecommons.org/ns#"
   xmlns:rdf="http://www.w3.org/1999/02/22-rdf-syntax-ns#"
   xmlns:svg="http://www.w3.org/2000/svg"
   xmlns="http://www.w3.org/2000/svg"
   xmlns:sodipodi="http://sodipodi.sourceforge.net/DTD/sodipodi-0.dtd"
   xmlns:inkscape="http://www.inkscape.org/namespaces/inkscape"
   version="1.1"
   id="Layer_1"
   x="0px"
   y="0px"
   width="800"
   height="280"
   viewBox="0 0 800.00003 280"
   enable-background="new 0 0 609.449 793.701"
   xml:space="preserve">
<path
   style="fill:#595750"
   inkscape:connector-curvature="0"
   id="path5"
   d="m 249.02314,259.78913 c 2.31776,1.50365 5.64664,2.26271 7.3444,2.26271 2.6973,0 6.02618,-1.1328 6.02618,-4.58337 0,-5.83496 -13.8747,-5.33085 -13.8747,-14.30638 0,-6.65487 4.95712,-9.85338 11.29619,-9.85338 2.76103,0 5.02085,0.56206 7.34441,1.25159 l -0.50412,5.14833 c -1.31822,-0.81991 -4.82963,-1.63113 -6.2087,-1.63113 -3.01598,0 -5.65244,1.25159 -5.65244,3.88805 0,6.53029 13.8718,4.64711 13.8718,14.87712 0,6.8403 -5.46412,9.97797 -11.1745,9.97797 -3.0102,0 -6.08413,-0.3129 -8.78721,-1.75861 l 0.31869,-5.2729 z" /><path
   style="fill:#595750"
   inkscape:connector-curvature="0"
   id="path7"
   d="m 298.35668,246.98929 c 0,-4.89916 -2.88561,-8.91468 -7.9731,-8.91468 -5.77122,0 -8.15272,4.76879 -8.5902,8.91468 h 16.5633 z m 3.8301,17.75985 c -2.25982,0.81701 -4.83253,2.0686 -10.10544,2.0686 -11.35992,0 -16.56909,-6.90403 -16.56909,-17.32526 0,-9.47096 5.96534,-16.18377 15.00171,-16.18377 10.66749,0 14.12095,7.77609 14.12095,18.06984 h -22.84153 c 0,6.33908 4.95421,10.6704 10.54292,10.6704 3.89094,0 8.40188,-2.00777 9.85048,-3.20431 v 5.9045 z" /><path
   style="fill:#595750"
   inkscape:connector-curvature="0"
   id="path9"
   d="m 332.47122,250.8136 c -1.25159,0 -2.50608,-0.12458 -3.76056,-0.12458 -3.20431,0 -11.11077,0.50121 -11.11077,6.15076 0,3.38683 3.26515,5.20917 5.96244,5.20917 5.84076,0 8.90889,-3.64179 8.90889,-8.41058 V 250.8136 z M 314.96344,236.316 c 2.94935,-1.7557 6.46365,-3.00729 10.54291,-3.00729 9.16675,0 12.86647,4.51384 12.86647,13.24021 v 13.24021 c 0,3.63888 0.12458,5.33664 0.25496,6.27534 h -5.52786 v -4.143 h -0.12458 c -1.37907,1.94692 -4.51674,4.89627 -9.91712,4.89627 -6.90693,0 -11.73657,-3.01309 -11.73657,-9.97796 0,-8.03104 8.78722,-10.54582 14.87713,-10.54582 2.32356,0 3.95468,0 6.27244,0.12748 0,-5.52206 -2.00486,-8.34683 -7.90646,-8.34683 -3.32309,0 -6.90403,1.25448 -9.28843,3.26224 l -0.31289,-5.02085 z" /><path
   style="fill:#595750"
   inkscape:connector-curvature="0"
   id="path11"
   d="m 348.71004,259.78913 c 2.32355,1.50365 5.64664,2.26271 7.3444,2.26271 2.6973,0 6.02618,-1.1328 6.02618,-4.58337 0,-5.83496 -13.8747,-5.33085 -13.8747,-14.30638 0,-6.65487 4.95711,-9.85338 11.30198,-9.85338 2.76104,0 5.02085,0.56206 7.33862,1.25159 l -0.49832,5.14833 c -1.32402,-0.81991 -4.83543,-1.63113 -6.2145,-1.63113 -3.01599,0 -5.65244,1.25159 -5.65244,3.88805 0,6.53029 13.8718,4.64711 13.8718,14.87712 0,6.8403 -5.46412,9.97797 -11.16871,9.97797 -3.01019,0 -6.08992,-0.3129 -8.78721,-1.75861 l 0.3129,-5.2729 z" /><path
   style="fill:#595750"
   inkscape:connector-curvature="0"
   id="path13"
   d="m 390.94833,262.04895 c 6.90114,0 9.98086,-6.27245 9.98086,-11.98862 0,-6.08992 -3.70552,-11.98572 -9.98086,-11.98572 -6.33907,0 -10.0417,5.8958 -10.0417,11.98572 0,5.71617 3.07683,11.98862 10.0417,11.98862 m 0,-28.74024 c 9.72591,0 16.2562,7.02571 16.2562,16.75162 0,9.16384 -6.65198,16.75741 -16.2562,16.75741 -9.66796,0 -16.31993,-7.59357 -16.31993,-16.75741 0,-9.72591 6.52739,-16.75162 16.31993,-16.75162" /><path
   style="fill:#595750"
   inkscape:connector-curvature="0"
   id="path15"
   d="m 415.10809,234.05908 h 5.71328 v 5.0817 h 0.12169 c 1.7586,-3.63889 6.02617,-5.82917 10.47917,-5.82917 8.2889,0 11.99152,5.13963 11.99152,13.73852 v 19.01723 h -5.9016 v -16.57199 c 0,-7.46609 -1.63112,-11.10497 -6.77655,-11.41787 -6.71572,0 -9.72591,5.39749 -9.72591,13.17937 v 14.81049 h -5.9016 v -32.00828 z" /><path
   style="fill:#595750"
   inkscape:connector-curvature="0"
   d="m 454.20582,234.05619 h 5.9016 v 32.00828 h -5.9016 v -32.00828 z m 6.28114,-7.15319 h -6.65198 v -6.65487 h 6.65198 v 6.65487 z"
   id="path17" /><path
   style="fill:#595750"
   inkscape:connector-curvature="0"
   id="path21"
   d="m 470.8995,234.05908 h 5.71617 v 5.0817 h 0.12458 c 1.74991,-3.63889 6.02618,-5.82917 10.47918,-5.82917 8.2802,0 11.98572,5.13963 11.98572,13.73852 v 19.01723 h -5.9016 v -16.57199 c 0,-7.46609 -1.62533,-11.10497 -6.77655,-11.41787 -6.70992,0 -9.7259,5.39749 -9.7259,13.17937 v 14.81049 h -5.89871 v -32.00828 z" /><path
   style="fill:#595750"
   inkscape:connector-curvature="0"
   id="path23"
   d="m 532.91119,250.43986 c 0,-6.65197 -3.07683,-12.36236 -9.35506,-12.36236 -5.95954,0 -8.9031,6.46366 -8.9031,11.92199 0,6.02328 3.38972,11.29329 8.9031,11.29329 5.52786,-0.003 9.35506,-4.89338 9.35506,-10.85292 m 5.9016,14.24554 c 0,9.7259 -5.02664,15.3146 -16.50825,15.3146 -3.38973,0 -6.33908,-0.44037 -11.48451,-2.19607 l 0.6258,-5.46123 c 4.51963,2.0686 7.21982,2.88851 11.54824,2.88851 6.2116,0 9.91712,-4.20674 9.91712,-10.98329 v -3.14057 h -0.12458 c -2.51187,3.32889 -6.66066,4.96001 -10.73123,4.96001 -9.16385,0 -13.68638,-7.46608 -13.68638,-15.75498 0,-8.22225 4.64421,-17.00367 14.30928,-17.00367 5.64664,0 8.78721,2.0686 10.54291,5.51917 h 0.12458 v -4.7688 h 5.46702 v 30.62632 z" /><path
   style="fill:#595750"
   inkscape:connector-curvature="0"
   id="path25"
   d="m 565.16573,274.7242 c 0.75038,0.25206 1.75281,0.50411 2.75814,0.50411 5.2758,0 7.02861,-7.28066 7.02861,-7.90646 0,-0.69243 -0.74748,-2.32355 -1.12701,-3.38972 l -10.86161,-29.87594 h 6.46945 l 8.596,26.48621 h 0.12458 l 8.793,-26.48621 h 5.95954 l -11.8003,32.7036 c -2.19608,6.14207 -4.51963,13.23732 -12.29862,13.23732 -1.88607,0 -2.95804,-0.25206 -4.02421,-0.44038 l 0.38243,-4.83253 z" /><path
   style="fill:#595750"
   inkscape:connector-curvature="0"
   id="path27"
   d="m 611.74983,262.04895 c 6.90693,0 9.97796,-6.27245 9.97796,-11.98862 0,-6.08992 -3.69972,-11.98572 -9.97796,-11.98572 -6.33618,0 -10.0417,5.8958 -10.0417,11.98572 0,5.71617 3.07973,11.98862 10.0417,11.98862 m 0,-28.74024 c 9.7288,0 16.2533,7.02571 16.2533,16.75162 0,9.16384 -6.64908,16.75741 -16.2533,16.75741 -9.66217,0 -16.31414,-7.59357 -16.31414,-16.75741 0,-9.72591 6.52739,-16.75162 16.31414,-16.75162" /><path
   style="fill:#595750"
   inkscape:connector-curvature="0"
   id="path29"
   d="m 662.04814,266.06447 h -5.71038 v -5.08459 h -0.12458 c -1.7586,3.63888 -6.02618,5.83786 -10.47918,5.83786 -8.286,0 -11.99152,-5.14253 -11.99152,-13.74143 v -19.02012 h 5.89871 v 16.56909 c 0,7.46899 1.63112,11.10787 6.77945,11.42367 6.71281,0 9.723,-5.39749 9.723,-13.17937 v -14.81339 h 5.9016 v 32.00828 z" /><path
   style="fill:#595750"
   inkscape:connector-curvature="0"
   id="path31"
   d="m 672.09563,234.05908 h 5.51628 v 4.95422 h 0.13037 c 1.56739,-3.32599 4.95711,-5.70169 8.34394,-5.70169 1.7586,0 2.63645,0.18252 3.89094,0.43168 v 5.27001 c -1.06327,-0.43458 -2.25402,-0.56206 -3.26515,-0.56206 -5.26711,0 -8.72057,5.02375 -8.72057,13.05479 v 14.56133 h -5.89581 v -32.00828 z" /><rect
   style="fill:#595750"
   x="715.95923"
   y="218.99652"
   width="5.9015985"
   height="47.067932"
   id="rect33" /><path
   style="fill:#595750"
   inkscape:connector-curvature="0"
   d="m 733.40621,234.05619 h 5.90159 v 32.00828 h -5.90159 v -32.00828 z m 6.28113,-7.15319 h -6.65777 v -6.65487 h 6.65777 v 6.65487 z"
   id="path35" /><path
   style="fill:#595750"
   inkscape:connector-curvature="0"
   id="path39"
   d="m 753.92708,238.82788 h -7.52982 v -4.7688 h 7.52982 v -2.94935 c 0,-7.78188 2.01066,-12.86647 10.73703,-12.86647 1.50365,0 2.76103,0.18832 3.95178,0.37374 l -0.25205,4.77169 c -0.68954,-0.25495 -1.82234,-0.37953 -2.82767,-0.37953 -5.0788,0 -5.71039,3.27094 -5.71039,7.59936 v 3.45056 h 8.47432 v 4.7688 h -8.47432 v 27.23948 h -5.9016 v -27.23948 z" /><path
   style="fill:#595750"
   inkscape:connector-curvature="0"
   id="path41"
   d="m 793.63033,246.98929 c 0,-4.89916 -2.88562,-8.91468 -7.9731,-8.91468 -5.77123,0 -8.14983,4.76879 -8.596,8.91468 h 16.5691 z m 3.8301,17.75985 c -2.26272,0.81701 -4.83543,2.0686 -10.11123,2.0686 -11.35993,0 -16.5691,-6.90403 -16.5691,-17.32526 0,-9.47096 5.96824,-16.18377 15.00171,-16.18377 10.67619,0 14.12096,7.77609 14.12096,18.06984 h -22.84154 c 0,6.33908 4.95422,10.6704 10.54292,10.6704 3.89963,0 8.40768,-2.00777 9.85628,-3.20431 v 5.9045 z" /><path
   style="fill:#f08300"
   inkscape:connector-curvature="0"
   id="path43"
   d="m 580.51221,175.10394 c 0,-9.40142 11.60039,-14.57292 18.2147,-16.17797 -0.0319,0.13037 0,6.58244 0,13.17936 0,2.72337 0.29262,5.78861 1.26898,8.72058 -7.12712,3.38972 -19.48368,2.95225 -19.48368,-5.72197 m 146.90838,16.15769 c -1.9672,-2.30038 -5.73646,-7.46609 -5.73646,-18.88396 v -24.1192 c 0,-10.29376 -2.43075,-32.0865 -38.07792,-32.0865 -35.65875,0 -38.03156,21.79274 -38.03156,31.73015 l -0.0174,27.70593 c 0,11.2788 -18.60003,11.2788 -18.60003,0 v -27.70593 c 0,-10.13441 0.70112,-31.73015 -35.511,-31.73015 -20.93807,0 -29.3892,10.31403 -26.36453,24.07864 5.0788,-3.55197 15.4276,-7.19665 23.30799,-7.19665 4.03,0 10.33431,0.93869 10.33431,5.94795 0,4.44141 -4.28206,6.56506 -10.18076,8.31497 -12.92152,3.84169 -33.52641,9.25656 -33.52641,26.81649 0,17.56863 20.69181,25.70687 43.79988,16.58358 2.35543,-0.94159 4.07057,-1.95561 5.34244,-2.98701 3.17244,3.1058 8.04843,5.21786 15.52321,5.21786 6.21739,0 56.04925,-0.029 56.04925,-0.029 -1.2429,-1.8658 -2.20477,-8.55834 -2.20477,-17.6034 v -27.31771 c 0,-3.54907 0.0985,-14.24843 10.14021,-14.24843 10.05618,0 10.05618,10.69936 10.05618,14.24843 v 29.91071 c 0,11.47871 7.70076,16.6647 16.82984,16.6647 4.01263,0 10.30245,-0.084 16.47928,-1.20234 1.89188,-0.46065 1.70645,-0.55047 0.38823,-2.10916 M 378.52513,179.23245 c -13.08665,0 -15.01619,-14.45414 -15.01619,-24.31042 0,-10.45889 2.13524,-24.26985 15.01619,-24.26985 12.13638,0 14.56134,13.84572 14.56134,24.18873 0.003,9.82151 -2.20767,24.39154 -14.56134,24.39154 m -0.39112,-64.82488 c -22.03032,0 -42.93362,16.52274 -42.93362,40.51446 0,23.87584 20.91779,40.49129 43.10745,40.49129 21.83621,0 43.20886,-16.0447 43.20886,-40.49129 0,-25.22593 -22.50835,-40.51446 -43.38269,-40.51446 m -247.95117,7.37917 h -28.06519 v 51.71794 c 0,9.99245 -1.50654,18.03218 -1.73832,19.41415 h 31.51576 c -0.2115,-1.3472 -1.71225,-9.4217 -1.71225,-19.41415 V 121.78674 z M 116.15749,111.1656 c 8.0774,0 14.63666,-6.54767 14.63666,-14.651143 0,-8.091883 -6.55926,-14.639557 -14.63666,-14.639557 -8.08609,0 -14.63956,6.547674 -14.63956,14.639557 0,8.103473 6.55347,14.651143 14.63956,14.651143 M 70.885824,168.19991 C 63.173475,157.7555 55.924677,146.37819 55.924677,146.37819 l 35.302397,-34.2623 c -5.959543,-0.45776 -15.001708,-1.92085 -23.070413,-0.37954 -8.517772,1.65141 -13.697968,5.94506 -22.021627,14.97564 -8.323659,9.03057 -16.3547,17.81489 -16.3547,17.81489 V 82.318171 H 1.7180428 v 91.186509 c 0,9.99245 -1.49495581,18.03218 -1.7180403071999,19.41415 H 31.521552 c -0.19701,-1.38197 -1.741218,-9.4217 -1.741218,-19.41415 v -18.51891 l 18.382741,26.32687 c 5.727767,8.36422 13.474883,12.85198 22.708263,13.01423 9.239175,0.16224 14.477315,-0.58524 22.085365,-1.35879 v -0.5215 C 87.324544,188.7005 78.589482,178.63273 70.885824,168.19991 m 473.338936,4.11113 v -25.35052 c 0,-21.47985 -12.09002,-30.75379 -29.22407,-30.75379 -17.13404,0 -23.42387,6.37095 -27.14098,10.10544 -3.75767,-3.74898 -9.98665,-10.10544 -27.14967,-10.10544 -17.17461,0 -29.25594,9.27394 -29.25594,30.75379 v 26.77304 c 0,9.98955 -1.50944,18.03218 -1.71804,19.18527 h 29.69631 v -43.24942 c 0,-9.30581 0,-15.93751 7.42553,-15.93751 7.39656,0 7.39656,6.6317 7.39656,15.93751 v 43.24942 h 27.17285 v -43.21755 c 0,-9.33768 0,-15.96938 7.43421,-15.96938 7.39076,0 7.39076,6.6317 7.39076,15.96938 v 28.20715 c 0,11.47871 7.73263,16.6647 16.96891,16.6647 4.17487,0 10.43282,0 16.34601,-1.20234 1.81944,-0.37084 1.81944,-0.69533 0.42299,-2.10916 -2.04252,-2.00776 -5.76543,-7.09814 -5.76543,-18.95059" /><path
   style="fill:#f08300"
   inkscape:connector-curvature="0"
   id="path45"
   d="M 219.18776,168.19991 C 211.4812,157.7555 204.2382,146.37819 204.2382,146.37819 l 35.29081,-34.25941 c -5.94796,-0.46065 -14.97853,-1.92374 -23.05013,-0.38243 -8.51778,1.65141 -13.72405,5.94796 -22.02742,14.97853 -8.33815,9.02768 -16.3634,17.812 -16.3634,17.812 V 82.321069 h -28.05649 v 91.186511 c 0,9.98955 -1.49206,18.03218 -1.72384,19.41414 h 31.52445 c -0.20281,-1.38196 -1.74412,-9.42459 -1.74412,-19.41414 v -18.51891 l 18.36826,26.32397 c 5.74515,8.36422 13.48647,12.85198 22.73144,13.01423 9.23048,0.16224 14.47152,-0.58234 22.07957,-1.35879 v -0.5215 c -5.61188,-3.74318 -14.36143,-13.81095 -22.07957,-24.24667" /><path
   style="fill:#f08300"
   inkscape:connector-curvature="0"
   id="path47"
   d="m 346.56611,196.61276 c -11.44395,-6.003 -21.89705,-18.98536 -28.65622,-28.33173 -1.57318,-2.19318 -15.14077,-21.90284 -15.14077,-21.90284 l 35.25894,-34.2623 c -5.93347,-0.45776 -14.97853,-1.92085 -23.05303,-0.37954 -8.50039,1.65141 -13.68928,5.94506 -22.01294,14.97564 -7.68338,8.32655 -15.09152,16.42423 -16.19535,17.63816 V 82.318171 h -0.16225 -27.98696 v 91.186509 c 0,9.99245 -1.41094,18.03508 -1.64851,19.41415 h 31.53314 c -0.19991,-1.37907 -1.73542,-9.4217 -1.73542,-19.41415 v -18.51891 c 0,0 8.54964,11.8003 19.3562,27.28584 13.39086,19.22004 24.78555,17.30788 49.93905,16.07657 2.23375,-0.46934 1.68328,-1.19944 0.50412,-1.73542" /><path
   style="fill:#f08300"
   inkscape:connector-curvature="0"
   id="path49"
   d="m 752.30755,52.636345 v -2.083088 h 3.74318 l 0.69823,-1.483367 h -4.44141 v -2.033835 h 9.78674 l -2.52925,5.60029 h -7.25749 z m -5.45254,-9.024782 h -6.98805 v -4.160381 h 6.98805 6.99095 v 4.160381 h -6.99095 z m -5.44963,5.458327 h -4.44141 l 0.70981,1.483367 h 3.7316 v 2.083088 h -7.2517 l -2.52925,-5.60029 h 9.78095 v 2.033835 z m 28.69388,18.692743 c -1.48337,4.928139 -5.06431,2.474209 -5.06431,-0.312898 0,-3.760567 1.27187,-4.841223 1.27187,-4.841223 l -2.59299,-3.021781 h -11.36862 v -3.485333 h 9.08852 l 4.09664,-9.062446 -1.90346,-3.427389 H 758.467 V 39.40193 h 7.25749 l 1.30663,-3.137669 h 3.03917 v -0.399814 h -11.62937 v -1.581871 l -2.32066,-1.364582 -2.23374,1.364582 v 1.613741 H 739.8264 v -1.613741 l -2.23084,-1.364582 -2.32935,1.364582 v 1.581871 h -11.62937 v 0.399814 h 3.03917 l 1.30084,3.137669 h 7.26328 v 4.209633 h -5.15412 l -1.90925,3.427389 4.09664,9.062446 h 9.09721 v 3.485333 H 729.9991 l -2.5959,3.021781 c 0,0 1.27188,1.080656 1.27188,4.841223 0,2.787107 -3.58384,5.241037 -5.06431,0.312898 0,0 -0.90683,8.555435 4.46459,8.555435 3.56066,0 5.26131,-5.183093 4.05028,-12.727405 h 9.23918 V 69.1417 h -3.11739 v -2.862434 l -1.31243,-0.932899 -1.41094,0.967665 v 6.425992 l 2.903,2.978323 c 0,0 3.02467,-2.833463 8.41926,-2.839257 5.39749,0.0058 8.42796,2.839257 8.42796,2.839257 l 2.8972,-2.978323 v -6.425992 l -1.40514,-0.967665 -1.31243,0.932899 V 69.1417 h -3.11449 v -5.551037 h 9.23338 c -1.19365,7.544312 0.49252,12.727405 4.05897,12.727405 5.37721,0 4.46749,-8.555435 4.46749,-8.555435" /><path
   style="fill:#f08300"
   inkscape:connector-curvature="0"
   id="path51"
   d="m 746.85212,23.922184 c 0.70402,0.338973 30.93631,15.085727 31.82575,15.520307 V 71.479742 C 777.79133,71.920116 747.56773,86.875469 746.85212,87.231825 746.1452,86.875469 715.93319,71.920116 715.04664,71.479742 V 39.442491 c 0.88944,-0.43458 31.10435,-15.181334 31.80548,-15.520307 m -33.46268,14.480212 v 34.105852 l 33.46557,16.580683 33.49165,-16.580683 V 38.402396 L 746.85501,22.07377 713.38944,38.402396 z" /><path
   style="fill:#f08300"
   inkscape:connector-curvature="0"
   d="M 783.7248,74.544981 746.87529,92.611927 709.96785,74.608719 V 36.377252 L 746.84632,18.385633 783.7248,36.304822 V 74.544981 z M 799.98099,25.987889 746.89268,-6.2488e-6 693.70586,25.987889 V 84.595372 L 746.85791,111.1656 799.98389,84.595372 V 25.987889 z"
   id="path53" />
</svg>