<?xml version="1.0" encoding="UTF-8" standalone="no"?>
<svg
   xmlns:dc="http://purl.org/dc/elements/1.1/"
   xmlns:cc="http://creativecommons.org/ns#"
   xmlns:rdf="http://www.w3.org/1999/02/22-rdf-syntax-ns#"
   xmlns:svg="http://www.w3.org/2000/svg"
   xmlns="http://www.w3.org/2000/svg"
   xmlns:xlink="http://www.w3.org/1999/xlink"
   xmlns:sodipodi="http://sodipodi.sourceforge.net/DTD/sodipodi-0.dtd"
   xmlns:inkscape="http://www.inkscape.org/namespaces/inkscape"
   version="1.1"
   id="Layer_1"
   x="0px"
   y="0px"
   width="752"
   height="170"
   viewBox="0 0 752 170"
   enable-background="new 0 0 595 842"
   xml:space="preserve">
			<polyline
   style="fill:#de0029"
   id="polyline27"
   points="147.963,148.139 147.963,150.197 150.02,148.139 152.496,148.139      149.954,150.928 152.814,155.039 149.964,155.039 148.506,152.395 147.963,152.965 147.963,155.039 145.838,155.048      145.825,148.139 147.963,148.139    "
   clip-path="none"
   transform="matrix(10.387888,0,0,10.387888,-1299.6079,-1492.7685)" /><polyline
   style="fill:#de0029"
   id="polyline29"
   points="191.045,155.039 188.729,155.04 188.173,154.082 186.462,154.089      186.058,155.039 183.714,155.039 186.385,148.172 188.387,148.16 191.045,155.039    "
   clip-path="none"
   transform="matrix(10.387888,0,0,10.387888,-1299.6079,-1492.7685)" /><polyline
   style="fill:#de0029"
   id="polyline31"
   points="191.275,148.139 193.408,148.139 195.419,151.303 195.419,148.139      197.5,148.139 197.5,155.039 195.419,155.039 193.558,152.109 193.567,155.048 191.275,155.039 191.275,148.139    "
   clip-path="none"
   transform="matrix(10.387888,0,0,10.387888,-1299.6079,-1492.7685)" /><polyline
   style="fill:#ffffff"
   id="polyline33"
   points="187.9,152.545 186.883,152.508 187.427,151.213 187.9,152.545         "
   clip-path="none"
   transform="matrix(10.387888,0,0,10.387888,-1299.6079,-1492.7685)" /><rect
   style="fill:#de0029"
   id="rect35"
   height="71.67643"
   width="21.814564"
   clip-path="none"
   y="46.08292"
   x="290.52847" /><polyline
   style="fill:#de0029"
   id="polyline37"
   points="158.006,148.148 158.006,150.206 160.063,148.148 162.539,148.148      159.997,150.937 162.857,155.048 160.007,155.048 158.549,152.404 158.006,152.973 158.006,155.048 155.881,155.057      155.868,148.148 158.006,148.148    "
   clip-path="none"
   transform="matrix(10.387888,0,0,10.387888,-1299.6079,-1492.7685)" /><polyline
   style="fill:#de0029"
   id="polyline39"
   points="165.079,148.148 165.079,150.206 167.137,148.148 169.612,148.148      167.07,150.937 169.93,155.048 167.08,155.048 165.623,152.404 165.08,152.973 165.079,155.048 162.955,155.057 162.941,148.148      165.079,148.148    "
   clip-path="none"
   transform="matrix(10.387888,0,0,10.387888,-1299.6079,-1492.7685)" /><path
   style="fill:#de0029"
   inkscape:connector-curvature="0"
   id="path41"
   d="m 491.38865,118.96426 c 20.2356,0 36.63808,-16.43364 36.63808,-36.710794 0,-20.266769 -16.40248,-36.700408 -36.63808,-36.700408 -20.22522,0 -36.6277,16.433639 -36.6277,36.700408 0,20.277154 16.40248,36.710794 36.6277,36.710794 M 476.79366,82.253466 c 0,-10.979997 6.54437,-19.892805 14.59499,-19.892805 8.07138,0 14.60537,8.912808 14.60537,19.892805 0,11.000774 -6.53399,19.903194 -14.60537,19.903194 -8.05062,0 -14.59499,-8.90242 -14.59499,-19.903194 z"
   clip-path="none" /><polyline
   style="fill:#de0029"
   id="polyline43"
   points="178.3,155.039 176.332,155.039 176.332,148.139 179.181,148.139      179.969,151.213 180.756,148.139 183.494,148.139 183.494,155.039 181.656,155.039 181.656,152.508 180.756,155.039      179.181,155.039 178.3,152.508 178.3,155.039    "
   clip-path="none"
   transform="matrix(10.387888,0,0,10.387888,-1299.6079,-1492.7685)" /><polyline
   style="fill:#de0029"
   id="polyline45"
   points="140.703,147.541 140.682,156.166 132.898,160.068 125.108,156.137      125.129,147.519 132.941,143.703 140.703,147.541    "
   clip-path="none"
   transform="matrix(10.387888,0,0,10.387888,-1299.6079,-1492.7685)" /><polyline
   style="fill:#ffffff"
   id="polyline47"
   points="138.25,149.062 138.25,154.678 132.934,157.318 127.522,154.678      127.522,149.062 132.934,146.422 138.25,149.062    "
   clip-path="none"
   transform="matrix(10.387888,0,0,10.387888,-1299.6079,-1492.7685)" /><polygon
   style="fill:#ffffff"
   id="polygon49"
   points="132.934,156.598 128.17,154.271 128.17,149.447 132.934,147.166 137.65,149.447 137.65,154.271 "
   clip-path="none"
   transform="matrix(10.387888,0,0,10.387888,-1299.6079,-1492.7685)" /><polygon
   style="fill:none;stroke:#de0029;stroke-width:0.14399999"
   id="polygon51"
   points="132.934,156.598 128.17,154.271 128.17,149.447 132.934,147.166 137.65,149.447 137.65,154.271 "
   clip-path="none"
   transform="matrix(10.387888,0,0,10.387888,-1299.6079,-1492.7685)" /><path
   style="fill:#de0029"
   inkscape:connector-curvature="0"
   id="path53"
   d="m 118.01679,54.767115 0.15582,0.820643 c -1.27771,1.121892 -3.29296,0.218146 -4.93425,0.675213 -1.35043,0.893358 -1.35043,2.763178 -2.3996,3.88507 l -10.38789,0.155818 c -1.423142,-0.0831 -0.758317,1.641286 -0.903747,2.316499 0,1.194607 -0.228534,2.991712 0.14543,4.186319 2.472317,0.747928 5.692567,-0.155818 8.154497,0.519394 0.97646,1.797105 2.47231,3.521494 2.32688,5.682175 -0.97646,1.423141 -1.13228,3.14753 -2.02564,4.497956 -1.12189,2.378826 -2.09835,4.851143 -3.14753,7.333849 -0.21814,0.73754 -0.73754,1.412752 -1.56857,1.485468 l -12.112275,-0.228534 -1.049176,0.384352 c -0.145431,0.592109 -0.145431,1.194607 0,1.714001 0,1.121892 -0.44668,2.763179 0.373964,3.666925 5.391313,0 11.073487,0.07272 16.828377,-0.07272 l 0.82064,0.446679 c 0.97647,1.350425 2.25418,2.763178 3.36568,4.186319 l 0.0831,0.903746 c -1.56857,2.316499 -1.95292,5.152388 -1.35042,7.925958 0.97646,1.34004 1.26732,4.56028 3.95778,4.04089 1.35043,-0.52978 2.09836,-1.79711 2.70085,-2.99171 0.14543,-0.52979 0.0727,-1.35043 0.89336,-1.42314 0.82065,0.37396 0.22854,1.42314 0.44668,1.94253 -0.59211,4.48757 -1.78672,9.94121 -6.87678,11.37474 -1.49586,0.0727 -2.76318,-0.45707 -3.88507,-1.2881 -3.59421,-2.75279 -4.04089,-7.84285 -4.19671,-11.88374 0.22854,-0.89336 0.15582,-1.94254 0.30125,-2.8359 -0.44668,-1.42314 1.26732,-3.074811 -0.14543,-4.040885 -4.040887,0.07272 -8.60117,-0.07272 -12.413525,-0.155818 l -0.831031,0.446679 c -0.218146,0.602497 -0.373964,1.27771 -0.145431,1.952924 -0.07272,0.22853 0.07272,0.82064 -0.07272,0.96607 0.145431,1.19461 -0.0831,2.61775 0.07272,3.89546 -0.446679,0.44668 0.145431,0.96607 0.373964,1.42314 1.267323,0 3.064427,0.50901 4.040889,-0.45707 l 0.07272,-3.66692 c 0.519394,-0.82064 1.350425,-1.64129 2.316499,-1.714 0.831031,0.0727 1.423141,1.12189 1.942535,1.64128 0.301249,3.14753 -0.07272,6.58593 0,9.87889 l -3.73964,4.70571 -0.747928,0.0727 c -3.88507,-2.83589 -8.518068,-4.86153 -13.535418,-4.33174 -4.487567,-0.44668 -8.601171,1.35042 -12.112277,4.04088 -0.373964,0.37397 -0.976461,0.0623 -1.350425,-0.22853 l -3.73964,-4.25903 c -0.218146,-1.13228 0.0831,-2.09836 -0.290861,-3.06443 0.893358,-0.6025 -0.529782,-1.205 0.290861,-1.79711 -0.290861,-1.64128 0.14543,-3.14753 -0.07271,-4.86153 0.519394,-0.97646 1.495856,-1.57896 2.472317,-1.7971 0.747928,0.37396 1.641286,0.97646 2.01525,1.7971 l -0.155818,3.22025 c 0.384352,1.26732 2.098353,0.96607 3.074815,0.89336 0.675213,0.14543 1.495856,-0.0727 1.786717,-0.82065 0,-2.09835 -0.373964,-4.26942 0,-6.367772 -0.519395,-0.59211 0.0831,-1.194607 -0.893359,-1.568571 -4.259034,0 -8.673886,0 -12.78749,0 l -0.59211,0.529782 c 0.519395,4.259031 1.038789,8.746601 -0.0831,12.932921 -0.675212,2.99171 -2.846281,5.91071 -5.983423,6.58592 -1.423141,-0.15582 -2.835894,-0.22853 -3.968173,-1.19461 -2.389215,-1.95292 -3.209858,-4.7161 -3.656537,-7.40656 -0.155818,-1.12189 -1.049177,-3.43839 0.14543,-4.56028 0.976462,1.34003 1.121892,3.5111 3.064427,4.33175 0.831031,0.52978 1.651675,-0.14543 2.399603,-0.44668 1.869819,-2.54504 2.690463,-5.75489 1.641286,-8.829708 0,-1.194607 -0.966074,-2.087966 -1.267322,-3.292961 1.714001,-1.256934 2.316499,-3.656536 4.113603,-4.705713 5.75489,-0.14543 11.520168,-0.14543 17.202343,0 0.290861,-0.14543 0.446679,-0.602497 0.519394,-0.820643 V 86.772198 L 72.320468,86.325519 59.387548,86.1697 58.411086,85.878839 c -0.820643,-1.578959 -1.423141,-3.29296 -2.389214,-4.705713 -0.602498,-1.952923 -1.350426,-4.123991 -2.545033,-5.921096 0,-1.423141 -1.495856,-2.01525 -1.350425,-3.511106 1.350425,-1.578959 1.495856,-3.666925 3.29296,-4.705713 l 7.105316,0.07272 0.519394,-0.457067 c 0.07272,-0.519395 -0.07271,-1.038789 0.155818,-1.568571 -0.155818,-1.423141 0.07272,-3.365676 -0.373963,-4.705714 -3.438391,-0.228533 -6.88717,-0.228533 -10.543707,-0.228533 -1.121892,-0.373964 -0.976461,-1.568571 -1.506244,-2.389214 -0.519394,-2.690463 -3.511106,-1.13228 -5.380926,-1.72439 -0.301248,-0.228533 -0.893358,-0.519394 -0.820643,-1.049177 l 0.747928,-0.373964 c 3.209858,0.373964 6.357388,0.373964 9.577633,0.373964 0.290861,0.155819 0.73754,-0.373964 1.121892,0.0831 l 6.502818,-0.0831 c 0.903746,-0.446679 0.446679,-1.797104 0.747928,-2.534644 0.592109,-1.13228 1.942535,-1.350426 2.918996,-1.952923 1.714002,-0.820643 2.835894,1.27771 4.33175,1.797104 0.228533,0.747928 -0.59211,2.316499 0.747927,2.690463 6.814455,-0.14543 13.691237,0.228534 20.651122,0 0.519394,-0.602497 0.290861,-1.42314 0.218145,-2.171068 0.602498,-1.267322 2.025639,-1.558183 3.064427,-2.316499 1.277711,-0.747928 2.098354,0.529782 3.14753,0.976461 2.243785,0.218146 0.44668,2.908609 1.869825,3.666925 5.98342,-0.529783 11.36434,0.301249 17.34777,-0.373964 h 0.44668"
   clip-path="none" /><path
   style="fill:#ffffff"
   inkscape:connector-curvature="0"
   id="path55"
   d="m 80.402245,60.303859 c 0.373964,0.290861 1.049177,0.135043 1.495856,0.07271 3.209857,-0.155818 6.575533,-0.155818 9.795778,0 1.194607,1.340038 -0.07272,3.282573 0.446679,4.934247 0,0.519395 0.228534,1.495856 -0.519394,1.72439 -7.0326,0.373963 -13.691236,0 -20.796552,0 l -0.373964,-0.602498 c 0.228534,-2.098353 -0.228533,-3.968173 0.228534,-5.910708 0.301249,-0.446679 0.820643,-0.145431 1.194607,-0.373964 l 8.528456,0.155818"
   clip-path="none" /><path
   style="fill:#ffffff"
   inkscape:connector-curvature="0"
   id="path57"
   d="m 67.531652,72.114888 c 1.651674,0.301249 3.739639,-0.301249 5.090065,0.529782 -0.07272,0.893358 0.529782,2.389214 -0.602498,2.908609 h -5.827605 c -0.602497,0.675212 0.07272,1.204995 0.373964,1.86982 1.86982,0.675212 3.438391,0.155818 5.453641,0.218145 1.049177,0.747928 0.675213,2.316499 0.44668,3.292961 -3.355288,0.301248 -7.323461,0.14543 -10.761852,0.07271 -0.903747,-0.903746 -1.277711,-2.316499 -1.86982,-3.511106 -0.903746,-1.651674 -1.495856,-3.365676 -2.025638,-5.090065 1.869819,-0.831031 4.040888,-0.07272 6.139241,-0.301249 h 3.583822"
   clip-path="none" /><path
   style="fill:#ffffff"
   inkscape:connector-curvature="0"
   id="path59"
   d="m 103.02707,72.187603 c 0.89335,0.675213 -0.0727,1.86982 -0.52979,2.700851 -0.73754,1.859432 -1.78671,3.511106 -2.3165,5.453641 l -0.675209,0.373964 C 96.06718,80.560241 92.701504,81.017308 89.190398,80.560241 L 88.88915,80.113562 c 0.07272,-0.820644 -0.44668,-2.389215 0.747927,-2.690463 2.316499,-0.44668 5.308211,1.568571 5.983424,-1.568572 -0.446679,-0.966073 -1.641286,-0.457067 -2.389214,-0.529782 -1.277711,-0.218145 -3.292961,0.457067 -4.497956,-0.592109 0.228534,-0.820644 -0.519394,-2.690463 1.049177,-2.773567 4.497955,0.228534 8.756989,0 13.244562,0.228534"
   clip-path="none" />
</svg>