<?xml version="1.0" encoding="utf-8"?>
<!-- Generator: Adobe Illustrator 14.0.0, SVG Export Plug-In . SVG Version: 6.00 Build 43363)  -->
<!DOCTYPE svg PUBLIC "-//W3C//DTD SVG 1.1//EN" "http://www.w3.org/Graphics/SVG/1.1/DTD/svg11.dtd">
<svg version="1.1" id="Layer_1" xmlns="http://www.w3.org/2000/svg" xmlns:xlink="http://www.w3.org/1999/xlink" x="0px" y="0px"
	 width="476.5px" height="89.097px" viewBox="0 0 476.5 89.097" enable-background="new 0 0 476.5 89.097" xml:space="preserve">
<g>
	<path fill-rule="evenodd" clip-rule="evenodd" fill="#F3AD2C" d="M2,59.685c10.768,1.218,21.535,2.438,27.064,0.774
		c5.528-1.662,5.817-6.209,6.106-10.754c1.055-3.295,2.611-6.594,4.984-9.899c0.796-1.137,1.717-2.186,2.743-3.121
		c1.028-0.937,2.161-1.758,3.369-2.444c1.21-0.688,2.498-1.242,3.829-1.648l0,0l5.097-0.979l5.141-0.717l0,0
		c2.18-0.303,4.401-0.977,6.547-2.095c1.021-0.533,1.998-1.148,3.108-2.036c1.112-0.891,2.356-2.052,3.462-3.33
		c1.108-1.28,2.077-2.678,2.894-4.158c0.816-1.482,1.479-3.046,1.975-4.662c1.295-3.585,2.506-7.183,3.636-10.793
		C72.592,1.476,61.574,1.46,55.79,3.401c-5.784,1.939-6.337,5.832-6.868,8.483c-0.533,2.651-1.042,4.06-1.623,5.441
		c-0.579,1.381-1.229,2.736-1.91,3.938c-0.681,1.201-1.394,2.254-2.214,3.217s-1.746,1.838-2.753,2.606
		c-1.055,0.715-2.111,1.429-3.203,1.958c-2.166,1.07-4.473,1.479-6.733,2.124c-3.195,0.596-6.455,0.991-9.659,1.927
		c-1.586,0.458-3.118,1.107-4.55,1.929c-1.431,0.819-2.761,1.814-3.953,2.95c-1.192,1.138-2.243,2.419-3.127,3.806
		c-0.519,0.803-1.037,1.606-1.682,2.878c-0.646,1.273-1.42,3.015-2.192,4.756C4.038,52.812,2.933,56.237,2,59.685L2,59.685z"/>
	<path fill-rule="evenodd" clip-rule="evenodd" fill="#EB302E" d="M22.146,87.513c10.767,1.217,21.536,2.437,27.064,0.774
		s5.816-6.207,6.106-10.754c1.055-3.295,2.613-6.596,4.985-9.9c0.795-1.137,1.716-2.187,2.745-3.121
		c1.026-0.935,2.159-1.756,3.369-2.444s2.496-1.241,3.829-1.647l0,0l5.095-0.979l5.141-0.719l0,0c2.18-0.3,4.402-0.974,6.547-2.092
		c1.022-0.534,1.998-1.148,3.108-2.039c1.111-0.888,2.356-2.051,3.464-3.33c1.106-1.278,2.077-2.678,2.892-4.158
		c0.817-1.48,1.479-3.044,1.976-4.659c1.294-3.586,2.505-7.184,3.635-10.794c-9.363-2.348-20.38-2.362-26.166-0.422
		c-5.784,1.939-6.337,5.832-6.868,8.483c-0.533,2.65-1.043,4.059-1.622,5.44c-0.58,1.381-1.229,2.735-1.911,3.938
		c-0.681,1.202-1.395,2.252-2.214,3.217c-0.819,0.961-1.746,1.837-2.752,2.606c-1.056,0.716-2.112,1.429-3.203,1.957
		c-2.167,1.072-4.473,1.48-6.734,2.125c-3.196,0.595-6.454,0.991-9.66,1.926c-1.586,0.46-3.118,1.108-4.549,1.928
		c-1.431,0.821-2.762,1.814-3.953,2.953c-2.689,2.528-4.455,5.821-5.887,8.807C24.687,78.878,23.332,83.175,22.146,87.513
		L22.146,87.513z"/>
	<polygon fill-rule="evenodd" clip-rule="evenodd" fill="#8D9BA6" points="122.736,58.824 137.539,58.831 149.012,29.317 
		156.614,58.824 173.976,58.824 166.539,29.238 193.116,3.904 175.355,3.904 150.142,26.738 158.273,3.909 143.25,3.904 
		122.736,58.824 	"/>
	<path fill-rule="evenodd" clip-rule="evenodd" fill="#8D9BA6" d="M234.467,13.21c-0.519-1.466-1.286-2.849-2.246-4.083
		c-0.961-1.234-2.115-2.32-3.411-3.198c-1.295-0.876-2.731-1.545-4.374-2.073c-3.346-1.06-7.293-1.546-11.002-1.47
		c-1.884,0.04-3.764,0.222-5.986,0.647c-2.223,0.424-4.787,1.093-7.194,2.133c-2.406,1.04-4.658,2.454-6.638,4.166
		c-1.979,1.711-3.689,3.723-4.95,5.473c-1.259,1.749-2.07,3.235-2.847,4.735c-0.775,1.5-1.519,3.013-2.199,4.554
		c-1.309,3.049-2.523,6.002-3.47,8.863c-0.45,1.419-0.801,2.87-1.056,4.337c-0.254,1.467-0.41,2.95-0.486,4.063
		c-0.076,1.114-0.073,1.855-0.033,2.596c0.038,0.74,0.111,1.479,0.208,2.215c0.094,0.74,0.212,1.478,0.627,2.663
		c0.414,1.186,1.123,2.815,2.119,4.262s2.278,2.705,3.74,3.696c1.463,0.991,3.104,1.716,4.973,2.242
		c3.787,1.051,8.239,1.362,12.411,1.114c2.111-0.128,4.214-0.411,6.515-0.998c2.302-0.588,4.799-1.485,7.099-2.747
		c2.301-1.262,4.403-2.888,6.195-4.793c1.794-1.903,3.278-4.087,4.579-6.479c1.302-2.395,2.421-4.997,3.486-7.617
		c1.064-2.621,2.074-5.258,2.776-7.218c0.702-1.959,1.097-3.239,1.396-4.541c0.3-1.304,0.507-2.628,0.628-3.961
		C235.573,19.16,235.492,16.174,234.467,13.21L234.467,13.21L234.467,13.21L234.467,13.21z M219.974,21.369
		c-0.803,2.99-1.606,5.979-2.579,8.915c-0.973,2.936-2.114,5.814-3.255,8.694c-0.833,1.974-1.979,3.985-3.456,5.838
		c-0.981,1.228-1.997,2.083-3.116,2.715c-1.282,0.729-2.623,1.127-3.933,1.291c-1.994,0.249-4.037-0.049-5.644-0.781
		c-0.876-0.406-1.774-1.019-2.498-1.801c-1.1-1.215-1.45-2.484-1.522-3.697c-0.065-1.378,0.098-2.752,0.445-4.084
		c1.639-6.465,4.068-12.897,7.456-19.232c0.462-0.919,1.056-1.773,1.758-2.526c0.702-0.754,1.516-1.408,2.404-1.927
		c1.823-1.042,3.659-1.506,5.211-1.616c2.325-0.12,4.795,0.083,6.782,1.759c0.599,0.518,1.097,1.15,1.463,1.851
		c0.365,0.701,0.598,1.471,0.679,2.256C220.253,19.809,220.184,20.607,219.974,21.369L219.974,21.369L219.974,21.369L219.974,21.369
		z"/>
	<polygon fill-rule="evenodd" clip-rule="evenodd" fill="#8D9BA6" points="242.568,58.831 257.192,17.807 258.525,58.831 
		279.861,58.831 300.36,3.904 286.4,3.905 271.925,43.847 270.784,3.904 248.662,3.904 228.553,58.831 242.568,58.831 	"/>
	<path fill-rule="evenodd" clip-rule="evenodd" fill="#8D9BA6" d="M323.375,47.918l-0.308,10.921h14.369l0.979-54.938h-19.324
		l-36.075,54.933h14.914l7.451-10.882L323.375,47.918L323.375,47.918z M324.777,16.875l-0.74,19.983l-11.351,0.029L324.777,16.875
		L324.777,16.875z"/>
	<polygon fill-rule="evenodd" clip-rule="evenodd" fill="#8D9BA6" points="385.09,3.915 360.539,3.915 340.022,58.829 
		354.009,58.829 369.2,18.096 366.04,58.839 380.838,58.839 406.902,18.671 391.708,58.834 406.129,58.834 426.744,3.92 
		401.914,3.92 380.268,39.364 385.09,3.915 	"/>
	<polygon fill-rule="evenodd" clip-rule="evenodd" fill="#8D9BA6" points="436.391,3.916 415.814,58.836 430.041,58.836 
		450.82,3.916 436.391,3.916 	"/>
	<path fill="none" stroke="#FFFFFF" stroke-width="0.216" stroke-miterlimit="2.6131" d="M472.697,7.701
		c-0.266-0.705-0.668-1.357-1.18-1.911c-1.639-1.702-3.723-2.188-5.775-1.696c-0.678,0.172-1.326,0.469-1.902,0.868
		c-0.576,0.398-1.08,0.902-1.477,1.477c-0.811,1.167-1.152,2.609-0.984,3.973c0.082,0.692,0.291,1.368,0.613,1.987
		c0.326,0.619,0.764,1.179,1.285,1.645c1.791,1.53,3.865,1.875,6.064,1.091c0.705-0.272,1.357-0.684,1.904-1.203
		C473.01,12.203,473.49,9.934,472.697,7.701 M472.697,7.701L472.697,7.701 M470.758,13.279c-0.467,0.46-1.023,0.829-1.631,1.077
		c-1.906,0.718-3.686,0.439-5.246-0.837c-0.457-0.392-0.844-0.864-1.131-1.391c-0.959-1.824-0.752-3.631,0.199-5.131
		c0.328-0.502,0.748-0.944,1.234-1.3c0.484-0.355,1.035-0.625,1.615-0.79c1.775-0.476,3.582-0.082,5.006,1.317
		c0.457,0.467,0.822,1.023,1.072,1.627C472.629,9.798,472.23,11.771,470.758,13.279 M470.758,13.279L470.758,13.279"/>
	<path fill-rule="evenodd" clip-rule="evenodd" fill="#FFFFFF" d="M469.338,10.311c-0.236-0.307-0.508-0.395-0.777-0.468
		c0.34-0.079,0.857-0.253,1.111-0.875c0.217-0.589,0.264-1.253-0.4-1.965c-0.648-0.623-1.432-0.543-2.168-0.56l0,0l-2.467,0.002
		l0.008,6.536l1.377,0.006v-2.622l0,0c0.625,0.07,1.299-0.25,2.008,0.397c0.469,0.692,0.15,1.243,0.49,2.219l0,0l1.387-0.002l0,0
		C469.5,12.105,469.865,11.242,469.338,10.311L469.338,10.311L469.338,10.311L469.338,10.311z M468.014,9.174
		c-0.648,0.252-1.328,0.091-1.992,0.122l0,0V7.559l0,0c0.678,0.044,1.299-0.138,2.035,0.14
		C468.547,8.014,468.672,8.729,468.014,9.174L468.014,9.174L468.014,9.174L468.014,9.174z"/>
</g>
</svg>
