<?xml version="1.0" encoding="UTF-8" standalone="no"?>
<!-- Created with Inkscape (http://www.inkscape.org/) -->

<svg
   xmlns:dc="http://purl.org/dc/elements/1.1/"
   xmlns:cc="http://creativecommons.org/ns#"
   xmlns:rdf="http://www.w3.org/1999/02/22-rdf-syntax-ns#"
   xmlns:svg="http://www.w3.org/2000/svg"
   xmlns="http://www.w3.org/2000/svg"
   xmlns:sodipodi="http://sodipodi.sourceforge.net/DTD/sodipodi-0.dtd"
   xmlns:inkscape="http://www.inkscape.org/namespaces/inkscape"
   id="svg3023"
   version="1.1"
   inkscape:version="0.48.2 r9819"
   width="1000.1389"
   height="507.89761"
   xml:space="preserve"
   sodipodi:docname="kone-monospace-elevators.pdf"><metadata
     id="metadata3029"><rdf:RDF><cc:Work
         rdf:about=""><dc:format>image/svg+xml</dc:format><dc:type
           rdf:resource="http://purl.org/dc/dcmitype/StillImage" /><dc:title></dc:title></cc:Work></rdf:RDF></metadata><defs
     id="defs3027"><clipPath
       clipPathUnits="userSpaceOnUse"
       id="clipPath3039"><path
         d="M 0,0 612,0 612,792 0,792 0,0 z"
         id="path3041"
         inkscape:connector-curvature="0" /></clipPath><clipPath
       clipPathUnits="userSpaceOnUse"
       id="clipPath3069"><path
         d="m 329.212,704.008 227,0 0,31.036 -227,0 0,-31.036 z"
         id="path3071"
         inkscape:connector-curvature="0" /></clipPath><clipPath
       clipPathUnits="userSpaceOnUse"
       id="clipPath3085"><path
         d="m 329.212,704.008 227,0 0,31.036 -227,0 0,-31.036 z"
         id="path3087"
         inkscape:connector-curvature="0" /></clipPath><clipPath
       clipPathUnits="userSpaceOnUse"
       id="clipPath3101"><path
         d="m 329.212,704.008 227,0 0,31.036 -227,0 0,-31.036 z"
         id="path3103"
         inkscape:connector-curvature="0" /></clipPath><clipPath
       clipPathUnits="userSpaceOnUse"
       id="clipPath3111"><path
         d="m 321.338,702.12 247.562,0 0,38.52 -247.562,0 0,-38.52 z"
         id="path3113"
         inkscape:connector-curvature="0" /></clipPath><clipPath
       clipPathUnits="userSpaceOnUse"
       id="clipPath3125"><path
         d="m 329.212,704.008 227,0 0,31.036 -227,0 0,-31.036 z"
         id="path3127"
         inkscape:connector-curvature="0" /></clipPath><clipPath
       clipPathUnits="userSpaceOnUse"
       id="clipPath3135"><path
         d="m 321.338,702.12 247.562,0 0,38.52 -247.562,0 0,-38.52 z"
         id="path3137"
         inkscape:connector-curvature="0" /></clipPath></defs><sodipodi:namedview
     pagecolor="#ffffff"
     bordercolor="#666666"
     borderopacity="1"
     objecttolerance="10"
     gridtolerance="10"
     guidetolerance="10"
     inkscape:pageopacity="0"
     inkscape:pageshadow="2"
     inkscape:window-width="1920"
     inkscape:window-height="1028"
     id="namedview3025"
     showgrid="false"
     fit-margin-left="0.5"
     fit-margin-bottom="0.5"
     fit-margin-top="0.5"
     fit-margin-right="0.5"
     inkscape:zoom="0.47676768"
     inkscape:cx="973.93228"
     inkscape:cy="109.23485"
     inkscape:window-x="-8"
     inkscape:window-y="-8"
     inkscape:window-maximized="1"
     inkscape:current-layer="g3031" /><g
     id="g3031"
     inkscape:groupmode="layer"
     inkscape:label="kone-monospace-elevators"
     transform="matrix(1.25,0,0,-1.25,-26.716799,833.6787)"><g
       id="g3235"
       transform="matrix(13.071425,0,0,13.071425,-6449.3989,-8941.3629)"><path
         id="path3063"
         style="fill:#007bc3;fill-opacity:1;fill-rule:nonzero;stroke:none"
         d="m 509.347,734.944 -14.176,0 0,-30.837 14.176,0 0,30.837 z"
         inkscape:connector-curvature="0" /><g
         id="g3065"><g
           clip-path="url(#clipPath3069)"
           id="g3067"><path
             id="path3073"
             style="fill:none;stroke:#007bc3;stroke-width:0.2;stroke-linecap:butt;stroke-linejoin:miter;stroke-miterlimit:4;stroke-opacity:1;stroke-dasharray:none"
             d="m 509.347,734.944 -14.176,0 0,-30.837 14.176,0 0,30.837 z"
             inkscape:connector-curvature="0" /></g></g><g
         transform="translate(508.1844,713.6944)"
         id="g3075"><path
           id="path3077"
           style="fill:#ffffff;fill-opacity:1;fill-rule:nonzero;stroke:none"
           d="m 0,0 -4.568,6.089 4.275,5.416 -3.683,0 -3.87,-5.019 0,5.019 -3.128,0 0,-11.505 3.128,0 0,5.451 L -3.827,0 0,0 z"
           inkscape:connector-curvature="0" /></g><path
         id="path3079"
         style="fill:#007bc3;fill-opacity:1;fill-rule:nonzero;stroke:none"
         d="m 540.52,734.944 -14.175,0 0,-30.837 14.175,0 0,30.837 z"
         inkscape:connector-curvature="0" /><g
         id="g3081"><g
           clip-path="url(#clipPath3085)"
           id="g3083"><path
             id="path3089"
             style="fill:none;stroke:#007bc3;stroke-width:0.2;stroke-linecap:butt;stroke-linejoin:miter;stroke-miterlimit:4;stroke-opacity:1;stroke-dasharray:none"
             d="m 540.52,734.944 -14.175,0 0,-30.837 14.175,0 0,30.837 z"
             inkscape:connector-curvature="0" /></g></g><g
         transform="translate(535.7469,725.1992)"
         id="g3091"><path
           id="path3093"
           style="fill:#ffffff;fill-opacity:1;fill-rule:nonzero;stroke:none"
           d="M 0,0 0,-5.619 -5.737,0 l -1.789,0 0,-11.505 2.891,0 0,5.838 5.956,-5.838 1.582,0 L 2.903,0 0,0 z"
           inkscape:connector-curvature="0" /></g><path
         id="path3095"
         style="fill:#007bc3;fill-opacity:1;fill-rule:nonzero;stroke:none"
         d="m 524.937,734.944 -14.175,0 0,-30.837 14.175,0 0,30.837 z"
         inkscape:connector-curvature="0" /><g
         id="g3097"><g
           clip-path="url(#clipPath3101)"
           id="g3099"><path
             id="path3105"
             style="fill:none;stroke:#007bc3;stroke-width:0.2;stroke-linecap:butt;stroke-linejoin:miter;stroke-miterlimit:4;stroke-opacity:1;stroke-dasharray:none"
             d="m 524.937,734.944 -14.175,0 0,-30.837 14.175,0 0,30.837 z"
             inkscape:connector-curvature="0" /></g></g><g
         id="g3107"><g
           clip-path="url(#clipPath3111)"
           id="g3109"><g
             transform="translate(517.8495,725.5312)"
             id="g3115"><path
               id="path3117"
               style="fill:#ffffff;fill-opacity:1;fill-rule:nonzero;stroke:none"
               d="m 0,0 c -3.37,0 -6.08,-2.441 -6.08,-6.003 0,-3.563 2.71,-6.008 6.08,-6.008 3.371,0 6.081,2.445 6.081,6.008 C 6.081,-2.441 3.371,0 0,0 m 2.954,-6.003 c 0,-1.953 -1.292,-3.293 -2.954,-3.293 -1.666,0 -2.954,1.34 -2.954,3.293 0,1.949 1.288,3.292 2.954,3.292 1.662,0 2.954,-1.343 2.954,-3.292"
               inkscape:connector-curvature="0" /></g><path
             id="path3119"
             style="fill:#007bc3;fill-opacity:1;fill-rule:nonzero;stroke:none"
             d="m 556.112,734.944 -14.176,0 0,-30.837 14.176,0 0,30.837 z"
             inkscape:connector-curvature="0" /></g></g><g
         id="g3121"><g
           clip-path="url(#clipPath3125)"
           id="g3123"><path
             id="path3129"
             style="fill:none;stroke:#007bc3;stroke-width:0.2;stroke-linecap:butt;stroke-linejoin:miter;stroke-miterlimit:4;stroke-opacity:1;stroke-dasharray:none"
             d="m 556.112,734.944 -14.176,0 0,-30.837 14.176,0 0,30.837 z"
             inkscape:connector-curvature="0" /></g></g><g
         id="g3131"><g
           clip-path="url(#clipPath3135)"
           id="g3133"><g
             transform="translate(547.7128,716.3055)"
             id="g3139"><path
               id="path3141"
               style="fill:#ffffff;fill-opacity:1;fill-rule:nonzero;stroke:none"
               d="m 0,0 0,1.951 5.079,0 0.001,2.463 -5.08,0 0,1.945 5.782,0 0,2.535 -8.872,0 0,-11.505 8.872,0 L 5.782,0 0,0 z"
               inkscape:connector-curvature="0" /></g></g></g></g></g></svg>