<?xml version="1.0" encoding="UTF-8" standalone="no"?>
<svg
   xmlns:dc="http://purl.org/dc/elements/1.1/"
   xmlns:cc="http://creativecommons.org/ns#"
   xmlns:rdf="http://www.w3.org/1999/02/22-rdf-syntax-ns#"
   xmlns:svg="http://www.w3.org/2000/svg"
   xmlns="http://www.w3.org/2000/svg"
   xmlns:xlink="http://www.w3.org/1999/xlink"
   xmlns:sodipodi="http://sodipodi.sourceforge.net/DTD/sodipodi-0.dtd"
   xmlns:inkscape="http://www.inkscape.org/namespaces/inkscape"
   version="1.1"
   id="Layer_1"
   x="0px"
   y="0px"
   width="942"
   height="207"
   viewBox="0 0 942 207"
   enable-background="new 0 0 992 609"
   xml:space="preserve">
<rect
   style="fill:#ffffff"
   x="127.35"
   y="394.12"
   clip-path="url(#SVGID_12_-1)"
   width="41.110001"
   height="187.08"
   id="rect55-4"
   transform="matrix(0,5.0352711,-5.0352711,0,2926.4996,-641.24174)" /><path
   id="path81-8"
   d="m 133.672,550.517 c -0.887,-2.809 -1.365,-5.8 -1.365,-8.901 h 29.676 l -28.311,8.901"
   clip-path="url(#SVGID_18_-4)"
   style="fill:#fff200"
   transform="matrix(0,5.0352711,-5.0352711,0,2926.4996,-641.24174)" /><path
   id="path83-8"
   d="m 137.864,558.868 24.119,-17.253 -28.311,8.901 c 0.953,3.024 2.38,5.836 4.192,8.352"
   clip-path="url(#SVGID_18_-4)"
   style="fill:#bdd634"
   transform="matrix(0,5.0352711,-5.0352711,0,2926.4996,-641.24174)" /><path
   id="path85-2"
   d="m 144.506,565.537 17.477,-23.922 -24.119,17.253 c 1.845,2.561 4.089,4.815 6.642,6.669"
   clip-path="url(#SVGID_18_-4)"
   style="fill:#00b2f0"
   transform="matrix(0,5.0352711,-5.0352711,0,2926.4996,-641.24174)" /><path
   id="path87-4"
   d="m 152.578,569.68 9.405,-28.064 -17.477,23.922 c 2.436,1.77 5.153,3.177 8.072,4.142"
   clip-path="url(#SVGID_18_-4)"
   style="fill:#0080c5"
   transform="matrix(0,5.0352711,-5.0352711,0,2926.4996,-641.24174)" /><path
   id="path89-5"
   d="m 161.98,571.169 c -3.242,0 -6.483,-0.525 -9.402,-1.489 l 9.405,-28.064 -0.003,29.553"
   clip-path="url(#SVGID_18_-4)"
   style="fill:#005ca9"
   transform="matrix(0,5.0352711,-5.0352711,0,2926.4996,-641.24174)" /><path
   id="path91-5"
   d="m 133.672,532.713 c -0.887,2.81 -1.365,5.8 -1.365,8.902 h 29.676 l -28.311,-8.902"
   clip-path="url(#SVGID_18_-4)"
   style="fill:#ffca05"
   transform="matrix(0,5.0352711,-5.0352711,0,2926.4996,-641.24174)" /><path
   id="path93-1"
   d="m 137.864,524.362 24.119,17.253 -28.311,-8.902 c 0.953,-3.023 2.38,-5.835 4.192,-8.351"
   clip-path="url(#SVGID_18_-4)"
   style="fill:#f99c22"
   transform="matrix(0,5.0352711,-5.0352711,0,2926.4996,-641.24174)" /><path
   id="path95-7"
   d="m 144.506,517.692 17.477,23.923 -24.119,-17.253 c 1.845,-2.561 4.089,-4.815 6.642,-6.67"
   clip-path="url(#SVGID_18_-4)"
   style="fill:#f58225"
   transform="matrix(0,5.0352711,-5.0352711,0,2926.4996,-641.24174)" /><path
   id="path97-1"
   d="m 152.578,513.55 9.405,28.065 -17.477,-23.923 c 2.436,-1.77 5.153,-3.177 8.072,-4.142"
   clip-path="url(#SVGID_18_-4)"
   style="fill:#ed232a"
   transform="matrix(0,5.0352711,-5.0352711,0,2926.4996,-641.24174)" /><path
   id="path99-1"
   d="m 161.98,512.061 c -3.242,0 -6.483,0.525 -9.402,1.489 l 9.405,28.065 -0.003,-29.554"
   clip-path="url(#SVGID_18_-4)"
   style="fill:#c31d22"
   transform="matrix(0,5.0352711,-5.0352711,0,2926.4996,-641.24174)" /><polyline
   id="polyline101-5"
   points="137.429,506.126 161.983,506.126 161.983,499.84 155.167,499.84      161.983,493.976 161.983,490.426 149.853,500.79 137.428,490.365 137.428,494.026 144.217,499.84 137.428,499.84      137.429,506.126    "
   clip-path="url(#SVGID_18_-4)"
   style="fill:#0074bb"
   transform="matrix(0,5.0352711,-5.0352711,0,2926.4996,-641.24174)" /><polyline
   id="polyline103-2"
   points="161.983,488.776 149.853,499.14 137.428,488.641 137.428,485.226      149.853,495.576 161.983,485.026 161.983,488.776    "
   clip-path="url(#SVGID_18_-4)"
   style="fill:#0074bb"
   transform="matrix(0,5.0352711,-5.0352711,0,2926.4996,-641.24174)" /><path
   id="path105-7"
   d="m 146.203,474.29 v 5.6 h 11.165 v -5.649 l -11.165,0.049 m -4.5,-0.664 c 0.05,-5.415 5.15,-5.386 5.15,-5.386 h 9.665 c 4.914,-0.001 5.465,5.136 5.465,5.136 v 7.9 c 0,4.186 -5.316,4.563 -5.316,4.563 h -10.014 c -4.577,-0.1 -4.95,-4.514 -4.95,-4.514 v -7.699 z"
   clip-path="url(#SVGID_18_-4)"
   style="fill:#0074bb"
   transform="matrix(0,5.0352711,-5.0352711,0,2926.4996,-641.24174)" /><path
   id="path107-6"
   d="m 154.053,423.34 h 2.465 c 4.914,0 5.465,5.136 5.465,5.136 v 7 c 0,4.187 -5.316,4.564 -5.316,4.564 h -10.014 c -4.577,-0.1 -4.95,-4.514 -4.95,-4.514 v -6.801 c 0.05,-5.414 5.15,-5.386 5.15,-5.386 h 1.9 v 5.389 l -2.55,0.012 v 5.35 h 11.165 v -5.399 l -3.315,0.015 v -5.366"
   clip-path="url(#SVGID_18_-4)"
   style="fill:#0074bb"
   transform="matrix(0,5.0352711,-5.0352711,0,2926.4996,-641.24174)" /><path
   id="path109-1"
   d="m 141.703,456.226 c 0,-6.435 5.25,-6.1 5.25,-6.1 h 15.03 v 5.85 h -15.93 v 4.65 h 15.93 v 5.6 h -20.28 v -10"
   clip-path="url(#SVGID_18_-4)"
   style="fill:#0074bb"
   transform="matrix(0,5.0352711,-5.0352711,0,2926.4996,-641.24174)" /><rect
   id="rect111-4"
   height="6"
   width="5.5999999"
   clip-path="url(#SVGID_18_-4)"
   y="441.98999"
   x="135.76801"
   style="fill:#0074bb"
   transform="matrix(0,5.0352711,-5.0352711,0,2926.4996,-641.24174)" /><rect
   id="rect113-2"
   height="6"
   width="18.615999"
   clip-path="url(#SVGID_18_-4)"
   y="441.98999"
   x="143.367"
   style="fill:#0074bb"
   transform="matrix(0,5.0352711,-5.0352711,0,2926.4996,-641.24174)" /><path
   id="path115-3"
   d="m 153.718,416.14 h 3.7 v -5.35 h -3.7 v 5.35 z m -5.015,-0.05 v 5.3 h -2.85 c 0,0 -4.15,-0.429 -4.15,-5.514 v -5.25 c 0,0 0,-5.436 5.45,-5.436 h 14.83 v 11.534 c 0,0 -0.2,4.766 -6.165,4.766 h -1.35 c 0,0 -4.415,0 -4.415,-5.3 v -5.4 h -3.9 v 5.35 l 2.55,-0.05 z"
   clip-path="url(#SVGID_18_-4)"
   style="fill:#0074bb"
   transform="matrix(0,5.0352711,-5.0352711,0,2926.4996,-641.24174)" /></svg>