<?xml version="1.0" encoding="UTF-8" standalone="no"?>
<!-- Created with Inkscape (http://www.inkscape.org/) -->

<svg
   xmlns:dc="http://purl.org/dc/elements/1.1/"
   xmlns:cc="http://creativecommons.org/ns#"
   xmlns:rdf="http://www.w3.org/1999/02/22-rdf-syntax-ns#"
   xmlns:svg="http://www.w3.org/2000/svg"
   xmlns="http://www.w3.org/2000/svg"
   xmlns:sodipodi="http://sodipodi.sourceforge.net/DTD/sodipodi-0.dtd"
   xmlns:inkscape="http://www.inkscape.org/namespaces/inkscape"
   width="400"
   height="150"
   id="svg2"
   sodipodi:version="0.32"
   inkscape:version="0.48.4 r9939"
   version="1.0"
   inkscape:output_extension="org.inkscape.output.svg.inkscape"
   sodipodi:docname="Kraft logo.svg">
  <metadata
     id="metadata3872">
    <rdf:RDF>
      <cc:Work
         rdf:about="">
        <dc:format>image/svg+xml</dc:format>
        <dc:type
           rdf:resource="http://purl.org/dc/dcmitype/StillImage" />
      </cc:Work>
    </rdf:RDF>
  </metadata>
  <defs
     id="defs3870" />
  <sodipodi:namedview
     pagecolor="#ffffff"
     bordercolor="#666666"
     borderopacity="1"
     objecttolerance="10"
     gridtolerance="10"
     guidetolerance="10"
     inkscape:pageopacity="0"
     inkscape:pageshadow="2"
     inkscape:window-width="1280"
     inkscape:window-height="750"
     id="namedview3868"
     showgrid="false"
     inkscape:zoom="0.25"
     inkscape:cx="1974.5947"
     inkscape:cy="-228.25119"
     inkscape:window-x="-8"
     inkscape:window-y="-8"
     inkscape:window-maximized="1"
     inkscape:current-layer="layer1" />
  <g
     inkscape:label="Layer 1"
     inkscape:groupmode="layer"
     id="layer1"
     transform="translate(-160.89966,-825.63498)">
    <path
       inkscape:connector-curvature="0"
       id="path3582"
       d="m 555.27389,884.20477 -20.46056,-28.84748 -0.13928,-0.19586 -0.15233,-0.18715 c -11.00718,-13.45317 -16.69581,-16.58691 -35.78955,-19.73794 -15.8078,-2.60711 -29.5917,-4.43941 -43.38,-5.75387 -25.51357,-2.43728 -49.14696,-3.84749 -94.45074,-3.84749 -44.95555,0 -70.26896,1.53638 -94.45071,3.84749 -13.78829,1.31446 -27.57219,3.14676 -43.37564,5.75387 -19.10258,3.15103 -24.78677,6.28477 -35.7939,19.73794 l -0.15238,0.18715 -0.13919,0.19586 -20.4344,28.80831 c -2.94655,4.21309 -5.65368,9.09209 -5.65368,16.46935 0,7.37727 2.70713,12.25192 5.62761,16.43454 l 20.46047,28.84318 0.13919,0.19585 0.15238,0.18715 c 11.00713,13.44882 16.69132,16.58683 35.7939,19.73794 15.80345,2.60711 29.58304,4.43511 43.37564,5.74952 24.18175,2.31546 49.49516,3.85185 94.45071,3.85185 44.95124,0 70.269,-1.53639 94.45074,-3.85185 13.79261,-1.31441 27.57651,-3.14241 43.38,-5.74952 19.09374,-3.15111 24.78237,-6.28912 35.78955,-19.73794 l 0.15233,-0.18715 0.13928,-0.19585 20.43875,-28.81271 c 2.94225,-4.21309 5.64511,-9.08774 5.64511,-16.46501 0,-7.37726 -2.70286,-12.25626 -5.6233,-16.43018"
       style="fill:#ffffff;fill-rule:nonzero;stroke:none" />
    <path
       inkscape:connector-curvature="0"
       id="path3584"
       d="m 264.08321,853.06359 c -18.21034,2.48085 -21.84453,4.21313 -31.82459,16.41717 l -13.06141,18.42357 c -2.34592,3.35127 -4.35236,7.95608 -4.35236,12.73062 0,4.7702 2.00644,9.37931 4.35236,12.73068 l 13.06141,18.42356 c 9.98006,12.19973 13.61425,13.93193 31.82459,16.41713 22.11433,3.01188 60.97661,5.69289 96.81835,5.69289 35.84604,0 74.70401,-2.68101 96.81839,-5.69289 18.2103,-2.4852 21.84448,-4.2174 31.82454,-16.41713 l 13.06581,-18.42356 c 2.34592,-3.35137 4.35237,-7.96048 4.35237,-12.73068 0,-4.77454 -2.00645,-9.37935 -4.35237,-12.73062 l -13.06581,-18.42357 c -9.98006,-12.20404 -13.61424,-13.93632 -31.82454,-16.41717 -22.54091,-3.07273 -59.70581,-5.6929 -96.81839,-5.6929 -35.84174,0 -74.70402,2.67671 -96.81835,5.6929 m 190.60318,-16.57381 c 14.82412,1.41012 28.58199,3.3209 42.89684,5.68419 17.25722,2.8508 21.51379,5.05749 31.48946,17.25713 l 20.43871,28.80831 c 2.34579,3.34697 4.35237,6.86369 4.35237,12.39554 0,5.5232 -2.00658,9.04422 -4.35237,12.39554 l -20.43871,28.80836 c -9.97567,12.19533 -14.23224,14.40194 -31.48946,17.25709 -14.31485,2.35903 -28.07272,4.27407 -42.89684,5.68419 -24.60841,2.35463 -49.60396,3.81703 -93.78483,3.81703 -44.18087,0 -69.18087,-1.4624 -93.78479,-3.81703 -14.82852,-1.41012 -28.58639,-3.32516 -42.89697,-5.68419 -17.25269,-2.85515 -21.5137,-5.06176 -31.48928,-17.25709 l -20.43876,-28.80836 c -2.34157,-3.35132 -4.35237,-6.87234 -4.35237,-12.39554 0,-5.53185 2.0108,-9.04857 4.35237,-12.39554 l 20.43876,-28.80831 c 9.97558,-12.19964 14.23659,-14.40633 31.48928,-17.25713 14.31058,-2.36329 28.06845,-4.27407 42.89697,-5.68419 24.60392,-2.35463 49.60392,-3.82569 93.78479,-3.82569 45.85653,0 69.17642,1.47106 93.78483,3.82569"
       style="fill:#ec1c2e;fill-rule:nonzero;stroke:none;fill-opacity:1" />
    <path
       style="fill:#0056a2;fill-rule:nonzero;stroke:none;fill-opacity:1"
       d="M 80.71875 47.25 C 81.24969 48.49043 81.4375 49.28447 81.4375 50.625 L 81.4375 97.21875 C 81.4375 98.54627 81.24969 99.34893 80.71875 100.59375 L 98.5 100.59375 C 97.96027 99.34893 97.78125 98.54627 97.78125 97.21875 L 97.78125 78 L 108.5 97.21875 C 109.20948 98.54627 109.45887 99.34893 109.59375 100.59375 L 129.3125 100.59375 C 128.11999 99.34893 127.52198 98.54627 126.8125 97.21875 L 112.4375 70.78125 L 127.375 50.625 C 128.36729 49.28447 129.2897 48.13793 130.3125 47.25 L 113 47.25 C 112.60829 48.49043 112.17984 49.28447 111.1875 50.625 L 97.8125 68.15625 L 97.78125 50.625 C 97.78125 49.28447 97.96027 48.49043 98.5 47.25 L 80.71875 47.25 z M 133.9375 47.25 C 134.47284 48.49043 134.65625 49.28447 134.65625 50.625 L 134.65625 97.21875 C 134.65625 98.54627 134.47284 99.34893 133.9375 100.59375 L 151.71875 100.59375 C 151.18341 99.34893 151 98.54627 151 97.21875 L 151 80.3125 L 161.375 97.21875 C 162.08444 98.54627 162.31128 99.34893 162.4375 100.59375 L 182.53125 100.59375 L 198.125 100.59375 C 197.92479 99.34893 197.95561 98.54627 198.3125 97.21875 L 200.0625 89.9375 L 214.21875 89.9375 L 215.9375 97.21875 C 216.29439 98.54627 216.32521 99.34893 216.125 100.59375 L 234.78125 100.59375 C 233.91957 99.34893 233.53573 98.54627 233.1875 97.21875 L 219.78125 50.59375 C 219.31119 49.25757 219.34166 48.49043 219.4375 47.25 L 196.6875 47.25 C 196.7833 48.49043 196.81816 49.25757 196.34375 50.59375 L 182.0625 97.21875 C 181.85872 97.985995 181.6256 98.584733 181.3125 99.1875 C 180.83504 98.581018 180.44367 97.990542 180.03125 97.21875 L 167.59375 76.3125 C 173.02551 75.41156 179 71.17488 179 61.65625 C 179 49.24326 168.32355 47.25 160.59375 47.25 L 133.9375 47.25 z M 237.75 47.25 C 238.28095 48.49043 238.46875 49.28447 238.46875 50.625 L 238.46875 97.21875 C 238.46875 98.54627 238.28095 99.34893 237.75 100.59375 L 255.53125 100.59375 C 254.99586 99.34893 254.84375 98.54627 254.84375 97.21875 L 254.84375 81.84375 L 271.0625 81.84375 C 272.39432 81.84375 273.22832 82.00026 274.46875 82.53125 L 274.46875 70.46875 L 254.84375 70.46875 L 254.84375 61.21875 L 271.625 61.21875 C 272.95683 61.21875 273.75514 61.40215 275 61.9375 L 275 47.34375 L 237.75 47.25 z M 278.71875 47.34375 L 278.71875 61.9375 C 279.95913 61.40215 280.75753 61.21875 282.09375 61.21875 L 293.15625 61.21875 L 293.15625 97.21875 C 293.15625 98.54627 293.03103 99.34893 292.5 100.59375 L 310.09375 100.59375 C 309.5672 99.34893 309.4375 98.54627 309.4375 97.21875 L 309.4375 61.21875 L 319.96875 61.21875 C 321.30058 61.21875 322.10328 61.40215 323.34375 61.9375 L 323.34375 47.34375 L 278.71875 47.34375 z M 151 59.15625 L 156.78125 59.15625 C 160.51119 59.15625 163.09375 61.08279 163.09375 65.34375 C 163.09375 69.61342 160.51119 71.53125 156.78125 71.53125 L 151 71.53125 L 151 59.15625 z M 207.125 60.25 L 211.53125 78.625 L 206.0625 78.625 L 202.75 78.625 L 207.125 60.25 z "
       transform="translate(160.89966,825.63498)"
       id="path3586" />
  </g>
</svg>
