<?xml version="1.0" encoding="UTF-8" standalone="no"?>
<!-- Created with Inkscape (http://www.inkscape.org/) -->

<svg
   xmlns:dc="http://purl.org/dc/elements/1.1/"
   xmlns:cc="http://creativecommons.org/ns#"
   xmlns:rdf="http://www.w3.org/1999/02/22-rdf-syntax-ns#"
   xmlns:svg="http://www.w3.org/2000/svg"
   xmlns="http://www.w3.org/2000/svg"
   xmlns:sodipodi="http://sodipodi.sourceforge.net/DTD/sodipodi-0.dtd"
   xmlns:inkscape="http://www.inkscape.org/namespaces/inkscape"
   width="187.08501"
   height="35.771999"
   id="svg2"
   version="1.1"
   inkscape:version="0.48.4 r9939"
   sodipodi:docname="Media General logo.svg">
  <defs
     id="defs4" />
  <sodipodi:namedview
     id="base"
     pagecolor="#ffffff"
     bordercolor="#666666"
     borderopacity="1.0"
     inkscape:pageopacity="0.0"
     inkscape:pageshadow="2"
     inkscape:zoom="2.8"
     inkscape:cx="74.419145"
     inkscape:cy="41.939276"
     inkscape:document-units="px"
     inkscape:current-layer="g3177"
     showgrid="false"
     inkscape:window-width="1366"
     inkscape:window-height="706"
     inkscape:window-x="-8"
     inkscape:window-y="-8"
     inkscape:window-maximized="1"
     fit-margin-top="0"
     fit-margin-left="0"
     fit-margin-right="0"
     fit-margin-bottom="0" />
  <metadata
     id="metadata7">
    <rdf:RDF>
      <cc:Work
         rdf:about="">
        <dc:format>image/svg+xml</dc:format>
        <dc:type
           rdf:resource="http://purl.org/dc/dcmitype/StillImage" />
        <dc:title></dc:title>
      </cc:Work>
    </rdf:RDF>
  </metadata>
  <g
     inkscape:label="Layer 1"
     inkscape:groupmode="layer"
     id="layer1"
     transform="translate(-23.242716,-318.7619)">
    <g
       id="g3177"
       transform="translate(20.407716,240.2699)">
	
	<polygon
   id="polygon3181"
   points="43.267,94.369 43.267,94.369 43.267,87.702 40.275,87.702 40.275,96.499 49.789,96.499 49.789,94.369 "
   style="fill-rule:evenodd" />

	<polygon
   id="polygon3183"
   points="53.397,94.795 53.397,93.721 59.208,93.721 59.208,92.24 53.397,92.24 53.397,91.175 59.563,91.175 59.563,91.175 59.563,89.462 51.004,89.462 51.004,96.5 59.66,96.5 59.66,94.795 "
   style="fill-rule:evenodd" />

	<polygon
   id="polygon3185"
   points="63.676,94.795 63.676,93.721 69.487,93.721 69.487,92.24 63.676,92.24 63.676,91.175 69.842,91.175 69.842,91.175 69.842,89.462 61.283,89.462 61.283,96.5 69.939,96.5 69.939,94.795 "
   style="fill-rule:evenodd" />

	<polygon
   id="polygon3187"
   points="80.531,94.795 80.531,93.721 86.342,93.721 86.342,92.24 80.531,92.24 80.531,91.175 86.697,91.175 86.697,91.175 86.697,89.462 78.138,89.462 78.138,96.5 86.794,96.5 86.794,94.795 "
   style="fill-rule:evenodd" />

	<polygon
   id="polygon3189"
   points="88.438,96.5 90.832,96.5 90.832,91.378 95.532,96.5 99.035,96.5 99.035,96.5 99.035,89.462 96.653,89.462 96.653,94.622 91.985,89.462 88.438,89.462 "
   style="fill-rule:evenodd" />

	<polygon
   id="polygon3191"
   points="103.58,91.185 103.58,96.5 105.974,96.5 105.974,96.5 105.974,91.185 109.251,91.185 109.251,89.462 100.304,89.462 100.304,91.185 "
   style="fill-rule:evenodd" />

	<polygon
   id="polygon3193"
   points="112.944,94.795 112.944,93.721 118.755,93.721 118.755,92.24 112.944,92.24 112.944,91.175 119.11,91.175 119.11,91.175 119.11,89.462 110.551,89.462 110.551,96.5 119.207,96.5 119.207,94.795 "
   style="fill-rule:evenodd" />

	<path
   id="path3195"
   d="m 127.18,89.462 h -6.296 V 96.5 h 2.404 v -1.801 h 3.568 c 0.787,0 1.078,0.126 1.078,0.726 V 96.5 h 2.393 v -1.442 c 0,-0.717 -0.421,-1.162 -1.239,-1.336 0.98,-0.213 1.304,-0.794 1.304,-1.956 0,-1.83 -0.841,-2.304 -3.212,-2.304 l 0,0 z m -0.087,1.752 c 0.615,0 0.863,0.251 0.863,0.794 0,0.667 -0.194,0.929 -0.863,0.929 h -3.805 v -1.723 h 3.805 l 0,0 z"
   style="fill-rule:evenodd"
   inkscape:connector-curvature="0" />

	<path
   id="path3197"
   d="m 138.203,89.462 h -6.016 V 96.5 h 2.404 v -1.752 h 4.474 c 1.735,0 2.351,-0.755 2.351,-2.643 0,-1.22 -0.292,-1.956 -1.133,-2.353 -0.495,-0.232 -1.164,-0.29 -2.08,-0.29 l 0,0 z m -0.086,1.752 c 0.614,0 0.862,0.261 0.862,0.823 0,0.688 -0.194,0.958 -0.862,0.958 h -3.525 v -1.781 h 3.525 l 0,0 z"
   style="fill-rule:evenodd"
   inkscape:connector-curvature="0" />

	<path
   id="path3199"
   d="m 149.269,89.462 h -6.295 V 96.5 h 2.403 v -1.801 h 3.568 c 0.787,0 1.078,0.126 1.078,0.726 V 96.5 h 2.393 v -1.442 c 0,-0.717 -0.42,-1.162 -1.239,-1.336 0.981,-0.213 1.305,-0.794 1.305,-1.956 -0.001,-1.83 -0.841,-2.304 -3.213,-2.304 l 0,0 z m -0.086,1.752 c 0.614,0 0.862,0.251 0.862,0.794 0,0.667 -0.194,0.929 -0.862,0.929 h -3.806 v -1.723 h 3.806 l 0,0 z"
   style="fill-rule:evenodd"
   inkscape:connector-curvature="0" />

	<polygon
   id="polygon3201"
   points="156.746,89.462 154.353,89.462 154.353,96.5 156.746,96.5 156.746,96.5 "
   style="fill-rule:evenodd" />

	<path
   id="path3203"
   d="m 158.594,94.157 c -0.021,0.291 -0.032,0.484 -0.032,0.562 0,1.539 0.862,1.87 3.288,1.87 h 3.19 c 1.143,0 1.94,-0.058 2.426,-0.34 0.7,-0.406 0.884,-0.929 0.884,-1.82 0,-1.646 -0.646,-2.246 -2.447,-2.285 l -3.935,-0.087 c -0.657,-0.02 -0.938,-0.146 -0.938,-0.581 0,-0.494 0.388,-0.552 1.132,-0.552 h 2.76 c 0.527,0 0.786,0.232 0.786,0.697 v 0.029 h 2.308 c 0.011,-0.136 0.021,-0.271 0.021,-0.387 0,-1.355 -0.776,-1.888 -2.556,-1.888 h -3.654 c -1.261,0 -2.123,0.048 -2.694,0.542 -0.399,0.358 -0.55,0.881 -0.55,1.646 0,1.617 0.582,2.052 2.403,2.101 l 3.763,0.106 c 0.776,0.02 1.153,0.097 1.153,0.61 0,0.426 -0.248,0.581 -0.819,0.581 h -3.008 c -0.83,0 -1.121,-0.097 -1.121,-0.677 v -0.126 h -2.36 l 0,-0.001 z"
   style="fill-rule:evenodd"
   inkscape:connector-curvature="0" />

	<polygon
   id="polygon3205"
   points="172.364,94.795 172.364,93.721 178.175,93.721 178.175,92.24 172.364,92.24 172.364,91.175 178.531,91.175 178.531,91.175 178.531,89.462 169.972,89.462 169.972,96.5 178.628,96.5 178.628,94.795 "
   style="fill-rule:evenodd" />

	<path
   id="path3207"
   d="m 180.164,94.157 c -0.021,0.291 -0.032,0.484 -0.032,0.562 0,1.539 0.862,1.87 3.288,1.87 h 3.19 c 1.143,0 1.94,-0.058 2.426,-0.34 0.7,-0.406 0.884,-0.929 0.884,-1.82 0,-1.646 -0.646,-2.246 -2.447,-2.285 l -3.935,-0.087 c -0.657,-0.02 -0.938,-0.146 -0.938,-0.581 0,-0.494 0.388,-0.552 1.132,-0.552 h 2.76 c 0.528,0 0.787,0.232 0.787,0.697 v 0.029 h 2.307 c 0.011,-0.136 0.021,-0.271 0.021,-0.387 0,-1.355 -0.776,-1.888 -2.555,-1.888 h -3.654 c -1.262,0 -2.124,0.048 -2.695,0.542 -0.398,0.358 -0.55,0.881 -0.55,1.646 0,1.617 0.582,2.052 2.404,2.101 l 3.762,0.106 c 0.776,0.02 1.153,0.097 1.153,0.61 0,0.426 -0.248,0.581 -0.819,0.581 h -3.007 c -0.83,0 -1.121,-0.097 -1.121,-0.677 v -0.126 h -2.361 l 0,-0.001 z"
   style="fill-rule:evenodd"
   inkscape:connector-curvature="0" />

	<path
   id="path3209"
   d="m 28.317,88.359 v -9.867 l -7.696,6.714 c 0,3.668 0,7.335 0,11.003 h 9.888 v 9.97 c 3.668,0 7.335,0 11.003,0 l 6.714,-7.697 H 38.132 V 88.359 h -9.815 l 0,0 z"
   style="fill:#3a749b;fill-rule:evenodd"
   inkscape:connector-curvature="0" />

	<path
   id="path3211"
   d="m 10.531,96.444 v -9.867 l -7.696,6.715 c 0,3.668 0,7.335 0,11.003 h 9.888 v 9.969 c 3.668,0 7.335,0 11.002,0 l 6.715,-7.695 H 20.345 V 96.444 h -9.814 l 0,0 z"
   style="fill:#3a749b;fill-rule:evenodd"
   inkscape:connector-curvature="0" />

</g>
  </g>
</svg>
