<?xml version="1.0" encoding="UTF-8" standalone="no"?>
<!-- Created with Inkscape (http://www.inkscape.org/) -->
<svg
   xmlns:dc="http://purl.org/dc/elements/1.1/"
   xmlns:cc="http://web.resource.org/cc/"
   xmlns:rdf="http://www.w3.org/1999/02/22-rdf-syntax-ns#"
   xmlns:svg="http://www.w3.org/2000/svg"
   xmlns="http://www.w3.org/2000/svg"
   xmlns:xlink="http://www.w3.org/1999/xlink"
   xmlns:sodipodi="http://sodipodi.sourceforge.net/DTD/sodipodi-0.dtd"
   xmlns:inkscape="http://www.inkscape.org/namespaces/inkscape"
   width="226"
   height="228"
   id="svg2"
   sodipodi:version="0.32"
   inkscape:version="0.45.1"
   version="1.0"
   inkscape:output_extension="org.inkscape.output.svg.inkscape">
  <g
     inkscape:label="Layer 1"
     inkscape:groupmode="layer"
     id="layer1"
     transform="translate(-653.74053,-201.89204)">
    <g
       id="g2763"
       clip-path="url(#id3031)"
       transform="matrix(1,0,0,-1,-424.63343,1143.5722)">
        <path
   id="path2765"
   d="M 992.126,0.059998 L 992.126,1502.36"
   style="fill:#0079c2;fill-rule:nonzero;stroke:none" />

      </g>
    <g
       id="g8911"
       transform="matrix(4.743614,0,0,4.743614,-2447.3541,-1609.3398)">
      <g
         transform="matrix(1,0,0,-1,-247.49057,1155.0008)"
         clip-path="url(#id3146)"
         id="g3875">
        <path
   style="fill:none;stroke:#231f20;stroke-width:0.60100001;stroke-linecap:butt;stroke-linejoin:miter;stroke-miterlimit:2.61299992"
   d="M 901.532,772.875 L 948.574,772.875 L 948.574,725.412 L 901.532,725.412 L 901.532,772.875 z "
   stroke-miterlimit="2.613"
   id="path3877" />

      </g>
      <path
         style="fill:#ed1c24;fill-rule:nonzero;stroke:none"
         d="M 654.04143,429.58877 L 701.08343,429.58877 L 701.08343,382.12577 L 654.04143,382.12577 L 654.04143,429.58877 z "
         id="path3879" />
      <path
         style="fill:#fff200;fill-rule:evenodd;stroke:none"
         d="M 669.52643,398.31777 C 671.71943,396.22977 676.15043,395.74877 678.67443,397.53677 C 681.78343,396.00477 684.48643,396.24477 686.84443,398.21277 C 689.20243,396.65077 691.53143,395.89977 693.78443,396.45477 C 696.62243,397.14577 698.50043,398.94877 698.78543,402.32777 C 698.90543,405.91777 697.82443,409.44777 695.25643,412.43577 C 693.61843,414.40377 691.30543,415.54577 688.40643,415.31977 C 686.36443,415.15477 684.98243,414.11877 684.15643,413.02177 C 681.40743,415.37977 678.31343,416.17577 674.57343,413.60777 C 671.26943,415.47077 668.14543,415.77077 665.57643,414.14877 C 663.20343,415.27477 661.07043,415.56077 659.16343,414.97477 C 655.93343,413.99877 655.60343,411.42977 656.62443,408.06577 C 657.69143,405.22677 658.98243,402.43277 660.53043,399.72977 C 661.97143,397.53677 663.68443,396.46977 665.62143,396.49977 C 667.57443,396.45477 668.89643,397.07077 669.52643,398.31777"
         id="path3881" />
      <path
         style="fill:#231f20;fill-rule:evenodd;stroke:none"
         d="M 665.77143,412.82677 C 668.08543,414.89977 671.11843,414.40377 674.66343,412.13577 C 677.72743,414.79477 680.89743,414.86977 684.26143,411.20477 C 685.55343,413.24777 687.79143,414.94477 691.18543,413.86277 C 694.58043,412.79677 696.21743,408.89177 697.07343,406.84877 C 698.27543,403.52977 697.49343,399.38377 695.21043,398.24277 C 693.36343,396.89077 688.94743,397.49177 686.79943,399.98477 C 684.63643,396.98077 681.69343,397.23577 678.43343,398.99377 C 677.99843,398.16777 676.96143,397.62677 674.72343,397.62677 C 672.29043,397.38677 670.39843,398.51277 669.04643,401.00577 C 668.10043,403.10877 667.15343,405.19677 666.20743,407.28477 C 665.93743,407.22477 665.69643,407.16477 665.42643,407.08877 C 666.43243,405.03177 667.43943,402.97377 668.46043,400.91577 C 669.16643,398.88877 668.31043,397.77677 665.92243,397.58177 C 664.02943,397.43177 662.37743,398.64777 660.98043,401.20177 C 659.43343,404.08477 658.17143,406.98377 657.45043,409.92777 C 657.19543,411.86577 657.33043,413.56277 660.28943,414.04377 C 662.00143,414.26877 663.84943,413.86277 665.77143,412.82677"
         id="path3883" />
      <path
         style="fill:#ffffff;fill-rule:evenodd;stroke:none"
         d="M 692.52243,398.79777 C 695.49643,399.20377 697.07343,401.54677 696.00743,405.87277 C 694.76043,410.24377 691.83143,413.09677 688.85743,412.69177 C 685.67343,412.61677 684.09643,408.90677 685.62843,404.85077 C 687.07043,400.96077 689.51843,398.69277 692.52243,398.79777 z M 691.93643,402.19277 C 690.61443,402.05777 689.45843,404.17577 689.05243,405.27177 C 688.73743,406.41377 687.88143,409.16177 689.29343,409.34177 C 690.70543,409.52277 691.74143,407.73477 692.22243,406.15777 C 692.70243,404.58077 693.18343,402.31277 691.93643,402.19277 z M 680.94243,407.67477 C 679.18443,406.98377 679.62043,405.94777 680.67143,405.06177 C 681.70843,404.34077 682.80443,404.26577 684.02143,404.80577 C 684.84743,405.28677 685.14743,406.20277 684.44143,407.94577 C 683.39043,410.25877 682.05343,411.73077 680.46143,412.36077 C 676.97643,413.27777 675.85043,411.63977 675.05443,409.64277 C 674.63343,407.11877 675.00943,404.64077 677.12643,402.19277 C 677.99843,400.81077 679.30443,399.83477 681.04743,399.26377 C 683.28543,398.60277 684.53143,399.20377 685.35743,400.32977 C 685.91343,401.38177 685.91343,402.37277 685.35743,403.30377 C 684.33643,404.46077 683.55543,404.12977 682.84943,403.57477 C 682.77443,402.71877 682.45943,402.29777 681.94843,402.29777 C 681.04743,402.31277 680.14543,403.24377 679.24443,405.06177 C 678.59843,406.47377 678.29843,407.53977 678.34343,408.26077 C 678.46343,409.13177 678.86943,409.43277 679.83043,409.22177 C 680.56643,408.68177 680.88143,407.96077 680.94243,407.67477 z M 671.07343,408.29077 C 671.22443,408.00577 671.35943,407.71977 671.49443,407.41977 C 674.93443,407.35977 675.73043,403.90477 672.95143,403.79977 C 672.98143,403.45477 673.11643,403.19877 673.37243,402.89877 C 674.48343,403.00377 676.99143,402.68877 677.24743,400.72077 C 677.93843,399.12877 675.59443,398.99377 673.97243,399.05377 C 672.62143,399.02377 671.59943,399.51877 670.39843,401.39677 C 668.85143,404.05477 667.64943,406.83377 666.82343,409.58277 C 666.20743,411.36977 666.73343,412.40577 668.34043,412.67677 C 669.69243,412.79677 671.14943,412.52677 672.69643,411.89577 C 673.76243,411.29477 674.28843,410.42377 674.31843,409.34177 C 674.16843,408.39577 673.62743,408.08077 671.07343,408.29077 z M 663.71443,408.30577 C 664.88543,405.85777 666.05743,403.40977 667.22843,400.96077 C 667.72443,399.60977 667.30343,398.99377 665.96743,399.05377 C 664.76543,398.73777 663.59443,399.51877 662.39243,401.39677 C 660.98043,404.11477 659.74943,406.87877 658.81743,409.58277 C 658.20143,411.36977 658.72743,412.40577 660.33443,412.67677 C 661.68643,412.79677 663.14343,412.52677 664.69043,411.89577 C 665.75643,411.29477 666.28243,410.42377 666.31243,409.34177 C 666.16243,408.39577 665.27643,408.06577 663.71443,408.30577"
         id="path3885" />
      <path
         style="fill:#fff200;fill-rule:evenodd;stroke:none"
         d="M 690.20943,405.69277 C 689.11243,408.96677 689.98443,408.60577 691.02043,405.85777 C 692.07143,402.68877 691.32043,402.88377 690.20943,405.69277"
         id="path3887" />
      <path
         style="fill:#231f20;fill-rule:evenodd;stroke:none"
         d="M 698.54543,398.37777 L 698.79843,398.37777 L 698.79843,397.74477 L 698.84043,397.74477 C 699.00943,397.74477 699.03743,397.77277 699.17843,398.05377 L 699.34743,398.37777 L 699.65643,398.37777 L 699.50243,398.08177 C 699.37543,397.84277 699.33343,397.78677 699.23443,397.71677 C 699.27743,397.70277 699.33343,397.68777 699.36143,397.65977 C 699.48843,397.60377 699.55843,397.44877 699.55843,397.27977 C 699.55843,397.13977 699.50243,396.95677 699.34743,396.88577 C 699.31943,396.88577 699.26243,396.85777 699.06543,396.85777 L 698.54543,396.85777 L 698.54543,398.37777 z M 698.79843,397.11177 L 698.99543,397.11177 C 699.15043,397.11177 699.19243,397.11177 699.23443,397.15377 C 699.27743,397.18177 699.30543,397.23777 699.30543,397.29477 C 699.30543,397.35077 699.29143,397.44877 699.20643,397.47677 C 699.16443,397.50577 699.05143,397.50577 698.98143,397.50577 L 698.79843,397.50577 L 698.79843,397.11177"
         id="path3889" />
      <path
         style="fill:none;stroke:#231f20;stroke-width:0.22499999;stroke-linecap:butt;stroke-linejoin:miter;stroke-miterlimit:2.61299992"
         d="M 699.04843,396.49977 C 699.66443,396.49977 700.16743,397.00277 700.16743,397.61877 C 700.16743,398.23577 699.66443,398.73777 699.04843,398.73777 C 698.43243,398.73777 697.92943,398.23577 697.92943,397.61877 C 697.92943,397.00277 698.43243,396.49977 699.04843,396.49977 z "
         stroke-miterlimit="2.613"
         id="path3891" />
    </g>
  </g>
</svg>
