<?xml version="1.0" encoding="UTF-8" standalone="no"?>
<!-- Created with Inkscape (http://www.inkscape.org/) -->
<svg
   xmlns:dc="http://purl.org/dc/elements/1.1/"
   xmlns:cc="http://web.resource.org/cc/"
   xmlns:rdf="http://www.w3.org/1999/02/22-rdf-syntax-ns#"
   xmlns:svg="http://www.w3.org/2000/svg"
   xmlns="http://www.w3.org/2000/svg"
   xmlns:sodipodi="http://sodipodi.sourceforge.net/DTD/sodipodi-0.dtd"
   xmlns:inkscape="http://www.inkscape.org/namespaces/inkscape"
   width="615.11798"
   height="71.204002"
   id="svg2210"
   sodipodi:version="0.32"
   inkscape:version="0.45"
   sodipodi:modified="true"
   version="1.0">
  <defs
     id="defs2212" />
  <sodipodi:namedview
     id="base"
     pagecolor="#ffffff"
     bordercolor="#666666"
     borderopacity="1.0"
     gridtolerance="10000"
     guidetolerance="10000"
     objecttolerance="10000"
     inkscape:pageopacity="0.0"
     inkscape:pageshadow="2"
     inkscape:zoom="1.5265364"
     inkscape:cx="307.559"
     inkscape:cy="35.602002"
     inkscape:document-units="px"
     inkscape:current-layer="layer1"
     borderlayer="true"
     gridspacingx="0px"
     gridspacingy="0px"
     gridempspacing="0"
     inkscape:object-bbox="true"
     inkscape:object-points="true"
     inkscape:object-nodes="true"
     inkscape:grid-points="true"
     inkscape:guide-points="true"
     inkscape:window-width="1024"
     inkscape:window-height="742"
     inkscape:window-x="-4"
     inkscape:window-y="-4" />
  <metadata
     id="metadata2215">
    <rdf:RDF>
      <cc:Work
         rdf:about="">
        <dc:format>image/svg+xml</dc:format>
        <dc:type
           rdf:resource="http://purl.org/dc/dcmitype/StillImage" />
      </cc:Work>
    </rdf:RDF>
  </metadata>
  <g
     inkscape:label="Layer 1"
     inkscape:groupmode="layer"
     id="layer1"
     transform="translate(47.559,-431.0459)">
    <path
       style="fill:#003d7b;fill-rule:evenodd"
       id="path5"
       d="M -27.582,431.0459 L 0.445,431.0459 C -6.213,454.2269 -12.873,477.4079 -19.53,500.5899 L -47.559,500.5899 L -27.582,431.0459 L -27.582,431.0459 z M -8.227,484.7499 L -7.598,486.1169 C -7.63,491.9959 -4.564,501.9939 22.357,502.2499 C 22.357,502.2499 46.211,501.4269 53.155,497.5439 L 58.335,484.7539 L 58.429,484.5219 C 58.429,484.5219 58.294,484.5969 58.036,484.7409 L 58.335,484.7549 L 58.036,484.7549 C 55.156,486.3099 36.992,495.7429 22.275,492.2469 C 22.275,492.2469 17.946,491.5179 17.946,487.5779 L 18.197,486.1859 L 24.27,484.7539 L 67.584,474.5479 C 67.584,474.5479 78.127,451.5499 37.896,452.1039 C -2.332,452.6579 -7.599,478.1469 -8.156,483.4149 C -8.196,483.8149 -8.223,484.2619 -8.227,484.7499 L -8.227,484.7499 z M 99.185,484.7539 L 106.294,461.1259 C 106.294,461.1259 123.315,458.6859 121.087,467.4609 L 116.052,484.7539 L 111.44,500.5899 L 139.688,500.5899 L 144.415,484.7539 L 149.679,467.1189 C 149.679,467.1189 153.109,457.4849 141.062,455.0889 C 141.062,455.0889 127.986,451.4929 109.897,452.5189 C 91.809,453.5459 78.904,455.9449 78.904,455.9449 L 70.356,484.7539 L 70.356,484.7539 L 65.658,500.5899 L 94.422,500.5899 L 99.185,484.7539 L 99.185,484.7539 z M 149.922,484.7539 C 149.905,481.5339 150.878,479.1489 150.878,479.1489 C 150.878,479.1489 153.664,453.8899 194.989,452.3489 C 236.312,450.8089 232.026,472.8119 232.026,472.8119 C 232.026,472.8119 231.641,478.4309 227.143,484.7479 C 221.656,492.4559 210.038,501.2019 185.514,502.0459 C 154.836,503.1059 149.97,491.8869 149.922,484.7539 L 149.922,484.7539 z M 199.502,484.7539 C 202.431,479.1579 202.919,472.8119 202.919,472.8119 C 203.604,468.6999 204.804,461.1259 194.989,460.9519 C 185.171,460.7829 182.942,470.5839 182.942,470.5839 L 180.158,478.8079 C 179.565,481.1599 179.314,483.1239 179.314,484.7689 C 179.321,493.6829 186.715,493.1019 186.715,493.1019 C 193.225,493.2509 197.15,489.2479 199.502,484.7539 L 199.502,484.7539 z M 238.337,484.7539 L 234.596,453.8899 L 260.575,453.8899 L 264.36,484.7539 L 264.562,486.3809 L 265.69,484.7539 L 287.11,453.8899 L 314.157,453.8899 L 293.109,484.7539 L 282.308,500.5899 L 240.257,500.5899 L 238.337,484.7539 L 238.337,484.7539 z M 304.116,484.7539 C 304.095,481.5339 305.07,479.1489 305.07,479.1489 C 305.07,479.1489 307.855,453.8899 349.178,452.3489 C 390.501,450.8089 386.215,472.8119 386.215,472.8119 C 386.215,472.8119 385.835,478.4309 381.334,484.7479 C 375.845,492.4559 364.23,501.2019 339.703,502.0459 C 309.024,503.1059 304.16,491.8869 304.116,484.7539 L 304.116,484.7539 z M 353.69,484.7539 C 356.623,479.1579 357.108,472.8119 357.108,472.8119 C 357.795,468.6999 358.998,461.1259 349.178,460.9519 C 339.362,460.7829 337.133,470.5839 337.133,470.5839 L 334.347,478.8079 C 333.753,481.1599 333.503,483.1239 333.507,484.7689 C 333.51,493.6829 340.903,493.1019 340.903,493.1019 C 347.415,493.2509 351.338,489.2479 353.69,484.7539 L 353.69,484.7539 z M 420.792,500.5899 L 410.801,500.5899 L 414.524,489.0429 L 394.228,493.0839 C 394.228,493.0839 394.709,487.7619 393.743,485.5129 L 397.168,484.7539 L 398.084,484.5529 L 408.393,448.9889 L 404.216,448.9889 L 406.465,442.0869 C 406.465,442.0869 422.882,442.8919 440.128,442.0869 L 438.197,448.8289 L 435.305,448.8289 C 433.192,448.8279 422.73,492.3729 420.792,500.5899 L 420.792,500.5899 z M 450.918,484.2309 C 450.918,484.2309 450.932,484.4169 450.99,484.7609 L 450.99,484.7609 C 451.348,486.9489 453.392,495.3729 463.824,501.6119 C 463.824,501.6119 470.113,495.3269 471.881,494.8479 C 471.881,494.8479 464.067,492.9639 460.137,484.7369 L 460.126,484.7369 C 459.043,482.4479 458.256,479.6819 458.01,476.3419 L 475.254,476.3419 L 477.186,469.0959 L 458.497,469.0959 L 461.549,458.8019 L 478.15,458.8019 L 479.918,451.9009 L 470.412,451.9009 L 478.15,442.8909 C 478.15,442.8909 472.339,441.9029 469.927,439.8169 C 469.927,439.8169 463.477,449.6549 458.336,451.9009 L 453.995,439.6559 L 444.329,442.7289 C 444.329,442.7289 447.542,449.1709 448.184,452.0599 L 437.875,452.0599 L 435.783,458.9619 L 451.745,458.9619 L 448.666,469.4179 L 432.249,469.4179 L 430.137,476.5029 L 445.774,476.5029 C 445.774,476.5029 444.431,480.4469 440.425,484.7469 C 436.963,488.4549 431.514,492.4309 423.229,494.3649 C 423.229,494.3649 426.6,499.8439 426.924,501.2899 C 426.924,501.2899 441.781,496.3789 450.293,485.0889 C 450.528,484.7749 450.692,484.5449 450.918,484.2309 L 450.918,484.2309 z M 485.066,484.7539 C 485.804,483.5709 486.523,482.3159 487.169,481.0179 L 487.815,479.7129 C 487.815,479.7129 493.626,481.9829 496.678,482.3029 C 496.108,483.2839 495.495,484.2409 494.894,485.1989 C 492.385,489.1749 487.716,496.0649 484.121,498.5359 C 484.121,498.5359 479.114,494.8479 477.025,494.8479 C 477.024,494.8479 481.379,490.6259 485.066,484.7539 L 485.066,484.7539 z M 499.487,484.7539 L 500.376,481.6639 L 510.521,481.6639 L 509.588,484.7539 L 507.95,490.1679 C 507.95,490.1679 505.886,493.2399 511.672,493.5629 L 526.479,493.5629 C 526.479,493.5629 531.808,492.8989 533.257,487.1199 C 533.257,487.1199 540.192,489.8499 542.438,490.0089 L 537.434,496.9329 C 537.434,496.9329 534.221,501.2909 525.519,501.2909 L 507.471,501.2909 C 507.471,501.2909 497.805,501.1059 496.52,498.2179 C 496.52,498.2179 496.035,495.8329 497.644,491.1569 L 499.487,484.7539 L 499.487,484.7539 z M 529.043,484.7609 C 531.455,483.7079 534.457,482.9459 538.076,482.9459 C 538.076,482.9459 526.742,480.6669 516.809,484.7549 C 514.868,485.5519 513.244,486.6079 511.511,487.7629 C 511.511,487.7629 518.238,487.7839 521.157,490.9959 C 521.157,490.9949 523.625,487.1399 529.043,484.7609 L 529.043,484.7609 z M 554.195,484.7539 L 551.461,479.8689 C 551.461,479.8689 544.69,483.1059 543.565,483.4239 L 541.798,483.9099 C 541.798,483.9099 542.023,484.2139 542.402,484.7579 L 542.405,484.7579 C 544.125,487.1949 548.951,494.3339 550.154,499.3419 L 559.659,494.5259 L 554.195,484.7539 L 554.195,484.7539 z M 18.804,482.7849 L 44.825,469.6869 C 44.825,469.6869 47.395,459.5409 35.521,459.7129 C 23.648,459.8829 21.891,470.4119 21.891,470.4119 L 18.804,482.7849 L 18.804,482.7849 z M 417.576,448.8279 L 426.121,448.8279 L 424.029,455.7529 L 415.487,455.7529 L 417.576,448.8279 L 417.576,448.8279 z M 413.716,461.6919 L 422.261,461.6919 L 420.173,468.6149 L 411.631,468.6149 L 413.716,461.6919 L 413.716,461.6919 z M 410.346,474.5779 L 418.884,474.5779 L 416.775,481.8239 L 407.587,483.2669 L 410.346,474.5779 L 410.346,474.5779 z M 507.789,439.3359 L 506.022,447.3819 C 506.022,447.3819 492.364,447.7029 491.537,447.2209 L 489.261,454.4669 L 502.649,454.4669 C 502.649,454.4669 494.751,462.8119 483.478,467.0089 C 483.478,467.0089 487.333,470.8829 487.655,473.9319 C 487.655,473.9319 497.462,468.4539 501.016,465.2449 C 501.016,465.2449 498.127,475.6979 496.999,477.7869 L 507.311,477.7869 C 507.311,477.7869 509.055,468.6359 510.685,463.6389 C 510.685,463.6389 512.637,466.1819 512.797,469.2559 C 512.797,469.2559 518.238,465.0839 520.672,464.9249 C 520.672,464.9249 518.608,459.4679 513.925,454.3049 L 521.663,454.3049 L 523.748,447.0589 L 515.367,447.0589 L 517.78,439.3339 L 507.789,439.3339 L 507.789,439.3359 z M 519.708,477.1459 C 519.708,477.1459 552.244,476.3419 557.572,477.1459 C 557.572,477.1459 563.034,452.5429 567.559,441.9269 C 567.559,441.9269 530.662,442.2459 529.855,441.7659 L 519.708,477.1459 L 519.708,477.1459 z M 537.433,448.6669 L 555.484,448.6669 L 554.195,453.0249 L 535.988,453.0249 L 537.433,448.6669 L 537.433,448.6669 z M 535.023,457.3559 L 553.074,457.3559 L 551.785,461.7169 L 533.578,461.7169 L 535.023,457.3559 L 535.023,457.3559 z M 532.614,465.8629 L 550.661,465.8629 L 549.376,470.2169 L 531.168,470.2169 L 532.614,465.8629 L 532.614,465.8629 z "
       clip-rule="evenodd" />
  </g>
</svg>
