<?xml version="1.0" encoding="UTF-8" standalone="no"?>
<!-- Generator: Adobe Illustrator 14.0.0, SVG Export Plug-In . SVG Version: 6.00 Build 43363)  -->
<svg xmlns:dc="http://purl.org/dc/elements/1.1/" xmlns:cc="http://creativecommons.org/ns#" xmlns:rdf="http://www.w3.org/1999/02/22-rdf-syntax-ns#" xmlns:svg="http://www.w3.org/2000/svg" xmlns="http://www.w3.org/2000/svg" xmlns:sodipodi="http://sodipodi.sourceforge.net/DTD/sodipodi-0.dtd" xmlns:inkscape="http://www.inkscape.org/namespaces/inkscape" version="1.2" id="Capa_1" x="0px" y="0px" width="192.756" height="50" viewBox="0 0 192.756 50" xml:space="preserve" inkscape:version="0.47 r22583" sodipodi:docname="Logo Lexmark.svg"><metadata id="metadata23"><rdf:RDF><cc:Work rdf:about=""><dc:format>image/svg+xml</dc:format><dc:type rdf:resource="http://purl.org/dc/dcmitype/StillImage"/></cc:Work></rdf:RDF></metadata><defs id="defs21"><inkscape:perspective sodipodi:type="inkscape:persp3d" inkscape:vp_x="0 : 396 : 1" inkscape:vp_y="0 : 1000 : 0" inkscape:vp_z="612 : 396 : 1" inkscape:persp3d-origin="306 : 264 : 1" id="perspective25"/></defs><sodipodi:namedview pagecolor="#ffffff" bordercolor="#666666" borderopacity="1" objecttolerance="10" gridtolerance="10" guidetolerance="10" inkscape:pageopacity="0" inkscape:pageshadow="2" inkscape:window-width="1280" inkscape:window-height="968" id="namedview19" showgrid="false" borderlayer="true" showborder="true" inkscape:zoom="2" inkscape:cx="97" inkscape:cy="47.25608" inkscape:window-x="-4" inkscape:window-y="-4" inkscape:window-maximized="1" inkscape:current-layer="g3"/>
<g id="g3" transform="translate(-209.5,-371.25592)">
	<polygon points="401.756,492.756 209,492.756 209,300 209,300 401.756,300 " id="polygon5" style="fill:#ffffff;fill-rule:evenodd;fill-opacity:0" transform="matrix(1,0,0,0.62387681,0,185.33696)"/>
	<path style="fill:#fd1813;fill-rule:evenodd" d="m 324.548,392.041 6.168,13.129 0,0 0,0 0,0 -6.168,13.129 -6.152,-13.24 z" id="polygon7"/>
	<path d="m 226.147,403.235 c 0,-8.118 0,-16.442 0,-24.783 0,-1.475 0.919,-2.965 2.743,-2.854 l 0,0 v -1.142 h -11.527 v 1.142 l 0,0 c 2.045,-0.111 2.727,1.712 2.727,3.314 0,7.42 0,14.841 0,22.15 0,1.475 -1.015,2.965 -2.727,2.854 l 0,0 v 1.142 h 18.948 l 1.475,-8.229 h -1.015 l 0,0 c -1.27,4.916 -5.835,7.548 -10.624,6.406 l 0,0 0,0 0,0 z" id="path9" style="fill-rule:evenodd;fill:#000000;fill-opacity:1"/>
	<path d="m 259.365,398.542 c -2.395,4.566 -8.103,5.137 -12.669,4.804 l 0,0 v -9.814 l 0,0 c 3.203,0 6.168,1.142 6.739,4.789 l 0,0 h 1.142 v -10.386 h -1.142 l 0,0 c -0.571,3.647 -3.884,3.996 -6.739,3.996 l 0,0 v -9.593 h 5.708 l 0,0 c 2.964,0 5.248,2.632 5.93,5.359 l 0,0 h 1.142 v -6.961 l -21.564,-0.111 v 1.142 l 0,0 c 2.045,-0.111 2.616,2.062 2.616,3.425 l 0,0 0.11,15.634 0,0 c 0,1.03 -0.333,1.84 -0.903,2.632 -0.571,0.349 -1.252,0.46 -1.823,0.46 l 0,0 v 1.142 h 21.342 l 1.491,-6.517 h -1.38 l 0,-0.001 0,0 z" id="path11" style="fill-rule:evenodd"/>
	<path d="m 390.079,402.315 -10.163,-11.875 5.264,-4.9 0,0 c 1.364,-1.141 2.728,-2.41 4.218,-3.313 0.571,-0.349 1.253,-0.46 1.935,-0.46 l 0,0 v -1.142 l -9.244,0.111 v 1.252 h 1.491 l 0,0 c 0.332,0 0.459,0 0.682,0.238 0.349,0.904 -0.682,1.602 -1.142,2.045 l 0,0 -8.452,8.119 8.452,10.275 0,0 c 0.11,0.11 0.222,0.221 0.349,0.332 l 0,0 v 0.349 l -0.349,0.333 0,0 c -0.682,0.238 -1.49,0.238 -2.173,0.238 l 0,0 v 1.142 h 12.447 v -1.142 l 0,0 c -1.491,0 -2.506,-0.571 -3.315,-1.602 l 0,0 0,0 0,0 z" id="path13" style="fill-rule:evenodd"/>
	<path d="m 301.604,395.814 -6.279,-15.079 h -18.947 v 1.031 l 0,0 c 0.92,0 1.712,0.111 2.505,0.349 0,1.015 -0.904,1.934 -1.585,2.727 l 0,0 -3.425,4.233 -3.425,-5.375 0,0 c -0.127,-0.111 -0.46,-0.682 -0.46,-1.142 0,-0.904 2.045,-0.793 2.617,-0.793 l 0,0 v -1.031 h -12.209 v 1.142 h 1.142 l 0,0 c 0.919,0 1.363,0.809 1.823,1.491 l 0,0 6.85,10.274 -7.072,9.022 0,0 c -0.459,0.681 -1.712,1.252 -2.743,1.252 l 0,0 v 1.142 h 8.673 l -0.111,-1.142 0,0 c -0.682,0 -1.252,0 -1.935,-0.111 l 0,0 -0.349,-0.237 -0.222,-0.46 0,0 c 0.222,-0.793 0.682,-1.475 1.142,-2.045 l 0,0 4.329,-5.249 3.663,5.708 0,0 c 0.111,0.111 0.571,0.904 0.682,1.143 0,0 0.111,0.221 0.111,0.332 l 0,0 -0.111,0.349 -0.238,0.333 0,0 c -0.793,0.238 -1.585,0.238 -2.395,0.238 l 0,0 v 1.142 h 20.216 v -1.142 l 0,0 c -0.46,0 -0.92,-0.111 -1.379,-0.238 l 0,0 -0.333,-0.333 0,0 c -0.571,-0.681 -0.809,-1.601 -0.698,-2.521 l 0,0 V 384.97 l 8.452,20.089 h 1.03 l 8.213,-20.66 v 16.886 l 0,0 c 0,1.49 -1.142,2.743 -2.616,2.632 l 0,0 v 1.142 h 10.497 v -1.142 l 0,0 c -1.602,0.111 -2.617,-1.252 -2.617,-2.743 l 0,0 v -16.442 l 0,0 c 0,-1.712 0.793,-2.965 2.617,-2.965 l 0,0 v -1.031 h -9.467 l -5.946,15.078 0,0 0,0 z m -12.89,4.678 c 0,0.222 0,0.333 0,0.46 -0.127,0.443 0,0.903 -0.127,1.252 -0.11,0.571 -0.57,1.142 -1.014,1.475 -1.839,0.698 -3.774,0 -4.693,-1.363 l 0,0 -7.531,-10.956 5.819,-7.421 0,0 c 1.269,-1.491 2.854,-2.172 4.804,-2.172 1.823,0 2.743,0.793 2.743,2.632 l 0,0 v 16.093 l -10e-4,0 0,0 z" id="path15" style="fill-rule:evenodd"/>
	<path d="m 377.41,381.767 v -1.142 h -11.416 l -0.11,1.142 0,0 c 1.712,-0.111 2.854,1.364 2.854,2.854 l 0,0 v 16.093 l 0,0 c 0,0.92 -0.349,1.713 -0.809,2.521 -1.142,1.253 -2.506,0.443 -3.298,-0.57 l 0,0 -6.85,-9.593 0,0 c 1.935,-0.349 3.869,-1.142 5.248,-2.743 0.683,-0.919 1.142,-1.934 1.142,-2.964 0,-4.916 -5.708,-6.628 -9.814,-6.628 l 0,0 h -12.114 v 1.142 l 0,0 c 1.38,0 2.633,0.571 2.633,2.172 l 0,0 v 17.917 l 0,0 c 0,1.142 -0.793,1.95 -1.935,1.95 -1.142,0 -2.172,-0.92 -2.521,-1.95 l 0,0 -9.926,-22.833 -3.313,6.977 7.42,16.204 0,0 c 0.793,1.713 -1.49,1.602 -2.505,1.602 l 0,0 v 1.142 h 21.564 v -1.142 l 0,0 c -1.713,0 -2.728,-0.92 -2.728,-2.743 l 0,0 v -18.947 l 0,0 c 3.868,0 6.96,0.682 6.96,5.359 0,3.663 -3.092,5.597 -6.738,5.026 l 0,0 8.451,12.447 h 17.806 v -1.142 l 0,0 c -0.682,0 -1.362,-0.238 -2.061,-0.682 -0.222,-0.57 -0.683,-1.269 -0.683,-1.95 l 0,0 v -8.895 -8.229 l 0,0 c 0,-1.365 1.381,-2.506 2.743,-2.395 l 0,0 0,0 0,0 z" id="path17" style="fill-rule:evenodd"/>
</g>
</svg>