<?xml version="1.0" encoding="UTF-8" standalone="no"?>
<svg
   xmlns:dc="http://purl.org/dc/elements/1.1/"
   xmlns:cc="http://creativecommons.org/ns#"
   xmlns:rdf="http://www.w3.org/1999/02/22-rdf-syntax-ns#"
   xmlns:svg="http://www.w3.org/2000/svg"
   xmlns="http://www.w3.org/2000/svg"
   xmlns:sodipodi="http://sodipodi.sourceforge.net/DTD/sodipodi-0.dtd"
   xmlns:inkscape="http://www.inkscape.org/namespaces/inkscape"
   version="1.1"
   id="Layer_1"
   x="0px"
   y="0px"
   width="606"
   height="107"
   viewBox="0 0 605.99998 107"
   enable-background="new 0 0 666.142 870.236"
   xml:space="preserve">
<path
   style="fill:#231f20;fill-rule:evenodd"
   inkscape:connector-curvature="0"
   clip-rule="evenodd"
   d="m 580.76445,50.553024 h -44.43289 c 0.54202,-5.565314 4.47274,-11.134897 11.57022,-11.134897 h 52.40529 V 28.718555 h -54.80384 c -21.83874,0 -30.78848,16.597781 -30.78848,32.53831 h 61.1331 c 2.07419,0 6.99079,0.435323 6.99079,5.454349 0,5.023294 -4.25508,5.462886 -11.57022,5.67628 H 507.5063 V 28.718555 h -18.77013 v 43.668939 h -35.81604 c -10.80627,0 -12.00554,-7.968131 -12.00554,-12.227474 V 28.718555 H 406.74168 L 378.9023,47.279561 353.79437,28.718555 h -73.25814 c -21.83447,0 -34.93686,15.176578 -36.79339,28.385663 h 15.09976 c -6.03479,4.071557 -10.3112,9.585657 -12.63719,15.266204 l -42.63612,0.01707 c -10.81053,0 -12.00981,-7.968131 -12.00981,-12.227474 V 28.718555 h -18.7744 v 29.806867 c 0,20.524231 14.41263,24.561644 21.39915,24.561644 h 150.11411 l 28.0613,-18.7744 25.4323,18.7744 h 29.5892 L 387.98008,54.048417 420.39889,32.320645 v 28.71429 c 0,18.561006 18.12568,22.052131 23.14471,22.052131 h 137.01599 c 6.76886,0 25.43656,-0.874915 25.43656,-15.718598 -0.0128,-14.847952 -13.76391,-16.815444 -25.2317,-16.815444 M 341.234,72.391761 h -70.6334 c 0.54202,-5.565314 6.65789,-11.130628 13.75111,-11.130628 h 41.70571 V 50.557292 h -56.99325 c 0.54628,-5.565314 6.66642,-11.134897 13.76391,-11.134897 h 47.59538 V 33.199828 L 363.3971,57.659043 341.234,72.391761 z"
   id="path3"
   clip-path="none" /><path
   style="fill:#231f20;fill-rule:evenodd"
   inkscape:connector-curvature="0"
   id="path13"
   d="m 74.465951,106.99999 c 24.655537,0 46.519879,-8.612577 60.078929,-21.868609 l -12.21467,0.05121 c -11.54461,9.713693 -28.428338,15.825295 -47.56124,15.825295 -35.692273,0 -63.557255,-21.271109 -63.557255,-47.510029 0,-30.263531 27.860714,-47.5057626 63.557255,-47.5057626 2.266244,0.00854 4.08436,1.0541661 2.722907,3.0173905 C 70.078571,17.94216 48.965373,46.673522 45.111478,52.89609 37.514654,65.17051 37.693904,80.28307 56.310393,81.341504 H 134.5833 c 3.999,0 5.01475,-1.877867 6.4573,-3.832556 5.24522,-7.084679 7.90838,-15.3729 7.90411,-24.011087 C 148.92764,30.950655 133.0554,14.049854 109.7101,5.7360256 l -3.6149,5.3988674 c 19.40178,7.157233 32.23103,21.621075 32.23103,42.362968 0,3.606357 -0.52495,7.114554 -1.52364,10.486179 -0.86211,2.927765 -2.56072,5.407402 -5.77444,5.407402 H 68.55067 c -8.002273,0 -4.912329,-8.254078 -1.95042,-12.257348 4.297754,-7.70779 27.839375,-39.797973 33.51139,-45.777272 1.44681,-2.1894216 5.49702,-6.7347128 -0.0854,-8.4717396 C 92.053881,0.99441193 83.445568,-3.8996999e-6 74.470219,-3.8996999e-6 33.340668,-3.8996999e-6 0.02133563,21.117462 -3.7642994e-6,53.497861 -0.02561104,86.185547 33.3364,106.99999 74.465951,106.99999"
   clip-rule="evenodd"
   clip-path="none" />
</svg>