<?xml version="1.0" encoding="UTF-8" standalone="no"?>
<!-- Created with Inkscape (http://www.inkscape.org/) -->
<svg
   xmlns:svg="http://www.w3.org/2000/svg"
   xmlns="http://www.w3.org/2000/svg"
   version="1.0"
   width="256.086"
   height="38.102314"
   id="svg2">
  <defs
     id="defs81">


















</defs>
  <title
     id="title4">generated by pstoedit version:3.45 from C:/DOCUME~1/BCCL/LOCALS~1/Temp/gsviewa00616</title>
  <g
     transform="translate(-150.84011,-100.54519)"
     id="g8"
     style="fill:#ffffff;fill-rule:evenodd;stroke-width:0;stroke-linecap:butt;stroke-linejoin:miter;stroke-miterlimit:2.61310005">
	<path
   d="M 201.262,274.676 L 394.016,274.676 L 394.016,467.434 L 201.262,467.434 L 201.262,274.676 z"
   id="path10" />

</g>
  <g
     transform="matrix(1.3688143,0,0,1.3688143,-78.085901,-389.92925)"
     id="g2494">
    <g
       transform="translate(-147.04762,-72.270563)"
       id="g12"
       style="fill:#993333;fill-rule:evenodd;stroke-width:0;stroke-linecap:butt;stroke-linejoin:miter;stroke-miterlimit:2.61310005">
	<path
   d="M 204.094,357.137 L 231.934,357.137 L 231.934,384.973 L 204.094,384.973 L 204.094,357.137 z"
   id="path14" />

</g>
    <g
       transform="translate(-147.04762,-72.270563)"
       id="g16"
       style="fill:#ffffff;fill-rule:evenodd;stroke-width:0;stroke-linecap:butt;stroke-linejoin:miter;stroke-miterlimit:2.61310005">
	<path
   d="M 205.047,371.141 C 205.047,364.027 210.813,358.262 217.926,358.262 C 225.039,358.262 230.809,364.027 230.809,371.141 C 230.809,378.254 225.039,384.02 217.926,384.02 C 210.813,384.02 205.047,378.254 205.047,371.141 z"
   id="path18" />

</g>
    <g
       transform="translate(-147.04762,-72.270563)"
       id="g20"
       style="fill:#993333;fill-rule:evenodd;stroke-width:0;stroke-linecap:butt;stroke-linejoin:miter;stroke-miterlimit:2.61310005">
	<path
   d="M 239.922,370.109 C 239.922,380.336 250.406,381.367 250.406,381.367 L 266,381.367 L 266,367.617 L 253.582,367.617 L 253.582,371.484 L 259.34,371.484 L 259.34,377.328 L 253.582,377.328 C 246.711,377.328 247.055,370.367 247.055,370.367 C 247.227,364.781 253.754,363.836 253.754,363.836 L 265.742,363.836 L 265.742,359.543 L 251.262,359.543 C 251.262,359.543 239.922,360.574 239.922,370.109 z"
   id="path22" />

</g>
    <g
       transform="translate(-147.04762,-72.270563)"
       id="g24"
       style="fill:#993333;fill-rule:evenodd;stroke-width:0;stroke-linecap:butt;stroke-linejoin:miter;stroke-miterlimit:2.61310005">
	<path
   d="M 267.004,373.203 C 267.004,368.172 271.574,364.09 277.211,364.09 C 282.848,364.09 287.418,368.172 287.418,373.203 C 287.418,378.234 282.848,382.316 277.211,382.316 C 271.574,382.316 267.004,378.234 267.004,373.203 z"
   id="path26" />

</g>
    <g
       transform="translate(-147.04762,-72.270563)"
       id="g28"
       style="fill:#ffffff;fill-rule:evenodd;stroke-width:0;stroke-linecap:butt;stroke-linejoin:miter;stroke-miterlimit:2.61310005">
	<path
   d="M 273.324,373.203 C 273.324,370.922 275.063,369.07 277.211,369.07 C 279.359,369.07 281.098,370.922 281.098,373.203 C 281.098,375.484 279.359,377.336 277.211,377.336 C 275.063,377.336 273.324,375.484 273.324,373.203 z"
   id="path30" />

</g>
    <g
       transform="translate(-147.04762,-72.270563)"
       id="g32"
       style="fill:#993333;fill-rule:evenodd;stroke-width:0;stroke-linecap:butt;stroke-linejoin:miter;stroke-miterlimit:2.61310005">
	<path
   d="M 288.121,359.543 L 294.223,359.543 L 294.223,381.367 L 288.121,381.367 L 288.121,359.543 z"
   id="path34" />

</g>
    <g
       transform="translate(-147.04762,-72.270563)"
       id="g36"
       style="fill:#993333;fill-rule:evenodd;stroke-width:0;stroke-linecap:butt;stroke-linejoin:miter;stroke-miterlimit:2.61310005">
	<path
   d="M 308.828,377.414 L 308.828,359.543 L 314.93,359.543 L 314.93,381.367 L 304.617,381.367 C 304.617,381.367 295.34,380.766 295.34,373.418 C 295.34,366.07 303.543,365.105 307.625,365.105 L 307.625,369.488 C 307.625,369.488 302.082,368.82 302.082,373.246 C 302.082,377.672 307.883,377.414 308.828,377.414 C 308.828,377.414 307.883,377.414 308.828,377.414 z"
   id="path38" />

</g>
    <g
       transform="translate(-147.04762,-72.270563)"
       id="g40"
       style="fill:#993333;fill-rule:evenodd;stroke-width:0;stroke-linecap:butt;stroke-linejoin:miter;stroke-miterlimit:2.61310005">
	<path
   d="M 316.262,366.07 C 316.262,372.129 321.328,372.473 321.328,372.473 L 327.43,372.473 C 327.43,372.473 329.707,372.344 329.707,374.965 C 329.707,377.414 327.43,377.414 327.43,377.414 L 317.293,377.414 L 317.293,381.367 L 330.352,381.367 C 330.352,381.367 336.496,380.637 336.496,374.879 C 336.496,369.121 331.211,368.434 331.211,368.434 L 324.594,368.434 C 324.594,368.434 322.359,368.262 322.359,366.07 C 322.359,363.883 324.336,363.582 324.336,363.582 L 335.121,363.582 L 335.121,359.543 L 322.961,359.543 C 322.961,359.543 316.262,359.629 316.262,366.07 z"
   id="path42" />

</g>
    <g
       transform="translate(-147.04762,-72.270563)"
       id="g44"
       style="fill:#993333;fill-rule:evenodd;stroke-width:0;stroke-linecap:butt;stroke-linejoin:miter;stroke-miterlimit:2.61310005">
	<path
   d="M 343.625,364.266 L 343.625,359.543 L 337.523,359.543 L 337.523,377.07 C 337.523,377.07 337.91,381.367 342.293,381.367 L 351.574,381.367 L 351.574,377.414 L 345.129,377.414 C 345.129,377.414 343.625,377.457 343.625,375.566 L 343.625,369.379 L 351.273,369.379 L 351.273,365.082 L 344.141,365.082 C 344.141,365.082 343.625,365.039 343.625,364.266 C 343.625,364.266 343.625,365.039 343.625,364.266 z"
   id="path46" />

</g>
    <g
       transform="translate(-147.04762,-72.270563)"
       id="g48"
       style="fill:#993333;fill-rule:evenodd;stroke-width:0;stroke-linecap:butt;stroke-linejoin:miter;stroke-miterlimit:2.61310005">
	<path
   d="M 365.621,381.367 L 371.723,381.367 L 371.723,365.082 L 358.832,365.082 C 358.832,365.082 351.316,365.555 351.316,373.16 C 351.316,380.766 359.219,381.367 359.348,381.367 L 364.16,381.367 L 364.16,377.414 L 361.883,377.414 C 361.883,377.414 358.102,377.457 358.102,373.074 C 358.102,368.691 362.656,369.078 362.656,369.078 L 364.59,369.078 C 364.59,369.078 365.621,369.121 365.621,370.238 L 365.621,381.367 z"
   id="path50" />

</g>
    <g
       transform="translate(-147.04762,-72.270563)"
       id="g52"
       style="fill:#993333;fill-rule:evenodd;stroke-width:0;stroke-linecap:butt;stroke-linejoin:miter;stroke-miterlimit:2.61310005">
	<path
   d="M 380.656,370.109 L 380.656,381.367 L 374.555,381.367 L 374.555,370.109 C 374.555,364.012 380.613,363.969 380.613,363.969 L 391.18,363.969 L 391.18,368.434 L 381.859,368.434 C 381.859,368.434 380.656,368.477 380.656,370.109 C 380.656,370.109 380.656,368.477 380.656,370.109 z"
   id="path54" />

</g>
    <g
       transform="translate(-147.04762,-72.270563)"
       id="g56"
       style="fill:#993333;fill-rule:evenodd;stroke-width:0;stroke-linecap:butt;stroke-linejoin:miter;stroke-miterlimit:2.61310005">
	<path
   d="M 210.324,378.316 C 210.324,380.871 212.945,381.129 212.945,381.129 L 216.844,381.129 L 216.844,377.691 L 213.738,377.691 L 213.738,378.66 L 215.18,378.66 L 215.18,380.121 L 213.738,380.121 C 212.02,380.121 212.105,378.379 212.105,378.379 C 212.148,376.984 213.781,376.746 213.781,376.746 L 216.777,376.746 L 216.777,375.672 L 213.16,375.672 C 213.16,375.672 210.324,375.93 210.324,378.316 C 210.324,378.316 210.324,375.93 210.324,378.316 z"
   id="path58" />

</g>
    <g
       transform="translate(-147.04762,-72.270563)"
       id="g60"
       style="fill:#993333;fill-rule:evenodd;stroke-width:0;stroke-linecap:butt;stroke-linejoin:miter;stroke-miterlimit:2.61310005">
	<path
   d="M 218.109,377.305 C 218.109,378.82 219.379,378.906 219.379,378.906 L 222.254,378.906 C 222.254,378.906 222.824,378.875 222.824,379.527 C 222.824,380.141 222.254,380.141 222.254,380.141 L 218.367,380.141 L 218.367,381.129 L 222.984,381.129 C 222.984,381.129 224.523,380.945 224.523,379.508 C 224.523,378.066 223.199,377.895 223.199,377.895 L 220.195,377.895 C 220.195,377.895 219.637,377.852 219.637,377.305 C 219.637,376.758 220.129,376.684 220.129,376.684 L 224.137,376.684 L 224.137,375.672 L 219.785,375.672 C 219.785,375.672 218.109,375.695 218.109,377.305 C 218.109,377.305 218.109,375.695 218.109,377.305 z"
   id="path62" />

</g>
    <g
       transform="translate(-147.04762,-72.270563)"
       id="g64"
       style="fill:#993333;fill-rule:evenodd;stroke-width:0;stroke-linecap:butt;stroke-linejoin:miter;stroke-miterlimit:2.61310005">
	<path
   d="M 225.012,364.734 C 225.191,364.812 225.387,364.859 225.594,364.859 C 226.383,364.859 227.023,364.219 227.023,363.43 C 227.023,362.641 226.383,362.004 225.594,362.004 C 224.809,362.004 224.168,362.641 224.168,363.43 C 224.168,363.801 224.313,364.141 224.543,364.395 L 219.73,369.25 L 218.223,361.488 C 218.848,361.336 219.313,360.773 219.313,360.102 C 219.313,359.312 218.672,358.672 217.883,358.672 L 217.969,358.672 C 217.184,358.672 216.543,359.312 216.543,360.102 C 216.543,360.773 217.008,361.336 217.633,361.488 L 216.121,369.25 L 211.313,364.395 C 211.543,364.141 211.688,363.801 211.688,363.43 C 211.688,362.641 211.047,362.004 210.258,362.004 C 209.469,362.004 208.832,362.641 208.832,363.43 C 208.832,364.219 209.469,364.859 210.258,364.859 C 210.469,364.859 210.664,364.812 210.844,364.734 L 210.883,364.824 L 213.59,371.484 L 208.609,371.535 C 208.484,370.875 207.906,370.379 207.207,370.379 C 206.422,370.379 205.781,371.02 205.781,371.809 C 205.781,372.594 206.422,373.234 207.207,373.234 C 207.84,373.234 208.375,372.824 208.563,372.258 L 208.52,372.387 L 214.75,374.578 L 221.105,374.578 L 227.336,372.387 L 227.289,372.258 C 227.48,372.824 228.016,373.234 228.645,373.234 C 229.434,373.234 230.074,372.594 230.074,371.809 C 230.074,371.02 229.434,370.379 228.645,370.379 C 227.949,370.379 227.371,370.875 227.242,371.535 L 222.266,371.484 L 224.973,364.824 L 225.012,364.734 z"
   id="path66" />

</g>
    <g
       transform="translate(-147.04762,-72.270563)"
       id="g68"
       style="fill:#ffffff;fill-rule:evenodd;stroke-width:0;stroke-linecap:butt;stroke-linejoin:miter;stroke-miterlimit:2.61310005">
	<path
   d="M 214.211,372.43 L 211.57,372.172 L 214.211,373.762 L 214.211,372.43 z"
   id="path70" />

</g>
    <g
       transform="translate(-147.04762,-72.270563)"
       id="g72"
       style="fill:#ffffff;fill-rule:evenodd;stroke-width:0;stroke-linecap:butt;stroke-linejoin:miter;stroke-miterlimit:2.61310005">
	<path
   d="M 221.645,372.43 L 224.285,372.172 L 221.645,373.762 L 221.645,372.43 z"
   id="path74" />

</g>
    <g
       transform="translate(-147.04762,-72.270563)"
       id="g76"
       style="fill:#ffffff;fill-rule:evenodd;stroke-width:0;stroke-linecap:butt;stroke-linejoin:miter;stroke-miterlimit:2.61310005">
	<path
   d="M 217.926,364.996 L 219.043,370.281 L 217.926,371.656 L 216.809,370.281 L 217.926,364.996 z"
   id="path78" />

</g>
  </g>
</svg>
