<?xml version="1.0" encoding="UTF-8" standalone="no"?>
<!-- Created with Inkscape (http://www.inkscape.org/) -->

<svg
   xmlns:dc="http://purl.org/dc/elements/1.1/"
   xmlns:cc="http://creativecommons.org/ns#"
   xmlns:rdf="http://www.w3.org/1999/02/22-rdf-syntax-ns#"
   xmlns:svg="http://www.w3.org/2000/svg"
   xmlns="http://www.w3.org/2000/svg"
   xmlns:sodipodi="http://sodipodi.sourceforge.net/DTD/sodipodi-0.dtd"
   xmlns:inkscape="http://www.inkscape.org/namespaces/inkscape"
   width="287.64001"
   height="287.64001"
   id="svg2"
   version="1.1"
   inkscape:version="0.48.4 r9939"
   sodipodi:docname="Liberty_Media.svg">
  <defs
     id="defs4">
    <clipPath
       id="clipPath3171"
       clipPathUnits="userSpaceOnUse">
      <path
         id="path3173"
         d="m 107.5,213.06 379,0 0,379 -379,0 0,-379 z"
         inkscape:connector-curvature="0" />
    </clipPath>
    <clipPath
       id="clipPath2999"
       clipPathUnits="userSpaceOnUse">
      <path
         id="path3001"
         d="m 107.5,213.06 379,0 0,379 -379,0 0,-379 z"
         inkscape:connector-curvature="0" />
    </clipPath>
  </defs>
  <sodipodi:namedview
     id="base"
     pagecolor="#ffffff"
     bordercolor="#666666"
     borderopacity="1.0"
     inkscape:pageopacity="0.0"
     inkscape:pageshadow="2"
     inkscape:zoom="0.1767767"
     inkscape:cx="705.92314"
     inkscape:cy="433.56466"
     inkscape:document-units="px"
     inkscape:current-layer="layer1"
     showgrid="false"
     fit-margin-top="0"
     fit-margin-left="0"
     fit-margin-right="0"
     fit-margin-bottom="0"
     inkscape:window-width="1366"
     inkscape:window-height="706"
     inkscape:window-x="-8"
     inkscape:window-y="-8"
     inkscape:window-maximized="1" />
  <metadata
     id="metadata7">
    <rdf:RDF>
      <cc:Work
         rdf:about="">
        <dc:format>image/svg+xml</dc:format>
        <dc:type
           rdf:resource="http://purl.org/dc/dcmitype/StillImage" />
        <dc:title />
      </cc:Work>
    </rdf:RDF>
  </metadata>
  <g
     inkscape:label="Layer 1"
     inkscape:groupmode="layer"
     id="layer1"
     transform="translate(-173.63879,-348.03372)">
    <g
       id="g4135"
       transform="translate(0.625,-0.6250045)">
      <path
         id="path3003"
         style="fill:#ffffff;fill-opacity:1;fill-rule:nonzero;stroke:#000000;stroke-width:1.25;stroke-opacity:1"
         d="m 316.83324,635.67367 c 79.08197,0 143.19444,-64.11248 143.19444,-143.1952 0,-79.08274 -64.11247,-143.19369 -143.19444,-143.19369 -79.08197,0 -143.19445,64.11095 -143.19445,143.19369 0,79.08272 64.11248,143.1952 143.19445,143.1952"
         inkscape:connector-curvature="0" />
      <path
         id="path3005"
         style="fill:#ffffff;fill-opacity:1;fill-rule:nonzero;stroke:none"
         d="m 195.11493,540.68574 c 26.27278,67.00894 101.89231,100.03307 168.89974,73.76031 C 431.02286,588.17403 464.04622,512.55297 437.77344,445.54629 411.50143,378.53887 335.88189,345.51476 268.87371,371.78752 201.86704,398.05953 168.84292,473.67984 195.11493,540.68574"
         inkscape:connector-curvature="0" />
      <path
         id="path3007"
         style="fill:#000000;fill-opacity:1;fill-rule:nonzero;stroke:none"
         d="m 315.63692,492.26481 -104.92895,-7.89237 0,0.0295 c -0.44625,-0.0258 -0.89856,-0.0379 -1.35618,-0.0356 -7.20215,0.0409 -12.986,3.63516 -12.91856,8.02646 0.0666,4.39054 5.96113,7.9166 13.16328,7.87569 0.45837,-0.002 0.91068,-0.0197 1.35467,-0.0507 l 0.001,0.0431 104.68423,-7.99616"
         inkscape:connector-curvature="0" />
      <path
         id="path3009"
         style="fill:#000000;fill-opacity:1;fill-rule:nonzero;stroke:none"
         d="m 315.64981,492.42694 -104.62135,12.6746 0.006,0.028 c -0.44322,0.0629 -0.88872,0.13865 -1.33724,0.23033 -7.05668,1.44559 -12.02833,6.09826 -11.10553,10.39106 0.92358,4.29356 7.39005,6.60514 14.44674,5.15879 0.44928,-0.0916 0.88871,-0.19774 1.31981,-0.31441 l 0.01,0.0416 101.2809,-28.21006"
         inkscape:connector-curvature="0" />
      <path
         id="path3011"
         style="fill:#000000;fill-opacity:1;fill-rule:nonzero;stroke:none"
         d="m 315.70132,492.57923 -99.96715,32.61424 0.0112,0.0265 c -0.422,0.14623 -0.84553,0.30988 -1.26753,0.48716 -6.63771,2.79268 -10.607,8.32725 -8.86366,12.3579 1.74258,4.03143 8.53635,5.03379 15.17558,2.23809 0.42201,-0.17654 0.83265,-0.36444 1.23268,-0.56369 l 0.0174,0.0394 93.66129,-47.19961"
         inkscape:connector-curvature="0" />
      <path
         id="path3013"
         style="fill:#000000;fill-opacity:1;fill-rule:nonzero;stroke:none"
         d="m 315.78391,492.72092 -91.47247,51.37346 0.0159,0.0258 c -0.38564,0.2235 -0.76825,0.46595 -1.14783,0.72355 -5.96568,4.03444 -8.77881,10.2365 -6.28313,13.85047 2.49567,3.6132 9.35537,3.27225 15.32105,-0.76523 0.37882,-0.25607 0.74627,-0.52125 1.1001,-0.79325 l 0.0235,0.0349 82.44287,-64.44961"
         inkscape:connector-curvature="0" />
      <path
         id="path3015"
         style="fill:#000000;fill-opacity:1;fill-rule:nonzero;stroke:none"
         d="m 315.88316,492.85047 -79.82372,68.35224 0.0213,0.0213 c -0.33412,0.29623 -0.66067,0.60763 -0.98342,0.93342 -5.06484,5.12241 -6.61423,11.7533 -3.46015,14.81039 3.15179,3.05709 9.81299,1.38497 14.87631,-3.73745 0.32275,-0.32654 0.62884,-0.65839 0.92356,-0.99554 l 0.031,0.0303 68.41513,-79.41457"
         inkscape:connector-curvature="0" />
      <path
         id="path3017"
         style="fill:#000000;fill-opacity:1;fill-rule:nonzero;stroke:none"
         d="m 316.01271,492.94442 -64.86329,82.25952 0.0242,0.0151 c -0.26896,0.35761 -0.5311,0.72734 -0.78264,1.10844 -3.96777,6.01188 -4.19355,12.81855 -0.50535,15.20057 3.68896,2.38506 9.89558,-0.55686 13.86259,-6.568 0.25305,-0.38261 0.48867,-0.76825 0.71142,-1.15616 l 0.0364,0.0243 51.51666,-90.88378"
         inkscape:connector-curvature="0" />
      <path
         id="path3019"
         style="fill:#000000;fill-opacity:1;fill-rule:nonzero;stroke:none"
         d="m 316.15514,493.02473 -47.54737,93.4499 0.0272,0.01 c -0.19471,0.40306 -0.37958,0.81523 -0.55231,1.24026 -2.71843,6.66953 -1.61227,13.38907 2.47067,15.00663 4.08293,1.61832 9.59705,-2.47598 12.31396,-9.14626 0.17425,-0.42428 0.33109,-0.8478 0.47277,-1.27133 l 0.0394,0.0159 32.77561,-99.30497"
         inkscape:connector-curvature="0" />
      <path
         id="path3021"
         style="fill:#000000;fill-opacity:1;fill-rule:nonzero;stroke:none"
         d="m 316.31198,493.06716 -28.38735,100.72176 0.0288,0.005 c -0.11287,0.43261 -0.21214,0.87356 -0.29926,1.32436 -1.36604,7.0726 1.03039,13.44589 5.35122,14.23686 4.32008,0.79023 8.92807,-4.3019 10.29409,-11.37448 0.0864,-0.44929 0.15759,-0.89554 0.21441,-1.338 l 0.0424,0.006 12.75567,-103.5811"
         inkscape:connector-curvature="0" />
      <path
         id="path3023"
         style="fill:#000000;fill-opacity:1;fill-rule:nonzero;stroke:none"
         d="m 323.65581,597.45591 0.0433,0 -7.23852,-104.36452 -8.65001,104.60923 0.0287,-10e-4 c -0.0257,0.44778 -0.0386,0.90009 -0.0349,1.3577 0.0409,7.20215 3.63366,12.98524 8.02571,12.91856 4.39054,-0.0683 7.91736,-5.96114 7.87645,-13.1648 -0.002,-0.4561 -0.0205,-0.90841 -0.0507,-1.35466"
         inkscape:connector-curvature="0" />
      <path
         id="path3025"
         style="fill:#000000;fill-opacity:1;fill-rule:nonzero;stroke:none"
         d="m 344.34703,595.36784 c -0.0916,-0.44928 -0.19624,-0.88871 -0.31291,-1.3183 l 0.0401,-0.01 -27.45318,-100.96117 11.91772,104.29935 0.0288,-0.005 c 0.0614,0.44246 0.13714,0.88946 0.23033,1.33647 1.44482,7.05744 6.0975,12.02985 10.39182,11.10629 4.29356,-0.92205 6.60285,-7.3908 5.15728,-14.44749"
         inkscape:connector-curvature="0" />
      <path
         id="path3027"
         style="fill:#000000;fill-opacity:1;fill-rule:nonzero;stroke:none"
         d="m 363.74192,587.61943 c -0.17653,-0.42427 -0.36594,-0.83492 -0.56596,-1.23344 l 0.0401,-0.0174 -46.44274,-93.34309 31.85737,99.64819 0.0265,-0.0125 c 0.14698,0.42352 0.3076,0.84553 0.48716,1.26829 2.79267,6.63847 8.32725,10.607 12.35791,8.86442 4.03141,-1.74182 5.03529,-8.53787 2.23959,-15.17482"
         inkscape:connector-curvature="0" />
      <path
         id="path3029"
         style="fill:#000000;fill-opacity:1;fill-rule:nonzero;stroke:none"
         d="m 381.36772,576.19039 c -0.2576,-0.37957 -0.52278,-0.74627 -0.79478,-1.09933 l 0.0341,-0.0235 -63.69123,-82.12392 50.61583,91.1535 0.025,-0.0159 c 0.22577,0.38412 0.4667,0.76825 0.7243,1.14706 4.03596,5.96644 10.23651,8.77805 13.85046,6.28238 3.6132,-2.49491 3.27226,-9.35462 -0.7637,-15.32029"
         inkscape:connector-curvature="0" />
      <path
         id="path3031"
         style="fill:#000000;fill-opacity:1;fill-rule:nonzero;stroke:none"
         d="m 396.66756,561.89443 c -0.32655,-0.32275 -0.65915,-0.63035 -0.99555,-0.92356 l 0.0319,-0.0303 -78.65845,-68.09691 67.59459,79.50473 0.0205,-0.022 c 0.297,0.33337 0.60839,0.66294 0.93417,0.98342 5.12167,5.06485 11.75332,6.61346 14.8104,3.46167 3.05709,-3.15179 1.38422,-9.81299 -3.73745,-14.87707"
         inkscape:connector-curvature="0" />
      <path
         id="path3033"
         style="fill:#000000;fill-opacity:1;fill-rule:nonzero;stroke:none"
         d="m 408.39737,544.66034 c -0.3826,-0.25305 -0.76825,-0.4902 -1.15616,-0.71142 l 0.0242,-0.0364 -90.12538,-51.19768 81.50113,64.54356 0.0151,-0.025 c 0.35761,0.27048 0.72734,0.53111 1.10844,0.78416 6.01189,3.96778 12.8178,4.19279 15.2021,0.50383 2.38202,-3.68744 -0.55839,-9.89329 -6.56953,-13.86107"
         inkscape:connector-curvature="0" />
      <path
         id="path3035"
         style="fill:#000000;fill-opacity:1;fill-rule:nonzero;stroke:none"
         d="m 417.02238,525.53972 c -0.42429,-0.1735 -0.84781,-0.32883 -1.27132,-0.47126 l 0.0151,-0.0416 -98.54657,-32.45514 92.69227,47.22917 0.01,-0.028 c 0.40155,0.19546 0.81599,0.37881 1.2395,0.55307 6.67105,2.71766 13.38906,1.61226 15.00815,-2.47067 1.61833,-4.08369 -2.4775,-9.59707 -9.14777,-12.31548"
         inkscape:connector-curvature="0" />
      <path
         id="path3037"
         style="fill:#000000;fill-opacity:1;fill-rule:nonzero;stroke:none"
         d="m 421.41746,505.10913 c -0.44777,-0.0871 -0.89553,-0.15835 -1.33799,-0.21517 l 0.007,-0.0424 -102.82498,-12.43519 99.96335,28.06612 0.005,-0.028 c 0.43262,0.11212 0.87357,0.2129 1.32435,0.29851 7.0726,1.36527 13.44589,-1.03115 14.23612,-5.34971 0.79097,-4.3216 -4.30114,-8.92958 -11.37374,-10.29409"
         inkscape:connector-curvature="0" />
      <path
         id="path3039"
         style="fill:#000000;fill-opacity:1;fill-rule:nonzero;stroke:none"
         d="m 423.35627,484.43231 c -0.45914,0.003 -0.90918,0.0205 -1.35466,0.0508 l -0.003,-0.0425 -104.68348,7.81963 104.92895,8.06965 -10e-4,-0.0295 c 0.447,0.025 0.89931,0.0371 1.35769,0.0349 7.20215,-0.0409 12.986,-3.63441 12.91781,-8.0257 -0.0666,-4.3913 -5.96114,-7.91813 -13.16252,-7.87721"
         inkscape:connector-curvature="0" />
      <path
         id="path3041"
         style="fill:#000000;fill-opacity:1;fill-rule:nonzero;stroke:none"
         d="m 434.35951,468.94988 c -0.92129,-4.29432 -7.39004,-6.60361 -14.44673,-5.15804 -0.44852,0.0925 -0.88796,0.19775 -1.31981,0.31443 l -0.007,-0.0416 -101.28241,28.03354 104.62058,-12.49807 -0.006,-0.028 c 0.44247,-0.0621 0.88795,-0.13865 1.33724,-0.23033 7.05669,-1.44559 12.02758,-6.09826 11.10476,-10.39182"
         inkscape:connector-curvature="0" />
      <path
         id="path3043"
         style="fill:#000000;fill-opacity:1;fill-rule:nonzero;stroke:none"
         d="m 427.33768,446.63731 c -1.74182,-4.03218 -8.53636,-5.0353 -15.17482,-2.24035 -0.42202,0.17652 -0.83342,0.36593 -1.23269,0.5652 l -0.0181,-0.0394 -93.6613,47.02385 99.96715,-32.43847 -0.01,-0.0257 c 0.42125,-0.14775 0.84402,-0.30989 1.26754,-0.48718 6.63695,-2.79417 10.60699,-8.32725 8.8629,-12.3579"
         inkscape:connector-curvature="0" />
      <path
         id="path3045"
         style="fill:#000000;fill-opacity:1;fill-rule:nonzero;stroke:none"
         d="m 416.05562,426.00821 c -2.49568,-3.61395 -9.35385,-3.2715 -15.32029,0.76295 -0.37882,0.25684 -0.74627,0.52277 -1.10085,0.79552 l -0.0235,-0.0349 -82.44212,64.27385 91.47322,-51.19845 -0.0166,-0.025 c 0.38488,-0.22578 0.7675,-0.4667 1.14707,-0.72354 5.96568,-4.03596 8.77956,-10.23651 6.28313,-13.85047"
         inkscape:connector-curvature="0" />
      <path
         id="path3047"
         style="fill:#000000;fill-opacity:1;fill-rule:nonzero;stroke:none"
         d="m 401.31493,407.73463 c -3.1518,-3.05785 -9.81299,-1.38497 -14.87631,3.73669 -0.322,0.32655 -0.63036,0.6584 -0.92281,0.99479 l -0.0311,-0.0295 -68.41587,79.23881 79.8237,-68.17723 -0.0205,-0.0198 c 0.33336,-0.297 0.66217,-0.60915 0.98341,-0.93417 5.06409,-5.12243 6.61346,-11.75255 3.4594,-14.80964"
         inkscape:connector-curvature="0" />
      <path
         id="path3049"
         style="fill:#000000;fill-opacity:1;fill-rule:nonzero;stroke:none"
         d="m 383.06711,393.17349 c -3.68972,-2.3843 -9.89557,0.55688 -13.86334,6.56802 -0.25305,0.38185 -0.48793,0.76825 -0.71143,1.1554 l -0.0364,-0.0235 -51.51666,90.70723 64.8633,-82.08223 -0.0235,-0.0166 c 0.2682,-0.35609 0.5311,-0.72582 0.78188,-1.10767 3.96853,-6.01189 4.19355,-12.81704 0.5061,-15.20059"
         inkscape:connector-curvature="0" />
      <path
         id="path3051"
         style="fill:#000000;fill-opacity:1;fill-rule:nonzero;stroke:none"
         d="m 362.39862,381.96948 c -4.08294,-1.61756 -9.5963,2.47749 -12.31396,9.14701 -0.17427,0.42353 -0.33109,0.84782 -0.47278,1.27209 l -0.0394,-0.0166 -32.77563,99.12918 47.54738,-93.27337 -0.0265,-0.0113 c 0.19471,-0.40231 0.37957,-0.81523 0.55231,-1.2395 2.71842,-6.67029 1.61227,-13.3883 -2.47143,-15.00739"
         inkscape:connector-curvature="0" />
      <path
         id="path3053"
         style="fill:#000000;fill-opacity:1;fill-rule:nonzero;stroke:none"
         d="m 339.94739,375.34693 c -4.32007,-0.79022 -8.92805,4.30114 -10.29408,11.37373 -0.0871,0.44928 -0.15835,0.89628 -0.21517,1.33875 l -0.0425,-0.006 -12.75491,103.40608 28.3866,-100.54522 -0.028,-0.005 c 0.11213,-0.43336 0.21139,-0.87431 0.29928,-1.32435 1.36526,-7.07184 -1.03115,-13.44589 -5.35124,-14.23686"
         inkscape:connector-curvature="0" />
      <path
         id="path3055"
         style="fill:#000000;fill-opacity:1;fill-rule:nonzero;stroke:none"
         d="m 323.80279,385.46448 c -0.0394,-7.20215 -3.63365,-12.98675 -8.02495,-12.91856 -4.39205,0.0666 -7.91812,5.96114 -7.8757,13.16329 0.001,0.45761 0.019,0.90992 0.0508,1.35542 l -0.0431,7.5e-4 8.54772,104.36375 7.3408,-104.60846 -0.0295,0 c 0.025,-0.4455 0.0371,-0.89856 0.0341,-1.35619"
         inkscape:connector-curvature="0" />
      <path
         id="path3057"
         style="fill:#000000;fill-opacity:1;fill-rule:nonzero;stroke:none"
         d="m 316.29456,491.44201 -13.22617,-104.3001 -0.0288,0.006 c -0.0614,-0.44323 -0.13712,-0.88871 -0.22956,-1.338 -1.44557,-7.05593 -6.09826,-12.02834 -10.39106,-11.10477 -4.29356,0.9228 -6.60286,7.3908 -5.15804,14.44749 0.0916,0.44776 0.19699,0.88795 0.31443,1.31905 l -0.0433,0.009 28.76238,100.96193"
         inkscape:connector-curvature="0" />
      <path
         id="path3059"
         style="fill:#000000;fill-opacity:1;fill-rule:nonzero;stroke:none"
         d="m 316.14303,491.49504 -33.16656,-99.64817 -0.025,0.0112 c -0.1485,-0.42201 -0.30989,-0.84401 -0.48793,-1.26754 -2.79342,-6.6377 -8.3265,-10.607 -12.35866,-8.86366 -4.03142,1.74259 -5.03379,8.53712 -2.24035,15.17559 0.1788,0.42276 0.3667,0.8334 0.56595,1.23343 l -0.0394,0.0166 47.75193,93.34231"
         inkscape:connector-curvature="0" />
      <path
         id="path3061"
         style="fill:#000000;fill-opacity:1;fill-rule:nonzero;stroke:none"
         d="m 316.00059,491.57763 -51.92503,-91.15349 -0.0235,0.0166 c -0.22805,-0.38564 -0.46823,-0.76825 -0.7243,-1.14782 -4.03522,-5.96568 -10.23728,-8.77957 -13.85048,-6.28314 -3.61546,2.49492 -3.27225,9.35461 0.76371,15.3203 0.25608,0.37957 0.52125,0.74627 0.79553,1.09934 l -0.0371,0.0235 65.00119,82.12466"
         inkscape:connector-curvature="0" />
      <path
         id="path3063"
         style="fill:#000000;fill-opacity:1;fill-rule:nonzero;stroke:none"
         d="m 315.87103,491.67764 -68.9038,-79.50473 -0.019,0.022 c -0.29851,-0.33488 -0.61066,-0.66294 -0.9357,-0.98493 -5.12166,-5.06408 -11.7533,-6.61346 -14.81039,-3.46091 -3.05708,3.1533 -1.3827,9.81374 3.7382,14.87858 0.32579,0.32124 0.6584,0.62808 0.99479,0.92204 l -0.0302,0.0311 79.96614,68.09691"
         inkscape:connector-curvature="0" />
      <path
         id="path3065"
         style="fill:#000000;fill-opacity:1;fill-rule:nonzero;stroke:none"
         d="m 315.77784,491.80644 -82.81185,-64.54433 -0.0159,0.0242 c -0.35533,-0.26897 -0.72506,-0.53112 -1.10768,-0.78265 -6.01188,-3.96778 -12.81627,-4.1943 -15.20057,-0.50534 -2.38355,3.6882 0.55611,9.89556 6.568,13.86334 0.38261,0.2523 0.76825,0.48867 1.1554,0.71067 l -0.0235,0.0364 91.4361,51.1977"
         inkscape:connector-curvature="0" />
      <path
         id="path3067"
         style="fill:#000000;fill-opacity:1;fill-rule:nonzero;stroke:none"
         d="m 315.69677,491.94887 -94.00146,-47.22916 -0.009,0.028 c -0.40308,-0.19396 -0.81599,-0.37958 -1.24103,-0.55233 -6.66952,-2.71841 -13.38906,-1.61226 -15.00586,2.47068 -1.61909,4.08293 2.47521,9.59706 9.14625,12.31547 0.42352,0.17275 0.84705,0.32958 1.27057,0.47201 l -0.0159,0.0394 99.85652,32.45589"
         inkscape:connector-curvature="0" />
      <path
         id="path3069"
         style="fill:#000000;fill-opacity:1;fill-rule:nonzero;stroke:none"
         d="m 315.65434,492.10494 -101.27256,-28.06762 -0.005,0.0288 c -0.43261,-0.11212 -0.87356,-0.21139 -1.32285,-0.29851 -7.07259,-1.36528 -13.4474,1.02964 -14.23761,5.34971 -0.79099,4.32084 4.30114,8.92958 11.37296,10.29485 0.44929,0.0871 0.89705,0.15834 1.33951,0.21516 l -0.009,0.0416 104.13418,12.43594"
         inkscape:connector-curvature="0" />
      <path
         id="path3071"
         style="fill:#ffffff;fill-opacity:1;fill-rule:nonzero;stroke:none"
         d="m 357.62623,503.74537 c 6.15736,-22.50501 -7.26504,-45.78661 -29.97689,-51.99853 -22.71108,-6.21266 -46.11467,6.99532 -52.26976,29.50033 -6.15585,22.50503 7.26504,45.78661 29.97765,51.99852 22.71033,6.21343 46.11391,-6.99455 52.269,-29.50032"
         inkscape:connector-curvature="0" />
      <path
         id="path3073"
         style="fill:#000000;fill-opacity:1;fill-rule:nonzero;stroke:none"
         d="m 351.80147,489.58125 c -0.15229,-0.001 -0.3023,0.002 -0.45079,0.0125 l 0,-0.01 -34.8205,2.65098 34.73943,2.6866 0,-0.0144 c 0.14926,0.01 0.29927,0.0159 0.4508,0.0166 2.39036,0.0144 4.34583,-1.17055 4.36781,-2.64569 0.022,-1.47512 -1.89639,-2.68205 -4.28675,-2.69568"
         inkscape:connector-curvature="0" />
      <path
         id="path3075"
         style="fill:#000000;fill-opacity:1;fill-rule:nonzero;stroke:none"
         d="m 351.68707,496.63262 c -0.15001,-0.0302 -0.29624,-0.0553 -0.44398,-0.0765 l 0.001,-0.01 -34.71897,-4.25795 33.6113,9.4766 0.002,-0.0136 c 0.14242,0.0386 0.28941,0.0743 0.43791,0.10525 2.34111,0.48565 4.48751,-0.28943 4.79436,-1.73273 0.30685,-1.44256 -1.3433,-3.00481 -3.68517,-3.49122"
         inkscape:connector-curvature="0" />
      <path
         id="path3077"
         style="fill:#000000;fill-opacity:1;fill-rule:nonzero;stroke:none"
         d="m 350.09981,503.46807 c -0.14017,-0.0599 -0.28109,-0.11363 -0.41974,-0.16365 l 0.002,-0.009 -33.1749,-10.95551 31.08229,15.85593 0.006,-0.0136 c 0.13335,0.0666 0.26821,0.13032 0.40988,0.18941 2.20323,0.93873 4.45722,0.60158 5.03529,-0.75234 0.57884,-1.3539 -0.73719,-3.2124 -2.94192,-4.15112"
         inkscape:connector-curvature="0" />
      <path
         id="path3079"
         style="fill:#000000;fill-opacity:1;fill-rule:nonzero;stroke:none"
         d="m 347.21243,509.89667 c -0.12652,-0.0871 -0.25305,-0.1682 -0.38109,-0.24396 l 0.006,-0.007 -30.35722,-17.25834 27.35999,21.65039 0.009,-0.0125 c 0.11662,0.0916 0.2379,0.18031 0.36442,0.26669 1.97896,1.35466 4.25568,1.47058 5.08379,0.25835 0.82886,-1.21374 -0.1045,-3.29727 -2.08504,-4.65344"
         inkscape:connector-curvature="0" />
      <path
         id="path3081"
         style="fill:#000000;fill-opacity:1;fill-rule:nonzero;stroke:none"
         d="m 343.25754,515.71309 c -0.10612,-0.10987 -0.21517,-0.21441 -0.32578,-0.31442 l 0.006,-0.008 -26.49023,-22.96036 22.70428,26.67811 0.0113,-0.0113 c 0.0962,0.11288 0.19925,0.22503 0.30456,0.33412 1.68045,1.72137 3.89201,2.28202 4.93907,1.25542 1.0463,-1.02662 0.53112,-3.25333 -1.14933,-4.97393"
         inkscape:connector-curvature="0" />
      <path
         id="path3083"
         style="fill:#000000;fill-opacity:1;fill-rule:nonzero;stroke:none"
         d="m 338.18284,520.47185 c -0.0834,-0.12653 -0.17046,-0.25154 -0.26062,-0.37201 l 0.009,-0.005 -21.52539,-27.6335 17.09545,30.52998 0.0129,-0.006 c 0.075,0.12956 0.15153,0.25911 0.23562,0.38716 1.31679,2.01911 3.37606,3.00784 4.60193,2.20701 1.2236,-0.80158 1.14707,-3.0874 -0.1682,-5.10727"
         inkscape:connector-curvature="0" />
      <path
         id="path3085"
         style="fill:#000000;fill-opacity:1;fill-rule:nonzero;stroke:none"
         d="m 332.31036,524.30021 c -0.0568,-0.14243 -0.11813,-0.28184 -0.18335,-0.41519 l 0.01,-0.004 -15.77942,-31.3914 10.87748,33.35749 0.0125,-0.004 c 0.0478,0.14167 0.1,0.28411 0.15684,0.42655 0.90311,2.24111 2.73357,3.61622 4.08823,3.073 1.35467,-0.54399 1.72062,-2.80176 0.81825,-5.04288"
         inkscape:connector-curvature="0" />
      <path
         id="path3087"
         style="fill:#000000;fill-opacity:1;fill-rule:nonzero;stroke:none"
         d="m 325.81737,526.78528 c -0.0302,-0.15229 -0.0636,-0.30079 -0.1,-0.4455 l 0.01,-10e-4 -9.42129,-33.8348 4.23295,34.79474 0.0136,-10e-4 c 0.0197,0.14925 0.0433,0.29775 0.072,0.44927 0.45307,2.37598 1.98123,4.08673 3.41545,3.82079 1.43422,-0.26517 2.22898,-2.40779 1.77743,-4.78147"
         inkscape:connector-curvature="0" />
      <path
         id="path3089"
         style="fill:#000000;fill-opacity:1;fill-rule:nonzero;stroke:none"
         d="m 319.11753,527.65127 0.01,0 -2.87071,-35.13946 -2.40324,35.05763 0.0144,0 c -0.009,0.15002 -0.0159,0.30305 -0.0159,0.45459 -0.0136,2.42218 1.15768,4.40114 2.6131,4.42312 1.45771,0.0228 2.651,-1.92063 2.66388,-4.34054 0.001,-0.15304 -0.002,-0.30533 -0.0112,-0.45534"
         inkscape:connector-curvature="0" />
      <path
         id="path3091"
         style="fill:#000000;fill-opacity:1;fill-rule:nonzero;stroke:none"
         d="m 316.20288,492.50802 -9.1099,33.91359 0.0136,0.003 c -0.0386,0.14546 -0.0735,0.29396 -0.10375,0.44397 -0.48112,2.36992 0.28638,4.54359 1.71075,4.8527 1.42512,0.30988 2.96768,-1.36072 3.44878,-3.73062 0.0295,-0.15002 0.0554,-0.30003 0.0757,-0.44778 l 0.01,10e-4 3.9549,-35.03642"
         inkscape:connector-curvature="0" />
      <path
         id="path3093"
         style="fill:#000000;fill-opacity:1;fill-rule:nonzero;stroke:none"
         d="m 316.15212,492.48983 -15.41196,31.35504 0.0136,0.006 c -0.0659,0.13334 -0.12956,0.27122 -0.1879,0.41366 -0.92811,2.22899 -0.59475,4.51177 0.74325,5.09819 1.33724,0.58414 3.17376,-0.7478 4.10188,-2.9783 0.0584,-0.14092 0.11212,-0.28336 0.16137,-0.42504 l 0.007,0.003 10.57215,-33.47341"
         inkscape:connector-curvature="0" />
      <path
         id="path3095"
         style="fill:#000000;fill-opacity:1;fill-rule:nonzero;stroke:none"
         d="m 316.10438,492.46179 -21.13595,27.58578 0.0129,0.01 c -0.0924,0.11825 -0.1788,0.24169 -0.26442,0.36972 -1.34027,2.00322 -1.4524,4.30795 -0.25456,5.14516 1.2001,0.83946 3.25786,-0.10613 4.59738,-2.11004 0.0849,-0.12653 0.16592,-0.25608 0.24016,-0.38564 l 0.007,0.006 16.79692,-30.62089"
         inkscape:connector-curvature="0" />
      <path
         id="path3097"
         style="fill:#000000;fill-opacity:1;fill-rule:nonzero;stroke:none"
         d="m 316.06196,492.42847 -26.10307,22.87398 0.01,0.0129 c -0.11062,0.0977 -0.22198,0.20077 -0.32881,0.30911 -1.70091,1.70091 -2.25626,3.93748 -1.24101,4.99741 1.01447,1.05843 3.21542,0.53869 4.91406,-1.16146 0.10913,-0.10987 0.21214,-0.2182 0.31064,-0.33261 l 0.007,0.009 22.43076,-26.70765"
         inkscape:connector-curvature="0" />
      <path
         id="path3099"
         style="fill:#000000;fill-opacity:1;fill-rule:nonzero;stroke:none"
         d="m 316.03013,492.38528 -29.90794,17.19849 0.009,0.0125 c -0.12956,0.0743 -0.2576,0.1538 -0.38412,0.23942 -1.99488,1.33193 -2.96996,3.41697 -2.17974,4.65647 0.79023,1.23798 3.04875,1.16147 5.04363,-0.16972 0.12803,-0.0849 0.25002,-0.1735 0.36897,-0.26365 l 0.005,0.009 27.04631,-21.68145"
         inkscape:connector-curvature="0" />
      <path
         id="path3101"
         style="fill:#000000;fill-opacity:1;fill-rule:nonzero;stroke:none"
         d="m 316.00513,492.33754 -32.7044,10.90248 0.005,0.0129 c -0.14016,0.0485 -0.28109,0.10075 -0.422,0.1591 -2.21307,0.91297 -3.57229,2.76464 -3.03512,4.13673 0.53792,1.3721 2.76691,1.74334 4.9815,0.83037 0.14092,-0.0584 0.27653,-0.1205 0.41065,-0.18561 l 0.002,0.009 30.7618,-15.86504"
         inkscape:connector-curvature="0" />
      <path
         id="path3103"
         style="fill:#000000;fill-opacity:1;fill-rule:nonzero;stroke:none"
         d="m 315.99074,492.28527 -34.12346,4.17689 0.002,0.0144 c -0.14699,0.019 -0.29547,0.0424 -0.44625,0.072 -2.34566,0.45914 -4.0352,2.007 -3.77306,3.45864 0.2629,1.45089 2.37749,2.25551 4.72541,1.79714 0.1485,-0.0288 0.29549,-0.0629 0.43944,-0.1015 l 10e-4,0.01 33.17339,-9.4281"
         inkscape:connector-curvature="0" />
      <path
         id="path3105"
         style="fill:#000000;fill-opacity:1;fill-rule:nonzero;stroke:none"
         d="m 315.97179,492.233 -34.74017,-2.62752 0,0.0144 c -0.14699,-0.01 -0.297,-0.0159 -0.44929,-0.0166 -2.3896,-0.0144 -4.3466,1.17055 -4.36856,2.64569 -0.0227,1.47512 1.89714,2.68281 4.28674,2.69569 0.15152,10e-4 0.30153,-0.002 0.4508,-0.0113 l 0,0.01 34.82048,-2.71009"
         inkscape:connector-curvature="0" />
      <path
         id="path3107"
         style="fill:#000000;fill-opacity:1;fill-rule:nonzero;stroke:none"
         d="m 315.97634,492.17844 -33.6113,-9.4175 -0.001,0.0144 c -0.14395,-0.0394 -0.28941,-0.075 -0.43943,-0.10613 -2.34112,-0.48488 -4.48827,0.29018 -4.79435,1.73273 -0.30534,1.44255 1.34481,3.00481 3.68592,3.49122 0.14925,0.0303 0.29775,0.056 0.44474,0.0765 l -0.004,0.01 34.71972,4.19887"
         inkscape:connector-curvature="0" />
      <path
         id="path3109"
         style="fill:#000000;fill-opacity:1;fill-rule:nonzero;stroke:none"
         d="m 315.99377,492.12768 -31.08229,-15.79609 -0.006,0.0125 c -0.13334,-0.0659 -0.26896,-0.13032 -0.40761,-0.18941 -2.20398,-0.93872 -4.45796,-0.60233 -5.0368,0.75234 -0.57884,1.3539 0.7387,3.21317 2.94192,4.15188 0.1394,0.0591 0.27957,0.11437 0.42049,0.1629 l -0.005,0.009 33.17489,10.89794"
         inkscape:connector-curvature="0" />
      <path
         id="path3111"
         style="fill:#000000;fill-opacity:1;fill-rule:nonzero;stroke:none"
         d="m 316.02104,492.07994 -27.35847,-21.5913 -0.009,0.0125 c -0.1175,-0.0916 -0.23866,-0.18107 -0.36366,-0.26745 -1.98049,-1.35541 -4.2572,-1.46982 -5.0853,-0.25683 -0.82812,1.2145 0.10612,3.29802 2.08502,4.65344 0.12653,0.0856 0.2523,0.16745 0.38034,0.24321 l -0.004,0.007 30.35495,17.19923"
         inkscape:connector-curvature="0" />
      <path
         id="path3113"
         style="fill:#000000;fill-opacity:1;fill-rule:nonzero;stroke:none"
         d="m 316.05362,492.03601 -22.70351,-26.61827 -0.01,0.01 c -0.0977,-0.11362 -0.19927,-0.22502 -0.30684,-0.33487 -1.68046,-1.72061 -3.89201,-2.28203 -4.93605,-1.25466 -1.04706,1.02661 -0.53338,3.25483 1.14707,4.97468 0.10763,0.10988 0.21669,0.21365 0.3273,0.31442 l -0.007,0.006 26.48945,22.90202"
         inkscape:connector-curvature="0" />
      <path
         id="path3115"
         style="fill:#000000;fill-opacity:1;fill-rule:nonzero;stroke:none"
         d="m 316.09681,492.00418 -17.0962,-30.47011 -0.0125,0.007 c -0.0727,-0.13031 -0.15229,-0.25986 -0.23563,-0.38791 -1.31679,-2.01912 -3.37681,-3.00784 -4.6004,-2.20702 -1.22435,0.80084 -1.14859,3.0874 0.16744,5.10652 0.0841,0.12803 0.17122,0.2523 0.25986,0.37276 l -0.009,0.005 21.52538,27.57364"
         inkscape:connector-curvature="0" />
      <path
         id="path3117"
         style="fill:#000000;fill-opacity:1;fill-rule:nonzero;stroke:none"
         d="m 316.14454,491.97767 -10.87596,-33.29915 -0.0144,0.005 c -0.047,-0.14169 -0.0992,-0.28488 -0.15607,-0.42731 -0.90083,-2.24035 -2.73131,-3.61548 -4.08672,-3.073 -1.35468,0.54398 -1.72289,2.80176 -0.82054,5.04211 0.0576,0.14244 0.119,0.28184 0.18411,0.4167 l -0.01,0.002 15.77943,31.33307"
         inkscape:connector-curvature="0" />
      <path
         id="path3119"
         style="fill:#000000;fill-opacity:1;fill-rule:nonzero;stroke:none"
         d="m 316.19606,491.96327 -4.23295,-34.7364 -0.0144,0.002 c -0.0166,-0.1485 -0.0409,-0.29851 -0.0713,-0.44928 -0.45155,-2.37597 -1.98199,-4.08597 -3.4162,-3.8208 -1.43346,0.26518 -2.22824,2.40704 -1.7744,4.78225 0.028,0.15077 0.0614,0.29927 0.0993,0.44549 l -0.01,10e-4 9.41976,33.77495"
         inkscape:connector-curvature="0" />
      <path
         id="path3121"
         style="fill:#000000;fill-opacity:1;fill-rule:nonzero;stroke:none"
         d="m 319.09707,456.43968 c 0.0144,-2.41915 -1.15691,-4.39887 -2.61463,-4.4216 -1.45693,-0.0227 -2.64947,1.91986 -2.66386,4.33978 0,0.1538 0.004,0.30533 0.0129,0.4561 l -0.009,-7.5e-4 2.43582,35.14097 2.83585,-35.05915 -0.0144,0 c 0.0112,-0.14926 0.0159,-0.30079 0.0174,-0.45535"
         inkscape:connector-curvature="0" />
      <path
         id="path3123"
         style="fill:#000000;fill-opacity:1;fill-rule:nonzero;stroke:none"
         d="m 324.23464,452.74315 c -1.42436,-0.30988 -2.9692,1.36072 -3.44727,3.73063 -0.0303,0.15076 -0.0576,0.30003 -0.078,0.44928 l -0.009,-0.001 -4.38826,35.03566 9.54402,-33.91435 -0.0136,-0.002 c 0.0394,-0.1447 0.0743,-0.29245 0.1045,-0.44398 0.47807,-2.3699 -0.28639,-4.54206 -1.71228,-4.8527"
         inkscape:connector-curvature="0" />
      <path
         id="path3125"
         style="fill:#000000;fill-opacity:1;fill-rule:nonzero;stroke:none"
         d="m 331.63984,455.10168 c -1.33798,-0.5849 -3.17376,0.7478 -4.10187,2.9783 -0.0584,0.14168 -0.11138,0.28411 -0.16138,0.42504 l -0.009,-0.004 -11.00551,33.47416 15.84685,-31.35503 -0.0144,-0.006 c 0.0666,-0.13409 0.13032,-0.27198 0.18866,-0.41366 0.92735,-2.22975 0.59399,-4.51252 -0.74401,-5.09819"
         inkscape:connector-curvature="0" />
      <path
         id="path3127"
         style="fill:#000000;fill-opacity:1;fill-rule:nonzero;stroke:none"
         d="m 338.48514,458.89217 c -1.19858,-0.83871 -3.25635,0.10688 -4.5951,2.11004 -0.0856,0.12729 -0.16667,0.25684 -0.24017,0.3864 l -0.009,-0.006 -17.23183,30.62089 21.57084,-27.58729 -0.0125,-0.009 c 0.0901,-0.119 0.17805,-0.24093 0.26366,-0.36896 1.33875,-2.00398 1.4524,-4.30797 0.25305,-5.14668"
         inkscape:connector-curvature="0" />
      <path
         id="path3129"
         style="fill:#000000;fill-opacity:1;fill-rule:nonzero;stroke:none"
         d="m 344.55008,463.84337 c -1.01449,-1.05919 -3.21469,-0.53793 -4.91407,1.16297 -0.10988,0.10763 -0.21139,0.21897 -0.31139,0.33034 l -0.006,-0.007 -22.86565,26.70765 26.53795,-22.87473 -0.01,-0.01 c 0.11212,-0.0993 0.22275,-0.20229 0.33034,-0.31063 1.69938,-1.70091 2.2555,-3.93822 1.24026,-4.99741"
         inkscape:connector-curvature="0" />
      <path
         id="path3131"
         style="fill:#000000;fill-opacity:1;fill-rule:nonzero;stroke:none"
         d="m 349.38232,469.97421 c -0.79174,-1.23874 -3.04875,-1.16298 -5.04514,0.16896 -0.12652,0.0849 -0.24851,0.17274 -0.3667,0.26365 l -0.005,-0.009 -27.48196,21.68145 30.34282,-17.19849 -0.009,-0.0125 c 0.12957,-0.0743 0.2576,-0.15456 0.38413,-0.23866 1.99487,-1.33269 2.97071,-3.41772 2.17974,-4.65647"
         inkscape:connector-curvature="0" />
      <path
         id="path3133"
         style="fill:#000000;fill-opacity:1;fill-rule:nonzero;stroke:none"
         d="m 353.10007,476.91573 c -0.53716,-1.37057 -2.76766,-1.74182 -4.98074,-0.82961 -0.14016,0.0584 -0.27805,0.1205 -0.41064,0.18561 l -0.002,-0.009 -31.19592,15.86504 33.13852,-10.90248 -0.005,-0.0136 c 0.13942,-0.0478 0.27958,-0.1 0.42049,-0.15835 2.21384,-0.91296 3.57229,-2.76615 3.03588,-4.13749"
         inkscape:connector-curvature="0" />
      <path
         id="path3135"
         style="fill:#000000;fill-opacity:1;fill-rule:nonzero;stroke:none"
         d="m 355.29799,484.45882 c -0.2629,-1.45164 -2.37748,-2.25701 -4.72466,-1.79713 -0.14925,0.0288 -0.29547,0.0621 -0.44019,0.1 l -0.001,-0.009 -33.60826,9.42735 34.55835,-4.17688 -0.002,-0.0144 c 0.14774,-0.019 0.29549,-0.0431 0.44398,-0.072 2.34793,-0.45914 4.03823,-2.007 3.77533,-3.45789"
         inkscape:connector-curvature="0" />
      <path
         id="path3137"
         style="fill:#ffffff;fill-opacity:1;fill-rule:nonzero;stroke:none"
         d="m 194.57776,515.91462 242.49866,0 0,-47.24886 -242.49866,0 0,47.24886 z"
         inkscape:connector-curvature="0" />
      <path
         id="path3139"
         style="fill:#000000;fill-opacity:1;fill-rule:nonzero;stroke:none"
         d="m 199.16681,509.26479 0,-1.63271 4.64737,0 0,-31.09365 -4.64737,0 0,-1.67061 18.22736,0 0,1.67061 -5.1103,0 0,31.04289 3.25331,0 c 3.97384,0.0507 5.1103,-0.2576 6.91728,-1.96306 2.0661,-1.96229 3.3056,-4.13143 4.54282,-8.006 l 1.54939,0 -0.5152,11.65253 -28.86466,0"
         inkscape:connector-curvature="0" />
      <path
         id="path3141"
         style="fill:#000000;fill-opacity:1;fill-rule:nonzero;stroke:none"
         d="m 246.18989,507.58132 4.64662,0 0,1.68348 -17.55382,0 0,-1.63272 4.49054,0 0,-31.09365 -4.43826,0 0,-1.67061 17.5523,0 0,1.67061 -4.69738,0 0,31.04289"
         inkscape:connector-curvature="0" />
      <path
         id="path3143"
         style="fill:#000000;fill-opacity:1;fill-rule:nonzero;stroke:none"
         d="m 268.17137,492.09662 2.57977,0 c 5.05348,0 6.60285,1.69787 6.60285,7.1029 0,4.27082 -0.30987,5.76339 -1.4971,6.9991 -0.97962,1.02811 -2.42445,1.38951 -5.67322,1.38951 l -2.0123,0 0,-15.49151 z m 0,-1.75016 0,-13.80803 2.73509,0 c 4.64056,0 5.62095,1.29254 5.62095,7.49839 0,5.22319 -1.08267,6.30964 -6.39602,6.30964 l -1.96002,0 z m 7.78856,0.82356 c 2.99724,-0.61748 3.92686,-0.87508 5.58004,-1.80623 2.379,-1.29253 3.9299,-3.82685 3.9299,-6.41343 0,-1.75849 -0.77659,-3.56774 -2.06761,-4.96408 -2.0676,-2.17897 -5.06635,-3.11846 -9.76298,-3.11846 l -18.21979,0 0,1.67061 4.3375,0 0,31.0497 -4.3375,0 0,1.6706 17.65232,0 c 8.62423,0 13.63605,-3.47227 13.63605,-9.4425 0,-2.00698 -0.62052,-3.65335 -1.91154,-5.04286 -1.86076,-2.00775 -3.82381,-2.83131 -8.83639,-3.60335"
         inkscape:connector-curvature="0" />
      <path
         id="path3145"
         style="fill:#000000;fill-opacity:1;fill-rule:nonzero;stroke:none"
         d="m 305.20722,491.02001 1.08266,0 c 3.51093,0.0507 5.62778,-2.01003 6.196,-6.03008 l 1.7047,0 0,14.08988 -1.65394,0 c -0.51518,-4.56176 -2.27141,-6.37784 -6.24676,-6.37784 l -1.08266,0 0,14.87935 5.83309,0 c 3.15027,0.0507 5.16257,-0.82962 6.91878,-2.95405 1.65167,-1.97064 2.58129,-3.9405 3.25332,-6.6362 l 1.75471,0 -0.7228,11.27373 -29.84505,0 0,-1.63272 4.33599,0 0,-31.09365 -4.33599,0 0,-1.67061 28.81314,0 0.46443,9.60691 -1.70393,0 c -1.13647,-3.40106 -2.27142,-5.15349 -4.18294,-6.493 -1.59939,-1.08191 -3.098,-1.4433 -6.19449,-1.4433 l -4.38826,0 0,14.48158"
         inkscape:connector-curvature="0" />
      <path
         id="path3147"
         style="fill:#000000;fill-opacity:1;fill-rule:nonzero;stroke:none"
         d="m 341.10887,490.08281 0,-13.67318 3.74047,0 c 4.56783,0 5.5467,1.24329 5.5467,6.83697 0,5.28303 -1.33875,6.83621 -6.01416,6.83621 l -3.27301,0 z m 0,1.67135 1.87061,0 c 4.36403,0 5.55959,1.65166 5.8187,8.15375 0.15608,4.2322 0.77431,6.08917 2.67903,7.68856 1.4433,1.18571 3.70866,1.80243 6.28388,1.80243 2.27142,0 3.71624,-0.25608 5.57473,-1.28648 l 0,-1.9085 c -1.34178,0.72204 -1.96154,0.87735 -2.8904,0.87735 -1.65243,0 -2.06685,-0.67051 -2.11685,-3.45787 -0.053,-4.54132 -0.2076,-5.5217 -1.08344,-7.17262 -1.33799,-2.52976 -4.01701,-4.23218 -8.39316,-5.32395 7.05517,-0.93947 11.07597,-3.94352 11.07597,-8.39846 0,-3.21014 -2.68281,-6.11115 -6.75135,-7.237 -1.90471,-0.50914 -4.17157,-0.76446 -7.54838,-0.76446 l -17.20455,0 0,1.68272 4.33598,0 0,31.23988 -4.33598,0 0,1.64711 17.20455,0 0,-1.64711 -4.51934,0 0,-15.89535"
         inkscape:connector-curvature="0" />
      <path
         id="path3149"
         style="fill:#000000;fill-opacity:1;fill-rule:nonzero;stroke:none"
         d="m 396.51906,474.86782 0.20683,11.27751 -1.54862,0 c -0.66976,-4.75117 -2.47901,-7.90221 -5.05954,-9.0902 -0.77355,-0.30987 -1.75546,-0.5167 -2.94192,-0.5167 l -0.56748,0 0,31.04289 5.26486,0 0,1.68348 -18.79257,0 0,-1.63272 5.11181,0 0,-31.09365 -0.77506,0 c -4.18219,0 -6.40208,2.63432 -8.00298,9.6069 l -1.4971,0 0.15455,-11.27751 28.44722,0"
         inkscape:connector-curvature="0" />
      <path
         id="path3151"
         style="fill:#000000;fill-opacity:1;fill-rule:nonzero;stroke:none"
         d="m 417.52014,474.86782 0,1.67061 -3.91548,0 7.67718,14.54446 5.98159,-11.65633 0.51748,-1.2895 c 0.15455,-0.30913 0.25911,-0.56748 0.25911,-0.77357 0,-0.61898 -0.41444,-0.82506 -1.60545,-0.82506 l -1.3433,0 0,-1.67061 8.74016,0 0,1.67061 c -2.8457,0.0515 -3.15482,0.20608 -4.49964,2.88813 l -7.27715,13.82243 0,14.33914 5.41638,0 0,1.6706 -19.0297,0 0,-1.6706 5.26561,0 0,-13.92622 -9.80844,-17.12348 -2.42825,0 0,-1.67061 16.0499,0"
         inkscape:connector-curvature="0" />
      <path
         id="path3153"
         style="fill:#000000;fill-opacity:1;fill-rule:nonzero;stroke:none"
         d="m 312.74878,360.12135 3.79276,0.0552 1.36983,-3.53742 1.11904,3.62456 3.78668,0.20911 -3.10026,2.18428 0.97054,3.66699 -3.03511,-2.27368 -3.18817,2.05624 1.2251,-3.58971 -2.94041,-2.39567"
         inkscape:connector-curvature="0" />
      <path
         id="path3155"
         style="fill:#000000;fill-opacity:1;fill-rule:nonzero;stroke:none"
         d="m 417.65728,406.96714 2.31763,3.00254 3.61926,-1.13041 -2.13808,3.1321 2.19414,3.09497 -3.64047,-1.06752 -2.26535,3.04269 -0.10913,-3.79124 -3.5935,-1.21374 3.57153,-1.27664 0.044,-3.79275"
         inkscape:connector-curvature="0" />
      <path
         id="path3157"
         style="fill:#000000;fill-opacity:1;fill-rule:nonzero;stroke:none"
         d="m 448.74336,523.76002 -3.7723,0.39473 -0.94024,3.67381 -1.54105,-3.46547 -3.78594,0.24245 2.81995,-2.53735 -1.39936,-3.52531 3.28361,1.89714 2.92071,-2.41915 -0.79021,3.70943 3.20483,2.02972"
         inkscape:connector-curvature="0" />
      <path
         id="path3159"
         style="fill:#000000;fill-opacity:1;fill-rule:nonzero;stroke:none"
         d="m 369.64472,608.32732 3.78594,0.23032 1.53195,-3.47152 0.9516,3.67381 3.77306,0.38262 -3.19725,2.03881 0.79931,3.70942 -2.92754,-2.4131 -3.27831,1.90699 1.38951,-3.52834 -2.82827,-2.52901"
         inkscape:connector-curvature="0" />
      <path
         id="path3161"
         style="fill:#000000;fill-opacity:1;fill-rule:nonzero;stroke:none"
         d="m 255.21568,610.80178 3.77609,-0.3561 0.97887,-3.66471 1.50469,3.48061 3.78745,-0.20228 -2.84495,2.50703 1.36225,3.54121 -3.26241,-1.93198 -2.94648,2.39036 0.8281,-3.7026 -3.18361,-2.06154"
         inkscape:connector-curvature="0" />
      <path
         id="path3163"
         style="fill:#000000;fill-opacity:1;fill-rule:nonzero;stroke:none"
         d="m 183.17903,522.87736 3.38741,-1.70697 -0.42503,-3.76851 2.67145,2.69341 3.45182,-1.56831 -1.735,3.3715 2.55931,2.80025 -3.74502,-0.60913 -1.87138,3.29952 -0.57732,-3.75033 -3.71624,-0.76143"
         inkscape:connector-curvature="0" />
      <path
         id="path3165"
         style="fill:#000000;fill-opacity:1;fill-rule:nonzero;stroke:none"
         d="m 210.04201,407.79146 3.62305,1.12282 2.31307,-3.00632 0.05,3.792 3.57455,1.26981 -3.59122,1.22056 -0.103,3.79275 -2.2699,-3.03966 -3.63895,1.07434 2.18806,-3.098 -2.14564,-3.1283"
         inkscape:connector-curvature="0" />
      <path
         inkscape:connector-curvature="0"
         id="path3175"
         d="m 301.09375,359.9375 a 3.83557,3.83557 0 0 0 -0.25,0.0312 c -12.52417,1.1046 -27.95652,6.13917 -42.25,12.8125 -14.29348,6.67333 -27.34678,14.87341 -34.90625,23.1875 a 3.8384427,3.8384427 0 1 0 5.6875,5.15625 c 6.23114,-6.85316 18.77454,-15.01271 32.46875,-21.40625 13.69421,-6.39354 28.66017,-11.15518 39.65625,-12.125 a 3.83557,3.83557 0 0 0 -0.40625,-7.65625 z m 32.21875,0.0937 a 3.843877,3.843877 0 1 0 -0.0625,7.6875 c 9.24646,0.53849 23.45087,5.14991 37.03125,11.78125 13.58038,6.63134 26.70933,15.30735 34.375,23.25 a 3.83557,3.83557 0 1 0 5.5,-5.34375 c -8.73123,-9.04672 -22.35653,-17.89094 -36.53125,-24.8125 -14.17472,-6.92156 -28.72004,-11.87797 -39.9375,-12.53125 a 3.83557,3.83557 0 0 0 -0.375,-0.0312 z m -128.34375,60.1563 a 3.83557,3.83557 0 0 0 -2.8125,1.59375 c -6.65978,9.05025 -12.11961,23.45326 -15.84375,38.78125 -3.72414,15.32799 -5.63743,31.44134 -4.25,43.9375 a 3.8357704,3.8357704 0 1 0 7.625,-0.84375 c -1.21811,-10.97106 0.49452,-26.59599 4.0625,-41.28125 3.56798,-14.68526 9.10397,-28.57096 14.59375,-36.03125 a 3.83557,3.83557 0 0 0 -3.375,-6.15625 z m 222.96875,1.4375 a 3.83557,3.83557 0 0 0 -2.96875,6.09375 c 5.38071,7.53942 10.67931,21.51345 14.03125,36.25 3.35194,14.73655 4.84803,30.39098 3.46875,41.34375 a 3.83557,3.83557 0 1 0 7.59375,0.9375 c 1.57098,-12.47505 -0.0638,-28.61837 -3.5625,-44 -3.49867,-15.38163 -8.75333,-29.8531 -15.28125,-39 a 3.83557,3.83557 0 0 0 -3.28125,-1.625 z m 10.4375,112.0625 a 3.83557,3.83557 0 0 0 -3.53125,2.875 c -2.41654,8.9411 -9.85865,21.90506 -19.125,33.84375 -9.26635,11.93869 -20.40818,23.02502 -29.75,28.90625 a 3.83557,3.83557 0 1 0 4.0625,6.46875 c 10.64024,-6.69867 22.07812,-18.19507 31.75,-30.65625 9.67188,-12.46118 17.53709,-25.71549 20.46875,-36.5625 a 3.83557,3.83557 0 0 0 -3.875,-4.875 z m -244.4375,0.78125 a 3.83557,3.83557 0 0 0 -3.71875,4.9375 c 3.02844,10.82132 10.99791,23.9698 20.78125,36.34375 9.78334,12.37395 21.30043,23.8036 32,30.40625 a 3.837584,3.837584 0 1 0 4.03125,-6.53125 C 237.63738,593.82808 226.37309,582.85508 217,571 207.62691,559.14492 200.09004,546.23231 197.59375,537.3125 a 3.83557,3.83557 0 0 0 -3.65625,-2.84375 z m 165.25,78.09375 a 3.83557,3.83557 0 0 0 -1.375,0.28125 c -10.31584,3.92812 -25.88911,6.18077 -41,6.40625 -15.11089,0.22548 -29.93357,-1.64749 -38.53125,-5.09375 a 3.8357704,3.8357704 0 1 0 -2.84375,7.125 c 10.43052,4.18093 25.72768,5.86035 41.5,5.625 15.77232,-0.23535 31.84401,-2.43212 43.59375,-6.90625 a 3.83557,3.83557 0 0 0 -1.34375,-7.4375 z"
         style="font-size:medium;font-style:normal;font-variant:normal;font-weight:normal;font-stretch:normal;text-indent:0;text-align:start;text-decoration:none;line-height:normal;letter-spacing:normal;word-spacing:normal;text-transform:none;direction:ltr;block-progression:tb;writing-mode:lr-tb;text-anchor:start;baseline-shift:baseline;color:#000000;fill:#000000;fill-opacity:1;stroke:none;stroke-width:7.67037296;marker:none;visibility:visible;display:inline;overflow:visible;enable-background:accumulate;font-family:Sans;-inkscape-font-specification:Sans" />
    </g>
  </g>
</svg>
