<?xml version="1.0" encoding="UTF-8" standalone="no"?>
<!-- Created with Inkscape (http://www.inkscape.org/) -->

<svg
   xmlns:dc="http://purl.org/dc/elements/1.1/"
   xmlns:cc="http://creativecommons.org/ns#"
   xmlns:rdf="http://www.w3.org/1999/02/22-rdf-syntax-ns#"
   xmlns:svg="http://www.w3.org/2000/svg"
   xmlns="http://www.w3.org/2000/svg"
   xmlns:sodipodi="http://sodipodi.sourceforge.net/DTD/sodipodi-0.dtd"
   xmlns:inkscape="http://www.inkscape.org/namespaces/inkscape"
   width="499.99997"
   height="215.09589"
   id="svg4291"
   version="1.1"
   inkscape:version="0.48.2 r9819"
   sodipodi:docname="New document 16">
  <defs
     id="defs4293" />
  <sodipodi:namedview
     id="base"
     pagecolor="#ffffff"
     bordercolor="#666666"
     borderopacity="1.0"
     inkscape:pageopacity="0.0"
     inkscape:pageshadow="2"
     inkscape:zoom="0.7"
     inkscape:cx="668.25673"
     inkscape:cy="-13.746566"
     inkscape:document-units="px"
     inkscape:current-layer="layer1"
     showgrid="false"
     fit-margin-left="0.5"
     fit-margin-bottom="0.5"
     fit-margin-top="0.5"
     fit-margin-right="0.5"
     inkscape:window-width="1920"
     inkscape:window-height="1028"
     inkscape:window-x="-8"
     inkscape:window-y="-8"
     inkscape:window-maximized="1" />
  <metadata
     id="metadata4296">
    <rdf:RDF>
      <cc:Work
         rdf:about="">
        <dc:format>image/svg+xml</dc:format>
        <dc:type
           rdf:resource="http://purl.org/dc/dcmitype/StillImage" />
        <dc:title></dc:title>
      </cc:Work>
    </rdf:RDF>
  </metadata>
  <g
     inkscape:label="Layer 1"
     inkscape:groupmode="layer"
     id="layer1"
     transform="translate(701.35968,-361.1032)">
    <path
       style="fill:none;stroke:#000000;stroke-width:1.55380929;stroke-miterlimit:4;stroke-dasharray:none"
       d="m -496.63155,460.90983 97.24257,0"
       id="path4166"
       inkscape:connector-curvature="0" />
    <path
       style="fill:none;stroke:#000000;stroke-width:1.03587282;stroke-opacity:1"
       d="m -393.95065,451.32801 -2.97813,-1.94226 -1.03588,-1.16536 -2.71916,-0.90639 -2.07175,-0.51794 -2.33071,0 -3.49607,0.38846 -3.36659,1.16535 -2.46019,0.64742 -2.71917,0.25897 -2.84866,-0.25897 -1.42432,-1.42432 -2.4602,-1.03587 -4.27297,-0.38846 -3.75504,0.38846 -4.01401,1.68329 -4.40246,1.29484 -3.36659,0.38845 -5.43833,0.51794 -4.40246,-0.12949 -5.04988,0.12949 -4.40246,1.29484 -3.2371,0.64742 -5.30885,0.7769 -4.40246,0.12949 -5.56781,0 -3.88453,0.51794 -3.10762,1.42432 -4.14349,0.90639 -1.94226,0.90639 -3.36658,0.90638"
       id="path4222"
       inkscape:connector-curvature="0" />
    <path
       style="fill:none;stroke:#000000;stroke-width:1.03587282;stroke-linecap:round;stroke-miterlimit:4;stroke-opacity:1;stroke-dasharray:none"
       d="m -482.7323,453.56767 2.38054,0 2.01425,0.68668 1.92279,0.77825 2.60936,0.73247 1.92278,0.36628 1.51072,0.6409 1.2818,0.22892"
       id="path4224"
       inkscape:connector-curvature="0" />
    <path
       style="fill:none;stroke:#000000;stroke-width:1.03587282;stroke-linecap:round;stroke-miterlimit:4;stroke-opacity:1;stroke-dasharray:none"
       d="m -458.28604,456.54332 3.7997,-0.0456 2.06008,-0.0455 2.19742,-0.18315 3.43346,-0.27471 1.51073,-0.50354 2.97567,-0.77825 2.19741,-0.82404 1.60229,-0.50364 1.23605,-0.18304"
       id="path4226"
       inkscape:connector-curvature="0" />
    <path
       style="fill:none;stroke:#000000;stroke-width:1.03587282;stroke-linecap:round;stroke-miterlimit:4;stroke-opacity:1;stroke-dasharray:none"
       d="m -447.34472,456.22292 1.23603,0.45775 1.32762,0.82404 1.00714,0.86982 1.05294,0.6409 0.96136,0.91561 1.46494,0.9156"
       id="path4228"
       inkscape:connector-curvature="0" />
    <path
       style="fill:none;stroke:#000000;stroke-width:1.03587282;stroke-linecap:round;stroke-miterlimit:4;stroke-opacity:1;stroke-dasharray:none"
       d="m -432.19171,447.29587 1.09871,1.64808 1.64807,1.5565 1.73962,1.37336 1.64806,0.73247 2.19742,0.27471 1.83119,0 1.5565,0.91561 0.91558,1.19022 1.55652,1.00717 1.73961,-0.64089 2.65522,-1.00718 2.47209,0 2.10586,0.0912 1.55651,0.64089 1.83118,0.73246 1.46495,0.82404 1.83118,1.09875 1.92274,0.82404 1.46494,0.73246"
       id="path4230"
       inkscape:connector-curvature="0" />
    <path
       style="fill:none;stroke:#000000;stroke-width:1.03587282;stroke-linecap:round;stroke-miterlimit:4;stroke-opacity:1;stroke-dasharray:none"
       d="m -422.02864,452.60628 2.10585,-1.19022 1.09871,-0.73247 1.46495,-1.37336"
       id="path4232"
       inkscape:connector-curvature="0" />
    <path
       id="path3167"
       d="m -700.85968,503.28458 0,1.58686 4.23134,0 0,39.14139 -4.23134,0 0,1.58675 27.09139,0 c 2.84616,0 6.33902,0.57853 6.33902,0.57853 l 1.86779,-14.59545 -1.7439,-0.25617 -0.80154,4.85949 c -1.36322,7.23484 -6.12161,7.82685 -12.01686,7.82685 l -5.79354,0 0,-39.14139 4.36373,0 0,-1.58686 z m 5.8182,1.58686 2.11577,0 0,39.14139 -2.11577,0 z"
       style="fill:#000000;stroke:none"
       inkscape:connector-curvature="0"
       sodipodi:nodetypes="ccccccsccccscccccccccc" />
    <path
       id="path3169"
       d="m -597.13047,502.46635 c -11.54688,0 -21.34738,9.55313 -21.34738,21.94258 0,12.71917 9.84172,22.02525 21.76887,22.02525 10.93643,0 21.01693,-9.05188 21.01693,-21.88468 0,-12.20041 -9.33528,-22.08315 -21.43842,-22.08315 z m -0.57026,1.62808 c 10.72833,0 9.99203,16.45567 9.99203,21.637 0,9.51377 -0.94202,19.07467 -9.00028,19.07467 -6.40345,0 -9.89269,-5.50588 -9.89269,-21.57889 0,-11.03039 1.33245,-19.13278 8.90094,-19.13278 z m 7.10745,1.44638 c 5.58199,2.06813 6.87632,9.72499 6.87632,19.47991 0,6.89042 -0.82444,15.12954 -5.76866,17.82675 3.27386,-4.43934 3.52071,-11.43107 3.52071,-17.57069 0,-7.43508 -0.47174,-15.62738 -4.62837,-19.73597 z m -16.00839,0.94224 c -5.09443,5.37597 -7.95882,11.89648 -7.95882,17.99197 0,5.96124 2.38676,11.68703 8.12415,18.11617 -7.44803,-4.93417 -10.29762,-10.52509 -10.29762,-18.11617 0,-8.66062 3.50021,-13.98398 10.13229,-17.99197 z"
       style="fill:#000000;stroke:none"
       inkscape:connector-curvature="0" />
    <path
       id="path3171"
       d="m -570.22627,503.28458 0,1.58686 2.90915,0 14.0168,24.33099 0,14.8104 -4.76046,0 0,1.58675 20.09967,0 0,-1.58675 -4.76056,0 0,-16.92606 9.19855,-17.51289 c 1.92994,-3.45132 2.8527,-4.70244 6.40512,-4.70244 l 0,-1.58686 -13.22333,0 0,1.58686 c 3.47587,0 5.14051,0.86516 5.14051,2.6943 0,1.1319 -0.68594,2.27271 -0.68594,2.27271 l -7.65294,14.71944 -11.34746,-19.68645 4.23164,0 0,-1.58686 z m 49.68782,0 0,1.58686 4.23164,0 0,39.14139 -4.23164,0 0,1.58675 20.05822,0 c 15.39069,0 22.43846,-9.39558 22.43846,-20.90123 0,-11.69221 -6.42718,-21.41377 -21.60365,-21.41377 z m -44.81984,1.58686 2.2727,0 13.4879,23.35582 0,15.78557 -2.11566,0 0,-15.33931 z m 50.64642,0 2.10748,0 0,39.14139 -2.11567,0 0.0124,-39.14139 z m 8.9837,0 3.17371,0 c 9.36305,0 12.76858,5.67306 12.76858,20.0748 0,12.6681 -2.92075,19.06659 -12.76858,19.06659 l -3.17371,0 z m 12.63662,1.90082 c 4.58663,2.59579 7.22324,8.64892 7.22324,17.90952 0,8.62281 -1.88529,14.6229 -7.22324,17.80199 4.58228,-5.60169 5.0331,-11.41438 5.0331,-17.73601 0,-6.27977 -0.28818,-12.75967 -5.0331,-17.9755 z"
       style="fill:#000000;stroke:none"
       inkscape:connector-curvature="0"
       sodipodi:nodetypes="ccccccccccccccccsccccccccccccssscccccccccccccccssscccscsc" />
    <path
       style="fill:#000000;stroke:none"
       d="m -318.02789,502.09903 -9.77605,2.007 1.03587,3.36658 -11.6212,32.75948 c -1.10593,2.66634 -2.2508,3.53834 -5.04988,3.78747 l 0,1.58612 11.65357,0 0,-1.58612 -1.32721,0 c -2.52395,0 -3.62555,-1.09067 -3.62555,-2.42788 0,-0.69445 0.42082,-1.78046 0.42082,-1.78046 l 2.65442,-7.7042 15.0849,0 3.6903,11.91254 -3.94927,0 0,1.58612 18.51623,0 0,-1.58612 -3.0105,0 -14.69645,-41.92053 z m -5.66493,2.81633 12.72181,39.1042 -2.03937,0 -12.68944,-38.68343 2.007,-0.42077 z m -2.20123,5.17936 6.73317,20.42607 -13.8548,0 7.12163,-20.42607 z"
       id="path3205"
       inkscape:connector-curvature="0" />
    <path
       style="fill:#000000;stroke:none"
       d="m -456.97002,502.48748 c -9.74033,0 -14.7289,6.77606 -14.7289,13.72531 0,16.97724 25.02277,10.86859 25.02277,21.26772 0,4.94463 -4.85461,7.15405 -9.19337,7.15405 -10.61926,0 -13.32279,-6.29832 -13.72533,-8.7725 l -0.45309,-3.14004 -1.68329,0 1.06819,13.11032 c 1.44319,-0.91903 2.95535,-1.48918 4.3053,-1.48918 3.37488,0 5.92395,2.16892 11.26512,2.16892 8.66259,0 15.76474,-5.72765 15.76474,-13.91955 0,-17.39272 -25.76733,-11.7123 -25.76733,-22.33601 0,-3.13568 2.4286,-6.15049 8.38414,-6.15049 5.91297,0 10.74553,2.8444 11.62115,7.34817 l 0.80933,4.33782 1.74793,0 -1.06819,-12.81892 c 0,0 -2.16425,0.97102 -3.81978,0.97102 -2.89174,0 -4.12516,-1.45664 -9.5494,-1.45664 z m -12.36586,9.22569 c 0.20179,1.32706 0.4016,3.00279 0.58278,4.14349 1.98246,13.71061 25.11994,7.89884 25.11994,19.45504 0,2.10013 -1.61867,4.17592 -1.61867,4.17592 0,0 0.16191,-1.19364 0.16191,-1.94227 0,-3.76229 -1.34011,-5.96103 -6.86266,-7.7044 l -7.21868,-2.23356 c -3.62991,-1.33503 -10.94152,-3.91321 -10.94152,-11.52408 0,-2.01736 0.7769,-4.37014 0.7769,-4.37014 z"
       id="path3203"
       inkscape:connector-curvature="0" />
    <path
       style="fill:#000000;stroke:none"
       d="m -389.29705,503.2967 0,1.58623 4.24065,0 0,39.13663 -4.24065,0 0,1.58612 23.53379,0 c 11.09129,0 15.95886,-3.94346 15.95886,-10.65001 0,-7.49402 -6.54516,-10.62474 -14.53454,-11.97738 9.17943,-1.01019 12.91599,-4.51651 12.91599,-9.61414 0,-7.94795 -8.5559,-10.06745 -17.35087,-10.06745 l -20.52323,0 z m 5.82678,1.58623 2.10407,0 0,39.13663 -2.10407,0 0,-39.13663 z m 8.99915,0 2.6221,0 c 7.1236,0 9.06389,3.28704 9.06389,8.48122 0,5.068 -1.74244,8.70775 -8.35183,8.70775 l -3.33416,0 0,-17.18897 z m 9.97028,0.51794 c 4.05305,0.88495 5.37359,4.13583 5.37359,7.86611 0,3.54921 -0.93084,6.58618 -4.88808,8.06044 2.51966,-2.90407 2.81633,-5.15244 2.81633,-8.06044 0,-3.10886 -0.74811,-5.71698 -3.30184,-7.86611 z m -9.97028,18.25726 3.81978,0 c 7.13095,0 9.3876,4.84716 9.3876,10.6177 0,5.39141 -2.45057,9.74373 -8.96683,9.74373 l -4.24055,0 0,-20.36143 z m 11.26512,1.13294 c 4.5653,1.54386 5.6973,5.44019 5.6973,9.32285 0,5.03849 -1.57059,8.45324 -6.60369,10.0027 3.33675,-2.84969 4.49952,-6.12636 4.49952,-10.0027 0,-3.77907 -0.84413,-6.91725 -3.59313,-9.32285 z"
       id="path3201"
       inkscape:connector-curvature="0" />
    <path
       style="fill:#000000;stroke:none"
       d="m -293.49185,503.2967 0,1.58623 c 2.4011,-0.0611 2.60268,0.44201 3.07524,0.97114 l 2.20123,2.97813 0,29.61954 c 0,3.5113 -0.96602,5.56782 -5.53544,5.56782 l 0,1.58612 12.94841,0 0,-1.58612 c -3.76502,0 -5.53545,-0.97186 -5.53545,-5.56782 l 0,-26.80321 22.85395,33.95715 5.6973,0 0,-35.96425 c 0,-3.74189 2.07744,-4.7585 5.53544,-4.7585 l 0,-1.58623 -12.68944,0 0,1.58623 c 4.27999,0 5.30885,2.50495 5.30885,5.01746 l 0,21.94766 -19.3255,-28.55135 -14.53459,0 z m 4.56431,1.58623 2.36308,0 26.38239,39.13663 -2.36308,0 -26.38239,-39.13663 z"
       id="path3199"
       inkscape:connector-curvature="0" />
    <path
       style="fill:#000000;stroke:none"
       d="m -244.97784,503.2967 0,1.58623 4.24061,0 0,39.13663 -4.24061,0 0,1.58612 19.03417,0 0,-1.58612 -4.20824,0 0.0323,-14.82604 3.94927,-4.56426 9.3876,19.3903 -4.66143,0 0,1.58612 19.58447,0 0,-1.58612 -3.04288,0 -13.79005,-28.35702 4.82328,-5.6973 c 2.82688,-3.05458 3.70821,-4.60187 9.35522,-5.08231 l 0,-1.58623 -15.60283,0 0,1.58623 1.58618,0 c 2.55263,0 3.33422,1.04872 3.33422,2.26598 0,0.90618 -0.40816,1.75041 -1.32722,2.81633 l -13.6282,16.37963 0,-21.46194 4.49958,0 0,-1.58623 -19.32551,0 z m 5.82679,1.58623 2.10412,0 0,39.13663 -2.10412,0 0,-39.13663 z m 15.53809,16.70345 10.94141,22.43318 -2.2336,0 -10.13213,-20.78231 1.42432,-1.65087 z"
       id="path3197"
       inkscape:connector-curvature="0" />
    <path
       sodipodi:nodetypes="ccccccsccccscccccccccc"
       inkscape:connector-curvature="0"
       style="fill:#000000;stroke:none"
       d="m -660.52662,503.28458 0,1.58686 4.23134,0 0,39.14139 -4.23134,0 0,1.58675 27.0914,0 c 2.84615,0 6.33901,0.57853 6.33901,0.57853 l 1.86779,-14.59545 -1.74389,-0.25617 -0.80157,4.85949 c -1.36321,7.23484 -6.12158,7.82685 -12.01684,7.82685 l -5.79353,0 0,-39.14139 4.36371,0 0,-1.58686 z m 5.81818,1.58686 2.11578,0 0,39.14139 -2.11578,0 z"
       id="path3214" />
    <g
       id="g3374"
       transform="matrix(0.1078748,0,0,0.1078748,-419.78332,380.27697)">
      <path
         inkscape:connector-curvature="0"
         style="fill:#000000;stroke:none"
         d="m 165.91954,1770.4634 c -13.81738,0 -20.50119,10.4187 -20.50119,20.5996 0,13.056 10.46837,20.5011 20.82921,20.5011 10.88274,0 20.27158,-9.1597 20.27158,-20.7636 0,-10.272 -7.65811,-20.3371 -20.5996,-20.3371 z m 1.27928,4.2642 c -5.19176,5.4658 -8.29888,9.9214 -8.29888,16.2042 0,5.1071 1.90242,8.6814 8.23327,16.04 -10.06119,-1.28 -15.67931,-6.929 -15.67931,-16.04 0,-7.4772 3.18761,-13.7497 15.74492,-16.2042 z"
         id="path3376" />
      <path
         style="fill:#000000;stroke:none"
         d="m -554.32671,1698.375 -46.5,13.625 0,5.375 c 8.60353,0 11.5,3.9336 11.5,11 l 0,74 -11,0 0,6 57,0 0,-6 -11,0 0,-104 z m -22,12.5625 0,91.4375 -8,0 0,-75 c 0,-6.9148 -1.73151,-9.7673 -5.125,-12.6875 l 13.125,-3.75 z"
         id="path3378"
         inkscape:connector-curvature="0" />
      <path
         style="fill:#000000;stroke:none"
         d="m -572.88921,1647.25 c -13.16366,0 -19.53125,9.9258 -19.53125,19.625 0,12.4383 9.9731,19.5312 19.84375,19.5312 10.36786,0 19.3125,-8.7263 19.3125,-19.7812 0,-9.7861 -7.2958,-19.375 -19.625,-19.375 z m 1.21875,4.0625 c -4.94613,5.2072 -7.90625,9.452 -7.90625,15.4375 0,4.8655 1.81242,8.2707 7.84375,15.2812 -9.58518,-1.2195 -14.9375,-6.6012 -14.9375,-15.2812 0,-7.1234 3.0368,-13.0991 15,-15.4375 z"
         id="path3380"
         inkscape:connector-curvature="0" />
      <path
         style="fill:#000000;stroke:none"
         d="m -473.57286,1696.7812 -38.0625,14.2813 0,5.1875 c 5.87863,0 11.46875,2.3496 11.46875,11.125 l 0,75 -11,0 0,6 54,0 0,-5.9688 -8.5,0 0,-79 c 3.34018,-4.2233 8.92098,-8.0312 14.8125,-8.0312 8.06137,0 14.6875,5.4962 14.6875,20 l 0,67 -8,0 0,6 51,0 0,-6 -8,0 0,-68 c 0,-5.6542 -1.40625,-11.6875 -1.40625,-11.6875 3.7594,-3.4816 9.01017,-7.2187 15.59375,-7.2187 14.62394,0 14.8125,12.6878 14.8125,23.9062 l 0,63 -8,0 0,6 55,0 0,-5.9688 -11.4375,0 0,-63.5 c 0,-29.5863 -15.41581,-40.7187 -31.53125,-40.7187 -14.42982,0 -27.73481,9.2964 -36.65625,18.4063 -4.05391,-9.7482 -14.05421,-18.3126 -28.1875,-18.3126 -12.73539,0 -25.03393,9.3394 -33.125,16.5626 -0.68703,-3.7216 -2.81881,-12.9312 -7.46875,-18.0626 z m -18.6875,13.0313 c 2.90055,3.9128 5.09375,10.26 5.09375,15.5625 l 0,77 -7.3125,0 0,-74 c 0,-6.7018 -0.93134,-11.6461 -6.40625,-15.0312 l 8.625,-3.5313 z m 51.96875,0.875 c 12.31424,0.1127 17.125,9.9848 17.125,22.6875 l 0,69 -7,0 0,-67 c 0,-12.4151 -5.61031,-22.264 -14.1875,-24.4062 1.43728,-0.2048 2.78861,-0.293 4.0625,-0.2813 z m 65.28125,0.1563 c 11.73857,-0.038 16.34375,11.5266 16.34375,23.5312 l 0,68 -7.5,0 0,-71 c 0,-8.2576 -4.58901,-17.7756 -12.71875,-20.125 1.3697,-0.2644 2.66067,-0.4023 3.875,-0.4062 z"
         id="path3382"
         inkscape:connector-curvature="0" />
      <path
         id="path3384"
         d="m -257.21246,1698.375 -46.5,13.625 0,5.375 c 8.60353,0 11.5,3.9336 11.5,11 l 0,74 -11,0 0,6 57,0 0,-6 -11,0 0,-104 z m -22,12.5625 0,91.4375 -8,0 0,-75 c 0,-6.9148 -1.73151,-9.7673 -5.125,-12.6875 l 13.125,-3.75 z"
         style="fill:#000000;stroke:none"
         inkscape:connector-curvature="0" />
      <path
         id="path3386"
         d="m -275.77496,1647.25 c -13.16366,0 -19.53125,9.9258 -19.53125,19.625 0,12.4383 9.9731,19.5312 19.84375,19.5312 10.36786,0 19.3125,-8.7263 19.3125,-19.7812 0,-9.7861 -7.2958,-19.375 -19.625,-19.375 z m 1.21875,4.0625 c -4.94613,5.2072 -7.90625,9.452 -7.90625,15.4375 0,4.8655 1.81242,8.2707 7.84375,15.2812 -9.58518,-1.2195 -14.9375,-6.6012 -14.9375,-15.2812 0,-7.1234 3.0368,-13.0991 15,-15.4375 z"
         style="fill:#000000;stroke:none"
         inkscape:connector-curvature="0" />
      <path
         id="path3388"
         d="m -750.27294,1648.1896 0,6 16,0 0,148 -16,0 0,6 91.72244,0 c 10.76202,0 23.96875,2.1875 23.96875,2.1875 l 5.78937,-36.7271 -6.59375,-0.9688 -3.03125,18.375 c -2.60799,13.7757 -21.87319,11.1334 -44.16437,11.1334 l -11.19119,0 0,-148 16.5,0 0,-6 z m 22,6 8,0 0,148 -8,0 z"
         style="fill:#000000;stroke:none"
         inkscape:connector-curvature="0"
         sodipodi:nodetypes="ccccccsccccscccccccccc" />
      <path
         style="fill:#000000;stroke:none"
         d="m -177.21648,1661.375 -35,12 0,29 -15,0 0,7 15,0 0,72 c 0,16.2464 5.63337,30.0625 29.53125,30.0625 14.03113,0 25.38505,-6.1142 32.5625,-12.2813 l -3.6875,-5.0312 c -3.12323,2.481 -5.80218,5.2188 -11.125,5.2188 -9.79173,0 -12.28125,-8.1506 -12.28125,-15.9688 l 0,-74 25,0 0,-7 -25,0 0,-41 z m -22,14 0,106 c 0,7.8202 1.09011,17.8822 6.40625,23.3125 -5.82111,-2.2303 -13.40625,-5.8264 -13.40625,-22.3125 l 0,-105 7,-2 z"
         id="path3390"
         inkscape:connector-curvature="0" />
      <path
         style="fill:#000000;stroke:none"
         d="m -77.781169,1699.0625 c -34.823391,0 -56.625001,28.2323 -56.625001,56.875 0,33.4565 22.7799,55.4375 54.875001,55.4375 22.377864,0 41.204637,-11.2548 53.875,-29.75 l -4.4375,-4.375 c -10.040961,11.6214 -17.080222,16.625 -28.5625,16.625 -18.092727,0 -30.34802,-10.1618 -39.125,-31.375 l 68.4375,-23.125 c -5.359481,-18.6762 -16.49279,-40.3125 -48.4375,-40.3125 z m -4.0625,5.25 c 9.103832,0 18.84375,9.2242 18.84375,28.0313 0,8.478 -2.331737,11.4358 -8.5,14.5 l -28.1875,9.9687 c 0,0 -2.218751,-10.1123 -2.218751,-17.3125 0,-24.4021 9.352971,-35.1875 20.062501,-35.1875 z m 16.25,2.375 c 8.724839,3.4101 16.84375,12.2591 16.84375,24.1563 0,8.7007 -5.041675,10.7436 -9.40625,11.8124 0,0 1.3125,-4.0368 1.3125,-10.2187 0,-9.0751 -2.270725,-17.1763 -8.75,-25.75 z m -44.625001,8.6875 c -5.6188,11.0971 -9.90625,23.4059 -9.90625,36.75 0,19.1233 6.91001,34.9343 27.687501,53.4062 -25.004581,-9.192 -36.062501,-26.3736 -36.062501,-49.4062 0,-16.7999 5.36495,-29.0383 18.28125,-40.75 z"
         id="path3392"
         inkscape:connector-curvature="0" />
      <path
         style="fill:#000000;stroke:none"
         d="m 106.58891,1644.375 -46.000001,14 0,5 c 5.167655,0 11,2.3581 11,10 l 0,30.4375 c 0,0 -5.765309,-4.5313 -16.125,-4.5313 -28.863094,0 -57.1875001,26.9645 -57.1875001,64.5938 0,25.6979 15.1536251,46.5938 39.9687501,46.5938 17.466982,0 28.109287,-9.9317 34.625,-16.7188 0,0 0.624959,8.0257 6.90625,16.7188 10.922348,-2.3332 24.966271,-5.0662 38.625001,-6.8126 l 0,-5.375 c -9.28894,0 -11.8125,-5.8704 -11.8125,-12.9062 l 0,-141 z m -21.968751,12.8438 0,127.1874 c 0,6.8733 1.791488,10.4926 5.125,17.9376 l -7.3125,1.5937 c -2.713524,-5.0971 -4.875,-11.9694 -4.875,-19.375 l 0,-109.9375 c 0,-5.6597 -2.178794,-11.3593 -6.1875,-13.8125 l 13.25,-3.5937 z m -24.5625,48.5937 c 6.405643,0 11.53125,5.5625 11.53125,5.5625 l 0,76 c 0,0 -5.630496,6.4688 -12.59375,6.4688 -17.036349,0 -25,-19.4892 -25,-45.4376 0,-20.386 8.511087,-42.5937 26.0625,-42.5937 z m -29,6.0937 c -12.245737,15.5881 -18.5625,33.6776 -18.5625,50.9063 0,16.3728 4.084813,28.6706 21.84375,42.3437 -15.76125,-1.9376 -30.6562501,-16.9466 -30.6562501,-42.3437 0,-21.6609 10.0612411,-39.1496 27.3750001,-50.9063 z"
         id="path3394"
         inkscape:connector-curvature="0" />
    </g>
    <path
       sodipodi:type="arc"
       style="fill:none;stroke:#000000;stroke-width:3.39662433;stroke-miterlimit:4;stroke-dasharray:none"
       id="path3396"
       sodipodi:cx="-982"
       sodipodi:cy="1230.3622"
       sodipodi:rx="57"
       sodipodi:ry="57"
       d="m -925,1230.3622 c 0,31.4802 -25.51977,57 -57,57 -31.4802,0 -57,-25.5198 -57,-57 0,-31.4802 25.5198,-57 57,-57 31.48023,0 57,25.5198 57,57 z"
       transform="matrix(1.0651936,0,0,1.0651936,597.94505,-886.43754)" />
    <path
       style="fill:#000000;stroke:none"
       d="m -422.8069,426.2373 0.86982,0.0912 0.73247,0.45775 0.54934,0.68668 0.4578,0.82404 0.41202,2.38054 0.27468,2.24329 0.45779,1.37335 0.59513,0.9614 0.6867,0.45775 0.41201,0.27471 0.41202,0.59511 -0.0458,0.54933 -0.32045,0.27471 -0.82404,0.41197 -1.00715,0.54942 -0.77825,0.41197 -0.36624,0.3205 0.77826,1.05286 1.46494,1.41925 1.46494,0.96129 0.91559,-0.54932 0.96139,-1.37337 1.14448,-1.64807 0.36624,-1.00718 0.22889,-0.77825 -0.27467,-1.05297 -0.59514,-0.64089 -0.73246,-1.19022 -0.59515,-0.82403 -0.50356,-1.19032 -0.54936,-2.24318 -0.27468,-2.47212 0,-1.96847 -0.13734,-0.82403 -0.82402,-1.14454 -1.41917,-1.37336 -1.37339,-0.59511 -0.91559,0 -1.14449,0.22893 -0.68669,0.73247 -1.32761,0.68667 -1.28183,0.0456 -2.33475,0 -2.15165,-0.0912 -2.01429,-0.13735 -1.41917,-0.68669 -1.00715,-0.5951 -0.59514,-0.59522 -0.27467,-0.59511 -0.0458,-0.5951 0.0916,-0.59511 0.13735,-0.3205 0.73246,-0.45775 0.45779,0.18303 0.41202,0.36629 0.41202,0.64089 0.96137,0.59511 1.23605,0.50364 2.4721,0.22883 1.92273,0.0912 1.87696,-0.27461 1.55651,-0.68667 1.41916,-0.82404 0.6867,-0.86982 1.41916,-0.54943 1.32761,-0.45775 1.0987,0.22892 0.96137,0.36619 1.41916,0.45785 0.91561,0.86983 1.87696,2.06004 1.05293,1.92268 1.46495,2.65525 0.50357,1.41915 0.50356,1.00717 1.00715,0.82404 0.86981,0.45775 0.50358,0.82404 0.0458,0.77825 -0.0458,0.82404 -0.18312,1.09875 1.60229,0.27471 1.23605,-0.0912 0.91558,-0.9614 0.32046,-1.00718 -0.0458,-0.68668 -0.36624,-1.09875 -0.50357,-1.28179 -0.86981,-1.37336 -0.82404,-1.09874 -0.86981,-1.00719 -1.05292,-1.28179 -0.73248,-1.236 -0.50358,-1.78543 -0.96136,-1.78543 -0.77825,-1.92268 -0.54935,-1.51072 -0.59515,-0.68678 -0.73246,-0.77826 -0.6867,-0.64089 -0.68669,-0.54932 -0.91559,-0.36629 -0.96137,0 -0.68669,0.36629 -0.73248,0.36628 -0.54935,0.36618 -0.73248,0.3205 -0.86981,0.0912 -0.86981,-0.0912 -0.82403,0.0456 -0.82403,-0.13736 -0.50358,-0.22893 -0.41201,-0.3205 -0.36624,-1.00707 -0.2289,-1.23611 0.0916,-1.32757 0.32046,-2.70104 -0.0916,-1.09865 0.27468,-1.46493 0.27468,-1.19033 0.59513,-0.82403 1.00715,-0.41197 0.86981,-0.59511 0.68669,-0.54943 0.27469,-0.86981 0.18312,-1.23601 -0.13734,-1.96857 -0.41202,-1.37336 -0.64091,-2.01426 -0.86981,-1.32767 -0.50358,-1.19023 -0.91559,-1.83121 -1.05293,-1.05286 -0.64091,-1.14454 -1.05293,-0.68668 -1.09871,-0.77825 -2.65521,-1.69386 -1.46495,-0.73246 -1.64806,-0.91561 -1.09871,-0.18314 -0.73247,1.28189 -0.91559,0.36618 -0.82402,-0.0912 -0.45781,-0.73247 -0.73246,-0.82404 -0.91561,-1.00708 -1.00714,-0.45785 -1.28183,0.27471 -1.00715,1.28179 -0.73246,1.00718 -1.00716,1.19032 -0.54934,0.73247 0.18311,1.28179 0.36623,1.28178 -1.00715,1.37347 -1.09872,1.09865 -1.55649,1.73964 -1.19027,1.46493 -0.18312,0.73247 -0.27468,1.19032 0.54935,1.37336 0.91559,1.37336 1.00716,1.46493 1.73962,1.09875 1.37339,0.27472 0.91558,-1.46504 0.73248,-1.73954 1.00716,-1.00718 0.54934,-1.28179 1.28183,-0.9156 0.64092,-0.91561 0.54935,-0.36629 0.64091,-0.0912 0.4578,0.27471 0,0.45785 0,0.82394 -0.18312,1.00718 -0.73248,1.19032 -1.28182,2.74672 -0.91559,1.83121 -0.64091,1.37337 -0.73248,1.37336 -1.28183,1.00718 -1.00714,0.54932 -0.9156,0.0456 -0.77824,0 -0.73248,-0.32039 -0.59514,-0.18315 -0.41201,-0.36628 -0.82404,-1.19022 -1.19026,-1.05297 -1.19028,-1.83111 -1.3276,-1.28189 -1.69384,-0.45775 -2.19741,-0.13736 -1.60229,-0.73247 -0.96137,-0.36628 -0.73247,-0.45775 -0.59514,-0.45775 -0.50357,-0.27472 -0.77824,-0.0912 -0.68672,0.22894 -0.36623,0.32039 -0.36622,0.59521 0.13732,0.73247 0.27468,0.82403 0.82403,0.6409 0.82405,0.41197 1.60228,0.27471 1.51071,-0.0456 1.46495,0.18315 1.46495,0.5951 1.09871,0.6409 1.05292,1.05296 1.28183,1.64808 1.00715,1.32757 1.23605,1.19022 0.4578,0.73257 0.18311,0.68668 -0.0458,0.64089 -0.0916,0.50354 -0.45779,0.36629 -0.77824,0.22882 -0.68671,0 -0.73247,-0.22882 -0.86981,-0.3205 -0.82404,-1.14444 -1.0987,-1.19032 -1.09871,-0.82404 -0.6867,-0.96139 -1.41916,-0.82404 -1.73963,-1.09864 -1.46494,-0.50354 -1.46494,0.13725 -1.41917,0.18315 -1.28183,-0.13736 -1.00715,-0.36618 -0.6867,-0.45786 -1.23604,-0.27461 -0.86981,-0.13735 -0.50357,0.22892 -0.45781,0.50354 -0.13734,0.6409 -0.0456,0.68667 0.41204,0.6409 0.73247,0.36628 0.64092,0.36619 0.82403,0.18314 2.24319,-0.0912 2.06009,0.0456 0.68668,0 1.19028,0.22893 0.82402,0.54932 1.32762,1.09876 0.59513,0.64089 0.86981,0.59511 0.82403,0.41207 0.2289,0.22893 0.0916,0.54932 0,0.6409 -0.27468,0.45775 -0.45779,0.36628 -0.50358,0.3205 -1.00715,0.13726 -1.73962,-0.0456 -1.73962,-0.22882 -1.78541,-0.59522 -0.96137,-0.59511 -0.96137,-0.50353 -1.83117,-0.41207 -2.74678,-0.13726 -2.10583,0.0912 -1.64807,0.13736 -1.28189,0.45786 -0.68668,0.36617 -0.86982,0.41208 -0.54933,0.41196 -0.68668,0.36629 -0.82403,0.27461 -0.77826,-0.13726 -0.82403,-0.54943 -1.00718,-0.77825 -1.14444,-1.05286 -1.28189,-1.00718 -1.19021,-1.41914 -1.64808,-1.05297 -1.236,-0.9156 -1.19032,-0.50354 -1.37336,-0.3205 -1.14454,-0.54933 -1.5565,-0.13735 -1.28179,0 -1.32757,0.36628 -0.68679,0.59511 -0.77825,0.73247 -1.09865,1.00718 -0.50364,0.77825 -0.50354,0.73247 -0.41196,0.77825 -0.41208,0.96139 0.13736,0.82393 0.27472,0.86983 0.45775,0.86982 0.6409,0.77825 0.5952,0.91561 0.59511,0.54932 0.6409,0.86982 0.54933,0.68668 0.45785,0.41207 0.54932,0.6409 0.22893,0.45785 0.18304,0.91551 0.3205,0.77825 0,0.59521 -0.3205,0.6409 -0.3204,0.45775 -0.54932,0.59511 -0.68678,0.45785 -0.45775,0.22893 -0.91562,0.41197 -1.09864,0.5951 -1.32768,0.77826 -0.45775,0.54942 -0.54933,0.91551 -0.18314,0.59521 0,0.68668 0,0.36618 0.3204,0.50365 0.50364,0.0456 0.41196,-0.22893 0.50365,-0.27471 0.73247,-0.59511 0.73246,-0.50353 0.54932,-0.45786 0.91561,-0.41197 0.77825,-0.41207 0.91561,-0.41197 1.236,-0.13735 0.86983,0 1.00718,0.22893 0.86982,0 0.64089,-0.22893 0.41197,-0.3205 0.50364,-0.59511 0.68668,-0.68668 0.3204,-0.54932 0.27471,-1.14454 0.0456,-0.64089 -0.0456,-0.77825 -0.3205,-0.9614 -0.59511,-1.00707 -1.05297,-1.51082 -0.64089,-0.82404 -1.32757,-1.37336 -0.6409,-0.45775 -0.32049,-0.73247 -0.0456,-0.59521 0.0912,-0.6409 0.22893,-0.45775 0.68668,-0.36628 0.3205,-0.27461 0.45775,0.18304 0.64089,0.3205 0.41207,0.50353 0.36618,0.54943 0.68668,0.86982 1.00718,0.77825 1.05297,0.54932 1.236,0.27472 1.83122,-0.0912 0.73246,0.22883 0.45775,0.22893 0.50365,0.36628 0.13725,0.50354 0,0.64089 -0.50354,0.68668 -0.54932,0.36629 -0.54932,0.86982 -0.50364,0.73246 -0.3204,1.19022 0.13725,1.2819 0.13736,1.5565 0.3205,1.37336 0.32039,1.28179 0.41207,0.91561 0,0.77825 -0.41207,0.77825 -0.5951,0.77825 -0.22894,0.68668 -0.41196,1.14453 -1.00718,0.82404 -0.59511,0.68668 -1.09875,0.73247 -0.54933,0.50354 -0.86981,0.45785 -1.00718,0.96139 -0.6409,0.68669 -0.6409,0.82403 -0.86982,0.86982 -0.27461,0.82394 0.0456,0.82403 0.32039,0.86983 0.3205,0.50364 0.50354,0.73246 0.0456,0.6409 0.41197,1.41914 0.13736,0.91561 0.0911,1.05297 -0.22892,0.9155 -0.3204,0.82404 -0.27471,1.00718 -0.13736,0.82403 0.0456,0.91561 0.3205,1.09865 0.41197,0.96139 0.73247,1.19032 0.54942,1.05286 1.00718,0.86983 0.64089,0.64089 0.77825,0.73257 0.36619,0.54933 0.41207,0.50353 0.22882,0.50365 0.41207,0.36617 0.82508,-0.27585 0.79585,-0.361 0.84165,-0.45319 0.58268,-0.84165 0.51794,-0.64742 -0.19423,-0.64742 -1.03587,-0.71216 -1.16536,-1.16536 -1.10061,-1.94226 -0.71217,-1.74804 -0.71216,-1.74803 -0.7769,-3.17236 -0.32371,-2.4602 0.0642,-1.48907 0.4532,-1.2301 1.16535,-1.03587 1.10062,-1.42433 1.42432,-0.71216 1.55381,-0.19423 2.13649,0.12949 1.55381,0.12949 2.20123,-0.77691 1.68329,-0.38845 1.48907,-1.03587 1.35958,-0.84165 1.42433,-1.16536 0.7769,-1.10062 1.48907,-0.97113 0.71216,-1.35958 0.4532,-1.2301 0.25896,-1.10061 0.25897,-0.51794 0.38845,-0.58268 0.38845,-0.12948 0.64743,0.12948 0.32371,0.38845 0,0.51794 0,0.77691 0,0.90638 -0.58268,1.42433 -0.38846,0.97113 -0.71216,0.84164 -1.03587,1.29485 -1.03587,0.7769 -0.97113,1.03588 -1.03587,0.84164 -0.77691,0.64742 -1.2301,0.71217 -0.64742,0.38845 -0.64742,0.45319 -0.38845,0.4532 -0.25897,0.51793 0,0.71217 0.38845,0.7769 0.64742,0.90639 0.90639,0.97113 1.61855,2.39546 0.97113,2.39545 1.16536,2.007 0.77691,1.61856 0.97113,1.68329 -0.32371,1.29484 0.45319,0.7769 1.10061,0.38846 0.51794,0.64742 0.38845,0.71216 0.0648,2.4602 0.84164,0.51793 1.29485,-0.12948 1.16535,-0.0642 1.10062,-0.32371 0.7769,-0.38845 -0.71216,-1.23011 -0.90639,-0.90638 -0.90639,-1.03587 0.19423,-0.51794 -0.32371,-1.16536 -0.32371,-0.97113 -1.16536,-1.29484 -0.71216,-1.10061 -1.29485,-1.87752 -0.97113,-2.78391 -0.7769,-1.74804 -0.45319,-0.90639 -0.12949,-0.71216 -0.0647,-0.77691 0.32371,-0.71216 0.84165,-0.71216 0.7769,-0.58268 1.55381,-0.84165 1.48906,-1.03587 1.03588,-0.7769 0.90639,-0.4532 1.35958,-0.51793 0.90639,-0.0642 0.64742,0.19423 0.90639,0.32371 1.35958,0.25897 2.39546,0.19422 1.74803,0 1.29484,0 1.94227,-0.12948 2.13648,-0.19423 1.81278,-0.45319 1.55381,-0.51794 1.2301,-0.45319 1.16536,-0.58268 c 0,0 1.2301,-0.90639 1.48907,-1.03587 0.25896,-0.12949 1.61855,-1.03588 1.61855,-1.03588 l 0.97113,-0.45319 0.84164,-0.12949 1.42433,0 0.84164,-0.0642 1.48907,-0.25897 0.97113,0 0.84165,-0.32371 1.29484,-0.38845 0.90639,-0.51794 0.77691,-0.64742 0.12948,-0.45319 0.45319,-0.4532 0.4532,-0.3237 z"
       id="path4216"
       inkscape:connector-curvature="0"
       sodipodi:nodetypes="cccccccccccccccccccccccccccccccccccccccccccccccccccccccccccccccccccccccccccccccccccccccccccccccccccccccccccccccccccccccccccccccccccccccccccccccccccccccccccccccccccccccccccccccccccccccccccccccccccccccccccccccccccccccccccccccccccccccccccccccccccccccccccccccccccccccccccccccccccccccccccccccccccccccccccccccccccccccccccccccccccccccccccccccccccccccccccccccccccccccccccccccccccccccccccccccccccccccccccccccccccccccccccccccccccccccccc" />
    <path
       style="fill:none;stroke:#000000;stroke-width:1.55380929;stroke-linecap:round;stroke-miterlimit:4;stroke-opacity:1;stroke-dasharray:none"
       d="m -466.39553,465.68033 -0.0231,9.52858"
       id="path4236"
       inkscape:connector-curvature="0"
       sodipodi:nodetypes="cc" />
    <path
       style="fill:none;stroke:#000000;stroke-width:1.55380929;stroke-linecap:round;stroke-linejoin:round;stroke-miterlimit:4;stroke-opacity:1;stroke-dasharray:none"
       d="m -454.23168,465.84752 c -3.20438,0 -4.0419,3.40491 -4.13496,5.58428 -0.19764,2.36863 0.84411,4.04903 3.34075,4.04903 2.06544,0.0725 3.95015,-1.18235 3.97356,-3.39839 0.021,-1.99385 -1.70752,-2.90532 -3.75528,-2.88439 -1.71515,0.0176 -3.40159,1.36155 -3.60425,2.78701"
       id="path4242"
       inkscape:connector-curvature="0"
       sodipodi:nodetypes="cccssc" />
    <path
       sodipodi:nodetypes="ccc"
       inkscape:connector-curvature="0"
       id="path4244"
       d="m -432.00123,466.13383 6.0475,-0.0839 -4.976,9.58659"
       style="fill:none;stroke:#000000;stroke-width:1.55380929;stroke-linecap:round;stroke-linejoin:round;stroke-miterlimit:4;stroke-opacity:1;stroke-dasharray:none" />
    <path
       style="fill:none;stroke:#000000;stroke-width:1.55380929;stroke-linecap:round;stroke-linejoin:round;stroke-miterlimit:4;stroke-opacity:1;stroke-dasharray:none"
       d="m -443.97851,466.13383 6.0475,-0.0839 -4.97599,9.58659"
       id="path4246"
       inkscape:connector-curvature="0"
       sodipodi:nodetypes="ccc" />
  </g>
</svg>
