<?xml version="1.0" encoding="UTF-8" standalone="no"?>
<!-- Created with Inkscape (http://www.inkscape.org/) -->
<svg
   xmlns:svg="http://www.w3.org/2000/svg"
   xmlns="http://www.w3.org/2000/svg"
   version="1.0"
   width="188"
   height="54"
   viewBox="0 0 187.086 53.892"
   id="Layer_1"
   xml:space="preserve"><defs
   id="defs62" />



























<g
   transform="matrix(0.998,0,0,0.998,-0.269,0.107784)"
   id="g2185"><line
     style="fill:#000000;fill-opacity:1;stroke:#040606;stroke-width:0.5316;stroke-miterlimit:2.61310005"
     id="line3"
     y2="44.320999"
     x2="184.561"
     y1="44.320999"
     x1="0.38299999"
     stroke-miterlimit="2.6131" /><path
     d="M 84.817,11.329 C 84.817,17.606 84.97,17.76 85.965,17.76 L 87.037,17.76 C 88.644,17.76 92.625,17.76 93.543,16.075 C 93.696,15.846 93.772,15.692 94.002,15.692 C 94.231,15.692 94.308,15.845 94.308,16.075 C 94.308,16.305 94.231,16.764 93.542,18.831 L 79.612,18.831 L 79.612,17.913 L 80.989,17.913 C 81.372,17.913 81.448,17.76 81.448,17.454 L 81.448,4.976 C 81.448,1.072 81.219,0.996 80.3,0.996 L 78.922,0.996 L 78.922,0 L 86.577,0 L 86.577,0.995 L 85.276,0.995 C 84.893,0.995 84.817,1.148 84.817,1.454 L 84.817,11.329 L 84.817,11.329 z "
     style="fill:#000000;fill-opacity:1;fill-rule:evenodd"
     id="path5" /><path
     d="M 103.112,18.448 C 101.122,18.448 97.907,16.688 97.907,10.946 C 97.907,5.281 101.582,5.129 102.27,5.129 C 104.337,5.129 107.552,6.889 107.552,12.63 C 107.552,18.295 103.801,18.448 103.112,18.448 L 103.112,18.448 z M 102.5,19.291 C 107.094,19.291 110.155,15.846 110.155,11.406 C 110.155,7.119 107.323,4.287 102.96,4.287 C 98.366,4.287 95.305,7.732 95.305,12.172 C 95.304,16.458 98.136,19.291 102.5,19.291 L 102.5,19.291 z "
     style="fill:#000000;fill-opacity:1;fill-rule:evenodd"
     id="path7" /><path
     d="M 111.15,18.142 L 112.145,18.142 C 112.452,18.142 112.452,17.989 112.452,17.76 L 112.452,8.497 C 112.452,5.588 112.299,5.435 111.609,5.435 L 110.614,5.435 L 110.614,4.746 L 121.561,4.746 C 121.254,6.813 121.254,6.966 121.025,6.966 C 120.718,6.966 120.718,6.813 120.642,6.506 C 120.642,6.124 119.494,5.588 116.967,5.588 L 115.36,5.588 C 115.131,5.588 115.054,5.664 115.054,5.894 L 115.054,10.793 L 117.12,10.793 C 119.493,10.793 119.57,10.487 119.57,9.798 L 119.57,9.033 L 120.258,9.033 L 120.258,13.013 L 119.57,13.013 L 119.57,12.171 C 119.57,11.788 119.493,11.559 117.12,11.559 L 115.054,11.559 L 115.054,13.166 C 115.054,17.912 115.13,17.989 115.896,17.989 L 116.662,17.989 C 117.887,17.989 120.872,17.989 121.561,16.764 C 121.713,16.611 121.713,16.458 121.943,16.458 C 122.096,16.458 122.173,16.611 122.173,16.764 C 122.173,16.917 122.096,17.3 121.561,18.831 L 111.15,18.831 L 111.15,18.142 L 111.15,18.142 z "
     style="fill:#000000;fill-opacity:1;fill-rule:evenodd"
     id="path9" /><path
     d="M 144.142,5.435 L 143.454,5.435 C 143.071,5.435 142.995,5.588 142.766,6.124 L 137.943,18.831 C 137.79,19.06 137.714,19.29 137.56,19.29 C 137.331,19.29 137.254,19.06 137.101,18.754 L 133.35,9.338 L 129.906,18.601 C 129.753,18.983 129.677,19.29 129.446,19.29 C 129.217,19.29 129.217,19.137 129.064,18.754 L 124.624,7.731 C 123.705,5.511 123.629,5.435 123.093,5.435 L 122.405,5.435 L 122.405,4.746 L 127.84,4.746 L 127.84,5.435 L 126.692,5.435 C 126.54,5.435 126.386,5.512 126.386,5.588 C 126.386,5.741 126.922,6.889 127.305,7.808 L 130.29,14.927 L 132.893,8.267 C 131.667,5.435 131.591,5.435 131.055,5.435 L 130.367,5.435 L 130.367,4.746 L 136.108,4.746 L 136.108,5.435 L 134.806,5.435 C 134.577,5.435 134.5,5.512 134.5,5.588 C 134.5,5.664 135.648,8.42 135.801,8.726 L 138.405,15.156 L 139.935,11.252 C 141.007,8.573 141.696,6.276 141.696,5.817 C 141.696,5.511 141.62,5.434 141.161,5.434 L 140.013,5.434 L 140.013,4.746 L 144.146,4.746 L 144.146,5.435 L 144.142,5.435 z "
     style="fill:#000000;fill-opacity:1;fill-rule:evenodd"
     id="path11" /><path
     d="M 144.678,8.42 C 144.678,5.664 147.511,4.286 150.036,4.286 C 150.955,4.286 151.874,4.439 152.716,4.745 C 152.792,5.357 152.869,6.2 152.869,6.582 C 152.869,6.812 152.716,6.888 152.562,6.888 C 152.333,6.888 152.256,6.659 152.256,6.505 C 152.027,5.51 150.495,5.204 149.73,5.204 C 148.275,5.204 146.745,6.046 146.745,7.654 C 146.745,11.099 154.017,9.491 154.017,14.85 C 154.017,15.539 153.328,19.29 148.352,19.29 C 147.127,19.29 145.903,19.06 144.754,18.601 C 144.525,17.376 144.371,16.84 144.371,16.534 C 144.371,16.381 144.371,16.151 144.677,16.151 C 144.906,16.151 144.984,16.381 145.06,16.61 C 145.443,17.835 147.357,18.37 148.505,18.37 C 150.189,18.37 151.949,17.452 151.949,15.538 C 151.951,11.789 144.678,13.473 144.678,8.42 L 144.678,8.42 z "
     style="fill:#000000;fill-opacity:1;fill-rule:evenodd"
     id="path13" /><path
     d="M 95.763,25.415 C 95.457,25.415 95.457,25.262 95.304,24.726 C 95.075,23.807 92.931,22.965 91.094,22.965 C 86.118,22.965 83.133,26.945 83.133,31.845 C 83.133,36.284 85.736,40.419 90.482,40.419 C 92.166,40.419 95.688,39.499 95.994,37.509 C 96.07,37.28 96.146,36.974 96.453,36.974 C 96.759,36.974 96.836,37.203 96.836,37.281 C 96.836,37.586 96.759,38.199 96.607,40.189 C 94.54,41.185 91.86,41.644 89.564,41.644 C 83.67,41.644 79.536,38.658 79.536,32.456 C 79.536,25.873 85.048,21.74 91.325,21.74 C 93.086,21.74 94.77,22.123 96.377,22.812 C 96.146,25.415 96.146,25.415 95.763,25.415 L 95.763,25.415 z "
     style="fill:#000000;fill-opacity:1;fill-rule:evenodd"
     id="path15" /><path
     d="M 103.189,37.356 C 103.189,40.34 103.341,40.419 104.031,40.419 L 105.026,40.419 L 105.026,41.107 L 99.285,41.107 L 99.285,40.419 L 100.28,40.419 C 100.587,40.419 100.587,40.265 100.587,40.036 L 100.587,30.772 C 100.587,27.788 100.51,27.71 99.744,27.71 L 98.749,27.71 L 98.749,27.021 L 104.567,27.021 L 104.567,27.71 L 103.572,27.71 C 103.265,27.71 103.189,27.863 103.189,28.092 L 103.189,37.356 L 103.189,37.356 z "
     style="fill:#000000;fill-opacity:1;fill-rule:evenodd"
     id="path17" /><path
     d="M 119.111,37.05 L 119.111,32.38 C 119.111,31.155 119.111,29.548 118.958,28.476 C 118.882,27.788 118.729,27.711 118.116,27.711 L 117.197,27.711 L 117.197,27.022 L 121.408,27.022 L 121.408,27.711 L 120.719,27.711 C 120.184,27.711 120.031,27.711 120.031,28.017 L 120.031,41.107 C 120.031,41.261 119.954,41.337 119.802,41.337 C 119.649,41.337 119.495,41.185 119.189,40.8 L 109.315,29.624 L 109.315,35.749 C 109.315,36.974 109.315,38.581 109.467,39.653 C 109.62,40.341 109.774,40.419 110.386,40.419 L 111.228,40.419 L 111.228,41.107 L 107.095,41.107 L 107.095,40.419 L 107.707,40.419 C 108.319,40.419 108.395,40.419 108.395,40.112 L 108.395,30.007 C 108.395,28.706 107.936,27.711 107.017,27.711 L 106.405,27.711 L 106.405,27.022 L 110.232,27.022 L 119.111,37.05 L 119.111,37.05 z "
     style="fill:#000000;fill-opacity:1;fill-rule:evenodd"
     id="path19" /><path
     d="M 122.862,40.419 L 123.857,40.419 C 124.086,40.419 124.164,40.265 124.164,40.036 L 124.164,30.772 C 124.164,27.788 124.011,27.71 123.321,27.71 L 122.326,27.71 L 122.326,27.021 L 133.196,27.021 C 132.967,29.088 132.967,29.24 132.737,29.24 C 132.43,29.24 132.354,29.088 132.354,28.781 C 132.354,28.398 131.206,27.863 128.603,27.863 L 126.996,27.863 C 126.843,27.863 126.767,27.939 126.767,28.17 L 126.767,32.992 L 128.833,32.992 C 131.206,32.992 131.283,32.762 131.283,32.074 L 131.283,31.31 L 131.895,31.31 L 131.895,35.29 L 131.283,35.29 L 131.283,34.446 C 131.283,34.063 131.206,33.835 128.833,33.835 L 126.767,33.835 L 126.767,35.442 C 126.767,40.188 126.843,40.264 127.609,40.264 L 128.375,40.264 C 129.6,40.264 132.585,40.264 133.274,39.039 C 133.35,38.887 133.427,38.732 133.58,38.732 C 133.809,38.732 133.887,38.886 133.887,39.039 C 133.887,39.192 133.734,39.574 133.275,41.105 L 122.864,41.105 L 122.864,40.419 L 122.862,40.419 z "
     style="fill:#000000;fill-opacity:1;fill-rule:evenodd"
     id="path21" /><path
     d="M 139.167,28.171 C 139.167,27.941 139.244,27.864 139.474,27.864 L 140.01,27.864 C 142.689,27.864 143.454,29.93 143.454,31.155 C 143.454,32.839 142.229,33.911 140.545,33.911 C 140.01,33.911 139.474,33.835 139.167,33.682 L 139.167,28.171 L 139.167,28.171 z M 139.167,34.446 C 139.78,34.676 140.469,34.753 141.081,34.753 C 143.761,34.753 146.057,33.146 146.057,30.849 C 146.057,29.32 145.139,27.022 141.159,27.022 L 134.728,27.022 L 134.728,27.711 L 135.723,27.711 C 136.412,27.711 136.565,27.788 136.565,30.773 L 136.565,40.037 C 136.565,40.266 136.489,40.42 136.259,40.42 L 135.264,40.42 L 135.264,41.108 L 141.005,41.108 L 141.005,40.42 L 140.01,40.42 C 139.244,40.42 139.167,40.342 139.167,37.357 L 139.167,34.446 L 139.167,34.446 z "
     style="fill:#000000;fill-opacity:1;fill-rule:evenodd"
     id="path23" /><path
     d="M 150.266,35.442 C 150.266,40.188 150.343,40.264 151.109,40.264 L 151.875,40.264 C 153.1,40.264 156.085,40.264 156.773,39.039 C 156.85,38.887 156.926,38.732 157.08,38.732 C 157.309,38.732 157.386,38.886 157.386,39.039 C 157.386,39.192 157.234,39.574 156.774,41.105 L 146.287,41.105 L 146.287,40.417 L 147.359,40.417 C 147.588,40.417 147.665,40.263 147.665,40.034 L 147.665,30.77 C 147.665,27.786 147.513,27.708 146.823,27.708 L 145.828,27.708 L 145.828,27.019 L 151.569,27.019 L 151.569,27.708 L 150.574,27.708 C 150.267,27.708 150.191,27.861 150.267,28.09 L 150.267,35.442 L 150.266,35.442 z "
     style="fill:#000000;fill-opacity:1;fill-rule:evenodd"
     id="path25" /><path
     d="M 158.458,40.419 L 159.453,40.419 C 159.759,40.419 159.836,40.265 159.836,40.036 L 159.836,30.772 C 159.836,27.788 159.683,27.71 158.917,27.71 L 157.922,27.71 L 157.922,27.021 L 168.868,27.021 C 168.639,29.088 168.562,29.24 168.333,29.24 C 168.104,29.24 168.026,29.088 168.026,28.781 C 167.95,28.398 166.801,27.863 164.275,27.863 L 162.668,27.863 C 162.439,27.863 162.362,27.939 162.362,28.17 L 162.362,32.992 L 164.428,32.992 C 166.801,32.992 166.877,32.762 166.877,32.074 L 166.877,31.31 L 167.566,31.31 L 167.566,35.29 L 166.877,35.29 L 166.877,34.446 C 166.877,34.063 166.801,33.835 164.428,33.835 L 162.362,33.835 L 162.362,35.442 C 162.362,40.188 162.438,40.264 163.204,40.264 L 163.97,40.264 C 165.195,40.264 168.256,40.264 168.946,39.039 C 169.022,38.887 169.022,38.732 169.253,38.732 C 169.405,38.732 169.482,38.886 169.482,39.039 C 169.482,39.192 169.405,39.574 168.946,41.105 L 158.459,41.105 L 158.459,40.419 L 158.458,40.419 z "
     style="fill:#000000;fill-opacity:1;fill-rule:evenodd"
     id="path27" /><path
     d="M 178.896,41.106 L 178.896,40.418 L 180.044,40.418 C 180.197,40.418 180.351,40.418 180.351,40.264 C 180.351,40.112 179.891,39.422 179.815,39.346 L 176.83,34.752 C 175.911,35.9 173.614,39.346 173.614,40.111 C 173.614,40.34 173.691,40.418 173.921,40.418 L 175.222,40.418 L 175.222,41.106 L 170.86,41.106 L 170.86,40.418 L 171.319,40.418 C 172.007,40.418 172.161,40.188 172.697,39.27 C 173.692,37.739 174.993,35.901 176.371,33.987 L 173.463,29.624 C 172.237,27.711 172.237,27.711 171.396,27.711 L 171.013,27.711 L 171.013,27.022 L 176.831,27.022 L 176.831,27.711 L 175.606,27.711 C 175.453,27.711 175.376,27.711 175.376,27.864 C 175.376,28.016 175.912,28.858 176.065,29.012 L 178.208,32.303 C 179.663,30.543 181.271,28.475 181.271,28.016 C 181.271,27.787 181.118,27.71 180.812,27.71 L 179.74,27.71 L 179.74,27.021 L 183.951,27.021 L 183.951,27.71 L 183.185,27.71 C 182.878,27.787 182.725,27.939 182.419,28.322 C 181.194,29.853 179.969,31.461 178.668,32.992 L 183.338,40.035 C 183.49,40.264 183.72,40.418 183.95,40.418 L 184.638,40.418 L 184.638,41.106 L 178.896,41.106 L 178.896,41.106 z "
     style="fill:#000000;fill-opacity:1;fill-rule:evenodd"
     id="path29" /><polygon
     points="0,47.919 6.583,47.919 6.583,49.298 1.837,49.298 1.837,50.216 6.354,50.216 6.354,51.44 1.837,51.44 1.837,52.437 6.66,52.437 6.66,53.892 0,53.892 0,47.919 "
     style="fill:#000000;fill-opacity:1;fill-rule:evenodd"
     id="polygon31" /><polygon
     points="14.927,47.919 17.76,47.919 21.205,52.284 21.205,52.284 21.205,47.919 23.042,47.919 23.042,53.892 20.209,53.892 16.765,49.528 16.765,49.528 16.765,53.892 14.927,53.892 14.927,47.919 "
     style="fill:#000000;fill-opacity:1;fill-rule:evenodd"
     id="polygon33" /><polygon
     points="31.003,47.919 37.969,47.919 37.969,49.374 35.366,49.374 35.366,53.892 33.529,53.892 33.529,49.374 31.003,49.374 31.003,47.919 "
     style="fill:#000000;fill-opacity:1;fill-rule:evenodd"
     id="polygon35" /><polygon
     points="45.853,47.919 52.437,47.919 52.437,49.298 47.69,49.298 47.69,50.216 52.207,50.216 52.207,51.44 47.69,51.44 47.69,52.437 52.513,52.437 52.513,53.892 45.853,53.892 45.853,47.919 "
     style="fill:#000000;fill-opacity:1;fill-rule:evenodd"
     id="polygon37" /><path
     d="M 62.618,49.374 L 65.45,49.374 C 66.062,49.374 66.292,49.528 66.292,49.987 L 66.292,50.216 C 66.292,50.675 66.139,50.829 65.603,50.829 L 62.618,50.829 L 62.618,49.374 L 62.618,49.374 z M 60.78,53.892 L 62.617,53.892 L 62.617,52.36 L 65.526,52.36 C 66.062,52.36 66.215,52.512 66.215,53.202 L 66.215,53.891 L 68.052,53.891 L 68.052,52.895 C 68.052,51.901 67.669,51.67 67.057,51.518 L 67.057,51.518 C 67.899,51.364 68.129,50.829 68.129,50.063 L 68.129,49.68 C 68.129,48.608 67.746,47.918 66.292,47.918 L 60.78,47.918 L 60.78,53.892 L 60.78,53.892 z "
     style="fill:#000000;fill-opacity:1;fill-rule:evenodd"
     id="path39" /><polygon
     points="74.023,47.919 81.066,47.919 81.066,49.374 78.463,49.374 78.463,53.892 76.626,53.892 76.626,49.374 74.023,49.374 74.023,47.919 "
     style="fill:#000000;fill-opacity:1;fill-rule:evenodd"
     id="polygon41" /><path
     d="M 91.859,49.298 L 93.007,51.519 L 90.634,51.519 L 91.859,49.298 L 91.859,49.298 z M 87.419,53.892 L 89.409,53.892 L 89.945,52.82 L 93.696,52.82 L 94.308,53.892 L 96.298,53.892 L 93.006,47.919 L 90.633,47.919 L 87.419,53.892 L 87.419,53.892 z "
     style="fill:#000000;fill-opacity:1;fill-rule:evenodd"
     id="path43" /><polygon
     points="104.184,47.919 106.021,47.919 106.021,53.892 104.184,53.892 104.184,47.919 "
     style="fill:#000000;fill-opacity:1;fill-rule:evenodd"
     id="polygon45" /><polygon
     points="114.441,47.919 117.274,47.919 120.795,52.284 120.795,52.284 120.795,47.919 122.632,47.919 122.632,53.892 119.8,53.892 116.279,49.528 116.279,49.528 116.279,53.892 114.441,53.892 114.441,47.919 "
     style="fill:#000000;fill-opacity:1;fill-rule:evenodd"
     id="polygon47" /><polygon
     points="130.976,47.919 133.808,47.919 135.875,51.747 137.942,47.919 140.774,47.919 140.774,53.892 139.014,53.892 139.014,49.604 138.937,49.604 136.564,53.892 135.186,53.892 132.737,49.604 132.737,49.604 132.737,53.892 130.976,53.892 130.976,47.919 "
     style="fill:#000000;fill-opacity:1;fill-rule:evenodd"
     id="polygon49" /><polygon
     points="149.119,47.919 155.702,47.919 155.702,49.298 150.956,49.298 150.956,50.216 155.396,50.216 155.396,51.44 150.956,51.44 150.956,52.437 155.778,52.437 155.778,53.892 149.119,53.892 149.119,47.919 "
     style="fill:#000000;fill-opacity:1;fill-rule:evenodd"
     id="polygon51" /><polygon
     points="163.969,47.919 166.877,47.919 170.323,52.284 170.323,52.284 170.323,47.919 172.16,47.919 172.16,53.892 169.328,53.892 165.882,49.528 165.806,49.528 165.806,53.892 163.969,53.892 163.969,47.919 "
     style="fill:#000000;fill-opacity:1;fill-rule:evenodd"
     id="polygon53" /><polygon
     points="180.044,47.919 187.086,47.919 187.086,49.374 184.484,49.374 184.484,53.892 182.647,53.892 182.647,49.374 180.044,49.374 180.044,47.919 "
     style="fill:#000000;fill-opacity:1;fill-rule:evenodd"
     id="polygon55" /><path
     d="M 1.53125,0 L 1.53125,39.8125 L 75.1875,39.8125 L 75.1875,0 L 53.1875,23.71875 L 66.4375,35.6875 L 50.96875,26.09375 L 42.1875,35.6875 L 49,24.875 L 39.71875,19.125 L 24.40625,35.6875 L 36.125,16.90625 L 8.8125,0 L 1.53125,0 z M 26.875,0 L 39.5625,11.40625 L 46.6875,0 L 26.875,0 z M 57.34375,0 L 43.46875,15 L 50.90625,21.75 L 64.53125,0 L 57.34375,0 z "
     transform="translate(-2.2339466e-6,0)"
     style="fill:#e92a35;fill-opacity:1"
     id="polygon57" /></g>

</svg>