<?xml version="1.0" encoding="UTF-8" standalone="no"?>
<svg
   xmlns:dc="http://purl.org/dc/elements/1.1/"
   xmlns:cc="http://creativecommons.org/ns#"
   xmlns:rdf="http://www.w3.org/1999/02/22-rdf-syntax-ns#"
   xmlns:svg="http://www.w3.org/2000/svg"
   xmlns="http://www.w3.org/2000/svg"
   xmlns:sodipodi="http://sodipodi.sourceforge.net/DTD/sodipodi-0.dtd"
   xmlns:inkscape="http://www.inkscape.org/namespaces/inkscape"
   version="1.1"
   id="Layer_1"
   x="0px"
   y="0px"
   width="1148"
   height="306"
   viewBox="0 0 1148 306"
   enable-background="new 0 0 612 792"
   xml:space="preserve">
<path
   d="m 419.08334,237.7719 h -41.69022 v 66.19279 h 12.52164 v -27.93524 h 29.16858 c 20.13427,0 27.49173,-10.41952 27.49173,-19.63608 0,-10.69292 -10.32231,-18.62147 -27.49173,-18.62147 z m -4.25894,30.60239 H 389.91476 V 245.4149 h 25.42606 c 10.32838,0 18.32984,2.67931 18.32984,11.0696 0,8.93709 -7.6187,11.88979 -18.84626,11.88979 z"
   id="path11"
   style="fill:#910028" /><path
   d="m 635.82754,303.48473 h -14.13167 l -18.90094,-26.8538 c -0.23695,-0.34631 -0.69868,-0.5225 -1.17258,-0.60756 h 0.61971 c -0.20049,-0.0365 -0.40706,-0.0486 -0.61971,0 h -25.37744 v 27.93525 h -12.52165 v -66.1928 h 41.69022 c 17.16335,0 27.49173,7.92855 27.49173,18.6154 0,7.6187 -5.05483,16.04545 -18.17796,18.7369 l 21.10029,28.36661 z m -59.58263,-35.11044 h 24.9157 c 11.22757,0 18.84627,-2.9527 18.84627,-11.88979 0,-8.39029 -8.00146,-11.0696 -18.32985,-11.0696 h -25.43212 v 22.95939 z"
   id="path13"
   style="fill:#910028" /><path
   d="m 488.48401,237.7719 -38.58563,66.19279 h 14.2957 l 10.71722,-19.27155 h 41.15557 l 10.14612,19.27155 h 15.15235 L 504.20746,237.7719 h -15.72345 z m -9.28947,38.99269 16.43428,-29.13212 h 0.28555 l 15.14627,29.13212 h -31.8661 z"
   id="path15"
   style="fill:#910028" /><path
   d="m 755.96488,268.30139 -25.51719,-4.344 c -5.22494,-0.91133 -10.57748,-2.76436 -10.57748,-8.39029 0,-10.03676 12.81327,-11.60425 20.40768,-11.60425 10.08536,0 21.53772,3.2261 22.15134,13.45728 h 11.33085 c -0.49819,-7.28455 -3.61494,-21.11243 -34.84919,-21.11243 -21.65315,0 -30.74821,10.13396 -30.74821,20.45627 0,11.53134 13.19603,14.5691 19.04676,15.57764 l 18.29947,3.14712 c 14.67846,2.57602 19.04068,4.79358 19.04068,11.70145 0,9.49604 -14.68453,11.15466 -23.4029,11.15466 -11.45236,0 -24.64232,-3.4995 -24.64232,-15.48651 h -11.33084 c 0,6.18488 1.49458,11.71361 9.08898,16.78059 3.97946,2.66716 10.45597,6.36107 27.00569,6.36107 15.31031,0 34.97677,-4.33184 34.97677,-20.00669 0.006,-10.4985 -8.7123,-15.66269 -20.28009,-17.69191 z"
   id="path17"
   style="fill:#910028" /><rect
   x="665.16626"
   y="237.40126"
   width="11.877643"
   height="11.877643"
   id="rect19"
   style="fill:#910028" /><rect
   x="665.23914"
   y="256.284"
   width="11.883718"
   height="47.310081"
   id="rect21"
   style="fill:#910028" /><polygon
   points="215.758,303.686 191.373,303.686 191.373,330.961 215.758,330.961 215.758,327.984 195.557,327.984 195.557,318.451 210.729,318.451 210.729,315.435 195.557,315.435 195.557,306.657 215.758,306.657 "
   id="polygon25"
   style="fill:#910028"
   transform="matrix(6.0755206,0,0,6.0755206,-538.14531,-1817.0117)" /><polygon
   points="200.743,302.99 211.107,299.282 204.046,299.282 "
   id="polygon27"
   style="fill:#910028"
   transform="matrix(6.0755206,0,0,6.0755206,-538.14531,-1817.0117)" /><polygon
   points="277.531,330.961 277.531,327.984 256.694,327.984 256.694,303.686 252.881,303.686 252.881,330.961 "
   id="polygon29"
   style="fill:#910028"
   transform="matrix(6.0755206,0,0,6.0755206,-538.14531,-1817.0117)" /><path
   d="M 868.69616,28.038849 784.45907,193.74867 h 28.46989 l 21.56202,-42.8871 h 101.02984 l 21.74428,42.8871 h 28.17827 l -84.31,-165.709821 h -32.43721 z m -23.54871,102.080901 39.69137,-79.164037 40.1835,79.164037 h -79.87487 z"
   id="path31"
   style="fill:#910028" /><path
   d="M 544.16616,124.47559 C 582.11386,114.34162 585.81385,86.072222 585.63158,75.992933 583.35934,46.386921 563.42556,28.038849 527.56783,28.038849 H 423.15394 V 193.74867 h 23.80996 v -69.49788 h 67.96685 l 50.00761,69.49788 h 30.00092 c 0.0121,0 -35.961,-46.77543 -50.77312,-69.27308 z M 524.32351,104.65116 H 446.96998 V 47.66278 h 80.06321 c 18.42098,0 28.79189,8.602938 32.52834,19.526724 2.46666,7.503268 0.88095,17.339535 -3.18965,24.028684 -6.69523,11.087822 -19.40522,13.432972 -32.04837,13.432972 z"
   id="path33"
   style="fill:#910028" /><path
   d="m 280.08758,3.213626e-4 c -67.18918,0 -112.98646,47.3708336374 -112.98646,104.7358986374 0,60.37852 50.59694,102.98008 112.98646,102.98008 62.38344,0 112.95,-41.994 112.95,-102.98008 0,-57.365065 -46.36837,-104.7358986374 -112.95,-104.7358986374 z M 279.29168,187.16281 c -46.49595,0 -84.80211,-37.36445 -84.80211,-82.37798 0,-44.964933 36.5078,-84.115588 86.59439,-84.115588 48.87149,0 84.77782,39.14458 84.77782,84.115588 0.006,45.01353 -40.09236,82.37798 -86.5701,82.37798 z"
   id="path35"
   style="fill:#910028" /><polygon
   points="114.172,303.686 110.041,303.686 106.212,313.334 109.039,313.334 "
   id="polygon37"
   style="fill:#910028"
   transform="matrix(6.0755206,0,0,6.0755206,-538.14531,-1817.0117)" /><polygon
   points="113.226,330.961 113.226,327.984 92.389,327.984 92.389,303.686 88.576,303.686 88.576,330.961 "
   id="polygon39"
   style="fill:#910028"
   transform="matrix(6.0755206,0,0,6.0755206,-538.14531,-1817.0117)" />
</svg>