<?xml version="1.0" encoding="UTF-8" standalone="no"?>
<!-- Created with Inkscape (http://www.inkscape.org/) -->
<svg
   xmlns:dc="http://purl.org/dc/elements/1.1/"
   xmlns:cc="http://web.resource.org/cc/"
   xmlns:rdf="http://www.w3.org/1999/02/22-rdf-syntax-ns#"
   xmlns:svg="http://www.w3.org/2000/svg"
   xmlns="http://www.w3.org/2000/svg"
   xmlns:xlink="http://www.w3.org/1999/xlink"
   xmlns:sodipodi="http://sodipodi.sourceforge.net/DTD/sodipodi-0.dtd"
   xmlns:inkscape="http://www.inkscape.org/namespaces/inkscape"
   width="445"
   height="247"
   id="svg2"
   sodipodi:version="0.32"
   inkscape:version="0.45.1"
   version="1.0">
  <defs
     id="defs4"><linearGradient
   y2="878.76459"
   x2="1"
   y1="878.76459"
   x1="0"
   gradientTransform="matrix(30921.542,1467.6765,1467.6765,-30921.542,-1301249.5,2.7151796e7)"
   gradientUnits="userSpaceOnUse"
   id="linearGradient3009"
   xlink:href="#SVGID_51_"
   inkscape:collect="always" />

	
		<linearGradient
   gradientTransform="matrix(13.1593,0.6246,0.6246,-13.1593,114.0873,12176.805)"
   y2="878.76459"
   x2="1"
   y1="878.76459"
   x1="0"
   gradientUnits="userSpaceOnUse"
   id="SVGID_51_">
			<stop
   id="stop3174"
   style="stop-color:#FFFFFF"
   offset="0" />

			<stop
   id="stop3176"
   style="stop-color:#D2D2D2"
   offset="0.1498" />

			<stop
   id="stop3178"
   style="stop-color:#959494"
   offset="0.3741" />

			<stop
   id="stop3180"
   style="stop-color:#646363"
   offset="0.5795" />

			<stop
   id="stop3182"
   style="stop-color:#41403F"
   offset="0.7587" />

			<stop
   id="stop3184"
   style="stop-color:#2C2B2A"
   offset="0.905" />

			<stop
   id="stop3186"
   style="stop-color:#242322"
   offset="1" />

		</linearGradient>

		<linearGradient
   gradientTransform="matrix(-35382.376,36385.734,36385.734,35382.376,-3.1959416e7,-3.1117185e7)"
   y2="878.59473"
   x2="1"
   y1="878.59473"
   x1="0"
   gradientUnits="userSpaceOnUse"
   id="SVGID_54_">
			<stop
   id="stop3201"
   style="stop-color:#FFFFFF"
   offset="0" />

			<stop
   id="stop3203"
   style="stop-color:#CDCCCD"
   offset="0.1105" />

			<stop
   id="stop3205"
   style="stop-color:#918F90"
   offset="0.2582" />

			<stop
   id="stop3207"
   style="stop-color:#625F60"
   offset="0.3936" />

			<stop
   id="stop3209"
   style="stop-color:#403C3D"
   offset="0.5121" />

			<stop
   id="stop3211"
   style="stop-color:#2B2728"
   offset="0.6091" />

			<stop
   id="stop3213"
   style="stop-color:#231F20"
   offset="0.6725" />

			<stop
   id="stop3215"
   style="stop-color:#2E2C2D"
   offset="0.9526" />

			<stop
   id="stop3217"
   style="stop-color:#393839"
   offset="1" />

		</linearGradient>

	
		<linearGradient
   gradientTransform="matrix(0,-38259.689,-38259.689,0,3.3620962e7,-2644.8898)"
   y2="878.74121"
   x2="1"
   y1="878.74121"
   x1="0"
   gradientUnits="userSpaceOnUse"
   id="SVGID_57_">
			<stop
   id="stop3230"
   style="stop-color:#7C7978"
   offset="0" />

			<stop
   id="stop3232"
   style="stop-color:#9E9C9B"
   offset="0.3382" />

			<stop
   id="stop3234"
   style="stop-color:#EAE9EA"
   offset="1" />

		</linearGradient>

		<linearGradient
   gradientTransform="matrix(16737.762,-9630.8337,-9630.8337,-16737.762,8434985.5,1.4705582e7)"
   y2="878.73932"
   x2="1"
   y1="878.73932"
   x1="0"
   gradientUnits="userSpaceOnUse"
   id="SVGID_60_">
			<stop
   id="stop3247"
   style="stop-color:#7C7978"
   offset="0" />

			<stop
   id="stop3249"
   style="stop-color:#9E9C9B"
   offset="0.3382" />

			<stop
   id="stop3251"
   style="stop-color:#EAE9EA"
   offset="1" />

		</linearGradient>

		<linearGradient
   gradientTransform="matrix(0,-9630.5987,-9630.5987,0,8463403.1,-2591.3147)"
   y2="878.74017"
   x2="0.99900001"
   y1="878.74017"
   x1="-0.0009765625"
   gradientUnits="userSpaceOnUse"
   id="SVGID_63_">
			<stop
   id="stop3264"
   style="stop-color:#ACABAB"
   offset="0" />

			<stop
   id="stop3266"
   style="stop-color:#EAE9EA"
   offset="1" />

		</linearGradient>

		<linearGradient
   gradientTransform="matrix(-16649.41,-9629.6588,-9629.6588,16649.41,8490952.2,-1.4633045e7)"
   y2="878.74017"
   x2="1"
   y1="878.74017"
   x1="0"
   gradientUnits="userSpaceOnUse"
   id="SVGID_66_">
			<stop
   id="stop3279"
   style="stop-color:#7C7978"
   offset="0" />

			<stop
   id="stop3281"
   style="stop-color:#9E9C9B"
   offset="0.3382" />

			<stop
   id="stop3283"
   style="stop-color:#EAE9EA"
   offset="1" />

		</linearGradient>

	<linearGradient
   inkscape:collect="always"
   xlink:href="#SVGID_66_"
   id="linearGradient3909"
   gradientUnits="userSpaceOnUse"
   gradientTransform="matrix(-102.77878,-59.445026,-59.445026,102.77878,52787.129,-89838.734)"
   x1="0"
   y1="878.74017"
   x2="1"
   y2="878.74017" />
<linearGradient
   inkscape:collect="always"
   xlink:href="#SVGID_63_"
   id="linearGradient3912"
   gradientUnits="userSpaceOnUse"
   gradientTransform="matrix(0,-59.450828,-59.450828,0,52617.065,476.79202)"
   x1="-0.0009765625"
   y1="878.74017"
   x2="0.99900001"
   y2="878.74017" />
<linearGradient
   inkscape:collect="always"
   xlink:href="#SVGID_60_"
   id="linearGradient3915"
   gradientUnits="userSpaceOnUse"
   gradientTransform="matrix(103.32419,-59.452279,-59.452279,-103.32419,52441.639,91272.09)"
   x1="0"
   y1="878.73932"
   x2="1"
   y2="878.73932" />
<linearGradient
   inkscape:collect="always"
   xlink:href="#SVGID_57_"
   id="linearGradient3918"
   gradientUnits="userSpaceOnUse"
   gradientTransform="matrix(0,-236.1816,-236.1816,0,207917.66,476.46129)"
   x1="0"
   y1="878.74121"
   x2="1"
   y2="878.74121" />
<linearGradient
   inkscape:collect="always"
   xlink:href="#SVGID_54_"
   id="linearGradient3921"
   gradientUnits="userSpaceOnUse"
   gradientTransform="matrix(-218.4196,224.61345,224.61345,218.4196,-196917.79,-191597.28)"
   x1="0"
   y1="878.59473"
   x2="1"
   y2="878.59473" />
<linearGradient
   inkscape:collect="always"
   xlink:href="#SVGID_51_"
   id="linearGradient3925"
   gradientUnits="userSpaceOnUse"
   gradientTransform="matrix(190.88235,9.0601411,9.0601411,-190.88235,-7661.2939,168104.05)"
   x1="0"
   y1="878.76459"
   x2="1"
   y2="878.76459" />
</defs>
  <g
     inkscape:label="Layer 1"
     inkscape:groupmode="layer"
     id="layer1"
     transform="translate(-152.5,-234.7618)">
    <g
       id="g2911"
       clip-path="url(#SVGID_2_)"
       transform="translate(-354.78988,39.010563)">
		<defs
   id="defs2913">
			<rect
   height="242.36301"
   width="302.655"
   y="558.42401"
   x="410.341"
   id="SVGID_27_" />

		</defs>

		<clipPath
   id="SVGID_28_">
			<use
   height="878.73999"
   width="1247.24"
   y="0"
   x="0"
   style="overflow:visible"
   id="use2917"
   overflow="visible"
   xlink:href="#SVGID_27_" />

		</clipPath>

		<polyline
   id="polyline2919"
   points="428.267,552.986 428.267,539.634 428.021,539.634 428.021,552.986   "
   clip-path="url(#SVGID_28_)" />

		<polyline
   id="polyline2921"
   points="707.12,557.561 720.472,557.561 720.472,557.313 707.12,557.313   "
   clip-path="url(#SVGID_28_)" />

		<polyline
   id="polyline2923"
   points="702.793,552.986 702.793,539.634 702.546,539.634 702.546,552.986   "
   clip-path="url(#SVGID_28_)" />

		<polyline
   id="polyline2925"
   points="707.12,802.295 720.472,802.295 720.472,802.048 707.12,802.048   "
   clip-path="url(#SVGID_28_)" />

	</g>
    <g
       id="g2927"
       clip-path="url(#SVGID_2_)"
       transform="translate(-354.78988,39.010563)">
		<defs
   id="defs2929">
			<rect
   height="242.36301"
   width="558.42603"
   y="558.42401"
   x="286.29901"
   id="SVGID_29_" />

		</defs>

		<clipPath
   id="SVGID_30_">
			<use
   height="878.73999"
   width="1247.24"
   y="0"
   x="0"
   style="overflow:visible"
   id="use2933"
   overflow="visible"
   xlink:href="#SVGID_29_" />

		</clipPath>

		<polyline
   id="polyline2935"
   points="702.546,806.622 702.546,819.975 702.792,819.975 702.792,806.622   "
   clip-path="url(#SVGID_30_)" />

	</g>
    <path
       clip-path="none"
       d="M 374.98558,234.76189 C 252.10941,234.76189 152.50008,334.38573 152.50008,457.2909 C 152.50008,465.54454 152.96426,473.72565 153.84909,481.7617 L 178.84209,481.7617 C 177.85571,473.75466 177.33351,465.57355 177.33351,457.2909 C 177.33351,348.10794 265.83162,259.59532 374.98558,259.59532 C 484.16855,259.59532 572.66666,348.10794 572.66666,457.2909 C 572.66666,465.55904 572.17347,473.75466 571.15808,481.7617 L 596.15108,481.7617 C 597.05042,473.72565 597.50009,465.55904 597.50009,457.2909 C 597.48558,334.38573 497.87625,234.76189 374.98558,234.76189 M 193.98584,412.49789 L 193.98584,481.74719 L 230.59774,481.74719 L 230.59774,456.30453 L 250.52831,476.2351 L 270.48789,456.30453 L 270.48789,481.74719 L 307.08529,481.74719 L 307.08529,412.49789 L 273.17141,412.49789 L 250.51381,435.12649 L 227.89972,412.49789 L 193.98584,412.49789 z M 356.0704,412.49789 L 311.00178,481.74719 L 349.06423,481.74719 L 353.93809,474.18982 L 396.17813,474.18982 L 401.08099,481.74719 L 439.15795,481.74719 L 394.08933,412.49789 L 356.0704,412.49789 z M 442.79883,412.49789 L 442.79883,481.74719 L 479.41074,481.74719 L 479.41074,452.17046 L 519.37342,481.74719 L 555.37609,481.74719 L 555.37609,412.49789 L 518.74968,412.49789 L 518.74968,442.36474 L 478.54041,412.49789 L 442.79883,412.49789 z M 375.05811,441.37836 L 383.52932,454.49134 L 366.55788,454.49134 L 375.05811,441.37836 z "
       id="path3159"
       style="fill:#231f20" />
    <path
       clip-path="none"
       d="M 195.75551,414.25306 L 198.90321,417.41526 L 198.90321,476.84433 L 225.70939,476.84433 L 228.85708,480.00653 L 228.85708,452.05442 L 225.70939,444.49705 L 250.54282,469.34498 L 275.40526,444.49705 L 275.40526,476.84433 L 302.22595,476.84433 L 305.37364,480.00653 L 305.37364,414.26756 L 273.91119,414.26756 L 275.21669,417.42977 L 250.55732,442.07463 L 250.55732,437.60693 L 227.21796,414.26756 L 195.75551,414.26756 L 195.75551,414.25306 z M 357.01325,414.25306 L 358.7104,417.41526 L 320.02421,476.84433 L 346.38072,476.84433 L 351.25457,469.30147 L 398.84714,469.30147 L 403.7355,476.84433 L 430.09201,476.84433 L 435.87971,480.00653 L 393.08845,414.26756 L 357.01325,414.26756 L 357.01325,414.25306 z M 444.5395,414.25306 L 447.7017,417.41526 L 447.7017,476.84433 L 474.50788,476.84433 L 477.65557,480.00653 L 477.65557,448.68914 L 474.50788,442.43726 L 520.99803,476.84433 L 550.47323,476.84433 L 553.62092,480.00653 L 553.62092,414.26756 L 520.53386,414.26756 L 523.66705,417.42977 L 523.66705,452.09793 L 520.53386,445.87507 L 477.94568,414.26756 L 444.5395,414.26756 L 444.5395,414.25306 z M 375.05811,432.37044 L 392.55175,459.3942 L 386.79306,456.24651 L 363.35216,456.24651 L 375.07261,438.12913 L 375.07261,432.37044 L 375.05811,432.37044 z "
       id="path3161"
       style="fill:#ffffff" />
    <polygon
       clip-path="none"
       points="668.109,617.632 668.109,618.03 667.301,619.279 666.903,619.496 668.109,617.632 "
       id="polygon3163"
       style="fill:#acaaaa"
       transform="matrix(14.505509,0,0,14.505509,-9316.1885,-8526.7106)" />
    <path
       style="fill:url(#linearGradient3925)"
       clip-path="none"
       d="M 374.95654,254.67782 C 263.11906,254.67782 172.41613,345.36629 172.41613,457.27629 C 172.41614,463.89081 172.73515,470.40383 173.35888,476.85878 L 176.85479,479.99202 C 175.98447,472.53619 175.54918,464.96418 175.54918,457.29076 C 175.54919,347.13592 264.84519,257.85466 374.97101,257.85466 C 485.15485,257.85467 574.42177,347.13592 574.42177,457.29076 C 574.42176,464.96418 574.00114,472.55069 573.13082,479.99202 L 576.62654,476.85878 C 577.25026,470.41833 577.55502,463.89081 577.55502,457.27629 C 577.55502,345.36629 486.86654,254.67782 374.95654,254.67782 z "
       id="polygon3188" />
    <path
       style="fill:#231f20"
       id="path3190"
       d="M 158.27327,476.84433 L 155.4447,479.99203 L 176.85483,479.99203 L 173.37351,476.84433 L 158.27327,476.84433 z M 576.64117,476.84433 L 573.17435,479.99203 L 594.56997,479.99203 L 591.72689,476.84433 L 576.64117,476.84433 z "
       clip-path="none" />
    <path
       style="fill:url(#linearGradient3921)"
       clip-path="none"
       d="M 374.95654,236.51689 C 253.09576,236.5169 154.26967,335.34298 154.26967,457.27629 C 154.26967,464.9352 154.66127,472.52153 155.41555,479.97736 L 158.27313,476.84431 C 157.70741,470.40386 157.38845,463.86183 157.38845,457.26183 C 157.38846,337.09819 254.82188,239.67907 374.97101,239.67907 C 495.16365,239.67907 592.5827,337.09819 592.5827,457.26183 C 592.5827,463.86183 592.29251,470.38936 591.71229,476.84431 L 594.5554,479.97736 C 595.3242,472.50702 595.71575,464.9352 595.71575,457.27629 C 595.71575,335.35749 496.88985,236.51689 374.95654,236.51689 z "
       id="polygon3219" />
    <path
       style="fill:url(#linearGradient3918)"
       clip-path="none"
       d="M 375.01441,239.69373 C 255.64507,239.69372 158.73938,335.76853 157.41738,454.81013 L 157.41738,459.77872 C 157.48433,465.52724 157.78102,471.22053 158.28779,476.85839 L 173.37335,476.85839 C 172.74965,470.41807 172.4306,463.89068 172.4306,457.27629 C 172.43059,345.36629 263.13346,254.67782 374.99994,254.67782 C 486.90994,254.67782 577.59842,345.36629 577.59842,457.27629 C 577.59842,463.89068 577.29385,470.40357 576.67014,476.85839 L 591.75589,476.85839 C 592.20662,471.85521 592.48212,466.79078 592.5827,461.68544 L 592.5827,452.90457 C 590.25401,334.75872 493.74605,239.69373 375.01441,239.69373 z "
       id="rect3236" />
    <path
       style="fill:url(#linearGradient3915)"
       clip-path="none"
       d="M 198.88859,417.41511 L 198.88859,476.84431 L 225.70924,476.84431 L 225.70924,444.46804 L 250.54274,469.33047 L 275.39069,444.46804 L 275.39069,476.84431 L 302.20846,476.84431 L 302.21135,476.84257 L 302.21135,417.41511 L 275.20203,417.41511 L 250.54274,442.04548 L 225.88344,417.41511 L 198.88859,417.41511 z "
       id="polygon3253" />
    <path
       style="fill:url(#linearGradient3912)"
       clip-path="none"
       d="M 358.7249,417.41511 L 320.03874,476.85839 L 320.03874,476.85858 L 346.38079,476.85858 L 351.26893,469.30134 L 398.83262,469.30134 L 403.72076,476.85858 L 430.09175,476.85858 L 391.39131,417.41511 L 358.7249,417.41511 z M 375.07248,432.3558 L 392.5806,459.39406 L 357.57882,459.39406 L 375.07248,432.3558 z "
       id="rect3268" />
    <path
       style="fill:url(#linearGradient3909)"
       clip-path="none"
       d="M 447.68706,417.41511 L 447.68706,476.84431 L 447.70153,476.84431 L 474.50772,476.84431 L 474.50772,442.43708 L 520.99787,476.84431 L 550.48762,476.84431 L 550.48762,417.41511 L 523.6525,417.41511 L 523.6525,452.08335 L 476.91563,417.41511 L 447.68706,417.41511 z "
       id="polygon3285" />
  </g>
</svg>
