<?xml version="1.0" encoding="UTF-8" standalone="no"?>
<svg
   xmlns:dc="http://purl.org/dc/elements/1.1/"
   xmlns:cc="http://creativecommons.org/ns#"
   xmlns:rdf="http://www.w3.org/1999/02/22-rdf-syntax-ns#"
   xmlns:svg="http://www.w3.org/2000/svg"
   xmlns="http://www.w3.org/2000/svg"
   xmlns:sodipodi="http://sodipodi.sourceforge.net/DTD/sodipodi-0.dtd"
   xmlns:inkscape="http://www.inkscape.org/namespaces/inkscape"
   version="1.1"
   id="Layer_1"
   x="0px"
   y="0px"
   width="730"
   height="181"
   viewBox="0 0 730 181"
   enable-background="new 0 0 842 1191"
   xml:space="preserve">
<path
   style="fill:#ffffff"
   inkscape:connector-curvature="0"
   d="m 0.6358837,1.2777172 m 0,178.4505328 0,-178.4565034 728.0898863,0 0,178.4565034 -728.0898863,0 z"
   id="path7" /><path
   style="fill:none;stroke:#0060a9;stroke-width:1.27174664"
   inkscape:connector-curvature="0"
   d="m 0.6358837,1.2777172 m 0,178.4505328 0,-178.4565034 728.0898863,0 0,178.4565034 -728.0898863,0 z"
   id="path9" /><path
   style="fill:#0060a9"
   inkscape:connector-curvature="0"
   d="M 9.4067562,171.57236 C 24.655775,161.56556 39.68388,153.86343 54.138803,148.05997 l -0.149266,-0.25674 C 37.612067,121.25776 31.784721,80.257364 31.784721,80.257364 c 0,0 -12.036814,6.854297 -22.3600529,14.472836 l -0.017912,76.84216"
   id="path11" /><path
   style="fill:#0060a9"
   inkscape:connector-curvature="0"
   d="m 199.36272,141.43853 c 0,0 -45.29926,-18.18658 -107.7462,-4.80637 l -0.03582,-0.0955 C 68.707169,97.625961 66.551767,63.647039 66.551767,63.647039 c 0,0 44.923103,-20.156886 102.109913,-22.742173 l 0.28659,0.01194 c -5.02728,25.476728 -3.33759,62.626063 30.41445,100.521723"
   id="path13" /><path
   style="fill:none;stroke:#ffffff;stroke-width:5.14072227"
   inkscape:connector-curvature="0"
   d="m 173.85614,38.218077 c 0,0 -49.65186,-1.522514 -109.800101,23.787036 0,0 3.904799,48.242787 26.467854,77.086957"
   id="path15" /><polygon
   style="fill:#fff200"
   points="280.755,266.297 280.761,267.99 282.369,268.519 280.761,269.048 280.755,270.741 279.754,269.374 278.142,269.892 279.133,268.519 278.142,267.145 279.754,267.663 "
   id="polygon17"
   transform="matrix(0,-5.9706416,5.9706416,0,-1419.0513,1717.8193)" /><polygon
   style="fill:none;stroke:#0060a9;stroke-width:0.22499999"
   points="280.755,266.297 280.761,267.99 282.369,268.519 280.761,269.048 280.755,270.741 279.754,269.374 278.142,269.892 279.133,268.519 278.142,267.145 279.754,267.663 "
   id="polygon19"
   transform="matrix(0,-5.9706416,5.9706416,0,-1419.0513,1717.8193)" /><polygon
   style="fill:#fff200"
   points="269.251,253.525 269.258,255.219 270.866,255.747 269.258,256.277 269.251,257.97 268.252,256.603 266.639,257.122 267.63,255.747 266.639,254.375 268.252,254.892 "
   id="polygon21"
   transform="matrix(0,-5.9706416,5.9706416,0,-1419.0513,1717.8193)" /><polygon
   style="fill:none;stroke:#0060a9;stroke-width:0.113"
   points="269.251,253.525 269.258,255.219 270.866,255.747 269.258,256.277 269.251,257.97 268.252,256.603 266.639,257.122 267.63,255.747 266.639,254.375 268.252,254.892 "
   id="polygon23"
   transform="matrix(0,-5.9706416,5.9706416,0,-1419.0513,1717.8193)" /><polygon
   style="fill:#fff200"
   points="278.649,260.641 278.655,262.335 280.263,262.863 278.655,263.392 278.649,265.086 277.648,263.719 276.037,264.237 277.027,262.863 276.037,261.49 277.648,262.008 "
   id="polygon25"
   transform="matrix(0,-5.9706416,5.9706416,0,-1419.0513,1717.8193)" /><polygon
   style="fill:none;stroke:#0060a9;stroke-width:0.113"
   points="278.649,260.641 278.655,262.335 280.263,262.863 278.655,263.392 278.649,265.086 277.648,263.719 276.037,264.237 277.027,262.863 276.037,261.49 277.648,262.008 "
   id="polygon27"
   transform="matrix(0,-5.9706416,5.9706416,0,-1419.0513,1717.8193)" /><polygon
   style="fill:#fff200"
   points="274.637,256.193 274.643,257.886 276.251,258.415 274.643,258.944 274.637,260.637 273.638,259.271 272.025,259.789 273.016,258.415 272.025,257.041 273.638,257.559 "
   id="polygon29"
   transform="matrix(0,-5.9706416,5.9706416,0,-1419.0513,1717.8193)" /><polygon
   style="fill:none;stroke:#0060a9;stroke-width:0.113"
   points="274.637,256.193 274.643,257.886 276.251,258.415 274.643,258.944 274.637,260.637 273.638,259.271 272.025,259.789 273.016,258.415 272.025,257.041 273.638,257.559 "
   id="polygon31"
   transform="matrix(0,-5.9706416,5.9706416,0,-1419.0513,1717.8193)" /><polygon
   style="fill:#fff200"
   points="263.309,252.999 263.316,254.692 264.924,255.222 263.316,255.75 263.309,257.444 262.309,256.077 260.697,256.595 261.688,255.222 260.697,253.849 262.309,254.367 "
   id="polygon33"
   transform="matrix(0,-5.9706416,5.9706416,0,-1419.0513,1717.8193)" /><polygon
   style="fill:none;stroke:#0060a9;stroke-width:0.22499999"
   points="263.309,252.999 263.316,254.692 264.924,255.222 263.316,255.75 263.309,257.444 262.309,256.077 260.697,256.595 261.688,255.222 260.697,253.849 262.309,254.367 "
   id="polygon35"
   transform="matrix(0,-5.9706416,5.9706416,0,-1419.0513,1717.8193)" /><path
   style="fill:#00aeef"
   inkscape:connector-curvature="0"
   d="m 9.3171966,88.228171 c 0,0 16.0311724,-11.320337 26.6350324,-16.305822 0,0 5.325812,45.573911 23.26759,74.059841 l 0.08359,0.12538 c 9.230612,-3.457 18.222398,-6.16767 26.909682,-8.25143 l -0.08359,-0.17912 C 63.029088,99.11265 60.784127,60.315421 60.784127,60.315421 118.20379,35.63876 170.00507,35.63876 170.00507,35.63876 l 0.16718,-0.02388 C 174.29797,18.711991 180.88358,8.3051624 180.88358,8.3051624 L 147.35843,8.2753092 C 92.404645,19.488174 59.888531,34.976018 59.888531,34.976018 58.76605,30.933894 62.354406,8.2753092 62.354406,8.2753092 L 37.241887,8.2991918 C 34.322244,27.578393 34.543157,47.974105 34.543157,47.974105 20.303177,55.431437 9.3171966,63.957513 9.3171966,63.957513 l 0,24.270658"
   id="path37" /><path
   style="fill:#0060a9"
   inkscape:connector-curvature="0"
   d="M 9.3410792,57.318159 C 19.688201,49.908593 29.193462,44.696223 29.193462,44.696223 29.557672,22.216757 31.826515,8.3350156 31.826515,8.3350156 l -22.4555826,0 -0.029853,48.9831434"
   id="path39" /><path
   style="fill:#0060a9"
   inkscape:connector-curvature="0"
   d="M 123.57139,8.2991918 C 92.559882,15.44605 65.387492,26.754445 65.387492,26.754445 c 0,0 1.146363,-12.036814 2.376315,-18.4492826 l 55.807583,-0.00597"
   id="path41" /><path
   style="fill:none;stroke:#0060a9;stroke-width:2.54349327"
   inkscape:connector-curvature="0"
   d="m 1.99719,1.2777172 m 0,178.4505328 0,-178.4565034 726.72858,0 0,178.4565034 -726.72858,0 z"
   id="path43" /><polyline
   style="fill:#0060a9"
   points="283.172,280.186 276.999,276.74 276.999,275.745 283.172,274.796 283.172,275.545 277.535,276.34   277.535,276.364 283.172,279.438 283.172,280.186 "
   id="polyline45"
   transform="matrix(0,-5.9706416,5.9706416,0,-1419.0513,1717.8193)" /><polyline
   style="fill:#0060a9"
   points="276.999,280.173 276.999,279.473 283.172,280.73 283.172,281.429 276.999,280.173 "
   id="polyline47"
   transform="matrix(0,-5.9706416,5.9706416,0,-1419.0513,1717.8193)" /><polyline
   style="fill:#0060a9"
   points="277.616,282.199 277.616,285.343 276.999,285.217 276.999,281.374 283.172,282.63 283.172,283.33   277.616,282.199 "
   id="polyline49"
   transform="matrix(0,-5.9706416,5.9706416,0,-1419.0513,1717.8193)" /><polyline
   style="fill:#0060a9"
   points="277.616,286.791 277.616,289.936 276.999,289.81 276.999,285.966 283.172,287.223 283.172,287.923   277.616,286.791 "
   id="polyline51"
   transform="matrix(0,-5.9706416,5.9706416,0,-1419.0513,1717.8193)" /><polyline
   style="fill:#0060a9"
   points="280.456,291.682 280.456,294.809 279.881,294.692 279.881,291.565 277.616,291.104   277.616,294.371 276.999,294.246 276.999,290.279 283.172,291.536 283.172,295.501 282.555,295.376 282.555,292.109   280.456,291.682 "
   id="polyline53"
   transform="matrix(0,-5.9706416,5.9706416,0,-1419.0513,1717.8193)" /><path
   style="fill:#0060a9"
   inkscape:connector-curvature="0"
   d="m 378.38644,60.273627 c 7.36777,0 9.23061,-4.328715 10.66953,-10.914333 l 1.97031,-9.67841 c 0.41795,-2.065842 1.06875,-8.896256 -5.95272,-8.896256 l -14.44896,0 -6.00049,29.488999 13.76233,0 m -11.18899,-33.172885 17.93581,0 c 4.47201,0 12.5085,0.591094 9.73812,14.198186 l -1.78522,8.794755 c -0.74036,3.648062 -3.41521,13.86383 -14.46687,13.86383 l -18.92096,0 7.49912,-36.856771 z"
   id="path55" /><polyline
   style="fill:#0060a9"
   points="280.456,305.171 280.456,308.297 279.881,308.18 279.881,305.053 277.616,304.592 277.616,307.859   276.999,307.734 276.999,303.767 283.172,305.024 283.172,308.99 282.555,308.865 282.555,305.598 280.456,305.171 "
   id="polyline57"
   transform="matrix(0,-5.9706416,5.9706416,0,-1419.0513,1717.8193)" /><polygon
   style="fill:#0060a9"
   points="263.701,278.673 273.586,284.782 273.586,287.045 262.038,284.694 262.038,283.386 272.601,285.536 272.601,285.505 262.038,278.997 262.038,277.704 272.601,275.481 272.601,275.45 262.038,273.3 262.038,271.991 273.586,274.342 273.586,276.606 "
   id="polygon59"
   transform="matrix(0,-5.9706416,5.9706416,0,-1419.0513,1717.8193)" /><polygon
   style="fill:none;stroke:#0060a9;stroke-width:0.51200002"
   points="263.701,278.673 273.586,284.782 273.586,287.045 262.038,284.694 262.038,283.386 272.601,285.536 272.601,285.505 262.038,278.997 262.038,277.704 272.601,275.481 272.601,275.45 262.038,273.3 262.038,271.991 273.586,274.342 273.586,276.606 "
   id="polygon61"
   transform="matrix(0,-5.9706416,5.9706416,0,-1419.0513,1717.8193)" /><path
   style="fill:#0060a9"
   inkscape:connector-curvature="0"
   d="m 331.26613,90.771664 -23.60791,41.460136 30.52192,0 -6.91401,-41.460136 z m -27.03506,47.890516 -8.30516,14.6221 -8.18575,0 39.13755,-68.948967 11.03375,0 11.70245,68.948967 -8.09021,0 -2.44797,-14.6221 -34.84466,0 z"
   id="path63" /><path
   style="fill:none;stroke:#0060a9;stroke-width:3.05696869"
   inkscape:connector-curvature="0"
   d="m 331.26613,90.771664 -23.60791,41.460136 30.52192,0 -6.91401,-41.460136 z m -27.03506,47.890516 -8.30516,14.6221 -8.18575,0 39.13755,-68.948967 11.03375,0 11.70245,68.948967 -8.09021,0 -2.44797,-14.6221 -34.84466,0 z"
   id="path65" /><path
   style="fill:#0060a9"
   inkscape:connector-curvature="0"
   d="m 395.43262,118.8098 c 12.11443,-0.37018 14.33551,-4.04213 16.65809,-15.44605 1.79716,-8.830582 1.27772,-12.126376 -11.04569,-12.126376 l -24.09154,0 -5.6124,27.572426 24.09154,0 z m -31.10704,34.47448 -7.81557,0 14.03697,-68.948967 31.80561,0 c 14.89675,0 20.5808,4.137654 17.38651,19.858357 -1.97031,9.65452 -4.53172,16.82526 -15.75652,18.19851 l -0.0358,0.18509 c 7.61257,0.5493 10.11427,4.96758 8.59773,12.41297 l -3.71971,18.29404 -7.81557,0 2.97338,-14.6221 c 1.77925,-8.72311 0.52541,-12.95032 -8.94402,-12.95032 l -25.09461,0 -5.61837,27.57242 z"
   id="path67" /><path
   style="fill:none;stroke:#0060a9;stroke-width:3.05696869"
   inkscape:connector-curvature="0"
   d="m 395.43262,118.8098 c 12.11443,-0.37018 14.33551,-4.04213 16.65809,-15.44605 1.79716,-8.830582 1.27772,-12.126376 -11.04569,-12.126376 l -24.09154,0 -5.6124,27.572426 24.09154,0 z m -31.10704,34.47448 -7.81557,0 14.03697,-68.948967 31.80561,0 c 14.89675,0 20.5808,4.137654 17.38651,19.858357 -1.97031,9.65452 -4.53172,16.82526 -15.75652,18.19851 l -0.0358,0.18509 c 7.61257,0.5493 10.11427,4.96758 8.59773,12.41297 l -3.71971,18.29404 -7.81557,0 2.97338,-14.6221 c 1.77925,-8.72311 0.52541,-12.95032 -8.94402,-12.95032 l -25.09461,0 -5.61837,27.57242 z"
   id="path69" /><path
   style="fill:#0060a9"
   inkscape:connector-curvature="0"
   d="m 427.99053,103.81752 c 3.74956,-18.377639 12.53834,-20.037477 29.5487,-20.037477 14.89078,0 25.51255,0.6508 20.87337,19.404587 l -7.82155,0 c 2.08376,-12.042786 -0.11941,-12.502525 -14.73554,-12.502525 -15.26096,0 -17.76266,1.928517 -19.70909,11.487515 -2.67484,13.14735 3.79136,12.04278 16.59242,12.40699 16.18044,0.92545 24.5453,0.46571 20.74798,19.12397 -3.97048,19.48817 -13.29662,20.13897 -30.67119,20.13897 -17.55369,0 -26.235,-2.11958 -20.70021,-22.06749 l 7.81557,0 c -3.26595,15.16543 -0.32839,15.16543 14.28774,15.16543 14.71166,0 18.75379,0 21.50625,-13.51156 2.68082,-13.14736 -3.65403,-10.94419 -16.04311,-11.95323 -13.38618,-1.10457 -25.39911,0.5493 -21.69134,-17.65518 z"
   id="path71" /><path
   style="fill:none;stroke:#0060a9;stroke-width:3.05696869"
   inkscape:connector-curvature="0"
   d="m 427.99053,103.81752 c 3.74956,-18.377639 12.53834,-20.037477 29.5487,-20.037477 14.89078,0 25.51255,0.6508 20.87337,19.404587 l -7.82155,0 c 2.08376,-12.042786 -0.11941,-12.502525 -14.73554,-12.502525 -15.26096,0 -17.76266,1.928517 -19.70909,11.487515 -2.67484,13.14735 3.79136,12.04278 16.59242,12.40699 16.18044,0.92545 24.5453,0.46571 20.74798,19.12397 -3.97048,19.48817 -13.29662,20.13897 -30.67119,20.13897 -17.55369,0 -26.235,-2.11958 -20.70021,-22.06749 l 7.81557,0 c -3.26595,15.16543 -0.32839,15.16543 14.28774,15.16543 14.71166,0 18.75379,0 21.50625,-13.51156 2.68082,-13.14736 -3.65403,-10.94419 -16.04311,-11.95323 -13.38618,-1.10457 -25.39911,0.5493 -21.69134,-17.65518 z"
   id="path73" /><polygon
   style="fill:#0060a9"
   points="267.428,325.687 267.428,319.836 263.193,318.974 263.193,325.087 262.038,324.851 262.038,317.43 273.586,319.781 273.586,327.203 272.43,326.968 272.43,320.855 268.505,320.055 268.505,325.907 "
   id="polygon75"
   transform="matrix(0,-5.9706416,5.9706416,0,-1419.0513,1717.8193)" /><polygon
   style="fill:none;stroke:#0060a9;stroke-width:0.51200002"
   points="267.428,325.687 267.428,319.836 263.193,318.974 263.193,325.087 262.038,324.851 262.038,317.43 273.586,319.781 273.586,327.203 272.43,326.968 272.43,320.855 268.505,320.055 268.505,325.907 "
   id="polygon77"
   transform="matrix(0,-5.9706416,5.9706416,0,-1419.0513,1717.8193)" /><polygon
   style="fill:#0060a9"
   points="273.586,328.881 273.586,330.19 262.038,327.839 262.038,326.53 "
   id="polygon79"
   transform="matrix(0,-5.9706416,5.9706416,0,-1419.0513,1717.8193)" /><polygon
   style="fill:none;stroke:#0060a9;stroke-width:0.51200002"
   points="273.586,328.881 273.586,330.19 262.038,327.839 262.038,326.53 "
   id="polygon81"
   transform="matrix(0,-5.9706416,5.9706416,0,-1419.0513,1717.8193)" /><polygon
   style="fill:#0060a9"
   points="262.038,337.278 262.038,330.087 273.586,332.438 273.586,333.746 263.193,331.63 263.193,337.513 "
   id="polygon83"
   transform="matrix(0,-5.9706416,5.9706416,0,-1419.0513,1717.8193)" /><polygon
   style="fill:none;stroke:#0060a9;stroke-width:0.51200002"
   points="262.038,337.278 262.038,330.087 273.586,332.438 273.586,333.746 263.193,331.63 263.193,337.513 "
   id="polygon85"
   transform="matrix(0,-5.9706416,5.9706416,0,-1419.0513,1717.8193)" /><polygon
   style="fill:#0060a9"
   points="262.038,345.87 262.038,338.679 273.586,341.029 273.586,342.338 263.193,340.222 263.193,346.104 "
   id="polygon87"
   transform="matrix(0,-5.9706416,5.9706416,0,-1419.0513,1717.8193)" /><polygon
   style="fill:none;stroke:#0060a9;stroke-width:0.51200002"
   points="262.038,345.87 262.038,338.679 273.586,341.029 273.586,342.338 263.193,340.222 263.193,346.104 "
   id="polygon89"
   transform="matrix(0,-5.9706416,5.9706416,0,-1419.0513,1717.8193)" /><polygon
   style="fill:#0060a9"
   points="267.428,355.004 267.428,349.153 263.193,348.29 263.193,354.403 262.038,354.169 262.038,346.747 273.586,349.098 273.586,356.52 272.43,356.285 272.43,350.171 268.505,349.373 268.505,355.224 "
   id="polygon91"
   transform="matrix(0,-5.9706416,5.9706416,0,-1419.0513,1717.8193)" /><polygon
   style="fill:none;stroke:#0060a9;stroke-width:0.51200002"
   points="267.428,355.004 267.428,349.153 263.193,348.29 263.193,354.403 262.038,354.169 262.038,346.747 273.586,349.098 273.586,356.52 272.43,356.285 272.43,350.171 268.505,349.373 268.505,355.224 "
   id="polygon93"
   transform="matrix(0,-5.9706416,5.9706416,0,-1419.0513,1717.8193)" />
</svg>