<?xml version="1.0" encoding="utf-8"?>
<!-- Generator: Adobe Illustrator 13.0.0, SVG Export Plug-In . SVG Version: 6.00 Build 14948)  -->
<!DOCTYPE svg PUBLIC "-//W3C//DTD SVG 1.1//EN" "http://www.w3.org/Graphics/SVG/1.1/DTD/svg11.dtd">
<svg version="1.1" id="Layer_1" xmlns="http://www.w3.org/2000/svg" xmlns:xlink="http://www.w3.org/1999/xlink" x="0px" y="0px"
	 width="180px" height="182px" viewBox="-10.5 10.5 180 182" enable-background="new -10.5 10.5 180 182" xml:space="preserve">
<g>
	<defs>
		<rect id="SVGID_1_" width="160" height="204"/>
	</defs>
	<clipPath id="SVGID_2_">
		<use xlink:href="#SVGID_1_"  overflow="visible"/>
	</clipPath>
	<g id="surface0" clip-path="url(#SVGID_2_)">
		<path fill="none" stroke="#FEFEFE" stroke-width="0.1" stroke-miterlimit="10" d="M0,0h160v204H0V0z"/>
		<path fill="none" d="M0,0h160v204H0V0z"/>
		<path fill="none" stroke="#171717" stroke-width="0.1" stroke-miterlimit="10" d="M70.492,26.918
			c14.327-1.672,29.16,0.364,42.215,6.625c19.812,9.329,35.357,27.534,40.984,48.751c4.092,14.488,3.645,30.152-1.074,44.435
			c-6.551,20.322-22.146,37.496-41.746,45.965c-22.27,9.902-49.259,8.181-70.061-4.545c-16.129-9.938-28.661-25.84-33.758-44.164
			c-3.059-9.652-3.09-19.865-2.534-29.875C6.72,73.691,17.58,54.394,33.934,41.958C44.53,33.867,57.271,28.636,70.492,26.918z"/>
		<path fill="#171717" d="M70.492,26.918c14.327-1.672,29.16,0.364,42.215,6.625c19.812,9.329,35.357,27.534,40.984,48.751
			c4.092,14.488,3.645,30.152-1.074,44.435c-6.551,20.322-22.146,37.496-41.746,45.965c-22.27,9.902-49.259,8.181-70.061-4.545
			c-16.129-9.938-28.661-25.84-33.758-44.164c-3.059-9.652-3.09-19.865-2.534-29.875C6.72,73.691,17.58,54.394,33.934,41.958
			C44.53,33.867,57.271,28.636,70.492,26.918z"/>
		<path fill="none" stroke="#FEFEFE" stroke-width="0.1" stroke-miterlimit="10" d="M59.44,31.354
			c14.135-4.256,29.575-3.997,43.602,0.572c17.607,5.613,32.839,18.184,41.825,34.317c6.126,10.875,9.256,23.3,9.542,35.747
			c0.091,20.965-9.058,41.765-24.729,55.721c-4.312,3.526-8.53,7.604-13.952,9.318c-0.088-22.675-0.059-45.351-0.074-68.026
			c0.25-12.699-13.169-23.668-25.574-20.729c-3.662,0.302-6.836,2.241-10.218,3.453c-2.861-0.652-5.102-3.223-8.195-3.352
			c-4.05-1.078-8.159-0.101-12.255-0.065C59.465,62.659,59.397,47.007,59.44,31.354z"/>
		<path fill="#FEFEFE" d="M59.44,31.354c14.135-4.256,29.575-3.997,43.602,0.572c17.607,5.613,32.839,18.184,41.825,34.317
			c6.126,10.875,9.256,23.3,9.542,35.747c0.091,20.965-9.058,41.765-24.729,55.721c-4.312,3.526-8.53,7.604-13.952,9.318
			c-0.088-22.675-0.059-45.351-0.074-68.026c0.25-12.699-13.169-23.668-25.574-20.729c-3.662,0.302-6.836,2.241-10.218,3.453
			c-2.861-0.652-5.102-3.223-8.195-3.352c-4.05-1.078-8.159-0.101-12.255-0.065C59.465,62.659,59.397,47.007,59.44,31.354z"/>
		<path fill="none" stroke="#FEFEFE" stroke-width="0.1" stroke-miterlimit="10" d="M6.364,103.012
			C5.744,76.589,20.859,50.202,44.31,37.863c0.179,29.208-0.008,58.42,0.099,87.629c4.993-0.011,9.987,0.061,14.979-0.078
			c0.136-8.151-0.091-16.307,0.128-24.455c-0.016-2.757,1.264-5.569,3.641-7.063c2.27-0.66,5.159-0.805,6.897,1.108
			c1.744,1.823,2.264,4.5,2.384,6.938c0.167,7.856-0.182,15.719,0.19,23.573c4.916-0.054,9.833-0.059,14.75,0.003
			c0.399-7.857-0.002-15.727,0.223-23.588c0.07-3.123,1.336-6.939,4.726-7.801c4.308-1.99,8.587,2.577,8.181,6.833
			c0.204,24.193-0.133,48.395,0.168,72.587c-8.482,3.234-17.726,3.287-26.673,2.919c-17.217-1.474-33.833-9.19-46.004-21.472
			C14.357,141.4,6.248,122.307,6.364,103.012z"/>
		<path fill="#FEFEFE" d="M6.364,103.012C5.744,76.589,20.859,50.202,44.31,37.863c0.179,29.208-0.008,58.42,0.099,87.629
			c4.993-0.011,9.987,0.061,14.979-0.078c0.136-8.151-0.091-16.307,0.128-24.455c-0.016-2.757,1.264-5.569,3.641-7.063
			c2.27-0.66,5.159-0.805,6.897,1.108c1.744,1.823,2.264,4.5,2.384,6.938c0.167,7.856-0.182,15.719,0.19,23.573
			c4.916-0.054,9.833-0.059,14.75,0.003c0.399-7.857-0.002-15.727,0.223-23.588c0.07-3.123,1.336-6.939,4.726-7.801
			c4.308-1.99,8.587,2.577,8.181,6.833c0.204,24.193-0.133,48.395,0.168,72.587c-8.482,3.234-17.726,3.287-26.673,2.919
			c-17.217-1.474-33.833-9.19-46.004-21.472C14.357,141.4,6.248,122.307,6.364,103.012z"/>
	</g>
</g>
</svg>
