<?xml version="1.0" encoding="UTF-8"?>
<!-- Generator: Adobe Illustrator 14.0.0, SVG Export Plug-In . SVG Version: 6.00 Build 43363)  -->
<!DOCTYPE svg PUBLIC "-//W3C//DTD SVG 1.1//EN" "http://www.w3.org/Graphics/SVG/1.1/DTD/svg11.dtd">
<svg version="1.1" id="Layer_1" xmlns="http://www.w3.org/2000/svg" xmlns:xlink="http://www.w3.org/1999/xlink" x="0px" y="0px" width="300px" height="240px" viewBox="0 0 300 240" enable-background="new 0 0 300 240" xml:space="preserve">
<path fill="#FFC300" d="M196.489,18.773c23.334,0,42.252,98.376,42.252,219.73h33.81c0-130.692-34.059-236.635-76.062-236.635  c-23.9,0-45.221,31.84-59.164,81.629C123.388,33.708,102.059,1.868,78.162,1.868c-42.003,0-76.066,105.943-76.066,236.635H35.91  c0-121.354,18.921-219.73,42.252-219.73c23.338,0,42.264,90.809,42.264,202.835h33.802  C154.229,109.582,173.149,18.773,196.489,18.773"/>
<path fill="#FFC300" d="M289.475,221.608c4.586,0,8.43,3.63,8.43,8.408c0,4.852-3.844,8.486-8.43,8.486  c-4.602,0-8.478-3.635-8.478-8.486C280.997,225.238,284.873,221.608,289.475,221.608 M289.475,237.267c3.884,0,6.9-3.121,6.9-7.25  c0-4.056-3.017-7.173-6.9-7.173c-3.932,0-6.945,3.117-6.945,7.173C282.529,234.146,285.543,237.267,289.475,237.267z   M286.188,225.11h3.808c2.331,0,3.43,0.927,3.43,2.82c0,1.785-1.114,2.531-2.574,2.685l2.804,4.368h-1.646l-2.672-4.248h-1.616  v4.248h-1.533V225.11z M287.722,229.495h1.597c1.344,0,2.584-0.067,2.584-1.632c0-1.313-1.124-1.518-2.158-1.518h-2.022V229.495z"/>
</svg>