<?xml version="1.0" encoding="UTF-8" standalone="no"?>
<!-- Created with Inkscape (http://www.inkscape.org/) -->
<svg
   xmlns:dc="http://purl.org/dc/elements/1.1/"
   xmlns:cc="http://web.resource.org/cc/"
   xmlns:rdf="http://www.w3.org/1999/02/22-rdf-syntax-ns#"
   xmlns:svg="http://www.w3.org/2000/svg"
   xmlns="http://www.w3.org/2000/svg"
   xmlns:sodipodi="http://sodipodi.sourceforge.net/DTD/sodipodi-0.dtd"
   xmlns:inkscape="http://www.inkscape.org/namespaces/inkscape"
   width="211"
   height="199"
   id="svg2"
   sodipodi:version="0.32"
   inkscape:version="0.45.1"
   version="1.0"
   inkscape:output_extension="org.inkscape.output.svg.inkscape">
  <g
     inkscape:label="Layer 1"
     inkscape:groupmode="layer"
     id="layer1"
     transform="translate(-11.360076,-838.38776)">
    <g
       id="g273718"
       transform="matrix(1,0,0,-1,334.66847,361.96968)">
      <path
         id="path273720"
         d="M 0,0 L 31.776,0"
         style="fill:#221e1f;fill-rule:nonzero;stroke:none" />
    </g>
    <g
       id="g274934"
       transform="matrix(2.6928446,0,0,-2.6928446,146.53206,853.44041)">
      <path
         id="path274936"
         d="M 0,0 C 5.098,0 9.229,-21.491 9.229,-47.999 L 16.613,-47.999 C 16.613,-19.45 9.175,3.693 0,3.693 C -5.22,3.693 -9.875,-3.264 -12.925,-14.141 C -15.97,-3.264 -20.627,3.693 -25.847,3.693 C -35.024,3.693 -42.463,-19.45 -42.463,-47.999 L -35.08,-47.999 C -35.08,-21.491 -30.945,0 -25.847,0 C -20.749,0 -16.615,-19.837 -16.615,-44.307 L -9.233,-44.307 C -9.233,-19.837 -5.1,0 0,0"
         style="fill:#221e1f;fill-rule:nonzero;stroke:none" />
    </g>
    <g
       id="g274938"
       transform="matrix(2.6928446,0,0,-2.6928446,139.01638,848.34051)">
      <path
         id="path274940"
         d="M 0,0 C 5.105,0 9.243,-21.52 9.243,-48.064 L 16.638,-48.064 C 16.638,-19.478 9.189,3.696 0,3.696 C -5.227,3.696 -9.89,-3.268 -12.94,-14.159 C -15.99,-3.268 -20.654,3.696 -25.881,3.696 C -35.069,3.696 -42.52,-19.478 -42.52,-48.064 L -35.124,-48.064 C -35.124,-21.52 -30.984,0 -25.881,0 C -20.776,0 -16.637,-19.864 -16.637,-44.368 L -9.243,-44.368 C -9.243,-19.864 -5.104,0 0,0"
         style="fill:#fbbe16;fill-rule:nonzero;stroke:none" />
    </g>
    <g
       id="g274942"
       transform="matrix(2.6928446,0,0,-2.6928446,200.20044,972.41309)">
      <path
         id="path274944"
         d="M 0,0 L 0.346,0 C 0.64,0 0.907,0.014 0.907,0.357 C 0.907,0.648 0.662,0.69 0.439,0.69 L 0,0.69 L 0,0 z M -0.337,0.961 L 0.493,0.961 C 1.008,0.961 1.248,0.759 1.248,0.341 C 1.248,-0.049 1.003,-0.21 0.68,-0.247 L 1.297,-1.203 L 0.934,-1.203 L 0.35,-0.27 L 0,-0.27 L 0,-1.203 L -0.337,-1.203 L -0.337,0.961 z M 0.382,-1.707 C 1.235,-1.707 1.892,-1.02 1.892,-0.113 C 1.892,0.775 1.235,1.459 0.382,1.459 C -0.479,1.459 -1.137,0.775 -1.137,-0.113 C -1.137,-1.02 -0.479,-1.707 0.382,-1.707 z M 0.382,1.73 C 1.387,1.73 2.225,0.934 2.225,-0.113 C 2.225,-1.178 1.387,-1.975 0.382,-1.975 C -0.626,-1.975 -1.476,-1.178 -1.476,-0.113 C -1.476,0.934 -0.626,1.73 0.382,1.73"
         style="fill:#221e1f;fill-rule:nonzero;stroke:none" />
    </g>
    <path
       id="path274946"
       d="M 11.362076,1012.7803 L 18.164134,1012.7803 L 18.164134,1036.7878 L 11.362076,1036.7878 L 11.362076,1012.7803 z M 11.362076,1004.3404 L 18.164134,1004.3404 L 18.164134,1009.8123 L 11.362076,1009.8123 L 11.362076,1004.3404 z "
       style="fill:#221e1f;fill-rule:nonzero;stroke:none" />
    <g
       id="g274948"
       transform="matrix(2.6928446,0,0,-2.6928446,28.192348,1011.2873)">
      <path
         id="path274950"
         d="M 0,0 L 0,2.559 L -2.645,2.559 L -2.645,0 L -1.537,0 C -1.537,-0.918 -2.031,-1.665 -2.648,-1.665 L -2.645,-2.88 C -1.178,-2.88 0,-1.594 0,0"
         style="fill:#221e1f;fill-rule:nonzero;stroke:none" />
    </g>
    <g
       id="g274952"
       transform="matrix(2.6928446,0,0,-2.6928446,37.905429,1015.3312)">
      <path
         id="path274954"
         d="M 0,0 C 0.303,0.368 0.97,1.157 2.468,1.157 C 3.895,1.157 4.41,0.622 4.875,0.123 C 5.375,0.553 6.072,1.157 7.457,1.157 C 8.883,1.157 9.617,0.435 9.882,-0.12 C 10.1,-0.586 10.114,-1.208 10.114,-2.155 L 10.114,-7.942 L 7.584,-7.942 L 7.584,-3.279 C 7.584,-2.766 7.584,-2.102 7.49,-1.76 C 7.253,-1.016 6.571,-0.963 6.375,-0.963 C 6.123,-0.963 5.791,-1.036 5.539,-1.239 C 5.058,-1.623 5.058,-2.138 5.058,-3.103 L 5.058,-7.942 L 2.533,-7.942 L 2.533,-2.681 C 2.533,-2.295 2.515,-1.76 2.285,-1.424 C 2.082,-1.157 1.701,-0.963 1.287,-0.963 C 1.083,-0.963 0.818,-1.016 0.584,-1.175 C 0.021,-1.558 0,-2.277 0,-2.884 L 0,-7.942 L -2.523,-7.942 L -2.523,0.954 L 0,0.954"
         style="fill:#221e1f;fill-rule:nonzero;stroke:none" />
    </g>
    <path
       id="path274956"
       d="M 74.851199,1036.7878 L 81.747595,1036.7878 L 81.747595,1004.3574 L 74.851199,1004.3574 L 74.851199,1036.7878 z "
       style="fill:#221e1f;fill-rule:nonzero;stroke:none" />
    <g
       id="g274958"
       transform="matrix(2.6928446,0,0,-2.6928446,92.76136,1019.9731)">
      <path
         id="path274960"
         d="M 0,0 C -0.316,-0.52 -0.43,-1.123 -0.43,-1.741 C -0.43,-3.15 0.239,-4.392 1.668,-4.392 C 3.047,-4.392 3.73,-3.253 3.73,-1.862 C 3.73,-0.87 3.498,-0.103 3.012,0.367 C 2.486,0.885 1.882,0.904 1.516,0.867 C 0.787,0.815 0.352,0.55 0,0 z M 6.32,-1.761 C 6.32,-4.006 5.058,-6.467 1.668,-6.467 C -0.78,-6.467 -3.009,-5.047 -3.009,-1.761 C -3.009,0.967 -1.328,3.131 1.995,2.935 C 5.535,2.728 6.32,-0.136 6.32,-1.761"
         style="fill:#221e1f;fill-rule:nonzero;stroke:none" />
    </g>
    <g
       id="g274962"
       transform="matrix(2.6928446,0,0,-2.6928446,121.14387,1030.2609)">
      <path
         id="path274964"
         d="M 0,0 L 1.451,6.478 L 4.077,6.478 L 1.269,-2.418 L -1.406,-2.418 L -4.22,6.478 L -1.524,6.478"
         style="fill:#221e1f;fill-rule:nonzero;stroke:none" />
    </g>
    <g
       id="g274966"
       transform="matrix(2.6928446,0,0,-2.6928446,151.69148,1015.0402)">
      <path
         id="path274968"
         d="M 0,0 C 0.258,0.279 0.426,0.481 0.872,0.695 C 1.266,0.863 1.825,1.016 2.452,1.016 C 2.969,1.016 3.542,0.912 3.988,0.662 C 4.912,0.176 5.149,-0.624 5.149,-2.001 L 5.149,-8.082 L 2.608,-8.082 L 2.608,-3.074 C 2.608,-2.278 2.59,-1.984 2.49,-1.75 C 2.283,-1.28 1.825,-1.068 1.331,-1.068 C -0.014,-1.068 -0.014,-2.173 -0.014,-3.279 L -0.014,-8.082 L -2.581,-8.082 L -2.581,0.814 L 0,0.814"
         style="fill:#221e1f;fill-rule:nonzero;stroke:none" />
    </g>
    <path
       id="path274970"
       d="M 135.05236,1012.7803 L 141.85992,1012.7803 L 141.85992,1036.7878 L 135.05236,1036.7878 L 135.05236,1012.7803 z M 135.05236,1004.3404 L 141.85992,1004.3404 L 141.85992,1009.8123 L 135.05236,1009.8123 L 135.05236,1004.3404 z "
       style="fill:#221e1f;fill-rule:nonzero;stroke:none" />
    <path
       id="path274972"
       d="M 185.27933,1012.7803 L 192.06804,1012.7803 L 192.06804,1036.7878 L 185.27933,1036.7878 L 185.27933,1012.7803 z M 185.27933,1004.3404 L 192.06804,1004.3404 L 192.06804,1009.8123 L 185.27933,1009.8123 L 185.27933,1004.3404 z "
       style="fill:#221e1f;fill-rule:nonzero;stroke:none" />
    <g
       id="g274974"
       transform="matrix(2.6928446,0,0,-2.6928446,198.38267,1007.3064)">
      <path
         id="path274976"
         d="M 0,0 L 2.541,0 L 2.541,-2.044 L 4.228,-2.044 L 4.228,-4.073 L 2.525,-4.073 L 2.525,-7.84 C 2.512,-8.382 2.512,-8.848 3.203,-8.848 L 4.112,-8.814 L 4.112,-10.86 C 3.572,-10.943 3.236,-10.992 2.766,-10.992 C 1.885,-10.992 0.93,-10.943 0.367,-10.12 C 0.018,-9.597 0,-8.965 0,-8.109 L 0,-4.053 L -1.25,-4.053 L -1.25,-2.029 L 0,-2.029"
         style="fill:#221e1f;fill-rule:nonzero;stroke:none" />
    </g>
    <g
       id="g274978"
       clip-path="url(#id1569)"
       transform="matrix(2.6928446,0,0,-2.6928446,-921.10451,2073.7116)">
      <g
         id="g274980"
         transform="translate(407.248,394.52299)">
        <path
           id="path274982"
           d="M 0,0 L 0,2.559 L -2.646,2.559 L -2.646,0 L -1.529,0 C -1.529,-0.918 -2.029,-1.665 -2.646,-1.665 L -2.646,-2.88 C -1.177,-2.88 0,-1.594 0,0"
           style="fill:#221e1f;fill-rule:nonzero;stroke:none" />
      </g>
      <g
         id="g274984"
         transform="translate(422.403,395.37)">
        <path
           id="path274986"
           d="M 0,0 L 0.35,0 C 0.644,0 0.914,0.014 0.914,0.357 C 0.914,0.644 0.669,0.688 0.442,0.688 L 0,0.688 L 0,0 z M -0.334,0.959 L 0.497,0.959 C 1.008,0.959 1.248,0.757 1.248,0.342 C 1.248,-0.049 1.003,-0.212 0.685,-0.246 L 1.298,-1.201 L 0.939,-1.201 L 0.355,-0.272 L 0,-0.272 L 0,-1.201 L -0.334,-1.201 L -0.334,0.959 z M 0.384,-1.7 C 1.233,-1.7 1.893,-1.018 1.893,-0.114 C 1.893,0.772 1.233,1.454 0.384,1.454 C -0.477,1.454 -1.134,0.772 -1.134,-0.114 C -1.134,-1.018 -0.477,-1.7 0.384,-1.7 z M 0.384,1.726 C 1.387,1.726 2.227,0.931 2.227,-0.114 C 2.227,-1.175 1.387,-1.971 0.384,-1.971 C -0.624,-1.971 -1.471,-1.175 -1.471,-0.114 C -1.471,0.931 -0.624,1.726 0.384,1.726"
           style="fill:#221e1f;fill-rule:nonzero;stroke:none" />
      </g>
    </g>
    <g
       id="g274998"
       transform="matrix(1,0,0,-1,214.15145,768.35669)">
      <path
         id="path275000"
         d="M 0,0 L 80.595,0"
         style="fill:#ffffff;fill-rule:nonzero;stroke:none" />
    </g>
    <g
       id="g275006"
       transform="matrix(1,0,0,-1,214.15145,767.67968)">
      <path
         id="path275008"
         d="M 0,0 L 80.595,0"
         style="fill:#ffffff;fill-rule:nonzero;stroke:none" />
    </g>
  </g>
</svg>
