<?xml version="1.0" encoding="UTF-8" standalone="no"?>
<!-- Created with Inkscape (http://www.inkscape.org/) -->

<svg
   xmlns:dc="http://purl.org/dc/elements/1.1/"
   xmlns:cc="http://creativecommons.org/ns#"
   xmlns:rdf="http://www.w3.org/1999/02/22-rdf-syntax-ns#"
   xmlns:svg="http://www.w3.org/2000/svg"
   xmlns="http://www.w3.org/2000/svg"
   xmlns:sodipodi="http://sodipodi.sourceforge.net/DTD/sodipodi-0.dtd"
   xmlns:inkscape="http://www.inkscape.org/namespaces/inkscape"
   width="475.75"
   height="324.39999"
   id="svg2"
   version="1.1"
   inkscape:version="0.48.4 r9939"
   sodipodi:docname="McDonald's_1968.svg">
  <defs
     id="defs4" />
  <sodipodi:namedview
     id="base"
     pagecolor="#ffffff"
     bordercolor="#666666"
     borderopacity="1.0"
     inkscape:pageopacity="0.0"
     inkscape:pageshadow="2"
     inkscape:zoom="0.76373057"
     inkscape:cx="425.922"
     inkscape:cy="111.58911"
     inkscape:document-units="in"
     inkscape:current-layer="layer1"
     showgrid="false"
     inkscape:window-width="1280"
     inkscape:window-height="750"
     inkscape:window-x="-8"
     inkscape:window-y="-8"
     inkscape:window-maximized="1" />
  <metadata
     id="metadata7">
    <rdf:RDF>
      <cc:Work
         rdf:about="">
        <dc:format>image/svg+xml</dc:format>
        <dc:type
           rdf:resource="http://purl.org/dc/dcmitype/StillImage" />
        <dc:title />
      </cc:Work>
    </rdf:RDF>
  </metadata>
  <g
     inkscape:label="Layer 1"
     inkscape:groupmode="layer"
     id="layer1"
     transform="translate(0,-727.95996)">
    <path
       style="fill:#ff8000;fill-opacity:1;stroke:none"
       d="M 115.28125 0.03125 C 88.22041 0.97582 63.41752 42.10572 46.25 90.40625 C 16.21611 174.90609 1.13869 276.8746 0 323.9375 L 43.34375 323.9375 C 56.20089 113.69046 89.32046 22.93303 113.5625 22.21875 C 130.72357 21.30429 150.28187 61.58745 166 160.03125 C 168.04254 175.44403 169.72592 192.02598 171 209.84375 L 221.0625 209.84375 C 222.04911 190.38818 223.47872 172.49821 225.53125 161.46875 C 241.12035 58.80413 260.59734 22.55084 277.3125 22.21875 C 299.1386 20.89266 323.30125 95.09801 337.75 205.75 C 337.92646 207.10136 338.07858 208.48512 338.25 209.84375 L 375.34375 209.84375 C 372.82828 195.7697 370.08371 181.83795 367.1875 168.25 C 346.34167 70.44895 307.44225 0.03125 274.5 0.03125 C 232.49312 -0.86530782 202.93757 111.88852 195.78125 152.90625 C 190.86545 124.36953 183.31913 98.455347 169.4375 63.4375 C 161.24354 42.07963 144.15081 -0.97645 115.28125 0.03125 z M 195.78125 152.9375 C 196.10711 154.83 196.41478 156.73713 196.71875 158.65625 L 195.65625 153.65625 C 195.69514 153.4296 195.74093 153.16875 195.78125 152.9375 z M 173.625 271.25 C 173.81847 282.22606 173.91041 293.59375 173.84375 305.375 L 218.84375 305.375 C 218.84375 305.375 218.83647 290.9984 219.15625 271.25 L 173.625 271.25 z M 344.5 271.25 C 345.94014 288.30459 347.29114 305.83965 348.6875 323.9375 L 388.03125 323.9375 C 387.6078 306.72869 386.29999 289.0474 384.34375 271.25 L 344.5 271.25 z "
       transform="translate(0,727.95996)"
       id="path20" />
    <path
       inkscape:connector-curvature="0"
       d="m 365.45257,992.31998 14.1523,0 0,-48.07531 -14.1523,0 0,48.07531 z"
       id="path24"
       style="fill:#000000;fill-opacity:1;fill-rule:evenodd;stroke:none" />
    <path
       inkscape:connector-curvature="0"
       d="m 441.68929,943.93826 -4.032,14.02789 -7.4095,-0.0446 1.7702,-13.99463"
       id="path26"
       style="fill:#000000;fill-opacity:1;stroke:none"
       sodipodi:nodetypes="cccc" />
    <path
       inkscape:connector-curvature="0"
       d="m 456.18289,950.89254 c 9.4149,0 17.8133,3.56769 17.8555,13.09319 l -13.2606,-0.0478 c -0.063,-2.7135 -0.8328,-4.26624 -3.9701,-4.26624 -1.8612,0 -3.2407,0.79689 -3.3038,3.23584 0.9283,4.74846 7.7224,3.10826 12.3292,4.97122 5.8402,1.78527 9.8885,5.37664 9.8885,11.17583 0,8.88406 -6.7633,13.79932 -19.5387,13.85156 -13.397,0.0548 -17.6788,-6.17239 -18.4354,-14.96763 l 13.9297,0.0446 c -0.134,3.72746 1.5421,6.00164 4.4139,6.00164 3.439,0 4.4183,-0.80991 4.4183,-3.31526 -0.8929,-4.14511 -6.2628,-3.38518 -12.1109,-5.60905 -3.7647,-1.27164 -9.3731,-2.71902 -9.2838,-11.68284 0.051,-5.10185 3.8028,-12.48509 17.0682,-12.48509"
       id="path28"
       style="fill:#000000;fill-opacity:1;stroke:none"
       sodipodi:nodetypes="cccsccssccsccsc" />
    <path
       sodipodi:nodetypes="cccccccccccccc"
       inkscape:connector-curvature="0"
       d="m 68.77632,944.17869 17.48045,0 8.32353,23.93431 6.89467,-23.93431 17.4926,0 7.64324,47.70427 -14.4226,0 -5.23803,-21.09328 -6.45354,21.09328 -13.26154,0 -7.88087,-21.09328 -3.81163,21.09328 -14.4326,0 7.66632,-47.70427"
       id="path32"
       style="fill:#000000;fill-opacity:1;stroke:none" />
    <path
       inkscape:connector-curvature="0"
       d="m 289.40786,969.65365 c 0,1.53861 -0.0893,21.57118 -0.0893,21.57118 l -14.67935,0.0446 0,-38.45663 14.27756,0 0.0893,3.00451 c 3.41063,-2.60895 5.6001,-3.95021 12.59275,-3.95021 7.594,0 13.7122,4.98205 13.71511,10.21221 l 0,29.19012 -13.56984,0 0,-21.16792 c 0.006,-3.51586 -3.20146,-5.56158 -6.69343,-5.56158 -4.49133,0 -5.43074,3.08068 -5.64281,5.15832"
       id="path34"
       style="fill:#000000;fill-opacity:1;stroke:none"
       sodipodi:nodetypes="ccccccsccccsc" />
    <path
       inkscape:connector-curvature="0"
       d="m 411.55889,956.15857 0,-12.16824 14.0666,0 0,47.9287 -13.35231,0 0,-1.62863 c -2.11502,1.29393 -3.82363,2.62542 -9.88688,2.62542 -6.82191,0 -18.8508,-3.16312 -18.73942,-20.13864 0.1061,-16.17123 8.69123,-21.09855 16.40374,-21.09855 5.60145,0 10.29982,3.35682 11.50827,4.47994 z m -13.21344,16.34804 c 0,6.60261 2.11811,9.61868 6.0404,9.48475 4.85546,-0.0902 6.06154,-3.32543 7.17906,-6.13945 l 0,-7.36319 c -0.74967,-2.79622 -3.03683,-5.55235 -6.50625,-5.55329 -4.8458,-0.003 -6.71321,2.97224 -6.71321,9.57389"
       id="path36"
       style="fill:#000000;fill-opacity:1;stroke:none"
       sodipodi:nodetypes="ccccccsssccccccc" />
    <path
       inkscape:connector-curvature="0"
       d="m 227.30108,971.5492 c 0.0116,-12.53673 8.45074,-21.21444 21.96451,-21.22612 13.51908,-0.0117 21.95645,8.68939 21.96575,21.22612 0.0116,12.55077 -8.44979,21.224 -21.96575,21.224 -13.50044,9.4e-4 -21.97537,-8.67323 -21.96451,-21.224 z m 30.30878,0 c 0.002,-4.84476 -1.73839,-10.98272 -8.34427,-10.98272 -6.60431,-0.003 -8.3458,6.13796 -8.34455,10.98272 0.002,4.84385 1.74024,10.98181 8.34455,10.98181 6.60588,0 8.34427,-6.13796 8.34427,-10.98181"
       id="path38"
       style="fill:#000000;fill-opacity:1;stroke:none" />
    <path
       inkscape:connector-curvature="0"
       d="m 172.35197,944.18808 25.43567,0 c 15.91377,0 26.75954,9.37397 26.75954,23.66372 0,14.28858 -10.84325,23.66463 -26.75954,23.66463 l -25.43567,0 z m 16.82616,36.1401 7.68988,0 c 4.98281,0 12.11949,-2.88151 12.11949,-12.47638 0,-9.58316 -7.13668,-12.47547 -12.11949,-12.47547 l -7.68988,0 0,24.95185"
       id="path40"
       style="fill:#000000;fill-opacity:1;stroke:none"
       sodipodi:nodetypes="cssscccssscc" />
    <path
       inkscape:connector-curvature="0"
       d="m 340.13721,951.17279 c 9.53821,-0.009 17.40028,3.59784 18.01342,11.51489 l 0,29.1678 -13.45204,0 0,-1.8789 c -3.26633,2.87741 -3.75331,2.80399 -9.63265,2.80399 -9.4371,0 -15.31257,-5.92256 -15.04471,-14.05327 0.21484,-6.52147 2.88131,-12.65738 18.52809,-12.65386 4.03418,9e-4 4.49462,-0.827 4.49748,-2.77012 0.007,-2.38639 -1.14482,-2.61034 -3.38541,-2.61034 -2.24057,0 -4.46631,0.58052 -4.97138,3.76949 l -12.22229,0 c -0.0631,-6.04227 3.76475,-13.27585 17.66949,-13.28968 z m -0.74495,22.94912 c -3.10298,0 -5.78451,1.19767 -5.78451,4.45946 0,2.11246 1.02546,3.87284 4.19719,3.87196 3.03426,0 5.59461,-1.58245 5.90068,-5.29204 l 0,-4.26484 c -1.02573,0.57644 -2.4167,1.22546 -4.37649,1.22546"
       id="path42"
       style="fill:#000000;fill-opacity:1;stroke:none"
       sodipodi:nodetypes="cccccsssccccccscccc" />
    <path
       inkscape:connector-curvature="0"
       d="m 399.71826,1034.6232 6.00358,0 c 2.97262,0 4.9516,1.6149 4.9516,3.7482 0,1.9704 -1.49986,3.2635 -3.35385,3.4249 l 0,0.065 c 2.84347,0.9688 3.25801,2.9722 3.29134,5.6865 l -2.68306,0 c -0.0958,-3.2634 -0.79993,-4.6848 -3.64131,-4.6848 l -2.20604,0 0,4.6848 -2.36226,0 0,-12.9245 z m 2.36226,6.1714 2.81223,0 c 2.20396,0 3.09761,-0.7754 3.09761,-2.2297 0,-1.0988 -0.67077,-1.8743 -2.71431,-1.8743 l -3.19553,0 0,4.104 z m 2.55601,-10.663 c 6.07024,0 10.98849,4.9434 10.98849,11.1156 0,6.1713 -4.91825,11.1147 -10.98849,11.1147 -6.07023,0 -10.98849,-4.9434 -10.98849,-11.1147 0,-6.1722 4.91826,-11.1156 10.98849,-11.1156 z m 0,21.0352 c 5.39946,0 9.80737,-4.4265 9.80737,-9.9196 0,-5.4931 -4.40791,-9.9196 -9.80737,-9.9196 -5.39739,0 -9.80735,4.4265 -9.80735,9.9196 0,5.4931 4.40996,9.9196 9.80735,9.9196"
       id="path44"
       style="fill:#000000;fill-opacity:1;fill-rule:evenodd;stroke:none" />
    <path
       style="fill:#000000;fill-opacity:1;stroke:none;stroke-width:1px;marker-start:none"
       d="m 148.15577,950.56117 c -14.51897,-0.46653 -21.21027,10.8151 -21.36729,20.73966 -0.47482,12.0799 8.12408,22.00696 20.98214,21.69643 8.6629,0.68549 21.19375,-3.64814 19.96049,-17.03148 l -14.04488,-0.0666 c 0.29761,4.17162 -2.2854,6.09543 -5.36978,6.12095 -3.97377,0.27248 -6.70782,-4.27764 -6.59915,-10.63219 -0.10471,-15.82908 11.49292,-13.0716 12.00757,-4.41632 l 13.9245,-0.0177 c 0.095,-9.79079 -8.38309,-16.73502 -19.49361,-16.39268 z"
       id="path3013"
       inkscape:connector-curvature="0"
       sodipodi:nodetypes="ccccccccccc" />
  </g>
</svg>
