<?xml version="1.0" encoding="UTF-8" standalone="no"?>
<!-- Created with Inkscape (http://www.inkscape.org/) -->
<svg
   xmlns:svg="http://www.w3.org/2000/svg"
   xmlns="http://www.w3.org/2000/svg"
   version="1.0"
   width="200"
   height="74.719711"
   id="svg2508">
  <defs
     id="defs2510">
    <clipPath
       id="clipPath8825">
      <path
         d="M -230.383,644.988 L 801.428,644.988 L 801.428,-83.516 L -230.383,-83.516 L -230.383,644.988 z"
         id="path8827" />
    </clipPath>
    <clipPath
       id="clipPath7642">
      <path
         d="M 415.3,483.34 L 540,483.34 L 540,538.19 L 415.3,538.19 L 415.3,483.34 z"
         id="path7644" />
    </clipPath>
  </defs>
  <g
     transform="translate(-438.80864,-286.33557)"
     id="layer1">
    <g
       transform="matrix(1.4030942,0,0,-1.4030942,262.44047,557.99882)"
       id="g11071">
      <path
         d="M 230.056,179.154 L 214.421,179.154 L 213.464,176.394 L 216.579,176.394 L 210.566,159.038 L 207.574,159.038 L 206.619,156.278 L 225.263,156.278 L 226.219,159.038 L 223.085,159.038 L 230.056,179.154"
         id="path10679"
         style="fill:#ed1c24;fill-opacity:1;fill-rule:nonzero;stroke:none" />
      <path
         d="M 230.569,186.153 C 230.569,182.714 227.78,179.926 224.341,179.926 C 220.903,179.926 218.114,182.714 218.114,186.153 C 218.114,189.592 220.903,192.38 224.341,192.38 C 227.78,192.38 230.569,189.592 230.569,186.153"
         id="path10681"
         style="fill:#ed1c24;fill-opacity:1;fill-rule:nonzero;stroke:none" />
      <path
         d="M 247.863,186.153 C 247.863,182.714 245.074,179.926 241.634,179.926 C 238.197,179.926 235.409,182.714 235.409,186.153 C 235.409,189.592 238.197,192.38 241.634,192.38 C 245.074,192.38 247.863,189.592 247.863,186.153"
         id="path10683"
         style="fill:#ed1c24;fill-opacity:1;fill-rule:nonzero;stroke:none" />
      <path
         d="M 264.165,179.154 L 248.532,179.154 L 247.574,176.394 L 250.689,176.394 L 244.675,159.038 L 241.685,159.038 L 240.729,156.278 L 259.373,156.278 L 260.329,159.038 L 257.195,159.038 L 264.165,179.154"
         id="path10685"
         style="fill:#ed1c24;fill-opacity:1;fill-rule:nonzero;stroke:none" />
      <path
         d="M 264.678,186.153 C 264.678,182.714 261.89,179.926 258.452,179.926 C 255.012,179.926 252.225,182.714 252.225,186.153 C 252.225,189.592 255.012,192.38 258.452,192.38 C 261.89,192.38 264.678,189.592 264.678,186.153"
         id="path10687"
         style="fill:#ed1c24;fill-opacity:1;fill-rule:nonzero;stroke:none" />
      <path
         d="M 243.949,179.154 L 231.553,179.154 L 230.597,176.394 L 233.714,176.394 L 226.568,155.724 C 225.424,152.245 223.806,147.091 223.266,146.444 C 222.727,145.796 222.025,144.96 220.784,144.529 C 220.784,144.529 219.857,144.251 219.34,144.235 C 218.823,144.219 218.323,144.3 218.727,144.687 C 219.129,145.074 219.459,145.461 219.739,145.8 C 220.606,146.861 221.125,148.213 221.125,149.686 C 221.125,153.093 218.342,155.856 214.91,155.856 C 211.477,155.856 208.693,153.093 208.693,149.686 C 208.693,145.401 212.293,143.297 214.994,142.536 C 218.623,141.512 224.506,141.521 227.671,142.687 C 235.268,145.484 235.755,146.421 238.647,154.366 L 247.187,179.154 L 243.949,179.154"
         id="path10689"
         style="fill:#ed1c24;fill-opacity:1;fill-rule:nonzero;stroke:none" />
      <path
         d="M 190.229,188.845 L 174.551,188.845 L 165.46,171.521 L 165.807,188.844 L 163.103,188.844 L 163.103,188.845 L 147.861,188.845 L 146.905,186.085 L 150.997,186.085 C 149.199,180.742 143.077,162.549 143.046,162.457 C 142.569,161.25 142.245,160.415 141.356,159.573 C 141.166,159.394 140.212,158.681 140.003,158.945 C 139.86,159.126 140.621,159.916 140.797,160.173 C 141.408,161.062 141.665,162.183 141.665,163.339 C 141.665,166.764 138.889,169.541 135.464,169.541 C 132.039,169.541 129.263,166.764 129.263,163.339 C 129.263,159.916 131.007,157.795 133.316,156.61 C 136.024,155.391 138.432,155.518 140.616,156.236 C 142.819,156.96 144.677,158.544 145.789,161.37 L 152.659,181.566 L 152.659,156.209 L 160.866,156.209 L 174.121,181.219 L 166.435,159.038 L 163.566,159.038 L 162.61,156.278 L 182.435,156.278 L 183.392,159.038 L 179.901,159.038 L 189.272,186.085 L 192.615,186.085 L 193.572,188.845 L 190.229,188.845"
         id="path10691"
         style="fill:#ed1c24;fill-opacity:1;fill-rule:nonzero;stroke:none" />
      <path
         d="M 208.438,177.549 C 206.877,179.064 203.386,180.029 200.951,179.983 C 198.518,179.937 194.704,179.155 191.581,176.676 C 188.458,174.195 186.024,170.152 185.61,167.076 C 185.197,163.998 186.024,160.599 189.193,157.936 C 192.878,154.837 198.854,155.093 203.065,157.246 C 206.238,158.87 208.333,161.769 209.756,165.163 L 207,165.163 C 205.573,161.571 202.171,159.312 200.055,158.717 C 197.938,158.122 196.27,158.316 195.558,159.026 C 194.727,159.859 194.536,160.81 195.393,163.402 C 195.777,164.567 196.428,166.469 196.428,166.469 L 210.242,166.408 C 210.435,166.944 210.615,167.488 210.781,168.04 C 212.114,173.184 210.001,176.032 208.438,177.549 z M 202.033,175.694 L 199.916,169.03 L 197.336,169.03 L 199.746,175.988 L 199.755,175.988 C 200.03,176.662 200.435,177.202 201.12,177.202 C 201.805,177.202 202.296,176.566 202.033,175.694"
         id="path10693"
         style="fill:#ed1c24;fill-opacity:1;fill-rule:nonzero;stroke:none" />
    </g>
  </g>
</svg>
