<?xml version="1.0" encoding="utf-8"?>
<!-- Generator: Adobe Illustrator 15.1.0, SVG Export Plug-In . SVG Version: 6.00 Build 0)  -->
<!DOCTYPE svg PUBLIC "-//W3C//DTD SVG 1.1//EN" "http://www.w3.org/Graphics/SVG/1.1/DTD/svg11.dtd">
<svg version="1.1" id="Layer_1" xmlns="http://www.w3.org/2000/svg" xmlns:xlink="http://www.w3.org/1999/xlink" x="0px" y="0px"
	 width="158.98px" height="46.48px" viewBox="0 0 158.98 46.48" enable-background="new 0 0 158.98 46.48" xml:space="preserve">
<g>
	<path fill="#009999" d="M137.148,12.547c0,1.652,0,3.304,0,4.956c-0.064,0.484-0.721-0.23-1.084-0.465
		c-1.293-0.827-3.15-1.715-5.887-1.395c-3.611,0.426-6.477,3.633-6.504,7.743c-0.025,3.84,2.797,7.256,6.35,7.745
		c2.924,0.402,5.455-0.818,7.125-2.168c0,1.754,0,3.51,0,5.266c-8.938,3.801-19.629-1.652-18.584-12.235
		C119.348,14.073,128.697,8.57,137.148,12.547z"/>
	<path fill="#009999" d="M65.755,11.618c1.486,3.986,3.119,7.826,4.646,11.768c1.742-3.782,3.26-7.788,4.801-11.768
		c2.479,0,4.958,0,7.434,0c0,7.742,0,15.487,0,23.229c-1.652,0-3.305,0-4.956,0c0-5.42,0-10.84,0-16.261
		c-2.566,5.282-4.823,10.872-7.125,16.415c-2.516-5.332-4.766-10.926-7.124-16.415c-0.361,5.11-0.052,10.894-0.154,16.261
		c-1.652,0-3.303,0-4.955,0c0-7.742,0-15.487,0-23.229C60.8,11.618,63.278,11.618,65.755,11.618z"/>
	<path fill="#009999" d="M98.898,11.618c0,1.342,0,2.684,0,4.025c-2.84,0-5.68,0-8.52,0c0,1.756,0,3.51,0,5.266
		c2.428,0.361,5.523,0.052,8.207,0.154c0,1.291,0,2.583,0,3.874c-2.734,0-5.471,0-8.207,0c0,1.91,0,3.818,0,5.729
		c2.529,0.361,5.73,0.053,8.52,0.156c0,1.342,0,2.684,0,4.025c-4.492,0-8.982,0-13.475,0c0-7.742,0-15.487,0-23.229
		C89.914,11.618,94.406,11.618,98.898,11.618z"/>
	<path fill="#009999" d="M113.607,24.781c2.059,3.465,5.045,6.828,6.814,10.066c-1.924-0.432-3.549,0.59-5.266,0
		c-0.768-0.264-1.754-2.24-2.324-3.098c-2.016-3.035-4.672-6.637-6.193-9.603c7.893,1.631,7.521-8.691-0.465-6.813
		c0,6.504,0,13.009,0,19.513c-1.65,0-3.303,0-4.955,0c0-7.742,0-15.487,0-23.229c4.855,0.183,11.541-0.878,14.402,1.857
		C118.641,16.365,118.33,23.556,113.607,24.781z"/>
	<path fill="#009999" d="M144.426,11.618c0,7.742,0,15.487,0,23.229c-1.652,0-3.305,0-4.957,0
		c0.105-7.691-0.205-15.797,0.156-23.229C141.225,11.618,142.824,11.618,144.426,11.618z"/>
	<path fill="#009999" d="M157.742,11.618c0.43-0.02-0.158,0.8-0.465,1.238c-0.295,0.424-0.779,0.821-1.084,1.24
		c-1.832,2.526-3.891,5.506-5.729,8.053c2.703,4.267,6.127,8.638,8.518,12.7c-2.027-0.416-3.668,0.572-5.42,0
		c-0.836-0.275-1.732-2.227-2.322-3.098c-2.096-3.094-4.662-6.703-6.504-9.448c2.396-3.693,4.895-7.287,7.588-10.685
		C154.129,11.618,155.938,11.618,157.742,11.618z"/>
	<path fill="#009999" d="M11.709,11.618c0.479,6.695,4.004,10.346,10.066,11.459c-0.094,0.461-0.663,0.395-0.929,0.465
		c-5.105,1.348-8.857,4.922-9.137,11.305C4.184,34.475-1.617,28.119,0.404,20.29C1.606,15.638,5.671,11.937,11.709,11.618
		c0.271-6.623,5.246-11.705,11.77-11.614c6.489,0.09,11.015,4.764,11.458,11.15c0.014,0.22,0.025,0.438-0.154,0.464
		C27.092,11.618,19.401,11.618,11.709,11.618z"/>
	<path fill="#009999" d="M35.249,34.848c-0.635,3.348-1.382,5.859-3.252,7.898c-1.842,2.006-4.698,3.549-7.898,3.715
		c-6.737,0.352-12.049-4.529-12.389-11.613c7.794,0,15.589,0,23.384,0c-0.561-6.77-4.265-10.395-10.375-11.616
		c6.103-1.227,9.808-4.853,10.375-11.614c6.363,0.306,12.327,5.109,11.459,13.163C45.977,30.133,41.497,34.525,35.249,34.848z"/>
</g>
</svg>
