<?xml version="1.0" encoding="UTF-8" standalone="no"?>
<!-- Created with Inkscape (http://www.inkscape.org/) -->
<svg
   xmlns:svg="http://www.w3.org/2000/svg"
   xmlns="http://www.w3.org/2000/svg"
   version="1.0"
   width="744.09448"
   height="533.97638"
   id="svg1877">
  <defs
     id="defs1879" />
  <g
     transform="translate(-141.114,-242.696)"
     id="layer1">
    <g
       transform="translate(-156.7631,359.4656)"
       id="g2927">
      <path
         d="M 435.59761,-14.298169 L 429.43082,-14.298169 C 424.80207,-14.298169 420.92227,-10.428349 420.92227,-5.8095786 L 420.92227,52.362372 C 420.92227,56.981199 424.80207,60.850955 429.43082,60.850955 L 435.59761,60.850955 C 440.23139,60.850955 444.09869,56.981199 444.09869,52.362372 L 444.09869,-5.8095786 C 444.09869,-10.428349 440.23139,-14.298169 435.59761,-14.298169 z "
         style="fill:#d81435;fill-rule:nonzero;stroke:none"
         id="path2611" />
      <path
         d="M 400.45969,155.06461 L 394.29553,155.06461 C 389.66427,155.06461 385.78692,158.93687 385.78692,163.56318 L 385.78692,221.46046 C 385.78692,226.35641 389.66427,230.24123 394.29553,230.24123 L 400.45969,230.24123 C 405.09855,230.24123 408.97327,226.35641 408.97327,221.46046 L 408.97327,163.56318 C 408.97327,158.93687 405.09855,155.06461 400.45969,155.06461 z "
         style="fill:#d81435;fill-rule:nonzero;stroke:none"
         id="path2613" />
      <path
         d="M 400.45969,239.53624 L 394.29553,239.53624 C 389.66427,239.53624 385.78692,243.42351 385.78692,248.03481 L 385.78692,306.19929 C 385.78692,310.8281 389.66427,314.71286 394.29553,314.71286 L 400.45969,314.71286 C 405.09855,314.71286 408.97327,310.8281 408.97327,306.19929 L 408.97327,248.03481 C 408.97327,243.42351 405.09855,239.53624 400.45969,239.53624 z "
         style="fill:#d81435;fill-rule:nonzero;stroke:none"
         id="path2615" />
      <path
         d="M 365.34683,239.53624 L 359.18261,239.53624 C 354.54884,239.53624 350.68399,243.42351 350.68399,248.03481 L 350.68399,306.19929 C 350.68399,310.8281 354.54884,314.71286 359.18261,314.71286 L 365.34683,314.71286 C 369.98814,314.71286 373.84546,310.8281 373.84546,306.19929 L 373.84546,248.03481 C 373.84546,243.42351 369.98814,239.53624 365.34683,239.53624 z "
         style="fill:#f8a70d;fill-rule:nonzero;stroke:none"
         id="path2617" />
      <path
         d="M 435.61256,155.06461 L 429.43585,155.06461 C 424.81702,155.06461 420.93476,158.93687 420.93476,163.56318 L 420.93476,221.46046 C 420.93476,226.35641 424.81702,230.24123 429.43585,230.24123 L 435.61256,230.24123 C 440.24634,230.24123 444.1137,226.35641 444.1137,221.46046 L 444.1137,163.56318 C 444.1137,158.93687 440.24634,155.06461 435.61256,155.06461 z "
         style="fill:#2056ad;fill-rule:nonzero;stroke:none"
         id="path2619" />
      <path
         d="M 470.64307,-14.298169 L 464.48137,-14.298169 C 459.84759,-14.298169 455.97275,-10.428349 455.97275,-5.8095786 L 455.97275,52.362372 C 455.97275,56.981199 459.84759,60.850955 464.48137,60.850955 L 470.64307,60.850955 C 475.27685,60.850955 479.14912,56.981199 479.14912,52.362372 L 479.14912,-5.8095786 C 479.14912,-10.428349 475.27685,-14.298169 470.64307,-14.298169 z "
         style="fill:#f8a70d;fill-rule:nonzero;stroke:none"
         id="path2621" />
      <path
         d="M 365.42427,-99.059469 L 359.17759,-99.059469 C 354.54633,-99.059469 350.66401,-95.189659 350.66401,-90.346159 L 350.66401,-32.373939 C 350.66401,-27.730179 354.54633,-23.860359 359.17759,-23.860359 L 365.42427,-23.860359 C 370.05805,-23.860359 373.93785,-27.730179 373.93785,-32.373939 L 373.93785,-90.346159 C 373.93785,-95.189659 370.05805,-99.059469 365.42427,-99.059469 z "
         style="fill:#d81435;fill-rule:nonzero;stroke:none"
         id="path2629" />
      <path
         d="M 1023.2442,220.6416 L 978.30437,137.44822 C 977.63037,136.125 977.87997,133.97788 978.72877,132.85439 L 1021.0721,78.677059 C 1023.3939,75.606193 1023.1193,70.263349 1016.0538,70.263349 L 1008.3641,70.263349 C 1002.6468,70.263349 998.67707,72.610199 995.35647,76.92942 L 950.46677,134.95157 C 949.34327,136.52447 947.47077,136.52447 947.34597,133.95289 L 947.34597,78.427389 C 947.34597,73.98336 943.67587,70.288345 939.23187,70.288345 L 932.29117,70.288345 C 927.84717,70.288345 924.12707,73.98336 924.12707,78.427389 L 924.17697,221.81999 C 924.17697,226.53617 927.87207,230.22873 932.31607,230.22873 L 939.23187,230.22873 C 943.67587,230.22873 947.34597,226.53617 947.34597,221.81999 C 947.34597,221.81999 947.34597,173.80442 947.34597,171.75718 C 947.34597,169.70742 947.94517,168.46409 948.84397,167.30812 C 951.59027,163.84281 957.33257,156.43023 958.05657,155.60635 C 959.42977,153.94859 960.97767,154.18827 961.65177,155.60635 C 962.47557,157.22416 997.85317,223.43032 997.85317,223.43032 C 1000.6246,228.36125 1004.2696,230.21373 1009.2379,230.21373 L 1017.7765,230.21373 C 1022.3454,230.21373 1026.1403,226.25905 1023.2442,220.6416 z "
         style="fill:#2056ad;fill-rule:nonzero;stroke:none"
         id="path2631" />
      <path
         d="M 897.73747,183.05451 L 889.54857,183.05451 C 884.75497,183.05451 882.50797,186.063 881.85887,190.20241 C 880.28597,199.54238 875.26767,212.77962 857.59137,212.77962 C 841.23837,212.77962 830.17822,203.79917 830.17822,181.95351 L 830.17822,117.1754 C 830.17822,98.200869 840.43937,87.789848 856.89227,87.789848 C 872.19687,87.789848 877.66447,98.051066 879.56197,105.86557 C 880.83517,110.85887 883.65647,112.60657 887.75097,112.60657 L 895.98977,112.60657 C 900.15927,112.60657 902.78077,110.01005 902.78077,105.86557 L 902.78077,104.74208 C 900.95827,82.646741 883.93107,67.467092 857.19197,67.467092 C 826.18354,67.467092 806.9094,87.290506 806.9094,117.37514 L 806.9094,182.31303 C 806.9094,219.15356 829.27934,233.25218 857.56637,233.25218 C 887.32647,233.25218 904.57837,213.20905 904.57837,190.29229 C 904.57837,186.07796 901.93197,183.05451 897.73747,183.05451 z "
         style="fill:#2056ad;fill-rule:nonzero;stroke:none"
         id="path2633" />
      <path
         d="M 665.24949,209.92344 L 610.19833,209.92344 C 608.99997,209.92344 607.97629,208.92733 607.97629,207.71395 L 607.97629,158.61478 C 607.97629,157.39142 608.99997,156.40027 610.19833,156.40027 L 653.76485,156.40027 C 658.20888,156.40027 661.62929,152.77762 661.62929,148.53333 L 661.62929,143.66489 C 661.62929,139.49547 658.20888,136.07506 653.76485,136.07506 L 610.19833,136.07506 C 608.99997,136.07506 607.97629,135.07638 607.97629,133.85302 L 607.97629,93.132692 C 607.97629,91.934271 608.99997,90.935588 610.19833,90.935588 L 662.5281,90.935588 C 666.69752,90.935588 670.11793,87.515182 670.11793,83.196017 L 670.11793,77.853174 C 670.11793,73.683755 666.69752,70.238411 662.5281,70.238411 L 593.77039,70.238411 C 588.85201,70.238411 584.50785,74.3329 584.50785,79.251274 L 584.50785,220.95867 C 584.50785,226.13173 588.85201,230.22873 593.77039,230.22873 L 665.24949,230.22873 C 669.39391,230.22873 672.83931,226.78584 672.83931,222.37178 L 672.83931,217.51578 C 672.83931,213.35634 669.39391,209.92344 665.24949,209.92344 z "
         style="fill:#2056ad;fill-rule:nonzero;stroke:none"
         id="path2635" />
      <path
         d="M 740.67327,136.82408 L 715.75669,136.82408 C 714.55832,136.82408 713.5597,135.85033 713.5597,134.62697 L 713.5597,91.984206 C 713.5597,90.760847 714.55832,89.787159 715.75669,89.787159 L 741.74677,89.787159 C 756.50201,89.787159 762.39407,99.648903 762.39407,112.05729 C 762.39407,126.36306 754.85424,136.82408 740.67327,136.82408 z M 790.25672,220.52427 C 790.25672,220.52427 769.18501,176.22865 759.04865,156.30292 C 758.54925,154.89979 758.84892,153.76883 759.79761,153.03231 C 760.64649,152.65532 761.47032,152.26584 762.41907,151.76398 C 780.86932,142.86594 786.71145,127.9859 786.71145,111.43314 C 786.71145,86.866094 772.38074,70.263349 745.84132,70.263349 L 698.6796,70.263349 C 693.53655,70.263349 689.79154,74.357838 689.79154,79.27627 L 689.79154,220.9961 C 689.79154,226.8832 693.08714,230.19877 698.6796,230.19877 L 704.07237,230.19877 C 709.66489,230.19877 713.5597,226.8832 713.5597,220.9961 L 713.5597,158.45003 C 713.5597,157.22416 714.55832,156.25047 715.75669,156.25047 L 729.96265,156.25047 C 732.1597,156.38532 733.80752,157.0444 734.90602,158.79957 C 744.31835,177.52443 764.39144,223.11828 764.39144,223.11828 C 766.38875,227.51237 769.35975,230.25618 774.72753,230.25618 L 784.78907,230.25618 C 790.9558,230.25618 792.40389,225.12809 790.25672,220.52427 z "
         style="fill:#2056ad;fill-rule:nonzero;stroke:none"
         id="path2637" />
      <path
         d="M 551.99396,70.263349 L 530.17324,70.263349 C 526.47817,70.263349 523.58204,72.51033 522.62587,75.731 L 491.74971,185.15671 L 460.79377,75.755995 C 459.7552,72.435458 456.42467,70.263349 453.23642,70.263349 L 429.90272,70.263349 C 425.01179,70.263349 420.92227,74.357838 420.92227,79.27627 L 420.91228,136.89895 C 420.91228,141.51778 424.78209,145.41253 429.40588,145.41253 L 435.58762,145.41253 C 440.2214,145.41253 444.08374,141.51778 444.08374,136.89895 C 444.08374,136.89895 444.10868,108.96143 444.10868,108.23741 C 444.10868,107.53833 445.56921,107.18879 445.79891,107.98774 C 446.2183,109.33591 479.42128,223.90222 479.42128,223.90222 C 480.77697,228.16397 484.30729,230.22873 487.94484,230.22873 L 495.01535,230.22873 C 498.64303,230.22873 501.96356,228.02918 503.08203,223.92219 C 503.08203,223.91717 536.07027,108.06261 536.07027,108.06261 C 536.26002,107.4884 537.7605,107.31366 537.7605,108.26235 C 537.7605,108.88656 537.7605,220.95867 537.7605,220.95867 C 537.7605,226.13173 541.83752,230.22873 546.73353,230.22873 L 551.99396,230.22873 C 557.17947,230.22873 561.25399,226.13173 561.25399,220.95867 L 561.25399,79.27627 C 561.25399,74.357838 557.17947,70.263349 551.99396,70.263349 z "
         style="fill:#2056ad;fill-rule:nonzero;stroke:none"
         id="path2639" />
      <path
         d="M 470.65803,324.03287 L 464.49135,324.03287 C 459.85758,324.03287 455.98525,328.03 455.98525,332.81107 L 455.98525,390.70094 C 455.98525,395.33717 459.85758,399.4966 464.49135,399.4966 L 470.65803,399.4966 C 475.2918,399.4966 479.16413,395.33717 479.16413,390.70094 L 479.16413,332.81107 C 479.16413,328.03 475.2918,324.03287 470.65803,324.03287 z "
         style="fill:#d81435;fill-rule:nonzero;stroke:none"
         id="path2641" />
      <path
         d="M 330.30639,70.413152 L 324.0972,70.413152 C 319.4709,70.413152 315.59361,74.282965 315.59361,78.92673 L 315.59361,137.09869 C 315.59361,141.71751 319.4709,145.58727 324.0972,145.58727 L 330.30639,145.58727 C 334.94268,145.58727 338.80502,141.71751 338.80502,137.09869 L 338.80502,78.92673 C 338.80502,74.282965 334.94268,70.413152 330.30639,70.413152 z "
         style="fill:#f8a70d;fill-rule:nonzero;stroke:none"
         id="path2643" />
    </g>
  </g>
</svg>
