<?xml version="1.0" encoding="UTF-8" standalone="no"?>
<!-- Generator: Adobe Illustrator 14.0.0, SVG Export Plug-In . SVG Version: 6.00 Build 43363)  -->
<svg
   xmlns:dc="http://purl.org/dc/elements/1.1/"
   xmlns:cc="http://web.resource.org/cc/"
   xmlns:rdf="http://www.w3.org/1999/02/22-rdf-syntax-ns#"
   xmlns:svg="http://www.w3.org/2000/svg"
   xmlns="http://www.w3.org/2000/svg"
   xmlns:sodipodi="http://sodipodi.sourceforge.net/DTD/sodipodi-0.dtd"
   xmlns:inkscape="http://www.inkscape.org/namespaces/inkscape"
   version="1.0"
   id="Layer_1"
   x="0px"
   y="0px"
   width="649"
   height="116"
   viewBox="0 0 595.276 841.89"
   enable-background="new 0 0 595.276 841.89"
   xml:space="preserve"
   sodipodi:version="0.32"
   inkscape:version="0.45.1">

<polygon
   style="fill:#003f4a"
   points="200.479,668.081 207.899,668.124 210.559,673.875 207.824,673.852 206.672,669.846 205.314,669.889 205.788,673.875 202.837,673.863 203.118,669.846 201.782,669.835 200.856,673.852 197.765,673.82 200.479,668.081 "
   id="polygon116823"
   transform="matrix(61.188389,0,0,61.188389,-10244.177,-40520.97)" /><path
   style="fill:#003f4a;fill-rule:evenodd"
   id="path116833"
   d="M 2181.6551,0.000412637 L 2285.0635,1.2853688 C 2302.2574,1.9584411 2319.3902,1.9584411 2336.4617,1.9584411 C 2400.4036,2.6927018 2396.4875,1.9584411 2426.1027,57.333933 L 2454.4941,125.19186 C 2447.8858,125.86493 2432.7111,123.23383 2426.1027,124.4576 C 2415.5783,119.92966 2405.6658,100.77769 2395.1414,96.127372 L 2371.4003,95.454299 L 2464.3455,320.87232 L 2038.6578,320.87232 L 2181.6551,0.000412637 z "
   clip-rule="evenodd"
   clip-path="url(#SVGID_19276_)" /><polygon
   style="fill:#00304b;fill-rule:evenodd"
   id="polygon116835"
   points="136.918,668.047 139.072,668.047 139.288,671.957 142.863,668.145 145.847,668.113 143.241,673.874 141.236,673.852 142.95,670.18 139.396,673.852 137.801,673.831 137.564,670.374 135.874,673.734 133.924,673.734 136.918,668.047 "
   clip-rule="evenodd"
   clip-path="url(#SVGID_19276_)"
   transform="matrix(61.188389,0,0,61.188389,-10244.177,-40520.97)" /><polygon
   style="fill:#00304b;fill-rule:evenodd"
   id="polygon116837"
   points="147.117,668.113 153.352,668.188 152.857,669.34 148.42,669.287 148,670.374 152.028,670.45 151.533,671.515 147.429,671.515 146.977,672.667 151.285,672.71 150.714,673.875 144.543,673.777 147.117,668.113 "
   clip-rule="evenodd"
   clip-path="url(#SVGID_19276_)"
   transform="matrix(61.188389,0,0,61.188389,-10244.177,-40520.97)" /><polygon
   style="fill:#00304b;fill-rule:evenodd"
   id="polygon116839"
   points="153.913,668.167 155.765,668.167 156.82,669.932 158.813,668.209 161.408,668.209 157.627,671.224 159.318,673.875 157.165,673.875 156.173,671.849 153.794,673.852 151.273,673.799 155.324,670.622 153.913,668.167 "
   clip-rule="evenodd"
   clip-path="url(#SVGID_19276_)"
   transform="matrix(61.188389,0,0,61.188389,-10244.177,-40520.97)" /><polygon
   style="fill:#00304b;fill-rule:evenodd"
   id="polygon116841"
   points="162.528,668.167 164.391,668.188 161.817,673.875 159.943,673.852 162.528,668.167 "
   clip-rule="evenodd"
   clip-path="url(#SVGID_19276_)"
   transform="matrix(61.188389,0,0,61.188389,-10244.177,-40520.97)" /><path
   style="fill:#00304b;fill-rule:evenodd"
   id="path116843"
   d="M 219.89416,435.53937 L 256.11768,359.78814 L -27.184558,357.15704 C -89.168396,356.48397 -128.02302,390.07639 -166.26577,455.30322 C -204.44732,520.53004 -240.73204,616.84056 -212.40181,670.19684 C -187.98764,717.00595 -135.91633,712.35564 -85.864223,712.35564 L 115.13963,712.35564 L 146.77403,638.50125 L -77.297849,636.60441 C -140.56664,636.60441 -64.081157,478.37124 -46.336524,460.56542 C -36.424005,450.77527 -19.291256,436.88551 -0.20047879,436.88551 L 219.89416,435.53937 z "
   clip-rule="evenodd"
   clip-path="url(#SVGID_19276_)" /><path
   style="fill:#00304b;fill-rule:evenodd"
   id="path116845"
   d="M 500.62649,624.61149 L 471.62319,624.61149 L 471.62319,540.29389 L 540.15418,541.57884 L 584.94409,441.41345 C 540.15418,442.08652 501.29956,438.78235 471.62319,438.78235 L 471.62319,360.40002 C 495.36428,360.40002 518.37112,360.40002 538.19616,361.0731 L 733.20355,364.37727 L 574.41968,712.35564 L 471.62319,712.35564 L 471.62319,692.59179 L 500.62649,624.61149 z M 471.62319,624.61149 L 317.42845,621.98039 L 280.53185,707.70532 L 163.23371,709.60216 C 255.5058,533.68554 267.98823,419.69157 337.86537,380.16387 C 362.21835,366.94718 418.26691,361.62379 471.62319,360.40002 L 471.62319,438.78235 C 451.85934,438.78235 436.01155,439.45542 424.20219,442.69841 C 395.19889,451.26478 396.48385,477.02509 358.2411,538.88655 L 471.62319,540.17151 L 471.62319,624.61149 z M 471.62319,712.35564 L 471.62319,692.59179 L 463.05681,712.35564 L 471.62319,712.35564 z "
   clip-rule="evenodd"
   clip-path="url(#SVGID_19276_)" /><path
   style="fill:#00304b;fill-rule:evenodd"
   id="path116847"
   d="M 1524.6142,624.61149 L 1496.284,624.61149 L 1496.284,540.29389 L 1564.8149,541.57884 L 1609.6048,441.41345 C 1564.8149,442.08652 1525.8991,438.78235 1496.284,438.78235 L 1496.284,360.40002 C 1520.025,360.40002 1543.0931,360.40002 1562.8569,361.0731 L 1757.8643,364.37727 L 1599.0804,712.35564 L 1496.284,712.35564 L 1496.284,692.59179 L 1524.6142,624.61149 z M 1496.3451,624.61149 L 1342.1504,621.98039 L 1304.5807,707.70532 L 1188.6287,709.60216 C 1280.1666,533.68554 1292.7102,419.69157 1362.5261,380.16387 C 1386.9403,366.94718 1442.3158,361.62379 1496.3451,360.40002 L 1496.3451,438.78235 C 1476.5813,438.78235 1460.0604,439.45542 1448.8629,442.69841 C 1419.9208,451.26478 1421.2058,477.02509 1382.3512,538.88655 L 1496.3451,540.17151 L 1496.3451,624.61149 z M 1496.3451,712.35564 L 1496.3451,692.59179 L 1487.7788,712.35564 L 1496.3451,712.35564 z "
   clip-rule="evenodd"
   clip-path="url(#SVGID_19276_)" /><polygon
   style="fill:#00304b;fill-rule:evenodd"
   id="polygon116849"
   points="180.814,668.091 182.894,668.113 184.422,672.302 186.317,668.208 188.148,668.231 185.5,673.831 183.345,673.875 181.837,669.997 180.006,673.799 178.197,673.799 180.814,668.091 "
   clip-rule="evenodd"
   clip-path="url(#SVGID_19276_)"
   transform="matrix(61.188389,0,0,61.188389,-10244.177,-40520.97)" /><rect
   style="fill:#00304b"
   id="rect116851"
   height="27.35121"
   width="4698.4116"
   clip-path="url(#SVGID_19276_)"
   y="814.53918"
   x="-2057.4766" /><path
   style="fill:#00304b;fill-rule:evenodd"
   id="path116853"
   d="M 2652.7445,48.70637 C 2652.7445,57.333933 2650.1134,65.288424 2646.1973,71.774393 C 2642.2201,79.055811 2636.2848,84.991085 2629.7377,88.907142 C 2622.4563,92.823199 2614.5629,94.842416 2605.9966,94.842416 L 2605.9966,86.276041 C 2616.521,86.276041 2625.0874,82.359984 2632.3688,75.017378 C 2639.589,67.858336 2643.5662,59.230773 2643.5662,48.645182 C 2643.5662,38.793851 2639.589,29.554405 2632.3688,22.334175 C 2625.0874,15.052756 2616.521,11.748583 2605.9966,11.748583 L 2605.9966,2.570325 C 2614.5629,2.570325 2622.4563,4.5283534 2629.7377,9.1174826 C 2636.2848,13.033539 2642.2201,19.030002 2646.1973,25.638348 C 2650.1134,32.919766 2652.7445,40.813068 2652.7445,48.70637 M 2605.9966,59.965034 C 2607.9546,63.208018 2610.5857,67.858336 2613.2168,73.79361 L 2627.7185,73.79361 C 2622.4563,64.554163 2619.8251,59.291962 2619.8251,59.291962 C 2618.5402,57.333933 2617.194,55.375905 2615.8479,54.641644 C 2615.236,53.356688 2613.8899,52.744804 2611.9318,52.010543 C 2616.521,50.725587 2619.8251,49.379443 2621.7832,46.748342 C 2624.4143,44.117241 2625.0874,41.48614 2625.0874,38.181967 C 2625.0874,34.204722 2623.7412,30.288665 2621.1101,28.330637 C 2618.5402,25.699536 2613.8899,24.41458 2607.2815,24.41458 L 2605.9966,24.41458 L 2605.9966,32.980954 C 2607.9546,33.654027 2609.2396,33.654027 2610.5857,34.938983 C 2611.9318,35.612055 2612.5437,37.570083 2612.5437,38.85504 C 2612.5437,40.813068 2611.9318,42.220401 2610.5857,43.444169 C 2609.2396,44.117241 2607.9546,44.790313 2605.9966,44.790313 L 2605.9966,59.965034 L 2605.9966,59.965034 z M 2605.9966,94.842416 L 2605.9966,94.842416 C 2598.0421,94.842416 2590.1488,92.884387 2582.9286,88.907142 C 2576.3202,84.991085 2570.3849,79.055811 2566.4689,71.774393 C 2562.4916,65.288424 2559.8605,57.333933 2559.8605,48.70637 C 2559.8605,40.813068 2562.4916,32.919766 2566.4689,25.699536 C 2570.3849,19.152378 2576.3202,13.155916 2582.9286,9.178671 C 2590.1488,4.5895418 2598.0421,2.6315134 2605.9966,2.6315134 L 2605.9966,11.809772 C 2596.0841,11.809772 2587.5177,15.113945 2579.6244,22.395363 C 2572.4041,29.615593 2569.1,38.85504 2569.1,48.70637 C 2569.1,59.291962 2572.4041,67.858336 2579.6244,75.078566 C 2587.5177,82.359984 2596.0841,86.33723 2605.9966,86.33723 L 2605.9966,94.842416 z M 2605.9966,24.353391 L 2585.5597,24.353391 L 2585.5597,73.79361 L 2597.4302,73.79361 L 2597.4302,53.968572 L 2599.3882,53.968572 C 2600.7344,53.968572 2602.6924,55.314716 2604.0385,56.660861 C 2604.6504,57.333933 2605.3235,58.618889 2605.9966,60.026222 L 2605.9966,44.851502 C 2605.3235,45.524574 2604.0385,45.524574 2602.6924,45.524574 L 2597.4302,45.524574 L 2597.4302,32.980954 L 2603.3655,32.980954 L 2605.9966,32.980954 L 2605.9966,24.353391 z "
   clip-rule="evenodd"
   clip-path="url(#SVGID_19276_)" />
</svg>