<?xml version="1.0" encoding="UTF-8" standalone="no"?>
<!-- Generator: Adobe Illustrator 14.0.0, SVG Export Plug-In . SVG Version: 6.00 Build 43363)  -->
<svg
   xmlns:dc="http://purl.org/dc/elements/1.1/"
   xmlns:cc="http://web.resource.org/cc/"
   xmlns:rdf="http://www.w3.org/1999/02/22-rdf-syntax-ns#"
   xmlns:svg="http://www.w3.org/2000/svg"
   xmlns="http://www.w3.org/2000/svg"
   xmlns:xlink="http://www.w3.org/1999/xlink"
   xmlns:sodipodi="http://sodipodi.sourceforge.net/DTD/sodipodi-0.dtd"
   xmlns:inkscape="http://www.inkscape.org/namespaces/inkscape"
   version="1.0"
   id="Layer_1"
   x="0px"
   y="0px"
   width="788"
   height="295"
   viewBox="0 0 1133.86 754.016"
   enable-background="new 0 0 1133.86 754.016"
   xml:space="preserve"
   sodipodi:version="0.32"
   inkscape:version="0.45.1">
<path
   d=""
   clip-path="url(#SVGID_8_)"
   id="path35"
   style="fill:#ffffff"
   transform="translate(-582.37207,-418.77937)" /><path
   clip-path="url(#SVGID_102_)"
   clip-rule="evenodd"
   d="M 589.034,677.347 L 595.992,677.348 C 596.62,677.348 596.859,677.509 597.205,677.975 L 598.761,680.074 C 598.76,680.073 596.018,677.908 589.034,677.347"
   id="path17697"
   style="fill:#00385f;fill-rule:evenodd"
   transform="matrix(17.796328,0,0,17.796328,-10804.212,-11948.611)" /><path
   clip-path="url(#SVGID_102_)"
   clip-rule="evenodd"
   d="M 623.534,693.777 L 614.167,693.777 C 610.264,693.777 608.284,693.009 606.379,690.514 L 599.698,681.535 L 604.081,681.535 C 608.279,681.535 610.629,683.598 610.629,683.598 L 607.198,678.718 C 605.462,676.349 603.573,675.32 600.206,675.32 L 588.598,675.32 C 586.087,675.32 585.028,674.994 583.643,673.129 L 582.372,671.409 L 599.747,671.409 C 605.89,671.409 608.439,673.325 611.766,677.834 L 623.534,693.777"
   id="path17699"
   style="fill:#009cde;fill-rule:evenodd"
   transform="matrix(17.796328,0,0,17.796328,-10804.212,-11948.611)" /><path
   clip-path="url(#SVGID_102_)"
   clip-rule="evenodd"
   d="M 604.154,709.675 C 604.154,709.675 604.149,703.391 604.164,702.433 C 604.181,701.494 604.247,700.165 604.247,700.165 C 604.247,700.165 603.837,700.882 603.315,701.673 C 602.792,702.461 599.286,707.551 599.286,707.551 C 599.286,707.551 595.451,702.073 595.102,701.574 C 594.753,701.075 594.174,700.056 594.174,700.056 C 594.174,700.056 594.227,701.154 594.26,701.93 C 594.299,702.824 594.297,709.674 594.297,709.674 L 591.584,709.674 L 591.584,696.877 L 594.616,696.873 L 599.308,703.51 L 603.929,696.873 L 606.866,696.873 L 606.866,709.674 L 604.154,709.674"
   id="path17701"
   style="fill:#00385f;fill-rule:evenodd"
   transform="matrix(17.796328,0,0,17.796328,-10804.212,-11948.611)" /><polygon
   clip-path="url(#SVGID_102_)"
   clip-rule="evenodd"
   points="636.612,707.131 636.612,696.873 639.341,696.873 639.341,710.802 636.612,707.131 "
   id="polygon17703"
   style="fill:#00385f;fill-rule:evenodd"
   transform="matrix(17.796328,0,0,17.796328,-10804.212,-11948.611)" /><path
   clip-path="url(#SVGID_102_)"
   clip-rule="evenodd"
   d="M 641.372,703.227 C 641.347,699.001 643.842,696.561 648.465,696.561 C 651.531,696.561 653.458,697.565 653.477,697.572 L 653.559,697.615 L 652.602,700.125 L 652.488,700.059 C 652.47,700.05 650.793,698.997 648.54,698.997 C 645.582,698.997 644.143,700.379 644.143,703.216 C 644.143,706.257 645.632,707.485 648.818,707.432 C 651.39,707.389 653.453,706.346 653.453,706.346 L 653.453,708.913 C 653.453,708.913 651.651,710.026 648.69,710.026 C 643.458,710.025 641.394,707.603 641.372,703.227"
   id="path17705"
   style="fill:#00385f;fill-rule:evenodd"
   transform="matrix(17.796328,0,0,17.796328,-10804.212,-11948.611)" /><path
   clip-path="url(#SVGID_102_)"
   clip-rule="evenodd"
   d="M 679.188,709.678 L 673.255,702.129 L 671.649,699.941 C 671.649,699.941 671.753,700.89 671.765,702.534 C 671.776,704.176 671.838,709.68 671.838,709.68 L 669.121,709.68 L 669.121,696.872 L 672.153,696.872 L 677.579,703.734 L 679.28,706.05 C 679.28,706.05 679.262,704.66 679.217,703.809 C 679.148,702.39 679.127,696.872 679.127,696.872 L 681.843,696.872 L 681.843,709.676 L 679.188,709.676"
   id="path17707"
   style="fill:#00385f;fill-rule:evenodd"
   transform="matrix(17.796328,0,0,17.796328,-10804.212,-11948.611)" /><path
   clip-path="url(#SVGID_102_)"
   clip-rule="evenodd"
   d="M 659.576,709.991 C 656.155,709.991 654.932,707.834 654.932,705.811 C 654.932,703.608 656.16,702.232 656.211,702.182 L 663.882,702.176 L 663.882,701.814 C 663.844,699.309 662.927,698.905 660.378,698.993 C 659.892,699.009 658.132,699.201 656.681,699.75 C 656.574,699.462 655.773,697.361 655.773,697.361 L 655.85,697.337 C 657.491,696.824 659.212,696.557 660.823,696.557 C 662.976,696.557 664.68,697.051 665.378,697.886 C 666.208,698.733 666.597,700.069 666.597,702.086 L 666.596,709.681 L 663.896,709.681 L 663.896,707.579 C 663.449,708.625 661.976,709.991 659.576,709.991 M 657.869,704.325 C 657.792,704.441 657.558,704.96 657.558,705.674 C 657.558,706.642 657.986,707.793 660.011,707.793 C 662.286,707.793 663.882,706.451 663.882,704.325 L 657.869,704.325 L 657.869,704.325 z "
   id="path17709"
   style="fill:#00385f;fill-rule:evenodd"
   transform="matrix(17.796328,0,0,17.796328,-10804.212,-11948.611)" /><path
   clip-path="url(#SVGID_102_)"
   clip-rule="evenodd"
   d="M 688.53,709.991 C 685.107,709.991 683.886,707.834 683.886,705.811 C 683.886,703.608 685.111,702.232 685.162,702.182 L 692.832,702.176 L 692.832,701.814 C 692.794,699.309 691.881,698.905 689.326,698.993 C 688.843,699.009 687.086,699.201 685.632,699.75 C 685.527,699.462 684.726,697.361 684.726,697.361 L 684.802,697.337 C 686.442,696.824 688.16,696.557 689.774,696.557 C 691.928,696.557 693.63,697.051 694.329,697.886 C 695.159,698.733 695.55,700.069 695.548,702.086 L 695.545,709.681 L 692.848,709.681 L 692.848,707.579 C 692.401,708.625 690.928,709.991 688.53,709.991 M 686.822,704.325 C 686.742,704.441 686.51,704.96 686.51,705.674 C 686.51,706.642 686.937,707.793 688.963,707.793 C 691.237,707.793 692.829,706.451 692.829,704.325 L 686.822,704.325 L 686.822,704.325 z "
   id="path17711"
   style="fill:#00385f;fill-rule:evenodd"
   transform="matrix(17.796328,0,0,17.796328,-10804.212,-11948.611)" /><path
   clip-path="url(#SVGID_102_)"
   clip-rule="evenodd"
   d="M 636.938,713.777 C 635.82,713.777 634.661,713.312 633.755,712.108 L 628.319,704.821 L 627.275,705.925 C 624.893,708.623 621.587,709.99 617.45,709.99 C 611.616,709.99 609.101,707.848 609.014,703.018 C 608.934,698.732 611.301,696.559 615.817,696.559 C 619.234,696.559 621.114,698.25 621.114,701.323 C 621.114,702.887 620.863,704.317 620.863,704.317 L 611.892,704.324 C 611.903,704.741 612.116,705.497 612.535,706.046 C 613.388,707.154 614.967,707.669 617.403,707.669 C 620.689,707.669 623.637,706.354 625.705,703.968 L 626.834,702.738 L 622.291,696.878 L 625.797,696.878 L 628.524,700.605 L 631.372,696.875 L 634.972,696.87 L 630.048,702.695 L 638.399,713.778 L 636.938,713.778 M 611.872,702.17 L 618.333,702.17 C 618.364,702.062 618.412,701.484 618.412,701.168 C 618.412,699.144 616.92,698.719 615.673,698.719 C 613.925,698.719 612.789,699.28 612.235,700.422 C 612.044,700.815 611.87,701.617 611.872,702.17"
   id="path17713"
   style="fill:#00385f;fill-rule:evenodd"
   transform="matrix(17.796328,0,0,17.796328,-10804.212,-11948.611)" />
</svg>