<?xml version="1.0" encoding="utf-8"?>
<!-- Generator: Adobe Illustrator 12.0.0, SVG Export Plug-In . SVG Version: 6.00 Build 51448)  -->
<!DOCTYPE svg PUBLIC "-//W3C//DTD SVG 1.1//EN" "http://www.w3.org/Graphics/SVG/1.1/DTD/svg11.dtd" [
	<!ENTITY ns_svg "http://www.w3.org/2000/svg">
	<!ENTITY ns_xlink "http://www.w3.org/1999/xlink">
]>
<svg  version="1.1" id="Ebene_1" xmlns="&ns_svg;" xmlns:xlink="&ns_xlink;" width="1037" height="227"
	 viewBox="-395.247 -231.151 1037 227" overflow="visible" enable-background="new -395.247 -231.151 1037 227"
	 xml:space="preserve">
<path d="M359.851-182.099h-7.393c-36.227,0-65.782,29.554-65.782,65.688c0,36.135,29.56,65.687,65.782,65.687h7.393
	c36.228,0,65.779-29.551,65.779-65.687C425.63-152.546,396.068-182.099,359.851-182.099z M358.578-73.434h-4.858
	c-23.607,0-42.981-19.373-42.981-42.979c0-23.604,19.38-42.979,42.981-42.979h4.858c23.704,0,42.979,19.375,42.979,42.979
	C401.568-92.807,382.282-73.434,358.578-73.434z M-100.781-73.434h-4.866c-23.696,0-42.979-19.373-42.979-42.979
	c0-23.604,19.287-42.979,42.979-42.979h4.866c15.046,0,28.381,7.84,36.132,19.734h26.58c-9.459-24.784-33.432-42.439-61.45-42.439
	h-7.393c-36.222,0-65.778,29.555-65.778,65.689c0,36.134,29.557,65.687,65.778,65.687h7.393c30.366,0,56.044-20.813,63.524-48.838
	h-25.318C-67.891-84.245-83.119-73.434-100.781-73.434z M503.211-182.099v21.354h33.331v110.021h26.49v-110.021h33.433v-21.354
	H503.211z M431.751-160.744v110.021h26.49v-55.059h38.923v-21.269h-38.923v-33.694h38.923v-21.354H431.56L431.751-160.744z
	 M15.184-182.015c-0.991-0.089-1.979-0.089-2.971-0.089h-42.262l0.091,131.375h26.583v-49.557h15.588
	c0.992,0,1.98,0.182,2.971,0.537c10.542,3.963,17.93,28.479,17.93,49.021h26.491c0-10.271-2.881-40.552-18.559-58.021
	C69.341-129.209,60.781-179.849,15.184-182.015z M15.184-121.728c-0.991,0.091-1.979,0.176-2.971,0.176H-3.375v-39.191h15.588
	c0.992,0,1.98,0.093,2.971,0.18C39.963-158.043,39.963-124.256,15.184-121.728z M-203.051-50.725h26.491v-131.374h-26.491V-50.725z
	 M-281.626-93.79l-36.85-88.31h-31.36v131.374h26.491v-79.564l33.158,79.561h17.208l33.159-79.562v79.562h26.491v-131.37h-31.444
	L-281.626-93.79z M232.526-147.592c0-9.729,6.216-13.153,12.884-13.153c6.672,0,12.972,3.424,12.972,13.153h21.364
	c-0.095-13.153-8.929-34.777-34.336-34.507c-25.413,0.269-34.241,21.262-34.241,34.507c0,40.011,52.54,35.509,52.54,60.291
	c0,8.824-9.549,15.225-18.289,15.225c-8.737,0-18.208-6.397-18.208-15.225h-21.355c0,22.885,13.336,36.576,39.563,36.576
	c26.313,0,39.552-13.691,39.552-36.576C284.962-127.051,232.526-124.163,232.526-147.592z M97.001-147.053h71.188
	c1.896,1.982,3.516,4.146,4.953,6.489h26.5c-1.808-4.6-3.963-8.923-6.677-12.886H72.229c-2.704,3.963-4.959,8.292-6.668,12.886
	h26.484C93.489-142.904,95.111-145.064,97.001-147.053z M129.982-161.558h5.131c7.85,0,15.322,2.072,21.721,5.674h34.52
	c-3.518-4.86-7.572-9.189-12.168-12.886H86.013c-4.599,3.693-8.65,8.023-12.166,12.886h34.515
	C114.759-159.484,122.229-161.558,129.982-161.558z M87.632-131.728h27.213c2.795-2.979,6.398-5.229,10.452-6.396H64.651
	c-1.443,4.146-2.427,8.469-2.971,12.883h24.147C86.281-127.497,86.824-129.568,87.632-131.728z M114.845-101.094H87.632
	c-0.808-2.166-1.351-4.236-1.798-6.486H61.685c0.544,4.404,1.527,8.738,2.971,12.883h60.646
	C121.243-95.878,117.64-98.128,114.845-101.094z M179.814-122.811c0.172,1.083,0.271,2.159,0.354,3.242h-23.967
	c0.094,0.99,0.178,2.073,0.178,3.15c0,1.086-0.089,2.16-0.178,3.15h23.967c-0.09,1.084-0.183,2.162-0.354,3.244h23.961
	c0.273-2.16,0.367-4.234,0.367-6.396c0-2.162-0.099-4.235-0.367-6.396L179.814-122.811L179.814-122.811z M136.386-184.08h-7.666
	c-14.689,0-28.381,4.773-39.554,12.886h86.86C164.855-179.306,151.155-184.08,136.386-184.08z M150.341-131.728h27.217
	c0.721,2.158,1.354,4.229,1.805,6.486h24.15c-0.548-4.414-1.63-8.736-2.977-12.883h-60.732
	C143.946-136.956,147.554-134.705,150.341-131.728z M85.021-113.26h23.964c-0.09-0.992-0.176-2.07-0.176-3.148
	c0-1.074,0.086-2.162,0.176-3.154H85.021c0.092-1.081,0.177-2.159,0.361-3.242H61.325c-0.185,2.161-0.271,4.233-0.271,6.396
	c0,2.156,0.093,4.229,0.271,6.398h24.057C85.197-111.094,85.112-112.178,85.021-113.26z M128.72-48.741h7.666
	c14.771,0,28.469-4.785,39.643-12.895H89.166C100.339-53.526,114.03-48.741,128.72-48.741z M135.112-71.268h-5.131
	c-7.752,0-15.229-2.082-21.625-5.68H73.842c3.515,4.771,7.572,9.189,12.165,12.883h93.172c4.596-3.691,8.643-8.107,12.168-12.883
	H156.83C150.435-73.35,142.959-71.268,135.112-71.268z M168.189-85.78H97.001c-1.89-1.975-3.512-4.145-4.956-6.488H65.56
	c1.709,4.605,3.965,8.918,6.668,12.889h120.737c2.714-3.961,4.869-8.279,6.677-12.889h-26.5
	C171.7-89.924,169.99-87.755,168.189-85.78z M177.558-101.094h-27.217c-2.792,2.967-6.488,5.217-10.537,6.399h60.732
	c1.347-4.147,2.429-8.479,2.977-12.89h-24.15C178.91-105.331,178.278-103.26,177.558-101.094z"/>
</svg>
