<?xml version="1.0" encoding="UTF-8" standalone="no"?>
<!-- Creator: CorelDRAW X6 -->

<svg
   xmlns:dc="http://purl.org/dc/elements/1.1/"
   xmlns:cc="http://creativecommons.org/ns#"
   xmlns:rdf="http://www.w3.org/1999/02/22-rdf-syntax-ns#"
   xmlns:svg="http://www.w3.org/2000/svg"
   xmlns="http://www.w3.org/2000/svg"
   xmlns:sodipodi="http://sodipodi.sourceforge.net/DTD/sodipodi-0.dtd"
   xmlns:inkscape="http://www.inkscape.org/namespaces/inkscape"
   xml:space="preserve"
   width="3152.8301"
   height="509.73999"
   version="1.1"
   style="fill-rule:evenodd"
   viewBox="0 0 3503144.5 566377.76"
   enable-background="new 0 0 612.756 177.756"
   id="svg3017"
   inkscape:version="0.48.4 r9939"
   sodipodi:docname="Microsos.svg"><metadata
   id="metadata3047"><rdf:RDF><cc:Work
       rdf:about=""><dc:format>image/svg+xml</dc:format><dc:type
         rdf:resource="http://purl.org/dc/dcmitype/StillImage" /></cc:Work></rdf:RDF></metadata><sodipodi:namedview
   pagecolor="#ffffff"
   bordercolor="#666666"
   borderopacity="1"
   objecttolerance="10"
   gridtolerance="10"
   guidetolerance="10"
   inkscape:pageopacity="0"
   inkscape:pageshadow="2"
   inkscape:window-width="1366"
   inkscape:window-height="706"
   id="namedview3045"
   showgrid="false"
   inkscape:zoom="0.0625"
   inkscape:cx="4385.0824"
   inkscape:cy="435.07387"
   inkscape:window-x="-8"
   inkscape:window-y="-8"
   inkscape:window-maximized="1"
   inkscape:current-layer="svg3017" />
 <defs
   id="defs3019">
  <style
   type="text/css"
   id="style3021">
   
    .fil1 {fill:black}
    .fil0 {fill:white;fill-opacity:0.000000}
   
  </style>
 
  
  
  
  
  
  
  
  
  
  
  
 </defs>
 <path
   style="fill:#000000"
   d="M 122050.92,1.5289588 0,551062.44 l 159821.87,0 73286.92,-296247.83 5637.46,296247.83 113876.6,0 147137.6,-296247.83 -65676.37,296247.83 158412.51,0 L 714829.35,1.5289588 l -218169.5,0 L 349804.12,307806.87 339938.57,1.5289588 l -217887.65,0 z m 631113.19,0 L 733714.83,89919.04 l 147137.6,0 20012.98,-89917.5110412 -147701.3,0 z M 3087916.4,2820.0698 c -34501.3,985.52 -74704.9,6399.37 -96964.2,24522.6702 -32479.9,27292.5 -43868.5,63037.39 -56938.4,115568.55 l -73005,0 -20858.6,94145.33 74978.2,0 -68213.3,314005.82 145728.3,0 68495.1,-314005.82 81179.3,563.39 -45663.4,205766.95 c -12047,54106.08 7533.5,79255.38 25368.6,91326.78 39786,27828.3 158130.6,14376 158130.6,14376 l 22549.8,-93581.9 c 0,0 -58245.7,6692.4 -63985.1,-9584.02 -3669.3,-11040.4 -149.3,-19901.13 1409.4,-29878.07 l 38334.6,-178989.13 69622.6,0 20576.7,-94145.33 -69904.4,0 21140.5,-98655.65 -135299,0 -21422.3,98655.65 -86253.1,0 2536.8,-13530.16 c 6794.8,-31002.39 14687.7,-46790.97 55529,-46790.97 l 16348.6,-77233.2302 c 0,0 -28920.1,-3522.37 -63421.3,-2536.86 z M 2198044,125716.69 c -95909.1,2557.15 -180038,36097.21 -192801,121769.04 -16260.2,111329.38 128005.4,135518.4 165177.5,142345.58 81163.1,14198.27 57400.1,82871.13 -2818.7,82871.13 -86918.8,-511.4 -63421.4,-61730.4 -63421.4,-61730.4 l -276235.4,281.69 136144.6,-45099.19 c 5219.8,-1574.88 6671.6,-4162.88 9301.8,-22550.01 16739.2,-103990.76 -36275,-209651.38 -175043,-216478.57 -98821.4,-4929.21 -175020.5,38135.63 -222961.4,98937.35 l 23113.6,-89917.51 c -25141.3,0 -46813.5,3622.23 -69340.8,10993.31 -27755.2,9441.16 -49609.1,23642.68 -67931.3,46226.78 l 11556.8,-50454.6 -132480.2,0 -91608.7,408715.35 139808.9,0 32979.1,-145446.62 c 25312.9,-124415.49 94828.8,-137673.7 126842.8,-137836.06 -65926.4,125587.72 -28234.4,289967.78 152211.3,295685.28 118895.3,4213.2 207924.7,-62447.2 243538.1,-137554.38 -5244.2,43065.68 8496.4,135611.78 204357.7,139808.68 213688.5,4205.1 230737.5,-133510.78 229162.6,-162922.06 -5211.7,-105565.65 -98973.4,-109555.61 -180680.4,-127406.96 -67037.9,-14173.91 -52760.7,-66803.31 5355.6,-66803.31 63904.4,0 48763.9,52428.07 48763.9,52428.07 l 141218.4,0 c -2630.3,-8410.18 37319.9,-133232.38 -174761.2,-135862.59 -6481.2,-98.23 -13055.3,-170.48 -19449.2,0 z m 461989.5,563.38 c -294377.2,-692.46 -376747.5,425910.77 -83434.4,438312.57 303229.3,12079.5 385041,-423839.91 97528,-438030.06 -4778.9,-229.74 -9420.9,-271.14 -14093.6,-282.51 z m -1554810.3,5356.22 c -299318.56,-1661.74 -364010.56,425865.35 -93863.7,431547.05 204758.7,4205.1 251430.5,-159756.92 251430.5,-162922.92 l -154184.3,0 c -4180.8,6827.19 -25510.2,60486.72 -71595.8,58911.92 -100029.17,-2094.5 -35630.9,-227385.88 54965.3,-230007.98 48715.7,-1055.33 43537.8,59887.64 41435.2,65675.73 l 152775.1,0 c 1566.8,-6315.75 10424.8,-153984.26 -166586.8,-162922.11 -4868.9,-245.97 -9624.4,-255.71 -14375.5,-281.69 z m 2344899.7,10710.8 c -70699.1,0 -70691,105702.03 0,105702.03 70691,0 70691,-105702.03 0,-105702.03 z m -2728810.41,564.2 -90763.07,408151.15 148265.09,564.2 90481.14,-408715.35 -147983.16,0 z m 2728810.41,9019.84 c 59675,0 59675,86253.07 0,86253.07 -59179.7,0 -59179.7,-86253.07 0,-86253.07 z m -13529.9,15784.51 -8738.1,56092.51 10993.1,0 3100.6,-22549.19 7328.7,0 8174.3,21139.92 12684.2,0 -10429.2,-21139.92 c 1055.3,0 14193.8,-64.13 15784.9,-16348.71 1022.8,-13638.14 -13248.1,-17194.61 -13248.1,-17194.61 l -25650.4,0 z m 9865.6,7328.88 10711.1,0 c 0,0 8738.1,-163.99 8738.1,9301.53 -1047.2,10504.61 -11556.8,9019.84 -11556.8,9019.84 l -10429.3,0 2536.9,-18321.37 z m -1668123.2,46226.77 c 3008.2,120.15 5959.2,520.36 9019.9,1127.59 95840.4,19426.22 26183.6,259445.96 -77515,237900.96 -90800.6,-19330.4 -24760.6,-242746.56 68495.1,-239028.55 z m 876624.4,282.51 c 3039.3,133.13 6209.1,503.31 9301.8,1126.77 96368,19426.22 26111.3,260230.97 -78642.5,238182.67 -91319.7,-18827.1 -24875.9,-243454.46 69340.7,-239309.44 z"
   id="polygon3027"
   inkscape:connector-curvature="0" />
</svg>