<?xml version="1.0" encoding="UTF-8" standalone="no"?>
<svg
   xmlns:dc="http://purl.org/dc/elements/1.1/"
   xmlns:cc="http://creativecommons.org/ns#"
   xmlns:rdf="http://www.w3.org/1999/02/22-rdf-syntax-ns#"
   xmlns:svg="http://www.w3.org/2000/svg"
   xmlns="http://www.w3.org/2000/svg"
   xmlns:xlink="http://www.w3.org/1999/xlink"
   xmlns:sodipodi="http://sodipodi.sourceforge.net/DTD/sodipodi-0.dtd"
   xmlns:inkscape="http://www.inkscape.org/namespaces/inkscape"
   version="1.1"
   id="Layer_1"
   x="0px"
   y="0px"
   width="439"
   height="397"
   viewBox="0 0 439 397"
   enable-background="new 0 0 660 860"
   xml:space="preserve">
<path
   style="fill:#008ace"
   id="path253"
   d="m 364.446,689.009 0,0 c -4.443,-12.917 -18.266,-22.333 -34.633,-22.333 -16.312,0 -30.098,9.352 -34.593,22.196 -0.016,0.037 -0.027,0.072 -0.037,0.109 -0.003,0.009 -0.008,0.02 -0.011,0.027 h 0.003 c -0.017,0.063 -0.024,0.129 -0.024,0.197 0,0.452 0.366,0.819 0.82,0.819 h 67.673 c 0.454,0 0.823,-0.367 0.823,-0.819 0.001,-0.067 -0.004,-0.134 -0.021,-0.196"
   clip-path="url(#SVGID_18_)"
   transform="matrix(4.4269652,0,0,4.4269652,-1247.8287,-2951.3484)" /><path
   style="fill:#008ace"
   id="path255"
   d="m 329.805,693.202 0,0 c 8.228,0 34.319,0.667 34.983,0.65 0.665,-0.015 0.665,-0.726 0.649,-1.178 -0.011,-0.261 -0.181,-0.962 -0.248,-1.128 -0.065,-0.163 -0.247,-0.897 -0.864,-0.867 -0.619,0.032 -34.52,1.765 -34.52,1.765 h 0.013 c 0,0 -33.9,-1.732 -34.519,-1.765 -0.618,-0.03 -0.801,0.704 -0.868,0.867 -0.065,0.166 -0.238,0.867 -0.246,1.128 -0.015,0.452 -0.015,1.163 0.65,1.178 0.664,0.017 26.755,-0.65 34.983,-0.65 h -0.013"
   clip-path="url(#SVGID_18_)"
   transform="matrix(4.4269652,0,0,4.4269652,-1247.8287,-2951.3484)" /><path
   style="fill:#008ace"
   id="path257"
   d="m 329.81,696.675 c 11.771,0 34.662,0.99 35.333,0.913 0.413,-0.047 0.747,-0.147 0.785,-0.705 0.031,-0.479 0.019,-0.9 -0.108,-1.575 -0.121,-0.646 -0.521,-0.781 -1.305,-0.781 -0.784,0 -22.189,1.358 -34.706,1.358 -12.511,0 -33.918,-1.358 -34.703,-1.358 -0.782,0 -1.184,0.135 -1.307,0.781 -0.125,0.675 -0.137,1.096 -0.104,1.575 0.035,0.558 0.37,0.658 0.782,0.705 0.674,0.077 23.563,-0.913 35.333,-0.913"
   clip-path="url(#SVGID_18_)"
   transform="matrix(4.4269652,0,0,4.4269652,-1247.8287,-2951.3484)" /><path
   style="fill:#008ace"
   id="path259"
   d="m 364.446,706.799 0,0 c -4.443,12.917 -18.266,22.338 -34.633,22.338 -16.312,0 -30.098,-9.354 -34.593,-22.202 -0.016,-0.033 -0.027,-0.068 -0.037,-0.105 -0.003,-0.012 -0.008,-0.022 -0.011,-0.03 h 0.003 c -0.017,-0.063 -0.024,-0.126 -0.024,-0.193 0,-0.452 0.366,-0.82 0.82,-0.82 h 67.673 c 0.454,0 0.823,0.368 0.823,0.82 0.001,0.066 -0.004,0.129 -0.021,0.192"
   clip-path="url(#SVGID_18_)"
   transform="matrix(4.4269652,0,0,4.4269652,-1247.8287,-2951.3484)" /><path
   style="fill:#008ace"
   id="path261"
   d="m 329.805,702.606 0,0 c 8.228,0 34.319,-0.665 34.983,-0.648 0.665,0.014 0.665,0.726 0.649,1.175 -0.011,0.265 -0.181,0.962 -0.248,1.127 -0.065,0.166 -0.247,0.898 -0.864,0.868 -0.619,-0.032 -34.52,-1.762 -34.52,-1.762 h 0.013 c 0,0 -33.9,1.729 -34.519,1.762 -0.618,0.03 -0.801,-0.702 -0.868,-0.868 -0.065,-0.165 -0.238,-0.862 -0.246,-1.127 -0.015,-0.449 -0.015,-1.161 0.65,-1.175 0.664,-0.017 26.755,0.648 34.983,0.648 h -0.013"
   clip-path="url(#SVGID_18_)"
   transform="matrix(4.4269652,0,0,4.4269652,-1247.8287,-2951.3484)" /><path
   style="fill:#008ace"
   id="path263"
   d="m 329.81,699.134 c 11.771,0 34.662,-0.989 35.333,-0.912 0.413,0.048 0.747,0.148 0.785,0.703 0.031,0.48 0.019,0.904 -0.108,1.577 -0.121,0.646 -0.521,0.779 -1.305,0.779 -0.784,0 -22.189,-1.359 -34.706,-1.359 -12.511,0 -33.918,1.359 -34.703,1.359 -0.782,0 -1.184,-0.134 -1.307,-0.779 -0.125,-0.673 -0.137,-1.097 -0.104,-1.577 0.035,-0.555 0.37,-0.655 0.782,-0.703 0.674,-0.077 23.563,0.912 35.333,0.912"
   clip-path="url(#SVGID_18_)"
   transform="matrix(4.4269652,0,0,4.4269652,-1247.8287,-2951.3484)" /><path
   id="path265"
   d="m 344.3,746.295 c 0,-4.622 -3.813,-8.37 -8.516,-8.37 -4.704,0 -8.517,3.748 -8.517,8.37 0,4.626 3.813,8.373 8.517,8.373 4.703,0 8.516,-3.747 8.516,-8.373 m 1.925,-0.062 c 0,5.589 -4.674,10.12 -10.44,10.12 -5.767,0 -10.443,-4.531 -10.443,-10.12 0,-5.591 4.676,-10.121 10.443,-10.121 5.766,0 10.44,4.531 10.44,10.121 z"
   clip-path="url(#SVGID_18_)"
   transform="matrix(4.4269652,0,0,4.4269652,-1247.8287,-2951.3484)" /><path
   id="path267"
   d="m 292.597,755.599 c -0.032,-0.105 0.005,-0.239 0.005,-0.239 0.719,-1.982 5.275,-13.432 6.911,-17.179 0,0 -0.003,11.527 -0.23,17.179 0,0 -0.012,0.158 -0.056,0.239 h 2.121 c -0.054,-0.077 -0.045,-0.239 -0.045,-0.239 -0.149,-8.018 -0.027,-14.516 0.057,-18.415 0,0 0,-0.106 0.055,-0.253 h -3.253 c 0.033,0.156 -0.013,0.24 -0.013,0.24 -0.966,2.428 -5.221,12.924 -6.507,15.996 -1.286,-3.072 -5.54,-13.568 -6.508,-15.996 0,0 -0.042,-0.108 10e-4,-0.24 h -3.265 c 0.054,0.146 0.053,0.253 0.053,0.253 0.084,3.899 0.205,10.397 0.056,18.415 0,0 0.011,0.162 -0.044,0.239 h 2.122 c -0.044,-0.081 -0.055,-0.239 -0.055,-0.239 -0.229,-5.651 -0.231,-17.179 -0.231,-17.179 1.633,3.747 6.189,15.196 6.908,17.179 0,0 0.037,0.14 0.008,0.239 h 1.91"
   clip-path="url(#SVGID_18_)"
   transform="matrix(4.4269652,0,0,4.4269652,-1247.8287,-2951.3484)" /><path
   id="path269"
   d="m 303.925,755.599 c 0.045,-0.052 0.045,-0.239 0.045,-0.239 0.148,-8.018 0.025,-14.516 -0.059,-18.415 0,0 -0.003,-0.156 -0.053,-0.253 h 2.172 c -0.053,0.067 -0.055,0.253 -0.055,0.253 -0.084,3.899 -0.205,10.397 -0.057,18.415 0,0 -0.002,0.165 0.043,0.239 h -2.036"
   clip-path="url(#SVGID_18_)"
   transform="matrix(4.4269652,0,0,4.4269652,-1247.8287,-2951.3484)" /><path
   id="path271"
   d="m 367.234,736.698 h -14.157 v 1.711 c 0.078,-0.04 0.251,-0.053 0.251,-0.053 2.481,-0.054 4.12,-0.057 5.881,-0.071 0.077,3.993 0.16,9.936 0.029,17.074 0,0 0,0.188 -0.045,0.239 h 2.035 c -0.038,-0.064 -0.044,-0.239 -0.044,-0.239 -0.13,-7.144 -0.05,-13.093 0.03,-17.084 1.721,-0.003 3.443,-0.019 5.78,0.024 0,0 0.188,0.016 0.239,0.044 v -1.645"
   clip-path="url(#SVGID_18_)"
   transform="matrix(4.4269652,0,0,4.4269652,-1247.8287,-2951.3484)" /><path
   id="path273"
   d="m 357.884,753.822 h -8.23 c -0.104,-7.293 0.007,-13.243 0.084,-16.878 0,0 0.005,-0.186 0.055,-0.253 h -2.171 c 0.055,0.088 0.055,0.253 0.055,0.253 0.084,3.899 0.206,10.397 0.058,18.415 0,0 -0.008,0.182 -0.046,0.242 h 10.196 c 0,0 0.241,0.055 0.24,0.051 v -1.846 c 0,-0.001 -0.241,0.016 -0.241,0.016"
   clip-path="url(#SVGID_18_)"
   transform="matrix(4.4269652,0,0,4.4269652,-1247.8287,-2951.3484)" /><path
   id="path275"
   d="m 323.916,736.691 h -2.171 c 0.058,0.129 0.055,0.253 0.055,0.253 0.078,3.608 0.188,9.494 0.085,16.72 -1.254,-2.011 -8.356,-13.402 -10.138,-16.732 0,0 -0.024,-0.091 -0.026,-0.24 h -3.256 c 0.048,0.077 0.055,0.25 0.055,0.25 0.084,3.902 0.206,10.473 0.059,18.486 l -0.047,0.171 h 2.121 l -0.054,-0.171 c -0.229,-5.65 -0.231,-17.247 -0.231,-17.247 1.973,3.576 9.024,14.679 10.344,17.172 0,0 0.05,0.154 0.028,0.246 h 3.11 c -0.064,-0.086 -0.044,-0.239 -0.044,-0.239 -0.149,-8.018 -0.027,-14.516 0.057,-18.415 0,-0.001 -0.007,-0.166 0.053,-0.254"
   clip-path="url(#SVGID_18_)"
   transform="matrix(4.4269652,0,0,4.4269652,-1247.8287,-2951.3484)" /><path
   id="path277"
   d="m 374.374,744.309 -2.575,-6.217 -2.53,6.217 h 5.105 m 4.384,11.29 c 0.041,-0.133 -0.018,-0.246 -0.018,-0.246 l -3.77,-9.481 h -6.343 l -3.771,9.481 c 0,0 -0.057,0.113 -0.018,0.246 h -2.278 c 0,0 4.466,-9.757 7.833,-18.667 0,0 0.039,-0.031 0,-0.24 h 2.811 c -0.037,0.209 0,0.24 0,0.24 3.369,8.91 7.831,18.667 7.831,18.667 h -2.277 z"
   clip-path="url(#SVGID_18_)"
   transform="matrix(4.4269652,0,0,4.4269652,-1247.8287,-2951.3484)" />
</svg>