<?xml version="1.0" encoding="utf-8"?>
<!-- Generator: Adobe Illustrator 13.0.1, SVG Export Plug-In  -->
<!DOCTYPE svg PUBLIC "-//W3C//DTD SVG 1.1//EN" "http://www.w3.org/Graphics/SVG/1.1/DTD/svg11.dtd" [
	<!ENTITY ns_flows "http://ns.adobe.com/Flows/1.0/">
]>
<svg version="1.1"
	 xmlns="http://www.w3.org/2000/svg" xmlns:xlink="http://www.w3.org/1999/xlink" xmlns:a="http://ns.adobe.com/AdobeSVGViewerExtensions/3.0/"
	 x="0px" y="0px" width="86px" height="24px" viewBox="-0.719 -0.392 86 24" enable-background="new -0.719 -0.392 86 24"
	 xml:space="preserve">
<defs>
</defs>
<path fill-rule="evenodd" clip-rule="evenodd" fill="#FFFFFF" d="M75.047,1.079L74.11,1.132c-0.001,0-0.857,0.046-0.857,0.046
	c-0.002,0-1.146,0.034-1.146,0.034s-0.371-0.006-0.63-0.01c0,0.472,0.011,20.448,0.011,20.912c0.399,0,3.284,0,3.685,0
	c0-0.445,0-6.334,0-6.334c0-0.064,0.026-0.126,0.072-0.171c0.045-0.045,0.108-0.07,0.173-0.069l0.518,0.005
	c2.629,0,4.732-0.58,6.25-1.723c1.734-1.307,2.613-3.277,2.613-5.858c0-2.031-0.631-3.656-1.875-4.831
	C81.262,1.564,78.611,0.873,75.047,1.079 M75.398,12.507c-0.13-0.003-0.226-0.109-0.226-0.239V4.358c0-0.128,0.092-0.233,0.22-0.239
	l1.114-0.05c3.055,0,4.417,1.211,4.417,3.927c0,3.261-1.292,4.531-4.607,4.531L75.398,12.507z"/>
<path fill-rule="evenodd" clip-rule="evenodd" fill="#FFFFFF" d="M56.925,1.211c0,0.464,0,20.439,0,20.903
	c0.451,0,10.912,0,11.363,0c0-0.391,0-2.849,0-3.24c-0.451,0-7.471,0-7.471,0c-0.132,0-0.24-0.107-0.24-0.239c0,0,0-16.957,0-17.424
	C60.178,1.211,57.324,1.211,56.925,1.211"/>
<path fill-rule="evenodd" clip-rule="evenodd" fill="#FFFFFF" d="M48.096,1.211C47.978,1.506,42.29,15.68,42.29,15.68
	c-0.036,0.091-0.124,0.15-0.222,0.15s-0.186-0.059-0.223-0.149c0,0-5.802-14.178-5.921-14.47c-0.279,0-3.298,0-3.698,0
	c-0.009,0.455-0.394,20.431-0.402,20.903c0.406,0,3.264,0,3.661,0c0.002-0.458,0.047-11.085,0.047-11.086
	c0-0.25-0.115-0.995-0.224-1.538c-0.003-0.016-0.005-0.031-0.005-0.047c0-0.048,0.014-0.094,0.04-0.134
	c0.036-0.053,0.091-0.09,0.153-0.103l0.043-0.008c0.13-0.025,0.256,0.059,0.282,0.188c0.104,0.525,0.32,1.362,0.382,1.512
	c0,0,4.07,9.903,4.609,11.215c0.264,0,2.017,0,2.282,0c0.118-0.293,4.635-11.514,4.635-11.514c0.085-0.212,0.264-0.975,0.365-1.515
	c0.012-0.063,0.049-0.118,0.102-0.154c0.054-0.036,0.119-0.049,0.182-0.036l0.044,0.009c0.113,0.023,0.192,0.123,0.192,0.235
	c0,0.015-0.002,0.029-0.005,0.045c-0.1,0.528-0.209,1.29-0.209,1.536c0,0.003,0.102,9.81,0.118,11.394c0.396,0,3.252,0,3.66,0
	c-0.011-0.475-0.491-20.451-0.502-20.903C51.281,1.211,48.376,1.211,48.096,1.211"/>
<path fill-rule="evenodd" clip-rule="evenodd" fill="#003259" d="M75.033,0.84c0.004-0.001-0.937,0.052-0.937,0.052L73.24,0.938
	c-0.862,0.039-1.028,0.035-1.127,0.033l-0.876-0.013l0.011,21.396h4.164c0,0,0-5.295,0-6.574c0.176,0.003,0.351,0.005,0.523,0.005
	c2.683,0,4.834-0.597,6.394-1.771c1.798-1.354,2.71-3.39,2.71-6.05c0-2.1-0.656-3.783-1.95-5.005
	C81.377,1.343,78.666,0.63,75.033,0.84 M76.507,4.309c2.928,0,4.177,1.104,4.177,3.688c0,3.128-1.184,4.291-4.367,4.291
	c-0.294,0-0.596-0.002-0.904-0.02c0-1.105,0-6.807,0-7.909C75.732,4.333,76.126,4.309,76.507,4.309z"/>
<path fill-rule="evenodd" clip-rule="evenodd" fill="#003259" d="M56.685,0.971v21.384h11.843v-3.72c0,0-6.45,0-7.71,0
	c0-1.425,0-17.664,0-17.664"/>
<path fill-rule="evenodd" clip-rule="evenodd" fill="#003259" d="M47.933,0.971c0,0-4.735,11.804-5.865,14.619
	c-1.149-2.81-5.981-14.619-5.981-14.619h-4.095l-0.412,21.384h4.146c0,0,0.029-6.98,0.048-11.321
	c0.001-0.284-0.126-1.077-0.229-1.59l0.043-0.009c0.103,0.516,0.322,1.381,0.395,1.557c1.747,4.249,4.671,11.363,4.671,11.363h2.605
	c0,0,2.955-7.341,4.695-11.664c0.097-0.241,0.281-1.043,0.379-1.56l0.043,0.009c-0.098,0.517-0.217,1.326-0.213,1.593
	c0.045,4.417,0.12,11.622,0.12,11.622h4.144L51.912,0.971"/>
<path fill="#FFFFFF" d="M7.66,7.527c-1.092,1.069-1.699,2.506-1.711,4.047c0,0,0,9.547,0,9.827c1.06,0.607,2.198,1.033,3.391,1.274
	c0-0.567,0-11.104,0-11.104c0.005-1.227,1.007-2.223,2.233-2.223c0.596,0,1.156,0.231,1.577,0.653
	c0.422,0.421,0.653,0.979,0.653,1.57c0,1.235-1.001,2.239-2.231,2.239c0,0-0.034-0.001-0.047-0.002c0,0.413,0,3.01,0,3.391
	c0.016,0,0.052,0.002,0.052,0.002c1.481,0.017,2.881-0.551,3.941-1.6c1.081-1.069,1.677-2.501,1.677-4.03
	c0-3.061-2.524-5.583-5.627-5.622C10.104,5.933,8.716,6.492,7.66,7.527"/>
<path fill="#FFFFFF" d="M3.594,3.519C1.431,5.67,0.239,8.53,0.239,11.573c0,3.103,1.286,6.047,3.523,8.182c0-0.987,0-8.183,0-8.183
	c0.011-2.094,0.826-4.056,2.298-5.526c1.471-1.472,3.429-2.282,5.513-2.282c2.082,0,4.04,0.81,5.512,2.28
	c1.47,1.469,2.288,3.432,2.305,5.526c0.016,2.05-0.83,4.075-2.322,5.557c-1.5,1.489-3.453,2.293-5.5,2.263c0,0-0.019,0-0.042-0.001
	c0,0.409,0,3.133,0,3.523c0.014,0,0.048,0.001,0.048,0.001c3.018,0.011,5.855-1.155,7.991-3.283
	c2.159-2.152,3.349-5.013,3.349-8.057c0-6.214-5.088-11.298-11.342-11.333C8.57,0.224,5.737,1.388,3.594,3.519"/>
<path fill="#A78B6B" d="M12.981,10.172c0.376,0.376,0.583,0.874,0.583,1.401c0,1.103-0.894,2-1.992,2
	c-0.1,0-0.194-0.006-0.286-0.015v3.874c0.096,0.005,0.191,0.009,0.288,0.01c1.546,0.019,3.007-0.574,4.112-1.668
	c1.128-1.115,1.749-2.606,1.749-4.201c0-3.191-2.631-5.821-5.864-5.862c-1.528-0.02-2.978,0.564-4.079,1.645
	C6.354,8.47,5.722,9.968,5.709,11.572v9.973c1.174,0.692,2.48,1.185,3.871,1.43V11.572c0.004-1.094,0.898-1.983,1.993-1.983
	C12.104,9.589,12.604,9.796,12.981,10.172"/>
<path fill="#A78B6B" d="M11.573,0C5.189-0.035,0,5.192,0,11.573c0,3.498,1.553,6.626,4.003,8.746v-8.747
	c0.01-2.028,0.801-3.932,2.227-5.357c1.427-1.426,3.324-2.211,5.344-2.211c2.019,0,3.916,0.784,5.342,2.21
	c1.426,1.424,2.219,3.327,2.234,5.358c0.016,1.986-0.805,3.948-2.251,5.384c-1.454,1.444-3.346,2.223-5.328,2.193
	c-0.095-0.001-0.19-0.005-0.284-0.01v4.009c0.095,0.003,0.19,0.004,0.287,0.005c6.471,0.022,11.58-5.255,11.58-11.58
	C23.153,5.19,17.982,0.036,11.573,0"/>
</svg>
