<?xml version="1.0" encoding="UTF-8" standalone="no"?>
<svg
   xmlns:dc="http://purl.org/dc/elements/1.1/"
   xmlns:cc="http://creativecommons.org/ns#"
   xmlns:rdf="http://www.w3.org/1999/02/22-rdf-syntax-ns#"
   xmlns:svg="http://www.w3.org/2000/svg"
   xmlns="http://www.w3.org/2000/svg"
   xmlns:xlink="http://www.w3.org/1999/xlink"
   xmlns:sodipodi="http://sodipodi.sourceforge.net/DTD/sodipodi-0.dtd"
   xmlns:inkscape="http://www.inkscape.org/namespaces/inkscape"
   version="1.1"
   id="Layer_1"
   x="0px"
   y="0px"
   width="854"
   height="268"
   viewBox="0 0 854 268"
   enable-background="new 0 0 612 792"
   xml:space="preserve">
<path
   d="m 382.67937,213.0724 c 25.23023,0 46.02225,-20.79202 46.02225,-46.0319 0,-25.23987 -20.78238,-46.02225 -46.02225,-46.02225 -25.24952,0 -46.0319,20.78238 -46.0319,46.02225 0,25.23988 20.78238,46.0319 46.0319,46.0319 m 0,-147.001044 c 55.67052,0 100.9595,45.288984 100.9595,100.969144 0,55.68017 -45.28898,100.9595 -100.9595,100.9595 -55.68982,0 -100.9788,-45.27933 -100.9788,-100.9595 0,-55.68016 45.28898,-100.969144 100.9788,-100.969144 z"
   id="path5"
   style="fill:#ed1b2f" /><path
   d="m 799.05047,1.7946e-6 h 54.9469 V 263.5618 h -54.9469 V 1.7946e-6 z m -81.22879,0 h 54.93725 V 52.708502 H 717.82168 V 1.7946e-6 z m 0,70.5288552054 h 54.93725 V 263.5618 H 717.82168 V 70.528857 z M 600.52766,118.77986 c -26.34942,0 -47.51773,21.90157 -47.51773,48.26064 0,26.35908 21.15866,48.26065 47.51773,48.26065 26.35908,0 47.51773,-21.90157 47.51773,-48.26065 0,-26.35907 -21.1683,-48.26064 -47.51773,-48.26064 z M 498.06303,263.5618 V 1.7946e-6 h 54.93725 V 81.672609 c 15.96789,-10.024553 33.7786,-15.601253 52.7085,-15.601253 55.31354,0 97.25457,46.398534 97.25457,100.969144 0,54.57062 -41.94103,100.9595 -97.25457,100.9595 -31.17356,0 -46.03189,-14.4724 -52.7085,-21.89192 V 263.5618 H 498.06303 z M 2.7661676e-5,1.7946001e-6 H 85.377571 L 133.62857,165.55467 h 0.75257 L 183.74169,1.7946001e-6 h 82.78215 V 263.5618 H 211.58659 V 73.500524 h -0.75256 L 157.75889,263.5618 H 107.64578 L 55.680195,73.500524 H 54.937278 V 263.5618 H 0.00967593 V 1.7946e-6 z"
   id="path7"
   style="fill:#0066b3" />
</svg>