<?xml version="1.0" encoding="UTF-8" standalone="no"?>
<!-- Created with Inkscape (http://www.inkscape.org/) -->

<svg
   xmlns:dc="http://purl.org/dc/elements/1.1/"
   xmlns:cc="http://creativecommons.org/ns#"
   xmlns:rdf="http://www.w3.org/1999/02/22-rdf-syntax-ns#"
   xmlns:svg="http://www.w3.org/2000/svg"
   xmlns="http://www.w3.org/2000/svg"
   xmlns:sodipodi="http://sodipodi.sourceforge.net/DTD/sodipodi-0.dtd"
   xmlns:inkscape="http://www.inkscape.org/namespaces/inkscape"
   width="1000"
   height="97.653061"
   id="svg2"
   version="1.1"
   inkscape:version="0.48.2 r9819"
   sodipodi:docname="New document 1">
  <defs
     id="defs4">
    <clipPath
       id="clipPath3137"
       clipPathUnits="userSpaceOnUse">
      <path
         id="path3139"
         d="m 630.449,877.063 -623.622,0 0,-870.236 623.622,0 0,870.236 z"
         inkscape:connector-curvature="0" />
    </clipPath>
  </defs>
  <sodipodi:namedview
     id="base"
     pagecolor="#ffffff"
     bordercolor="#666666"
     borderopacity="1.0"
     inkscape:pageopacity="0.0"
     inkscape:pageshadow="2"
     inkscape:zoom="0.98994949"
     inkscape:cx="557.8535"
     inkscape:cy="-174.93609"
     inkscape:document-units="px"
     inkscape:current-layer="g3125"
     showgrid="false"
     fit-margin-left="0.5"
     fit-margin-top="0.5"
     fit-margin-bottom="0.5"
     fit-margin-right="0.5"
     inkscape:window-width="1920"
     inkscape:window-height="1028"
     inkscape:window-x="-8"
     inkscape:window-y="-8"
     inkscape:window-maximized="1" />
  <metadata
     id="metadata7">
    <rdf:RDF>
      <cc:Work
         rdf:about="">
        <dc:format>image/svg+xml</dc:format>
        <dc:type
           rdf:resource="http://purl.org/dc/dcmitype/StillImage" />
        <dc:title></dc:title>
      </cc:Work>
    </rdf:RDF>
  </metadata>
  <g
     inkscape:label="Layer 1"
     inkscape:groupmode="layer"
     id="layer1"
     transform="translate(-300.97625,-910.80534)">
    <g
       transform="matrix(1.25,0,0,-1.25,-23.2975,1084.7934)"
       inkscape:label="the_new_moleskine_passions"
       id="g2993">
      <g
         transform="translate(381.612,65.403)"
         id="g3125">
        <path
           id="path3127"
           style="fill:#231f20;fill-opacity:1;fill-rule:nonzero;stroke:none"
           d="m 675.93112,73.387449 -2.9449,0 c 0,-1.640631 -1.64063,-2.951763 -5.07978,-2.951763 l -58.14972,0 0,-2.951762 c 1.14638,0 2.45065,-0.816883 2.45065,-2.450649 l 0,-61.2662342 c 0,-1.6337662 -1.30427,-2.4575139 -2.45065,-2.4575139 l 0,-2.944898 60.11299,0 c 2.6154,0 4.59239,-0.329499 4.59239,-2.2996289 l 2.9449,0 0,17.696846 -2.9449,0 c 0,-1.97013 -1.97699,-3.281262 -4.59239,-3.281262 l -41.93562,0 0,19.330613 23.91614,0 c 4.26289,0 7.04304,-0.322635 6.39091,-2.622264 l 3.27439,0 0,17.367347 -2.95176,0 c 0,-2.292764 -1.63376,-2.622263 -5.40241,-2.622263 l -25.22727,0 0,16.385714 39.97235,0 c 3.43915,0 5.07978,-0.823748 5.07978,-3.116512 l 2.9449,0 z M 522.1237,-1.6353711 l 0,2.944898 c -2.13488,0 -3.44601,0.8237477 -3.44601,2.4575139 l 0,47.6675322 40.62449,-43.2398884 c 2.62226,-2.787013 5.07977,-5.2445269 5.07977,-6.06141 0,-0.6589982 -0.49424,-0.8237477 -1.14638,-0.8237477 l 0,-2.944898 21.29388,0 0,2.944898 c -1.64063,0 -2.95176,0.8237477 -2.95176,2.4575139 l 0,61.2662342 c 0,1.633766 1.31113,2.450649 2.95176,2.450649 l 0,2.951762 -19.98275,0 0,-2.951762 c 1.96327,0 3.2744,-0.816883 3.2744,-2.450649 l 0,-44.393136 -39.31336,41.606123 c -2.29276,2.457514 -3.60389,3.603896 -3.60389,4.420779 0,0.494248 0.16475,0.658998 1.14638,0.816883 l 0,2.951762 -24.08089,0 0,-2.951762 c 1.64063,0 2.9449,-0.816883 2.9449,-2.450649 l 0,-61.2662342 c 0,-1.6337662 -1.30427,-2.4575139 -2.9449,-2.4575139 l 0,-2.944898 z m -46.6859,0 0,2.944898 c -3.11651,0 -4.58553,0.8237477 -4.58553,2.4575139 l 0,61.2662342 c 0,1.633766 1.46902,2.450649 4.58553,2.450649 l 0,2.951762 -24.89778,0 0,-2.951762 c 3.43915,0 4.58553,-0.816883 4.58553,-2.450649 l 0,-61.2662342 c 0,-1.6337662 -1.14638,-2.4575139 -4.58553,-2.4575139 l 0,-2.944898 z M 389.60329,32.268711 409.75078,7.700436 c 2.78015,-3.2812616 3.59704,-4.5855288 3.59704,-5.4092764 0,-0.6521336 -0.64527,-0.9816327 -1.79852,-0.9816327 l 0,-2.944898 24.24564,0 0,2.944898 c -3.10965,0.8237477 -6.22616,4.9150278 -8.84156,8.1894249 L 401.06711,41.604518 428.4224,63.722143 c 2.62226,2.128015 4.09814,3.109647 5.89666,3.761781 l 0,2.951762 -27.02579,0 0,-2.457513 c 0.98163,0 2.62226,-0.652134 2.62226,-1.798516 0,-1.640631 -18.18423,-15.561967 -33.08719,-27.849536 l 0,26.703154 c 0,1.633766 1.46901,2.450649 3.10964,2.450649 l 0,2.951762 -21.45862,0 0,-2.951762 c 1.47588,0 2.62226,-0.816883 2.62226,-2.450649 l 0,-61.2662342 c 0,-1.6337662 -1.14638,-2.4575139 -2.62226,-2.4575139 l 0,-2.944898 21.45862,0 0,2.944898 c -1.64063,0 -3.10964,0.8237477 -3.10964,2.4575139 l 0,18.3489792 z M 264.45542,5.9019202 266.74819,4.2544249 c 0.48738,0.6589981 1.14638,0.9884972 1.96326,0.9884972 1.80538,0 17.68998,-7.8667904 32.43507,-7.8667904 14.90297,0 35.70946,4.7571429 35.70946,23.7513913 0,28.995919 -54.38108,15.891466 -54.38108,29.977551 0,6.06141 7.69518,8.19629 16.37885,8.19629 11.29908,0 21.136,-2.951763 25.54991,-6.720409 1.64063,-1.311131 1.64063,-2.622263 1.80538,-3.933395 l 2.9449,-0.981632 8.19629,15.404081 -1.80538,1.798516 c -1.31113,-0.658998 -1.80538,-1.311132 -3.6039,-1.311132 -3.10965,0 -11.9512,7.866791 -32.10556,7.866791 -20.64175,0 -33.0872,-9.013173 -33.0872,-22.934509 0,-27.849536 54.38107,-15.074582 54.38107,-29.325417 0,-8.354175 -14.25083,-9.6653062 -20.14749,-9.6653062 -6.5488,0 -26.04416,4.4207792 -26.04416,10.9764382 0,0.981632 0.16475,2.128014 0.16475,2.944898 l -3.10965,0.823747 z m -17.36734,67.4855288 -2.9449,0 c 0,-1.640631 -1.64063,-2.951763 -5.07978,-2.951763 l -58.14972,0 0,-2.951762 c 1.14638,0 2.45751,-0.816883 2.45751,-2.450649 l 0,-61.2662342 c 0,-1.6337662 -1.31113,-2.4575139 -2.45751,-2.4575139 l 0,-2.944898 60.11985,0 c 2.6154,0 4.58553,-0.329499 4.58553,-2.2996289 l 2.9449,0 0,17.696846 -2.9449,0 c 0,-1.97013 -1.97013,-3.281262 -4.58553,-3.281262 l -41.93562,0 0,19.330613 23.90928,0 c 4.26289,0 7.0499,-0.322635 6.3909,-2.622264 l 3.2744,0 0,17.367347 -2.9449,0 c 0,-2.292764 -1.64063,-2.622263 -5.40241,-2.622263 l -25.22727,0 0,16.385714 39.96549,0 c 3.43915,0 5.07978,-0.823748 5.07978,-3.116512 l 2.9449,0 z M 90.493642,67.483924 c 2.951762,0 4.25603,-0.816883 4.25603,-2.450649 l 0,-61.2662342 c 0,-1.6337662 -1.304268,-2.4575139 -4.25603,-2.4575139 l 0,-2.944898 64.211128,0 c 2.62227,0 4.58553,-0.329499 4.58553,-2.1348794 l 2.9449,0 0,17.6899815 -2.9449,0 c 0,-2.128015 -1.96326,-3.439147 -4.58553,-3.439147 l -44.22838,0 0,54.552691 c 0,1.633766 1.31113,2.450649 3.76864,2.450649 l 0,2.951762 -23.751388,0 z m -60.936735,-8.18256 c 14.086086,0 27.849536,-9.342672 27.849536,-24.904639 0,-15.561966 -13.76345,-24.8977732 -27.849536,-24.8977732 -14.086085,0 -27.8495359,9.3358072 -27.8495359,24.8977732 0,15.561967 13.7634509,24.904639 27.8495359,24.904639 m 0,12.12282 c -23.9161408,0 -43.569388,-11.964935 -43.569388,-37.027459 0,-25.0625228 19.6532472,-37.0205933 43.569388,-37.0205933 23.916141,0 43.576253,11.9580705 43.576253,37.0205933 0,25.062524 -19.660112,37.027459 -43.576253,37.027459 m -132.843047,-73.0595551 0,2.944898 c -1.64063,0 -2.78701,0.8237477 -2.78701,2.4575139 l 0,46.0269012 0.16475,0 26.373656,-51.4293131 1.311132,0 27.849536,51.4293131 0.322634,0 0,-46.0269012 c 0.3295,-1.6337662 -0.816883,-2.4575139 -2.944898,-2.4575139 l 0,-2.944898 19.001114,0 0,2.944898 c -0.981633,0 -2.292765,0.8237477 -2.292765,2.4575139 l 0,61.5957332 c 0,1.633766 1.311132,2.12115 2.292765,2.12115 l 0,2.951762 -23.099258,0 0,-2.951762 c 0.658998,0 1.311131,-0.487384 1.311131,-1.469017 0,-0.652133 -0.981632,-2.292764 -2.457513,-4.915028 L -78.388362,24.408785 -98.371108,61.264629 c -1.475881,2.622263 -2.292762,3.926531 -2.292762,4.750278 0,0.981633 0.816881,1.469017 1.640629,1.469017 l 0,2.951762 -22.769759,0 0,-2.951762 c 1.46902,0 1.96327,-0.322635 1.96327,-3.274397 l 0,-59.9551021 c 0,-2.4506494 -0.81689,-2.7801485 -1.96327,-2.944898 l 0,-2.944898 18.50686,0"
           inkscape:connector-curvature="0"
           sodipodi:nodetypes="ccsccssccsccccsccsccccsccscccccsccsccccssccccsccsccccsscccccssccccsscccccscccccccccccscsccccssccccsccccssssscccccsssssscccccsccssccsccccsccsccccsccsccccssccsccccscscccccsssccssscccscccccccccccssccccscccsccccssccc" />
      </g>
    </g>
  </g>
</svg>
