<?xml version="1.0" encoding="UTF-8" standalone="no"?>
<!-- Created with Inkscape (http://www.inkscape.org/) -->
<svg
   xmlns:dc="http://purl.org/dc/elements/1.1/"
   xmlns:cc="http://web.resource.org/cc/"
   xmlns:rdf="http://www.w3.org/1999/02/22-rdf-syntax-ns#"
   xmlns:svg="http://www.w3.org/2000/svg"
   xmlns="http://www.w3.org/2000/svg"
   xmlns:sodipodi="http://sodipodi.sourceforge.net/DTD/sodipodi-0.dtd"
   xmlns:inkscape="http://www.inkscape.org/namespaces/inkscape"
   id="svg2"
   sodipodi:version="0.32"
   inkscape:version="0.45.1"
   width="256"
   height="76"
   version="1.0"
   sodipodi:docbase="C:\Wiki Uploads\To Upload"
   sodipodi:docname="NASA_Worm_logo.svg"
   inkscape:output_extension="org.inkscape.output.svg.inkscape">
  <metadata
     id="metadata7">
    <rdf:RDF>
      <cc:Work
         rdf:about="">
        <dc:format>image/svg+xml</dc:format>
        <dc:type
           rdf:resource="http://purl.org/dc/dcmitype/StillImage" />
      </cc:Work>
    </rdf:RDF>
  </metadata>
  <defs
     id="defs5" />
  <sodipodi:namedview
     inkscape:window-height="573"
     inkscape:window-width="744"
     inkscape:pageshadow="2"
     inkscape:pageopacity="0.0"
     guidetolerance="10.0"
     gridtolerance="10.0"
     objecttolerance="10.0"
     borderopacity="1.0"
     bordercolor="#666666"
     pagecolor="#ffffff"
     id="base"
     inkscape:zoom="2.5742188"
     inkscape:cx="128"
     inkscape:cy="38"
     inkscape:window-x="88"
     inkscape:window-y="116"
     inkscape:current-layer="svg2"
     width="256px"
     height="76px"
     showgrid="false"
     showguides="true" />
  <path
     style="fill:#ff0000"
     d="M 50.5,72.711343 C 47.312883,72.288533 43.767882,71.07286 41.574593,69.650585 C 38.660558,67.760932 36.816995,65.282815 35.765268,61.841687 C 35.290428,60.288075 27.185323,32.090293 25.71454,26.875068 C 23.782405,20.023935 23.246747,18.91029 21.626272,18.375487 C 20.884488,18.130675 20.603787,18.156815 19.830838,18.542688 C 19.309839,18.80278 18.717387,19.375808 18.457325,19.871165 C 18.023013,20.698433 18,22.010085 18,45.937388 L 18,71.132508 L 3.125,71.000068 L 3.125,43.875068 C 3.125,13.367373 3.0610095,14.50977 4.9944758,10.500068 C 7.2658695,5.7895525 11.240704,3.752675 18.768352,3.4417325 C 25.252118,3.17391 29.696915,4.83555 34.038875,9.15046 C 37.412298,12.502868 37.582808,12.941103 43.12384,32.500068 C 48.770735,52.432713 50.0446,56.458128 51.011465,57.424995 C 51.9527,58.366228 53.49214,58.405655 54.386362,57.51143 L 55,56.897795 L 55,4.8750675 L 70.26468,4.8750675 L 70.188603,32.437568 C 70.117335,58.256495 70.083573,60.102863 69.654875,61.625068 C 68.137582,67.01263 65.085785,70.41811 60.331958,72.028447 C 58.645495,72.59973 57.89122,72.700762 54.875,72.75939 C 52.95,72.796808 50.98125,72.775188 50.5,72.711343 z M 120.86747,71.062568 C 115.65822,55.021282 110.4905,38.966538 105.29678,22.920212 C 104.79246,21.363793 104.17876,19.87453 103.933,19.61074 C 102.88681,18.487792 101.19743,18.858863 100.44028,20.377905 L 84.090693,71.000068 L 68.073005,70.795415 L 86.932305,11.64442 C 88.323517,9.13573 90.55748,7.1124275 93.576072,5.62715 C 96.72793,4.0762975 98.818405,3.6250675 102.85135,3.6250675 C 108.32939,3.6250675 111.45167,4.82417 114.88493,8.24652 C 118.35411,11.704675 117.78394,11.227893 128.37434,44.250068 L 132.28218,56.435185 C 132.42544,56.881895 133.59641,56.875068 150.58236,56.875068 L 168.64712,56.875068 L 170.00393,56.062568 C 171.09968,55.406395 171.50641,54.96457 172.11787,53.766213 C 172.74924,52.528838 172.875,51.988988 172.875,50.516213 C 172.875,49.04616 172.76146,48.55693 172.19775,47.598033 C 170.89064,45.374603 171.87162,45.517273 156.875,45.369555 C 142.15363,45.22455 143.04101,45.323768 139.38026,43.413448 C 137.35978,42.359083 134.38448,39.543177 132.89129,37.272095 C 130.46602,33.583375 129.38993,29.658092 129.38993,24.500068 C 129.38993,19.171098 130.41873,15.583795 133.004,11.89824 C 135.4335,8.434755 139.81118,5.914185 144.75,5.1351625 C 145.75628,4.976435 153.72818,4.878125 165.6875,4.876955 L 185,4.8750675 L 185,18.875068 L 167.1875,18.87646 C 155.02135,18.877412 149.05801,18.96494 148.375,19.152578 C 147.01833,19.525285 145.42623,21.215472 144.87852,22.864468 C 143.87965,25.87179 144.71202,29.18063 146.81825,30.575315 L 147.83725,31.250068 L 158.98112,31.385288 C 169.79868,31.51655 170.17258,31.537367 171.75,32.096195 C 178.88609,34.62428 185.49601,40.70471 187.27228,46.375068 C 188.93551,51.684573 187.40545,58.85127 183.47615,64.155902 C 180.33222,68.400257 176.67372,70.549392 171.625,71.117698 C 168.10079,71.514395 121.01728,71.463257 120.86747,71.062568 z M 237.52652,70.92462 L 220.60749,19.60572 C 219.82234,18.73813 218.36796,18.792823 217.43579,19.724992 L 200.64955,71.125068 L 192.69978,71.125068 C 188.3274,71.125068 184.75,71.027227 184.75,70.907642 C 184.75,70.704535 200.29488,20.58145 201.97255,15.375068 C 202.98052,12.247005 204.25269,10.155555 206.30459,8.2532325 C 209.67553,5.1280075 213.87939,3.6250675 219.25,3.6250675 C 226.82551,3.6250675 231.66206,6.5059425 234.91436,12.955503 L 252.5884,71.18428 C 252.52355,71.289213 249.16234,71.375068 245.11904,71.375068 C 238.29303,71.375068 237.75036,71.342872 237.52652,70.92462 z "
     id="path2165"
     sodipodi:nodetypes="cssssssccccssssscccccssscccsccccssssscccsssssssssccccsscccssssccccccssssccsc" />
</svg>
