<?xml version="1.0" encoding="UTF-8" standalone="no"?>
<svg
   xmlns:dc="http://purl.org/dc/elements/1.1/"
   xmlns:cc="http://creativecommons.org/ns#"
   xmlns:rdf="http://www.w3.org/1999/02/22-rdf-syntax-ns#"
   xmlns:svg="http://www.w3.org/2000/svg"
   xmlns="http://www.w3.org/2000/svg"
   xmlns:xlink="http://www.w3.org/1999/xlink"
   xmlns:sodipodi="http://sodipodi.sourceforge.net/DTD/sodipodi-0.dtd"
   xmlns:inkscape="http://www.inkscape.org/namespaces/inkscape"
   version="1.1"
   id="Layer_1"
   x="0px"
   y="0px"
   width="795"
   height="212"
   viewBox="0 0 795.00002 212.00001"
   enable-background="new 0 0 620.787 793.701"
   xml:space="preserve">
<path
   style="fill:#005baa"
   id="path547"
   d="m 515.764,29.091 h 6.178 c 1.417,0 3.082,1.318 3.835,2.05 l 10.852,12.034 V 29.091 h 3.684 v 19.217 h -6.455 c -1.146,-0.026 -2.282,-0.275 -3.602,-1.565 L 519.433,34.683 V 48.31 h -3.668 V 29.091 z"
   clip-path="url(#SVGID_92_)"
   transform="matrix(10.341598,0,0,10.341598,-5333.824,-294.3793)" /><path
   style="fill:#005baa"
   id="path549"
   d="m 592.637,48.44 c -4.419,0.609 -8.877,0.665 -13.363,0.289 -2.624,-0.22 -5.185,-0.77 -7.546,-1.995 -2.963,-1.539 -3.904,-5 -3.869,-8.143 0.032,-2.899 0.897,-5.979 3.474,-7.664 1.693,-1.105 3.499,-1.484 5.432,-1.825 5.246,-0.923 10.49,-0.717 15.616,-0.159 v 2.738 c -6.041,-1.166 -12.411,-0.876 -14.581,1.897 -1.351,1.721 -1.537,3.439 -1.537,4.885 0,2.608 0.886,6.553 6.172,7.327 3.462,0.508 6.87,0.111 10.203,-0.481 v 3.131 z"
   clip-path="url(#SVGID_92_)"
   transform="matrix(10.341598,0,0,10.341598,-5333.824,-294.3793)" /><path
   style="fill:#005baa"
   id="path551"
   d="m 554.835,45.445 c 0.524,0.026 8.852,0.053 11.707,0 v 2.881 c -5.758,0.225 -11.291,0.316 -17.095,0.076 -4.928,-0.204 -5.777,-2.684 -5.876,-5.064 V 29.091 h 22.69 v 2.739 h -14.67 v 4.893 h 13.368 v 2.669 h -13.368 c -0.007,1.446 0.038,3.081 0.05,3.376 0.081,1.867 0.945,2.562 3.194,2.677"
   clip-path="url(#SVGID_92_)"
   transform="matrix(10.341598,0,0,10.341598,-5333.824,-294.3793)" />
</svg>