<?xml version="1.0" encoding="UTF-8" standalone="no"?>
<!-- Generator: Adobe Illustrator 12.0.0, SVG Export Plug-In . SVG Version: 6.00 Build 51448)  -->
<svg
   xmlns:dc="http://purl.org/dc/elements/1.1/"
   xmlns:cc="http://web.resource.org/cc/"
   xmlns:rdf="http://www.w3.org/1999/02/22-rdf-syntax-ns#"
   xmlns:svg="http://www.w3.org/2000/svg"
   xmlns="http://www.w3.org/2000/svg"
   xmlns:xlink="http://www.w3.org/1999/xlink"
   xmlns:sodipodi="http://sodipodi.sourceforge.net/DTD/sodipodi-0.dtd"
   xmlns:inkscape="http://www.inkscape.org/namespaces/inkscape"
   version="1.1"
   id="Layer_1"
   width="529.47"
   height="153.047"
   viewBox="0 0 529.47 153.047"
   overflow="visible"
   enable-background="new 0 0 529.47 153.047"
   xml:space="preserve"
   sodipodi:version="0.32"
   inkscape:version="0.44.1"
   sodipodi:docname="nestlé.svg"
   sodipodi:docbase="C:\Documents and Settings\Sigurd\Mine dokumenter\Mine bilder"><metadata
   id="metadata1952"><rdf:RDF><cc:Work
       rdf:about=""><dc:format>image/svg+xml</dc:format><dc:type
         rdf:resource="http://purl.org/dc/dcmitype/StillImage" /></cc:Work></rdf:RDF></metadata><defs
   id="defs1950" /><sodipodi:namedview
   inkscape:window-height="719"
   inkscape:window-width="1024"
   inkscape:pageshadow="2"
   inkscape:pageopacity="0.0"
   guidetolerance="10.0"
   gridtolerance="10.0"
   objecttolerance="10.0"
   borderopacity="1.0"
   bordercolor="#666666"
   pagecolor="#ffffff"
   id="base"
   inkscape:zoom="1.4353977"
   inkscape:cx="264.73499"
   inkscape:cy="76.523499"
   inkscape:window-x="-4"
   inkscape:window-y="-4"
   inkscape:current-layer="Layer_1" />
<g
   id="g1891"
   transform="matrix(1.062353,0,0,1.062353,-15.10805,-4.78382)">
	<g
   id="g1893">
		<defs
   id="defs1895">
			<rect
   id="XMLID_1_"
   width="529.46997"
   height="153.047"
   x="0"
   y="0" />
		</defs>
		<clipPath
   id="XMLID_3_">
			<use
   xlink:href="#XMLID_1_"
   id="use1899"
   x="0"
   y="0"
   width="529.46997"
   height="153.047" />
		</clipPath>
		<path
   clip-path="url(#XMLID_3_)"
   d="M 451.606,50.568 C 451.606,48.265 449.744,46.4 447.436,46.4 L 441.26,46.4 C 438.956,46.4 437.093,48.273 437.093,50.577 L 437.097,115.026 C 437.097,117.329 438.959,119.196 441.263,119.196 L 447.436,119.196 C 449.744,119.196 451.606,117.32 451.606,115.019 L 451.606,50.568 L 451.606,50.568 z "
   id="path1901"
   style="fill:#949190" />
		<path
   clip-path="url(#XMLID_3_)"
   d="M 459.478,52.282 L 459.478,55.345 C 459.478,56.614 460.515,57.637 461.786,57.637 L 504.386,57.637 C 506.331,57.637 507.906,56.071 507.906,54.131 L 507.906,48.943 C 507.906,47.004 506.31,45.249 504.38,45.439 C 504.38,45.439 463.201,49.47 461.876,49.621 C 460.341,49.793 459.478,51.012 459.478,52.282 z "
   id="path1903"
   style="fill:#949190" />
		<path
   clip-path="url(#XMLID_3_)"
   d="M 424.988,119.199 C 414.392,119.199 407.722,111.178 407.722,102.251 L 407.712,76.463 L 404.679,76.463 C 403.063,76.463 401.751,75.162 401.751,73.547 L 401.751,69.232 C 401.751,67.618 403.069,66.32 404.686,66.32 L 407.712,66.325 L 407.708,50.471 C 407.708,48.225 409.522,46.406 411.772,46.406 L 417.793,46.406 C 420.039,46.406 421.857,48.238 421.857,50.483 L 421.857,66.326 L 431.248,66.323 C 432.867,66.323 434.182,67.622 434.182,69.235 L 434.182,73.552 C 434.182,75.166 432.871,76.466 431.255,76.466 L 421.86,76.465 L 421.867,100.317 C 421.867,105.001 424.713,108.198 429.793,108.198 L 430.646,108.193 C 432.403,108.193 433.83,109.602 433.83,111.351 L 433.83,116.038 C 433.83,117.791 432.406,119.201 430.653,119.201 L 424.988,119.201 L 424.988,119.199 z "
   id="path1905"
   style="fill:#949190" />
		<path
   clip-path="url(#XMLID_3_)"
   d="M 325.745,75.499 C 332.072,75.499 337.532,79.991 338.084,86.067 L 313.506,86.067 C 314.057,79.992 319.422,75.5 325.745,75.499 L 325.745,64.466 C 308.617,64.466 299.007,77.845 299.007,91.947 C 299.007,106.969 309.298,120.198 325.859,120.198 C 337.194,120.198 348.369,114.238 350.478,104.451 C 350.765,103.13 349.872,101.397 348.009,101.39 L 339.908,101.39 C 338.439,101.39 337.238,102.095 336.512,103.155 C 334.198,106.545 330.801,108.349 325.779,108.349 C 318.689,108.349 313.769,102.77 313.399,96.587 L 347.84,96.585 C 351.014,96.585 352.431,94.867 352.431,91.943 C 352.431,78.195 344.277,64.465 325.744,64.465 L 325.744,75.499 L 325.745,75.499 z "
   id="path1907"
   style="fill:#949190" />
		<path
   clip-path="url(#XMLID_3_)"
   d="M 482.696,75.499 C 489.019,75.499 494.476,79.991 495.031,86.067 L 470.45,86.067 C 471.005,79.992 476.373,75.5 482.696,75.499 L 482.696,64.466 C 465.564,64.466 455.955,77.845 455.955,91.947 C 455.955,106.969 466.246,120.198 482.806,120.198 C 494.142,120.198 505.317,114.238 507.425,104.451 C 507.713,103.13 506.82,101.397 504.957,101.39 L 496.856,101.39 C 495.387,101.39 494.186,102.095 493.46,103.155 C 491.146,106.545 487.746,108.349 482.728,108.349 C 475.637,108.349 470.718,102.77 470.348,96.587 L 504.789,96.585 C 507.959,96.585 509.38,94.867 509.38,91.943 C 509.38,78.195 501.225,64.465 482.696,64.465 L 482.696,75.499 L 482.696,75.499 z "
   id="path1909"
   style="fill:#949190" />
		<path
   clip-path="url(#XMLID_3_)"
   d="M 396.127,47.124 L 284.563,47.124 C 282.023,47.124 279.979,49.175 279.979,51.708 L 280.362,95.437 C 280.362,95.437 256.319,52.1 255.066,49.888 C 253.888,47.806 251.358,45.893 247.856,45.893 L 238.681,45.893 C 236.144,45.893 234.09,47.945 234.09,50.479 L 234.093,114.608 C 234.093,117.14 236.147,119.194 238.684,119.194 L 244.565,119.194 C 247.106,119.194 249.153,117.13 249.153,114.599 L 248.783,69.641 C 248.783,69.641 273.056,113.412 274.093,115.137 C 275.493,117.465 277.866,119.194 281.3,119.194 L 289.726,119.195 C 292.263,119.195 294.313,117.139 294.313,114.608 L 294.31,57.99 L 396.134,57.993 C 397.866,57.993 399.271,56.599 399.271,54.87 L 399.271,50.243 C 399.271,48.516 397.859,47.124 396.127,47.124 z "
   id="path1911"
   style="fill:#949190" />
		<path
   clip-path="url(#XMLID_3_)"
   d="M 378.071,74.967 C 382.919,74.967 386.551,76.723 387.855,79.757 C 388.482,81.214 389.698,81.496 391.372,81.496 L 398.041,81.496 C 399.144,81.496 400.41,80.55 400.41,79.112 C 400.41,71.371 391.163,64.461 378.064,64.461 C 364.517,64.461 355.619,70.904 355.619,81.161 C 355.619,89.013 361.833,93.685 369.474,95.677 C 372.959,96.586 378.903,98.055 381.799,98.811 C 384.921,99.628 387.711,100.581 387.711,103.248 C 387.711,107.461 383.264,108.894 378.406,108.894 C 373.804,108.894 369.217,106.842 367.905,103.565 C 367.145,101.67 365.81,101.393 363.79,101.393 L 357.005,101.393 C 355.824,101.393 354.461,102.408 354.461,103.949 L 354.461,104.82 C 354.461,112.313 364.53,120.156 378.42,120.156 C 388.27,120.156 401.994,116.068 401.994,102.887 C 401.994,95.253 396.873,89.965 388.543,87.854 C 385.287,87.029 377.458,85.04 375.756,84.602 C 372.72,83.82 369.885,82.832 369.885,80.235 C 369.886,76.302 373.528,74.967 378.071,74.967 z "
   id="path1913"
   style="fill:#949190" />
		<circle
   clip-path="url(#XMLID_3_)"
   cx="131.10001"
   cy="30.073"
   r="2.2320001"
   id="circle1915"
   sodipodi:cx="131.10001"
   sodipodi:cy="30.073"
   sodipodi:rx="2.2320001"
   sodipodi:ry="2.2320001"
   style="fill:#949190" />
		<ellipse
   clip-path="url(#XMLID_3_)"
   cx="101.068"
   cy="26.473"
   rx="1.887"
   ry="1.88"
   id="ellipse1917"
   sodipodi:cx="101.068"
   sodipodi:cy="26.473"
   sodipodi:rx="1.887"
   sodipodi:ry="1.88"
   style="fill:#949190" />
		<path
   clip-path="url(#XMLID_3_)"
   d="M 78.558,74.265 L 77.644,73.284 C 80.198,70.917 82.903,67.14 83.338,64.927 C 83.745,62.864 86.717,63.193 86.152,65.435 C 85.429,68.299 81.913,71.762 78.558,74.265 z "
   id="path1919"
   style="fill:#949190" />
		<path
   clip-path="url(#XMLID_3_)"
   d="M 59.505,29.133 C 54.804,31.163 54.113,35.973 57.413,38.861 C 61.388,42.338 67.944,39.311 67.311,33.989 C 72.645,34.26 76.082,28.761 75.236,24.905 C 77.609,22.873 77.845,18.544 74.996,16.841 C 71.949,15.018 69.073,15.718 67.245,19.232 C 62.364,18.878 57.684,22.712 59.505,29.133 L 57.242,28.147 C 54.26,21.921 59.481,15.562 65.887,17.027 C 67.178,13.937 71.947,10.728 77.099,13.841 C 81.214,16.324 82.083,22.739 77.708,25.851 C 79.769,31.835 75.661,36.729 69.402,36.17 C 68.666,43.868 61.391,44.859 56.69,41.206 C 54.037,39.143 52.948,36.283 52.441,34.124 C 51.904,31.839 51.897,29.793 49.641,27.441 C 47.939,25.666 44.896,25.726 44.896,25.726 C 44.896,20.134 39.651,15.014 33.143,17.494 C 30.839,15.51 27.987,15.313 25.943,17.765 C 24.758,19.189 24.101,22.931 27.764,24.644 C 27.573,29.742 31.469,32.996 37.162,32.544 C 37.388,35.252 40.397,37.77 43.064,38.131 L 43.04,39.492 C 40.191,39.221 38.654,40.212 36.754,42.559 C 30.064,42.242 25.377,45.214 25.572,50.007 C 20.868,50.897 19.988,55.814 22.655,58.431 C 25.322,61.047 29.232,60.021 30.564,56.896 C 35.313,57.8 39.503,54.405 39.695,50.492 C 44.125,50.492 46.066,48.739 46.792,44.672 L 48.466,44.807 C 48.959,49.189 46.929,53.346 41.639,52.849 C 41.502,58.077 36.418,61.002 31.673,59.198 C 29.458,63.347 24.381,65.008 20.125,60.956 C 16.01,57.043 17.513,50.345 22.891,48.72 C 23.014,43.596 26.811,38.725 34.182,40.601 C 34.182,40.601 35.13,38.312 37.434,38.176 C 35.897,37.546 34.733,36.7 34.418,35.12 C 28.858,36.305 24.133,31.196 25.4,26.053 C 20.381,23.415 20.302,18.471 22.792,15.532 C 25.383,12.47 29.704,11.794 33.569,15.092 C 40.111,11.472 47.513,15.904 47.061,23.346 C 51.639,23.043 54.418,27.035 53.908,31.196 C 54.665,29.364 55.545,28.514 57.24,28.146 L 59.505,29.133 z "
   id="path1921"
   style="fill:#949190" />
		<path
   clip-path="url(#XMLID_3_)"
   d="M 70.749,20.201 L 71.858,20.99 C 69.708,25.509 65.911,30.312 62.655,32.952 L 61.416,32.021 C 63.72,28.275 68.67,22.096 70.749,20.201 z "
   id="path1923"
   style="fill:#949190" />
		<path
   clip-path="url(#XMLID_3_)"
   d="M 38.724,45.034 L 39.471,46.139 C 36.76,48.912 31.744,52.612 29.077,53.897 L 28.036,52.771 C 30.614,49.997 35.541,46.364 38.724,45.034 z "
   id="path1925"
   style="fill:#949190" />
		<path
   clip-path="url(#XMLID_3_)"
   d="M 45.208,31.598 L 43.9,33.216 C 40.353,30.893 33.345,24.645 31.763,22.389 L 32.869,21.268 C 36.259,22.982 42.88,28.87 45.208,31.598 z "
   id="path1927"
   style="fill:#949190" />
		<path
   clip-path="url(#XMLID_3_)"
   d="M 38.625,90.876 C 39.032,92.904 38.69,95.148 40.521,97.338 C 41.165,98.107 44.722,102.78 47.3,105.193 C 43.798,106.568 36.79,109.411 31.75,110.041 C 30.74,110.167 29.604,110.876 28.655,111.417 C 28.022,112.496 27.371,114.415 27.097,116.587 C 26.902,118.138 26.926,119.865 26.926,121.628 C 26.926,123.177 27.751,128.063 29.49,131.337 C 31.233,134.613 32.904,136.08 34.961,137.039 C 35.365,136.859 36.262,136.724 37.662,136.695 C 41.469,136.611 44.451,138.708 45.762,140.512 C 46.265,141.202 47.275,141.341 48.6,141.341 C 51.674,141.341 55.05,140.333 58.258,139.113 C 58.949,138.55 60.881,137.264 62.78,135.775 C 64.677,134.286 75.256,125.332 79.932,123.077 C 82.397,124.407 86.44,126.122 90.62,126.122 C 90.863,126.122 91.668,126.134 92.52,125.941 C 93.825,125.648 95.495,125.066 97.604,124.657 C 101.376,123.921 105.8,123.276 107.087,123.296 C 110.555,123.353 120.723,123.613 123.133,123.613 C 125.663,123.613 129.268,123.394 130.644,123.259 C 132.77,122.559 137.515,121.251 142.058,119.154 C 146.591,117.148 156.136,110.537 157.697,109.027 C 158.45,108.349 159.128,107.61 159.624,106.945 C 159.812,106.69 159.877,106.589 159.877,106.385 C 159.877,106.183 159.829,99.704 159.829,99.704 C 159.829,99.704 162.106,97.176 162.979,96.304 C 163.064,96.219 163.071,96.106 163.058,96.023 C 162.664,94.724 162.274,90.692 162.496,86.608 L 160.188,85.533 C 160.099,90.617 158.24,94.943 156.498,97.636 C 153.064,98.177 146.508,100.207 144.149,102.884 L 145.447,103.252 C 147.662,102.033 150.034,101.177 152.746,101.177 C 155.142,101.177 156.201,101.807 156.201,102.478 C 156.201,102.95 155.752,104.085 155.575,104.439 C 155.369,104.852 155.233,105.37 154.828,105.81 C 151.596,109.312 147.93,112.303 143.469,114.783 C 140.456,116.459 137.618,117.594 133.174,118.847 C 131.846,119.222 130.025,119.76 128.837,120.167 C 127.166,120.121 118.419,119.862 113.311,119.862 C 108.203,119.862 97.672,120.605 94.328,121.452 C 92.807,121.835 92.431,122.443 90.668,122.443 C 87.368,122.443 83.041,120.774 80.384,119.488 C 80,119.601 79.042,120.026 78.08,120.503 C 76.193,121.439 71.999,127.248 69.559,125.488 C 68.316,128.037 62.938,130.45 61.1,133.093 C 61.302,131.706 63.473,122.741 63.674,120.947 C 63.712,120.627 63.743,120.372 63.541,120.033 C 61.576,116.763 56.091,114.684 52.996,114.079 C 52.089,113.901 51.641,113.774 51.031,113.638 L 46.149,112.167 L 41.623,113.638 L 46.848,114.638 L 40.216,119.018 C 41.37,118.578 48.511,116.6 49.039,116.442 C 49.624,116.269 50.405,116.102 51.254,116.398 C 52.226,116.737 54.982,117.367 56.626,117.937 C 57.588,118.27 59.166,120.034 59.574,120.982 C 59.741,121.371 59.803,122.194 59.913,124.026 C 59.981,125.176 59.684,126.773 59.406,128.02 C 58.673,131.274 57.191,133.812 56.725,134.716 C 56.081,135.969 55.184,136.377 54.305,136.787 C 52.86,137.463 51.097,137.893 49.132,137.915 C 47.783,137.93 46.883,137.856 46.304,137.081 C 44.496,134.645 40.022,132.276 35.458,133.156 C 32.654,131.465 29.878,126.006 29.878,121.656 C 29.878,119.052 31.199,114.944 31.908,112.878 C 36.469,112.271 45.592,108.802 50.036,106.789 C 50.96,106.745 53.515,105.841 55.955,105.841 C 61.922,105.841 67.842,111.052 71.436,114.571 C 72.025,113.601 73.131,112.135 76.181,112.135 C 80.41,112.135 82.827,115.969 84.038,119.908 L 86.239,118.314 C 85.856,116.058 84.675,113.588 82.894,111.811 C 81.439,110.358 78.659,109.151 76.488,109.151 C 75.177,109.151 73.821,109.444 72.962,109.444 C 69.945,109.444 68.716,108.102 66.488,106.568 C 64.081,104.909 59.603,102.504 56.405,102.504 C 54.351,102.504 53.423,103.307 51.728,103.316 C 49.229,103.326 48.305,102.294 47.106,100.807 C 46.585,100.158 44.055,97.919 43.377,97.017 C 42.99,96.5 42.302,94.384 42.052,93.325 L 38.625,90.876 z "
   id="path1929"
   style="fill:#949190" />
		<path
   clip-path="url(#XMLID_3_)"
   d="M 42.056,93.329 C 42.782,94.102 43.48,94.958 44.387,95.645 C 45.263,96.309 46.366,96.888 47.404,97.472 C 48.872,98.3 50.536,99.247 52.183,99.774 C 53.627,100.209 55.507,100.389 57.267,100.389 C 59.776,100.389 62.738,99.87 65.189,101.014 C 66.833,101.778 66.942,103.512 68.25,104.02 C 70.284,104.811 75.936,104.991 79.068,104.991 C 85.272,104.991 91.982,104.205 95.95,103.259 L 94.016,101.135 C 91.27,101.575 83.221,102.448 79.524,102.448 C 74.32,102.448 69.404,101.617 69.404,99.469 C 69.404,97.981 71.009,95.833 74.06,95.833 C 77.336,95.833 82.287,97.812 83.205,98.083 C 84.119,98.354 84.492,98.285 85.067,98.016 L 86.988,97.03 C 84.444,95.845 75.577,92.805 72.492,92.805 C 71.034,92.805 70.239,93.015 69.291,94.232 C 68.103,95.754 64.94,97.142 59.89,97.142 C 57.12,97.142 53.156,96.645 52.286,96.289 C 50.766,95.664 47.787,93.939 45.88,92.568 C 43.425,90.801 41.282,88.839 39.81,86.546 C 39.351,85.829 39.163,85.057 39.17,84.347 C 39.177,83.749 39.341,83.197 39.403,82.757 C 39.841,83.366 40.317,83.806 40.926,84.376 C 43.593,86.969 47.53,88.914 51.577,89.689 C 52.734,89.91 53.758,90.081 54.894,90.081 C 56.623,90.081 58.215,89.157 59.231,88.254 L 57.643,86.409 C 57.129,86.563 56.068,86.563 55.366,86.563 C 49.491,86.563 42.034,82.729 40.32,78.29 C 40.149,77.853 39.946,77.614 40.114,77.208 C 40.285,76.803 40.497,75.94 40.624,75.144 C 40.966,75.54 41.678,76.135 42.582,76.714 C 44.763,78.114 48.926,80.047 49.744,80.557 C 51.843,79.954 53.421,79.247 54.667,78.602 C 55.886,77.97 57.56,77.4 59.494,77.4 C 63.787,77.4 68.724,79.843 73.356,82.119 L 76.52,80.88 C 72.408,77.992 63.459,73.956 58.488,73.956 C 55.547,73.956 52.791,76.099 50.826,76.099 C 48.416,76.099 41.504,72.737 41.504,69.934 C 41.504,67.779 45.975,66.559 53.168,65.674 C 51.929,67.507 50.744,69.401 49.642,71.355 L 51.47,72.369 C 62.737,56.09 74.453,45.517 84.31,39.077 C 87.891,36.739 88.706,35.371 89.959,32.815 C 93.009,26.589 95.892,21.801 100.897,21.801 C 103.239,21.801 105.146,23.109 106.457,24.732 L 110.086,25.815 L 106.412,28.295 L 110.164,29.784 C 105.268,31.155 98.582,35.909 95.871,42.879 C 90.653,43.156 88.134,47.371 86.432,50.902 C 85.282,53.283 83.45,54.233 80.783,56.037 L 59.451,70.88 L 62.389,71.286 L 82.095,58.114 C 85.984,55.498 87.83,53.569 88.761,51.709 C 90.593,48.063 92.558,45.35 96.423,45.35 C 98.323,45.35 100.357,46.161 101.983,47.695 L 105.441,48.821 L 101.668,51.124 L 104.832,53.063 C 95.79,55.889 90.186,62.355 86.934,74.715 L 89.327,75.256 C 90.529,71.163 91.713,67.409 93.832,64.095 C 99.067,64.035 104.373,63.844 109.577,63.844 C 123.467,63.844 134.997,64.429 141.221,66.26 L 139.02,62.446 C 132.361,61.316 122.703,60.733 109.577,60.733 C 105.178,60.733 100.72,60.895 96.293,60.941 C 99.148,57.925 103.264,55.383 109.601,53.423 L 105.102,50.955 L 110.097,48.192 L 103.294,45.666 C 102.106,44.601 100.624,43.619 98.761,43.153 C 100.942,36.472 108.361,32.569 115.475,29.878 L 110.494,27.848 L 115.52,25.104 L 107.779,22.638 C 105.759,20.27 103.814,19.187 100.832,19.187 C 93.653,19.187 90.637,25.408 87.789,30.923 C 86.289,33.826 85.344,35.048 82.797,36.712 C 77.275,40.316 70.239,45.824 63.522,52.882 C 60.013,50.355 52.84,42.974 50.896,38.946 C 50.129,39.893 49.373,41.955 49.373,41.955 C 50.102,42.729 58.552,51.244 61.691,54.853 C 61.455,55.115 61.218,55.38 60.982,55.645 C 57.634,56.308 48.941,57.14 45.98,56.739 L 44.319,59.683 C 46.531,59.466 55.169,58.451 58.753,58.242 C 57.664,59.555 56.599,60.912 55.562,62.307 C 44.453,63.569 37.03,65.84 37.03,69.934 C 37.03,70.61 37.304,71.375 37.304,72.098 C 37.304,73.813 36.657,74.445 35.438,75.212 C 34.641,75.712 34.589,76.058 34.928,76.532 C 35.27,77.01 36.985,79.541 36.985,80.038 C 36.985,80.863 36.167,81.68 35.506,82.417 C 34.928,83.061 34.952,83.23 35.403,84.042 L 38.625,90.877 L 42.056,93.329 z "
   id="path1931"
   style="fill:#949190" />
		<path
   clip-path="url(#XMLID_3_)"
   d="M 179.595,55.296 C 178.883,56.041 178.26,56.835 177.736,57.682 L 175.945,55.172 C 181.923,47.226 197.702,43.499 206.96,42.844 L 206.96,38.581 C 205.786,38.942 204.519,39.35 203.345,39.627 C 201.684,40.024 200.161,40.396 198.87,40.363 C 197.572,40.33 196.528,39.812 196.042,39.122 C 194.799,37.352 195.953,34.678 200.02,32.176 L 196.812,29.514 C 194.336,32.717 191.895,36.254 189.414,38.368 C 187.161,40.287 184.799,41.244 182.889,39.822 C 181.865,39.058 181.478,38.706 181.376,36.71 C 181.516,33.774 183.3,29.291 184.878,26.403 L 181.082,25.958 C 180.404,30.38 178.589,34.149 176.645,37.261 C 174.221,41.14 171.095,43.864 167.88,46.091 L 165.771,44.018 C 168.366,42.488 171.615,40.002 173.851,36.575 C 176.446,32.595 178.548,27.674 178.552,23.201 L 189.535,24.238 C 187.991,26.195 185.444,30.657 184.478,33.863 C 183.975,35.534 184.002,36.864 184.608,37.319 C 185.772,38.189 187.812,36.8 189.791,34.681 C 192.581,31.69 195.317,27.178 196.519,25.567 L 204.461,32.142 C 200.935,34.008 197.511,36.144 198.189,37.341 C 198.812,38.433 201.075,38.106 203.554,37.346 C 205.584,36.723 207.738,35.787 209.446,34.792 L 209.446,45.506 C 205.615,45.455 199.131,46.169 192.886,48.057 C 194.372,50.15 198.638,50.919 201.343,51.29 L 199.987,59.986 C 193.152,57.123 187.88,55.454 179.595,55.296 L 182.334,52.949 C 188.441,53.074 194.563,54.844 198.031,56.587 L 198.527,53.295 C 195.405,52.881 191.468,51.113 189.8,49.1 C 187.082,50.123 184.507,51.394 182.333,52.95 L 179.595,55.296 z "
   id="path1933"
   style="fill:#949190" />
		<path
   clip-path="url(#XMLID_3_)"
   d="M 146.865,82.923 L 149.409,77.444 C 146.745,74.299 143.746,70.321 141.22,66.259 L 139.019,62.445 C 133.932,52.8 135.784,48.194 133.069,43.95 C 130.826,40.443 119.926,42.625 118.118,43.002 L 121.271,37.793 L 115.057,38.288 L 120.323,32.042 C 120.898,31.229 121.172,30.486 121.781,28.32 C 122.705,25.03 125.544,19.41 133.839,19.41 C 143.045,19.41 145.9,26.846 149.916,30.075 C 154.469,33.737 160.443,38.879 165.77,44.017 L 167.879,46.09 C 170.601,48.866 173.381,51.718 175.945,55.173 L 177.736,57.683 C 188.822,73.832 202.588,104.701 208.682,118.833 C 209.271,120.203 209.692,121.591 210.055,122.644 C 205.919,120.369 201.363,117.544 196.679,114.311 L 193.947,112.39 C 192.256,111.178 190.554,109.915 188.86,108.612 L 186.049,106.409 C 184.368,105.065 182.701,103.686 181.054,102.27 L 186.596,134.484 C 187.004,136.379 188.63,136.064 189.941,134.394 C 191.252,132.725 191.749,132.274 191.252,130.065 L 186.048,106.409 L 188.859,108.612 L 193.844,128.71 C 194.326,130.526 195.094,131.102 197.219,131.192 C 199.342,131.281 199.794,130.469 199.342,129.071 L 193.946,112.389 L 196.678,114.31 L 201.782,129.297 C 203.094,133.131 201.782,133.582 199.478,133.582 C 197.17,133.582 195.092,133.041 193.829,133.853 C 192.562,134.666 190.977,136.883 189.08,138.822 C 187.402,140.535 184.965,140.085 184.472,136.876 L 178.347,99.893 C 174.355,96.31 170.558,92.551 167.162,88.711 C 165.669,88.078 163.988,87.304 162.499,86.611 L 160.191,85.536 C 159.373,85.16 158.767,84.89 158.524,84.821 C 156.829,86.849 155.203,89.117 153.306,90.74 C 152.296,91.602 151.608,92.094 150.118,92.094 C 149.656,92.094 149.088,92.085 148.557,91.789 C 147.989,91.47 147.454,90.832 146.862,89.928 C 146.414,89.241 145.75,88.364 145.168,87.391 C 143.96,85.361 142.651,82.819 141.474,80.76 C 140.153,78.449 139.019,76.717 138.862,76.429 C 138.626,75.989 137.982,75.449 137.982,75.449 C 137.338,76.498 136.862,78.529 136.862,79.644 L 134.558,78.865 C 134.863,77.344 135.472,75.382 135.811,74.433 C 135.811,73.621 134.897,72.538 134.151,72.538 C 133.1,72.538 132.014,73.688 131.474,75.888 L 129.136,76.903 C 129.407,73.351 130.625,69.46 134.152,69.46 C 137,69.46 138.763,71.626 140.119,73.654 C 141.477,75.684 145.917,81.74 146.865,82.923 L 148.628,85.157 C 148.933,86.545 149.528,87.352 149.816,87.797 C 150.425,88.744 151.104,88.677 152.018,87.831 C 152.435,87.446 153.778,86.355 155.079,84.998 C 156.209,83.822 157.308,82.396 157.749,81.674 C 159.04,82.253 161.45,83.401 163.391,84.256 C 155.065,74.021 147.101,61.6 143.647,53.152 C 142.216,49.663 145.009,48.492 146.358,51.935 C 150.018,61.273 160.73,77.783 168.594,86.443 C 177.683,96.454 194.36,110.939 205.206,116.757 C 203.631,113.696 201.557,109.297 199.16,104.204 C 185.965,96.756 172.63,83.079 166.413,71.33 L 169.148,71.647 C 174.931,81.856 188.752,95.477 196.914,99.435 C 189.447,83.625 179.734,63.597 172.155,54.979 C 162.754,44.291 152.483,36.026 147.577,31.724 C 142.743,27.484 140.754,22.161 133.79,22.161 C 128.052,22.161 125.033,26.29 123.882,30.451 C 123.646,31.263 123.509,31.771 122.93,32.617 L 120.219,35.864 L 126.083,35.154 L 122.694,39.891 C 122.694,39.891 131.886,37.833 135.101,42.192 C 138.569,46.891 136.33,52.168 142.017,62.423 C 144.517,66.932 150.569,75.037 152.596,76.837 L 148.628,85.158 L 146.865,82.923 z "
   id="path1935"
   style="fill:#949190" />
		<path
   clip-path="url(#XMLID_3_)"
   d="M 56.523,84.347 L 55.133,83.4 C 55.91,82.752 57.447,81.733 58.964,81.1 C 59.748,80.771 60.642,80.61 61.289,80.61 C 62.847,80.61 64.189,81.26 65.5,81.957 C 67.571,83.06 69.899,84.353 71.687,84.353 C 72.365,84.353 73.019,84.195 73.786,84.195 C 75.549,84.195 77.244,84.985 78.216,84.985 C 78.805,84.985 79.209,84.458 79.596,83.902 C 80.568,82.505 81.914,81.469 83.626,80.754 C 85.468,79.985 87.686,79.677 90.096,79.677 C 91.993,79.677 93.814,79.948 94.763,80.151 C 94.763,80.151 93.315,81.894 92.952,82.279 C 91.038,82.279 87.385,82.217 85.043,83.157 C 83.602,83.738 83.092,84.578 83.092,85.768 C 83.092,87.494 85.019,88.164 87.169,88.815 C 88.436,89.2 89.857,89.293 91.055,89.293 C 92.53,89.293 95.362,88.737 98.159,88.124 C 101.532,87.381 104.671,86.498 105.585,86.159 L 106.808,88.347 C 103.052,89.616 99.211,90.817 95.643,91.541 C 93.626,91.949 91.706,92.204 89.994,92.204 C 87.132,92.204 84.023,91.006 81.473,89.79 C 79.32,88.765 77.396,87.755 75.677,87.755 C 73.746,87.755 71.928,88.419 70.141,89.438 C 69.265,89.938 66.625,91.754 64.273,92.678 C 62.469,93.388 60.997,93.782 59.169,93.782 C 57.54,93.782 56.567,93.556 55.725,92.897 L 58.556,91.166 C 58.919,91.531 59.573,91.596 59.98,91.596 C 60.387,91.596 60.874,91.545 61.983,91.081 C 62.616,90.816 63.544,90.246 64.085,89.896 C 65.201,89.175 65.578,88.754 66.016,88.409 C 66.875,87.733 67.19,86.836 66.095,85.86 C 65.585,85.401 65.048,84.936 64.356,84.518 C 63.38,83.928 62.671,83.356 60.898,83.356 C 58.807,83.354 57.335,83.926 56.523,84.347 z "
   id="path1937"
   style="fill:#949190" />
		<path
   clip-path="url(#XMLID_3_)"
   d="M 95.984,85.463 C 95.984,85.463 94.299,85.001 93.711,84.955 C 94.858,83.407 96.344,82.12 97.508,81.336 C 99.809,79.787 102.216,78.933 105.858,78.715 C 106.851,78.655 108.868,78.462 109.994,78.511 C 111.011,78.557 112.729,78.624 114.308,78.917 C 115.428,79.125 116.472,79.437 117.338,79.571 C 117.869,79.655 119.707,79.629 120.344,79.527 C 122.922,79.121 126.017,78.129 127.647,77.242 L 128.325,79.712 C 124.843,81.489 120.909,83.197 117.308,83.197 C 115.476,83.197 113.525,83.062 111.71,82.889 C 108.512,82.583 105.739,82.16 104.788,82.16 C 102.194,82.16 98.466,83.361 95.984,85.463 z "
   id="path1939"
   style="fill:#949190" />
		<path
   clip-path="url(#XMLID_3_)"
   d="M 93.416,99.218 L 90.14,97.722 C 94.68,95.428 101.619,93.127 104.468,92.677 C 107.313,92.225 110.569,91.888 112.445,91.256 C 113.304,93.422 114.999,95.737 117.44,95.737 C 118.334,95.737 119.799,95.063 121.268,94.418 C 122.922,93.69 124.582,92.894 125.441,92.511 C 126.369,92.1 129.389,90.777 131.942,89.644 C 132.921,89.209 135.602,87.936 135.756,87.85 L 137.475,88.774 C 136.961,91.028 136.102,93.8 135.137,95.782 C 134.757,96.557 134.38,97.201 133.973,97.661 C 133.223,98.503 132.015,99.616 130.447,100.73 C 128.728,101.95 126.63,103.198 124.408,104.472 C 122.676,105.465 120.936,106.475 119.17,107.285 L 118.256,105.628 C 120.978,104.089 123.748,102.143 126.175,100.343 C 127.325,99.492 128.441,98.632 129.236,97.907 C 129.828,97.369 130.198,96.921 130.492,96.486 C 131.215,95.426 132.389,93.352 132.752,92.361 C 131.735,92.856 127.894,94.662 126.175,95.562 C 124.237,96.579 121.091,98.179 119.328,99.009 C 117.941,99.665 116.705,100.021 115.815,100.021 C 113.846,100.021 112.949,98.607 112.467,97.751 C 111.224,95.539 109.892,95.335 106.39,95.291 C 102.321,95.239 96.737,96.917 93.416,99.218 z "
   id="path1941"
   style="fill:#949190" />
		<path
   clip-path="url(#XMLID_3_)"
   d="M 112.527,89.015 C 112.527,89.015 112.048,87.082 111.821,86.384 C 111.821,86.384 112.389,86.196 113.133,86.196 C 114.355,86.196 117.368,86.535 118.617,86.535 C 123.325,86.535 125.064,85.059 126.444,83.813 C 127.622,82.75 128.837,81.889 132.042,81.889 C 134.866,81.889 138.108,83.022 139.033,83.474 L 138.831,86.038 C 137.452,85.278 135.555,84.759 133.881,84.759 C 132.714,84.759 131.662,84.851 130.92,85.233 C 130.085,85.663 129.581,86.313 128.797,86.952 C 127.965,87.63 126.828,88.292 125.339,88.842 C 123.846,89.391 122.005,89.759 119.248,89.759 C 115.618,89.76 113.653,89.157 112.527,89.015 z "
   id="path1943"
   style="fill:#949190" />
		<path
   clip-path="url(#XMLID_3_)"
   d="M 82.704,108.398 L 84.871,107.501 C 86.86,108.268 89.736,109.141 91.739,109.141 C 92.941,109.141 93.937,108.706 94.752,108.345 C 95.389,108.063 102.623,104.521 106.214,103.222 C 107.354,102.807 108.511,102.578 109.076,102.578 C 109.935,102.578 109.983,102.963 110.23,103.357 C 110.908,104.439 116.242,112.045 116.786,112.632 C 121.315,111.24 125.954,109.21 128.628,106.642 C 131.418,103.965 133.729,100.858 135.968,98.456 C 136.831,97.528 137.899,96.687 138.426,96.409 C 140.74,95.18 147.94,95.072 150.967,95.209 L 149.17,97.744 C 143.839,97.744 140.854,98.292 139.512,99.302 C 138.944,99.727 138.084,100.588 137.269,101.651 C 135.448,104.02 133.458,107.264 132.661,107.896 C 134.222,108.978 135.927,109.925 138.639,109.925 C 143.161,109.925 146.397,107.1 148.17,105.51 L 149.69,106.414 C 148.57,107.869 147.287,109.355 145.647,110.468 C 143.829,111.7 141.546,112.496 140.19,112.87 C 137.567,112.373 131.792,111.213 130.436,110.942 C 125.441,112.97 117.307,116.252 114.571,117.075 C 114.177,117.195 113.537,117.291 112.733,117.369 C 110.569,117.487 107.566,117.472 104.831,117.436 C 102.89,117.41 101.051,117.424 100.13,117.256 L 97.72,114.741 C 99.846,115.147 100.671,115.272 102.66,115.272 C 107.36,115.272 110.387,114.489 111.383,114.233 C 112.222,114.019 112.359,113.531 112.109,112.779 C 111.712,111.572 111.017,110.434 109.959,109.21 C 109.391,108.552 108.11,107.416 107.586,107.06 C 106.939,106.622 106.309,106.51 104.532,107.113 C 102.888,107.671 97.787,110.427 95.583,111.596 C 94.501,112.169 93.652,112.339 91.704,111.882 C 89.633,111.397 84.686,109.598 82.704,108.398 z "
   id="path1945"
   style="fill:#949190" />
		<circle
   clip-path="url(#XMLID_3_)"
   cx="96.849998"
   cy="50.026001"
   r="1.85"
   id="circle1947"
   sodipodi:cx="96.849998"
   sodipodi:cy="50.026001"
   sodipodi:rx="1.85"
   sodipodi:ry="1.85"
   style="fill:#949190" />
	</g>
</g>
</svg>