<?xml version="1.0" encoding="UTF-8" standalone="no"?>
<svg
   xmlns:dc="http://purl.org/dc/elements/1.1/"
   xmlns:cc="http://creativecommons.org/ns#"
   xmlns:rdf="http://www.w3.org/1999/02/22-rdf-syntax-ns#"
   xmlns:svg="http://www.w3.org/2000/svg"
   xmlns="http://www.w3.org/2000/svg"
   xmlns:sodipodi="http://sodipodi.sourceforge.net/DTD/sodipodi-0.dtd"
   xmlns:inkscape="http://www.inkscape.org/namespaces/inkscape"
   version="1.1"
   id="Layer_1"
   x="0px"
   y="0px"
   width="500"
   height="502"
   viewBox="0 0 500 502.00001"
   enable-background="new 0 0 864 1275.59"
   xml:space="preserve">
<rect
   style="fill:#ed1c24"
   id="rect23"
   height="495.62482"
   width="494.0358"
   y="3.4856105"
   x="2.9166651" /><rect
   style="fill:none;stroke:#ffffff;stroke-width:5.96421528"
   id="rect25"
   height="495.63205"
   width="494.0358"
   y="3.4784141"
   x="2.9095795" /><path
   inkscape:connector-curvature="0"
   id="path27"
   d="M 249.93111,251.29804" /><path
   style="fill:none;stroke:#ffffff;stroke-width:5.96421528"
   inkscape:connector-curvature="0"
   id="path29"
   d="M 249.93111,251.29804" /><path
   style="fill:#ffffff"
   inkscape:connector-curvature="0"
   id="path31"
   d="m 373.60513,399.00306 c 0,20.21448 11.58741,28.84881 22.2606,28.84881 12.48712,0 23.61742,-7.04532 23.61742,-28.84881 0,-21.80348 -12.26219,-29.29866 -24.07453,-29.29866 -9.76622,0.007 -21.80349,7.50243 -21.80349,29.29866 m 21.58581,-43.38204 c 23.84235,0 43.83191,13.40134 43.83191,44.06408 0,30.66274 -19.76463,42.92494 -43.38205,42.92494 -23.61742,0 -41.78578,-17.02922 -41.78578,-43.8319 0,-26.80269 16.11499,-43.15712 41.33592,-43.15712 m -108.12497,4.44051 c 0.45711,12.74107 0.66752,65.25083 0.45711,79.15282 -0.0363,2.34361 -0.0218,2.16947 2.04611,2.03886 1.82845,-0.11609 16.12951,-0.10883 17.71851,0 1.84296,0.13061 1.54547,0.13061 1.35682,-2.49597 -0.79087,-11.13755 -1.42212,-55.52815 -1.05933,-65.29437 0.0725,-1.81393 0.44985,-2.36537 2.49597,-2.50323 1.82845,-0.12334 6.72607,-0.31199 10.83281,0 11.80509,0.90697 13.46665,20.96182 0.90697,23.05873 -9.54129,1.58901 -12.03726,-0.23218 -8.63432,5.22413 3.41745,5.44906 13.24897,24.48086 20.90377,39.73967 1.10287,2.22025 0.81264,2.39439 2.46695,2.27104 2.87327,-0.21041 15.70141,-0.14511 18.6545,0 3.72219,0.1814 3.78024,0.29749 2.50323,-1.589 -7.87973,-11.63095 -18.5892,-33.91331 -21.91958,-37.09132 -1.82845,-1.74138 -2.76444,-1.74138 0.79087,-3.10546 21.33187,-8.19898 12.92247,-40.39994 -5.45631,-41.67695 -17.08,-1.18994 -19.27123,0.59497 -42.01797,-0.45711 -2.49597,-0.11609 -2.12593,0.0871 -2.04611,2.72816 m -63.58928,13.96729 c 0,8.20624 -0.79813,42.1268 -0.22492,51.67535 0.15237,2.48872 0.68204,2.49598 3.17801,2.49598 2.51048,0 7.75638,0.66027 11.36248,0 13.62627,-2.49598 23.84235,-10.56436 23.84235,-28.50779 0,-17.94344 -10.81105,-26.90427 -23.16031,-27.93459 -2.72816,-0.22492 -9.51227,-0.44985 -12.26219,-0.22492 -3.17802,0.23944 -2.73542,0 -2.73542,2.49597 M 64.380169,357.21728 c 2.503229,0 13.4086,0.0653 16.804284,0 2.067885,-0.0363 2.031607,-0.10884 1.922771,2.76443 -0.130604,3.4102 -0.210417,22.10098 -0.217673,24.15435 -0.01451,3.11271 0.195905,2.51774 2.256534,2.64109 3.105455,0.18139 21.164985,0.11609 25.329775,-0.0871 1.67608,-0.0871 1.50919,-0.029 1.48743,-3.68591 -0.0145,-2.27831 -0.18865,-18.93022 -0.27572,-21.46973 -0.15237,-4.70172 -0.47162,-4.31716 2.06063,-4.31716 2.94583,0 35.69096,-0.007 37.95475,0 1.7704,0.007 1.7704,-0.0508 2.37263,1.68333 1.589,4.59288 9.04065,22.63064 11.94294,29.21159 2.1477,4.88311 0.7546,5.58692 3.4102,0 3.44647,-7.27024 11.21011,-26.32381 12.1461,-28.73271 0.87794,-2.24928 0.34827,-2.13319 3.41019,-2.10417 -4.02693,-0.0363 46.11021,0.34102 57.26227,-0.16688 4.59288,-0.21041 15.54179,2.93132 19.73561,5.15158 9.88956,5.22413 19.4236,16.20931 19.4236,35.84333 0,28.61663 -17.95069,42.73629 -34.29786,43.04103 -12.2622,0.22493 -29.32043,-0.007 -39.28981,0.22493 -4.59289,0.10883 -4.2954,0.55869 -4.09224,-2.32184 0.79088,-11.00695 0.0145,-68.42159 -0.21767,-73.91418 -0.39181,-8.82298 -0.87795,-5.51436 -2.95309,-1.66882 -4.54209,8.40214 -26.41813,59.24308 -32.99908,75.05333 -1.1319,2.7209 -1.03757,2.74267 -2.85151,2.74267 -1.82119,0 -16.52131,-0.0508 -18.57468,-0.0508 -1.1319,0 -1.33506,-0.15237 0.0218,-2.22026 1.31329,-2.02435 10.66594,-22.09371 11.47132,-23.62467 1.46566,-2.80072 0.77637,-1.85747 0.22493,-3.17801 -3.17801,-7.49518 -19.91699,-43.47638 -23.98021,-50.23147 -1.36408,-2.27104 -2.00258,-3.03289 -2.14769,0.94325 -0.51516,15.07742 -0.89246,64.11168 0.0871,76.66411 0.15963,2.02435 -0.0145,1.69784 -1.37133,1.69784 -1.13915,0 -15.28058,-0.16688 -16.87684,0 -1.45115,0.14511 -1.68333,0.14511 -1.58901,-1.55273 0.13786,-2.51048 0.77637,-25.7506 0,-36.72128 -0.21767,-2.97485 0.0218,-2.93857 -2.15495,-2.95308 -1.1319,-0.007 -23.240125,-0.15963 -24.618714,0 -2.089652,0.24669 -1.995328,-0.007 -2.082397,3.18527 -0.297485,12.1461 0.420833,29.94442 0.631249,35.62566 0.09432,2.27105 0.377299,2.50323 -0.798131,2.41616 -2.488717,-0.1959 -17.000189,-0.0943 -18.53115,0 -1.451147,0.0871 -1.131895,-0.13786 -1.059337,-1.45115 0.754596,-13.24897 0.602226,-63.32081 -0.217672,-79.40677 -0.159626,-2.9676 -0.348276,-3.18527 1.240731,-3.18527" /><path
   style="fill:#ffffff"
   inkscape:connector-curvature="0"
   id="path33"
   d="m 126.7142,123.169 c 0.20316,-23.900395 8.07563,-47.619396 18.41506,-63.770665 6.21816,-9.693663 11.8341,-16.514055 15.07016,-19.155143 0.87069,-0.711062 3.54805,-0.565948 5.80459,-0.565948 h 37.45411 c -18.92296,16.564846 -30.74256,58.183748 -30.74256,83.433706 0,25.24271 11.8196,66.85436 30.74256,83.42646 h -37.45411 c -2.25654,0 -4.9339,0.13786 -5.80459,-0.56595 -3.23606,-2.64109 -8.852,-9.46874 -15.07016,-19.15514 C 134.78983,170.67956 126.51104,147.08391 126.7142,123.169" /><path
   style="fill:#ffffff"
   inkscape:connector-curvature="0"
   id="path35"
   d="m 288.02372,123.169 c 0.20316,-23.900395 8.07564,-47.619396 18.42232,-63.770665 6.21091,-9.693663 11.81959,-16.514055 15.0629,-19.155143 0.87069,-0.711062 3.54806,-0.565948 5.79734,-0.565948 h 37.46862 c -18.93747,16.564846 -30.75707,58.183748 -30.75707,83.433706 0,25.24271 11.8196,66.85436 30.75707,83.42646 h -37.46862 c -2.24928,0 -4.92665,0.13786 -5.79734,-0.56595 -3.24331,-2.64109 -8.85199,-9.46874 -15.0629,-19.15514 -10.33943,-16.13676 -18.62548,-39.73241 -18.42232,-63.64732" /><path
   style="fill:#ffffff"
   inkscape:connector-curvature="0"
   id="path37"
   d="m 207.36896,123.169 c 0.20316,-23.900395 8.07563,-47.619396 18.42231,-63.770665 6.21091,-9.693663 11.8196,-16.514055 15.06291,-19.155143 0.87069,-0.711062 3.54806,-0.565948 5.79734,-0.565948 h 37.46862 c -18.93022,16.564846 -30.74981,58.183748 -30.74981,83.433706 0,25.24271 11.81959,66.85436 30.74981,83.42646 h -37.46862 c -2.24928,0 -4.92665,0.13786 -5.79734,-0.56595 -3.24331,-2.64109 -8.852,-9.46874 -15.06291,-19.15514 C 215.44459,170.67956 207.1658,147.08391 207.36896,123.169" /><path
   style="fill:#ffffff"
   inkscape:connector-curvature="0"
   id="path39"
   d="m 258.11558,258.80047 c 0,10.03469 8.14093,18.17562 18.17562,18.17562 10.04919,0 18.19013,-8.14093 18.19013,-18.17562 0,-10.04193 -8.14094,-18.17561 -18.19013,-18.17561 -10.03469,0 -18.17562,8.12642 -18.17562,18.17561 m -55.42657,0 c 0,10.03469 8.14094,18.17562 18.18287,18.17562 10.03469,0 18.17562,-8.14093 18.17562,-18.17562 0,-10.04193 -8.14093,-18.17561 -18.17562,-18.17561 -10.04193,0 -18.18287,8.12642 -18.18287,18.17561 m 129.04327,18.17562 c 10.03468,0 18.17562,-8.14093 18.17562,-18.17562 0,-10.04193 -8.14094,-18.17561 -18.17562,-18.17561 -10.04194,0 -18.18288,8.13368 -18.18288,18.17561 0,10.03469 8.14094,18.17562 18.18288,18.17562 m 36.91718,-13.46664 c 0.029,0.34827 0.57321,0.40632 0.84892,0.37004 11.76155,-1.49468 10.88361,-5.2459 11.39151,-45.12342 0.29748,-22.26786 18.56743,-24.39379 17.05823,-24.39379 5.10079,0 20.62806,0.19591 28.10147,0.11609 3.19978,-0.0363 2.38714,0.14512 2.50323,2.19124 0.11609,2.06788 0.058,13.5392 0.058,20.25076 0,1.00854 -0.41358,0.7691 -4.04145,0.7691 -3.22155,0 -6.80588,-0.16688 -9.16399,0.0145 -5.22413,0.39906 -8.94633,7.72735 -7.69108,15.49099 1.10287,6.79137 10.83281,22.80478 16.55033,34.49377 3.71494,7.5895 11.12304,31.18515 -0.58046,49.20115 -6.71156,10.33217 -14.64933,20.16369 -43.14261,19.61225 H 117.52844 c -28.500536,0.55144 -36.52538,-9.28008 -43.244192,-19.61225 -11.703502,-18.016 -4.295395,-41.61165 -0.580458,-49.20115 5.71752,-11.68899 15.447462,-27.7024 16.550334,-34.49377 1.262498,-7.76364 -2.459695,-15.09193 -7.683825,-15.49099 -2.36537,-0.1814 -5.942448,-0.0145 -9.17125,-0.0145 -3.627868,0 -4.041445,0.23944 -4.041445,-0.7691 0,-6.71156 -0.05805,-18.18288 0.05805,-20.25076 0.130604,-2.04612 -0.69655,-2.22751 2.503229,-2.19124 7.480664,0.0798 23.00794,-0.11609 28.101462,-0.11609 -1.509189,0 16.76801,2.12593 17.05824,24.39379 0.52241,39.87752 -0.36279,43.62874 11.39151,45.12342 0.27571,0.0363 0.82715,-0.0218 0.84892,-0.37004 -3.17802,-21.74544 15.02663,-40.98766 36.6197,-40.9151 12.15335,0.0435 21.62209,6.14561 24.95973,10.07096 3.36666,3.95438 1.97356,3.86005 5.80459,-0.11609 11.47857,-11.94294 36.47458,-14.74365 50.65229,1.11738 1.69059,1.89375 1.46566,1.85747 3.22155,0.0581 14.2938,-14.63482 38.46991,-15.60709 51.95832,0 2.30733,2.66286 1.42213,2.59755 6.66077,-2.57579 5.23864,-5.16608 15.57807,-8.42391 22.47102,-8.4747 20.70787,-0.1306 39.63083,16.89861 36.24965,40.75547 m -202.47131,13.54646 c 10.03468,0 18.17562,-8.14093 18.17562,-18.17562 0,-10.04193 -8.14094,-18.17561 -18.17562,-18.17561 -10.04194,0 -18.18288,8.13368 -18.18288,18.17561 0,10.03469 8.14094,18.17562 18.18288,18.17562" />

</svg>