<?xml version="1.0" encoding="UTF-8" standalone="no"?>
<!-- Generator: Adobe Illustrator 14.0.0, SVG Export Plug-In . SVG Version: 6.00 Build 43363)  -->
<svg
   xmlns:dc="http://purl.org/dc/elements/1.1/"
   xmlns:cc="http://web.resource.org/cc/"
   xmlns:rdf="http://www.w3.org/1999/02/22-rdf-syntax-ns#"
   xmlns:svg="http://www.w3.org/2000/svg"
   xmlns="http://www.w3.org/2000/svg"
   xmlns:xlink="http://www.w3.org/1999/xlink"
   xmlns:sodipodi="http://sodipodi.sourceforge.net/DTD/sodipodi-0.dtd"
   xmlns:inkscape="http://www.inkscape.org/namespaces/inkscape"
   version="1.0"
   id="Layer_1"
   x="0px"
   y="0px"
   width="668"
   height="133"
   viewBox="0 0 595.276 841.89"
   enable-background="new 0 0 595.276 841.89"
   xml:space="preserve"
   sodipodi:version="0.32"
   inkscape:version="0.45.1">

<rect
   style="fill:#e92e31"
   x="1230.2686"
   y="0.00029965528"
   width="1021.6168"
   height="709.86237"
   id="rect101" /><path
   style="fill:#2f4888;fill-rule:evenodd"
   id="path111"
   d="M 137.103,754.967 L 137.103,750.202 L 139.225,750.202 L 139.225,750.922 C 139.505,750.642 139.826,750.443 140.146,750.282 C 140.466,750.161 140.867,750.082 141.267,750.082 C 141.628,750.082 141.948,750.121 142.228,750.242 C 142.509,750.322 142.749,750.482 142.949,750.641 C 143.109,750.841 143.229,751.042 143.309,751.283 C 143.39,751.523 143.43,751.923 143.43,752.484 L 143.43,754.966 L 141.107,754.966 L 141.107,752.524 C 141.107,752.164 141.067,751.882 140.947,751.762 C 140.827,751.602 140.627,751.562 140.306,751.562 C 140.026,751.562 139.826,751.642 139.666,751.802 C 139.505,751.962 139.425,752.203 139.425,752.524 L 139.425,754.966 L 137.103,754.966 L 137.103,754.967 z "
   clip-rule="evenodd"
   clip-path="url(#SVGID_8_)"
   transform="matrix(44.999199,0,0,44.999199,-7986.1072,-33518.822)" /><path
   style="fill:#2f4888;fill-rule:evenodd"
   id="path113"
   d="M 147.032,752.605 C 147.032,753.044 147.112,753.326 147.272,753.526 C 147.433,753.725 147.673,753.805 147.993,753.805 C 148.354,753.805 148.594,753.725 148.754,753.526 C 148.874,753.326 148.954,753.045 148.954,752.605 C 148.954,752.165 148.874,751.843 148.754,751.643 C 148.594,751.444 148.354,751.364 147.993,751.364 C 147.673,751.364 147.433,751.444 147.272,751.643 C 147.112,751.843 147.032,752.165 147.032,752.605 M 144.71,752.605 C 144.71,751.803 144.99,751.164 145.591,750.722 C 146.151,750.283 146.992,750.041 147.993,750.041 C 149.034,750.041 149.835,750.282 150.436,750.722 C 150.996,751.163 151.317,751.803 151.317,752.605 C 151.317,753.366 150.996,754.005 150.436,754.447 C 149.835,754.926 149.034,755.128 147.993,755.128 C 146.992,755.128 146.192,754.927 145.591,754.447 C 144.99,754.005 144.71,753.366 144.71,752.605"
   clip-rule="evenodd"
   clip-path="url(#SVGID_8_)"
   transform="matrix(44.999199,0,0,44.999199,-7986.1072,-33518.822)" /><path
   style="fill:#2f4888;fill-rule:evenodd"
   id="path115"
   d="M 152.638,754.967 L 152.638,750.202 L 154.76,750.202 L 154.76,751.082 C 154.92,750.722 155.16,750.482 155.441,750.322 C 155.721,750.161 156.122,750.082 156.602,750.082 L 156.802,750.082 L 156.802,751.963 L 156.562,751.963 L 156.321,751.963 C 155.841,751.963 155.521,752.044 155.281,752.204 C 155.08,752.364 154.96,752.643 154.96,753.004 L 154.96,754.967 L 152.638,754.967 L 152.638,754.967 z "
   clip-rule="evenodd"
   clip-path="url(#SVGID_8_)"
   transform="matrix(44.999199,0,0,44.999199,-7986.1072,-33518.822)" /><polygon
   style="fill:#2f4888;fill-rule:evenodd"
   id="polygon117"
   points="159.445,754.967 157.483,750.203 159.805,750.203 160.687,753.125 161.567,750.203 163.529,750.203 164.45,753.125 165.292,750.203 167.533,750.203 165.691,754.967 163.409,754.967 162.568,752.205 161.728,754.967 159.445,754.967 "
   clip-rule="evenodd"
   clip-path="url(#SVGID_8_)"
   transform="matrix(44.999199,0,0,44.999199,-7986.1072,-33518.822)" /><path
   style="fill:#2f4888;fill-rule:evenodd"
   id="path119"
   d="M 170.657,752.043 L 172.739,752.043 C 172.699,751.763 172.619,751.523 172.419,751.403 C 172.259,751.243 171.978,751.163 171.658,751.163 C 171.378,751.163 171.137,751.243 170.937,751.403 C 170.777,751.564 170.657,751.763 170.657,752.043 M 172.619,753.566 L 174.821,753.566 C 174.661,754.087 174.301,754.487 173.78,754.726 C 173.219,755.007 172.499,755.127 171.618,755.127 C 170.577,755.127 169.816,754.926 169.215,754.446 C 168.615,754.005 168.335,753.405 168.335,752.644 C 168.335,751.842 168.615,751.203 169.215,750.721 C 169.856,750.282 170.657,750.04 171.698,750.04 C 172.739,750.04 173.54,750.281 174.141,750.801 C 174.741,751.282 175.021,752.003 175.021,752.883 L 175.021,753.003 L 170.657,753.003 C 170.657,753.324 170.777,753.565 170.937,753.724 C 171.137,753.884 171.418,753.964 171.738,753.964 C 171.978,753.964 172.138,753.925 172.299,753.844 C 172.459,753.805 172.539,753.685 172.619,753.566"
   clip-rule="evenodd"
   clip-path="url(#SVGID_8_)"
   transform="matrix(44.999199,0,0,44.999199,-7986.1072,-33518.822)" /><path
   style="fill:#2f4888;fill-rule:evenodd"
   id="path121"
   d="M 178.384,752.565 C 178.384,752.924 178.464,753.206 178.584,753.406 C 178.745,753.606 178.985,753.685 179.305,753.685 C 179.625,753.685 179.906,753.606 180.026,753.406 C 180.226,753.246 180.266,752.965 180.266,752.565 C 180.266,752.205 180.186,751.963 180.026,751.763 C 179.866,751.564 179.625,751.484 179.305,751.484 C 178.985,751.484 178.745,751.564 178.584,751.763 C 178.464,751.923 178.384,752.205 178.384,752.565 M 176.422,755.488 L 178.745,755.488 C 178.784,755.608 178.825,755.689 178.945,755.728 C 179.065,755.767 179.185,755.808 179.425,755.808 C 179.786,755.808 179.986,755.728 180.106,755.608 C 180.226,755.488 180.306,755.208 180.306,754.806 L 180.306,754.567 C 180.106,754.687 179.866,754.806 179.585,754.887 C 179.345,754.967 179.025,755.007 178.664,755.007 C 177.863,755.007 177.263,754.806 176.782,754.366 C 176.302,753.926 176.062,753.325 176.062,752.604 C 176.062,751.842 176.302,751.203 176.742,750.761 C 177.183,750.322 177.783,750.081 178.544,750.081 C 178.985,750.081 179.345,750.16 179.665,750.281 C 179.986,750.401 180.226,750.561 180.466,750.841 L 180.466,750.201 L 182.548,750.201 L 182.548,754.605 C 182.548,755.446 182.268,756.005 181.788,756.366 C 181.267,756.728 180.466,756.887 179.265,756.887 C 178.464,756.887 177.783,756.767 177.303,756.528 C 176.824,756.289 176.502,755.928 176.422,755.488"
   clip-rule="evenodd"
   clip-path="url(#SVGID_8_)"
   transform="matrix(44.999199,0,0,44.999199,-7986.1072,-33518.822)" /><path
   style="fill:#2f4888;fill-rule:evenodd"
   id="path123"
   d="M 184.191,748.36 L 186.553,748.36 L 186.553,749.721 L 184.191,749.721 L 184.191,748.36 z M 184.191,750.202 L 186.553,750.202 L 186.553,754.968 L 184.191,754.968 L 184.191,750.202 z "
   clip-rule="evenodd"
   clip-path="url(#SVGID_8_)"
   transform="matrix(44.999199,0,0,44.999199,-7986.1072,-33518.822)" /><path
   style="fill:#2f4888;fill-rule:evenodd"
   id="path125"
   d="M 192.199,752.844 C 191.959,752.924 191.678,753.004 191.278,753.085 C 190.717,753.205 190.437,753.365 190.437,753.565 C 190.437,753.724 190.477,753.804 190.597,753.884 C 190.717,753.965 190.877,754.004 191.078,754.004 C 191.478,754.004 191.758,753.925 191.918,753.804 C 192.118,753.644 192.199,753.405 192.199,753.084 L 192.199,752.923 L 192.199,752.844 z M 192.399,754.967 L 192.239,754.527 C 191.959,754.726 191.638,754.887 191.278,755.007 C 190.958,755.087 190.557,755.127 190.117,755.127 C 189.476,755.127 188.955,755.007 188.595,754.766 C 188.235,754.487 188.035,754.126 188.035,753.645 C 188.035,753.166 188.235,752.804 188.595,752.604 C 188.955,752.365 189.636,752.205 190.597,752.083 C 190.717,752.083 190.877,752.083 191.117,752.044 C 191.839,752.004 192.199,751.843 192.199,751.563 C 192.199,751.444 192.118,751.364 191.999,751.284 C 191.878,751.204 191.638,751.204 191.359,751.204 C 191.117,751.204 190.958,751.204 190.798,751.324 C 190.677,751.404 190.597,751.484 190.597,751.643 L 188.315,751.643 C 188.315,751.123 188.595,750.722 189.116,750.443 C 189.636,750.162 190.437,750.042 191.438,750.042 C 191.918,750.042 192.359,750.083 192.759,750.162 C 193.2,750.203 193.521,750.323 193.721,750.443 C 194.001,750.602 194.201,750.762 194.321,750.963 C 194.401,751.164 194.481,751.404 194.481,751.764 L 194.481,754.448 C 194.481,754.528 194.481,754.608 194.522,754.687 C 194.601,754.727 194.641,754.807 194.722,754.847 L 194.722,754.968 L 192.399,754.968 L 192.399,754.967 z "
   clip-rule="evenodd"
   clip-path="url(#SVGID_8_)"
   transform="matrix(44.999199,0,0,44.999199,-7986.1072,-33518.822)" /><path
   style="fill:#2f4888;fill-rule:evenodd"
   id="path127"
   d="M 196.163,754.967 L 196.163,750.202 L 198.285,750.202 L 198.285,750.922 C 198.565,750.642 198.886,750.443 199.206,750.282 C 199.526,750.161 199.927,750.082 200.327,750.082 C 200.687,750.082 201.008,750.121 201.288,750.242 C 201.568,750.322 201.809,750.482 202.009,750.641 C 202.169,750.841 202.289,751.042 202.369,751.283 C 202.449,751.524 202.489,751.923 202.489,752.484 L 202.489,754.966 L 200.167,754.966 L 200.167,752.524 C 200.167,752.164 200.127,751.882 200.007,751.762 C 199.886,751.602 199.686,751.562 199.366,751.562 C 199.086,751.562 198.846,751.642 198.725,751.802 C 198.565,751.962 198.485,752.203 198.485,752.524 L 198.485,754.966 L 196.163,754.966 L 196.163,754.967 z "
   clip-rule="evenodd"
   clip-path="url(#SVGID_8_)"
   transform="matrix(44.999199,0,0,44.999199,-7986.1072,-33518.822)" /><rect
   style="fill:#ffffff;fill-rule:evenodd"
   id="rect129"
   height="1.923"
   width="2.322"
   clip-rule="evenodd"
   clip-path="url(#SVGID_8_)"
   y="753.04498"
   x="205.853"
   transform="matrix(44.999199,0,0,44.999199,-7986.1072,-33518.822)" /><path
   style="fill:#ffffff;fill-rule:evenodd"
   id="path131"
   d="M 209.817,754.967 L 209.817,750.202 L 211.939,750.202 L 211.939,750.922 C 212.219,750.642 212.5,750.443 212.82,750.282 C 213.18,750.161 213.54,750.082 213.981,750.082 C 214.341,750.082 214.662,750.121 214.942,750.242 C 215.222,750.322 215.463,750.482 215.623,750.641 C 215.823,750.841 215.943,751.042 216.023,751.283 C 216.103,751.524 216.103,751.923 216.103,752.484 L 216.103,754.966 L 213.781,754.966 L 213.781,752.524 C 213.781,752.164 213.741,751.882 213.621,751.762 C 213.501,751.602 213.3,751.562 213.02,751.562 C 212.7,751.562 212.5,751.642 212.34,751.802 C 212.219,751.962 212.139,752.203 212.139,752.524 L 212.139,754.966 L 209.817,754.966 L 209.817,754.967 z "
   clip-rule="evenodd"
   clip-path="url(#SVGID_8_)"
   transform="matrix(44.999199,0,0,44.999199,-7986.1072,-33518.822)" /><path
   style="fill:#ffffff;fill-rule:evenodd"
   id="path141"
   d="M 219.747,752.605 C 219.747,753.044 219.827,753.326 219.947,753.526 C 220.107,753.725 220.347,753.805 220.708,753.805 C 221.028,753.805 221.268,753.725 221.428,753.526 C 221.589,753.326 221.669,753.045 221.669,752.605 C 221.669,752.165 221.589,751.843 221.428,751.643 C 221.268,751.444 221.028,751.364 220.708,751.364 C 220.347,751.364 220.107,751.444 219.947,751.643 C 219.827,751.843 219.747,752.165 219.747,752.605 M 217.384,752.605 C 217.384,751.803 217.705,751.164 218.265,750.722 C 218.866,750.283 219.667,750.041 220.708,750.041 C 221.708,750.041 222.55,750.282 223.11,750.722 C 223.711,751.163 223.991,751.803 223.991,752.605 C 223.991,753.366 223.711,754.005 223.11,754.447 C 222.55,754.926 221.708,755.128 220.708,755.128 C 219.667,755.128 218.866,754.927 218.265,754.447 C 217.705,754.005 217.384,753.366 217.384,752.605"
   clip-rule="evenodd"
   clip-path="url(#SVGID_10_)"
   transform="matrix(44.999199,0,0,44.999199,-7986.1072,-33518.822)" /><path
   style="fill:#2f4888;fill-rule:evenodd"
   id="path143"
   d="M 217.865,759.171 C 219.306,758.569 219.747,758.41 220.708,757.93 C 220.868,757.85 220.307,757.81 220.107,757.771 C 219.907,757.69 219.707,757.69 219.547,757.53 C 219.507,757.49 219.547,757.37 219.587,757.33 C 219.707,757.289 219.827,757.289 219.947,757.249 C 220.107,757.249 220.508,757.45 220.508,757.249 C 220.508,757.009 220.067,756.971 219.947,756.729 C 219.907,756.649 219.947,756.489 219.988,756.409 C 220.028,756.289 220.148,756.289 220.268,756.249 C 220.388,756.249 220.508,756.249 220.628,756.289 C 220.989,756.409 221.309,756.649 221.629,756.769 C 221.749,756.809 221.869,756.809 221.949,756.769 C 222.35,756.569 222.71,756.328 223.03,756.087 C 223.071,756.048 223.151,755.967 223.11,755.928 C 222.87,755.728 222.59,755.608 222.27,755.488 C 221.429,755.208 220.547,755.088 219.707,754.807 C 219.627,754.767 219.547,754.687 219.587,754.647 C 219.707,754.487 219.867,754.367 220.067,754.286 C 220.188,754.206 220.307,754.166 220.468,754.206 C 221.669,754.327 222.831,754.647 224.031,754.647 C 224.271,754.647 224.512,754.246 224.752,754.206 C 224.992,754.126 225.113,754.527 225.353,754.407 C 225.994,754.166 226.514,753.686 227.074,753.326 C 228.396,752.525 229.637,752.485 230.358,752.725 C 230.438,752.765 230.558,752.805 230.598,752.924 C 230.638,753.044 230.638,753.204 230.518,753.325 C 230.237,753.765 229.878,754.125 229.477,754.446 C 228.996,754.846 228.396,755.087 227.955,755.526 C 227.875,755.567 228.036,755.687 228.156,755.687 C 228.276,755.687 228.356,755.567 228.476,755.526 C 228.596,755.487 228.716,755.447 228.796,755.447 C 228.917,755.487 229.036,755.526 229.036,755.647 C 229.117,755.807 228.917,756.086 229.077,756.168 C 229.678,756.608 230.518,756.648 231.038,757.128 C 231.199,757.288 230.718,757.449 230.518,757.529 C 230.398,757.609 230.237,757.569 230.078,757.529 C 229.197,757.408 228.356,757.128 227.435,757.008 C 226.914,756.929 226.354,756.97 225.793,756.97 C 225.673,756.97 225.513,756.85 225.393,756.889 C 224.953,757.008 224.552,757.248 224.152,757.409 C 223.671,757.61 223.191,757.69 222.75,757.891 C 222.71,757.93 222.75,758.011 222.79,758.049 C 222.831,758.13 222.99,758.17 223.03,758.29 C 223.03,758.37 222.95,758.449 222.87,758.449 C 222.71,758.49 222.59,758.449 222.43,758.41 C 222.109,758.329 221.829,758.17 221.509,758.17 C 221.389,758.17 221.348,758.25 221.269,758.29 C 221.189,758.329 221.068,758.29 220.989,758.329 C 220.028,758.77 220.828,758.53 218.145,759.651 C 215.463,760.813 211.379,762.414 207.815,763.214 C 204.291,764.016 201.368,763.535 201.368,761.613 C 201.368,759.691 203.57,757.369 205.493,755.887 L 206.453,755.847 L 204.732,757.729 C 204.251,758.25 203.811,759.17 203.811,760.372 C 203.811,761.533 204.412,762.015 206.053,762.015 C 207.655,761.975 210.217,761.574 212.179,761.054 C 214.142,760.533 216.464,759.772 217.865,759.171"
   clip-rule="evenodd"
   clip-path="url(#SVGID_10_)"
   transform="matrix(44.999199,0,0,44.999199,-7986.1072,-33518.822)" /><path
   style="fill:#ffffff;fill-rule:evenodd"
   id="path153"
   d="M 220.347,756.729 C 220.547,756.969 220.707,757.25 220.988,757.37 C 221.188,757.489 221.669,757.609 221.869,757.489 C 222.67,757.09 223.19,756.808 223.911,756.369 C 223.951,756.329 223.911,756.209 223.871,756.128 C 223.831,756.089 223.751,756.049 223.671,756.049 C 223.591,756.049 223.51,756.049 223.43,756.089 C 222.99,756.369 222.589,756.73 222.109,756.97 C 221.948,757.05 221.708,757.05 221.548,757.01 C 221.228,756.929 220.947,756.73 220.668,756.61 C 220.588,756.569 220.507,756.49 220.427,756.49 C 220.388,756.49 220.307,756.49 220.267,756.529 C 220.268,756.609 220.308,756.649 220.347,756.729"
   clip-rule="evenodd"
   clip-path="url(#SVGID_12_)"
   transform="matrix(44.999199,0,0,44.999199,-7986.1072,-33518.822)" /><path
   style="fill:#ffffff;fill-rule:evenodd"
   id="path155"
   d="M 224.151,755.208 C 224.151,755.128 224.11,755.007 224.151,754.927 C 224.231,754.847 224.311,754.768 224.431,754.728 C 224.511,754.648 224.631,754.528 224.711,754.608 C 224.832,754.728 224.792,754.927 224.751,755.047 C 224.751,755.128 224.671,755.208 224.592,755.248 C 224.471,755.287 224.391,755.368 224.271,755.368 C 224.191,755.368 224.191,755.248 224.151,755.208"
   clip-rule="evenodd"
   clip-path="url(#SVGID_12_)"
   transform="matrix(44.999199,0,0,44.999199,-7986.1072,-33518.822)" /><path
   style="fill:#ffffff;fill-rule:evenodd"
   id="path157"
   d="M 226.233,754.806 C 226.754,754.487 227.194,754.085 227.715,753.805 C 228.115,753.566 228.516,753.406 228.916,753.245 C 229.196,753.164 229.516,753.124 229.757,753.004 C 229.797,753.004 229.836,752.884 229.797,752.884 C 229.636,752.804 229.396,752.844 229.236,752.844 C 228.876,752.884 228.516,752.924 228.195,753.044 C 227.755,753.205 227.314,753.405 226.914,753.646 C 226.393,753.925 225.953,754.246 225.512,754.607 C 225.472,754.647 225.392,754.727 225.432,754.727 C 225.632,754.806 225.873,754.806 226.073,754.806 C 226.114,754.806 226.193,754.846 226.233,754.806"
   clip-rule="evenodd"
   clip-path="url(#SVGID_12_)"
   transform="matrix(44.999199,0,0,44.999199,-7986.1072,-33518.822)" />









</svg>