<?xml version="1.0" encoding="UTF-8" standalone="no"?>
<!-- Created with Inkscape (http://www.inkscape.org/) -->
<svg
   xmlns:svg="http://www.w3.org/2000/svg"
   xmlns="http://www.w3.org/2000/svg"
   version="1.0"
   width="200"
   height="102.82565"
   id="svg2211">
  <defs
     id="defs2214" />
  <g
     transform="matrix(0.1962243,0,0,0.1962243,-0.5412383,-0.9594346)"
     id="g2398">
    <path
       d="M 469.84657,527.89767 C 426.56039,524.56412 381.1943,502.77054 354.37792,472.42726 C 347.42529,464.56023 337.68821,451.26213 334.94181,445.88305 L 333.0951,442.2661 L 338.11506,439.53389 C 340.87604,438.03118 343.29718,436.96385 343.49538,437.16205 C 343.69358,437.36025 346.19707,441.11737 349.05868,445.5112 C 371.24878,479.58273 407.67684,503.76868 450.82289,513.07627 C 465.94163,516.33774 494.73669,516.86853 510.5,514.17634 C 554.12618,506.72549 593.11474,481.12409 617.71001,443.77807 C 649.32249,395.77699 653.62828,334.63391 628.99706,283.5 C 620.29032,265.42499 605.6874,246.00084 591.66606,233.84398 C 579.3512,223.16668 580.28473,224.89997 583.96668,219.54843 C 585.7293,216.98655 587.55158,215.02762 588.0162,215.19524 C 590.57317,216.1177 607.18406,231.43809 613.66606,238.85236 C 634.27411,262.42434 647.95517,290.21333 654.19079,321.16621 C 656.13616,330.82285 656.47404,335.60754 656.47404,353.5 C 656.47404,376.79112 654.85963,388.04892 648.81239,406.92715 C 629.57157,466.99305 579.71088,512.268 518.79209,524.98937 C 510.98857,526.61894 484.88675,529.32575 481.5,528.85663 C 480.95,528.78044 475.70596,528.34891 469.84657,527.89767 z "
       style="fill:#00ab25;fill-opacity:1"
       id="path2391" />
    <path
       d="M 405.40476,367.56733 C 380.11088,361.84652 360.13398,342.47576 353.25511,317 C 350.65272,307.36213 350.9844,284.32806 353.88064,273.55802 C 360.93217,247.33607 379.53626,228.34116 405,221.36478 C 414.3746,218.7964 434.77522,219.02223 445.14353,221.80918 C 469.34369,228.31405 486.04487,244.6513 491.62964,267.28234 C 492.5256,270.91302 492.9865,274.5928 492.65387,275.45962 C 492.12232,276.84481 489.11147,277.00323 467.79101,276.76783 L 443.53294,276.5 L 442.94524,273 C 441.47551,264.24708 435.90297,258.90528 427.51616,258.20978 C 418.00855,257.42134 411.15587,262.84649 406.81925,274.59516 C 404.97072,279.60317 404.63612,282.62633 404.61622,294.5 C 404.59548,306.8766 404.86607,309.19574 406.94977,314.5 C 411.54155,326.18879 419.9932,331.43873 430.45105,329.09837 C 437.15686,327.59767 441.09721,323.53976 443.62001,315.53651 L 445.36524,310 L 469.27646,310 L 493.18768,310 L 492.47452,315.25 C 489.11501,339.98142 471.3982,359.77693 446.5,366.61867 C 438.3152,368.86776 413.66987,369.43668 405.40476,367.56733 z "
       style="fill:#000000"
       id="path2287" />
    <path
       d="M 231.5,257.1875 C 207.26516,257.79074 185.20885,273.4116 177.96875,296.84375 C 175.52512,304.75241 175.3565,318.66644 177.59375,327.34375 C 182.39363,345.96022 197.96159,361.39634 217,366.40625 C 224.18944,368.29813 240.0431,368.37431 246.96875,366.53125 C 266.3373,361.37684 282.35212,345.34523 287.5,326 C 289.42231,318.77616 289.3824,306.32077 287.40625,298.65625 C 282.34739,279.03531 265.18105,262.68872 245.125,258.4375 C 240.56907,257.47179 235.98793,257.07579 231.5,257.1875 z M 232.4375,286 C 236.91319,286 240.27734,288.91798 243.0625,295.21875 C 245.05526,299.72689 245.39313,302.1936 245.4375,312 C 245.4985,325.48614 243.62352,332.44683 238.84375,336.46875 C 232.81782,341.53924 225.08028,338.54519 221.46875,329.75 C 220.37827,327.09435 219.55601,321.68258 219.25,315.34375 C 218.39942,297.72462 223.65877,286 232.4375,286 z "
       style="fill:#000000"
       id="path2285" />
    <path
       d="M 555.0625,257.46875 C 548.54735,257.53977 541.97637,258.47716 536.6875,260.3125 C 516.81261,267.20945 502.57752,282.84266 498.9375,301.78125 C 497.27047,310.45458 498.22932,324.00623 501.03125,331.5 C 507.52095,348.85667 521.57355,361.78075 539,366.40625 C 546.60784,368.4256 563.22752,368.40408 570.0625,366.375 C 598.90931,357.81133 616.76953,328.176 610.0625,300 C 605.6825,281.59977 591.59976,266.3764 573,259.9375 C 568.02166,258.21409 561.57765,257.39773 555.0625,257.46875 z M 554.65625,286.125 C 556.76521,286.10598 558.88652,286.88435 560.84375,288.53125 C 565.82207,292.72023 567.5,298.73953 567.5,312.5 C 567.5,325.92694 566.40408,330.32864 561.78125,335.59375 C 559.36739,338.34299 558.06017,339 555.03125,339 C 552.80734,339 550.25689,338.19199 548.78125,337.03125 C 540.60397,330.59899 538.57315,304.64733 545.3125,292.65625 C 547.69956,288.40905 551.14131,286.1567 554.65625,286.125 z "
       style="fill:#000000"
       id="path2281" />
    <path
       d="M 908.9375,257.21875 C 894.29178,257.10075 879.31769,262.5625 867.375,274.46875 C 856.94308,284.86883 851.74202,297.92686 851.84375,313.40625 C 852.00905,338.56481 868.30413,359.79955 892.59375,366.46875 C 899.4203,368.34312 916.25654,368.34729 923.46875,366.46875 C 940.56955,362.01455 956.00324,347.63985 962.09375,330.46875 C 965.05462,322.12114 965.71427,308.40797 963.59375,300 C 956.80219,273.07115 933.34704,257.41542 908.9375,257.21875 z M 907.96875,286.09375 C 909.53736,286.0893 911.18491,286.57647 913.03125,287.53125 C 923.52836,292.95952 925.15293,325.35488 915.4375,335.65625 C 912.86165,338.38745 911.52602,339 908.25,339 C 904.91747,339 903.69867,338.41824 901.21875,335.59375 C 896.59594,330.32865 895.5,325.92694 895.5,312.5 C 895.5,298.73953 897.17794,292.72023 902.15625,288.53125 C 904.08872,286.90519 905.95197,286.09947 907.96875,286.09375 z "
       style="fill:#000000"
       id="path2277" />
    <path
       d="M 35,224 L 35,295.5625 L 35,367.09375 L 76.25,366.8125 L 117.5,366.5 L 126.84375,363.25 C 139.23401,358.92394 144.20666,355.91251 152,348.0625 C 162.56596,337.41969 167.98988,324.45999 170.03125,305 C 171.20465,293.81424 170.54995,283.70667 167.875,272.03125 C 162.28576,247.63579 147.27102,232.06434 123.4375,225.96875 C 116.33727,224.15281 112.29252,224 75.34375,224 L 35,224 z M 86,263 L 93.3125,263 C 110.79117,263 119.49285,273.89866 119.28125,295.5 C 119.14187,309.72848 114.09411,320.85412 105.90625,325.03125 C 103.43118,326.29393 98.943732,327.30387 93.96875,327.6875 L 86,328.28125 L 86,295.65625 L 86,263 z "
       style="fill:#000000"
       id="path2273" />
    <path
       d="M 686,295.51989 L 686,224 L 716.453,224 L 746.90599,224 L 747.79444,227.25 C 748.28308,229.0375 752.45214,245.95569 757.059,264.84598 C 762.65681,287.79956 765.68894,298.57965 766.20033,297.34598 C 766.95423,295.52729 784,225.90852 784,224.64813 C 784,224.29166 797.725,224 814.5,224 L 845,224 L 845,295.5 L 845,367 L 824.01097,367 L 803.02194,367 L 802.76097,325.36126 L 802.5,283.72253 L 793.6664,321.61126 C 788.80792,342.45007 784.40307,361.1875 783.87786,363.25 L 782.92291,367 L 765.59136,367 L 748.25981,367 L 746.2331,358.25 C 745.11841,353.4375 740.89745,335.11452 736.85319,317.53226 L 729.5,285.56453 L 729,326.03226 L 728.5,366.5 L 707.25,366.76989 L 686,367.03978 L 686,295.51989 z "
       style="fill:#000000"
       id="path2269" />
    <path
       d="M 35,162.5 L 35,127 L 44.937442,127 L 54.874884,127 L 64.687442,144.23051 L 74.5,161.46103 L 74.773614,144.23051 L 75.047228,127 L 85.023614,127 L 95,127 L 95,162.5 L 95,198 L 85.25,197.99025 L 75.5,197.9805 L 65.5,180.24025 L 55.5,162.5 L 55.226926,180.25 L 54.953851,198 L 44.976926,198 L 35,198 L 35,162.5 z "
       style="fill:#000000"
       id="path2267" />
    <path
       d="M 123,171.5 L 123,145 L 113.5,145 L 104,145 L 104,136 L 104,127 L 133.03893,127 L 162.07787,127 L 161.78893,135.75 L 161.5,144.5 L 152.25,144.78753 L 143,145.07505 L 143,171.53753 L 143,198 L 133,198 L 123,198 L 123,171.5 z "
       style="fill:#000000"
       id="path2265" />
    <path
       d="M 186,171.53753 L 186,145.07505 L 176.75,144.78753 L 167.5,144.5 L 167.21107,135.75 L 166.92213,127 L 195.96107,127 L 225,127 L 225,136 L 225,145 L 215.5,145 L 206,145 L 206,171.5 L 206,198 L 196,198 L 186,198 L 186,171.53753 z "
       style="fill:#000000"
       id="path2263" />
    <path
       d="M 672.4375,4.90625 C 664.53193,5.2709494 657.99998,11.525901 658,20.5 C 658,26.443247 660.52335,31.118115 665.25,34 C 669.86115,36.811452 677.68186,36.697526 682,33.75 C 691.77919,27.074826 690.99498,11.54586 680.625,6.625 C 677.8762,5.3206083 675.07269,4.7846835 672.4375,4.90625 z M 720.46875,5.125 C 715.45305,5.1659431 710.37899,7.4160027 707.25,12 C 702.58033,18.841109 705.0305,29.598207 712.25,34 C 714.35483,35.283328 717.27089,36.000001 720.5,36 C 732.46547,36 739.59257,24.370207 734.375,13.375 C 731.76079,7.8659683 726.15321,5.0785978 720.46875,5.125 z M 626.90625,10 C 623.42984,10 615.98892,14.016291 613.75,17.09375 C 611.63023,20.007443 610.43706,26.638015 611.375,30.375 C 612.24271,33.832235 616.79889,39.005319 620.4375,40.65625 C 624.65382,42.569312 632.03935,41.824968 635.875,39.09375 C 642.4563,34.407449 644.41987,24.648686 640.15625,17.75 C 637.77955,13.904414 631.1083,10 626.90625,10 z M 767.03125,10.15625 C 765.00963,10.147394 763.00128,10.72773 760.40625,11.90625 C 748.0991,17.495487 748.11113,35.063442 760.4375,40.65625 C 764.71162,42.595533 772.05311,41.810435 776,39 C 785.62347,32.14749 784.32114,16.781686 773.71875,11.96875 C 771.072,10.767268 769.05287,10.165106 767.03125,10.15625 z M 812.59375,21.3125 C 810.29102,21.313498 807.894,21.840089 805.5625,22.96875 C 793.69749,28.712507 793.60976,45.640136 805.40625,51.15625 C 815.84712,56.038468 828,48.593935 828,37.3125 C 828,27.956872 820.81778,21.308935 812.59375,21.3125 z M 580.40625,21.375 C 572.69813,21.788593 565.78125,27.992145 565.78125,36.9375 C 565.78125,43.088128 568.73135,48.250312 573.84375,51.03125 C 576.46936,52.459488 578.84414,52.924629 582.3125,52.65625 C 596.74128,51.539769 602.25163,33.41253 590.8125,24.6875 C 587.56377,22.209567 583.90994,21.187003 580.40625,21.375 z M 537.875,37.28125 C 533.67463,37.236126 529.40419,38.987785 526,42.5 C 523.11482,45.476751 522.557,46.828899 522.1875,51.9375 C 521.66806,59.118741 524.10808,63.91127 529.84375,67.03125 C 534.40399,69.511856 541.93443,69.18477 545.8125,66.3125 C 554.93433,59.556529 555.50911,47.826101 547.0625,40.71875 C 544.35769,38.442802 541.14196,37.316346 537.875,37.28125 z M 855.8125,37.375 C 852.09737,37.524336 848.35493,39.034595 845.3125,42.21875 C 837.9147,49.961167 839.67814,62.122596 848.90625,67 C 859.33904,72.514119 872,64.874373 872,53.0625 C 872,43.340929 863.98579,37.04646 855.8125,37.375 z M 898.0625,58.40625 C 889.93462,58.271686 882.62502,64.820182 882.625,74 C 882.625,79.932347 885.42501,84.795351 890.5625,87.78125 C 897.92359,92.059509 906.49639,89.697448 911.84375,81.90625 C 913.76532,79.106503 914.09897,77.565745 913.75,73.21875 C 913.23191,66.765031 910.8775,63.272372 904.9375,60.1875 C 902.67901,59.014581 900.33831,58.443928 898.0625,58.40625 z M 495.5,58.5625 C 491.56785,58.5625 489.28411,59.141166 487.28125,60.625 C 477.15331,68.128311 477.54216,82.37147 488.03125,87.75 C 493.44472,90.525884 497.14996,90.589917 502.5,88 C 510.43378,84.159328 513.57864,73.094737 508.75,66 C 504.98311,60.465284 501.61866,58.562499 495.5,58.5625 z M 937.3125,84.125 C 928.91059,84.050702 922.95364,89.63838 922.21875,98.5 C 921.55772,106.4712 925.03578,111.81034 932.6875,114.5625 C 942.26389,118.00692 953,110.43945 953,100.25 C 953,91.236368 947.58692,85.043845 939,84.21875 C 938.41895,84.162918 937.87263,84.129953 937.3125,84.125 z M 456.28125,84.1875 C 455.92556,84.196349 455.58634,84.220491 455.21875,84.25 C 448.67194,84.77556 445.23101,87.151647 442.15625,93.28125 C 440.2818,97.018005 439.96478,98.772121 440.53125,102.125 C 441.42795,107.43255 447.13905,113.83584 452.03125,115 C 458.6547,116.57614 465.32823,114.11696 469.15625,108.75 C 472.31362,104.32329 472.44775,95.417352 469.40625,91.3125 C 465.6581,86.253924 461.61664,84.054767 456.28125,84.1875 z M 420,114 C 410.09668,114 402.62228,122.91778 404.4375,132.59375 C 405.13406,136.30672 410.10527,142.65662 413.4375,144.09375 C 414.56757,144.58113 418.0814,144.85539 421.25,144.6875 C 426.243,144.42296 427.48479,143.92149 430.53125,140.96875 C 440.98927,130.83244 434.41927,114 420,114 z M 974.15625,114 C 964.76606,113.99193 958.84971,119.55188 958.25,128.9375 C 957.83358,135.45474 960.00291,139.8008 965.25,143 C 967.35483,144.28333 970.27089,145 973.5,145 C 982.78746,145 989.00003,138.78746 989,129.5 C 989,120.52092 982.76297,114.0074 974.15625,114 z M 387.15625,147.125 C 385.11417,147.09817 383.07432,147.74065 380.34375,149.0625 C 369.03016,154.53932 368.59003,170.40407 379.5625,176.78125 C 386.92359,181.05951 395.49636,178.69745 400.84375,170.90625 C 402.76532,168.10651 403.09897,166.56574 402.75,162.21875 C 402.2318,155.76362 399.85887,152.25971 393.96875,149.25 C 391.24148,147.85644 389.19833,147.15183 387.15625,147.125 z M 1005.8438,147.4375 C 1002.1076,147.55349 998.32531,149.07511 995.1875,152.3125 C 987.5608,160.18126 989.53438,172.43528 999.21875,177.375 C 1003.4394,179.52784 1011.1632,179.01528 1014.8125,176.3125 C 1019.1184,173.12336 1022,168.11106 1022,163.8125 C 1022,153.72868 1014.0632,147.18232 1005.8438,147.4375 z "
       style="fill:#f40000;fill-opacity:1"
       id="path2261" />
    <path
       d="M 4.2590174,79.798523 C 3.1338825,76.884335 2.5028211,74.206149 2.8566588,73.846998 C 3.9870096,72.699674 28.080556,65.186057 40.5,62.107853 C 83.343992,51.488814 128.44872,46.585358 183,46.616297 C 224.9531,46.640091 255.90154,49.157 291.5,55.440155 C 311.24819,58.925725 346.47472,68.076711 350.7933,70.8431 C 352.55318,71.970434 349.04039,81.56365 346.94228,81.360024 C 346.14903,81.283037 339.2272,79.365456 331.56045,77.098734 C 252.53522,53.734433 132.29563,51.983994 46.5,72.948846 C 33.196208,76.199734 14.744271,81.699846 7.9023587,84.453943 C 6.6758814,84.947641 5.8294602,83.866093 4.2590174,79.798523 z "
       style="fill:#005bbd;fill-opacity:1"
       id="path2245" />
  </g>
</svg>
