<?xml version="1.0" encoding="utf-8"?>
<!-- Generator: Adobe Illustrator 12.0.0, SVG Export Plug-In . SVG Version: 6.00 Build 51448)  -->
<!DOCTYPE svg PUBLIC "-//W3C//DTD SVG 1.1//EN" "http://www.w3.org/Graphics/SVG/1.1/DTD/svg11.dtd" [
	<!ENTITY ns_svg "http://www.w3.org/2000/svg">
	<!ENTITY ns_xlink "http://www.w3.org/1999/xlink">
]>
<svg  version="1.1" id="Layer_1" xmlns="&ns_svg;" xmlns:xlink="&ns_xlink;" width="247.956" height="73.591"
	 viewBox="0 0 247.956 73.591" overflow="visible" enable-background="new 0 0 247.956 73.591" xml:space="preserve">
<path fill="#DE1F27" d="M63.093,37.382c-0.006,2.045-0.116,4.179-0.262,6.188c-0.147,1.949-0.18,4.471-0.506,6.427
	c-1.227,7.48-6.01,10.57-12.199,10.898l-3.212,0.213l-3.212-0.213c-6.192-0.328-10.977-3.418-12.208-10.898
	c-0.32-1.956-0.354-4.478-0.498-6.427c-0.146-2.01-0.26-4.144-0.268-6.188c-0.006-0.256,0-0.421-0.006-0.679
	c0.006-0.259,0-0.518,0.006-0.774c0.008-2.044,0.121-4.181,0.268-6.191c0.144-1.944,0.177-4.467,0.498-6.423
	c1.23-7.485,6.015-10.567,12.208-10.898l3.212-0.113l3.212,0.113c6.189,0.332,10.972,3.414,12.199,10.898
	c0.326,1.956,0.359,4.479,0.506,6.423c0.146,2.01,0.256,4.147,0.262,6.191c0.005,0.257,0.005,0.516,0.005,0.774
	C63.099,36.961,63.099,37.126,63.093,37.382 M87.729,20.171c-2.176-5.908-7.508-11.139-12.583-13.37
	c-1.344-0.815-3.782-1.604-7.287-2.25c-4.594-0.909-11.461-1.486-19.721-1.528c-0.263-0.003-0.527,0-0.791,0
	c-0.149-0.003-0.29-0.003-0.434-0.003c-0.152,0-0.296,0-0.437,0.003c-0.265,0-0.525-0.003-0.793,0
	C37.42,3.064,30.56,3.641,25.959,4.55c-3.5,0.646-5.938,1.435-7.282,2.25c-5.075,2.231-10.416,7.462-12.586,13.37
	c-1.683,4.256-2.297,10.094-2.449,15.367c0,0.382-0.017,0.772-0.006,1.165c-0.011,0.395,0.006,0.689,0.006,1.073
	c0.152,5.272,0.766,11.106,2.449,15.363c2.17,5.91,7.511,11.142,12.586,13.368c1.344,0.818,3.782,1.611,7.282,2.255
	c4.6,0.908,11.461,1.484,19.724,1.527c0.269,0,0.528,0,0.793,0c0.141,0,0.285,0,0.437,0c0.144,0,0.285,0,0.434,0
	c0.263,0,0.528,0,0.791,0c8.26-0.043,15.127-0.619,19.721-1.527c3.505-0.645,5.943-1.437,7.287-2.255
	c5.075-2.227,10.407-7.458,12.583-13.368c1.681-4.257,2.344-10.091,2.499-15.363c0-0.384,0.061-0.679,0.056-1.073
	c0.005-0.393-0.056-0.783-0.056-1.165C90.073,30.265,89.41,24.427,87.729,20.171z M153.665,27.372l21.705-13.951h10.381v-8.8
	h-37.581v8.8h7.895l-27.486,17.729V13.421h8.586v-8.8H95.307v8.8h8.585v46.444h-8.585v8.804h41.857v-8.804h-8.586V43.492
	l8.285-5.324l17.803,21.697h-6.496v8.804h42.404v-8.804h-7.436L153.665,27.372 M244.07,13.41v-8.8h-45.925v8.8h9.461v46.455h-9.461
	v8.804h45.925v-8.804h-9.46V13.41H244.07"/>
<rect fill="none" width="247.956" height="73.591"/>
</svg>
