<?xml version="1.0" encoding="UTF-8" standalone="no"?>
<svg
   xmlns:dc="http://purl.org/dc/elements/1.1/"
   xmlns:cc="http://creativecommons.org/ns#"
   xmlns:rdf="http://www.w3.org/1999/02/22-rdf-syntax-ns#"
   xmlns:svg="http://www.w3.org/2000/svg"
   xmlns="http://www.w3.org/2000/svg"
   xmlns:xlink="http://www.w3.org/1999/xlink"
   xmlns:sodipodi="http://sodipodi.sourceforge.net/DTD/sodipodi-0.dtd"
   xmlns:inkscape="http://www.inkscape.org/namespaces/inkscape"
   version="1.1"
   id="Layer_1"
   x="0px"
   y="0px"
   width="722"
   height="318"
   viewBox="0 0 722 318"
   enable-background="new 0 0 595 841"
   xml:space="preserve">
			<path
   style="fill:#de0029;fill-rule:evenodd"
   inkscape:connector-curvature="0"
   id="path27"
   d="m 695.24038,194.76703 h 4.08601 c 2.094,0 4.36476,0.40792 4.36476,3.04581 0,3.1342 -2.50192,3.26337 -5.22819,3.26337 h -3.22258 v -6.30918 m -3.0866,17.35704 h 3.0866 v -8.53914 h 3.27017 l 5.40495,8.53914 h 3.31776 l -5.6769,-8.7703 c 2.95063,-0.31954 5.22139,-1.81525 5.22139,-5.40496 0,-3.81406 -2.22317,-5.6769 -6.94826,-5.6769 h -7.67571 v 19.85216 z m -7.41057,-9.99406 c 0,-8.13123 6.09162,-14.39962 14.03929,-14.39962 7.85928,0 13.9509,6.26839 13.9509,14.39962 0,8.31479 -6.09162,14.58318 -13.9509,14.58318 -7.94767,0 -14.03929,-6.26839 -14.03929,-14.58318 z M 631.74746,96.553219 v 77.103891 c 0,13.14866 20.00853,13.14866 20.00853,0 V 96.553219 c 0,-14.521992 -20.00853,-14.521992 -20.00853,0 z M 586.14188,225.85742 c -12.72035,0 -24.40049,-7.22021 -24.40049,-21.64702 v -83.29749 c 0,-44.606176 34.30617,-77.01551 74.45241,-77.01551 h 66.08322 c 11.3674,0 19.72299,9.076245 19.72299,21.402262 V 204.67951 c 0,10.92549 -7.22021,21.06913 -24.17613,21.06913 -19.33546,0.007 -82.82838,0.10878 -111.682,0.10878 z m 95.51473,-23.72741 c 0,9.76291 7.81169,17.07829 17.12589,17.07829 9.2666,0 17.0375,-7.31538 17.0375,-17.07829 0,-9.58615 -7.7709,-16.90154 -17.0375,-16.90154 -9.3142,0 -17.12589,7.31539 -17.12589,16.90154 z"
   clip-rule="evenodd"
   clip-path="none" /><path
   style="fill:#de0029;fill-rule:evenodd"
   inkscape:connector-curvature="0"
   id="path29"
   d="M 51.710805,51.91305 3.3125001e-6,42.741624 c 0,0 29.1731596874999,-25.597051 36.3593696874999,-31.872238 7.179412,-6.2887841 21.286685,-13.8081302 49.786774,-9.6813281 33.714683,4.8950535 63.962033,8.6207332 82.576833,11.8705051 20.20569,3.542115 45.78235,19.920148 45.78235,56.211531 V 183.0393 c 0,18.85275 -7.10463,26.29051 -14.80754,32.11699 -7.70971,5.81287 -23.01355,17.15988 -31.64788,22.98635 -8.63433,5.81288 -16.49361,7.49216 -26.05936,-4.83386 -9.56575,-12.33282 -17.21427,-21.02834 -17.21427,-21.02834 v 39.8675 c 0,15.59618 -3.05261,17.22107 -13.03308,24.43447 C 100.8925,284.4213 51.710805,318 51.710805,318 V 51.91305 m 73.269435,11.306214 c 0,0 5.11941,0.938219 11.42859,1.726867 6.41116,0.802244 8.83829,6.091622 8.83829,12.849515 v 89.348324 c 0,8.62073 -2.0668,15.43982 -10.23882,15.43982 -8.16522,0 -10.23202,-6.7307 -10.23202,-15.33784 0,-8.61393 0.20396,-104.026686 0.20396,-104.026686 z"
   clip-rule="evenodd"
   clip-path="none" /><path
   style="fill:#de0029;fill-rule:evenodd"
   inkscape:connector-curvature="0"
   id="path31"
   d="m 256.00451,130.92057 c 0,0 -17.42504,-30.4717 -22.34048,-39.547949 -4.90866,-9.069446 -1.13539,-13.264235 2.79426,-18.145692 3.92964,-4.888254 14.22285,-16.527604 28.38451,-22.34048 14.16846,-5.812876 23.06794,-6.975451 35.36676,-6.975451 h 56.30671 c 14.63077,0 23.47586,9.538555 23.47586,23.040745 V 169.33315 c 0,10.23202 1.20337,11.63935 3.98403,13.25743 4.39195,2.56311 12.29883,-1.16257 12.29883,-1.16257 0,0 -6.92107,7.44456 -9.51137,14.65117 -2.5835,7.2202 -3.46053,13.25743 -12.09486,20.48444 -8.64113,7.2134 -23.47586,9.3074 -31.17877,9.3074 h -16.75196 c -4.45314,0 -20.01533,-3.03222 -20.01533,-16.28965 0,-11.25183 -0.14277,-12.62516 -0.0612,-12.63876 0.27195,0.30594 -4.1132,7.81169 -9.14423,16.83354 -4.54832,8.14483 -16.12648,12.10166 -27.08596,12.10166 -12.82912,0 -27.35791,-5.28257 -35.83587,-18.6148 -10.49718,-16.5276 -13.80814,-39.70432 -15.07269,-48.76697 -1.47532,-10.57195 -0.48951,-13.36621 8.55954,-16.85394 9.04226,-3.50132 27.92221,-10.72153 27.92221,-10.72153 m 13.9577,-5.11941 c 0,0 -6.18001,-18.85955 -7.90687,-25.12114 -2.12799,-7.675714 0.25835,-10.701129 7.44456,-10.701129 h 28.09896 c 7.65532,0 9.12384,2.556305 9.12384,7.913669 v 14.31803 l -36.76049,13.59057 z m 6.05083,20.47765 c 0,0 5.84687,19.30826 7.91367,25.12114 2.06,5.81967 3.46053,6.05763 11.83651,6.05763 7.90687,0 10.95948,0.12917 10.95948,-8.94027 v -32.19178 l -30.70966,9.95328 z"
   clip-rule="evenodd"
   clip-path="none" /><path
   style="fill:#de0029;fill-rule:evenodd"
   inkscape:connector-curvature="0"
   id="path33"
   d="m 481.70047,199.79806 c 0,0 -4.39195,12.79512 -15.35823,19.07711 -10.96628,6.28198 -19.75018,6.98225 -25.12794,6.98225 h -24.19653 c -10.50396,0 -25.13474,-2.5699 -25.13474,-24.21012 v -77.24666 c 0,-18.83916 4.45314,-36.529342 19.08391,-53.974769 14.63078,-17.445427 37.48796,-26.521672 57.23814,-26.521672 h 60.4947 c 16.49361,0 23.2651,9.538556 23.2651,25.127941 v 108.89455 c 0,16.5276 -1.23056,22.09572 -7.07743,30.71646 -5.84687,8.61393 -60.13437,79.34066 -65.51893,86.09175 -5.37776,6.7443 -11.3674,10.00087 -20.93995,3.25657 -9.56575,-6.74429 -66.36197,-44.10987 -66.36197,-44.10987 0,0 5.11941,-12.4212 34.6393,-12.4212 32.11019,0 54.99457,18.83916 54.99457,18.83916 v -60.5015 M 461.68514,96.553219 c 0,-14.521992 20.01533,-14.521992 20.01533,0 v 77.103891 c 0,13.14866 -20.01533,13.14866 -20.01533,0 V 96.553219 z"
   clip-rule="evenodd"
   clip-path="none" /><path
   style="fill:#de0029;fill-rule:evenodd"
   inkscape:connector-curvature="0"
   id="path35"
   d="M 51.710805,51.91305 3.3125001e-6,42.741624 c 0,0 29.1731596874999,-25.597051 36.3593696874999,-31.872238 7.179412,-6.2887841 21.286685,-13.8081302 49.786774,-9.6813281 33.714683,4.8950535 63.962033,8.6207332 82.576833,11.8705051 20.20569,3.542115 45.78235,19.920148 45.78235,56.211531 V 183.0393 c 0,18.85275 -7.10463,26.29051 -14.80754,32.11699 -7.70971,5.81287 -23.01355,17.15988 -31.64788,22.98635 -8.63433,5.81288 -16.49361,7.49216 -26.05936,-4.83386 -9.56575,-12.33282 -17.21427,-21.02834 -17.21427,-21.02834 v 39.8675 c 0,15.59618 -3.05261,17.22107 -13.03308,24.43447 C 100.8925,284.4213 51.710805,318 51.710805,318 V 51.91305 m 73.269435,11.306214 c 0,0 5.11941,0.938219 11.42859,1.726867 6.41116,0.802244 8.83829,6.091622 8.83829,12.849515 v 89.348324 c 0,8.62073 -2.0668,15.43982 -10.23882,15.43982 -8.16522,0 -10.23202,-6.7307 -10.23202,-15.33784 0,-8.61393 0.20396,-104.026686 0.20396,-104.026686 z"
   clip-rule="evenodd"
   clip-path="none" /><path
   style="fill:#de0029;fill-rule:evenodd"
   inkscape:connector-curvature="0"
   id="path37"
   d="m 256.00451,130.92057 c 0,0 -17.42504,-30.4717 -22.34048,-39.547949 -4.90866,-9.069446 -1.13539,-13.264235 2.79426,-18.145692 3.92964,-4.888254 14.22285,-16.527604 28.38451,-22.34048 14.16846,-5.812876 23.06794,-6.975451 35.36676,-6.975451 h 56.30671 c 14.63077,0 23.47586,9.538555 23.47586,23.040745 V 169.33315 c 0,10.23202 1.20337,11.63935 3.98403,13.25743 4.39195,2.56311 12.29883,-1.16257 12.29883,-1.16257 0,0 -6.92107,7.44456 -9.51137,14.65117 -2.5835,7.2202 -3.46053,13.25743 -12.09486,20.48444 -8.64113,7.2134 -23.47586,9.3074 -31.17877,9.3074 h -16.75196 c -4.45314,0 -20.01533,-3.03222 -20.01533,-16.28965 0,-11.25183 -0.14277,-12.62516 -0.0612,-12.63876 0.27195,0.30594 -4.1132,7.81169 -9.14423,16.83354 -4.54832,8.14483 -16.12648,12.10166 -27.08596,12.10166 -12.82912,0 -27.35791,-5.28257 -35.83587,-18.6148 -10.49718,-16.5276 -13.80814,-39.70432 -15.07269,-48.76697 -1.47532,-10.57195 -0.48951,-13.36621 8.55954,-16.85394 9.04226,-3.50132 27.92221,-10.72153 27.92221,-10.72153 m 13.9577,-5.11941 c 0,0 -6.18001,-18.85955 -7.90687,-25.12114 -2.12799,-7.675714 0.25835,-10.701129 7.44456,-10.701129 h 28.09896 c 7.65532,0 9.12384,2.556305 9.12384,7.913669 v 14.31803 l -36.76049,13.59057 z m 6.05083,20.47765 c 0,0 5.84687,19.30826 7.91367,25.12114 2.06,5.81967 3.46053,6.05763 11.83651,6.05763 7.90687,0 10.95948,0.12917 10.95948,-8.94027 v -32.19178 l -30.70966,9.95328 z"
   clip-rule="evenodd"
   clip-path="none" /><path
   style="fill:#de0029;fill-rule:evenodd"
   inkscape:connector-curvature="0"
   id="path39"
   d="m 481.70047,199.79806 c 0,0 -4.39195,12.79512 -15.35823,19.07711 -10.96628,6.28198 -19.75018,6.98225 -25.12794,6.98225 h -24.19653 c -10.50396,0 -25.13474,-2.5699 -25.13474,-24.21012 v -77.24666 c 0,-18.83916 4.45314,-36.529342 19.08391,-53.974769 14.63078,-17.445427 37.48796,-26.521672 57.23814,-26.521672 h 60.4947 c 16.49361,0 23.2651,9.538556 23.2651,25.127941 v 108.89455 c 0,16.5276 -1.23056,22.09572 -7.07743,30.71646 -5.84687,8.61393 -60.13437,79.34066 -65.51893,86.09175 -5.37776,6.7443 -11.3674,10.00087 -20.93995,3.25657 -9.56575,-6.74429 -66.36197,-44.10987 -66.36197,-44.10987 0,0 5.11941,-12.4212 34.6393,-12.4212 32.11019,0 54.99457,18.83916 54.99457,18.83916 v -60.5015 M 461.68514,96.553219 c 0,-14.521992 20.01533,-14.521992 20.01533,0 v 77.103891 c 0,13.14866 -20.01533,13.14866 -20.01533,0 V 96.553219 z"
   clip-rule="evenodd"
   clip-path="none" />
</svg>