<?xml version="1.0" encoding="UTF-8" standalone="no"?>
<svg
   xmlns:dc="http://purl.org/dc/elements/1.1/"
   xmlns:cc="http://creativecommons.org/ns#"
   xmlns:rdf="http://www.w3.org/1999/02/22-rdf-syntax-ns#"
   xmlns:svg="http://www.w3.org/2000/svg"
   xmlns="http://www.w3.org/2000/svg"
   xmlns:sodipodi="http://sodipodi.sourceforge.net/DTD/sodipodi-0.dtd"
   xmlns:inkscape="http://www.inkscape.org/namespaces/inkscape"
   version="1.1"
   id="Layer_1"
   x="0px"
   y="0px"
   width="500.98874"
   height="655.00128"
   viewBox="0 0 500.98874 655.00129"
   enable-background="new 0 0 612 774"
   xml:space="preserve">
<path
   style="fill-rule:evenodd"
   inkscape:connector-curvature="0"
   clip-rule="evenodd"
   d="m 182.57883,461.04477 c -0.27913,0 -0.46944,-0.19031 -0.27913,-0.64707 l 8.12011,-24.91859 c 0.45676,-1.38296 0.9262,-1.38296 1.38296,0 l 8.76718,24.91859 c 0.0888,0.36795 0.0888,0.64707 -0.36794,0.64707 h -17.62318 z m -12.92874,20.3891 c -1.66209,4.61831 -3.5018,8.12011 -7.75217,8.66568 -0.7232,0.1015 -2.01734,0.19032 -2.66441,0.19032 -0.46945,0 -0.83739,0.19031 -0.83739,0.55825 0,0.54557 0.55826,0.73589 1.76359,0.73589 4.32649,0 9.40156,-0.27913 10.41658,-0.27913 1.01501,0 4.98625,0.27913 7.2066,0.27913 0.8247,0 1.38295,-0.19032 1.38295,-0.73589 0,-0.36794 -0.27912,-0.55825 -0.9262,-0.55825 h -0.9262 c -1.57327,0 -3.50179,-0.8247 -3.50179,-2.6771 0,-1.66209 0.45675,-3.86974 1.29414,-6.1789 l 5.53183,-16.32904 c 0.17762,-0.46944 0.45675,-0.74857 0.9262,-0.74857 h 19.83083 c 0.46945,0 0.64707,0.19031 0.83739,0.55826 l 8.57687,22.69825 c 0.55826,1.48446 0,2.30915 -0.54557,2.48678 -0.38063,0.1015 -0.64707,0.27913 -0.64707,0.64707 0,0.55826 1.01501,0.55826 2.76591,0.64707 6.35653,0.19032 13.10637,0.19032 14.48933,0.19032 1.01501,0 1.83971,-0.19032 1.83971,-0.73589 0,-0.46944 -0.36794,-0.55825 -0.9262,-0.55825 -0.91351,0 -2.29647,-0.0888 -3.69211,-0.54557 -1.92853,-0.55826 -4.60563,-2.04272 -7.9298,-10.25165 -5.63333,-14.01988 -20.12266,-52.13366 -21.50561,-55.63545 -1.10383,-2.86742 -1.47177,-3.32418 -2.03003,-3.32418 -0.54557,0 -0.91351,0.54557 -2.01734,3.6033 l -20.96004,57.29755 z"
   id="path3"
   clip-path="none" /><path
   style="fill:none;stroke:#000000;stroke-width:1.52252114"
   inkscape:connector-curvature="0"
   d="m 182.57883,461.04477 c -0.27913,0 -0.46944,-0.19031 -0.27913,-0.64707 l 8.12011,-24.91859 c 0.45676,-1.38296 0.9262,-1.38296 1.38296,0 l 8.76718,24.91859 c 0.0888,0.36795 0.0888,0.64707 -0.36794,0.64707 h -17.62318 z m -12.92874,20.3891 c -1.66209,4.61831 -3.5018,8.12011 -7.75217,8.66568 -0.7232,0.1015 -2.01734,0.19032 -2.66441,0.19032 -0.46945,0 -0.83739,0.19031 -0.83739,0.55825 0,0.54557 0.55826,0.73589 1.76359,0.73589 4.32649,0 9.40156,-0.27913 10.41658,-0.27913 1.01501,0 4.98625,0.27913 7.2066,0.27913 0.8247,0 1.38295,-0.19032 1.38295,-0.73589 0,-0.36794 -0.27912,-0.55825 -0.9262,-0.55825 h -0.9262 c -1.57327,0 -3.50179,-0.8247 -3.50179,-2.6771 0,-1.66209 0.45675,-3.86974 1.29414,-6.1789 l 5.53183,-16.32904 c 0.17762,-0.46944 0.45675,-0.74857 0.9262,-0.74857 h 19.83083 c 0.46945,0 0.64707,0.19031 0.83739,0.55826 l 8.57687,22.69825 c 0.55826,1.48446 0,2.30915 -0.54557,2.48678 -0.38063,0.1015 -0.64707,0.27913 -0.64707,0.64707 0,0.55826 1.01501,0.55826 2.76591,0.64707 6.35653,0.19032 13.10637,0.19032 14.48933,0.19032 1.01501,0 1.83971,-0.19032 1.83971,-0.73589 0,-0.46944 -0.36794,-0.55825 -0.9262,-0.55825 -0.91351,0 -2.29647,-0.0888 -3.69211,-0.54557 -1.92853,-0.55826 -4.60563,-2.04272 -7.9298,-10.25165 -5.63333,-14.01988 -20.12266,-52.13366 -21.50561,-55.63545 -1.10383,-2.86742 -1.47177,-3.32418 -2.03003,-3.32418 -0.54557,0 -0.91351,0.54557 -2.01734,3.6033 l -20.96004,57.29755 z"
   id="path5"
   clip-path="none" /><path
   inkscape:connector-curvature="0"
   d="m 249.67126,448.58548 c 0,-14.40052 0,-16.97611 0.19032,-19.93234 0.17762,-3.23536 0.9262,-4.79594 3.59061,-5.26539 1.11651,-0.17763 2.39797,-0.27913 3.05773,-0.27913 0.36794,0 0.7232,-0.17762 0.7232,-0.54557 0,-0.55826 -0.45676,-0.73588 -1.47178,-0.73588 -2.76591,0 -9.50306,0.26644 -9.95982,0.26644 -0.45676,0 -6.2804,-0.26644 -10.42927,-0.26644 -1.01501,0 -1.47177,0.17762 -1.47177,0.73588 0,0.36795 0.36794,0.54557 0.73588,0.54557 0.8247,0 2.39798,0.1015 3.13386,0.27913 3.04504,0.64707 3.78093,2.13153 3.97124,5.26539 0.17763,2.95623 0.17763,5.53182 0.17763,19.93234 v 16.24022 c 0,8.856 0,16.15141 -0.45676,20.02115 -0.36794,2.6771 -0.83738,4.70713 -2.6771,5.07507 -0.82469,0.17763 -1.94121,0.36795 -2.76591,0.36795 -0.55826,0 -0.73588,0.27913 -0.73588,0.55825 0,0.54557 0.45675,0.73589 1.47177,0.73589 2.76591,0 8.20892,-0.27913 9.04631,-0.27913 5.34151,0 11.4316,0.55826 24.72828,0.55826 4.88475,0 5.16388,-0.36794 5.81096,-2.49947 0.73588,-2.6771 1.38295,-8.20893 1.38295,-9.22394 0,-1.01502 -0.0888,-1.38296 -0.54557,-1.38296 -0.55826,0 -0.74857,0.46944 -0.83738,1.19264 -0.27913,1.76359 -1.20533,4.07275 -2.39798,5.54452 -2.20765,2.6771 -6.2804,2.76591 -11.16515,2.76591 -7.19391,0 -9.59188,-0.64707 -11.07634,-2.11884 -1.66209,-1.66209 -2.03003,-7.56186 -2.03003,-21.13767 v -16.41785 z"
   id="path7"
   clip-path="none" /><path
   style="fill:none;stroke:#000000;stroke-width:1.52252114;stroke-miterlimit:3.86400008"
   inkscape:connector-curvature="0"
   stroke-miterlimit="3.864"
   d="m 249.67126,448.58548 c 0,-14.40052 0,-16.97611 0.19032,-19.93234 0.17762,-3.23536 0.9262,-4.79594 3.59061,-5.26539 1.11651,-0.17763 2.39797,-0.27913 3.05773,-0.27913 0.36794,0 0.7232,-0.17762 0.7232,-0.54557 0,-0.55826 -0.45676,-0.73588 -1.47178,-0.73588 -2.76591,0 -9.50306,0.26644 -9.95982,0.26644 -0.45676,0 -6.2804,-0.26644 -10.42927,-0.26644 -1.01501,0 -1.47177,0.17762 -1.47177,0.73588 0,0.36795 0.36794,0.54557 0.73588,0.54557 0.8247,0 2.39798,0.1015 3.13386,0.27913 3.04504,0.64707 3.78093,2.13153 3.97124,5.26539 0.17763,2.95623 0.17763,5.53182 0.17763,19.93234 v 16.24022 c 0,8.856 0,16.15141 -0.45676,20.02115 -0.36794,2.6771 -0.83738,4.70713 -2.6771,5.07507 -0.82469,0.17763 -1.94121,0.36795 -2.76591,0.36795 -0.55826,0 -0.73588,0.27913 -0.73588,0.55825 0,0.54557 0.45675,0.73589 1.47177,0.73589 2.76591,0 8.20892,-0.27913 9.04631,-0.27913 5.34151,0 11.4316,0.55826 24.72828,0.55826 4.88475,0 5.16388,-0.36794 5.81096,-2.49947 0.73588,-2.6771 1.38295,-8.20893 1.38295,-9.22394 0,-1.01502 -0.0888,-1.38296 -0.54557,-1.38296 -0.55826,0 -0.74857,0.46944 -0.83738,1.19264 -0.27913,1.76359 -1.20533,4.07275 -2.39798,5.54452 -2.20765,2.6771 -6.2804,2.76591 -11.16515,2.76591 -7.19391,0 -9.59188,-0.64707 -11.07634,-2.11884 -1.66209,-1.66209 -2.03003,-7.56186 -2.03003,-21.13767 v -16.41785 z"
   id="path9"
   clip-path="none" /><path
   inkscape:connector-curvature="0"
   d="m 358.5569,423.01981 c -0.17763,-1.7509 -0.45676,-2.48679 -1.10383,-2.48679 -0.63439,0 -1.01502,0.64708 -1.38296,1.47177 l -27.12625,57.94462 -28.23008,-58.03343 c -0.46944,-1.01501 -0.83739,-1.38296 -1.39564,-1.38296 -0.54557,0 -0.8247,0.64708 -1.01502,1.66209 l -6.63565,60.16496 c -0.38063,3.5018 -0.64707,7.1051 -3.69212,7.65067 -1.38295,0.27913 -2.03002,0.27913 -2.76591,0.27913 -0.46944,0 -0.9262,0.19031 -0.9262,0.45675 0,0.64707 0.64707,0.83739 1.57327,0.83739 2.48679,0 6.91479,-0.27913 7.73948,-0.27913 0.74858,0 5.17658,0.27913 8.58956,0.27913 1.10383,0 1.66209,-0.19032 1.66209,-0.83739 0,-0.26644 -0.36795,-0.45675 -0.73589,-0.45675 -0.55826,0 -1.94121,-0.0888 -3.51448,-0.45676 -1.38296,-0.27913 -2.39798,-1.48446 -2.39798,-2.86741 0,-1.56059 0,-3.22267 0.0888,-4.70713 l 3.69211,-42.80822 h 0.36794 c 1.02771,2.48678 11.35547,24.63947 12.19286,26.30155 0.45676,0.91351 8.38656,16.87461 10.78453,21.40411 1.76358,3.32417 2.22034,4.23768 2.86741,4.23768 0.8247,0 1.10383,-0.82469 3.04504,-4.88475 l 22.60944,-47.98479 h 0.27913 l 4.428,47.61685 c 0.17763,1.66208 0.0888,3.22267 -0.38063,3.32417 -0.45676,0.0888 -0.63438,0.27913 -0.63438,0.63438 0,0.46945 0.45675,0.74857 2.57559,0.9262 3.41299,0.27913 13.3855,0.55826 15.41553,0.55826 1.10383,0 1.92853,-0.27913 1.92853,-0.83739 0,-0.36794 -0.26644,-0.45675 -0.73589,-0.45675 -0.9262,0 -3.32417,0 -6.00127,-0.8247 -3.95855,-1.29414 -4.60563,-6.47072 -4.97357,-9.7822 l -6.19158,-56.66316 z"
   id="path11"
   clip-path="none" /><path
   style="fill:none;stroke:#000000;stroke-width:1.52252114;stroke-miterlimit:3.86400008"
   inkscape:connector-curvature="0"
   stroke-miterlimit="3.864"
   d="m 358.5569,423.01981 c -0.17763,-1.7509 -0.45676,-2.48679 -1.10383,-2.48679 -0.63439,0 -1.01502,0.64708 -1.38296,1.47177 l -27.12625,57.94462 -28.23008,-58.03343 c -0.46944,-1.01501 -0.83739,-1.38296 -1.39564,-1.38296 -0.54557,0 -0.8247,0.64708 -1.01502,1.66209 l -6.63565,60.16496 c -0.38063,3.5018 -0.64707,7.1051 -3.69212,7.65067 -1.38295,0.27913 -2.03002,0.27913 -2.76591,0.27913 -0.46944,0 -0.9262,0.19031 -0.9262,0.45675 0,0.64707 0.64707,0.83739 1.57327,0.83739 2.48679,0 6.91479,-0.27913 7.73948,-0.27913 0.74858,0 5.17658,0.27913 8.58956,0.27913 1.10383,0 1.66209,-0.19032 1.66209,-0.83739 0,-0.26644 -0.36795,-0.45675 -0.73589,-0.45675 -0.55826,0 -1.94121,-0.0888 -3.51448,-0.45676 -1.38296,-0.27913 -2.39798,-1.48446 -2.39798,-2.86741 0,-1.56059 0,-3.22267 0.0888,-4.70713 l 3.69211,-42.80822 h 0.36794 c 1.02771,2.48678 11.35547,24.63947 12.19286,26.30155 0.45676,0.91351 8.38656,16.87461 10.78453,21.40411 1.76358,3.32417 2.22034,4.23768 2.86741,4.23768 0.8247,0 1.10383,-0.82469 3.04504,-4.88475 l 22.60944,-47.98479 h 0.27913 l 4.428,47.61685 c 0.17763,1.66208 0.0888,3.22267 -0.38063,3.32417 -0.45676,0.0888 -0.63438,0.27913 -0.63438,0.63438 0,0.46945 0.45675,0.74857 2.57559,0.9262 3.41299,0.27913 13.3855,0.55826 15.41553,0.55826 1.10383,0 1.92853,-0.27913 1.92853,-0.83739 0,-0.36794 -0.26644,-0.45675 -0.73589,-0.45675 -0.9262,0 -3.32417,0 -6.00127,-0.8247 -3.95855,-1.29414 -4.60563,-6.47072 -4.97357,-9.7822 l -6.19158,-56.66316 z"
   id="path13"
   clip-path="none" /><path
   inkscape:connector-curvature="0"
   d="m 117.1358,458.59605 c 0,11.07634 0,20.1861 -0.58364,25.03279 -0.46944,3.33686 -1.04039,5.87439 -3.33686,6.34384 -1.05307,0.22837 -2.42334,0.45675 -3.46373,0.45675 -0.69782,0 -0.9262,0.34257 -0.9262,0.68514 0,0.69782 0.58363,0.9262 1.8524,0.9262 3.45105,0 10.72109,-0.34257 11.06365,-0.34257 0.57095,0 7.84099,0.34257 14.18483,0.34257 1.26876,0 1.83971,-0.34257 1.83971,-0.9262 0,-0.34257 -0.22838,-0.68514 -0.91351,-0.68514 -1.04039,0 -3.57793,-0.22838 -5.18926,-0.45675 -3.46374,-0.46945 -4.16156,-3.00698 -4.50413,-6.34384 -0.57094,-4.84669 -0.57094,-13.95645 -0.57094,-25.03279 v -47.38847 c 0,-1.15458 0.22837,-1.96659 0.91351,-2.19497 1.04039,-0.45675 3.00698,-0.69782 4.96088,-0.69782 2.65172,0 9.69338,-0.45675 15.79616,5.7729 6.11546,6.22964 6.45802,13.95644 6.45802,17.76274 0,10.6069 -8.75449,18.79045 -19.94502,18.79045 -2.42335,0 -3.10848,0.11419 -3.10848,1.04039 0,0.57094 0.68513,0.81201 1.26876,0.81201 0.57095,0.11419 1.83972,0.11419 2.41066,0.11419 16.37979,0 28.36965,-11.07634 28.36965,-27.45613 0,-6.10277 -3.22267,-11.29203 -5.76021,-13.71538 -1.8524,-1.73821 -7.04166,-6.57222 -21.45486,-6.57222 -5.30345,0 -11.98985,0.34257 -14.52739,0.34257 -0.9262,0 -7.84098,-0.34257 -13.03024,-0.34257 -1.26877,0 -1.8524,0.22838 -1.8524,0.91352 0,0.46944 0.46944,0.69782 0.93889,0.69782 1.0277,0 2.99429,0.11419 3.92049,0.34257 3.8063,0.81201 4.71981,2.65172 4.94819,6.57221 0.24107,3.69212 0.24107,6.92747 0.24107,24.90591 v 20.30028 z"
   id="path15"
   clip-path="none" /><path
   style="fill:none;stroke:#000000;stroke-width:1.52252114;stroke-miterlimit:3.86400008"
   inkscape:connector-curvature="0"
   stroke-miterlimit="3.864"
   d="m 117.1358,458.59605 c 0,11.07634 0,20.1861 -0.58364,25.03279 -0.46944,3.33686 -1.04039,5.87439 -3.33686,6.34384 -1.05307,0.22837 -2.42334,0.45675 -3.46373,0.45675 -0.69782,0 -0.9262,0.34257 -0.9262,0.68514 0,0.69782 0.58363,0.9262 1.8524,0.9262 3.45105,0 10.72109,-0.34257 11.06365,-0.34257 0.57095,0 7.84099,0.34257 14.18483,0.34257 1.26876,0 1.83971,-0.34257 1.83971,-0.9262 0,-0.34257 -0.22838,-0.68514 -0.91351,-0.68514 -1.04039,0 -3.57793,-0.22838 -5.18926,-0.45675 -3.46374,-0.46945 -4.16156,-3.00698 -4.50413,-6.34384 -0.57094,-4.84669 -0.57094,-13.95645 -0.57094,-25.03279 v -47.38847 c 0,-1.15458 0.22837,-1.96659 0.91351,-2.19497 1.04039,-0.45675 3.00698,-0.69782 4.96088,-0.69782 2.65172,0 9.69338,-0.45675 15.79616,5.7729 6.11546,6.22964 6.45802,13.95644 6.45802,17.76274 0,10.6069 -8.75449,18.79045 -19.94502,18.79045 -2.42335,0 -3.10848,0.11419 -3.10848,1.04039 0,0.57094 0.68513,0.81201 1.26876,0.81201 0.57095,0.11419 1.83972,0.11419 2.41066,0.11419 16.37979,0 28.36965,-11.07634 28.36965,-27.45613 0,-6.10277 -3.22267,-11.29203 -5.76021,-13.71538 -1.8524,-1.73821 -7.04166,-6.57222 -21.45486,-6.57222 -5.30345,0 -11.98985,0.34257 -14.52739,0.34257 -0.9262,0 -7.84098,-0.34257 -13.03024,-0.34257 -1.26877,0 -1.8524,0.22838 -1.8524,0.91352 0,0.46944 0.46944,0.69782 0.93889,0.69782 1.0277,0 2.99429,0.11419 3.92049,0.34257 3.8063,0.81201 4.71981,2.65172 4.94819,6.57221 0.24107,3.69212 0.24107,6.92747 0.24107,24.90591 v 20.30028 z"
   id="path17"
   clip-path="none" /><path
   style="fill-rule:evenodd"
   inkscape:connector-curvature="0"
   clip-rule="evenodd"
   d="m 68.14868,543.80648 c 0,-14.56545 8.310428,-21.88624 19.424832,-21.88624 10.518083,0 20.224158,8.57687 20.224158,24.55066 0,19.36139 -12.370487,22.82513 -18.35907,22.82513 -11.977166,0 -21.28992,-9.98521 -21.28992,-25.48955 m -6.318463,1.86509 c 0,11.97717 7.58723,26.1493 25.806733,26.1493 16.03722,0 26.55531,-12.30704 26.55531,-27.21506 0,-15.50434 -11.17785,-24.94397 -26.149304,-24.94397 -18.359067,0 -26.212739,15.22521 -26.212739,26.00973 z"
   id="path19"
   clip-path="none" /><path
   inkscape:connector-curvature="0"
   d="m 174.71247,521.4508 c -0.12688,-1.26877 -0.32988,-1.78896 -0.79932,-1.78896 -0.45676,0 -0.73589,0.45675 -1.00233,1.05307 l -19.55171,41.79321 -20.36372,-41.85664 c -0.32988,-0.7232 -0.59632,-0.98964 -1.00232,-0.98964 -0.39332,0 -0.59633,0.45675 -0.7232,1.19264 l -4.79594,43.37916 c -0.26644,2.52485 -0.45676,5.12582 -2.66442,5.51914 -1.00232,0.203 -1.45908,0.203 -1.99196,0.203 -0.32988,0 -0.65976,0.12688 -0.65976,0.32988 0,0.46945 0.45676,0.59633 1.1292,0.59633 1.78897,0 4.98626,-0.19032 5.58258,-0.19032 0.53288,0 3.73018,0.19032 6.19159,0.19032 0.79932,0 1.19264,-0.12688 1.19264,-0.59633 0,-0.203 -0.26644,-0.32988 -0.53288,-0.32988 -0.39332,0 -1.39565,-0.0634 -2.52485,-0.32987 -1.00233,-0.20301 -1.72553,-1.06577 -1.72553,-2.0681 0,-1.1292 0,-2.32184 0.0634,-3.38761 l 2.66441,-30.86911 h 0.26645 c 0.72319,1.78896 8.18355,17.76275 8.77987,18.95539 0.32988,0.65976 6.05202,12.18017 7.77754,15.4409 1.26877,2.38528 1.59865,3.05773 2.06809,3.05773 0.59633,0 0.79933,-0.59632 2.19497,-3.52718 l 16.30367,-34.59929 h 0.203 l 3.18461,34.33285 c 0.13956,1.19264 0.0634,2.33454 -0.26645,2.39797 -0.32988,0.0634 -0.45675,0.20301 -0.45675,0.45676 0,0.34257 0.32988,0.53288 1.8524,0.67245 2.4741,0.203 9.65532,0.39332 11.1144,0.39332 0.79933,0 1.39565,-0.19032 1.39565,-0.59633 0,-0.26644 -0.19032,-0.32988 -0.5202,-0.32988 -0.67244,0 -2.41066,0 -4.3265,-0.59632 -2.86741,-0.93888 -3.33685,-4.65637 -3.6033,-7.05434 l -4.45337,-40.85432 z"
   id="path21"
   clip-path="none" /><path
   style="fill:none;stroke:#000000;stroke-width:1.52252114;stroke-miterlimit:3.86400008"
   inkscape:connector-curvature="0"
   stroke-miterlimit="3.864"
   d="m 174.71247,521.4508 c -0.12688,-1.26877 -0.32988,-1.78896 -0.79932,-1.78896 -0.45676,0 -0.73589,0.45675 -1.00233,1.05307 l -19.55171,41.79321 -20.36372,-41.85664 c -0.32988,-0.7232 -0.59632,-0.98964 -1.00232,-0.98964 -0.39332,0 -0.59633,0.45675 -0.7232,1.19264 l -4.79594,43.37916 c -0.26644,2.52485 -0.45676,5.12582 -2.66442,5.51914 -1.00232,0.203 -1.45908,0.203 -1.99196,0.203 -0.32988,0 -0.65976,0.12688 -0.65976,0.32988 0,0.46945 0.45676,0.59633 1.1292,0.59633 1.78897,0 4.98626,-0.19032 5.58258,-0.19032 0.53288,0 3.73018,0.19032 6.19159,0.19032 0.79932,0 1.19264,-0.12688 1.19264,-0.59633 0,-0.203 -0.26644,-0.32988 -0.53288,-0.32988 -0.39332,0 -1.39565,-0.0634 -2.52485,-0.32987 -1.00233,-0.20301 -1.72553,-1.06577 -1.72553,-2.0681 0,-1.1292 0,-2.32184 0.0634,-3.38761 l 2.66441,-30.86911 h 0.26645 c 0.72319,1.78896 8.18355,17.76275 8.77987,18.95539 0.32988,0.65976 6.05202,12.18017 7.77754,15.4409 1.26877,2.38528 1.59865,3.05773 2.06809,3.05773 0.59633,0 0.79933,-0.59632 2.19497,-3.52718 l 16.30367,-34.59929 h 0.203 l 3.18461,34.33285 c 0.13956,1.19264 0.0634,2.33454 -0.26645,2.39797 -0.32988,0.0634 -0.45675,0.20301 -0.45675,0.45676 0,0.34257 0.32988,0.53288 1.8524,0.67245 2.4741,0.203 9.65532,0.39332 11.1144,0.39332 0.79933,0 1.39565,-0.19032 1.39565,-0.59633 0,-0.26644 -0.19032,-0.32988 -0.5202,-0.32988 -0.67244,0 -2.41066,0 -4.3265,-0.59632 -2.86741,-0.93888 -3.33685,-4.65637 -3.6033,-7.05434 l -4.45337,-40.85432 z"
   id="path23"
   clip-path="none" /><path
   inkscape:connector-curvature="0"
   d="m 199.593,551.59672 c 0,6.3819 0,11.6346 -0.32988,14.42589 -0.26644,1.94121 -0.609,3.40029 -1.92852,3.66673 -0.60901,0.12688 -1.40834,0.26644 -2.00466,0.26644 -0.406,0 -0.53288,0.20301 -0.53288,0.39332 0,0.40601 0.32988,0.53289 1.06577,0.53289 1.99196,0 6.19158,-0.19032 6.3819,-0.19032 0.34256,0 4.5295,0.19032 8.19624,0.19032 0.72319,0 1.05307,-0.19032 1.05307,-0.53289 0,-0.19031 -0.12687,-0.39332 -0.52019,-0.39332 -0.60901,0 -2.06809,-0.13956 -2.99429,-0.26644 -2.00466,-0.26644 -2.39797,-1.72552 -2.60098,-3.66673 -0.32988,-2.79129 -0.32988,-8.04399 -0.32988,-14.42589 v -27.35463 c 0,-0.65976 0.12688,-1.12921 0.53289,-1.25608 0.59632,-0.26644 1.72552,-0.40601 2.85472,-0.40601 1.53521,0 5.59527,-0.26644 9.12244,3.32417 3.52718,3.6033 3.71749,8.05668 3.71749,10.25165 0,6.12814 -5.04969,10.84796 -11.50772,10.84796 -1.39565,0 -1.78896,0.0634 -1.78896,0.59632 0,0.32988 0.39331,0.46944 0.72319,0.46944 0.34257,0.0634 1.06577,0.0634 1.40834,0.0634 9.43963,0 16.35441,-6.39459 16.35441,-15.83422 0,-3.52717 -1.8524,-6.52146 -3.32417,-7.91711 -1.06576,-1.00232 -4.06006,-3.79361 -12.37048,-3.79361 -3.05773,0 -6.91479,0.203 -8.38656,0.203 -0.53288,0 -4.5295,-0.203 -7.52379,-0.203 -0.7232,0 -1.06576,0.12687 -1.06576,0.53288 0,0.26644 0.27912,0.39332 0.54557,0.39332 0.58363,0 1.72552,0.0761 2.2584,0.203 2.19497,0.46944 2.72785,1.53521 2.85473,3.79362 0.13956,2.13153 0.13956,3.99661 0.13956,14.37513 v 11.71073 z"
   id="path25"
   clip-path="none" /><path
   style="fill:none;stroke:#000000;stroke-width:1.52252114;stroke-miterlimit:3.86400008"
   inkscape:connector-curvature="0"
   stroke-miterlimit="3.864"
   d="m 199.593,551.59672 c 0,6.3819 0,11.6346 -0.32988,14.42589 -0.26644,1.94121 -0.609,3.40029 -1.92852,3.66673 -0.60901,0.12688 -1.40834,0.26644 -2.00466,0.26644 -0.406,0 -0.53288,0.20301 -0.53288,0.39332 0,0.40601 0.32988,0.53289 1.06577,0.53289 1.99196,0 6.19158,-0.19032 6.3819,-0.19032 0.34256,0 4.5295,0.19032 8.19624,0.19032 0.72319,0 1.05307,-0.19032 1.05307,-0.53289 0,-0.19031 -0.12687,-0.39332 -0.52019,-0.39332 -0.60901,0 -2.06809,-0.13956 -2.99429,-0.26644 -2.00466,-0.26644 -2.39797,-1.72552 -2.60098,-3.66673 -0.32988,-2.79129 -0.32988,-8.04399 -0.32988,-14.42589 v -27.35463 c 0,-0.65976 0.12688,-1.12921 0.53289,-1.25608 0.59632,-0.26644 1.72552,-0.40601 2.85472,-0.40601 1.53521,0 5.59527,-0.26644 9.12244,3.32417 3.52718,3.6033 3.71749,8.05668 3.71749,10.25165 0,6.12814 -5.04969,10.84796 -11.50772,10.84796 -1.39565,0 -1.78896,0.0634 -1.78896,0.59632 0,0.32988 0.39331,0.46944 0.72319,0.46944 0.34257,0.0634 1.06577,0.0634 1.40834,0.0634 9.43963,0 16.35441,-6.39459 16.35441,-15.83422 0,-3.52717 -1.8524,-6.52146 -3.32417,-7.91711 -1.06576,-1.00232 -4.06006,-3.79361 -12.37048,-3.79361 -3.05773,0 -6.91479,0.203 -8.38656,0.203 -0.53288,0 -4.5295,-0.203 -7.52379,-0.203 -0.7232,0 -1.06576,0.12687 -1.06576,0.53288 0,0.26644 0.27912,0.39332 0.54557,0.39332 0.58363,0 1.72552,0.0761 2.2584,0.203 2.19497,0.46944 2.72785,1.53521 2.85473,3.79362 0.13956,2.13153 0.13956,3.99661 0.13956,14.37513 v 11.71073 z"
   id="path27"
   clip-path="none" /><path
   inkscape:connector-curvature="0"
   d="m 238.48073,549.59206 c 0,9.71876 2.52485,14.37514 5.78558,17.509 4.71982,4.45337 11.44428,4.71981 13.70269,4.71981 3.92049,0 8.91944,-0.67244 13.70269,-4.92282 5.32882,-4.71981 6.12815,-12.71305 6.12815,-19.89427 v -7.11779 c 0,-10.37852 0,-12.2436 0.12687,-14.37513 0.13957,-2.32185 0.67245,-3.46374 2.46141,-3.79362 0.79933,-0.203 1.20533,-0.203 1.66209,-0.203 0.26644,0 0.54557,-0.12688 0.54557,-0.39332 0,-0.40601 -0.34257,-0.53288 -1.06577,-0.53288 -2.00465,0 -5.12582,0.203 -5.59526,0.203 -0.39332,0 -4.06006,-0.203 -7.05435,-0.203 -0.7232,0 -1.06576,0.12687 -1.06576,0.53288 0,0.26644 0.26644,0.39332 0.53288,0.39332 0.59632,0 1.73821,0.0761 2.25841,0.203 2.19496,0.46944 2.74053,1.53521 2.86741,3.79362 0.12688,2.13153 0.12688,3.99661 0.12688,14.37513 v 8.31043 c 0,6.85135 -0.79933,12.51005 -3.85706,16.30366 -2.39797,2.86742 -6.3819,4.79595 -10.44195,4.79595 -3.79362,0 -6.78791,-0.60901 -10.04864,-3.66674 -2.85473,-2.72785 -4.98626,-6.85135 -4.98626,-16.43054 v -9.31276 c 0,-10.37852 0,-12.2436 0.12688,-14.37513 0.13956,-2.32185 0.67244,-3.52718 2.46141,-3.79362 0.79932,-0.12688 1.20533,-0.203 1.66208,-0.203 0.26644,0 0.54557,-0.12688 0.54557,-0.39332 0,-0.40601 -0.34257,-0.53288 -1.06576,-0.53288 -2.00466,0 -5.98859,0.203 -6.59759,0.203 -0.59633,0 -4.65638,-0.203 -7.65067,-0.203 -0.73589,0 -1.06577,0.12687 -1.06577,0.53288 0,0.26644 0.26644,0.39332 0.53288,0.39332 0.59633,0 1.73822,0.0761 2.2711,0.203 2.19497,0.46944 2.71516,1.53521 2.85473,3.79362 0.13956,2.13153 0.13956,3.99661 0.13956,14.37513 v 9.70607 z"
   id="path29"
   clip-path="none" /><path
   style="fill:none;stroke:#000000;stroke-width:1.52252114;stroke-miterlimit:3.86400008"
   inkscape:connector-curvature="0"
   stroke-miterlimit="3.864"
   d="m 238.48073,549.59206 c 0,9.71876 2.52485,14.37514 5.78558,17.509 4.71982,4.45337 11.44428,4.71981 13.70269,4.71981 3.92049,0 8.91944,-0.67244 13.70269,-4.92282 5.32882,-4.71981 6.12815,-12.71305 6.12815,-19.89427 v -7.11779 c 0,-10.37852 0,-12.2436 0.12687,-14.37513 0.13957,-2.32185 0.67245,-3.46374 2.46141,-3.79362 0.79933,-0.203 1.20533,-0.203 1.66209,-0.203 0.26644,0 0.54557,-0.12688 0.54557,-0.39332 0,-0.40601 -0.34257,-0.53288 -1.06577,-0.53288 -2.00465,0 -5.12582,0.203 -5.59526,0.203 -0.39332,0 -4.06006,-0.203 -7.05435,-0.203 -0.7232,0 -1.06576,0.12687 -1.06576,0.53288 0,0.26644 0.26644,0.39332 0.53288,0.39332 0.59632,0 1.73821,0.0761 2.25841,0.203 2.19496,0.46944 2.74053,1.53521 2.86741,3.79362 0.12688,2.13153 0.12688,3.99661 0.12688,14.37513 v 8.31043 c 0,6.85135 -0.79933,12.51005 -3.85706,16.30366 -2.39797,2.86742 -6.3819,4.79595 -10.44195,4.79595 -3.79362,0 -6.78791,-0.60901 -10.04864,-3.66674 -2.85473,-2.72785 -4.98626,-6.85135 -4.98626,-16.43054 v -9.31276 c 0,-10.37852 0,-12.2436 0.12688,-14.37513 0.13956,-2.32185 0.67244,-3.52718 2.46141,-3.79362 0.79932,-0.12688 1.20533,-0.203 1.66208,-0.203 0.26644,0 0.54557,-0.12688 0.54557,-0.39332 0,-0.40601 -0.34257,-0.53288 -1.06576,-0.53288 -2.00466,0 -5.98859,0.203 -6.59759,0.203 -0.59633,0 -4.65638,-0.203 -7.65067,-0.203 -0.73589,0 -1.06577,0.12687 -1.06577,0.53288 0,0.26644 0.26644,0.39332 0.53288,0.39332 0.59633,0 1.73822,0.0761 2.2711,0.203 2.19497,0.46944 2.71516,1.53521 2.85473,3.79362 0.13956,2.13153 0.13956,3.99661 0.13956,14.37513 v 9.70607 z"
   id="path31"
   clip-path="none" /><path
   inkscape:connector-curvature="0"
   d="m 311.77743,523.44276 8.37387,0.13957 c 6.39459,0.12688 7.91711,1.66208 8.18355,3.65405 l 0.0634,0.73588 c 0.0761,0.92621 0.203,1.12921 0.54557,1.12921 0.25375,0 0.45676,-0.26644 0.45676,-0.86276 0,-0.73589 0.203,-5.32883 0.203,-7.32079 0,-0.39332 0,-0.79933 -0.32988,-0.79933 -0.53288,0 -2.33453,0.67245 -6.5849,0.67245 h -24.95666 c -0.79933,0 -3.32417,-0.13956 -5.2527,-0.32988 -1.80165,-0.13956 -2.46141,-0.79932 -2.93085,-0.79932 -0.26645,0 -0.53289,0.86276 -0.65976,1.25608 -0.13957,0.53288 -1.47177,6.25502 -1.47177,6.92747 0,0.39332 0.13956,0.59632 0.32988,0.59632 0.26644,0 0.46944,-0.13957 0.67244,-0.67245 0.20301,-0.46944 0.39332,-0.9262 1.12921,-2.0554 1.06576,-1.59865 2.66441,-2.06809 6.7879,-2.13153 l 9.84564,-0.13957 v 28.15396 c 0,6.3819 0,11.6346 -0.32988,14.42589 -0.26644,1.94121 -0.60901,3.40029 -1.92853,3.66673 -0.60901,0.12688 -1.39564,0.26644 -2.00465,0.26644 -0.39332,0 -0.52019,0.20301 -0.52019,0.39332 0,0.40601 0.32987,0.53289 1.06576,0.53289 1.99197,0 6.1789,-0.19032 6.50878,-0.19032 0.32988,0 4.5295,0.19032 8.19624,0.19032 0.72319,0 1.05307,-0.19032 1.05307,-0.53289 0,-0.19031 -0.12687,-0.39332 -0.53288,-0.39332 -0.59632,0 -2.0554,-0.13956 -2.99429,-0.26644 -1.99197,-0.26644 -2.39797,-1.72552 -2.58829,-3.66673 -0.32988,-2.79129 -0.32988,-8.04399 -0.32988,-14.42589 v -28.15396 z"
   id="path33"
   clip-path="none" /><path
   style="fill:none;stroke:#000000;stroke-width:1.52252114;stroke-miterlimit:3.86400008"
   inkscape:connector-curvature="0"
   stroke-miterlimit="3.864"
   d="m 311.77743,523.44276 8.37387,0.13957 c 6.39459,0.12688 7.91711,1.66208 8.18355,3.65405 l 0.0634,0.73588 c 0.0761,0.92621 0.203,1.12921 0.54557,1.12921 0.25375,0 0.45676,-0.26644 0.45676,-0.86276 0,-0.73589 0.203,-5.32883 0.203,-7.32079 0,-0.39332 0,-0.79933 -0.32988,-0.79933 -0.53288,0 -2.33453,0.67245 -6.5849,0.67245 h -24.95666 c -0.79933,0 -3.32417,-0.13956 -5.2527,-0.32988 -1.80165,-0.13956 -2.46141,-0.79932 -2.93085,-0.79932 -0.26645,0 -0.53289,0.86276 -0.65976,1.25608 -0.13957,0.53288 -1.47177,6.25502 -1.47177,6.92747 0,0.39332 0.13956,0.59632 0.32988,0.59632 0.26644,0 0.46944,-0.13957 0.67244,-0.67245 0.20301,-0.46944 0.39332,-0.9262 1.12921,-2.0554 1.06576,-1.59865 2.66441,-2.06809 6.7879,-2.13153 l 9.84564,-0.13957 v 28.15396 c 0,6.3819 0,11.6346 -0.32988,14.42589 -0.26644,1.94121 -0.60901,3.40029 -1.92853,3.66673 -0.60901,0.12688 -1.39564,0.26644 -2.00465,0.26644 -0.39332,0 -0.52019,0.20301 -0.52019,0.39332 0,0.40601 0.32987,0.53289 1.06576,0.53289 1.99197,0 6.1789,-0.19032 6.50878,-0.19032 0.32988,0 4.5295,0.19032 8.19624,0.19032 0.72319,0 1.05307,-0.19032 1.05307,-0.53289 0,-0.19031 -0.12687,-0.39332 -0.53288,-0.39332 -0.59632,0 -2.0554,-0.13956 -2.99429,-0.26644 -1.99197,-0.26644 -2.39797,-1.72552 -2.58829,-3.66673 -0.32988,-2.79129 -0.32988,-8.04399 -0.32988,-14.42589 v -28.15396 z"
   id="path35"
   clip-path="none" /><path
   inkscape:connector-curvature="0"
   d="m 349.20608,539.88599 c 0,-10.37852 0,-12.2436 0.12688,-14.37513 0.13956,-2.32185 0.67244,-3.46374 2.47409,-3.79362 0.78664,-0.12688 1.19264,-0.203 1.66209,-0.203 0.26644,0 0.53288,-0.12688 0.53288,-0.39332 0,-0.40601 -0.34257,-0.53288 -1.06576,-0.53288 -2.00466,0 -6.19159,0.203 -6.52147,0.203 -0.34257,0 -4.5295,-0.203 -6.72447,-0.203 -0.7232,0 -1.06576,0.12687 -1.06576,0.53288 0,0.26644 0.26644,0.39332 0.53288,0.39332 0.46944,0 1.33221,0.0761 2.06809,0.26644 1.45908,0.32988 2.13153,1.47177 2.25841,3.73018 0.12687,2.13153 0.12687,3.99661 0.12687,14.37513 v 11.71073 c 0,6.3819 0,11.6346 -0.32988,14.42589 -0.26644,1.94121 -0.59632,3.40029 -1.92852,3.66673 -0.59632,0.12688 -1.39565,0.26644 -1.99197,0.26644 -0.39332,0 -0.53288,0.20301 -0.53288,0.39332 0,0.40601 0.32988,0.53289 1.06576,0.53289 1.99197,0 6.1789,-0.19032 6.52147,-0.19032 0.32988,0 4.51681,0.19032 8.18355,0.19032 0.7232,0 1.06577,-0.19032 1.06577,-0.53289 0,-0.19031 -0.13957,-0.39332 -0.53289,-0.39332 -0.60901,0 -2.06809,-0.13956 -2.99429,-0.26644 -2.00465,-0.26644 -2.39797,-1.72552 -2.60097,-3.66673 -0.32988,-2.79129 -0.32988,-8.04399 -0.32988,-14.42589 v -11.71073 z"
   id="path37"
   clip-path="none" /><path
   style="fill:none;stroke:#000000;stroke-width:1.52252114;stroke-miterlimit:3.86400008"
   inkscape:connector-curvature="0"
   stroke-miterlimit="3.864"
   d="m 349.20608,539.88599 c 0,-10.37852 0,-12.2436 0.12688,-14.37513 0.13956,-2.32185 0.67244,-3.46374 2.47409,-3.79362 0.78664,-0.12688 1.19264,-0.203 1.66209,-0.203 0.26644,0 0.53288,-0.12688 0.53288,-0.39332 0,-0.40601 -0.34257,-0.53288 -1.06576,-0.53288 -2.00466,0 -6.19159,0.203 -6.52147,0.203 -0.34257,0 -4.5295,-0.203 -6.72447,-0.203 -0.7232,0 -1.06576,0.12687 -1.06576,0.53288 0,0.26644 0.26644,0.39332 0.53288,0.39332 0.46944,0 1.33221,0.0761 2.06809,0.26644 1.45908,0.32988 2.13153,1.47177 2.25841,3.73018 0.12687,2.13153 0.12687,3.99661 0.12687,14.37513 v 11.71073 c 0,6.3819 0,11.6346 -0.32988,14.42589 -0.26644,1.94121 -0.59632,3.40029 -1.92852,3.66673 -0.59632,0.12688 -1.39565,0.26644 -1.99197,0.26644 -0.39332,0 -0.53288,0.20301 -0.53288,0.39332 0,0.40601 0.32988,0.53289 1.06576,0.53289 1.99197,0 6.1789,-0.19032 6.52147,-0.19032 0.32988,0 4.51681,0.19032 8.18355,0.19032 0.7232,0 1.06577,-0.19032 1.06577,-0.53289 0,-0.19031 -0.13957,-0.39332 -0.53289,-0.39332 -0.60901,0 -2.06809,-0.13956 -2.99429,-0.26644 -2.00465,-0.26644 -2.39797,-1.72552 -2.60097,-3.66673 -0.32988,-2.79129 -0.32988,-8.04399 -0.32988,-14.42589 v -11.71073 z"
   id="path39"
   clip-path="none" /><path
   inkscape:connector-curvature="0"
   d="m 373.84555,529.96423 c 2.13152,2.39797 9.65532,10.78452 17.36942,19.09495 7.05435,7.58723 16.63355,17.36943 17.36943,18.04188 3.52718,3.52717 4.3265,4.25037 4.84669,4.25037 0.48214,0 0.60901,-0.32988 0.60901,-4.71982 l 0.12688,-38.98922 c 0,-3.99662 0.26644,-5.45571 2.46141,-5.92515 0.79932,-0.203 1.26877,-0.203 1.59865,-0.203 0.46944,0 0.73588,-0.19032 0.73588,-0.45676 0,-0.406 -0.46944,-0.46944 -1.20533,-0.46944 -2.71516,0 -4.91013,0.203 -5.64601,0.203 -0.73589,0 -3.93318,-0.203 -6.92747,-0.203 -0.78664,0 -1.33221,0.0634 -1.33221,0.46944 0,0.26644 0.0761,0.45676 0.54557,0.45676 0.52019,0 2.0554,0.0761 3.26073,0.34257 2.05541,0.52019 2.52485,1.99196 2.58829,6.31846 l 0.73588,33.79997 c -2.13153,-2.19497 -9.38888,-10.31508 -15.97378,-17.36943 -10.25164,-10.97484 -20.16072,-21.69593 -21.16304,-22.82513 -0.65976,-0.65976 -1.78897,-2.11884 -2.32185,-2.11884 -0.53288,0 -0.73588,0.72319 -0.73588,3.32417 l -0.0634,38.12646 c 0,6.05203 -0.32988,7.98055 -1.99197,8.45 -1.00232,0.32988 -2.19497,0.39331 -2.72785,0.39331 -0.32988,0 -0.53288,0.12688 -0.53288,0.39332 0,0.46945 0.39332,0.53289 1.06576,0.53289 2.98161,0 5.78558,-0.19032 6.38191,-0.19032 0.59632,0 3.26073,0.19032 7.05434,0.19032 0.79933,0 1.19264,-0.12688 1.19264,-0.53289 0,-0.26644 -0.203,-0.39332 -0.53288,-0.39332 -0.59632,0 -2.0554,-0.0634 -3.32417,-0.39331 -1.80165,-0.53289 -2.46141,-2.2711 -2.60097,-7.7268 l -0.86276,-31.87144 z"
   id="path41"
   clip-path="none" /><path
   style="fill:none;stroke:#000000;stroke-width:1.52252114;stroke-miterlimit:3.86400008"
   inkscape:connector-curvature="0"
   stroke-miterlimit="3.864"
   d="m 373.84555,529.96423 c 2.13152,2.39797 9.65532,10.78452 17.36942,19.09495 7.05435,7.58723 16.63355,17.36943 17.36943,18.04188 3.52718,3.52717 4.3265,4.25037 4.84669,4.25037 0.48214,0 0.60901,-0.32988 0.60901,-4.71982 l 0.12688,-38.98922 c 0,-3.99662 0.26644,-5.45571 2.46141,-5.92515 0.79932,-0.203 1.26877,-0.203 1.59865,-0.203 0.46944,0 0.73588,-0.19032 0.73588,-0.45676 0,-0.406 -0.46944,-0.46944 -1.20533,-0.46944 -2.71516,0 -4.91013,0.203 -5.64601,0.203 -0.73589,0 -3.93318,-0.203 -6.92747,-0.203 -0.78664,0 -1.33221,0.0634 -1.33221,0.46944 0,0.26644 0.0761,0.45676 0.54557,0.45676 0.52019,0 2.0554,0.0761 3.26073,0.34257 2.05541,0.52019 2.52485,1.99196 2.58829,6.31846 l 0.73588,33.79997 c -2.13153,-2.19497 -9.38888,-10.31508 -15.97378,-17.36943 -10.25164,-10.97484 -20.16072,-21.69593 -21.16304,-22.82513 -0.65976,-0.65976 -1.78897,-2.11884 -2.32185,-2.11884 -0.53288,0 -0.73588,0.72319 -0.73588,3.32417 l -0.0634,38.12646 c 0,6.05203 -0.32988,7.98055 -1.99197,8.45 -1.00232,0.32988 -2.19497,0.39331 -2.72785,0.39331 -0.32988,0 -0.53288,0.12688 -0.53288,0.39332 0,0.46945 0.39332,0.53289 1.06576,0.53289 2.98161,0 5.78558,-0.19032 6.38191,-0.19032 0.59632,0 3.26073,0.19032 7.05434,0.19032 0.79933,0 1.19264,-0.12688 1.19264,-0.53289 0,-0.26644 -0.203,-0.39332 -0.53288,-0.39332 -0.59632,0 -2.0554,-0.0634 -3.32417,-0.39331 -1.80165,-0.53289 -2.46141,-2.2711 -2.60097,-7.7268 l -0.86276,-31.87144 z"
   id="path43"
   clip-path="none" /><path
   inkscape:connector-curvature="0"
   d="m 467.5821,565.23597 c 0,1.1292 -0.46945,1.86509 -1.33221,2.32184 -1.72552,1.00233 -5.18926,1.39565 -7.58723,1.39565 -6.11546,0 -12.18017,-1.99197 -17.43287,-7.11779 -2.32184,-2.2584 -7.04166,-9.04631 -7.04166,-18.4225 0,-7.79024 2.71517,-13.84226 6.58491,-16.89999 5.04969,-3.99662 10.03595,-4.40262 14.23557,-4.40262 8.58956,0 13.96913,2.86741 15.63122,5.39226 1.00232,1.59865 1.3322,3.46374 1.40833,4.38994 0.0634,0.60901 0.12687,1.00232 0.45675,1.00232 0.46945,0 0.59632,-0.32988 0.59632,-1.39564 0,-6.66103 0.46945,-8.51343 0.46945,-9.45232 0,-0.26644 -0.13957,-0.53288 -0.79932,-0.59632 -1.66209,-0.0634 -3.98394,-0.32988 -5.39227,-0.65976 -1.25608,-0.26644 -5.97589,-1.1292 -10.17551,-1.1292 -5.12582,0 -11.71073,0.45675 -17.69931,4.18693 -5.92515,3.73018 -11.11441,11.24128 -11.11441,21.88624 0,8.32312 3.85706,15.4409 7.91711,18.96808 7.39692,6.44534 16.83655,7.11778 21.89893,7.11778 3.85706,0 9.84564,-0.73588 14.09601,-2.99429 0.79932,-0.46944 0.87545,-0.59632 0.87545,-3.59061 v -7.46035 c 0,-2.79129 0,-4.78326 0.12688,-6.91479 0.12687,-2.32184 0.65976,-3.46373 2.46141,-3.79361 0.79932,-0.12688 1.19264,-0.20301 1.66208,-0.20301 0.26644,0 0.53288,-0.12687 0.53288,-0.39331 0,-0.40601 -0.32987,-0.53289 -1.06576,-0.53289 -1.99197,0 -6.19159,0.20301 -6.52147,0.20301 -0.32988,0 -4.51681,-0.20301 -7.5111,-0.20301 -0.73589,0 -1.06576,0.12688 -1.06576,0.53289 0,0.26644 0.26644,0.39331 0.53288,0.39331 0.59632,0 1.72552,0.0761 2.2584,0.20301 2.66442,0.73588 2.9943,1.47177 2.9943,6.85134 v 11.31741 z"
   id="path45"
   clip-path="none" /><path
   style="fill:none;stroke:#000000;stroke-width:1.52252114;stroke-miterlimit:3.86400008"
   inkscape:connector-curvature="0"
   stroke-miterlimit="3.864"
   d="m 467.5821,565.23597 c 0,1.1292 -0.46945,1.86509 -1.33221,2.32184 -1.72552,1.00233 -5.18926,1.39565 -7.58723,1.39565 -6.11546,0 -12.18017,-1.99197 -17.43287,-7.11779 -2.32184,-2.2584 -7.04166,-9.04631 -7.04166,-18.4225 0,-7.79024 2.71517,-13.84226 6.58491,-16.89999 5.04969,-3.99662 10.03595,-4.40262 14.23557,-4.40262 8.58956,0 13.96913,2.86741 15.63122,5.39226 1.00232,1.59865 1.3322,3.46374 1.40833,4.38994 0.0634,0.60901 0.12687,1.00232 0.45675,1.00232 0.46945,0 0.59632,-0.32988 0.59632,-1.39564 0,-6.66103 0.46945,-8.51343 0.46945,-9.45232 0,-0.26644 -0.13957,-0.53288 -0.79932,-0.59632 -1.66209,-0.0634 -3.98394,-0.32988 -5.39227,-0.65976 -1.25608,-0.26644 -5.97589,-1.1292 -10.17551,-1.1292 -5.12582,0 -11.71073,0.45675 -17.69931,4.18693 -5.92515,3.73018 -11.11441,11.24128 -11.11441,21.88624 0,8.32312 3.85706,15.4409 7.91711,18.96808 7.39692,6.44534 16.83655,7.11778 21.89893,7.11778 3.85706,0 9.84564,-0.73588 14.09601,-2.99429 0.79932,-0.46944 0.87545,-0.59632 0.87545,-3.59061 v -7.46035 c 0,-2.79129 0,-4.78326 0.12688,-6.91479 0.12687,-2.32184 0.65976,-3.46373 2.46141,-3.79361 0.79932,-0.12688 1.19264,-0.20301 1.66208,-0.20301 0.26644,0 0.53288,-0.12687 0.53288,-0.39331 0,-0.40601 -0.32987,-0.53289 -1.06576,-0.53289 -1.99197,0 -6.19159,0.20301 -6.52147,0.20301 -0.32988,0 -4.51681,-0.20301 -7.5111,-0.20301 -0.73589,0 -1.06576,0.12688 -1.06576,0.53289 0,0.26644 0.26644,0.39331 0.53288,0.39331 0.59632,0 1.72552,0.0761 2.2584,0.20301 2.66442,0.73588 2.9943,1.47177 2.9943,6.85134 v 11.31741 z"
   id="path47"
   clip-path="none" /><path
   inkscape:connector-curvature="0"
   d="m 38.434143,575.81749 c 5.328824,0 11.659974,-0.58363 14.984145,-1.90315 1.497146,-0.67245 1.662086,-0.83739 2.169593,-2.42335 0.824699,-2.82935 1.827025,-10.07401 1.827025,-10.65764 0,-0.65976 -0.16494,-1.2434 -0.583633,-1.2434 -0.49482,0 -0.659759,0.32988 -0.837387,1.2434 -0.241066,1.49714 -1.332206,5.16388 -3.070417,6.99091 -3.336859,3.41298 -8.24699,4.16155 -14.489326,4.16155 -17.826185,0 -30.0571048,-14.56545 -30.0571048,-30.46311 0,-8.50074 1.408332,-15.91034 7.4984168,-21.73399 2.905478,-2.82935 8.069362,-6.07739 19.145703,-6.07739 7.320789,0 13.740753,2.24572 16.658918,4.74519 2.156905,1.82702 3.489111,5.24001 3.489111,8.48805 0,1.16727 0.08881,1.7509 0.672447,1.7509 0.494819,0 0.659759,-0.49482 0.748573,-1.7509 0.07613,-1.24339 0.07613,-5.82364 0.241066,-8.57687 0.16494,-2.99429 0.418693,-3.99661 0.418693,-4.65637 0,-0.50751 -0.16494,-0.83739 -1.078452,-0.91352 -2.664412,-0.17762 -5.328824,-0.67244 -8.500743,-1.25608 -4.072744,-0.74857 -8.741809,-1.00232 -12.06598,-1.00232 -12.827241,0 -20.401783,3.92049 -25.400727,8.91943 -7.4096032,7.40961 -9.32544231,17.14105 -9.32544231,22.72363 0,7.91711 2.00465281,17.40749 10.07401431,24.65216 6.584904,5.91245 14.984146,8.98287 27.481507,8.98287 z"
   id="path49"
   clip-path="none" /><path
   style="fill:none;stroke:#000000;stroke-width:1.52252114;stroke-miterlimit:3.86400008"
   inkscape:connector-curvature="0"
   stroke-miterlimit="3.864"
   d="m 38.434143,575.81749 c 5.328824,0 11.659974,-0.58363 14.984145,-1.90315 1.497146,-0.67245 1.662086,-0.83739 2.169593,-2.42335 0.824699,-2.82935 1.827025,-10.07401 1.827025,-10.65764 0,-0.65976 -0.16494,-1.2434 -0.583633,-1.2434 -0.49482,0 -0.659759,0.32988 -0.837387,1.2434 -0.241066,1.49714 -1.332206,5.16388 -3.070417,6.99091 -3.336859,3.41298 -8.24699,4.16155 -14.489326,4.16155 -17.826185,0 -30.0571048,-14.56545 -30.0571048,-30.46311 0,-8.50074 1.408332,-15.91034 7.4984168,-21.73399 2.905478,-2.82935 8.069362,-6.07739 19.145703,-6.07739 7.320789,0 13.740753,2.24572 16.658918,4.74519 2.156905,1.82702 3.489111,5.24001 3.489111,8.48805 0,1.16727 0.08881,1.7509 0.672447,1.7509 0.494819,0 0.659759,-0.49482 0.748573,-1.7509 0.07613,-1.24339 0.07613,-5.82364 0.241066,-8.57687 0.16494,-2.99429 0.418693,-3.99661 0.418693,-4.65637 0,-0.50751 -0.16494,-0.83739 -1.078452,-0.91352 -2.664412,-0.17762 -5.328824,-0.67244 -8.500743,-1.25608 -4.072744,-0.74857 -8.741809,-1.00232 -12.06598,-1.00232 -12.827241,0 -20.401783,3.92049 -25.400727,8.91943 -7.4096032,7.40961 -9.32544231,17.14105 -9.32544231,22.72363 0,7.91711 2.00465281,17.40749 10.07401431,24.65216 6.584904,5.91245 14.984146,8.98287 27.481507,8.98287 z"
   id="path51"
   clip-path="none" /><path
   inkscape:connector-curvature="0"
   d="m 129.74735,622.27976 c 0,-10.37852 0,-12.24361 0.13956,-14.37514 0.12688,-2.32184 0.65976,-3.45104 2.58829,-3.78092 0.79932,-0.13957 1.73821,-0.20301 2.19497,-0.20301 0.26644,0 0.53288,-0.13956 0.53288,-0.406 0,-0.39332 -0.32988,-0.53288 -1.06577,-0.53288 -1.99196,0 -6.85134,0.203 -7.18122,0.203 -0.34257,0 -4.5295,-0.203 -7.51111,-0.203 -0.73588,0 -1.07845,0.13956 -1.07845,0.53288 0,0.26644 0.27913,0.406 0.53288,0.406 0.60901,0 1.73822,0.0634 2.2711,0.20301 2.19497,0.45675 2.72785,1.52252 2.85472,3.78092 0.13957,2.13153 0.13957,3.99662 0.13957,14.37514 v 11.71073 c 0,6.39458 0,11.64728 -0.32988,14.43857 -0.26644,1.92853 -0.60901,3.4003 -1.94121,3.65405 -0.59633,0.13957 -1.39565,0.27913 -1.99197,0.27913 -0.39332,0 -0.53288,0.19032 -0.53288,0.39332 0,0.39332 0.32988,0.53288 1.06576,0.53288 1.99197,0 5.92515,-0.203 6.52147,-0.203 3.85705,0 8.24699,0.406 17.82618,0.406 3.52718,0 3.73018,-0.26644 4.19962,-1.80165 0.53289,-1.92852 1.00233,-5.92514 1.00233,-6.64834 0,-0.73588 -0.0761,-1.00233 -0.40601,-1.00233 -0.406,0 -0.53288,0.32988 -0.59632,0.86277 -0.203,1.26876 -0.86276,2.93085 -1.73821,3.99661 -1.59865,1.92853 -4.51681,1.99197 -8.04398,1.99197 -5.18926,0 -6.91479,-0.46944 -7.98055,-1.52252 -1.20533,-1.20533 -1.47177,-5.4557 -1.47177,-15.2379 v -11.85029 z"
   id="path53"
   clip-path="none" /><path
   style="fill:none;stroke:#000000;stroke-width:1.52252114;stroke-miterlimit:3.86400008"
   inkscape:connector-curvature="0"
   stroke-miterlimit="3.864"
   d="m 129.74735,622.27976 c 0,-10.37852 0,-12.24361 0.13956,-14.37514 0.12688,-2.32184 0.65976,-3.45104 2.58829,-3.78092 0.79932,-0.13957 1.73821,-0.20301 2.19497,-0.20301 0.26644,0 0.53288,-0.13956 0.53288,-0.406 0,-0.39332 -0.32988,-0.53288 -1.06577,-0.53288 -1.99196,0 -6.85134,0.203 -7.18122,0.203 -0.34257,0 -4.5295,-0.203 -7.51111,-0.203 -0.73588,0 -1.07845,0.13956 -1.07845,0.53288 0,0.26644 0.27913,0.406 0.53288,0.406 0.60901,0 1.73822,0.0634 2.2711,0.20301 2.19497,0.45675 2.72785,1.52252 2.85472,3.78092 0.13957,2.13153 0.13957,3.99662 0.13957,14.37514 v 11.71073 c 0,6.39458 0,11.64728 -0.32988,14.43857 -0.26644,1.92853 -0.60901,3.4003 -1.94121,3.65405 -0.59633,0.13957 -1.39565,0.27913 -1.99197,0.27913 -0.39332,0 -0.53288,0.19032 -0.53288,0.39332 0,0.39332 0.32988,0.53288 1.06576,0.53288 1.99197,0 5.92515,-0.203 6.52147,-0.203 3.85705,0 8.24699,0.406 17.82618,0.406 3.52718,0 3.73018,-0.26644 4.19962,-1.80165 0.53289,-1.92852 1.00233,-5.92514 1.00233,-6.64834 0,-0.73588 -0.0761,-1.00233 -0.40601,-1.00233 -0.406,0 -0.53288,0.32988 -0.59632,0.86277 -0.203,1.26876 -0.86276,2.93085 -1.73821,3.99661 -1.59865,1.92853 -4.51681,1.99197 -8.04398,1.99197 -5.18926,0 -6.91479,-0.46944 -7.98055,-1.52252 -1.20533,-1.20533 -1.47177,-5.4557 -1.47177,-15.2379 v -11.85029 z"
   id="path55"
   clip-path="none" /><path
   style="fill-rule:evenodd"
   inkscape:connector-curvature="0"
   clip-rule="evenodd"
   d="m 168.03875,631.26264 c -0.203,0 -0.34256,-0.12688 -0.203,-0.45676 l 5.84902,-17.96575 c 0.32988,-1.00233 0.67245,-1.00233 1.00233,0 l 6.31846,17.96575 c 0.0634,0.25375 0.0634,0.45676 -0.26644,0.45676 h -12.70037 z m -9.31275,14.70501 c -1.20533,3.32417 -2.53754,5.86171 -5.59527,6.25503 -0.53288,0.0634 -1.45908,0.13956 -1.92852,0.13956 -0.32988,0 -0.59632,0.12688 -0.59632,0.39332 0,0.39332 0.39331,0.53288 1.25608,0.53288 3.13385,0 6.7879,-0.203 7.52379,-0.203 0.73588,0 3.59061,0.203 5.18926,0.203 0.59632,0 0.98964,-0.13956 0.98964,-0.53288 0,-0.26644 -0.19032,-0.39332 -0.65976,-0.39332 h -0.65976 c -1.12921,0 -2.52485,-0.60901 -2.52485,-1.94121 0,-1.19265 0.32988,-2.79129 0.9262,-4.45338 l 3.98393,-11.77416 c 0.13957,-0.32988 0.34257,-0.53288 0.67245,-0.53288 h 14.3117 c 0.32988,0 0.45675,0.12687 0.59632,0.39331 l 6.1789,16.36711 c 0.406,1.06576 0,1.66208 -0.39332,1.80165 -0.26644,0.0634 -0.46945,0.203 -0.46945,0.46944 0,0.39332 0.73589,0.39332 1.99197,0.45676 4.59294,0.13956 9.45232,0.13956 10.45464,0.13956 0.73589,0 1.33221,-0.13956 1.33221,-0.53288 0,-0.32988 -0.26644,-0.39332 -0.67245,-0.39332 -0.65976,0 -1.66208,-0.0761 -2.66441,-0.40601 -1.38296,-0.39331 -3.32417,-1.45908 -5.70945,-7.38422 -4.06006,-10.11208 -14.5147,-37.59359 -15.50434,-40.11843 -0.79933,-2.0681 -1.06577,-2.39797 -1.47177,-2.39797 -0.39332,0 -0.65976,0.406 -1.45909,2.60097 L 158.726,645.96765 z"
   id="path57"
   clip-path="none" /><path
   style="fill:none;stroke:#000000;stroke-width:1.52252114"
   inkscape:connector-curvature="0"
   d="m 168.03875,631.26264 c -0.203,0 -0.34256,-0.12688 -0.203,-0.45676 l 5.84902,-17.96575 c 0.32988,-1.00233 0.67245,-1.00233 1.00233,0 l 6.31846,17.96575 c 0.0634,0.25375 0.0634,0.45676 -0.26644,0.45676 h -12.70037 z m -9.31275,14.70501 c -1.20533,3.32417 -2.53754,5.86171 -5.59527,6.25503 -0.53288,0.0634 -1.45908,0.13956 -1.92852,0.13956 -0.32988,0 -0.59632,0.12688 -0.59632,0.39332 0,0.39332 0.39331,0.53288 1.25608,0.53288 3.13385,0 6.7879,-0.203 7.52379,-0.203 0.73588,0 3.59061,0.203 5.18926,0.203 0.59632,0 0.98964,-0.13956 0.98964,-0.53288 0,-0.26644 -0.19032,-0.39332 -0.65976,-0.39332 h -0.65976 c -1.12921,0 -2.52485,-0.60901 -2.52485,-1.94121 0,-1.19265 0.32988,-2.79129 0.9262,-4.45338 l 3.98393,-11.77416 c 0.13957,-0.32988 0.34257,-0.53288 0.67245,-0.53288 h 14.3117 c 0.32988,0 0.45675,0.12687 0.59632,0.39331 l 6.1789,16.36711 c 0.406,1.06576 0,1.66208 -0.39332,1.80165 -0.26644,0.0634 -0.46945,0.203 -0.46945,0.46944 0,0.39332 0.73589,0.39332 1.99197,0.45676 4.59294,0.13956 9.45232,0.13956 10.45464,0.13956 0.73589,0 1.33221,-0.13956 1.33221,-0.53288 0,-0.32988 -0.26644,-0.39332 -0.67245,-0.39332 -0.65976,0 -1.66208,-0.0761 -2.66441,-0.40601 -1.38296,-0.39331 -3.32417,-1.45908 -5.70945,-7.38422 -4.06006,-10.11208 -14.5147,-37.59359 -15.50434,-40.11843 -0.79933,-2.0681 -1.06577,-2.39797 -1.47177,-2.39797 -0.39332,0 -0.65976,0.406 -1.45909,2.60097 L 158.726,645.96765 z"
   id="path59"
   clip-path="none" /><path
   inkscape:connector-curvature="0"
   d="m 220.36273,605.84922 8.38655,0.12688 c 6.3819,0.13956 7.91711,1.67477 8.18355,3.66674 l 0.0634,0.73588 c 0.0761,0.9262 0.203,1.1292 0.53288,1.1292 0.26645,0 0.46945,-0.26644 0.46945,-0.86276 0,-0.73588 0.203,-5.32882 0.203,-7.32079 0,-0.406 0,-0.79932 -0.32988,-0.79932 -0.53288,0 -2.33453,0.65976 -6.59759,0.65976 h -24.94397 c -0.79932,0 -3.32417,-0.12688 -5.26539,-0.32988 -1.78896,-0.12688 -2.46141,-0.79932 -2.91816,-0.79932 -0.26644,0 -0.53288,0.86276 -0.67245,1.26876 -0.12688,0.53289 -1.45908,6.24234 -1.45908,6.91479 0,0.406 0.13956,0.59632 0.32988,0.59632 0.26644,0 0.46944,-0.12688 0.67244,-0.65976 0.20301,-0.46945 0.39332,-0.93889 1.12921,-2.06809 1.06576,-1.59865 2.66441,-2.05541 6.7879,-2.13153 l 9.84564,-0.12688 v 28.14127 c 0,6.39458 0,11.64728 -0.32988,14.43857 -0.26644,1.92853 -0.59632,3.4003 -1.94121,3.65405 -0.59632,0.13957 -1.39565,0.27913 -1.99197,0.27913 -0.39332,0 -0.53288,0.19032 -0.53288,0.39332 0,0.39332 0.32988,0.53288 1.06576,0.53288 1.99197,0 6.19159,-0.203 6.52147,-0.203 0.32988,0 4.5295,0.203 8.18355,0.203 0.73589,0 1.06577,-0.203 1.06577,-0.53288 0,-0.203 -0.12688,-0.39332 -0.53289,-0.39332 -0.59632,0 -2.0554,-0.13956 -2.99429,-0.27913 -1.99196,-0.25375 -2.39797,-1.72552 -2.60097,-3.65405 -0.32988,-2.79129 -0.32988,-8.04399 -0.32988,-14.43857 v -28.14127 z"
   id="path61"
   clip-path="none" /><path
   style="fill:none;stroke:#000000;stroke-width:1.52252114;stroke-miterlimit:3.86400008"
   inkscape:connector-curvature="0"
   stroke-miterlimit="3.864"
   d="m 220.36273,605.84922 8.38655,0.12688 c 6.3819,0.13956 7.91711,1.67477 8.18355,3.66674 l 0.0634,0.73588 c 0.0761,0.9262 0.203,1.1292 0.53288,1.1292 0.26645,0 0.46945,-0.26644 0.46945,-0.86276 0,-0.73588 0.203,-5.32882 0.203,-7.32079 0,-0.406 0,-0.79932 -0.32988,-0.79932 -0.53288,0 -2.33453,0.65976 -6.59759,0.65976 h -24.94397 c -0.79932,0 -3.32417,-0.12688 -5.26539,-0.32988 -1.78896,-0.12688 -2.46141,-0.79932 -2.91816,-0.79932 -0.26644,0 -0.53288,0.86276 -0.67245,1.26876 -0.12688,0.53289 -1.45908,6.24234 -1.45908,6.91479 0,0.406 0.13956,0.59632 0.32988,0.59632 0.26644,0 0.46944,-0.12688 0.67244,-0.65976 0.20301,-0.46945 0.39332,-0.93889 1.12921,-2.06809 1.06576,-1.59865 2.66441,-2.05541 6.7879,-2.13153 l 9.84564,-0.12688 v 28.14127 c 0,6.39458 0,11.64728 -0.32988,14.43857 -0.26644,1.92853 -0.59632,3.4003 -1.94121,3.65405 -0.59632,0.13957 -1.39565,0.27913 -1.99197,0.27913 -0.39332,0 -0.53288,0.19032 -0.53288,0.39332 0,0.39332 0.32988,0.53288 1.06576,0.53288 1.99197,0 6.19159,-0.203 6.52147,-0.203 0.32988,0 4.5295,0.203 8.18355,0.203 0.73589,0 1.06577,-0.203 1.06577,-0.53288 0,-0.203 -0.12688,-0.39332 -0.53289,-0.39332 -0.59632,0 -2.0554,-0.13956 -2.99429,-0.27913 -1.99196,-0.25375 -2.39797,-1.72552 -2.60097,-3.65405 -0.32988,-2.79129 -0.32988,-8.04399 -0.32988,-14.43857 v -28.14127 z"
   id="path63"
   clip-path="none" /><path
   inkscape:connector-curvature="0"
   d="m 252.2088,633.99049 c 0,6.39458 0,11.64728 -0.32988,14.43857 -0.26645,1.92853 -0.59632,3.4003 -1.92853,3.65405 -0.59632,0.13957 -1.39565,0.27913 -1.99197,0.27913 -0.406,0 -0.53288,0.19032 -0.53288,0.39332 0,0.39332 0.32988,0.53288 1.06577,0.53288 1.99196,0 6.19158,-0.203 6.52146,-0.203 0.32988,0 4.51681,0.203 8.18355,0.203 0.7232,0 1.06577,-0.203 1.06577,-0.53288 0,-0.203 -0.13957,-0.39332 -0.54557,-0.39332 -0.59632,0 -2.05541,-0.13956 -2.99429,-0.27913 -1.99197,-0.25375 -2.38529,-1.72552 -2.58829,-3.65405 -0.32988,-2.79129 -0.32988,-8.04399 -0.32988,-14.43857 v -5.65871 c 0,-0.45675 0.12688,-0.59632 0.46944,-0.59632 1.12921,0 8.37387,0 10.04864,0.203 2.05541,0.26645 3.12117,1.45909 3.45105,2.39797 0.26644,0.79933 0.32988,1.72553 0.39332,2.39798 0,0.32988 0.13956,0.59632 0.46944,0.59632 0.46945,0 0.46945,-0.67245 0.46945,-1.26877 0,-0.46945 0.12687,-3.12117 0.26644,-4.45338 0.203,-2.19496 0.53288,-3.33685 0.53288,-3.73017 0,-0.32988 -0.0634,-0.53288 -0.32988,-0.53288 -0.26644,0 -0.46944,0.32987 -0.73588,0.67244 -0.59632,0.86276 -1.45909,1.05308 -3.05773,1.19264 -0.93889,0.0634 -1.86509,0.0634 -2.99429,0.0634 l -8.51344,0.0634 c -0.406,0 -0.46944,-0.19031 -0.46944,-0.59632 V 606.3821 c 0,-0.53288 0.203,-0.73588 0.59632,-0.73588 l 10.25164,0.203 c 2.58829,0.0634 4.1235,1.26877 4.51682,2.13153 0.406,0.86276 0.59632,1.99196 0.59632,2.52485 0,0.46944 0.13956,0.79932 0.46944,0.79932 0.32988,0 0.46945,-0.406 0.53288,-0.73588 0.13957,-0.79933 0.26644,-3.71749 0.32988,-4.38994 0.20301,-1.86509 0.53289,-2.66441 0.53289,-3.12117 0,-0.32988 -0.12688,-0.59632 -0.39332,-0.59632 -0.26644,0 -0.53288,0.26644 -0.93889,0.39332 -0.59632,0.203 -1.66209,0.203 -2.91817,0.26644 -1.5352,0.0634 -15.04758,0.0634 -16.3671,0.0634 -0.32988,0 -4.5295,-0.203 -7.52379,-0.203 -0.73589,0 -1.06576,0.13956 -1.06576,0.53288 0,0.26644 0.26644,0.406 0.53288,0.406 0.59632,0 1.72552,0.0634 2.2584,0.20301 2.20766,0.45675 2.72785,1.52252 2.86742,3.78092 0.12688,2.13153 0.12688,3.99662 0.12688,14.37514 v 11.71073 z"
   id="path65"
   clip-path="none" /><path
   style="fill:none;stroke:#000000;stroke-width:1.52252114;stroke-miterlimit:3.86400008"
   inkscape:connector-curvature="0"
   stroke-miterlimit="3.864"
   d="m 252.2088,633.99049 c 0,6.39458 0,11.64728 -0.32988,14.43857 -0.26645,1.92853 -0.59632,3.4003 -1.92853,3.65405 -0.59632,0.13957 -1.39565,0.27913 -1.99197,0.27913 -0.406,0 -0.53288,0.19032 -0.53288,0.39332 0,0.39332 0.32988,0.53288 1.06577,0.53288 1.99196,0 6.19158,-0.203 6.52146,-0.203 0.32988,0 4.51681,0.203 8.18355,0.203 0.7232,0 1.06577,-0.203 1.06577,-0.53288 0,-0.203 -0.13957,-0.39332 -0.54557,-0.39332 -0.59632,0 -2.05541,-0.13956 -2.99429,-0.27913 -1.99197,-0.25375 -2.38529,-1.72552 -2.58829,-3.65405 -0.32988,-2.79129 -0.32988,-8.04399 -0.32988,-14.43857 v -5.65871 c 0,-0.45675 0.12688,-0.59632 0.46944,-0.59632 1.12921,0 8.37387,0 10.04864,0.203 2.05541,0.26645 3.12117,1.45909 3.45105,2.39797 0.26644,0.79933 0.32988,1.72553 0.39332,2.39798 0,0.32988 0.13956,0.59632 0.46944,0.59632 0.46945,0 0.46945,-0.67245 0.46945,-1.26877 0,-0.46945 0.12687,-3.12117 0.26644,-4.45338 0.203,-2.19496 0.53288,-3.33685 0.53288,-3.73017 0,-0.32988 -0.0634,-0.53288 -0.32988,-0.53288 -0.26644,0 -0.46944,0.32987 -0.73588,0.67244 -0.59632,0.86276 -1.45909,1.05308 -3.05773,1.19264 -0.93889,0.0634 -1.86509,0.0634 -2.99429,0.0634 l -8.51344,0.0634 c -0.406,0 -0.46944,-0.19031 -0.46944,-0.59632 V 606.3821 c 0,-0.53288 0.203,-0.73588 0.59632,-0.73588 l 10.25164,0.203 c 2.58829,0.0634 4.1235,1.26877 4.51682,2.13153 0.406,0.86276 0.59632,1.99196 0.59632,2.52485 0,0.46944 0.13956,0.79932 0.46944,0.79932 0.32988,0 0.46945,-0.406 0.53288,-0.73588 0.13957,-0.79933 0.26644,-3.71749 0.32988,-4.38994 0.20301,-1.86509 0.53289,-2.66441 0.53289,-3.12117 0,-0.32988 -0.12688,-0.59632 -0.39332,-0.59632 -0.26644,0 -0.53288,0.26644 -0.93889,0.39332 -0.59632,0.203 -1.66209,0.203 -2.91817,0.26644 -1.5352,0.0634 -15.04758,0.0634 -16.3671,0.0634 -0.32988,0 -4.5295,-0.203 -7.52379,-0.203 -0.73589,0 -1.06576,0.13956 -1.06576,0.53288 0,0.26644 0.26644,0.406 0.53288,0.406 0.59632,0 1.72552,0.0634 2.2584,0.20301 2.20766,0.45675 2.72785,1.52252 2.86742,3.78092 0.12688,2.13153 0.12688,3.99662 0.12688,14.37514 v 11.71073 z"
   id="path67"
   clip-path="none" /><path
   style="fill-rule:evenodd"
   inkscape:connector-curvature="0"
   clip-rule="evenodd"
   d="m 290.36064,626.20025 c 0,-14.56545 8.32311,-21.88624 19.43752,-21.88624 10.50539,0 20.22415,8.58956 20.22415,24.55065 0,19.3614 -12.38317,22.82513 -18.35906,22.82513 -11.98986,0 -21.30261,-9.97251 -21.30261,-25.48954 z m -6.31847,1.86509 c 0,11.97717 7.58723,26.1493 25.81943,26.1493 16.03722,0 26.54261,-12.30704 26.54261,-27.21506 0,-15.49166 -11.17784,-24.94397 -26.1493,-24.94397 -18.35906,0 -26.21274,15.23789 -26.21274,26.00973 z"
   id="path69"
   clip-path="none" /><path
   style="fill:none;stroke:#000000;stroke-width:1.52252114"
   inkscape:connector-curvature="0"
   d="m 290.36064,626.20025 c 0,-14.56545 8.32311,-21.88624 19.43752,-21.88624 10.50539,0 20.22415,8.58956 20.22415,24.55065 0,19.3614 -12.38317,22.82513 -18.35906,22.82513 -11.98986,0 -21.30261,-9.97251 -21.30261,-25.48954 z m -6.31847,1.86509 c 0,11.97717 7.58723,26.1493 25.81943,26.1493 16.03722,0 26.54261,-12.30704 26.54261,-27.21506 0,-15.49166 -11.17784,-24.94397 -26.1493,-24.94397 -18.35906,0 -26.21274,15.23789 -26.21274,26.00973 z"
   id="path71"
   clip-path="none" /><path
   style="fill-rule:evenodd"
   inkscape:connector-curvature="0"
   clip-rule="evenodd"
   d="m 355.8798,606.31866 c 0,-0.406 0.203,-0.67244 0.53288,-0.79932 0.65976,-0.203 2.46141,-0.40601 4.45337,-0.40601 7.11779,0 11.50772,4.99895 11.50772,13.30938 0,5.06238 -1.72552,8.65299 -4.04736,10.25164 -1.53521,1.05308 -3.4003,1.25608 -4.99895,1.25608 -2.93085,0 -5.98858,-0.46944 -6.99091,-1.06577 -0.32988,-0.19031 -0.45675,-0.45675 -0.45675,-0.79932 v -21.74668 z m -5.32883,27.67183 c 0,6.39458 0,11.64728 -0.32988,14.43857 -0.26644,1.92853 -0.59632,3.4003 -1.92852,3.65405 -0.59632,0.13957 -1.39565,0.27913 -1.99197,0.27913 -0.406,0 -0.54557,0.19032 -0.54557,0.39332 0,0.39332 0.34257,0.53288 1.06577,0.53288 2.00465,0 6.19158,-0.203 6.25502,-0.203 0.34257,0 4.5295,0.203 8.19624,0.203 0.7232,0 1.05308,-0.203 1.05308,-0.53288 0,-0.203 -0.12688,-0.39332 -0.53289,-0.39332 -0.59632,0 -2.0554,-0.13956 -2.9816,-0.27913 -2.00465,-0.25375 -2.39797,-1.72552 -2.60097,-3.65405 -0.32988,-2.79129 -0.32988,-8.04399 -0.32988,-14.43857 v -1.59865 c 0,-0.32988 0.12687,-0.53288 0.45675,-0.53288 l 8.18355,0.13956 c 0.40601,0 0.60901,0.12688 0.87545,0.39332 1.33221,1.73821 4.45338,6.19158 7.24467,9.84563 3.79361,4.99895 6.12814,8.25968 8.98287,9.7822 1.73821,0.93889 3.4003,1.26877 7.11779,1.26877 h 4.7325 c 1.19264,0 1.59865,-0.13956 1.59865,-0.53288 0,-0.203 -0.26644,-0.39332 -0.60901,-0.39332 -0.39332,0 -1.33221,0 -2.58829,-0.203 -1.66208,-0.26644 -4.5295,-1.00233 -8.12011,-4.79594 -3.85705,-4.1235 -8.38655,-10.04864 -13.84225,-17.02687 5.98858,-5.53182 8.05667,-10.45464 8.05667,-15.37746 0,-4.58025 -2.93085,-7.84098 -4.59294,-9.04631 -3.52717,-2.52485 -7.98055,-2.93085 -12.18017,-2.93085 -2.0554,0 -7.11778,0.203 -7.85367,0.203 -0.32988,0 -4.51681,-0.203 -7.5111,-0.203 -0.73589,0 -1.06577,0.13956 -1.06577,0.53288 0,0.26644 0.26644,0.406 0.53288,0.406 0.59633,0 1.72553,0.0634 2.25841,0.20301 2.19497,0.45675 2.72785,1.52252 2.86742,3.78092 0.12687,2.13153 0.12687,3.99662 0.12687,14.37514 v 11.71073 z"
   id="path73"
   clip-path="none" /><path
   style="fill:none;stroke:#000000;stroke-width:1.52252114"
   inkscape:connector-curvature="0"
   d="m 355.8798,606.31866 c 0,-0.406 0.203,-0.67244 0.53288,-0.79932 0.65976,-0.203 2.46141,-0.40601 4.45337,-0.40601 7.11779,0 11.50772,4.99895 11.50772,13.30938 0,5.06238 -1.72552,8.65299 -4.04736,10.25164 -1.53521,1.05308 -3.4003,1.25608 -4.99895,1.25608 -2.93085,0 -5.98858,-0.46944 -6.99091,-1.06577 -0.32988,-0.19031 -0.45675,-0.45675 -0.45675,-0.79932 v -21.74668 z m -5.32883,27.67183 c 0,6.39458 0,11.64728 -0.32988,14.43857 -0.26644,1.92853 -0.59632,3.4003 -1.92852,3.65405 -0.59632,0.13957 -1.39565,0.27913 -1.99197,0.27913 -0.406,0 -0.54557,0.19032 -0.54557,0.39332 0,0.39332 0.34257,0.53288 1.06577,0.53288 2.00465,0 6.19158,-0.203 6.25502,-0.203 0.34257,0 4.5295,0.203 8.19624,0.203 0.7232,0 1.05308,-0.203 1.05308,-0.53288 0,-0.203 -0.12688,-0.39332 -0.53289,-0.39332 -0.59632,0 -2.0554,-0.13956 -2.9816,-0.27913 -2.00465,-0.25375 -2.39797,-1.72552 -2.60097,-3.65405 -0.32988,-2.79129 -0.32988,-8.04399 -0.32988,-14.43857 v -1.59865 c 0,-0.32988 0.12687,-0.53288 0.45675,-0.53288 l 8.18355,0.13956 c 0.40601,0 0.60901,0.12688 0.87545,0.39332 1.33221,1.73821 4.45338,6.19158 7.24467,9.84563 3.79361,4.99895 6.12814,8.25968 8.98287,9.7822 1.73821,0.93889 3.4003,1.26877 7.11779,1.26877 h 4.7325 c 1.19264,0 1.59865,-0.13956 1.59865,-0.53288 0,-0.203 -0.26644,-0.39332 -0.60901,-0.39332 -0.39332,0 -1.33221,0 -2.58829,-0.203 -1.66208,-0.26644 -4.5295,-1.00233 -8.12011,-4.79594 -3.85705,-4.1235 -8.38655,-10.04864 -13.84225,-17.02687 5.98858,-5.53182 8.05667,-10.45464 8.05667,-15.37746 0,-4.58025 -2.93085,-7.84098 -4.59294,-9.04631 -3.52717,-2.52485 -7.98055,-2.93085 -12.18017,-2.93085 -2.0554,0 -7.11778,0.203 -7.85367,0.203 -0.32988,0 -4.51681,-0.203 -7.5111,-0.203 -0.73589,0 -1.06577,0.13956 -1.06577,0.53288 0,0.26644 0.26644,0.406 0.53288,0.406 0.59633,0 1.72553,0.0634 2.25841,0.20301 2.19497,0.45675 2.72785,1.52252 2.86742,3.78092 0.12687,2.13153 0.12687,3.99662 0.12687,14.37514 v 11.71073 z"
   id="path75"
   clip-path="none" /><path
   inkscape:connector-curvature="0"
   d="m 445.81004,603.85726 c -0.12687,-1.26877 -0.32988,-1.80165 -0.79932,-1.80165 -0.46944,0 -0.7232,0.46944 -0.98964,1.06576 l -19.5644,41.78052 -20.36372,-41.84396 c -0.32987,-0.73588 -0.59632,-1.00232 -0.98963,-1.00232 -0.40601,0 -0.60901,0.46944 -0.73589,1.20532 l -4.79594,43.37917 c -0.26644,2.52485 -0.46944,5.11313 -2.66441,5.51914 -0.98964,0.203 -1.45909,0.203 -1.99197,0.203 -0.32988,0 -0.65976,0.12688 -0.65976,0.32988 0,0.45676 0.45676,0.59632 1.12921,0.59632 1.78896,0 4.98625,-0.203 5.58257,-0.203 0.53289,0 3.73018,0.203 6.19159,0.203 0.79932,0 1.20533,-0.13956 1.20533,-0.59632 0,-0.203 -0.27913,-0.32988 -0.54557,-0.32988 -0.39332,0 -1.39565,-0.0761 -2.52485,-0.34257 -0.98964,-0.19031 -1.72552,-1.06576 -1.72552,-2.0554 0,-1.1292 0,-2.33453 0.0634,-3.4003 l 2.66441,-30.86911 h 0.26644 c 0.73588,1.78896 8.18355,17.76274 8.77987,18.96807 0.32988,0.65976 6.05202,12.16748 7.79023,15.42822 1.25608,2.39797 1.58596,3.05773 2.05541,3.05773 0.59632,0 0.79932,-0.59632 2.19497,-3.51449 l 16.30366,-34.59929 h 0.203 l 3.1973,34.33285 c 0.12687,1.19264 0.0634,2.32184 -0.27913,2.38528 -0.32988,0.0761 -0.45676,0.203 -0.45676,0.46945 0,0.32988 0.32988,0.53288 1.86509,0.67244 2.46141,0.19032 9.64263,0.39332 11.10172,0.39332 0.79932,0 1.40833,-0.203 1.40833,-0.59632 0,-0.26644 -0.203,-0.32988 -0.53288,-0.32988 -0.67245,0 -2.39798,0 -4.3265,-0.60901 -2.86742,-0.9262 -3.32417,-4.65638 -3.59061,-7.05435 l -4.46607,-40.84162 z"
   id="path77"
   clip-path="none" /><path
   style="fill:none;stroke:#000000;stroke-width:1.52252114;stroke-miterlimit:3.86400008"
   inkscape:connector-curvature="0"
   stroke-miterlimit="3.864"
   d="m 445.81004,603.85726 c -0.12687,-1.26877 -0.32988,-1.80165 -0.79932,-1.80165 -0.46944,0 -0.7232,0.46944 -0.98964,1.06576 l -19.5644,41.78052 -20.36372,-41.84396 c -0.32987,-0.73588 -0.59632,-1.00232 -0.98963,-1.00232 -0.40601,0 -0.60901,0.46944 -0.73589,1.20532 l -4.79594,43.37917 c -0.26644,2.52485 -0.46944,5.11313 -2.66441,5.51914 -0.98964,0.203 -1.45909,0.203 -1.99197,0.203 -0.32988,0 -0.65976,0.12688 -0.65976,0.32988 0,0.45676 0.45676,0.59632 1.12921,0.59632 1.78896,0 4.98625,-0.203 5.58257,-0.203 0.53289,0 3.73018,0.203 6.19159,0.203 0.79932,0 1.20533,-0.13956 1.20533,-0.59632 0,-0.203 -0.27913,-0.32988 -0.54557,-0.32988 -0.39332,0 -1.39565,-0.0761 -2.52485,-0.34257 -0.98964,-0.19031 -1.72552,-1.06576 -1.72552,-2.0554 0,-1.1292 0,-2.33453 0.0634,-3.4003 l 2.66441,-30.86911 h 0.26644 c 0.73588,1.78896 8.18355,17.76274 8.77987,18.96807 0.32988,0.65976 6.05202,12.16748 7.79023,15.42822 1.25608,2.39797 1.58596,3.05773 2.05541,3.05773 0.59632,0 0.79932,-0.59632 2.19497,-3.51449 l 16.30366,-34.59929 h 0.203 l 3.1973,34.33285 c 0.12687,1.19264 0.0634,2.32184 -0.27913,2.38528 -0.32988,0.0761 -0.45676,0.203 -0.45676,0.46945 0,0.32988 0.32988,0.53288 1.86509,0.67244 2.46141,0.19032 9.64263,0.39332 11.10172,0.39332 0.79932,0 1.40833,-0.203 1.40833,-0.59632 0,-0.26644 -0.203,-0.32988 -0.53288,-0.32988 -0.67245,0 -2.39798,0 -4.3265,-0.60901 -2.86742,-0.9262 -3.32417,-4.65638 -3.59061,-7.05435 L 445.81,603.85726 z"
   id="path79"
   clip-path="none" /><path
   inkscape:connector-curvature="0"
   d="m 74.733584,628.73779 c 0,7.99323 0,14.56545 -0.418694,18.06725 -0.329879,2.41066 -0.748573,4.23768 -2.410658,4.56756 -0.748573,0.17763 -1.750899,0.34257 -2.499472,0.34257 -0.49482,0 -0.672447,0.24106 -0.672447,0.49482 0,0.50751 0.418693,0.67245 1.344894,0.67245 2.486784,0 7.739482,-0.25376 7.993235,-0.25376 0.406006,0 5.658704,0.25376 10.238955,0.25376 0.913513,0 1.332206,-0.25376 1.332206,-0.67245 0,-0.26644 -0.177627,-0.49482 -0.672447,-0.49482 -0.748573,0 -2.575598,-0.16494 -3.742864,-0.34257 -2.499472,-0.32988 -2.994292,-2.1569 -3.248045,-4.56756 -0.418694,-3.5018 -0.418694,-10.07402 -0.418694,-18.06725 v -34.23135 c 0,-0.8247 0.16494,-1.40833 0.672447,-1.57327 0.748573,-0.32988 2.156905,-0.50751 3.577925,-0.50751 1.915839,0 6.990909,-0.32988 11.406221,4.16156 4.415314,4.50412 4.656374,10.0867 4.656374,12.82724 0,7.66335 -6.31846,13.57581 -14.40051,13.57581 -1.750899,0 -2.245718,0.0761 -2.245718,0.74857 0,0.4187 0.494819,0.58364 0.913512,0.58364 0.418694,0.0761 1.332206,0.0761 1.7509,0.0761 11.824914,0 20.477906,-7.99323 20.477906,-19.80546 0,-4.41531 -2.32184,-8.17086 -4.16155,-9.90907 -1.33221,-1.25608 -5.075075,-4.75788 -15.491657,-4.75788 -3.831679,0 -8.652995,0.25375 -10.492708,0.25375 -0.65976,0 -5.658704,-0.25375 -9.401568,-0.25375 -0.913513,0 -1.332206,0.17762 -1.332206,0.67244 0,0.32988 0.329879,0.49482 0.672447,0.49482 0.748572,0 2.156904,0.0888 2.829351,0.25376 2.740538,0.58363 3.412985,1.91584 3.577925,4.74519 0.16494,2.66441 0.16494,4.99894 0.16494,17.99112 v 14.65427 z"
   id="path81"
   clip-path="none" /><path
   style="fill:none;stroke:#000000;stroke-width:1.52252114;stroke-miterlimit:3.86400008"
   inkscape:connector-curvature="0"
   stroke-miterlimit="3.864"
   d="m 74.733584,628.73779 c 0,7.99323 0,14.56545 -0.418694,18.06725 -0.329879,2.41066 -0.748573,4.23768 -2.410658,4.56756 -0.748573,0.17763 -1.750899,0.34257 -2.499472,0.34257 -0.49482,0 -0.672447,0.24106 -0.672447,0.49482 0,0.50751 0.418693,0.67245 1.344894,0.67245 2.486784,0 7.739482,-0.25376 7.993235,-0.25376 0.406006,0 5.658704,0.25376 10.238955,0.25376 0.913513,0 1.332206,-0.25376 1.332206,-0.67245 0,-0.26644 -0.177627,-0.49482 -0.672447,-0.49482 -0.748573,0 -2.575598,-0.16494 -3.742864,-0.34257 -2.499472,-0.32988 -2.994292,-2.1569 -3.248045,-4.56756 -0.418694,-3.5018 -0.418694,-10.07402 -0.418694,-18.06725 v -34.23135 c 0,-0.8247 0.16494,-1.40833 0.672447,-1.57327 0.748573,-0.32988 2.156905,-0.50751 3.577925,-0.50751 1.915839,0 6.990909,-0.32988 11.406221,4.16156 4.415314,4.50412 4.656374,10.0867 4.656374,12.82724 0,7.66335 -6.31846,13.57581 -14.40051,13.57581 -1.750899,0 -2.245718,0.0761 -2.245718,0.74857 0,0.4187 0.494819,0.58364 0.913512,0.58364 0.418694,0.0761 1.332206,0.0761 1.7509,0.0761 11.824914,0 20.477906,-7.99323 20.477906,-19.80546 0,-4.41531 -2.32184,-8.17086 -4.16155,-9.90907 -1.33221,-1.25608 -5.075075,-4.75788 -15.491657,-4.75788 -3.831679,0 -8.652995,0.25375 -10.492708,0.25375 -0.65976,0 -5.658704,-0.25375 -9.401568,-0.25375 -0.913513,0 -1.332206,0.17762 -1.332206,0.67244 0,0.32988 0.329879,0.49482 0.672447,0.49482 0.748572,0 2.156904,0.0888 2.829351,0.25376 2.740538,0.58363 3.412985,1.91584 3.577925,4.74519 0.16494,2.66441 0.16494,4.99894 0.16494,17.99112 v 14.65427 z"
   id="path83"
   clip-path="none" /><path
   style="fill:none;stroke:#000000;stroke-width:14.41320038;stroke-miterlimit:3.86400008"
   inkscape:connector-curvature="0"
   stroke-miterlimit="3.864"
   d="M 83.576894,108.12438 H 396.83561 M 83.576894,184.39 H 396.83561 M 83.576894,260.64293 H 396.83561 M 83.576894,336.89586 H 396.83561 M 83.576894,31.871446 H 396.83561"
   id="path85"
   clip-path="none" /><circle
   d="m 50.725998,29.136999 c 0,1.150962 -0.933038,2.084 -2.084,2.084 -1.150961,0 -2.084,-0.933038 -2.084,-2.084 0,-1.150961 0.933039,-2.084 2.084,-2.084 1.150962,0 2.084,0.933039 2.084,2.084 z"
   sodipodi:ry="2.0840001"
   sodipodi:rx="2.0840001"
   sodipodi:cy="29.136999"
   sodipodi:cx="48.641998"
   cx="48.641998"
   cy="29.136999"
   r="2.0840001"
   id="circle87"
   clip-path="none"
   transform="matrix(12.687676,0,0,12.687676,-443.67217,-337.80937)" /><circle
   d="m 50.725998,29.136999 c 0,1.150962 -0.933038,2.084 -2.084,2.084 -1.150961,0 -2.084,-0.933038 -2.084,-2.084 0,-1.150961 0.933039,-2.084 2.084,-2.084 1.150962,0 2.084,0.933039 2.084,2.084 z"
   style="fill:none;stroke:#000000;stroke-width:0.833;stroke-miterlimit:3.86400008"
   sodipodi:ry="2.0840001"
   sodipodi:rx="2.0840001"
   sodipodi:cy="29.136999"
   sodipodi:cx="48.641998"
   stroke-miterlimit="3.864"
   cx="48.641998"
   cy="29.136999"
   r="2.0840001"
   id="circle89"
   clip-path="none"
   transform="matrix(12.687676,0,0,12.687676,-443.67217,-337.80937)" /><circle
   d="m 50.725998,41.158001 c 0,1.150961 -0.933038,2.084 -2.084,2.084 -1.150961,0 -2.084,-0.933039 -2.084,-2.084 0,-1.150962 0.933039,-2.084 2.084,-2.084 1.150962,0 2.084,0.933038 2.084,2.084 z"
   sodipodi:ry="2.0840001"
   sodipodi:rx="2.0840001"
   sodipodi:cy="41.158001"
   sodipodi:cx="48.641998"
   cx="48.641998"
   cy="41.158001"
   r="2.0840001"
   id="circle91"
   clip-path="none"
   transform="matrix(12.687676,0,0,12.687676,-443.67217,-337.80937)" /><circle
   d="m 50.725998,41.158001 c 0,1.150961 -0.933038,2.084 -2.084,2.084 -1.150961,0 -2.084,-0.933039 -2.084,-2.084 0,-1.150962 0.933039,-2.084 2.084,-2.084 1.150962,0 2.084,0.933038 2.084,2.084 z"
   style="fill:none;stroke:#000000;stroke-width:0.833;stroke-miterlimit:3.86400008"
   sodipodi:ry="2.0840001"
   sodipodi:rx="2.0840001"
   sodipodi:cy="41.158001"
   sodipodi:cx="48.641998"
   stroke-miterlimit="3.864"
   cx="48.641998"
   cy="41.158001"
   r="2.0840001"
   id="circle93"
   clip-path="none"
   transform="matrix(12.687676,0,0,12.687676,-443.67217,-337.80937)" /><circle
   d="m 50.725998,35.146999 c 0,1.150962 -0.933038,2.084 -2.084,2.084 -1.150961,0 -2.084,-0.933038 -2.084,-2.084 0,-1.150961 0.933039,-2.084 2.084,-2.084 1.150962,0 2.084,0.933039 2.084,2.084 z"
   sodipodi:ry="2.0840001"
   sodipodi:rx="2.0840001"
   sodipodi:cy="35.146999"
   sodipodi:cx="48.641998"
   cx="48.641998"
   cy="35.146999"
   r="2.0840001"
   id="circle95"
   clip-path="none"
   transform="matrix(12.687676,0,0,12.687676,-443.67217,-337.80937)" /><circle
   d="m 50.725998,35.146999 c 0,1.150962 -0.933038,2.084 -2.084,2.084 -1.150961,0 -2.084,-0.933038 -2.084,-2.084 0,-1.150961 0.933039,-2.084 2.084,-2.084 1.150962,0 2.084,0.933039 2.084,2.084 z"
   style="fill:none;stroke:#000000;stroke-width:0.833;stroke-miterlimit:3.86400008"
   sodipodi:ry="2.0840001"
   sodipodi:rx="2.0840001"
   sodipodi:cy="35.146999"
   sodipodi:cx="48.641998"
   stroke-miterlimit="3.864"
   cx="48.641998"
   cy="35.146999"
   r="2.0840001"
   id="circle97"
   clip-path="none"
   transform="matrix(12.687676,0,0,12.687676,-443.67217,-337.80937)" /><circle
   d="m 50.725998,47.167999 c 0,1.150962 -0.933038,2.084 -2.084,2.084 -1.150961,0 -2.084,-0.933038 -2.084,-2.084 0,-1.150961 0.933039,-2.084 2.084,-2.084 1.150962,0 2.084,0.933039 2.084,2.084 z"
   sodipodi:ry="2.0840001"
   sodipodi:rx="2.0840001"
   sodipodi:cy="47.167999"
   sodipodi:cx="48.641998"
   cx="48.641998"
   cy="47.167999"
   r="2.0840001"
   id="circle99"
   clip-path="none"
   transform="matrix(12.687676,0,0,12.687676,-443.67217,-337.80937)" /><circle
   d="m 50.725998,47.167999 c 0,1.150962 -0.933038,2.084 -2.084,2.084 -1.150961,0 -2.084,-0.933038 -2.084,-2.084 0,-1.150961 0.933039,-2.084 2.084,-2.084 1.150962,0 2.084,0.933039 2.084,2.084 z"
   style="fill:none;stroke:#000000;stroke-width:0.833;stroke-miterlimit:3.86400008"
   sodipodi:ry="2.0840001"
   sodipodi:rx="2.0840001"
   sodipodi:cy="47.167999"
   sodipodi:cx="48.641998"
   stroke-miterlimit="3.864"
   cx="48.641998"
   cy="47.167999"
   r="2.0840001"
   id="circle101"
   clip-path="none"
   transform="matrix(12.687676,0,0,12.687676,-443.67217,-337.80937)" /><circle
   d="m 50.725998,53.179001 c 0,1.150961 -0.933038,2.084 -2.084,2.084 -1.150961,0 -2.084,-0.933039 -2.084,-2.084 0,-1.150962 0.933039,-2.084 2.084,-2.084 1.150962,0 2.084,0.933038 2.084,2.084 z"
   sodipodi:ry="2.0840001"
   sodipodi:rx="2.0840001"
   sodipodi:cy="53.179001"
   sodipodi:cx="48.641998"
   cx="48.641998"
   cy="53.179001"
   r="2.0840001"
   id="circle103"
   clip-path="none"
   transform="matrix(12.687676,0,0,12.687676,-443.67217,-337.80937)" /><circle
   d="m 50.725998,53.179001 c 0,1.150961 -0.933038,2.084 -2.084,2.084 -1.150961,0 -2.084,-0.933039 -2.084,-2.084 0,-1.150962 0.933039,-2.084 2.084,-2.084 1.150962,0 2.084,0.933038 2.084,2.084 z"
   style="fill:none;stroke:#000000;stroke-width:0.833;stroke-miterlimit:3.86400008"
   sodipodi:ry="2.0840001"
   sodipodi:rx="2.0840001"
   sodipodi:cy="53.179001"
   sodipodi:cx="48.641998"
   stroke-miterlimit="3.864"
   cx="48.641998"
   cy="53.179001"
   r="2.0840001"
   id="circle105"
   clip-path="none"
   transform="matrix(12.687676,0,0,12.687676,-443.67217,-337.80937)" /><circle
   d="m 57.607998,29.136999 c 0,1.150962 -0.933038,2.084 -2.084,2.084 -1.150961,0 -2.084,-0.933038 -2.084,-2.084 0,-1.150961 0.933039,-2.084 2.084,-2.084 1.150962,0 2.084,0.933039 2.084,2.084 z"
   sodipodi:ry="2.0840001"
   sodipodi:rx="2.0840001"
   sodipodi:cy="29.136999"
   sodipodi:cx="55.523998"
   cx="55.523998"
   cy="29.136999"
   r="2.0840001"
   id="circle107"
   clip-path="none"
   transform="matrix(12.687676,0,0,12.687676,-443.67217,-337.80937)" /><circle
   d="m 57.607998,29.136999 c 0,1.150962 -0.933038,2.084 -2.084,2.084 -1.150961,0 -2.084,-0.933038 -2.084,-2.084 0,-1.150961 0.933039,-2.084 2.084,-2.084 1.150962,0 2.084,0.933039 2.084,2.084 z"
   style="fill:none;stroke:#000000;stroke-width:0.833;stroke-miterlimit:3.86400008"
   sodipodi:ry="2.0840001"
   sodipodi:rx="2.0840001"
   sodipodi:cy="29.136999"
   sodipodi:cx="55.523998"
   stroke-miterlimit="3.864"
   cx="55.523998"
   cy="29.136999"
   r="2.0840001"
   id="circle109"
   clip-path="none"
   transform="matrix(12.687676,0,0,12.687676,-443.67217,-337.80937)" /><circle
   d="m 57.607998,41.158001 c 0,1.150961 -0.933038,2.084 -2.084,2.084 -1.150961,0 -2.084,-0.933039 -2.084,-2.084 0,-1.150962 0.933039,-2.084 2.084,-2.084 1.150962,0 2.084,0.933038 2.084,2.084 z"
   sodipodi:ry="2.0840001"
   sodipodi:rx="2.0840001"
   sodipodi:cy="41.158001"
   sodipodi:cx="55.523998"
   cx="55.523998"
   cy="41.158001"
   r="2.0840001"
   id="circle111"
   clip-path="none"
   transform="matrix(12.687676,0,0,12.687676,-443.67217,-337.80937)" /><circle
   d="m 57.607998,41.158001 c 0,1.150961 -0.933038,2.084 -2.084,2.084 -1.150961,0 -2.084,-0.933039 -2.084,-2.084 0,-1.150962 0.933039,-2.084 2.084,-2.084 1.150962,0 2.084,0.933038 2.084,2.084 z"
   style="fill:none;stroke:#000000;stroke-width:0.833;stroke-miterlimit:3.86400008"
   sodipodi:ry="2.0840001"
   sodipodi:rx="2.0840001"
   sodipodi:cy="41.158001"
   sodipodi:cx="55.523998"
   stroke-miterlimit="3.864"
   cx="55.523998"
   cy="41.158001"
   r="2.0840001"
   id="circle113"
   clip-path="none"
   transform="matrix(12.687676,0,0,12.687676,-443.67217,-337.80937)" /><circle
   d="m 61.543999,35.146999 c 0,1.150962 -0.933038,2.084 -2.084,2.084 -1.150961,0 -2.084,-0.933038 -2.084,-2.084 0,-1.150961 0.933039,-2.084 2.084,-2.084 1.150962,0 2.084,0.933039 2.084,2.084 z"
   sodipodi:ry="2.0840001"
   sodipodi:rx="2.0840001"
   sodipodi:cy="35.146999"
   sodipodi:cx="59.459999"
   cx="59.459999"
   cy="35.146999"
   r="2.0840001"
   id="circle115"
   clip-path="none"
   transform="matrix(12.687676,0,0,12.687676,-443.67217,-337.80937)" /><circle
   d="m 61.543999,35.146999 c 0,1.150962 -0.933038,2.084 -2.084,2.084 -1.150961,0 -2.084,-0.933038 -2.084,-2.084 0,-1.150961 0.933039,-2.084 2.084,-2.084 1.150962,0 2.084,0.933039 2.084,2.084 z"
   style="fill:none;stroke:#000000;stroke-width:0.833;stroke-miterlimit:3.86400008"
   sodipodi:ry="2.0840001"
   sodipodi:rx="2.0840001"
   sodipodi:cy="35.146999"
   sodipodi:cx="59.459999"
   stroke-miterlimit="3.864"
   cx="59.459999"
   cy="35.146999"
   r="2.0840001"
   id="circle117"
   clip-path="none"
   transform="matrix(12.687676,0,0,12.687676,-443.67217,-337.80937)" /><path
   inkscape:connector-curvature="0"
   d="m 487.93313,506.92341 c 1.90315,0 3.61599,-0.12688 3.61599,-2.41066 0,-1.8524 -1.67478,-2.18228 -3.24805,-2.18228 h -3.07042 v 4.59294 h 2.70248 m -2.70248,8.34849 h -2.24572 v -14.85727 h 5.65871 c 3.51448,0 5.2527,1.29415 5.2527,4.225 0,2.66441 -1.67478,3.81899 -3.85706,4.09812 l 4.225,6.53415 h -2.51216 l -3.92049,-6.43265 h -2.60098 v 6.43265 z m 2.74054,3.31148 c 5.82364,0 10.41658,-4.56756 10.41658,-10.77183 0,-6.10277 -4.59294,-10.69571 -10.41658,-10.69571 -5.89977,0 -10.50539,4.59294 -10.50539,10.69571 0,6.20427 4.60562,10.77183 10.50539,10.77183 z m -13.09368,-10.77183 c 0,-7.39692 6.00127,-12.85262 13.09368,-12.85262 7.01629,0 13.01756,5.4557 13.01756,12.85262 0,7.46035 -6.00127,12.91605 -13.01756,12.91605 -7.09241,0 -13.09368,-5.4557 -13.09368,-12.91605 z"
   id="path119"
   clip-path="none" /><path
   inkscape:connector-curvature="0"
   d="m 439.12364,21.759368 h -7.4096 v 20.566723 h -4.27575 V 21.759368 h -7.4096 v -3.501799 h 19.09495 v 3.501799 m 17.64856,14.197509 6.77521,-17.699308 h 6.54685 V 42.326091 H 465.8312 V 22.761694 h -0.11419 l -7.53648,19.564397 h -2.93086 L 447.7132,22.761694 h -0.11419 v 19.564397 h -4.26306 V 18.257569 h 6.54684 l 6.88941,17.699308 z"
   id="path121"
   clip-path="none" />
</svg>