<?xml version="1.0" encoding="UTF-8" standalone="no"?>
<svg
   xmlns:dc="http://purl.org/dc/elements/1.1/"
   xmlns:cc="http://creativecommons.org/ns#"
   xmlns:rdf="http://www.w3.org/1999/02/22-rdf-syntax-ns#"
   xmlns:svg="http://www.w3.org/2000/svg"
   xmlns="http://www.w3.org/2000/svg"
   xmlns:sodipodi="http://sodipodi.sourceforge.net/DTD/sodipodi-0.dtd"
   xmlns:inkscape="http://www.inkscape.org/namespaces/inkscape"
   version="1.1"
   id="Layer_1"
   x="0px"
   y="0px"
   width="660"
   height="266"
   viewBox="0 0 660 266"
   enable-background="new 0 0 595 842"
   xml:space="preserve">
<path
   style="fill:#a3112a;fill-rule:evenodd"
   inkscape:connector-curvature="0"
   clip-rule="evenodd"
   d="m 135.83938,176.18458 c 0,20.87337 -4.12554,25.52634 -11.70469,25.52634 -8.76407,0 -9.68888,-8.73516 -9.68888,-20.62048 v -24.67378 c 0,-19.46446 6.92166,-24.31252 21.39357,-31.36423 v 51.13215 M 125.14621,44.051642 c -22.48457,0 -33.856904,13.279765 -33.856904,36.884222 v 17.26803 l 15.389504,0.0072 c 3.02009,0 6.96501,-2.492665 6.96501,-7.384069 V 78.349272 c 0,-12.477777 4.718,-14.847615 12.00814,-14.847615 6.02575,0 10.18019,4.111091 10.18019,16.393791 v 25.461312 c -25.56246,9.55161 -45.511009,19.45724 -45.511009,48.69006 v 32.65031 c 0,23.66226 6.878311,35.33805 27.058059,35.33805 7.91151,0 13.69883,-3.43916 19.50782,-10.49087 0,0 -0.0434,0.74418 -0.0434,1.8713 0,2.8756 1.82073,7.16009 7.60082,7.16009 h 16.9718 V 78.349272 c 0.007,-23.337128 -12.5139,-34.29763 -36.27008,-34.29763 z"
   id="path3"
   clip-path="none" /><path
   style="fill:#a3112a;fill-rule:evenodd"
   inkscape:connector-curvature="0"
   clip-rule="evenodd"
   d="m 292.8484,58.090044 c -5.06481,-11.285633 -13.52542,-14.045627 -23.25765,-14.045627 -8.07768,0 -15.3606,3.410255 -20.98897,10.107938 0,0 0,-0.924815 0,-1.965232 0,-3.027324 -2.08083,-7.080614 -7.43464,-7.080614 l -16.29987,0.01445 V 220.5757 h 25.60582 l 0.0144,-135.333666 c 0,-17.766563 4.88418,-21.733152 12.76678,-21.733152 5.83789,0 11.15558,2.637168 11.15558,14.999343 V 220.5757 h 25.76477 V 85.242034 c 0,-17.759338 4.31339,-21.733152 12.21044,-21.733152 5.82345,0 11.21339,2.644393 11.21339,14.999343 V 220.5757 h 25.15063 V 86.2391 c 0,-26.891885 -9.93454,-42.194683 -32.61418,-42.194683 -8.07768,0 -17.79546,4.176117 -23.28655,14.045627"
   id="path5"
   clip-path="none" /><path
   style="fill:#a3112a;fill-rule:evenodd"
   inkscape:connector-curvature="0"
   id="path15"
   d="M 25.656343,185.65671 V 84.04989 c 0,-15.187196 4.703551,-21.55975 12.940184,-21.55975 6.545956,0 11.047204,2.232562 11.047204,20.533783 v 97.965367 c 0,18.57577 -5.397162,20.69273 -12.080395,20.62048 -5.50554,-0.0722 -11.906993,-5.96795 -11.906993,-15.95306 m 0,80.3433 v -52.68555 c 6.408678,7.75978 13.221964,8.70627 20.013574,8.70627 18.583001,0 29.615755,-15.23778 29.615755,-37.39721 V 85.090307 c 0,-26.81241 -9.125323,-41.110917 -29.615755,-41.110917 -7.947629,0 -16.718921,0.679161 -22.527915,10.201866 0,0 0,-1.5534 0,-1.871306 0,-3.764286 -3.099575,-7.196216 -7.203442,-7.196216 H -4.82283e-5 V 266.00001 H 25.656343 z"
   clip-rule="evenodd"
   clip-path="none" /><path
   style="fill:#a3112a"
   inkscape:connector-curvature="0"
   d="m 206.08919,203.1415 -0.0361,-0.0217 V 1.026658e-4 L 196.97832,0.00732778 167.87555,20.700063 v 8.540089 h 9.06029 c 1.64011,0 3.36691,1.069317 3.36691,2.608267 V 203.12704 c -5.57057,0.0795 -7.36962,4.74691 -7.36962,7.18177 v 10.18742 h 40.4173 v -10.18742 c 0,-2.41319 -1.77015,-7.05894 -7.26124,-7.16731"
   id="path17"
   clip-path="none" /><path
   style="fill:#f78e1e"
   inkscape:connector-curvature="0"
   d="m 472.60931,45.099284 c 0,0 9.83339,0 17.07295,0 5.23821,0 7.20344,4.212243 7.20344,7.188991 0,0.686386 0,1.914656 0,1.914656 4.90586,-6.220826 11.91422,-10.18019 24.55095,-10.18019 12.96909,0 24.29085,7.644174 24.29085,30.21544 V 220.5757 H 519.7821 V 77.229379 c 0,-7.925953 -1.93633,-13.720497 -9.93453,-13.720497 -6.34366,0 -11.30731,4.262819 -11.30731,16.169812 V 220.5757 H 472.60209 V 45.099284"
   id="path19"
   clip-path="none" /><path
   style="fill:#f78e1e;fill-rule:evenodd"
   inkscape:connector-curvature="0"
   clip-rule="evenodd"
   d="m 588.30511,89.02077 c 0,-20.866138 3.42471,-25.526338 10.9894,-25.526338 8.7713,0 10.40417,8.735166 10.40417,20.620484 V 97.60421 c 0,19.45724 -6.91443,26.05377 -21.39357,33.09104 V 89.02077 m 10.7004,133.01441 c 22.47011,0 33.84245,-13.29422 33.84245,-36.88423 v -17.26803 h -15.03547 c -5.66449,0 -7.31182,4.72523 -7.31182,7.16009 v 12.69454 c 0,12.485 -4.72523,14.84761 -12.01537,14.84761 -6.02575,0 -10.18019,-4.11832 -10.18019,-16.40101 v -35.77156 c 25.56247,-9.55883 45.51824,-21.19849 45.51824,-50.431317 V 79.375239 c 0,-23.655033 -14.18291,-35.345273 -34.36266,-35.345273 -13.26531,0 -36.81197,4.6024 -36.81197,32.3613 0,27.744454 0,110.313084 0,110.313084 v 1.04042 c 0,23.33713 12.58615,34.29041 36.35679,34.29041 z"
   id="path21"
   clip-path="none" /><path
   style="fill:#f78e1e"
   inkscape:connector-curvature="0"
   d="m 428.07369,174.47946 c 0,21.66812 -4.08219,30.74287 -14.68144,30.74287 -10.36804,0 -14.45023,-9.07475 -14.45023,-30.74287 V 50.250792 c 0,-21.653676 4.08219,-30.742873 14.45023,-30.742873 10.59925,0 14.68144,9.089197 14.68144,30.742873 V 174.47946 M 413.39225,0.06512872 c -31.34256,0 -40.48955,23.73450928 -40.48955,54.54240928 V 170.05768 c 0,30.8079 9.15422,54.54241 40.48955,54.54241 29.72413,0 40.59071,-23.45273 40.59071,-54.60021 V 54.665339 c 0,-31.14748 -10.86658,-54.60021028 -40.59071,-54.60021028 z"
   id="path23"
   clip-path="none" /><path
   style="fill:#f78e1e"
   inkscape:connector-curvature="0"
   id="path33"
   d="m 659.99995,54.058429 h -1.58953 v -8.605115 h -0.0289 l -3.44638,8.605115 h -0.93926 l -3.33801,-8.605115 h -0.0361 v 8.605115 h -1.5823 V 44.022741 h 2.56491 l 2.85392,7.07339 3.00565,-7.07339 h 2.52879 v 10.035688 m -12.75233,-8.605115 h -3.18627 v 8.605115 h -1.66901 v -8.605115 h -3.25852 v -1.423348 h 8.12103 v 1.423348 z"
   clip-path="none" />
</svg>