<?xml version="1.0" encoding="UTF-8" standalone="no"?>
<svg
   xmlns:dc="http://purl.org/dc/elements/1.1/"
   xmlns:cc="http://creativecommons.org/ns#"
   xmlns:rdf="http://www.w3.org/1999/02/22-rdf-syntax-ns#"
   xmlns:svg="http://www.w3.org/2000/svg"
   xmlns="http://www.w3.org/2000/svg"
   xmlns:sodipodi="http://sodipodi.sourceforge.net/DTD/sodipodi-0.dtd"
   xmlns:inkscape="http://www.inkscape.org/namespaces/inkscape"
   version="1.1"
   id="Layer_1"
   x="0px"
   y="0px"
   width="732"
   height="318"
   viewBox="0 0 732 318"
   enable-background="new 0 0 1080 1080"
   xml:space="preserve">
<path
   d="m 424.88972,117.72749 h -48.29937 v 110.55088 h 16.70814 V 194.3418 h 31.59123 c 15.61972,0 28.32598,-12.71435 28.32598,-28.33996 v -19.94321 c 0,-15.6293 -12.70699,-28.33114 -28.32598,-28.33114 m 11.58693,48.27435 c 0,6.3958 -5.2029,11.58913 -11.58693,11.58913 H 393.29849 V 134.4636 h 31.59123 c 6.38403,0 11.58693,5.20584 11.58693,11.59576 v 19.94248 z"
   id="path7"
   inkscape:connector-curvature="0"
   style="fill:#808285"
   clip-path="none" /><rect
   x="567.75891"
   y="88.972473"
   width="16.750824"
   height="105.36933"
   id="rect9"
   style="fill:#808285"
   clip-path="none" /><path
   d="m 703.6325,117.72749 h -14.96403 c -6.96982,0 -13.67103,2.57054 -18.89748,7.25168 l -1.06413,0.96331 -1.08179,-0.97582 c -5.18082,-4.66863 -11.89601,-7.23917 -18.88423,-7.23917 h -14.9942 c -15.5925,0 -28.2936,12.70184 -28.2936,28.33114 v 48.28243 h 16.73021 v -48.28243 c 0,-6.38993 5.18892,-11.59577 11.56339,-11.59577 h 14.9942 c 6.40538,0 11.59797,5.20584 11.59797,11.59577 v 48.28243 h 16.74126 v -48.28243 c 0,-6.38993 5.20584,-11.59577 11.5884,-11.59577 h 14.96403 c 6.38477,0 11.59061,5.20584 11.59061,11.59577 v 48.28243 h 16.7729 v -48.28243 c 0,-15.6293 -12.73127,-28.33114 -28.36351,-28.33114"
   id="path11"
   inkscape:connector-curvature="0"
   style="fill:#808285"
   clip-path="none" /><path
   d="m 470.15933,146.05863 v 19.94321 c 0,15.62487 12.72392,28.33996 28.351,28.33996 h 48.29274 v -76.61431 h -48.29274 c -15.62708,0 -28.351,12.70184 -28.351,28.33114 m 59.87673,31.53234 h -31.52499 c -6.37668,0 -11.57074,-5.19333 -11.57074,-11.58913 v -19.94321 c 0,-6.38993 5.19406,-11.59577 11.57074,-11.59577 h 31.52499 v 43.12811 z"
   id="path13"
   inkscape:connector-curvature="0"
   style="fill:#808285"
   clip-path="none" /><path
   d="M 317.99779,159.00552 C 317.99779,71.186959 246.81599,2.7443999e-6 159.0011,2.7443999e-6 c -2.39833,0 -4.77459,0.0625525056 -7.14055,0.1663160656001 L 119.33399,89.561205 h 28.31715 c 16.86121,0 25.93794,12.971185 20.16987,28.824195 l -40.11088,110.24842 -33.685623,-0.008 43.038333,-118.16756 h -25.3161 L 68.695159,228.62572 H 34.994814 L 85.614507,89.561205 h 0.0081 L 116.07316,5.8696353 C 49.111074,24.601534 1.0080002e-7,86.059736 1.0080002e-7,159.00552 1.0080002e-7,234.11047 52.072383,297.03829 122.08409,313.68535 l 29.513,-81.08276 h 0.0177 L 203.67021,89.560469 h 62.03369 c 16.87078,0 25.95634,12.971181 20.18385,28.824191 l -35.25385,96.83496 c -2.68093,7.36795 -11.29919,13.40537 -19.1418,13.40537 h -44.72284 l -32.48977,89.3051 c 1.56897,0.0405 3.14161,0.0699 4.72161,0.0699 87.81489,0 158.99669,-71.18475 158.99669,-158.99448 z"
   id="path17"
   inkscape:connector-curvature="0"
   style="fill:#005295"
   clip-path="none" /><polygon
   points="341.465,594.931 389.648,462.739 355.234,462.739 307.062,594.931 "
   id="polygon19"
   style="fill:#005295"
   clip-path="none"
   transform="matrix(0.7359118,0,0,0.7359118,-31.538236,-230.1623)" />
</svg>