<?xml version="1.0" encoding="utf-8"?>
<!-- Generator: Adobe Illustrator 12.0.0, SVG Export Plug-In . SVG Version: 6.00 Build 51448)  -->
<!DOCTYPE svg PUBLIC "-//W3C//DTD SVG 1.1//EN" "http://www.w3.org/Graphics/SVG/1.1/DTD/svg11.dtd" [
	<!ENTITY ns_svg "http://www.w3.org/2000/svg">
	<!ENTITY ns_xlink "http://www.w3.org/1999/xlink">
]>
<svg  version="1.1" id="Layer_1" xmlns="&ns_svg;" xmlns:xlink="&ns_xlink;" width="972.07" height="230.071"
	 viewBox="0 0 972.07 230.071" overflow="visible" enable-background="new 0 0 972.07 230.071" xml:space="preserve">
<g>
	<polygon opacity="0" fill-rule="evenodd" clip-rule="evenodd" fill="#FFFFFF" points="0,0 972.07,0 972.07,230.071 0,230.071 0,0 	
		"/>
	<path fill-rule="evenodd" clip-rule="evenodd" fill="#001EAA" d="M266.47,87.111h32.787l1.44,10.811c2.521-8.646,19.096-14.772,29.185-14.772
		c23.417,0,32.784,14.41,32.784,39.632v54.399h-36.387v-48.637c0-9.727-1.802-16.932-11.529-16.932
		c-9.008,0-13.691,9.732-13.691,16.578v48.991H266.47V87.111L266.47,87.111z"/>
	<path fill-rule="evenodd" clip-rule="evenodd" fill="#001EAA" d="M54.265,177.545V50.003h60.885c36.392,0,52.964,17.655,52.964,43.235
		c0,27.377-15.131,46.111-52.964,46.111H94.616v38.196H54.265L54.265,177.545z M110.828,108.37c9.726,0,20.177-2.162,20.177-13.332
		c0-11.529-11.17-14.051-20.177-14.051H94.616v27.382H110.828L110.828,108.37z"/>
	<path fill-rule="evenodd" clip-rule="evenodd" fill="#001EAA" d="M667.106,87.111h33.148l1.078,10.811c2.881-8.646,19.457-14.772,29.545-14.772
		c23.057,0,32.784,14.41,32.784,39.632v54.764h-36.384v-49.001c0-9.727-2.164-16.932-11.895-16.932
		c-8.644,0-13.331,9.732-13.331,16.578v49.355h-34.946V87.111L667.106,87.111z"/>
	<path fill-rule="evenodd" clip-rule="evenodd" fill="#001EAA" d="M499.934,145.121c0,3.604,1.802,9.003,3.964,10.806
		c2.522,1.802,5.767,3.604,9.726,3.604c6.487,0,11.534-1.802,11.534-7.928c0.36-15.129-54.766-1.802-54.766-37.828
		c0-25.22,19.456-30.984,39.632-30.984c20.178,0,47.919,3.961,46.836,31.343h-30.622c0-2.521-1.08-4.322-2.522-6.485
		c-2.162-2.522-4.684-3.603-9.367-3.963c-6.126-0.359-11.894,0.722-11.894,5.403c0.364,14.058,56.927,4.686,56.927,37.834
		c0,23.059-16.213,33.499-47.556,33.499c-19.816-0.355-44.677-10.44-44.677-35.302H499.934L499.934,145.121z"/>
	<path fill-rule="evenodd" clip-rule="evenodd" fill="#001EAA" d="M872.829,122.063c0-2.167,0-5.046-2.88-8.648
		c-1.444-1.803-4.688-5.767-9.732-5.767c-13.686,0-17.29,13.331-17.29,24.136c0,12.617,5.762,23.057,16.571,23.057
		c9.367,0,14.052-8.637,14.052-15.848h31.706c0.718,18.734-12.249,41.073-47.195,41.073c-28.465,0-48.643-19.817-48.643-48.638
		c0-34.949,25.943-48.28,48.277-48.28c30.263,0,47.561,18.374,47.2,38.914H872.829L872.829,122.063z"/>
	<path fill-rule="evenodd" clip-rule="evenodd" fill="#001EAA" d="M227.921,177.545l-3.603-7.563c-6.845,5.761-14.052,9.001-25.582,9.001
		c-11.167-0.354-33.144-1.802-33.144-25.943c0-39.625,59.086-21.61,59.086-41.068c0-6.483-7.206-6.124-11.17-6.124
		c-7.206,0-11.889,1.44-12.969,12.247h-30.266c0-18.734,5.767-34.586,45.4-34.586c38.549,0,42.511,20.176,42.511,39.992v41.073
		c0,5.408,0.36,7.93,3.965,11.889v0.718L227.921,177.545L227.921,177.545z M225.037,136.109
		c-12.248,5.761-27.741,5.407-28.101,14.409c0,5.772,3.243,8.647,10.448,8.647C219.273,159.166,225.759,146.923,225.037,136.109
		L225.037,136.109z M431.121,177.545l-3.603-7.563c-6.845,5.761-14.413,9.001-25.582,9.001
		c-11.528-0.354-33.505-1.802-33.505-25.943c0-39.625,59.087-21.61,59.447-41.068c0-6.483-7.564-6.124-11.169-6.124
		c-7.564,0-11.889,1.44-12.969,12.247h-30.264c0-18.734,5.403-34.586,45.395-34.586c38.189,0,42.154,20.176,42.154,39.992v41.073
		c0,5.408,0.359,7.93,3.962,11.889v0.718L431.121,177.545L431.121,177.545z M428.24,136.109
		c-12.25,5.761-28.104,5.407-28.104,14.409c0,5.772,2.881,8.647,10.449,8.647C422.113,159.166,428.959,146.923,428.24,136.109
		L428.24,136.109z"/>
	<path fill-rule="evenodd" clip-rule="evenodd" fill="#001EAA" d="M803.656,177.545V87.111h-33.508v90.435H803.656L803.656,177.545z
		 M770.148,75.583h33.508V49.644h-33.508V75.583L770.148,75.583z"/>
	<path fill-rule="evenodd" clip-rule="evenodd" fill="#001EAA" d="M613.065,83.871c29.905,0,48.277,20.896,48.277,48.278
		c0,27.736-18.372,48.273-48.277,48.273c-29.903,0-48.643-20.537-48.643-48.273C564.423,104.768,583.162,83.871,613.065,83.871
		L613.065,83.871z M597.214,132.149c0,11.17,3.6,24.861,15.852,25.215c12.248,0,15.489-14.045,15.489-25.215
		c0-10.805-3.241-24.861-15.489-24.861C600.813,107.288,597.571,121.344,597.214,132.149L597.214,132.149z"/>

</g>
</svg>
