<?xml version="1.0" encoding="UTF-8" standalone="no"?>
<!-- Created with Inkscape (http://www.inkscape.org/) -->

<svg
   xmlns:dc="http://purl.org/dc/elements/1.1/"
   xmlns:cc="http://creativecommons.org/ns#"
   xmlns:rdf="http://www.w3.org/1999/02/22-rdf-syntax-ns#"
   xmlns:svg="http://www.w3.org/2000/svg"
   xmlns="http://www.w3.org/2000/svg"
   xmlns:sodipodi="http://sodipodi.sourceforge.net/DTD/sodipodi-0.dtd"
   xmlns:inkscape="http://www.inkscape.org/namespaces/inkscape"
   width="1000"
   height="126.51881"
   id="svg2"
   version="1.1"
   inkscape:version="0.48.2 r9819"
   sodipodi:docname="New document 1">
  <defs
     id="defs4">
    <clipPath
       id="clipPath2999"
       clipPathUnits="userSpaceOnUse">
      <path
         id="path3001"
         d="M 0,792 612,792 612,0 0,0 0,792 z"
         inkscape:connector-curvature="0" />
    </clipPath>
  </defs>
  <sodipodi:namedview
     id="base"
     pagecolor="#ffffff"
     bordercolor="#666666"
     borderopacity="1.0"
     inkscape:pageopacity="0.0"
     inkscape:pageshadow="2"
     inkscape:zoom="0.7"
     inkscape:cx="1141.0353"
     inkscape:cy="-147.57658"
     inkscape:document-units="px"
     inkscape:current-layer="g2993"
     showgrid="false"
     fit-margin-left="0.5"
     fit-margin-top="0.5"
     fit-margin-bottom="0.5"
     fit-margin-right="0.5"
     inkscape:window-width="1920"
     inkscape:window-height="1028"
     inkscape:window-x="-8"
     inkscape:window-y="-8"
     inkscape:window-maximized="1" />
  <metadata
     id="metadata7">
    <rdf:RDF>
      <cc:Work
         rdf:about="">
        <dc:format>image/svg+xml</dc:format>
        <dc:type
           rdf:resource="http://purl.org/dc/dcmitype/StillImage" />
        <dc:title></dc:title>
      </cc:Work>
    </rdf:RDF>
  </metadata>
  <g
     inkscape:label="Layer 1"
     inkscape:groupmode="layer"
     id="layer1"
     transform="translate(1060.0941,-460.99244)">
    <g
       transform="matrix(1.25,0,0,-1.25,-1243.908,1203.3979)"
       inkscape:label="Pandora_Identity_Standards_2009"
       id="g2993">
      <g
         id="g2995"
         transform="matrix(2.3354238,0,0,2.3354238,-196.90971,-658.50988)">
        <g
           clip-path="url(#clipPath2999)"
           id="g2997">
          <g
             transform="translate(174.0571,523.125)"
             id="g3003">
            <path
               id="path3005"
               style="fill:#336699;fill-opacity:1;fill-rule:evenodd;stroke:none"
               d="m 0,0 c 0,-4.329 -2.393,-7.919 -7.548,-7.919 l -5.248,0 0,16.018 5.248,0 C -2.393,8.099 0,4.417 0,0 m -12.796,-15.837 0,4.51 5.248,0 c 9.483,0 14.73,4.973 14.73,11.327 0,6.536 -5.247,11.414 -14.73,11.414 l -19.058,0 0,-1.842 c 6.168,0 7.273,-1.473 7.273,-10.677 l 0,-14.732 c 0,-9.206 -1.105,-10.771 -7.273,-10.771 l 0,-1.841 21.082,0 0,1.841 c -6.168,0 -7.272,1.565 -7.272,10.771"
               inkscape:connector-curvature="0" />
          </g>
          <g
             transform="translate(198.7563,507.8408)"
             id="g3007">
            <path
               id="path3009"
               style="fill:#336699;fill-opacity:1;fill-rule:evenodd;stroke:none"
               d="m 0,0 15.1,0 1.841,-4.234 c 2.302,-5.432 1.657,-6.998 -4.973,-6.998 l 0,-1.933 20.623,0 0,1.933 c -4.879,0 -5.982,1.104 -9.021,8.009 l -13.535,31.488 -1.288,0 -13.533,-31.488 c -3.039,-6.905 -3.867,-8.009 -9.484,-8.009 l 0,-1.933 17.401,0 0,1.933 c -7.272,0 -7.272,1.566 -4.973,6.998 L 0,0 z m 13.626,3.405 -12.152,0 6.077,14.086 6.075,-14.086 z"
               inkscape:connector-curvature="0" />
          </g>
          <g
             transform="translate(244.8765,522.0195)"
             id="g3011">
            <path
               id="path3013"
               style="fill:#336699;fill-opacity:1;fill-rule:evenodd;stroke:none"
               d="m 0,0 0,-14.731 c 0,-9.207 -1.104,-10.772 -7.274,-10.772 l 0,-1.841 17.953,0 0,1.841 c -6.169,0 -7.274,1.565 -7.274,10.772 l 0,18.044 26.792,-32.129 1.749,0 0,28.816 c 0,9.204 1.105,10.678 7.272,10.678 l 0,1.842 -17.95,0 0,-1.842 c 6.167,0 7.271,-1.474 7.271,-10.678 l 0,-16.571 -24.488,29.091 -11.325,0 0,-1.842 C -1.104,10.678 0,9.204 0,0"
               inkscape:connector-curvature="0" />
          </g>
          <g
             transform="translate(326.8384,514.6543)"
             id="g3015">
            <path
               id="path3017"
               style="fill:#336699;fill-opacity:1;fill-rule:evenodd;stroke:none"
               d="m 0,0 c 0,-7.366 -2.392,-16.572 -14.545,-16.572 l -0.735,0 c -4.604,0 -5.25,1.012 -5.25,6.997 l 0,26.144 5.985,0 C -2.392,16.569 0,7.271 0,0 m -34.34,-19.979 19.519,0 c 15.651,0 22.463,9.024 22.463,19.979 0,10.863 -6.812,19.885 -22.463,19.885 l -19.519,0 0,-1.842 c 6.17,0 7.276,-1.474 7.276,-10.678 l 0,-14.731 c 0,-9.206 -1.106,-10.772 -7.276,-10.772 l 0,-1.841 z"
               inkscape:connector-curvature="0" />
          </g>
          <g
             transform="translate(389.0923,514.6543)"
             id="g3019">
            <path
               id="path3021"
               style="fill:#336699;fill-opacity:1;fill-rule:evenodd;stroke:none"
               d="m 0,0 c 0,11.691 -10.127,21.451 -22.463,21.451 -12.337,0 -22.466,-9.76 -22.466,-21.451 0,-11.876 10.129,-21.545 22.466,-21.545 C -10.127,-21.545 0,-11.876 0,0 m -7.552,0 c 0,-8.009 -4.048,-17.954 -14.911,-17.954 -10.864,0 -14.915,9.945 -14.915,17.954 0,7.916 4.051,17.953 14.915,17.953 C -11.6,17.953 -7.552,7.916 -7.552,0"
               inkscape:connector-curvature="0" />
          </g>
          <g
             transform="translate(424.2134,523.125)"
             id="g3023">
            <path
               id="path3025"
               style="fill:#336699;fill-opacity:1;fill-rule:evenodd;stroke:none"
               d="m 0,0 c 0,-4.329 -2.392,-7.919 -7.549,-7.919 l -5.249,0 0,16.018 5.249,0 C -2.392,8.099 0,4.417 0,0 M -3.958,-11.142 C 2.946,-10.222 7.181,-5.617 7.181,0 c 0,6.536 -5.247,11.414 -14.73,11.414 l -19.059,0 0,-1.842 c 6.171,0 7.273,-1.473 7.273,-10.677 l 0,-14.732 c 0,-9.206 -1.102,-10.771 -7.273,-10.771 l 0,-1.841 21.084,0 0,1.841 c -6.169,0 -7.274,1.565 -7.274,10.771 l 0,4.51 2.578,0 12.523,-17.122 11.785,0 0,1.841 c -4.419,0.644 -8.656,4.234 -12.336,8.562 l -5.71,6.904 z"
               inkscape:connector-curvature="0" />
          </g>
          <g
             transform="translate(457.0688,507.8408)"
             id="g3027">
            <path
               id="path3029"
               style="fill:#336699;fill-opacity:1;fill-rule:evenodd;stroke:none"
               d="m 0,0 15.1,0 1.838,-4.234 c 2.302,-5.432 1.66,-6.998 -4.97,-6.998 l 0,-1.933 20.622,0 0,1.933 c -4.878,0 -5.984,1.104 -9.023,8.009 l -13.53,31.488 -1.292,0 -13.533,-31.488 c -3.04,-6.905 -3.865,-8.009 -9.48,-8.009 l 0,-1.933 17.399,0 0,1.933 c -7.272,0 -7.272,1.566 -4.973,6.998 L 0,0 z m 13.627,3.405 -12.155,0 6.079,14.086 6.076,-14.086 z"
               inkscape:connector-curvature="0" />
          </g>
        </g>
      </g>
    </g>
  </g>
</svg>
