<?xml version="1.0" encoding="UTF-8" standalone="no"?>
<!-- Created with Inkscape (http://www.inkscape.org/) -->

<svg
   xmlns:dc="http://purl.org/dc/elements/1.1/"
   xmlns:cc="http://creativecommons.org/ns#"
   xmlns:rdf="http://www.w3.org/1999/02/22-rdf-syntax-ns#"
   xmlns:svg="http://www.w3.org/2000/svg"
   xmlns="http://www.w3.org/2000/svg"
   xmlns:xlink="http://www.w3.org/1999/xlink"
   xmlns:sodipodi="http://sodipodi.sourceforge.net/DTD/sodipodi-0.dtd"
   xmlns:inkscape="http://www.inkscape.org/namespaces/inkscape"
   width="432"
   height="242"
   id="svg2"
   version="1.1"
   inkscape:version="0.47 r22583">
  <g
     inkscape:label="Layer 1"
     inkscape:groupmode="layer"
     id="layer1"
     transform="translate(-432.62783,-318.75242)">
    <path
       id="path14987"
       d="m 666.21601,439.36275 c 0,62.56728 -50.71243,113.27971 -113.27971,113.27971 -62.56728,0 -113.27971,-50.71243 -113.27971,-113.27971 0,-62.56728 50.71243,-113.27971 113.27971,-113.27971 62.56728,0 113.27971,50.71243 113.27971,113.27971"
       style="fill:#ffffff;fill-rule:nonzero;stroke:none" />
    <path
       id="path14991"
       stroke-miterlimit="4"
       d="m 666.21601,439.36275 c 0,62.56728 -50.71243,113.27971 -113.27971,113.27971 -62.56728,0 -113.27971,-50.71243 -113.27971,-113.27971 0,-62.56728 50.71243,-113.27971 113.27971,-113.27971 62.56728,0 113.27971,50.71243 113.27971,113.27971 z"
       style="fill:none;stroke:#221e1f;stroke-width:1.37208962;stroke-linecap:butt;stroke-linejoin:miter;stroke-miterlimit:4" />
    <path
       id="path14999"
       d="m 557.0855,431.73942 c 6.84215,0 12.38539,-5.54324 12.38539,-12.3671 0,-6.84215 -5.54324,-12.3854 -12.38539,-12.3854 -6.84215,0 -12.3854,5.54325 -12.3854,12.3854 0,6.82386 5.54325,12.3671 12.3854,12.3671 m -26.50877,-58.14001 c -29.47248,0 -53.73103,20.58135 -53.73103,51.11491 0,25.66722 15.45888,43.99834 38.52828,47.51089 l 0,35.71091 48.00484,0 0,-34.33882 6.6592,0 c 7.79347,-0.75008 13.0623,-5.89084 13.15377,-13.11718 l 0,-19.84956 13.06229,0 -29.7469,-67.03115 z m 92.42395,67.03115 13.08059,0 -29.36272,-67.03115 -19.24584,0 29.47248,67.03115 -13.42818,0 0,17.78228 c 0.0366,10.77548 -4.48216,15.3857 -19.11778,15.18446 l 0,34.33882 19.06289,0 0,-34.33882 6.29332,0 c 5.59813,0.16465 13.13547,-4.37239 13.24524,-13.17206 z m -190.37285,-0.87814 c 0,-66.8299 54.18839,-121 121,-121 66.82991,0 121,54.1701 121,121 0,66.82991 -54.17009,121 -121,121 -66.81161,0 -121,-54.17009 -121,-121"
       style="fill:#221e1f;fill-rule:nonzero;stroke:none" />
    <path
       id="path15003"
       d="m 725.58724,436.65882 8.12277,0 c 6.91533,0 10.7023,-4.31751 10.7023,-9.62292 0,-5.50666 -3.96991,-9.64122 -10.7023,-9.64122 l -8.12277,0 z m -12.20245,-19.24584 -8.41548,0 0,-10.42788 27.84427,0 c 15.12957,0 23.78288,7.79346 23.78288,20.0508 0,12.47686 -9.05579,20.08739 -23.3804,20.08739 -1.18915,0.0183 -7.62882,0 -7.62882,0 l 0,15.86135 9.86075,0 0,10.48277 -30.58845,0 0,-10.48277 8.52525,0 z"
       style="fill:#221e1f;fill-rule:nonzero;stroke:none" />
    <path
       id="path15007"
       d="m 780.67206,433.59814 7.28122,0 c 5.48836,0 9.18385,-3.23813 9.18385,-8.10447 0,-4.81146 -3.6589,-8.08618 -9.18385,-8.08618 l -7.28122,0 z m 0,29.38101 7.75688,0 c 6.40308,0 10.73889,-3.51255 10.73889,-9.47656 0,-5.031 -3.3662,-9.40339 -10.73889,-9.40339 l -7.75688,0 z m -12.18415,-45.57166 -7.64712,0 0,-10.42788 26.72831,0 c 16.53825,0 21.80707,9.91563 21.80707,17.12367 0,6.12867 -3.25642,11.0499 -8.013,13.3733 6.6775,2.78077 10.42788,9.65951 10.42788,15.67841 0,14.48927 -11.3609,20.30693 -22.24614,20.30693 l -29.58225,0 0,-10.48277 8.52525,0 z"
       style="fill:#221e1f;fill-rule:nonzero;stroke:none" />
    <path
       id="path15011"
       d="m 851.01635,417.28674 c -2.17705,-0.84154 -5.031,-1.60992 -7.88495,-1.60992 -8.15935,0 -10.75718,4.71999 -10.75718,8.41549 0,4.81146 3.11007,6.22014 6.97022,7.26292 l 7.04339,1.97581 c 8.65331,2.45147 18.23964,5.67131 18.23964,19.35561 0,12.55005 -7.55564,21.69731 -24.27683,21.69731 -6.47627,0 -13.19036,-0.75007 -21.0753,-3.6772 l 0,-17.45298 12.25733,0 0,8.67161 c 3.11007,1.42697 6.47627,1.70139 9.91564,1.70139 7.22634,0 10.40958,-3.87844 10.40958,-8.87285 0,-3.40278 -1.68309,-5.83595 -9.56803,-8.12277 l -6.47627,-1.88433 c -12.09268,-3.49426 -16.20895,-8.76308 -16.20895,-18.97143 0,-10.46447 6.54944,-19.7215 23.17917,-19.7215 7.15316,0 14.28802,1.31721 19.31902,3.49426 l 0,15.76988 -11.08648,0 z"
       style="fill:#221e1f;fill-rule:nonzero;stroke:none" />
  </g>
</svg>
