<?xml version="1.0" encoding="UTF-8" standalone="no"?>
<!-- Creator: CorelDRAW X6 -->

<svg
   xmlns:dc="http://purl.org/dc/elements/1.1/"
   xmlns:cc="http://creativecommons.org/ns#"
   xmlns:rdf="http://www.w3.org/1999/02/22-rdf-syntax-ns#"
   xmlns:svg="http://www.w3.org/2000/svg"
   xmlns="http://www.w3.org/2000/svg"
   xmlns:sodipodi="http://sodipodi.sourceforge.net/DTD/sodipodi-0.dtd"
   xmlns:inkscape="http://www.inkscape.org/namespaces/inkscape"
   xml:space="preserve"
   width="1.12666in"
   height="1.43333in"
   version="1.1"
   style="shape-rendering:geometricPrecision; text-rendering:geometricPrecision; image-rendering:optimizeQuality; fill-rule:evenodd; clip-rule:evenodd"
   viewBox="0 0 1127 1433"
   sodipodi:version="0.32"
   inkscape:version="0.48.4 r9939"
   id="svg3185"
   sodipodi:docname="PBS_old_logo.svg"><metadata
   id="metadata3204"><rdf:RDF><cc:Work
       rdf:about=""><dc:format>image/svg+xml</dc:format><dc:type
         rdf:resource="http://purl.org/dc/dcmitype/StillImage" /><dc:title /></cc:Work></rdf:RDF></metadata><sodipodi:namedview
   pagecolor="#ffffff"
   bordercolor="#666666"
   borderopacity="1"
   objecttolerance="10"
   gridtolerance="10"
   guidetolerance="10"
   inkscape:pageopacity="0"
   inkscape:pageshadow="2"
   inkscape:window-width="1280"
   inkscape:window-height="750"
   id="namedview3202"
   showgrid="false"
   inkscape:zoom="3.0182042"
   inkscape:cx="-68.41083"
   inkscape:cy="71.414907"
   inkscape:window-x="-8"
   inkscape:window-y="-8"
   inkscape:window-maximized="1"
   inkscape:current-layer="svg3185" />
 <defs
   id="defs3187">
  <style
   type="text/css"
   id="style3189">
   
    .fil1 {fill:black}
    .fil0 {fill:#2049A3}
    .fil2 {fill:white}
   
  </style>
 </defs>
 
<path
   style="fill:#2049a3;fill-rule:evenodd"
   d="M 362.88811,4.9842814 C 169.83461,4.9851714 4.0012072,173.89969 4.0012072,366.89902 c 0,162.99952 122.7267028,299.99129 273.7686028,338.99117 l 0,245.21287 341.1683,0 0,-245.21287 c 93.0258,3.00001 135.06314,-48.98834 133.06265,-98.9882 l 0,-131.98426 89.9823,0 -209.84295,-469.9334486 -269.252,0 z m 397.10336,0 209.14804,469.9334486 -87.89776,0 0,131.98426 c 0,26.99992 -10.25,104.98823 -130.28325,98.9882 l 0,244.17089 150.0863,0 0,-244.17089 c 93.02572,3.00001 131.9783,-46.98829 130.9781,-98.9882 l 0,-131.98426 89.9823,0 -209.8429,-469.9334486 -152.17083,0 z M 568.90941,243.94526 c 46.4047,0 84.076,37.17165 84.076,83.01115 0,45.8395 -37.6713,83.01117 -84.076,83.01117 -46.4048,0 -84.0761,-37.17167 -84.0761,-83.01117 0,-45.8395 37.6713,-83.01115 84.0761,-83.01115 z"
   id="path15154-3-1"
   inkscape:connector-curvature="0" /><g
   style="fill-rule:evenodd"
   id="_34568816-2-1"
   transform="matrix(1.000277,0,0,0.99999659,-0.14879285,0.00711141)"><path
     style="fill:#000000"
     inkscape:connector-curvature="0"
     id="_52424000-2-3"
     class="fil1"
     d="m 199,1089 -50,0 0,-62 164,0 c 89,0 140,46 140,119 0,74 -53,119 -138,119 -7,0 -45,0 -45,0 l 0,94 58,0 0,62 -180,0 0,-62 50,0 0,-270 1,0 0,0 0,0 z m 72,114 c 0,0 35,0 48,0 41,0 63,-26 63,-57 0,-33 -23,-57 -63,-57 -7,0 -48,0 -48,0 l 0,114 0,0 0,0 0,0 z" /><path
     sodipodi:nodetypes="ccsscssccccccsssccccccsssccc"
     style="fill:#000000"
     inkscape:connector-curvature="0"
     id="_52970408-1-8"
     class="fil1"
     d="m 449,1089 0,-62 158,0 c 98,0 129,59 129,102 0,36 -19,66 -47,79 39,17 62,57 62,93 0,86 -67,121 -131,121 l -174,0 0,-62 50,0 0,-271 z m 117,270 c 0,0 43,0.9988 46,0.9988 38,0 63,-21.9988 63,-56.9988 0,-30 -20,-56 -63,-56 -15,0 -46,0 -46,0 l 0,112 0,0.9988 z m 0,-174 43,0 c 32,0 54,-19 54,-48 0,-29 -22,-48 -54,-48 -13,0 -43,0 -43,0 l 0,96 0,0 z" /><path
     style="fill:#000000"
     inkscape:connector-curvature="0"
     id="_53746016-6-7"
     class="fil1"
     d="m 762,1422 58,0 0,-24 c 11,10 35,31 82,31 81,0 128,-59 128,-124 0,-51 -29,-93 -88,-112 -17,-5 -33,-10 -58,-18 -29,-9 -49,-25 -49,-49 0,-30 27,-44 51,-44 42,0 60,30 63,55 l 59,0 0,-112 -56,0 0,19 c -11,-11 -33,-26 -73,-26 -65,0 -116,43 -116,109 0,58 32,93 85,109 20,6 30,9 48,15 40,12 55,34 55,58 0,28 -20,54 -59,54 -41,0 -67,-31 -69,-65 l -61,0 0,124 0,0 z" /></g></svg>