<?xml version="1.0" encoding="UTF-8"?>
<!DOCTYPE svg PUBLIC "-//W3C//DTD SVG 1.1//EN" "http://www.w3.org/Graphics/SVG/1.1/DTD/svg11.dtd">
<!-- Creator: CorelDRAW -->
<svg xmlns="http://www.w3.org/2000/svg" xml:space="preserve" width="2.66666in" height="1.06666in" style="shape-rendering:geometricPrecision; text-rendering:geometricPrecision; image-rendering:optimizeQuality; fill-rule:evenodd; clip-rule:evenodd"
viewBox="0 0 2.66666 1.06666"
 xmlns:xlink="http://www.w3.org/1999/xlink">
 <defs>
  <style type="text/css">
   <![CDATA[
    .fil1 {fill:#1F1A17}
    .fil0 {fill:white}
   ]]>
  </style>
 </defs>
 <g id="Layer_x0020_1">
  <metadata id="CorelCorpID_0Corel-Layer"/>
  <g id="_34568816">
   <path id="_52906144" class="fil0" d="M1.02636 0.538248c0,0.263528 -0.21361,0.477118 -0.477118,0.477118 -0.263512,-3.93701e-006 -0.47711,-0.213587 -0.47711,-0.477114 0,-0.263512 0.213598,-0.477118 0.47711,-0.477118 0.263508,0 0.477118,0.21361 0.477118,0.477114z"/>
   <path id="_52793328" class="fil1" d="M0.0325512 0.538457c0,-0.284583 0.230713,-0.515299 0.515323,-0.515299 0.284583,0 0.51528,0.23072 0.51528,0.515299 0,0.284614 -0.230697,0.515287 -0.51528,0.515287 -0.28461,-3.93701e-006 -0.515323,-0.230673 -0.515323,-0.515287zm0.810728 0.00375197l0.055689 0 -0.125039 -0.285469 -0.0819724 0 0.125535 0.285469 -0.0572126 0 0 0.0757126c0.000177165,0.0459291 -0.0190276,0.0655276 -0.0813858,0.0647244l0 0.14615 0.081185 0 0 -0.14615 0.026815 0c0.0237756,0.000649606 0.0559567,-0.0186535 0.0563858,-0.056185l0 -0.084252zm-0.39361 -0.285469c-0.125547,0 -0.228799,0.0876732 -0.228799,0.217685 0,0.109343 0.0657992,0.187378 0.164055,0.202291l0 0.152079 0.204465 0 0 -0.14615 0.028378 0c0.033122,-0.00324409 0.0556024,-0.0251772 0.0559606,-0.0558937l0 -0.0845433 0.055689 0 -0.126744 -0.285469c0,0 -0.0747047,3.93701e-006 -0.153004,0zm0.112874 0.247583c0.029122,0 0.0527244,-0.0235709 0.0527244,-0.052689 0,-0.029122 -0.0236024,-0.0527165 -0.0527244,-0.0527165 -0.0291024,0 -0.0527126,0.0235945 -0.0527126,0.0527165 0,0.0291142 0.0236102,0.0526929 0.0527126,0.052689z"/>
   <path id="_52424000" class="fil1" d="M1.3148 0.347008l-0.0722087 0 0 -0.0894685 0.238933 0c0.129756,0 0.204043,0.0668976 0.204043,0.172024 3.93701e-006,0.107213 -0.0777874,0.172382 -0.200559,0.172382 -0.0102953,0.000251969 -0.0655236,8.26772e-005 -0.0655236,8.26772e-005l3.93701e-006 0.135988 0.0846378 0 0 0.09 -0.262476 0 0 -0.09 0.0731496 0 0 -0.391008zm0.104689 0.165118c0,0 0.0514173,0 0.0697165,0 0.0593465,0 0.0917677,-0.0369055 0.0917677,-0.082563 3.93701e-006,-0.0472323 -0.0340827,-0.0826535 -0.0917677,-0.0826535 -0.0103386,0 -0.0697205,0 -0.0697205,0l3.93701e-006 0.165217z"/>
   <path id="_52970408" class="fil1" d="M1.78765 0.347008l-0.0656772 0 0 -0.0894685 0.229323 0c0.141953,0 0.187248,0.0850039 0.187248,0.146921 3.93701e-006,0.0525709 -0.0279409,0.0947205 -0.0688701,0.114661 0.057374,0.0240433 0.0896063,0.0829961 0.0896063,0.134594 0,0.124276 -0.0976535,0.174299 -0.191055,0.174299l-0.253846 0 0 -0.09 0.0732717 0 0 -0.391008zm0.104512 0.391008c0,0 0.0620276,0 0.0665748,0 0.0550157,0 0.0922165,-0.030252 0.0922165,-0.0812362 3.93701e-006,-0.0432008 -0.0289921,-0.080815 -0.0922165,-0.080815 -0.0219528,0 -0.0665748,0 -0.0665748,0l0 0.162051zm0 -0.25213l0.0625079 0c0.0470945,0 0.0787559,-0.027811 0.0787559,-0.0696181 3.93701e-006,-0.0412795 -0.0313543,-0.0692598 -0.0787559,-0.0692598 -0.0192835,0 -0.0625079,0 -0.0625079,0l0 0.138878z"/>
   <path id="_53746016" class="fil1" d="M2.2407 0.652134l0 0.175882 0.0846063 0 0 -0.0347283c0.0160118,0.013748 0.0513386,0.0451339 0.119689,0.0451339 0.118413,0 0.185976,-0.0850039 0.185976,-0.178591 3.93701e-006,-0.074248 -0.0418937,-0.13511 -0.127386,-0.161346 -0.0250472,-0.00770079 -0.0484409,-0.0147835 -0.0843543,-0.0258071 -0.0425827,-0.0129449 -0.0711378,-0.0359449 -0.0711378,-0.0702244 3.93701e-006,-0.0439055 0.0385709,-0.0632323 0.0739449,-0.0632323 0.0618268,-3.93701e-006 0.0878504,0.0431142 0.091437,0.0795906l0.0855709 -3.93701e-006 0 -0.161268 -0.0814567 0 0 0.0269331c-0.015752,-0.0155709 -0.0483661,-0.0379567 -0.106177,-0.0379567 -0.094063,0 -0.168839,0.0617441 -0.168839,0.157772 3.93701e-006,0.0831732 0.0463543,0.133807 0.123531,0.158299 0.0289528,0.00926378 0.0429843,0.013122 0.0704449,0.0209882 0.0579449,0.0167008 0.0807244,0.0494055 0.0807244,0.0844764 0,0.0404134 -0.0290394,0.0780118 -0.0855748,0.0780118 -0.0599055,0 -0.0969055,-0.0442441 -0.100224,-0.0939291l-0.0907756 0z"/>
  </g>
 </g>
</svg>
