<?xml version="1.0" encoding="UTF-8"?>
<!DOCTYPE svg PUBLIC "-//W3C//DTD SVG 1.1//EN" "http://www.w3.org/Graphics/SVG/1.1/DTD/svg11.dtd">
<!-- Creator: CorelDRAW X6 -->
<svg xmlns="http://www.w3.org/2000/svg" xml:space="preserve" width="3.75in" height="3in" version="1.1" style="shape-rendering:geometricPrecision; text-rendering:geometricPrecision; image-rendering:optimizeQuality; fill-rule:evenodd; clip-rule:evenodd"
viewBox="0 0 3750 3000"
 xmlns:xlink="http://www.w3.org/1999/xlink"
 enable-background="new 0 0 432 432">
 <defs>
  <style type="text/css">
   <![CDATA[
    .fil3 {fill:black}
    .fil2 {fill:#00DA5C}
    .fil0 {fill:#49A9FE}
    .fil1 {fill:#FE7E00}
   ]]>
  </style>
 </defs>
 <g id="Layer_x0020_1">
  <metadata id="CorelCorpID_0Corel-Layer"/>
  <g id="_191952464">
   <path class="fil0" d="M1003 68c0,0 1,0 1,0l0 0 -1 0z"/>
   <path class="fil0" d="M1019 68c0,0 -555,0 -555,0l-62 0 -377 774 216 0 0 219c0,68 55,123 123,123l103 1 0 506 566 0 0 -510c254,-34 451,-269 451,-555 0,-291 -204,-530 -466,-557zm-532 689c-68,0 -123,-55 -123,-123 0,-68 55,-123 123,-123 68,0 123,55 123,123 0,68 -55,123 -123,123z"/>
  </g>
  <g id="_191952176">
   <g>
    <path class="fil1" d="M2365 871c134,-71 225,-213 225,-378 0,-235 -187,-426 -418,-426 -2,0 -4,0 -6,0l0 0 -681 0 0 1605 648 0c13,1 27,0 40,0 231,0 417,-188 417,-424 0,-164 -91,-307 -225,-378zm-364 406c-68,0 -123,-55 -123,-123 0,-68 55,-123 123,-123 68,0 123,55 123,123 0,68 -55,123 -123,123zm0 -525c-68,0 -123,-55 -123,-123 0,-68 55,-123 123,-123 68,0 123,55 123,123 0,68 -55,123 -123,123z"/>
   </g>
  </g>
  <g id="_191951888">
   <g>
    <path class="fil2" d="M3645 872c0,-1 0,0 0,-1 -30,-59 -69,-106 -109,-143 -43,-41 -93,-76 -148,-101l315 0c0,-1 0,-1 0,-2 0,-308 -250,-558 -558,-558 -308,0 -558,250 -558,558 0,94 23,183 65,261 0,1 0,0 0,1 30,60 71,109 112,146 43,40 93,74 147,99l-316 0c0,0 0,1 0,1 0,308 250,558 558,558 308,0 558,-250 558,-558 0,-94 -23,-183 -65,-261zm-492 405c-68,0 -123,-55 -123,-123 0,-68 55,-123 123,-123 68,0 123,55 123,123 0,68 -55,123 -123,123zm0 -525c-68,0 -123,-55 -123,-123 0,-68 55,-123 123,-123 68,0 123,55 123,123 0,68 -55,123 -123,123z"/>
   </g>
  </g>
  <g id="_191905368">
   <path class="fil3" d="M571 1820c45,0 67,5 87,20 21,17 34,47 34,77 0,30 -13,61 -33,77 -21,17 -43,22 -85,22l-52 0 0 127 -36 0 0 -322 85 0zm-49 164l51 0c27,0 43,-3 60,-13 14,-9 24,-30 24,-52 0,-23 -10,-43 -24,-53 -16,-10 -33,-13 -60,-13l-50 0 0 132z"/>
   <path class="fil3" d="M754 1820l0 204c0,24 0,43 15,65 11,16 33,27 56,27 23,0 44,-10 55,-27 15,-21 15,-40 15,-65l0 -204 36 0 0 204c0,37 -4,74 -37,99 -18,15 -42,24 -70,24 -23,0 -51,-7 -71,-24 -34,-27 -37,-64 -37,-99l0 -204 36 0z"/>
   <path class="fil3" d="M959 1820l85 0c29,0 49,5 63,15 26,15 35,42 35,67 0,38 -21,57 -43,68 58,18 62,67 62,82 0,35 -17,61 -44,75 -19,12 -37,14 -69,14l-89 0 0 -322zm36 139l49 0c15,0 28,-2 38,-7 20,-11 26,-28 26,-48 0,-23 -13,-40 -26,-46 -8,-4 -19,-7 -40,-7l-47 0 0 107zm0 151l58 0c13,0 27,-1 39,-6 19,-8 33,-25 34,-53 0,-26 -14,-45 -34,-54 -14,-6 -25,-7 -45,-7l-52 0 0 120z"/>
   <polygon class="fil3" points="1188,1820 1224,1820 1224,2110 1347,2110 1347,2142 1188,2142 "/>
   <polygon class="fil3" points="1380,1820 1416,1820 1416,2142 1380,2142 "/>
   <path class="fil3" d="M1760 2055c-21,50 -77,92 -148,92 -95,0 -168,-73 -168,-167 0,-92 71,-167 167,-167 80,0 130,53 148,94l-39 0c-11,-19 -47,-62 -110,-62 -75,0 -132,60 -132,134 0,76 57,135 132,135 67,0 102,-48 110,-60l39 0z"/>
   <path class="fil3" d="M489 2213l85 0c29,0 49,5 63,15 26,15 35,42 35,67 0,38 -21,57 -43,68 58,18 62,67 62,82 0,35 -17,61 -44,75 -19,12 -37,14 -69,14l-89 0 0 -322zm36 139l49 0c15,0 28,-2 38,-7 20,-11 26,-28 26,-48 0,-23 -13,-40 -26,-46 -8,-4 -19,-7 -40,-7l-47 0 0 107zm0 151l58 0c13,0 27,-1 39,-6 19,-8 33,-25 34,-53 0,-26 -14,-45 -34,-54 -14,-6 -25,-7 -45,-7l-52 0 0 120z"/>
   <path class="fil3" d="M721 2213l84 0c50,0 74,6 90,17 26,16 44,50 44,87 0,22 -6,45 -19,63 -19,26 -42,32 -72,35l80 120 -39 0 -91 -140 10 0c23,0 54,0 71,-17 17,-17 24,-36 24,-59 0,-24 -12,-49 -32,-62 -16,-10 -36,-12 -65,-12l-50 0 0 290 -36 0 0 -322 0 0z"/>
   <path class="fil3" d="M956 2374c0,-99 77,-167 168,-167 94,0 168,72 168,167 0,94 -73,167 -168,167 -95,0 -168,-73 -168,-165l0 0zm36 -1c0,76 57,135 132,135 76,0 132,-61 132,-135 0,-74 -56,-135 -132,-135 -76,0 -132,60 -132,134l0 0z"/>
   <path class="fil3" d="M1308 2534l-39 0 134 -322 35 0 133 322 -39 0 -37 -90 -150 0 -37 90zm112 -281l-64 161 128 0 -64 -161z"/>
   <path class="fil3" d="M1592 2213l96 0c46,0 94,10 127,48 26,29 39,67 39,112 0,97 -55,161 -163,161l-98 0 0 -322zm36 290l64 0c83,0 126,-51 126,-128 0,-37 -10,-70 -31,-94 -20,-22 -50,-36 -94,-36l-64 0 0 258z"/>
   <path class="fil3" d="M2203 2448c-21,50 -77,92 -148,92 -95,0 -168,-73 -168,-167 0,-92 71,-167 167,-167 80,0 130,53 148,94l-39 0c-11,-19 -47,-62 -110,-62 -75,0 -132,60 -132,134 0,76 57,135 132,135 67,0 102,-48 110,-60l39 0z"/>
   <path class="fil3" d="M2236 2534l-39 0 134 -322 35 0 133 322 -39 0 -37 -90 -150 0 -37 90zm112 -281l-64 161 128 0 -64 -161z"/>
   <path class="fil3" d="M2537 2445c5,53 44,65 64,65 33,0 64,-26 64,-61 0,-45 -39,-55 -76,-67 -26,-8 -82,-24 -82,-85 -1,-57 47,-89 96,-89 40,0 86,22 91,83l-36 0c-4,-21 -14,-53 -57,-53 -32,0 -59,22 -59,55 0,39 31,49 80,65 30,12 78,29 78,88 0,53 -40,94 -100,94 -54,0 -99,-34 -101,-95l36 0z"/>
   <polygon class="fil3" points="2784,2244 2705,2244 2705,2213 2900,2213 2900,2244 2820,2244 2820,2534 2784,2534 2784,2244 "/>
   <polygon class="fil3" points="2938,2213 2974,2213 2974,2534 2938,2534 "/>
   <polygon class="fil3" points="3239,2481 3239,2213 3273,2213 3273,2534 3239,2534 3048,2263 3049,2534 3014,2534 3014,2213 3050,2213 "/>
   <path class="fil3" d="M3576 2296c-10,-14 -22,-26 -36,-35 -21,-14 -46,-23 -75,-23 -70,0 -132,54 -132,134 0,82 62,136 132,136 34,0 64,-12 86,-29 23,-18 38,-42 43,-67l-160 0 0 -30 202 0c0,19 -5,42 -14,62 -28,60 -92,96 -157,96 -94,0 -168,-72 -168,-167 0,-97 76,-166 169,-166 65,0 126,37 151,89l-41 0z"/>
   <path class="fil3" d="M510 2837c5,53 44,65 64,65 33,0 64,-26 64,-61 0,-45 -39,-55 -76,-67 -26,-8 -82,-24 -82,-85 -1,-57 47,-89 96,-89 40,0 86,22 91,83l-36 0c-4,-21 -14,-53 -57,-53 -32,0 -59,22 -59,55 0,39 31,49 80,65 30,12 78,29 78,88 0,53 -40,94 -100,94 -54,0 -99,-34 -101,-95l36 0z"/>
   <polygon class="fil3" points="712,2605 890,2605 890,2637 747,2637 747,2749 889,2749 889,2780 747,2780 747,2895 890,2895 890,2927 712,2927 "/>
   <path class="fil3" d="M933 2605l84 0c50,0 74,6 90,17 26,16 44,50 44,87 0,22 -6,45 -19,63 -19,26 -42,32 -72,35l80 120 -39 0 -91 -140 10 0c23,0 54,0 71,-17 17,-17 24,-36 24,-59 0,-24 -12,-49 -32,-62 -16,-10 -36,-12 -65,-12l-50 0 0 290 -36 0 0 -322 0 0z"/>
   <polygon class="fil3" points="1149,2605 1187,2605 1293,2880 1400,2605 1438,2605 1310,2927 1276,2927 "/>
   <polygon class="fil3" points="1465,2605 1501,2605 1501,2927 1465,2927 "/>
   <path class="fil3" d="M1843 2840c-21,50 -77,92 -148,92 -95,0 -168,-73 -168,-167 0,-92 71,-167 167,-167 80,0 130,53 148,94l-39 0c-11,-19 -47,-62 -110,-62 -75,0 -132,60 -132,134 0,76 57,135 132,135 67,0 102,-48 110,-60l39 0z"/>
   <polygon class="fil3" points="1872,2605 2050,2605 2050,2637 1907,2637 1907,2749 2049,2749 2049,2780 1907,2780 1907,2895 2050,2895 2050,2927 1872,2927 "/>
  </g>
 </g>
</svg>
