<?xml version="1.0" encoding="UTF-8" standalone="no"?>
<svg
   xmlns:dc="http://purl.org/dc/elements/1.1/"
   xmlns:cc="http://creativecommons.org/ns#"
   xmlns:rdf="http://www.w3.org/1999/02/22-rdf-syntax-ns#"
   xmlns:svg="http://www.w3.org/2000/svg"
   xmlns="http://www.w3.org/2000/svg"
   xmlns:sodipodi="http://sodipodi.sourceforge.net/DTD/sodipodi-0.dtd"
   xmlns:inkscape="http://www.inkscape.org/namespaces/inkscape"
   version="1.1"
   id="Ebene_1"
   x="0px"
   y="0px"
   width="550"
   height="300"
   viewBox="0 0 550 299.99999"
   enable-background="new 0 0 1417.323 2267.717"
   xml:space="preserve">
<path
   style="fill:#007236"
   inkscape:connector-curvature="0"
   d="m 37.4134,30.880978 h 430.59751 c 20.6619,0 37.4148,16.751 37.4148,37.417 V 262.58298 c 0,20.665 -16.7529,37.417 -37.4148,37.417 H 37.4134 C 16.749,299.99998 0,283.24798 0,262.58298 V 68.297978 c 0,-20.666 16.7515,-37.417 37.4134,-37.417 l 0,0 z"
   id="path3" /><path
   style="fill:#a3cf62"
   inkscape:connector-curvature="0"
   d="m 331.4298,223.43698 c -0.286,10.852 5.0912,14.357 14.9221,14.101 h 15.0448 c 13.2015,0 17.0966,-8.876 15.1939,-16.822 -2.521,-10.578 -9.4263,-10.815 -17.1421,-25.592 -3.2555,-6.063 -23.3157,-44.039 -23.3157,-50.63 0,-3.172 12.4417,-14.849 14.1548,-16.161 11.0927,-11.917 14.8046,-7.063 16.6314,-16.094 3.239,-16.023002 -18.6871,-16.612002 -25.7152,-16.612002 -6.0002,0 -23.485,0.76 -23.485,14.503002 0,5.28 3.4287,7.391 3.4287,11.078 0,3.954 -16.7313,19.318 -19.4709,19.318 -4.1152,0 -4.1152,-6.595 -3.7726,-23.473 l 0.857,-55.910002 c 0.168,-5.811 -0.672,-6.936 -5.3037,-6.936 -9.0863,0 -51.9272,8.581 -51.9272,26.254 0,15.031 17.7996,2.043 17.7996,23.403002 v 37.721 c 0,11.609 -0.86,36.662 -1.3717,55.127 -0.516,22.16 -9.6008,12.924 -9.6008,25.581 0,17.41 15.9436,16.613 30.001,16.613 26.7455,0 29.3828,-8.092 29.3828,-15.469 0,-12.406 -8.8562,-4.567 -8.468,-30.677 0.03,-1.593 -1.2467,-21.558 1.713,-21.823 3.0811,-0.26 18.615,25.512 19.3015,27.092 0,0 11.2937,19.687 11.1433,25.408 l 0,0 z"
   id="path5" /><path
   style="fill:#a3cf62;fill-rule:evenodd"
   inkscape:connector-curvature="0"
   clip-rule="evenodd"
   d="m 107.8457,173.47498 c 0,12.66 -1.4147,30.33 -12.3696,30.33 -6.1861,0 -9.0129,-3.156 -9.0129,-11.861 0,-48.002 2.1201,-51.957 8.482,-51.957 11.1318,0 12.9005,20.83 12.9005,33.488 l 0,0 z m -61.3219,24.206 c 0,29.28 -1.3541,40.307 -1.4603,46.128 -0.329,17.813 -11.5491,14.516 -11.5491,26.398 0,13.454 11.6287,13.53 35.3072,13.53 6.8928,0 30.3575,1.238 30.3575,-13.53 0,-12.924 -11.549,-5.614 -11.3037,-29.274 0.03,-2.905 0.351,-8.437 2.8268,-8.437 1.5917,0 9.8967,6.594 18.2017,6.594 25.8011,0 42.588,-37.72 42.588,-73.067 0,-30.847 -12.3708,-65.41 -35.5208,-65.41 -14.4897,0 -24.3864,14.251 -26.8606,14.251 -1.7648,0 -5.4426,-2.853 -5.4426,-4.699 0,-5.798 -2.3579,-8.755 -6.5995,-8.755 -13.0776,0 -45.2278,7.998 -45.8663,25.911 -0.329,9.242 11.0787,11.761 13.376,15.184 0.882,1.316 1.9431,12.974 1.9431,40.674 v 14.502 l 0.003,0 z"
   id="path7" /><path
   style="fill:#a3cf62;fill-rule:evenodd"
   inkscape:connector-curvature="0"
   clip-rule="evenodd"
   d="m 422.82351,175.69298 c 5.2329,0 5.0445,6.673 5.0445,12.541 0,8.015 -0.561,18.972 -7.6628,18.972 -5.4224,0 -8.0381,-7.477 -8.0381,-14.42 0,-8.553 4.2998,-17.093 10.6564,-17.093 l 0,0 z m 45.4251,-33.119 c 0,-40.052 -29.9479,-46.634002 -40.5652,-47.524002 -20.4027,-1.715 -46.47061,9.841002 -51.98791,32.108002 -2.0556,8.3 6.932,13.646 12.7767,12.374 18.14851,-3.958 18.83751,-19.652 30.05411,-19.652 8.597,0 8.7854,18.421 8.7854,27.23 0,9.613 -2.6196,6.39 -8.4137,6.39 -32.90121,0 -45.61211,23.495 -45.61211,42.456 0,26.435 15.5163,40.881 31.03251,40.881 8.5983,0 14.2079,-3.461 18.3181,-6.94 4.1126,-3.196 6.5438,-6.673 8.7853,-6.673 4.6754,0 5.047,13.613 19.8161,13.613 13.6453,0 28.3069,-13.115 28.3069,-28.342 0,-14.42 -11.2936,7.788 -11.2936,-39.218 v -26.703 l 0,0 z"
   id="path9" /><path
   style="fill:#a3cf62;fill-rule:evenodd"
   inkscape:connector-curvature="0"
   clip-rule="evenodd"
   d="m 207.0564,149.73698 c -4.5955,0 -10.6047,2.111 -10.6047,-7.375 0,-8.451 4.774,-17.422 10.6047,-17.422 6.5388,0 10.4264,7.391 10.4264,16.89 -0.002,9.487 -5.6563,7.907 -10.4264,7.907 l 0,0 z m 33.3981,25.328 c 5.6551,0 10.9548,-2.371 10.9548,-19.78 0,-19.784 -13.2532,-54.346 -43.2947,-54.346 -26.5053,0 -49.6565,29.549 -49.6565,70.161 0,34.032 16.4354,68.317 48.2418,68.317 15.9044,0 40.8218,-14.767 40.8218,-35.082 0,-5.014 -3.1808,-13.186 -6.8928,-13.186 -3.7119,0 -10.2506,11.874 -23.5013,11.874 -8.305,0 -19.7934,-11.079 -19.7934,-24.266 0,-4.483 2.8269,-3.689 4.7701,-3.689 h 38.3502 l 0,0 z"
   id="path11" /><path
   style="fill-rule:evenodd"
   inkscape:connector-curvature="0"
   clip-rule="evenodd"
   d="m 525.17091,49.392978 c 13.821,0 24.7581,-10.942 24.7581,-24.702 0,-13.761 -10.9371,-24.691000070313 -24.7581,-24.691000070313 -13.8247,0 -24.7594,10.930000070313 -24.7594,24.691000070313 0,13.76 10.9347,24.702 24.7594,24.702 l 0,0 z m 0,-45.3780001 c 11.3089,0 20.7352,8.9860001 20.7352,20.6760001 0,11.627 -9.4263,20.673 -20.7352,20.673 -11.3114,0 -20.7352,-9.046 -20.7352,-20.673 0,-11.69 9.4238,-20.6760001 20.7352,-20.6760001 l 0,0 z m 4.2707,21.9280001 c 3.7094,-0.12 7.4175,-2.135 7.4175,-7.599 0,-5.838 -4.5248,-7.344 -9.5503,-7.344 h -11.6894 v 27.765 h 4.0204 v -12.822 h 5.1531 l 7.0989,12.822 h 4.5854 l -7.0356,-12.822 0,0 z m -2.8876,-10.929 c 3.3313,0 6.2847,0.24 6.2847,3.776 0,3.762 -5.1519,3.135 -8.9244,3.135 h -4.2721 v -6.911 h 6.9118 l 0,0 z"
   id="path13" />
</svg>