<?xml version="1.0" encoding="UTF-8" standalone="no"?>
<!-- Created with Inkscape (http://www.inkscape.org/) -->

<svg
   xmlns:dc="http://purl.org/dc/elements/1.1/"
   xmlns:cc="http://creativecommons.org/ns#"
   xmlns:rdf="http://www.w3.org/1999/02/22-rdf-syntax-ns#"
   xmlns:svg="http://www.w3.org/2000/svg"
   xmlns="http://www.w3.org/2000/svg"
   xmlns:sodipodi="http://sodipodi.sourceforge.net/DTD/sodipodi-0.dtd"
   xmlns:inkscape="http://www.inkscape.org/namespaces/inkscape"
   id="svg2"
   version="1.1"
   inkscape:version="0.48.4 r9939"
   width="371"
   height="94"
   sodipodi:docname="Pepboys Auto.svg">
  <metadata
     id="metadata8">
    <rdf:RDF>
      <cc:Work
         rdf:about="">
        <dc:format>image/svg+xml</dc:format>
        <dc:type
           rdf:resource="http://purl.org/dc/dcmitype/StillImage" />
        <dc:title />
      </cc:Work>
    </rdf:RDF>
  </metadata>
  <defs
     id="defs6" />
  <sodipodi:namedview
     pagecolor="#ffffff"
     bordercolor="#666666"
     borderopacity="1"
     objecttolerance="10"
     gridtolerance="10"
     guidetolerance="10"
     inkscape:pageopacity="0"
     inkscape:pageshadow="2"
     inkscape:window-width="1024"
     inkscape:window-height="714"
     id="namedview4"
     showgrid="false"
     showguides="true"
     inkscape:guide-bbox="true"
     inkscape:zoom="1.4142136"
     inkscape:cx="185.5"
     inkscape:cy="49.727594"
     inkscape:window-x="-4"
     inkscape:window-y="-4"
     inkscape:window-maximized="1"
     inkscape:current-layer="layer1" />
  <g
     inkscape:groupmode="layer"
     id="layer1"
     inkscape:label="Layer"
     style="display:inline"
     transform="translate(0,-3)">
    <g
       id="g3820"
       transform="translate(-1.6715729,2.4963203)">
      <g
         id="text3788"
         style="font-size:58.85643005px;font-style:oblique;font-variant:normal;font-weight:900;font-stretch:normal;text-align:start;line-height:125%;letter-spacing:0px;word-spacing:0px;writing-mode:lr-tb;text-anchor:start;fill:#e01b37;fill-opacity:1;stroke:none;font-family:Univers LT 93 ExtraBlackEx;-inkscape-font-specification:Univers LT 93 ExtraBlackEx Heavy Oblique"
         transform="scale(1.004231,0.99578684)">
        <path
           inkscape:connector-curvature="0"
           id="path3011"
           d="m 32.599507,22.262082 3.649788,0 c 3.177964,2.3e-5 5.502786,-0.411895 6.974473,-1.235755 1.47161,-0.823812 2.422973,-2.275703 2.854091,-4.355677 0.118505,-0.587913 0.177778,-1.117779 0.17782,-1.589598 -4.2e-5,-1.254883 -0.451475,-2.196367 -1.354302,-2.824455 -0.902907,-0.628022 -2.43323,-0.94205 -4.590974,-0.942084 l -5.415409,0 z M 18.887654,2.369658 l 30.310128,0 c 2.19725,4.25e-5 4.208344,0.1862438 6.033287,0.5586044 1.824842,0.3724445 3.384502,0.9705638 4.678985,1.7943596 1.294373,0.823876 2.294831,1.9030652 3.001376,3.2375706 0.70643,1.3345793 1.059673,2.9825504 1.059732,4.9439184 -5.9e-5,0.667004 -0.0294,1.343855 -0.08801,2.030554 -0.05873,0.68676 -0.186261,1.422285 -0.382581,2.206577 -0.549682,2.590082 -1.413034,4.777798 -2.590057,6.563153 -1.177136,1.785399 -2.589811,3.23729 -4.238029,4.355678 -1.648323,1.118422 -3.482795,1.9228 -5.503421,2.413135 -2.02072,0.490365 -4.149462,0.73554 -6.386232,0.735526 l -14.006422,0 -2.825353,13.654376 -17.893303,0 z" />
      </g>
      <g
         id="text3788-1"
         style="font-size:58.66394424px;font-style:oblique;font-variant:normal;font-weight:900;font-stretch:normal;text-align:start;line-height:125%;letter-spacing:0px;word-spacing:0px;writing-mode:lr-tb;text-anchor:start;fill:#e01b37;fill-opacity:1;stroke:none;display:inline;font-family:Univers LT 93 ExtraBlackEx;-inkscape-font-specification:Univers LT 93 ExtraBlackEx Heavy Oblique"
         transform="scale(1.0009467,0.99905417)">
        <path
           inkscape:connector-curvature="0"
           id="path3029"
           d="m 127.71185,22.190963 3.63785,0 c 3.16757,2.2e-5 5.48479,-0.410549 6.95166,-1.231714 1.4668,-0.821118 2.41505,-2.268261 2.84476,-4.341433 0.11812,-0.58599 0.1772,-1.114122 0.17724,-1.584399 -4e-5,-1.250779 -0.45,-2.189184 -1.34987,-2.815217 -0.89996,-0.625969 -2.42528,-0.93897 -4.57596,-0.939003 l -5.3977,0 z m -13.66701,-19.827368 30.211,0 c 2.19006,4.24e-5 4.19458,0.1856347 6.01355,0.5567776 1.81888,0.3712264 3.37344,0.9673896 4.66369,1.7884912 1.29014,0.8211816 2.28732,1.8968414 2.99156,3.2269824 0.70412,1.3302146 1.05621,2.9727958 1.05626,4.9277498 -5e-5,0.664822 -0.0293,1.339459 -0.0877,2.023913 -0.0585,0.684514 -0.18565,1.417633 -0.38133,2.199361 -0.54788,2.581611 -1.40841,4.762172 -2.58159,6.541689 -1.17328,1.779559 -2.58134,3.226702 -4.22416,4.341432 -1.64294,1.114765 -3.47141,1.916512 -5.48543,2.405244 -2.01411,0.48876 -4.13589,0.733133 -6.36534,0.73312 l -13.96062,0 -2.81611,13.60972 -17.83479,0 z" />
      </g>
      <g
         id="text3792"
         style="font-size:58.80669022px;font-style:oblique;font-variant:normal;font-weight:900;font-stretch:normal;text-align:start;line-height:125%;letter-spacing:0px;word-spacing:0px;writing-mode:lr-tb;text-anchor:start;fill:#e01b37;fill-opacity:1;stroke:none;font-family:Univers LT 93 ExtraBlackEx;-inkscape-font-specification:Univers LT 93 ExtraBlackEx Heavy Oblique"
         transform="scale(1.0033236,0.99668741)">
        <path
           inkscape:connector-curvature="0"
           id="path3014"
           d="m 69.281288,2.3667243 40.693412,0 -1.88258,8.9372957 -23.403867,0 -1.647477,7.821032 21.935854,0 -1.82335,8.93909 -21.935856,0 -1.645683,7.821032 23.640759,0 -1.82335,8.939091 -40.930301,0 z" />
      </g>
      <g
         id="text3049"
         style="font-size:58.82802582px;font-style:oblique;font-variant:normal;font-weight:900;font-stretch:normal;text-align:start;line-height:125%;letter-spacing:0px;word-spacing:0px;writing-mode:lr-tb;text-anchor:start;fill:#e01b37;fill-opacity:1;stroke:none;font-family:Univers LT 93 ExtraBlackEx;-inkscape-font-specification:Univers LT 93 ExtraBlackEx Heavy Oblique"
         transform="scale(1.003659,0.99635438)">
        <path
           inkscape:connector-curvature="0"
           id="path3026"
           d="m 178.14004,19.543628 5.29431,0 c 2.58877,2.6e-5 4.45198,-0.421568 5.58963,-1.264781 1.13757,-0.84316 1.86317,-1.970899 2.17679,-3.383221 0.11725,-0.509832 0.17589,-0.999945 0.17594,-1.470342 -5e-5,-1.019692 -0.43151,-1.804232 -1.29441,-2.353624 -0.86297,-0.549324 -2.4512,-0.824003 -4.76469,-0.824037 l -5.23507,0 z m -3.70548,17.766179 5.29431,0 c 3.09864,8e-6 5.36369,-0.412011 6.79517,-1.236056 1.4314,-0.824028 2.32366,-2.118131 2.67678,-3.882312 0.11725,-0.470353 0.17589,-0.921569 0.17593,-1.353648 -4e-5,-1.29379 -0.57842,-2.244694 -1.73514,-2.852714 -1.1568,-0.607987 -3.08823,-0.911989 -5.7943,-0.912007 l -5.2961,0 z m -10.58861,-34.9435025 29.0011,0 c 5.68742,4.25e-5 9.81539,0.7352125 12.3839,2.2055124 2.5684,1.4703803 3.85263,3.6172445 3.85269,6.4405991 -6e-5,0.862968 -0.0785,1.667257 -0.23518,2.412868 -0.31364,1.450623 -0.83308,2.715403 -1.55831,3.794343 -0.72536,1.078995 -1.61762,2.01045 -2.67678,2.794367 -1.05927,0.783967 -2.25553,1.430869 -3.58878,1.940707 -1.33335,0.509885 -2.7259,0.941352 -4.17764,1.294404 l -0.0574,0.118489 c 1.29376,0.07782 2.53879,0.283377 3.7351,0.616681 1.19621,0.333346 2.25513,0.823759 3.17676,1.47124 0.92153,0.647519 1.64713,1.461383 2.17679,2.441593 0.52955,0.980243 0.79436,2.156755 0.79442,3.529537 -6e-5,0.666664 -0.0982,1.490102 -0.29443,2.470318 -0.31363,1.646888 -0.89202,3.137275 -1.73515,4.471167 -0.84324,1.333905 -1.83394,2.392825 -2.9721,3.176764 -0.82349,0.588857 -1.64693,1.089144 -2.47032,1.500861 -0.82348,0.411721 -1.81358,0.754621 -2.9703,1.028701 -1.15681,0.274081 -2.52961,0.470066 -4.11839,0.587957 -1.58888,0.11789 -3.52031,0.176836 -5.7943,0.176836 l -31.29727,0 z" />
      </g>
      <g
         id="text3821"
         style="font-size:59.20645142px;font-style:oblique;font-variant:normal;font-weight:900;font-stretch:normal;text-align:start;line-height:125%;letter-spacing:0px;word-spacing:0px;writing-mode:lr-tb;text-anchor:start;fill:#e01b37;fill-opacity:1;stroke:none;font-family:Univers LT 93 ExtraBlackEx;-inkscape-font-specification:Univers LT 93 ExtraBlackEx Heavy Oblique"
         transform="scale(1.0147588,0.98545586)">
        <path
           inkscape:connector-curvature="0"
           id="path3023"
           d="m 245.96367,23.962059 c 0.15775,-0.790168 0.27609,-1.530368 0.35504,-2.220603 0.0788,-0.690188 0.1183,-1.351489 0.11835,-1.983908 -5e-5,-2.959571 -0.73995,-5.130183 -2.2197,-6.511842 -1.47985,-1.381595 -3.44358,-2.072408 -5.8912,-2.072443 -1.49971,3.5e-5 -2.92048,0.256605 -4.26233,0.769713 -1.34191,0.513175 -2.57537,1.292825 -3.7004,2.338951 -1.12509,1.046189 -2.11192,2.37843 -2.9605,3.996725 -0.84864,1.61835 -1.48977,3.512817 -1.92338,5.683407 -0.19757,0.789007 -0.32616,1.538843 -0.38576,2.249513 -0.0597,0.710708 -0.0895,1.401521 -0.0894,2.072443 -3e-5,2.921068 0.73024,5.062469 2.19079,6.42421 1.4605,1.361763 3.41459,2.042639 5.86228,2.04263 1.45989,9e-6 2.87073,-0.256562 4.23252,-0.769713 1.36172,-0.513132 2.60512,-1.292781 3.73022,-2.338951 1.12501,-1.046146 2.11185,-2.368448 2.9605,-3.966911 0.84857,-1.598432 1.50957,-3.502837 1.98301,-5.713221 z m 18.35385,0 c -0.70955,3.314963 -1.80449,6.235713 -3.28483,8.762259 -1.48046,2.526571 -3.2867,4.638461 -5.41871,6.335676 -2.80185,2.248914 -6.21587,4.044608 -10.24205,5.387086 -4.02628,1.342479 -8.80205,2.013719 -14.32732,2.01372 -4.46051,-10e-7 -8.24011,-0.41467 -11.33881,-1.244008 -3.09874,-0.829337 -5.625,-2.00378 -7.57878,-3.523333 -1.9538,-1.519545 -3.37458,-3.315238 -4.26233,-5.387086 -0.88777,-2.071829 -1.33165,-4.351453 -1.33164,-6.83888 -1e-5,-1.855002 0.19694,-3.690145 0.59084,-5.505434 0.86847,-4.18461 2.35881,-7.747087 4.47102,-10.687443 2.11217,-2.940292 4.58905,-5.2988153 7.43061,-7.0755762 1.18407,-0.709445 2.44704,-1.3605081 3.78894,-1.9531913 1.34186,-0.592601 2.85147,-1.0961059 4.52884,-1.5105162 1.67732,-0.414325 3.58172,-0.729919 5.71322,-0.9467828 2.13143,-0.2167768 4.57879,-0.3251869 7.34209,-0.3252308 4.42068,4.39e-5 8.19004,0.4144116 11.30809,1.2431042 3.11794,0.828778 5.65384,1.9932836 7.60769,3.4935204 1.95373,1.500315 3.37481,3.2963097 4.26323,5.3879897 0.8883,2.091747 1.33248,4.380707 1.33254,6.866886 -6e-5,0.868512 -0.0495,1.76651 -0.14816,2.693994 -0.0988,0.927534 -0.247,1.865281 -0.44448,2.813246 z" />
      </g>
      <g
         id="text3825"
         style="font-size:58.1548233px;font-style:oblique;font-variant:normal;font-weight:900;font-stretch:normal;text-align:start;line-height:125%;letter-spacing:0px;word-spacing:0px;writing-mode:lr-tb;text-anchor:start;fill:#e01b37;fill-opacity:1;stroke:none;font-family:Univers LT 93 ExtraBlackEx;-inkscape-font-specification:Univers LT 93 ExtraBlackEx Heavy Oblique"
         transform="scale(0.99366949,1.0063708)">
        <path
           inkscape:connector-curvature="0"
           id="path3020"
           d="m 283.12412,31.831319 -14.42335,-29.4252616 22.04055,0 5.11837,17.3286036 12.8527,-17.3286036 18.84068,0 -26.75072,29.4252616 -2.55918,12.561641 -17.67823,0 z" />
      </g>
      <g
         id="text3829"
         style="font-size:58.80950928px;font-style:oblique;font-variant:normal;font-weight:900;font-stretch:normal;text-align:start;line-height:125%;letter-spacing:0px;word-spacing:0px;writing-mode:lr-tb;text-anchor:start;fill:#e01b37;fill-opacity:1;stroke:none;font-family:Univers LT 93 ExtraBlackEx;-inkscape-font-specification:Univers LT 93 ExtraBlackEx Heavy Oblique"
         transform="scale(1.0013975,0.99860448)">
        <path
           inkscape:connector-curvature="0"
           id="path3017"
           d="m 336.309,31.094722 c -0.19505,0.979932 -0.29256,1.783369 -0.29254,2.410314 -2e-5,1.098381 0.27397,2.019672 0.82199,2.763875 0.47139,0.549193 1.08937,0.970953 1.85395,1.26528 0.76452,0.294342 1.73487,0.441509 2.91104,0.441502 0.9404,7e-6 1.88114,-0.05892 2.8222,-0.17678 0.941,-0.117846 1.81324,-0.343383 2.61671,-0.676611 0.8034,-0.333212 1.48958,-0.774116 2.05855,-1.322711 0.56889,-0.548578 0.95146,-1.254203 1.14772,-2.116877 -4e-5,-0.07896 0.01,-0.167496 0.0287,-0.265619 0.0191,-0.0981 0.0287,-0.186042 0.0287,-0.263825 -3e-5,-0.509689 -0.15677,-0.980504 -0.47021,-1.412447 -0.31352,-0.470204 -1.0682,-0.911108 -2.26405,-1.322712 -1.19592,-0.411575 -2.64665,-0.842906 -4.3522,-1.293995 -1.70562,-0.451058 -3.53833,-0.911704 -5.49814,-1.381938 -1.95986,-0.4702 -3.87094,-0.989473 -5.73324,-1.55782 -1.86235,-0.56831 -3.54849,-1.195565 -5.05843,-1.881768 -1.50998,-0.686162 -2.65681,-1.440842 -3.44049,-2.264044 -0.66645,-0.667614 -1.1271,-1.432465 -1.38194,-2.294554 -0.25486,-0.86204 -0.38228,-1.744146 -0.38227,-2.646321 -1e-5,-0.783667 0.0981,-1.606846 0.29433,-2.46954 0.97991,-4.6662466 3.81258,-8.0774149 8.49802,-10.2335146 4.6854,-2.156019 11.30135,-3.2340487 19.84785,-3.2340923 3.96031,4.36e-5 7.29311,0.2351522 9.99841,0.7053265 2.70519,0.47026 4.88099,1.1564421 6.52741,2.0585482 1.6463,0.9021877 2.83231,2.0197013 3.55804,3.352544 0.7256,1.3329177 1.08844,2.8620212 1.0885,4.5873142 -6e-5,0.47025 -0.0297,0.960209 -0.0888,1.469879 -0.0593,0.509732 -0.12779,1.039175 -0.2055,1.58833 l -17.52548,0 c 0.0394,-0.275161 0.0688,-0.53031 0.0879,-0.76545 0.0191,-0.235078 0.0287,-0.450743 0.0287,-0.646997 -4e-5,-1.450105 -0.43137,-2.547876 -1.29399,-3.293319 -0.54803,-0.4306983 -1.23392,-0.7343055 -2.05766,-0.9108219 -0.82381,-0.1764456 -1.80403,-0.2646861 -2.94065,-0.2647218 -1.8821,3.57e-5 -3.38159,0.3233848 -4.49848,0.9700487 -1.11694,0.646732 -1.79325,1.519266 -2.02893,2.617604 -0.0395,0.117287 -0.0593,0.312912 -0.0592,0.586875 -3e-5,0.235738 0.0293,0.471146 0.0879,0.706224 0.0586,0.235139 0.16688,0.450805 0.32485,0.646998 0.35174,0.430763 1.1453,0.852224 2.3807,1.264383 1.23534,0.412216 2.68607,0.833677 4.35221,1.264382 1.66606,0.430761 3.46946,0.881536 5.41019,1.352325 1.94065,0.470842 3.81285,0.990414 5.61659,1.558717 1.80365,0.568354 3.44043,1.195609 4.91036,1.881768 1.46983,0.686205 2.59721,1.440886 3.38216,2.264044 0.54913,0.549206 1.01965,1.25513 1.41155,2.117774 0.39179,0.862682 0.58772,1.92097 0.58777,3.174867 -5e-5,0.392461 -0.0198,0.80435 -0.0592,1.235667 -0.0395,0.431346 -0.11791,0.88212 -0.23511,1.352325 -0.43079,2.117784 -1.30303,4.019591 -2.61671,5.705427 -1.31379,1.685849 -3.16654,3.136283 -5.55826,4.351307 -2.39181,1.21503 -5.35191,2.146191 -8.88029,2.793488 -3.52847,0.647296 -7.70359,0.970944 -12.52538,0.970946 -4.62682,-2e-6 -8.37121,-0.254852 -11.23318,-0.764553 -2.862,-0.509701 -5.08685,-1.225197 -6.67457,-2.146489 -1.58774,-0.921289 -2.6562,-1.999618 -3.20538,-3.23499 -0.54919,-1.235362 -0.82378,-2.578113 -0.82378,-4.028258 0,-0.745398 0.0491,-1.500378 0.14717,-2.264941 0.0981,-0.76454 0.20579,-1.538664 0.32305,-2.322373 z" />
      </g>
      <g
         id="text3001"
         style="font-size:52.40526581px;font-style:oblique;font-variant:normal;font-weight:900;font-stretch:normal;text-align:start;line-height:125%;letter-spacing:0px;word-spacing:0px;writing-mode:lr-tb;text-anchor:start;fill:#014282;fill-opacity:1;stroke:none;font-family:Univers LT 93 ExtraBlackEx;-inkscape-font-specification:Univers LT 93 ExtraBlackEx Heavy Oblique"
         transform="scale(0.98866621,1.0114637)">
        <path
           inkscape:connector-curvature="0"
           id="path3041"
           d="m 128.02163,77.136613 -3.09142,-13.20527 -8.9096,13.20527 z m -10.21942,-23.266352 19.86149,0 11.42526,37.835809 -17.55691,0 -1.51932,-6.288376 -19.54642,0 -4.19332,6.288376 -15.616985,0 z" />
      </g>
      <g
         id="text3030"
         style="font-size:52.10211182px;font-style:oblique;font-variant:normal;font-weight:900;font-stretch:normal;text-align:start;line-height:125%;letter-spacing:0px;word-spacing:0px;writing-mode:lr-tb;text-anchor:start;fill:#014282;fill-opacity:1;stroke:none;font-family:Univers LT 93 ExtraBlackEx;-inkscape-font-specification:Univers LT 93 ExtraBlackEx Heavy Oblique"
         transform="scale(0.98469158,1.0155464)">
        <path
           inkscape:connector-curvature="0"
           id="path3038"
           d="m 156.40001,53.655578 15.31835,0 -4.32489,20.632233 c -0.31272,1.527505 -0.46908,2.847228 -0.46905,3.959175 -3e-5,2.04903 0.50348,3.473166 1.51052,4.272412 1.007,0.799263 2.44862,1.19889 4.32489,1.198883 1.18083,7e-6 2.26629,-0.156346 3.25638,-0.469059 0.99003,-0.312698 1.85845,-0.833697 2.60526,-1.563 0.74675,-0.729284 1.39787,-1.693106 1.95336,-2.89147 0.55541,-1.198339 1.02447,-2.700651 1.40717,-4.506941 l 4.32488,-20.632233 15.00512,0 -4.58565,21.986939 c -0.31275,1.493582 -0.66018,2.787336 -1.04226,3.881264 -0.38219,1.093951 -0.80752,2.057774 -1.276,2.89147 -0.46858,0.833714 -0.99806,1.589242 -1.58844,2.266588 -0.59048,0.677359 -1.25087,1.32874 -1.98118,1.954147 -2.32679,1.97906 -5.17479,3.411676 -8.54403,4.297852 -3.36931,0.886176 -7.18988,1.329264 -11.46173,1.329265 -4.27296,-10e-7 -7.92049,-0.443089 -10.94259,-1.329265 -3.02213,-0.886176 -5.27997,-2.318792 -6.77353,-4.297852 -0.62436,-0.83423 -1.10163,-1.694171 -1.43182,-2.579824 -0.3302,-0.885639 -0.4953,-1.970833 -0.49529,-3.255587 -1e-5,-1.354694 0.20828,-3.074045 0.62488,-5.158058 z" />
      </g>
      <g
         id="text3775"
         style="font-size:51.54450989px;font-style:oblique;font-variant:normal;font-weight:900;font-stretch:normal;text-align:start;line-height:125%;letter-spacing:0px;word-spacing:0px;writing-mode:lr-tb;text-anchor:start;fill:#014282;fill-opacity:1;stroke:none;font-family:Univers LT 93 ExtraBlackEx;-inkscape-font-specification:Univers LT 93 ExtraBlackEx Heavy Oblique"
         transform="matrix(0.97241531,0,-2.0993242e-4,1.0283672,0,0)">
        <path
           inkscape:connector-curvature="0"
           id="path3035"
           d="m 217.29258,62.055891 -12.21603,0 1.90807,-9.07157 40.10083,0 -1.90649,9.07157 -12.21602,0 -5.82487,28.142786 -15.66879,0 z" />
      </g>
      <g
         id="text3779"
         style="font-size:53.19623566px;font-style:oblique;font-variant:normal;font-weight:900;font-stretch:normal;text-align:start;line-height:125%;letter-spacing:0px;word-spacing:0px;writing-mode:lr-tb;text-anchor:start;fill:#014282;fill-opacity:1;stroke:none;font-family:Univers LT 93 ExtraBlackEx;-inkscape-font-specification:Univers LT 93 ExtraBlackEx Heavy Oblique"
         transform="scale(1.0045492,0.99547143)">
        <path
           inkscape:connector-curvature="0"
           id="path3032"
           d="m 270.37931,73.97589 c 0.14173,-0.709955 0.24807,-1.375016 0.319,-1.995183 0.0709,-0.620125 0.10629,-1.214296 0.10633,-1.782516 -4e-5,-2.659136 -0.66483,-4.609403 -1.99437,-5.850806 -1.32962,-1.241346 -3.094,-1.862033 -5.29316,-1.862063 -1.34747,3e-5 -2.62402,0.230556 -3.82965,0.691577 -1.20569,0.461081 -2.31394,1.161586 -3.32476,2.101517 -1.01088,0.939988 -1.89754,2.136988 -2.65998,3.591006 -0.76249,1.454066 -1.33853,3.156221 -1.72813,5.106468 -0.17752,0.708912 -0.29305,1.382631 -0.3466,2.021159 -0.0536,0.638562 -0.0804,1.259249 -0.0804,1.862063 -2e-5,2.624542 0.65611,4.548564 1.9684,5.772071 1.31224,1.223526 3.06796,1.835284 5.26719,1.835276 1.31169,8e-6 2.57931,-0.230518 3.80286,-0.691577 1.22348,-0.461042 2.34066,-1.161548 3.35155,-2.101517 1.01081,-0.939949 1.89747,-2.128021 2.65997,-3.56422 0.76243,-1.43617 1.35633,-3.147253 1.78171,-5.133255 z m 16.4907,0 c -0.63752,2.978452 -1.62131,5.602708 -2.95138,7.872777 -1.33017,2.270092 -2.95305,4.167598 -4.86864,5.692523 -2.51743,2.020621 -5.58488,3.634029 -9.20235,4.840228 -3.61756,1.206201 -7.90853,1.809301 -12.87291,1.809302 -4.00771,-10e-7 -7.40363,-0.372576 -10.18778,-1.117725 -2.78418,-0.745149 -5.05399,-1.800371 -6.80944,-3.16567 -1.75546,-1.365291 -3.03201,-2.978699 -3.82964,-4.840227 -0.79765,-1.861512 -1.19647,-3.909725 -1.19646,-6.144646 -1e-5,-1.666696 0.17694,-3.315548 0.53085,-4.946562 0.78032,-3.759818 2.11937,-6.960658 4.01716,-9.60253 1.89776,-2.641815 4.1232,-4.760917 6.67631,-6.357314 1.06387,-0.637428 2.19864,-1.222399 3.40432,-1.754918 1.20563,-0.532444 2.562,-0.984837 4.0691,-1.357179 1.50705,-0.372266 3.21813,-0.655823 5.13325,-0.850672 1.91507,-0.194771 4.11399,-0.292176 6.59677,-0.292216 3.97193,4e-5 7.35865,0.372344 10.16018,1.116913 2.80143,0.744647 5.0799,1.79094 6.83541,3.138883 1.7554,1.348014 3.03222,2.961692 3.83046,4.84104 0.79812,1.879408 1.19721,3.936009 1.19727,6.169808 -6e-5,0.780348 -0.0444,1.587187 -0.13312,2.42052 -0.0888,0.833377 -0.22192,1.675931 -0.39936,2.527665 z" />
      </g>
      <path
         inkscape:connector-curvature="0"
         id="path3789"
         d="m 95.559338,70.9375 3.803029,-6.5528 -93.5722121,0 -1.1718637,6.5528 z"
         style="fill:#014282;fill-opacity:1;stroke:none" />
      <path
         sodipodi:nodetypes="ccccc"
         inkscape:connector-curvature="0"
         id="path3789-1"
         d="m 86.709554,82.554535 4.304232,-6.492033 -87.4506545,0 -1.0951996,6.492033 z"
         style="fill:#014282;fill-opacity:1;stroke:none;display:inline" />
      <path
         sodipodi:nodetypes="ccccc"
         inkscape:connector-curvature="0"
         id="path3010-7"
         d="m 362.88085,64.000001 -2,7.492186 -64.19531,-0.492188 -1.05469,-6.999998 z"
         style="fill:#014282;fill-opacity:1;stroke:none" />
      <path
         inkscape:connector-curvature="0"
         id="path3818"
         d="m 358.50314,83 -65.84932,0 2.74004,-7 64.61188,0 z"
         style="fill:#014282;fill-opacity:1;stroke:none" />
    </g>
  </g>
</svg>
