<?xml version="1.0" encoding="UTF-8" standalone="no"?>
<!-- Created with Inkscape (http://www.inkscape.org/) -->

<svg
   xmlns:dc="http://purl.org/dc/elements/1.1/"
   xmlns:cc="http://creativecommons.org/ns#"
   xmlns:rdf="http://www.w3.org/1999/02/22-rdf-syntax-ns#"
   xmlns:svg="http://www.w3.org/2000/svg"
   xmlns="http://www.w3.org/2000/svg"
   xmlns:sodipodi="http://sodipodi.sourceforge.net/DTD/sodipodi-0.dtd"
   xmlns:inkscape="http://www.inkscape.org/namespaces/inkscape"
   id="svg2985"
   version="1.1"
   inkscape:version="0.48.2 r9819"
   width="1000"
   height="561.28369"
   xml:space="preserve"
   sodipodi:docname="14073-43-48_2499pboilchange_exp7-31_couponpage.pdf"><metadata
     id="metadata2991"><rdf:RDF><cc:Work
         rdf:about=""><dc:format>image/svg+xml</dc:format><dc:type
           rdf:resource="http://purl.org/dc/dcmitype/StillImage" /><dc:title></dc:title></cc:Work></rdf:RDF></metadata><defs
     id="defs2989"><clipPath
       clipPathUnits="userSpaceOnUse"
       id="clipPath3001"><path
         d="M 0,0 540,0 540,252 0,252 0,0 z"
         id="path3003"
         inkscape:connector-curvature="0" /></clipPath><clipPath
       clipPathUnits="userSpaceOnUse"
       id="clipPath3019"><path
         d="m 67.997,10.807 157.363,0 0,89.081 -157.363,0 0,-89.081 z"
         id="path3021"
         inkscape:connector-curvature="0" /></clipPath><clipPath
       clipPathUnits="userSpaceOnUse"
       id="clipPath3031"><path
         d="m 42.375,9 208.741,0 0,92.61 -208.741,0 0,-92.61 z"
         id="path3033"
         inkscape:connector-curvature="0" /></clipPath><radialGradient
       fx="0"
       fy="0"
       cx="0"
       cy="0"
       r="1"
       gradientUnits="userSpaceOnUse"
       gradientTransform="matrix(7.6166833,0,0,-7.6166833,89.573772,28.271301)"
       spreadMethod="pad"
       id="radialGradient3299"><stop
         style="stop-opacity:1;stop-color:#ffffff"
         offset="0"
         id="stop3301" /><stop
         style="stop-opacity:1;stop-color:#231f20"
         offset="1"
         id="stop3303" /></radialGradient><radialGradient
       fx="0"
       fy="0"
       cx="0"
       cy="0"
       r="1"
       gradientUnits="userSpaceOnUse"
       gradientTransform="matrix(6.7204729,0,0,-6.7204729,81.072188,19.207941)"
       spreadMethod="pad"
       id="radialGradient3319"><stop
         style="stop-opacity:1;stop-color:#ffffff"
         offset="0"
         id="stop3321" /><stop
         style="stop-opacity:1;stop-color:#231f20"
         offset="1"
         id="stop3323" /></radialGradient><clipPath
       clipPathUnits="userSpaceOnUse"
       id="clipPath3331"><path
         d="m 42.375,9 208.741,0 0,92.61 -208.741,0 0,-92.61 z"
         id="path3333"
         inkscape:connector-curvature="0" /></clipPath><radialGradient
       fx="0"
       fy="0"
       cx="0"
       cy="0"
       r="1"
       gradientUnits="userSpaceOnUse"
       gradientTransform="matrix(10.18013,0,0,-10.18013,80.306321,29.929213)"
       spreadMethod="pad"
       id="radialGradient3351"><stop
         style="stop-opacity:1;stop-color:#797677"
         offset="0"
         id="stop3353" /><stop
         style="stop-opacity:1;stop-color:#231f20"
         offset="1"
         id="stop3355" /></radialGradient><clipPath
       clipPathUnits="userSpaceOnUse"
       id="clipPath3363"><path
         d="m 42.375,9 208.741,0 0,92.61 -208.741,0 0,-92.61 z"
         id="path3365"
         inkscape:connector-curvature="0" /></clipPath><radialGradient
       fx="0"
       fy="0"
       cx="0"
       cy="0"
       r="1"
       gradientUnits="userSpaceOnUse"
       gradientTransform="matrix(7.6166833,0,0,-7.6166833,101.41695,28.271301)"
       spreadMethod="pad"
       id="radialGradient3389"><stop
         style="stop-opacity:1;stop-color:#ffffff"
         offset="0"
         id="stop3391" /><stop
         style="stop-opacity:1;stop-color:#231f20"
         offset="1"
         id="stop3393" /></radialGradient><radialGradient
       fx="0"
       fy="0"
       cx="0"
       cy="0"
       r="1"
       gradientUnits="userSpaceOnUse"
       gradientTransform="matrix(6.7206528,0,0,-6.7206528,92.915387,19.207941)"
       spreadMethod="pad"
       id="radialGradient3409"><stop
         style="stop-opacity:1;stop-color:#ffffff"
         offset="0"
         id="stop3411" /><stop
         style="stop-opacity:1;stop-color:#231f20"
         offset="1"
         id="stop3413" /></radialGradient><clipPath
       clipPathUnits="userSpaceOnUse"
       id="clipPath3421"><path
         d="m 42.375,9 208.741,0 0,92.61 -208.741,0 0,-92.61 z"
         id="path3423"
         inkscape:connector-curvature="0" /></clipPath><radialGradient
       fx="0"
       fy="0"
       cx="0"
       cy="0"
       r="1"
       gradientUnits="userSpaceOnUse"
       gradientTransform="matrix(10.180206,0,0,-10.180206,92.149654,29.929213)"
       spreadMethod="pad"
       id="radialGradient3441"><stop
         style="stop-opacity:1;stop-color:#797677"
         offset="0"
         id="stop3443" /><stop
         style="stop-opacity:1;stop-color:#231f20"
         offset="1"
         id="stop3445" /></radialGradient><clipPath
       clipPathUnits="userSpaceOnUse"
       id="clipPath3453"><path
         d="m 42.375,9 208.741,0 0,92.61 -208.741,0 0,-92.61 z"
         id="path3455"
         inkscape:connector-curvature="0" /></clipPath><radialGradient
       fx="0"
       fy="0"
       cx="0"
       cy="0"
       r="1"
       gradientUnits="userSpaceOnUse"
       gradientTransform="matrix(7.6166833,0,0,-7.6166833,113.26028,28.271301)"
       spreadMethod="pad"
       id="radialGradient3493"><stop
         style="stop-opacity:1;stop-color:#ffffff"
         offset="0"
         id="stop3495" /><stop
         style="stop-opacity:1;stop-color:#231f20"
         offset="1"
         id="stop3497" /></radialGradient><radialGradient
       fx="0"
       fy="0"
       cx="0"
       cy="0"
       r="1"
       gradientUnits="userSpaceOnUse"
       gradientTransform="matrix(6.7204729,0,0,-6.7204729,104.75872,19.207941)"
       spreadMethod="pad"
       id="radialGradient3513"><stop
         style="stop-opacity:1;stop-color:#ffffff"
         offset="0"
         id="stop3515" /><stop
         style="stop-opacity:1;stop-color:#231f20"
         offset="1"
         id="stop3517" /></radialGradient><clipPath
       clipPathUnits="userSpaceOnUse"
       id="clipPath3525"><path
         d="m 42.375,9 208.741,0 0,92.61 -208.741,0 0,-92.61 z"
         id="path3527"
         inkscape:connector-curvature="0" /></clipPath><radialGradient
       fx="0"
       fy="0"
       cx="0"
       cy="0"
       r="1"
       gradientUnits="userSpaceOnUse"
       gradientTransform="matrix(10.180824,0,0,-10.180824,103.99286,29.929731)"
       spreadMethod="pad"
       id="radialGradient3545"><stop
         style="stop-opacity:1;stop-color:#797677"
         offset="0"
         id="stop3547" /><stop
         style="stop-opacity:1;stop-color:#231f20"
         offset="1"
         id="stop3549" /></radialGradient><clipPath
       clipPathUnits="userSpaceOnUse"
       id="clipPath3557"><path
         d="m 42.375,9 208.741,0 0,92.61 -208.741,0 0,-92.61 z"
         id="path3559"
         inkscape:connector-curvature="0" /></clipPath><radialGradient
       fx="0"
       fy="0"
       cx="0"
       cy="0"
       r="1"
       gradientUnits="userSpaceOnUse"
       gradientTransform="matrix(7.6164779,0,0,-7.6164779,77.730541,28.228384)"
       spreadMethod="pad"
       id="radialGradient3581"><stop
         style="stop-opacity:1;stop-color:#ffffff"
         offset="0"
         id="stop3583" /><stop
         style="stop-opacity:1;stop-color:#231f20"
         offset="1"
         id="stop3585" /></radialGradient><radialGradient
       fx="0"
       fy="0"
       cx="0"
       cy="0"
       r="1"
       gradientUnits="userSpaceOnUse"
       gradientTransform="matrix(6.7202161,0,0,-6.7202161,69.22922,19.165283)"
       spreadMethod="pad"
       id="radialGradient3601"><stop
         style="stop-opacity:1;stop-color:#ffffff"
         offset="0"
         id="stop3603" /><stop
         style="stop-opacity:1;stop-color:#231f20"
         offset="1"
         id="stop3605" /></radialGradient><clipPath
       clipPathUnits="userSpaceOnUse"
       id="clipPath3613"><path
         d="m 42.375,9 208.741,0 0,92.61 -208.741,0 0,-92.61 z"
         id="path3615"
         inkscape:connector-curvature="0" /></clipPath><radialGradient
       fx="0"
       fy="0"
       cx="0"
       cy="0"
       r="1"
       gradientUnits="userSpaceOnUse"
       gradientTransform="matrix(10.180258,0,0,-10.180258,68.463114,29.886547)"
       spreadMethod="pad"
       id="radialGradient3633"><stop
         style="stop-opacity:1;stop-color:#797677"
         offset="0"
         id="stop3635" /><stop
         style="stop-opacity:1;stop-color:#231f20"
         offset="1"
         id="stop3637" /></radialGradient><clipPath
       clipPathUnits="userSpaceOnUse"
       id="clipPath3645"><path
         d="m 42.375,9 208.741,0 0,92.61 -208.741,0 0,-92.61 z"
         id="path3647"
         inkscape:connector-curvature="0" /></clipPath><radialGradient
       fx="0"
       fy="0"
       cx="0"
       cy="0"
       r="1"
       gradientUnits="userSpaceOnUse"
       gradientTransform="matrix(7.6166833,0,0,-7.6166833,200.72637,28.271301)"
       spreadMethod="pad"
       id="radialGradient3665"><stop
         style="stop-opacity:1;stop-color:#ffffff"
         offset="0"
         id="stop3667" /><stop
         style="stop-opacity:1;stop-color:#231f20"
         offset="1"
         id="stop3669" /></radialGradient><radialGradient
       fx="0"
       fy="0"
       cx="0"
       cy="0"
       r="1"
       gradientUnits="userSpaceOnUse"
       gradientTransform="matrix(6.720293,0,0,-6.720293,192.22533,19.207941)"
       spreadMethod="pad"
       id="radialGradient3685"><stop
         style="stop-opacity:1;stop-color:#ffffff"
         offset="0"
         id="stop3687" /><stop
         style="stop-opacity:1;stop-color:#231f20"
         offset="1"
         id="stop3689" /></radialGradient><clipPath
       clipPathUnits="userSpaceOnUse"
       id="clipPath3697"><path
         d="m 42.375,9 208.741,0 0,92.61 -208.741,0 0,-92.61 z"
         id="path3699"
         inkscape:connector-curvature="0" /></clipPath><radialGradient
       fx="0"
       fy="0"
       cx="0"
       cy="0"
       r="1"
       gradientUnits="userSpaceOnUse"
       gradientTransform="matrix(10.180258,0,0,-10.180258,191.45972,29.929213)"
       spreadMethod="pad"
       id="radialGradient3717"><stop
         style="stop-opacity:1;stop-color:#797677"
         offset="0"
         id="stop3719" /><stop
         style="stop-opacity:1;stop-color:#231f20"
         offset="1"
         id="stop3721" /></radialGradient><clipPath
       clipPathUnits="userSpaceOnUse"
       id="clipPath3729"><path
         d="m 42.375,9 208.741,0 0,92.61 -208.741,0 0,-92.61 z"
         id="path3731"
         inkscape:connector-curvature="0" /></clipPath><radialGradient
       fx="0"
       fy="0"
       cx="0"
       cy="0"
       r="1"
       gradientUnits="userSpaceOnUse"
       gradientTransform="matrix(7.6168632,0,0,-7.6168632,224.41251,28.271301)"
       spreadMethod="pad"
       id="radialGradient3749"><stop
         style="stop-opacity:1;stop-color:#ffffff"
         offset="0"
         id="stop3751" /><stop
         style="stop-opacity:1;stop-color:#231f20"
         offset="1"
         id="stop3753" /></radialGradient><radialGradient
       fx="0"
       fy="0"
       cx="0"
       cy="0"
       r="1"
       gradientUnits="userSpaceOnUse"
       gradientTransform="matrix(6.7199072,0,0,-6.7199072,215.91122,19.207941)"
       spreadMethod="pad"
       id="radialGradient3769"><stop
         style="stop-opacity:1;stop-color:#ffffff"
         offset="0"
         id="stop3771" /><stop
         style="stop-opacity:1;stop-color:#231f20"
         offset="1"
         id="stop3773" /></radialGradient><clipPath
       clipPathUnits="userSpaceOnUse"
       id="clipPath3781"><path
         d="m 42.375,9 208.741,0 0,92.61 -208.741,0 0,-92.61 z"
         id="path3783"
         inkscape:connector-curvature="0" /></clipPath><radialGradient
       fx="0"
       fy="0"
       cx="0"
       cy="0"
       r="1"
       gradientUnits="userSpaceOnUse"
       gradientTransform="matrix(10.180258,0,0,-10.180258,215.14486,29.929213)"
       spreadMethod="pad"
       id="radialGradient3801"><stop
         style="stop-opacity:1;stop-color:#797677"
         offset="0"
         id="stop3803" /><stop
         style="stop-opacity:1;stop-color:#231f20"
         offset="1"
         id="stop3805" /></radialGradient><clipPath
       clipPathUnits="userSpaceOnUse"
       id="clipPath3813"><path
         d="m 42.375,9 208.741,0 0,92.61 -208.741,0 0,-92.61 z"
         id="path3815"
         inkscape:connector-curvature="0" /></clipPath><radialGradient
       fx="0"
       fy="0"
       cx="0"
       cy="0"
       r="1"
       gradientUnits="userSpaceOnUse"
       gradientTransform="matrix(7.616298,0,0,-7.616298,188.88278,28.228384)"
       spreadMethod="pad"
       id="radialGradient3841"><stop
         style="stop-opacity:1;stop-color:#ffffff"
         offset="0"
         id="stop3843" /><stop
         style="stop-opacity:1;stop-color:#231f20"
         offset="1"
         id="stop3845" /></radialGradient><radialGradient
       fx="0"
       fy="0"
       cx="0"
       cy="0"
       r="1"
       gradientUnits="userSpaceOnUse"
       gradientTransform="matrix(6.7204729,0,0,-6.7204729,180.38123,19.165283)"
       spreadMethod="pad"
       id="radialGradient3861"><stop
         style="stop-opacity:1;stop-color:#ffffff"
         offset="0"
         id="stop3863" /><stop
         style="stop-opacity:1;stop-color:#231f20"
         offset="1"
         id="stop3865" /></radialGradient><clipPath
       clipPathUnits="userSpaceOnUse"
       id="clipPath3873"><path
         d="m 42.375,9 208.741,0 0,92.61 -208.741,0 0,-92.61 z"
         id="path3875"
         inkscape:connector-curvature="0" /></clipPath><radialGradient
       fx="0"
       fy="0"
       cx="0"
       cy="0"
       r="1"
       gradientUnits="userSpaceOnUse"
       gradientTransform="matrix(10.18013,0,0,-10.18013,179.61562,29.886547)"
       spreadMethod="pad"
       id="radialGradient3893"><stop
         style="stop-opacity:1;stop-color:#797677"
         offset="0"
         id="stop3895" /><stop
         style="stop-opacity:1;stop-color:#231f20"
         offset="1"
         id="stop3897" /></radialGradient><clipPath
       clipPathUnits="userSpaceOnUse"
       id="clipPath3905"><path
         d="m 42.375,9 208.741,0 0,92.61 -208.741,0 0,-92.61 z"
         id="path3907"
         inkscape:connector-curvature="0" /></clipPath><radialGradient
       fx="0"
       fy="0"
       cx="0"
       cy="0"
       r="1"
       gradientUnits="userSpaceOnUse"
       gradientTransform="matrix(7.6164779,0,0,-7.6164779,212.5697,28.271301)"
       spreadMethod="pad"
       id="radialGradient3925"><stop
         style="stop-opacity:1;stop-color:#ffffff"
         offset="0"
         id="stop3927" /><stop
         style="stop-opacity:1;stop-color:#231f20"
         offset="1"
         id="stop3929" /></radialGradient><radialGradient
       fx="0"
       fy="0"
       cx="0"
       cy="0"
       r="1"
       gradientUnits="userSpaceOnUse"
       gradientTransform="matrix(6.7204729,0,0,-6.7204729,204.06813,19.207941)"
       spreadMethod="pad"
       id="radialGradient3945"><stop
         style="stop-opacity:1;stop-color:#ffffff"
         offset="0"
         id="stop3947" /><stop
         style="stop-opacity:1;stop-color:#231f20"
         offset="1"
         id="stop3949" /></radialGradient><clipPath
       clipPathUnits="userSpaceOnUse"
       id="clipPath3957"><path
         d="m 42.375,9 208.741,0 0,92.61 -208.741,0 0,-92.61 z"
         id="path3959"
         inkscape:connector-curvature="0" /></clipPath><radialGradient
       fx="0"
       fy="0"
       cx="0"
       cy="0"
       r="1"
       gradientUnits="userSpaceOnUse"
       gradientTransform="matrix(10.180258,0,0,-10.180258,203.30255,29.929213)"
       spreadMethod="pad"
       id="radialGradient3977"><stop
         style="stop-opacity:1;stop-color:#797677"
         offset="0"
         id="stop3979" /><stop
         style="stop-opacity:1;stop-color:#231f20"
         offset="1"
         id="stop3981" /></radialGradient><clipPath
       clipPathUnits="userSpaceOnUse"
       id="clipPath3989"><path
         d="m 42.375,9 208.741,0 0,92.61 -208.741,0 0,-92.61 z"
         id="path3991"
         inkscape:connector-curvature="0" /></clipPath><clipPath
       clipPathUnits="userSpaceOnUse"
       id="clipPath4045"><path
         d="M 0,0 540,0 540,252 0,252 0,0 z"
         id="path4047"
         inkscape:connector-curvature="0" /></clipPath><clipPath
       clipPathUnits="userSpaceOnUse"
       id="clipPath4171"><path
         d="m 354.041,70.912 103.039,0 0,39.49 -103.039,0 0,-39.49 z"
         id="path4173"
         inkscape:connector-curvature="0" /></clipPath></defs><sodipodi:namedview
     pagecolor="#ffffff"
     bordercolor="#666666"
     borderopacity="1"
     objecttolerance="10"
     gridtolerance="10"
     guidetolerance="10"
     inkscape:pageopacity="0"
     inkscape:pageshadow="2"
     inkscape:window-width="1920"
     inkscape:window-height="1028"
     id="namedview2987"
     showgrid="false"
     fit-margin-left="0.5"
     fit-margin-bottom="0.5"
     fit-margin-top="0.5"
     fit-margin-right="0.5"
     inkscape:zoom="0.50222222"
     inkscape:cx="774.40719"
     inkscape:cy="404.80867"
     inkscape:window-x="-8"
     inkscape:window-y="-8"
     inkscape:window-maximized="1"
     inkscape:current-layer="g3029" /><g
     id="g2993"
     inkscape:groupmode="layer"
     inkscape:label="14073-43-48_2499pboilchange_exp7-31_couponpage"
     transform="matrix(1.25,0,0,-1.25,41.697392,615.66432)"><g
       id="g4223"
       transform="matrix(8.8285004,0,0,8.8285004,-794.20606,-381.30276)"><g
         id="g3015" /><g
         id="g3027"
         transform="translate(-9.5627541,-3.0672985)"><g
           clip-path="url(#clipPath3031)"
           id="g3029"><g
             id="g4315"
             transform="matrix(1.0229068,0,0,1.0229068,-9.0230275,0.85666318)"><g
               id="g3035"
               transform="translate(114.0891,81.8814)"><path
                 inkscape:connector-curvature="0"
                 d="m 0,0 c 1.434,-1.13 2.072,-2.992 2.072,-2.992 l 1.977,0.091 c 1.979,4.972 6.952,5.898 9.941,1.035 0.843,0.433 0.861,0.943 0.861,0.943 0,4.501 -6.571,12.209 -7.387,12.26 C 6.843,10.276 2.804,8.647 1.458,8.344 0.109,8.041 -3.823,7.905 -3.823,7.905 -3.782,6.082 -4.793,5.429 -5.297,4.954 -5.802,4.475 -6.86,2.804 -7.114,2.021 -7.367,1.239 -6.811,-1.198 -6.811,-1.198 -4.922,1.748 -1.432,1.129 0,0"
                 style="fill:#ffffff;fill-opacity:1;fill-rule:nonzero;stroke:none"
                 id="path3037" /></g><g
               id="g3039"
               transform="translate(123.3216,74.6716)"><path
                 inkscape:connector-curvature="0"
                 d="M 0,0 C 4.297,0 4.085,6.213 -0.211,6.213 -4.382,6.213 -3.539,0 0,0"
                 style="fill:#ffffff;fill-opacity:1;fill-rule:nonzero;stroke:none"
                 id="path3041" /></g><g
               id="g3043"
               transform="translate(111.2341,80.798)"><path
                 inkscape:connector-curvature="0"
                 d="M 0,0 C -3.41,0 -4.539,-6.217 -0.112,-6.185 5.026,-6.148 2.695,0 0,0"
                 style="fill:#ffffff;fill-opacity:1;fill-rule:nonzero;stroke:none"
                 id="path3045" /></g><g
               id="g3047"
               transform="translate(114.0413,69.6761)"><path
                 inkscape:connector-curvature="0"
                 d="M 0,0 C 0.507,0.66 1.053,1.62 1.053,1.62 0,2.17 1.011,3.384 1.011,3.384 1.367,2.005 3.43,0.989 5.265,3.238 5.727,2.245 5.054,1.177 5.054,1.177 6.106,0 6.738,-1.472 8,-0.295 7.876,-2.684 4.465,-2.611 3.579,-2.205 -0.59,-3.603 -1.179,-0.552 -1.179,-0.552 0.043,-0.918 -0.505,-0.661 0,0 M 1.471,-3.63 C 3.17,-4.273 6.21,-3.493 6.21,-3.493 3.45,-6.978 1.471,-3.63 1.471,-3.63 m -9.429,6.958 c 1.187,-0.814 1.218,0.521 2.825,-2.96 0.664,-1.441 1.842,-2.226 2.6,-3.006 0.757,-0.783 2.675,-2.483 3.77,-3.177 1.094,-0.696 2.209,-1.729 5.625,-0.099 6.751,3.214 8.019,9.738 8.524,9.564 0.506,-0.174 0.674,-1.129 1.095,0.566 0.422,1.693 1.827,7.091 0,4.473 C 15.751,7.642 14.124,6.127 14.038,6.214 12.649,1.828 5.946,1.214 4.355,6.84 3.066,6.909 2.162,6.824 2.162,6.824 1.507,2.47 -7.743,0.741 -7.473,8.554 -8.458,9.299 -8.777,9.469 -9.35,9.8 -10.704,7.732 -9.279,4.311 -7.958,3.328"
                 style="fill:#ffffff;fill-opacity:1;fill-rule:nonzero;stroke:none"
                 id="path3049" /></g><g
               id="g3051"
               transform="translate(117.6205,67.4713)"><path
                 inkscape:connector-curvature="0"
                 d="M 0,0 C 0.886,-0.407 4.296,-0.479 4.421,1.91 3.159,0.733 2.527,2.205 1.475,3.382 c 0,0 0.673,1.068 0.211,2.061 -1.835,-2.249 -3.898,-1.233 -4.254,0.146 0,0 -1.011,-1.214 0.042,-1.764 0,0 -0.546,-0.96 -1.053,-1.62 -0.505,-0.661 0.043,-0.918 -1.179,-0.552 0,0 0.589,-3.051 4.758,-1.653"
                 style="fill:#231f20;fill-opacity:1;fill-rule:nonzero;stroke:none"
                 id="path3053" /></g><g
               id="g3055"
               transform="translate(115.5124,66.0459)"><path
                 inkscape:connector-curvature="0"
                 d="M 0,0 C 0,0 1.979,-3.348 4.739,0.137 4.739,0.137 1.699,-0.643 0,0"
                 style="fill:#231f20;fill-opacity:1;fill-rule:nonzero;stroke:none"
                 id="path3057" /></g><g
               id="g3059"
               transform="translate(104.6914,79.476)"><path
                 inkscape:connector-curvature="0"
                 d="m 0,0 c 0.573,-0.331 0.892,-0.501 1.877,-1.246 -0.27,-7.813 8.979,-6.084 9.635,-1.73 0,0 0.904,0.085 2.193,0.016 1.591,-5.626 8.294,-5.012 9.683,-0.626 0.086,-0.087 1.712,1.428 2.443,2.475 1.827,2.618 0.422,-2.78 0,-4.473 -0.421,-1.695 -0.589,-0.74 -1.096,-0.566 -0.504,0.174 -1.772,-6.35 -8.523,-9.564 -3.416,-1.63 -4.531,-0.597 -5.625,0.099 -1.095,0.694 -3.013,2.394 -3.77,3.177 -0.758,0.78 -1.936,1.565 -2.6,3.006 C 2.61,-5.951 2.579,-7.285 1.392,-6.472 0.07,-5.489 -1.354,-2.068 0,0 m 6.43,-4.863 c -4.426,-0.032 -3.297,6.185 0.113,6.185 2.695,0 5.026,-6.148 -0.113,-6.185 m 12.2,0.059 c -3.539,0 -4.381,6.213 -0.211,6.213 4.296,0 4.508,-6.213 0.211,-6.213 M 2.284,4.426 C 2.538,5.209 3.595,6.88 4.1,7.359 c 0.505,0.475 1.515,1.128 1.475,2.952 0,0 3.932,0.136 5.281,0.438 1.346,0.304 5.385,1.933 6.005,2.993 0.816,-0.05 7.388,-7.759 7.388,-12.26 0,0 -0.018,-0.509 -0.861,-0.942 -2.989,4.862 -7.962,3.936 -9.942,-1.035 L 11.47,-0.587 c 0,0 -0.638,1.862 -2.072,2.992 -1.433,1.129 -4.922,1.749 -6.812,-1.198 0,0 -0.555,2.438 -0.302,3.219 M 33.09,-4.689 c -0.649,3.933 -0.611,5.24 -0.334,7.213 0.101,0.714 0.826,2.361 0.867,4.197 0.072,3.217 -0.943,3.77 0.255,6.257 0.315,0.652 4.836,-2.883 9.284,-0.309 1.584,-2.155 8.966,0.829 9.279,0.176 1.199,-2.486 0.184,-2.907 0.256,-6.124 0.042,-1.836 0.766,-3.483 0.866,-4.197 0.278,-1.973 0.385,-2.943 -0.332,-7.213 2.041,3.006 4.993,3.037 3.975,0.219 -1.017,-2.816 -1.014,-3.674 -1.937,-4.238 -0.928,-0.564 -1.61,1.738 -1.61,1.738 0,0 0.091,-5.028 -1.364,-6.215 -1.388,-1.13 -3.831,-5.084 -5.508,-4.688 -0.805,0.188 -2.224,-0.398 -3.625,-0.558 -1.404,0.16 -2.864,0.878 -3.628,0.558 -1.464,-0.613 -4.122,3.558 -5.511,4.688 -1.452,1.187 -1.364,6.215 -1.364,6.215 0,0 -0.681,-2.302 -1.607,-1.738 -0.926,0.564 -0.921,1.422 -1.94,4.238 -1.019,2.818 1.939,2.787 3.978,-0.219 m 27.912,4.042 c -0.857,1.421 -0.777,2.809 -0.687,4.635 0.086,1.827 0.516,4.526 1.269,5.445 0.754,0.917 3.145,1.503 4.099,1.514 0.951,0.01 6.678,-1.96 12.289,1.513 C 77.35,11.036 79.973,8.924 81,8.187 c 2.393,-1.724 0.696,-9.69 0.786,-10.401 0.088,-0.713 1.332,-0.472 -0.073,-4.294 -3.035,-8.243 -5.046,-6.922 -5.968,-8.284 -1.109,-1.645 -2.053,-1.536 -4.193,-1.536 -2.137,0 -2.098,1.738 -4.099,2.1 -5.381,0.978 -7.042,7.35 -6.669,9.869 0.209,1.424 -1.162,0.927 -1.243,2.316 -0.122,2.157 1.548,0.735 1.461,1.396 m 23.819,0.952 c 0.044,-1.016 -0.908,-4.265 -1.176,-3.64 -0.266,0.623 -0.469,2.348 -0.469,2.348 0.715,0.713 1.602,2.151 1.645,1.292 M 2.389,-8.89 c 2.736,-5.216 4.366,-4.087 5.327,-6.067 0.963,-1.983 2.898,-3.374 5.359,-3.41 2.554,-0.037 6.059,1.666 7.324,3.403 1.263,1.734 2.167,2.646 2.842,3.429 0.673,0.782 1.411,2.085 1.411,2.085 1.866,-0.281 2.719,0.661 3.239,1.854 1.517,-2.296 5.521,-7.34 9.837,-11.221 0.639,-0.574 1.629,-1.394 3.391,-1.207 0.749,0.016 1.427,0.016 2.043,0.005 0.613,0.011 1.291,0.011 2.042,-0.005 1.759,-0.187 2.748,0.633 3.389,1.207 4.961,4.461 9.51,10.462 10.345,12.056 0.027,0.051 0.049,0.106 0.073,0.161 -0.007,-0.235 -0.013,-0.484 -0.013,-0.771 0,-3.292 3.482,-6.707 5.26,-7.599 1.781,-0.889 5.787,-3.563 8.283,-3.385 2.493,0.179 4.696,1.488 6.145,3.208 4.492,5.325 4.982,9.186 5.456,9.397 0.965,0.43 1.043,2.714 1.847,4.852 0.801,2.137 -0.181,3.652 -1.96,2.67 l 0.176,1.159 c 0,0 0.268,3.472 0.089,5.343 -0.176,1.872 -2.048,3.651 -3.026,5.166 -0.981,1.513 -1.894,0.498 -3.661,2.426 -2.329,1.607 -9.115,0.857 -12.143,-0.656 0,0 -4.307,-2.492 -5.465,-4.362 -1.157,-1.868 -1.013,-8.44 -1.28,-9.151 -0.684,0.41 -1.65,-1.024 -1.868,-1.681 -0.021,-0.059 -0.023,-0.122 -0.031,-0.183 -0.625,0.033 -1.005,-0.349 -1.19,-0.162 -0.462,0.469 0.278,9.112 -0.831,15.366 -0.271,1.503 -5.377,3.527 -6.67,4.005 -2.42,0.895 -4.748,-0.11 -4.967,-0.481 -0.222,0.371 -2.55,1.376 -4.971,0.481 C 36.899,18.564 31.79,16.54 31.524,15.037 30.409,8.783 31.152,0.14 30.689,-0.329 c -0.214,-0.22 -0.703,0.343 -1.537,0.1 0.116,0.744 0.133,1.409 -0.12,1.899 -0.928,1.781 -2.105,1.866 -2.484,1.432 1.019,4.632 -5.051,14.809 -16.33,12.937 C 7.035,15.509 6.374,14.479 5.276,13.773 4.176,13.066 4.45,13.347 3.214,11.931 1.978,10.514 1.703,9.665 1.154,7.256 c -0.549,-2.405 0,-5.381 0,-5.381 0,0 -4.007,1.952 -3.296,-2.267 -0.412,-4.814 2.074,-8.586 4.531,-8.498"
                 style="fill:#231f20;fill-opacity:1;fill-rule:nonzero;stroke:none"
                 id="path3061" /></g><g
               id="g3063"
               transform="translate(169.1246,82.4867)"><path
                 inkscape:connector-curvature="0"
                 d="M 0,0 C 1.676,-0.489 5.033,-0.984 5.033,-0.984 L 6.529,-0.36 C 6.475,-0.853 6.382,-1.14 6.136,-1.574 5.832,-2.112 5.388,-2.202 5.04,-2.714 4.621,-3.327 4.446,-3.745 4.309,-4.476 3.556,-4.085 3.047,-3.962 2.193,-3.964 1.054,-3.967 0.333,-4.215 -0.572,-4.911 c -0.239,0.277 -0.336,0.488 -0.4,0.847 -0.076,0.434 -0.036,0.719 0.157,1.112 l 0.826,-0.489 c 0.635,0.305 1.015,0.449 1.69,0.645 0.813,0.238 1.285,0.331 2.126,0.41 -1.081,0.25 -1.721,0.319 -2.833,0.303 -0.805,-0.019 -1.569,0.422 -2.049,-0.222 -0.247,-0.334 -0.321,-0.617 -0.263,-1.026 -0.355,0.017 -0.582,0.118 -0.828,0.372 -0.29,0.299 0.06,0.907 -0.346,1.013 C -1.169,-2.291 -0.398,0.101 0,0 m 8.38,-3.944 c 0.076,0.48 0.576,1.806 0.407,2.133 -0.133,0.26 -0.432,0.215 -0.585,0.459 -0.207,0.328 -0.236,0.623 -0.108,0.987 0.64,-0.315 1.043,-0.436 1.75,-0.519 0.77,-0.092 1.209,0.051 1.979,0.131 1.087,0.114 1.714,0.713 2.77,0.433 0.655,-0.175 1.031,-0.379 1.517,-0.855 0.283,-0.284 0.515,-0.443 0.61,-0.837 0.09,-0.37 0.252,-0.983 -0.133,-0.97 -0.216,0.009 -0.27,0.21 -0.446,0.336 -0.248,0.175 -0.386,0.287 -0.66,0.422 -0.789,0.398 -1.358,0.34 -2.245,0.34 -0.96,-0.001 -1.519,-0.091 -2.429,-0.398 0.421,-0.077 0.663,-0.127 1.085,-0.23 0.832,-0.206 1.273,-0.877 2.103,-0.65 0.249,0.07 0.344,0.311 0.602,0.278 0.254,-0.033 0.353,-0.213 0.504,-0.417 0.316,-0.432 0.355,-0.883 0.118,-1.365 -0.811,0.533 -1.376,0.732 -2.341,0.828 -0.751,0.077 -1.18,-0.099 -1.929,-0.169 C 10.555,-4.042 10.269,-4.32 9.942,-4.1 9.681,-3.927 9.567,-3.685 9.595,-3.371 9.38,-3.69 9.29,-3.903 9.214,-4.285 9.054,-5.06 9.644,-5.482 9.631,-6.274 9.624,-6.889 8.902,-8.447 9.918,-9.054 c 0.515,-0.31 0.538,0.449 0.81,0.473 0.341,0.025 0.341,-0.506 0.262,-0.841 -0.242,-1.005 -1.398,-1.3 -2.118,-1.687 -1.109,-0.593 -2.542,-0.017 -2.466,0.626 0.404,0.048 0.631,0.101 1.013,0.246 0.465,0.173 0.764,0.26 1.119,0.613 0.939,0.928 -0.586,3.05 -0.158,5.68 m 7.274,-6.568 c -0.242,-0.571 -0.486,-0.881 -0.991,-1.24 0.125,0.438 0.062,0.782 -0.208,1.148 -0.231,0.318 -0.515,0.339 -0.862,0.526 -0.394,0.217 -0.728,0.172 -1.035,0.494 -0.26,0.278 -0.374,0.506 -0.428,0.88 0.27,-0.146 0.431,-0.213 0.724,-0.305 0.51,-0.168 0.824,-0.175 1.365,-0.216 0.647,-0.045 1.015,-0.037 1.658,0.041 0.039,-0.523 -0.018,-0.845 -0.223,-1.328 M 4.221,-9.168 4.981,-9.312 5.804,-9.451 5.565,-9.722 4.692,-9.81 4.221,-9.168 z m 8.544,-4.14 c -2.266,0.261 -3.378,-0.744 -4.119,-0.781 -0.377,-0.017 -1.762,0.271 -2.337,0.337 -0.702,0.078 -2.032,0.316 -3.459,0.475 -0.643,0.069 -1.16,0.016 -1.249,0.023 -0.253,0.014 -0.408,0.115 -0.539,0.307 -0.186,0.278 -0.036,0.54 0.107,0.853 0.181,0.388 0.37,0.722 0.821,0.804 0.241,0.041 0.496,0.108 0.615,-0.076 0.097,-0.164 -0.111,-0.296 -0.111,-0.485 -0.003,-1.805 8.536,-1.088 10.894,0.731 0.839,-0.429 -0.186,-2.239 -0.623,-2.188 m -3.077,-3.249 -0.933,-0.291 -2.254,-0.052 -1.428,0.55 0.754,0.537 2.005,0.199 1.904,-0.335 -0.048,-0.608 z m -10.047,4.532 c -0.597,0.49 -0.779,1.201 -0.488,1.918 0.125,0.314 0.251,0.489 0.521,0.695 0.465,0.349 0.901,0.117 1.47,0.244 0.659,0.148 1.023,0.257 1.658,0.489 -0.133,-0.671 -0.398,-1.079 -0.96,-1.473 -0.531,-0.372 -1.124,0.017 -1.608,-0.415 -0.456,-0.411 -0.632,-0.847 -0.593,-1.458 m -3.29,4.655 c -0.373,-2.518 1.288,-8.891 6.669,-9.869 2.001,-0.362 1.961,-2.099 4.099,-2.099 2.139,0 3.084,-0.11 4.193,1.535 0.921,1.362 2.933,0.041 5.968,8.284 1.404,3.823 0.16,3.582 0.073,4.295 -0.09,0.711 1.607,8.676 -0.787,10.4 C 15.54,5.914 12.916,8.025 13.539,9.449 7.928,5.976 2.201,7.946 1.249,7.936 0.295,7.925 -2.095,7.339 -2.85,6.422 -3.603,5.504 -4.032,2.804 -4.118,0.977 c -0.09,-1.826 -0.17,-3.213 0.687,-4.635 0.086,-0.661 -1.583,0.762 -1.461,-1.396 0.081,-1.389 1.452,-0.892 1.243,-2.316"
                 style="fill:#ffffff;fill-opacity:1;fill-rule:nonzero;stroke:none"
                 id="path3065" /></g><g
               id="g3067"
               transform="translate(189.5127,79.7815)"><path
                 inkscape:connector-curvature="0"
                 d="m 0,0 c -0.043,0.859 -0.931,-0.58 -1.645,-1.293 0,0 0.202,-1.724 0.468,-2.347 C -0.909,-4.265 0.044,-1.016 0,0"
                 style="fill:#ffffff;fill-opacity:1;fill-rule:nonzero;stroke:none"
                 id="path3069" /></g><g
               id="g3071"
               transform="translate(171.9267,73.8073)"><path
                 inkscape:connector-curvature="0"
                 d="m 0,0 c -0.635,-0.232 -0.999,-0.341 -1.658,-0.489 -0.569,-0.127 -1.005,0.105 -1.47,-0.244 -0.271,-0.206 -0.396,-0.381 -0.521,-0.695 -0.291,-0.717 -0.109,-1.428 0.488,-1.918 -0.039,0.612 0.137,1.048 0.593,1.458 0.484,0.432 1.077,0.044 1.608,0.416 C -0.398,-1.079 -0.133,-0.671 0,0"
                 style="fill:#231f20;fill-opacity:1;fill-rule:nonzero;stroke:none"
                 id="path3073" /></g><g
               id="g3075"
               transform="translate(183.3439,73.2615)"><path
                 inkscape:connector-curvature="0"
                 d="m 0,0 c -0.542,0.041 -0.855,0.049 -1.365,0.216 -0.293,0.092 -0.454,0.16 -0.724,0.305 0.053,-0.374 0.167,-0.602 0.428,-0.879 0.306,-0.323 0.64,-0.278 1.035,-0.495 0.347,-0.187 0.63,-0.207 0.861,-0.525 0.271,-0.367 0.334,-0.71 0.209,-1.149 0.505,0.359 0.749,0.67 0.991,1.24 0.205,0.484 0.261,0.805 0.222,1.328 C 1.015,-0.036 0.647,-0.045 0,0"
                 style="fill:#231f20;fill-opacity:1;fill-rule:nonzero;stroke:none"
                 id="path3077" /></g><g
               id="g3079"
               transform="translate(166.9781,79.5274)"><path
                 inkscape:connector-curvature="0"
                 d="M 0,0 C 0.247,-0.253 0.473,-0.355 0.829,-0.372 0.77,0.037 0.845,0.321 1.091,0.655 1.572,1.298 2.335,0.858 3.141,0.876 4.253,0.892 4.893,0.824 5.973,0.574 5.133,0.495 4.66,0.401 3.848,0.163 3.173,-0.032 2.793,-0.176 2.158,-0.482 L 1.332,0.008 C 1.139,-0.386 1.099,-0.671 1.174,-1.104 c 0.064,-0.359 0.161,-0.571 0.401,-0.848 0.905,0.696 1.626,0.944 2.764,0.947 0.854,0.002 1.364,-0.12 2.116,-0.511 0.137,0.73 0.312,1.148 0.732,1.762 0.348,0.511 0.792,0.602 1.095,1.14 0.247,0.434 0.34,0.72 0.393,1.214 L 7.179,1.975 c 0,0 -3.357,0.495 -5.033,0.984 C 1.749,3.06 0.977,0.669 -0.346,1.014 0.06,0.908 -0.29,0.299 0,0"
                 style="fill:#231f20;fill-opacity:1;fill-rule:nonzero;stroke:none"
                 id="path3081" /></g><g
               id="g3083"
               transform="translate(176.5437,72.2494)"><path
                 inkscape:connector-curvature="0"
                 d="M 0,0 C -0.382,-0.144 -0.609,-0.198 -1.013,-0.246 -1.089,-0.889 0.344,-1.465 1.453,-0.872 2.172,-0.485 3.329,-0.189 3.571,0.815 3.65,1.15 3.65,1.682 3.309,1.656 3.037,1.632 3.014,0.873 2.499,1.184 1.483,1.79 2.205,3.348 2.212,3.964 2.225,4.756 1.635,5.177 1.795,5.953 1.871,6.334 1.961,6.548 2.176,6.866 2.148,6.552 2.262,6.311 2.523,6.137 2.85,5.917 3.136,6.196 3.53,6.231 4.279,6.3 4.708,6.476 5.459,6.399 6.424,6.303 6.989,6.104 7.8,5.572 8.037,6.053 7.998,6.505 7.681,6.936 7.531,7.14 7.432,7.32 7.178,7.354 6.92,7.386 6.825,7.145 6.576,7.076 5.746,6.848 5.304,7.519 4.473,7.725 4.051,7.828 3.809,7.878 3.388,7.955 4.298,8.262 4.857,8.352 5.817,8.354 6.704,8.354 7.273,8.411 8.062,8.013 8.336,7.878 8.474,7.766 8.722,7.592 8.898,7.465 8.952,7.264 9.168,7.255 9.552,7.242 9.391,7.856 9.301,8.225 9.206,8.62 8.974,8.778 8.69,9.063 8.204,9.538 7.828,9.742 7.174,9.918 6.118,10.197 5.491,9.599 4.404,9.485 3.634,9.404 3.195,9.262 2.425,9.353 1.718,9.437 1.315,9.557 0.675,9.872 0.547,9.508 0.576,9.213 0.783,8.885 0.935,8.641 1.235,8.687 1.367,8.426 1.537,8.1 1.037,6.773 0.961,6.293 0.533,3.663 2.058,1.542 1.119,0.613 0.764,0.26 0.465,0.173 0,0"
                 style="fill:#231f20;fill-opacity:1;fill-rule:nonzero;stroke:none"
                 id="path3085" /></g><g
               id="g3087"
               transform="translate(174.9285,73.0353)"><path
                 inkscape:connector-curvature="0"
                 d="m 0,0 -0.822,0.14 -0.761,0.143 0.471,-0.642 0.873,0.088 L 0,0 z"
                 style="fill:#231f20;fill-opacity:1;fill-rule:nonzero;stroke:none"
                 id="path3089" /></g><g
               id="g3091"
               transform="translate(182.5123,71.3671)"><path
                 inkscape:connector-curvature="0"
                 d="m 0,0 c -2.358,-1.82 -10.897,-2.536 -10.894,-0.731 0,0.189 0.208,0.321 0.111,0.485 -0.119,0.183 -0.374,0.117 -0.614,0.076 -0.451,-0.083 -0.64,-0.416 -0.821,-0.805 -0.143,-0.313 -0.293,-0.574 -0.108,-0.852 0.132,-0.193 0.287,-0.294 0.54,-0.307 0.089,-0.007 0.605,0.046 1.249,-0.024 1.426,-0.158 2.757,-0.396 3.458,-0.475 0.575,-0.065 1.96,-0.354 2.337,-0.336 0.741,0.037 1.853,1.041 4.119,0.781 C -0.185,-2.24 0.839,-0.429 0,0"
                 style="fill:#231f20;fill-opacity:1;fill-rule:nonzero;stroke:none"
                 id="path3093" /></g><g
               id="g3095"
               transform="translate(174.9516,66.674)"><path
                 inkscape:connector-curvature="0"
                 d="m 0,0 -0.754,-0.537 1.428,-0.551 2.254,0.053 0.933,0.29 0.048,0.609 L 2.005,0.199 0,0 z"
                 style="fill:#231f20;fill-opacity:1;fill-rule:nonzero;stroke:none"
                 id="path3097" /></g><g
               id="g3099"
               transform="translate(139.1787,82.362)"><path
                 inkscape:connector-curvature="0"
                 d="m 0,0 c 0,0 2.778,0.344 3.425,0.344 0.651,0 1.405,-0.892 3.428,-1.288 1.217,-0.238 1.211,-1.922 1.211,-1.922 0,0 -0.823,1.353 -2.784,0.551 C 4.471,-2.647 2.398,-0.714 1.842,-1.057 1.284,-1.4 0.926,-2.489 -0.279,-2.574 -1.482,-2.66 -0.555,-0.859 0,0 m 1.587,-3.737 c 0.636,0.144 2.261,0.596 2.998,0.664 0.736,0.065 1.698,-0.28 1.818,-0.529 C 6.523,-3.848 6.081,-5.386 6.081,-5.386 5.593,-5.059 5.642,-4.405 5.01,-4.553 3.83,-4.831 2.493,-5.32 1.996,-5.021 1.498,-4.722 0.95,-3.882 1.587,-3.737 m 7.113,-7.48 c 1.173,0 1.939,1.593 3.055,1.593 0.182,-0.239 0.149,-0.529 1.048,-0.978 0.899,-0.452 1.744,-0.583 2.701,-0.37 0.867,0.199 1.081,1.004 1.081,1.004 0,0 -0.042,-4.133 -0.6,-3.068 -0.509,0.976 -0.421,1.174 -1.063,1.046 -0.008,-0.042 -0.027,-0.097 -0.067,-0.169 -0.241,-0.415 -0.664,-1.196 -0.872,-1.573 -0.412,-0.743 -3.402,-1.399 -4.596,-1.321 0.489,0.813 3.097,0.522 4.264,2.509 l 0.017,0.014 c -0.583,-0.329 -1.128,-0.692 -1.589,-0.758 -1.575,-0.221 -3.356,0.782 -3.356,0.782 L 8.7,-12.53 8.676,-12.506 c 0,0 -1.781,-1.003 -3.355,-0.782 -0.46,0.066 -1.012,0.429 -1.587,0.758 l 0.013,-0.014 c 1.166,-1.987 3.776,-1.696 4.267,-2.509 -1.195,-0.078 -4.186,0.578 -4.6,1.321 -0.205,0.377 -0.63,1.158 -0.868,1.573 -0.043,0.072 -0.062,0.127 -0.07,0.169 -0.642,0.128 -0.553,-0.07 -1.061,-1.046 -0.558,-1.065 -0.603,3.068 -0.603,3.068 0,0 0.215,-0.805 1.084,-1.004 0.956,-0.213 1.8,-0.082 2.701,0.37 0.899,0.449 0.865,0.739 1.048,0.978 1.019,0 1.975,-1.593 3.055,-1.593 m 6.579,6.196 c -0.498,-0.302 -1.855,0.105 -3.016,0.465 -0.573,0.18 -0.663,-0.36 -1.033,-0.832 0,0 -0.476,1.538 -0.357,1.786 0.119,0.247 1.079,0.594 1.817,0.529 0.737,-0.068 2.365,-0.52 2.998,-0.666 0.635,-0.144 0.089,-0.984 -0.409,-1.282 m -4.787,4.077 c 2.023,0.396 2.778,1.288 3.425,1.288 0.65,0 3.429,-0.344 3.429,-0.344 0.555,-0.859 1.482,-2.66 0.279,-2.574 -1.205,0.085 -1.567,1.174 -2.121,1.517 -0.557,0.343 -2.632,-1.595 -3.438,-1.258 -1.729,0.716 -2.785,-0.551 -2.785,-0.551 0,0 -0.005,1.684 1.211,1.922 m -1.818,-16.669 -0.002,0 c -2.235,0.061 -3.247,1.13 -3.247,1.13 0.623,0.026 1.957,0.006 3.249,-0.025 1.289,0.031 2.624,0.051 3.248,0.025 0,0 -1.013,-1.069 -3.248,-1.13 m -12.109,6.019 c 0.925,-0.564 1.606,1.738 1.606,1.738 0,0 -0.088,-5.028 1.365,-6.215 1.389,-1.13 4.046,-5.301 5.51,-4.688 0.765,0.32 2.225,-0.398 3.628,-0.558 1.402,0.16 2.82,0.746 3.626,0.558 1.676,-0.396 4.12,3.558 5.508,4.688 1.455,1.187 1.364,6.215 1.364,6.215 0,0 0.682,-2.302 1.61,-1.738 0.923,0.564 0.92,1.422 1.937,4.238 1.018,2.818 -1.935,2.787 -3.975,-0.219 0.717,4.27 0.61,5.24 0.332,7.213 -0.1,0.714 -0.825,2.361 -0.867,4.197 -0.072,3.217 0.943,3.638 -0.255,6.124 C 17.64,10.612 10.259,7.628 8.674,9.783 4.226,7.209 -0.294,10.744 -0.61,10.092 -1.808,7.605 -0.793,7.052 -0.864,3.835 -0.906,1.999 -1.63,0.352 -1.731,-0.362 c -0.278,-1.973 -0.315,-3.28 0.333,-7.213 -2.039,3.006 -4.996,3.037 -3.977,0.219 1.019,-2.816 1.013,-3.674 1.94,-4.238"
                 style="fill:#ffffff;fill-opacity:1;fill-rule:nonzero;stroke:none"
                 id="path3101" /></g><g
               id="g3103"
               transform="translate(138.8996,79.7885)"><path
                 inkscape:connector-curvature="0"
                 d="m 0,0 c 1.205,0.085 1.564,1.174 2.121,1.516 0.556,0.343 2.629,-1.59 3.438,-1.257 1.961,0.802 2.785,-0.551 2.785,-0.551 0,0 0.005,1.684 -1.211,1.922 C 5.109,2.026 4.355,2.917 3.704,2.917 3.058,2.917 0.279,2.574 0.279,2.574 -0.276,1.714 -1.203,-0.086 0,0"
                 style="fill:#231f20;fill-opacity:1;fill-rule:nonzero;stroke:none"
                 id="path3105" /></g><g
               id="g3107"
               transform="translate(144.1884,77.8094)"><path
                 inkscape:connector-curvature="0"
                 d="m 0,0 c 0.633,0.147 0.583,-0.507 1.071,-0.833 0,0 0.442,1.537 0.322,1.784 C 1.273,1.2 0.311,1.544 -0.425,1.479 -1.161,1.412 -2.787,0.96 -3.423,0.816 -4.06,0.671 -3.511,-0.169 -3.014,-0.468 -2.517,-0.768 -1.18,-0.279 0,0"
                 style="fill:#231f20;fill-opacity:1;fill-rule:nonzero;stroke:none"
                 id="path3109" /></g><g
               id="g3111"
               transform="translate(151.2444,80.0473)"><path
                 inkscape:connector-curvature="0"
                 d="M 0,0 C 0.806,-0.338 2.882,1.601 3.438,1.257 3.992,0.915 4.354,-0.174 5.56,-0.259 6.762,-0.345 5.835,1.456 5.28,2.315 c 0,0 -2.779,0.343 -3.429,0.343 -0.646,0 -1.402,-0.891 -3.425,-1.287 -1.216,-0.238 -1.211,-1.922 -1.211,-1.922 0,0 1.057,1.267 2.785,0.551"
                 style="fill:#231f20;fill-opacity:1;fill-rule:nonzero;stroke:none"
                 id="path3113" /></g><g
               id="g3115"
               transform="translate(151.8691,79.2886)"><path
                 inkscape:connector-curvature="0"
                 d="m 0,0 c -0.738,0.065 -1.698,-0.282 -1.817,-0.528 -0.119,-0.248 0.356,-1.786 0.356,-1.786 0.37,0.471 0.461,1.011 1.034,0.831 1.16,-0.36 2.518,-0.766 3.016,-0.464 0.498,0.297 1.044,1.137 0.409,1.282 C 2.364,-0.519 0.736,-0.067 0,0"
                 style="fill:#231f20;fill-opacity:1;fill-rule:nonzero;stroke:none"
                 id="path3117" /></g><g
               id="g3119"
               transform="translate(147.853,65.8545)"><path
                 inkscape:connector-curvature="0"
                 d="m 0,0 c -1.292,0.031 -2.627,0.051 -3.249,0.025 0,0 1.011,-1.069 3.247,-1.131 l 0.002,0 C 2.235,-1.044 3.248,0.025 3.248,0.025 2.624,0.051 1.289,0.031 0,0"
                 style="fill:#231f20;fill-opacity:1;fill-rule:nonzero;stroke:none"
                 id="path3121" /></g><g
               id="g3123"
               transform="translate(143.7762,71.7601)"><path
                 inkscape:connector-curvature="0"
                 d="m 0,0 c -0.902,-0.452 -1.746,-0.583 -2.701,-0.37 -0.869,0.199 -1.084,1.004 -1.084,1.004 0,0 0.044,-4.133 0.602,-3.068 0.508,0.976 0.419,1.174 1.061,1.046 0.009,-0.042 0.028,-0.097 0.071,-0.169 0.237,-0.415 0.662,-1.196 0.868,-1.573 0.414,-0.743 3.404,-1.399 4.599,-1.321 -0.491,0.813 -3.1,0.521 -4.266,2.509 l -0.013,0.014 c 0.575,-0.329 1.127,-0.692 1.586,-0.758 1.574,-0.221 3.355,0.782 3.355,0.782 l 0.024,-0.024 0.024,0.024 c 0,0 1.78,-1.003 3.356,-0.782 0.46,0.066 1.005,0.429 1.588,0.758 L 9.054,-1.942 C 7.887,-3.93 5.279,-3.638 4.79,-4.451 c 1.194,-0.078 4.183,0.578 4.596,1.321 0.208,0.377 0.631,1.158 0.872,1.573 0.039,0.072 0.058,0.127 0.066,0.169 0.642,0.128 0.555,-0.07 1.064,-1.046 0.558,-1.065 0.6,3.068 0.6,3.068 0,0 -0.214,-0.805 -1.081,-1.004 C 9.949,-0.583 9.105,-0.452 8.205,0 7.307,0.449 7.34,0.739 7.157,0.978 6.042,0.978 5.276,-0.615 4.102,-0.615 3.022,-0.615 2.067,0.978 1.048,0.978 0.864,0.739 0.898,0.449 0,0"
                 style="fill:#231f20;fill-opacity:1;fill-rule:nonzero;stroke:none"
                 id="path3125" /></g><g
               id="g3127"
               transform="translate(144.8111,52.4524)"><path
                 inkscape:connector-curvature="0"
                 d="m 0,0 -0.81,0 -0.334,-1.57 0.811,0 c 0.948,0 1.341,0.243 1.456,0.785 C 1.239,-0.244 0.948,0 0,0"
                 style="fill:#ffffff;fill-opacity:1;fill-rule:nonzero;stroke:none"
                 id="path3129" /></g><g
               id="g3131"
               transform="translate(145.3516,55.0327)"><path
                 inkscape:connector-curvature="0"
                 d="m 0,0 -0.803,0 -0.303,-1.426 0.811,0 c 0.795,0 1.105,0.281 1.198,0.714 C 0.998,-0.252 0.856,0 0,0"
                 style="fill:#ffffff;fill-opacity:1;fill-rule:nonzero;stroke:none"
                 id="path3133" /></g><g
               id="g3135"
               transform="translate(153.8778,54.9356)"><path
                 inkscape:connector-curvature="0"
                 d="m 0,0 c -0.902,0 -1.693,-0.614 -1.976,-1.95 -0.285,-1.336 0.245,-1.95 1.148,-1.95 0.903,0 1.691,0.614 1.975,1.95 C 1.431,-0.614 0.903,0 0,0"
                 style="fill:#ffffff;fill-opacity:1;fill-rule:nonzero;stroke:none"
                 id="path3137" /></g><g
               id="g3139"
               transform="translate(123.1214,54.8713)"><path
                 inkscape:connector-curvature="0"
                 d="m 0,0 -0.831,0 -0.355,-1.678 0.558,0 c 0.974,0 1.372,0.217 1.51,0.857 C 0.996,-0.281 0.784,0 0,0"
                 style="fill:#ffffff;fill-opacity:1;fill-rule:nonzero;stroke:none"
                 id="path3141" /></g><g
               id="g3143"
               transform="translate(137.592,54.8713)"><path
                 inkscape:connector-curvature="0"
                 d="m 0,0 -0.831,0 -0.355,-1.678 0.558,0 c 0.974,0 1.371,0.217 1.509,0.857 C 0.996,-0.281 0.785,0 0,0"
                 style="fill:#ffffff;fill-opacity:1;fill-rule:nonzero;stroke:none"
                 id="path3145" /></g><g
               id="g3151"
               transform="translate(146.2545,54.3208)"><path
                 inkscape:connector-curvature="0"
                 d="m 0,0 c -0.093,-0.434 -0.403,-0.714 -1.197,-0.714 l -0.811,0 0.302,1.426 0.803,0 C -0.047,0.712 0.096,0.46 0,0 m -0.32,-2.654 c -0.115,-0.541 -0.509,-0.784 -1.456,-0.784 l -0.811,0 0.333,1.57 0.811,0 c 0.948,0 1.238,-0.245 1.123,-0.786 m 0.782,4.575 -4.654,0.002 -1.385,-6.518 4.8,0 c 1.309,0 2.763,0.164 3.085,1.681 0.191,0.904 -0.287,1.367 -0.957,1.539 -0.159,0.039 -0.327,0.066 -0.501,0.074 0.208,0.065 0.381,0.122 0.441,0.143 0.698,0.237 1.248,0.647 1.405,1.384 0.17,1.083 -0.447,1.697 -2.234,1.695"
                 style="fill:#e51636;fill-opacity:1;fill-rule:nonzero;stroke:none"
                 id="path3153" /></g><g
               id="g3155"
               transform="translate(155.0251,52.9852)"><path
                 inkscape:connector-curvature="0"
                 d="m 0,0 c -0.285,-1.335 -1.073,-1.949 -1.975,-1.949 -0.903,0 -1.433,0.614 -1.149,1.949 0.284,1.337 1.075,1.95 1.977,1.95 C -0.244,1.95 0.284,1.337 0,0 M -0.832,3.431 C -2.511,3.431 -3.375,3.15 -4.089,2.709 -4.952,2.176 -5.649,1.265 -5.918,0 c -0.414,-1.949 0.444,-3.43 3.627,-3.43 1.679,0 2.904,0.452 3.752,1.129 0.651,0.513 1.124,1.3 1.337,2.301 0.414,1.95 -0.445,3.431 -3.63,3.431"
                 style="fill:#e51636;fill-opacity:1;fill-rule:nonzero;stroke:none"
                 id="path3157" /></g><g
               id="g3159"
               transform="translate(163.8548,56.2434)"><path
                 inkscape:connector-curvature="0"
                 d="M 0,0 -2.006,-2.69 -2.79,0 l -3.418,0 2.223,-4.567 -0.414,-1.95 2.742,0 0.416,1.95 L 2.924,0 0,0 z"
                 style="fill:#e51636;fill-opacity:1;fill-rule:nonzero;stroke:none"
                 id="path3161" /></g><g
               id="g3163"
               transform="translate(124.0029,54.0507)"><path
                 inkscape:connector-curvature="0"
                 d="m 0,0 c -0.137,-0.641 -0.535,-0.858 -1.509,-0.858 l -0.559,0 0.355,1.679 0.831,0 C -0.097,0.821 0.115,0.54 0,0 m 0.484,2.193 -4.647,0 -1.387,-6.518 2.745,0 0.444,2.094 2.148,0 c 1.372,0 2.55,0.569 2.887,2.159 0.361,1.695 -0.619,2.265 -2.19,2.265"
                 style="fill:#e51636;fill-opacity:1;fill-rule:nonzero;stroke:none"
                 id="path3165" /></g><g
               id="g3167"
               transform="translate(138.473,54.0507)"><path
                 inkscape:connector-curvature="0"
                 d="m 0,0 c -0.137,-0.641 -0.535,-0.858 -1.509,-0.858 l -0.558,0 0.355,1.679 0.831,0 C -0.096,0.821 0.115,0.54 0,0 m 0.484,2.193 -4.648,0 -1.385,-6.518 2.744,0 0.444,2.094 2.15,0 c 1.37,0 2.547,0.569 2.886,2.159 0.361,1.695 -0.619,2.265 -2.191,2.265"
                 style="fill:#e51636;fill-opacity:1;fill-rule:nonzero;stroke:none"
                 id="path3169" /></g><g
               id="g3171"
               transform="translate(173.728,54.3031)"><path
                 inkscape:connector-curvature="0"
                 d="m 0,0 c 0.125,0.672 0.017,1.2 -0.467,1.561 -0.484,0.359 -1.346,0.552 -2.731,0.552 -1.304,0 -2.318,-0.161 -3.043,-0.5 -0.725,-0.339 -1.163,-0.854 -1.313,-1.568 -0.08,-0.37 -0.07,-0.83 0.218,-1.137 0.711,-0.767 3.761,-1.075 4.043,-1.49 0.055,-0.081 0.08,-0.18 0.054,-0.298 -0.112,-0.523 -0.753,-0.659 -1.322,-0.659 -0.362,0 -0.586,0.091 -0.731,0.262 -0.135,0.171 -0.153,0.434 -0.083,0.794 l -2.8,0 c -0.099,-0.605 -0.163,-1.171 0.241,-1.585 0.402,-0.415 1.275,-0.68 3.044,-0.68 1.484,0 2.555,0.207 3.289,0.578 0.733,0.367 1.131,0.897 1.267,1.543 0.136,0.632 -0.05,0.985 -0.256,1.21 -0.702,0.776 -3.655,1.065 -3.993,1.471 -0.065,0.072 -0.075,0.198 -0.054,0.298 0.07,0.334 0.424,0.551 1,0.551 0.344,0 0.606,-0.045 0.766,-0.181 C -2.7,0.586 -2.631,0.36 -2.691,0 L 0,0 z"
                 style="fill:#e51636;fill-opacity:1;fill-rule:nonzero;stroke:none"
                 id="path3173" /></g><g
               id="g3175"
               transform="translate(132.7753,52.2995)"><path
                 inkscape:connector-curvature="0"
                 d="m 0,0 0.291,1.371 -3.368,0 0.255,1.201 3.61,0 0.291,1.372 -6.262,0 -1.386,-6.517 6.248,0 0.291,1.372 -3.592,0 L -3.368,0 0,0 z"
                 style="fill:#e51636;fill-opacity:1;fill-rule:nonzero;stroke:none"
                 id="path3177" /></g><g
               id="g3179"
               transform="translate(108.8466,51.4648)"><path
                 inkscape:connector-curvature="0"
                 d="M 0,0 8.57,0 8.809,1.126 0.24,1.126 0,0 z"
                 style="fill:#2a3c9a;fill-opacity:1;fill-rule:nonzero;stroke:none"
                 id="path3181" /></g><g
               id="g3183"
               transform="translate(109.2454,53.336)"><path
                 inkscape:connector-curvature="0"
                 d="m 0,0 8.569,0 0.24,1.128 -8.569,0 L 0,0 z"
                 style="fill:#2a3c9a;fill-opacity:1;fill-rule:nonzero;stroke:none"
                 id="path3185" /></g><g
               id="g3187"
               transform="translate(174.7969,51.4648)"><path
                 inkscape:connector-curvature="0"
                 d="m 0,0 8.532,0 0.239,1.126 -8.756,0 C 0.047,0.961 0.064,0.789 0.064,0.616 0.064,0.413 0.039,0.207 0,0"
                 style="fill:#2a3c9a;fill-opacity:1;fill-rule:nonzero;stroke:none"
                 id="path3189" /></g><g
               id="g3191"
               transform="translate(174.9924,53.336)"><path
                 inkscape:connector-curvature="0"
                 d="m 0,0 8.734,0 0.24,1.128 -8.787,0 C 0.174,0.985 0.157,0.844 0.131,0.708 L 0,0 z"
                 style="fill:#2a3c9a;fill-opacity:1;fill-rule:nonzero;stroke:none"
                 id="path3193" /></g><g
               id="g3195"
               transform="translate(174.1886,53.8408)"><path
                 inkscape:connector-curvature="0"
                 d="M 0,0 -0.003,0.004 C -0.001,0.002 0,0 0.001,-0.001 0.002,-0.002 0.003,-0.002 0.003,-0.003 L 0,0 z"
                 style="fill:#2a3c9a;fill-opacity:1;fill-rule:nonzero;stroke:none"
                 id="path3197" /></g><g
               id="g3199"
               transform="translate(164.7747,49.2456)"><path
                 inkscape:connector-curvature="0"
                 d="M 0,0 0,0"
                 style="fill:none;stroke:none"
                 id="path3201" /></g></g></g></g></g></g></svg>