<?xml version="1.0" encoding="UTF-8" standalone="no"?>
<!-- Created with Inkscape (http://www.inkscape.org/) -->

<svg
   xmlns:dc="http://purl.org/dc/elements/1.1/"
   xmlns:cc="http://creativecommons.org/ns#"
   xmlns:rdf="http://www.w3.org/1999/02/22-rdf-syntax-ns#"
   xmlns:svg="http://www.w3.org/2000/svg"
   xmlns="http://www.w3.org/2000/svg"
   xmlns:xlink="http://www.w3.org/1999/xlink"
   xmlns:sodipodi="http://sodipodi.sourceforge.net/DTD/sodipodi-0.dtd"
   xmlns:inkscape="http://www.inkscape.org/namespaces/inkscape"
   width="793"
   height="183"
   id="svg2"
   version="1.1"
   inkscape:version="0.47 r22583">
  <g
     inkscape:label="Layer 1"
     inkscape:groupmode="layer"
     id="layer1"
     transform="translate(-117.56132,-510.68004)">
    <path
       id="path2927"
       d="m 321.07798,629.72071 18.3486,0 c 7.15334,0 9.87956,2.45952 9.87956,8.51053 0,5.8258 -2.72622,8.29124 -9.87956,8.29124 l -18.3486,0 0,-16.80177 z m -28.43558,61.162 28.43558,0 0,-24.86781 30.44469,0 c 20.16212,0 27.42214,-11.8768 27.42214,-27.22064 0,-17.81521 -7.46152,-27.89627 -27.62365,-27.89627 l -58.67876,0 0,79.98472"
       style="fill:#3a5599;fill-rule:nonzero;stroke:none" />
    <path
       id="path2929"
       d="m 388.32061,610.89799 76.52361,0 0,19.49242 -48.09395,0 0,10.75669 44.66248,0 0,19.4865 -44.66248,0 0,10.75668 48.09395,0 0,19.49243 -76.52361,0 0,-79.98472"
       style="fill:#3a5599;fill-rule:nonzero;stroke:none" />
    <path
       id="path2931"
       d="m 505.16846,629.72071 18.3486,0 c 7.15927,0 9.88549,2.45952 9.88549,8.51053 0,5.8258 -2.72622,8.29124 -9.88549,8.29124 l -18.3486,0 0,-16.80177 z m -28.42965,61.162 28.42965,0 0,-24.86781 30.45062,0 c 20.16212,0 27.42214,-11.8768 27.42214,-27.22064 0,-17.81521 -7.46152,-27.89627 -27.62365,-27.89627 l -58.67876,0 0,79.98472"
       style="fill:#3a5599;fill-rule:nonzero;stroke:none" />
    <path
       id="path2933"
       d="m 590.56412,656.94136 c -13.91554,-2.35284 -19.66429,-11.31379 -19.66429,-22.52089 0,-20.71922 18.25377,-26.31981 41.63993,-26.31981 32.06264,0 45.27292,9.29283 46.28043,26.21313 l -33.07015,0 c 0,-3.25368 -1.71277,-5.2687 -4.33823,-6.38882 -2.51879,-1.23272 -5.74283,-1.67721 -8.87205,-1.67721 -8.46311,0 -11.39082,2.35284 -11.39082,5.71319 0,2.24024 0.90676,3.69224 3.73372,4.14266 l 33.97098,5.60059 c 14.31855,2.35284 23.19059,9.74917 23.19059,23.30319 0,19.4865 -14.31854,28.67265 -46.2745,28.67265 -21.88082,0 -45.77074,-3.36036 -45.87149,-26.88283 l 34.27916,0 c 0.0948,2.69065 1.00159,4.48047 3.02254,5.71319 2.11578,1.12012 5.23907,1.67722 9.67806,1.67722 8.87204,0 11.29008,-2.68473 11.29008,-6.4955 0,-2.35284 -1.30977,-4.70568 -5.13832,-5.37538 l -32.46564,-5.37538"
       style="fill:#3a5599;fill-rule:nonzero;stroke:none" />
    <path
       id="path2935"
       d="m 671.31928,610.89799 28.42966,0 0,79.98472 -28.42966,0 z"
       style="fill:#3a5599;fill-rule:nonzero;stroke:none" />
    <path
       id="path2937"
       d="m 805.10521,659.73869 c -1.81352,10.53148 -5.03756,19.04793 -12.09608,24.8678 -6.95777,5.8258 -17.84485,9.07355 -35.18593,9.07355 -17.24033,0 -49.20221,-1.3394 -49.20221,-42.78969 0,-41.45029 31.96188,-42.78969 49.20221,-42.78969 17.13958,0 43.55421,2.45952 47.28201,34.16656 l -32.06263,0 c -0.80601,-5.71319 -4.23156,-14.00444 -15.21938,-14.00444 -11.59826,0 -18.9531,6.3829 -18.9531,22.62757 0,16.24467 7.15334,22.62757 17.53666,22.62757 8.97872,0 14.31854,-4.14266 16.63582,-13.77923 l 32.06263,0"
       style="fill:#3a5599;fill-rule:nonzero;stroke:none" />
    <path
       id="path2939"
       d="m 842.30617,650.89035 c 0,-16.24467 7.36077,-22.62757 18.9531,-22.62757 11.59826,0 18.95903,6.3829 18.95903,22.62757 0,16.24467 -7.36077,22.62757 -18.95903,22.62757 -11.59233,0 -18.9531,-6.3829 -18.9531,-22.62757 z m -30.24319,0 c 0,41.45029 31.96188,42.78969 49.19629,42.78969 17.24033,0 49.20222,-1.3394 49.20222,-42.78969 0,-41.45029 -31.96189,-42.78969 -49.20222,-42.78969 -17.23441,0 -49.19629,1.3394 -49.19629,42.78969"
       style="fill:#3a5599;fill-rule:nonzero;stroke:none" />
    <path
       id="path2941"
       d="m 249.68084,611.69215 c 1.84315,-38.37441 -31.2744,-81.58488 -76.41693,-86.9247 l 0.077,-0.52747 c 44.50246,0 78.62161,41.17767 78.62161,73.66109 -0.0474,6.75627 -0.5808,10.94634 -1.53498,13.98666 l -0.74674,-0.19558 z m -2.69658,4.87755 c -2.95735,3.6152 -6.67922,7.26002 -11.04709,10.7152 -8.02455,-46.13226 -41.94812,-86.47428 -65.92694,-98.25034 l -0.50968,0.36152 c 24.11513,19.78283 52.8826,58.19872 64.07193,99.70235 -5.35168,3.93523 -11.539,7.56227 -18.37231,10.5137 -22.76387,-25.94051 -43.98092,-75.96652 -50.82016,-107.70912 l -0.69933,0.20743 c 0.16001,30.81213 22.04676,83.12579 48.74587,108.64551 -5.93248,2.33506 -12.29759,4.16044 -18.98867,5.245 -25.59084,-10.12848 -43.80313,-42.58226 -43.80313,-75.81835 0,-21.70303 6.61996,-35.12074 7.90009,-37.87065 l -0.54524,-0.21336 c -1.55275,2.33506 -11.24859,15.75277 -11.24859,39.18042 0,37.57432 18.54417,66.28846 43.15714,75.3383 -8.42163,0.91861 -17.28775,0.64006 -26.37315,-1.24458 l -0.1778,0.5808 c 2.62546,0.96603 11.5627,4.71161 25.18784,4.71161 30.82398,0 51.66173,-19.14275 60.05373,-33.68651 l -0.60451,-0.40893"
       style="fill:#3a5599;fill-rule:nonzero;stroke:none" />
    <path
       id="path2943"
       d="m 184.45323,510.68004 c -23.36838,0 -50.76682,16.85511 -50.76682,32.25821 0,5.96211 5.45242,11.0056 16.7425,11.0056 26.2072,0 50.5594,-18.00486 50.5594,-31.99151 0,-7.3667 -7.0763,-11.2723 -16.53508,-11.2723 z m 9.32839,10.83373 c 0,11.79384 -22.66312,26.21313 -41.6103,26.21313 -8.36829,0 -12.89617,-3.28923 -12.89617,-8.72388 0,-11.9657 22.92389,-26.13608 40.69761,-26.13608 11.58641,0 13.80886,5.88506 13.80886,8.64683"
       style="fill:#009ed6;fill-rule:nonzero;stroke:none" />
    <path
       id="path2945"
       d="m 124.3758,550.07381 c -0.65785,1.1379 -3.28331,6.28215 -3.28331,11.55678 0,9.78473 9.88549,18.8642 28.07407,18.8642 34.99627,0 75.42719,-25.739 75.42719,-49.63485 0,-10.72113 -10.16403,-16.55878 -17.21662,-17.76187 l -0.13039,0.41486 c 2.19283,0.69933 10.22923,4.42713 10.22923,13.98666 0,19.03607 -35.69561,44.97658 -71.25491,44.97658 -13.60736,0 -22.189,-6.71478 -22.189,-16.49951 0,-3.08773 0.64599,-5.12647 0.81786,-5.71912 l -0.47412,-0.18373"
       style="fill:#ea8c40;fill-rule:nonzero;stroke:none" />
    <path
       id="path2947"
       d="m 239.01898,532.64976 c 0.95417,0.72896 6.7207,5.52354 6.7207,14.60302 0,30.96029 -48.53251,61.39312 -91.42888,61.39312 -25.59084,0 -37.25429,-12.62355 -36.73275,-23.83065 l 0.45634,0 c 1.00159,5.81394 9.31061,16.23282 31.70112,16.23282 42.95563,0 90.91919,-31.49369 90.91919,-59.0877 0,-4.73532 -1.28606,-7.68081 -2.01502,-8.99058 l 0.3793,-0.32003"
       style="fill:#009c5e;fill-rule:nonzero;stroke:none" />
    <path
       id="path2949"
       d="m 255.23994,561.54761 c 0.2015,0.65192 1.24458,3.62113 1.24458,8.26161 0,34.43326 -49.11332,63.90599 -91.82596,63.90599 -21.98158,0 -33.4613,-10.66779 -35.88526,-15.0001 l 0.39115,-0.2904 c 6.08064,5.31612 18.0582,9.34617 32.04486,9.34617 37.72248,0 94.01285,-28.67265 93.5091,-66.10473 l 0.52153,-0.11854"
       style="fill:#e02b35;fill-rule:nonzero;stroke:none" />
  </g>
</svg>
