<?xml version="1.0" encoding="UTF-8" standalone="no"?>
<!-- Created with Inkscape (http://www.inkscape.org/) -->

<svg
   xmlns:dc="http://purl.org/dc/elements/1.1/"
   xmlns:cc="http://creativecommons.org/ns#"
   xmlns:rdf="http://www.w3.org/1999/02/22-rdf-syntax-ns#"
   xmlns:svg="http://www.w3.org/2000/svg"
   xmlns="http://www.w3.org/2000/svg"
   xmlns:xlink="http://www.w3.org/1999/xlink"
   xmlns:sodipodi="http://sodipodi.sourceforge.net/DTD/sodipodi-0.dtd"
   xmlns:inkscape="http://www.inkscape.org/namespaces/inkscape"
   width="534"
   height="168"
   id="svg2"
   version="1.1"
   inkscape:version="0.47 r22583">
  <g
     inkscape:label="Layer 1"
     inkscape:groupmode="layer"
     id="layer1"
     transform="translate(-542.58888,-20.869183)">
    <path
       style="fill:#2f9dd8;fill-rule:nonzero;stroke:none"
       d="m 865.37052,76.3526 4.66956,6.872393 5.84369,5.967564 6.61926,4.642635 7.57255,2.935309 8.12731,1.680397 8.03036,-0.350083 7.79876,-1.782729 7.37328,-3.511598 6.72159,-4.739582 5.29433,-6.069895 3.68395,-5.644411 -71.73464,0"
       id="path4034" />
    <path
       style="fill:#df0024;fill-rule:nonzero;stroke:none"
       d="m 936.75507,44.247323 -4.56184,-7.0986 -5.71982,-6.193771 -6.82392,-4.540303 -7.57255,-3.387724 -7.70182,-1.378787 -8.55279,0.350083 -7.9011,1.858131 -7.47561,3.613931 -6.16684,5.364344 -5.71982,6.172227 -2.83297,5.240469 71.02908,0"
       id="path4036" />
    <path
       style="fill:#acacac;fill-rule:nonzero;stroke:none"
       d="m 543.44523,108.23167 0,0.50089 0.0969,0.57629 0,3.587 0.10233,1.52959 0,3.88861 0.19928,2.13281 0,4.84192 0.10233,2.60677 0,27.76425 -0.10233,3.29078 0,3.38233 -0.19928,3.38773 0,3.31232 -0.10233,3.38234 -0.0969,3.29077 -0.17773,3.28001 -0.30161,3.11304 -0.30161,3.18306 -0.0754,2.98917 15.67831,0 0,-0.28007 -0.19927,-0.47396 0,-1.35724 -0.10233,-0.8779 0,-2.33209 -0.19928,-1.35186 0,-1.45419 -0.0754,-1.73425 0,-3.95863 -0.19927,-2.13281 0,-22.64766 0.19927,-3.59239 0,-3.65701 0.0754,-3.88862 0.19928,-3.6624 0.10233,-4.08789 0.19927,-4.23869 0.17235,-4.36796 0.20467,-4.5403 0.30161,-4.56185 0.27468,-4.84191 -15.77527,0"
       id="path4038" />
    <path
       style="fill:#acacac;fill-rule:nonzero;stroke:none"
       d="m 555.93511,108.23167 51.09053,0 1.55652,0.10233 2.13281,0.0969 2.42904,0.30161 2.7091,0.57629 2.98916,0.8779 3.00533,1.15258 2.98917,1.45957 2.80605,1.8312 2.63369,2.42904 2.4075,2.7845 1.8312,3.31233 1.45419,3.96401 0.67862,4.5403 0.19928,5.24047 0,0.27468 -0.19928,0.98023 0,1.25491 -0.27468,1.72887 -0.40394,2.13282 -0.77557,2.22975 -0.77557,2.4075 -1.15796,2.63908 -1.55114,2.50444 -1.93353,2.60677 -2.40749,2.13281 -2.70911,2.13281 -3.20999,1.72887 -3.86168,1.35725 -4.44335,0.87789 -5.13814,0.30161 -50.61657,0 0,-11.91358 49.93795,0 1.25491,-0.19928 1.45419,-0.28006 1.45419,-0.39856 1.55652,-0.57629 1.45419,-0.78095 1.52959,-1.05025 1.25491,-1.35724 1.27646,-1.55653 1.15796,-1.92814 0.67324,-2.43443 0.57629,-2.7091 0.20466,-3.18306 0,-0.57629 -0.20466,-0.8779 -0.0969,-0.85635 -0.27468,-1.27646 -0.30161,-1.25491 -0.57629,-1.45419 -0.67862,-1.52959 -0.8779,-1.45419 -1.15258,-1.35724 -1.45419,-1.45419 -1.55652,-1.17951 -1.93353,-0.95331 -2.40749,-0.8779 -2.6337,-0.37701 -2.98378,-0.19928 -46.35096,0 -1.75579,-11.91358"
       id="path4040" />
    <path
       style="fill:#acacac;fill-rule:nonzero;stroke:none"
       d="m 645.65322,109.30885 0,1.8312 0.10234,0.78095 0,0.8779 0.19927,0.95331 0,3.68394 0.0754,1.45419 0,3.08612 0.19927,1.85813 0,25.73377 -0.19927,2.7091 0,2.90838 -0.0754,2.98378 0,3.01071 -0.19927,3.18845 -0.10234,3.10766 16.15228,0 0,-0.30161 -0.0754,-0.10234 0,-0.47395 -0.19928,-0.37702 0,-0.57629 -0.10233,-0.78095 0,-0.77557 -0.0969,-0.8779 -0.20466,-1.15258 -0.0754,-1.17951 -0.19928,-1.25491 -0.10233,-1.25491 0,-1.55114 -0.19928,-1.73425 -0.097,-1.72887 0,-1.65347 -0.17773,-2.03048 0,-2.13281 -0.10233,-2.13281 0,-12.66761 0.10233,-3.01071 0,-3.01071 0.17773,-3.28539 0.097,-3.2854 0.19928,-3.38772 0.10233,-3.58161 0.27468,-3.86707 -15.47366,0"
       id="path4042" />
    <path
       style="fill:#acacac;fill-rule:nonzero;stroke:none"
       d="m 645.65322,109.30885 0.98024,0 0.85097,0.20466 4.84191,0 1.7558,0.07 1.8312,0 1.92815,0.20466 11.81664,0 2.60677,0.097 11.51502,0 3.00533,-0.097 9.38222,0 3.11304,-0.20466 3.18306,-0.07 3.11304,0 3.08073,-0.20466 3.18845,0 3.10765,-0.097 2.98378,-0.20466 0,12.39293 -1.72887,0 -0.98023,-0.10234 -3.95862,0 -1.73426,-0.17234 -1.85275,0 -2.03586,-0.10234 -6.66773,0 -2.40749,-0.19927 -19.16299,0 -2.91377,0.19927 -2.80604,0 -3.01072,0.10234 -2.80604,0 -2.98917,0.17234 -2.90838,0.10234 -2.80605,0.19927 -2.91376,0.27468 -2.60677,0.10234 -2.7091,0.30161 -3.2854,-12.96922"
       id="path4044" />
    <path
       style="fill:#acacac;fill-rule:nonzero;stroke:none"
       d="m 649.61724,132.83979 4.16329,0 1.25491,0.0754 9.98005,0 2.13281,0.19928 6.77006,0 2.61216,-0.19928 10.55634,0 2.7091,-0.0754 2.7845,0 3.01072,-0.10233 2.81143,0 3.00532,-0.19928 2.98917,0 3.20999,-0.10233 2.88145,-0.19928 3.01071,-0.10233 0,12.69454 -0.30161,0 -0.47395,-0.10233 -2.61216,0 -1.15258,-0.19928 -1.35186,0 -1.45419,-0.0754 -3.587,0 -1.8312,-0.19928 -1.85813,-0.10233 -4.43797,0 -2.23515,-0.19928 -20.71412,0 -2.81144,0.19928 -2.7091,0 -2.80604,0.30161 -2.70911,0 -2.7091,0.0754 -2.7091,0.30161 -2.7091,0.19928 -2.7091,0.10233 0,-12.2906"
       id="path4046" />
    <path
       style="fill:#acacac;fill-rule:nonzero;stroke:none"
       d="m 645.65322,155.46052 3.78628,0 1.43265,0.19928 6.96934,0 2.13281,0.10233 32.90777,0 3.2854,-0.10233 3.11304,0 3.18306,-0.19928 3.11304,0 3.08073,-0.0754 3.18845,-0.19928 3.10765,-0.10233 2.98378,-0.19928 0,12.69454 -1.52959,0 -0.8779,-0.10233 -6.87239,0 -1.8312,-0.19928 -8.62819,0 -2.60677,-0.10233 -36.2955,0 -3.38234,0.10233 -6.87239,0 -3.38773,0.19928 0,-12.01592"
       id="path4048" />
    <path
       style="fill:#acacac;fill-rule:nonzero;stroke:none"
       d="m 728.29967,109.30885 0,1.15258 0.19928,0.8779 0,3.38772 0.10233,1.45419 0,3.587 0.19928,1.8312 0,6.29611 0.0754,2.20821 0,19.16299 -0.0754,2.22976 0,4.56723 -0.19928,2.30516 -0.10233,1.93353 -0.19928,2.03048 0,1.85813 -0.27468,1.72887 -0.10233,1.55653 15.19898,0 0,-0.19928 -0.10234,-0.20467 0,-1.05024 -0.19927,-0.57629 0,-0.67863 -0.0969,-0.67862 0,-1.8312 -0.20466,-1.17951 0,-1.15258 -0.0754,-1.45419 0,-1.35724 -0.0969,-1.65347 0,-1.8312 -0.19928,-1.8312 0,-4.16329 -0.10233,-2.22976 0,-7.8257 -0.19928,-2.7091 0,-9.8831 0.19928,-3.68934 0,-7.72336 0.10233,-4.26562 -13.84712,0"
       id="path4050" />
    <path
       style="fill:#acacac;fill-rule:nonzero;stroke:none"
       d="m 780.46738,120.72154 -39.87711,0 -1.45419,-11.41269 43.84113,0 1.45419,-0.097 1.75579,0 1.93354,0.097 2.40749,0.20466 2.33209,0.57629 2.50982,0.67324 2.60677,0.9533 2.43442,1.35724 2.22976,1.65347 2.13281,2.33209 1.70733,2.7091 1.24953,3.08612 0.8779,3.68933 0.30161,4.43797 0,1.15258 -0.19928,0.98023 -0.10233,1.25491 -0.29623,1.45419 -0.37701,1.7558 -0.47934,1.72887 -0.8779,1.8312 -0.74864,1.85814 -1.35725,1.72887 -1.35185,1.65346 -1.83121,1.45419 -2.23514,1.25492 -2.43442,0.9533 -2.77912,0.58167 -3.11304,0.19928 -49.16239,0 0,-10.93874 45.57539,0 1.25491,-0.27468 1.55652,-0.77557 1.55114,-1.08256 1.35724,-1.62654 0.8779,-2.33747 0.37701,-3.28539 0,-2.12743 -0.27468,-0.78095 -0.30161,-0.8779 -0.37701,-1.05025 -0.78095,-0.78095 -0.8779,-0.8779 -0.97485,-0.85097 -1.43265,-0.67863 -1.55113,-0.77556 -1.93354,-0.57629 -2.43442,-0.30161 -2.7091,-0.10234"
       id="path4052" />
    <path
       style="fill:#acacac;fill-rule:nonzero;stroke:none"
       d="m 894.26581,109.30885 0,26.51472 -0.0969,2.33209 0,7.24941 -0.20466,2.50444 0,9.8831 -0.27468,2.50982 0,2.43442 -0.0969,2.4075 0,2.33209 15.19897,0 0,-4.26563 -0.10233,-1.15258 0,-32.22915 0.10233,-3.11304 0,-6.57079 0.17235,-3.38772 0,-3.58161 0.10233,-3.86707 -14.80041,0"
       id="path4054" />
    <path
       style="fill:#acacac;fill-rule:nonzero;stroke:none"
       d="m 882.83157,107.75771 -0.0754,0 -0.20466,0.19928 -0.97485,0 -0.27468,0.0969 -1.25491,0 -0.60322,0.17773 -0.85097,0.10233 -0.98023,0 -0.9533,0.0969 -2.43442,0 -1.45419,0.20466 -1.55652,0 -1.42726,0.097 -2.13282,0 -1.85813,0.17773 -4.5403,0 -2.40749,0.0969 -5.61748,0 -3.00533,0.20466 -18.38742,0 -0.57629,0.097 -0.78095,0.20466 -1.05025,0.37163 -1.17951,0.30161 -1.45419,0.57629 -1.52959,0.67862 -1.45419,0.85636 -1.65886,1.17412 -1.55113,1.25491 -1.43265,1.45419 -1.27645,1.73426 -1.05564,1.92814 -0.77557,2.13282 -0.37701,2.7091 -0.40394,2.90838 0,1.55652 0.30161,0.9533 0.10233,1.27646 0.17235,1.45957 0.40394,1.52959 0.57629,1.35186 0.8779,1.55652 1.15258,1.55652 1.25491,1.45419 1.7558,1.15258 1.93354,1.15258 2.40749,0.78096 2.7091,0.47396 3.20999,0.30161 31.8306,0 1.05024,0.30161 1.45419,0.37701 1.55653,0.67323 1.15258,1.35725 0.8779,1.92815 0.30161,2.61215 0,0.0969 -0.19928,0.50627 -0.30161,0.67324 -0.37701,0.85635 -0.8779,0.8779 -1.25492,0.47396 -1.72887,0.57629 -2.43442,0.19928 -3.6624,0 -1.55114,0.10233 -36.69944,0 -2.40749,-0.10233 -6.67311,0 -1.85275,-0.19928 -1.63192,0 -1.35186,-0.0754 -1.23337,-0.19928 -1.07718,0 -0.57629,-0.10233 -0.37701,-0.19928 0,12.96922 0.37701,0 0.30161,-0.10233 5.56901,0 1.35186,-0.17235 11.43963,0 2.60676,-0.10233 42.48927,0 1.25492,-0.19928 1.45419,-0.20467 1.55652,-0.27468 1.72887,-0.47395 1.65885,-0.67863 1.72887,-0.8779 1.8312,-1.25491 1.55652,-1.45419 1.45419,-1.7558 1.24953,-2.13281 0.88328,-2.50982 0.57629,-2.90838 0.30161,-3.18306 0,-2.7091 -0.20466,-1.35725 -0.39855,-1.35185 -0.57629,-1.55653 -0.58168,-1.63192 -1.15258,-1.35186 -1.24953,-1.65347 -1.65885,-1.35724 -2.22976,-1.25491 -2.40749,-0.97485 -2.91376,-0.85635 -3.48467,-0.59784 -4.06096,-0.0754 -28.07125,0 -0.8779,-0.10233 -1.15258,-0.19928 -1.05025,-0.40394 -1.35724,-0.75402 -1.07718,-0.97485 -0.78095,-1.55652 -0.27468,-2.03048 0,-0.85636 0.27468,-0.77556 0.30161,-1.17951 0.67862,-1.15258 1.15258,-0.8779 1.25491,-0.67863 2.03048,-0.17234 1.7558,0 1.93353,-0.10234 20.81646,0 4.16329,0.10234 3.96401,0 3.66241,0.17234 3.587,0.10234 3.11304,0.30161 2.60677,0.27468 1.92815,0.30161 -0.29622,-14.52036"
       id="path4056" />
    <path
       style="fill:#acacac;fill-rule:nonzero;stroke:none"
       d="m 980.69853,107.65538 -0.19928,0 -0.3016,0.10233 -0.37702,0 -0.57629,0.19928 -0.97484,0.0969 -1.25491,0.28006 -1.65886,0.0969 -1.92815,0.20466 -2.31054,0.097 -2.80605,0.17773 -3.38772,0.0969 -4.08789,0 -4.34103,0.20466 -10.93335,0 -0.30161,0.097 -1.05563,0.20466 -1.35186,0.27468 -2.03048,0.57629 -2.13281,0.77557 -2.61216,1.08256 -2.53136,1.5296 -2.80605,1.85274 -2.71449,2.31055 -2.70372,2.80604 -2.61215,3.2854 -2.13281,3.99094 -1.92815,4.5403 -1.45419,5.04119 -0.9533,5.9945 -0.30161,6.77006 0,0.28006 0.10233,1.17413 0.19928,1.73425 0.37701,2.22976 0.57629,2.7091 0.97485,3.18306 0.9533,3.20999 1.45419,3.29078 1.85813,3.587 2.30516,3.38234 2.7091,3.18844 3.29078,3.01071 3.78628,2.50444 4.5403,2.33209 5.04119,1.52959 5.99449,0.98023 58.9432,0 0,-11.23496 -52.85176,0 -1.72887,-0.17773 -2.13281,-0.39856 -2.13281,-0.37701 -2.40749,-0.8779 -2.42904,-1.15258 -2.50982,-1.55652 -2.33209,-1.8312 -2.23514,-2.33209 -2.03048,-2.7091 -1.72887,-3.38773 -1.25492,-3.86168 -0.87789,-4.66418 -0.30161,-5.11659 0,-2.33209 0.19927,-1.63192 0.30161,-1.93354 0.37702,-2.13281 0.57629,-2.42904 0.67862,-2.23514 1.17951,-2.30516 1.24952,-2.43442 1.73426,-2.40749 2.13281,-2.13281 2.42904,-2.03048 2.98916,-1.72887 3.28539,-1.28184 3.98556,-0.85097 0.9533,0 1.35725,-0.10234 22.74999,0 1.15258,0.10234 0.67862,0 0.59783,-13.47011"
       id="path4058" />
    <path
       style="fill:#acacac;fill-rule:nonzero;stroke:none"
       d="m 1069.6411,135.14495 -0.3986,-3.28539 -0.6786,-3.18306 -1.0556,-2.81143 -1.3519,-2.7091 -1.7558,-2.53137 -2.1328,-2.20822 -2.4075,-2.13281 -2.9084,-1.85813 -3.3877,-1.52959 -3.6893,-1.45419 -4.2387,-1.07718 -4.7396,-1.05563 -5.4451,-0.57629 -5.6929,-0.39856 -6.3931,-0.10233 -5.9945,0.10233 -5.5205,0.39856 -5.1381,0.57629 -4.6427,1.05563 -4.34099,1.07718 -3.78628,1.45419 -3.28539,1.52959 -3.01071,1.85813 -2.50444,2.13281 -2.33209,2.20822 -1.83659,2.53137 -1.45419,2.7091 -1.15258,2.81143 -0.77556,3.18306 -0.47935,3.28539 -0.0969,3.28539 0.27468,4.66418 0.67862,4.14175 0.97484,3.587 1.45419,3.28539 2.03048,2.80605 2.13281,2.43442 2.50983,2.13281 3.01071,1.72887 3.28539,1.55652 3.587,1.15258 3.76476,0.98024 4.0609,0.57629 4.3626,0.57629 4.5403,0.37701 4.8419,0.19928 9.9801,0 4.7449,-0.27468 4.6373,-0.30161 4.2656,-0.57629 4.1633,-0.67863 3.8617,-1.07717 3.3877,-1.25492 3.2854,-1.52959 3.0107,-1.7558 2.4075,-2.13281 2.2298,-2.50982 1.8312,-2.90838 1.4595,-3.08073 1.1742,-3.59239 0.6786,-3.95862 0.1777,-4.56724 -0.1777,-3.28539 z m -15.199,5.52054 -0.3016,2.03048 -0.377,2.03048 -0.5763,1.8312 -1.0772,1.65347 -1.0556,1.65885 -1.3519,1.25491 -1.6588,1.24953 -1.8312,1.15796 -2.3321,0.97485 -2.5098,0.9533 -2.9084,0.60322 -3.0861,0.57629 -3.684,0.47396 -3.8617,0.30161 -8.7305,0 -3.964,-0.30161 -3.3823,-0.47396 -3.1885,-0.57629 -2.8114,-0.60322 -2.6068,-0.9533 -2.2297,-0.97485 -1.83125,-1.15796 -1.65885,-1.24953 -1.35186,-1.25491 -1.15258,-1.65885 -0.8779,-1.65347 -0.57629,-1.8312 -0.57629,-2.03048 -0.30161,-2.03048 0,-4.36796 0.30161,-1.92815 0.57629,-1.93353 0.57629,-1.93353 0.97485,-1.65347 1.15796,-1.52959 1.24953,-1.45419 1.73426,-1.45419 1.85274,-1.15258 2.3105,-0.98023 2.5314,-0.98024 2.9084,-0.67323 3.0861,-0.57629 3.587,-0.28007 3.6624,-0.29622 4.2656,-0.20467 4.2603,0.20467 3.867,0.29622 3.587,0.28007 3.1077,0.57629 2.8868,0.67323 2.5314,0.98024 2.1059,0.98023 2.0574,1.15258 1.6319,1.45419 1.4542,1.45419 1.1526,1.52959 0.9802,1.65347 0.7756,1.93353 0.377,1.93353 0.3016,1.92815 0.097,2.13281 -0.097,2.23515"
       id="path4060" />
    <path
       style="fill:#acacac;fill-rule:nonzero;stroke:none"
       d="m 566.29217,187.792 355.73789,0 0,-11.03568 -355.73789,0 z"
       id="path4062" />
    <path
       style="fill:#acacac;fill-rule:nonzero;stroke:none"
       d="m 1014.8612,177.8335 5.4182,0 0,11.03568 -5.4182,0 z"
       id="path4064" />
    <path
       style="fill:#acacac;fill-rule:nonzero;stroke:none"
       d="m 1031.6921,188.86918 -5.7198,0 0,-11.03568 9.4792,0 5.9191,8.1273 0.1023,0 -0.1023,-8.1273 5.2189,0 0,11.03568 -9.2799,0 -5.9191,-8.72514 -0.1777,0 0.4793,8.72514"
       id="path4066" />
    <path
       style="fill:#acacac;fill-rule:nonzero;stroke:none"
       d="m 1069.6411,184.50661 0,1.65347 -0.3016,0.37701 -0.097,0.30161 -0.4793,0.37701 -0.3986,0.47396 -0.5763,0.30161 -0.6786,0.28007 -0.8563,0.0969 -0.6733,0.20467 -0.8779,0.0969 -0.8779,0 -0.8779,0.19928 -3.867,0 -1.8312,-0.19928 -1.5512,-0.0969 -1.4542,-0.30161 -1.0556,-0.58168 -0.8779,-0.77556 -0.5763,-1.05564 -0.1993,-1.35186 0,-2.90838 0.1993,-1.15258 0.377,-0.8779 0.8779,-0.8779 0.9533,-0.37701 1.4542,-0.47934 1.7558,-0.0969 1.8312,-0.30161 4.2656,0 1.7289,0.30161 1.3519,0.0969 1.1795,0.27468 1.0556,0.50627 0.474,0.67324 0.5009,0.85635 0.1023,0.97485 0,0.47934 -5.7198,0 0,-0.47934 -0.097,-0.29622 -0.1023,-0.28007 -0.2747,-0.30161 -0.5009,0 -0.5817,-0.097 -2.806,0 -0.781,0.097 -0.6732,0.20466 -0.2747,0.30161 -0.3016,0.27468 -0.1023,0.30161 -0.1777,0.37702 0,2.70371 0.1777,0.58168 0,0.39855 0.3016,0.27468 0.377,0.50089 0.5978,0.0754 0.8564,0.20467 2.5314,0 0.754,-0.20467 0.4039,-0.0754 0.2747,-0.30161 0.3016,-0.29622 0.2962,-0.28007 0,-0.77557 5.5206,0"
       id="path4068" />
    <path
       style="fill:#acacac;fill-rule:nonzero;stroke:none"
       d="m 1072.5279,186.44015 4.061,0 0,2.23514 -4.061,0 z"
       id="path4070" />
    <path
       style="fill:#acacac;fill-rule:nonzero;stroke:none"
       d="m 862.81222,61.331359 77.22825,0 0,-1.72887 -77.22825,0 z"
       id="path4072" />
    <path
       style="fill:#acacac;fill-rule:nonzero;stroke:none"
       d="m 922.70868,60.550406 0,0 -0.10233,2.908379 -0.37163,3.010711 -0.40394,2.784504 -0.57629,2.90838 -0.85097,2.709101 -0.98023,2.811434 -0.97485,2.509823 -1.15796,2.33209 -1.55114,2.504438 -1.35724,2.434421 -1.72887,1.933534 -1.65886,2.229757 -1.92815,1.933534 -2.03586,1.831202 -2.03048,1.551135 -2.12743,1.734256 -0.78095,-1.734256 2.03048,-1.351857 2.13281,-1.653468 1.85813,-1.734256 1.72887,-1.928148 1.73426,-1.933533 1.45419,-2.03048 1.45419,-2.235144 1.45419,-2.429035 1.25491,-2.310546 0.97485,-2.429035 0.8779,-2.709102 0.67862,-2.509824 0.9533,-5.418203 0.47396,-2.908379 0.10233,-2.811433 1.45419,0"
       id="path4074" />
    <path
       style="fill:#acacac;fill-rule:nonzero;stroke:none"
       d="m 866.97551,77.483637 68.79933,0 0.8779,-1.933534 -70.4528,0 0.77557,1.933534"
       id="path4076" />
    <path
       style="fill:#acacac;fill-rule:nonzero;stroke:none"
       d="m 865.796,45.35143 71.23914,0 -0.17773,-1.831202 -70.28045,0 -0.78096,1.831202"
       id="path4078" />
    <path
       style="fill:#acacac;fill-rule:nonzero;stroke:none"
       d="m 900.63731,97.524525 1.55652,0 0,-74.621475 -1.55652,0 z"
       id="path4080" />
    <path
       style="fill:#acacac;fill-rule:nonzero;stroke:none"
       d="m 941.29538,60.076447 0,0 -0.19928,-3.964013 -0.67862,-3.990943 -1.05025,-3.861681 -1.25491,-3.48467 -1.65886,-3.285391 -2.03048,-3.285392 -2.33208,-3.113043 -2.50983,-2.88145 -2.90838,-2.434421 -2.98378,-2.235144 -3.38772,-1.928148 -3.48467,-1.631924 -3.49006,-1.276455 -3.86168,-1.055634 -3.88861,-0.57629 -4.16329,-0.199278 0,1.831202 3.99094,0.199278 3.75935,0.473958 3.587,0.8779 3.587,1.357243 3.18845,1.556522 3.28539,1.831202 2.90838,2.229757 2.60677,2.509824 2.50982,2.429035 2.23515,3.086114 1.92814,3.113043 1.55653,3.285392 1.35185,3.387723 0.8779,3.48467 0.58168,3.683947 0.19928,3.867067 1.72887,0"
       id="path4082" />
    <path
       style="fill:#acacac;fill-rule:nonzero;stroke:none"
       d="m 901.41288,99.280325 0,0 4.16329,-0.204664 3.88861,-0.673236 3.86168,-0.8779 3.49006,-1.357243 3.48467,-1.631924 3.38772,-2.052024 2.98378,-2.208214 2.90838,-2.536753 2.50983,-2.784504 2.33208,-3.107657 2.03048,-3.086114 1.65886,-3.484669 1.25491,-3.587002 1.05025,-3.786279 0.67862,-3.867067 0.19928,-3.958628 -1.72887,0 -0.19928,3.861682 -0.58168,3.587001 -0.8779,3.587001 -1.35185,3.382338 -1.55653,3.285392 -1.92814,3.086113 -2.23515,3.010712 -2.50982,2.509823 -2.60677,2.531368 -2.90838,2.310545 -3.28539,1.7558 -3.18845,1.551136 -3.587,1.357243 -3.587,0.953302 -3.75935,0.473959 -3.99094,0.204663 0,1.7558"
       id="path4084" />
    <path
       style="fill:#acacac;fill-rule:nonzero;stroke:none"
       d="m 861.6381,60.076447 0,0 0.19927,3.958628 0.57629,3.867067 1.17951,3.786279 1.15258,3.587002 1.72887,3.484669 2.03587,3.086114 2.22976,3.107657 2.60677,2.784504 2.91376,2.536753 3.00533,2.208214 3.18844,2.052024 3.48467,1.631924 3.68934,1.357243 3.75935,0.8779 3.96401,0.673236 4.06096,0.204664 0,-1.7558 -3.95863,-0.204663 -3.76473,-0.473959 -3.58701,-0.953302 -3.38772,-1.357243 -3.38234,-1.551136 -3.20999,-1.7558 -2.98378,-2.310545 -2.71449,-2.531368 -2.42903,-2.509823 -2.13281,-3.010712 -1.93354,-3.086113 -1.62653,-3.285392 -1.35725,-3.382338 -0.8779,-3.587001 -0.47396,-3.587001 -0.30161,-3.861682 -1.65346,0"
       id="path4086" />
    <path
       style="fill:#acacac;fill-rule:nonzero;stroke:none"
       d="m 901.41288,20.87257 0,0 -4.06096,0.199278 -3.96401,0.57629 -3.75935,1.055634 -3.68934,1.276455 -3.48467,1.631924 -3.18844,1.928148 -3.00533,2.235144 -2.91376,2.434421 -2.60677,2.88145 -2.22976,3.113043 -2.03587,3.285392 -1.72887,3.285391 -1.15258,3.48467 -1.17951,3.861681 -0.57629,3.990943 -0.19927,3.964013 1.65346,0 0.30161,-3.867067 0.47396,-3.683947 0.8779,-3.48467 1.35725,-3.387723 1.62653,-3.285392 1.93354,-3.113043 2.13281,-3.086114 2.42903,-2.429035 2.71449,-2.509824 2.98378,-2.229757 3.20999,-1.831202 3.38234,-1.556522 3.38772,-1.357243 3.58701,-0.8779 3.76473,-0.473958 3.95863,-0.199278 0,-1.831202"
       id="path4088" />
    <path
       style="fill:#acacac;fill-rule:nonzero;stroke:none"
       d="m 880.32174,60.351128 0,3.010711 0.39856,3.010711 0.37701,2.88145 0.57629,2.90838 0.78095,2.612155 1.05025,2.709102 0.98023,2.633699 1.25491,2.407492 1.45419,2.429035 1.45419,2.407492 1.55653,1.933534 1.8312,2.132811 1.72887,2.03048 2.05741,1.831202 2.20821,1.653467 2.13281,1.556522 0.67324,-1.556522 -2.03048,-1.454189 -2.03048,-1.626538 -1.93353,-1.7558 -1.83121,-1.831202 -1.55113,-1.933533 -1.65886,-2.229758 -1.35185,-2.235143 -1.35725,-2.229758 -1.35186,-2.509824 -0.9533,-2.332089 -0.8779,-2.709102 -0.67862,-2.606769 -0.47396,-2.612156 -0.60322,-2.806047 -0.27468,-2.811434 0,-2.908379 -1.55652,0"
       id="path4090" />
    <path
       style="fill:#acacac;fill-rule:nonzero;stroke:none"
       d="m 901.24053,21.346528 -2.13281,1.556522 -2.33209,1.653467 -2.13281,1.831202 -1.92815,1.831202 -1.83659,2.235143 -1.7558,2.132812 -1.5242,2.407492 -1.55653,2.429035 -1.25491,2.612156 -1.17951,2.60677 -0.85097,2.811433 -0.8779,2.806048 -0.78095,2.908379 -0.37701,3.086114 -0.29623,3.113043 -0.10233,2.983782 1.55652,0 0,-2.886836 0.27468,-2.90838 0.60322,-2.908379 0.57629,-2.908379 0.67862,-2.612156 0.95331,-2.709102 1.17412,-2.606769 1.25491,-2.407492 1.35725,-2.434421 1.45419,-2.132812 1.72887,-2.127426 1.7558,-2.208214 2.03048,-1.755799 1.8312,-1.831202 2.23514,-1.556521 2.30516,-1.45419 -0.85097,-1.556522"
       id="path4092" />
    <path
       style="fill:#acacac;fill-rule:nonzero;stroke:none"
       d="m 901.81682,21.545806 2.13281,1.556522 2.30516,1.631924 2.03587,1.858131 2.03048,1.928148 1.7558,2.132811 1.8312,2.132812 1.55113,2.407492 1.35725,2.531367 1.45419,2.407492 1.05563,2.709101 0.8779,2.811434 1.05025,2.806047 0.57629,2.913766 0.40394,2.983782 0.27468,3.107657 0.19928,3.086114 -1.45419,0 -0.17774,-2.90838 -0.39855,-2.983782 -0.47396,-2.811433 -0.47934,-2.709102 -0.77557,-2.908379 -0.78095,-2.60677 -1.45419,-2.509824 -1.15258,-2.531367 -1.35725,-2.412878 -1.55113,-2.127425 -1.65886,-2.132812 -1.8312,-2.132811 -1.82582,-1.72887 -2.03586,-1.960464 -2.13281,-1.529592 -2.22976,-1.351857 0.8779,-1.658854"
       id="path4094" />
  </g>
</svg>
