<?xml version="1.0" encoding="UTF-8" ?>
<!DOCTYPE svg PUBLIC "-//W3C//DTD SVG 1.1//EN" "http://www.w3.org/Graphics/SVG/1.1/DTD/svg11.dtd">
<svg width="546pt" height="546pt" viewBox="0 0 546 546" version="1.1" xmlns="http://www.w3.org/2000/svg">
<g id="#ffffffff">
</g>
<g id="#ed4c30ff">
<path fill="#ed4c30" opacity="1.00" d=" M 10.29 10.12 C 10.46 10.16 10.80 10.25 10.97 10.29 C 43.76 18.15 75.58 30.82 104.00 49.05 C 128.40 64.53 150.87 83.70 167.59 107.42 C 181.18 126.83 190.77 149.98 190.28 173.99 C 190.45 197.94 180.08 220.88 165.18 239.22 C 145.33 263.00 121.58 283.03 98.68 303.75 C 79.59 320.96 61.79 339.59 45.56 359.52 C 37.16 369.43 30.55 380.79 25.76 392.85 C 19.60 407.94 16.34 424.00 13.70 440.03 C 12.81 445.23 12.02 450.48 10.38 455.51 C 10.07 423.66 10.33 391.80 10.25 359.95 C 10.27 243.34 10.19 126.73 10.29 10.12 Z" />
<path fill="#ed4c30" opacity="1.00" d=" M 90.58 10.35 C 158.32 10.14 226.06 10.24 293.80 10.30 C 330.13 13.91 365.76 24.02 398.93 39.20 C 424.97 51.52 450.37 66.64 469.82 88.23 C 485.63 105.43 497.41 126.81 501.12 150.04 C 504.82 172.15 500.95 195.20 491.47 215.42 C 484.19 231.16 473.72 245.30 461.56 257.60 C 447.71 271.32 432.15 283.20 415.84 293.84 C 378.73 317.95 339.49 338.51 300.68 359.68 C 262.27 380.52 223.79 401.34 187.02 425.00 C 173.26 433.46 158.78 440.95 146.35 451.38 C 142.52 454.50 139.13 458.10 135.46 461.40 C 119.43 475.85 104.95 492.18 93.58 510.58 C 88.65 518.62 84.26 527.06 81.18 535.99 C 57.51 536.01 33.84 535.99 10.17 536.00 L 10.28 535.30 C 14.71 507.36 23.14 480.01 35.61 454.60 C 44.12 433.51 56.94 414.55 70.54 396.45 C 72.83 393.46 74.92 390.29 77.54 387.57 C 91.34 373.98 105.92 361.20 121.10 349.18 C 149.43 326.60 179.91 306.96 210.21 287.19 C 225.89 276.75 241.78 266.47 256.04 254.10 C 264.89 246.80 271.48 237.26 277.92 227.88 C 292.67 205.59 302.53 179.01 300.65 151.97 C 299.40 135.00 293.87 117.62 282.04 105.02 C 275.27 99.07 269.34 92.24 262.50 86.37 C 239.33 65.91 212.40 50.04 184.11 37.77 C 154.21 24.87 122.73 15.59 90.58 10.35 Z" />
</g>
<g id="#134f9cff">
<path fill="#134f9c" opacity="1.00" d=" M 10.97 10.29 C 37.51 10.26 64.06 10.14 90.58 10.35 C 122.73 15.59 154.21 24.87 184.11 37.77 C 212.40 50.04 239.33 65.91 262.50 86.37 C 269.34 92.24 275.27 99.07 282.04 105.02 C 293.87 117.62 299.40 135.00 300.65 151.97 C 302.53 179.01 292.67 205.59 277.92 227.88 C 271.48 237.26 264.89 246.80 256.04 254.10 C 241.78 266.47 225.89 276.75 210.21 287.19 C 179.91 306.96 149.43 326.60 121.10 349.18 C 105.92 361.20 91.34 373.98 77.54 387.57 C 74.92 390.29 72.83 393.46 70.54 396.45 C 56.94 414.55 44.12 433.51 35.61 454.60 C 23.14 480.01 14.71 507.36 10.28 535.30 C 10.29 508.71 10.10 482.09 10.38 455.51 C 12.02 450.48 12.81 445.23 13.70 440.03 C 16.34 424.00 19.60 407.94 25.76 392.85 C 30.55 380.79 37.16 369.43 45.56 359.52 C 61.79 339.59 79.59 320.96 98.68 303.75 C 121.58 283.03 145.33 263.00 165.18 239.22 C 180.08 220.88 190.45 197.94 190.28 173.99 C 190.77 149.98 181.18 126.83 167.59 107.42 C 150.87 83.70 128.40 64.53 104.00 49.05 C 75.58 30.82 43.76 18.15 10.97 10.29 Z" />
<path fill="#134f9c" opacity="1.00" d=" M 293.80 10.30 C 374.53 10.18 455.27 10.28 536.00 10.25 C 536.00 185.50 536.00 360.75 536.00 536.00 C 384.39 536.00 232.78 536.01 81.18 535.99 C 84.26 527.06 88.65 518.62 93.58 510.58 C 104.95 492.18 119.43 475.85 135.46 461.40 C 139.13 458.10 142.52 454.50 146.35 451.38 C 158.78 440.95 173.26 433.46 187.02 425.00 C 223.79 401.34 262.27 380.52 300.68 359.68 C 339.49 338.51 378.73 317.95 415.84 293.84 C 432.15 283.20 447.71 271.32 461.56 257.60 C 473.72 245.30 484.19 231.16 491.47 215.42 C 500.95 195.20 504.82 172.15 501.12 150.04 C 497.41 126.81 485.63 105.43 469.82 88.23 C 450.37 66.64 424.97 51.52 398.93 39.20 C 365.76 24.02 330.13 13.91 293.80 10.30 Z" />
</g>
</svg>
