<?xml version="1.0" encoding="UTF-8" standalone="no"?>
<svg
   xmlns:dc="http://purl.org/dc/elements/1.1/"
   xmlns:cc="http://creativecommons.org/ns#"
   xmlns:rdf="http://www.w3.org/1999/02/22-rdf-syntax-ns#"
   xmlns:svg="http://www.w3.org/2000/svg"
   xmlns="http://www.w3.org/2000/svg"
   xmlns:sodipodi="http://sodipodi.sourceforge.net/DTD/sodipodi-0.dtd"
   xmlns:inkscape="http://www.inkscape.org/namespaces/inkscape"
   version="1.1"
   id="Layer_1"
   x="0px"
   y="0px"
   width="785"
   height="222"
   viewBox="0 0 785 222"
   enable-background="new 0 0 595.276 841.89"
   xml:space="preserve">
	<path
   style="fill:#00509e"
   inkscape:connector-curvature="0"
   id="path29"
   d="m 271.09155,27.485422 5.75193,9.416583 0.25437,178.444645 155.2804,-0.11747 8.67187,5.02672 28.68092,-20.84191 c 3.02781,-1.62652 7.67242,-4.39958 7.49602,-12.29741 v -40.28255 c 0,-7.02565 -4.04688,-11.04321 -10.71002,-11.04321 l -37.3527,-0.12765 c 4.04687,-3.25313 11.69968,-6.52587 11.9152,-12.42478 V 82.828458 l 27.44623,-19.822824 c 6.69256,-4.654396 8.70129,-8.671875 8.70129,-11.425322 V 10.670624 c 0,-6.6533405 -4.23308,-10.54343725 -10.95496,-10.54343725 H 317.4396 c -6.13405,0 -7.23147,-0.1273725 -11.49396,2.13612105 L 271.09155,27.485237"
   clip-path="none" /><path
   style="fill:#00509e"
   inkscape:connector-curvature="0"
   id="path31"
   d="m 271.08174,27.485422 h -0.0981 l 5.73223,9.534169 0.26455,178.454429 155.34903,-0.12765 8.64246,5.02673 h 0.0555 l 28.72005,-20.83211 c 2.96897,-1.62652 7.57436,-4.38977 7.57436,-12.05238 v -40.65495 c -0.0185,-7.14332 -4.11541,-11.17058 -10.83739,-11.17058 l -37.3429,-0.11747 v 0.11747 l 0.0648,0.12765 c 3.99795,-3.26294 11.7291,-6.52587 11.96432,-12.55216 V 82.956025 l 27.39721,-19.83262 c 6.69256,-4.6446 8.7307,-8.652283 8.75022,-11.542908 V 10.670809 C 477.29958,4.0174685 473.00666,-1e-5 466.24555,-1e-5 H 315.4725 c -4.47802,0 -5.83019,0.1273725 -9.60271,2.2635027 L 270.92746,27.485422 h 0.14707 l 0.0925,0.117567 34.82468,-25.2121237 C 309.75442,0.372321 310.99883,0.254735 315.47684,0.254735 H 466.2499 c 6.66314,0 10.81778,3.880301 10.82759,10.416055 v 40.909688 c 0,2.753448 -1.97932,6.65334 -8.65227,11.297941 l -27.49525,19.950206 v 40.409945 c -0.17668,5.77145 -7.79979,9.17166 -11.86627,12.30722 l -0.26455,0.24513 37.68588,0.11747 c 6.62402,0 10.58265,3.89989 10.59246,10.92555 v 40.65495 c 0,7.52543 -4.45841,10.16122 -7.44699,11.80744 l -28.62209,20.8223 -8.58373,-5.01692 h -0.0463 l -155.17263,0.12765 -0.25438,-178.327096 -5.76164,-9.543965 -0.10822,0.127372 0.0925,0.117568 -0.0925,-0.117568"
   clip-path="none" /><path
   style="fill:#ffffff"
   inkscape:connector-curvature="0"
   id="path33"
   d="m 336.51773,220.87315 h -57.82231 c -4.52704,0 -8.16238,-2.39094 -8.16238,-5.39913 v -17.05959 c 0,-3.01799 3.63534,-5.39904 8.16238,-5.39904 h 57.82231 c 4.49762,0 8.15248,2.38104 8.15248,5.39904 v 17.05959 c 0,3.00819 -3.65486,5.39913 -8.15248,5.39913"
   clip-path="none" /><path
   style="fill:#00509e"
   inkscape:connector-curvature="0"
   id="path35"
   d="m 336.21396,220.50075 v -1.38158 h -57.25399 c -1.98912,0 -3.78232,-0.4995 -4.97779,-1.25421 -1.20519,-0.88152 -1.74418,-1.75398 -1.74418,-2.63588 v -16.68727 c 0,-0.7548 0.53927,-1.63633 1.74418,-2.50842 1.19547,-0.7548 2.98867,-1.2543 4.97779,-1.2543 h 57.25399 c 1.97931,0 3.77252,0.4995 4.9777,1.2543 1.19547,0.87228 1.73437,1.75399 1.73437,2.50842 v 16.68727 c 0,0.88153 -0.53927,1.75399 -1.73437,2.63588 -1.20518,0.7548 -2.99839,1.25421 -4.9777,1.25421 v 2.77306 c 4.84052,0 9.28912,-2.51831 9.45572,-6.66315 v -16.68727 c -0.1665,-4.14484 -4.6152,-6.52597 -9.45572,-6.52597 h -57.25399 c -4.84062,0 -9.26961,2.38113 -9.45581,6.52597 v 16.68727 c 0.18592,4.14484 4.61519,6.66315 9.45581,6.66315 h 57.25399 v -1.39148"
   clip-path="none" /><path
   style="fill:#ffffff"
   inkscape:connector-curvature="0"
   id="path37"
   d="m 336.55685,193.14276 h -57.87123 c -4.52705,0 -8.16239,-2.39094 -8.16239,-5.39913 v -17.05959 c 0,-3.01799 3.63534,-5.40894 8.16239,-5.40894 h 57.87123 c 4.49763,0 8.15258,2.39095 8.15258,5.40894 v 17.05959 c 0,3.00819 -3.65495,5.39913 -8.15258,5.39913"
   clip-path="none" /><path
   style="fill:#00509e"
   inkscape:connector-curvature="0"
   id="path39"
   d="m 336.2825,192.76055 v -1.39138 h -57.32253 c -1.97931,0 -3.77252,-0.4995 -4.96799,-1.2444 -1.20518,-0.88153 -1.74418,-1.75399 -1.74418,-2.63588 v -16.56971 c 0,-0.87228 0.53927,-1.75389 1.74418,-2.63579 1.19547,-0.74462 2.98868,-1.24449 4.96799,-1.24449 h 57.32253 c 1.9696,0 3.76271,0.4995 4.96799,1.24449 1.19547,0.88153 1.73437,1.7637 1.73437,2.63579 v 16.56971 c 0,0.88152 -0.53927,1.75398 -1.73437,2.63588 -1.20528,0.74462 -2.99839,1.2444 -4.96799,1.2444 v 2.77306 c 4.83081,0 9.27941,-2.39094 9.44601,-6.65334 v -16.56971 c -0.009,-2.1361 -1.29343,-3.76272 -2.99839,-4.88955 -1.73438,-1.12684 -3.98814,-1.75399 -6.44762,-1.75399 h -57.32253 c -2.46929,0 -4.72296,0.62715 -6.45733,1.75399 -1.70505,1.12683 -2.98868,2.75345 -2.98868,4.88955 v 16.56971 c 0.15725,4.2624 4.60539,6.65334 9.44601,6.65334 h 57.32253 v -1.38168"
   clip-path="none" /><path
   style="fill:#ffffff"
   inkscape:connector-curvature="0"
   id="path41"
   d="m 336.55685,165.40257 h -57.87123 c -4.52705,0 -8.16239,-2.39094 -8.16239,-5.27176 v -17.18696 c 0,-2.90043 3.63534,-5.28148 8.16239,-5.28148 h 57.87123 c 4.49763,0 8.15258,2.38105 8.15258,5.28148 v 17.18696 c 0,2.89063 -3.65495,5.27176 -8.15258,5.27176"
   clip-path="none" /><path
   style="fill:#00509e"
   inkscape:connector-curvature="0"
   id="path43"
   d="m 336.2825,165.03016 v -1.2542 h -57.32253 c -1.97931,0 -3.77252,-0.63733 -4.96799,-1.38167 -1.20518,-0.74463 -1.74418,-1.62652 -1.74418,-2.51822 v -16.68728 c 0,-0.87228 0.53927,-1.75399 1.74418,-2.50842 1.19547,-0.7548 2.98868,-1.37186 4.96799,-1.2543 h 57.32253 c 1.9696,-0.11747 3.76271,0.4995 4.96799,1.2543 1.19547,0.7548 1.73437,1.7637 1.73437,2.50842 v 16.68728 c 0,0.8917 -0.53927,1.77359 -1.73437,2.51822 -1.20528,0.74462 -2.99839,1.38167 -4.96799,1.38167 v 2.63588 c 2.45948,0 4.71324,-0.63733 6.44762,-1.62661 1.70496,-1.13664 2.98858,-2.89063 2.99839,-4.90916 v -16.68728 c -0.009,-2.00873 -1.29343,-3.76272 -2.99839,-4.77198 -1.73438,-1.12684 -3.98814,-1.74418 -6.44762,-1.74418 h -57.32253 c -2.46929,0 -4.72296,0.61697 -6.45733,1.74418 -1.70505,1.00926 -2.98868,2.76325 -2.98868,4.77198 v 16.68728 c 0,2.01853 1.28362,3.77252 2.98868,4.90916 1.73437,0.98965 3.98804,1.62661 6.45733,1.62661 h 57.32253 v -1.38168"
   clip-path="none" /><path
   style="fill:#ffffff"
   inkscape:connector-curvature="0"
   id="path45"
   d="m 336.55685,137.79955 h -57.87123 c -4.52705,0 -8.16239,-2.39094 -8.16239,-5.38932 v -17.0694 c 0,-3.018 3.63534,-5.39913 8.16239,-5.39913 h 57.87123 c 4.49763,0 8.15258,2.38113 8.15258,5.39913 v 17.0694 c 0,2.99838 -3.65495,5.38932 -8.15258,5.38932"
   clip-path="none" /><path
   style="fill:#00509e"
   inkscape:connector-curvature="0"
   id="path47"
   d="m 336.2825,137.41734 v -1.37177 h -57.32253 c -1.97931,0 -3.77252,-0.4995 -4.96799,-1.26411 -1.20518,-0.88152 -1.74418,-1.75389 -1.74418,-2.63579 v -16.56971 c 0,-0.87227 0.53927,-1.75398 1.74418,-2.63578 1.19547,-0.74463 2.98868,-1.2445 4.96799,-1.2445 h 57.32253 c 1.9696,0 3.76271,0.4995 4.96799,1.2445 1.19547,0.88152 1.73437,1.7637 1.73437,2.63578 v 16.56971 c 0,0.88153 -0.53927,1.75399 -1.73437,2.63579 -1.20528,0.76405 -2.99839,1.26411 -4.96799,1.26411 v 2.75344 c 2.45948,0 4.71324,-0.61697 6.44762,-1.76379 1.70496,-1.12683 2.98858,-2.75344 2.99839,-4.88955 v -16.56971 c -0.009,-2.12629 -1.29343,-3.76271 -2.99839,-4.88954 -1.73438,-1.12684 -3.98814,-1.75399 -6.44762,-1.75399 h -57.32253 c -2.46929,0 -4.72296,0.62715 -6.45733,1.75399 -1.70505,1.12683 -2.98868,2.76325 -2.98868,4.88954 v 16.56971 c 0,2.13611 1.28362,3.76272 2.98868,4.88955 1.73437,1.14645 3.98804,1.76379 6.45733,1.76379 h 57.32253 v -1.38167"
   clip-path="none" /><path
   style="fill:#ffffff"
   inkscape:connector-curvature="0"
   id="path49"
   d="M 336.09639,110.05936 H 279.1853 c -4.73276,0 -8.58363,-2.39094 -8.58363,-5.38933 v -17.0792 c 0,-2.890625 3.85087,-5.271723 8.58363,-5.271723 h 56.91109 c 4.73276,0 8.58363,2.381098 8.58363,5.271723 v 17.0792 c 0,2.99839 -3.85087,5.38933 -8.58363,5.38933"
   clip-path="none" /><path
   style="fill:#00509e"
   inkscape:connector-curvature="0"
   id="path51"
   d="m 335.82194,109.67715 v -1.37178 h -56.372 c -2.12639,0 -4.01755,-0.4995 -5.30117,-1.38167 -1.29343,-0.76405 -1.83234,-1.63633 -1.83234,-2.51822 V 87.835798 c 0,-0.744718 0.53928,-1.753976 1.83234,-2.498675 1.28362,-0.764328 3.17478,-1.381626 5.30117,-1.381626 h 56.372 c 2.10678,0 4.01755,0.617345 5.28157,1.381626 1.28362,0.744717 1.85194,1.753966 1.83233,2.498675 v 16.569682 c 0.0185,0.88152 -0.54853,1.75389 -1.83233,2.51822 -1.26402,0.88152 -3.17479,1.38167 -5.28157,1.38167 v 2.75345 c 2.57714,0 4.92877,-0.61698 6.71217,-1.76379 1.7834,-1.12684 3.14537,-2.75345 3.15518,-4.88955 V 87.835798 c -0.009,-2.126326 -1.37178,-3.762715 -3.15518,-4.889569 -1.81272,-1.126853 -4.15464,-1.626585 -6.71217,-1.626585 h -56.372 c -2.57714,0 -4.92877,0.499685 -6.72197,1.626585 -1.7736,1.126854 -3.13557,2.763243 -3.13557,4.889569 v 16.569682 c 0,2.1361 1.36197,3.76271 3.13557,4.88955 1.7932,1.14644 4.14483,1.76379 6.72197,1.76379 h 56.372 v -1.38167"
   clip-path="none" /><path
   style="fill:#ffffff"
   inkscape:connector-curvature="0"
   id="path53"
   d="m 336.55685,81.064872 h -57.87123 c -4.52705,0 -8.16239,-2.381089 -8.16239,-5.3893 V 58.59639 c 0,-2.998415 3.63534,-5.389299 8.16239,-5.389299 h 57.87123 c 4.49763,0 8.15258,2.390884 8.15258,5.389299 v 17.079182 c 0,3.008211 -3.65495,5.3893 -8.15258,5.3893"
   clip-path="none" /><path
   style="fill:#00509e"
   inkscape:connector-curvature="0"
   id="path55"
   d="m 336.2825,80.692522 v -1.381617 h -57.32253 c -1.97931,0 -3.77252,-0.509582 -4.96799,-1.391422 -1.20518,-0.744717 -1.74418,-1.626594 -1.74418,-2.498674 V 58.733568 c 0,-0.764327 0.53927,-1.763771 1.74418,-2.518266 1.19547,-0.754523 2.98868,-1.24444 4.96799,-1.24444 h 57.32253 c 1.9696,0 3.76271,0.489973 4.96799,1.24444 1.19547,0.754522 1.73437,1.753966 1.73437,2.518266 v 16.687241 c 0,0.872089 -0.53927,1.753966 -1.73437,2.498674 -1.20528,0.881895 -2.99839,1.391422 -4.96799,1.391422 v 2.753439 c 4.83081,-0.117568 9.27941,-2.498675 9.44601,-6.643535 V 58.733568 c -0.009,-2.008739 -1.29343,-3.762706 -2.99839,-4.771982 -1.73438,-1.13665 -3.98814,-1.763763 -6.44762,-1.763763 h -57.32253 c -2.46929,0 -4.72296,0.62715 -6.45733,1.763763 -1.70505,1.126862 -2.98868,2.763243 -2.98868,4.771982 v 16.687241 c 0.15725,4.14486 4.60539,6.525948 9.44601,6.643535 h 57.32253 v -1.371822"
   clip-path="none" /><path
   style="fill:#ffffff"
   inkscape:connector-curvature="0"
   id="path57"
   d="M 336.09639,53.324677 H 279.1853 c -4.73276,0 -8.58363,-2.381098 -8.58363,-5.389309 V 30.865982 c 0,-3.008202 3.85087,-5.399095 8.58363,-5.399095 h 56.91109 c 4.73276,0 8.58363,2.390893 8.58363,5.399095 v 17.069386 c 0,3.018016 -3.85087,5.389309 -8.58363,5.389309"
   clip-path="none" /><path
   style="fill:#00509e"
   inkscape:connector-curvature="0"
   id="path59"
   d="m 335.82194,52.962123 v -1.381626 h -56.372 c -2.12639,0 -4.01755,-0.62715 -5.30117,-1.391422 -1.29343,-0.744718 -1.83234,-1.753967 -1.83234,-2.498675 V 31.120755 c 0,-0.881895 0.53928,-1.753976 1.83234,-2.50848 1.28362,-0.881895 3.17478,-1.391413 5.30117,-1.391413 h 56.372 c 2.10678,0 4.01755,0.50949 5.28157,1.391413 1.28362,0.754522 1.85194,1.626594 1.83233,2.50848 V 47.6904 c 0.0185,0.744717 -0.54853,1.753976 -1.83233,2.498675 -1.26402,0.764327 -3.17479,1.391422 -5.28157,1.391422 v 2.753447 c 2.55753,-0.117567 4.89945,-0.62715 6.71217,-1.753975 1.7834,-1.126854 3.14537,-2.753439 3.15518,-4.889569 V 31.120755 c -0.009,-2.126326 -1.37178,-3.762715 -3.15518,-4.889569 -1.81272,-1.136649 -4.15464,-1.763771 -6.71217,-1.763771 h -56.372 c -2.57714,0 -4.92877,0.62715 -6.72197,1.763771 -1.7736,1.126854 -3.13557,2.763243 -3.13557,4.889569 V 47.6904 c 0,2.13613 1.36197,3.762715 3.13557,4.889569 1.7932,1.126853 4.14483,1.636389 6.72197,1.753975 h 56.372 v -1.371821"
   clip-path="none" /><path
   style="fill:#ffffff"
   inkscape:connector-curvature="0"
   id="path61"
   d="M 345.16018,75.930336 V 32.247608 c 0,-3.635333 2.8416,-6.516153 6.34958,-6.516153 h 20.34213 c 3.50797,0 6.35938,2.88082 6.35938,6.516153 v 43.682728 c 0,3.635333 -2.85141,6.516162 -6.35938,6.516162 h -20.34213 c -3.50798,0 -6.34958,-2.880829 -6.34958,-6.516162"
   clip-path="none" /><path
   style="fill:#00509e"
   inkscape:connector-curvature="0"
   id="path63"
   d="m 345.50308,75.675572 h 1.38168 V 32.512177 c 0,-2.890625 2.22434,-5.026755 4.84052,-5.026755 h 19.91109 c 2.64559,0 4.85033,2.13613 4.85033,5.026755 v 43.163395 c 0,2.753447 -2.20474,5.026746 -4.85033,5.026746 h -19.91109 c -2.61618,0 -4.84052,-2.136121 -4.84052,-5.026746 h -2.74365 c 0.0185,4.262446 3.34138,7.780193 7.58417,7.780193 h 19.91109 c 4.23298,0 7.58416,-3.517747 7.59397,-7.780193 V 32.512177 c -0.009,-4.291852 -3.36099,-7.780194 -7.59397,-7.780194 h -19.91109 c -4.24279,0 -7.56456,3.498147 -7.58417,7.780194 v 43.163395 h 1.36197"
   clip-path="none" /><path
   style="fill:#ffffff"
   inkscape:connector-curvature="0"
   id="path65"
   d="M 409.41041,75.930336 V 32.247608 c 0,-3.635333 2.84169,-6.516153 6.35937,-6.516153 h 20.33243 c 3.50788,0 6.35937,2.88082 6.35937,6.516153 v 43.682728 c 0,3.635333 -2.85149,6.516162 -6.35937,6.516162 h -20.33243 c -3.51768,0 -6.35937,-2.880829 -6.35937,-6.516162"
   clip-path="none" /><path
   style="fill:#00509e"
   inkscape:connector-curvature="0"
   id="path67"
   d="m 409.7534,75.675572 h 1.37177 V 32.512177 c 0,-2.890625 2.21455,-5.026755 4.85043,-5.026755 h 19.90119 c 2.64568,0 4.86022,2.13613 4.86022,5.026755 v 43.163395 c 0,2.753447 -2.21454,5.026746 -4.86022,5.026746 H 415.9756 c -2.63588,0 -4.85043,-2.273299 -4.85043,-5.026746 h -2.74364 c 0,4.262446 3.35118,7.780193 7.59407,7.780193 h 19.90119 c 4.24288,0 7.59406,-3.517747 7.60387,-7.780193 V 32.512177 c -0.009,-4.291852 -3.36099,-7.780194 -7.60387,-7.780194 H 415.9756 c -4.24289,0 -7.59407,3.498147 -7.59407,7.780194 v 43.163395 h 1.37187"
   clip-path="none" /><path
   style="fill:#ffffff"
   inkscape:connector-curvature="0"
   id="path69"
   d="M 378.22107,75.930336 V 32.247608 c 0,-3.635333 2.68491,-6.516153 5.99687,-6.516153 h 19.13686 c 3.31196,0 5.98707,2.88082 5.98707,6.516153 v 43.682728 c 0,3.635333 -2.6751,6.516162 -5.98707,6.516162 h -19.13686 c -3.31196,0 -5.99687,-2.880829 -5.99687,-6.516162"
   clip-path="none" /><path
   style="fill:#00509e"
   inkscape:connector-curvature="0"
   id="path71"
   d="m 378.57387,75.675572 h 1.37177 V 32.512177 c 0.0277,-2.890625 2.1361,-5.026755 4.48783,-5.026755 h 18.70581 c 2.35163,0 4.46821,2.13613 4.46821,5.026755 v 43.163395 c 0,2.890625 -2.11658,5.026746 -4.46821,5.026746 h -18.70581 c -2.35173,0 -4.45841,-2.136121 -4.48783,-5.026746 h -2.73383 c 0,4.14486 3.12576,7.780193 7.22166,7.780193 h 18.70581 c 4.086,0 7.20205,-3.635333 7.22166,-7.780193 V 32.512177 c -0.0185,-4.291852 -3.13566,-7.780194 -7.22166,-7.780194 h -18.70581 c -4.0959,0 -7.22166,3.498147 -7.22166,7.780194 v 43.163395 h 1.36206"
   clip-path="none" /><path
   style="fill:#ffffff"
   inkscape:connector-curvature="0"
   id="path73"
   d="m 345.16018,214.34719 v -43.66315 c 0,-3.64514 2.8416,-6.53577 6.34958,-6.53577 h 20.34213 c 3.50797,0 6.35938,2.89063 6.35938,6.53577 v 43.66315 c 0,3.51777 -2.85141,6.53577 -6.35938,6.53577 h -20.34213 c -3.50798,0 -6.34958,-3.0278 -6.34958,-6.53577"
   clip-path="none" /><path
   style="fill:#00509e"
   inkscape:connector-curvature="0"
   id="path75"
   d="m 345.50308,213.97488 h 1.38168 v -43.0557 c 0,-2.88082 2.22434,-5.1443 4.84052,-5.1443 h 19.91109 c 2.64559,0 4.85033,2.26348 4.85033,5.1443 v 43.0557 c 0,2.88081 -2.23406,5.13449 -4.85033,5.13449 h -19.91109 c -2.61618,0 -4.84052,-2.25368 -4.84052,-5.13449 h -2.74365 c 0.0185,4.38977 3.34138,7.90754 7.58417,7.90754 h 19.91109 c 4.23298,0 7.58416,-3.51777 7.59397,-7.90754 v -43.0557 c -0.009,-4.2624 -3.36099,-7.90755 -7.59397,-7.90755 h -19.91109 c -4.24279,0 -7.56456,3.64515 -7.58417,7.90755 v 43.0557 h 1.36197"
   clip-path="none" /><path
   style="fill:#ffffff"
   inkscape:connector-curvature="0"
   id="path77"
   d="m 409.41041,214.34719 v -43.66315 c 0,-3.64514 2.84169,-6.53577 6.35937,-6.53577 h 20.33243 c 3.50788,0 6.35937,2.89063 6.35937,6.53577 v 43.66315 c 0,3.51777 -2.85149,6.53577 -6.35937,6.53577 h -20.33243 c -3.51768,0 -6.35937,-3.0278 -6.35937,-6.53577"
   clip-path="none" /><path
   style="fill:#00509e"
   inkscape:connector-curvature="0"
   id="path79"
   d="m 409.7534,213.97488 h 1.37177 v -43.0557 c 0,-2.88082 2.21455,-5.1443 4.85043,-5.1443 h 19.90119 c 2.64568,0 4.86022,2.26348 4.86022,5.1443 v 43.0557 c 0,2.88081 -2.23415,5.13449 -4.86022,5.13449 H 415.9756 c -2.63588,0 -4.85043,-2.25368 -4.85043,-5.13449 h -2.74364 c 0,4.38977 3.35118,7.90754 7.59407,7.90754 h 19.90119 c 4.24288,0 7.59406,-3.51777 7.60387,-7.90754 v -43.0557 c -0.009,-4.2624 -3.36099,-7.90755 -7.60387,-7.90755 H 415.9756 c -4.24289,0 -7.59407,3.64515 -7.59407,7.90755 v 43.0557 h 1.37187"
   clip-path="none" /><path
   style="fill:#ffffff"
   inkscape:connector-curvature="0"
   id="path81"
   d="m 378.22107,214.34719 v -43.66315 c 0,-3.64514 2.68491,-6.53577 5.99687,-6.53577 h 19.13686 c 3.31196,0 5.98707,2.89063 5.98707,6.53577 v 43.66315 c 0,3.51777 -2.6751,6.53577 -5.98707,6.53577 h -19.13686 c -3.31196,0 -5.99687,-3.0278 -5.99687,-6.53577"
   clip-path="none" /><path
   style="fill:#00509e"
   inkscape:connector-curvature="0"
   id="path83"
   d="m 378.57387,213.97488 h 1.37177 v -43.0557 c 0.0277,-2.88082 2.1361,-5.1443 4.48783,-5.1443 h 18.70581 c 2.35163,0 4.46821,2.26348 4.46821,5.1443 v 43.0557 c 0,3.00819 -2.11658,5.13449 -4.46821,5.13449 h -18.70581 c -2.35173,0 -4.45841,-2.1263 -4.48783,-5.13449 h -2.73383 c 0,4.2624 3.11604,7.90754 7.22166,7.90754 h 18.70581 c 4.086,0 7.20205,-3.64514 7.22166,-7.90754 v -43.0557 c -0.0185,-4.2624 -3.13566,-7.78018 -7.22166,-7.90755 h -18.70581 c -4.0959,0.12765 -7.22166,3.64515 -7.22166,7.90755 v 43.0557 h 1.36206"
   clip-path="none" /><path
   style="fill:#ffffff"
   inkscape:connector-curvature="0"
   id="path85"
   d="m 345.16018,146.32445 v -38.7736 c 0,-3.51777 2.8416,-6.52597 6.34958,-6.52597 h 20.34213 c 3.50797,0 6.35938,3.0082 6.35938,6.52597 v 38.7736 c 0,3.64505 -2.85141,6.65334 -6.35938,6.65334 h -20.34213 c -3.50798,0 -6.34958,-3.00829 -6.34958,-6.65334"
   clip-path="none" /><path
   style="fill:#00509e"
   inkscape:connector-curvature="0"
   id="path87"
   d="m 345.50308,146.07941 h 1.38168 V 107.8056 c 0,-2.77306 2.19493,-5.02673 4.84052,-5.02673 h 19.91109 c 2.64559,0 4.85033,2.25367 4.85033,5.02673 v 38.27381 c 0,2.88082 -2.20474,5.15419 -4.85033,5.15419 h -19.91109 c -2.64559,0 -4.84052,-2.27337 -4.84052,-5.15419 h -2.74365 c 0.0185,4.2723 3.3708,7.90764 7.58417,7.90764 h 19.91109 c 4.23298,0 7.58416,-3.51777 7.59397,-7.90764 V 107.8056 c -0.009,-4.27221 -3.36099,-7.78019 -7.59397,-7.78019 h -19.91109 c -4.21337,0 -7.56456,3.50798 -7.58417,7.78019 v 38.27381 h 1.36197"
   clip-path="none" /><path
   style="fill:#ffffff"
   inkscape:connector-curvature="0"
   id="path89"
   d="m 378.22107,146.32445 v -38.7736 c 0,-3.51777 2.68491,-6.52597 5.99687,-6.52597 h 19.13686 c 3.31196,0 5.98707,3.0082 5.98707,6.52597 v 38.7736 c 0,3.64505 -2.6751,6.65334 -5.98707,6.65334 h -19.13686 c -3.31196,0 -5.99687,-3.00829 -5.99687,-6.65334"
   clip-path="none" /><path
   style="fill:#00509e"
   inkscape:connector-curvature="0"
   id="path91"
   d="m 378.57387,146.07941 h 1.37177 V 107.8056 c 0.0277,-2.89063 2.10678,-5.02673 4.48783,-5.02673 h 18.70581 c 2.35163,0 4.46821,2.1361 4.46821,5.02673 v 38.27381 c 0,3.018 -2.11658,5.15419 -4.46821,5.15419 h -18.70581 c -2.38105,0 -4.45841,-2.13619 -4.48783,-5.15419 h -2.73383 c 0,4.2723 3.12576,7.90764 7.22166,7.90764 h 18.70581 c 4.086,0 7.20205,-3.63534 7.22166,-7.90764 V 107.8056 c -0.0185,-4.14484 -3.13566,-7.78019 -7.22166,-7.78019 h -18.70581 c -4.0959,0 -7.22166,3.63535 -7.22166,7.78019 v 38.27381 h 1.36206"
   clip-path="none" /><path
   style="fill:#00509e"
   inkscape:connector-curvature="0"
   id="path93"
   d="m 504.36009,27.485422 7.19233,56.470075 h 27.16207 l -31.6597,22.968203 2.93956,108.42295 165.14784,-0.11748 10.48459,5.1443 28.69073,-20.95948 c 3.018,-2.63579 7.67241,-4.39958 7.48621,-12.17976 v -37.39201 c 0,-6.89828 -4.26249,-11.04311 -10.71983,-11.04311 h -25.14353 l 27.76961,-19.95022 c 0,0 8.09375,-4.26249 8.09375,-11.9251 V 10.670809 c 0,-6.398577 -4.26249,-10.54343725 -10.95496,-10.54343725 H 550.71794 c -6.13405,0 -7.6528,-0.12737249999991 -11.50376,2.26351195 l -34.8541,25.0945383"
   clip-path="none" /><path
   style="fill:#00509e"
   inkscape:connector-curvature="0"
   id="path95"
   d="m 504.40911,27.485422 -0.1369,0.117567 7.20205,56.479871 h 26.87791 l -31.39515,22.72327 2.93965,108.66789 165.20658,-0.24512 10.46508,5.14429 h 0.0648 l 28.72004,-20.83211 c 2.95926,-2.63579 7.56465,-4.38977 7.56465,-11.92501 l -0.0185,-0.38202 v -37.39202 c 0,-6.89828 -4.33103,-11.16077 -10.83739,-11.16077 h -24.78093 l 27.51477,-19.83255 -0.1369,-0.1369 h -0.0648 l -0.0277,0.1369 0.0277,0.11747 h 0.0648 c 0.14707,0 8.20151,-4.26249 8.24073,-12.04267 V 10.670809 c 0,-6.398577 -4.34084,-10.54343725 -11.08233,-10.54343725 H 548.28565 c -4.19385,0 -5.83998,0.1273725 -9.12253,2.13612095 L 504.26981,27.485422 v 0.117567 l 0.1369,-0.117567 0.0463,0.117567 34.84428,-25.094547 c 3.24333,-2.00873925 4.78179,-2.136121 8.98536,-2.253707 l 2.44968,0.1175675 h 160.08189 c 6.64353,0 10.84719,4.0272835 10.857,10.2984695 V 106.9237 c 0,3.89009 -2.00873,6.78071 -4.02727,8.78944 l -2.77305,2.25376 -0.91113,0.62716 -0.25437,0.11747 h -0.0648 l 0.0185,0.1369 v -0.1369 h -0.0185 l 0.0185,0.1369 v -0.1369 h -0.0648 l -0.0277,0.1369 0.0277,0.11747 h 0.0648 v -0.11747 h -0.098 l 0.098,0.11747 v -0.11747 h -0.098 0.098 l -0.0462,-0.1369 -28.05377,20.21476 h 25.50604 c 6.39859,0 10.60226,4.13503 10.61206,10.91574 v 37.77414 c -0.009,7.39805 -4.45841,9.03438 -7.4765,11.79763 l -28.59267,20.70474 -10.42586,-5.01692 h -0.0277 l -165.01066,0.12765 -2.93956,-108.30539 31.89484,-23.085821 -27.40701,0.117567 -7.18254,-56.470075 h -0.0981 l 0.0462,0.117567 -0.0462,-0.117567"
   clip-path="none" /><path
   style="fill:#ffffff"
   inkscape:connector-curvature="0"
   id="path97"
   d="M 613.85113,141.18006 V 97.51694 c 0,-3.517747 3.16498,-6.535754 7.04526,-6.535754 h 22.53708 c 3.89989,0 7.03545,3.018007 7.03545,6.535754 v 43.66312 c 0,3.64515 -3.13556,6.53577 -7.03545,6.53577 h -22.53708 c -3.88028,0 -7.04526,-2.89062 -7.04526,-6.53577"
   clip-path="none" /><path
   style="fill:#00509e"
   inkscape:connector-curvature="0"
   id="path99"
   d="m 614.22345,140.80775 h 1.37186 V 97.88929 c 0,-2.773039 2.41046,-5.144332 5.5167,-5.144332 h 22.10593 c 3.12576,0 5.51661,2.371293 5.54602,5.144332 v 42.91846 c -0.0277,2.75344 -2.42026,5.14429 -5.54602,5.14429 h -22.10593 c -3.10624,0 -5.5167,-2.39085 -5.5167,-5.14429 h -2.74364 c 0,4.50743 3.77252,7.90754 8.26034,7.90754 h 22.10593 c 4.51715,0 8.26025,-3.40011 8.26025,-7.90754 V 97.88929 c 0,-4.527015 -3.7431,-7.917371 -8.26025,-7.917371 h -22.10593 c -4.48782,0 -8.26034,3.390356 -8.26034,7.917371 v 42.91846 h 1.37178"
   clip-path="none" /><path
   style="fill:#ffffff"
   inkscape:connector-curvature="0"
   id="path101"
   d="m 503.81138,157.6223 v -43.54548 c 0,-3.63535 3.15517,-6.53577 7.04526,-6.53577 h 22.53707 c 3.9097,0 7.04535,2.90042 7.04535,6.53577 v 43.54548 c 0,3.64515 -3.13565,6.51616 -7.04535,6.51616 h -22.53707 c -3.89009,0.009 -7.04526,-2.86121 -7.04526,-6.51616"
   clip-path="none" /><path
   style="fill:#00509e"
   inkscape:connector-curvature="0"
   id="path103"
   d="m 504.16417,157.36756 h 1.37178 v -43.0458 c 0,-2.75345 2.41055,-5.01692 5.53631,-5.01692 h 22.11573 c 3.10615,0 5.5265,2.26347 5.5265,5.01692 v 43.0458 c 0,2.77306 -2.42035,5.02673 -5.5265,5.14439 h -22.11573 c -3.12576,-0.11748 -5.53631,-2.37133 -5.53631,-5.14439 h -2.74365 c 0.0277,4.39967 3.77252,7.78017 8.27996,7.78017 h 22.11573 c 4.47802,0 8.24073,-3.3805 8.26034,-7.78017 v -43.0458 c -0.0185,-4.38006 -3.78232,-7.78018 -8.26034,-7.78018 h -22.11573 c -4.50744,0 -8.25054,3.40012 -8.27996,7.78018 v 43.0458 h 1.37187"
   clip-path="none" /><path
   style="fill:#ffffff"
   inkscape:connector-curvature="0"
   id="path105"
   d="M 503.81138,76.047922 V 32.365194 c 0,-3.498146 3.15517,-6.516153 7.04526,-6.516153 h 22.53707 c 3.9097,0 7.04535,3.018007 7.04535,6.516153 v 43.682728 c 0,3.635333 -3.13565,6.516153 -7.04535,6.516153 h -22.53707 c -3.89009,0 -7.04526,-2.88082 -7.04526,-6.516153"
   clip-path="none" /><path
   style="fill:#00509e"
   inkscape:connector-curvature="0"
   id="path107"
   d="m 504.16417,75.793158 h 1.37178 V 32.747339 c 0,-2.753438 2.41055,-5.144332 5.53631,-5.144332 h 22.11573 c 3.10615,0 5.5265,2.390894 5.5265,5.144332 v 43.045819 c 0,2.635862 -2.42035,5.026746 -5.5265,5.026746 h -22.11573 c -3.12576,0 -5.53631,-2.390885 -5.53631,-5.026746 h -2.74365 c 0.0277,4.399633 3.77252,7.780194 8.27996,7.780194 h 22.11573 c 4.47802,0 8.24073,-3.380561 8.26034,-7.780194 V 32.747339 c -0.0185,-4.380032 -3.78232,-7.89777 -8.26034,-7.89777 h -22.11573 c -4.50744,0 -8.25054,3.517738 -8.27996,7.89777 v 43.045819 h 1.37187"
   clip-path="none" /><path
   style="fill:#ffffff"
   inkscape:connector-curvature="0"
   id="path109"
   d="M 540.51741,76.047922 V 32.365194 c 0,-3.498146 3.13557,-6.516153 7.02575,-6.516153 h 22.53707 c 3.89989,0 7.03545,3.018007 7.03545,6.516153 v 43.682728 c 0,3.635333 -3.13556,6.516153 -7.03545,6.516153 h -22.53707 c -3.89018,0 -7.02575,-2.88082 -7.02575,-6.516153"
   clip-path="none" /><path
   style="fill:#00509e"
   inkscape:connector-curvature="0"
   id="path111"
   d="m 540.8604,75.793158 h 1.37178 V 32.747339 c 0,-2.753438 2.40074,-5.144332 5.53631,-5.144332 h 22.08631 c 3.13566,0 5.54612,2.390894 5.54612,5.144332 v 43.045819 c 0,2.635862 -2.41046,5.026746 -5.54612,5.026746 h -22.08631 c -3.13557,0 -5.53631,-2.390885 -5.53631,-5.026746 h -2.74365 c 0.0278,4.399633 3.77252,7.780194 8.27996,7.780194 h 22.08631 c 4.50744,0 8.28976,-3.380561 8.28976,-7.780194 V 32.747339 c 0,-4.380032 -3.78232,-7.89777 -8.28976,-7.89777 h -22.08631 c -4.50744,0 -8.25054,3.517738 -8.27996,7.89777 v 43.045819 h 1.37187"
   clip-path="none" /><path
   style="fill:#ffffff"
   inkscape:connector-curvature="0"
   id="path113"
   d="M 577.18423,76.047922 V 32.365194 c 0,-3.498146 3.16507,-6.516153 7.04535,-6.516153 h 22.53707 c 3.87048,0 7.03546,3.018007 7.03546,6.516153 v 43.682728 c 0,3.635333 -3.16498,6.516153 -7.03546,6.516153 h -22.53707 c -3.88028,0 -7.04535,-2.88082 -7.04535,-6.516153"
   clip-path="none" /><path
   style="fill:#00509e"
   inkscape:connector-curvature="0"
   id="path115"
   d="m 577.53702,75.793158 h 1.37187 V 32.747339 c 0.009,-2.753438 2.41046,-5.144332 5.52641,-5.144332 h 22.10593 c 3.11605,0 5.5167,2.390894 5.5167,5.144332 v 43.045819 c 0,2.635862 -2.40065,5.026746 -5.5167,5.026746 H 584.4353 c -3.11595,0 -5.5167,-2.390885 -5.52641,-5.026746 h -2.73393 c 0,4.399633 3.77252,7.780194 8.26034,7.780194 h 22.10593 c 4.51724,0 8.26034,-3.380561 8.26034,-7.780194 V 32.747339 c 0,-4.380032 -3.7431,-7.89777 -8.26034,-7.89777 H 584.4353 c -4.48782,0 -8.26034,3.517738 -8.26034,7.89777 v 43.045819 h 1.36206"
   clip-path="none" /><path
   style="fill:#ffffff"
   inkscape:connector-curvature="0"
   id="path117"
   d="M 613.85113,76.047922 V 32.365194 c 0,-3.498146 3.16498,-6.516153 7.04526,-6.516153 h 22.53708 c 3.89989,0 7.03545,3.018007 7.03545,6.516153 v 43.682728 c 0,3.635333 -3.13556,6.516153 -7.03545,6.516153 h -22.53708 c -3.88028,0 -7.04526,-2.88082 -7.04526,-6.516153"
   clip-path="none" /><path
   style="fill:#00509e"
   inkscape:connector-curvature="0"
   id="path119"
   d="m 614.22345,75.793158 h 1.37186 V 32.747339 c 0,-2.753438 2.41046,-5.144332 5.5167,-5.144332 h 22.10593 c 3.12576,0 5.51661,2.390894 5.54602,5.144332 v 43.045819 c -0.0277,2.635862 -2.42026,5.026746 -5.54602,5.026746 h -22.10593 c -3.10624,0 -5.5167,-2.390885 -5.5167,-5.026746 h -2.74364 c 0,4.399633 3.77252,7.780194 8.26034,7.780194 h 22.10593 c 4.51715,0 8.26025,-3.380561 8.26025,-7.780194 V 32.747339 c 0,-4.380032 -3.7431,-7.89777 -8.26025,-7.89777 h -22.10593 c -4.48782,0 -8.26034,3.517738 -8.26034,7.89777 v 43.045819 h 1.37178"
   clip-path="none" /><path
   style="fill:#ffffff"
   inkscape:connector-curvature="0"
   id="path121"
   d="M 650.54736,76.047922 V 32.365194 c 0,-3.498146 3.14537,-6.516153 7.05507,-6.516153 h 22.52727 c 3.89008,0 7.03555,3.018007 7.03555,6.516153 v 43.682728 c 0,3.635333 -3.14547,6.516153 -7.03555,6.516153 h -22.52727 c -3.9097,0 -7.05507,-2.88082 -7.05507,-6.516153"
   clip-path="none" /><path
   style="fill:#00509e"
   inkscape:connector-curvature="0"
   id="path123"
   d="m 650.89035,75.793158 h 1.37178 V 32.747339 c 0.009,-2.753438 2.40065,-5.144332 5.53631,-5.144332 h 22.09612 c 3.14537,0 5.55583,2.390894 5.55583,5.144332 v 43.045819 c 0,2.635862 -2.41046,5.026746 -5.55583,5.026746 h -22.09612 c -3.13566,0 -5.52651,-2.390885 -5.53631,-5.026746 h -2.73384 c 0.0185,4.399633 3.78233,7.780194 8.27015,7.780194 h 22.09612 c 4.49763,0 8.27995,-3.380561 8.28967,-7.780194 V 32.747339 c -0.009,-4.380032 -3.79204,-7.89777 -8.28967,-7.89777 h -22.09612 c -4.48782,0 -8.25054,3.517738 -8.27015,7.89777 v 43.045819 h 1.36206"
   clip-path="none" /><path
   style="fill:#ffffff"
   inkscape:connector-curvature="0"
   id="path125"
   d="m 503.81138,214.34719 v -43.54558 c 0,-3.63534 3.15517,-6.51616 7.04526,-6.51616 h 22.53707 c 3.9097,0 7.04535,2.88082 7.04535,6.51616 v 43.54558 c 0,3.64515 -3.13565,6.65334 -7.04535,6.65334 h -22.53707 c -3.89009,-0.009 -7.04526,-3.00819 -7.04526,-6.65334"
   clip-path="none" /><path
   style="fill:#00509e"
   inkscape:connector-curvature="0"
   id="path127"
   d="m 504.16417,214.10225 h 1.37178 v -43.0459 c 0,-2.64559 2.41055,-5.02672 5.53631,-5.02672 h 22.11573 c 3.10615,0 5.5265,2.38113 5.5265,5.02672 v 43.0459 c 0,2.75344 -2.42035,5.14429 -5.5265,5.14429 h -22.11573 c -3.12576,0 -5.53631,-2.39085 -5.53631,-5.14429 h -2.74365 c 0.0277,4.38977 3.77252,7.89774 8.27996,7.89774 h 22.11573 c 4.49763,0 8.24073,-3.50797 8.26034,-7.89774 v -43.0459 c -0.0185,-4.39957 -3.78232,-7.78017 -8.26034,-7.78017 h -22.11573 c -4.50744,0 -8.25054,3.3806 -8.27996,7.78017 v 43.0459 h 1.37187"
   clip-path="none" /><path
   style="fill:#ffffff"
   inkscape:connector-curvature="0"
   id="path129"
   d="m 540.51741,214.34719 v -43.54558 c 0,-3.63534 3.13557,-6.51616 7.02575,-6.51616 h 22.53707 c 3.89989,0 7.03545,2.88082 7.03545,6.51616 v 43.54558 c 0,3.64515 -3.13556,6.65334 -7.03545,6.65334 h -22.53707 c -3.89018,-0.009 -7.02575,-3.00819 -7.02575,-6.65334"
   clip-path="none" /><path
   style="fill:#00509e"
   inkscape:connector-curvature="0"
   id="path131"
   d="m 540.8604,214.10225 h 1.37178 v -43.0459 c 0,-2.64559 2.40074,-5.02672 5.53631,-5.02672 h 22.08631 c 3.13566,0 5.54612,2.38113 5.54612,5.02672 v 43.0459 c 0,2.75344 -2.41046,5.14429 -5.54612,5.14429 h -22.08631 c -3.13557,0 -5.53631,-2.39085 -5.53631,-5.14429 h -2.74365 c 0.0278,4.38977 3.77252,7.89774 8.27996,7.89774 h 22.08631 c 4.50744,0 8.28976,-3.50797 8.28976,-7.89774 v -43.0459 c 0,-4.39957 -3.78232,-7.78017 -8.28976,-7.78017 h -22.08631 c -4.50744,0 -8.25054,3.3806 -8.27996,7.78017 v 43.0459 h 1.37187"
   clip-path="none" /><path
   style="fill:#ffffff"
   inkscape:connector-curvature="0"
   id="path133"
   d="m 577.18423,214.34719 v -43.54558 c 0,-3.63534 3.16507,-6.51616 7.04535,-6.51616 h 22.53707 c 3.87048,0 7.03546,2.88082 7.03546,6.51616 v 43.54558 c 0,3.64515 -3.16498,6.65334 -7.03546,6.65334 h -22.53707 c -3.88028,-0.009 -7.04535,-3.00819 -7.04535,-6.65334"
   clip-path="none" /><path
   style="fill:#00509e"
   inkscape:connector-curvature="0"
   id="path135"
   d="m 577.53702,214.10225 h 1.37187 v -43.0459 c 0.009,-2.64559 2.41046,-5.02672 5.52641,-5.02672 h 22.10593 c 3.11605,0 5.5167,2.38113 5.5167,5.02672 v 43.0459 c 0,2.75344 -2.40065,5.14429 -5.5167,5.14429 H 584.4353 c -3.11595,0 -5.5167,-2.39085 -5.52641,-5.14429 h -2.73393 c 0,4.38977 3.77252,7.89774 8.26034,7.89774 h 22.10593 c 4.51724,0 8.26034,-3.50797 8.26034,-7.89774 v -43.0459 c 0,-4.39957 -3.77252,-7.78017 -8.26034,-7.78017 H 584.4353 c -4.48782,0 -8.26034,3.3806 -8.26034,7.78017 v 43.0459 h 1.36206"
   clip-path="none" /><path
   style="fill:#ffffff"
   inkscape:connector-curvature="0"
   id="path137"
   d="m 613.85113,214.34719 v -43.54558 c 0,-3.63534 3.16498,-6.51616 7.04526,-6.51616 h 22.53708 c 3.89989,0 7.03545,2.88082 7.03545,6.51616 v 43.54558 c 0,3.64515 -3.13556,6.65334 -7.03545,6.65334 h -22.53708 c -3.88028,-0.009 -7.04526,-3.00819 -7.04526,-6.65334"
   clip-path="none" /><path
   style="fill:#00509e"
   inkscape:connector-curvature="0"
   id="path139"
   d="m 614.22345,214.10225 h 1.37186 v -43.0459 c 0,-2.64559 2.41046,-5.02672 5.5167,-5.02672 h 22.10593 c 3.12576,0 5.51661,2.38113 5.54602,5.02672 v 43.0459 c -0.0277,2.75344 -2.42026,5.14429 -5.54602,5.14429 h -22.10593 c -3.10624,0 -5.5167,-2.39085 -5.5167,-5.14429 h -2.74364 c 0,4.38977 3.77252,7.89774 8.26034,7.89774 h 22.10593 c 4.51715,0 8.26025,-3.50797 8.26025,-7.89774 v -43.0459 c 0,-4.39957 -3.7431,-7.78017 -8.26025,-7.78017 h -22.10593 c -4.48782,0 -8.26034,3.3806 -8.26034,7.78017 v 43.0459 h 1.37178"
   clip-path="none" /><path
   style="fill:#ffffff"
   inkscape:connector-curvature="0"
   id="path141"
   d="m 650.54736,214.34719 v -43.54558 c 0,-3.63534 3.14537,-6.51616 7.05507,-6.51616 h 22.52727 c 3.89008,0 7.03555,2.88082 7.03555,6.51616 v 43.54558 c 0,3.64515 -3.14547,6.65334 -7.03555,6.65334 h -22.52727 c -3.9097,-0.009 -7.05507,-3.00819 -7.05507,-6.65334"
   clip-path="none" /><path
   style="fill:#00509e"
   inkscape:connector-curvature="0"
   id="path143"
   d="m 650.89035,214.10225 h 1.37178 v -43.0459 c 0.009,-2.64559 2.40065,-5.02672 5.53631,-5.02672 h 22.09612 c 3.14537,0 5.55583,2.38113 5.55583,5.02672 v 43.0459 c 0,2.75344 -2.41046,5.14429 -5.55583,5.14429 h -22.09612 c -3.10624,0 -5.52651,-2.39085 -5.53631,-5.14429 h -2.73384 c 0.0185,4.38977 3.78233,7.89774 8.27015,7.89774 h 22.09612 c 4.49763,0 8.27995,-3.50797 8.28967,-7.89774 v -43.0459 c -0.009,-4.39957 -3.79204,-7.78017 -8.28967,-7.78017 h -22.09612 c -4.48782,0 -8.25054,3.3806 -8.27015,7.78017 v 43.0459 h 1.36206"
   clip-path="none" /><path
   style="fill:#ffffff"
   inkscape:connector-curvature="0"
   id="path145"
   d="M 650.54736,132.64536 V 89.099829 c 0,-3.635324 3.14537,-6.535754 7.05507,-6.535754 h 22.52727 c 3.89008,0 7.03555,2.90043 7.03555,6.535754 v 43.545531 c 0,3.64515 -3.14547,6.53577 -7.03555,6.53577 h -22.52727 c -3.9097,0 -7.05507,-2.89062 -7.05507,-6.53577"
   clip-path="none" /><path
   style="fill:#00509e"
   inkscape:connector-curvature="0"
   id="path147"
   d="m 650.89035,132.40042 h 1.37178 V 89.344797 c 0.009,-2.753439 2.40065,-5.016951 5.53631,-5.016951 h 22.09612 c 3.14537,0 5.55583,2.263512 5.55583,5.016951 v 43.055623 c 0,2.75345 -2.41046,5.00712 -5.55583,5.13449 h -22.09612 c -3.13566,-0.12765 -5.52651,-2.38104 -5.53631,-5.13449 h -2.73384 c 0.0185,4.38987 3.78233,7.77037 8.27015,7.77037 h 22.09612 c 4.49763,0 8.27995,-3.3805 8.28967,-7.77037 V 89.344797 c -0.009,-4.389828 -3.79204,-7.780185 -8.28967,-7.780185 h -22.09612 c -4.48782,0 -8.25054,3.390357 -8.27015,7.780185 v 43.055623 h 1.36206"
   clip-path="none" /><path
   style="fill:#ffffff"
   inkscape:connector-curvature="0"
   id="path149"
   d="m 577.18423,145.19752 v -43.54549 c 0,-3.635358 3.16507,-6.535779 7.04535,-6.535779 h 22.53707 c 3.87048,0 7.03546,2.900421 7.03546,6.535779 v 43.54549 c 0,3.64514 -3.16498,6.53577 -7.03546,6.53577 h -22.53707 c -3.88028,0 -7.04535,-2.89063 -7.04535,-6.53577"
   clip-path="none" /><path
   style="fill:#00509e"
   inkscape:connector-curvature="0"
   id="path151"
   d="m 577.53702,144.95258 h 1.37187 v -43.05561 c 0.009,-2.753445 2.41046,-5.007152 5.52641,-5.14433 h 22.10593 c 3.11605,0.137178 5.5167,2.390885 5.5167,5.14433 v 43.05561 c 0,2.75345 -2.40065,5.01692 -5.5167,5.01692 H 584.4353 c -3.11595,0 -5.5167,-2.26347 -5.52641,-5.01692 h -2.73393 c 0,4.38986 3.77252,7.77037 8.26034,7.77037 h 22.10593 c 4.51724,0 8.26034,-3.38051 8.26034,-7.77037 v -43.05561 c 0,-4.38003 -3.77252,-7.780191 -8.26034,-7.780191 H 584.4353 c -4.48782,0 -8.26034,3.400161 -8.26034,7.780191 v 43.05561 h 1.36206"
   clip-path="none" /><path
   style="fill:#ffffff"
   inkscape:connector-curvature="0"
   id="path153"
   d="M 540.51741,151.35117 V 107.8056 c 0,-3.63535 3.13557,-6.53578 7.02575,-6.53578 h 22.53707 c 3.89989,0 7.03545,2.90043 7.03545,6.53578 v 43.54557 c 0,3.64515 -3.13556,6.52597 -7.03545,6.52597 h -22.53707 c -3.89018,0 -7.02575,-2.88082 -7.02575,-6.52597"
   clip-path="none" /><path
   style="fill:#00509e"
   inkscape:connector-curvature="0"
   id="path155"
   d="m 540.8604,151.09643 h 1.37178 v -43.04589 c 0,-2.75345 2.40074,-5.01693 5.53631,-5.01693 h 22.08631 c 3.13566,0 5.54612,2.26348 5.54612,5.01693 v 43.04589 c 0,2.77296 -2.41046,5.02673 -5.54612,5.02673 h -22.08631 c -3.13557,0 -5.53631,-2.25377 -5.53631,-5.02673 h -2.74365 c 0.0278,4.39957 3.77252,7.78017 8.27996,7.78017 h 22.08631 c 4.50744,0 8.28976,-3.3806 8.28976,-7.78017 v -43.04589 c 0,-4.37997 -3.78232,-7.78016 -8.28976,-7.78016 h -22.08631 c -4.50744,0 -8.25054,3.40019 -8.27996,7.78016 v 43.04589 h 1.37187"
   clip-path="none" /><path
   style="fill:#00509e"
   inkscape:connector-curvature="0"
   id="path157"
   d="m 223.56773,137.53491 -34.11918,25.9863 -33.72716,3.0082 -15.45268,11.42532 v 9.27941 c 0.17667,7.78018 -4.13503,9.4067 -7.48621,12.29732 L 103.17075,220.36357 37.64671,220.2461 V 79.065938 H 2.7828125 L 1.09737,27.475626 35.931853,2.3810788 C 40.194345,-0.00980575 41.28196,0.24495775 47.42581,0.24495775 h 84.45528 -32.306462 77.027802 c 3.42953,0 6.36918,2.25370705 6.36918,5.89883595 V 12.91471 l 13.3459,-9.4067778 c 1.9499,-2.0087392 5.1541,-2.6358522 7.9859,-1.2542352 l 20.44018,9.416583 c 3.50797,1.626585 5.12478,5.653859 3.60593,8.907038 l -9.92608,21.341637 17.03998,-10.053501 c 3.14537,-1.753967 7.27068,-0.499685 9.21078,2.890625 l 11.26853,19.450484 c 1.95,3.262974 0.97005,7.52542 -2.16551,9.289192 l -20.6263,11.670281 0.5883,-0.127373 18.51961,8.66208 c 3.29235,1.508998 4.61519,5.526477 2.98858,9.044224 l -9.54396,20.322583 c -0.74463,1.63633 -2.00873,2.88082 -3.48836,3.50788 l 1.55797,-0.8621 -16.354,11.66055 v 1.63632 c 2.42027,3.39041 -1.30323,7.27069 -4.8112,8.90711 l 0.96024,-0.38203"
   clip-path="none" /><path
   style="fill:#00509e"
   inkscape:connector-curvature="0"
   id="path159"
   d="m 223.53832,137.53491 -0.0555,-0.12765 -34.09957,25.98621 -33.65862,3.01809 h -0.074 l -15.45258,11.40571 -0.037,0.1369 v 9.65173 c -0.0185,7.40786 -4.12522,9.03438 -7.44699,11.80744 l -29.56282,20.83211 -65.34764,-0.1369 V 79.065938 L 37.695365,78.92876 H 2.9295175 L 1.2343625,27.603017 36.010015,2.498674 c 3.782325,-2.00873925 5.007118,-2.12632525 9.51455,-2.12632525 h 86.366045 l 0.0648,-0.1273725 h 0.037 l -0.037,-0.1175675 H 99.49221 l -0.0185,0.1175675 h 0.0185 l 0.0925,0.1273725 h 77.0278 c 3.3708,0 6.2222,2.25370705 6.25162,5.77145425 v 6.770917 l 0.0463,0.127372 h 0.11747 l 13.36542,-9.416583 c 1.22488,-1.2444395 2.94945,-1.9891385 4.77198,-1.9891385 l 3.06702,0.7447175 20.44019,9.406778 c 2.57705,1.254245 4.10561,3.645129 4.10561,6.153609 l -0.57812,2.635852 -9.90647,21.20445 0.0185,0.137178 0.1369,0.117568 17.03998,-10.033901 3.06693,-0.754522 c 2.34191,0 4.67402,1.254235 5.99686,3.507942 l 11.25873,19.450484 c 0.666,1.126853 0.99947,2.390884 0.99947,3.645119 0,2.253707 -1.10723,4.380033 -3.11596,5.526487 l -20.61658,11.660485 -0.0462,0.24494 h 0.14707 l 0.51893,-0.117567 18.49019,8.534697 c 2.29289,1.136649 3.61573,3.390356 3.61573,5.898836 l -0.68635,3.145389 -9.53416,20.322638 c -0.74462,1.63633 -1.98912,2.76325 -3.42953,3.39031 l 0.0462,0.11747 0.0555,0.1369 1.54818,-0.88152 -0.0462,-0.11747 -0.0925,-0.1369 -16.3541,11.68016 -0.0463,0.11747 v 1.63633 h 0.0277 l 0.7548,2.38113 c 0.0185,2.63588 -2.81218,5.1541 -5.50689,6.3986 l -0.0647,0.24512 h 0.15725 l 0.96024,-0.3626 -0.0462,-0.1369 -0.0555,-0.12765 0.0555,0.12765 -0.037,-0.12765 -0.96033,0.38203 -0.074,0.12765 0.009,0.11747 h 0.15725 c 2.75344,-1.2444 5.64407,-3.88028 5.64407,-6.64353 l -0.7844,-2.50851 -0.0981,0.12765 h 0.11747 l -0.009,-1.63633 16.31488,-11.54289 0.0185,-0.2553 h -0.14708 l -1.53837,0.99947 -0.0463,0.1369 h 0.14708 c 1.48943,-0.6364 2.76325,-1.89107 3.5471,-3.51769 l 9.51464,-20.332422 0.70577,-3.262975 c 0,-2.50848 -1.37186,-5.01695 -3.7333,-6.026218 l -18.51961,-8.652283 h -0.0981 l -0.5587,0.117567 0.0463,0.127373 0.0462,0.117567 20.59689,-11.660485 c 2.08717,-1.254235 3.22381,-3.380561 3.22381,-5.771454 0,-1.254236 -0.31358,-2.518266 -1.00927,-3.762706 L 244.75393,34.6384 c -1.36206,-2.263503 -3.78232,-3.635324 -6.19287,-3.635324 l -3.17479,0.862285 -16.7264,9.671347 9.76939,-20.959482 0.5883,-2.635853 c 0,-2.50848 -1.5972,-5.144332 -4.24289,-6.408372 L 204.33449,2.1262228 201.16951,1.3717003 c -1.88136,0 -3.67447,0.7545225 -4.93858,2.0087392 L 183.08104,12.679437 V 6.1436828 c -0.009,-3.6451291 -2.99839,-6.01642205 -6.46714,-6.01642205 H 99.497945 l -0.0185,0.1175675 h 0.0185 l 0.0925,0.1273725 H 131.8969 l 0.0648,-0.1273725 h 0.037 l -0.037,-0.1175675 H 45.527063 c -4.497628,0 -5.830275,0.1175675 -9.632118,2.25370705 L 1.0408525,27.475515 l -0.04625,0.127372 1.714765,51.46293 0.108225,0.117568 H 37.593245 V 220.24591 l 0.108225,0.11748 h 65.55355 l 29.58233,-20.83211 c 3.28255,-2.63579 7.56465,-4.37997 7.55485,-11.92501 v -9.65173 l 15.39375,-11.29795 33.67824,-3.13556 h 0.0462 l 34.11918,-25.98631 0.0185,-0.12765 h -0.1369 l 0.037,0.12765"
   clip-path="none" /><path
   style="fill:#ffffff"
   inkscape:connector-curvature="0"
   id="path161"
   d="m 158.43562,170.67424 -16.81465,-35.51057 0.11747,36.25528 c 0,3.64515 -3.15518,6.53578 -7.02565,6.53578 H 112.1562 c -3.88028,0 -7.03546,-2.89063 -7.03546,-6.53578 V 32.247608 c 0,-3.635333 3.15518,-6.65334 7.03546,-6.65334 h 22.55668 c 3.87048,0 7.02565,3.018007 7.02565,6.65334 V 69.2672 l 17.16745,-36.764828 c 1.51876,-3.272771 5.63427,-4.644592 9.15195,-3.008211 l 20.43038,9.534169 c 3.51777,1.626585 5.13449,5.644063 3.59612,8.907038 L 182.15835,69.2672 199.21794,59.233309 c 3.14537,-1.763772 7.26079,-0.499778 9.22059,2.88082 l 11.25873,19.323092 c 1.93038,3.400162 0.97004,7.662608 -2.16552,9.416584 l -19.80323,11.542945 18.52941,8.54441 c 3.28255,1.63642 4.61519,5.63427 2.97878,9.15204 l -9.52436,20.33234 c -1.64622,3.51777 -5.65388,5.15419 -8.94623,3.64514 l -19.59742,-10.29848 10.06326,20.71454 c 1.51876,3.26303 -0.0981,7.28049 -3.62554,8.90701 l -20.42057,9.41659 c -4.18406,1.87155 -6.50636,0.61698 -8.75023,-2.1361"
   clip-path="none" /><path
   style="fill:#00509e"
   inkscape:connector-curvature="0"
   id="path163"
   d="m 158.46503,170.41949 1.2346,-0.62715 -16.7166,-35.39299 -1.52866,-0.74463 -1.07781,1.2543 0.11748,36.27489 c 0,2.75345 -2.44968,5.1443 -5.63427,5.1443 h -22.38028 c -3.18459,0 -5.62446,-2.39085 -5.63427,-5.1443 V 32.512177 c 0.009,-2.773049 2.44968,-5.154137 5.63427,-5.154137 h 22.38028 c 3.18459,0 5.63427,2.381088 5.63427,5.154137 v 36.882414 l 1.07781,1.264031 1.54826,-0.764328 17.04979,-36.51986 c 0.82325,-1.744171 2.6652,-2.753447 4.73276,-2.871024 l 2.54764,0.617345 20.30301,9.416574 c 2.1361,0.999472 3.36098,3.008211 3.36098,5.026746 l -0.44122,1.998943 -9.87715,21.204451 0.333,1.636389 1.5972,0.117568 16.96154,-9.906519 2.39093,-0.62715 c 1.85195,0 3.79214,1.126853 4.86994,3.018007 l 11.2098,19.323092 0.82325,2.88082 c -0.0185,1.881358 -0.8917,3.635334 -2.45948,4.517219 l -19.69547,11.425265 -0.67618,1.2445 0.79365,1.26401 18.41185,8.5347 c 1.7834,0.88152 2.85141,2.63578 2.85141,4.77198 l -0.5587,2.50842 -9.46553,20.20505 c -0.99946,2.1361 -3.04741,3.3805 -5.03662,3.3805 l -2.00873,-0.4995 -0.5883,1.25421 0.63732,-1.25421 -19.49946,-10.1515 -1.58739,0.23495 -0.28398,1.63642 9.99472,20.58707 0.44122,1.99902 c 0,1.88136 -1.23469,4.01746 -3.37079,5.02673 l -20.30301,9.40678 0.5883,1.25421 -0.53927,-1.25421 c -1.2248,0.4995 -2.19494,0.62716 -2.96897,0.62716 -1.5874,0 -2.69472,-0.74463 -4.13512,-2.38105 l -1.0582,0.87228 1.23459,-0.62715 -1.23459,0.62715 -1.0583,0.88152 c 1.56779,1.89117 3.55691,3.39031 6.25162,3.39031 1.2542,0 2.57705,-0.25437 4.04687,-0.87227 h 0.0185 l 20.32253,-9.54397 c 3.06702,-1.38158 4.93857,-4.39957 4.94838,-7.40777 l -0.70578,-3.26303 -8.1918,-16.81455 15.81519,8.28966 h 0.0463 l 3.18459,0.74463 c 3.10624,0 6.07522,-1.87156 7.50591,-5.01693 l 9.48514,-20.20496 c 0.5587,-1.2543 0.8325,-2.50851 0.8325,-3.63534 0,-3.018 -1.62661,-5.89882 -4.46821,-7.29029 l -16.02091,-7.39806 17.39277,-10.16122 c 2.48881,-1.508999 3.85087,-4.14486 3.83126,-6.908103 0,-1.371822 -0.38202,-2.880821 -1.17586,-4.272243 L 209.33541,61.613972 c -1.5874,-2.753448 -4.38006,-4.389828 -7.26088,-4.389828 -1.28363,0 -2.59666,0.382117 -3.77252,1.009267 l -13.1597,7.780194 8.0154,-17.314354 0.6956,-3.135602 c 0,-3.145388 -1.87155,-6.036013 -4.94838,-7.535216 L 168.59212,28.61185 c -1.19538,-0.499685 -2.45939,-0.744718 -3.69408,-0.744718 -3.0082,0 -5.88902,1.508999 -7.22166,4.380032 L 143.23306,63.122961 V 32.511733 c -0.0185,-4.399633 -3.82155,-7.91738 -8.37791,-7.91738 h -22.38029 c -4.55645,0 -8.3583,3.517747 -8.3681,7.91738 V 171.18336 c 0.009,4.38977 3.81165,7.78017 8.3681,7.78017 h 22.38029 c 4.55636,0 8.3583,-3.3904 8.37791,-7.78017 l -0.0925,-30.13114 14.06111,29.8665 0.1961,0.38202 1.05829,-0.88152"
   clip-path="none" /><path
   style="fill:#ffffff"
   inkscape:connector-curvature="0"
   id="path165"
   d="m 31.27753,75.793158 v -43.54555 c 0,-3.635333 3.16498,-6.65334 7.045263,-6.65334 h 22.53707 c 3.880282,0 7.035457,3.018007 7.035457,6.65334 v 43.54555 c 0,3.635324 -3.155175,6.535754 -7.035457,6.535754 h -22.53707 c -3.880283,0 -7.045263,-2.90043 -7.045263,-6.535754"
   clip-path="none" /><path
   style="fill:#00509e"
   inkscape:connector-curvature="0"
   id="path167"
   d="M 31.630232,75.54819 H 33.0021 V 32.502372 c 0.0093,-2.763244 2.410458,-5.144332 5.526413,-5.144332 H 60.63444 c 3.116048,0 5.546115,2.381088 5.546115,5.144332 V 75.54819 c 0,2.635862 -2.430067,5.01695 -5.546115,5.01695 H 38.528513 c -3.115955,0 -5.516608,-2.381088 -5.526413,-5.01695 h -2.733837 c 0,4.389828 3.762715,7.780194 8.26025,7.780194 H 60.63444 c 4.517238,0 8.260343,-3.390366 8.289757,-7.780194 V 32.502372 C 68.896448,28.112544 65.151678,24.594797 60.63444,24.594797 H 38.528513 c -4.497535,0 -8.26025,3.517747 -8.26025,7.907575 V 75.54819 h 1.36197"
   clip-path="none" /><path
   style="fill:#ffffff"
   inkscape:connector-curvature="0"
   id="path169"
   d="m 67.963955,75.793158 v -43.54555 c 0,-3.635333 3.135565,-6.65334 7.035458,-6.65334 h 22.546875 c 3.880282,0 7.035462,3.018007 7.035462,6.65334 v 43.54555 c 0,3.635324 -3.15518,6.535754 -7.035462,6.535754 H 74.999413 c -3.890088,0 -7.035458,-2.90043 -7.035458,-6.535754"
   clip-path="none" /><path
   style="fill:#00509e"
   inkscape:connector-curvature="0"
   id="path171"
   d="m 68.306853,75.54819 h 1.381672 V 32.502372 c 0,-2.763244 2.420263,-5.144332 5.526505,-5.144332 h 22.115733 c 3.106147,0 5.516607,2.381088 5.516607,5.144332 V 75.54819 c 0,2.635862 -2.41046,5.01695 -5.516607,5.01695 H 75.21503 c -3.106242,0 -5.526505,-2.381088 -5.526505,-5.01695 h -2.753447 c 0.02775,4.389828 3.782324,7.780194 8.279952,7.780194 h 22.115733 c 4.478017,0 8.260247,-3.390366 8.260247,-7.780194 V 32.502372 c 0,-4.389828 -3.78223,-7.907575 -8.260247,-7.907575 H 75.21503 c -4.497628,0 -8.250537,3.517747 -8.279952,7.907575 V 75.54819 h 1.371775"
   clip-path="none" /><path
   style="fill:#ffffff"
   inkscape:connector-curvature="0"
   id="path173"
   d="M 96.31169,110.05936 H 39.381085 c -4.74266,0 -8.573917,-2.39094 -8.573917,-5.27176 V 87.718212 c 0,-3.018007 3.831257,-5.399105 8.573917,-5.399105 H 96.31169 c 4.73276,0 8.56402,2.381098 8.56402,5.399105 V 104.7876 c 0,2.88082 -3.82145,5.27176 -8.56402,5.27176"
   clip-path="none" /><path
   style="fill:#00509e"
   inkscape:connector-curvature="0"
   id="path175"
   d="m 96.037335,109.80452 v -1.37178 h -56.37209 c -2.116585,0 -4.007747,-0.62715 -5.301175,-1.38167 -1.283623,-0.7548 -1.822528,-1.75398 -1.812722,-2.51822 V 87.98278 c -0.0093,-0.881895 0.539275,-1.763771 1.812722,-2.518275 1.293427,-0.881895 3.18459,-1.381627 5.301175,-1.381627 h 56.37209 c 2.106687,0 4.017465,0.499778 5.291275,1.381627 1.29343,0.754522 1.84214,1.636389 1.83234,2.518275 v 16.55007 c 0.009,0.76405 -0.53928,1.76379 -1.83234,2.51822 -1.27381,0.7548 -3.184587,1.38167 -5.291275,1.38167 v 2.63588 c 2.57705,0 4.928675,-0.62715 6.712075,-1.62661 1.79321,-1.12683 3.14537,-2.77306 3.14537,-4.90916 V 87.98278 c 0,-2.13613 -1.35216,-3.782316 -3.14537,-4.909169 -1.7834,-1.126854 -4.135025,-1.753967 -6.712075,-1.753967 h -56.37209 c -2.577142,0 -4.918965,0.627151 -6.721975,1.753967 -1.7834,1.126853 -3.135565,2.773039 -3.135565,4.909169 v 16.55007 c 0,2.1361 1.371775,3.78233 3.135565,4.90916 1.80301,0.99946 4.144833,1.62661 6.721975,1.62661 h 56.37209 v -1.2641"
   clip-path="none" /><path
   style="fill:#ffffff"
   inkscape:connector-curvature="0"
   id="path177"
   d="M 96.742833,137.79955 H 38.881308 c -4.497628,0 -8.142775,-2.39094 -8.142775,-5.27176 v -17.18696 c 0,-2.90043 3.645147,-5.27176 8.142775,-5.27176 h 57.861525 c 4.536757,0 8.162297,2.37133 8.162297,5.27176 v 17.18696 c 0,2.88082 -3.62554,5.27176 -8.162297,5.27176"
   clip-path="none" /><path
   style="fill:#00509e"
   inkscape:connector-curvature="0"
   id="path179"
   d="m 96.47819,137.53491 v -1.37178 H 39.175273 c -1.98912,0 -3.782325,-0.62715 -4.977795,-1.38167 -1.205183,-0.7548 -1.74418,-1.63632 -1.734375,-2.51822 v -16.68728 c -0.0092,-0.75479 0.5291,-1.75398 1.734375,-2.50841 1.19547,-0.7548 2.988675,-1.2543 4.977795,-1.2543 H 96.47819 c 1.999017,0 3.77252,0.4995 4.9778,1.2543 1.21508,0.7548 1.73437,1.75399 1.73437,2.50841 v 16.68728 c 0,0.88153 -0.51892,1.76379 -1.73437,2.51822 -1.20528,0.7548 -2.978783,1.38167 -4.9778,1.38167 v 2.75345 c 4.85042,-0.11747 9.27942,-2.50851 9.46562,-6.65334 v -16.68728 c 0,-1.99892 -1.29343,-3.76271 -3.018,-4.77198 C 101.21105,109.67715 98.957283,109.05 96.47819,109.05 H 39.175273 c -2.469288,0 -4.732763,0.62715 -6.447528,1.75398 -1.714857,1.00927 -2.99848,2.77306 -3.01809,4.77198 v 16.68728 c 0.185925,4.14483 4.634805,6.53577 9.465618,6.65334 H 96.47819 v -1.38167"
   clip-path="none" /><path
   style="fill:#ffffff"
   inkscape:connector-curvature="0"
   id="path181"
   d="M 96.742833,165.52994 H 38.881308 c -4.497628,0 -8.142775,-2.39094 -8.142775,-5.39913 v -17.0694 c 0,-3.00819 3.645147,-5.38932 8.142775,-5.38932 h 57.861525 c 4.536757,0 8.181907,2.38113 8.181907,5.38932 v 17.0694 c 0,3.00819 -3.64515,5.39913 -8.181907,5.39913"
   clip-path="none" /><path
   style="fill:#00509e"
   inkscape:connector-curvature="0"
   id="path183"
   d="m 96.47819,165.14773 v -1.37177 H 39.175273 c -1.98912,0 -3.782325,-0.4995 -4.977795,-1.26402 -1.205183,-0.74462 -1.74418,-1.75398 -1.734375,-2.5085 v -16.69709 c -0.0092,-0.87227 0.5291,-1.75389 1.734375,-2.49861 1.19547,-0.88152 2.988675,-1.38167 4.977795,-1.38167 H 96.47819 c 1.999017,0 3.77252,0.4995 4.9778,1.38167 1.21508,0.74463 1.73437,1.62662 1.73437,2.49861 v 16.69709 c 0.0185,0.7548 -0.51892,1.63641 -1.73437,2.5085 -1.20528,0.76405 -2.978783,1.26402 -4.9778,1.26402 v 2.75344 c 4.85042,0 9.28922,-2.39094 9.46562,-6.52596 v -16.69709 c 0,-2.1361 -1.29343,-3.76262 -2.99839,-4.88955 -1.73437,-1.12683 -3.988137,-1.75398 -6.46723,-1.75398 H 39.175273 c -2.469288,0 -4.732763,0.62715 -6.447528,1.75398 -1.714857,1.12693 -2.99848,2.75345 -3.01809,4.88955 v 16.69709 c 0.185925,4.13502 4.634805,6.52596 9.465618,6.52596 H 96.47819 v -1.38167"
   clip-path="none" /><path
   style="fill:#ffffff"
   inkscape:connector-curvature="0"
   id="path185"
   d="M 96.742833,193.26033 H 38.881308 c -4.497628,0 -8.142775,-2.39094 -8.142775,-5.38933 v -17.06939 c 0,-3.018 3.645147,-5.39904 8.142775,-5.39904 h 57.861525 c 4.536757,0 8.162297,2.38104 8.162297,5.39904 V 187.871 c 0,2.99839 -3.62554,5.38933 -8.162297,5.38933"
   clip-path="none" /><path
   style="fill:#00509e"
   inkscape:connector-curvature="0"
   id="path187"
   d="m 96.47819,192.88793 v -1.37178 H 39.175273 c -1.98912,0 -3.782325,-0.4995 -4.977795,-1.38167 -1.205183,-0.7548 -1.74418,-1.63633 -1.734375,-2.51822 v -16.68728 c -0.0092,-0.7548 0.5291,-1.75398 1.734375,-2.51822 1.19547,-0.74462 2.988675,-1.24449 4.977795,-1.24449 H 96.47819 c 1.999017,0 3.77252,0.4995 4.9778,1.24449 1.21508,0.76405 1.73437,1.76379 1.73437,2.51822 v 16.68728 c 0,0.88152 -0.51892,1.76379 -1.73437,2.51822 -1.20528,0.88152 -2.978783,1.38167 -4.9778,1.38167 v 2.75345 c 2.479093,0 4.73286,-0.62715 6.44762,-1.75399 1.72457,-1.13664 3.018,-2.76325 3.018,-4.89935 v -16.68728 c -0.18593,-4.14483 -4.6152,-6.52587 -9.46562,-6.52587 H 39.175272 c -4.830812,0 -9.279415,2.38104 -9.465617,6.52587 v 16.68728 c 0.0185,2.1361 1.303233,3.76271 3.01809,4.89935 1.714765,1.12684 3.97824,1.75399 6.447527,1.75399 H 96.47819 v -1.38167"
   clip-path="none" /><path
   style="fill:#ffffff"
   inkscape:connector-curvature="0"
   id="path189"
   d="m 96.723223,221.00053 h -57.83211 c -4.497628,0 -8.15258,-2.50851 -8.15258,-5.38933 v -17.19677 c 0,-2.89062 3.654952,-5.27166 8.15258,-5.27166 h 57.83211 c 4.507437,0 8.162287,2.38104 8.162287,5.27166 v 17.19677 c 0,2.88082 -3.65485,5.38933 -8.162287,5.38933"
   clip-path="none" /><path
   style="fill:#00509e"
   inkscape:connector-curvature="0"
   id="path191"
   d="m 96.439063,220.61841 v -1.37187 H 39.165467 c -1.979315,0 -3.77252,-0.63732 -4.96799,-1.38158 -1.205182,-0.7548 -1.74418,-1.63642 -1.734375,-2.51831 v -16.68728 c -0.0093,-0.7548 0.5291,-1.75389 1.734375,-2.49861 1.19547,-0.76405 2.988675,-1.26401 4.96799,-1.26401 h 57.273596 c 1.998925,0 3.782327,0.4995 4.967897,1.26401 1.20528,0.74463 1.74418,1.74418 1.73438,2.49861 v 16.68728 c 0.009,0.88152 -0.5291,1.76379 -1.73438,2.51831 -1.18557,0.74463 -2.968972,1.38158 -4.967897,1.38158 v 2.75345 c 2.479092,-0.11748 4.722957,-0.74463 6.457327,-1.74418 1.71477,-1.14644 2.97878,-2.90043 2.98859,-4.90916 v -16.68728 c -0.009,-2.00873 -1.27382,-3.76262 -2.98859,-4.77189 -1.73437,-1.12692 -3.978235,-1.75398 -6.457327,-1.75398 H 39.165467 c -2.459482,0 -4.732762,0.62715 -6.447527,1.75398 -1.714858,1.00927 -2.988675,2.76316 -3.008285,4.77189 v 16.68728 c 0.0185,2.00873 1.293427,3.76272 3.008285,4.90916 1.714765,0.99946 3.988045,1.62661 6.447527,1.74418 h 57.273596 v -1.38158"
   clip-path="none" /><path
   style="fill:#ffffff"
   inkscape:connector-curvature="0"
   id="path193"
   d="m 1.0288275,75.793158 v -43.54555 c 0,-3.635333 2.57705,-6.65334 5.732225,-6.65334 H 25.163095 c 3.155175,0 5.732225,3.018007 5.732225,6.65334 v 43.54555 c 0,3.635324 -2.57705,6.535754 -5.732225,6.535754 H 6.7610525 c -3.155175,0 -5.732225,-2.90043 -5.732225,-6.535754"
   clip-path="none" /><path
   style="fill:#00509e"
   inkscape:connector-curvature="0"
   id="path195"
   d="m 1.3718175,75.54819 h 1.38158 V 32.502372 c 0,-3.008211 2.04795,-5.144332 4.2330775,-5.144332 H 24.92796 c 2.17523,0 4.24279,2.136121 4.24279,5.144332 V 75.54819 c 0,2.88083 -2.06756,5.01695 -4.24279,5.01695 H 6.986475 c -2.1851275,0 -4.2330775,-2.13612 -4.2330775,-5.01695 H -5e-5 c 0.02775,4.144861 2.9885825,7.780194 6.986525,7.780194 H 24.92796 c 4.01746,0 6.957017,-3.635333 6.986433,-7.780194 V 32.502372 C 31.886643,28.23013 28.94542,24.722188 24.92796,24.594797 H 6.986475 C 2.9885325,24.722169 0.029365,28.23013 -5e-5,32.502372 V 75.54819 h 1.3718675"
   clip-path="none" /><path
   style="fill:#00509e"
   inkscape:connector-curvature="0"
   id="path197"
   d="M 105.14035,122.61151 V 80.819904 h 32.16919 c 11.5723,0 20.97909,9.416583 20.97909,20.832126 0,11.54289 -11.02359,20.95948 -22.5959,20.95948 h -30.55238"
   clip-path="none" /><path
   style="fill:#00509e"
   inkscape:connector-curvature="0"
   id="path199"
   d="m 105.15987,122.49385 h 0.12765 V 80.947286 h 32.02221 c 11.49386,0 20.79289,9.289201 20.8223,20.714554 -0.0277,11.41552 -10.95496,20.69484 -22.45872,20.69484 h -30.51325 v 0.1369 h 0.12765 -0.12765 v 0.12765 h 30.51325 c 11.63113,0 22.68405,-9.29903 22.68405,-20.95949 0,-11.552736 -9.43611,-20.959515 -21.04763,-20.959515 h -32.25744 v 41.919005 h 0.10823 v -0.12765"
   clip-path="none" /><path
   style="fill:#00509e"
   inkscape:connector-curvature="0"
   id="path201"
   d="m 764.33023,0.754494 c -11.66055,0 -20.68513,9.0344287 -20.68513,20.577328 0,11.542899 9.02458,20.587133 20.68513,20.587133 11.67026,0 20.66551,-9.044234 20.66551,-20.587133 0,-11.5428993 -8.99525,-20.577328 -20.66551,-20.577328 m 0,2.8808292 c 10.00443,0 17.4319,7.9075658 17.4319,17.6964988 0,9.788933 -7.42747,17.696508 -17.4319,17.696508 -9.99472,0 -17.46141,-7.907575 -17.46141,-17.696508 0,-9.788933 7.46669,-17.6964988 17.46141,-17.6964988 m -4.56627,19.0781248 h 4.92877 l 6.7415,10.543428 h 3.42962 l -7.1139,-10.543428 c 3.22381,-0.617345 6.00658,-2.508479 6.00658,-6.65334 0,-4.262446 -2.37124,-6.6533397 -7.77037,-6.6533397 H 756.8048 V 33.256876 h 2.95916 V 22.713448 z m 0,-2.508479 v -8.279925 h 5.38933 c 2.89062,0 5.67349,0.754522 5.67349,4.135064 0,4.017479 -3.57661,4.144861 -7.18254,4.144861 h -3.88028 z"
   clip-path="none" />
</svg>