<?xml version="1.0" encoding="UTF-8" standalone="no"?>
<svg
   xmlns:dc="http://purl.org/dc/elements/1.1/"
   xmlns:cc="http://creativecommons.org/ns#"
   xmlns:rdf="http://www.w3.org/1999/02/22-rdf-syntax-ns#"
   xmlns:svg="http://www.w3.org/2000/svg"
   xmlns="http://www.w3.org/2000/svg"
   xmlns:sodipodi="http://sodipodi.sourceforge.net/DTD/sodipodi-0.dtd"
   xmlns:inkscape="http://www.inkscape.org/namespaces/inkscape"
   version="1.1"
   id="Layer_1"
   x="0px"
   y="0px"
   width="540"
   height="319"
   viewBox="0 0 540 319"
   enable-background="new 0 0 612 792"
   xml:space="preserve">
<path
   d="m 67.515855,260.30452 c -2.61465,3.18701 -9.092737,10.7708 -30.85547,15.77896 -3.632542,0.84878 -7.252076,1.44716 -10.858602,2.21465 -0.06179,5.49271 -0.318701,18.45864 0.152846,23.04404 0.468296,4.70246 1.486188,5.88296 3.014653,7.72687 -4.643931,0.87155 -9.417943,1.81465 -14.055369,3.01466 -4.640679,1.20976 -8.7675329,2.57237 -14.03260523,4.29596 C 2.3187148,312.98126 3.76913,309.19587 4.2504337,300.06736 4.5496225,295.2966 4.5918992,290.8543 4.7577539,274.129 4.8553154,263.93381 5.0829591,240.80197 3.5057138,232.25232 2.5268461,226.91245 1.271554,225.30269 1.6495999e-6,223.44902 4.6179156,222.90917 22.100948,218.1189 39.466906,213.62457 c 11.655355,-3.09596 23.219652,-3.90247 29.535137,1.65204 7.216304,6.42605 7.252076,16.36107 7.206548,20.5302 -0.02602,3.15124 -0.136587,14.22123 -8.692736,24.49771 M 49.288103,227.71246 c -3.980511,-3.17401 -9.941523,-1.94798 -13.050485,-1.21302 -3.619534,0.85529 -6.601666,1.96424 -9.830953,3.28782 -0.195123,6.68948 -0.367482,11.03747 -0.422767,16.27002 -0.05529,6.27321 0.0065,12.51065 0.0748,18.618 2.578877,-0.37073 5.161007,-0.74472 9.954532,-1.87318 10.74478,-2.51709 17.684659,-9.43421 17.808237,-22.25054 0.07155,-6.66021 -2.087818,-10.90088 -4.533361,-12.8391"
   id="path7"
   inkscape:connector-curvature="0"
   style="fill:#004270" /><path
   d="m 87.655814,231.77427 c -1.443911,-3.2488 -2.900831,-4.89109 -4.458563,-5.65207 14.354557,-2.40001 17.053759,-2.29595 29.639199,-6.85207 -1.07643,2.64066 -2.13985,5.1545 -2.70896,9.54802 -0.84553,5.99679 -0.98537,20.11069 -1.04716,26.64407 -0.0488,5.49271 -0.18862,19.08954 0.013,25.05706 0.17236,9.3594 0.94635,10.80982 2.36099,13.33666 -3.14799,0.0878 -6.93988,0.1496 -12.813084,1.11871 -4.321977,0.71545 -8.89111,1.90245 -12.943167,3.15774 1.479683,-4.57238 2.022776,-6.88784 2.617902,-13.90252 0.604881,-8.98217 0.66667,-15.38221 0.822769,-30.93352 0.117074,-12.54967 -0.217888,-18.67654 -1.482936,-21.52208"
   id="path9"
   inkscape:connector-curvature="0"
   style="fill:#004270" /><path
   style="fill:#004270"
   inkscape:connector-curvature="0"
   id="path13"
   d="m 145.5586,278.84122 c 0.47155,5.68784 1.1057,7.44069 2.13335,9.93502 -3.66832,-0.10732 -7.74639,-0.0293 -14.04236,0.77399 -6.02931,0.78049 -8.26672,1.48618 -11.55454,2.47481 2.35448,-12.86187 2.40326,-17.69767 2.74473,-52.32877 0.0976,-9.40819 0.0423,-17.48954 -0.66667,-25.3595 -0.81302,-10.32202 -2.23741,-12.21471 -4.17564,-14.66676 11.40495,-2.00652 14.29602,-2.78376 26.02943,-7.95127 -0.62114,9.72689 -0.92684,13.81147 -1.20326,41.9092 -0.20163,20.26028 -0.18862,33.17418 0.73496,45.21328" /><path
   style="fill:#004270"
   inkscape:connector-curvature="0"
   id="path15"
   d="m 209.7411,213.81644 c 8.31225,-0.76749 10.296,-1.0992 18.36434,-3.42441 -0.28293,2.09432 -0.42927,3.93173 -0.45204,5.89271 -0.013,1.69758 0.0976,3.51872 0.34797,5.20979 -5.01466,-0.37398 -6.46508,-0.3252 -11.47324,-0.3935 1.67156,3.59027 3.09921,6.67647 3.04067,12.16268 -0.16585,16.98221 -15.79521,22.87168 -31.73677,24.04892 -4.47808,0.32196 -6.97891,0.26017 -10.53665,0.0358 -2.3805,1.63253 -6.22443,4.19514 -6.25045,7.07321 -0.0423,5.15775 6.00329,4.37726 28.00668,4.29921 12.38381,0.026 26.63105,0.78375 26.44894,18.56597 -0.15935,16.64725 -15.87002,29.8018 -40.90431,31.3823 -11.07324,0.70244 -17.10905,0.26667 -21.6977,-1.11871 -5.89922,-1.63253 -10.97567,-5.49596 -10.92039,-11.50576 0.0976,-9.96103 13.95456,-16.78058 17.78873,-18.65702 -3.27807,-0.35122 -8.13989,-0.92358 -11.65536,-4.07482 -2.60489,-2.20814 -4.01628,-5.44068 -3.98701,-8.83583 0.10406,-10.48136 13.18382,-17.32368 17.66514,-18.60824 -1.97399,-0.24715 -15.08952,-2.97562 -14.92692,-18.89767 0.15936,-16.31555 13.77245,-24.93349 32.21483,-26.23756 12.52366,-0.8748 18.6993,1.75286 20.66354,3.08295 m 0.51383,81.75008 c 0.0618,-6.80329 -6.25695,-7.54476 -10.07811,-7.71061 -3.02766,-0.27318 -20.01964,-0.12358 -23.96438,0.01 -2.66017,2.57238 -6.11385,6.15289 -6.16589,11.37893 -0.078,8.10737 8.83908,10.53015 18.98874,9.82445 11.06673,-0.78049 21.13508,-5.53174 21.21964,-13.50252 m -21.52534,-76.31916 c -7.24557,0.52033 -10.84884,6.06508 -10.9334,14.55294 -0.0846,8.50411 3.01466,14.09764 10.65373,13.54154 7.64882,-0.53333 10.35128,-7.33012 10.41957,-14.00333 0.0846,-9.00819 -2.49107,-14.62773 -10.1399,-14.09115" /><path
   d="m 264.41135,231.07833 c -5.85369,5.30084 -5.95776,15.63912 -6.00004,20.205 -0.0163,1.96424 -0.052,18.55296 0.56261,23.52534 0.61789,4.45206 1.91871,5.89272 3.74961,7.74314 -5.01791,-0.3122 -9.7594,-0.83903 -14.65049,-0.81301 -4.22442,0.0228 -8.3155,0.4748 -12.54642,0.9496 1.09269,-3.5545 1.90571,-5.7854 2.34148,-9.84397 0.59187,-6.01629 0.59838,-20.65703 0.70244,-31.63271 0.24391,-24.56925 -3.16099,-27.25219 -5.11873,-29.42456 12.80333,-0.25366 15.74644,-0.0976 26.99854,-3.06018 -0.90082,8.51062 -0.93009,10.14965 -1.15123,19.68792 1.21302,-2.86506 2.42278,-5.60979 7.22281,-10.25047 7.60005,-7.35289 13.94155,-8.0781 19.62288,-8.53338 -2.0618,8.55289 -2.47156,10.37079 -3.63254,20.00337 -2.6244,-0.99513 -5.25531,-1.98375 -8.55615,-2.05855 -4.61791,-0.10081 -7.80817,1.82115 -9.54477,3.50246"
   id="path17"
   inkscape:connector-curvature="0"
   style="fill:#004270" /><path
   d="m 294.30421,217.50426 c -1.15122,-3.44717 -2.59188,-4.6862 -4.16588,-5.7854 14.64399,0.61139 16.88141,0.62765 29.56441,-1.14147 -1.07968,2.40327 -2.15611,4.68621 -2.72197,8.96266 -0.85204,5.82768 -0.99838,19.93833 -1.06017,26.4717 -0.0585,5.49597 -0.18862,19.08304 0.0228,25.11235 0.16585,9.4277 0.93659,11.04722 2.37074,13.88951 -3.16424,-0.60488 -6.98215,-1.38862 -12.91715,-1.72358 -4.34799,-0.24391 -8.97241,-0.0716 -13.06349,0.28292 1.49269,-4.25043 2.04879,-6.44881 2.64067,-13.35617 0.61789,-8.86185 0.67967,-15.26514 0.83252,-30.8132 0.12033,-12.54967 -0.0943,-17.78547 -1.50245,-21.89932"
   id="path19"
   inkscape:connector-curvature="0"
   style="fill:#004270" /><path
   d="m 387.27063,220.1742 c 9.13176,4.89759 9.83745,11.98706 10.20168,15.04724 1.33334,-2.27318 2.5236,-4.18214 5.44394,-6.5789 6.18215,-4.86832 12.6017,-5.79841 18.97572,-4.6049 4.16913,0.78049 7.28135,2.05529 9.48624,3.27481 11.26836,6.20492 11.15779,17.07002 11.11551,21.75623 -0.0943,10.36754 -0.20813,20.73509 -0.30244,31.10588 -0.18537,18.03588 0.84554,18.9367 3.02441,21.6359 -4.79027,-1.43415 -9.45697,-2.92359 -14.13667,-3.85368 -4.17238,-0.82602 -8.46509,-1.25854 -12.26024,-1.43415 2.39026,-3.22929 3.04718,-4.53987 3.36263,-10.11714 0.32195,-5.04068 0.36097,-8.99192 0.41626,-14.08789 0.0293,-3.53173 0.0163,-15.057 -0.0553,-19.78223 -0.0976,-4.45856 -0.26016,-13.18057 -10.18217,-14.94968 -2.08457,-0.37074 -6.51711,-0.87481 -10.08787,2.07481 -4.36425,3.60652 -4.40328,8.97241 -4.49108,16.8131 -0.0228,2.22441 -0.19187,7.42769 -0.28618,16.17896 -0.17236,17.51881 1.12196,18.64077 3.05042,21.44078 -5.08295,-1.21952 -9.79518,-2.47156 -14.62448,-3.1805 -4.19514,-0.61464 -8.2537,-0.78375 -12.19844,-0.78375 1.59675,-2.00977 3.69758,-2.51058 3.89921,-23.55461 0.15284,-14.63424 0.64065,-24.51072 -0.49431,-28.19855 -1.77888,-6.13337 -6.63094,-7.03418 -8.86835,-7.31061 -3.8049,-0.4748 -8.27973,0.43903 -10.93015,2.75774 -3.99027,3.47645 -4.43254,9.84722 -4.5984,25.39853 -0.25041,25.47983 0.68293,25.71072 2.34798,28.77416 -4.45856,-0.88781 -8.91712,-1.7431 -13.3887,-2.16912 -4.2114,-0.40326 -8.43257,-0.38049 -12.64723,-0.33171 2.6862,-5.79516 3.36588,-7.43419 3.78214,-49.51575 0.16585,-16.98547 -3.09921,-19.10255 -5.97402,-21.67493 2.36424,0.31545 4.73824,0.64391 6.9724,0.82928 8.54639,0.74147 14.35131,-0.36423 20.42289,-1.67156 -0.72521,6.33175 -1.0179,8.52688 -1.22277,15.95782 1.34634,-2.59839 2.55611,-4.6862 5.33661,-6.99191 4.77727,-4.0423 12.02934,-6.04882 19.89281,-4.96913 3.26831,0.44878 6.28296,1.26504 9.01794,2.71546"
   id="path21"
   inkscape:connector-curvature="0"
   style="fill:#004270" /><path
   d="m 448.75718,240.04749 c 6.86182,-8.34477 11.36267,-17.01149 10.40656,-27.98716 6.77728,1.61952 11.77893,2.4553 15.9188,3.06343 -4.13661,11.72365 -8.709,17.80824 -19.5741,26.11073 -2.25042,-0.41626 -3.63905,-0.72196 -6.75126,-1.187"
   id="path23"
   inkscape:connector-curvature="0"
   style="fill:#004270" /><path
   d="m 475.38823,237.87837 c 5.30735,-1.01789 12.64398,0.1561 17.64238,1.55448 7.05696,1.96099 12.41959,4.84556 18.03263,7.85046 -2.26343,5.40816 -2.98538,8.78054 -2.83579,14.8261 -4.30572,-5.62605 -10.30575,-9.34314 -16.47164,-11.04722 -8.4716,-2.32522 -8.53013,3.48945 -8.53013,3.87645 -0.0423,4.07482 3.79189,7.57403 11.19681,13.59683 8.29273,6.78052 17.82125,14.67 17.69442,27.80829 -0.13659,12.5139 -9.9025,19.94809 -27.90586,15.09603 -10.15616,-2.71221 -17.36596,-6.20166 -24.71885,-9.79193 2.26343,-5.91223 2.66993,-7.39842 4.02929,-14.44236 5.51548,4.62767 10.90738,9.00168 18.24076,10.9399 6.17565,1.63903 10.18218,-0.53334 10.2212,-4.47482 0.0748,-6.58216 -9.54152,-12.22447 -12.73503,-14.62123 -7.55452,-5.68133 -16.41962,-13.61309 -16.3123,-25.16438 0.0748,-7.34964 3.78214,-14.2635 12.45211,-16.0066"
   id="path25"
   inkscape:connector-curvature="0"
   style="fill:#004270" /><path
   d="m 108.33561,205.992 c 0,6.30248 -5.02767,11.41145 -11.239089,11.41145 -6.201663,0 -11.232588,-5.10897 -11.232588,-11.41145 0,-6.30573 5.030925,-11.4147 11.232588,-11.4147 6.211419,0 11.239089,5.10897 11.239089,11.4147"
   id="path27"
   inkscape:connector-curvature="0"
   style="fill:#004270" /><path
   d="m 316.9385,194.62933 c 0,6.30248 -5.03418,11.4082 -11.2391,11.4082 -6.20491,0 -11.23584,-5.10572 -11.23584,-11.4082 0,-6.30248 5.03093,-11.41145 11.23584,-11.41145 6.20492,0 11.2391,5.10897 11.2391,11.41145"
   id="path29"
   inkscape:connector-curvature="0"
   style="fill:#004270" /><path
   d="m 470.15243,184.41463 c -65.48983,-23.57737 -133.9,-35.97745 -202.46301,-37.20998 16.83587,-29.43432 17.85051,-52.745029 11.39519,-72.097991 -20.49118,-61.428012 -72.79394,-53.362923 -87.07695,-40.497805 16.35132,-5.574017 27.9644,-1.704075 29.52863,-1.12521 -22.85867,2.048793 -45.91247,18.00336 -44.55961,49.132003 13.01796,-22.221272 60.19548,-35.258749 82.42976,6.731748 8.09436,15.284645 9.16754,35.583955 0.0163,57.762945 -73.39881,-0.36097 -146.83991,12.06837 -216.934638,37.30429 0.292685,2.18213 0.201628,3.70409 0,5.59353 120.026738,-43.21001 309.803488,-42.42952 427.664368,0 -0.16911,-2.34147 -0.16911,-3.43416 0,-5.59353"
   id="path31"
   inkscape:connector-curvature="0"
   style="fill:#e82b2e" /><path
   d="m 249.54947,25.776281 c 5.48947,-4.000025 5.79841,-4.172383 11.47975,-8.22444 -3.15124,5.401658 -2.91059,11.52202 -0.73822,14.787081 L 272.15449,8.6249578 c -5.76589,-3.2195316 -19.405,-5.1545026 -29.80506,6.2764602 5.148,-0.627646 10.00981,-1.222771 14.45537,-1.752856 -5.95776,3.912219 -6.94313,9.11225 -7.25533,12.627719"
   id="path33"
   inkscape:connector-curvature="0"
   style="fill:#e82b2e" /><path
   d="m 291.00988,109.61418 c 33.41809,-48.227929 26.67334,-76.657368 2.70246,-90.198913 2.36099,-7.346386 1.30732,-14.081386 1.30732,-14.081386 L 283.68301,17.112814 279.709,5.156e-4 270.09594,19.220144 c 0,0 7.78216,29.792049 20.91394,90.394036"
   id="path35"
   inkscape:connector-curvature="0"
   style="fill:#e82b2e" /><polygon
   points="387.39,113.479 387.39,113.031 390.589,113.031 390.589,113.479 389.256,113.479 389.256,117.031 388.724,117.031 388.724,113.479 "
   id="polygon37"
   style="fill:#004270"
   transform="matrix(3.2520521,0,0,3.2520521,-744.64188,-117.07336)" /><polygon
   points="394.296,113.031 395.025,113.031 395.025,117.031 394.52,117.031 394.52,113.703 394.509,113.703 393.26,117.031 392.806,117.031 391.557,113.703 391.546,113.703 391.546,117.031 391.042,117.031 391.042,113.031 391.77,113.031 393.03,116.392 "
   id="polygon39"
   style="fill:#004270"
   transform="matrix(3.2520521,0,0,3.2520521,-744.64188,-117.07336)" />
</svg>