<?xml version="1.0" encoding="utf-8"?>
<!-- Generator: Adobe Illustrator 13.0.2, SVG Export Plug-In  -->
<!DOCTYPE svg PUBLIC "-//W3C//DTD SVG 1.1//EN" "http://www.w3.org/Graphics/SVG/1.1/DTD/svg11.dtd" [
	<!ENTITY ns_flows "http://ns.adobe.com/Flows/1.0/">
]>
<svg version="1.1"
	 xmlns="http://www.w3.org/2000/svg" xmlns:xlink="http://www.w3.org/1999/xlink" xmlns:a="http://ns.adobe.com/AdobeSVGViewerExtensions/3.0/"
	 x="0px" y="0px" width="387px" height="57px" viewBox="-0.3457 -0.1274 387 57" enable-background="new -0.3457 -0.1274 387 57"
	 xml:space="preserve">
<defs>
</defs>
<path fill="#A90533" d="M64.5635,20.4316c-1.4238,4.0181-10.3975,8.2153-32.438,3.2329l2.8667,13.0166
	c22.0405,4.0059,35.105,0.7114,42.5669-7.1226c5.5273-5.8062,6.6104-13.3169,2.0688-19.0635C74.8247,4.4111,64.1851,0,50.748,0
	C31.5269,0,17.8306,5.5688,10.2266,26.4648L0,54.5596h17.8882l10.1753-28.4141C32.2378,14.459,41.0112,12.5239,50.748,12.5239
	C60.958,12.5239,65.8872,16.729,64.5635,20.4316z"/>
<path fill="#A90533" d="M241.6816,32.7627l-0.6924-0.2983c4.0029-1.5957,8.3477-2.459,12.6641-2.459
	c2.6201,0,8.4463,0.4443,10.9014,1.8491c0.5977,0.3359,1.1445,0.8633,0.8516,1.5195
	C264.3223,35.8179,248.3662,35.6812,241.6816,32.7627z M274.3574,26.1929c-4.2285-2.2603-11.1992-4.063-18.0156-4.3413
	c-14.1426-0.583-30.2637,4.2417-33.4756,15.6426c-1.8545,6.5581,4.501,15.417,21.0498,17.9302
	c8.2813,1.27,21.4365,0.9482,30.9053-2.1802l3.5352-9.7334c-19.2021,6.5986-44.2979,4.6826-43.458-5.2007
	c9.291,5.9595,22.8457,5.3945,32.8828,3.75C285.168,39.2227,284.9141,31.8335,274.3574,26.1929z"/>
<path fill="#A90533" d="M303.6689,32.7627l-0.6846-0.2983c3.999-1.5957,8.3467-2.459,12.6563-2.459
	c2.6299,0,8.4473,0.4443,10.9043,1.8491c0.5967,0.3359,1.1436,0.8633,0.8496,1.5195
	C326.3105,35.8179,310.3613,35.6812,303.6689,32.7627z M336.3457,26.1929c-4.2227-2.2603-11.1992-4.063-18.0156-4.3413
	c-14.1348-0.583-30.2568,4.2417-33.4766,15.6426c-1.8486,6.5581,4.5088,15.417,21.0508,17.9302
	c8.2793,1.27,21.4434,0.9482,30.9092-2.1802l3.5381-9.7334c-19.2021,6.5986-44.2959,4.6826-43.459-5.2007
	c9.291,5.9595,22.8457,5.3945,32.877,3.75C347.1543,39.2227,346.9102,31.8335,336.3457,26.1929z"/>
<path fill="#A90533" d="M349.4014,34.5601l-7.0938,20.0063h16.376l5.459-15.3945c1.3418-3.9053,2.4805-6.8257,7.2559-6.8257h11.5059
	l3.2246-9.2178h-21.1953C357.8438,23.1284,352.1289,26.6445,349.4014,34.5601z"/>
<polygon fill="#A90533" points="75.0776,54.5664 92.0317,54.5664 103.4907,23.1284 86.5366,23.1284 "/>
<path fill="#A90533" d="M185.0928,37.6504c1.5762-4.3252,6.3423-6.3276,10.5156-6.3276c4.1377,0,8.0991,2.438,6.5659,6.6489
	l-6.0532,16.5947h16.375l6.1445-16.8564c3.1875-8.7544-3.7168-16.0059-19.1797-16.0059c-17.2139,0-26.9712,5.6255-30.7319,15.9268
	l-6.1689,16.9355h16.3677L185.0928,37.6504z"/>
<path fill="#A90533" d="M134.5796,31.6416c6.6177,0.2788,11.9502,3.6089,10.9995,7.9341
	c-0.9116,4.1699-7.3608,7.0093-14.0542,6.7236c-6.6157-0.2744-11.9434-3.6187-11.0005-7.9419
	C121.4414,34.1953,127.8882,31.3506,134.5796,31.6416z M136.8867,21.8682c-17.0547-0.7241-32.2505,6.5669-34.2944,15.8882
	c-2.0146,9.1733,9.5059,17.5884,26.626,18.3125c17.0508,0.7256,32.252-6.5635,34.2988-15.8887
	C165.5259,31.0078,154.0059,22.5874,136.8867,21.8682z"/>
</svg>
