<?xml version="1.0" encoding="UTF-8" standalone="no"?>
<!-- Created with Inkscape (http://www.inkscape.org/) -->

<svg xmlns:dc="http://purl.org/dc/elements/1.1/" xmlns:cc="http://creativecommons.org/ns#" xmlns:rdf="http://www.w3.org/1999/02/22-rdf-syntax-ns#" xmlns:svg="http://www.w3.org/2000/svg" xmlns="http://www.w3.org/2000/svg" xmlns:sodipodi="http://sodipodi.sourceforge.net/DTD/sodipodi-0.dtd" xmlns:inkscape="http://www.inkscape.org/namespaces/inkscape" width="1457.6509" height="308.92746" id="svg2998" version="1.1" inkscape:version="0.48.1 " sodipodi:docname="Nouveau document 2">
  <defs id="defs3000" />
  <sodipodi:namedview id="base" pagecolor="#ffffff" bordercolor="#666666" borderopacity="1.0" inkscape:pageopacity="0.0" inkscape:pageshadow="2" inkscape:zoom="0.35" inkscape:cx="375.25404" inkscape:cy="-222.93734" inkscape:document-units="px" inkscape:current-layer="layer1" showgrid="false" fit-margin-top="0" fit-margin-left="0" fit-margin-right="0" fit-margin-bottom="0" inkscape:window-width="1366" inkscape:window-height="716" inkscape:window-x="-8" inkscape:window-y="-8" inkscape:window-maximized="1" />
  <metadata id="metadata3003">
    <rdf:RDF>
      <cc:Work rdf:about="">
        <dc:format>image/svg+xml</dc:format>
        <dc:type rdf:resource="http://purl.org/dc/dcmitype/StillImage" />
        <dc:title></dc:title>
      </cc:Work>
    </rdf:RDF>
  </metadata>
  <g inkscape:label="Calque 1" inkscape:groupmode="layer" id="layer1" transform="translate(0.25403714,-0.49735571)">
    <path id="text5326" d="M 1457.3969,58.488161 C 1457.3969,74.472485 1451.9328,87.928747 1441.0045,98.857027 1430.0709,109.78528 1416.2066,115.24941 1399.4008,115.24941 H 154.86157 V 309.42482 H -0.25403714 V 0.49735571 H 1399.4061 C 1415.3692,0.49735571 1429.0216,6.173491 1440.3685,17.525735 1451.7155,28.877979 1457.3969,42.530369 1457.3969,58.488161 L 1457.3969,58.488161 z M 1432.1962,309.4195 H 1342.6502 V 148.03419 H 1432.1962 V 309.4195 z M 1307.3585,309.4195 H 1127.0422 V 148.03419 H 1216.5512 V 272.86655 H 1307.3638 V 309.4195 z M 1098.0256,309.4195 H 917.70932 V 148.03419 H 1007.25 V 272.86655 H 1098.0309 V 309.4195 z M 859.71323,309.4195 H 662.99923 V 148.03419 H 859.71323 V 187.09399 H 751.27329 V 209.79319 H 859.71323 V 250.16203 H 751.27329 V 272.86124 H 859.71323 V 309.4195 z M 608.78193,309.4195 H 507.92607 L 481.44808,257.69838 H 452.43145 V 309.4195 H 362.92781 V 148.03419 H 547.01762 C 565.51405,148.03419 580.4331,153.28634 591.76943,163.79591 603.10577,174.29489 608.77664,187.53386 608.77664,203.48108 608.77664,225.3429 599.12031,241.3272 579.80241,251.42869 L 608.78193,309.4195 z M 301.12643,309.4195 H 211.5804 V 148.03419 H 301.12643 V 309.4195 z M 1245.5624,58.488161 C 1245.5624,45.895762 1239.6744,39.594251 1227.8981,39.594251 H 154.86157 V 76.147228 H 1227.8981 C 1239.6744,76.152513 1245.5624,70.264396 1245.5624,58.488161 L 1245.5624,58.488161 z M 520.54494,200.98486 C 520.54494,190.0513 514.65683,184.58717 502.88062,184.58717 L 452.43145,183.3152 V 217.37196 H 502.88062 C 514.65683,217.37196 520.54494,211.91312 520.54494,200.98486 L 520.54494,200.98486 z" inkscape:connector-curvature="0" style="fill:#ed3223" />
  </g>
</svg>
