<?xml version="1.0" encoding="utf-8"?>
<!-- Generator: Adobe Illustrator 13.0.0, SVG Export Plug-In . SVG Version: 6.00 Build 14948)  -->
<!DOCTYPE svg PUBLIC "-//W3C//DTD SVG 1.1//EN" "http://www.w3.org/Graphics/SVG/1.1/DTD/svg11.dtd">
<svg version="1.1" id="Layer_1" xmlns="http://www.w3.org/2000/svg" xmlns:xlink="http://www.w3.org/1999/xlink" x="0px" y="0px"
	 width="600px" height="240px" viewBox="0 0 600 240" enable-background="new 0 0 600 240" xml:space="preserve">
<g id="_x23_ffffffff">
</g>
<g id="_x23_000000ff">
	<path d="M117.573,137.057c4.867-3.026,10.782-2.443,16.251-2.58c0.757,4.945,0.622,9.97,0.446,14.953
		c16.233-16.563,43.814-20.324,63.517-7.836c6.712,3.997,10.533,10.997,15.826,16.485c0.292-7.29,0.292-14.583,0.155-21.856
		c10.048-0.079,20.093,0,30.139-0.099c0.019,3.279,0.019,6.576,0.118,9.872c4.402-3.684,8.513-8.106,14.139-9.909
		c11.889-4.247,26.879-0.118,33.357,11.133c10.493-15.049,35.472-17.629,47.633-3.474c3.702,4.87,4.693,11.213,4.771,17.187
		c0,21.254-0.099,42.531,0.02,63.786c-10.938-0.175-21.878-0.058-32.815-0.117c-0.02-19.858,0.465-39.776-0.233-59.637
		c-1.203-8.047-14.12-6.536-15.09,0.951c-1.899,19.509-1.181,39.158-0.833,58.745c-10.938-0.06-21.838-0.098-32.756,0
		c0.134-18.018-0.019-36.054,0.038-54.071c0.311-3.976-1.337-7.662-3.064-11.112c-4.731-0.311-11.675-0.506-12.179,5.779
		c-0.776,19.801-0.661,39.563-0.407,59.386c-10.959,0-21.936-0.079-32.893,0c0.213-6.012,0.116-12.006-0.039-17.999
		c-4.616,4.208-8.398,9.407-13.887,12.547c-12.665,7.74-28.412,8.031-42.571,5.296c-16.716-3.491-30.196-18.172-32.486-35.064
		c-2.248-8.088,0.563-16.255,0.991-24.398c-3.239,0.814-6.943,1.087-9.408,3.605c-4.053,4.035-4.42,10.223-4.52,15.596
		c0.059,13.478,0,26.979,0.059,40.456c-11.133-0.038-22.264-0.271-33.397,0.154c-0.35-14.098-0.155-28.219-0.136-42.338
		c-7.718,15.459-26.55,16.971-41.775,15.807c-0.097,8.804-0.271,17.631-0.019,26.455c-9.968-0.215-19.919-0.157-29.868-0.078
		c0.233-29.459,0.155-58.938,0.078-88.4c18.25,0.563,36.85-1.841,54.848,1.958c8.824,1.514,13.266,9.66,16.601,17.068
		c0.059-6.245,0.136-12.49,0.117-18.753c9.639,0.056,19.277-0.02,28.918,0.075c-0.136,5.044-0.214,10.088-0.059,15.11
		C110.086,146.539,112.007,140.159,117.573,137.057 M162.877,157.13c-3.49,3.317-3.335,8.378-3.898,12.78
		c8.32-0.038,16.622,0.019,24.942-0.058c-0.736-3.803-0.698-7.971-2.967-11.269C176.901,152.999,167.903,152.708,162.877,157.13
		 M34.991,158.079c0.252,5.819,0.271,11.657,0.019,17.493c5.837-0.349,12.702,1.573,17.455-2.85
		c3.006-3.373,2.851-8.456,0.059-11.907C47.83,156.276,40.81,158.661,34.991,158.079 M159.464,187.19
		c0.485,3.842-0.232,8.281,2.502,11.481c3.744,5.413,11.385,5.103,17.047,3.53c3.841-1.688,5.237-5.992,7.062-9.424
		c9.25,0.289,18.5,0.773,27.693,1.938c0-1.863,0.04-5.587,0.04-7.448C195.694,187.229,177.579,187.249,159.464,187.19z"/>
	<path d="M380.27,153.95c15.052-21.141,47.438-25.875,68.405-11.018c5.119,3.299,7.894,8.94,12.393,12.916
		c-0.212-6.534-0.155-13.073-0.349-19.587c9.658-0.155,19.298-0.118,28.955,0c-0.097,5.158-0.212,10.337-0.057,15.496
		c3.218-4.966,4.653-11.54,10.2-14.565c4.965-3.529,11.23-2.658,16.931-2.56c-0.02,4.401-0.057,8.823,0.1,13.246
		c12.525-10.881,29.905-16.604,46.313-12.588c12.646,2.347,24.281,10.474,29.81,22.226c4.731,8.999,5.198,19.337,5.586,29.267
		c-19.435,1.165-38.943-0.02-58.397,0.622c-0.329,7.581,4.189,16.271,12.8,15.823c7.079,1.243,12.237-4.363,14.294-10.511
		c10.532,0.409,21.044,0.912,31.457,2.619c-4.227,14.176-15.883,26.204-30.604,29.169c-17.144,3.394-37.295,1.842-50.31-11.133
		c-12.567-12.296-15.187-31.591-10.435-47.982c-8.688-0.485-12.703,7.816-12.955,15.266c-0.446,14.661-0.077,29.361-0.154,44.024
		c-11.153-0.117-22.284-0.137-33.417,0.078c0.116-5.313-0.02-10.608,0.021-15.924c-9.486,10.997-23.333,18.173-38.092,17.222
		c-16.272,1.28-32.797-5.467-42.513-18.754c0.136,5.778,0.059,11.56,0.077,17.358c-11.016-0.038-22.031-0.175-33.049,0.098
		c0.563-29.558-0.037-59.115-0.426-88.672c11.189,0.117,22.362,0.097,33.552,0.097C380.31,142.099,380.387,148.015,380.27,153.95
		 M411.73,157.77c-3.162,3.297-3.357,8.124-4.269,12.354c8.554,0.233,17.106,0.021,25.658,0.116
		c-0.93-4.479-0.736-9.772-4.401-13.109C423.966,153.193,416.015,153.058,411.73,157.77 M544.637,156.857
		c-3.82,3.2-4.246,8.438-5.234,12.955c8.455,0.271,16.931-0.214,25.387,0.332c0.446-6.129-1.783-13.597-8.242-15.671
		C552.514,153.697,547.781,153.871,544.637,156.857 M408.257,187.309c-0.485,7.079,2.869,16.231,11.364,15.883
		c7.642,1.708,13.479-3.88,16.098-10.494c8.378,0.566,16.757,0.952,25.077,2.252c0-1.94,0.02-5.838,0.02-7.777
		C443.302,187.327,425.79,187.172,408.257,187.309z"/>
</g>
</svg>
