<?xml version="1.0" encoding="UTF-8" standalone="no"?>
<!-- Created with Inkscape (http://www.inkscape.org/) -->

<svg
   xmlns:dc="http://purl.org/dc/elements/1.1/"
   xmlns:cc="http://creativecommons.org/ns#"
   xmlns:rdf="http://www.w3.org/1999/02/22-rdf-syntax-ns#"
   xmlns:svg="http://www.w3.org/2000/svg"
   xmlns="http://www.w3.org/2000/svg"
   xmlns:xlink="http://www.w3.org/1999/xlink"
   xmlns:sodipodi="http://sodipodi.sourceforge.net/DTD/sodipodi-0.dtd"
   xmlns:inkscape="http://www.inkscape.org/namespaces/inkscape"
   width="763.99957"
   height="122"
   id="svg2"
   version="1.1">
  <g
     inkscape:label="Layer 1"
     inkscape:groupmode="layer"
     id="layer1"
     transform="translate(-112.81999,-109.34547)">
    <path
       style="fill:#a90029;fill-rule:nonzero;stroke:none"
       d="m 616.26377,158.01223 66.24303,0 0,23.9676 -66.38922,0 c 0.17899,21.81729 10.05148,23.80561 26.63608,23.80561 l 39.75314,0 0,25.41404 -40.82939,0 c -13.94182,0 -53.55657,1.43774 -53.55657,-60.11509 -0.009,-49.47904 25.61203,-61.43424 54.15064,-61.43424 l 40.23532,0.07 0,24.99205 -38.44509,0 c -10.82645,0 -26.73938,3.19377 -27.79794,23.32333"
       id="path4150" />
    <path
       style="fill:#a90029;fill-rule:nonzero;stroke:none"
       d="m 328.85557,158.01223 66.21623,0 0,23.9676 -66.37972,-0.008 c 0.17999,21.82639 10.05148,23.80611 26.63578,23.80611 l 39.75274,0 0,25.42244 -40.87979,0 c -13.89082,0 -53.47887,1.43774 -53.51326,-60.11509 0,-49.47954 25.63713,-61.43404 54.18463,-61.43404 l 40.19962,0 0,25.03866 -38.42689,0 c -10.86035,0 -26.74808,3.18536 -27.78934,23.32342"
       id="path4154" />
    <path
       style="fill:#a90029;fill-rule:nonzero;stroke:none"
       d="m 810.64585,158.01223 66.17374,0 0,23.9769 -66.34583,-0.009 c 0.18099,21.83439 10.00088,23.80561 26.55999,23.80561 l 39.78584,0 0,25.41404 -40.86179,0 c -13.93472,0 -53.51487,1.45474 -53.51487,-60.11509 0,-49.47904 25.62063,-61.38734 54.17764,-61.38734 l 40.19072,0 0,24.99176 -38.4194,0 c -10.86104,0 -26.77398,3.19176 -27.74604,23.32342"
       id="path4158" />
    <path
       style="fill:#a90029;fill-rule:nonzero;stroke:none"
       d="m 554.49545,231.32007 -0.009,-121.96901 29.18388,0 0.04,121.96901 -29.20098,0"
       id="path4162" />
    <path
       style="fill:#a90029;fill-rule:nonzero;stroke:none"
       d="m 716.98206,133.18087 0,26.56879 24.30549,0 c 10.63755,0 17.86655,-2.25501 17.86655,-13.37234 0,-8.74484 -5.14648,-13.19645 -17.86655,-13.19645 l -24.30549,0 z m 29.37388,-23.57962 c 21.36131,0 38.1951,8.15936 38.238,37.64403 0,11.56642 -4.31182,28.8827 -16.43761,32.01446 l 19.2009,52.06033 -30.09695,0 -16.02443,-48.14409 -24.22799,0 0,48.14409 -28.44241,0 0,-121.71882 57.79049,0"
       id="path4166" />
    <path
       style="fill:#a90029;fill-rule:nonzero;stroke:none"
       d="m 235.66666,133.17247 0.03,26.57719 24.26129,0 c 10.66315,0 17.90925,-2.26241 17.90925,-13.38264 0,-8.73454 -5.17179,-13.19455 -17.90925,-13.19455 l -24.27889,0 z m 29.33928,-23.59562 c 21.3432,0 38.2203,8.18376 38.246,37.66843 0,11.54972 -4.29472,28.8827 -16.43791,32.01446 l 19.24309,52.06033 -30.14764,0 -16.01663,-48.14409 -24.20919,0 0.03,48.10949 -28.42661,0.06 -0.08,-121.74492 57.78319,0"
       id="path4170" />
    <path
       style="fill:#a90029;fill-rule:nonzero;stroke:none"
       d="m 141.2723,133.17247 0,26.57719 26.4301,0 c 10.63735,0 17.89235,-2.26241 17.89235,-13.38264 0,-8.73454 -5.13718,-13.19455 -17.89235,-13.19455 l -26.4301,0 z m 29.36488,-23.59562 c 21.3701,0 39.07296,7.97767 38.84957,37.66843 -0.12299,16.67041 -8.10836,36.0518 -35.7943,36.27509 l -32.39505,-0.33099 0,48.14449 -28.47141,0 -0.006,-121.74432 57.81759,0"
       id="path4174" />
    <path
       style="fill:#a90029;fill-rule:nonzero;stroke:none"
       d="m 547.81693,151.80619 c 0,-35.19043 -17.12559,-42.45513 -46.36157,-42.45513 -2.68508,0 -100.30681,0 -100.30681,0 l 0,121.96901 29.22708,0 -0.009,-96.71776 28.19362,0 0.07,96.71776 29.24378,0 -0.03,-96.63126 11.49022,-0.04 c 3.45906,0.06 19.2691,-1.86812 19.3121,17.19598 l 0.009,79.46188 29.17509,0 0,-79.51338"
       id="path4178" />
  </g>
</svg>
