<?xml version="1.0" encoding="utf-8"?>
<!-- Generator: Adobe Illustrator 13.0.0, SVG Export Plug-In . SVG Version: 6.00 Build 14948)  -->
<!DOCTYPE svg PUBLIC "-//W3C//DTD SVG 1.1//EN" "http://www.w3.org/Graphics/SVG/1.1/DTD/svg11.dtd">
<svg version="1.1" id="Layer_1" xmlns="http://www.w3.org/2000/svg" xmlns:xlink="http://www.w3.org/1999/xlink" x="0px" y="0px"
	 width="536px" height="380px" viewBox="0 0 536 380" enable-background="new 0 0 536 380" xml:space="preserve">
<g id="_x23_bb0021ff">
	<path fill="#BB0021" d="M0,0h536v380H0V0 M258.08,68.91c-30.63,12.3-57.301,34.08-75.63,61.51c-3.49,5.35-7.131,10.68-9.48,16.66
		c3.12-3.96,5.64-8.34,8.7-12.35c13.63-18.34,31.1-33.8,50.93-45.16c30.38-17.51,66.51-24.77,101.3-20.48
		c30.771,3.54,60.39,16.09,84.47,35.56c21.551,17.35,38.66,40.19,49.19,65.78c13.24,32.03,16.03,68.3,7.82,101.97
		c-2.62,11.68-7.171,22.789-12.021,33.689c3.04-4.13,5.05-8.869,7.26-13.47c15.9-33.96,19.57-73.399,10.45-109.75
		c-7.319-30.04-23.39-57.85-45.62-79.32c-22.85-22.15-52.17-37.67-83.46-43.64C320.699,53.71,287.62,56.89,258.08,68.91
		 M63.39,172.33c-4.14,17.11-8.08,34.279-12.14,51.41c4.12,0.14,8.25,0.13,12.37-0.09c1.529-5.68,2.63-11.471,4.029-17.18
		c9.101-0.881,18.74,1.359,27.391-2.4c7.79-3.301,12.16-11.891,12.09-20.09c-0.09-3.85-2-7.77-5.44-9.68
		c-4.14-2.36-9.09-2.02-13.689-2.12C79.8,172.31,71.59,172.01,63.39,172.33 M112.27,172.3c-4.02,17.15-8.229,34.271-12.109,51.46
		c4.119,0.16,8.239,0.19,12.35-0.17c1.67-6.42,2.86-12.949,4.65-19.34c3.85-0.189,7.699-0.2,11.55,0.061
		c2.27,6.439,4.12,13.039,6.569,19.42c4.57,0.209,9.15,0.209,13.721,0.039c-2.26-7.01-5.2-13.77-7.681-20.689
		c2.95-1.53,6.141-2.859,8.421-5.37c3.449-3.7,5.069-8.77,5.529-13.72c0.32-3.47-0.88-7.39-3.97-9.3c-4.21-2.79-9.47-2.52-14.3-2.54
		C128.75,172.29,120.51,172,112.27,172.3 M159.74,182.76c-4.27,5.95-6.399,13.16-7.659,20.3c-0.96,5.719-0.13,12.39,4.38,16.469
		c3.569,3.421,8.7,4.371,13.479,4.33c6.92-0.029,13.84,0.19,20.761-0.119c0.93-3.311,1.77-6.65,2.27-10.061
		c-6.63-0.35-13.27,0.08-19.89-0.15c-2.45-0.159-5.38-0.459-6.891-2.67c-1.46-2.299-0.819-5.149-0.859-7.699
		c10.08-0.801,20.199,0.14,30.29-0.42c0.96-3.4,1.83-6.82,2.29-10.33c-9.83-0.12-19.671,0.25-29.49-0.08
		c1.37-4.74,5.1-8.96,10.189-9.64c7.141-0.82,14.36-0.02,21.53-0.38c1.24-3.26,2.1-6.64,2.72-10.07c-7.3-0.21-14.62-0.14-21.92-0.03
		C172.8,172.38,164.55,176.06,159.74,182.76 M205.04,175.05c-3.551,16.351-8,32.511-11.271,48.931c4.28,0.17,8.57,0.18,12.83-0.19
		c3.15-13.601,6.521-27.149,9.69-40.74c4.689-0.79,9.46-0.4,14.189-0.25c-2.85,13.81-6.95,27.351-9.6,41.2
		c4.29,0.2,8.58,0.16,12.859-0.189c2.28-9.801,4.721-19.57,7-29.371c0.971-3.969,1.62-8.029,3.181-11.83
		c3.76,0.17,7.79-0.45,11.3,1.21c2.36,1.33,1.55,4.42,1.17,6.57c-2.62,11.219-5.439,22.379-8.08,33.59
		c4.25,0.16,8.5,0.08,12.76,0.02c2.86-9.51,4.57-19.32,7.08-28.92c1.261-5.53,3.011-11.87-0.029-17.13
		c-3.25-4.84-9.67-5.76-15.07-5.8c-15.3,0.02-30.62-0.13-45.92,0.06C205.42,171.96,205.38,173.91,205.04,175.05 M276.49,172.38
		c-3.699,17.25-8.26,34.31-11.819,51.591c4.13,0.209,8.26,0.129,12.399,0.029c3.381-11.359,5.511-23.07,8.4-34.57
		c1.1-5.76,3.23-11.32,3.77-17.18C284.98,172.18,280.73,172.11,276.49,172.38 M296.46,178.47c-5.681,4.95-8.82,12.129-10.65,19.29
		c-1.31,5.41-2.08,11.28-0.14,16.631c2.04,5.459,7.649,9.039,13.38,9.279c7.939,0.43,15.91,0.061,23.87,0.21
		c1.5-3.28,2.18-6.83,2.84-10.36c-6.59-0.069-13.181,0.15-19.771,0c-2.47-0.14-5.43-0.299-7.04-2.47
		c-1.67-2.319-0.97-5.319-0.819-7.95c9.92-0.59,19.859-0.08,29.79-0.24c1.35-3.35,2.18-6.869,2.84-10.409
		c-9.96-0.229-19.931,0.34-29.891-0.12c1.681-4.69,5.37-9.02,10.551-9.68c7.149-0.78,14.359,0.06,21.529-0.42
		c1.12-3.25,1.94-6.6,2.37-10.01c-6.79-0.1-13.58-0.05-20.37-0.04C308.34,172.16,301.52,174.1,296.46,178.47 M338.27,172.28
		c-3.98,17.17-8.29,34.27-12.04,51.49c4.1,0.16,8.22,0.211,12.32-0.09c1.62-6.459,2.819-13.01,4.62-19.43
		c3.84-0.2,7.68-0.221,11.52,0.05c2.37,6.431,4.11,13.06,6.57,19.45c4.54,0.17,9.08,0.141,13.63-0.02
		c-2.271-6.971-5.16-13.721-7.58-20.631c4.229-2.05,8.71-4.42,10.92-8.8c2.49-4.95,4.21-11.11,1.87-16.42
		c-2.41-4.67-8.26-5.66-13.03-5.68C357.47,172.23,347.869,172.05,338.27,172.28 M390.35,178.34c-6.63,5.66-9.91,14.221-11.53,22.58
		c-0.89,5.41-1.34,11.551,1.97,16.28c2.841,4.34,8.07,6.54,13.141,6.51c7.62,0.13,15.24,0.11,22.859,0
		c1.08-3.36,1.971-6.771,2.761-10.21c-6.521,0.05-13.04,0.15-19.561,0.1c-2.54-0.119-5.58-0.189-7.29-2.379
		c-1.899-2.371-1.09-5.57-0.91-8.33c10-0.33,20.011,0.109,30.011-0.19c1.069-3.33,1.92-6.74,2.17-10.25
		c-9.79-0.181-19.58,0.42-29.36-0.11c1.43-4.64,5.021-8.79,9.99-9.63c7.33-1.07,14.79,0.31,22.14-0.73
		c0.891-3.2,1.761-6.41,2.24-9.7c-7.021-0.13-14.04-0.08-21.05-0.05C401.619,172.28,395.22,174.26,390.35,178.34 M264.56,226.971
		c0.891,11.619,2.351,23.189,3.47,34.789c2.96,0.061,5.931,0.051,8.9,0.11c4.67-8.22,8.12-17.08,12.85-25.271
		c0.801,8.381,0.71,16.811,1.5,25.2c3.08,0.05,6.16,0.06,9.24-0.12c6.18-11.59,12.79-22.949,18.88-34.58
		c-2.47-0.01-4.93-0.01-7.39-0.05c-5.141,8.46-8.91,17.681-14.07,26.13c-0.6-8.67-1.21-17.33-1.52-26
		c-3.01-0.38-6.05-0.39-9.05,0.01c-4.301,8.681-8.431,17.461-12.92,26.041c-0.891-8.681-1.24-17.4-1.95-26.09
		C269.86,226.939,267.21,226.9,264.56,226.971 M328.329,227.21c-6.409,1.33-11.46,6.431-13.569,12.511
		c-1.76,5.079-3.221,10.76-1.61,16.059c1.13,3.871,5.14,5.851,8.851,6.391c6.52,0.9,13.859,0.301,19.1-4.07
		c5.28-4.439,7.42-11.47,8.229-18.09c0.551-4.279-0.38-9.59-4.659-11.65C339.63,225.96,333.68,226.05,328.329,227.21 M354.07,227.15
		c-2.63,11.58-5.39,23.129-8.06,34.689c2.479,0.01,4.97-0.02,7.46-0.119c1.01-4.48,2.069-8.931,3.08-13.4
		c2.979-0.19,5.97-0.19,8.939,0c1.431,4.539,2.79,9.119,4.561,13.55c2.72-0.04,5.45-0.05,8.17-0.091
		c-1.47-4.859-3.72-9.439-5.04-14.34c6.81-1.689,10.859-9.319,9.26-15.949c-1.01-3.03-4.52-4-7.38-4.2
		C368.079,226.82,361.05,226.71,354.07,227.15 M386.53,227.54c-1.93,7.79-3.689,15.649-5.439,23.489
		c-1.221,4.33,1.58,9.57,6.17,10.311c4.819,0.75,9.729,0.43,14.59,0.43c0.45-1.939,0.87-3.899,1.28-5.85
		c-3.65-0.15-7.301,0.09-10.94-0.18c-2.3-0.12-4.15-2.42-3.57-4.7c1.381-8.08,3.841-15.94,5.431-23.979
		C391.61,227.24,388.61,226.09,386.53,227.54 M411.98,227.05c-3.08,11.5-5.65,23.13-8.24,34.74c6.771-0.04,13.561,0.26,20.32-0.2
		c6.7-0.51,12.47-5.47,14.85-11.609c1.891-4.98,3.141-10.53,1.92-15.811c-0.89-4.05-4.97-6.47-8.87-6.811
		C425.31,226.8,418.63,227.25,411.98,227.05z"/>
	<path fill="#BB0021" d="M73.21,182.94c4.91-0.59,9.88-0.47,14.819-0.24c2.12,0.1,4.971,0.87,5.301,3.37
		c0.33,4.21-2.49,8.72-6.86,9.36c-5.37,0.75-10.83,0.35-16.24,0.4C71.09,191.5,72.17,187.23,73.21,182.94z"/>
	<path fill="#BB0021" d="M122.15,182.81c5.87-0.2,11.82-0.62,17.65,0.22c2.86,0.24,2.99,3.69,2.1,5.75
		c-0.689,2.84-3.5,4.51-6.27,4.67c-5.25,0.489-10.54,0.26-15.8,0.29C120.31,190.04,121.15,186.4,122.15,182.81z"/>
	<path fill="#BB0021" d="M348.15,182.85c5.86-0.28,11.82-0.68,17.65,0.18c4.979,1.27,2.09,9.041-1.891,9.941
		c-5.93,1.319-12.1,0.729-18.14,0.819C346.3,190.09,347.15,186.45,348.15,182.85z"/>
	<path fill="#BB0021" d="M329.329,233.2c4.271-1.851,11.511-0.94,11.78,4.84c0.061,6.34-1.76,14-7.74,17.33
		c-4.27,2.18-12.1,1.64-12.5-4.399C320.78,244.391,322.659,236.07,329.329,233.2z"/>
	<path fill="#BB0021" d="M418.119,233.13c4.11,0.24,8.33-0.45,12.36,0.601c3.28,1.18,3.03,5.39,2.46,8.189
		c-0.98,4.6-1.939,10.17-6.37,12.75c-4.41,1.721-9.31,0.9-13.93,0.971C414.44,248.141,415.85,240.52,418.119,233.13z"/>
	<path fill="#BB0021" d="M359.99,233.51c4.28-0.23,8.641-0.539,12.891,0.17c3.67,0.84,1.899,6.23-0.63,7.461
		c-4.53,1.479-9.431,0.959-14.12,0.879C358.71,239.18,359.4,236.35,359.99,233.51z"/>
</g>
<g id="_x23_f4ca15ff">
	<path fill="#F4CA15" d="M258.08,68.91c29.54-12.02,62.619-15.2,93.909-9c31.29,5.97,60.61,21.49,83.46,43.64
		c22.23,21.47,38.301,49.28,45.62,79.32c9.12,36.351,5.45,75.79-10.45,109.75c-2.21,4.601-4.22,9.34-7.26,13.47
		c4.85-10.9,9.4-22.01,12.021-33.689c8.21-33.67,5.42-69.94-7.82-101.97c-10.53-25.59-27.64-48.43-49.19-65.78
		c-24.08-19.47-53.699-32.02-84.47-35.56c-34.79-4.29-70.92,2.97-101.3,20.48c-19.83,11.36-37.3,26.82-50.93,45.16
		c-3.061,4.01-5.58,8.39-8.7,12.35c2.35-5.98,5.99-11.31,9.48-16.66C200.78,102.99,227.45,81.21,258.08,68.91z"/>
	<path fill="#F4CA15" d="M63.39,172.33c8.2-0.32,16.41-0.02,24.61-0.15c4.6,0.1,9.55-0.24,13.689,2.12
		c3.44,1.91,5.351,5.83,5.44,9.68c0.07,8.2-4.3,16.79-12.09,20.09c-8.65,3.76-18.29,1.52-27.391,2.4
		c-1.399,5.709-2.5,11.5-4.029,17.18c-4.12,0.22-8.25,0.229-12.37,0.09C55.31,206.609,59.25,189.44,63.39,172.33 M73.21,182.94
		c-1.04,4.29-2.12,8.56-2.98,12.89c5.41-0.051,10.87,0.35,16.24-0.4c4.37-0.64,7.19-5.15,6.86-9.36c-0.33-2.5-3.181-3.27-5.301-3.37
		C83.09,182.47,78.12,182.35,73.21,182.94z"/>
	<path fill="#F4CA15" d="M112.27,172.3c8.24-0.3,16.48-0.01,24.73-0.15c4.83,0.02,10.09-0.25,14.3,2.54
		c3.09,1.91,4.29,5.83,3.97,9.3c-0.46,4.95-2.08,10.02-5.529,13.72c-2.28,2.511-5.471,3.84-8.421,5.37
		c2.48,6.92,5.421,13.68,7.681,20.689c-4.57,0.17-9.15,0.17-13.721-0.039c-2.449-6.381-4.3-12.98-6.569-19.42
		c-3.851-0.261-7.7-0.25-11.55-0.061c-1.79,6.391-2.98,12.92-4.65,19.34c-4.11,0.36-8.23,0.33-12.35,0.17
		C104.04,206.57,108.25,189.45,112.27,172.3 M122.15,182.81c-1,3.59-1.84,7.23-2.319,10.93c5.26-0.03,10.55,0.199,15.8-0.29
		c2.77-0.16,5.58-1.83,6.27-4.67c0.891-2.06,0.761-5.51-2.1-5.75C133.97,182.19,128.02,182.61,122.15,182.81z"/>
	<path fill="#F4CA15" d="M159.74,182.76c4.811-6.7,13.061-10.38,21.2-10.55c7.3-0.11,14.62-0.18,21.92,0.03
		c-0.62,3.43-1.479,6.81-2.72,10.07c-7.17,0.36-14.39-0.44-21.53,0.38c-5.09,0.68-8.819,4.9-10.189,9.64
		c9.819,0.33,19.66-0.04,29.49,0.08c-0.46,3.51-1.33,6.93-2.29,10.33c-10.091,0.56-20.21-0.381-30.29,0.42
		c0.04,2.55-0.601,5.4,0.859,7.699c1.511,2.211,4.44,2.511,6.891,2.67c6.62,0.23,13.26-0.199,19.89,0.15
		c-0.5,3.41-1.34,6.75-2.27,10.061c-6.921,0.31-13.841,0.09-20.761,0.119c-4.779,0.041-9.91-0.909-13.479-4.33
		c-4.51-4.079-5.34-10.75-4.38-16.469C153.34,195.92,155.47,188.71,159.74,182.76z"/>
	<path fill="#F4CA15" d="M205.04,175.05c0.34-1.14,0.38-3.09,2.09-2.84c15.3-0.19,30.62-0.04,45.92-0.06
		c5.4,0.04,11.82,0.96,15.07,5.8c3.04,5.26,1.29,11.6,0.029,17.13c-2.51,9.6-4.22,19.41-7.08,28.92
		c-4.26,0.061-8.51,0.141-12.76-0.02c2.641-11.211,5.46-22.371,8.08-33.59c0.38-2.15,1.19-5.24-1.17-6.57
		c-3.51-1.66-7.54-1.04-11.3-1.21c-1.561,3.8-2.21,7.86-3.181,11.83c-2.279,9.801-4.72,19.57-7,29.371
		c-4.279,0.35-8.569,0.39-12.859,0.189c2.649-13.85,6.75-27.391,9.6-41.2c-4.729-0.15-9.5-0.54-14.189,0.25
		c-3.17,13.591-6.54,27.14-9.69,40.74c-4.26,0.37-8.55,0.36-12.83,0.19C197.04,207.561,201.49,191.4,205.04,175.05z"/>
	<path fill="#F4CA15" d="M276.49,172.38c4.24-0.27,8.49-0.2,12.75-0.13c-0.539,5.86-2.67,11.42-3.77,17.18
		c-2.89,11.5-5.02,23.21-8.4,34.57c-4.14,0.1-8.27,0.18-12.399-0.029C268.23,206.689,272.79,189.63,276.49,172.38z"/>
	<path fill="#F4CA15" d="M296.46,178.47c5.06-4.37,11.88-6.31,18.489-6.29c6.79-0.01,13.58-0.06,20.37,0.04
		c-0.43,3.41-1.25,6.76-2.37,10.01c-7.17,0.48-14.38-0.36-21.529,0.42c-5.181,0.66-8.87,4.99-10.551,9.68
		c9.96,0.46,19.931-0.109,29.891,0.12c-0.66,3.54-1.49,7.06-2.84,10.409c-9.931,0.16-19.87-0.35-29.79,0.24
		c-0.15,2.631-0.851,5.631,0.819,7.95c1.61,2.171,4.57,2.33,7.04,2.47c6.59,0.15,13.181-0.069,19.771,0
		c-0.66,3.53-1.34,7.08-2.84,10.36c-7.96-0.149-15.931,0.22-23.87-0.21c-5.73-0.24-11.34-3.82-13.38-9.279
		c-1.94-5.351-1.17-11.221,0.14-16.631C287.64,190.6,290.78,183.42,296.46,178.47z"/>
	<path fill="#F4CA15" d="M338.27,172.28c9.6-0.23,19.2-0.05,28.8-0.08c4.771,0.02,10.62,1.01,13.03,5.68
		c2.34,5.31,0.62,11.47-1.87,16.42c-2.21,4.38-6.69,6.75-10.92,8.8c2.42,6.91,5.31,13.66,7.58,20.631
		c-4.55,0.16-9.09,0.189-13.63,0.02c-2.46-6.391-4.2-13.02-6.57-19.45c-3.84-0.271-7.68-0.25-11.52-0.05
		c-1.801,6.42-3,12.971-4.62,19.43c-4.101,0.301-8.221,0.25-12.32,0.09C329.98,206.55,334.289,189.45,338.27,172.28 M348.15,182.85
		c-1,3.6-1.85,7.24-2.38,10.94c6.04-0.09,12.21,0.5,18.14-0.819c3.98-0.9,6.87-8.671,1.891-9.941
		C359.97,182.17,354.01,182.57,348.15,182.85z"/>
	<path fill="#F4CA15" d="M390.35,178.34c4.87-4.08,11.27-6.06,17.58-6.11c7.01-0.03,14.029-0.08,21.05,0.05
		c-0.479,3.29-1.35,6.5-2.24,9.7c-7.35,1.04-14.81-0.34-22.14,0.73c-4.97,0.84-8.561,4.99-9.99,9.63
		c9.78,0.53,19.57-0.07,29.36,0.11c-0.25,3.51-1.101,6.92-2.17,10.25c-10,0.3-20.011-0.14-30.011,0.19
		c-0.18,2.76-0.989,5.959,0.91,8.33c1.71,2.189,4.75,2.26,7.29,2.379c6.521,0.051,13.04-0.05,19.561-0.1
		c-0.79,3.439-1.681,6.85-2.761,10.21c-7.619,0.11-15.239,0.13-22.859,0c-5.07,0.03-10.3-2.17-13.141-6.51
		c-3.31-4.729-2.859-10.87-1.97-16.28C380.44,192.561,383.72,184,390.35,178.34z"/>
</g>
<g id="_x23_fdfdfcff">
	<path fill="#FDFDFC" d="M264.56,227.971c2.65-0.07,5.3-0.031,7.94,0.17c0.71,8.689,1.06,17.409,1.95,26.09
		c4.489-8.58,8.619-17.36,12.92-26.041c3-0.399,6.04-0.39,9.05-0.01c0.31,8.67,0.92,17.33,1.52,26
		c5.16-8.449,8.93-17.67,14.07-26.13c2.46,0.04,4.92,0.04,7.39,0.05c-6.09,11.631-12.7,22.99-18.88,34.58
		c-3.08,0.18-6.16,0.17-9.24,0.12c-0.79-8.39-0.699-16.819-1.5-25.2c-4.729,8.19-8.18,17.051-12.85,25.271
		c-2.97-0.06-5.94-0.05-8.9-0.11C266.91,251.16,265.45,239.59,264.56,227.971z"/>
	<path fill="#FDFDFC" d="M328.329,228.21c5.351-1.16,11.301-1.25,16.341,1.149c4.279,2.061,5.21,7.371,4.659,11.65
		c-0.81,6.62-2.949,13.65-8.229,18.09c-5.24,4.371-12.58,4.971-19.1,4.07c-3.711-0.54-7.721-2.52-8.851-6.391
		c-1.61-5.299-0.149-10.979,1.61-16.059C316.869,234.641,321.92,229.54,328.329,228.21 M329.329,234.2
		c-6.67,2.87-8.55,11.19-8.46,17.771c0.4,6.039,8.23,6.579,12.5,4.399c5.98-3.33,7.801-10.99,7.74-17.33
		C340.84,233.26,333.6,232.35,329.329,234.2z"/>
	<path fill="#FDFDFC" d="M354.07,228.15c6.98-0.44,14.01-0.33,20.99,0.14c2.86,0.2,6.37,1.17,7.38,4.2
		c1.6,6.63-2.45,14.26-9.26,15.949c1.32,4.9,3.57,9.48,5.04,14.34c-2.72,0.041-5.45,0.051-8.17,0.091
		c-1.771-4.431-3.13-9.011-4.561-13.55c-2.97-0.19-5.96-0.19-8.939,0c-1.011,4.47-2.07,8.92-3.08,13.4
		c-2.49,0.1-4.98,0.129-7.46,0.119C348.68,251.279,351.44,239.73,354.07,228.15 M359.99,234.51c-0.59,2.84-1.279,5.67-1.859,8.51
		c4.689,0.08,9.59,0.601,14.12-0.879c2.529-1.23,4.3-6.621,0.63-7.461C368.63,233.971,364.27,234.279,359.99,234.51z"/>
	<path fill="#FDFDFC" d="M386.53,228.54c2.08-1.45,5.08-0.3,7.521-0.479c-1.59,8.039-4.05,15.899-5.431,23.979
		c-0.58,2.28,1.271,4.58,3.57,4.7c3.64,0.27,7.29,0.029,10.94,0.18c-0.41,1.95-0.83,3.91-1.28,5.85c-4.86,0-9.771,0.32-14.59-0.43
		c-4.59-0.74-7.391-5.98-6.17-10.311C382.84,244.189,384.6,236.33,386.53,228.54z"/>
	<path fill="#FDFDFC" d="M411.98,228.05c6.65,0.2,13.33-0.25,19.979,0.31c3.9,0.341,7.98,2.761,8.87,6.811
		c1.221,5.28-0.029,10.83-1.92,15.811c-2.38,6.14-8.149,11.1-14.85,11.609c-6.76,0.46-13.55,0.16-20.32,0.2
		C406.329,251.18,408.9,239.55,411.98,228.05 M418.119,234.13c-2.27,7.39-3.68,15.011-5.479,22.511c4.62-0.07,9.52,0.75,13.93-0.971
		c4.431-2.58,5.39-8.15,6.37-12.75c0.57-2.8,0.82-7.01-2.46-8.189C426.449,233.68,422.23,234.37,418.119,234.13z"/>
</g>
<path display="none" fill="#231F20" d="M77.739,186.029l-2.914,13.228h11.864c6.452,0,9.365-2.52,11.03-6.72
	c0.834-5.039-1.041-6.508-8.117-6.508H77.739z M91.682,175.532c6.869,0,11.862,0.421,14.778,2.519
	c4.579,2.939,5.619,8.4,4.162,14.486c-1.665,6.3-4.579,10.708-8.95,13.857c-5.619,2.94-10.406,2.94-16.858,2.94H72.327
	l-4.371,17.425H55.885l12.071-51.228H91.682"/>
<path display="none" fill="#231F20" d="M292.249,175.532h-12.904l-11.448,51.438l0.211,0.419h12.28l11.862-51.858l0,0"/>
<path display="none" fill="#231F20" d="M197.412,226.97l0.625,0.419h12.277l9.782-41.36h14.361l-9.781,41.36h12.28l9.99-41.36h3.952
	c7.911,0,10.406,1.048,8.952,7.768l-7.909,33.592h12.279l7.91-32.543c2.913-13.855-2.291-19.317-17.691-19.317h-44.747
	l-12.279,51.438"/>
<path display="none" fill="#231F20" d="M126.44,186.029l-2.914,10.708h12.28c6.452,0,9.366-0.841,10.406-5.249
	c1.041-4.41-1.04-5.459-7.493-5.459H126.44z M143.715,175.532c11.861,0,17.482,5.04,14.983,15.956
	c-2.082,7.349-7.077,12.806-13.528,14.274l8.115,20.997h-13.942l-6.452-19.526h-11.447l-4.995,19.526h-11.864l11.864-51.228h27.265"
	/>
<path display="none" fill="#231F20" d="M201.782,195.896l-2.497,9.866h-29.763c-1.873,8.609,1.04,11.129,8.533,11.129h18.732
	l-2.498,9.866h-18.732c-6.036,0-11.03-0.421-15.402-4.409c-4.578-4.409-5.408-11.129-2.913-20.575
	c3.954-17.846,13.736-26.244,30.595-26.244h18.523l-2.498,10.08h-17.899c-6.868,0-11.446,3.358-13.942,10.285h29.762"/>
<path display="none" fill="#231F20" d="M333.181,195.896l-2.081,9.866h-29.763c-1.874,8.609,0.625,11.129,8.533,11.129h18.316
	l-2.082,9.866h-18.731c-6.036,0-11.031-0.421-15.402-4.409c-4.369-4.409-5.411-11.129-3.538-20.575
	c4.58-17.846,14.361-26.244,30.803-26.244h18.938l-2.495,10.08h-17.898c-7.494,0-11.864,3.358-13.946,10.285h29.347"/>
<path display="none" fill="#231F20" d="M350.989,186.029l-3.123,10.708h12.488c6.451,0,9.365-0.841,10.405-5.249
	c1.042-4.41-1.04-5.459-7.492-5.459H350.989L350.989,186.029z M367.846,175.532c12.279,0,17.899,5.04,14.777,15.956
	c-1.456,7.349-6.452,12.806-13.321,14.274l7.91,20.997h-13.32l-6.452-19.526h-12.071l-4.37,19.526h-11.864l11.864-51.228H367.846"/>
<path display="none" fill="#231F20" d="M426.376,195.896l-2.497,9.866h-29.763c-1.458,8.609,1.04,11.129,8.949,11.129h18.315
	l-2.497,9.866h-18.316c-6.451,0-11.446-0.421-15.401-4.409c-4.371-4.409-5.411-10.918-3.538-20.575
	c4.163-17.846,13.945-26.244,30.804-26.244h18.938l-2.496,10.08h-18.316c-7.076,0-11.446,3.358-13.946,10.285h29.763"/>
<path display="none" fill="#FEE340" d="M73.876,183.09l-2.914,13.227h11.863c6.452,0,9.366-2.52,11.031-6.719
	c0.833-5.041-1.042-6.508-8.117-6.508H73.876L73.876,183.09z M87.822,172.592c6.868,0,11.863,0.422,14.776,2.521
	c4.579,2.939,5.62,8.4,4.162,14.485c-1.665,6.299-4.578,10.706-8.949,13.857c-5.619,2.939-10.407,2.939-16.859,2.939H68.465
	l-4.371,17.426H52.023l12.071-51.229H87.822"/>
<path display="none" fill="#FEE340" d="M288.549,172.592h-12.903l-11.448,51.438l0.21,0.422h12.279l11.862-51.858l0,0"/>
<path display="none" fill="#FEE340" d="M193.551,224.029l0.625,0.422h12.276l9.783-41.361h14.361l-9.781,41.361h12.279l9.99-41.361
	h3.953c7.912,0,10.407,1.05,8.952,7.769l-7.91,33.593h12.28l7.909-32.543c2.914-13.857-2.29-19.315-17.69-19.315h-44.748
	l-12.279,51.436"/>
<path display="none" fill="#FEE340" d="M122.578,183.09l-2.914,10.707h12.279c6.453,0,9.366-0.84,10.407-5.248
	c1.041-4.409-1.04-5.459-7.492-5.459H122.578z M139.853,172.592c11.863,0,17.482,5.042,14.985,15.957
	c-2.081,7.348-7.077,12.806-13.528,14.276l8.115,20.995h-13.943l-6.452-19.526h-11.447l-4.995,19.526h-11.863l11.863-51.229H139.853
	"/>
<path display="none" fill="#FEE340" d="M197.921,192.957l-2.498,9.868h-29.762c-1.874,8.605,1.04,11.127,8.533,11.127h18.732
	l-2.498,9.868h-18.731c-6.036,0-11.031-0.42-15.401-4.41c-4.58-4.408-5.409-11.126-2.915-20.573
	c3.955-17.847,13.737-26.245,30.595-26.245h18.523l-2.497,10.079h-17.899c-6.869,0-11.447,3.358-13.942,10.287h29.762"/>
<path display="none" fill="#FEE340" d="M329.25,192.957l-2.081,9.868h-29.764c-1.873,8.605,0.623,11.127,8.535,11.127h18.313
	l-2.081,9.868h-18.731c-6.035,0-11.031-0.42-15.401-4.41c-4.37-4.408-5.412-11.126-3.538-20.573
	c4.578-17.847,14.36-26.245,30.803-26.245h18.938l-2.496,10.079h-17.898c-7.492,0-11.863,3.358-13.945,10.287H329.25"/>
<path display="none" fill="#FEE340" d="M347.057,183.09l-3.123,10.707h12.488c6.452,0,9.366-0.84,10.405-5.248
	c1.043-4.408-1.039-5.459-7.492-5.459H347.057L347.057,183.09z M363.913,172.592c12.28,0,17.9,5.042,14.778,15.957
	c-1.456,7.348-6.45,12.806-13.32,14.276l7.908,20.995H359.96l-6.452-19.526h-12.071l-4.37,19.526h-11.864l11.864-51.229H363.913"/>
<path display="none" fill="#FEE340" d="M422.445,192.957l-2.497,9.868h-29.763c-1.457,8.605,1.04,11.127,8.949,11.127h18.315
	l-2.497,9.868h-18.315c-6.452,0-11.447-0.42-15.401-4.41c-4.37-4.408-5.412-10.918-3.538-20.573
	c4.162-17.847,13.944-26.245,30.803-26.245h18.94l-2.498,10.079h-18.315c-7.077,0-11.446,3.358-13.947,10.287h29.763"/>
<path display="none" fill="#231F20" d="M313.988,72.75c90.743-2.1,165.671,70.962,167.751,162.291
	c0.416,27.084-5.409,53.117-16.441,75.583c14.361-24.984,22.894-54.377,21.853-86.08c-1.388-91.818-76.546-164.461-167.659-162.991
	c-63.594,1.467-118.124,39.681-144.556,93.638c27.889-48.499,79.574-81.67,139.237-82.511"/>
<path display="none" fill="#FEE340" d="M310.286,68.037C401.031,65.936,475.957,139,478.039,230.328
	c0.415,27.083-5.412,53.117-16.445,75.583c14.363-24.983,22.896-54.378,21.855-86.079c-1.456-91.749-76.799-164.392-167.75-162.922
	c-63.828,1.353-118.333,39.564-144.766,93.521c27.889-48.499,79.552-81.67,139.215-82.511"/>
</svg>
