<?xml version="1.0" encoding="UTF-8" standalone="no"?>
<!-- Created with Inkscape (http://www.inkscape.org/) -->

<svg
   xmlns:dc="http://purl.org/dc/elements/1.1/"
   xmlns:cc="http://creativecommons.org/ns#"
   xmlns:rdf="http://www.w3.org/1999/02/22-rdf-syntax-ns#"
   xmlns:svg="http://www.w3.org/2000/svg"
   xmlns="http://www.w3.org/2000/svg"
   xmlns:sodipodi="http://sodipodi.sourceforge.net/DTD/sodipodi-0.dtd"
   xmlns:inkscape="http://www.inkscape.org/namespaces/inkscape"
   width="310"
   height="73"
   id="svg3029"
   sodipodi:docname="PRICELINELOGO1.svg"
   inkscape:version="0.48.1 "
   version="0.0">
  <defs
     id="defs3031" />
  <sodipodi:namedview
     id="base"
     pagecolor="#ffffff"
     bordercolor="#666666"
     borderopacity="1.0"
     inkscape:pageopacity="0.0"
     inkscape:pageshadow="2"
     inkscape:zoom="1"
     inkscape:cx="176.62849"
     inkscape:cy="17.735109"
     inkscape:document-units="px"
     inkscape:current-layer="layer1"
     showgrid="false"
     showborder="false"
     inkscape:showpageshadow="false"
     fit-margin-top="0"
     fit-margin-left="0"
     fit-margin-right="0"
     fit-margin-bottom="0"
     inkscape:window-width="689"
     inkscape:window-height="458"
     inkscape:window-x="448"
     inkscape:window-y="50"
     inkscape:window-maximized="0" />
  <g
     transform="matrix(0.99041534,0,0,0.95890411,-96.211779,-318.92265)"
     id="layer1"
     inkscape:groupmode="layer"
     inkscape:label="Layer 1">
    <path
       style="fill:#0a78b0;fill-opacity:1;fill-rule:evenodd;stroke:none"
       d="m 97.14286,332.59076 313,0 0,76.12857 -313,0 z"
       id="rect3037"
       inkscape:connector-curvature="0" />
    <path
       style="fill:#ffffff;fill-rule:evenodd;stroke:none"
       d="m 128.9477,357.29973 c -2.88531,0 -5.5411,1.30883 -7.66724,3.47156 l 0,-2.20029 -8.99244,0 0,39.11623 0,2.39587 0,0.29337 8.94511,0 0,-0.29337 0.0473,0 0,-12.61499 c 2.12614,2.16273 4.78194,3.47157 7.66724,3.47157 6.98411,0 12.63675,-7.52421 12.63675,-16.81998 0,-9.29576 -5.65264,-16.81997 -12.63675,-16.81997 z m -2.22445,7.43208 c 1.29649,0 2.45943,0.65287 3.45499,1.66244 0.27585,0.27585 0.56284,0.59257 0.80459,0.92902 0.0345,0.049 0.0609,0.0965 0.0947,0.14668 0.0131,0.0191 0.0343,0.0297 0.0473,0.0489 0.26629,0.4021 0.49659,0.80232 0.70993,1.27128 0.0157,0.0335 0.0319,0.0639 0.0473,0.0978 0.04,0.0904 0.0567,0.20079 0.0947,0.29336 0.16731,0.40844 0.34972,0.82438 0.47329,1.27127 0.14506,0.52461 0.25305,1.09455 0.3313,1.66245 0.002,0.0164 -0.002,0.0324 0,0.0489 0.0785,0.58541 0.14198,1.18947 0.14198,1.80913 6e-5,0.0166 0,0.0322 0,0.0489 -0.002,0.6189 -0.0615,1.2248 -0.14198,1.80912 -0.002,0.0157 0.002,0.0332 0,0.0489 -0.0825,0.5824 -0.17858,1.12622 -0.3313,1.66245 -0.004,0.0152 0.004,0.0337 0,0.0489 -0.94038,3.31495 -3.15593,5.67186 -5.72677,5.67186 -0.44505,0 -0.86055,-0.11005 -1.27787,-0.24447 -0.40021,-0.12892 -0.76911,-0.29861 -1.13589,-0.53786 -0.01,-0.006 -0.0374,0.006 -0.0473,0 -0.3613,-0.23981 -0.72038,-0.54551 -1.04123,-0.88009 -0.32351,-0.33734 -0.62451,-0.70377 -0.89925,-1.12459 -0.21571,-0.33042 -0.43385,-0.7009 -0.61527,-1.07569 -0.0221,-0.0457 -0.0257,-0.10037 -0.0473,-0.14669 -0.0831,-0.17455 -0.16168,-0.35463 -0.23664,-0.53785 -0.047,-0.11729 -0.0984,-0.22177 -0.14199,-0.34227 l 0,-0.0489 c -0.47773,-1.30601 -0.75726,-2.76087 -0.75726,-4.35168 0,-5.09053 2.77227,-9.24121 6.20005,-9.24121 z"
       id="path2997"
       inkscape:connector-curvature="0" />
    <path
       style="fill:#ffffff;stroke:none"
       d="m 144.14039,358.47322 0,28.11478 0,2.88483 0,0.34226 9.03976,0 0,-0.34226 0.0473,0 0,-19.31365 c 1.20815,-1.87719 4.26505,-3.38107 8.23518,-3.76493 0.17341,-0.0168 0.34829,0.0105 0.52061,0 l 0,-7.92103 -1.51451,0 c -0.41306,0.0624 -0.83879,0.14542 -1.27788,0.24447 -0.53697,0.12116 -1.06022,0.27276 -1.56184,0.44006 -0.0322,0.0108 -0.0626,0.038 -0.0947,0.0489 l -2.22444,1.17348 -0.61528,0.34227 -1.46718,0.78232 0,-3.0315 -9.0871,0 z"
       id="rect3031"
       inkscape:connector-curvature="0" />
    <path
       inkscape:connector-curvature="0"
       style="fill:#ffffff;stroke:none"
       d="m 164.90736,358.79784 9.04166,0 0,31.01725 -9.04166,0 z"
       id="rect3030" />
    <path
       style="fill:#ffffff;stroke:none"
       d="m 191.98917,357.59258 c -8.54392,0 -15.42913,7.40446 -15.42913,16.57549 0,9.17105 6.88521,16.6244 15.42913,16.6244 3.90402,0 7.45218,-1.59093 10.17566,-4.1561 l -4.3069,-6.45418 c -1.28303,2.15087 -3.20801,3.56936 -5.39547,3.56936 -3.87809,0 -7.05197,-4.31128 -7.05197,-9.63237 0,-5.32108 3.17388,-9.63237 7.05197,-9.63237 2.2582,0 4.25782,1.49313 5.53745,3.76494 l 3.83363,-6.89424 c -2.67553,-2.3624 -6.1064,-3.76493 -9.84437,-3.76493 z"
       id="path3008"
       inkscape:connector-curvature="0" />
    <path
       style="fill:#ffffff;stroke:none"
       d="m 280.44689,358.17971 c -2.9586,0 -5.66153,1.04785 -7.57258,2.68925 l 0,-2.05361 -9.03977,0 0,30.99961 9.03977,0 0,-20.7805 c 0.89293,-1.91141 2.59008,-3.22709 4.54355,-3.22709 1.92007,0 3.57799,1.27158 4.49622,3.1293 l 0,4.49837 0,1.80912 0,0.34227 0,5.72075 0,8.85005 9.03977,0 0,-21.41614 c 0.009,-0.46453 0.0115,-0.94377 0,-1.41796 0.007,-0.11597 0,-0.22362 0,-0.34225 0,-0.28599 -0.0153,-0.55208 -0.0473,-0.83124 -0.004,-0.032 0.004,-0.0659 0,-0.0978 -0.56303,-4.40361 -5.03218,-7.87214 -10.45961,-7.87214 z"
       id="rect3403"
       inkscape:connector-curvature="0" />
    <path
       id="path3235"
       d="m 217.11359,357.05446 c -6.00994,0 -11.18308,3.73235 -13.7253,9.17629 -0.0404,0.11622 -0.1031,0.22331 -0.14197,0.33986 -0.91025,2.72932 -1.32234,5.58202 -1.3252,8.39946 0.0115,0.29108 0.0258,0.58088 0.0473,0.87393 0.13569,1.84944 0.4621,3.64024 0.94657,5.38925 0.0755,0.19709 0.1529,0.3854 0.23665,0.58262 1.00856,2.37481 2.50142,4.46279 4.40156,6.16607 0.0448,0.0331 0.0967,0.0645 0.14199,0.0971 2.5516,1.83741 5.77051,2.96167 9.27641,2.96167 6.87039,0 12.70355,-4.21639 14.52989,-9.95312 l -6.15271,-2.67035 c -1.3574,3.21145 -4.00956,5.38925 -7.0993,5.38925 -3.41194,0 -6.25908,-2.69224 -7.43059,-6.45739 -0.0409,-0.13151 -0.10528,-0.25433 -0.14199,-0.38841 l 0,-0.1942 c -0.0797,-0.32019 -0.18196,-0.63822 -0.23664,-0.97105 -0.002,-0.0157 0.002,-0.0328 0,-0.0485 l 0.23664,0 0.28397,0 14.62454,0 6.76799,0 c 0.0354,-2.12193 -0.09,-4.31201 -0.47328,-6.50594 -0.0351,-0.1301 -0.064,-0.26045 -0.0946,-0.38841 -1.94318,-6.82779 -7.73741,-11.79808 -14.67197,-11.79808 z m -0.47328,6.79725 c 0.22007,-0.027 0.48398,0 0.70994,0 3.19928,0 5.77953,2.75231 6.34204,6.40884 l -12.77873,0 c 0.53442,-3.40735 2.82957,-6.05358 5.72675,-6.40884 z"
       style="fill:#ffffff;stroke:none"
       inkscape:connector-curvature="0" />
    <path
       inkscape:connector-curvature="0"
       style="fill:#ffffff;stroke:none"
       d="m 235.35154,346.1479 9.04166,0 0,43.66719 -9.04166,0 z"
       id="rect3035" />
    <path
       inkscape:connector-curvature="0"
       style="fill:#ffffff;stroke:none"
       d="m 249.74449,358.79784 9.04166,0 0,31.01725 -9.04166,0 z"
       id="rect3269" />
    <path
       style="fill:#ffffff;stroke:none"
       d="m 308.35001,357.05393 c -6.00995,0 -11.18309,3.73229 -13.7253,9.17615 -0.0405,0.11622 -0.10314,0.2233 -0.14192,0.33986 -0.91025,2.72928 -1.32233,5.58193 -1.3252,8.39933 0.0121,0.29108 0.0258,0.58088 0.0473,0.87392 0.1357,1.84942 0.46209,3.64018 0.94657,5.38916 0.0755,0.19709 0.15289,0.38541 0.23664,0.58262 1.00857,2.37478 2.50143,4.46273 4.40157,6.16598 0.0448,0.0331 0.0967,0.0645 0.14191,0.0971 2.5516,1.83739 5.7705,2.96162 9.27641,2.96162 6.87039,0 12.70355,-4.21633 14.52989,-9.95297 l -6.15273,-2.6703 c -1.3574,3.21139 -4.00956,5.38916 -7.09929,5.38916 -3.41194,0 -6.25909,-2.69219 -7.43059,-6.45729 -0.0409,-0.13151 -0.10526,-0.25432 -0.14191,-0.38841 l 0,-0.1942 c -0.0797,-0.32017 -0.18197,-0.6382 -0.23665,-0.97102 -0.003,-0.0157 0.003,-0.0328 0,-0.0485 l 0.23665,0 0.28397,0 14.62454,0 6.768,0 c 0.0354,-2.1219 -0.09,-4.31194 -0.47328,-6.50584 -0.0351,-0.1301 -0.0641,-0.26045 -0.0946,-0.38841 -1.9431,-6.82769 -7.73734,-11.7979 -14.67188,-11.7979 z m -0.47328,6.79715 c 0.22006,-0.027 0.48396,0 0.70992,0 3.19929,0 5.77954,2.75227 6.34204,6.40874 l -12.77873,0 c 0.53442,-3.4073 2.82959,-6.05349 5.72677,-6.40874 z"
       id="path3060"
       inkscape:connector-curvature="0" />
    <path
       inkscape:connector-curvature="0"
       style="fill:#ffffff;stroke:none"
       d="m 331.70152,387.1145 c 0,1.96907 -1.54499,3.56532 -3.45082,3.56532 -1.90584,0 -3.45083,-1.59625 -3.45083,-3.56532 0,-1.96908 1.54499,-3.56533 3.45083,-3.56533 1.90583,0 3.45082,1.59625 3.45082,3.56533 z"
       id="path3278" />
    <path
       id="path3282"
       d="m 342.29225,372.58205 c -4.92283,0 -8.88993,4.07234 -8.88993,9.11627 0,5.04394 3.9671,9.14318 8.88993,9.14318 2.24942,0 4.29375,-0.87499 5.86298,-2.28579 l -2.48152,-3.54971 c -0.73927,1.18295 -1.84839,1.9631 -3.10876,1.9631 -2.23448,0 -4.06317,-2.37114 -4.06317,-5.29766 0,-2.92652 1.82869,-5.29766 4.06317,-5.29766 1.30112,0 2.45325,0.8212 3.19055,2.07066 l 2.20886,-3.79172 c -1.54159,-1.29929 -3.5184,-2.07067 -5.67211,-2.07067 z"
       style="fill:#ffffff;stroke:none"
       inkscape:connector-curvature="0" />
    <path
       style="fill:#ffffff;stroke:none"
       d="m 357.68683,372.22217 c -5.05234,0 -9.18175,4.13375 -9.18175,9.28598 0,5.15222 4.12941,9.33335 9.18175,9.33335 5.05235,0 9.13442,-4.18113 9.13442,-9.33335 0,-5.15223 -4.08207,-9.28598 -9.13442,-9.28598 z m -0.0946,4.16921 c 2.20438,0 4.02293,2.29986 4.02293,5.11677 0,2.81689 -1.81855,5.11676 -4.02293,5.11676 -2.20438,0 -3.97561,-2.29987 -3.97561,-5.11676 0,-2.81691 1.77123,-5.11677 3.97561,-5.11677 z"
       id="path3286"
       inkscape:connector-curvature="0" />
    <path
       style="fill:#ffffff;stroke:none"
       d="m 378.17987,372.55543 c -1.62899,0 -3.10584,0.57172 -4.16491,1.46686 l 0,-0.53784 -5.15882,0 0,16.4777 5.15882,0 0,-11.93045 c 0.35785,-1.00297 1.12331,-1.71134 2.03513,-1.71134 0.91717,0 1.69239,0.69916 2.03513,1.71134 0.005,0.0147 -0.005,0.034 0,0.0489 l 0,11.88155 5.15882,0 0,-9.53457 0,-2.39588 0,-0.0978 c 0.37327,-0.94704 1.10784,-1.61355 1.98781,-1.61355 0.89953,0 1.68271,0.68152 2.03512,1.66244 l 0,11.93045 5.15883,0 0,-12.81056 0,-1.95582 0,-0.0489 c -0.96904,-1.50849 -2.84855,-2.54255 -5.06417,-2.54255 -1.89146,0 -3.57327,0.74816 -4.63821,1.90691 -1.04486,-1.15053 -2.66026,-1.90691 -4.54355,-1.90691 z"
       id="path3449"
       inkscape:connector-curvature="0" />
    <path
       inkscape:connector-curvature="0"
       style="fill:#ffffff;stroke:none"
       d="m 173.79353,351.4379 c 0,2.57944 -2.02404,4.67048 -4.52083,4.67048 -2.49678,0 -4.52083,-2.09104 -4.52083,-4.67048 0,-2.57943 2.02405,-4.67048 4.52083,-4.67048 2.49679,0 4.52083,2.09105 4.52083,4.67048 z"
       id="path3255" />
    <path
       inkscape:connector-curvature="0"
       style="fill:#ffffff;stroke:none"
       d="m 258.63066,351.4379 c 0,2.57944 -2.02404,4.67048 -4.52083,4.67048 -2.49678,0 -4.52083,-2.09104 -4.52083,-4.67048 0,-2.57943 2.02405,-4.67048 4.52083,-4.67048 2.49679,0 4.52083,2.09105 4.52083,4.67048 z"
       id="path3271" />
    <path
       style="fill:#ffffff;stroke:none"
       d="m 397.1685,366.18888 c -2.50937,0 -4.54355,2.10107 -4.54355,4.69351 0,2.59243 2.03418,4.69439 4.54355,4.69439 2.50937,0 4.54355,-2.10196 4.54355,-4.69439 0,-2.59244 -2.03418,-4.69351 -4.54355,-4.69351 z m -0.0188,0.68541 c 2.14143,0 3.87749,1.79456 3.87749,4.0081 0,2.21354 -1.73606,4.00809 -3.87749,4.00809 -2.14146,0 -3.87751,-1.79455 -3.87751,-4.00809 0,-2.21354 1.73605,-4.0081 3.87751,-4.0081 z"
       id="path3575"
       inkscape:connector-curvature="0" />
    <path
       style="fill:#ffffff;stroke:none"
       d="m 395.66818,368.76042 0,4.20619 0.47776,0 0,-1.64233 1.75051,0 0.41499,0.41744 0,1.23462 0.47864,0 0,-1.45042 0,-8.5e-4 -8.2e-4,0 -0.45436,-0.45723 c 0.36374,-0.20032 0.61336,-0.61775 0.61336,-1.10019 -1e-5,-0.60518 -0.39353,-1.10676 -0.91127,-1.2072 l -0.0283,0 -0.0512,0 -1.81153,0 -0.13646,0 -0.34138,0 z m 0.47776,0.52444 1.8208,0 c 0.26787,0.1423 0.45186,0.43373 0.45186,0.77119 0,0.33071 -0.17672,0.61731 -0.43599,0.76236 l -1.83667,0 0,-1.53355 z"
       id="path3357"
       inkscape:connector-curvature="0" />
  </g>
  <metadata
     id="metadata4724">
    <rdf:RDF>
      <cc:Work
         rdf:about="">
        <dc:title></dc:title>
      </cc:Work>
    </rdf:RDF>
  </metadata>
</svg>
