<?xml version="1.0" encoding="utf-8"?>
<!-- Generator: Adobe Illustrator 14.0.0, SVG Export Plug-In . SVG Version: 6.00 Build 43363)  -->
<!DOCTYPE svg PUBLIC "-//W3C//DTD SVG 1.1//EN" "http://www.w3.org/Graphics/SVG/1.1/DTD/svg11.dtd">
<svg version="1.1" id="Layer_1" xmlns="http://www.w3.org/2000/svg" xmlns:xlink="http://www.w3.org/1999/xlink" x="0px" y="0px"
	 width="250px" height="60px" viewBox="0 0 250 60" enable-background="new 0 0 250 60" xml:space="preserve">
<g>
	<path fill="#007AC1" d="M234.952,44.938c0.907,0,1.442-0.149,1.778-0.448c0.261-0.273,0.392-0.907,0.392-1.939V21.406
		c0-1.082-0.118-1.8-0.342-2.158c-0.299-0.454-0.933-0.681-1.891-0.681h-0.733v-1.526l8.506-0.659v26.18
		c0,1.344,0.36,2.102,1.082,2.264c0.286,0.074,0.709,0.112,1.256,0.112v1.642h-10.048V44.938z"/>
	<path fill="#007AC1" d="M221.608,37.327c0.783-0.665,2.188-1.193,4.216-1.592v3.01c0,1.704-0.262,2.997-0.771,3.88
		c-0.659,1.182-1.517,1.766-2.587,1.766c-0.634,0-1.169-0.273-1.604-0.833c-0.436-0.56-0.659-1.368-0.659-2.438
		C220.203,39.379,220.676,38.123,221.608,37.327 M217.995,29.278c0.168-0.445,0.604-0.871,1.313-1.275
		c0.833-0.463,1.723-0.696,2.674-0.696c2.562,0,3.843,1.172,3.843,3.522v3.233c-3.793,0.74-6.504,1.592-8.158,2.556
		c-2.151,1.244-3.233,2.985-3.233,5.224c0,1.318,0.404,2.475,1.219,3.457c1.063,1.269,2.637,1.902,4.726,1.902
		c1.188,0,2.325-0.336,3.407-1.02c1.008-0.622,1.766-1.418,2.276-2.388v0.995c0.03,0.846,0.03,1.455,0,1.791h7.355v-1.642h-0.28
		c-1.181,0-1.771-0.809-1.771-2.438v-9.81c0-4.734-2.68-7.104-8.027-7.104c-2.164,0-3.979,0.457-5.453,1.371
		c-1.474,0.911-2.208,2.104-2.208,3.588c0,1.022,0.336,1.831,1.021,2.419c0.578,0.491,1.269,0.743,2.052,0.743
		c0.864,0,1.579-0.271,2.151-0.812c0.578-0.535,0.87-1.139,0.87-1.801c0-1.641-0.877-2.465-2.611-2.465
		c-0.659,0-1.193,0.211-1.592,0.628l0.429,0.167C218.002,29.328,218.002,29.278,217.995,29.278"/>
	<path fill="#007AC1" d="M75.636,33.93c3.352,0,6.031-0.656,8.046-1.959c2.276-1.458,3.408-3.609,3.408-6.467
		c0-2.969-1.15-5.18-3.451-6.638c-1.958-1.247-4.607-1.872-7.953-1.872H64.543v1.614c1.324,0,2.145,0.096,2.462,0.28
		c0.541,0.305,0.814,1.135,0.814,2.497v21.029c0,1.032-0.224,1.729-0.678,2.089c-0.373,0.286-1.069,0.423-2.096,0.423h-0.503v1.642
		H77.8v-1.642h-1.38c-1.063,0-1.785-0.162-2.17-0.51c-0.385-0.336-0.578-0.995-0.578-2.002V33.93H75.636z M81.008,25.526
		c0,4.353-1.778,6.529-5.323,6.529H73.82V18.714h1.865C79.23,18.714,81.008,20.987,81.008,25.526"/>
	<path fill="#007AC1" d="M95.527,30.118c0.771-3.025,2.406-4.539,4.918-4.539c0.92,0,1.654,0.249,2.208,0.752
		c0.553,0.503,0.833,1.166,0.833,1.996c0,0.725-0.236,1.365-0.703,1.934c-0.535,0.622-1.206,0.938-2.015,0.938
		c-0.771,0-1.386-0.239-1.84-0.711c-0.435-0.414-0.628-0.923-0.591-1.527c0-0.056,0.031-0.199,0.081-0.426
		c-0.759,0.955-1.355,2.59-1.803,4.891c-0.361,1.844-0.547,3.535-0.547,5.059v4.066c0,0.957,0.112,1.579,0.323,1.865
		c0.261,0.348,0.97,0.51,2.114,0.51h0.69v1.642H88.041v-1.642h0.417c0.765,0,1.318-0.137,1.654-0.41
		c0.335-0.262,0.497-0.933,0.497-1.965v-8.867c0-3.056-0.081-4.757-0.249-5.096c-0.236-0.55-0.696-0.824-1.38-0.824h-0.584v-1.638
		h6.989L95.527,30.118z"/>
	<path fill="#007AC1" d="M118.676,43.309c-0.087,0.05-0.174,0.125-0.286,0.187l0.286-0.161c-0.348,0.957-0.989,1.815-1.934,2.549
		c-1.113,0.871-2.375,1.307-3.774,1.307c-2.363,0-4.029-0.647-4.999-1.953c-0.771-1.02-1.163-2.624-1.163-4.8v-8.565
		c0-1.928-0.087-3.053-0.255-3.376c-0.236-0.432-0.79-0.656-1.672-0.656h-0.174v-1.713h7.723v15.031c0,1.99,0.827,2.985,2.481,2.985
		c1.368,0,2.294-0.945,2.773-2.873c0.211-0.771,0.311-1.828,0.311-3.171v-6.218c0-2.127-0.099-3.299-0.305-3.526
		c-0.298-0.339-0.92-0.516-1.872-0.516h-0.584v-1.713h8.432v15.343c0,1.679,0.1,2.661,0.305,2.922
		c0.261,0.361,0.765,0.535,1.505,0.535h0.528v1.642h-7.486l-0.125-3.296l0.125,0.087l0.037,0.088L118.676,43.309z"/>
	<path fill="#007AC1" d="M135.26,25.659c-2.755,0-4.98,1.182-6.672,3.535c-1.492,2.096-2.238,4.489-2.238,7.188
		c0,2.96,0.547,5.36,1.666,7.213c1.418,2.4,3.612,3.595,6.591,3.595c1.53,0,2.86-0.473,3.992-1.418
		c0.883-0.759,1.461-1.592,1.729-2.5l-0.143,0.112l-0.168-0.162l0.143,3.346h7.331V44.95h-0.367c-0.839,0-1.393-0.224-1.66-0.659
		c-0.211-0.311-0.311-0.895-0.311-1.729V16.373l-8.581,0.656v1.53h0.56c1.082,0,1.778,0.295,2.096,0.88
		c0.187,0.345,0.299,1.125,0.336,2.344c0,3.289,0.056,5.213,0.168,5.761C138.94,26.284,137.442,25.659,135.26,25.659
		 M139.612,34.169v4.141c0,1.132-0.087,2.077-0.255,2.823c-0.51,2.264-1.592,3.407-3.233,3.407c-2.301,0-3.457-2.724-3.457-8.158
		c0-2.418,0.137-4.2,0.397-5.354c0.528-2.229,1.579-3.345,3.146-3.345C138.475,27.683,139.612,29.847,139.612,34.169"/>
	<path fill="#007AC1" d="M153.739,35.879h12.442c-0.019-3.075-0.709-5.5-2.064-7.272c-1.529-2.018-3.793-3.028-6.79-3.028
		c-2.755,0-5.036,0.992-6.853,2.972c-1.828,2.04-2.735,4.639-2.735,7.794c0,3.246,0.796,5.82,2.399,7.723
		c1.717,2.09,4.16,3.122,7.325,3.122c2.456,0,4.526-0.908,6.205-2.712c1.468-1.579,2.232-3.271,2.289-5.086h-2.071
		c-0.019,1.343-0.528,2.6-1.529,3.769c-1.132,1.343-2.481,2.002-4.054,2.002c-2.245,0-3.663-1.604-4.247-4.813
		C153.845,39.28,153.739,37.8,153.739,35.879 M157.265,27.139c2.151,0,3.233,2.341,3.233,7.023h-6.759
		c0.019-0.73,0.05-1.337,0.087-1.824C154.112,28.874,155.257,27.139,157.265,27.139"/>
	<path fill="#007AC1" d="M174.271,28.787c0.467-0.948,1.213-1.716,2.232-2.313c1.02-0.597,2.151-0.896,3.401-0.896
		c4.098,0,6.149,2.226,6.149,6.681v9.309c0,1.032,0.007,1.653,0.025,1.865c0.074,0.995,0.709,1.492,1.884,1.492h0.429v1.642h-7.959
		V31.542c0-1.039-0.124-1.785-0.373-2.239c-0.36-0.662-1.038-0.995-2.039-0.995c-0.945,0-1.704,0.46-2.276,1.387
		c-0.565,0.93-0.852,2.297-0.852,4.107v7.704c0,1.729,0.081,2.698,0.255,2.885c0.342,0.361,0.951,0.535,1.822,0.535h0.342v1.642
		H166.94v-1.642h0.553c1.058,0,1.623-0.497,1.704-1.492c0.037-0.236,0.056-0.908,0.056-2.015V31.193
		c0-1.589-0.118-2.556-0.354-2.904c-0.229-0.351-0.728-0.525-1.486-0.525h-0.472v-1.638h7.33V28.787z"/>
	<path fill="#007AC1" d="M196.103,47.189c-3.401,0-5.111-1.928-5.111-5.783V27.839h-3.656V26.2h0.56
		c2.002,0,3.693-1.125,5.086-3.389c1.194-1.899,1.804-3.843,1.841-5.817h1.716V26.2h3.905v1.639h-3.905V42.09
		c0,1.68,0.517,2.525,1.555,2.525c0.914,0,1.505-0.796,1.772-2.388c0.093-0.572,0.143-1.717,0.143-3.42h1.915
		c0,2.811-0.255,4.737-0.759,5.745C200.318,46.318,198.627,47.189,196.103,47.189"/>
	<path fill="#007AC1" d="M30.581,6.402c-14.404,0-23.814,11.839-23.814,22.86c0,6.33,1.542,9.482,3.233,12.504
		c2.133-5.732,6.396-17.133,6.396-17.133s1.986-1.026,1.986-0.876l2.863-7.278l1.841-0.955l2.282-4.853l4.99,0.809l10.147,5.658
		l11.391,3.162C48.961,12.804,40.654,6.402,30.581,6.402 M30.431,55.21c-6.246,0-13.888-2.201-19.403-8.966h38.741
		C45.28,52.052,37.569,55.21,30.431,55.21 M38.08,45.075h-3.532l6.554-8.164l0.659,1.249L38.08,45.075z M41.537,19.121
		l-11.242-6.538l-4.119-0.737v3.013l3.162,2.944l-4.412-0.373c0,0,0.143,0.224,3.815,4.119l16.763,2.792l2.935,1.912l-7.636,0.367
		l-3.159,11.54l-10.368,6.915h-6.765l2.282-4.489l-0.37-0.149l-6.103,4.639h-1.467l6.246-8.755c0.295-2.497,0.146-1.394,0.516-5.882
		L20.66,29.12l-2.5,9.7l-5.22,6.256h-1.325l3.087-4.341l4.337-13.303l-1.104,0.51l-1.912,5.295l-1.321,0.733
		c0,0-3.087,7.499-4.704,11.167C7.649,41.767,5,37.209,5,29.263C5,17.355,15.219,4.789,30.581,4.789
		c14.774,0,22.646,11.761,23.964,17.858L41.537,19.121z M48.812,36.32l-2.139,1.84l-4.253,6.915h-2.798l2.798-4.938l2.201-1.828
		l3.171-8.895l3.37,1.396L48.812,36.32z M50.801,45.075h-5.658l5.36-8.457l1.617-5.515l3.382,1.178
		C55.204,36.544,53.811,40.872,50.801,45.075 M43.887,34.927l-1.691,0.299l0.448-3.386l-0.448-0.662l0.448-3.824l4.328,1.766
		L43.887,34.927z"/>
	<path fill="#007AC1" d="M203.284,44.938h0.541c0.808,0,1.317-0.262,1.523-0.759c0.13-0.36,0.192-1.256,0.192-2.699V30.792
		c0-1.449-0.137-2.298-0.436-2.556c-0.286-0.255-0.715-0.382-1.28-0.382h-0.541v-1.639h7.803V41.48c0,1.68,0.1,2.662,0.312,2.948
		c0.261,0.348,0.746,0.51,1.479,0.51h0.56v1.642h-10.153V44.938z M204.77,20.489c0-0.923,0.324-1.704,0.977-2.354
		c0.653-0.646,1.437-0.973,2.363-0.973c0.926,0,1.716,0.327,2.375,0.973c0.665,0.65,0.995,1.43,0.995,2.354
		c0,0.926-0.33,1.719-0.995,2.381c-0.659,0.671-1.449,1.004-2.375,1.004c-0.927,0-1.71-0.333-2.363-1.004
		C205.094,22.208,204.77,21.416,204.77,20.489"/>
</g>
</svg>
