<?xml version="1.0" encoding="UTF-8" standalone="no"?>
<!-- Created with Inkscape (http://www.inkscape.org/) -->

<svg
   xmlns:dc="http://purl.org/dc/elements/1.1/"
   xmlns:cc="http://creativecommons.org/ns#"
   xmlns:rdf="http://www.w3.org/1999/02/22-rdf-syntax-ns#"
   xmlns:svg="http://www.w3.org/2000/svg"
   xmlns="http://www.w3.org/2000/svg"
   xmlns:sodipodi="http://sodipodi.sourceforge.net/DTD/sodipodi-0.dtd"
   xmlns:inkscape="http://www.inkscape.org/namespaces/inkscape"
   id="svg2"
   version="1.1"
   inkscape:version="0.48.2 r9819"
   width="300"
   height="149.14424"
   xml:space="preserve"
   sodipodi:docname="Sustainability_Report_Perspective.pdf"><metadata
     id="metadata8"><rdf:RDF><cc:Work
         rdf:about=""><dc:format>image/svg+xml</dc:format><dc:type
           rdf:resource="http://purl.org/dc/dcmitype/StillImage" /><dc:title></dc:title></cc:Work></rdf:RDF></metadata><defs
     id="defs6"><clipPath
       clipPathUnits="userSpaceOnUse"
       id="clipPath16"><path
         d="m 507.03,858.5 105.03,0 0,-858.89 -105.03,0 0,858.89 z"
         clip-rule="evenodd"
         id="path18"
         inkscape:connector-curvature="0" /></clipPath><clipPath
       clipPathUnits="userSpaceOnUse"
       id="clipPath22"><path
         d="M 0,858 1207,858 1207,0 0,0 0,858 z"
         id="path24"
         inkscape:connector-curvature="0" /></clipPath><clipPath
       clipPathUnits="userSpaceOnUse"
       id="clipPath28"><path
         d="m 0.24,857.76 1207.2,0 0,-857.76 -1207.2,0 0,857.76 z"
         id="path30"
         inkscape:connector-curvature="0" /></clipPath><clipPath
       clipPathUnits="userSpaceOnUse"
       id="clipPath40"><path
         d="m 507.03,858.5 104.88,0 0,-128.75 -104.88,0 0,128.75 z"
         clip-rule="evenodd"
         id="path42"
         inkscape:connector-curvature="0" /></clipPath><clipPath
       clipPathUnits="userSpaceOnUse"
       id="clipPath46"><path
         d="M 0,858 1207,858 1207,0 0,0 0,858 z"
         id="path48"
         inkscape:connector-curvature="0" /></clipPath><clipPath
       clipPathUnits="userSpaceOnUse"
       id="clipPath52"><path
         d="m 0.24,857.76 1207.2,0 0,-857.76 -1207.2,0 0,857.76 z"
         id="path54"
         inkscape:connector-curvature="0" /></clipPath><clipPath
       clipPathUnits="userSpaceOnUse"
       id="clipPath64"><path
         d="M 0,858 1207,858 1207,0 0,0 0,858 z"
         id="path66"
         inkscape:connector-curvature="0" /></clipPath><clipPath
       clipPathUnits="userSpaceOnUse"
       id="clipPath70"><path
         d="m 0.24,857.76 1207.2,0 0,-857.76 -1207.2,0 0,857.76 z"
         id="path72"
         inkscape:connector-curvature="0" /></clipPath><clipPath
       clipPathUnits="userSpaceOnUse"
       id="clipPath80"><path
         d="m -0.23,858.5 612.29,0 0,-858.89 -612.29,0 0,858.89 z"
         clip-rule="evenodd"
         id="path82"
         inkscape:connector-curvature="0" /></clipPath><clipPath
       clipPathUnits="userSpaceOnUse"
       id="clipPath86"><path
         d="M 0,858 1207,858 1207,0 0,0 0,858 z"
         id="path88"
         inkscape:connector-curvature="0" /></clipPath><clipPath
       clipPathUnits="userSpaceOnUse"
       id="clipPath92"><path
         d="m 0.24,857.76 1207.2,0 0,-857.76 -1207.2,0 0,857.76 z"
         id="path94"
         inkscape:connector-curvature="0" /></clipPath><clipPath
       clipPathUnits="userSpaceOnUse"
       id="clipPath122"><path
         d="M 0,858 1207,858 1207,0 0,0 0,858 z"
         id="path124"
         inkscape:connector-curvature="0" /></clipPath><clipPath
       clipPathUnits="userSpaceOnUse"
       id="clipPath128"><path
         d="m 0.24,857.76 1207.2,0 0,-857.76 -1207.2,0 0,857.76 z"
         id="path130"
         inkscape:connector-curvature="0" /></clipPath></defs><sodipodi:namedview
     pagecolor="#ffffff"
     bordercolor="#666666"
     borderopacity="1"
     objecttolerance="10"
     gridtolerance="10"
     guidetolerance="10"
     inkscape:pageopacity="0"
     inkscape:pageshadow="2"
     inkscape:window-width="1024"
     inkscape:window-height="712"
     id="namedview4"
     showgrid="false"
     fit-margin-top="0"
     fit-margin-left="0"
     fit-margin-right="0"
     fit-margin-bottom="0"
     inkscape:zoom="0.31119291"
     inkscape:cx="101.54502"
     inkscape:cy="188.48254"
     inkscape:window-x="-4"
     inkscape:window-y="-4"
     inkscape:window-maximized="1"
     inkscape:current-layer="g10" /><g
     id="g10"
     inkscape:groupmode="layer"
     inkscape:label="Sustainability_Report_Perspective"
     transform="matrix(1.25,0,0,-1.25,-929.89886,198.13952)"><g
       id="g3148"
       transform="matrix(2.5255494,0,0,2.5255494,-1134.8854,-59.79577)"><path
         inkscape:connector-curvature="0"
         id="path100"
         style="fill:#e63129;fill-opacity:1;fill-rule:nonzero;stroke:none"
         d="m 795.13612,86.27822 c -0.311,-0.046 -0.61,-1.191 -1.211,-1.788 -0.439,-0.43 -0.988,-0.404 -1.279,-0.936 -0.111,-0.198 -0.075,-0.538 -0.2,-0.863 -0.246,-0.652 -1.109,-0.71 -1.109,-1.42 -0.003,-0.767 0.719,-0.913 1.346,-1.458 0.489,-0.437 0.536,-0.739 1.128,-0.952 0.506,-0.171 1.258,0.39 1.935,0.188 0.555,-0.165 1.087,-0.284 1.213,-0.855 0.111,-0.527 -0.008,-1.342 -0.682,-1.248 -0.227,0.026 -1.213,0.357 -2.422,0.228 -1.461,-0.166 -3.127,-0.642 -3.29,-2.271 -0.09,-0.909 1.036,-1.982 2.123,-1.764 0.751,0.147 0.396,1.034 0.804,1.464 0.537,0.552 3.578,-1.925 6.403,-1.925 1.19,0 2.075,0.301 2.954,1.221 0.082,0.071 0.182,0.221 0.309,0.231 0.12,-0.01 0.329,-0.128 0.398,-0.178 2.275,-1.829 3.996,-5.499 12.361,-5.541 1.177,-0.007 2.516,-0.569 3.611,-1.567 0.976,-0.902 1.546,-2.307 2.101,-3.731 0.838,-2.137 2.337,-4.216 4.612,-6.529 0.124,-0.124 1.997,-1.58 2.147,-1.688 0.023,-0.017 0.161,-0.345 0.113,-0.528 -0.055,-1.388 -0.257,-5.421 2.75,-5.604 0.735,-0.037 0.543,0.48 0.543,0.835 -0.002,0.703 -0.13,1.401 0.24,2.121 0.506,0.989 -1.074,1.444 -1.028,3.583 0.033,1.595 -1.307,1.323 -1.986,2.538 -0.392,0.704 -0.74,1.077 -0.715,1.938 0.153,4.845 -1.031,8.029 -1.621,8.811 -0.461,0.59 -0.842,0.824 -0.421,1.097 2.51,1.659 3.079,3.2 3.079,3.2 1.335,3.137 2.535,6.002 4.19,7.264 0.333,0.261 1.188,0.899 1.712,1.149 1.545,0.728 2.357,1.17 2.806,1.606 0.709,0.691 1.271,2.134 0.59,3.008 -0.846,1.079 -2.309,0.223 -2.954,-0.16 -4.614,-2.738 -5.294,-7.568 -6.892,-10.342 -1.275,-2.216 -3.348,-3.844 -5.202,-3.977 -1.388,-0.103 -2.887,0.178 -4.378,0.833 -3.627,1.59 -5.611,3.643 -6.081,4.006 -0.974,0.752 -8.538,8.179 -14.668,8.482 0,0 -0.761,1.524 -0.952,1.548 -0.448,0.058 -0.907,-0.909 -1.236,-1.022 -0.309,-0.102 -0.829,1.047 -1.141,0.996" /><path
         inkscape:connector-curvature="0"
         id="path102"
         style="fill:#e63129;fill-opacity:1;fill-rule:nonzero;stroke:none"
         d="m 768.15312,41.95522 c -0.577,0.014 -1.067,0.487 -1.067,1.072 l 0.002,19.12 -6.302,0 0,-21.075 c 0,-1.034 0.837,-1.876 1.864,-1.876 l 11.013,0 c 1.034,0 1.861,0.842 1.861,1.876 l 0,21.075 -6.296,0 -0.005,-19.12 c 0,-0.585 -0.49,-1.058 -1.07,-1.072" /><path
         inkscape:connector-curvature="0"
         id="path104"
         style="fill:#e63129;fill-opacity:1;fill-rule:nonzero;stroke:none"
         d="m 789.25012,62.14722 -9.536,0 c -1.13,0 -2.049,-0.918 -2.049,-2.058 l 0,-20.893 6.308,0 0,19.165 c 0.004,0.587 0.479,1.052 1.066,1.052 0.588,0 1.061,-0.454 1.074,-1.036 l 0,-19.181 6.281,0 0,19.181 c 0.008,0.582 0.48,1.036 1.068,1.036 0.582,0 1.064,-0.465 1.068,-1.052 l 0,-19.165 6.308,0 0,20.893 c 0,1.14 -0.922,2.058 -2.05,2.058 l -9.538,0" /><path
         inkscape:connector-curvature="0"
         id="path106"
         style="fill:#e63129;fill-opacity:1;fill-rule:nonzero;stroke:none"
         d="m 756.58312,44.96322 -6.366,0 0,-5.767 -6.298,0 0,22.951 12.704,0 c 1.137,0 2.025,-0.924 2.025,-2.067 l 0,-13.048 c 0,-1.147 -0.923,-2.069 -2.065,-2.069 z m -4.229,13.358 c 0.005,0.638 -0.515,1.092 -1.067,1.092 l -1.07,0 0,-11.608 1.07,0 c 0.556,0 1.072,0.442 1.067,1.078 l 0,9.438" /><path
         inkscape:connector-curvature="0"
         id="path112"
         style="fill:#e63129;fill-opacity:1;fill-rule:nonzero;stroke:none"
         d="m 811.41112,39.19622 0,5.762 -2.141,0 0,-5.762 -6.295,0 0,20.893 c 0,1.14 0.919,2.058 2.049,2.058 l 10.634,0 c 1.132,0 2.05,-0.918 2.05,-2.058 l 0,-20.893 -6.297,0 z m 0,8.605 0,10.568 c -0.015,0.584 -0.485,1.033 -1.073,1.033 -0.582,0 -1.062,-0.467 -1.068,-1.05 l 0,-10.551 2.141,0" /></g></g></svg>