<?xml version="1.0" encoding="UTF-8" standalone="no"?>
<svg
   xmlns:dc="http://purl.org/dc/elements/1.1/"
   xmlns:cc="http://creativecommons.org/ns#"
   xmlns:rdf="http://www.w3.org/1999/02/22-rdf-syntax-ns#"
   xmlns:svg="http://www.w3.org/2000/svg"
   xmlns="http://www.w3.org/2000/svg"
   xmlns:sodipodi="http://sodipodi.sourceforge.net/DTD/sodipodi-0.dtd"
   xmlns:inkscape="http://www.inkscape.org/namespaces/inkscape"
   version="1.1"
   id="Livello_1"
   x="0px"
   y="0px"
   width="924"
   height="107"
   viewBox="0 0 924.00001 107"
   enable-background="new 0 0 283.465 141.732"
   xml:space="preserve">
<path
   inkscape:connector-curvature="0"
   id="path5"
   d="m 73.000481,49.482093 c 9.10563,0 14.87352,-4.85592 15.02417,-12.593765 0,-4.400267 -3.18724,-7.436842 -9.10577,-7.436842 -1.82364,0 -3.79363,0 -4.5549,0.151391 -1.67322,8.654212 -1.82378,10.929431 -3.18722,19.729755 0.30288,-0.0043 1.06302,0.151391 1.82372,0.151391 l 0,0 z M 54.935375,24.591045 c 0,-11.836889 -7.281931,-16.5423782 -17.299404,-16.5423782 -3.337788,0 -9.56166,0.302883 -10.924912,0.454074 C 23.523733,25.651394 22.155991,34.150715 19.5796,51.755512 c 1.062848,0.155191 3.944133,0.454674 7.737804,0.454674 16.542479,0.0043 27.617971,-12.288403 27.617971,-27.617891 l 0,0 z m 58.586635,-0.151391 c -4.09903,18.817737 -6.98076,38.24626 -8.955,57.365 0,0 -3.4927,-0.151392 -4.856099,-0.151392 -0.98954,0 -2.81721,0.056 -3.97003,0.108194 l -1.04131,0.049 c -1.25595,-0.07 -3.32924,-0.151991 -4.24534,-0.151991 -1.51829,0 -5.00656,0.151391 -5.00656,0.151391 -3.798,-8.798863 -9.25624,-20.175539 -12.75312,-27.466099 h -2.42582 c -1.36357,8.955094 -2.58071,18.361813 -3.79372,27.467469 0,0 -3.337758,-0.151391 -4.705589,-0.151391 -1.518272,0 -4.85598,0.151391 -4.85598,0.151391 3.346277,-15.372485 5.970026,-31.144948 7.733535,-46.831445 -4.851681,13.673523 -18.361844,23.609291 -37.179631,23.609291 -4.395737,0 -7.888276,-0.151391 -8.950595,-0.302882 -2.43056,16.542448 -4.555198,30.504145 -6.830377,47.04658 0,0 -3.1873565,-0.45397 -5.7680485,-0.45397 -2.735682,0 -3.337607,0 -5.9183290400582,0.30278 C 7.4365685,71.184915 12.593671,35.97529 16.081861,1.5226518 c 0,0 4.709929,0.304983 7.437022,0.304983 L 37.48062,1.5226518 c 11.98752,-0.302782 29.136401,1.668854 29.136401,21.8544332 l -0.05,1.084368 c 1.69464,0.058 5.36356,0.129792 6.8561,0.129792 8.34432,-0.151391 23.9792,-1.974256 23.9792,11.380955 0,11.836929 -9.56161,16.847821 -15.48005,17.90592 3.57861,7.587254 8.77444,18.409131 13.04556,26.491016 3.93561,-18.370383 6.731379,-37.291324 8.658329,-55.932752 0,0 3.48825,0.151391 4.85601,0.151391 1.52262,0.019 5.01522,-0.144391 5.01522,-0.144391 l 0,0 z m 8.62819,36.577366 c 0,10.314316 2.42595,17.604877 10.01754,17.604877 7.88844,0 13.6564,-6.370084 13.6564,-6.370084 h 1.21709 l -1.67308,6.980789 c -0.15139,0.151391 -6.06908,4.701089 -14.42198,4.701089 -9.10558,0 -18.3617,-6.524735 -18.3617,-23.673678 0,-18.211312 11.68625,-36.117212 28.22863,-36.117212 7.28194,0 13.04987,3.944283 13.04987,3.944283 -0.75555,2.275299 -1.9742,5.91844 -2.2753,8.193799 h -1.06292 c 0,-0.151392 -3.48836,-6.830307 -10.1681,-6.830307 -11.22606,-0.0043 -18.207,18.817697 -18.207,31.566444 l 0,0 z M 262.68337,17.764418 c -11.38098,23.217814 -18.67154,39.45921 -33.69134,71.330896 -2.12479,-0.454774 -4.70981,-0.304982 -7.13565,0 -0.90705,-23.824109 -1.20867,-40.521389 -2.58071,-57.519741 l -23.37275,57.519861 c -2.2753,-0.454774 -4.85598,-0.304982 -7.28192,0 -1.74626,-21.673563 -3.08399,-39.467659 -5.26892,-58.57355 -3.98722,-0.282984 -7.56157,-0.460473 -12.18534,-0.460473 -1.36351,-0.151392 -3.49257,-0.151392 -4.24524,-0.151392 -1.67322,9.256258 -1.97425,10.168085 -3.33779,19.419943 1.06287,0 3.79373,0.151391 5.61305,0.151391 4.70554,0 8.04328,-0.302882 12.44769,-0.605165 -0.45407,1.974106 -0.90704,4.098984 -0.60426,5.91823 -4.40017,-0.454274 -8.80455,-0.605366 -12.74881,-0.605366 -2.73546,-0.154791 -3.03665,0.151392 -5.46684,0.151392 -1.36336,8.499171 -1.97416,13.505833 -3.33772,22.611389 0.30288,-0.302783 0.91255,-0.454074 2.12477,-0.454074 1.67316,0 8.04334,-0.155291 10.47338,-0.305483 4.24967,-0.302882 8.19385,-0.907147 8.19385,-0.907147 -0.76225,1.974336 -0.90714,4.85607 -0.76225,6.524994 l -6.52495,-0.151791 c -3.33774,-0.144492 -8.19375,-0.144492 -11.68637,-0.144492 -3.03665,0 -5.91839,0 -8.04322,0.144392 h -2.58541 -0.90715 c 3.64308,-18.817777 6.52498,-38.087149 8.49918,-57.064037 0,0 5.61737,0.151391 7.59164,0.151391 l 13.35098,0.151392 3.47109,-0.057 -0.89104,-7.071143 c 0,0 3.49259,0.151391 4.85609,0.151391 1.36341,0 4.55495,-0.151391 4.55495,-0.151391 1.21299,20.185458 2.88179,38.396841 4.70552,57.816813 3.94416,-9.862742 17.29941,-43.554004 22.46082,-57.816813 2.27967,0.454674 6.21957,0.302882 8.65407,0 0.91255,19.12307 1.66882,38.091388 2.58074,57.816813 4.40009,-9.862742 20.03064,-44.31111 25.19206,-57.816813 0,0 2.58073,0.151391 3.94425,0.151391 1.36773,0.0043 3.94417,-0.144392 3.94417,-0.144392 l 0,0 z m 7.73783,38.091369 -2.42582,-20.181199 -10.31859,20.181199 c 1.21303,0.151391 4.24957,0.151391 6.37436,0.151391 2.12476,0 5.31198,0 6.37005,-0.151391 l 0,0 z m 4.09906,-31.265462 c 2.8818,22.004964 4.09908,33.841883 8.04323,57.214549 0,0 -3.49249,-0.295083 -4.85606,-0.295083 -1.52257,0 -4.40009,0.295083 -4.40009,0.295083 -0.61146,-7.888267 -2.12482,-19.269292 -2.27532,-21.243598 -1.21301,-0.151391 -5.15712,-0.302883 -7.89275,-0.302883 -2.73125,0 -6.83031,0.302883 -7.74219,0.302883 -3.64312,7.131429 -7.2819,13.664914 -10.62389,21.243598 0,0 -2.42591,-0.151392 -3.79364,-0.151392 -1.52265,0 -3.9485,0.151392 -3.9485,0.151392 8.80454,-14.563793 17.30363,-31.110541 31.26538,-57.214549 h 6.22383 l 0,0 z m 26.3878,-6.369983 c -3.79353,18.361843 -5.76781,32.628853 -7.74213,51.743363 0,0 -3.33333,-0.294983 -4.70551,-0.294983 -1.51832,0 -4.85599,0.294983 -4.85599,0.294983 4.09474,-18.813408 6.06892,-33.536451 8.34436,-51.743363 -6.21952,0.144391 -15.78113,0.604565 -15.78113,0.604565 0.76225,-1.819465 1.21303,-3.948543 1.21303,-6.219512 0,0 12.28848,0.151391 19.88008,0.151391 7.43683,0 19.88023,-0.151391 19.88023,-0.151391 -0.75566,1.668944 -1.3635,3.944153 -1.21315,6.219512 0.004,0 -8.64534,-0.460474 -15.01981,-0.604565 l 0,0 z m 26.2546,42.491505 c -0.45447,1.974307 -0.91245,4.099064 -0.61166,5.922799 -4.39578,-0.454973 -8.80029,-0.611464 -12.74878,-0.611464 -2.73121,0 -3.03232,0.151391 -5.46679,0.151391 -1.36346,8.649702 -1.96995,13.505863 -3.33346,22.76204 0.30278,-0.302882 0.90714,-0.604665 2.1205,-0.604665 1.67317,0 8.04327,-0.157591 10.47772,-0.304982 4.24527,-0.151392 8.19385,-0.762257 8.19385,-0.762257 -0.76236,1.974307 -0.91245,4.855991 -0.76236,6.529105 l -6.5292,-0.302383 h -11.68597 c -3.03662,0 -5.91854,0 -8.04329,0.151391 h -2.58067 -0.91254 c 3.64314,-18.822247 6.52929,-38.246299 8.49925,-57.219057 0,0 5.61742,0 7.59162,0.151391 l 13.35521,0.157591 c 2.88181,0 5.76789,-0.157591 9.2562,-0.460474 -0.76226,1.823765 -1.21303,3.948553 -1.21303,6.223852 -5.76787,-0.304982 -10.01748,-0.611465 -16.08641,-0.761956 h -4.24957 c -1.66893,9.260537 -1.97422,10.013204 -3.33777,19.428582 1.06288,0 3.79365,0.144392 5.61744,0.144392 4.70976,0.0043 8.04748,-0.295083 12.44765,-0.604465 l 0,0 z m 17.27363,-11.230354 c 9.10555,0.155491 14.87357,-4.701209 15.02418,-12.593975 0,-4.249566 -3.18733,-7.286181 -9.10572,-7.286181 h -3.64312 c -1.6732,8.653992 -1.82374,10.929261 -3.1872,19.880156 h 0.91245 l 0,0 z m 67.99357,-18.667196 c -4.09927,18.822097 -6.98498,38.24624 -8.95513,57.218788 0,0 -3.33773,-0.151391 -4.70532,-0.151391 -1.51841,0 -4.85666,0.151391 -4.85666,0.151391 2.27572,-10.322826 3.48819,-18.211152 5.15715,-28.228676 -1.67285,0 -7.43614,-0.145191 -11.38099,-0.145191 -3.49666,0 -8.50319,0.145191 -9.86705,0.145191 -1.36759,9.716321 -2.58013,17.90585 -3.64272,28.228676 0,0 -3.33776,-0.151391 -4.70545,-0.151391 -1.52278,0 -4.86046,0.151391 -4.86046,0.151391 l 1.31171,-6.266899 c -1.27726,-0.049 -3.17422,-0.108194 -4.03871,-0.108194 -1.51832,0 -5.00652,0.151391 -5.00652,0.151391 -3.79808,-8.950735 -9.25622,-20.176909 -12.74879,-27.316898 -0.45538,0 -1.0629,-0.151391 -1.52264,-0.151391 -1.36353,8.955184 -2.58074,18.207042 -3.79366,27.467439 0,0 -3.33779,-0.294383 -4.70549,-0.294383 -1.51834,0 -4.85614,0.294383 -4.85614,0.294383 4.09476,-18.821907 6.98089,-38.241909 8.95516,-57.214478 0,0 5.61301,0.151391 7.58725,0.151391 l 7.43684,-0.151391 c 6.67548,-0.151391 15.6307,1.823725 15.6307,11.535966 0,11.686278 -9.5618,16.69701 -15.48445,17.755159 3.53559,7.492749 8.64978,18.013504 12.88657,26.155685 3.23421,-16.254295 5.60835,-32.796773 7.29875,-49.222978 0,0 3.33764,0.305183 4.70603,0.305183 1.5183,0 4.85592,-0.305183 4.85592,-0.305183 -1.97464,8.804643 -3.03264,15.484399 -4.40029,23.97928 1.36765,0 5.76801,0.151392 8.80442,0.302883 4.24976,0 10.7793,-0.302883 12.29269,-0.302883 1.05764,-8.499181 2.12534,-15.174637 3.0364,-23.97928 0,0 3.33428,0.305183 4.70174,0.305183 1.52648,-0.0043 4.86914,-0.308983 4.86914,-0.308983 l 0,0 z m 39.15338,16.241366 c 0,-8.503471 -1.97395,-17.609077 -11.23039,-17.609077 -12.90374,0 -19.12358,20.030677 -19.12358,31.721325 0,8.34418 2.12584,17.604707 11.23151,17.604707 12.89843,0 18.97216,-20.030648 19.12246,-31.716955 l 0,0 z m 9.25562,0.755656 c 0,15.780902 -10.16375,36.117142 -29.13551,36.117142 -12.13798,0 -19.87983,-8.955124 -19.87983,-23.523336 0,-15.935993 10.31785,-36.272103 29.29539,-36.272103 12.13335,0.0043 19.71995,8.955164 19.71995,23.678297 l 0,0 z m 78.6141,-9.105756 c -0.91325,2.275379 -1.9748,5.466926 -2.27196,7.742225 h -1.21637 c 0,-0.305583 -2.1212,-6.830267 -9.10568,-6.830267 -6.22019,0 -10.47342,4.554968 -10.47342,9.56143 0,6.06907 5.16122,8.34438 9.56091,10.925121 2.42609,1.21299 4.8611,2.585031 6.68044,4.709849 1.82331,2.120548 3.18682,5.006532 3.18682,9.712081 0,9.256208 -8.0431,19.880427 -21.85448,19.880427 -7.13153,0 -13.35493,-4.856461 -13.35493,-4.856461 0.91205,-2.275009 2.12908,-5.767758 2.43012,-7.892416 h 1.21264 c 0,0.151391 3.1876,7.436622 10.47373,7.436622 7.43703,0 12.29277,-6.533404 12.29277,-12.292823 0,-3.944213 -2.42625,-5.767868 -5.4667,-7.591623 -6.37505,-3.939933 -13.05034,-6.524914 -13.05034,-15.781092 0,-11.079932 7.59185,-18.968319 19.11874,-18.968319 7.43684,-0.0043 11.68729,4.094775 11.8378,4.245276 l 0,0 z m -37.48539,22.460838 c -2.43021,12.138052 -7.43664,22.912632 -22.31032,22.912632 -12.90343,0 -17.2995,-7.13148 -17.2995,-16.839391 0,-1.677384 0.45788,-4.404337 0.91185,-7.591514 0.45788,-3.342107 1.2084,-7.135689 1.81939,-11.234733 1.51816,-8.039028 3.03647,-16.843581 3.64392,-23.974901 0,0 3.33768,0.151391 4.70579,0.151391 1.51813,0 4.85554,-0.151391 4.85554,-0.151391 -1.05722,5.767948 -2.73183,14.417541 -4.09459,22.76619 -1.52272,8.34446 -2.7312,16.232776 -2.7312,20.181279 0,7.742135 3.94334,10.624019 9.25638,10.624019 9.86206,0 13.3505,-7.591693 15.63029,-19.1189 1.97408,-10.017404 4.70474,-27.927743 5.30792,-34.452588 0,0 2.42499,0.151391 3.79799,0.151391 1.52218,0 3.64279,-0.151391 3.64279,-0.151391 -2.58076,12.447674 -5.46676,28.534228 -7.1358,36.727907 l 0,0 z M 626.0956,88.934983 h 1.51829 l -2.73058,9.716621 C 624.72282,98.802996 614.10398,107 599.23485,107 c -15.86723,0 -29.9407,-11.501274 -32.1646,-35.403069 l -5.61233,-0.265785 c -3.34257,-0.151391 -8.19878,-0.151391 -11.69095,-0.151391 -3.03221,0 -5.91869,0.151391 -8.04345,0.151391 h -2.58043 -0.91305 c 3.64732,-18.817777 6.52958,-38.091348 8.50395,-57.214498 0,0 5.61723,0.151391 7.58656,0.151391 l 13.35565,0.151392 c 2.88641,0 5.76782,-0.151392 9.2564,-0.302883 -0.76435,1.668764 -1.21264,3.944063 -1.21264,6.219502 -5.7683,-0.454274 -10.01831,-0.755756 -16.09139,-0.755756 h -4.24505 c -1.66892,9.101496 -1.97019,10.013384 -3.33778,19.428662 h 4.24929 c 3.03288,0 6.22412,-0.305183 10.62391,-0.611465 -0.46598,1.974306 -0.91215,4.245236 -0.59797,5.918399 -4.39561,-0.453573 -8.03908,-0.604165 -10.92504,-0.604165 -1.36335,0 -1.81958,0 -2.27523,0.155191 h -1.81956 c -1.36399,8.645423 -1.97476,13.501423 -3.33749,22.761891 0.29088,-0.305183 0.91225,-0.454674 2.12038,-0.454674 1.67257,0 8.04325,-0.151391 10.47728,-0.302883 2.3788,-0.17309 4.66309,-0.438774 6.21134,-0.633163 -0.005,-34.577381 21.54387,-65.23190719 50.07816,-65.23190719 13.05061,0 22.76254,6.82992699 23.0678,6.98077799 -1.82353,3.9439932 -3.49234,8.4991912 -4.24936,11.8367492 h -1.36775 c -0.15689,-0.151591 -6.36615,-12.2927432 -18.66761,-12.2927432 -18.96796,0 -37.17927,26.8651652 -37.17927,62.2296902 0,19.11882 9.86197,31.716976 23.373,31.716976 13.66082,0 24.27946,-11.540027 24.27946,-11.540027 l 0,0 z m 57.21483,-42.035561 c 0,-8.34432 -1.51791,-17.299485 -10.77448,-17.299485 -12.89934,0 -18.81749,19.880186 -18.81749,31.420252 0,8.34436 1.8192,17.454416 10.92485,17.454416 12.74826,-0.0043 18.66712,-19.888856 18.66712,-31.575183 l 0,0 z m -37.17932,0 c 0,-8.499241 -1.97006,-17.604897 -11.23096,-17.604897 -12.89435,0 -19.11881,20.181289 -19.11881,31.871926 0,8.499251 2.12539,17.604837 11.23112,17.604837 12.89462,0 19.11865,-20.030657 19.11865,-31.871866 l 0,0 z m 47.19725,0.762256 c 0,15.780982 -10.31951,36.117142 -28.98564,36.117142 -12.44844,0 -16.08721,-9.256167 -16.9951,-12.447724 -1.6729,3.040955 -8.0473,12.748627 -21.10131,12.748627 -12.13739,0 -19.87579,-8.950635 -19.87579,-23.673658 0,-15.935933 10.31425,-36.426964 29.29095,-36.426964 12.74962,0 16.238,9.410998 17.14937,12.598255 1.66877,-3.032306 7.89249,-12.288413 20.94194,-12.288413 11.99201,0 19.57558,8.800243 19.57558,23.372735 l 0,0 z m 69.93267,1.21284 c -0.47097,1.974307 -0.90495,4.099074 -0.58996,5.91854 -4.39955,-0.453574 -8.8009,-0.762056 -12.74927,-0.762056 -2.73194,0 -3.03223,0.305182 -5.46179,0.155391 -1.36842,8.649532 -1.97878,13.505853 -3.3427,22.76192 0.29098,-0.302783 0.91494,-0.611465 2.12457,-0.611465 1.67311,0.155291 8.04404,-0.151391 10.4738,-0.151391 4.24856,-0.302883 8.19703,-0.907048 8.19703,-0.907048 -0.76596,1.974296 -0.90995,4.856111 -0.76596,6.525005 l -6.52872,-0.295183 H 742.9311 c -3.03592,0 -5.91816,0 -8.04284,0.144391 h -2.58095 -0.90994 c 3.64319,-18.817897 6.52992,-38.087158 8.50031,-57.064137 0,0 5.61737,0.151392 7.58986,0.151392 l 13.35193,0.151391 c 2.88983,0 5.77207,-0.151391 9.26047,-0.302883 -0.77296,1.669004 -1.21683,3.948603 -1.21683,6.219563 -5.76397,-0.454174 -10.01373,-0.755557 -16.08178,-0.755557 -1.36522,-0.151391 -3.494,0 -4.25045,0 -1.66871,9.105736 -1.97449,10.017704 -3.33741,19.269561 1.06224,0 3.79768,0.151392 5.61738,0.151392 4.70483,0.019 8.04793,-0.294983 12.44338,-0.596666 l 0,0 z M 725.17362,37.338962 c 0,-4.705529 -2.88603,-7.742135 -9.40986,-7.742135 h -5.46338 c -1.66901,9.256138 -2.12478,11.690578 -3.4915,21.093007 0.58797,0 1.82249,0.155091 2.88093,0.155091 9.41506,0.0043 15.48381,-5.157123 15.48381,-13.505833 l 0,0 z m 9.40666,-1.363672 c 0,12.748907 -12.29269,20.030898 -22.00373,20.030898 -3.79808,0 -5.92376,0 -6.68102,-0.151391 -1.36272,8.955174 -2.42436,16.692979 -3.64249,25.798865 0,0 -3.33771,-0.145391 -4.70933,-0.145391 -1.51861,0 -4.85262,0.145391 -4.85262,0.145391 4.09507,-18.817837 6.9764,-38.087378 8.95149,-57.064077 0,0 5.61727,0.151392 7.59056,0.151392 l 9.71244,-0.151392 c 6.83041,-0.151391 15.6347,1.974167 15.6347,11.385305 l 0,0 z m 61.74015,0.912548 c 0,-4.400077 -3.18312,-7.286211 -9.10528,-7.286211 h -4.09596 c -1.6685,8.654092 -1.8192,10.929301 -3.18642,19.729585 0.28899,0.151391 1.06124,0.151391 1.8238,0.151391 9.10127,0 14.56386,-5.311944 14.56386,-12.593825 l 0,0 z m 44.16436,-8.503371 c -0.91295,2.275239 -1.96949,5.466656 -2.27557,7.742155 h -1.21343 c 0,-0.302883 -2.12538,-6.679716 -9.10568,-6.679716 -6.22434,0 -10.47359,4.399897 -10.47359,9.410938 0,6.073351 5.1571,8.34852 9.56205,10.77885 2.42996,1.367662 4.86012,2.731123 6.67931,4.70548 1.8232,2.124697 3.18742,5.161453 3.18742,9.712141 0,9.411098 -8.04364,19.879946 -22.46551,19.879946 -13.50582,0 -19.42428,-6.060451 -25.79851,-17.294935 0,0 -5.15721,-9.110016 -6.9807,-12.142361 -1.21283,-0.151392 -2.12528,-0.151392 -2.58545,-0.151392 -1.36333,8.955145 -2.58066,18.207013 -3.79359,27.317049 0,0 -3.3333,-0.144892 -4.70523,-0.144892 -1.51861,0 -4.85652,0.144892 -4.85652,0.144892 4.09937,-18.817808 6.9816,-38.087219 8.95539,-57.064177 0,0 5.61748,0.151391 7.58736,0.151391 8.34882,-0.151391 23.52295,-1.819455 23.52295,11.230324 0,11.230454 -8.95029,16.69311 -15.01934,17.90598 l 6.83021,11.385415 c 5.46219,8.954815 9.10558,13.350962 17.60459,13.350962 8.34382,0 12.89955,-6.533784 12.89955,-12.292913 0,-3.793662 -2.42656,-5.767938 -5.46688,-7.436792 -6.36953,-3.948593 -13.05005,-6.529375 -13.05005,-15.785532 0,-11.079733 7.59196,-18.968299 19.1183,-18.968299 7.44247,0 11.69173,4.094755 11.84202,4.245436 l 0,0 z m 83.51179,2.477368 v 38.904441 c 0,5.884072 0.26999,10.43038 -3.96957,14.529354 -4.08986,4.026129 -8.5723,3.703207 -14.33077,3.703207 h -18.03927 c -5.76086,0 -10.17751,0.315582 -14.33607,-3.703207 -4.22066,-4.098974 -3.96977,-8.645282 -3.96977,-14.529354 V 30.861865 c 0,-5.884022 -0.27899,-10.43031 3.96977,-14.525045 4.15856,-4.030328 8.57521,-3.712006 14.33607,-3.712006 h 18.03927 c 5.75847,0 10.17091,-0.314982 14.33077,3.712006 4.22746,4.099034 3.96957,8.641023 3.96957,14.525045 l 0,0 z m -12.79606,39.356145 0.77996,-4.413126 c -3.90008,3.006527 -7.35898,4.35266 -11.19996,4.35266 -6.58892,0 -10.68009,-5.380771 -10.68009,-14.013204 0,-0.582667 0,-1.023141 0.123,-2.051682 -1.59531,0.259585 -2.87804,0.316082 -4.98922,0.380278 -0.12299,0.893949 -0.12299,1.2171 -0.12299,1.982796 0,10.241211 5.63058,16.387577 14.97284,16.387577 3.83678,-0.0043 7.48437,-0.839352 11.13216,-2.628069 l 0,0 z m -2.63225,-5.273376 8.6937,-20.671511 h -2.07008 l -6.07205,15.522937 -2.22387,-15.522937 h -1.90489 l -6.00576,15.522937 -0.97294,-8.972294 c -1.28203,0.898948 -1.49292,1.04454 -2.58165,1.496814 l 1.33432,12.624054 h 1.6987 l 6.28034,-16.099414 2.15898,16.099414 h 1.664 l 0,0 z m 7.62646,-28.577156 1.7245,-4.671242 c -3.77668,-2.365633 -6.65421,-3.264532 -10.3663,-3.264532 -3.13542,0 -4.98871,0.444475 -8.51061,2.051732 -1.98439,-1.087707 -4.35365,-1.535581 -8.19103,-1.535581 h -9.21657 l -6.9086,43.257281 h 4.60783 l 3.13532,-19.514577 c 0.64097,0.057 1.01704,0.057 1.47582,0.057 12.0939,0 19.00271,-5.307754 19.00271,-14.59405 0,-1.660234 -0.31499,-2.941971 -1.02245,-4.030188 -1.47051,0.769656 -2.49495,1.600118 -3.96607,2.94629 0.26599,1.028271 0.32398,1.531262 0.32398,2.365644 0,4.86475 -2.81853,8.576667 -7.55846,9.854133 1.794,-10.684235 8.38422,-18.108038 16.13087,-18.108038 3.96457,-0.0043 6.77731,1.531242 9.34136,5.178652 l 0,0 z m -30.27116,-4.860421 h 1.8625 c 4.41184,0 5.69397,0.18699 7.61166,1.213041 -5.49668,4.606505 -8.50701,9.785227 -9.91843,17.406928 l -1.40532,0.058 h -1.15163 l 3.00262,-18.684445 0,0 z"
   clip-path="none" />
</svg>