<?xml version="1.0" encoding="UTF-8" standalone="no"?>
<!-- Created with Inkscape (http://www.inkscape.org/) -->

<svg
   xmlns:dc="http://purl.org/dc/elements/1.1/"
   xmlns:cc="http://creativecommons.org/ns#"
   xmlns:rdf="http://www.w3.org/1999/02/22-rdf-syntax-ns#"
   xmlns:svg="http://www.w3.org/2000/svg"
   xmlns="http://www.w3.org/2000/svg"
   xmlns:sodipodi="http://sodipodi.sourceforge.net/DTD/sodipodi-0.dtd"
   xmlns:inkscape="http://www.inkscape.org/namespaces/inkscape"
   width="1000"
   height="473.60229"
   id="svg2"
   version="1.1"
   inkscape:version="0.48.2 r9819"
   sodipodi:docname="New document 1">
  <defs
     id="defs4" />
  <sodipodi:namedview
     id="base"
     pagecolor="#ffffff"
     bordercolor="#666666"
     borderopacity="1.0"
     inkscape:pageopacity="0.0"
     inkscape:pageshadow="2"
     inkscape:zoom="0.125"
     inkscape:cx="2713.0034"
     inkscape:cy="690.70925"
     inkscape:document-units="px"
     inkscape:current-layer="layer1"
     showgrid="false"
     showguides="true"
     inkscape:guide-bbox="true"
     fit-margin-left="0.5"
     fit-margin-top="0.5"
     fit-margin-bottom="0.5"
     fit-margin-right="0.5"
     inkscape:window-width="1920"
     inkscape:window-height="1028"
     inkscape:window-x="-8"
     inkscape:window-y="-8"
     inkscape:window-maximized="1">
    <inkscape:grid
       type="xygrid"
       id="grid2996"
       empspacing="5"
       visible="true"
       enabled="true"
       snapvisiblegridlinesonly="true" />
  </sodipodi:namedview>
  <metadata
     id="metadata7">
    <rdf:RDF>
      <cc:Work
         rdf:about="">
        <dc:format>image/svg+xml</dc:format>
        <dc:type
           rdf:resource="http://purl.org/dc/dcmitype/StillImage" />
        <dc:title></dc:title>
      </cc:Work>
    </rdf:RDF>
  </metadata>
  <g
     inkscape:label="Layer 1"
     inkscape:groupmode="layer"
     id="layer1"
     transform="translate(1280.5,-2097.3039)">
    <g
       id="g3170"
       transform="matrix(0.39848424,0,0,0.39848424,-769.94017,1546.1398)">
      <path
         id="path3128"
         d="m -687,1384.4062 c -327.4999,0 -593,265.5003 -593,593 0,327.5 265.5001,593 593,593 327.49992,0 592.96875,-265.5 592.96875,-593 0,-327.4997 -265.46883,-593 -592.96875,-593 z m 0,111.0313 c 266.18436,0 481.96875,215.7847 481.96875,481.9687 0,266.1847 -215.78439,481.9688 -481.96875,481.9688 -133.48671,0 -254.3138,-54.293 -341.5938,-141.9688 l 144.5938,0 0,-206 82.25,0 137.25,206 217.5,0 -158.84375,-232.9687 c 75.09229,-31.9855 139.78125,-93.4108 139.78125,-203.1563 0,-121.9497 -65.66849,-243.875 -287.9375,-243.875 l -274.625,0 C -941.3411,1549.7 -820.51331,1495.4375 -687,1495.4375 z m -385,191.9687 0,580 c -60.8817,-80.6936 -96.9688,-181.1269 -96.9688,-290 0,-108.8713 36.0886,-209.3069 96.9688,-290 z m 188,113 123,0 c 67.13096,0 102,32.122 102,81.625 0,53.9803 -46.45844,79.375 -90.65625,79.375 l -134.34375,0 0,-161 z"
         style="fill:#e66650;fill-opacity:1;stroke:none"
         inkscape:connector-curvature="0" />
      <rect
         style="fill:#574a23;fill-opacity:1;stroke:none"
         id="rect3160"
         width="1552"
         height="346"
         x="-325"
         y="1804.4116" />
      <path
         style="color:#000000;fill:#ffffff;stroke:none;stroke-width:0.25;marker:none;visibility:visible;display:inline;overflow:visible;enable-background:accumulate"
         d="m -223,2066.4116 0,-134 42,0 0,26.0606 c 8.3345,-24.9355 32.77589,-33.0362 54,-27.5026 l 0,38.442 c 0,0 -7.56539,-1.5224 -15.00803,-1.5224 -28.6539,0 -33.99197,25.6433 -33.99197,33.1861 l 0,65.3363 z"
         id="path3136"
         inkscape:connector-curvature="0"
         sodipodi:nodetypes="cccccccccc" />
      <path
         inkscape:connector-curvature="0"
         style="color:#000000;fill:#ffffff;stroke:none;stroke-width:0.1;marker:none;visibility:visible;display:inline;overflow:visible;enable-background:accumulate"
         d="m -54.96875,1929.1744 c -32.461461,-0.1177 -51.90625,9.0312 -51.90625,9.0312 l 0,33.125 c 0,0 12.737719,-10.9375 42.34375,-10.9375 19.716843,0 30.6875,7.1855 30.6875,22.7813 0,0 -11.028357,-2.1875 -21.84375,-2.1875 -48.40487,0 -68.5,17.6275 -68.5,46.2187 0,26.8789 21.12756,42.3438 49.84375,42.3438 19.317841,0 34.674465,-10.3203 41.28125,-23.0625 l 0,19.9687 42.4375,0 0,-80.5312 c 0,-32.5578 -15.7713094,-56.75 -64.34375,-56.75 z m 2.03125,76.8125 c 9.355604,0 18.90625,0.5312 18.90625,0.5312 0,14.6082 -10.440906,31.2813 -28.03125,31.2813 -10.199253,0 -19,-5.3336 -19,-14.0313 0,-14.0047 15.128974,-17.7812 28.125,-17.7812 z"
         id="path3138" />
      <path
         id="path3140"
         d="m 126.84375,1874.125 0,75.5625 c 0,0 -10.99596,-20.5 -45.625,-20.5 -39.647106,0 -57.625,35.7066 -57.625,68.4063 0,45.4867 25.864088,71.5937 60.71875,71.5937 18.69413,0 40.29324,-10.1636 46.25,-27.2187 l 0,24.4687 42.9375,0 0,-192.3125 -46.65625,0 z m -28.09375,91 c 16.75739,0 28.25,14.6007 28.25,33.75 0,15.7321 -10.26191,34.5 -28,34.5 -17.001288,0 -27.375,-14.6198 -27.375,-35.625 0,-15.51 7.982187,-32.625 27.125,-32.625 z"
         style="color:#000000;fill:#ffffff;stroke:none;stroke-width:0.1;marker:none;visibility:visible;display:inline;overflow:visible;enable-background:accumulate"
         inkscape:connector-curvature="0" />
      <path
         style="color:#000000;fill:#ffffff;stroke:none;stroke-width:0.1;marker:none;visibility:visible;display:inline;overflow:visible;enable-background:accumulate"
         d="m 197.45957,2066.4116 46.54043,0 -46.54043,0 0,-134 46.54043,0 0,134 z"
         id="path3142"
         inkscape:connector-curvature="0"
         sodipodi:nodetypes="ccccccc" />
      <path
         sodipodi:type="arc"
         style="fill:#ffffff;stroke:none"
         id="path3144"
         sodipodi:cx="222.87122"
         sodipodi:cy="444.11777"
         sodipodi:rx="19.48963"
         sodipodi:ry="19.48963"
         d="m 242.36085,444.11777 c 0,10.76382 -8.72581,19.48963 -19.48963,19.48963 -10.76383,0 -19.48963,-8.72581 -19.48963,-19.48963 0,-10.76383 8.7258,-19.48963 19.48963,-19.48963 10.76382,0 19.48963,8.7258 19.48963,19.48963 z"
         transform="matrix(1.2893216,0,0,1.2893216,-66.337621,1319.7558)" />
      <path
         id="path3146"
         d="m 337.46875,1929.1875 c -51.7916,0 -77.4375,33.1981 -77.4375,70.3437 0,49.1501 40.71456,69.9063 78.40625,69.9063 38.84634,0 77.25,-22.5922 77.25,-69.4687 0,-34.6994 -21.37475,-70.7813 -78.21875,-70.7813 z m 0.625,32.6875 c 12.79143,0 29.5,8.4756 29.5,36.9688 0,26.4165 -14.14573,37.5624 -29.5,37.5624 -17.84629,0 -30.0625,-13.757 -30.0625,-37.125 0,-23.9356 12.79711,-37.4062 30.0625,-37.4062 z"
         style="color:#000000;fill:#ffffff;stroke:none;stroke-width:0.1;marker:none;visibility:visible;display:inline;overflow:visible;enable-background:accumulate"
         inkscape:connector-curvature="0" />
      <path
         style="fill:#ffffff;stroke:none"
         d="m 476.67836,2069.3641 c -28.74251,0 -44.98967,-6.0104 -44.98967,-6.0104 l 0,-35.0018 c 0,0 19.73169,9.2808 43.31029,9.2808 11.96077,0 18.29639,-2.2199 18.29639,-9.7227 0,-23.7634 -65.31899,-5.8377 -65.31899,-54.8008 0,-22.2484 17.46196,-43.929 58.77825,-43.929 26.46971,0 42.33802,6.7175 42.33802,6.7175 l 0,34.2063 c 0,0 -13.91579,-9.8995 -36.94633,-9.8995 -11.19367,0 -20.24093,2.8221 -20.24093,9.546 0,19.8559 68.2358,3.587 68.2358,54.8891 0,26.4226 -16.76478,44.7245 -63.46283,44.7245 z"
         id="path3150"
         inkscape:connector-curvature="0"
         sodipodi:nodetypes="ccccccccccccc" />
      <path
         style="fill:#ffffff;stroke:none"
         d="m 600,2066.4116 -46.42378,0 0,-192.3857 46.58066,0 0,78.5772 c 4.93055,-8.961 19.23321,-23.3345 45.16645,-23.3345 32.05766,0 50.64652,21.0083 50.64652,53.6517 l 0,83.6154 -46.40388,0 0,-65.7609 c 0,-18.2548 -5.51062,-32.6153 -21.65515,-32.6153 -20.00476,0 -27.91082,17.5485 -27.91082,38.2521 z"
         id="path3152"
         inkscape:connector-curvature="0"
         sodipodi:nodetypes="ccccccccccccc" />
      <path
         id="path3154"
         d="m 778.62176,1929.1744 c -32.46146,-0.1177 -51.90625,9.0312 -51.90625,9.0312 l 0,33.125 c 0,0 12.73772,-10.9375 42.34375,-10.9375 19.71684,0 30.6875,7.1855 30.6875,22.7813 0,0 -11.02836,-2.1875 -21.84375,-2.1875 -48.40487,0 -68.5,17.6275 -68.5,46.2187 0,26.8789 21.12756,42.3438 49.84375,42.3438 19.31784,0 34.67447,-10.3203 41.28125,-23.0625 l 0,19.9687 42.4375,0 0,-80.5312 c 0,-32.5578 -15.77131,-56.75 -64.34375,-56.75 z m 2.03125,76.8125 c 9.3556,0 18.90625,0.5312 18.90625,0.5312 0,14.6082 -10.44091,31.2813 -28.03125,31.2813 -10.19925,0 -19,-5.3336 -19,-14.0313 0,-14.0047 15.12897,-17.7812 28.125,-17.7812 z"
         style="color:#000000;fill:#ffffff;stroke:none;stroke-width:0.1;marker:none;visibility:visible;display:inline;overflow:visible;enable-background:accumulate"
         inkscape:connector-curvature="0" />
      <path
         style="fill:#ffffff;stroke:none"
         d="m 968.02918,2029.8545 0,34.5599 c 0,0 -15.95488,5.1265 -32.35013,5.1265 -47.97961,0 -78.75402,-28.5892 -78.75402,-70.6223 0,-44.604 33.71386,-69.65 77.69336,-69.65 24.49413,-0.1427 33.41079,6.0104 33.41079,6.0104 l 0,36.2392 c 0,0 -8.60848,-8.0433 -27.93071,-8.0433 -19.22724,0 -35.09018,13.3178 -35.09018,36.3276 0,18.8191 15.47809,34.9134 38.27216,34.9134 15.04442,-0.1377 24.74873,-4.8614 24.74873,-4.8614 z"
         id="path3156"
         inkscape:connector-curvature="0"
         sodipodi:nodetypes="ccccccccccc" />
      <path
         style="fill:#ffffff;stroke:none"
         d="m 985,2066.4116 0,-192.2973 46.5804,0 0,110.1318 38.3605,-51.8839 51.7072,0 -47.0226,61.4299 51.0002,72.6552 -56.6571,0 -37.4766,-62.9325 0,62.8968 z"
         id="path3158"
         inkscape:connector-curvature="0"
         sodipodi:nodetypes="cccccccccccc" />
    </g>
  </g>
</svg>
