<?xml version="1.0" encoding="UTF-8" standalone="no"?>
<svg
   xmlns:dc="http://purl.org/dc/elements/1.1/"
   xmlns:cc="http://creativecommons.org/ns#"
   xmlns:rdf="http://www.w3.org/1999/02/22-rdf-syntax-ns#"
   xmlns:svg="http://www.w3.org/2000/svg"
   xmlns="http://www.w3.org/2000/svg"
   xmlns:sodipodi="http://sodipodi.sourceforge.net/DTD/sodipodi-0.dtd"
   xmlns:inkscape="http://www.inkscape.org/namespaces/inkscape"
   version="1.1"
   id="Layer_1"
   x="0px"
   y="0px"
   width="457"
   height="380"
   viewBox="0 0 457 380"
   enable-background="new 0 0 612 792"
   xml:space="preserve">
<path
   style="fill:#006330;fill-rule:evenodd"
   inkscape:connector-curvature="0"
   id="path5"
   d="m 310.18048,276.64451 h 23.04393 c 0.68606,0.11408 1.25487,0.68606 1.25487,1.25487 l -0.11249,97.42336 c 0.11249,0.79856 -0.5704,1.36895 -1.25487,1.36895 h -22.81578 c -0.79855,0 -1.36894,-0.57039 -1.36894,-1.36895 v -97.30928 c -0.002,-0.79855 0.56881,-1.36895 1.25328,-1.36895 l 0,0 z"
   clip-rule="evenodd"
   clip-path="none" /><path
   style="fill:#006330;fill-rule:evenodd"
   inkscape:connector-curvature="0"
   id="path7"
   d="m 224.39316,368.82025 -0.22816,-0.11408 c -0.45631,-0.45632 -0.68447,-1.14079 -0.34223,-1.59711 l 9.58262,-18.13854 c 0.22975,-0.22816 0.91263,-1.14079 1.94093,-0.34223 6.27434,5.13354 13.5738,9.12631 22.01722,9.12631 6.16185,0 12.8925,-3.08013 12.8925,-10.38118 0,-3.87868 -2.62381,-6.38842 -5.9321,-8.0996 -1.71118,-0.91263 -3.53645,-1.59711 -5.24921,-2.28 -1.71119,-0.57039 -3.42237,-1.02671 -4.9054,-1.36894 -16.31328,-4.67724 -26.92261,-8.89816 -26.92261,-28.17749 0,-20.19196 14.37394,-33.42511 34.33774,-33.42511 9.58263,0 21.22026,2.85197 29.88867,7.41513 0.68447,0.45631 0.91263,1.14079 0.68447,1.71118 l -8.89657,17.22591 c -0.34382,0.68448 -1.14237,0.91263 -1.71118,0.5704 -4.56316,-3.42237 -10.2671,-5.70553 -16.20079,-5.70553 -4.78972,0 -11.52038,2.85197 -11.52038,8.78407 0,3.08013 1.82368,5.13355 4.22092,6.73066 1.25487,0.68605 2.50974,1.36894 3.8771,1.82526 1.25487,0.56881 2.62381,0.91263 3.7646,1.25487 l 6.61816,2.05342 c 14.03012,4.10684 24.64104,11.17973 24.64104,27.26485 0,9.92486 -2.39566,20.07788 -10.2671,26.80854 -7.87144,6.61657 -18.3667,9.35446 -28.40564,9.35446 -12.09553,0 -23.84566,-3.87868 -33.8846,-10.49525 l 0,0 z"
   clip-rule="evenodd"
   clip-path="none" /><path
   style="fill:#006330;fill-rule:evenodd"
   inkscape:connector-curvature="0"
   id="path9"
   d="m 187.77384,276.64451 h 23.04393 c 0.68448,0.11408 1.25487,0.68606 1.25487,1.25487 v 97.42336 c 0,0.79856 -0.57039,1.36895 -1.36894,1.36895 h -22.81578 c -0.79855,0 -1.36895,-0.57039 -1.36895,-1.36895 v -97.30928 c 0,-0.79855 0.5704,-1.36895 1.25487,-1.36895 l 0,0 z"
   clip-rule="evenodd"
   clip-path="none" /><path
   style="fill:#006330;fill-rule:evenodd"
   inkscape:connector-curvature="0"
   id="path11"
   d="m 401.67174,355.24486 c 15.74447,0 28.74946,-12.77525 28.74946,-30.34498 0,-14.03012 -13.00499,-26.80854 -28.74946,-26.80854 -15.74288,0 -28.74788,12.77684 -28.74788,26.80854 0,17.56973 12.89092,30.34498 28.74788,30.34498 l 0,0 z m 0,24.75512 c -32.17024,0 -55.44233,-22.81578 -55.44233,-55.21418 0,-30.2309 26.58038,-51.45116 55.44233,-51.45116 28.74946,0 55.32826,21.22026 55.32826,51.45116 0,32.3984 -23.27209,55.21418 -55.32826,55.21418 l 0,0 z"
   clip-rule="evenodd"
   clip-path="none" /><path
   style="fill:#006330;fill-rule:evenodd"
   inkscape:connector-curvature="0"
   id="path13"
   d="m 127.42611,307.21765 -11.06565,32.62656 h 22.58762 l -10.83749,-32.62656 h -0.68448 l 0,0 z m -99.020466,14.6021 c 8.441837,0 18.3667,-1.59711 18.3667,-12.89092 0,-11.29539 -9.924863,-12.89249 -18.3667,-12.89249 h -2.851972 v 25.78182 h 2.851972 l 0,0.002 z m -4.220918,54.87194 H 1.1407917 c -0.68447328,0 -1.1407888,-0.57039 -1.1407888,-1.25487 v -97.42336 c 0,-0.91263 0.5703944,-1.36895 1.2548677,-1.36895 H 38.786822 c 19.735647,0 34.67998,9.47013 34.67998,30.68722 0,13.80354 -7.757364,25.66775 -21.789066,28.17748 H 51.22142 l 26.721394,34.57541 35.565676,-92.64156 c 0,0 0.34224,-0.80013 1.25487,-0.80013 h 26.23814 c 1.02671,0 1.25487,0.80013 1.25487,0.80013 l 36.7334,97.42178 c 0.34223,0.79856 -0.22816,1.82527 -1.25487,1.82527 h -24.41288 c -1.02671,0 -1.25487,-0.79856 -1.25487,-0.79856 l -6.16026,-16.65551 h -36.50524 l -6.61658,16.65551 c 0,0 -0.22815,0.79856 -1.25486,0.79856 H 83.049428 75.406143 51.677736 c -0.798552,0 -1.140789,-0.5704 -1.140789,-0.5704 L 26.238145,338.01736 h -0.684473 v 37.3038 c 0,0.80014 -0.570394,1.37053 -1.368946,1.37053 l 0,0 0,0 z"
   clip-rule="evenodd"
   clip-path="none" /><path
   style="fill:#006330;fill-rule:evenodd"
   inkscape:connector-curvature="0"
   id="path15"
   d="M 256.44774,88.756595 V 142.14551 H 203.28698 V 88.756595 h 53.16076 l 0,0 z M 299.7993,160.0559 c 14.4896,0 26.23973,11.52196 26.23973,26.00998 0,14.6021 -11.75013,26.23814 -26.23973,26.23814 -14.6021,0 -25.43959,-11.63604 -25.43959,-26.23814 V 160.0559 h 25.43959 l 0,0 z M 274.35971,88.756595 h 25.43959 c 14.4896,0 26.23973,12.434595 26.23973,26.922615 0,14.4896 -11.75013,26.4663 -26.23973,26.4663 H 274.35971 V 88.756595 l 0,0 z m 0,-43.464054 c 0,-14.602097 10.83749,-26.352221 25.43959,-26.352221 14.4896,0 26.23973,11.750124 26.23973,26.352221 0,14.488018 -11.75013,25.553669 -26.23973,25.553669 H 274.35971 V 45.292541 l 0,0 z M 203.28857,70.84621 V 45.292541 c 0,-14.602097 11.75012,-26.352221 26.35222,-26.352221 14.4896,0 26.80854,11.750124 26.80854,26.352221 V 70.84621 h -53.16076 l 0,0 z m -43.80629,0 c -14.6021,0 -26.4663,-11.065651 -26.4663,-25.553669 0,-14.602097 11.8642,-26.352221 26.4663,-26.352221 14.48802,0 25.78183,11.750124 25.78183,26.352221 V 70.84621 h -25.78183 l 0,0 z m 25.78183,71.2993 h -25.78183 c -14.6021,0 -26.4663,-11.97828 -26.4663,-26.4663 0,-14.48802 11.8642,-26.922615 26.4663,-26.922615 h 25.78183 v 53.388915 l 0,0 z m 0,43.92037 c 0,14.6021 -11.29381,26.23814 -25.78183,26.23814 -14.6021,0 -26.4663,-11.63604 -26.4663,-26.23814 0,-14.48802 11.8642,-26.00998 26.4663,-26.00998 h 25.78183 v 26.00998 l 0,0 z m 71.18363,-26.00998 v 26.00998 c 0,14.6021 -12.31893,26.23814 -26.80853,26.23814 -14.6021,0 -26.35223,-11.63604 -26.35223,-26.23814 V 160.0559 h 53.16076 l 0,0 z m 74.03878,-9.58263 c 10.26552,-7.87144 14.48802,-21.78907 14.48802,-35.47853 0,-13.68947 -4.44908,-24.412883 -14.48802,-34.565904 10.03894,-10.381178 14.48802,-20.534198 14.48802,-35.136295 0,-25.097354 -20.5342,-45.2893157 -45.40181,-45.2893157 -14.25986,0 -28.51972,5.5898652 -34.79406,15.5147277 -8.21526,-9.6967048 -21.56091,-15.5147277 -35.13788,-15.5147277 -13.68947,0 -27.60709,6.730654 -35.47853,15.2865697 -8.0996,-8.5559157 -19.84973,-15.2865697 -34.45182,-15.2865697 -24.98328,0 -45.63156,20.1919617 -45.63156,45.2893157 0,14.145781 5.81803,26.4663 15.62881,35.136295 -9.81078,7.871443 -15.62881,20.876434 -15.62881,34.565904 0,13.68946 6.04618,27.26485 15.62881,35.47853 -9.81078,7.98552 -15.62881,20.5342 -15.62881,35.25037 0,24.98328 20.64828,45.28773 45.63156,45.28773 14.14578,0 24.64103,-2.73789 34.79405,-15.62722 10.38118,12.89092 22.81578,15.62722 35.1363,15.62722 12.09395,0 26.58038,-6.04459 34.79406,-15.74288 9.47013,10.15302 20.4217,15.74288 35.13788,15.74288 24.86761,0 45.40181,-20.30445 45.40181,-45.28773 0.68447,-14.0317 -4.2225,-26.58038 -14.48802,-35.25037 l 0,0 z"
   clip-rule="evenodd"
   clip-path="none" />
</svg>