<?xml version="1.0" encoding="ISO-8859-1"?>
<!-- Generator: Adobe Illustrator 13.0.0, SVG Export Plug-In . SVG Version: 6.00 Build 14948)  -->
<!DOCTYPE svg PUBLIC "-//W3C//DTD SVG 1.1//EN" "http://www.w3.org/Graphics/SVG/1.1/DTD/svg11.dtd">
<svg version="1.1" id="Layer_1" xmlns="http://www.w3.org/2000/svg" xmlns:xlink="http://www.w3.org/1999/xlink" x="0px" y="0px" width="300px" height="85px" viewBox="0 0 300 85" style="enable-background:new 0 0 300 85;" xml:space="preserve">
<g>
	<path style="fill:none;" d="M289.787,8.733c-4.251,0-7.502,3.492-7.502,8.015c0,4.628,3.251,8.114,7.502,8.114   c4.202,0,7.457-3.486,7.457-8.114C297.244,12.225,293.989,8.733,289.787,8.733z M292.533,22.312l-2.896-4.753h-1.741v4.753h-1.655   v-11.05h4.102c2.53,0,3.725,1.035,3.725,3.158c0,2.001-1.219,2.833-2.795,3.011l3.031,4.881H292.533z"/>
	<path style="fill:none;" d="M292.412,14.349c0-1.47-1.219-1.696-2.334-1.696h-2.182v3.513h1.726   C291.073,16.166,292.412,16.088,292.412,14.349z"/>
	<polygon style="fill:none;" points="206.692,46.37 215.978,46.37 206.713,33.327  "/>
	<polygon style="fill:#0066B2;" points="116.237,1.874 59.554,82.783 73.726,82.783 129.72,1.874  "/>
	<polygon style="fill:#EC1C24;" points="147.158,51.911 147.158,7.713 137.65,7.713 87.474,77.96 102.945,77.96 133.37,35.208    133.37,77.96 144.682,77.96 174.919,34.944 174.919,77.96 188.801,77.96 188.801,7.713 178.765,7.713  "/>
	<path style="fill:#EC1C24;" d="M278.262,7.713h-15.751l-17.18,24.098L228.647,7.813h-15.751l24.46,35.185l-4.209,5.904   L204.402,7.713h-11.09V77.96h13.354l0.025-19.206h16.498l1.476,2.044L212.432,77.96h15.751l4.409-6.185l4.517,6.255l16.319-0.07   l-12.488-17.895l4.193-5.881l16.528,23.776h15.751l-24.305-34.962L278.262,7.713z M206.692,46.37l0.021-13.043l9.265,13.043   H206.692z"/>
	<path style="fill:#EC1C24;" d="M294.067,14.419c0-2.123-1.194-3.158-3.725-3.158h-4.102v11.05h1.655v-4.753h1.741l2.896,4.753   h1.771l-3.031-4.881C292.849,17.252,294.067,16.42,294.067,14.419z M289.622,16.166h-1.726v-3.513h2.182   c1.115,0,2.334,0.226,2.334,1.696C292.412,16.088,291.073,16.166,289.622,16.166z"/>
	<path style="fill:#EC1C24;" d="M289.787,7.344c-4.98,0-9.156,4.068-9.156,9.404c0,5.435,4.176,9.503,9.156,9.503   c4.961,0,9.107-4.069,9.107-9.503C298.895,11.412,294.748,7.344,289.787,7.344z M289.787,24.862c-4.251,0-7.502-3.486-7.502-8.114   c0-4.523,3.251-8.015,7.502-8.015c4.202,0,7.457,3.492,7.457,8.015C297.244,21.376,293.989,24.862,289.787,24.862z"/>
	<path style="fill:#EC1C24;" d="M69.157,64.958h-3.432V47.813h15.314l5.259-7.083v-5.029H65.725V20.387h19.658V7.817H52.242V76.38   L33.271,53.761c9.497-2.937,16.419-12.177,16.419-22.63c0-12.854-10.422-23.273-23.273-23.273L2.877,7.817v20.342V77.98h13.255   V55.125L35.33,77.98h25.143L69.157,64.958z M25.958,40.626l-9.827,0.104V20.263h9.827c5.622,0,10.184,4.558,10.184,10.18   C36.143,36.066,31.58,40.626,25.958,40.626z"/>
	<polygon style="fill:#EC1C24;" points="86,77.951 86,69.951 79.828,77.951  "/>
</g>
</svg>