<?xml version="1.0" encoding="utf-8"?>
<!-- Generator: Adobe Illustrator 12.0.0, SVG Export Plug-In . SVG Version: 6.00 Build 51448)  -->
<!DOCTYPE svg PUBLIC "-//W3C//DTD SVG 1.1//EN" "http://www.w3.org/Graphics/SVG/1.1/DTD/svg11.dtd" [
	<!ENTITY ns_svg "http://www.w3.org/2000/svg">
	<!ENTITY ns_xlink "http://www.w3.org/1999/xlink">
]>
<svg  version="1.1" id="Layer_1" xmlns="&ns_svg;" xmlns:xlink="&ns_xlink;" width="216" height="65.263" viewBox="0 0 216 65.263"
	 overflow="visible" enable-background="new 0 0 216 65.263" xml:space="preserve">
<g>
	<path fill-rule="evenodd" clip-rule="evenodd" fill="#0078A9" d="M69.42,42.868c0-1.28-0.319-2.238-0.319-3.2
		c-7.997,2.562-16.955,5.441-25.911,8c0,1.6-0.641,3.519-0.962,5.438c8.959-2.88,18.235-5.757,26.873-8.638
		C69.42,43.829,69.42,43.511,69.42,42.868"/>
	<path fill-rule="evenodd" clip-rule="evenodd" fill="#0078A9" d="M79.658,28.793c-0.319,1.28-0.638,2.239-0.96,3.519
		c4.16-1.6,6.719-2.56,6.719-3.2C85.417,28.473,83.177,28.473,79.658,28.793"/>
	<path fill-rule="evenodd" clip-rule="evenodd" fill="#0078A9" d="M105.252,31.992c0.957-3.839,1.919-7.678,2.879-11.197
		c-7.998,0-17.917,0.32-26.554,1.28c-0.319,1.279-0.959,2.559-1.279,3.839c4.798-0.641,9.597-0.96,13.116-0.96
		c2.56,0,7.359,0.319,7.359,1.599c0,1.92-9.598,5.76-23.035,10.239c-0.641,1.919-0.96,3.52-1.6,5.438
		C87.336,38.392,97.252,35.191,105.252,31.992"/>
	<path fill-rule="evenodd" clip-rule="evenodd" fill="#0078A9" d="M30.071,51.506c-11.195,2.881-21.114,5.759-28.79,7.997L0,65.263
		h0.641c8.638-2.238,17.914-5.118,27.833-7.998"/>
	<path fill-rule="evenodd" clip-rule="evenodd" fill="#0078A9" d="M116.449,12.158c-0.321,1.598-0.641,3.199-0.961,4.798
		c7.997-0.641,15.678-0.641,22.074-0.641c3.52,0,8.957,0.32,8.957,2.239c0,2.88-14.716,9.277-35.83,16.957
		c-0.64,2.239-1.28,4.8-1.918,7.037c17.275-5.757,33.271-11.517,44.786-16.635l-1.278-14.396
		C142.042,11.197,128.925,11.518,116.449,12.158"/>
	<path fill-rule="evenodd" clip-rule="evenodd" fill="#0078A9" d="M171.473,14.716c0-0.96-2.559-1.919-6.718-2.558
		c-1.918,3.838-4.159,7.998-6.078,11.516C166.354,19.835,171.152,16.957,171.473,14.716"/>
	<path fill-rule="evenodd" clip-rule="evenodd" fill="#0078A9" d="M68.781,49.268c-9.278,2.879-18.554,5.438-27.513,8.318
		c-0.319,1.917-0.639,4.158-0.319,6.398c7.998-2.24,16.955-5.441,26.874-8.319C68.141,53.425,68.462,51.506,68.781,49.268"/>
	<path fill-rule="evenodd" clip-rule="evenodd" fill="#0078A9" d="M151.958,7.038l-0.639-6.718h-27.513
		c-2.56,0-4.159,0.641-5.119,4.479c-0.321,0.319-0.641,2.238-1.6,5.119C128.925,8.638,140.761,7.679,151.958,7.038"/>
	<path fill-rule="evenodd" clip-rule="evenodd" fill="#0078A9" d="M71.981,59.503c-0.962,3.521-1.6,5.76-1.6,5.76h22.073
		c2.241,0,4.16-0.318,5.119-3.519c0-0.639,1.279-5.119,2.878-10.877C90.855,53.746,81.257,56.625,71.981,59.503"/>
	<path fill-rule="evenodd" clip-rule="evenodd" fill="#0078A9" d="M107.171,48.948c-2.24,9.276-4.159,16.314-4.159,16.314h17.595
		c2.562,0,4.159-0.318,5.118-3.519c0.322-0.958,2.882-11.838,5.12-20.475C123.168,43.829,115.168,46.388,107.171,48.948"/>
	<path fill-rule="evenodd" clip-rule="evenodd" fill="#0078A9" d="M174.672,0c-3.199,0-3.838,1.281-5.117,3.519
		c0,0.32-0.641,1.281-1.602,3.2c5.439-0.32,10.237-0.32,14.078-0.32c6.717,0,14.714,1.6,14.714,5.119
		c-0.319,5.439-27.19,16.635-61.743,28.472l1.28,24.955h15.357c2.238,0,3.838-0.96,5.759-3.839
		c1.598-2.563,7.998-15.038,13.114-23.676c1.919-3.199,3.521-7.038,3.521-7.038h2.557l-8.956,34.552h22.074L206.023,0"/>
	<path fill-rule="evenodd" clip-rule="evenodd" fill="#0078A9" d="M109.09,17.276c0.319-1.599,0.641-3.199,1.279-4.479
		c-5.117,0.32-9.596,0.959-13.755,1.28l-0.321-1.28c4.48-0.96,9.6-1.6,14.396-2.239c1.6-6.079,2.561-9.918,2.561-9.918H90.855
		c-3.198,0-4.16,1.28-5.119,4.799c-0.319,0.96-1.919,7.038-3.839,14.717C90.536,18.876,100.133,17.916,109.09,17.276"/>
	<path fill-rule="evenodd" clip-rule="evenodd" fill="#0078A9" d="M103.652,37.751c-8.957,3.198-18.557,6.398-28.792,9.598
		c-0.64,2.238-0.959,4.479-1.6,6.717c9.278-2.879,19.195-6.078,28.792-9.278C102.371,42.549,103.012,40.312,103.652,37.751"/>
	<path fill-rule="evenodd" clip-rule="evenodd" fill="#0078A9" d="M51.187,32.631c-5.12,0.643-11.197,1.921-11.197,1.921l-0.322-1.6
		c5.44-0.96,17.597-3.52,29.752-5.438c4.8-3.2,8-7.038,8-12.157c0-7.358-4.16-15.037-22.075-15.037H16.316L2.238,55.984
		c9.6-2.56,18.875-5.438,28.473-8.316l1.919-8h4.16c3.2,0,6.078,0.962,6.718,4.161c8.957-2.56,17.276-5.118,23.995-7.358
		c-1.281-2.879-3.519-4.799-5.759-5.438C61.744,31.032,54.384,31.992,51.187,32.631 M39.349,14.716c0,0,3.519,0,7.678,0
		c2.879,0,4.798,1.28,4.798,4.16c0,3.199-2.879,6.397-8.317,6.397h-7.038L39.349,14.716z"/>
	<path fill-rule="evenodd" clip-rule="evenodd" fill="#0078A9" d="M124.447,22.715c0-1.28-3.2-1.92-8.319-1.92
		c-0.64,0-1.278,0-1.598,0c-0.962,2.559-1.603,5.438-2.241,8.638C119.969,26.233,124.447,23.995,124.447,22.715"/>
	<path fill-rule="evenodd" clip-rule="evenodd" fill="#0078A9" d="M15.676,64.622l-1.919,0.322v0.318h12.795l0.961-3.838
		C23.673,62.384,19.514,63.663,15.676,64.622"/>
	<path fill-rule="evenodd" clip-rule="evenodd" fill="#0078A9" d="M67.182,60.786c-4.797,1.276-9.598,2.558-14.076,3.836
		l-2.241,0.322v0.318h15.997C66.862,63.663,66.862,62.063,67.182,60.786"/>
	<path fill="#0078A9" d="M216,4.122c0,2.269-1.847,4.125-4.126,4.125c-2.278,0-4.124-1.856-4.124-4.125
		c0-2.266,1.846-4.122,4.124-4.122C214.153,0,216,1.856,216,4.122 M215.331,4.122c0-1.988-1.48-3.568-3.457-3.568
		c-1.975,0-3.455,1.58-3.455,3.568c0,1.99,1.48,3.569,3.455,3.569C213.851,7.691,215.331,6.112,215.331,4.122z M211.008,6.58h-0.668
		V1.677h1.88c1.101,0,1.59,0.48,1.59,1.356c0,0.869-0.565,1.245-1.134,1.369l1.366,2.178h-0.755l-1.337-2.178h-0.942V6.58z
		 M211.774,3.844c0.645,0,1.367,0.033,1.367-0.821c0-0.691-0.556-0.788-1.066-0.788h-1.067v1.609H211.774z"/>
</g>
</svg>
