<?xml version="1.0" encoding="UTF-8" standalone="no"?>
<!-- Created with Inkscape (http://www.inkscape.org/) -->

<svg
   xmlns:dc="http://purl.org/dc/elements/1.1/"
   xmlns:cc="http://creativecommons.org/ns#"
   xmlns:rdf="http://www.w3.org/1999/02/22-rdf-syntax-ns#"
   xmlns:svg="http://www.w3.org/2000/svg"
   xmlns="http://www.w3.org/2000/svg"
   xmlns:sodipodi="http://sodipodi.sourceforge.net/DTD/sodipodi-0.dtd"
   xmlns:inkscape="http://www.inkscape.org/namespaces/inkscape"
   width="200"
   height="37.292301"
   id="svg2"
   version="1.1"
   inkscape:version="0.48.2 r9819"
   sodipodi:docname="New document 1">
  <defs
     id="defs4" />
  <sodipodi:namedview
     id="base"
     pagecolor="#ffffff"
     bordercolor="#666666"
     borderopacity="1.0"
     inkscape:pageopacity="0.0"
     inkscape:pageshadow="2"
     inkscape:zoom="1"
     inkscape:cx="360.10233"
     inkscape:cy="63.034498"
     inkscape:document-units="px"
     inkscape:current-layer="layer1"
     showgrid="false"
     fit-margin-left="0.2"
     fit-margin-top="0.2"
     fit-margin-bottom="0.2"
     fit-margin-right="0.2"
     inkscape:window-width="1920"
     inkscape:window-height="1028"
     inkscape:window-x="-8"
     inkscape:window-y="-8"
     inkscape:window-maximized="1">
    <inkscape:grid
       type="xygrid"
       id="grid2996"
       empspacing="5"
       visible="true"
       enabled="true"
       snapvisiblegridlinesonly="true" />
  </sodipodi:namedview>
  <metadata
     id="metadata7">
    <rdf:RDF>
      <cc:Work
         rdf:about="">
        <dc:format>image/svg+xml</dc:format>
        <dc:type
           rdf:resource="http://purl.org/dc/dcmitype/StillImage" />
        <dc:title></dc:title>
      </cc:Work>
    </rdf:RDF>
  </metadata>
  <g
     inkscape:label="Layer 1"
     inkscape:groupmode="layer"
     id="layer1"
     transform="translate(-204.8,-720.20726)">
    <g
       id="g3064"
       transform="matrix(0.629653,0,0,0.629653,75.921136,280.46362)">
      <path
         style="fill:#e80000;fill-opacity:1;stroke:none"
         d="m 218,754.86029 -13,0 0,-54 29,0 c 11.6746,0 16.44194,6.43248 16.44194,17.69448 0,6.39296 -2.99792,13.30552 -11.44194,13.30552 l 13.74746,23 -16.98985,0 -14.50507,-29 6.6415,0 c 2.53251,0 8.10596,-1.87959 8.10596,-7.44194 0,-4.26795 -2.23737,-7.48641 -6.79029,-7.55806 l -11.20971,0 z"
         id="path3010"
         inkscape:connector-curvature="0"
         sodipodi:nodetypes="cccccccccccccc" />
      <path
         style="fill:#e80000;fill-opacity:1;stroke:none"
         d="m 349,731.86029 0,-9 22,0 0,31 c 0,0 -7.11263,2 -17.38393,2 -24.35455,0 -32.61607,-14.70224 -32.61607,-27.73214 0,-18.56838 13.20076,-29.26786 33.68433,-29.26786 5.35677,0 14.31567,2 14.31567,2 l 0,12.68433 c 0,0 -4.3988,-2.68433 -12,-2.68433 -17.41568,0 -20,12.96666 -20,17 0,8.53626 6.87246,17 16.13642,17 l 5.86358,0 0,-13 z"
         id="path3012"
         inkscape:connector-curvature="0"
         sodipodi:nodetypes="ccccccccccccccc" />
      <path
         style="fill:#e80000;fill-opacity:1;stroke:none"
         d="m 420,744.86029 0,10 -39,0 0,-54 39,0 0,10 -25,0 0,11 23,0 0,10 -23,0 0,13 z"
         id="path3014"
         inkscape:connector-curvature="0" />
      <path
         style="fill:#e80000;fill-opacity:1;stroke:none"
         d="m 482,753.86029 0,-14 c 0,0 5.42853,6 15.23557,6 5.89513,0 9.76443,-3.18201 9.76443,-5.53004 0,-10.09522 -26.23557,-2.94787 -26.23557,-25.05889 0,-9.64342 3.96086,-15.76443 21.23557,-15.76443 9.10282,0 16,2.35336 16,2.35336 l 0,11.70671 c 0,0 -6.40799,-3.70671 -13.99882,-3.70671 -4.4561,0 -9.00118,1.5472 -9.00118,5 0,7.23997 27,5.25966 27,24.46996 0,7.8655 -5.171,17.17668 -24.88339,17.17668 -9.29824,0 -15.11661,-2.64664 -15.11661,-2.64664 z"
         id="path3016"
         inkscape:connector-curvature="0"
         sodipodi:nodetypes="ccccccccccccc" />
      <path
         sodipodi:nodetypes="cccccccccccccc"
         inkscape:connector-curvature="0"
         id="path3018"
         d="m 440.96819,754.86029 -13,0 0,-54 29,0 c 11.6746,0 16.44194,6.43248 16.44194,17.69448 0,6.39296 -2.99792,13.30552 -11.44194,13.30552 l 13.74746,23 -16.98985,0 -14.50507,-29 6.6415,0 c 2.53251,0 8.10596,-1.87959 8.10596,-7.44194 0,-4.26795 -2.23737,-7.48641 -6.79029,-7.55806 l -11.20971,0 z"
         style="fill:#e80000;fill-opacity:1;stroke:none" />
      <path
         sodipodi:nodetypes="ccccc"
         inkscape:connector-curvature="0"
         id="path3054"
         d="m 257.96627,738.9982 c 0,0 -2.13944,-4.6957 -2.13944,-10.91424 0,-14.48525 11.32778,-29.37588 29.30118,-29.37588 7.72744,0 13.22296,3.15694 13.22296,3.15694 -25.44467,0 -40.3847,18.14715 -40.3847,37.13318 z"
         style="fill:#e80000;fill-opacity:1;stroke:none" />
      <path
         sodipodi:nodetypes="ccccccc"
         inkscape:connector-curvature="0"
         id="path3056"
         d="m 264.5625,748.86721 c -3.61792,-3.52488 -5.5,-7.47839 -5.5,-7.47839 l 0,-0.69022 c 0,-16.77661 16.2374,-35.81759 39.625,-35.81759 3.62782,0 5.02968,0.62153 5.02968,0.62153 -21.34246,0 -39.90468,17.73808 -39.90468,34.59722 0,1.88054 -0.21978,7.57895 0.75,8.76745 z"
         style="fill:#e80000;fill-opacity:1;stroke:none" />
      <path
         sodipodi:nodetypes="cccccccc"
         inkscape:connector-curvature="0"
         id="path3058"
         d="m 266.60156,750.66226 c 0,0 -0.71185,-1.7071 -0.67968,-6.71875 0,-22.82242 23.86456,-34.1875 35.07812,-34.1875 6.77581,0 8.72377,2.33548 8.72377,2.33548 0,0 -2.42338,-0.61673 -6.28627,-0.30423 -13.19339,0 -32.78125,13.75004 -32.78125,31.8125 0,8.50508 2.55469,11.17969 2.55469,11.17969 -4.03984,-1.81019 -6.60938,-4.11719 -6.60938,-4.11719 z"
         style="fill:#e80000;fill-opacity:1;stroke:none" />
      <path
         sodipodi:nodetypes="ccccccc"
         inkscape:connector-curvature="0"
         id="path3060"
         d="m 275.3739,755.62677 c 0,0 -2.56327,-4.59595 -2.56327,-10.69499 0,-17.09945 18.0027,-29.18769 31.28948,-29.18769 6.05967,0 8.1747,1.22963 8.1747,1.22963 0,0 2.15502,4.77608 2.15502,11.06715 0,14.80711 -11.94481,29.25869 -29.32686,29.25869 -5.5627,0 -9.72907,-1.67279 -9.72907,-1.67279 z"
         style="fill:#e80000;fill-opacity:1;stroke:none" />
    </g>
  </g>
</svg>
