<?xml version="1.0" encoding="UTF-8" standalone="no"?>
<!-- Created with Inkscape (http://www.inkscape.org/) -->

<svg
   xmlns:dc="http://purl.org/dc/elements/1.1/"
   xmlns:cc="http://creativecommons.org/ns#"
   xmlns:rdf="http://www.w3.org/1999/02/22-rdf-syntax-ns#"
   xmlns:svg="http://www.w3.org/2000/svg"
   xmlns="http://www.w3.org/2000/svg"
   xmlns:sodipodi="http://sodipodi.sourceforge.net/DTD/sodipodi-0.dtd"
   xmlns:inkscape="http://www.inkscape.org/namespaces/inkscape"
   id="svg2985"
   version="1.1"
   inkscape:version="0.48.3.1 r9886"
   width="339.96561"
   height="159.98399"
   sodipodi:docname="Rogers_Cablesystems_Logo.svg">
  <metadata
     id="metadata2991">
    <rdf:RDF>
      <cc:Work
         rdf:about="">
        <dc:format>image/svg+xml</dc:format>
        <dc:type
           rdf:resource="http://purl.org/dc/dcmitype/StillImage" />
        <dc:title />
      </cc:Work>
    </rdf:RDF>
  </metadata>
  <defs
     id="defs2989" />
  <sodipodi:namedview
     pagecolor="#ffffff"
     bordercolor="#666666"
     borderopacity="1"
     objecttolerance="10"
     gridtolerance="10"
     guidetolerance="10"
     inkscape:pageopacity="0"
     inkscape:pageshadow="2"
     inkscape:window-width="1366"
     inkscape:window-height="709"
     id="namedview2987"
     showgrid="false"
     showguides="true"
     inkscape:guide-bbox="true"
     fit-margin-top="0"
     fit-margin-left="0"
     fit-margin-right="0"
     fit-margin-bottom="0"
     inkscape:zoom="2.2019579"
     inkscape:cx="153.78742"
     inkscape:cy="94.131982"
     inkscape:window-x="-8"
     inkscape:window-y="-8"
     inkscape:window-maximized="1"
     inkscape:current-layer="svg2985"
     inkscape:object-nodes="true"
     inkscape:object-paths="true"
     inkscape:snap-intersection-paths="false"
     inkscape:snap-page="false"
     inkscape:snap-object-midpoints="true" />
  <path
     style="font-size:medium;font-style:normal;font-variant:normal;font-weight:normal;font-stretch:normal;text-indent:0;text-align:start;text-decoration:none;line-height:normal;letter-spacing:normal;word-spacing:normal;text-transform:none;direction:ltr;block-progression:tb;writing-mode:lr-tb;text-anchor:start;baseline-shift:baseline;color:#000000;fill:#000000;fill-opacity:1;stroke:none;stroke-width:1.5;marker:none;visibility:visible;display:inline;overflow:visible;enable-background:accumulate;font-family:Sans;-inkscape-font-specification:Sans"
     d="m 195.96962,0 2.28416,4.33691 39.4018,75.655088 -39.4018,75.655082 -2.28416,4.33692 4.68253,0 42.02859,0 1.59891,0 0.79946,-1.56611 40.20126,-76.980252 0.68525,-1.44564 -0.68525,-1.44564 L 245.07911,1.44564 244.27965,0 l -1.59891,0 -42.02859,0 -4.68253,0 z m 9.36506,5.78255 35.74715,0 38.60234,74.209448 -38.60234,74.209442 -35.86136,0 38.03131,-72.763802 0.68525,-1.44564 -0.68525,-1.44564 -37.9171,-72.763808 z"
     id="path3801"
     inkscape:connector-curvature="0" />
  <path
     style="fill:#000000;fill-opacity:1;stroke:none"
     d="M 41.6875,0 40.875,1.4375 0.6875,78.53125 0,80 l 0.6875,1.4375 40.1875,76.96875 0.8125,1.5625 1.59375,0 25.84375,0 20.84375,0 26,0 26,0 20.84375,0 25.84375,0 1.59375,0 0.8125,-1.5625 L 231.25,81.4375 231.9375,80 231.25,78.53125 191.0625,1.4375 190.25,0 188.65625,0 146.625,0 141.96875,0 144.25,4.34375 183.625,80 l -20.8125,39.96875 -46.84375,0 -46.84375,0 L 48.3125,80 69.15625,39.96875 l 31.03125,0 15.78125,0 40,0 L 135.15625,0 115.96875,0 100.1875,0 85.3125,0 43.28125,0 41.6875,0 z m 74.09375,44.21875 c -19.84105,0 -36,16.158944 -36,36 0,19.84105 16.15895,35.96875 36,35.96875 0.063,0 0.1245,3.3e-4 0.1875,0 0.063,3.3e-4 0.12446,0 0.1875,0 19.84105,0 36,-16.1277 36,-35.96875 0,-19.841056 -16.15895,-36 -36,-36 -0.063,0 -0.12459,-3.25e-4 -0.1875,0 -0.0629,-3.25e-4 -0.1245,0 -0.1875,0 z m 0,5.53125 c 0.0632,0 0.1244,-3.82e-4 0.1875,0 0.0631,-3.82e-4 0.12434,0 0.1875,0 16.84851,0 30.46875,13.620234 30.46875,30.46875 0,16.848516 -13.62024,30.4375 -30.46875,30.4375 -0.0632,0 -0.12444,3.8e-4 -0.1875,0 -0.0631,3.8e-4 -0.1243,0 -0.1875,0 -16.84851,0 -30.46875,-13.588986 -30.46875,-30.4375 0,-16.848516 13.62024,-30.46875 30.46875,-30.46875 z"
     id="path3043"
     inkscape:connector-curvature="0" />
  <path
     style="font-size:medium;font-style:normal;font-variant:normal;font-weight:normal;font-stretch:normal;text-indent:0;text-align:start;text-decoration:none;line-height:normal;letter-spacing:normal;word-spacing:normal;text-transform:none;direction:ltr;block-progression:tb;writing-mode:lr-tb;text-anchor:start;baseline-shift:baseline;color:#000000;fill:#000000;fill-opacity:1;stroke:none;stroke-width:1.5;marker:none;visibility:visible;display:inline;overflow:visible;enable-background:accumulate;font-family:Sans;-inkscape-font-specification:Sans"
     d="m 249.96962,0 2.28416,4.33691 39.4018,75.655084 -39.4018,75.655086 -2.28416,4.33692 4.68253,0 42.02859,0 1.59891,0 0.79946,-1.56611 40.20126,-76.980256 0.68525,-1.44564 -0.68525,-1.44564 L 299.07911,1.44564 298.27965,0 l -1.59891,0 -42.02859,0 -4.68253,0 z m 9.36506,5.78255 35.74715,0 38.60234,74.209444 -38.60234,74.209446 -35.86136,0 38.03131,-72.763806 0.68525,-1.44564 -0.68525,-1.44564 -37.9171,-72.763804 z"
     id="path3801-7"
     inkscape:connector-curvature="0" />
</svg>
