<?xml version="1.0" encoding="UTF-8" standalone="no"?>
<!-- Creator: CorelDRAW X6 -->

<svg
   xmlns:dc="http://purl.org/dc/elements/1.1/"
   xmlns:cc="http://creativecommons.org/ns#"
   xmlns:rdf="http://www.w3.org/1999/02/22-rdf-syntax-ns#"
   xmlns:svg="http://www.w3.org/2000/svg"
   xmlns="http://www.w3.org/2000/svg"
   xmlns:sodipodi="http://sodipodi.sourceforge.net/DTD/sodipodi-0.dtd"
   xmlns:inkscape="http://www.inkscape.org/namespaces/inkscape"
   xml:space="preserve"
   width="481.72"
   height="103.22"
   version="1.1"
   style="fill-rule:evenodd"
   viewBox="0 0 535244.45 114688.88"
   enable-background="new 0 0 546.835 155.696"
   id="svg3022"
   inkscape:version="0.48.4 r9939"
   sodipodi:docname="Rogers_Logo.svg"><metadata
   id="metadata3057"><rdf:RDF><cc:Work
       rdf:about=""><dc:format>image/svg+xml</dc:format><dc:type
         rdf:resource="http://purl.org/dc/dcmitype/StillImage" /></cc:Work></rdf:RDF></metadata><sodipodi:namedview
   pagecolor="#ffffff"
   bordercolor="#666666"
   borderopacity="1"
   objecttolerance="10"
   gridtolerance="10"
   guidetolerance="10"
   inkscape:pageopacity="0"
   inkscape:pageshadow="2"
   inkscape:window-width="1366"
   inkscape:window-height="706"
   id="namedview3055"
   showgrid="false"
   inkscape:zoom="2"
   inkscape:cx="231.37719"
   inkscape:cy="65.914363"
   inkscape:window-x="-8"
   inkscape:window-y="-8"
   inkscape:window-maximized="1"
   inkscape:current-layer="svg3022" />
 <defs
   id="defs3024">
  <style
   type="text/css"
   id="style3026">
   
    .fil0 {fill:#E1233D}
   
  </style>
 
  
  
 
   
   
   
   
   
   
   
   
   
   
   
   
  </defs>
 <path
   style="fill:#ee1820;fill-opacity:1"
   d="m 57361.111,1.3705112 c -15057,0 -25698.056,3997.7796888 -35243.056,13402.7804888 -2048,2020.04 -6736.111,11706.04 -6736.111,19375.04 0,6434 1872.722,13609.5 6909.722,22187.5 1423,-2512 2307.889,-4138.1 4513.889,-7118.1 13074,-17432 42708.111,-45043.6208 67986.111,-32916.7 C 84936.666,6010.9702 71710.109,1.3705112 57361.111,1.3705112 z M 81874.999,15348.591 c -6428,0 -13578.777,1885.7 -22152.777,6909.7 2512,1426 4138.055,2342.6 7118.055,4548.6 17428,13080 45047.663,42702.2 32916.666,67986.201 8907.997,-9864.001 14930.557,-23107.301 14930.557,-37465.301 0,-15050 -4005.78,-25663.4 -13402.78,-35208.4 -2023.998,-2046 -11727.721,-6770.8 -19409.721,-6770.8 z m -66944.444,4548.6 C 6013.5562,29756.191 0,42981.791 0,57327.791 c 0,15054 3994.7776,25701 13402.778,35243.001 2018,2057 11706.001,6736.1 19374.999,6736.1 6429,0 13606.5,-1876.7 22187.5,-6909.701 -2516,-1430 -4143.055,-2307.9 -7118.055,-4513.9 -17426,-13078 -45039.6657,-42706.1 -32916.667,-67986.1 z m 295937.495,7083.4 c -10285.04,157.8 -19486.94,3585.3 -24444.44,6875 -4955,3347 -13229.17,11008.9 -13229.17,24756.9 0,8021 2460.67,14664.9 7291.67,19756.9 6566,6918 17739.72,10763.9 30659.72,10763.9 10815,0 18561.5,-2034.1 23437.5,-4861.1 l 0,-28506.9 -173.61,0 69.44,-34.7 -31284.72,0 c 0,0 1292.06,4555.5 1493.06,5312.5 1277,4545 2227.11,4933.3 4861.11,4965.3 l 34.66,34.7 8263.89,0 0,12013.8 c -2289,483 -4884.77,674.6 -7777.77,555.6 -10490,-413 -19236.12,-7758.2 -19236.12,-20729.2 0,-11921 8095,-19652.7 20625,-19652.7 6619,0 12237.62,1370.3 17048.62,3576.3 l 6006.94,-9548.6 -902.78,-520.8 c -3801,-2244 -10052.72,-4463.9 -20659.72,-4756.9 -694.43,-19.7 -1397.68,-10 -2083.33,0 z m -76875,104.1 c -9970,0 -17807.22,2780.3 -23472.22,8333.3 -5669,5567 -8506.94,13126.3 -8506.94,22708.3 0,9508 2837.94,17074.6 8506.94,22673.6 5665,5591 13502.22,8368.1 23472.22,8368.1 10015,0 17842.95,-2778.1 23506.95,-8368.1 5665,-5599 8506.94,-13164.6 8506.94,-22673.6 0,-9582 -2847.66,-17142.3 -8541.66,-22708.3 -5695,-5553 -13522.23,-8333.3 -23472.23,-8333.3 z m 252951.39,173.6 c -16322,0 -23194.44,8608 -23194.44,16632 0,4727 875.66,11094.1 14166.66,18229.1 10863,5876 12366.84,7745.8 12395.84,10659.8 49,3712 -3574,5540.1 -8750,5486.1 -4000,-42 -9172.23,-670.3 -14722.23,-3715.3 l -4201.39,9479.2 902.78,486.1 c 2451,1297 9393.67,4618 19791.67,4618 13474,0 25798.61,-5618.7 25798.61,-18159.7 0,-9256 -6634.67,-13597.3 -14791.67,-18090.3 -8132,-4482 -13572.22,-6812.2 -13472.22,-10972.2 71,-2884 3444.22,-4191.2 8472.22,-4097.2 6425,116 10252.78,1515.4 13402.78,3194.4 l 4513.89,-9027.7 -868.06,-451.4 c -2266,-1206 -8737.44,-4270.9 -19444.44,-4270.9 z m -342812.5,1388.9 0,58437.5 17291.67,0 0,-22395.8 1770.83,0 c 1400,0 2264.56,345.1 4305.56,3611.1 4297,6933 6421.83,10174.9 9270.83,14756.9 1515,2442 3957.39,4027.8 8576.39,4027.8 l 16215.28,0 c -1,-1 -7135.84,-8120.3 -12395.84,-15590.3 -3187,-4487 -5718.33,-8157.2 -7708.33,-11215.2 6521,-2247 10972.22,-7169.9 10972.22,-15520.9 0,-6201 -2488.89,-10162.2 -7013.89,-12847.2 -5032,-2983 -12612.94,-3263.9 -21631.94,-3263.9 l -19652.78,0 z m 203368.06,0 0,58437.5 39270.83,0 c 4681,0 6346.39,-684.2 8576.39,-9097.2 l 312.5,-1215.3 -30451.39,0 0,-14965.3 17361.11,0 c 4450,0 6298.67,-644.5 8541.67,-9062.5 l 347.22,-1215.2 -26250,0 0,-12534.8 18715.28,0 c 5541,0 6164.44,-669.6 8194.44,-9166.6 l 243.06,-1180.6 -44861.11,0 z m 56631.94,0 0,58437.5 17256.94,0 0,-22395.8 1770.84,0 c 1393,0 2290.55,345.1 4305.55,3611.1 4301,6933 6424.84,10174.9 9270.84,14756.9 1522,2442 3989.11,4027.8 8611.11,4027.8 l 16180.55,0 c 1,-1 -7115.83,-8120.3 -12395.83,-15590.3 -3190,-4487 -5729.33,-8157.2 -7708.33,-11215.2 6516,-2247 10972.22,-7169.9 10972.22,-15520.9 0,-6201 -2449.17,-10162.2 -6979.17,-12847.2 -5028,-2983 -12643.66,-3263.9 -21666.66,-3263.9 l -19618.06,0 z m 107430.55,3368.1 0,1493 4236.12,0 0,11041.7 1701.38,0 0,-11041.7 4236.12,0 0,-1493 -10173.62,0 z m 11701.39,0 0,12534.7 1631.95,0 0,-7395.8 c 0,-372 -34.67,-1941.3 -34.67,-3090.3 l 34.67,0 3506.94,10486.1 1701.39,0 3506.95,-10520.8 69.44,0 c 0,1174 -69.44,2754 -69.44,3125 l 0,7395.8 1631.94,0 0,-12534.7 -2395.83,0 -3541.67,10590.3 -34.67,0 -3576.39,-10590.3 -2430.55,0 z m -361840.27,6180.5 3645.83,0 c 6699,0 9861.11,3055.1 9861.11,8368.1 0,4340 -2016.55,6280.3 -4305.55,7465.3 -1649,859 -4190,1284.7 -6875,1284.7 l -2326.39,0 0,-17118.1 z m 259965.27,0 3645.84,0 c 6694,0 9895.83,3055.1 9895.83,8368.1 -1,4340 -1991.55,6280.3 -4305.55,7465.3 -1652,859 -4197,1284.7 -6875,1284.7 l -2361.12,0 0,-17118.1 z m -187361.1,277.8 c 4050,0 7582.16,1568.6 10104.16,4548.6 2982,3483 4409.72,8710.5 4409.72,15069.5 0,6351 -1426.72,11620.1 -4409.72,15104.1 -2522,2975 -6054.16,4513.9 -10104.16,4513.9 -4050,0 -7549.45,-1537.9 -10069.45,-4513.9 -2975,-3485 -4409.72,-8754.1 -4409.72,-15104.1 0,-6359 1434.72,-11586.5 4409.72,-15069.5 2521,-2979 6019.45,-4548.6 10069.45,-4548.6 z m -141631.948,21250 c -1425,2517 -2304.888,4137.1 -4513.888,7118.1 -13074,17428 -42697.111,45044.589 -67986.111,32916.601 9855,8921.988 23107.278,14930.588 37465.278,14930.588 15039.998,0 25666.333,-4033.5 35208.333,-13437.5 2060.998,-2013.988 6770.833,-11701.989 6770.833,-19374.989 0,-6429 -1915.445,-13575.8 -6944.445,-22152.8 z"
   id="polygon3031"
   inkscape:connector-curvature="0" />
</svg>