<?xml version="1.0" encoding="UTF-8" standalone="no"?>
<!-- Created with Inkscape (http://www.inkscape.org/) -->
<svg
   xmlns:dc="http://purl.org/dc/elements/1.1/"
   xmlns:cc="http://web.resource.org/cc/"
   xmlns:rdf="http://www.w3.org/1999/02/22-rdf-syntax-ns#"
   xmlns:svg="http://www.w3.org/2000/svg"
   xmlns="http://www.w3.org/2000/svg"
   xmlns:xlink="http://www.w3.org/1999/xlink"
   xmlns:sodipodi="http://sodipodi.sourceforge.net/DTD/sodipodi-0.dtd"
   xmlns:inkscape="http://www.inkscape.org/namespaces/inkscape"
   width="354"
   height="208"
   id="svg2"
   sodipodi:version="0.32"
   inkscape:version="0.45.1"
   version="1.0"
   inkscape:output_extension="org.inkscape.output.svg.inkscape">
  <g
     inkscape:label="Layer 1"
     inkscape:groupmode="layer"
     id="layer1"
     transform="translate(-216.93827,-584.54121)">
    <g
       id="g4801"
       transform="matrix(3.8127242,0,0,3.8127242,-610.19031,-2229.208)">
      <path
         style="fill:#000000;fill-rule:nonzero;stroke:none"
         d="M 229.817,763.30618 L 225.761,763.30618 L 225.761,758.09018 L 229.589,758.09018 C 232.293,758.09018 233.569,758.47218 233.569,760.71318 C 233.569,762.80818 232.371,763.30618 229.817,763.30618 z M 271.784,771.77618 L 271.784,751.36018 L 239.644,751.36018 L 239.644,753.58918 C 237.772,751.99718 234.68,751.36018 230.243,751.36018 L 216.939,751.36018 L 216.939,779.16818 L 225.761,779.16818 L 225.761,769.57218 L 229.548,769.57218 C 232.293,769.57218 233.336,770.57918 233.336,773.47918 L 233.336,776.26218 C 233.336,776.26218 233.305,778.27018 233.735,779.16818 L 242.852,779.16818 L 242.852,778.11818 C 242.08,778.04118 242.08,777.50718 242.04,776.29918 L 241.884,772.43318 C 241.769,768.64218 240.454,766.90418 237.362,766.24718 C 240.413,764.93018 241.85,762.76318 241.85,759.36218 C 241.85,759.12118 241.841,758.89218 241.829,758.66618 L 247.648,758.66618 L 247.648,779.16818 L 256.583,779.16818 L 256.583,758.66618 L 262.848,758.66618 L 262.848,779.16818 L 283.93,779.16818 L 283.93,771.77618 L 271.784,771.77618"
         id="path3622" />
      <path
         style="fill:#ee3424;fill-rule:nonzero;stroke:none"
         d="M 309.786,750.84918 C 309.786,758.07318 305.127,762.80318 296.577,763.91218 L 296.577,758.07318 C 300.675,757.17218 302.415,755.29518 302.415,751.33518 L 296.577,751.33518 L 296.577,737.98918 L 309.786,737.98918 L 309.786,750.84918 z M 292.684,750.84918 C 292.684,758.07318 288.029,762.80318 279.476,763.91218 L 279.476,758.07318 C 283.578,757.17218 285.245,755.29518 285.245,751.33518 L 279.476,751.33518 L 279.476,737.98918 L 292.684,737.98918 L 292.684,750.84918"
         id="path3624" />
      <path
         style="fill:#000000;fill-rule:nonzero;stroke:none"
         d="M 254.235,791.55018 C 253.59,792.22518 252.705,792.54318 251.527,792.54318 C 249.071,792.54318 247.506,790.83518 247.506,787.95218 C 247.506,785.04618 249.188,783.36018 252.078,783.36018 C 254.363,783.36018 255.806,784.56018 256.062,786.59518 L 253.408,786.59518 C 253.192,785.89118 252.705,785.52718 251.999,785.52718 C 250.887,785.52718 250.331,786.39218 250.331,788.09918 C 250.331,789.67018 250.887,790.44918 252.027,790.44918 C 252.862,790.44918 253.47,790.02118 253.601,789.39518 L 252.343,789.39518 L 252.343,787.52818 L 256.173,787.52818 L 256.173,792.30418 L 254.363,792.30418 L 254.235,791.55018"
         id="path3626" />
      <path
         style="fill:#000000;fill-rule:nonzero;stroke:none"
         d="M 270.505,787.95218 C 270.505,790.78518 272.24,792.54318 275.038,792.54318 C 277.836,792.54318 279.555,790.78518 279.555,787.95218 C 279.555,785.11618 277.836,783.36018 275.038,783.36018 C 272.24,783.36018 270.505,785.11618 270.505,787.95218 z M 273.33,787.95218 C 273.33,786.31618 273.847,785.55318 275.038,785.55318 C 276.222,785.55318 276.732,786.31618 276.732,787.95218 C 276.732,789.58718 276.222,790.34818 275.038,790.34818 C 273.847,790.34818 273.33,789.58718 273.33,787.95218"
         id="path3628" />
      <path
         style="fill:#000000;fill-rule:nonzero;stroke:none"
         d="M 285.555,783.59118 L 285.555,788.96018 C 285.555,789.91518 285.894,790.33818 286.898,790.33818 C 287.903,790.33818 288.218,789.91518 288.218,788.96018 L 288.218,783.59118 L 291.019,783.59118 L 291.019,789.17418 C 291.019,791.35618 289.585,792.54318 286.898,792.54318 C 284.208,792.54318 282.757,791.35618 282.757,789.17418 L 282.757,783.59118 L 285.555,783.59118"
         id="path3630" />
      <path
         style="fill:#000000;fill-rule:nonzero;stroke:none"
         d="M 294.59,792.30418 L 297.39,792.30418 L 297.39,789.63518 L 299.063,789.63518 C 301.243,789.63518 302.419,788.55818 302.419,786.61918 C 302.419,785.51718 302.033,784.71518 301.218,784.17118 C 300.507,783.69918 299.524,783.59118 298.179,783.59118 L 294.59,783.59118 L 294.59,792.30418 z M 297.39,787.50418 L 297.39,785.72118 L 298.292,785.72118 C 299.272,785.72118 299.753,785.81818 299.753,786.61918 C 299.753,787.38218 299.284,787.50418 298.292,787.50418 L 297.39,787.50418"
         id="path3632" />
      <path
         style="fill:#000000;fill-rule:nonzero;stroke:none"
         d="M 263.729,787.33418 L 262.46,787.33418 L 262.46,785.69818 L 263.66,785.69818 C 264.508,785.69818 264.906,785.81818 264.906,786.52418 C 264.906,787.17318 264.529,787.33418 263.729,787.33418 z M 267.563,791.40618 L 267.51,790.19418 C 267.477,789.00718 267.061,788.46318 266.096,788.25518 C 267.054,787.84318 267.502,787.16318 267.502,786.09518 C 267.502,784.23218 266.363,783.59118 263.86,783.59118 L 259.695,783.59118 L 259.695,792.30418 L 262.46,792.30418 L 262.46,789.29518 L 263.648,789.29518 C 264.508,789.29518 264.834,789.61018 264.834,790.52018 L 264.834,790.52318 L 264.829,790.52018 L 264.829,791.39318 C 264.829,791.39318 264.82,792.02118 264.955,792.30118 L 264.991,792.30418 L 267.813,792.30418 L 267.813,791.97518 C 267.571,791.95018 267.571,791.78118 267.563,791.40618"
         id="path3634" />
    </g>
  </g>
</svg>
