<?xml version="1.0" encoding="UTF-8" standalone="no"?>
<!-- Created with Inkscape (http://www.inkscape.org/) -->
<svg
   xmlns:dc="http://purl.org/dc/elements/1.1/"
   xmlns:cc="http://web.resource.org/cc/"
   xmlns:rdf="http://www.w3.org/1999/02/22-rdf-syntax-ns#"
   xmlns:svg="http://www.w3.org/2000/svg"
   xmlns="http://www.w3.org/2000/svg"
   xmlns:xlink="http://www.w3.org/1999/xlink"
   xmlns:sodipodi="http://sodipodi.sourceforge.net/DTD/sodipodi-0.dtd"
   xmlns:inkscape="http://www.inkscape.org/namespaces/inkscape"
   width="300"
   height="300"
   id="svg2"
   sodipodi:version="0.32"
   inkscape:version="0.45.1"
   version="1.0"
   inkscape:output_extension="org.inkscape.output.svg.inkscape">
  <g
     inkscape:label="Layer 1"
     inkscape:groupmode="layer"
     id="layer1"
     transform="translate(-20.371012,-403.32338)">
    <path
       style="fill:#ffffff;fill-rule:nonzero;stroke:none"
       d="M -46.03,229.76718 L -46.03,229.76718"
       id="path2224" />
    <g
       id="g10020"
       transform="matrix(12.781731,0,0,12.781731,-240.00563,-8286.3643)">
      <path
         id="path4732"
         d="M 32.107,679.85218 L 43.842,691.58818 L 32.107,703.32318 L 20.371,691.58718 L 32.107,679.85218"
         style="fill:#005787;fill-rule:nonzero;stroke:none" />
      <path
         id="path4734"
         d="M 31.972,698.28118 L 31.049,697.35818 L 32.993,696.31818 L 31.972,698.28118 z M 29.184,698.33118 L 29.901,697.94918 L 31.356,699.40418 L 30.98,700.12718 L 32.436,701.58318 L 35.002,695.82118 L 33.515,694.33518 L 27.753,696.90018 L 29.184,698.33118"
         style="fill:#e2ec4d;fill-rule:nonzero;stroke:none" />
      <path
         id="path4736"
         d="M 28.611,687.68118 L 29.96,686.33218 L 33.25,689.62118 L 34.751,688.12018 L 31.462,684.83118 L 32.811,683.48218 L 31.679,682.34918 L 27.479,686.54918 L 28.611,687.68118"
         style="fill:#59c9de;fill-rule:nonzero;stroke:none" />
      <path
         id="path4738"
         d="M 33.679,689.19218 L 32.609,688.12318 L 30.547,690.18418 L 27.194,686.83318 L 25.693,688.33518 L 30.115,692.75618 L 33.679,689.19218"
         style="fill:#ef293c;fill-rule:nonzero;stroke:none" />
      <path
         id="path4740"
         d="M 27.462,696.61018 L 28.94,695.13218 L 30.598,696.79018 L 31.565,695.82318 L 29.908,694.16518 L 30.662,693.41018 L 32.744,695.49218 L 33.708,694.52818 L 30.11,690.93018 L 25.946,695.09418 L 27.462,696.61018"
         style="fill:#9598d4;fill-rule:nonzero;stroke:none" />
      <path
         id="path4742"
         d="M 24.491,689.53618 C 22.908,691.11818 23.157,692.45118 24.58,693.87418 C 26.105,695.39918 27.432,695.43718 28.906,693.96318 L 31.026,691.84518 L 29.52,690.34018 L 27.247,692.61118 C 26.75,693.10918 26.245,693.29418 25.703,692.75118 C 25.084,692.13218 25.384,691.65418 25.837,691.20118 L 28.11,688.93018 L 26.604,687.42418 L 24.491,689.53618"
         style="fill:#fcd213;fill-rule:nonzero;stroke:none" />
    </g>
  </g>
</svg>
