<?xml version="1.0" encoding="UTF-8" standalone="no"?>
<!-- Created with Inkscape (http://www.inkscape.org/) -->
<svg
   xmlns:dc="http://purl.org/dc/elements/1.1/"
   xmlns:cc="http://web.resource.org/cc/"
   xmlns:rdf="http://www.w3.org/1999/02/22-rdf-syntax-ns#"
   xmlns:svg="http://www.w3.org/2000/svg"
   xmlns="http://www.w3.org/2000/svg"
   xmlns:xlink="http://www.w3.org/1999/xlink"
   xmlns:sodipodi="http://sodipodi.sourceforge.net/DTD/sodipodi-0.dtd"
   xmlns:inkscape="http://www.inkscape.org/namespaces/inkscape"
   width="773"
   height="239"
   id="svg2"
   sodipodi:version="0.32"
   inkscape:version="0.45.1"
   version="1.0">
  <g
     inkscape:label="Layer 1"
     inkscape:groupmode="layer"
     id="layer1"
     transform="translate(11.500058,-641.17269)">
    <rect
       style="fill:#004489"
       id="rect4639"
       height="27.23"
       width="88.075996"
       clip-path="url(#SVGID_608_)"
       y="436.51199"
       x="190.883"
       transform="matrix(8.7770099,0,0,8.7770099,-1686.882,-3190.0974)" />
    <path
       style="fill:#ffdf00"
       id="path4641"
       d="M 198.006,446.532 C 198.169,445.839 198.958,445.453 199.709,445.453 L 203.194,445.453 C 205.768,445.453 207.172,446.625 206.752,448.396 C 206.423,449.793 205.039,450.805 203.156,451.058 L 205.198,453.082 C 205.515,453.402 205.67,453.654 205.585,454.014 C 205.514,454.321 204.975,455.013 203.865,455.013 C 203.115,455.013 202.894,454.814 202.615,454.481 L 199.848,451.138 L 199.812,451.138 L 199.166,453.868 C 198.987,454.627 198.287,455.013 197.447,455.013 C 196.607,455.013 196.092,454.627 196.27,453.868 L 198.006,446.532 z M 200.191,449.541 L 202.104,449.541 C 203.051,449.541 203.697,449.075 203.839,448.476 C 203.989,447.837 203.419,447.452 202.598,447.452 L 200.685,447.452 L 200.191,449.541 z "
       clip-path="url(#SVGID_608_)"
       transform="matrix(8.7770099,0,0,8.7770099,-1686.882,-3190.0974)" />
    <path
       style="fill:#ffdf00"
       id="path4643"
       d="M 211.247,450.486 L 209.336,447.983 C 208.648,447.037 208.425,446.771 208.528,446.333 C 208.663,445.76 209.434,445.374 210.293,445.374 C 211.079,445.374 211.356,445.786 211.586,446.105 L 213.191,448.382 L 215.875,446.105 C 216.255,445.786 216.728,445.374 217.514,445.374 C 218.372,445.374 218.96,445.76 218.825,446.333 C 218.721,446.771 218.373,447.037 217.237,447.983 L 214.143,450.486 L 213.343,453.868 C 213.163,454.628 212.465,455.014 211.625,455.014 C 210.784,455.014 210.268,454.627 210.446,453.868 L 211.247,450.486 z "
       clip-path="url(#SVGID_608_)"
       transform="matrix(8.7770099,0,0,8.7770099,-1686.882,-3190.0974)" />
    <path
       style="fill:#ffdf00"
       id="path4645"
       d="M 222.73,447.198 C 223.498,446.145 224.158,445.24 225.606,445.24 C 227.089,445.24 227.323,446.145 227.592,447.198 L 229.056,452.803 C 229.25,453.562 229.244,453.816 229.169,454.134 C 229.043,454.667 228.39,455.013 227.567,455.013 C 226.619,455.013 226.422,454.56 226.296,453.961 L 226.141,453.109 L 221.386,453.109 L 220.827,453.961 C 220.417,454.56 220.006,455.013 219.059,455.013 C 218.236,455.013 217.746,454.667 217.871,454.134 C 217.947,453.816 218.06,453.562 218.615,452.803 L 222.73,447.198 z M 225.128,447.637 L 225.093,447.637 L 222.717,451.113 L 225.754,451.113 L 225.128,447.637 z "
       clip-path="url(#SVGID_608_)"
       transform="matrix(8.7770099,0,0,8.7770099,-1686.882,-3190.0974)" />
    <path
       style="fill:#ffdf00"
       id="path4647"
       d="M 232.901,446.519 C 233.08,445.76 233.78,445.374 234.62,445.374 C 235.388,445.374 235.597,445.627 236.348,446.531 L 240.095,451.019 L 240.131,451.019 L 241.195,446.518 C 241.374,445.759 242.073,445.373 242.913,445.373 C 243.754,445.373 244.269,445.759 244.09,446.518 L 242.353,453.868 C 242.174,454.628 241.474,455.014 240.635,455.014 C 239.866,455.014 239.64,454.761 238.906,453.855 L 235.159,449.368 L 235.123,449.368 L 234.059,453.868 C 233.88,454.628 233.181,455.014 232.341,455.014 C 231.5,455.014 230.984,454.627 231.164,453.868 L 232.901,446.519 z "
       clip-path="url(#SVGID_608_)"
       transform="matrix(8.7770099,0,0,8.7770099,-1686.882,-3190.0974)" />
    <path
       style="fill:#ffdf00"
       id="path4649"
       d="M 249.077,447.198 C 249.845,446.145 250.505,445.24 251.953,445.24 C 253.437,445.24 253.67,446.145 253.939,447.198 L 255.403,452.803 C 255.598,453.562 255.591,453.816 255.517,454.134 C 255.391,454.667 254.737,455.013 253.914,455.013 C 252.966,455.013 252.77,454.56 252.643,453.961 L 252.487,453.109 L 247.732,453.109 L 247.172,453.961 C 246.764,454.56 246.353,455.013 245.405,455.013 C 244.582,455.013 244.092,454.667 244.217,454.134 C 244.292,453.816 244.406,453.562 244.961,452.803 L 249.077,447.198 z M 251.476,447.637 L 251.44,447.637 L 249.064,451.113 L 252.102,451.113 L 251.476,447.637 z "
       clip-path="url(#SVGID_608_)"
       transform="matrix(8.7770099,0,0,8.7770099,-1686.882,-3190.0974)" />
    <path
       style="fill:#ffdf00"
       id="path4651"
       d="M 260.406,453.869 C 260.226,454.628 259.527,455.014 258.687,455.014 C 257.846,455.014 257.331,454.628 257.509,453.869 L 259.247,446.518 C 259.426,445.759 260.125,445.372 260.966,445.372 C 261.806,445.372 262.322,445.759 262.142,446.518 L 260.406,453.869 z "
       clip-path="url(#SVGID_608_)"
       transform="matrix(8.7770099,0,0,8.7770099,-1686.882,-3190.0974)" />
    <path
       style="fill:#ffdf00"
       id="path4653"
       d="M 264.785,446.532 C 264.95,445.839 265.738,445.453 266.489,445.453 L 269.973,445.453 C 272.547,445.453 273.951,446.625 273.533,448.396 C 273.202,449.793 271.819,450.805 269.935,451.058 L 271.977,453.082 C 272.294,453.402 272.45,453.654 272.365,454.014 C 272.293,454.321 271.754,455.013 270.644,455.013 C 269.894,455.013 269.673,454.814 269.394,454.481 L 266.627,451.138 L 266.591,451.138 L 265.946,453.868 C 265.766,454.627 265.066,455.013 264.227,455.013 C 263.386,455.013 262.871,454.627 263.049,453.868 L 264.785,446.532 z M 266.969,449.541 L 268.882,449.541 C 269.829,449.541 270.475,449.075 270.617,448.476 C 270.767,447.837 270.198,447.452 269.376,447.452 L 267.463,447.452 L 266.969,449.541 z "
       clip-path="url(#SVGID_608_)"
       transform="matrix(8.7770099,0,0,8.7770099,-1686.882,-3190.0974)" />
  </g>
</svg>
