<?xml version="1.0" encoding="UTF-8" standalone="no"?>
<!-- Created with Inkscape (http://www.inkscape.org/) -->
<svg
   xmlns:svg="http://www.w3.org/2000/svg"
   xmlns="http://www.w3.org/2000/svg"
   version="1.0"
   width="143"
   height="97"
   viewBox="-0.504 -0.771 177 122"
   id="svg2"
   xml:space="preserve">
<defs
   id="defs4">
</defs>
<path
   d="M 114.84896,10.169799 C 123.99234,10.980604 143.04775,13.603222 149.47145,17.233711 C 162.311,24.509394 171.26222,32.157636 171.26222,58.54755 C 171.26222,86.84732 162.89827,97.947614 149.47145,104.83113 C 136.03776,111.71367 105.86735,112.10583 88.266883,112.10583 C 70.645827,112.10583 40.489146,111.71367 27.060359,104.83113 C 13.62765,97.946633 5.2597813,86.846339 5.2597813,58.54657 C 5.2597813,32.156655 14.208058,24.509394 27.059379,17.23273 C 34.182116,13.201251 46.272633,11.171785 58.947478,10.166857 C 70.741908,9.49331 101.23389,8.9687863 114.84896,10.169799 L 114.84896,10.169799 z M 58.592567,2.5127329 C 45.107896,3.6509984 32.156572,5.9873348 24.596568,10.727656 C 11.270725,19.091603 1.9665568,27.891836 1.9665568,58.230875 C 1.9665568,90.777816 10.64914,103.53796 24.596568,111.45484 C 38.537134,119.37269 69.836982,119.82271 88.114918,119.82271 C 106.39678,119.82271 137.68976,119.37269 151.64994,111.45484 C 165.58854,103.53894 174.27309,90.777816 174.27309,58.230875 C 174.27309,27.891836 164.96794,19.091603 151.64994,10.727656 C 143.62521,5.697131 130.20035,3.176476 115.97938,2.4088086 C 100.95545,1.5813357 81.842203,-0.39028519 58.592567,2.5127329 L 58.592567,2.5127329 z"
   id="path6"
   style="fill:#937f3b;fill-opacity:1;fill-rule:evenodd" />
<path
   d="M 57.093508,30.770344 C 53.028694,28.055566 49.973711,26.945733 46.273613,26.945733 C 41.911733,26.945733 38.986165,29.305599 38.986165,32.786084 C 38.986165,36.042052 41.055828,38.142108 48.198174,42.242216 C 53.028694,45.022682 54.198333,45.718779 55.873867,47.24431 C 58.181772,49.405151 59.472982,52.458173 59.472982,55.587668 C 59.472982,64.003577 52.040433,69.709611 41.368581,69.709611 C 37.693974,69.709611 34.694875,69.221363 30.856538,68.04192 L 30.856538,59.205411 C 35.459601,62.818252 38.606743,64.213387 42.604889,64.213387 C 47.2756,64.213387 50.960012,60.939771 50.960012,56.773974 C 50.960012,53.441533 49.64331,52.045417 42.816659,48.083548 C 37.830252,45.237394 35.997851,43.981478 34.080153,41.962797 C 31.697737,39.667638 30.473195,36.883251 30.473195,34.033175 C 30.473195,26.455524 37.369456,21.379899 47.666787,21.379899 C 51.043347,21.379899 54.099311,21.800498 57.093508,22.566205 L 57.093508,30.770344 L 57.093508,30.770344 z"
   id="path8"
   style="fill:#937f3b;fill-opacity:1;fill-rule:evenodd" />
<path
   d="M 123.53841,42.447124 L 123.53841,27.509473 C 131.07194,27.637908 134.59458,29.867379 134.59458,34.526326 C 134.59458,39.186253 130.8435,41.890246 123.53841,42.447124 L 123.53841,42.447124 z M 113.27441,22.429927 C 114.65582,24.648613 114.87249,25.83688 114.87249,29.79973 L 114.87249,61.36135 C 114.87249,65.333024 114.65582,66.510506 113.27441,68.738997 L 125.08551,68.738997 C 132.29256,68.738997 136.59758,67.823286 140.43591,65.468322 C 143.96248,63.237871 146.18803,59.205411 146.18803,54.964122 C 146.18803,49.540449 143.04677,45.79035 136.75248,43.559898 C 141.66438,40.919632 143.80267,37.851904 143.80267,33.756697 C 143.80267,26.249636 137.13191,22.428946 124.39431,22.428946 L 113.27441,22.428946 L 113.27441,22.429927 z M 123.53841,63.651607 L 123.53841,45.857018 C 127.30616,45.928589 128.46011,46.131535 130.90723,47.037441 C 134.59556,48.362967 136.96523,51.490501 136.96523,55.173932 C 136.96523,58.791674 134.67694,61.780969 130.99057,62.819232 C 128.53952,63.513368 128.07872,63.513368 123.53841,63.651607 L 123.53841,63.651607 z"
   id="path10"
   style="fill:#937f3b;fill-opacity:1;fill-rule:evenodd" />
<path
   d="M 110.19394,68.738997 C 108.58801,66.860516 107.82721,65.743819 105.98794,62.127057 L 85.155035,22.396593 L 83.393224,22.396593 L 63.5476,61.506452 C 61.780887,64.982035 60.633798,66.787965 58.938655,68.738997 L 71.216431,68.738997 C 70.680142,67.41053 70.521314,66.860516 70.521314,65.946766 C 70.521314,64.627123 70.995837,62.818252 71.610559,61.575082 L 75.450857,53.854289 L 92.710137,53.854289 L 96.617104,61.505472 C 97.38281,62.956491 97.913216,64.776147 97.913216,65.945786 C 97.913216,66.859535 97.690662,67.695832 97.232806,68.738016 L 110.19394,68.738016 L 110.19394,68.738997 z M 78.056808,48.428655 L 83.953043,36.405787 L 89.937515,48.428655 L 78.056808,48.428655 L 78.056808,48.428655 z"
   id="path12"
   style="fill:#937f3b;fill-opacity:1;fill-rule:evenodd" />
<path
   d="M 51.253157,81.507963 C 51.253157,79.769681 51.382572,79.240255 52.017883,78.285328 L 46.722645,78.285328 C 46.815784,78.602984 46.815784,78.727497 46.815784,78.896129 C 46.815784,79.330454 46.582445,79.769681 45.857916,80.698137 L 41.036219,86.915949 L 36.209621,80.698137 C 35.493916,79.769681 35.259596,79.330454 35.259596,78.896129 C 35.259596,78.727497 35.259596,78.602984 35.360579,78.285328 L 30.051615,78.285328 C 30.684965,79.241236 30.811439,79.769681 30.811439,81.507963 L 30.811439,94.427913 C 30.811439,96.166194 30.684965,96.724052 30.051615,97.652508 L 35.876279,97.652508 C 35.313519,96.724052 35.186065,96.193646 35.186065,94.427913 L 35.186065,84.857071 L 41.024454,92.40531 L 41.024454,92.422958 L 41.036219,92.411193 L 41.036219,92.422958 L 41.036219,92.40531 L 46.880492,84.857071 L 46.880492,94.427913 C 46.880492,96.193646 46.748136,96.724052 46.194199,97.652508 L 52.016903,97.652508 C 51.382572,96.724052 51.252176,96.166194 51.252176,94.427913 L 51.252176,81.507963 L 51.253157,81.507963 z"
   id="path14"
   style="fill:#937f3b;fill-opacity:1;fill-rule:evenodd" />
<path
   d="M 59.226897,97.652508 C 59.801423,96.641697 59.91319,96.081878 59.91319,94.146533 L 59.91319,81.381489 C 59.91319,79.46281 59.801423,78.896129 59.226897,77.888259 L 65.35157,77.888259 C 64.785868,78.895148 64.675081,79.493203 64.675081,81.381489 L 64.675081,94.146533 C 64.675081,96.082858 64.785868,96.641697 65.35157,97.652508 L 59.226897,97.652508 L 59.226897,97.652508 z"
   id="path16"
   style="fill:#937f3b;fill-opacity:1;fill-rule:evenodd" />
<path
   d="M 72.38607,97.652508 C 72.940986,96.641697 73.062558,96.081878 73.062558,94.146533 L 73.062558,81.381489 C 73.062558,79.46281 72.940986,78.896129 72.38607,77.888259 L 78.491133,77.888259 C 77.926412,78.895148 77.810723,79.493203 77.810723,81.381489 L 77.810723,94.504385 L 79.676459,94.504385 C 82.380452,94.504385 83.715782,94.146533 85.467789,93.021993 L 83.533424,97.652508 L 72.38607,97.652508 L 72.38607,97.652508 z"
   id="path18"
   style="fill:#937f3b;fill-opacity:1;fill-rule:evenodd" />
<path
   d="M 90.624788,97.652508 C 91.190489,96.641697 91.315002,96.081878 91.315002,94.146533 L 91.315002,81.381489 C 91.315002,79.46281 91.190489,78.896129 90.624788,77.888259 L 96.744558,77.888259 C 96.176896,78.895148 96.060226,79.493203 96.060226,81.381489 L 96.060226,94.504385 L 97.942629,94.504385 C 100.62995,94.504385 101.96823,94.146533 103.71926,93.021993 L 101.78587,97.652508 L 90.624788,97.652508 L 90.624788,97.652508 z"
   id="path20"
   style="fill:#937f3b;fill-opacity:1;fill-rule:evenodd" />
<path
   d="M 121.21678,86.130634 L 119.18927,90.502318 C 118.04022,89.552293 116.69999,89.106203 115.15975,89.106203 L 114.32052,89.106203 L 114.32052,94.624977 L 115.69016,94.624977 C 117.15687,94.653409 118.90691,94.46811 120.02753,94.205358 C 120.95991,94.004372 121.42365,93.825936 122.66388,93.317099 L 120.75206,97.652508 L 108.90273,97.652508 C 109.46058,96.670129 109.59,96.081878 109.59,94.146533 L 109.59,81.381489 C 109.59,79.46281 109.46058,78.896129 108.87527,77.888259 L 121.72365,77.888259 L 119.91674,82.254061 C 118.84417,81.329526 117.47354,80.879515 115.6882,80.879515 L 114.31856,80.879515 L 114.31856,86.129654 L 121.21678,86.129654 L 121.21678,86.130634 z"
   id="path22"
   style="fill:#937f3b;fill-opacity:1;fill-rule:evenodd" />
<path
   d="M 134.72204,86.580646 L 134.72204,80.501073 C 136.85739,80.501073 138.00644,81.487374 138.00644,83.321736 C 138.00644,85.190413 136.82013,86.375739 134.72204,86.580646 L 134.72204,86.580646 z M 134.72204,89.226794 L 138.98882,94.599486 C 140.73788,96.782877 141.92321,97.651527 143.04775,97.651527 C 143.88993,97.651527 144.7174,97.354461 145.75664,96.761308 C 144.8527,95.953443 144.68113,95.742653 143.34482,93.880839 L 140.20061,89.495429 L 139.24373,88.124804 C 140.46435,87.531652 140.882,87.268899 141.50653,86.608098 C 142.4291,85.65219 142.95559,84.356077 142.95559,83.02565 C 142.95559,81.369724 142.10949,79.736347 140.6771,78.740242 C 139.40059,77.853944 137.76428,77.499033 135.0142,77.499033 L 129.25817,77.499033 C 129.85328,78.509844 129.97681,79.076526 129.97681,80.999126 L 129.97681,93.76515 C 129.97681,95.689711 129.85328,96.25051 129.28072,97.25936 L 135.39068,97.25936 C 134.80733,96.25051 134.72302,95.68873 134.72302,93.76515 L 134.72302,89.226794 L 134.72204,89.226794 z"
   id="path24"
   style="fill:#937f3b;fill-opacity:1;fill-rule:evenodd" />
</svg>