<?xml version="1.0" encoding="utf-8"?>
<!-- Generator: Adobe Illustrator 12.0.0, SVG Export Plug-In . SVG Version: 6.00 Build 51448)  -->
<!DOCTYPE svg PUBLIC "-//W3C//DTD SVG 1.1//EN" "http://www.w3.org/Graphics/SVG/1.1/DTD/svg11.dtd" [
	<!ENTITY ns_svg "http://www.w3.org/2000/svg">
	<!ENTITY ns_xlink "http://www.w3.org/1999/xlink">
]>
<svg  version="1.1" id="VARG" xmlns="&ns_svg;" xmlns:xlink="&ns_xlink;" width="150" height="51" viewBox="0 0 150 51"
	 overflow="visible" enable-background="new 0 0 150 51" xml:space="preserve">
<path fill="#D3003F" d="M12.468,29.91c-0.227,1.196-0.427,2.66,0.599,3.571c1.51,1.312,3.678,1.455,5.53,0.913
	c0.6-0.198,1.113-0.542,1.512-1.025c0.371-0.485,0.541-1.022,0.427-1.649c-0.142-0.599-0.484-1.084-0.999-1.453
	c-0.37-0.257-0.769-0.372-1.167-0.514c-1.796-0.541-3.563-0.913-5.389-1.398c-1.882-0.54-3.591-1.366-4.96-2.821
	c-0.485-0.514-0.855-1.083-1.139-1.711c-0.343-0.825-0.542-1.68-0.6-2.563c-0.085-1.94,0.257-3.877,1.284-5.588
	c0.968-1.596,2.195-2.854,3.791-3.824c2.109-1.254,4.417-1.796,6.784-1.88c4.02-0.172,8.263,0.055,11.627,2.735
	c0.199,0.172,0.371,0.344,0.57,0.543c1.91,1.937,2.138,4.77,1.708,7.274h-9.148c-0.028-0.481,0.084-0.955,0.028-1.441
	c-0.029-0.085-0.029-0.2-0.057-0.284c-0.257-0.998-1.197-1.539-2.11-1.854c-0.942-0.285-1.881-0.285-2.851-0.027
	c-0.428,0.084-0.797,0.313-1.17,0.569c-0.598,0.456-1.025,1.168-0.854,1.938c0.313,1.256,1.624,1.662,2.735,1.918
	c1.967,0.428,3.821,0.719,5.672,1.374c0.885,0.315,1.682,0.714,2.51,1.282c0.598,0.428,1.083,0.827,1.568,1.34
	c0.514,0.6,0.939,1.228,1.254,1.939c0.371,0.854,0.515,1.738,0.6,2.65c0.17,2.623-0.685,5.13-2.367,7.213
	c-0.627,0.74-1.197,1.396-1.966,1.967c-0.998,0.712-1.935,1.226-3.046,1.624c-1.052,0.4-2.109,0.627-3.222,0.741
	c-2.109,0.2-4.162,0.342-6.272,0.058c-2.135-0.286-4.16-0.684-6.07-1.766c-1.797-1-3.123-2.611-3.863-4.491
	c-0.629-1.597-0.652-3.771-0.135-5.359H12.468 M42.091,30.095h6.346l-0.01-0.056c-0.342-2.538-0.742-5.02-1.083-7.612
	c-0.059-0.485-0.059-0.969-0.085-1.454c-0.012-0.199,0.027-0.398-0.028-0.598c-0.257,0.512-0.494,1.083-0.779,1.595
	C45.025,24.736,43.429,27.329,42.091,30.095 M65.277,10.536l-9.01,38.67h-0.495l1.616-8.145h-7.346
	c-0.218-1.522-0.454-3.075-0.671-4.624H38.606c-0.896,1.549-1.792,3.06-2.618,4.637h-9.115
	c5.901-10.214,11.735-20.363,17.695-30.482c3.021,0,6.01,0,9.031,0l4.725,25.155l4.987-25.211H65.277z M136.611,28.053
	c0.685-1.968,1.026-3.992,0.855-6.072c-0.086-1.17-0.455-2.253-1.227-3.165c-1.34-1.511-3.478-1.881-5.304-1.168
	c-2.535,1.056-3.99,3.505-4.788,6.044c-0.655,2.081-1.111,4.189-0.855,6.384c0.113,0.914,0.314,1.738,0.799,2.538
	c0.398,0.654,0.968,1.169,1.655,1.512c0.625,0.313,1.31,0.483,1.993,0.541c0.94,0.057,1.854-0.257,2.653-0.714
	C134.644,32.67,135.812,30.361,136.611,28.053 M145.36,31.392c-0.169,0.371-0.34,0.742-0.54,1.111
	c-0.342,0.742-0.711,1.295-1.195,2.006c-1.141,1.654-2.396,2.852-3.963,4.02c-1.17,0.885-2.339,1.568-3.678,2.055
	c-1.141,0.426-2.281,0.739-3.479,0.911c-2.052,0.313-3.96,0.342-6.042-0.057c-1.512-0.314-2.851-0.714-4.19-1.369
	c-1.17-0.54-2.225-1.284-3.138-2.28c-2.136-2.339-3.22-5.33-3.305-8.409c-0.144-4.591,1.082-8.877,3.849-12.811
	c1.177-1.675,2.535-2.823,4.247-3.935c1.14-0.74,2.251-1.311,3.535-1.709c4.9-1.482,10.204-1.453,14.709,1.597
	c1.339,0.911,2.339,1.968,3.22,3.334c0.943,1.512,1.426,3.136,1.597,4.847C147.414,24.377,146.729,27.999,145.36,31.392z
	 M65.398,49.204l4.979-21.396l5.505,13.2h11.279l5.139-26.688l6.13,15.627l-2.238,11.076h9.209l2.195-10.877l15.406-19.598h-11.282
	c0,0-6.644,9.123-7.289,10.845h-0.055c-0.227-1.918-3.771-10.845-3.771-10.845h-7.623l1.453-7.968h-0.479L85.55,39.64l-0.299-0.627
	l6.893-36.432h-0.54l-7.583,33.354l-0.275-0.638l6.056-32.716H89.29l-6.705,29.6l-0.293-0.674l5.239-28.926h-0.522l-5.867,25.941
	l-0.305-0.761l4.34-25.171h-0.503l-4.937,22.455l-5.264-14.491h-1.911l-7.678,38.65H65.398 M63.179,49.213l8.934-38.675h-1.852
	l-7.558,38.675H63.179 M60.901,49.213l8.95-38.675h-1.897l-7.562,38.675H60.901 M58.573,49.213l9.01-38.675h-1.915l-7.603,38.675
	H58.573"/>
</svg>
