<?xml version="1.0" encoding="UTF-8" standalone="no"?>
<svg
   xmlns:dc="http://purl.org/dc/elements/1.1/"
   xmlns:cc="http://creativecommons.org/ns#"
   xmlns:rdf="http://www.w3.org/1999/02/22-rdf-syntax-ns#"
   xmlns:svg="http://www.w3.org/2000/svg"
   xmlns="http://www.w3.org/2000/svg"
   xmlns:xlink="http://www.w3.org/1999/xlink"
   xmlns:sodipodi="http://sodipodi.sourceforge.net/DTD/sodipodi-0.dtd"
   xmlns:inkscape="http://www.inkscape.org/namespaces/inkscape"
   version="1.1"
   id="Layer_1"
   x="0px"
   y="0px"
   width="775"
   height="198"
   viewBox="0 0 775 198"
   enable-background="new 0 0 595.276 841.89"
   xml:space="preserve">
<path
   style="fill:#004b9c"
   inkscape:connector-curvature="0"
   id="path209"
   d="m 515.71,178.119 0.382,-0.031 c 1.48,-0.107 2.761,-0.152 3.92,-0.152 1.558,0 2.396,0.091 3.341,0.35 0.565,0.153 1.068,0.397 1.48,0.702 1.068,0.793 1.678,2.105 1.678,3.57 0,2.212 -1.555,4.134 -3.783,4.699 -0.808,0.213 -1.541,0.289 -2.67,0.289 h -4.348 v -0.411 h 0.382 c 0.824,0 1.053,-0.29 1.068,-1.313 v -5.767 c 0,-1.342 -0.153,-1.525 -1.236,-1.525 h -0.214 v -0.411 m 3.143,7.901 c 0,0.931 0.152,1.099 0.961,1.099 1.512,0 2.273,-0.152 2.976,-0.564 1.22,-0.732 1.859,-2.09 1.859,-3.875 0,-1.327 -0.456,-2.517 -1.233,-3.25 -0.824,-0.762 -1.801,-1.052 -3.494,-1.052 h -0.625 c -0.26,0.015 -0.275,0.015 -0.443,0.015 v 7.627 m -13.198,1.526 v -0.411 h 0.548 c 1.1,0 1.403,-0.229 1.42,-1.053 v -6.301 c -0.017,-1.067 -0.229,-1.311 -1.16,-1.311 h -0.381 v -0.428 h 7.795 l 0.138,2.304 h -0.458 c -0.046,-0.153 -0.061,-0.26 -0.077,-0.336 -0.259,-1.175 -0.381,-1.266 -1.479,-1.266 h -2.67 v 3.54 h 2.334 c 0.899,0 1.037,-0.123 1.159,-0.992 l 0.016,-0.153 h 0.397 v 3.066 h -0.397 c -0.016,-0.107 -0.03,-0.198 -0.03,-0.244 -0.122,-0.823 -0.306,-0.976 -1.129,-0.976 h -2.35 v 2.776 c 0,0.946 0.106,1.099 0.885,1.099 h 1.693 c 1.221,0 1.57,-0.153 1.893,-0.747 0.152,-0.306 0.197,-0.428 0.35,-0.962 h 0.428 l -0.229,2.395 h -8.696 m -10.073,-9.748 h 0.426 c 0.108,0.229 0.199,0.244 0.992,0.244 h 6.127 c 0.793,0 0.885,-0.015 0.976,-0.244 h 0.428 l 0.274,2.624 h -0.441 c -0.23,-1.48 -0.412,-1.678 -1.526,-1.678 h -1.927 v 7.338 c 0.016,0.824 0.335,1.053 1.419,1.053 h 0.336 v 0.411 h -5.203 v -0.411 h 0.336 c 1.083,0 1.388,-0.229 1.403,-1.053 l 0.016,-0.259 v -7.079 h -1.927 c -1.129,0 -1.327,0.214 -1.526,1.678 h -0.457 l 0.274,-2.624 m -7.916,7.246 h 0.457 c 0.366,1.404 1.327,2.197 2.608,2.197 1.13,0 1.907,-0.641 1.907,-1.556 0,-0.61 -0.29,-1.113 -0.915,-1.601 -0.26,-0.199 -0.55,-0.413 -0.9,-0.641 -1.571,-1.053 -2.014,-1.404 -2.456,-1.953 -0.336,-0.412 -0.519,-0.915 -0.519,-1.449 0,-1.312 1.145,-2.243 2.776,-2.243 0.458,0 0.854,0.046 1.342,0.152 0.413,0.092 0.489,0.107 0.657,0.107 0.198,0 0.29,-0.045 0.427,-0.182 h 0.381 l 0.336,2.364 h -0.458 c -0.458,-1.22 -1.403,-1.953 -2.517,-1.953 -0.854,0 -1.465,0.519 -1.465,1.236 0,0.595 0.275,1.037 0.962,1.541 0.381,0.259 0.823,0.564 1.312,0.869 1.449,0.931 2.014,1.465 2.334,2.197 0.138,0.305 0.198,0.671 0.198,1.067 0,1.542 -1.327,2.594 -3.311,2.594 -0.335,0 -0.915,-0.061 -1.189,-0.121 l -0.443,-0.107 c -0.137,-0.031 -0.259,-0.046 -0.365,-0.046 -0.184,0 -0.306,0.046 -0.412,0.168 h -0.366 l -0.381,-2.64 m -10.518,-6.925 c 1.055,-0.092 1.467,-0.107 2.442,-0.153 0.671,-0.016 1.235,-0.03 1.708,-0.03 1.403,0 2.212,0.106 2.944,0.381 0.885,0.336 1.374,0.992 1.374,1.861 0,0.977 -0.688,1.709 -1.831,1.937 v 0.031 c 1.495,0.412 2.363,1.343 2.363,2.487 0,1.083 -0.563,1.983 -1.494,2.44 -0.763,0.366 -1.343,0.473 -2.64,0.473 h -5.156 v -0.411 h 0.551 c 1.066,0 1.402,-0.245 1.402,-1.053 v -5.797 c 0,-1.571 -0.152,-1.754 -1.373,-1.754 h -0.291 v -0.412 m 4.228,3.875 c 1.739,0 2.439,-0.489 2.439,-1.694 0,-1.266 -0.822,-1.937 -2.379,-1.937 -0.336,0 -0.595,0.015 -0.931,0.061 v 3.57 h 0.871 m -0.87,3.005 c 0,1.601 0.305,1.998 1.525,1.998 1.388,0 2.258,-0.87 2.258,-2.273 0,-1.51 -1.022,-2.319 -2.944,-2.319 h -0.839 v 2.594 m -9.305,-6.957 h 4.256 v 0.428 h -0.244 c -0.808,0 -1.052,0.274 -1.052,1.311 l -0.016,0.473 v 5.095 l 0.016,0.474 c 0,1.022 0.244,1.313 1.052,1.313 h 0.244 v 0.411 h -4.256 v -0.411 h 0.183 c 0.824,0 1.053,-0.29 1.069,-1.313 v -6.042 c -0.017,-1.037 -0.245,-1.311 -1.069,-1.311 h -0.183 v -0.428 m -10.396,7.261 c 0,1.572 0.168,1.785 1.358,1.832 v 0.411 h -4.409 v -0.411 c 1.19,-0.047 1.357,-0.26 1.357,-1.816 v -5.095 c 0,-1.495 -0.167,-1.725 -1.357,-1.754 v -0.428 h 4.409 v 0.428 c -1.145,0.029 -1.358,0.29 -1.358,1.616 v 2.273 h 5.493 v -2.028 c 0,-1.617 -0.154,-1.832 -1.374,-1.861 v -0.428 h 4.47 v 0.428 c -1.251,0.029 -1.388,0.228 -1.388,1.937 v 4.759 c 0,1.74 0.122,1.922 1.388,1.969 v 0.411 h -4.47 v -0.411 c 1.236,-0.047 1.374,-0.245 1.374,-1.939 v -2.15 h -5.493 v 2.257 m -5.342,2.243 c -0.183,-0.076 -0.29,-0.107 -0.519,-0.107 -0.198,0 -0.411,0.031 -0.733,0.077 l -0.716,0.137 c -0.625,0.107 -1.037,0.137 -1.68,0.137 -3.248,0 -5.398,-1.891 -5.398,-4.775 0,-3.127 2.242,-5.217 5.583,-5.217 0.702,0 1.342,0.077 2.014,0.244 l 0.885,0.214 c 0.152,0.03 0.305,0.061 0.396,0.061 0.122,0 0.198,-0.031 0.275,-0.107 h 0.396 l 0.077,2.517 h -0.473 c -0.534,-1.556 -1.785,-2.426 -3.433,-2.426 -2.351,0 -3.859,1.694 -3.859,4.302 0,2.686 1.754,4.654 4.118,4.654 1.449,0 2.807,-0.84 3.646,-2.258 h 0.458 l -1.037,2.547"
   clip-path="url(#SVGID_4_)"
   transform="matrix(7.7180948,0,0,7.7180948,-3288.6717,-1311.7829)" /><path
   style="fill:#004b9c"
   inkscape:connector-curvature="0"
   id="path211"
   d="m 525.929,189.246 h -81.131 c 0.283,-0.878 0.435,-1.817 0.435,-2.8 0,-2.851 -2.681,-6.096 -2.681,-6.096 -0.624,-0.86 -3.323,-4.388 -3.54,-4.711 -0.517,-0.775 -1.475,-1.819 -1.152,-3.348 0.288,-1.368 1.765,-1.897 2.681,-1.897 1.1,0 2.514,0.61 3.019,2.19 h 0.427 l -0.07,-1.949 c -1.34,-0.577 -2.805,-0.674 -3.32,-0.674 -0.515,0 -3.629,0.04 -5.486,2.764 -2.343,3.435 0.094,6.703 0.094,6.703 0.47,0.738 2.3,3.033 2.9,3.787 0,0 1.376,1.814 1.828,2.549 0.474,0.773 0.917,1.633 0.912,2.683 0,0.279 -0.019,0.546 -0.051,0.804 h -2.175 l 0.005,-0.405 c 0.022,-1.903 -1.322,-5.481 -6.127,-5.481 -3.969,0 -6.384,3.011 -6.398,5.792 -0.027,4.94 5.188,6.235 7.225,6.403 5.612,0.463 9.711,-1.964 11.246,-5.682 h 81.361 v -0.632 m -88.764,0.005 h -1.034 c 0.772,-3.186 -1.855,-4.657 -1.855,-4.657 0,0 3.168,1.004 2.889,4.657 m -3.429,5.395 c -5.346,0.019 -6.912,-3.438 -6.911,-5.3 0.003,-2.161 1.565,-4.779 4.591,-4.783 2.92,-0.004 3.85,2.565 3.479,3.772 -0.253,0.822 -0.834,0.943 -0.834,0.943 v 0.604 h 6.612 c -0.844,3.513 -4.683,4.756 -6.937,4.764 m 7.354,-2.77 c 0.975,-0.887 1.556,-2.504 1.556,-4.394 0,-1.593 -0.972,-3.104 -2.164,-4.724 l -2.601,-3.433 c -0.723,-0.965 -1.807,-2.623 -1.807,-4.397 0,-1.928 0.467,-2.503 1.117,-3.352 -0.578,1.002 -0.72,1.424 -0.72,2.581 0,1.967 1.075,3.472 1.94,4.591 l 2.565,3.434 c 1.047,1.427 2.188,2.986 2.236,4.869 0.055,2.106 -0.93,4.054 -2.122,4.825"
   clip-path="url(#SVGID_4_)"
   transform="matrix(7.7180948,0,0,7.7180948,-3288.6717,-1311.7829)" />
</svg>