<?xml version="1.0" encoding="UTF-8" standalone="no"?>
<svg
   xmlns:dc="http://purl.org/dc/elements/1.1/"
   xmlns:cc="http://creativecommons.org/ns#"
   xmlns:rdf="http://www.w3.org/1999/02/22-rdf-syntax-ns#"
   xmlns:svg="http://www.w3.org/2000/svg"
   xmlns="http://www.w3.org/2000/svg"
   xmlns:sodipodi="http://sodipodi.sourceforge.net/DTD/sodipodi-0.dtd"
   xmlns:inkscape="http://www.inkscape.org/namespaces/inkscape"
   version="1.1"
   id="Layer_1"
   x="0px"
   y="0px"
   width="1075"
   height="90"
   viewBox="0 0 1075 90"
   enable-background="new 0 0 595 841"
   xml:space="preserve">
<path
   d="m 92.268416,79.52898 c -6.653603,5.205235 -15.416987,8.82813 -25.036398,9.818217 1.11974,-1.57798 2.109785,-3.294349 3.095503,-4.80753 C 82.649014,63.126215 78.498609,37.622914 61.105856,27.54091 56.428014,24.912343 51.352424,23.58939 46.276834,23.524561 v -0.925089 c 16.476212,0.328696 30.310873,9.091906 39.208288,24.249497 5.862426,10.276591 8.166759,22.732066 6.783294,32.680131 m -91.8491331,0 C -0.76531258,71.228234 0.54897108,61.93738 4.5048305,52.975102 5.2311504,54.75203 6.2168679,56.403559 7.0080378,58.050709 19.394376,79.464111 43.509907,88.690115 61.105856,78.543232 65.58483,75.841126 69.272627,72.209542 71.974711,67.864586 l 0.726321,0.458194 C 64.136511,82.356365 49.571219,90.000009 32.113615,90.000009 20.185542,90.004309 8.3915041,85.724273 0.4192839,79.52895 z M 46.276834,0.00133487 C 54.119356,3.2222046 61.499284,9.028462 67.232018,16.801765 65.385955,16.667766 63.475045,16.533768 61.56413,16.533768 c -24.707828,0 -44.73781,16.277376 -44.73781,36.441354 0,5.335023 1.318612,10.280892 3.886672,14.889534 l -0.79118,0.458194 C 12.083627,53.822302 12.675924,37.488766 21.504161,22.266336 27.366594,11.989735 36.921156,3.8878163 46.276833,0.00114487 z m 0,28.52965313 c 13.575257,0 24.513286,11.002852 24.513286,24.444074 0,13.57531 -10.938029,24.578143 -24.513286,24.578143 -13.441229,0 -24.573799,-11.002833 -24.573799,-24.578143 0,-13.441222 11.13257,-24.444074 24.573799,-24.444074 z"
   id="path3" /><path
   d="m 147.6589,29.386977 0.32889,9.61938 h -0.39789 c -2.43837,-2.174593 -11.00292,-5.205285 -15.48186,-3.886651 -5.73277,1.651529 -3.75699,6.126163 -2.50321,7.250199 6.25584,5.468981 18.24874,6.584458 21.08486,16.80481 1.38347,5.996415 -0.067,12.057729 -5.3393,15.94444 -5.27017,3.692094 -14.16754,4.746981 -21.41346,3.160341 -2.76693,-0.592193 -5.99646,-1.448322 -8.89741,-2.503249 l -0.59219,-10.540218 h 0.398 c 8.03706,4.608632 15.61585,7.578795 20.29369,4.280046 1.38348,-0.989987 2.30432,-3.359158 2.10981,-4.945838 -0.199,-1.910916 -1.71636,-4.215277 -6.32945,-6.783315 -6.78326,-3.692174 -14.88948,-6.255862 -16.14322,-14.958723 -0.6572,-4.941588 1.91082,-9.818307 4.81183,-11.98859 7.44478,-5.404212 21.67719,-3.890991 28.07137,-1.452632"
   id="path5" /><path
   d="m 166.68589,74.124728 c 0,1.318623 0.79109,2.702136 1.51749,3.099841 v 0.328896 H 154.2347 v -0.328896 c 0.72219,-0.397995 1.51319,-1.781218 1.51319,-3.099841 0,-0.263997 0,-42.169723 0,-42.169723 0,-1.318633 -0.79109,-2.632877 -1.51319,-3.030622 v -0.392995 h 12.45119 v 28.136238 c 0,0 7.7085,-12.585243 8.10624,-13.311563 0.85609,-1.383433 0.85609,-2.373461 -0.1989,-3.160351 v -0.397995 h 14.43127 v 0.397995 c -0.92509,0.725991 -2.901,3.886671 -4.87669,7.051352 -2.04065,3.16037 -6.52389,10.012875 -6.52389,10.012875 0,0 5.73271,9.225914 7.97217,12.714901 2.24379,3.558065 4.21959,6.39422 5.07563,7.250199 v 0.328596 H 175.18555 V 77.15564 c 0.92509,-0.921089 0.92509,-2.044915 0.199,-3.160341 l -8.69861,-15.352048 v 15.481837"
   id="path7" /><path
   d="m 211.81279,58.245216 c -4.74269,1.711999 -8.8282,2.632887 -9.61938,6.986463 -0.79109,3.553755 0.72219,6.852504 4.4141,6.718506 2.37352,0 5.20528,-1.975825 5.20528,-3.488986 V 58.245216 m 11.26662,15.879512 c 0,1.318623 0.72599,2.702136 1.38348,3.099841 v 0.328896 h -12.6501 v -1.846077 c -0.92109,0.592092 -3.88665,1.906566 -7.11621,2.632907 -5.27014,0.856189 -9.94794,-0.458194 -12.71923,-4.349266 -3.16031,-4.548143 -2.69771,-9.947995 -1.0506,-12.585192 4.34503,-6.917354 14.0984,-6.653607 18.91032,-9.286574 2.89659,-1.58232 2.43832,-4.612932 0.26409,-5.996415 -1.58233,-0.990088 -6.19536,-1.651519 -14.82905,2.632877 h -0.1941 l 0.4582,-7.708464 c 6.5239,-2.702086 15.8796,-3.821822 22.27379,-0.397995 3.03069,1.64718 5.27015,4.746971 5.27015,9.554541 0,0.332996 0,23.920951 0,23.920951 z"
   id="path9" /><path
   d="m 242.56463,77.224569 v 0.328896 h -14.29725 v -0.328896 c 0.78729,-0.397995 1.51318,-1.781218 1.51318,-3.099841 0,-0.263997 0,-30.967943 0,-30.967943 0,-1.318623 -0.72599,-2.632957 -1.51318,-2.965853 v -0.397995 h 12.77975 v 2.905324 c 8.23595,-7.453407 21.41786,-3.22953 21.41786,5.330663 v 26.091244 c 0,1.318633 0.72219,2.702116 1.44823,3.099861 v 0.328696 H 251.45774 V 51.721148 c 0,-2.37781 -1.31432,-5.079927 -5.27013,-5.079927 -2.50324,0 -5.14048,1.850377 -5.14048,5.079927 0,0.722191 0,22.39914 0,22.39914 0,1.322933 0.72599,2.706426 1.5175,3.104121"
   id="path11" /><path
   d="m 278.39211,57.717773 c 0,4.02067 0.259,12.918078 5.07124,13.838967 4.08555,0.851289 5.27014,-1.910976 5.27014,-4.613063 0,0 0,-15.15322 0,-15.94435 0,-2.174663 -2.17467,-5.801997 -5.99643,-4.414175 -2.17467,0.657192 -4.28011,4.215277 -4.34495,11.132621 m -4.74707,18.317911 c -4.41405,-3.099841 -6.9173,-9.554601 -6.9173,-17.332253 0,-15.749883 9.55456,-19.900271 13.31151,-19.900271 3.68783,0 6.51957,1.846066 8.69424,3.692133 V 31.890156 c 0,-1.322933 -0.79109,-2.637177 -1.51318,-3.030622 v -0.328296 h 12.5204 v 45.59383 c 0,1.318623 0.72229,2.702156 1.44824,3.099851 v 0.328796 h -12.45546 v -1.975886 c -3.09552,2.239522 -8.43053,5.071227 -15.08845,0.458195 z"
   id="path13" /><path
   d="m 318.23586,73.666513 c 0,1.711989 0.92109,2.970073 1.77692,3.558056 v 0.328896 h -14.75984 v -0.328896 c 0.85609,-0.592093 1.71637,-1.846067 1.71637,-3.558056 V 43.749078 c 0,-1.841767 -0.86009,-3.095552 -1.71637,-3.622995 v -0.328796 h 12.98292 c 0,0 0,33.276734 0,33.869036 m 0.264,-40.591782 c 0,1.781218 -0.398,2.836145 -1.18894,3.692184 -0.72219,0.725991 -2.76692,1.249354 -4.87237,1.249354 -2.30866,0 -4.21959,-0.523293 -4.94593,-1.249354 -0.7222,-0.79589 -1.24941,-1.910966 -1.24941,-3.692184 v -0.263997 c 0,-1.846046 0.52709,-2.896623 1.24941,-3.622914 0.72609,-0.79579 2.77125,-1.249475 4.94593,-1.249475 2.04061,0 4.08118,0.454195 4.80752,1.249475 0.85619,0.725991 1.25379,1.906556 1.25379,3.622914 v 0.263997 z"
   id="path15" /><path
   d="m 338.11452,77.224569 v 0.328896 H 323.8173 v -0.328896 c 0.79099,-0.397995 1.51747,-1.781218 1.51747,-3.099841 0,-0.263997 0,-30.967943 0,-30.967943 0,-1.318623 -0.72599,-2.632957 -1.51747,-2.965853 v -0.397995 h 12.7841 v 2.905324 c 8.23598,-7.453407 21.41344,-3.22953 21.41344,5.330663 v 26.091244 c 0,1.318633 0.72609,2.702116 1.44832,3.099861 v 0.328696 h -12.4512 V 51.721148 c 0,-2.37781 -1.31862,-5.079927 -5.27012,-5.079927 -2.50324,0 -5.14044,1.850377 -5.14044,5.079927 0,0.722191 0,22.39914 0,22.39914 0,1.322933 0.72599,2.706426 1.51312,3.104121"
   id="path17" /><path
   d="m 383.95908,58.245216 c -4.74261,1.711999 -8.82816,2.632887 -9.61931,6.986463 -0.79109,3.553755 0.72219,6.852504 4.41409,6.718506 2.37352,0 5.20522,-1.975825 5.20522,-3.488986 V 58.245216 m 11.26671,15.879512 c 0,1.318623 0.72599,2.702136 1.38347,3.099841 v 0.328896 h -12.65018 v -1.846077 c -0.92499,0.592092 -3.88659,1.906566 -7.11618,2.632907 -5.27014,0.856189 -9.94792,-0.458194 -12.71917,-4.349266 -3.16033,-4.548143 -2.69774,-9.947995 -1.05063,-12.585192 4.34502,-6.917354 14.0984,-6.653607 18.91031,-9.286574 2.89658,-1.58232 2.43826,-4.612932 0.264,-5.996415 -1.58232,-0.990088 -6.19533,-1.651519 -14.82904,2.632877 h -0.1941 l 0.45819,-7.708464 c 6.52386,-2.702086 15.87956,-3.821822 22.27378,-0.397995 3.0307,1.64718 5.27016,4.746971 5.27016,9.554541 0,0.332996 0,23.920951 0,23.920951 z"
   id="path19" /><path
   d="m 396.52707,39.797487 h 14.561 v 0.397995 c -0.98999,0.527093 -1.31863,2.243822 -1.05489,2.965863 l 6.12613,25.235254 c 0,0 6.26016,-23.389197 6.65789,-24.967207 0.4582,-1.517531 -0.13399,-2.771316 -0.99008,-3.22961 v -0.397995 h 13.83896 v 0.397995 c -0.26399,0.129998 -1.25372,2.901014 -1.91083,5.205365 -0.72609,2.37344 -9.75346,32.156878 -9.75346,32.156878 h -15.61588 c 0,0 -7.18105,-23.393528 -9.6194,-31.365718 -1.18456,-3.558105 -2.04489,-5.862467 -2.23949,-5.996525 v -0.401595"
   id="path21" /><path
   d="m 451.07456,73.666513 c 0,1.711989 0.92509,2.970073 1.78123,3.558056 v 0.328896 h -14.75991 v -0.328896 c 0.85609,-0.592093 1.71199,-1.846067 1.71199,-3.558056 V 43.749078 c 0,-1.841767 -0.85619,-3.095552 -1.71199,-3.622995 v -0.328796 h 12.97868 c 0,0 0,33.276734 0,33.869036 m 0.264,-40.591782 c 0,1.781218 -0.393,2.836145 -1.18463,3.692184 -0.72599,0.725991 -2.76695,1.249354 -4.87668,1.249354 -2.30435,0 -4.21528,-0.523293 -4.94162,-1.249354 -0.72599,-0.79579 -1.25377,-1.910916 -1.25377,-3.692134 v -0.263987 c 0,-1.846046 0.52709,-2.896623 1.25373,-3.622914 0.726,-0.79579 2.76701,-1.249475 4.94162,-1.249475 2.04489,0 4.08556,0.454195 4.81184,1.249475 0.85609,0.725991 1.24947,1.906556 1.24947,3.622914 v 0.263997 z"
   id="path23" /><path
   d="m 468.45431,39.140355 c 4.67784,-0.661191 9.94797,-0.133998 14.16756,1.513171 l 0.26399,7.513946 h -0.26399 c -1.31863,-0.989987 -5.4042,-2.507498 -7.97223,-2.637257 -3.42841,-0.263996 -5.14041,0.596893 -5.73272,2.771316 -0.5921,2.040614 0.98548,3.553775 2.568,4.548163 7.25019,4.150358 13.04785,4.80754 13.04785,13.964365 0,3.692044 -2.63724,11.733443 -14.0335,11.733443 -6.32939,0 -8.10625,-0.463094 -14.10279,-1.850377 0,0 -0.39299,-8.171077 -0.32849,-8.171077 -0.062,0 0.19899,0 0.19899,0 2.10553,1.119716 4.41417,2.040604 6.71846,2.702096 4.02073,1.054887 8.82829,1.383483 9.81832,-1.975765 1.31861,-4.349246 -5.2053,-6.39421 -9.16116,-8.962318 -4.08121,-2.632827 -7.70849,-5.797568 -7.18104,-10.937953 0.5921,-6.260162 5.33933,-9.226025 11.99292,-10.211753"
   id="path25" /><path
   d="m 500.85768,74.124728 c 0,1.318623 0.79109,2.702136 1.51741,3.099841 v 0.328896 h -13.9687 v -0.328896 c 0.72229,-0.397995 1.51322,-1.781218 1.51322,-3.099841 0,-0.263997 0,-42.169723 0,-42.169723 0,-1.318633 -0.79099,-2.632877 -1.51322,-3.030622 v -0.392995 h 12.45129 v 28.136238 c 0,0 7.70843,-12.585243 8.10621,-13.311563 0.85609,-1.383433 0.85609,-2.373461 -0.199,-3.160351 v -0.397995 h 14.43127 v 0.397995 c -0.92499,0.725991 -2.90101,3.886671 -4.87678,7.051352 -2.04496,3.16037 -6.52391,10.012875 -6.52391,10.012875 0,0 5.73272,9.225914 7.97223,12.714901 2.23953,3.558065 4.21962,6.39422 5.0756,7.250199 v 0.328596 H 509.35719 V 77.15564 c 0.92109,-0.920989 0.92109,-2.044865 0.199,-3.160291 l -8.69846,-15.352278 v 15.481867"
   id="path27" /><path
   d="m 545.98459,58.245216 c -4.74709,1.711999 -8.83258,2.632887 -9.61948,6.986463 -0.79099,3.553755 0.72219,6.852504 4.41419,6.718506 2.36918,0 5.20529,-1.975825 5.20529,-3.488986 V 58.245216 m 11.26653,15.879512 c 0,1.318623 0.72219,2.702136 1.38349,3.099841 v 0.328896 h -12.65002 v -1.846077 c -0.92509,0.592092 -3.89105,1.906566 -7.1162,2.632907 -5.27451,0.856189 -9.95231,-0.458194 -12.71925,-4.349266 -3.16039,-4.548143 -2.70209,-9.947995 -1.05487,-12.585192 4.34925,-6.917354 14.10271,-6.653607 18.91024,-9.286574 2.90095,-1.58232 2.43836,-4.612932 0.26399,-5.996415 -1.57803,-0.990088 -6.191,-1.651519 -14.8247,2.632877 h -0.1941 l 0.4582,-7.708464 c 6.52392,-2.702086 15.8796,-3.821822 22.2738,-0.397995 3.03065,1.64718 5.27014,4.746971 5.27014,9.554541 0,0.332996 0,23.920951 0,23.920951 z"
   id="path29" /><path
   d="m 575.81126,77.553165 v -0.462994 c 0.46279,-0.454095 1.84606,-1.513141 1.84606,-5.996425 V 33.074371 c 0,-1.910876 -0.5921,-3.225159 -1.84606,-4.150348 v -0.392995 h 32.68001 l 0.333,10.008475 h -0.398 c -2.04059,-1.513181 -4.4141,-2.43401 -6.52391,-2.43401 -5.27014,0 -12.25228,0 -12.25228,0 v 11.331399 c 0.26399,0 12.51602,0 12.51602,0 1.91091,0 3.55814,-0.527094 4.34926,-1.521781 h 0.39799 c 0,3.428367 0,7.583115 0,11.076401 h -0.39799 c -0.92099,-0.856189 -1.97572,-1.521841 -4.34922,-1.521841 h -12.516 v 13.441302 c 1.91091,0 12.18743,0 12.18743,0 1.91091,0 4.81188,-0.592093 6.26016,-1.314324 h 0.39299 l -0.3288,9.947946 h -32.35144"
   id="path31" /><path
   d="m 627.39714,77.224569 v 0.328896 h -14.29728 v -0.328896 c 0.79109,-0.397995 1.51327,-1.781218 1.51327,-3.099841 0,-0.263997 0,-30.967943 0,-30.967943 0,-1.318623 -0.72229,-2.632957 -1.51327,-2.965853 v -0.397995 h 12.78419 v 2.905324 c 8.23588,-7.453407 21.41346,-3.22953 21.41346,5.330663 v 26.091244 c 0,1.318633 0.72599,2.702116 1.44823,3.099861 v 0.328696 H 636.29458 V 51.721148 c 0,-2.37781 -1.31863,-5.079927 -5.27445,-5.079927 -2.50319,0 -5.13608,1.850377 -5.13608,5.079927 0,0.722191 0,22.39914 0,22.39914 0,1.322933 0.72229,2.706426 1.51309,3.104121"
   id="path33" /><path
   d="m 664.34431,39.140355 c 4.67795,-0.661191 9.94803,-0.133998 14.16758,1.513171 l 0.264,7.513946 h -0.264 c -1.31856,-0.989987 -5.40412,-2.507498 -7.97217,-2.637257 -3.42842,-0.263996 -5.14051,0.596893 -5.7328,2.771316 -0.5921,2.040614 0.98568,3.553775 2.56812,4.548163 7.2502,4.150358 13.04775,4.80754 13.04775,13.964365 0,3.692044 -2.63722,11.733443 -14.03778,11.733443 -6.32506,0 -8.10198,-0.463094 -14.09841,-1.850377 0,0 -0.39299,-8.171077 -0.32889,-8.171077 -0.062,0 0.19899,0 0.19899,0 2.10547,1.119716 4.41416,2.040604 6.71847,2.702096 4.02074,1.054887 8.82827,1.383483 9.81831,-1.975765 1.31862,-4.349246 -5.20532,-6.39421 -9.16117,-8.962318 -4.08121,-2.632827 -7.70849,-5.797568 -7.18105,-10.937953 0.59209,-6.260162 5.33927,-9.226025 11.99288,-10.211753"
   id="path35" /><path
   d="m 696.48398,74.124728 c 0,1.318623 0.79109,2.702136 1.51749,3.099841 v 0.328896 h -13.96866 v -0.328896 c 0.72229,-0.397995 1.51317,-1.781218 1.51317,-3.099841 0,-0.263997 0,-42.169723 0,-42.169723 0,-1.318633 -0.79099,-2.632877 -1.51317,-3.030622 v -0.392995 h 12.45117 v 28.136238 c 0,0 7.70849,-12.585243 8.10625,-13.311563 0.85619,-1.383433 0.85619,-2.373461 -0.199,-3.160351 v -0.397995 h 14.43123 v 0.397995 c -0.92509,0.725991 -2.90084,3.886671 -4.87666,7.051352 -2.04492,3.16037 -6.52387,10.012875 -6.52387,10.012875 0,0 5.73268,9.225914 7.97219,12.714901 2.23943,3.558065 4.21955,6.39422 5.07559,7.250199 v 0.328596 H 704.98352 V 77.15564 c 0.92509,-0.921089 0.92509,-2.044915 0.199,-3.160341 l -8.69859,-15.352258 v 15.481837"
   id="path37" /><path
   d="m 735.087,73.666513 c 0,1.711989 0.92109,2.970073 1.77687,3.558056 v 0.328896 h -14.75984 v -0.328896 c 0.85609,-0.592093 1.71206,-1.846067 1.71206,-3.558056 V 43.749078 c 0,-1.841767 -0.85609,-3.095552 -1.71206,-3.622995 V 39.797287 H 735.087 c 0,0 0,33.276734 0,33.869036 m 0.26399,-40.591782 c 0,1.781218 -0.39799,2.836145 -1.18891,3.692184 -0.72219,0.725991 -2.7669,1.249354 -4.8767,1.249354 -2.30435,0 -4.21522,-0.523293 -4.94156,-1.249354 -0.72219,-0.79589 -1.24939,-1.910916 -1.24939,-3.692134 v -0.263987 c 0,-1.846046 0.52709,-2.896623 1.24942,-3.622914 0.72609,-0.79579 2.76694,-1.249475 4.94157,-1.249475 2.04494,0 4.08556,0.454295 4.81184,1.249475 0.85619,0.725991 1.25376,1.906556 1.25376,3.622914 v 0.263997 z"
   id="path39" /><path
   d="m 753.5174,74.124728 c 0,1.318623 0.72599,2.702136 1.38346,3.099841 v 0.328896 h -13.90385 v -0.328896 c 0.72599,-0.397995 1.5175,-1.781218 1.5175,-3.099841 0,-0.263997 0,-42.169723 0,-42.169723 0,-1.318633 -0.79109,-2.632877 -1.5175,-3.030622 v -0.392995 h 12.52039 v 45.59382"
   id="path41" /><path
   d="m 769.84656,57.717773 c 0,4.02067 0.259,12.918078 5.07125,13.838967 4.08562,0.851289 5.27019,-1.910976 5.27019,-4.613063 0,0 0,-15.15322 0,-15.94435 0,-2.174663 -2.17465,-5.801997 -5.99648,-4.414175 -2.1746,0.657192 -4.28012,4.215277 -4.34496,11.132621 m -4.747,18.317911 c -4.41417,-3.099841 -6.91729,-9.554601 -6.91729,-17.332253 0,-15.749883 9.5545,-19.900271 13.3115,-19.900271 3.68777,0 6.51958,1.846066 8.69423,3.692133 V 31.890156 c 0,-1.322933 -0.79109,-2.637177 -1.51316,-3.030622 v -0.328296 h 12.51602 v 45.59383 c 0,1.318623 0.72609,2.702156 1.45263,3.099851 v 0.328796 H 780.188 v -1.975886 c -3.09554,2.239522 -8.43052,5.071227 -15.08844,0.458195 z"
   id="path43" /><path
   d="m 817.66263,58.245216 c -4.74707,1.711999 -8.83257,2.632887 -9.6194,6.986463 -0.79109,3.553755 0.7222,6.852504 4.41403,6.718506 2.36927,0 5.20537,-1.975825 5.20537,-3.488986 V 58.245216 m 11.26659,15.879512 c 0,1.318623 0.72199,2.702136 1.38346,3.099841 v 0.328896 h -12.65005 v -1.846077 c -0.92508,0.592092 -3.89104,1.906566 -7.1162,2.632907 -5.27452,0.856189 -9.95231,-0.458194 -12.71926,-4.349266 -3.16036,-4.548143 -2.70206,-9.947995 -1.05493,-12.585192 4.34933,-6.917354 14.10277,-6.653607 18.91032,-9.286574 2.90089,-1.58232 2.43829,-4.612932 0.264,-5.996415 -1.57802,-0.990088 -6.19103,-1.651519 -14.82469,2.632877 h -0.1943 l 0.4582,-7.708464 c 6.52386,-2.702086 15.87955,-3.821822 22.27379,-0.397995 3.03063,1.64718 5.27013,4.746971 5.27013,9.554541 0,0.332996 0,23.920951 0,23.920951 z"
   id="path45" /><path
   d="m 862.64246,55.806817 c -0.65749,0.133998 -1.31419,0.198997 -1.31419,0.198997 v 13.380663 c 5.33504,0.726091 8.30073,0.263997 10.73918,-1.975725 1.846,-1.910926 2.30432,-5.075617 1.05481,-7.842502 -1.98007,-4.284467 -8.69861,-3.826172 -10.4798,-3.761333 m 3.42838,-19.104791 c -1.5823,0 -3.35912,-0.133999 -4.74257,0.067 v 11.132801 c 3.4889,0.458194 7.97224,0.267996 9.88297,-1.906616 1.71216,-1.910887 1.91102,-4.284387 1.05497,-6.260162 -1.3878,-2.312971 -3.75696,-2.905264 -6.19537,-3.034982 z m 4.67794,-8.171098 c 5.79753,0 13.64014,2.896624 14.36207,11.98859 0.46279,5.075547 -2.69771,10.012795 -7.24587,11.132551 1.84605,0.856189 8.82829,4.349325 8.82829,12.256666 0,8.106279 -4.87674,13.64011 -12.51601,13.64011 -3.69225,0 -26.68797,0 -26.68797,0 v -0.462894 c 0.59029,-0.592093 1.84603,-1.712079 1.84603,-6.584468 V 33.074461 c -0.1988,-1.647149 -0.59179,-3.225179 -1.84603,-4.085529 v -0.454194 c 0,-0.0043 17.72568,-0.0043 23.25949,-0.0043 z"
   id="path47" /><path
   d="m 911.84636,58.245216 c -4.74269,1.711999 -8.82824,2.632887 -9.61943,6.986463 -0.79099,3.553755 0.72599,6.852504 4.41407,6.718506 2.37364,0 5.20536,-1.975825 5.20536,-3.488986 V 58.245216 m 11.2666,15.879512 c 0,1.318623 0.72619,2.702136 1.38351,3.099841 v 0.328896 h -12.65011 v -1.846077 c -0.92109,0.592092 -3.88671,1.906566 -7.11617,2.632907 -5.27026,0.856189 -9.94812,-0.458194 -12.71496,-4.349266 -3.16473,-4.548143 -2.70201,-9.947995 -1.05483,-12.585192 4.3492,-6.917354 14.09829,-6.653607 18.91023,-9.286574 2.8966,-1.58232 2.43836,-4.612932 0.2639,-5.996415 -1.58231,-0.990088 -6.19527,-1.651519 -14.82477,2.632877 h -0.19879 l 0.46279,-7.708464 c 6.52387,-2.702086 15.87966,-3.821822 22.2695,-0.397995 3.0306,1.64718 5.27014,4.746971 5.27014,9.554541 0,0.332996 0,23.920951 0,23.920951 z"
   id="path49" /><path
   d="m 942.59834,77.224569 v 0.328896 h -14.2974 v -0.328896 c 0.79039,-0.397995 1.51315,-1.781218 1.51315,-3.099841 0,-0.263997 0,-30.967943 0,-30.967943 0,-1.318623 -0.72199,-2.632957 -1.51315,-2.965853 v -0.397995 h 12.78413 v 2.905324 c 8.23607,-7.453407 21.41318,-3.22953 21.41318,5.330663 v 26.091244 c 0,1.318633 0.72199,2.702116 1.44832,3.099861 v 0.328696 H 951.49568 V 51.721148 c 0,-2.37781 -1.31889,-5.079927 -5.27449,-5.079927 -2.5033,0 -5.13612,1.850377 -5.13612,5.079927 0,0.722191 0,22.39914 0,22.39914 0,1.322933 0.72199,2.706426 1.51327,3.104121"
   id="path51" /><path
   d="m 980.00796,74.124728 c 0,1.318623 0.78459,2.702136 1.51334,3.099841 v 0.328896 h -13.96884 v -0.328896 c 0.72659,-0.397995 1.51742,-1.781218 1.51742,-3.099841 0,-0.263997 0,-42.169723 0,-42.169723 0,-1.318633 -0.78959,-2.632877 -1.51742,-3.030622 v -0.392995 h 12.4555 v 28.136238 c 0,0 7.70831,-12.585243 8.10214,-13.311563 0.85499,-1.383433 0.85499,-2.373461 -0.1956,-3.160351 v -0.397995 h 14.4271 v 0.397995 c -0.922,0.725991 -2.89669,3.886671 -4.87676,7.051352 -2.04041,3.16037 -6.51919,10.012875 -6.51919,10.012875 0,0 5.72809,9.225914 7.97212,12.714901 2.23933,3.558065 4.21493,6.39422 5.07103,7.250199 v 0.328596 H 988.507 V 77.15564 c 0.92249,-0.921089 0.92249,-2.044915 0.19559,-3.160341 L 980.0083,58.643211 v 15.481867"
   id="path53" /><path
   d="m 1018.7405,46.386255 c -3.8866,0 -5.9316,5.53388 -5.7977,8.434834 h 11.5305 c 0.07,-3.493216 -1.5173,-8.434834 -5.7328,-8.434834 m 13.5709,-1.184536 c 3.8912,5.862457 4.021,11.530286 3.5584,16.536724 h -23.1902 c 0,5.672209 3.6226,9.753448 9.6193,9.818297 5.7978,0 11.2664,-3.030692 11.8586,-3.428437 h 0.138 l -0.464,7.838222 c -2.373,0.989987 -14.6946,5.140385 -23.5879,0.067 -3.2293,-1.846037 -9.0915,-6.329381 -9.0915,-18.979423 0,-7.116201 4.4141,-14.759835 11.0678,-17.059846 9.0272,-3.164671 16.5362,0.062 20.0947,5.205304 z"
   id="path55" /><path
   d="m 1053.6515,77.224569 v 0.328896 h -14.2971 v -0.328896 c 0.789,-0.397995 1.5173,-1.781218 1.5173,-3.099841 0,-0.263997 0,-30.967943 0,-30.967943 0,-1.318623 -0.727,-2.632957 -1.5173,-2.965853 v -0.397995 h 12.7838 v 2.905324 c 8.236,-7.453407 21.4136,-3.22953 21.4136,5.330663 v 26.091244 c 0,1.318633 0.727,2.702116 1.4482,3.099861 v 0.328696 h -12.4509 V 51.721148 c 0,-2.37781 -1.3188,-5.079927 -5.2704,-5.079927 -2.5072,0 -5.1405,1.850377 -5.1405,5.079927 0,0.722191 0,22.39914 0,22.39914 0,1.322933 0.727,2.706426 1.5133,3.104121"
   id="path57" />
</svg>