<?xml version="1.0" encoding="UTF-8" standalone="no"?>
<!-- Created with Inkscape (http://www.inkscape.org/) -->

<svg
   xmlns:dc="http://purl.org/dc/elements/1.1/"
   xmlns:cc="http://creativecommons.org/ns#"
   xmlns:rdf="http://www.w3.org/1999/02/22-rdf-syntax-ns#"
   xmlns:svg="http://www.w3.org/2000/svg"
   xmlns="http://www.w3.org/2000/svg"
   xmlns:sodipodi="http://sodipodi.sourceforge.net/DTD/sodipodi-0.dtd"
   xmlns:inkscape="http://www.inkscape.org/namespaces/inkscape"
   width="488.0799"
   height="61.341888"
   id="svg2"
   version="1.1"
   inkscape:version="0.48.2 r9819"
   sodipodi:docname="New document 1">
  <defs
     id="defs4">
    <linearGradient
       id="linearGradient3101"
       spreadMethod="pad"
       gradientTransform="matrix(648.638,0,0,648.638,-36.6378,427.5)"
       gradientUnits="userSpaceOnUse"
       y2="0"
       x2="1"
       y1="0"
       x1="0">
      <stop
         id="stop3103"
         offset="0"
         style="stop-opacity:1;stop-color:#e2001a" />
      <stop
         id="stop3105"
         offset="0.42308"
         style="stop-opacity:1;stop-color:#0062a7" />
      <stop
         id="stop3107"
         offset="0.42308"
         style="stop-opacity:1;stop-color:#0062a7" />
      <stop
         id="stop3109"
         offset="0.906601"
         style="stop-opacity:1;stop-color:#000000" />
      <stop
         id="stop3111"
         offset="1"
         style="stop-opacity:1;stop-color:#000000" />
    </linearGradient>
    <clipPath
       id="clipPath3097"
       clipPathUnits="userSpaceOnUse">
      <path
         id="path3099"
         d="m 0,0 595.276,0 0,841.89 L 0,841.89 0,0 z"
         inkscape:connector-curvature="0" />
    </clipPath>
    <clipPath
       id="clipPath3011"
       clipPathUnits="userSpaceOnUse">
      <path
         id="path3013"
         d="m 297,481.022 266.531,0 0,54.868 -266.531,0 0,-54.868 z"
         inkscape:connector-curvature="0" />
    </clipPath>
    <clipPath
       id="clipPath3001"
       clipPathUnits="userSpaceOnUse">
      <path
         id="path3003"
         d="m 0,0 595.276,0 0,841.89 L 0,841.89 0,0 z"
         inkscape:connector-curvature="0" />
    </clipPath>
  </defs>
  <sodipodi:namedview
     id="base"
     pagecolor="#ffffff"
     bordercolor="#666666"
     borderopacity="1.0"
     inkscape:pageopacity="0.0"
     inkscape:pageshadow="2"
     inkscape:zoom="1.01"
     inkscape:cx="345.52643"
     inkscape:cy="57.949002"
     inkscape:document-units="px"
     inkscape:current-layer="g2993"
     showgrid="false"
     fit-margin-top="0"
     fit-margin-left="0"
     fit-margin-right="0"
     fit-margin-bottom="0"
     inkscape:window-width="1440"
     inkscape:window-height="853"
     inkscape:window-x="-4"
     inkscape:window-y="-4"
     inkscape:window-maximized="1" />
  <metadata
     id="metadata7">
    <rdf:RDF>
      <cc:Work
         rdf:about="">
        <dc:format>image/svg+xml</dc:format>
        <dc:type
           rdf:resource="http://purl.org/dc/dcmitype/StillImage" />
        <dc:title></dc:title>
      </cc:Work>
    </rdf:RDF>
  </metadata>
  <g
     inkscape:label="Layer 1"
     inkscape:groupmode="layer"
     id="layer1"
     transform="translate(-29.473566,-525.80819)">
    <g
       transform="matrix(1.25,0,0,-1.25,-0.61897143,1055.6863)"
       inkscape:label="7 West Media 2011"
       id="g2993">
      <g
         id="g3007"
         transform="matrix(1.5646418,0,0,1.5646418,-452.87006,-393.24222)">
        <g
           clip-path="url(#clipPath3011)"
           id="g3009">
          <g
             transform="translate(320.5364,522.2567)"
             id="g3015">
            <path
               id="path3017"
               style="fill:#e2001a;fill-opacity:1;fill-rule:nonzero;stroke:none"
               d="m 0,0 c -8.66,0.016 -15.694,-6.992 -15.71,-15.654 -0.015,-8.662 6.994,-15.694 15.654,-15.71 8.66,-0.016 15.694,6.991 15.71,15.654 C 15.669,-7.049 8.661,-0.016 0,0"
               inkscape:connector-curvature="0" />
          </g>
          <g
             transform="translate(349.2043,522.2567)"
             id="g3019">
            <path
               id="path3021"
               style="fill:#0062a7;fill-opacity:1;fill-rule:nonzero;stroke:none"
               d="m 0,0 c -8.66,0.016 -15.694,-6.993 -15.71,-15.654 -0.015,-8.664 6.994,-15.694 15.654,-15.71 8.661,-0.016 15.695,6.99 15.71,15.654 C 15.67,-7.049 8.661,-0.015 0,0"
               inkscape:connector-curvature="0" />
          </g>
          <g
             transform="translate(349.4557,502.9166)"
             id="g3023">
            <path
               id="path3025"
               style="fill:#ffffff;fill-opacity:1;fill-rule:nonzero;stroke:none"
               d="M 0,0 C -1.52,2.05 -1.348,5.134 1.844,7.926 L 1.827,-1.394 4.606,1.076 4.619,8.021 5.244,8.638 6.409,7.471 6.413,-0.945 C 4.383,-2.249 1.482,-1.99 0,0 M 11.61,-0.492 10.754,-1.342 9.293,0.118 9.329,8.37 10.406,9.442 10.194,9.629 9.321,8.772 7.114,10.985 4.619,8.461 l 0,2.456 C 4.259,10.556 3.504,9.996 2.728,10.071 1.567,10.185 0.576,10.717 -0.699,10.72 -2.189,10.722 -3.236,9.912 -3.238,8.705 -3.24,7.612 -2.679,7.104 -1.441,7.102 -2.4,7.439 -2.663,7.553 -2.662,8.065 c 10e-4,0.472 0.489,0.673 1.138,0.671 1.019,-0.001 1.723,-0.5 3.352,-0.5 -4.748,-3.835 -6.182,-6.896 -4.23,-9.5 -1.969,-0.888 -4.437,-0.51 -5.77,1.278 -1.522,2.05 -1.347,5.135 1.843,7.926 l -0.017,-9.32 2.776,2.471 0.015,9.84 c -0.358,-0.36 -1.112,-0.921 -1.893,-0.845 -1.161,0.114 -2.145,0.646 -3.426,0.649 -1.489,0.001 -2.538,-0.808 -2.54,-2.015 -0.002,-1.093 0.559,-1.601 1.799,-1.603 -0.958,0.337 -1.22,0.451 -1.219,0.962 10e-4,0.473 0.489,0.673 1.137,0.672 1.02,-0.002 1.724,-0.501 3.353,-0.501 -4.747,-3.835 -6.194,-6.885 -4.239,-9.486 l 0.351,-0.447 c 1.943,-2.299 6.105,-2.595 8.18,-0.015 2.044,-2.427 6.549,-2.623 8.493,0.412 l 2.38,-2.383 3,2.99 -0.211,0.187 z"
               inkscape:connector-curvature="0" />
          </g>
          <g
             transform="translate(322.3615,499.2478)"
             id="g3027">
            <path
               id="path3029"
               style="fill:#ffffff;fill-opacity:1;fill-rule:nonzero;stroke:none"
               d="M 0,0 5.42,9.459 2.298,14.654 -6.28,0 0,0 z"
               inkscape:connector-curvature="0" />
          </g>
          <g
             transform="translate(313.7585,513.9016)"
             id="g3031">
            <path
               id="path3033"
               style="fill:#ffffff;fill-opacity:1;fill-rule:nonzero;stroke:none"
               d="m 0,0 3.059,-5.195 4.39,0 L 10.482,0 0,0 z"
               inkscape:connector-curvature="0" />
          </g>
          <g
             transform="translate(378.333,507.3975)"
             id="g3035"
             style="fill:#000000">
            <path
               id="path3037"
               style="fill:#000000;fill-opacity:1;fill-rule:nonzero;stroke:none"
               d="m 0,0 -1.132,0.543 c -1.813,0.852 -2.416,1.341 -2.416,2.552 0,1.189 0.9,1.988 2.24,1.988 1.262,0 2.127,-0.473 2.724,-1.488 L 1.504,3.446 2.836,4.296 2.75,4.436 c -0.916,1.483 -2.211,2.173 -4.078,2.173 -2.293,0 -3.894,-1.463 -3.894,-3.557 0,-2.049 1.248,-3.035 3.404,-4.045 l 1.152,-0.544 c 1.75,-0.812 2.582,-1.455 2.582,-2.906 0,-1.408 -1.123,-2.283 -2.93,-2.283 -1.573,0 -2.845,0.764 -3.58,2.151 l -0.078,0.146 -1.447,-0.761 0.079,-0.148 c 1.011,-1.908 2.803,-2.958 5.046,-2.958 2.841,0 4.606,1.492 4.606,3.895 C 3.612,-2.136 2.287,-1.072 0,0"
               inkscape:connector-curvature="0" />
          </g>
          <g
             transform="translate(386.0924,505.8446)"
             id="g3039"
             style="fill:#000000">
            <path
               id="path3041"
               style="fill:#000000;fill-opacity:1;fill-rule:nonzero;stroke:none"
               d="m 0,0 6.449,0 0,1.527 -6.449,0 0,4.92 7.223,0 0,1.548 -8.918,0 0,-14.569 9.212,0 0,1.545 L 0,-5.029 0,0 z"
               inkscape:connector-curvature="0" />
          </g>
          <g
             transform="translate(401.2812,502.6664)"
             id="g3043"
             style="fill:#000000">
            <path
               id="path3045"
               style="fill:#000000;fill-opacity:1;fill-rule:nonzero;stroke:none"
               d="m 0,0 -4.494,11.173 -1.828,0 6.147,-14.864 0.307,0 6.146,14.864 -1.764,0 L 0,0 z"
               inkscape:connector-curvature="0" />
          </g>
          <g
             transform="translate(411.0248,505.8446)"
             id="g3047"
             style="fill:#000000">
            <path
               id="path3049"
               style="fill:#000000;fill-opacity:1;fill-rule:nonzero;stroke:none"
               d="m 0,0 6.449,0 0,1.527 -6.449,0 0,4.92 7.224,0 0,1.548 -8.919,0 0,-14.569 9.21,0 0,1.545 L 0,-5.029 0,0 z"
               inkscape:connector-curvature="0" />
          </g>
          <g
             transform="translate(430.3719,502.9309)"
             id="g3051"
             style="fill:#000000">
            <path
               id="path3053"
               style="fill:#000000;fill-opacity:1;fill-rule:nonzero;stroke:none"
               d="m 0,0 -9.345,11.203 -0.369,0 0,-14.863 1.61,0 0,10.906 9.345,-11.201 0.37,0 0,14.864 L 0,10.909 0,0 z"
               inkscape:connector-curvature="0" />
          </g>
          <g
             transform="translate(452.2131,503.1087)"
             id="g3055"
             style="fill:#000000">
            <path
               id="path3057"
               style="fill:#000000;fill-opacity:1;fill-rule:nonzero;stroke:none"
               d="m 0,0 -4.186,11.065 -0.333,0 L -8.683,0 l -3.368,10.731 -1.775,0 4.841,-14.843 0.319,0 4.323,11.276 4.243,-11.276 0.339,0 4.798,14.843 -1.691,0 L 0,0 z"
               inkscape:connector-curvature="0" />
          </g>
          <g
             transform="translate(460.7997,505.8446)"
             id="g3059"
             style="fill:#000000">
            <path
               id="path3061"
               style="fill:#000000;fill-opacity:1;fill-rule:nonzero;stroke:none"
               d="m 0,0 6.45,0 0,1.527 -6.45,0 0,4.92 7.223,0 0,1.548 -8.917,0 0,-14.569 9.21,0 0,1.545 L 0,-5.029 0,0 z"
               inkscape:connector-curvature="0" />
          </g>
          <g
             transform="translate(475.4551,507.3975)"
             id="g3063"
             style="fill:#000000">
            <path
               id="path3065"
               style="fill:#000000;fill-opacity:1;fill-rule:nonzero;stroke:none"
               d="m 0,0 -1.132,0.543 c -1.813,0.853 -2.416,1.341 -2.416,2.552 0,1.189 0.9,1.988 2.24,1.988 1.263,0 2.129,-0.473 2.725,-1.488 L 1.505,3.446 2.834,4.296 2.748,4.435 C 1.835,5.918 0.54,6.609 -1.327,6.609 c -2.292,0 -3.893,-1.463 -3.893,-3.557 0,-2.049 1.247,-3.035 3.402,-4.045 l 1.152,-0.544 c 1.751,-0.813 2.584,-1.455 2.584,-2.906 0,-1.408 -1.123,-2.283 -2.931,-2.283 -1.572,0 -2.844,0.764 -3.581,2.151 l -0.078,0.146 -1.446,-0.761 0.079,-0.148 c 1.011,-1.908 2.804,-2.958 5.048,-2.958 2.797,0 4.605,1.529 4.605,3.895 C 3.614,-2.136 2.288,-1.072 0,0"
               inkscape:connector-curvature="0" />
          </g>
          <g
             transform="translate(479.9497,512.292)"
             id="g3067"
             style="fill:#000000">
            <path
               id="path3069"
               style="fill:#000000;fill-opacity:1;fill-rule:nonzero;stroke:none"
               d="m 0,0 4.419,0 0,-13.021 1.694,0 0,13.021 4.397,0 0,1.548 L 0,1.548 0,0 z"
               inkscape:connector-curvature="0" />
          </g>
          <g
             transform="translate(502.561,505.9403)"
             id="g3071"
             style="fill:#000000">
            <path
               id="path3073"
               style="fill:#000000;fill-opacity:1;fill-rule:nonzero;stroke:none"
               d="m 0,0 -6.572,8.131 -0.049,0.062 -0.331,0 0,-14.863 1.632,0 0,10.865 5.103,-6.489 0.05,-0.063 0.248,0 5.214,6.556 0,-10.869 1.633,0 0,14.863 -0.351,0 L 0,0 z"
               inkscape:connector-curvature="0" />
          </g>
          <g
             transform="translate(514.2491,505.8446)"
             id="g3075"
             style="fill:#000000">
            <path
               id="path3077"
               style="fill:#000000;fill-opacity:1;fill-rule:nonzero;stroke:none"
               d="m 0,0 6.448,0 0,1.527 -6.448,0 0,4.92 7.223,0 0,1.548 -8.918,0 0,-14.569 9.211,0 0,1.545 L 0,-5.029 0,0 z"
               inkscape:connector-curvature="0" />
          </g>
          <g
             transform="translate(525.9102,512.272)"
             id="g3079"
             style="fill:#000000">
            <path
               id="path3081"
               style="fill:#000000;fill-opacity:1;fill-rule:nonzero;stroke:none"
               d="m 0,0 1.905,0 c 3.846,0 6.052,-2.084 6.052,-5.717 0,-3.634 -2.206,-5.718 -6.052,-5.718 L 0,-11.435 0,0 z m 2.031,1.568 -3.726,0 0,-14.569 3.726,0 c 4.668,0 7.685,2.859 7.685,7.284 0,4.426 -3.017,7.285 -7.685,7.285"
               inkscape:connector-curvature="0" />
          </g>
          <path
             id="path3083"
             style="fill:#000000;fill-opacity:1;fill-rule:nonzero;stroke:none"
             d="m 538.228,499.271 1.714,0 0,14.569 -1.714,0 0,-14.569 z"
             inkscape:connector-curvature="0" />
          <g
             transform="translate(550.5132,504.3348)"
             id="g3085"
             style="fill:#000000">
            <path
               id="path3087"
               style="fill:#000000;fill-opacity:1;fill-rule:nonzero;stroke:none"
               d="M 0,0 -4.949,0 -2.473,6.15 0,0 z m -2.235,9.736 -0.042,0.103 -0.329,0 -6.126,-14.903 1.742,0 1.406,3.517 6.221,0 1.425,-3.517 1.806,0 -6.103,14.8 z"
               inkscape:connector-curvature="0" />
          </g>
        </g>
      </g>
    </g>
  </g>
</svg>
