<?xml version="1.0" encoding="UTF-8" standalone="no"?>
<svg
   xmlns:dc="http://purl.org/dc/elements/1.1/"
   xmlns:cc="http://creativecommons.org/ns#"
   xmlns:rdf="http://www.w3.org/1999/02/22-rdf-syntax-ns#"
   xmlns:svg="http://www.w3.org/2000/svg"
   xmlns="http://www.w3.org/2000/svg"
   xmlns:sodipodi="http://sodipodi.sourceforge.net/DTD/sodipodi-0.dtd"
   xmlns:inkscape="http://www.inkscape.org/namespaces/inkscape"
   version="1.1"
   id="Layer_1"
   x="0px"
   y="0px"
   width="412"
   height="502"
   viewBox="0 0 412 502"
   enable-background="new 0 0 842 1191"
   xml:space="preserve">
<path
   id="path397"
   d="m 185.0637,334.75316 -75.98877,0 -7.67665,-61.39641 -62.581962,-45.526 c -1.837183,-7.13012 -2.766285,-14.46625 -2.766285,-21.82759 0,-12.30115 2.593918,-24.46355 7.605183,-35.69266 L 154.4664,282.35769 46.736808,149.36577 C 50.974522,132.11642 60.358032,116.56552 73.64293,104.77728 L 170.20648,271.4523 84.645012,88.978341 C 95.714359,74.247239 111.15175,63.388096 128.75424,57.943811 L 187.80056,264.82667 144.65828,49.409525 c 13.12514,-7.399184 27.94032,-11.296367 43.00775,-11.296367 3.1867,0 6.37339,0.176571 9.54327,0.52551 l 8.79073,224.010282 8.79074,-224.010282 c 3.17408,-0.348939 6.36077,-0.52551 9.54747,-0.52551 15.06742,0 29.8742,3.897183 43.00355,11.296367 L 224.1995,264.82667 283.24583,57.943811 c 17.60669,5.444285 33.03987,16.303428 44.11342,31.03453 L 241.79358,271.4523 338.35713,104.77728 c 13.2849,11.79245 22.66841,27.34335 26.90192,44.58849 L 257.52946,282.35769 368.34064,170.3105 c 5.01547,11.22911 7.60519,23.39151 7.60519,35.69266 0,7.36134 -0.92911,14.69747 -2.76209,21.82759 l -62.58616,45.526 -7.67245,61.39641 -75.98877,0 -11.24172,8.17693 c -2.81673,2.04739 -6.21363,3.15307 -9.69881,3.15307 -3.48098,0 -6.87788,-1.10568 -9.69462,-3.15307 m -14.50828,27.87307 -104.542898,0 L 67.563828,293.32193 4.1620736,247.20316 C 1.3957879,233.64499 3.2816e-5,219.84299 3.2816e-5,206.00316 3.2816e-5,92.291157 92.288032,0.00315792 206.00003,0.00315792 c 113.712,0 206,92.28799908 206,206.00000208 0,13.83983 -1.39576,27.64183 -4.16204,41.2 l -63.39755,46.11877 -9.69041,77.48123 -104.53869,0 -6.03286,4.38906 c -5.28453,3.84253 -11.64531,5.91093 -18.17845,5.91093 -6.53314,0 -12.88971,-2.0684 -18.17004,-5.91093 l -6.03706,-4.38906 z"
   clip-path="url(#SVGID_32_)"
   style="fill:#ed1c24" /><path
   id="path399"
   d="m 185.0637,334.75316 -75.98877,0 -7.67665,-61.39641 -62.581962,-45.526 c -1.837183,-7.13012 -2.766285,-14.46625 -2.766285,-21.82759 0,-12.30115 2.593918,-24.46355 7.605183,-35.69266 L 154.4664,282.35769 46.736808,149.36577 C 50.974522,132.11642 60.358032,116.56552 73.64293,104.77728 L 170.20648,271.4523 84.645012,88.978341 C 95.714359,74.247239 111.15175,63.388096 128.75424,57.943811 L 187.80056,264.82667 144.65828,49.409525 c 13.12514,-7.399184 27.94032,-11.296367 43.00775,-11.296367 3.1867,0 6.37339,0.176571 9.54327,0.52551 l 8.79073,224.010282 8.79074,-224.010282 c 3.17408,-0.348939 6.36077,-0.52551 9.54747,-0.52551 15.06742,0 29.8742,3.897183 43.00355,11.296367 L 224.1995,264.82667 283.24583,57.943811 c 17.60669,5.444285 33.03987,16.303428 44.11342,31.03453 L 241.79358,271.4523 338.35713,104.77728 c 13.2849,11.79245 22.66841,27.34335 26.90192,44.58849 L 257.52946,282.35769 368.34064,170.3105 c 5.01547,11.22911 7.60519,23.39151 7.60519,35.69266 0,7.36134 -0.92911,14.69747 -2.76209,21.82759 l -62.58616,45.526 -7.67245,61.39641 -75.98877,0 -11.24172,8.17693 c -2.81673,2.04739 -6.21363,3.15307 -9.69881,3.15307 -3.48098,0 -6.87788,-1.10568 -9.69462,-3.15307"
   clip-path="url(#SVGID_32_)"
   style="fill:#ffd400" /><path
   id="path401"
   d="m 185.0637,334.75316 -75.98877,0 -7.67665,-61.39641 -62.581962,-45.526 c -1.837183,-7.13012 -2.766285,-14.46625 -2.766285,-21.82759 0,-12.30115 2.593918,-24.46355 7.605183,-35.69266 L 154.4664,282.35769 46.736808,149.36577 C 50.974522,132.11642 60.358032,116.56552 73.64293,104.77728 L 170.20648,271.4523 84.645012,88.978341 C 95.714359,74.247239 111.15175,63.388096 128.75424,57.943811 L 187.80056,264.82667 144.65828,49.409525 c 13.12514,-7.399184 27.94032,-11.296367 43.00775,-11.296367 3.1867,0 6.37339,0.176571 9.54327,0.52551 l 8.79073,224.010282 8.79074,-224.010282 c 3.17408,-0.348939 6.36077,-0.52551 9.54747,-0.52551 15.06742,0 29.8742,3.897183 43.00355,11.296367 L 224.1995,264.82667 283.24583,57.943811 c 17.60669,5.444285 33.03987,16.303428 44.11342,31.03453 L 241.79358,271.4523 338.35713,104.77728 c 13.2849,11.79245 22.66841,27.34335 26.90192,44.58849 L 257.52946,282.35769 368.34064,170.3105 c 5.01547,11.22911 7.60519,23.39151 7.60519,35.69266 0,7.36134 -0.92911,14.69747 -2.76209,21.82759 l -62.58616,45.526 -7.67245,61.39641 -75.98877,0 -11.24172,8.17693 c -2.81673,2.04739 -6.21363,3.15307 -9.69881,3.15307 -3.48098,0 -6.87788,-1.10568 -9.69462,-3.15307 l -11.23751,-8.17693 z"
   stroke-miterlimit="10"
   clip-path="url(#SVGID_32_)"
   style="fill:none;stroke:#ed1c24;stroke-width:0;stroke-miterlimit:10" /><rect
   id="rect403"
   height="28.184162"
   width="87.373428"
   clip-path="url(#SVGID_32_)"
   y="383.81165"
   x="-499.38083"
   style="fill:#ed1c24"
   transform="matrix(0,-1,1,0,0,0)" /><rect
   id="rect405"
   height="28.179958"
   width="87.373428"
   clip-path="url(#SVGID_32_)"
   y="330.61731"
   x="-499.38083"
   style="fill:#ed1c24"
   transform="matrix(0,-1,1,0,0,0)" /><path
   id="path407"
   d="m 286.60489,458.1934 -38.34123,0 c 0.0463,-0.28167 0.0883,-0.56755 0.13453,-0.85343 0.021,-0.14294 0.0505,-0.28167 0.0799,-0.42461 0.13874,-0.70208 0.32792,-1.38735 0.57176,-2.06 0.24383,-0.67265 0.53812,-1.32429 0.87865,-1.9507 0.43302,-0.79036 0.94171,-1.54289 1.51347,-2.24077 0.6138,-0.74833 1.29906,-1.442 2.03477,-2.07261 0.97956,-0.84082 2.04739,-1.57233 3.18249,-2.19033 1.11829,-0.60118 2.28702,-1.08465 3.4978,-1.4378 1.21918,-0.35314 2.45939,-0.61379 3.72061,-0.77355 1.10147,-0.13873 2.21135,-0.2102 3.32543,-0.2102 0.21441,0 0.42461,0.004 0.63061,0.008 1.40417,0.0336 2.79992,0.17657 4.17886,0.42881 1.32429,0.23964 2.62755,0.58858 3.89718,1.04262 1.08466,0.38677 2.12307,0.87024 3.11102,1.45461 0.96694,0.57175 1.87502,1.236 2.71584,1.98012 0.63061,0.56755 1.22339,1.18555 1.75731,1.8498 0.5129,0.63481 0.97114,1.31587 1.37053,2.02636 0.37837,0.67686 0.69788,1.38315 0.96273,2.11045 0.26486,0.7231 0.46666,1.46723 0.60539,2.22396 0.021,0.12192 0.0462,0.24384 0.0673,0.36576 0.0336,0.23963 0.0715,0.48347 0.1051,0.7231 m 26.76739,13.00322 -65.49119,0 c -0.004,0.26486 -0.004,0.52551 -0.004,0.79037 0,0.13033 0,0.26486 0.004,0.39518 0.021,0.95854 0.12192,1.91286 0.29849,2.85458 0.16817,0.88285 0.412,1.74889 0.73151,2.58551 0.43723,1.1351 0.99637,2.21555 1.67743,3.22032 0.62641,0.93331 1.37474,1.78253 2.21555,2.52666 1.01739,0.90387 2.13568,1.68583 3.32543,2.33326 1.26122,0.68106 2.5771,1.22339 3.94763,1.62278 1.22759,0.35314 2.48041,0.6222 3.74584,0.80298 1.30326,0.18077 2.61494,0.27747 3.93502,0.28167 0.0378,0 0.0757,0 0.10931,0 1.16453,0 2.33326,-0.0715 3.48518,-0.21441 1.14771,-0.14714 2.28702,-0.36575 3.41371,-0.66004 1.11409,-0.29429 2.19033,-0.70629 3.22033,-1.22339 0.9291,-0.46245 1.79094,-1.0342 2.58551,-1.69845 0.58016,-0.49187 1.10147,-1.04681 1.55131,-1.66061 0.45824,-0.63481 0.85343,-1.32008 1.15612,-2.04739 0.0673,-0.15134 0.12612,-0.30689 0.18918,-0.46244 0.0799,-0.2018 0.15555,-0.4036 0.23123,-0.60539 l 27.82261,0 c -0.15135,0.40359 -0.30269,0.80298 -0.46245,1.20236 -0.0757,0.1976 -0.15975,0.39519 -0.24384,0.59278 -0.47506,1.08465 -1.04681,2.12306 -1.71106,3.09841 -0.79036,1.16032 -1.66481,2.25759 -2.62334,3.27918 -1.32009,1.40837 -2.74947,2.71163 -4.27976,3.90139 -1.55131,1.21078 -3.20351,2.29963 -4.92718,3.25816 -2.20715,1.2318 -4.51939,2.27441 -6.91151,3.11523 -2.62755,0.9249 -5.32237,1.64379 -8.05923,2.15669 -2.51824,0.47086 -5.06171,0.81559 -7.61779,1.03841 -2.44678,0.21441 -4.90617,0.31951 -7.36555,0.31951 -0.21441,0 -0.42462,0 -0.63482,-0.004 -2.77469,-0.021 -5.54518,-0.18078 -8.30727,-0.48347 -2.61914,-0.28588 -5.22147,-0.71049 -7.79436,-1.27384 -3.40531,-0.74412 -6.72233,-1.8498 -9.888,-3.296 -3.06478,-1.40416 -5.9698,-3.14045 -8.65621,-5.17943 -2.13987,-1.62277 -4.07375,-3.4978 -5.76379,-5.58722 -1.62278,-2.00535 -2.99331,-4.20829 -4.06955,-6.55837 -0.89127,-1.94229 -1.56813,-3.97706 -2.01796,-6.06649 -0.46666,-2.19874 -0.71049,-4.43951 -0.7147,-6.68869 0,-2.34588 0.25645,-4.68756 0.74413,-6.98298 0.47926,-2.19033 1.20236,-4.3176 2.1651,-6.34396 1.14351,-2.43417 2.61073,-4.70437 4.34281,-6.76017 1.92127,-2.27861 4.10319,-4.32179 6.49951,-6.09171 2.266,-1.66902 4.67494,-3.13204 7.2058,-4.36804 2.58131,-1.26123 5.27192,-2.29123 8.034,-3.07739 2.74106,-0.78196 5.54939,-1.34531 8.38714,-1.68163 2.90923,-0.34894 5.83947,-0.52131 8.77392,-0.52131 0.40359,0 0.79878,0 1.20657,0.008 3.04376,0.0505 6.0791,0.28588 9.09763,0.71049 2.92605,0.412 5.82686,1.00898 8.67723,1.79094 3.18249,0.87024 6.26828,2.0642 9.21114,3.56086 2.71163,1.37893 5.26351,3.05216 7.60939,4.99444 2.32486,1.92127 4.36384,4.16625 6.05808,6.66347 1.648,2.42996 2.93025,5.08694 3.8089,7.88266 0.60959,1.92967 1.08045,3.90138 1.39996,5.89832 0.35314,2.1567 0.56335,4.33021 0.6222,6.51633 0.008,0.23543 0.0126,0.47086 0.0168,0.71049 0.0252,0.47506 0.0336,0.95012 0.0378,1.42518 z"
   clip-rule="evenodd"
   clip-path="url(#SVGID_32_)"
   style="fill:#ed1c24;fill-rule:evenodd" /><path
   id="path409"
   d="m 144.38922,412.00736 0,29.28984 c 0.4204,-0.34474 0.84502,-0.68947 1.26963,-1.03 0.2102,-0.16817 0.42461,-0.33633 0.64322,-0.50029 1.17715,-0.89127 2.41315,-1.70265 3.7038,-2.42576 1.59335,-0.89546 3.24135,-1.70685 4.92298,-2.42155 1.87502,-0.79877 3.78788,-1.49245 5.73437,-2.08102 1.80355,-0.54653 3.64073,-0.98796 5.49473,-1.32008 1.74049,-0.3111 3.4978,-0.52551 5.25931,-0.64743 1.1351,-0.0757 2.2702,-0.11351 3.40951,-0.11351 0.65583,0 1.31587,0.0126 1.96751,0.0378 1.98012,0.0757 3.94763,0.29008 5.89412,0.63061 1.78253,0.31531 3.53984,0.76094 5.2551,1.3369 2.01376,0.66845 3.92661,1.61016 5.68812,2.79151 1.82878,1.22759 3.49359,2.69061 4.95241,4.34702 1.30747,1.48825 2.43837,3.12363 3.36747,4.87673 0.81559,1.5387 1.42518,3.18249 1.80776,4.88094 0.31951,1.42939 0.55914,2.8756 0.69787,4.33021 0.19339,1.93808 0.29849,3.88036 0.31531,5.82685 0.004,0.84082 0.008,1.67743 0.0126,2.51405 0.004,1.30326 0.004,2.60653 0.004,3.90559 l 0,33.14498 -27.43164,0 0,-36.14249 c 0,-1.38735 -0.0168,-2.7747 -0.0462,-4.16625 -0.0168,-0.618 -0.0631,-1.236 -0.12612,-1.84979 -0.12613,-1.07625 -0.42882,-2.12727 -0.89127,-3.10262 -0.49608,-1.0342 -1.14771,-1.98432 -1.93808,-2.81673 -0.78196,-0.824 -1.66061,-1.5471 -2.61494,-2.14829 -0.94171,-0.58857 -1.94649,-1.05522 -2.99751,-1.38734 -1.03,-0.32372 -2.08943,-0.55915 -3.16567,-0.71049 -0.98796,-0.13874 -1.99694,-0.206 -3.00172,-0.206 -0.13032,0 -0.26485,0 -0.40359,0 -1.15612,0.0252 -2.30804,0.13032 -3.44735,0.32792 -0.95853,0.16395 -1.90024,0.412 -2.81673,0.74412 -1.18135,0.42881 -2.30384,0.99216 -3.35486,1.68163 -1.11828,0.73571 -2.14828,1.59335 -3.08159,2.55608 -1.09727,1.1351 -2.04739,2.40474 -2.83355,3.77106 -0.68527,1.19396 -1.19396,2.47621 -1.51767,3.8089 -0.206,0.86184 -0.36156,1.73208 -0.45825,2.61074 -0.13453,1.17714 -0.2102,2.35849 -0.23122,3.53983 -0.0126,0.72731 -0.021,1.45461 -0.0252,2.18192 -0.008,1.00898 -0.0126,2.01796 -0.0126,3.03114 l 0,28.27666 -28.17996,0 0,-87.37343 28.17576,0"
   clip-path="url(#SVGID_32_)"
   style="fill:#ed1c24" /><path
   id="path411"
   d="m 96.979787,438.3165 -28.966122,0 c 0,-0.28167 -0.0084,-0.56755 -0.01261,-0.84922 -0.0084,-0.22282 -0.01682,-0.44143 -0.02522,-0.66004 -0.04204,-0.84502 -0.163959,-1.68164 -0.369959,-2.50564 -0.193388,-0.76094 -0.466653,-1.50506 -0.815592,-2.20714 -0.369959,-0.75673 -0.828204,-1.46302 -1.362122,-2.11465 -0.571755,-0.68947 -1.21498,-1.32008 -1.921266,-1.87923 -0.824,-0.64743 -1.706857,-1.22759 -2.635959,-1.71947 -0.882857,-0.47506 -1.811959,-0.86183 -2.766285,-1.16032 -1.109878,-0.34894 -2.240776,-0.618 -3.38849,-0.80719 -1.227592,-0.20179 -2.472,-0.31951 -3.716408,-0.36155 l 0,0.004 c -0.311102,-0.0126 -0.622204,-0.0168 -0.933306,-0.0168 -0.832409,0 -1.664817,0.0336 -2.493021,0.1009 -1.105673,0.0925 -2.207143,0.24804 -3.291796,0.46665 -1.101469,0.22282 -2.181918,0.53392 -3.232938,0.9249 -1.03,0.38677 -2.022164,0.85763 -2.97649,1.40416 -0.836612,0.48768 -1.622776,1.05523 -2.345878,1.70686 -0.685265,0.6138 -1.299061,1.30326 -1.832979,2.0558 -0.50449,0.70628 -0.89547,1.48404 -1.164531,2.30804 -0.264857,0.79877 -0.399388,1.62698 -0.403592,2.46779 0,0.83661 0.130327,1.66902 0.382572,2.472 0.235428,0.73992 0.596979,1.43359 1.07204,2.05159 0.613796,0.80719 1.345307,1.52188 2.165102,2.12307 0.752531,0.54653 1.589143,0.97114 2.472,1.25702 0.983756,0.3153 1.980123,0.56755 2.993307,0.75673 1.353714,0.25225 2.72004,0.43722 4.090571,0.55914 1.917061,0.17237 3.838326,0.32792 5.755388,0.47506 1.900245,0.14715 3.800489,0.28168 5.700734,0.4036 l 0.0042,0 c 3.186694,0.206 6.373388,0.4204 9.560082,0.63902 1.282245,0.0841 2.560286,0.18077 3.842531,0.27747 2.804122,0.21861 5.591428,0.6264 8.340897,1.22338 2.387919,0.52131 4.733796,1.2276 7.008204,2.11886 2.467796,0.96274 4.750613,2.35008 6.743347,4.09478 1.942286,1.69845 3.565062,3.73322 4.792653,6.00763 0.798776,1.47563 1.39996,3.05216 1.786735,4.68755 0.441429,1.8498 0.668449,3.74163 0.672653,5.64188 0,1.9591 -0.214408,3.9182 -0.647428,5.83106 -0.424613,1.84139 -1.063633,3.62812 -1.908653,5.31816 -1.03,2.06421 -2.320654,3.98968 -3.838327,5.72596 -1.429388,1.63539 -3.073184,3.06898 -4.889347,4.26294 -2.665388,1.7531 -5.498939,3.23714 -8.458612,4.43951 -3.09,1.25282 -6.29351,2.21555 -9.564286,2.87139 -3.367469,0.67685 -6.760163,1.18555 -10.173877,1.53028 -3.607102,0.36155 -7.226816,0.55915 -10.850735,0.58857 -0.357347,0.004 -0.718898,0.004 -1.076245,0.004 -3.052163,0 -6.100122,-0.1051 -9.139673,-0.31951 -3.31702,-0.23123 -6.621429,-0.59698 -9.90902,-1.09727 -3.005919,-0.45404 -5.978204,-1.13089 -8.887429,-2.02636 -2.568694,-0.78617 -5.070122,-1.79094 -7.474857,-2.99331 -1.744694,-0.87445 -3.3716734,-1.97171 -4.8346938,-3.26237 l 0.0042,0 c -1.5008571,-1.32428 -2.8293469,-2.83355 -3.9518367,-4.48996 -0.7146938,-1.05522 -1.3326938,-2.17351 -1.8455918,-3.33804 -0.5717551,-1.29485 -1.0342041,-2.62755 -1.38314283,-3.99387 -0.2522449,-0.99217 -0.45404081,-1.99694 -0.59277551,-3.01013 -0.14714285,-1.0342 -0.23542856,-2.07681 -0.26485714,-3.11943 -0.0042041,-0.13453 -0.0084082,-0.26906 -0.01261224,-0.40359 -0.00420408,-0.26485 -0.00420408,-0.53392 -0.008408164,-0.80298 l 29.079632183999,0 c 0.0042,0.37837 0.01682,0.75253 0.02943,1.12249 0.01261,0.29008 0.02522,0.57596 0.04625,0.86604 0.05886,0.80719 0.206,1.60596 0.43302,2.38372 0.201796,0.68947 0.487674,1.34951 0.849225,1.96751 0.483469,0.83241 1.063632,1.60175 1.727877,2.29122 0.681061,0.70629 1.437796,1.32849 2.261796,1.854 1.05102,0.67266 2.15249,1.25702 3.300204,1.7489 1.231796,0.52971 2.505633,0.96694 3.804694,1.30747 1.374735,0.35735 2.774694,0.63061 4.183061,0.81559 1.412572,0.18498 2.833551,0.28167 4.254531,0.29008 0.07567,0 0.147143,0 0.222816,0 1.273837,0 2.547673,-0.0631 3.813102,-0.19338 1.395755,-0.14294 2.783102,-0.36156 4.153633,-0.64743 1.269632,-0.26486 2.51404,-0.6096 3.737428,-1.03421 0.966939,-0.33632 1.908653,-0.74832 2.812531,-1.236 0.824,-0.44563 1.57653,-1.00898 2.236571,-1.67322 0.73151,-0.73572 1.357919,-1.56812 1.870817,-2.472 0.420408,-0.74412 0.744122,-1.5387 0.962734,-2.3627 0.218612,-0.824 0.332123,-1.67322 0.336327,-2.52665 0,-0.87865 -0.117715,-1.7573 -0.348939,-2.60653 -0.180776,-0.66004 -0.475061,-1.28224 -0.874449,-1.84139 -0.559143,-0.78196 -1.248612,-1.45881 -2.03898,-2.00114 -0.857632,-0.58857 -1.807755,-1.0342 -2.81253,-1.32008 -1.114082,-0.31951 -2.249184,-0.57596 -3.396898,-0.76094 -1.404163,-0.22702 -2.820939,-0.38678 -4.237714,-0.47927 l -13.196612,-0.86183 c -2.63596,-0.17237 -5.267715,-0.39098 -7.89947,-0.65584 -2.623347,-0.26906 -5.24249,-0.58437 -7.853224,-0.94592 -2.724245,-0.37836 -5.423266,-0.94592 -8.071837,-1.69845 -1.862408,-0.52551 -3.665959,-1.2402 -5.389633,-2.12306 -1.57653,-0.80718 -3.014326,-1.8582 -4.2629383,-3.11522 -1.442,-1.45461 -2.682204,-3.09841 -3.6785714,-4.88514 -0.9627347,-1.72368 -1.7110612,-3.56086 -2.2197551,-5.46951 -0.5213061,-1.9549 -0.7987755,-3.96445 -0.8366122,-5.98662 0,-2.29543 0.256449,-4.58665 0.7567347,-6.82743 0.4792653,-1.9591 1.2402041,-3.84253 2.2617959,-5.58302 1.3999592,-2.38791 3.1530612,-4.55302 5.2004494,-6.41963 2.076816,-1.89604 4.422693,-3.46837 6.961959,-4.67494 2.509836,-1.18975 5.103755,-2.18192 7.769142,-2.96808 2.95547,-0.87445 5.965592,-1.5429 9.013551,-1.99694 2.741062,-0.40359 5.494735,-0.70208 8.256817,-0.88285 2.543469,-0.16396 5.086938,-0.24805 7.634612,-0.24805 0.43302,0 0.861837,0 1.294857,0.008 3.010122,0.0294 6.016041,0.18919 9.013551,0.47506 2.888204,0.27747 5.759592,0.67686 8.609959,1.20237 2.804122,0.5171 5.562,1.25702 8.244204,2.21555 2.442571,0.87445 4.801061,1.9591 7.050245,3.24555 1.610163,0.9207 3.102612,2.03057 4.447918,3.30862 1.286449,1.21918 2.417347,2.59812 3.363266,4.09897 0.647428,1.03421 1.219183,2.11466 1.706857,3.23294 0.52551,1.21498 0.971143,2.4636 1.328489,3.73743 0.222817,0.80719 0.416205,1.62698 0.57596,2.44678 0.147142,0.75253 0.260653,1.50926 0.34053,2.2702 0.02102,0.21441 0.04204,0.43302 0.05886,0.64743 0.03363,0.43302 0.06306,0.86604 0.09249,1.29906"
   clip-path="url(#SVGID_32_)"
   style="fill:#ed1c24" />
</svg>