<?xml version="1.0" encoding="UTF-8" standalone="no"?>
<svg
   xmlns:dc="http://purl.org/dc/elements/1.1/"
   xmlns:cc="http://creativecommons.org/ns#"
   xmlns:rdf="http://www.w3.org/1999/02/22-rdf-syntax-ns#"
   xmlns:svg="http://www.w3.org/2000/svg"
   xmlns="http://www.w3.org/2000/svg"
   xmlns:sodipodi="http://sodipodi.sourceforge.net/DTD/sodipodi-0.dtd"
   xmlns:inkscape="http://www.inkscape.org/namespaces/inkscape"
   width="414"
   height="384"
   id="svg2"
   version="1.1">
  <g
     inkscape:label="Layer 1"
     inkscape:groupmode="layer"
     id="layer1"
     transform="translate(-448.3112,-278.4718)">
    <path
       id="path437"
       d="m 631.8112,645.4718 -101.496,0 -9.408,-75.224 -61.556,-44.776 c -2.684,-13.164 -4.04,-26.564 -4.04,-40 0,-110.4 89.596,-200 200,-200 110.4,0 200,89.6 200,200 0,13.436 -1.352,26.836 -4.044,40 l -61.556,44.776 -9.404,75.224 -101.496,0 -5.856,4.26 c -5.128,3.732 -11.308,5.74 -17.648,5.74 -6.34,0 -12.52,-2.008 -17.648,-5.74 l -5.848,-4.26 z"
       stroke-miterlimit="10"
       clip-path="url(#SVGID_38_)"
       style="fill:none;stroke:#ffffff;stroke-width:14;stroke-miterlimit:10" />
    <path
       id="path439"
       d="m 634.9912,610.4718 -73.78,0 -7.448,-59.608 -60.76,-44.2 c -1.78,-6.924 -2.684,-14.044 -2.684,-21.192 0,-11.94 2.516,-23.748 7.384,-34.652 l 107.584,108.78 -104.592,-129.112 c 4.116,-16.752 13.224,-31.852 26.124,-43.292 l 93.748,161.816 -83.068,-177.16 c 10.748,-14.296 25.736,-24.84 42.824,-30.128 l 57.328,200.864 -41.892,-209.144 c 12.748,-7.188 27.124,-10.96 41.756,-10.96 3.092,0 6.188,0.172 9.26,0.508 l 8.54,217.488 8.536,-217.488 c 3.076,-0.336 6.172,-0.508 9.268,-0.508 14.624,0 29.008,3.772 41.752,10.96 l -41.884,209.144 57.324,-200.864 c 17.088,5.288 32.076,15.832 42.828,30.128 l -83.076,177.16 93.752,-161.816 c 12.896,11.44 22.004,26.544 26.116,43.292 l -104.584,129.112 107.58,-108.78 c 4.872,10.904 7.388,22.712 7.388,34.652 0,7.148 -0.904,14.268 -2.684,21.192 l -60.76,44.2 -7.452,59.608 -73.772,0 -10.916,7.94 c -2.736,1.988 -6.028,3.06 -9.412,3.06 -3.384,0 -6.676,-1.072 -9.416,-3.06 m -14.092,27.06 -101.496,0 -9.408,-75.224 -61.556,-44.776 c -2.684,-13.164 -4.04,-26.564 -4.04,-40 0,-110.4 89.596,-200 200,-200 110.4,0 200,89.6 200,200 0,13.436 -1.352,26.836 -4.044,40 l -61.556,44.776 -9.404,75.224 -101.496,0 -5.856,4.26 c -5.128,3.732 -11.308,5.74 -17.648,5.74 -6.34,0 -12.52,-2.008 -17.648,-5.74 l -5.848,-4.26 z"
       clip-path="url(#SVGID_38_)"
       style="fill:#ed1c24" />
    <path
       id="path441"
       d="m 634.9912,610.4718 -73.78,0 -7.448,-59.608 -60.76,-44.2 c -1.78,-6.924 -2.684,-14.044 -2.684,-21.192 0,-11.94 2.516,-23.748 7.384,-34.652 l 107.584,108.78 -104.592,-129.112 c 4.116,-16.752 13.224,-31.852 26.124,-43.292 l 93.748,161.816 -83.068,-177.16 c 10.748,-14.296 25.736,-24.84 42.824,-30.128 l 57.328,200.864 -41.892,-209.144 c 12.748,-7.188 27.124,-10.96 41.756,-10.96 3.092,0 6.188,0.172 9.26,0.508 l 8.54,217.488 8.536,-217.488 c 3.076,-0.336 6.172,-0.508 9.268,-0.508 14.624,0 29.008,3.772 41.752,10.96 l -41.884,209.144 57.324,-200.864 c 17.088,5.288 32.076,15.832 42.828,30.128 l -83.076,177.16 93.752,-161.816 c 12.896,11.44 22.004,26.544 26.116,43.292 l -104.584,129.112 107.58,-108.78 c 4.872,10.904 7.388,22.712 7.388,34.652 0,7.148 -0.904,14.268 -2.684,21.192 l -60.76,44.2 -7.452,59.608 -73.772,0 -10.916,7.94 c -2.736,1.988 -6.028,3.06 -9.412,3.06 -3.384,0 -6.676,-1.072 -9.416,-3.06"
       clip-path="url(#SVGID_38_)"
       style="fill:#ffd400" />
    <path
       id="path443"
       d="m 634.9912,610.4718 -73.78,0 -7.448,-59.608 -60.76,-44.2 c -1.78,-6.924 -2.684,-14.044 -2.684,-21.192 0,-11.94 2.516,-23.748 7.384,-34.652 l 107.584,108.78 -104.592,-129.112 c 4.116,-16.752 13.224,-31.852 26.124,-43.292 l 93.748,161.816 -83.068,-177.16 c 10.748,-14.296 25.736,-24.84 42.824,-30.128 l 57.328,200.864 -41.892,-209.144 c 12.748,-7.188 27.124,-10.96 41.756,-10.96 3.092,0 6.188,0.172 9.26,0.508 l 8.54,217.488 8.536,-217.488 c 3.076,-0.336 6.172,-0.508 9.268,-0.508 14.624,0 29.008,3.772 41.752,10.96 l -41.884,209.144 57.324,-200.864 c 17.088,5.288 32.076,15.832 42.828,30.128 l -83.076,177.16 93.752,-161.816 c 12.896,11.44 22.004,26.544 26.116,43.292 l -104.584,129.112 107.58,-108.78 c 4.872,10.904 7.388,22.712 7.388,34.652 0,7.148 -0.904,14.268 -2.684,21.192 l -60.76,44.2 -7.452,59.608 -73.772,0 -10.916,7.94 c -2.736,1.988 -6.028,3.06 -9.412,3.06 -3.384,0 -6.676,-1.072 -9.416,-3.06 l -10.912,-7.94 z"
       stroke-miterlimit="10"
       clip-path="url(#SVGID_38_)"
       style="fill:none;stroke:#ed1c24;stroke-width:0;stroke-miterlimit:10" />
  </g>
</svg>
