<?xml version="1.0" encoding="iso-8859-1"?>
<!-- Generator: Adobe Illustrator 13.0.0, SVG Export Plug-In . SVG Version: 6.00 Build 14948)  -->
<!DOCTYPE svg PUBLIC "-//W3C//DTD SVG 1.1//EN" "http://www.w3.org/Graphics/SVG/1.1/DTD/svg11.dtd">
<svg version="1.1" id="Layer_1" xmlns="http://www.w3.org/2000/svg" xmlns:xlink="http://www.w3.org/1999/xlink" x="0px" y="0px"
	 width="281.334px" height="141.333px" viewBox="1.833 26.167 281.334 141.333"
	 style="enable-background:new 1.833 26.167 281.334 141.333;" xml:space="preserve">
<g>
	<polygon style="fill:#00A8CE;" points="86.282,45.091 110.198,52.371 92.401,56.569 108.118,146.275 106.199,147.036 	"/>
	<polygon style="fill:#FBD42C;" points="118.436,144.154 111.558,29.214 136.594,36.453 116.518,40.692 120.557,144.914 	"/>
	<polygon style="fill:#916BAC;" points="125.115,146.475 125.915,53.689 147.312,61.168 129.516,65.368 127.036,147.036 	"/>
	<polygon style="fill:#F2A955;" points="131.075,148.557 136.435,77.406 154.55,84.885 138.913,89.085 132.994,149.354 	"/>
	<polygon style="fill:#EA6D9E;" points="85.522,93.645 104.279,101.122 91.44,105.122 101.959,148.557 100.24,149.154 	"/>
	<polygon style="fill:#9BC765;" points="101.959,65.568 123.236,72.847 106.958,77.046 114.237,144.154 112.117,144.755 	"/>
	<polygon style="fill:#EE3224;" points="93.001,38.011 145.592,42.971 130.315,126.559 100.439,128.678 	"/>
	<polygon style="fill:#EE3224;" points="94.72,135.156 145.992,146.275 98.32,165.393 	"/>
	<polygon style="fill:#7BC143;" points="86.282,45.091 110.198,52.371 92.401,56.569 108.118,146.275 106.199,147.036 	"/>
	<polygon style="fill:#FFD200;" points="118.436,144.154 111.558,29.214 136.594,36.453 116.518,40.692 120.557,144.914 	"/>
	<polygon style="fill:#9561A8;" points="125.115,146.475 125.915,53.689 147.312,61.168 129.516,65.368 127.036,147.036 	"/>
	<polygon style="fill:#EC83B5;" points="131.075,148.557 136.435,77.406 154.55,84.885 138.913,89.085 132.994,149.354 	"/>
	<polygon style="fill:#F89828;" points="85.522,93.645 104.279,101.122 91.44,105.122 101.959,148.557 100.24,149.154 	"/>
	<polygon style="fill:#13B5EA;" points="101.959,65.568 123.236,72.847 106.958,77.046 114.237,144.154 112.117,144.755 	"/>
	<g>
		<path d="M49.848,142.915v-0.92l13.558-16.036l-9.559-14.758h11.518l4.359,7.798l5.84-7.798h11.518l-12.398,14.758l10.639,16.956
			h-11.72l-5.199-9.356l-7.159,9.356H49.848z M49.848,122.277l0.759-11.076h-0.759V122.277z M49.848,106.641v-4.039l6.398,2.082
			L49.848,106.641z M37.369,104.042L37.369,104.042c-8.718-7.239-23.156-6.642-29.315,2.599c-4.96,7.08-1.12,14.758,7.398,17.599
			c3.04,1.159,11.039,2.72,9.479,6.639c-3.24,4.839-10.838,2.879-14.277-0.56l-7.159,8.039c6.839,4.879,13.878,6.16,21.917,4.119
			c6.8-2.641,10.358-5.8,11.318-13.238c0-6.719-2.88-10.079-9.159-12.157c-3.358-1.08-9.958-1.92-9.519-5.681
			c1.399-5.078,9.799-2.6,12.798,0L37.369,104.042z M49.848,102.602v4.039l-9.239,2.84l0.88-9.56L49.848,102.602z M49.848,111.201
			v11.076l-1.401,20.638H38.45l2.159-31.714H49.848z M49.848,141.995l-0.761,0.92h0.761V141.995z"/>
	</g>
	<polygon points="179.066,142.477 182.346,99.043 192.542,98.163 189.307,142.477 	"/>
	<g>
		<path d="M254.214,138.557c3.519,2.84,8.521,4.56,13,4.359c5.759-0.281,13.916-3.479,13.916-10.639
			c0-7.158-3.721-8.84-9.999-10.237c-1.958-0.401-5.039-0.321-4.759-2.801c0.36-3.88,6.479-1.681,8.88-0.24l6.077-5.399
			c-6.636-5.277-16.796-6.238-21.715-0.438c-3.36,4-4.08,10.679,0.438,14.116c2.2,1.681,4.24,2.041,6.959,2.601
			c1.76,0.361,5.118,0.361,4.76,2.601c-0.762,5.039-9.479,1.679-11.918-0.439L254.214,138.557z"/>
		<path d="M206.021,117.119c1.119,0.041,2.279,0.24,3.439,0.602c2.602,0.799,2.198,3.52,2.198,5.84
			c-1.72-1.08-3.681-1.762-5.64-2.082v5.799h0.199c1.922,0,5.08,1.322,4.762,4.121c-0.28,2.998-2.32,4.121-4.961,4.16v6.957
			c1.959-0.479,3.6-1.6,4.961-3.32l-0.4,3.281h9.078l1.521-22.158c0-4.758-0.721-7.558-5.201-9.558
			c-3.237-1.438-6.597-1.8-9.957-1.521V117.119z M196.663,119.239L196.663,119.239c3.2-1.278,6.198-2.24,9.358-2.12v-7.879
			c-2.479,0.24-4.961,0.8-7.397,1.521L196.663,119.239z M206.021,121.479c-6.717-1.039-13.916,2.319-14.56,9.92v0.08v2.641
			c0.603,6.759,6.12,9.355,13.438,8.557c0.4-0.039,0.761-0.078,1.119-0.158v-6.959c-0.438,0-0.879,0-1.317-0.039
			c-1.841-0.162-3.521-1.283-3.681-3.24c-0.279-3.16,2-4.918,4.998-5v-5.801H206.021z"/>
		<path d="M238.337,117.279h0.44c3.318,0,5.918,2.359,5.639,5.639c-0.279,3.318-2.68,5.682-6.079,5.84v6.439
			c2.841,0.359,5.039,1.64,4.998,4.878c0,3.239-2.157,4.64-4.998,4.96v8.038c4.72-0.438,10.078-1.919,13.038-6.278
			c3.841-5.6,2.279-11.598-3.479-14.958c7.076-3.12,6.957-10.638,4.357-15.638l3.037-0.239l2.604-7.998l-8.681,1.92h-2.84
			c-2.519-0.321-5.039-0.761-7.599-0.642c-0.121,0-0.279,0.039-0.439,0.039L238.337,117.279L238.337,117.279z M232.26,122.918
			c0.318-3.199,2.797-5.438,6.077-5.639v-8c-8.198,0.48-15.155,4.881-15.638,13.88c-0.201,4.519,2.279,8.356,6.519,10.198
			l-1.079,3.039c2.479-0.64,6.799-1.642,10.198-1.199v-6.439c-0.12,0-0.28,0.04-0.399,0.04
			C234.498,128.798,231.938,126.236,232.26,122.918 M238.337,145.035v8.038l-0.198,0.04c-7.08,0.602-12.201-1.038-17.6-5.639
			l6.318-5.879C229.18,143.636,234.417,145.436,238.337,145.035"/>
		<polygon points="164.55,109.48 179.747,109.48 177.547,99.921 154.111,99.921 151.07,142.477 162.148,142.477 163.229,127.277 
			174.309,127.277 174.747,118.359 163.869,118.359 		"/>
		<path style="fill:#FFFFFF;" d="M283.448,104.643c2.12,0,3.802,1.719,3.802,3.799c0,2.121-1.682,3.84-3.802,3.84v-0.84
			c1.642,0,2.961-1.36,2.961-3c0-1.641-1.319-2.961-2.961-2.961V104.643z M283.448,108.961h0.163c0.158,0,0.277,0.04,0.318,0.121
			c0.081,0.079,0.117,0.197,0.16,0.359v0.479c0,0.241,0.038,0.441,0.079,0.602h0.92v-0.119c-0.079-0.082-0.122-0.281-0.159-0.601
			v-0.321c0-0.318-0.041-0.52-0.121-0.638c-0.039-0.12-0.16-0.2-0.32-0.28c0.201-0.121,0.32-0.24,0.441-0.44
			c0.08-0.159,0.119-0.358,0.119-0.56c0-0.401-0.119-0.722-0.32-0.881c-0.199-0.199-0.52-0.279-0.959-0.279h-0.322v0.801h0.242
			c0.158,0,0.278,0.039,0.357,0.119c0.081,0.078,0.122,0.199,0.122,0.359c0,0.159-0.041,0.28-0.122,0.359
			c-0.079,0.08-0.199,0.121-0.357,0.121h-0.242L283.448,108.961L283.448,108.961z M283.448,112.279c-2.119,0-3.798-1.719-3.798-3.84
			c0-2.08,1.679-3.799,3.798-3.799v0.84c-1.64,0-2.958,1.319-2.958,2.959c0,1.641,1.318,3.002,2.958,3.002V112.279z M283.448,106.4
			h-1.278v4.119h0.84v-1.56h0.438v-0.799h-0.438v-0.96h0.438L283.448,106.4L283.448,106.4z"/>
	</g>
</g>
</svg>
