<?xml version="1.0" encoding="utf-8"?>
<!-- Generator: Adobe Illustrator 13.0.1, SVG Export Plug-In  -->
<!DOCTYPE svg PUBLIC "-//W3C//DTD SVG 1.1//EN" "http://www.w3.org/Graphics/SVG/1.1/DTD/svg11.dtd" [
	<!ENTITY ns_flows "http://ns.adobe.com/Flows/1.0/">
]>
<svg version="1.1"
	 xmlns="http://www.w3.org/2000/svg" xmlns:xlink="http://www.w3.org/1999/xlink" xmlns:a="http://ns.adobe.com/AdobeSVGViewerExtensions/3.0/"
	 x="0px" y="0px" width="86px" height="21px" viewBox="-0.482 -0.113 86 21" enable-background="new -0.482 -0.113 86 21"
	 xml:space="preserve">
<defs>
</defs>
<rect fill="none" width="85.04" height="20.009"/>
<rect fill="none" width="85.04" height="20.009"/>
<path fill="#3C68AE" d="M24.261,20.009c0.415,0,0.75-0.336,0.75-0.751V8.253c0-0.415-0.335-0.75-0.75-0.75H10.505
	c-0.276,0-0.5-0.224-0.5-0.5V3.001c0-0.276,0.224-0.5,0.5-0.5L14.507,2.5c0.276,0,0.5,0.225,0.5,0.501v1.251
	c0,0.414,0.336,0.75,0.751,0.75h6.002c0.415,0,0.751-0.336,0.751-0.75V0.75c0-0.414-0.337-0.75-0.751-0.75H3.25
	C2.835,0,2.5,0.336,2.5,0.75v8.503c0,0.415,0.335,0.75,0.75,0.75h13.758c0.276,0,0.5,0.225,0.5,0.501v6.503
	c0,0.277-0.224,0.501-0.5,0.501H8.004c-0.276,0-0.5-0.224-0.5-0.501v-3.751c0-0.415-0.336-0.75-0.751-0.75H0.751
	C0.336,12.506,0,12.841,0,13.256v6.002c0,0.415,0.336,0.751,0.751,0.751H24.261z"/>
<path fill="#3C68AE" d="M37.518,12.823c0-0.069,0.056-0.125,0.125-0.125c0.034,0,0.065,0.013,0.087,0.034l7.003,7.003
	c0.138,0.168,0.346,0.274,0.579,0.274h8.962c0.415,0,0.75-0.336,0.75-0.75V13.26c0-0.415-0.335-0.751-0.75-0.751h-6.467
	c-0.234,0-0.441-0.106-0.579-0.273l-4.645-4.645c-0.023-0.022-0.037-0.054-0.037-0.088c0-0.035,0.014-0.066,0.037-0.088l2.138-2.14
	c0.138-0.167,0.345-0.273,0.578-0.273h6.474c0.415,0,0.751-0.336,0.751-0.75L52.523,0.75c0-0.414-0.335-0.75-0.75-0.75h-6.461
	c-0.233,0-0.441,0.106-0.579,0.273L37.73,7.276c-0.022,0.022-0.053,0.035-0.087,0.035c-0.069,0-0.125-0.056-0.125-0.125L37.517,0.75
	c0-0.414-0.336-0.75-0.75-0.75h-7.251c-0.414,0-0.75,0.336-0.75,0.75v6.003c0,0.414,0.336,0.75,0.75,0.75
	c0.277,0,0.501,0.224,0.501,0.5v4.002c0,0.276-0.224,0.501-0.501,0.501c-0.414,0-0.75,0.335-0.75,0.75v6.002
	c0,0.415,0.336,0.751,0.75,0.751h7.251c0.414,0,0.75-0.336,0.75-0.751L37.518,12.823z"/>
<path fill="#3C68AE" d="M66.777,20.009c0.414,0,0.751-0.336,0.751-0.751v-6.002c0-0.415-0.337-0.75-0.751-0.75
	c-0.276,0-0.5-0.225-0.5-0.501v-1.5c0-0.277,0.224-0.501,0.5-0.501h2.747c0.275,0,0.5,0.224,0.5,0.501
	c0,0.414,0.337,0.75,0.751,0.75h6.01c0.415,0,0.751-0.336,0.751-0.75V7.003c0-0.415-0.336-0.75-0.751-0.75h-6.01
	c-0.414,0-0.751,0.335-0.751,0.75c0,0.276-0.225,0.5-0.5,0.5h-2.747c-0.276,0-0.5-0.224-0.5-0.5V3.001c0-0.276,0.224-0.5,0.5-0.5
	h7.756c0.277,0,0.501,0.224,0.501,0.5v1.251c0,0.414,0.336,0.75,0.75,0.75h8.505c0.414,0,0.751-0.336,0.751-0.75V0.75
	c0-0.414-0.337-0.75-0.751-0.75H59.527c-0.415,0-0.75,0.336-0.75,0.75v6.003c0,0.414,0.335,0.75,0.75,0.75
	c0.276,0,0.5,0.224,0.5,0.5v4.002c0,0.276-0.224,0.501-0.5,0.501c-0.415,0-0.75,0.335-0.75,0.75v6.002
	c0,0.415,0.335,0.751,0.75,0.751H66.777z"/>
</svg>
