<?xml version="1.0" encoding="UTF-8" standalone="no"?>
<!-- Created with Inkscape (http://www.inkscape.org/) -->
<svg
   xmlns:dc="http://purl.org/dc/elements/1.1/"
   xmlns:cc="http://web.resource.org/cc/"
   xmlns:rdf="http://www.w3.org/1999/02/22-rdf-syntax-ns#"
   xmlns:svg="http://www.w3.org/2000/svg"
   xmlns="http://www.w3.org/2000/svg"
   xmlns:xlink="http://www.w3.org/1999/xlink"
   xmlns:sodipodi="http://sodipodi.sourceforge.net/DTD/sodipodi-0.dtd"
   xmlns:inkscape="http://www.inkscape.org/namespaces/inkscape"
   width="554"
   height="332"
   id="svg2"
   sodipodi:version="0.32"
   inkscape:version="0.45.1"
   version="1.0"
   inkscape:output_extension="org.inkscape.output.svg.inkscape">
  <g
     inkscape:label="Layer 1"
     inkscape:groupmode="layer"
     id="layer1"
     transform="translate(76.942909,-403.60113)">
    <g
       id="g17668"
       transform="matrix(33.200026,0,0,33.200026,-13506.018,-26805.296)">
      <g
         style="fill:#000000"
         id="g2242"
         transform="matrix(0.181474,0,0,-0.181474,411.74754,819.76821)">
          <path
   id="path2244"
   d="M 0,0 C 0,0.875 -0.571,1.233 -1.292,1.233 L -5.838,1.233 C -7.641,1.233 -8.927,0.329 -8.927,-1.873 L -8.927,-40.814 C -8.927,-41.677 -8.353,-42.05 -7.626,-42.05 L -3.089,-42.05 C -1.282,-42.05 0,-41.146 0,-38.94 L 0,0 z "
   style="fill:#000000;fill-rule:nonzero;stroke:none" />

        </g>
      <g
         style="fill:#000000"
         id="g2246"
         transform="matrix(0.181474,0,0,-0.181474,421.17662,822.15192)">
          <path
   id="path2248"
   d="M 0,0 C 0,0.73 -0.539,1.091 -1.276,1.091 L -6.793,1.091 C -7.898,1.091 -8.388,0.701 -8.798,-0.194 L -16.575,-17.458 L -27.421,-0.375 C -28.083,0.687 -28.798,1.091 -30.406,1.091 L -36.962,1.091 C -38.32,1.091 -39.054,0.73 -39.862,-0.138 L -51.409,-12.543 L -41.057,-27.64 C -40.456,-28.507 -39.956,-28.914 -39.054,-28.914 L -32.881,-28.914 C -31.957,-28.914 -31.419,-28.542 -31.419,-27.766 C -31.419,-27.296 -31.645,-26.988 -31.957,-26.549 L -41.057,-13.076 L -34.156,-5.641 L -20.515,-25.805 L -26.536,-38.543 C -26.701,-38.922 -26.904,-39.283 -26.904,-39.644 C -26.904,-40.382 -26.363,-40.736 -25.625,-40.736 L -20.151,-40.736 C -19.039,-40.736 -18.557,-40.353 -18.149,-39.456 L -0.361,-1.104 C -0.188,-0.725 0,-0.375 0,0"
   style="fill:#000000;fill-rule:nonzero;stroke:none" />

        </g>
      <g
         style="fill:#000000"
         id="g2250"
         transform="matrix(0.181474,0,0,-0.181474,406.50571,823.83753)">
          <path
   id="path2252"
   d="M 0,0 C -1.813,0.408 -2.376,0.921 -2.376,1.835 C -2.376,2.546 -1.813,3.113 -0.177,3.113 L 13.059,3.113 C 15.265,3.113 16.156,4.401 16.156,6.2 L 16.156,9.084 C 16.156,9.81 15.793,10.38 14.925,10.38 L -0.578,10.38 C -7.487,10.38 -11.108,6.375 -11.108,1.282 C -11.108,-3.255 -8.323,-6.016 -2.748,-7.256 L 6.147,-9.246 C 7.956,-9.646 8.517,-10.166 8.517,-11.091 C 8.517,-11.792 7.956,-12.359 6.328,-12.359 L -7.472,-12.359 C -9.678,-12.359 -10.57,-13.638 -10.57,-15.448 L -10.57,-18.326 C -10.57,-19.041 -10.214,-19.626 -9.346,-19.626 L 5.79,-19.626 C 13.958,-19.626 17.252,-15.625 17.252,-10.885 C 17.252,-5.988 14.43,-3.226 8.894,-1.991 L 0,0 z "
   style="fill:#000000;fill-rule:nonzero;stroke:none" />

        </g>
    </g>
  </g>
</svg>
