<?xml version="1.0" encoding="UTF-8" standalone="no"?>
<svg
   xmlns:dc="http://purl.org/dc/elements/1.1/"
   xmlns:cc="http://creativecommons.org/ns#"
   xmlns:rdf="http://www.w3.org/1999/02/22-rdf-syntax-ns#"
   xmlns:svg="http://www.w3.org/2000/svg"
   xmlns="http://www.w3.org/2000/svg"
   xmlns:xlink="http://www.w3.org/1999/xlink"
   xmlns:sodipodi="http://sodipodi.sourceforge.net/DTD/sodipodi-0.dtd"
   xmlns:inkscape="http://www.inkscape.org/namespaces/inkscape"
   version="1.1"
   id="Layer_1"
   x="0px"
   y="0px"
   width="520"
   height="344"
   viewBox="0 0 519.99999 344"
   enable-background="new 0 0 841.89 595.276"
   xml:space="preserve">
<path
   style="fill:#002a66;fill-opacity:1"
   id="path69"
   d="m 442.63589,50.3161 c 51.564,33.54 77.364,74.0118 77.364,121.4119 0,48.124 -25.184,88.8722 -75.5238,122.2279 C 394.10819,327.3362 332.26009,344 258.93989,344 187.70819,344 126.73589,326.9799 76.044193,292.8879 25.348093,258.824 -6.6336498e-6,218.4321 -6.6336498e-6,171.7201 -6.6336498e-6,123.976 25.255893,83.4121 75.787893,50.0599 126.31209,16.684 187.36419,0 258.93989,0 c 70.8762,0 132.1082,16.7639 183.696,50.3161 m -31.7841,230.2958 c 41.4161,-30.2159 62.1403,-66.9519 62.1403,-110.1678 0,-42.864 -20.8041,-79.3999 -62.4,-109.6281 -41.6082,-30.2202 -91.9042,-45.336 -150.88,-45.336 -58.9881,0 -109.2762,15.1158 -150.88,45.336 -41.600297,30.2282 -62.399997,66.7641 -62.399997,109.6281 0,42.8719 20.7997,79.5079 62.399997,109.908 41.6038,30.3878 91.8919,45.5879 150.88,45.5879 59.34,0 109.7079,-15.1 151.1397,-45.3281 m -42.3278,-95.3758 c 6.5878,9.1239 9.8839,19.644 9.8839,31.548 0,18.5839 -10.3077,34.364 -30.924,47.3158 -22.7119,14.032 -53.9598,21.7439 -93.7839,23.1401 -34.7519,1.0579 -70.5402,-10.3762 -107.3719,-34.3561 -2.816,-2.0719 -3.3399,-3.9718 -1.584,-5.7278 l 8.7957,-12.4919 c 1.0414,-1.0414 2.0763,-1.5603 3.132,-1.5603 1.3602,0 2.752,0.704 4.1403,2.1122 1.3558,1.3839 3.1039,1.9157 5.1679,1.5638 1.72,0 2.5879,-1.048 2.5879,-3.1679 V 113.0961 c 0,-2.0999 -0.863,-3.1679 -2.5879,-3.1679 -2.0719,-0.352 -3.8121,0.178 -5.1802,1.5919 -1.3839,1.3839 -2.7757,2.0798 -4.1438,2.0798 -1.04,0 -2.0842,-0.515 -3.1241,-1.584 l -9.8478,-13.7679 c -1.3839,-1.7481 -0.898,-3.684 1.5839,-5.8199 35.088,-24.3521 71.2361,-36.536 108.4399,-36.536 34.8282,0 62.364,6.6597 82.5723,19.9801 17.7599,11.9198 26.6477,26.4599 26.6477,43.6318 0,18.9358 -8.5079,33.3119 -25.5438,43.1159 -2.4641,1.0497 -2.4641,1.9279 0,2.6282 13.488,2.8038 23.8721,9.4758 31.1399,19.988 m -141.484,-92.8519 v 50.912 c 0.696,5.9559 3.684,8.9159 8.9519,8.9159 h 22.116 c 10.8799,0 19.7362,-3.4962 26.5881,-10.4841 6.8642,-6.9879 10.284,-15.5721 10.284,-25.7359 0,-10.1322 -3.7761,-18.5401 -11.3239,-25.184 -7.5601,-6.636 -16.9482,-9.976 -28.172,-9.976 h -3.684 c -16.512,0.36 -24.7601,4.2079 -24.7601,11.5521 m 71.3721,158.3716 c 8.5877,-7.6917 12.9079,-17.4878 12.9079,-29.3716 0,-11.8961 -4.2201,-21.9441 -12.6481,-30.1641 -8.4359,-8.2323 -19.3158,-12.3401 -32.6441,-12.3401 h -28.9679 c -5.6199,0 -8.9598,3.4962 -10.012,10.456 v 59.5559 c 0,5.368 2.7239,9.0282 8.156,10.9922 5.432,1.964 15.7239,2.7599 30.8239,2.4159 12.9764,0 23.7843,-3.8402 32.3843,-11.5442"
   clip-path="none" />
</svg>