<?xml version="1.0" encoding="UTF-8" standalone="no"?>
<!-- Created with Inkscape (http://www.inkscape.org/) -->

<svg
   xmlns:dc="http://purl.org/dc/elements/1.1/"
   xmlns:cc="http://creativecommons.org/ns#"
   xmlns:rdf="http://www.w3.org/1999/02/22-rdf-syntax-ns#"
   xmlns:svg="http://www.w3.org/2000/svg"
   xmlns="http://www.w3.org/2000/svg"
   xmlns:sodipodi="http://sodipodi.sourceforge.net/DTD/sodipodi-0.dtd"
   xmlns:inkscape="http://www.inkscape.org/namespaces/inkscape"
   id="svg3982"
   version="1.1"
   inkscape:version="0.48.4 r9939"
   width="1760"
   height="3072"
   sodipodi:docname="Sony_1955.png">
  <metadata
     id="metadata3988">
    <rdf:RDF>
      <cc:Work
         rdf:about="">
        <dc:format>image/svg+xml</dc:format>
        <dc:type
           rdf:resource="http://purl.org/dc/dcmitype/StillImage" />
        <dc:title></dc:title>
      </cc:Work>
    </rdf:RDF>
  </metadata>
  <defs
     id="defs3986" />
  <sodipodi:namedview
     pagecolor="#ffffff"
     bordercolor="#666666"
     borderopacity="1"
     objecttolerance="10"
     gridtolerance="10"
     guidetolerance="10"
     inkscape:pageopacity="0"
     inkscape:pageshadow="2"
     inkscape:window-width="1280"
     inkscape:window-height="750"
     id="namedview3984"
     showgrid="false"
     inkscape:zoom="0.1659495"
     inkscape:cx="2512.427"
     inkscape:cy="1387.1204"
     inkscape:window-x="-8"
     inkscape:window-y="-8"
     inkscape:window-maximized="1"
     inkscape:current-layer="svg3982" />
  <path
     inkscape:connector-curvature="0"
     id="path3997"
     d="M 0,1536 0,0 l 880,0 880,0 0,1536 0,1536 -880,0 -880,0 z m 1084.8086,1454.75 c 3.1063,-7.519 81.9311,-201.1021 214.6901,-527.25 22.3878,-55 50.1093,-123.0918 61.6032,-151.315 11.494,-28.2233 20.8981,-51.6925 20.8981,-52.1538 0,-0.4614 -15.8625,-1.0437 -35.25,-1.2942 -37.0968,-0.4792 -45.6602,-1.3063 -60.3076,-5.8249 -19.1711,-5.9142 -31.81,-17.1991 -37.5904,-33.5637 -6.8369,-19.3554 -6.2822,-47.4101 1.7172,-86.8484 4.8855,-24.0863 4.4624,-22.8186 22.6938,-68 9.0993,-22.55 36.6506,-90.95 61.2251,-152 24.5745,-61.05 46.2135,-114.2183 48.0867,-118.1518 9.9617,-20.918 26.5477,-37.939 43.3958,-44.534 4.1303,-1.6167 7.8066,-2.1833 14.5294,-2.2393 7.9244,-0.066 9.6829,0.2605 14.7144,2.7313 14.4675,7.1044 20.4058,22.6468 16.335,42.7537 -0.9398,4.642 -4.0971,14.2901 -7.0162,21.4401 -2.9191,7.15 -17.5566,42.7 -32.5278,79 -91.3149,221.408 -87.7605,212.5736 -89.0358,221.2956 -0.6692,4.5762 -1.0274,13.94 -0.8056,21.0578 0.3771,12.1035 0.5845,13.1935 3.7245,19.5718 5.5662,11.3063 14.127,15.0578 27.8381,12.199 22.2993,-4.6496 52.5778,-30.6823 59.7574,-51.3781 3.6926,-10.6439 126.0257,-316.1153 128.3994,-320.6191 18.3449,-42.2907 44.9969,-42.7113 63.2037,-41.3414 24.7798,2.5496 29.5512,20.3241 24.8845,39.5652 l -102.8825,282.8246 c -56.5854,155.5535 -154.904,425.826 -218.4858,600.6055 C 1265.0215,2852.0605 1213,2995.723 1213,2996.5309 c 0,1.288 29.1579,1.4691 236.5,1.4691 l 236.5,0 0,-1462 0,-1462 -455.829,0 -455.82892,0 -259.6662,626.78138 C 371.85946,1045.5111 252.9407,1332.71 250.41195,1339.0011 c -10.1267,25.1934 -13.9398,46.9295 -13.06913,74.4989 1.17669,37.2595 12.27447,72.1346 36.10281,113.4541 20.02445,34.7235 40.94908,63.3432 96.54219,132.0459 13.57405,16.775 29.80492,37.025 36.06859,45 62.12279,79.0956 93.72813,137.9904 105.42417,196.4519 3.4274,17.1315 4.51942,28.9611 4.51942,48.9575 0,24.8643 -2.77301,44.0801 -9.97371,69.1135 -1.58567,5.5127 -88.02254,227.3627 -192.08194,493 -104.0594,265.6374 -189.41912,483.7646 -189.68826,484.7271 -0.46556,1.6649 22.80153,1.75 478.53396,1.75 l 479.02335,0 z M 667,2258.5202 c -46.37427,-6.8778 -85.2984,-38.2732 -101.68914,-82.0202 -9.8372,-26.2556 -10.83734,-54.2684 -2.91087,-81.5298 2.48801,-8.557 128.80301,-315.4342 134.65827,-327.1469 5.80876,-11.6196 14.27977,-23.2365 23.9347,-32.8233 53.1637,-52.7887 138.49199,-49.8716 187.83519,6.4214 20.31156,23.1724 31.16718,52.4955 31.17048,84.1976 0.002,14.5454 -1.66995,26.0717 -5.57196,38.4238 -2.80343,8.8744 -128.73104,314.5676 -133.65729,324.4572 -8.31829,16.6993 -23.23639,34.5746 -38.10315,45.6564 -27.57343,20.5535 -62.08879,29.3437 -95.66623,24.3638 z m 30.40399,-78.4956 c 4.24815,-1.0865 10.50764,-3.4339 13.90996,-5.2164 8.07418,-4.2301 20.26865,-16.4021 24.35301,-24.3082 4.95468,-9.5907 125.10397,-301.4763 126.37086,-307 1.71012,-7.4562 1.4746,-21.0317 -0.49444,-28.5 -5.58109,-21.1683 -22.67855,-38.0643 -44.00348,-43.485 -7.68078,-1.9524 -21.49227,-1.9389 -29.04528,0.028 -16.55441,4.3119 -31.24053,16.0439 -38.75158,30.9566 -4.16657,8.2725 -123.42293,297.591 -125.23355,303.8194 -2.02847,6.9776 -2.30087,21.1321 -0.55254,28.7115 0.69384,3.008 2.78022,8.6816 4.63639,12.6079 12.31993,26.0602 40.91739,39.5196 68.81065,32.3858 z m 370.27501,72.8885 c -12.3503,-3.5215 -19.5697,-8.4578 -24.3839,-16.6725 -4.0865,-6.9731 -3.6803,-13.6099 1.453,-23.7406 5.9802,-11.8022 153.807,-362.1933 155.1262,-367.6928 2.5442,-10.6064 0.8192,-18.4748 -5.3538,-24.4206 -5.5423,-5.3384 -11.753,-7.4583 -23.7872,-8.1192 -20.2799,-1.1138 -43.1179,5.5085 -61.2932,17.773 -11.4842,7.7495 -12.6378,9.6055 -25.86,41.6087 -22.546,54.5704 -85.75575,205.4773 -124.50774,297.2498 -7.75668,18.3694 -14.82915,35.9194 -15.71659,39 -7.6474,26.5467 -30.92873,46.1011 -54.88773,46.1011 -21.58963,0 -31.5694,-17.2143 -23.56007,-40.6391 1.10216,-3.2235 8.3143,-18.0109 16.02698,-32.8609 51.16979,-98.5224 85.47699,-182.9347 123.14655,-303 6.0395,-19.25 13.2723,-41.975 16.0727,-50.5 l 5.0918,-15.5 -24.2276,-44.3454 c -13.89932,-25.441 -23.85339,-44.7196 -23.3499,-45.2231 1.19853,-1.1985 69.0807,-17.1204 71.3597,-16.7375 1.0113,0.1699 11.4539,12.759 23.4797,28.306 11.912,15.4 22.2197,28.1308 22.9059,28.2907 0.6863,0.1599 4.3362,-1.5856 8.1111,-3.8789 8.8961,-5.4045 17.1785,-9.0863 28.6851,-12.7512 18.1883,-5.7931 24.3945,-6.6633 47.29,-6.6308 18.3929,0.026 22.1113,0.3091 29.9518,2.2792 39.0041,9.8006 60.4496,32.8022 62.2773,66.7962 0.6175,11.4844 -0.7854,23.0419 -4.1631,34.2975 -1.2539,4.1785 -21.7263,62.4973 -45.4942,129.5973 -23.768,67.1 -53.1307,150.125 -65.2505,184.5 -12.1198,34.375 -23.6585,65.65 -25.6416,69.5 -4.4866,8.7105 -14.449,18.8825 -22.7728,23.2517 -12.0033,6.3007 -27.6266,7.897 -40.7279,4.1614 z M 76.485516,2844.75 c 0.936472,-2.3375 60.590994,-154.325 132.565614,-337.75 71.97462,-183.425 133.11182,-338.4965 135.86046,-344.6034 9.97408,-22.1604 14.09058,-41.2393 14.08439,-65.2776 -0.006,-24.2142 -4.10117,-44.5352 -14.19277,-70.4312 -12.525,-32.1404 -32.30397,-64.8581 -74.16892,-122.6878 -17.81569,-24.6095 -40.58454,-57.9284 -47.15199,-69 -2.12061,-3.575 -10.89232,-16.4 -19.49269,-28.5 -59.93891,-84.329 -83.88678,-133.6405 -94.94354,-195.5 -6.33855,-35.4624 -6.86177,-80.3585 -1.44509,-124 4.62972,-37.301 15.68131,-84.9539 31.07708,-134 2.75539,-8.7778 31.18653,-79.4173 72.04434,-179 C 297.53323,962.41601 446.46259,599.50651 502.49975,463 548.2528,351.54557 592.78976,243.00085 635.60961,138.58686 649.57433,104.53464 661,76.072136 661,75.336862 661,74.224078 611.72131,74 367,74 l -294,0 0,1387.5 c 0,811.6634 0.369955,1387.5 0.89142,1387.5 0.490281,0 1.657625,-1.9125 2.594096,-4.25 z"
     style="fill:#020202"
     sodipodi:nodetypes="cccccccccssssssssssscssssscscsscccsssscccccsssssssssssscssssssscsssscssssscssssccssssssssssssssscsccscssssssssssssssssssssssssssscsss" />
</svg>
