<?xml version="1.0" encoding="UTF-8" standalone="no"?>
<!-- Created with Inkscape (http://www.inkscape.org/) -->
<svg
   xmlns:dc="http://purl.org/dc/elements/1.1/"
   xmlns:cc="http://web.resource.org/cc/"
   xmlns:rdf="http://www.w3.org/1999/02/22-rdf-syntax-ns#"
   xmlns:svg="http://www.w3.org/2000/svg"
   xmlns="http://www.w3.org/2000/svg"
   xmlns:sodipodi="http://sodipodi.sourceforge.net/DTD/sodipodi-0.dtd"
   xmlns:inkscape="http://www.inkscape.org/namespaces/inkscape"
   width="451"
   height="89"
   id="svg2"
   sodipodi:version="0.32"
   inkscape:version="0.45.1"
   version="1.0"
   inkscape:output_extension="org.inkscape.output.svg.inkscape">
  <g
     inkscape:label="Layer 1"
     inkscape:groupmode="layer"
     id="layer1"
     transform="translate(-177.59535,-382.59817)">
    <path
       id="path2202"
       d="M 81.397327,215.0951 L 81.397327,215.0951"
       style="fill:#ffffff;fill-rule:nonzero;stroke:none" />
    <g
       id="g3390"
       transform="translate(25.518079,-37.117206)">
      <g
         transform="matrix(9.3684211,0,0,-9.3684211,-594.39852,5496.2754)"
         clip-path="url(#id54)"
         id="g2246">
        <g
   clip-path="url(#id55)"
   id="g2248">
          <path
   style="fill:#ffffff;fill-rule:evenodd;stroke:none"
   d="M 79.68,541.88 L 127.82,541.88 L 127.82,532.38 L 79.68,532.38 L 79.68,541.88 z "
   id="path2250" />

        </g>

      </g>
      <path
         style="fill:#df0024;fill-rule:nonzero;stroke:none"
         d="M 166.02634,431.90095 L 497.91327,431.90095 L 497.91327,498.27644 L 166.02634,498.27644 L 166.02634,431.90095 z "
         id="path2252" />
      <path
         style="fill:#ffffff;fill-rule:nonzero;stroke:none"
         d="M 346.7542,444.60605 L 315.9326,444.60605 C 310.82591,444.60605 306.55391,448.15685 305.41911,452.91554 C 305.23181,453.72104 305.13911,454.71514 305.13911,455.57494 C 305.13911,455.57494 305.12991,479.68134 305.12991,479.72754 C 305.12991,482.70734 307.57581,485.11374 310.56261,485.11374 C 313.54221,485.11374 315.7546,482.69804 315.7546,479.70904 C 315.7546,479.66284 315.7546,453.03674 315.7546,453.03674 L 344.2622,453.04594 C 346.5,453.04594 348.3747,455.04094 348.3747,457.31794 C 348.3747,459.60434 346.4259,461.56234 344.3085,461.56234 L 317.4675,461.55304 C 317.4767,466.19034 321.2333,469.99294 325.8706,469.99294 L 346.6966,469.94674 C 353.6686,469.94674 359.2419,464.24154 359.2419,457.31794 C 359.2419,450.39445 353.6686,444.60605 346.7542,444.60605"
         id="path2254" />
      <path
         style="fill:#ffffff;fill-rule:nonzero;stroke:none"
         d="M 276.78181,460.22394 L 250.37992,460.22394 C 248.39412,460.22394 246.77352,458.60094 246.77352,456.61524 C 246.77352,454.77054 248.16982,453.27154 249.95912,453.05524 C 250.10022,453.03674 286.41221,453.05524 286.41221,453.05524 C 286.41221,453.03674 286.41221,453.01834 286.41221,452.99984 C 286.41221,448.68165 283.23581,444.65235 278.96381,444.65235 C 278.96381,444.65235 246.97932,444.67075 246.85712,444.67075 C 240.62712,444.67075 236.07512,450.39445 236.07512,456.61524 C 236.07512,462.82674 240.75852,468.65464 246.87772,468.65464 L 273.30491,468.63604 C 275.29071,468.63604 276.90201,470.24734 276.90201,472.23304 C 276.90201,474.07774 275.42241,475.80234 273.72581,475.80234 C 273.58701,475.80234 236.03822,475.80234 236.03822,475.80234 C 236.03822,475.82074 236.02902,475.83924 236.02902,475.85774 C 236.02902,480.17834 239.24222,484.20524 243.47512,484.20524 C 243.47512,484.20524 276.69611,484.18674 276.82781,484.18674 C 282.85221,484.18674 287.60051,478.45384 287.60051,472.23304 C 287.60051,466.02154 282.95401,460.22394 276.78181,460.22394"
         id="path2256" />
      <path
         style="fill:#ffffff;fill-rule:nonzero;stroke:none"
         d="M 400.42479,448.15685 L 400.42479,448.16605 C 398.56149,445.50535 395.46859,443.76235 391.97549,443.76235 C 388.48029,443.76235 385.39869,445.50535 383.53329,448.16605 L 383.52399,448.15685 L 363.08179,477.27244 C 361.452,479.60494 362.0138,482.82994 364.35779,484.45964 C 366.69019,486.09864 369.90349,485.52764 371.53319,483.19514 L 376.53579,476.13064 L 407.42459,476.13064 L 412.59578,483.45634 C 414.22548,485.78874 417.44798,486.35974 419.78058,484.72074 C 422.11298,483.09104 422.68398,479.87784 421.04498,477.53604 L 400.42479,448.15685 z M 382.54149,467.54964 L 386.06459,462.52754 L 390.68109,455.91244 C 390.68109,455.91244 391.24499,455.29534 391.88999,455.29534 C 392.53719,455.29534 393.15459,455.91244 393.15459,455.91244 L 397.89579,462.52754 L 401.40949,467.54964 L 382.54149,467.54964"
         id="path2258" />
      <path
         style="fill:#ffffff;fill-rule:nonzero;stroke:none"
         d="M 481.93027,468.89724 C 486.38027,466.93924 489.47117,462.47074 489.47117,457.31794 C 489.47117,450.39445 483.89747,444.60605 476.98337,444.60605 L 447.20178,444.60605 C 442.09528,444.60605 437.82328,448.15685 436.69058,452.91554 C 436.50328,453.72104 436.38998,454.55564 436.38998,455.41794 C 436.38998,455.41794 436.37148,479.96094 436.37148,480.00034 C 436.37148,482.98694 438.84498,485.34964 441.83398,485.34964 C 444.81378,485.34964 447.04228,482.93154 447.04228,479.94244 C 447.04228,479.90554 447.04228,453.02754 447.04228,453.02754 L 474.46347,453.03674 C 476.69427,453.03674 478.60397,455.04094 478.60397,457.31794 C 478.60397,459.60434 476.66657,461.56234 474.53977,461.56234 L 448.73898,461.55304 C 448.74828,466.19034 452.50478,469.99294 457.14198,469.99294 L 470.06917,469.95594 L 479.28797,483.01714 C 480.92717,485.35884 484.15187,485.92064 486.48427,484.29084 C 488.81677,482.65194 489.38787,479.42694 487.74877,477.09444 L 481.93027,468.89724"
         id="path2260" />
      <path
         style="fill:#009f3c;fill-rule:nonzero;stroke:#009f3c;stroke-width:0.03747479;stroke-linecap:butt;stroke-linejoin:miter;stroke-miterlimit:3.86400008"
         d="M 579.77485,483.39164 C 573.76905,493.80794 562.53665,499.04634 549.64666,499.04634 C 536.75426,499.04634 525.49406,493.80794 519.49756,483.39164 C 516.55706,478.29434 514.87876,472.38334 514.87876,466.07694 C 514.87876,446.88315 530.44106,431.32995 549.62596,431.32995 C 568.82205,431.32995 584.37515,446.88315 584.37515,466.07694 C 584.37515,472.38334 582.69685,478.29434 579.77485,483.39164 z "
         stroke-miterlimit="3.864"
         id="path2262" />
      <path
         style="fill:#ffffff;fill-rule:nonzero;stroke:#ffffff;stroke-width:0.03747479;stroke-linecap:butt;stroke-linejoin:miter;stroke-miterlimit:3.86400008"
         d="M 521.91556,466.17184 C 521.91556,450.75975 534.40326,438.26275 549.82466,438.26275 C 565.23435,438.26275 577.73145,450.75975 577.73145,466.17184 C 577.73145,481.59314 565.23435,494.08084 549.82466,494.08084 C 534.40326,494.08084 521.91556,481.59314 521.91556,466.17184 z "
         stroke-miterlimit="3.864"
         id="path2264" />
      <path
         style="fill:#009f3c;fill-rule:nonzero;stroke:#009f3c;stroke-width:0.03747479;stroke-linecap:butt;stroke-linejoin:miter;stroke-miterlimit:3.86400008"
         d="M 549.64666,439.17125 C 549.64666,439.17125 557.37465,461.15084 571.89665,478.36954 L 553.19516,478.36954 L 553.19516,483.39164 C 553.75906,492.30084 566.85485,490.72664 573.55405,480.89034 L 566.85485,494.23114 L 532.30426,494.23114 L 526.07426,480.89034 C 533.32606,491.32524 545.52266,491.76684 546.09586,483.39164 L 546.09586,478.36954 L 527.32956,478.36954 C 541.22286,461.15084 549.64666,439.17125 549.64666,439.17125 z "
         stroke-miterlimit="3.864"
         id="path2266" />
      <path
         style="fill:none;stroke:#009f3c;stroke-width:0.03747479;stroke-linecap:butt;stroke-linejoin:miter;stroke-miterlimit:3.86400008"
         d="M 519.49756,483.39164 C 516.55706,478.29434 514.87876,472.38334 514.87876,466.07694 C 514.87876,446.88315 530.44106,431.32995 549.62596,431.32995 C 568.82205,431.32995 584.37515,446.88315 584.37515,466.07694 C 584.37515,472.38334 582.69685,478.29434 579.77485,483.39164"
         stroke-miterlimit="3.864"
         id="path2268" />
    </g>
  </g>
</svg>
