<?xml version="1.0" encoding="UTF-8" standalone="no"?>
<svg
   xmlns:dc="http://purl.org/dc/elements/1.1/"
   xmlns:cc="http://creativecommons.org/ns#"
   xmlns:rdf="http://www.w3.org/1999/02/22-rdf-syntax-ns#"
   xmlns:svg="http://www.w3.org/2000/svg"
   xmlns="http://www.w3.org/2000/svg"
   xmlns:sodipodi="http://sodipodi.sourceforge.net/DTD/sodipodi-0.dtd"
   xmlns:inkscape="http://www.inkscape.org/namespaces/inkscape"
   version="1.1"
   id="Layer_1"
   x="0px"
   y="0px"
   width="584"
   height="195"
   viewBox="0 0 584 195"
   enable-background="new 0 0 612 792"
   xml:space="preserve">
<rect
   style="fill:#2f6bb4"
   id="rect11"
   height="23.038"
   width="23.075001"
   clip-path="none"
   y="165.57001"
   x="432.974"
   transform="matrix(0,2.8165751,-2.8165751,0,661.01076,-1154.4888)" /><rect
   style="fill:#cc2f41"
   id="rect13"
   height="23.038"
   width="23.075001"
   clip-path="none"
   y="188.608"
   x="432.979"
   transform="matrix(0,2.8165751,-2.8165751,0,661.01076,-1154.4888)" /><rect
   style="fill:#587dbe"
   id="rect15"
   height="23.038"
   width="23.075001"
   clip-path="none"
   y="142.53101"
   x="432.974"
   transform="matrix(0,2.8165751,-2.8165751,0,661.01076,-1154.4888)" /><rect
   style="fill:#7891ca"
   id="rect17"
   height="23.038"
   width="23.073999"
   clip-path="none"
   y="119.493"
   x="432.974"
   transform="matrix(0,2.8165751,-2.8165751,0,661.01076,-1154.4888)" /><rect
   style="fill:#98a9d7"
   id="rect19"
   height="23.038"
   width="23.073999"
   clip-path="none"
   y="96.455002"
   x="432.974"
   transform="matrix(0,2.8165751,-2.8165751,0,661.01076,-1154.4888)" /><rect
   style="fill:#bbc5e5"
   id="rect21"
   height="23.038"
   width="23.075001"
   clip-path="none"
   y="73.417"
   x="432.974"
   transform="matrix(0,2.8165751,-2.8165751,0,661.01076,-1154.4888)" /><rect
   style="fill:#2f6bb4"
   id="rect23"
   height="23.038"
   width="23.075001"
   clip-path="none"
   y="188.60899"
   x="456.04901"
   transform="matrix(0,2.8165751,-2.8165751,0,661.01076,-1154.4888)" /><rect
   style="fill:#005cab"
   id="rect25"
   height="23.039"
   width="23.075001"
   clip-path="none"
   y="211.647"
   x="456.04901"
   transform="matrix(0,2.8165751,-2.8165751,0,661.01076,-1154.4888)" /><rect
   style="fill:#587dbe"
   id="rect27"
   height="23.038"
   width="23.073999"
   clip-path="none"
   y="165.57001"
   x="456.04901"
   transform="matrix(0,2.8165751,-2.8165751,0,661.01076,-1154.4888)" /><rect
   style="fill:#7891ca"
   id="rect29"
   height="23.038"
   width="23.075001"
   clip-path="none"
   y="142.532"
   x="456.04901"
   transform="matrix(0,2.8165751,-2.8165751,0,661.01076,-1154.4888)" /><rect
   style="fill:#98a9d7"
   id="rect31"
   height="23.039"
   width="23.075001"
   clip-path="none"
   y="119.493"
   x="456.04901"
   transform="matrix(0,2.8165751,-2.8165751,0,661.01076,-1154.4888)" /><rect
   style="fill:#bbc5e5"
   id="rect33"
   height="23.038"
   width="23.075001"
   clip-path="none"
   y="96.455002"
   x="456.04901"
   transform="matrix(0,2.8165751,-2.8165751,0,661.01076,-1154.4888)" /><rect
   style="fill:#d4daee"
   id="rect35"
   height="23.038"
   width="23.075001"
   clip-path="none"
   y="73.416"
   x="456.04901"
   transform="matrix(0,2.8165751,-2.8165751,0,661.01076,-1154.4888)" /><rect
   style="fill:#d4daee"
   id="rect37"
   height="23.039"
   width="23.076"
   clip-path="none"
   y="50.377998"
   x="432.974"
   transform="matrix(0,2.8165751,-2.8165751,0,661.01076,-1154.4888)" /><rect
   style="fill:#2f6bb4"
   id="rect39"
   height="23.038"
   width="23.075001"
   clip-path="none"
   y="142.533"
   x="409.89099"
   transform="matrix(0,2.8165751,-2.8165751,0,661.01076,-1154.4888)" /><rect
   style="fill:#005cab"
   id="rect41"
   height="23.038"
   width="23.073999"
   clip-path="none"
   y="165.57201"
   x="409.896"
   transform="matrix(0,2.8165751,-2.8165751,0,661.01076,-1154.4888)" /><rect
   style="fill:#587dbe"
   id="rect43"
   height="23.038"
   width="23.075001"
   clip-path="none"
   y="119.495"
   x="409.89099"
   transform="matrix(0,2.8165751,-2.8165751,0,661.01076,-1154.4888)" /><rect
   style="fill:#7891ca"
   id="rect45"
   height="23.038"
   width="23.073999"
   clip-path="none"
   y="96.457001"
   x="409.89099"
   transform="matrix(0,2.8165751,-2.8165751,0,661.01076,-1154.4888)" /><rect
   style="fill:#98a9d7"
   id="rect47"
   height="23.038"
   width="23.073999"
   clip-path="none"
   y="73.417999"
   x="409.89099"
   transform="matrix(0,2.8165751,-2.8165751,0,661.01076,-1154.4888)" /><rect
   style="fill:#bbc5e5"
   id="rect49"
   height="23.038"
   width="23.075001"
   clip-path="none"
   y="50.380001"
   x="409.89099"
   transform="matrix(0,2.8165751,-2.8165751,0,661.01076,-1154.4888)" /><rect
   style="fill:#d4daee"
   id="rect51"
   height="23.039"
   width="23.076"
   clip-path="none"
   y="27.341999"
   x="409.89099"
   transform="matrix(0,2.8165751,-2.8165751,0,661.01076,-1154.4888)" /><path
   style="fill:#ffffff"
   inkscape:connector-curvature="0"
   id="path53"
   d="m 446.066,176.546 c 0.084,-0.453 0.111,-1.009 0.111,-1.773 0,-2.815 -1.143,-4.554 -3.036,-4.554 -1.726,0 -2.758,1.461 -2.758,4.136 0,1.078 0.057,1.808 0.142,2.191 h 5.541 m -8.522,5.247 c -0.224,-1.632 -0.389,-3.927 -0.389,-7.159 0,-3.268 0.501,-5.63 1.529,-7.195 0.921,-1.494 2.48,-2.466 4.317,-2.466 1.866,0 3.426,0.729 4.456,2.119 1.338,1.807 1.979,4.518 1.979,7.646 0,0.695 -0.029,1.321 -0.112,1.808 h 6.737 v 5.247 h -18.517"
   clip-path="none"
   transform="matrix(0,2.8165751,-2.8165751,0,661.01076,-1154.4888)" /><rect
   style="fill:#ffffff"
   id="rect55"
   height="5.316"
   width="18.889"
   clip-path="none"
   y="151.45799"
   x="437.18201"
   transform="matrix(0,2.8165751,-2.8165751,0,661.01076,-1154.4888)" /><rect
   style="fill:#ffffff"
   id="rect57"
   height="5.316"
   width="18.886999"
   clip-path="none"
   y="105.535"
   x="437.17499"
   transform="matrix(0,2.8165751,-2.8165751,0,661.01076,-1154.4888)" /><path
   style="fill:#ffffff"
   inkscape:connector-curvature="0"
   id="path59"
   d="m 445.661,134.493 v -2.079 c 0,-2.633 -1.055,-4.193 -2.693,-4.193 -1.692,0 -2.581,1.455 -2.581,3.881 0,1.282 0.056,2.009 0.139,2.391 h 5.135 m -8.023,5.23 c -0.249,-1.698 -0.416,-4.192 -0.416,-7.033 0,-3.463 0.416,-5.889 1.5,-7.551 0.889,-1.42 2.193,-2.183 3.913,-2.183 2.359,0 3.997,2.114 4.58,4.123 h 0.084 c 0.526,-1.629 1.748,-2.529 3.469,-3.119 2.138,-0.727 4.58,-1.418 5.301,-1.869 v 5.403 c -0.526,0.347 -2.053,0.936 -4.356,1.594 -2.36,0.658 -2.97,1.662 -2.999,3.846 v 1.559 h 7.355 v 5.23 h -18.431"
   clip-path="none"
   transform="matrix(0,2.8165751,-2.8165751,0,661.01076,-1154.4888)" /><polyline
   style="fill:#ffffff"
   id="polyline61"
   points="440.771,90.089 440.771,96.455 437.185,96.455 437.185,78.338    440.771,78.338 440.771,84.772 456.071,84.772 456.071,90.089 440.771,90.089  "
   clip-path="none"
   transform="matrix(0,2.8165751,-2.8165751,0,661.01076,-1154.4888)" /><path
   style="fill:#ffffff"
   inkscape:connector-curvature="0"
   id="path63"
   d="m 451.692,206.647 c 0.581,-1.38 1.161,-3.589 1.161,-5.832 0,-2.417 -0.801,-3.694 -2.046,-3.694 -1.134,0 -1.824,1.105 -2.599,3.901 -1.106,3.865 -2.821,6.419 -5.558,6.419 -3.182,0 -5.589,-3.348 -5.589,-8.801 0,-2.658 0.415,-4.555 0.941,-5.936 l 3.373,1.173 c -0.358,0.897 -0.883,2.588 -0.883,4.833 0,2.277 0.855,3.381 1.796,3.381 1.19,0 1.715,-1.276 2.656,-4.314 1.215,-4.107 2.931,-6.005 5.585,-6.005 3.125,0 5.779,2.968 5.779,9.353 0,2.657 -0.579,5.28 -1.161,6.592 l -3.455,-1.07"
   clip-path="none"
   transform="matrix(0,2.8165751,-2.8165751,0,661.01076,-1154.4888)" /><path
   style="fill:#ffffff"
   inkscape:connector-curvature="0"
   id="path65"
   d="m 464.011,194.878 v 0.02 l 2.205,0.964 v -1.949 l -2.205,0.965 m -1.072,0.736 v -1.51 l 5.343,-2.617 v 1.48 l -1.225,0.574 v 2.703 l 1.225,0.583 v 1.385 l -5.343,-2.598"
   clip-path="none"
   transform="matrix(0,2.8165751,-2.8165751,0,661.01076,-1154.4888)" /><rect
   style="fill:#ffffff"
   id="rect67"
   height="1.3380001"
   width="5.3429999"
   clip-path="none"
   y="179.468"
   x="462.939"
   transform="matrix(0,2.8165751,-2.8165751,0,661.01076,-1154.4888)" /><path
   style="fill:#ffffff"
   inkscape:connector-curvature="0"
   id="path69"
   d="m 465.22,166.876 v -0.439 c 0,-0.66 -0.076,-1.414 -0.742,-1.414 -0.643,0 -0.696,0.745 -0.696,1.414 v 0.439 h 1.438 m -2.281,1.338 v -1.443 c 0,-1.433 -0.038,-3.143 1.446,-3.143 0.628,0 1.148,0.525 1.24,1.376 h 0.015 c 0.023,-0.363 0.314,-0.574 0.553,-0.707 l 2.089,-1.07 v 1.49 l -1.669,0.803 c -0.397,0.19 -0.551,0.363 -0.551,0.926 v 0.43 h 2.22 v 1.338 h -5.343"
   clip-path="none"
   transform="matrix(0,2.8165751,-2.8165751,0,661.01076,-1154.4888)" /><polyline
   style="fill:#ffffff"
   id="polyline71"
   points="462.939,152.326 462.939,150.988 467.44,150.988 467.44,148.399    468.282,148.399 468.282,152.326 462.939,152.326  "
   clip-path="none"
   transform="matrix(0,2.8165751,-2.8165751,0,661.01076,-1154.4888)" /><rect
   style="fill:#ffffff"
   id="rect73"
   height="1.337"
   width="5.3429999"
   clip-path="none"
   y="136.39"
   x="462.939"
   transform="matrix(0,2.8165751,-2.8165751,0,661.01076,-1154.4888)" /><polyline
   style="fill:#ffffff"
   id="polyline75"
   points="462.939,125.088 462.939,123.445 466.935,120.903 466.935,120.884    462.939,120.884 462.939,119.604 468.282,119.604 468.282,121.238 464.286,123.789 464.286,123.808 468.282,123.808    468.282,125.088 462.939,125.088  "
   clip-path="none"
   transform="matrix(0,2.8165751,-2.8165751,0,661.01076,-1154.4888)" /><polyline
   style="fill:#ffffff"
   id="polyline77"
   points="462.939,108.187 462.939,104.251 463.781,104.251 463.781,106.85    465.098,106.85 465.098,104.471 465.94,104.471 465.94,106.85 467.44,106.85 467.44,104.232 468.282,104.232 468.282,108.187    462.939,108.187  "
   clip-path="none"
   transform="matrix(0,2.8165751,-2.8165751,0,661.01076,-1154.4888)" /><path
   style="fill:#ffffff"
   inkscape:connector-curvature="0"
   id="path79"
   d="m 463.919,89.357 c -0.145,0.42 -0.229,0.888 -0.229,1.356 0,0.459 0.16,1.051 0.742,1.051 0.927,0 0.536,-2.923 2.327,-2.923 1.171,0 1.615,1.156 1.615,2.503 0,0.726 -0.076,1.051 -0.206,1.71 l -0.965,-0.124 c 0.199,-0.459 0.329,-0.984 0.329,-1.51 0,-0.506 -0.206,-1.184 -0.689,-1.184 -1.018,0 -0.597,2.923 -2.365,2.923 -1.193,0 -1.631,-1.156 -1.631,-2.331 0,-0.573 0.063,-1.108 0.192,-1.595 l 0.88,0.124"
   clip-path="none"
   transform="matrix(0,2.8165751,-2.8165751,0,661.01076,-1154.4888)" />
</svg>