<?xml version="1.0" encoding="UTF-8" standalone="no"?>
<svg
   xmlns:dc="http://purl.org/dc/elements/1.1/"
   xmlns:cc="http://creativecommons.org/ns#"
   xmlns:rdf="http://www.w3.org/1999/02/22-rdf-syntax-ns#"
   xmlns:svg="http://www.w3.org/2000/svg"
   xmlns="http://www.w3.org/2000/svg"
   xmlns:sodipodi="http://sodipodi.sourceforge.net/DTD/sodipodi-0.dtd"
   xmlns:inkscape="http://www.inkscape.org/namespaces/inkscape"
   version="1.1"
   id="Layer_1"
   x="0px"
   y="0px"
   width="570"
   height="188"
   viewBox="0 0 570 188"
   enable-background="new 0 0 792 612"
   xml:space="preserve">
<path
   d="m 41.815504,94.549072 c -0.20327,3.353956 0.567668,6.039848 3.393618,7.734178 2.802399,1.84554 7.457779,2.83586 15.18204,2.83586 7.887868,0 16.609888,-1.50841 18.003031,-8.053951 1.032463,-4.869805 -2.21242,-6.220807 -10.724973,-7.222283 L 36.73995,85.981984 C 16.466244,83.46094 7.4541924,76.075049 10.747415,60.62033 15.979139,35.944092 38.786284,28.22107 72.872437,28.22107 c 24.182937,0 53.812023,4.356672 50.332883,30.215347 H 83.249124 c 0.482147,-3.862131 -1.505933,-6.37202 -4.745859,-7.723022 -3.205221,-1.497257 -7.792431,-2.014109 -12.33502,-2.014109 -10.241587,0 -16.780933,2.352479 -18.105906,8.567088 -0.604853,2.859415 1.213423,5.369304 10.063106,6.381936 l 30.018273,3.355195 c 23.940002,2.690849 34.420802,10.244065 30.645432,28.041348 -4.57109,21.490847 -27.19232,31.553957 -64.970799,31.553957 -25.196808,0 -58.3298224,-4.51409 -53.30880474,-32.048498 H 41.815504 z"
   id="path9"
   inkscape:connector-curvature="0"
   style="fill:#00549e"
   clip-path="none" /><path
   d="m 141.63968,31.914635 h 34.58689 l -2.55947,12.084652 h 0.33218 c 9.52394,-9.236392 23.2236,-14.43713 37.66693,-14.43713 32.2406,0 49.44171,17.786127 42.73132,49.362391 -5.6048,26.365612 -29.62661,47.674262 -63.0323,47.674262 -15.78193,0 -26.75852,-5.1995 -31.38539,-11.90989 h -0.33217 l -8.75796,41.14483 H 115.3001 L 141.63968,31.914635 z m 46.3183,68.836655 c 16.29878,0 26.90973,-8.060155 30.11247,-23.166589 3.2139,-15.129983 -3.96872,-23.172783 -20.2514,-23.172783 -16.62724,0 -27.28776,9.056671 -30.28227,23.172783 -2.99947,14.103718 3.80016,23.166589 20.4212,23.166589 z"
   id="path11"
   inkscape:connector-curvature="0"
   style="fill:#00549e"
   clip-path="none" /><polygon
   style="fill:#00549e"
   id="polygon15"
   points="403.53,342.19 419.139,268.76 447.854,268.76 432.249,342.19 "
   clip-path="none"
   transform="matrix(1.2394514,0,0,1.2394514,-243.55331,-301.20033)" /><polygon
   style="fill:#00549e"
   id="polygon17"
   points="420.92,260.354 424.603,243.011 453.325,243.011 449.646,260.354 "
   clip-path="none"
   transform="matrix(1.2394514,0,0,1.2394514,-243.55331,-301.20033)" /><polygon
   style="fill:#00549e"
   id="polygon21"
   points="520.157,342.19 535.761,268.76 564.479,268.76 548.877,342.19 "
   clip-path="none"
   transform="matrix(1.2394514,0,0,1.2394514,-243.55331,-301.20033)" /><polygon
   style="fill:#00549e"
   id="polygon23"
   points="537.541,260.354 541.229,243.011 569.952,243.011 566.26,260.354 "
   clip-path="none"
   transform="matrix(1.2394514,0,0,1.2394514,-243.55331,-301.20033)" /><path
   style="fill:#00549e"
   inkscape:connector-curvature="0"
   id="path27"
   d="m 468.83378,31.914635 h 18.65498 l 6.13405,-28.8742594 h 35.60696 l -6.15264,28.8742594 h 23.52355 l -5.00367,23.493802 H 518.0871 l -7.78995,36.618352 c -1.74019,8.231201 0.026,9.388841 9.60203,9.388841 4.35543,0 7.93001,-0.16236 12.67587,-0.32597 l -4.7186,22.16511 c -7.43422,1.00147 -16.98668,1.67821 -27.40427,1.67821 -23.17278,0 -31.5366,-5.69775 -27.35469,-25.351735 l 9.40496,-44.172808 h -18.65251 l 4.98384,-23.493802 z"
   clip-path="none" /><polygon
   points="444.066,342.19 472.012,342.19 487.625,268.76 459.679,268.76 "
   id="polygon29"
   style="fill:#00549e"
   clip-path="none"
   transform="matrix(1.2394514,0,0,1.2394514,-243.55331,-301.20033)" /><path
   d="m 401.80425,27.867827 c -15.89473,0 -41.19441,15.659229 -47.8639,43.541927 l -1.71292,6.280301 h 0.59742 c 5.05448,-12.100764 17.72415,-18.579377 34.79016,-18.579377 4.59712,0 9.82637,0.630881 14.03059,1.575343 l 6.91862,-32.498416 c -2.26324,-0.20203 -4.62688,-0.319778 -6.75997,-0.319778 z"
   id="path31"
   inkscape:connector-curvature="0"
   style="fill:#ee3124"
   clip-path="none" /><path
   d="m 187.55268,164.51115 c 2.13805,-6.80955 6.70915,-10.99146 17.83075,-10.99146 10.8737,0 14.15081,3.37255 12.82212,9.61938 l -3.613,16.99288 c -0.57387,2.68465 -0.0223,3.6192 1.78977,3.6192 0.80936,0 1.64351,-0.0558 2.46403,-0.12394 l -0.66435,3.12341 c -0.97793,0.18592 -2.47642,0.50074 -3.97864,0.50074 -4.68884,0 -4.26123,-3.18415 -3.77661,-5.7461 h -0.12394 c -1.8914,2.12195 -5.94441,6.49349 -16.55907,6.49349 -5.56018,0 -12.10201,-2.43676 -10.54773,-9.74209 1.86785,-8.80382 11.1439,-9.8053 18.34883,-10.18829 10.23292,-0.56271 11.60623,-1.12542 12.26933,-4.31205 1.00272,-4.68265 -1.75506,-6.37202 -9.38264,-6.37202 -7.31029,0 -11.21828,1.93602 -12.63497,7.12561 h -4.24388 z m 25.04683,4.99746 c -2.33636,1.30639 -5.51556,1.55923 -14.95026,2.43305 -5.47714,0.50569 -8.93768,2.12814 -9.7706,6.00018 -1.07584,5.05944 2.98212,6.5629 7.97587,6.5629 6.24684,0 14.27972,-3.37751 15.69766,-10.06311 l 1.04733,-4.93302 z"
   id="path35"
   inkscape:connector-curvature="0"
   style="fill:#00549e"
   clip-path="none" /><path
   d="m 233.71728,154.51621 h 4.61572 l -6.90002,32.48726 h -4.62564 l 6.90994,-32.48726 z m 2.65739,-12.49615 h 4.62687 l -1.46999,6.86656 h -4.62191 l 1.46503,-6.86656 z"
   id="path37"
   inkscape:connector-curvature="0"
   style="fill:#00549e"
   clip-path="none" /><path
   d="m 250.46351,154.51621 h 4.62068 l -1.5803,7.43423 h 0.1289 c 2.50493,-3.87081 6.54059,-8.43075 14.22394,-8.43075 1.30639,0 2.0327,0.12395 2.69085,0.24789 l -1.00767,4.74462 c -1.38447,-0.24789 -2.73547,-0.37183 -4.16456,-0.37183 -4.9987,0 -11.70662,3.06144 -13.67734,12.30899 l -3.51757,16.55287 h -4.62935 l 6.91242,-32.48602 z"
   id="path39"
   inkscape:connector-curvature="0"
   style="fill:#00549e"
   clip-path="none" /><path
   d="m 283.60396,142.02006 h 4.62068 l -9.56733,44.98341 h -4.61571 l 9.56236,-44.98341 z"
   id="path41"
   inkscape:connector-curvature="0"
   style="fill:#00549e"
   clip-path="none" /><path
   d="m 299.9325,154.51621 h 4.62191 l -6.90622,32.48726 h -4.62192 l 6.90623,-32.48726 z m 2.65738,-12.49615 h 4.62687 l -1.46999,6.86656 h -4.62191 l 1.46503,-6.86656 z"
   id="path43"
   inkscape:connector-curvature="0"
   style="fill:#00549e"
   clip-path="none" /><path
   d="m 342.82867,166.07657 c 1.36835,-6.43895 -2.08847,-8.69103 -7.95852,-8.69103 -9.06287,0 -14.16817,4.62563 -15.73235,12.00037 l -3.7481,17.61756 h -4.62564 l 6.91118,-32.48726 h 4.62564 l -1.35596,6.37078 h 0.12394 c 2.11079,-3.43204 7.8197,-7.36606 15.00108,-7.36606 10.80678,0 12.85435,5.62091 11.21208,13.36624 l -4.27735,20.1163 h -4.62191 l 4.44591,-20.9269 z"
   id="path45"
   inkscape:connector-curvature="0"
   style="fill:#00549e"
   clip-path="none" /><path
   d="m 389.37131,176.62554 c -3.09119,5.7523 -9.1645,11.37445 -19.90435,11.37445 -13.30427,0 -15.70385,-9.30952 -14.01572,-17.23953 1.92487,-9.06287 9.2302,-17.23953 21.3446,-17.23953 8.37001,0 17.53328,3.6192 14.39622,18.36495 h -31.3606 c -1.43032,6.74262 2.20995,12.23711 10.45726,12.23711 7.74409,0 11.78594,-2.55575 14.45448,-7.49745 h 4.62811 z m -2.04881,-8.24111 c 0.38299,-7.99322 -4.85246,-10.99889 -11.03856,-10.99889 -5.93201,0 -12.95474,3.06145 -15.70385,10.99889 h 26.74241 z"
   id="path47"
   inkscape:connector-curvature="0"
   style="fill:#00549e"
   clip-path="none" /><path
   d="m 427.01469,164.13931 c -0.0682,-5.25032 -3.00691,-6.75377 -9.74829,-6.75377 -4.87476,0 -9.59087,1.05849 -10.54773,5.56018 -0.72012,3.3775 1.31754,4.06416 10.90717,5.3817 9.65409,1.30638 13.40839,3.05029 12.06854,9.36653 -1.37207,6.42904 -7.44166,10.3048 -17.61756,10.3048 -10.31719,0 -15.715,-3.37007 -14.05414,-11.17737 h 4.24884 c -0.34829,5.43251 2.31901,7.30037 10.6283,7.30037 6.42531,0 11.07573,-1.30639 12.11068,-6.17991 0.69781,-3.2424 -1.31258,-4.68265 -11.21208,-5.68536 -9.91809,-1.00272 -12.96838,-3.37875 -11.74132,-9.11741 1.19359,-5.62835 6.59636,-9.61938 16.03478,-9.61938 10.55517,0 14.05662,3.80388 13.16545,10.61962 h -4.24264 z"
   id="path49"
   inkscape:connector-curvature="0"
   style="fill:#00549e"
   clip-path="none" /><path
   style="fill:#00549e"
   inkscape:connector-curvature="0"
   id="path53"
   d="m 550.98462,31.742352 h 7.55569 l -0.33713,1.586497 h -2.59789 l -1.16632,5.493249 h -2.35992 l 1.16633,-5.493249 h -2.59789 l 0.33713,-1.586497 z"
   clip-path="none" /><path
   style="fill:#00549e"
   inkscape:connector-curvature="0"
   id="path55"
   d="m 559.84546,31.742352 h 3.45063 l 0.62344,4.670253 h 0.0211 l 2.60781,-4.670253 h 3.45063 l -1.50593,7.079746 h -2.21986 l 1.12418,-5.293697 h -0.0198 l -2.98955,5.293697 h -1.94346 l -0.73872,-5.293697 h -0.0211 l -1.12418,5.293697 h -2.2211 l 1.50594,-7.079746 z"
   clip-path="none" />
</svg>