<?xml version="1.0" encoding="utf-8"?>
<!-- Generator: Adobe Illustrator 12.0.0, SVG Export Plug-In . SVG Version: 6.00 Build 51448)  -->
<!DOCTYPE svg PUBLIC "-//W3C//DTD SVG 1.1//EN" "http://www.w3.org/Graphics/SVG/1.1/DTD/svg11.dtd" [
	<!ENTITY ns_svg "http://www.w3.org/2000/svg">
	<!ENTITY ns_xlink "http://www.w3.org/1999/xlink">
]>
<svg  version="1.1" id="Layer_1" xmlns="&ns_svg;" xmlns:xlink="&ns_xlink;" width="278" height="85.5" viewBox="0 0 278 85.5"
	 overflow="visible" enable-background="new 0 0 278 85.5" xml:space="preserve">
<path fill="#EC2131" d="M88.787,32.581l20.601-0.262l-3.063,3.061l-73.118-0.931l1.18-1.178l13.98-0.179l20.465-20.465
	L88.787,32.581 M28.455,39.207l-1.182,1.18l73.12,0.931l3.064-3.064L28.455,39.207 M22.518,45.145l-1.182,1.176l73.122,0.934
	l3.063-3.065L22.518,45.145 M91.584,50.119l-75.002,0.955l-1.177,1.184l33.232,0.422l20.195,20.193L91.584,50.119"/>
<path fill="#59595B" d="M254.811,59.283c0.892,0.889,1.964,1.333,3.225,1.333c1.263,0,2.337-0.444,3.225-1.333
	c0.89-0.891,1.336-1.962,1.336-3.227c0-1.259-0.446-2.334-1.336-3.226c-0.888-0.885-1.962-1.336-3.225-1.336
	c-1.261,0-2.333,0.451-3.225,1.336c-0.889,0.892-1.332,1.967-1.332,3.226C253.479,57.321,253.922,58.393,254.811,59.283
	 M255.161,53.182c0.796-0.796,1.753-1.19,2.874-1.19c1.125,0,2.082,0.395,2.877,1.19c0.796,0.796,1.192,1.754,1.192,2.875
	c0,1.126-0.396,2.08-1.192,2.874c-0.795,0.798-1.752,1.196-2.877,1.196c-1.121,0-2.078-0.398-2.874-1.196
	c-0.791-0.794-1.189-1.748-1.189-2.874C253.972,54.936,254.37,53.978,255.161,53.182z M148.922,52.572
	c-0.901,4.563,0.615,5.44,2.23,5.44c1.305,0,2.715-0.796,3.696-2.365c1.972-3.146,3.413-10.523,3.413-14.391
	c0-3.615-1.251-5.376-3.394-5.376c-1.81,0-2.881,1.188-3.236,2.979L148.922,52.572 M146.128,66.946
	c-0.265,1.38,0.392,2.286,1.625,2.286c1.487,0,1.401,1.667,0,1.667c-1.707,0-12.772,0-12.772,0c-1.582,0-1.362-1.667-0.222-1.667
	c1.617,0,2.071-0.56,2.405-2.33l5.177-27.25c0.492-2.13-0.07-3.291-1.49-3.615c-1.243-0.291-1.268-1.418,0.045-1.722
	c3.322-0.766,8.645-2.311,10.589-3.342c0.775-0.411,1.492-0.104,1.358,1.111l-0.217,1.284c-0.175,0.922,0.306,1.315,1.519,0.218
	c1.06-0.956,3.729-2.641,6.077-2.641c4.633,0,7.536,3.388,7.536,9.757c0,10.519-6.004,19.836-15.118,19.836
	c-1.543,0-2.919-0.261-4.164-0.784c-1.014-0.419-1.09,0.714-1.202,1.252L146.128,66.946z M201.805,28.95
	c-2.35,0-4.541-1.601-4.541-4.139c0-2.633,2.486-5.231,5.417-5.231c2.429,0,4.27,1.901,4.27,4.323
	C206.95,26.74,204.347,28.95,201.805,28.95 M245.118,52.854c-0.35,1.905,0.371,2.928,1.488,2.928c0.739,0,1.62-0.525,2.577-1.579
	c0.815-0.899,1.865,0.027,1.339,0.962c-1.756,3.16-5.457,5.413-8.806,5.413c-3.272,0-5.76-1.76-5.82-5.211
	c-0.02-1.299,0.088-2.158,0.637-4.985l2.621-13.816c0.217-1.163,0.098-1.313-1.498-1.288c-1.187,0.021-1.551-1.414-0.118-2.149
	c1.967-1.012,4.109-2.392,6.031-3.947c1.923-1.562,3.634-3.295,4.93-4.83c0.721-0.85,2.111-0.572,1.882,0.795l-1.063,5.921
	c-0.212,1.149-0.046,1.457,0.309,1.457h4.204c0.725,0,0.91,0.236,0.759,0.869l-0.3,1.244c-0.105,0.437-0.358,0.641-1.161,0.641
	h-3.374c-0.939,0-1.343,0.1-1.5,0.925L245.118,52.854 M113.246,48.102c0.316-1.258,1.03-1.983,2.104-1.983
	c1.262,0,1.856,0.896,1.794,2.131c-0.4,7.794,2.525,9.69,5.255,9.69c3.394,0,6.039-3.019,6.039-6.817
	c0-1.962-0.973-4.317-3.26-6.475l-4.385-4.237c-2.594-2.567-3.521-5.03-3.521-7.452c0-7.205,7.183-12.584,15.231-12.584
	c2.836,0,5.413,0.525,7.327,1.264c1.433,0.552,1.709,1.28,1.342,2.898l-1.364,6.013c-0.378,1.493-0.938,1.826-1.753,1.826
	c-0.866,0-1.493-0.472-1.875-2.288l-0.634-3.142c-0.531-2.661-1.681-4.357-4.282-4.357c-2.46,0-5.175,1.968-5.175,5.544
	c0,1.387,0.749,2.76,2.072,3.968l5.292,4.838c3.504,3.499,4.415,6.113,4.415,9.055c0,8.31-7.044,14.428-16.104,14.428
	c-2.935,0-6.977-0.776-8.76-1.651c-1.673-0.821-1.918-1.746-1.563-3.312L113.246,48.102 M179.681,58.281
	c1.485,0,1.399,1.662,0,1.662c-1.712,0-12.748,0-12.748,0c-1.58,0-1.358-1.662-0.22-1.662c1.047,0,2.082-0.703,2.405-2.552l2.95-16
	c0.392-2.121,0.008-3.143-1.513-3.496c-1.183-0.272-1.273-1.425-0.032-1.709c4.143-0.958,8.781-2.477,9.979-3.112
	c0.94-0.499,1.586-0.067,1.389,1.12l-0.42,2.296c-0.125,0.772-0.327,1.354,0.158,1.468c0.557,0.131,0.975-0.687,1.815-1.681
	l1.059-1.188c1.56-1.395,2.533-1.787,3.714-1.787c1.757,0,3.19,1.329,3.19,3.276c0,2.129-1.369,3.863-3.56,3.863
	c-0.773,0-1.076-0.084-2.122-0.408l-1.138-0.352c-1.915-0.557-3.101,0.253-3.439,2.087l-3.098,15.889
	C177.787,57.373,178.445,58.281,179.681,58.281 M231.745,59.941l-12.811,0.002c-1.582,0-1.358-1.662-0.218-1.662
	c1.16,0,2.055-0.511,2.401-2.047l2.905-15.915c0.184-0.873,0.291-1.679,0.291-2.589c0-1.144-0.926-2.055-2.314-2.055
	c-1.82,0-3.693,1.379-4.435,5.23l-2.95,15.063c-0.263,1.378,0.396,2.312,1.631,2.312c1.49,0,1.363,1.66-0.04,1.66l-27.67,0.002
	c-1.578,0-1.356-1.662-0.216-1.662c1.312,0,2.085-0.66,2.405-2.291l3.139-16.122c0.458-2.344-0.187-3.3-1.139-3.52
	c-1.066-0.246-1.125-1.422,0.015-1.687c3.323-0.769,8.147-2.236,10.091-3.269c1.187-0.625,1.713-0.349,1.559,1.081l-4.294,23.173
	c-0.419,2.166,0.097,2.634,1.574,2.634h1.57c1.063,0,2.251-0.691,2.404-2.291l2.921-15.862c0.528-2.281,0.049-3.266-1.465-3.615
	c-1.241-0.285-1.269-1.418,0.043-1.72c3.327-0.769,8.621-2.398,10.565-3.43c1-0.527,1.693,0.033,1.455,0.965l-0.315,1.43
	c-0.175,0.921,0.211,1.117,1.473,0.075c1.976-1.64,4.675-2.502,6.414-2.502c4.166,0,6.634,1.952,6.634,5.895
	c0,1.159-0.117,2.091-0.335,3.05l-2.857,15.666c-0.264,1.38,0.339,2.34,1.568,2.34C233.234,58.281,233.15,59.941,231.745,59.941
	 M256.929,55.771h1.521c0.586,0,0.906-0.287,0.906-0.847c0-0.674-0.437-0.811-0.923-0.811h-1.505V55.771 M256.004,53.359h2.53
	c1.157,0,1.747,0.533,1.747,1.431c0,1.018-0.701,1.277-0.874,1.336v0.014c0.32,0.045,0.788,0.281,0.788,1.123
	c0,0.613,0.086,1.179,0.289,1.393h-0.995c-0.142-0.229-0.142-0.519-0.142-0.779c0-0.971-0.199-1.403-1.051-1.403h-1.368v2.183
	h-0.925V53.359z"/>
<rect fill="none" width="278" height="85.5"/>
</svg>
