<?xml version="1.0" encoding="UTF-8" standalone="no"?>
<!-- Created with Inkscape (http://www.inkscape.org/) -->
<svg
   xmlns:svg="http://www.w3.org/2000/svg"
   xmlns="http://www.w3.org/2000/svg"
   version="1.0"
   width="97.660004"
   height="33"
   id="svg2443"
   xml:space="preserve"><defs
     id="defs2446"><clipPath
       id="clipPath2458"><path
         d="M 281.795,0 L 595.275,0 L 595.275,551.055 L 281.795,551.055 L 281.795,0 z"
         id="path2460" /></clipPath><clipPath
       id="clipPath2472"><path
         d="M 0,0 L 595.276,0 L 595.276,841.89 L 0,841.89 L 0,0 z"
         id="path2474" /></clipPath><clipPath
       id="clipPath2492"><path
         d="M 410.453,80.788 L 491.648,80.788 L 491.648,107.547 L 410.453,107.547 L 410.453,80.788 z"
         id="path2494" /></clipPath><clipPath
       id="clipPath2520"><path
         d="M 0,49.145 L 277.428,49.145 L 277.428,281.991 L 0,281.991 L 0,49.145 z"
         id="path2522" /></clipPath><clipPath
       id="clipPath2534"><path
         d="M 0,493.152 L 277.488,493.152 L 277.488,707.055 L 0,707.055 L 0,493.152 z"
         id="path2536" /></clipPath><clipPath
       id="clipPath2548"><path
         d="M 310.669,841.89 L 310.669,551.055 L 595.275,551.055 L 595.275,832.293 L 534.684,841.89 L 310.669,841.89 z"
         id="path2550" /></clipPath><clipPath
       id="clipPath2562"><path
         d="M 114.749,521.592 L 144.109,312.69 L 386.469,346.751 L 361.284,551.862 L 114.749,521.592 z"
         id="path2564" /></clipPath></defs><g
     transform="matrix(1.25,0,0,-1.25,-513.06675,134.43313)"
     id="g2452"><g
       transform="translate(0.8278277,-0.9106105)"
       id="g2488"><g
         clip-path="url(#clipPath2492)"
         id="g2490"><g
           transform="translate(422.8874,104.1465)"
           id="g2496"><path
             d="M 0,0 L -0.907,0 C -3.626,0 -5.731,-1.101 -5.731,-3.497 C -5.731,-5.051 -4.598,-5.731 -3.335,-6.314 L -0.356,-7.609 C 2.104,-8.678 4.21,-10.33 4.21,-13.73 C 4.21,-18.586 0.55,-21.403 -5.278,-21.403 L -6.347,-21.403 C -7.869,-21.403 -10.005,-21.015 -11.527,-20.529 C -12.11,-20.367 -12.434,-20.011 -12.434,-19.46 C -12.434,-19.363 -12.434,-19.234 -12.143,-17.874 C -12.013,-17.324 -11.689,-16.967 -11.236,-16.967 C -11.106,-16.967 -10.977,-16.967 -10.815,-17.032 C -9.39,-17.583 -7.253,-18.003 -5.731,-18.003 L -4.89,-18.003 C -2.202,-18.003 -0.162,-16.676 -0.162,-14.118 C -0.162,-12.337 -1.425,-11.56 -3.076,-10.848 L -5.894,-9.617 C -7.739,-8.775 -10.038,-6.994 -10.038,-3.789 C -10.038,0.939 -5.796,3.4 -0.454,3.4 L 0.292,3.4 C 1.586,3.4 3.497,3.108 4.987,2.59 C 5.602,2.396 5.926,2.073 5.926,1.522 C 5.926,1.425 5.926,1.328 5.667,0.065 C 5.537,-0.486 5.181,-0.906 4.663,-0.906 C 4.533,-0.906 4.436,-0.874 4.274,-0.81 C 3.011,-0.324 1.198,0 0,0"
             id="path2498"
             style="fill:#123167;fill-opacity:1;fill-rule:nonzero;stroke:none" /></g><g
           transform="translate(439.7381,104.1465)"
           id="g2500"><path
             d="M 0,0 L -0.906,0 C -3.626,0 -5.731,-1.101 -5.731,-3.497 C -5.731,-5.051 -4.598,-5.731 -3.335,-6.314 L -0.356,-7.609 C 2.105,-8.678 4.21,-10.33 4.21,-13.73 C 4.21,-18.586 0.551,-21.403 -5.278,-21.403 L -6.346,-21.403 C -7.868,-21.403 -10.005,-21.015 -11.527,-20.529 C -12.11,-20.367 -12.434,-20.011 -12.434,-19.46 C -12.434,-19.363 -12.434,-19.234 -12.142,-17.874 C -12.013,-17.324 -11.689,-16.967 -11.236,-16.967 C -11.106,-16.967 -10.977,-16.967 -10.815,-17.032 C -9.39,-17.583 -7.253,-18.003 -5.731,-18.003 L -4.889,-18.003 C -2.202,-18.003 -0.162,-16.676 -0.162,-14.118 C -0.162,-12.337 -1.424,-11.56 -3.076,-10.848 L -5.893,-9.617 C -7.739,-8.775 -10.038,-6.994 -10.038,-3.789 C -10.038,0.939 -5.796,3.4 -0.453,3.4 L 0.291,3.4 C 1.587,3.4 3.497,3.108 4.987,2.59 C 5.602,2.396 5.926,2.073 5.926,1.522 C 5.926,1.425 5.926,1.328 5.667,0.065 C 5.537,-0.486 5.181,-0.906 4.663,-0.906 C 4.533,-0.906 4.436,-0.874 4.274,-0.81 C 3.012,-0.324 1.198,0 0,0"
             id="path2502"
             style="fill:#123167;fill-opacity:1;fill-rule:nonzero;stroke:none" /></g><g
           transform="translate(475.3578,103.9199)"
           id="g2504"><path
             d="M 0,0 L -1.457,-7.026 L 3.043,-7.026 C 5.504,-7.026 7.253,-4.922 7.253,-2.59 C 7.253,-0.842 6.12,0 4.015,0 L 0,0 z M -2.137,-10.232 L -3.659,-17.55 L 1.198,-17.55 C 4.047,-17.55 5.569,-15.672 5.569,-13.114 C 5.569,-11.269 4.08,-10.232 2.072,-10.232 L -2.137,-10.232 z M -3.627,2.202 C -3.465,2.915 -2.979,3.368 -2.202,3.368 L 5.31,3.368 C 9.293,3.368 11.624,1.619 11.624,-2.007 C 11.624,-4.954 9.682,-7.544 6.929,-8.645 C 8.645,-9.358 9.843,-10.977 9.843,-13.211 C 9.843,-17.615 6.735,-20.918 1.489,-20.918 L -7.35,-20.918 C -7.998,-20.918 -8.355,-20.594 -8.355,-20.076 C -8.355,-19.979 -8.322,-19.72 -8.29,-19.59 L -3.627,2.202 z"
             id="path2506"
             style="fill:#123167;fill-opacity:1;fill-rule:nonzero;stroke:none" /></g><g
           transform="translate(446.8736,83.002)"
           id="g2508"><path
             d="M 0,0 L -1.91,0 C -2.493,0 -2.85,0.259 -2.85,0.68 C -2.85,0.842 -2.818,1.004 -2.753,1.166 C 0.712,10.038 6.184,19.688 9.713,24.286 L 14.991,24.286 C 16.157,19.817 17.905,10.718 18.035,1.166 C 18.035,0.453 17.646,0 16.869,0 L 14.894,0 C 14.149,0 13.663,0.453 13.663,1.166 C 13.598,8.451 12.498,16.353 11.494,20.821 C 8.094,15.77 4.176,8.063 1.489,1.166 C 1.198,0.453 0.712,0 0,0"
             id="path2510"
             style="fill:#123167;fill-opacity:1;fill-rule:nonzero;stroke:none" /></g><g
           transform="translate(454.1981,93.1236)"
           id="g2512"><path
             d="M 0,0 C -0.561,0.31 -1.02,0.04 -1.02,-0.601 L -1.02,-5.588 C -1.02,-6.23 -0.561,-6.5 0,-6.189 L 4.57,-3.659 C 5.131,-3.349 5.131,-2.841 4.57,-2.53 L 0,0 z"
             id="path2514"
             style="fill:#123167;fill-opacity:1;fill-rule:nonzero;stroke:none" /></g></g></g></g></svg>