<?xml version="1.0" encoding="UTF-8" standalone="no"?>
<!-- Created with Inkscape (http://www.inkscape.org/) -->

<svg
   xmlns:dc="http://purl.org/dc/elements/1.1/"
   xmlns:cc="http://creativecommons.org/ns#"
   xmlns:rdf="http://www.w3.org/1999/02/22-rdf-syntax-ns#"
   xmlns:svg="http://www.w3.org/2000/svg"
   xmlns="http://www.w3.org/2000/svg"
   xmlns:sodipodi="http://sodipodi.sourceforge.net/DTD/sodipodi-0.dtd"
   xmlns:inkscape="http://www.inkscape.org/namespaces/inkscape"
   id="svg2985"
   version="1.1"
   inkscape:version="0.48.2 r9819"
   width="1000"
   height="217.26976"
   xml:space="preserve"
   sodipodi:docname="Stanley_QuickSquare.pdf"><metadata
     id="metadata2991"><rdf:RDF><cc:Work
         rdf:about=""><dc:format>image/svg+xml</dc:format><dc:type
           rdf:resource="http://purl.org/dc/dcmitype/StillImage" /><dc:title></dc:title></cc:Work></rdf:RDF></metadata><defs
     id="defs2989"><clipPath
       clipPathUnits="userSpaceOnUse"
       id="clipPath2999"><path
         d="M 0,396 252,396 252,0.06 0,0.06 0,396 z"
         id="path3001"
         inkscape:connector-curvature="0" /></clipPath><clipPath
       clipPathUnits="userSpaceOnUse"
       id="clipPath3061"><path
         d="m 71.1,151.803 2.562,108.894 107.175,-2.521 -2.562,-108.894"
         id="path3063"
         inkscape:connector-curvature="0" /></clipPath><clipPath
       clipPathUnits="userSpaceOnUse"
       id="clipPath3067"><path
         d="m 73.604,151.744 104.729,0 0,106.491 -104.729,0 0,-106.491 z"
         id="path3069"
         inkscape:connector-curvature="0" /></clipPath><clipPath
       clipPathUnits="userSpaceOnUse"
       id="clipPath3075"><path
         d="m -0.042133,-0.472831 0.960838,0 0,0.945665 -0.960838,0 0,-0.945665 z"
         id="path3077"
         inkscape:connector-curvature="0" /></clipPath><linearGradient
       x1="0"
       y1="0"
       x2="1"
       y2="0"
       gradientUnits="userSpaceOnUse"
       gradientTransform="matrix(2.6661,113.333,113.333,-2.6661,124.8,155.317)"
       spreadMethod="pad"
       id="linearGradient3079"><stop
         style="stop-opacity:1;stop-color:#ffffff"
         offset="0"
         id="stop3081" /><stop
         style="stop-opacity:1;stop-color:#231f20"
         offset="1"
         id="stop3083" /></linearGradient><clipPath
       clipPathUnits="userSpaceOnUse"
       id="clipPath3515"><path
         d="m 175.829,151.803 2.504,106.431 2.504,-0.059 -2.504,-106.431"
         id="path3517"
         inkscape:connector-curvature="0" /></clipPath><clipPath
       clipPathUnits="userSpaceOnUse"
       id="clipPath3521"><path
         d="m 178.333,151.744 0,106.49"
         id="path3523"
         inkscape:connector-curvature="0" /></clipPath><clipPath
       clipPathUnits="userSpaceOnUse"
       id="clipPath3529"><path
         d="m -0.042132,-0.011306 0.960828,0 0,0.022603 -0.960828,0 0,-0.022603 z"
         id="path3531"
         inkscape:connector-curvature="0" /></clipPath><linearGradient
       x1="0"
       y1="0"
       x2="1"
       y2="0"
       gradientUnits="userSpaceOnUse"
       gradientTransform="matrix(2.6058,110.77,110.77,-2.6058,177.191,156.44)"
       spreadMethod="pad"
       id="linearGradient3533"><stop
         style="stop-opacity:1;stop-color:#ffffff"
         offset="0"
         id="stop3535" /><stop
         style="stop-opacity:1;stop-color:#231f20"
         offset="1"
         id="stop3537" /></linearGradient><clipPath
       clipPathUnits="userSpaceOnUse"
       id="clipPath3549"><path
         d="m 71.08,151.718 2.504,106.433 2.504,-0.059 -2.504,-106.433"
         id="path3551"
         inkscape:connector-curvature="0" /></clipPath><clipPath
       clipPathUnits="userSpaceOnUse"
       id="clipPath3555"><path
         d="m 73.584,151.659 0,106.492"
         id="path3557"
         inkscape:connector-curvature="0" /></clipPath><clipPath
       clipPathUnits="userSpaceOnUse"
       id="clipPath3563"><path
         d="m -0.042141,-0.011301 0.960842,0 0,0.022603 -0.960842,0 0,-0.022603 z"
         id="path3565"
         inkscape:connector-curvature="0" /></clipPath><linearGradient
       x1="0"
       y1="0"
       x2="1"
       y2="0"
       gradientUnits="userSpaceOnUse"
       gradientTransform="matrix(2.6058,110.771,110.771,-2.6058,72.442,156.356)"
       spreadMethod="pad"
       id="linearGradient3567"><stop
         style="stop-opacity:1;stop-color:#ffffff"
         offset="0"
         id="stop3569" /><stop
         style="stop-opacity:1;stop-color:#231f20"
         offset="1"
         id="stop3571" /></linearGradient><clipPath
       clipPathUnits="userSpaceOnUse"
       id="clipPath3583"><path
         d="m 73.704,30.846 -2.495,108.561 107.461,2.471 2.496,-108.561"
         id="path3585"
         inkscape:connector-curvature="0" /></clipPath><clipPath
       clipPathUnits="userSpaceOnUse"
       id="clipPath3589"><path
         d="m 73.649,33.261 105.077,0 0,106.202 -105.077,0 0,-106.202 z"
         id="path3591"
         inkscape:connector-curvature="0" /></clipPath><clipPath
       clipPathUnits="userSpaceOnUse"
       id="clipPath3597"><path
         d="m 0.007313,-0.463182 0.935851,0 0,0.92638 -0.935851,0 0,-0.92638 z"
         id="path3599"
         inkscape:connector-curvature="0" /></clipPath><linearGradient
       x1="0"
       y1="0"
       x2="1"
       y2="0"
       gradientUnits="userSpaceOnUse"
       gradientTransform="matrix(-2.6671,116.002,116.002,2.6671,127.454,31.233)"
       spreadMethod="pad"
       id="linearGradient3601"><stop
         style="stop-opacity:1;stop-color:#ffffff"
         offset="0"
         id="stop3603" /><stop
         style="stop-opacity:1;stop-color:#231f20"
         offset="1"
         id="stop3605" /></linearGradient><clipPath
       clipPathUnits="userSpaceOnUse"
       id="clipPath3745"><path
         d="m 176.219,33.268 2.498,106.191 2.498,-0.059 -2.498,-106.191"
         id="path3747"
         inkscape:connector-curvature="0" /></clipPath><clipPath
       clipPathUnits="userSpaceOnUse"
       id="clipPath3751"><path
         d="m 178.717,33.209 0,106.25"
         id="path3753"
         inkscape:connector-curvature="0" /></clipPath><clipPath
       clipPathUnits="userSpaceOnUse"
       id="clipPath3759"><path
         d="m -0.042139,-0.011316 0.960836,0 0,0.022603 -0.960836,0 0,-0.022603 z"
         id="path3761"
         inkscape:connector-curvature="0" /></clipPath><linearGradient
       x1="0"
       y1="0"
       x2="1"
       y2="0"
       gradientUnits="userSpaceOnUse"
       gradientTransform="matrix(2.5999,110.52,110.52,-2.5999,177.579,37.896)"
       spreadMethod="pad"
       id="linearGradient3763"><stop
         style="stop-opacity:1;stop-color:#ffffff"
         offset="0"
         id="stop3765" /><stop
         style="stop-opacity:1;stop-color:#231f20"
         offset="1"
         id="stop3767" /></linearGradient><clipPath
       clipPathUnits="userSpaceOnUse"
       id="clipPath3779"><path
         d="m 71.164,33.393 2.494,106.008 2.494,-0.059 -2.494,-106.008"
         id="path3781"
         inkscape:connector-curvature="0" /></clipPath><clipPath
       clipPathUnits="userSpaceOnUse"
       id="clipPath3785"><path
         d="m 73.658,33.334 0,106.067"
         id="path3787"
         inkscape:connector-curvature="0" /></clipPath><clipPath
       clipPathUnits="userSpaceOnUse"
       id="clipPath3793"><path
         d="m -0.042141,-0.011302 0.960833,0 0,0.022603 -0.960833,0 0,-0.022603 z"
         id="path3795"
         inkscape:connector-curvature="0" /></clipPath><linearGradient
       x1="0"
       y1="0"
       x2="1"
       y2="0"
       gradientUnits="userSpaceOnUse"
       gradientTransform="matrix(2.5954,110.33,110.33,-2.5954,72.521,38.013)"
       spreadMethod="pad"
       id="linearGradient3797"><stop
         style="stop-opacity:1;stop-color:#ffffff"
         offset="0"
         id="stop3799" /><stop
         style="stop-opacity:1;stop-color:#231f20"
         offset="1"
         id="stop3801" /></linearGradient></defs><sodipodi:namedview
     pagecolor="#ffffff"
     bordercolor="#666666"
     borderopacity="1"
     objecttolerance="10"
     gridtolerance="10"
     guidetolerance="10"
     inkscape:pageopacity="0"
     inkscape:pageshadow="2"
     inkscape:window-width="1920"
     inkscape:window-height="1028"
     id="namedview2987"
     showgrid="false"
     fit-margin-left="0.5"
     fit-margin-top="0.5"
     fit-margin-bottom="0.5"
     fit-margin-right="0.5"
     inkscape:zoom="0.35355339"
     inkscape:cx="1975.3556"
     inkscape:cy="320.15687"
     inkscape:window-x="-8"
     inkscape:window-y="-8"
     inkscape:window-maximized="1"
     inkscape:current-layer="g2993"><inkscape:grid
       type="xygrid"
       id="grid3924"
       empspacing="5"
       visible="true"
       enabled="true"
       snapvisiblegridlinesonly="true" /></sodipodi:namedview><g
     id="g2993"
     inkscape:groupmode="layer"
     inkscape:label="Stanley_QuickSquare"
     transform="matrix(1.25,0,0,-1.25,686.96935,213.12032)"><g
       id="g3057"><g
         id="g3059"
         clip-path="url(#clipPath3061)"><g
           id="g3065"
           clip-path="url(#clipPath3067)"><g
             id="g3071"><g
               id="g3073"
               clip-path="url(#clipPath3075)"><path
                 d="m 73.604,151.744 104.729,0 0,106.491 -104.729,0 0,-106.491 z"
                 style="fill:url(#linearGradient3079);stroke:none"
                 id="path3085"
                 inkscape:connector-curvature="0" /></g></g></g></g></g><g
       id="g3511"><g
         id="g3513"
         clip-path="url(#clipPath3515)"><g
           id="g3519"
           clip-path="url(#clipPath3521)"><g
             id="g3525"><g
               id="g3527"
               clip-path="url(#clipPath3529)"><path
                 d="m 178.333,151.744 0,106.49"
                 style="fill:url(#linearGradient3533);stroke:none"
                 id="path3539"
                 inkscape:connector-curvature="0" /></g></g></g></g></g><g
       id="g3545"><g
         id="g3547"
         clip-path="url(#clipPath3549)"><g
           id="g3553"
           clip-path="url(#clipPath3555)"><g
             id="g3559"><g
               id="g3561"
               clip-path="url(#clipPath3563)"><path
                 d="m 73.584,151.659 0,106.492"
                 style="fill:url(#linearGradient3567);stroke:none"
                 id="path3573"
                 inkscape:connector-curvature="0" /></g></g></g></g></g><g
       id="g3579"><g
         id="g3581"
         clip-path="url(#clipPath3583)"><g
           id="g3587"
           clip-path="url(#clipPath3589)"><g
             id="g3593"><g
               id="g3595"
               clip-path="url(#clipPath3597)"><path
                 d="m 73.649,33.261 105.077,0 0,106.202 -105.077,0 0,-106.202 z"
                 style="fill:url(#linearGradient3601);stroke:none"
                 id="path3607"
                 inkscape:connector-curvature="0" /></g></g></g></g></g><g
       id="g3741"><g
         id="g3743"
         clip-path="url(#clipPath3745)"><g
           id="g3749"
           clip-path="url(#clipPath3751)"><g
             id="g3755"><g
               id="g3757"
               clip-path="url(#clipPath3759)"><path
                 d="m 178.717,33.209 0,106.25"
                 style="fill:url(#linearGradient3763);stroke:none"
                 id="path3769"
                 inkscape:connector-curvature="0" /></g></g></g></g></g><g
       id="g3775"><g
         id="g3777"
         clip-path="url(#clipPath3779)"><g
           id="g3783"
           clip-path="url(#clipPath3785)"><g
             id="g3789"><g
               id="g3791"
               clip-path="url(#clipPath3793)"><path
                 d="m 73.658,33.334 0,106.067"
                 style="fill:url(#linearGradient3797);stroke:none"
                 id="path3803"
                 inkscape:connector-curvature="0" /></g></g></g></g></g><g
       id="g3954"
       transform="matrix(0.44748655,0,0,0.44748655,-303.42684,-1.6130938)"><rect
         transform="scale(1,-1)"
         y="-383.71957"
         x="-549.17548"
         height="386.63913"
         width="1785.9755"
         id="rect3950"
         style="fill:#ffd20d;fill-opacity:1;fill-rule:evenodd;stroke:none" /><path
         sodipodi:nodetypes="ccccccccccccc"
         transform="matrix(0.8,0,0,-0.8,0,396)"
         inkscape:connector-curvature="0"
         id="path3926"
         d="m -597.59362,401.39674 9.54594,-70.09196 c 12.39903,7.55829 47.71017,23.06936 91.04,23.06936 33.46853,0 55.15433,-10.30571 55.15433,-28.8146 0,-55.58621 -155.29833,-23.52122 -155.29833,-135.14579 0,-65.20765 53.01244,-92.984537 130.99154,-92.984537 54.32394,0 93.42648,14.407297 93.42648,14.407297 l -8.13173,66.29126 c 0,0 -34.68281,-18.29638 -82.02439,-18.29638 -38.89955,0 -50.46974,10.77151 -50.46974,27.66555 0,49.89469 155.82865,21.69473 155.82865,131.34508 0,71.911 -59.19745,97.31557 -141.42135,97.31557 -55.12644,0 -98.6414,-14.76085 -98.6414,-14.76085 z"
         style="color:#000000;fill:#000000;fill-opacity:1;stroke:none;stroke-width:0.25;marker:none;visibility:visible;display:inline;overflow:visible;enable-background:accumulate" /><path
         sodipodi:nodetypes="ccccccccc"
         transform="matrix(0.8,0,0,-0.8,0,396)"
         inkscape:connector-curvature="0"
         id="path3928"
         d="m -248,410 0,-244.5 -88,0 0,-62.5 258,0 0,62.5 -88,0 0,244.5 z"
         style="color:#000000;fill:#000000;fill-opacity:1;stroke:none;stroke-width:0.1;marker:none;visibility:visible;display:inline;overflow:visible;enable-background:accumulate" /><path
         id="path3932"
         transform="matrix(0.8,0,0,-0.8,0,396)"
         d="m 20,103 -112.46875,307 80,0 L 8,349 l 115.0625,0 20,61 L 229,410 115,103 20,103 z M 66.71875,167.46875 105,291 26.8125,291 66.71875,167.46875 z"
         style="color:#000000;fill:#000000;fill-opacity:1;stroke:none;stroke-width:0.25;marker:none;visibility:visible;display:inline;overflow:visible;enable-background:accumulate"
         inkscape:connector-curvature="0" /><path
         sodipodi:nodetypes="ccccccccc"
         transform="matrix(0.8,0,0,-0.8,0,396)"
         inkscape:connector-curvature="0"
         id="path3936"
         d="m 274,410 0,-307 67.25,0 211.75,260.625 0,46.375 -67,0 -133,-165 0,165 z"
         style="color:#000000;fill:#000000;fill-opacity:1;stroke:none;stroke-width:0.25;marker:none;visibility:visible;display:inline;overflow:visible;enable-background:accumulate" /><path
         sodipodi:nodetypes="cccc"
         transform="matrix(0.8,0,0,-0.8,0,396)"
         inkscape:connector-curvature="0"
         id="path3938"
         d="M 553,258.625 427.625,103 553,103 z"
         style="color:#000000;fill:#000000;fill-opacity:1;stroke:none;stroke-width:0.25;marker:none;visibility:visible;display:inline;overflow:visible;enable-background:accumulate" /><path
         sodipodi:nodetypes="ccccccc"
         transform="matrix(0.8,0,0,-0.8,0,396)"
         inkscape:connector-curvature="0"
         id="path3940"
         d="m 628,410 0,-307 83.5,0 0,244 134.5,0 0,63 z"
         style="color:#000000;fill:#000000;fill-opacity:1;stroke:none;stroke-width:0.1;marker:none;visibility:visible;display:inline;overflow:visible;enable-background:accumulate" /><path
         transform="matrix(0.8,0,0,-0.8,0,396)"
         inkscape:connector-curvature="0"
         id="path3942"
         d="m 895,410 0,-307 226,0 0,61 -142,0 0,61 129,0 0,61 -129,0 0,63 147,0 0,61 z"
         style="color:#000000;fill:#000000;fill-opacity:1;stroke:none;stroke-width:0.25;marker:none;visibility:visible;display:inline;overflow:visible;enable-background:accumulate" /><path
         sodipodi:nodetypes="cccccccccc"
         transform="matrix(0.8,0,0,-0.8,0,396)"
         inkscape:connector-curvature="0"
         id="path3946"
         d="M 1270,410 1270,294.75 1156.0884,103 1251,103 1310.8232,226.7955 1370.2652,103 1464.5581,103 1352,294.125 1352,410 z"
         style="color:#000000;fill:#000000;fill-opacity:1;stroke:none;stroke-width:0.25;marker:none;visibility:visible;display:inline;overflow:visible;enable-background:accumulate" /></g></g></svg>