<?xml version="1.0" encoding="UTF-8" standalone="no"?>
<svg
   xmlns:dc="http://purl.org/dc/elements/1.1/"
   xmlns:cc="http://creativecommons.org/ns#"
   xmlns:rdf="http://www.w3.org/1999/02/22-rdf-syntax-ns#"
   xmlns:svg="http://www.w3.org/2000/svg"
   xmlns="http://www.w3.org/2000/svg"
   xmlns:sodipodi="http://sodipodi.sourceforge.net/DTD/sodipodi-0.dtd"
   xmlns:inkscape="http://www.inkscape.org/namespaces/inkscape"
   version="1.1"
   id="Layer_1"
   x="0px"
   y="0px"
   width="594"
   height="333"
   viewBox="0 0 594.00001 333.00001"
   enable-background="new 0 0 637 884"
   xml:space="preserve">
<polyline
   style="fill:#ffffff"
   points="489.013,148.567 489.013,123.045 529.201,123.045 529.201,148.571 509.175,136.995 "
   id="polyline3"
   transform="matrix(4.3535672,0,0,4.3535672,-1915.8047,-313.81383)" /><rect
   style="fill:#ffffff"
   id="rect7"
   height="122.39184"
   width="174.9568"
   y="4.0990481e-006"
   x="213.13324" /><polyline
   style="fill:#faa61a"
   points="527.754,124.492 527.754,146.158 509.143,135.306 "
   id="polyline9"
   transform="matrix(4.3535672,0,0,4.3535672,-1915.8047,-313.81383)" /><polyline
   style="fill:#faa61a"
   points="516.009,73.75 490.459,73.75 490.459,88.531 "
   id="polyline11"
   transform="matrix(4.3535672,0,0,4.3535672,-1915.8047,-313.81383)" /><polyline
   style="fill:#003874"
   points="516.015,73.75 527.75,73.75 527.75,98.73 490.459,98.73 490.459,88.541 "
   id="polyline13"
   transform="matrix(4.3535672,0,0,4.3535672,-1915.8047,-313.81383)" /><polyline
   style="fill:#003874"
   id="polyline17"
   points="527.753,124.492 490.462,146.152 490.462,124.492  "
   transform="matrix(4.3535672,0,0,4.3535672,-1915.8047,-313.81383)" /><path
   style="fill:#003874"
   inkscape:connector-curvature="0"
   id="path19"
   d="M 6.242976,188.59653 C 2.4292511,187.54732 1.5411234,188.12635 0.98386682,190.92134 0.57898507,192.94139 -3.93712e-5,195.85393 -3.93712e-5,195.85393 3.7745034,197.0947 8.3631632,198.21792 15.37676,198.21792 c 15.420335,0 22.28591,-7.62745 22.28591,-15.92535 0,-15.17218 -27.170612,-14.73683 -27.283805,-22.68209 -0.0653,-4.31003 4.109767,-6.32573 9.460301,-6.32573 3.478501,0 6.835101,0.75752 8.428506,1.14934 3.683118,0.89248 4.296971,0.71834 4.963067,-1.81108 0.531135,-2.02877 1.236413,-4.62785 1.236413,-4.62785 -2.037469,-0.78799 -8.023624,-2.15066 -13.992365,-2.15066 -13.517826,0 -20.4704728,7.49249 -20.37469433,15.21137 0.22203193,15.61189 27.11837033,14.07943 27.24027033,22.67773 0.05224,3.58298 -2.97784,6.80462 -10.674947,6.80462 -4.84552,-0.004 -7.9191389,-1.25382 -10.42244,-1.94169" /><path
   style="fill:#003874"
   inkscape:connector-curvature="0"
   d="m 59.713488,197.32979 h 7.649218 V 154.6866 h 17.07469 v -4.74539 c 0,-2.23773 -0.444063,-2.81241 -2.79499,-2.81241 H 40.531671 v 5.14592 c 0,1.90686 0.56161,2.41623 2.890769,2.41623 h 13.478644 v 39.81773 c -0.0044,2.05923 0.583378,2.82111 2.812404,2.82111"
   id="path21" /><path
   style="fill:#003874"
   inkscape:connector-curvature="0"
   d="m 122.89681,192.25788 c -0.6748,-1.80673 -2.96043,-7.16162 -2.96043,-7.16162 H 96.60997 l -5.176391,12.23353 h -7.888664 c -2.041823,0 -2.446705,-0.65739 -1.445384,-2.81676 L 103.47119,147.1288 h 6.43893 c 4.10977,0 5.74671,2.83853 7.06584,5.6727 l 19.99158,44.52829 h -6.26914 c -2.97784,0 -6.41716,-1.40185 -7.80159,-5.07191 m -14.62363,-34.98962 -8.585238,20.26586 h 16.900548 l -8.31531,-20.26586 z"
   id="path23" /><path
   style="fill:#003874"
   inkscape:connector-curvature="0"
   id="path27"
   d="m 147.37256,147.1288 h -2.95171 v 47.38423 c 0,2.34657 0.53548,2.81676 2.8124,2.81676 h 6.27784 v -34.354 c 0,0 19.73908,21.16269 24.92418,26.7875 3.76583,4.088 7.77982,7.56214 12.04196,7.56214 h 3.1694 v -47.38857 c 0,-2.28998 -0.50066,-2.81241 -2.8037,-2.81241 h -6.28655 v 34.27564 c 0,0 -18.03247,-19.96111 -24.29726,-26.71785 -4.28826,-4.61478 -7.13985,-7.55344 -12.88656,-7.55344" /><path
   style="fill:#003874"
   inkscape:connector-curvature="0"
   id="path29"
   d="M 209.08873,194.51303 V 147.1288 h 22.0247 c 14.59316,0 24.77615,10.45727 24.77615,23.9751 0,13.51347 -10.94487,26.22589 -26.54805,26.22589 H 211.9229 c -2.18549,0 -2.83417,-0.49631 -2.83417,-2.81676 m 10.59659,-4.74539 h 8.04974 c 9.16861,0 17.05728,-7.16597 17.05728,-18.58538 0,-11.42811 -7.32706,-16.49566 -16.65675,-16.49566 h -8.44157 l -0.009,35.08104 0,0 z" /><path
   style="fill:#003874"
   inkscape:connector-curvature="0"
   d="m 299.74742,192.25788 c -0.67481,-1.80673 -2.96043,-7.16162 -2.96043,-7.16162 h -23.32641 l -5.18075,12.23353 h -7.88866 c -2.03747,0 -2.44235,-0.65739 -1.44103,-2.81676 L 280.3218,147.1288 h 6.43892 c 4.10977,0 5.74236,2.83853 7.06149,5.6727 l 19.99158,44.52829 h -6.26914 c -2.97348,0 -6.41715,-1.40185 -7.79723,-5.07191 m -14.61928,-34.98962 -8.58959,20.26586 h 16.89619 l -8.3066,-20.26586 z"
   id="path31" /><path
   style="fill:#003874"
   inkscape:connector-curvature="0"
   d="m 335.41619,171.41736 c 2.30304,3.36966 8.88563,12.81254 12.72113,18.35028 3.98786,5.75106 6.77415,7.56215 13.11729,7.56215 h 5.23299 L 349.29536,174.4605 c 6.44328,-0.788 12.68195,-5.54209 12.68195,-13.98366 0,-7.45331 -5.68576,-13.34804 -15.76427,-13.34804 h -24.77615 v 47.38423 c 0,2.32045 0.6095,2.81676 2.89512,2.81676 h 7.71887 V 154.6866 h 11.58485 c 5.42019,0 7.55779,3.16939 7.55779,7.0789 0,3.64393 -2.01135,7.92349 -10.5008,8.04974 l -4.34051,0.0827 c -0.64868,0 -1.62824,0.50501 -0.93602,1.5194"
   id="path33" /><path
   style="fill:#003874"
   inkscape:connector-curvature="0"
   d="m 463.90302,150.09794 v 39.6697 h 18.74211 c 2.18984,0 2.8124,0.76623 2.8124,2.81241 v 4.74974 h -29.29515 c -2.11148,0 -2.83853,-0.74011 -2.83853,-2.81676 V 147.1288 h 7.80595 c 2.00699,0 2.77322,0.77494 2.77322,2.96914"
   id="path35" /><path
   style="fill:#003874"
   inkscape:connector-curvature="0"
   id="path39"
   d="m 590.05634,147.1288 h -28.69872 v 47.46259 c 0,1.84156 0.95779,2.7384 2.82982,2.7384 h 29.80888 v -4.74974 c 0,-1.96782 -0.788,-2.81241 -2.81241,-2.81241 h -19.26018 v -15.44645 h 15.80345 v -4.82376 c 0,-1.75448 -0.87071,-2.73839 -2.81241,-2.73839 H 571.92808 V 154.6953 h 20.95372 v -4.82375 c -0.0131,-1.76319 -0.87942,-2.74275 -2.82546,-2.74275" /><path
   style="fill:#003874"
   inkscape:connector-curvature="0"
   id="path41"
   d="M 376.15687,194.51303 V 147.1288 h 22.02905 c 14.58881,0 24.77615,10.45727 24.77615,23.9751 0,13.51347 -10.94486,26.22589 -26.5524,26.22589 h -17.41862 c -2.18549,0 -2.83418,-0.49631 -2.83418,-2.81676 m 10.60094,-4.74539 h 8.04539 c 9.16426,0 17.05728,-7.16597 17.05728,-18.58538 0,-11.42811 -7.32706,-16.49566 -16.6524,-16.49566 h -8.44156 l -0.009,35.08104 0,0 z" /><path
   style="fill:#003874"
   inkscape:connector-curvature="0"
   d="m 531.63147,197.32979 v -23.0086 h 15.79909 v -4.82376 c 0,-1.75448 -0.87071,-2.73839 -2.81676,-2.73839 H 531.64017 V 154.6953 h 20.94937 v -4.82375 c 0,-1.75449 -0.86636,-2.73404 -2.81241,-2.73404 h -28.70306 v 47.46259 c 0,1.84156 0.95778,2.73839 2.82111,2.73839"
   id="path43" /><path
   style="fill:#003874"
   inkscape:connector-curvature="0"
   d="m 496.98142,197.32979 c -2.11148,0 -2.83417,-0.74011 -2.83417,-2.81676 V 147.1288 h 7.80159 c 2.007,0 2.77323,0.77494 2.77323,2.96914 v 47.23185"
   id="path45" />
</svg>