<?xml version="1.0" encoding="UTF-8" standalone="no"?>
<!-- Created with Inkscape (http://www.inkscape.org/) -->

<svg
   xmlns:dc="http://purl.org/dc/elements/1.1/"
   xmlns:cc="http://creativecommons.org/ns#"
   xmlns:rdf="http://www.w3.org/1999/02/22-rdf-syntax-ns#"
   xmlns:svg="http://www.w3.org/2000/svg"
   xmlns="http://www.w3.org/2000/svg"
   xmlns:sodipodi="http://sodipodi.sourceforge.net/DTD/sodipodi-0.dtd"
   xmlns:inkscape="http://www.inkscape.org/namespaces/inkscape"
   width="1000"
   height="255.89308"
   id="svg3862"
   version="1.1"
   inkscape:version="0.48.2 r9819"
   sodipodi:docname="New document 4">
  <defs
     id="defs3864" />
  <sodipodi:namedview
     id="base"
     pagecolor="#ffffff"
     bordercolor="#666666"
     borderopacity="1.0"
     inkscape:pageopacity="0.0"
     inkscape:pageshadow="2"
     inkscape:zoom="0.35"
     inkscape:cx="856.64312"
     inkscape:cy="-153.06947"
     inkscape:document-units="px"
     inkscape:current-layer="layer1"
     showgrid="false"
     fit-margin-left="0.5"
     fit-margin-bottom="0.5"
     fit-margin-top="0.5"
     fit-margin-right="0.5"
     inkscape:window-width="1920"
     inkscape:window-height="1028"
     inkscape:window-x="-8"
     inkscape:window-y="-8"
     inkscape:window-maximized="1" />
  <metadata
     id="metadata3867">
    <rdf:RDF>
      <cc:Work
         rdf:about="">
        <dc:format>image/svg+xml</dc:format>
        <dc:type
           rdf:resource="http://purl.org/dc/dcmitype/StillImage" />
        <dc:title></dc:title>
      </cc:Work>
    </rdf:RDF>
  </metadata>
  <g
     inkscape:label="Layer 1"
     inkscape:groupmode="layer"
     id="layer1"
     transform="translate(481.64312,-123.39964)">
    <g
       transform="matrix(7.6947369,0,0,-7.6900103,-615.2393,3039.2133)"
       id="g3813">
      <g
         transform="translate(144.573,348.642)"
         id="g3009">
        <path
           inkscape:connector-curvature="0"
           id="path3011"
           style="fill:#231f20;fill-opacity:1;fill-rule:nonzero;stroke:none"
           d="m 0,0 c 0.367,-0.005 0.698,0.023 0.698,0.463 0,0.359 -0.323,0.427 -0.625,0.427 l -0.597,0 0,-0.89 L 0,0 z m -0.524,-1.625 -0.438,0 0,2.885 1.1,0 c 0.685,0 1.019,-0.248 1.019,-0.821 0,-0.516 -0.326,-0.744 -0.747,-0.793 l 0.821,-1.271 -0.493,0 -0.759,1.25 -0.503,0 0,-1.25 z m 0.533,-0.644 c 1.129,0 2.023,0.888 2.023,2.094 0,1.187 -0.897,2.079 -2.023,2.079 -1.146,0 -2.041,-0.892 -2.041,-2.079 0,-1.206 0.895,-2.094 2.041,-2.094 m -2.54,2.094 c 0,1.435 1.159,2.493 2.54,2.493 1.361,0 2.527,-1.058 2.527,-2.493 0,-1.45 -1.166,-2.509 -2.527,-2.509 -1.381,0 -2.54,1.059 -2.54,2.509" />
      </g>
      <g
         transform="translate(140.903,373.129)"
         id="g3013">
        <path
           inkscape:connector-curvature="0"
           id="path3015"
           style="fill:#231f20;fill-opacity:1;fill-rule:nonzero;stroke:none"
           d="m 0,0 0,5.969 -117.223,0.006 0.003,-5.966 -6.256,0 0,-21.026 6.259,0 0,-6.137 117.219,-0.009 0,6.14 6.351,-0.003 -0.004,21.021" />
      </g>
      <g
         transform="translate(34.111,353.698)"
         id="g3017">
        <path
           inkscape:connector-curvature="0"
           id="path3019"
           style="fill:#ffdf1b;fill-opacity:1;fill-rule:nonzero;stroke:none"
           d="m 0,0 c -4.329,0 -7.155,2.529 -7.267,5.488 l 5.146,0 c 0.116,-0.593 0.432,-1.025 0.89,-1.298 0.433,-0.271 0.999,-0.41 1.525,-0.41 1.342,0 2.231,0.435 2.231,1.207 0,2.484 -9.427,0.777 -9.433,7.038 0,3.487 3.008,5.237 7.111,5.237 4.551,0 6.63,-2.321 7.016,-5.191 l -5.106,0 c -0.088,0.572 -0.384,0.909 -0.773,1.117 -0.389,0.202 -0.865,0.294 -1.386,0.294 -1.185,0 -1.711,-0.34 -1.711,-0.935 0,-2.457 9.431,-0.933 9.431,-6.901 C 7.677,1.847 4.51,0 0,0" />
      </g>
      <g
         transform="translate(52.979,354.131)"
         id="g3021">
        <path
           inkscape:connector-curvature="0"
           id="path3023"
           style="fill:#ffdf1b;fill-opacity:1;fill-rule:nonzero;stroke:none"
           d="m 0,0 -5.368,0 -0.006,12.096 -4.825,0 0,4.3 15.027,0 0,-4.3 -4.828,0" />
      </g>
      <g
         transform="translate(89.932,354.127)"
         id="g3025">
        <path
           inkscape:connector-curvature="0"
           id="path3027"
           style="fill:#ffdf1b;fill-opacity:1;fill-rule:nonzero;stroke:none"
           d="m 0,0 -5.035,0 -5.851,8.928 0.201,-3.736 0.003,-5.192 -5.144,0 -0.006,16.399 5.031,0 5.858,-8.954 -0.202,3.739 -0.003,5.215 5.143,0" />
      </g>
      <g
         transform="translate(104.724,354.126)"
         id="g3029">
        <path
           inkscape:connector-curvature="0"
           id="path3031"
           style="fill:#ffdf1b;fill-opacity:1;fill-rule:nonzero;stroke:none"
           d="m 0,0 -12.752,0.001 -0.005,16.399 5.372,-0.004 0,-12.57 7.385,0" />
      </g>
      <g
         transform="translate(120.063,354.126)"
         id="g3033">
        <path
           inkscape:connector-curvature="0"
           id="path3035"
           style="fill:#ffdf1b;fill-opacity:1;fill-rule:nonzero;stroke:none"
           d="m 0,0 -13.69,0 -0.003,16.396 13.375,0 0,-3.826 -7.998,0 0,-2.344 6.764,0 0,-3.826 -6.764,0 0,-2.574 8.316,0" />
      </g>
      <g
         transform="translate(132.278,360.183)"
         id="g3037">
        <path
           inkscape:connector-curvature="0"
           id="path3039"
           style="fill:#ffdf1b;fill-opacity:1;fill-rule:nonzero;stroke:none"
           d="m 0,0 0,-6.057 -5.378,0 0,5.966 -6.101,10.431 6.014,-0.004 2.819,-5.553 2.829,5.553 5.921,0" />
      </g>
      <g
         transform="translate(62.32,359.706)"
         id="g3041">
        <path
           inkscape:connector-curvature="0"
           id="path3043"
           style="fill:#ffdf1b;fill-opacity:1;fill-rule:nonzero;stroke:none"
           d="M 0,0 1.666,5.88 3.396,0 0,0 z m 4.445,10.82 -5.468,0 -5.874,-16.395 5.261,0 0.613,2.161 5.357,0 0.637,-2.165 5.352,0" />
      </g>
    </g>
  </g>
</svg>
