<?xml version="1.0" encoding="UTF-8" standalone="no"?>
<!-- Created with Inkscape (http://www.inkscape.org/) -->
<svg
   xmlns:dc="http://purl.org/dc/elements/1.1/"
   xmlns:cc="http://web.resource.org/cc/"
   xmlns:rdf="http://www.w3.org/1999/02/22-rdf-syntax-ns#"
   xmlns:svg="http://www.w3.org/2000/svg"
   xmlns="http://www.w3.org/2000/svg"
   xmlns:xlink="http://www.w3.org/1999/xlink"
   xmlns:sodipodi="http://sodipodi.sourceforge.net/DTD/sodipodi-0.dtd"
   xmlns:inkscape="http://www.inkscape.org/namespaces/inkscape"
   width="102"
   height="32"
   id="svg2"
   sodipodi:version="0.32"
   inkscape:version="0.45.1"
   version="1.0"
   inkscape:output_extension="org.inkscape.output.svg.inkscape">
  <g
     inkscape:label="Layer 1"
     inkscape:groupmode="layer"
     id="layer1"
     transform="translate(-3.8294381,-1014.5176)">
    <g
       id="g44548"
       clip-path="url(#id1547)"
       transform="matrix(1,0,0,-1,-75.636091,1069.2284)">
      <g
         id="g44550"
         transform="matrix(9.22699e-2,0,0,7.08008e-2,253.79007,318.89429)">
        <use
           id="use44552"
           xlink:href="#id1548"
           x="0"
           y="0"
           width="744.09448"
           height="1052.3622" />
      </g>
    </g>
    <g
       id="g44912"
       transform="matrix(1,0,0,-1,97.148713,745.98248)" />
    <path
       id="path46166"
       d="M 104.18137,1044.2646 L 103.87736,1044.2646 L 103.87736,1043.6646 L 104.26539,1043.6646 C 104.46139,1043.6646 104.6774,1043.7036 104.6774,1043.9526 C 104.6774,1044.2486 104.43738,1044.2646 104.18137,1044.2646 M 104.96941,1043.9686 C 104.96941,1043.6036 104.7614,1043.4286 104.30939,1043.4286 L 103.58135,1043.4286 L 103.58135,1045.3086 L 103.87736,1045.3086 L 103.87736,1044.4996 L 104.18537,1044.4996 L 104.69739,1045.3086 L 105.01341,1045.3086 L 104.4734,1044.4806 C 104.7534,1044.4486 104.96941,1044.3036 104.96941,1043.9686 M 104.21339,1045.7436 C 103.45736,1045.7436 102.88133,1045.1496 102.88133,1044.3646 C 102.88133,1043.5916 103.45736,1042.9956 104.21339,1042.9956 C 104.9534,1042.9956 105.53343,1043.5916 105.53343,1044.3646 C 105.53343,1045.1496 104.9534,1045.7436 104.21339,1045.7436 M 104.21339,1042.7606 C 103.32934,1042.7606 102.58933,1043.4526 102.58933,1044.3646 C 102.58933,1045.2886 103.32934,1045.9846 104.21339,1045.9846 C 105.08942,1045.9846 105.82944,1045.2886 105.82944,1044.3646 C 105.82944,1043.4526 105.08942,1042.7606 104.21339,1042.7606 M 94.220978,1037.7676 L 104.9494,1021.2506 L 88.480768,1021.2506 L 85.672658,1025.5686 L 85.672658,1021.2506 L 85.672658,1021.2506 C 82.224518,1021.2666 80.072428,1021.5886 77.572328,1023.8186 L 77.572328,1021.2506 L 68.119958,1021.2506 L 68.119958,1026.3886 C 68.119958,1029.9446 71.008068,1032.9916 74.568218,1033.1876 L 77.700348,1033.3596 C 78.088358,1031.6886 79.636418,1029.4486 85.672658,1029.4646 L 85.672658,1029.4646 L 89.888818,1029.4646 L 79.160398,1045.9846 L 99.641198,1045.9846 L 104.9494,1037.7676 L 94.220978,1037.7676 z M 38.226788,1039.6956 C 35.694689,1039.6956 35.506683,1037.8446 35.506683,1036.9246 L 35.506683,1029.4646 L 38.966816,1029.4646 C 38.542798,1030.7726 38.310792,1032.1756 38.310792,1033.6366 C 38.310792,1035.7686 38.806811,1037.7796 39.682844,1039.5526 C 39.198826,1039.6276 38.698806,1039.6956 38.226788,1039.6956 M 57.035526,1023.9406 C 55.723477,1021.9556 53.675394,1020.7506 50.579274,1020.7506 C 47.011133,1020.7506 43.795006,1022.3516 41.554918,1024.9076 C 40.914892,1025.6356 40.354872,1026.4436 39.886853,1027.3126 L 39.886853,1021.2506 L 35.506683,1021.2506 L 35.506683,1014.5186 L 26.05831,1014.5186 L 26.05831,1034.4526 C 25.438286,1033.1556 24.402244,1032.0886 23.006192,1031.3356 C 21.854145,1030.7356 20.838107,1030.5076 16.59794,1029.5406 C 13.417815,1028.7556 12.773789,1028.6146 12.773789,1027.7396 C 12.773789,1026.4966 14.429854,1026.4966 14.801869,1026.4966 C 17.337969,1026.4966 19.318045,1027.7396 20.934109,1028.7556 L 24.718259,1023.1516 C 23.658217,1022.4706 22.302163,1021.8236 20.058074,1021.2886 C 18.258005,1020.8726 16.457933,1020.6386 14.661862,1020.6386 C 13.093801,1020.6386 9.0376432,1020.7346 6.2255321,1023.4066 C 4.7974771,1024.7916 3.8294381,1026.7276 3.8294381,1028.8486 C 3.8294381,1033.9156 8.2096101,1035.2076 10.421697,1035.8516 C 12.589782,1036.4966 14.569859,1036.8206 15.401893,1036.9596 C 16.369929,1037.0966 17.797986,1037.3286 17.797986,1038.5246 C 17.797986,1039.5886 16.457933,1040.0006 15.309889,1040.0006 C 14.525858,1040.0006 13.233807,1039.9076 11.52974,1039.2156 C 9.6856682,1038.4326 8.8096321,1037.6526 7.9335991,1036.7776 L 3.9574431,1042.6566 C 6.2095311,1044.3256 9.8376732,1046.4086 15.401893,1046.4086 C 21.074116,1046.4086 24.698256,1043.9806 26.090311,1040.7356 C 26.178316,1041.9006 26.490328,1043.3526 27.674373,1044.5376 C 29.562449,1046.4736 32.926579,1046.5166 33.942621,1046.5166 C 35.922696,1046.5166 37.814771,1046.2886 39.934856,1046.0126 L 39.934856,1040.0356 C 42.050939,1043.9076 46.023094,1046.5166 50.579274,1046.5166 C 53.675394,1046.5166 55.723477,1045.3126 57.035526,1043.3286 L 57.035526,1045.9846 L 66.483898,1045.9846 L 66.483898,1040.8846 C 66.483898,1037.3246 63.599784,1034.2796 60.039645,1034.0796 L 57.023525,1033.9116 C 56.875519,1036.4886 54.747437,1038.5326 52.139334,1038.5326 C 49.435229,1038.5326 47.239142,1036.3396 47.239142,1033.6366 C 47.239142,1030.9276 49.435229,1028.7366 52.139334,1028.7366 C 54.747437,1028.7366 56.875519,1030.7806 57.023525,1033.3556 L 60.039645,1033.1876 C 63.599784,1032.9916 66.483898,1029.9446 66.483898,1026.3886 L 66.483898,1021.2506 L 57.035526,1021.2506 L 57.035526,1023.9406 z M 68.119958,1040.8846 L 68.119958,1045.9846 L 77.572328,1045.9846 L 77.572328,1034.3766 C 77.576338,1034.2366 77.588338,1034.0796 77.604328,1033.9116 L 74.568218,1034.0796 C 71.008068,1034.2796 68.119958,1037.3246 68.119958,1040.8846"
       style="fill:#221e1f;fill-rule:nonzero;stroke:none" />
    <g
       transform="matrix(1,0,0,-1,359.65901,798.97768)"
       id="g47068" />
    <g
       transform="matrix(1,0,0,-1,353.68491,798.97768)"
       id="g47070" />
    <g
       transform="matrix(1,0,0,-1,351.01711,801.64578)"
       id="g47072" />
    <g
       transform="matrix(1,0,0,-1,356.67451,801.98088)"
       id="g47086" />
    <g
       transform="matrix(1,0,0,-1,375.31621,798.98288)"
       id="g47120" />
    <g
       transform="matrix(1,0,0,-1,369.34171,798.98288)"
       id="g47122" />
    <g
       transform="matrix(1,0,0,-1,366.67421,801.65098)"
       id="g47124" />
    <g
       transform="matrix(1,0,0,-1,372.33151,801.98618)"
       id="g47138" />
    <g
       id="g48512"
       clip-path="url(#id1748)"
       transform="matrix(1,0,0,-1,-75.636091,1069.2284)">
      <g
         id="g48514"
         clip-path="url(#id1749)">
        <g
           id="g48516"
           clip-path="url(#id1750)">
          <g
             id="g48518"
             transform="matrix(0.1854706,0,0,0.1854858,193.94365,446.67957)">
            <use
               id="use48520"
               xlink:href="#id1751"
               x="0"
               y="0"
               width="744.09448"
               height="1052.3622" />
          </g>
        </g>
      </g>
    </g>
    <g
       id="g51878"
       clip-path="url(#id1925)"
       transform="matrix(1,0,0,-1,-75.636091,1069.2284)">
      <g
         id="g51880"
         transform="translate(358.7513,460.6634)">
        <path
           id="path51882"
           d="M 0,0 C -0.523,0 -0.947,0.522 -0.947,1.165 C -0.947,1.809 -0.523,2.331 0,2.331 C 0.523,2.331 0.947,1.809 0.947,1.165 C 0.947,0.522 0.523,0 0,0 M 2.501,1.748 C 2.112,2.865 1.287,3.448 0.121,3.496 C 0.121,3.496 -2.647,3.691 -2.647,1.02 C -2.647,1.02 -2.55,-1.166 -0.461,-1.069 C -0.461,-1.069 0.218,-1.117 0.85,-0.583 C 0.85,-0.583 0.999,-1.131 0.805,-1.665 C 0.611,-2.2 0.139,-2.566 -0.365,-2.234 C -0.365,-2.234 -0.605,-2.057 -0.656,-1.651 L -2.55,-1.797 C -2.55,-1.797 -2.015,-3.497 -0.073,-3.4 C 1.869,-3.302 2.341,-2.122 2.501,-1.603 C 2.607,-1.261 2.89,0.631 2.501,1.748"
           style="fill:#ffffff;fill-rule:nonzero;stroke:none" />
      </g>
    </g>
    <g
       id="g52538"
       clip-path="url(#id1953)"
       transform="matrix(1,0,0,-1,-75.636091,1069.2284)">
      <g
         id="g52540"
         clip-path="url(#id1954)">
        <g
           id="g52542"
           transform="matrix(0,2.289e-4,2.289e-4,0,299.81081,488.77924)">
          <path
             id="path52544"
             d="M -2135339.6,-1309789.5 L 498998.53,-1309789.5 L 498998.53,1127956.3 L -2135339.6,1127956.3 L -2135339.6,-1309789.5 z "
             style="fill:url(#linearGradient49821)" />
        </g>
      </g>
    </g>
  </g>
</svg>
