<?xml version="1.0" encoding="UTF-8" standalone="no"?>
<!-- Created with Inkscape (http://www.inkscape.org/) -->
<svg
   xmlns:dc="http://purl.org/dc/elements/1.1/"
   xmlns:cc="http://web.resource.org/cc/"
   xmlns:rdf="http://www.w3.org/1999/02/22-rdf-syntax-ns#"
   xmlns:svg="http://www.w3.org/2000/svg"
   xmlns="http://www.w3.org/2000/svg"
   xmlns:sodipodi="http://sodipodi.sourceforge.net/DTD/sodipodi-0.dtd"
   xmlns:inkscape="http://www.inkscape.org/namespaces/inkscape"
   width="189"
   height="118"
   id="svg2"
   sodipodi:version="0.32"
   inkscape:version="0.45.1"
   version="1.0"
   inkscape:output_extension="org.inkscape.output.svg.inkscape">
  <g
     inkscape:label="Layer 1"
     inkscape:groupmode="layer"
     id="layer1"
     transform="translate(-4.2237596,-932.44968)">
    <g
       id="g2173"
       transform="matrix(6.6118253,0,0,6.6118253,-23.7,-5894.9389)">
      <path
         style="fill:#3b3938;fill-rule:nonzero;stroke:none"
         d="M 11.65202,1046.8875 C 11.64302,1046.7285 11.55602,1046.6065 11.43302,1046.5215 C 11.32002,1046.4295 11.16702,1046.3825 11.01402,1046.3825 C 10.74802,1046.3825 10.44302,1046.4385 10.44302,1046.7565 C 10.44302,1046.8965 10.55702,1046.9615 10.66202,1047.0085 C 10.97602,1047.1405 11.69002,1047.1775 12.31902,1047.3825 C 12.94802,1047.5795 13.49902,1047.9435 13.49902,1048.7385 C 13.49902,1050.0855 12.18602,1050.4495 10.98602,1050.4495 C 9.82302,1050.4495 8.54802,1049.9915 8.51902,1048.7385 L 10.31902,1048.7385 C 10.32802,1048.9065 10.40502,1049.0475 10.54702,1049.1685 C 10.64302,1049.2525 10.82402,1049.3085 11.05102,1049.3085 C 11.30002,1049.3085 11.69002,1049.2155 11.69002,1048.9345 C 11.69002,1048.6555 11.52802,1048.5695 10.65202,1048.4205 C 9.21402,1048.1775 8.63302,1047.7285 8.63302,1046.8965 C 8.63302,1045.6725 9.97602,1045.3545 10.96702,1045.3545 C 12.03302,1045.3545 13.31802,1045.6445 13.36602,1046.8875 L 11.65202,1046.8875"
         id="path42054" />
      <path
         style="fill:#3b3938;fill-rule:nonzero;stroke:none"
         d="M 16.33802,1045.4755 L 17.34702,1045.4755 L 17.34702,1046.6175 L 16.33802,1046.6175 L 16.33802,1048.3085 C 16.33802,1048.7565 16.44302,1048.9535 16.91802,1048.9535 C 17.06102,1048.9535 17.20402,1048.9435 17.34702,1048.9255 L 17.34702,1050.3275 C 16.96502,1050.3275 16.53702,1050.3845 16.13702,1050.3845 C 15.33702,1050.3845 14.45202,1050.2625 14.45202,1048.9345 L 14.45202,1046.6175 L 13.61302,1046.6175 L 13.61302,1045.4755 L 14.45202,1045.4755 L 14.45202,1043.9985 L 16.33802,1043.9985 L 16.33802,1045.4755"
         id="path42056" />
      <path
         style="fill:#3b3938;fill-rule:nonzero;stroke:none"
         d="M 20.95602,1048.1495 C 20.72702,1048.2615 20.47002,1048.3265 20.21202,1048.3845 C 19.79402,1048.4775 19.57502,1048.5795 19.57502,1048.9065 C 19.57502,1049.1315 19.82302,1049.3555 20.16502,1049.3555 C 20.59402,1049.3555 20.92702,1049.1025 20.95602,1048.5975 L 20.95602,1048.1495 z M 22.76502,1049.2435 C 22.76502,1049.6075 22.78402,1050.0185 22.99502,1050.3275 L 21.07002,1050.3275 C 21.02302,1050.1975 20.99402,1050.0005 21.00302,1049.8695 L 20.98502,1049.8695 C 20.58502,1050.3175 20.00302,1050.4495 19.39402,1050.4495 C 18.44102,1050.4495 17.65102,1050.0005 17.65102,1048.9815 C 17.65102,1047.4485 19.48002,1047.5045 20.44202,1047.3275 C 20.69802,1047.2795 20.95602,1047.2055 20.95602,1046.8965 C 20.95602,1046.5705 20.64102,1046.4485 20.33702,1046.4485 C 19.75702,1046.4485 19.64202,1046.7385 19.63202,1046.9425 L 17.87902,1046.9425 C 17.93702,1045.5785 19.25202,1045.3545 20.42202,1045.3545 C 22.78402,1045.3545 22.76502,1046.3175 22.76502,1047.2525 L 22.76502,1049.2435"
         id="path42058" />
      <path
         style="fill:#3b3938;fill-rule:nonzero;stroke:none"
         d="M 23.38402,1045.4755 L 25.19402,1045.4755 L 25.19402,1046.2515 L 25.21402,1046.2515 C 25.51702,1045.6725 25.91802,1045.3545 26.60302,1045.3545 C 26.79402,1045.3545 26.97502,1045.3825 27.15602,1045.4295 L 27.15602,1047.0655 C 26.96602,1046.9995 26.79402,1046.9425 26.41302,1046.9425 C 25.67002,1046.9425 25.27102,1047.3735 25.27102,1048.4115 L 25.27102,1050.3275 L 23.38402,1050.3275 L 23.38402,1045.4755"
         id="path42060" />
      <path
         style="fill:#3b3938;fill-rule:nonzero;stroke:none"
         d="M 27.26102,1048.8975 L 29.57402,1046.8215 L 27.47002,1046.8215 L 27.47002,1045.4755 L 31.99302,1045.4755 L 31.99302,1046.8965 L 29.73602,1048.9815 L 32.19302,1048.9815 L 32.19302,1050.3275 L 27.26102,1050.3275 L 27.26102,1048.8975 z "
         id="path42062" />
      <path
         style="fill:#00a9bb;fill-rule:nonzero;stroke:none"
         d="M 26.16702,1035.1755 C 25.84302,1035.0495 25.49002,1034.9825 25.15302,1034.9035 C 24.78002,1034.8175 24.40602,1034.7385 24.03102,1034.6615 C 23.08802,1034.4685 22.13402,1034.3175 21.17402,1034.2315 C 19.27602,1034.0615 17.43302,1034.0465 15.47502,1034.3345 C 14.92502,1034.4155 14.70302,1034.4665 14.16402,1034.5995 C 14.08202,1034.6195 14.12002,1034.7385 14.19702,1034.7215 C 15.35902,1034.4765 17.81502,1034.5045 19.72202,1034.6545 C 20.66302,1034.7285 21.51102,1034.8955 22.44102,1035.0685 C 23.28402,1035.2255 24.11902,1035.4285 24.94802,1035.6495 C 25.28602,1035.7395 25.61802,1035.8475 25.95202,1035.9565 C 26.16102,1036.0255 26.39302,1035.8785 26.45002,1035.6735 C 26.51202,1035.4445 26.37202,1035.2565 26.16702,1035.1755"
         id="path42064" />
      <path
         style="fill:#00a9bb;fill-rule:nonzero;stroke:none"
         d="M 26.16702,1035.1755 C 25.84302,1035.0495 25.49002,1034.9825 25.15302,1034.9035 C 24.78002,1034.8175 24.40602,1034.7385 24.03102,1034.6615 C 23.08802,1034.4685 22.13402,1034.3175 21.17402,1034.2315 C 19.27602,1034.0615 17.43302,1034.0465 15.47502,1034.3345 C 14.92502,1034.4155 14.70302,1034.4665 14.16402,1034.5995 C 14.08202,1034.6195 14.12002,1034.7385 14.19702,1034.7215 C 15.35902,1034.4765 17.81502,1034.5045 19.72202,1034.6545 C 20.66302,1034.7285 21.51102,1034.8955 22.44102,1035.0685 C 23.28402,1035.2255 24.11902,1035.4285 24.94802,1035.6495 C 25.28602,1035.7395 25.61802,1035.8475 25.95202,1035.9565 C 26.16102,1036.0255 26.39302,1035.8785 26.45002,1035.6735 C 26.51202,1035.4445 26.37202,1035.2565 26.16702,1035.1755"
         id="path42066" />
      <path
         style="fill:#00a9bb;fill-rule:nonzero;stroke:none"
         d="M 26.20202,1035.2405 L 26.19002,1035.2405 C 26.19002,1035.2405 26.19002,1035.2405 26.18902,1035.2405 C 26.13102,1035.2425 26.01802,1035.2485 26.12702,1035.2475 C 26.09502,1035.2475 26.06302,1035.2485 26.03202,1035.2485 C 25.90902,1035.2505 25.79202,1035.2635 25.67202,1035.2805 C 25.43802,1035.3165 25.20702,1035.3585 24.97502,1035.4025 C 24.52602,1035.4885 24.07902,1035.5885 23.63002,1035.6755 C 22.71102,1035.8535 21.79802,1036.0445 20.89102,1036.2825 C 19.14502,1036.7425 17.57502,1037.3095 15.93002,1038.0525 C 13.31902,1039.2335 10.03902,1041.1915 7.45202,1043.4185 C 6.32402,1044.3895 5.00602,1045.5935 4.24102,1046.8765 C 4.16702,1047.0005 4.35002,1047.0995 4.43002,1046.9875 C 5.27002,1045.7085 6.76002,1044.4815 8.10402,1043.4435 C 9.45702,1042.3985 10.88402,1041.4455 12.36202,1040.5865 C 13.82502,1039.7375 15.34902,1038.9895 16.91802,1038.3575 C 18.60602,1037.6775 20.35102,1037.1535 22.12802,1036.7575 C 22.83602,1036.5995 23.66202,1036.4395 24.37302,1036.3005 C 24.73402,1036.2295 24.98502,1036.1975 25.34702,1036.1345 C 25.50702,1036.1055 25.66902,1036.0815 25.83102,1036.0625 C 25.91002,1036.0535 25.99102,1036.0585 26.07202,1036.0605 C 26.09002,1036.0605 26.11002,1036.0605 26.12702,1036.0605 C 26.01702,1036.0585 26.13102,1036.0655 26.18902,1036.0675 L 26.19002,1036.0675 L 26.20202,1036.0675 C 26.42802,1036.0675 26.61502,1035.8785 26.61502,1035.6545 C 26.61502,1035.4285 26.42802,1035.2405 26.20202,1035.2405"
         id="path42068" />
      <path
         style="fill:#00a9bb;fill-rule:nonzero;stroke:none"
         d="M 26.20202,1035.2405 L 26.19002,1035.2405 C 26.19002,1035.2405 26.19002,1035.2405 26.18902,1035.2405 C 26.13102,1035.2425 26.01802,1035.2485 26.12702,1035.2475 C 26.09502,1035.2475 26.06302,1035.2485 26.03202,1035.2485 C 25.90902,1035.2505 25.79202,1035.2635 25.67202,1035.2805 C 25.43802,1035.3165 25.20702,1035.3585 24.97502,1035.4025 C 24.52602,1035.4885 24.07902,1035.5885 23.63002,1035.6755 C 22.71102,1035.8535 21.79802,1036.0445 20.89102,1036.2825 C 19.14502,1036.7425 17.57502,1037.3095 15.93002,1038.0525 C 13.31902,1039.2335 10.03902,1041.1915 7.45202,1043.4185 C 6.32402,1044.3895 5.00602,1045.5935 4.24102,1046.8765 C 4.16702,1047.0005 4.35002,1047.0995 4.43002,1046.9875 C 5.27002,1045.7085 6.76002,1044.4815 8.10402,1043.4435 C 9.45702,1042.3985 10.88402,1041.4455 12.36202,1040.5865 C 13.82502,1039.7375 15.34902,1038.9895 16.91802,1038.3575 C 18.60602,1037.6775 20.35102,1037.1535 22.12802,1036.7575 C 22.83602,1036.5995 23.66202,1036.4395 24.37302,1036.3005 C 24.73402,1036.2295 24.98502,1036.1975 25.34702,1036.1345 C 25.50702,1036.1055 25.66902,1036.0815 25.83102,1036.0625 C 25.91002,1036.0535 25.99102,1036.0585 26.07202,1036.0605 C 26.09002,1036.0605 26.11002,1036.0605 26.12702,1036.0605 C 26.01702,1036.0585 26.13102,1036.0655 26.18902,1036.0675 L 26.19002,1036.0675 L 26.20202,1036.0675 C 26.42802,1036.0675 26.61502,1035.8785 26.61502,1035.6545 C 26.61502,1035.4285 26.42802,1035.2405 26.20202,1035.2405"
         id="path42070" />
      <path
         style="fill:#00a9bb;fill-rule:nonzero;stroke:none"
         d="M 21.59702,1033.0595 C 18.47802,1035.0415 15.89702,1037.7695 13.57102,1040.6145 C 13.22402,1041.0375 12.89402,1041.4695 12.58802,1041.9245 C 12.52902,1042.0125 12.47202,1042.0925 12.42602,1042.1905 C 12.40002,1042.2445 12.37802,1042.3005 12.35502,1042.3555 C 12.34302,1042.3855 12.29902,1042.5655 12.30202,1042.5345 C 12.28402,1042.6455 12.28202,1042.7575 12.34302,1042.8605 C 12.44102,1043.0275 12.63502,1043.0935 12.81902,1043.0405 C 13.01702,1042.9835 13.13802,1042.7755 13.08302,1042.5745 C 13.07902,1042.5595 13.07202,1042.5455 13.06602,1042.5305 C 13.08202,1042.4865 13.10802,1042.4315 13.14802,1042.3745 C 13.28002,1042.1865 13.39102,1041.9845 13.52102,1041.7945 C 13.78902,1041.4015 14.08102,1041.0235 14.37202,1040.6465 C 14.93402,1039.9175 15.51902,1039.2045 16.12002,1038.5065 C 16.72902,1037.7995 17.36202,1037.1135 17.99702,1036.4305 C 18.61802,1035.7625 19.27802,1035.1435 19.95302,1034.5335 C 20.49502,1034.0425 21.05702,1033.5785 21.65502,1033.1575 C 21.71402,1033.1165 21.66102,1033.0205 21.59702,1033.0595 M 12.30202,1042.5345 C 12.30502,1042.5175 12.30802,1042.5005 12.31102,1042.4845 C 12.30602,1042.5125 12.30302,1042.5275 12.30202,1042.5345"
         id="path42072" />
      <path
         style="fill:#00a9bb;fill-rule:nonzero;stroke:none"
         d="M 21.59702,1033.0595 C 18.47802,1035.0415 15.89702,1037.7695 13.57102,1040.6145 C 13.22402,1041.0375 12.89402,1041.4695 12.58802,1041.9245 C 12.52902,1042.0125 12.47202,1042.0925 12.42602,1042.1905 C 12.40002,1042.2445 12.37802,1042.3005 12.35502,1042.3555 C 12.34302,1042.3855 12.29902,1042.5655 12.30202,1042.5345 C 12.28402,1042.6455 12.28202,1042.7575 12.34302,1042.8605 C 12.44102,1043.0275 12.63502,1043.0935 12.81902,1043.0405 C 13.01702,1042.9835 13.13802,1042.7755 13.08302,1042.5745 C 13.07902,1042.5595 13.07202,1042.5455 13.06602,1042.5305 C 13.08202,1042.4865 13.10802,1042.4315 13.14802,1042.3745 C 13.28002,1042.1865 13.39102,1041.9845 13.52102,1041.7945 C 13.78902,1041.4015 14.08102,1041.0235 14.37202,1040.6465 C 14.93402,1039.9175 15.51902,1039.2045 16.12002,1038.5065 C 16.72902,1037.7995 17.36202,1037.1135 17.99702,1036.4305 C 18.61802,1035.7625 19.27802,1035.1435 19.95302,1034.5335 C 20.49502,1034.0425 21.05702,1033.5785 21.65502,1033.1575 C 21.71402,1033.1165 21.66102,1033.0205 21.59702,1033.0595 M 12.30202,1042.5345 C 12.30502,1042.5175 12.30802,1042.5005 12.31102,1042.4845 C 12.30602,1042.5125 12.30302,1042.5275 12.30202,1042.5345"
         id="path42074" />
      <path
         style="fill:#00a9bb;fill-rule:nonzero;stroke:none"
         d="M 23.22802,1032.8285 C 23.11702,1032.5955 22.95202,1032.5605 22.71602,1032.6435 C 22.68902,1032.6535 22.69102,1032.7005 22.72402,1032.6975 C 22.85202,1032.6825 23.00102,1032.6825 23.01202,1032.8455 C 23.02302,1033.0015 22.94202,1033.1605 22.87302,1033.2955 C 22.71202,1033.6085 22.59302,1033.9395 22.45702,1034.2635 C 22.18202,1034.9125 21.93302,1035.5705 21.72502,1036.2445 C 21.51602,1036.9135 21.33302,1037.5915 21.17002,1038.2725 C 21.08902,1038.6085 21.01802,1038.9465 20.93102,1039.2805 C 20.84402,1039.6165 20.76502,1039.9575 20.75202,1040.3055 C 20.74402,1040.5615 21.00902,1040.7475 21.24702,1040.6815 C 21.42502,1040.6325 21.54502,1040.4545 21.53502,1040.2775 C 21.53702,1039.9535 21.61702,1039.6405 21.68602,1039.3255 C 21.76902,1038.9485 21.83202,1038.5665 21.91102,1038.1885 C 22.06502,1037.4485 22.25102,1036.7155 22.45102,1035.9865 C 22.65102,1035.2575 22.91302,1034.5465 23.11002,1033.8165 C 23.18902,1033.5215 23.37302,1033.1295 23.22802,1032.8285"
         id="path42076" />
      <path
         style="fill:#00a9bb;fill-rule:nonzero;stroke:none"
         d="M 23.22802,1032.8285 C 23.11702,1032.5955 22.95202,1032.5605 22.71602,1032.6435 C 22.68902,1032.6535 22.69102,1032.7005 22.72402,1032.6975 C 22.85202,1032.6825 23.00102,1032.6825 23.01202,1032.8455 C 23.02302,1033.0015 22.94202,1033.1605 22.87302,1033.2955 C 22.71202,1033.6085 22.59302,1033.9395 22.45702,1034.2635 C 22.18202,1034.9125 21.93302,1035.5705 21.72502,1036.2445 C 21.51602,1036.9135 21.33302,1037.5915 21.17002,1038.2725 C 21.08902,1038.6085 21.01802,1038.9465 20.93102,1039.2805 C 20.84402,1039.6165 20.76502,1039.9575 20.75202,1040.3055 C 20.74402,1040.5615 21.00902,1040.7475 21.24702,1040.6815 C 21.42502,1040.6325 21.54502,1040.4545 21.53502,1040.2775 C 21.53702,1039.9535 21.61702,1039.6405 21.68602,1039.3255 C 21.76902,1038.9485 21.83202,1038.5665 21.91102,1038.1885 C 22.06502,1037.4485 22.25102,1036.7155 22.45102,1035.9865 C 22.65102,1035.2575 22.91302,1034.5465 23.11002,1033.8165 C 23.18902,1033.5215 23.37302,1033.1295 23.22802,1032.8285"
         id="path42078" />
      <path
         style="fill:#00a9bb;fill-rule:nonzero;stroke:none"
         d="M 21.42002,1040.1175 C 21.36202,1040.0265 21.30502,1039.9005 21.20302,1039.8515 C 21.22402,1039.8885 21.21702,1039.8815 21.18302,1039.8305 C 21.15102,1039.7885 21.11902,1039.7465 21.08902,1039.7035 C 20.98802,1039.5615 20.88602,1039.4185 20.78402,1039.2775 C 20.57702,1038.9945 20.36502,1038.7145 20.14402,1038.4415 C 19.70902,1037.9045 19.21502,1037.4275 18.73802,1036.9295 C 18.28602,1036.4575 17.79002,1036.0275 17.24602,1035.6655 C 16.71702,1035.3125 16.18102,1035.0845 15.43802,1034.9235 C 15.35902,1034.9065 15.34002,1035.0495 15.41902,1035.0655 C 15.74702,1035.1285 16.04602,1035.2855 16.34602,1035.4265 C 16.62902,1035.5595 16.90002,1035.7365 17.15802,1035.9135 C 17.67802,1036.2715 18.14302,1036.7055 18.57102,1037.1665 C 19.02102,1037.6505 19.42902,1038.1615 19.78902,1038.7165 C 19.96702,1038.9925 20.13502,1039.2755 20.29802,1039.5605 C 20.38602,1039.7125 20.47002,1039.8645 20.55502,1040.0155 C 20.57202,1040.0465 20.58902,1040.0775 20.60402,1040.1085 C 20.61502,1040.1305 20.64502,1040.2515 20.64602,1040.1715 C 20.64402,1040.2945 20.71802,1040.3935 20.77802,1040.4935 C 21.02602,1040.9045 21.67902,1040.5235 21.42002,1040.1175"
         id="path42080" />
      <path
         style="fill:#00a9bb;fill-rule:nonzero;stroke:none"
         d="M 21.42002,1040.1175 C 21.36202,1040.0265 21.30502,1039.9005 21.20302,1039.8515 C 21.22402,1039.8885 21.21702,1039.8815 21.18302,1039.8305 C 21.15102,1039.7885 21.11902,1039.7465 21.08902,1039.7035 C 20.98802,1039.5615 20.88602,1039.4185 20.78402,1039.2775 C 20.57702,1038.9945 20.36502,1038.7145 20.14402,1038.4415 C 19.70902,1037.9045 19.21502,1037.4275 18.73802,1036.9295 C 18.28602,1036.4575 17.79002,1036.0275 17.24602,1035.6655 C 16.71702,1035.3125 16.18102,1035.0845 15.43802,1034.9235 C 15.35902,1034.9065 15.34002,1035.0495 15.41902,1035.0655 C 15.74702,1035.1285 16.04602,1035.2855 16.34602,1035.4265 C 16.62902,1035.5595 16.90002,1035.7365 17.15802,1035.9135 C 17.67802,1036.2715 18.14302,1036.7055 18.57102,1037.1665 C 19.02102,1037.6505 19.42902,1038.1615 19.78902,1038.7165 C 19.96702,1038.9925 20.13502,1039.2755 20.29802,1039.5605 C 20.38602,1039.7125 20.47002,1039.8645 20.55502,1040.0155 C 20.57202,1040.0465 20.58902,1040.0775 20.60402,1040.1085 C 20.61502,1040.1305 20.64502,1040.2515 20.64602,1040.1715 C 20.64402,1040.2945 20.71802,1040.3935 20.77802,1040.4935 C 21.02602,1040.9045 21.67902,1040.5235 21.42002,1040.1175"
         id="path42082" />
      <path
         style="fill:#3b3938;fill-rule:nonzero;stroke:none"
         d="M 31.98002,1045.0335 C 31.98002,1044.9145 32.02202,1044.8165 32.10502,1044.7395 C 32.18402,1044.6675 32.28002,1044.6315 32.39402,1044.6315 C 32.50702,1044.6315 32.60402,1044.6675 32.68302,1044.7395 C 32.76602,1044.8165 32.80802,1044.9145 32.80802,1045.0335 C 32.80802,1045.1525 32.76602,1045.2505 32.68302,1045.3275 C 32.60402,1045.4005 32.50702,1045.4375 32.39402,1045.4375 C 32.28002,1045.4375 32.18402,1045.4005 32.10502,1045.3275 C 32.02202,1045.2505 31.98002,1045.1525 31.98002,1045.0335 M 32.09002,1045.0335 C 32.09002,1045.1245 32.11902,1045.2005 32.17802,1045.2605 C 32.23602,1045.3205 32.30802,1045.3515 32.39402,1045.3515 C 32.47902,1045.3515 32.55102,1045.3205 32.61002,1045.2605 C 32.66902,1045.2005 32.69802,1045.1245 32.69802,1045.0335 C 32.69802,1044.9425 32.66902,1044.8675 32.61002,1044.8075 C 32.55102,1044.7475 32.47902,1044.7175 32.39402,1044.7175 C 32.30802,1044.7175 32.23602,1044.7475 32.17802,1044.8075 C 32.11902,1044.8675 32.09002,1044.9425 32.09002,1045.0335 M 32.23302,1045.2575 L 32.23302,1044.8055 L 32.40402,1044.8055 C 32.52302,1044.8055 32.58202,1044.8505 32.58202,1044.9395 C 32.58202,1045.0135 32.54202,1045.0535 32.46202,1045.0605 L 32.58202,1045.2575 L 32.48902,1045.2575 L 32.37902,1045.0645 L 32.32302,1045.0645 L 32.32302,1045.2575 L 32.23302,1045.2575 z M 32.32302,1044.8755 L 32.32302,1044.9955 L 32.40302,1044.9955 C 32.43102,1044.9955 32.45202,1044.9915 32.46502,1044.9855 C 32.48302,1044.9755 32.49202,1044.9585 32.49202,1044.9315 C 32.49202,1044.8945 32.46102,1044.8755 32.39902,1044.8755 L 32.32302,1044.8755 z "
         id="path42084" />
    </g>
  </g>
</svg>
