<?xml version="1.0" encoding="UTF-8" standalone="no"?>
<!-- Created with Inkscape (http://www.inkscape.org/) -->
<svg
   xmlns:dc="http://purl.org/dc/elements/1.1/"
   xmlns:cc="http://web.resource.org/cc/"
   xmlns:rdf="http://www.w3.org/1999/02/22-rdf-syntax-ns#"
   xmlns:svg="http://www.w3.org/2000/svg"
   xmlns="http://www.w3.org/2000/svg"
   xmlns:xlink="http://www.w3.org/1999/xlink"
   xmlns:sodipodi="http://sodipodi.sourceforge.net/DTD/sodipodi-0.dtd"
   xmlns:inkscape="http://www.inkscape.org/namespaces/inkscape"
   width="158"
   height="149"
   id="svg2"
   sodipodi:version="0.32"
   inkscape:version="0.45.1"
   version="1.0"
   inkscape:output_extension="org.inkscape.output.svg.inkscape">
  <g
     inkscape:label="Layer 1"
     inkscape:groupmode="layer"
     id="layer1"
     transform="translate(-76.12709,-816.50675)">
    <g
       id="g9255"
       transform="matrix(0.9061378,0,0,0.9061378,1306.8393,515.21505)">
      <path
         style="fill:#c70049;fill-rule:nonzero;stroke:none"
         d="M -1184.772,488.64697 C -1184.159,489.26697 -1183.829,490.07597 -1183.829,490.95897 C -1183.829,491.87297 -1184.167,492.68797 -1184.797,493.30197 C -1185.447,493.93197 -1186.281,494.27197 -1187.139,494.27197 C -1188.016,494.27197 -1188.85,493.91497 -1189.479,493.27397 C -1190.105,492.64397 -1190.443,491.82697 -1190.443,490.95897 C -1190.443,490.08397 -1190.08,489.24297 -1189.443,488.60097 C -1188.825,487.98097 -1188.033,487.65997 -1187.139,487.65997 C -1186.231,487.65997 -1185.41,487.99997 -1184.772,488.64697 z M -1189.1,488.94897 C -1189.644,489.50897 -1189.946,490.22097 -1189.946,490.95897 C -1189.946,491.70497 -1189.663,492.39797 -1189.13,492.93297 C -1188.597,493.47397 -1187.894,493.77897 -1187.176,493.77897 C -1186.397,493.77897 -1185.691,493.49497 -1185.141,492.95997 C -1184.607,492.43997 -1184.314,491.74697 -1184.314,491.00497 C -1184.314,490.20997 -1184.589,489.52297 -1185.115,488.98397 C -1185.667,488.43597 -1186.354,488.14697 -1187.134,488.14697 C -1187.898,488.14697 -1188.565,488.41897 -1189.1,488.94897 z M -1187.059,489.04997 C -1186.016,489.04997 -1185.496,489.40397 -1185.496,490.05197 C -1185.496,490.59497 -1185.785,490.95897 -1186.317,491.07797 L -1185.496,492.75697 L -1186.378,492.75697 L -1187.114,491.21097 L -1187.69,491.21097 L -1187.69,492.75697 L -1188.486,492.75697 L -1188.486,489.04997 L -1187.059,489.04997 z M -1187.69,490.71697 L -1187.168,490.71697 C -1186.58,490.71697 -1186.305,490.54897 -1186.305,490.14997 C -1186.305,489.72297 -1186.6,489.55097 -1187.2,489.55097 L -1187.69,489.55097 L -1187.69,490.71697"
         id="path3264" />
      <path
         style="fill:#c70049;fill-rule:nonzero;stroke:none"
         d="M -1199.691,494.27197 C -1195.731,494.27197 -1192.523,491.06397 -1192.523,487.10197 C -1192.523,483.14097 -1195.731,479.93297 -1199.691,479.93297 C -1203.65,479.93297 -1206.862,483.14097 -1206.862,487.10197 C -1206.862,491.06397 -1203.65,494.27197 -1199.691,494.27197"
         id="path3266" />
      <path
         style="fill:#c70049;fill-rule:nonzero;stroke:none"
         d="M -1311.708,493.31197 L -1311.708,426.95297 L -1301.209,426.95297 L -1301.209,416.08897 L -1332.351,416.08897 L -1332.351,426.95297 L -1322.572,426.95297 L -1322.572,493.31197 L -1311.708,493.31197"
         id="path3268" />
      <path
         style="fill:#c70049;fill-rule:nonzero;stroke:none"
         d="M -1221.785,426.95097 L -1233.993,426.95097 L -1233.993,416.08497 L -1208.057,416.08497 L -1223.747,482.59097 L -1210.337,482.59097 L -1210.337,493.45597 L -1237.477,493.45597 L -1221.785,426.95097"
         id="path3270" />
      <path
         style="fill:#c70049;fill-rule:nonzero;stroke:none"
         d="M -1203.692,476.62697 L -1195.693,476.62697 L -1193.066,416.07797 L -1206.316,416.07797 L -1203.692,476.62697"
         id="path3272" />
      <path
         style="fill:#c70049;fill-rule:nonzero;stroke:none"
         d="M -1356.246,487.18397 L -1354.078,486.12197 C -1346.642,482.46297 -1342.942,479.32397 -1342.087,475.94397 C -1341.131,472.15397 -1343.249,466.58597 -1348.382,459.38597 C -1352.216,454.00597 -1354.833,449.44497 -1356.383,445.45197 C -1358.1,441.02497 -1358.59,437.09597 -1357.883,433.44297 C -1356.358,425.61097 -1349.813,420.87597 -1342.054,415.92497 L -1340.016,414.62497 L -1334.171,423.78297 L -1336.21,425.08297 C -1342.703,429.22597 -1346.586,432.26297 -1347.22,435.51297 C -1347.913,439.10097 -1345.399,444.84697 -1339.534,453.07997 C -1335.983,458.06497 -1333.607,462.48097 -1332.271,466.58997 C -1330.868,470.89297 -1330.628,474.93597 -1331.554,478.60197 C -1333.728,487.20697 -1341.737,492.15997 -1349.286,495.86997 L -1351.455,496.93397 L -1356.246,487.18397"
         id="path3274" />
      <path
         style="fill:#c70049;fill-rule:nonzero;stroke:none"
         d="M -1289.811,415.05797 L -1308.852,493.30897 L -1297.758,493.30897 L -1296.085,484.66197 L -1284.255,484.66197 L -1282.208,493.30897 L -1271.127,493.30897 L -1289.811,415.05797 z M -1294.123,473.68497 L -1289.869,455.21697 L -1286.64,473.68497 L -1294.123,473.68497"
         id="path3276" />
      <path
         style="fill:#c70049;fill-rule:nonzero;stroke:none"
         d="M -1269.024,493.30597 L -1257.918,493.30597 L -1257.918,480.03497 C -1256.889,479.53397 -1255.896,478.99497 -1254.934,478.40697 L -1250.766,493.43797 L -1239.242,493.43797 L -1245.712,470.11397 C -1240.564,463.38897 -1237.967,454.72397 -1238.689,445.31797 C -1239.841,430.25597 -1249.133,418.77797 -1262.362,416.08497 L -1269.024,414.72697 L -1269.024,493.30597 z M -1257.918,429.92297 C -1252.626,433.85597 -1250.189,440.55297 -1249.761,446.16697 C -1249.251,452.81097 -1251.305,461.26597 -1257.918,466.88797 L -1257.918,429.92297"
         id="path3278" />
      <path
         style="fill:#c70049;fill-rule:nonzero;stroke:none"
         d="M -1248.848,357.15797 L -1253.598,372.97697 L -1235.137,380.75697 L -1257.072,383.33097 L -1262.92,399.03197 L -1274.393,384.38197 L -1301.447,386.38497 L -1271.96,390.07297 L -1276.882,424.55997 L -1251.918,392.08197 L -1226.385,394.23997 L -1235.841,370.56397 L -1217.166,337.34797 L -1245.947,355.25897 L -1261.967,332.50097 L -1268.273,367.31397 L -1248.848,357.15797"
         id="path3280" />
    </g>
    <g
       id="g4060"
       clip-path="url(#id110)"
       transform="matrix(1,0,0,-1,-416.999,936.36268)">
        <g
   id="g4062"
   transform="matrix(0,-83.824402,-2.5056,0,933.32605,256.9902)">
          <g
   id="g4064"
   clip-path="url(#id111)">
            <g
   id="g4066"
   transform="matrix(1.6776e-2,0,0,-0.332443,-1.929885,0.666477)">
              <use
   id="use4068"
   xlink:href="#id112"
   x="0"
   y="0"
   width="744.09448"
   height="1052.3622" />

            </g>

          </g>

        </g>

      </g>
    <g
       id="g4080"
       clip-path="url(#id116)"
       transform="matrix(1,0,0,-1,-416.999,936.36268)">
        <g
   id="g4082"
   transform="matrix(0,-83.824402,-2.4631,0,942.96875,256.9902)">
          <g
   id="g4084"
   clip-path="url(#id117)">
            <g
   id="g4086"
   transform="matrix(8.167e-3,0,0,-0.320766,-1.922744,0.660564)">
              <use
   id="use4088"
   xlink:href="#id118"
   x="0"
   y="0"
   width="744.09448"
   height="1052.3622" />

            </g>

          </g>

        </g>

      </g>
    <g
       id="g4090"
       clip-path="url(#id119)"
       transform="matrix(1,0,0,-1,-416.999,936.36268)" />
    <g
       id="g4092"
       clip-path="url(#id120)"
       transform="matrix(1,0,0,-1,-416.999,936.36268)">
        <g
   id="g4094"
   transform="matrix(0,-83.824402,-2.3512,0,936.65912,256.9902)">
          <g
   id="g4096"
   clip-path="url(#id121)">
            <g
   id="g4098"
   transform="matrix(1.1661e-2,0,0,-0.288681,-1.915322,0.64465)">
              <use
   id="use4100"
   xlink:href="#id122"
   x="0"
   y="0"
   width="744.09448"
   height="1052.3622" />

            </g>

          </g>

        </g>

      </g>
    <g
       id="g4102"
       clip-path="url(#id123)"
       transform="matrix(1,0,0,-1,-416.999,936.36268)">
        <g
   id="g4104"
   transform="matrix(0,-83.824402,-2.5211,0,956.03418,256.9902)">
          <g
   id="g4106"
   clip-path="url(#id124)">
            <g
   id="g4108"
   transform="matrix(1.3294e-2,0,0,-0.336632,-1.912294,0.668236)">
              <use
   id="use4110"
   xlink:href="#id125"
   x="0"
   y="0"
   width="744.09448"
   height="1052.3622" />

            </g>

          </g>

        </g>

      </g>
    <g
       id="g4122"
       clip-path="url(#id129)"
       transform="matrix(1,0,0,-1,-416.999,936.36268)">
        <g
   id="g4124"
   transform="matrix(0,-83.824402,-2.4321,0,946.41803,256.9902)">
          <g
   id="g4126"
   clip-path="url(#id130)">
            <g
   id="g4128"
   transform="matrix(8.691e-3,0,0,-0.312424,-1.911176,0.656166)">
              <use
   id="use4130"
   xlink:href="#id131"
   x="0"
   y="0"
   width="744.09448"
   height="1052.3622" />

            </g>

          </g>

        </g>

      </g>
    <g
       id="g4132"
       clip-path="url(#id132)"
       transform="matrix(1,0,0,-1,-416.999,936.36268)">
        <g
   id="g4134"
   transform="matrix(0,-83.824402,-2.201,0,929.48816,256.9902)">
          <g
   id="g4136"
   clip-path="url(#id133)">
            <g
   id="g4138"
   transform="matrix(1.094e-2,0,0,-0.240128,-1.89779,0.619854)">
              <use
   id="use4140"
   xlink:href="#id134"
   x="0"
   y="0"
   width="744.09448"
   height="1052.3622" />

            </g>

          </g>

        </g>

      </g>
    <g
       id="g4142"
       clip-path="url(#id135)"
       transform="matrix(1,0,0,-1,-416.999,936.36268)">
        <g
   id="g4144"
   transform="matrix(0,-83.824402,-2.2304,0,939.29187,256.9902)">
          <g
   id="g4146"
   clip-path="url(#id136)">
            <g
   id="g4148"
   transform="matrix(5.848e-3,0,0,-0.250099,-1.895575,0.625244)">
              <use
   id="use4150"
   xlink:href="#id137"
   x="0"
   y="0"
   width="744.09448"
   height="1052.3622" />

            </g>

          </g>

        </g>

      </g>
    <g
       id="g4162"
       clip-path="url(#id141)"
       transform="matrix(1,0,0,-1,-416.999,936.36268)">
        <g
   id="g4164"
   transform="matrix(0,-83.824402,-2.3218,0,949.15222,256.9902)">
          <g
   id="g4166"
   clip-path="url(#id142)">
            <g
   id="g4168"
   transform="matrix(9.005e-3,0,0,-0.279716,-1.897183,0.639687)">
              <use
   id="use4170"
   xlink:href="#id143"
   x="0"
   y="0"
   width="744.09448"
   height="1052.3622" />

            </g>

          </g>

        </g>

      </g>
    <g
       id="g4182"
       clip-path="url(#id147)"
       transform="matrix(1,0,0,-1,-416.999,936.36268)">
        <g
   id="g4184"
   transform="matrix(0,-83.824402,-2.4108,0,933.07318,256.9902)">
          <g
   id="g4186"
   clip-path="url(#id148)">
            <g
   id="g4188"
   transform="matrix(9.554e-3,0,0,-0.30624,-1.886745,0.653019)">
              <use
   id="use4190"
   xlink:href="#id149"
   x="0"
   y="0"
   width="744.09448"
   height="1052.3622" />

            </g>

          </g>

        </g>

      </g>
    <g
       id="g4242"
       clip-path="url(#id165)"
       transform="matrix(1,0,0,-1,-416.999,936.36268)">
        <g
   id="g4244"
   transform="matrix(0,-83.824402,-2.4264,0,945.27917,256.9902)">
          <g
   id="g4246"
   clip-path="url(#id166)">
            <g
   id="g4248"
   transform="matrix(9.332e-3,0,0,-0.310745,-1.876807,0.655197)">
              <use
   id="use4250"
   xlink:href="#id167"
   x="0"
   y="0"
   width="744.09448"
   height="1052.3622" />

            </g>

          </g>

        </g>

      </g>
    <g
       id="g4272"
       clip-path="url(#id174)"
       transform="matrix(1,0,0,-1,-416.999,936.36268)">
        <g
   id="g4274"
   transform="matrix(0,-83.824402,-2.5987,0,938.20508,256.9902)">
          <g
   id="g4276"
   clip-path="url(#id175)">
            <g
   id="g4278"
   transform="matrix(1.1451e-2,0,0,-0.356247,-1.862687,0.678314)">
              <use
   id="use4280"
   xlink:href="#id176"
   x="0"
   y="0"
   width="744.09448"
   height="1052.3622" />

            </g>

          </g>

        </g>

      </g>
    <g
       id="g4282"
       clip-path="url(#id177)"
       transform="matrix(1,0,0,-1,-416.999,936.36268)">
        <g
   id="g4284"
   transform="matrix(0,-83.824402,-2.4843,0,948.09473,256.9902)">
          <g
   id="g4286"
   clip-path="url(#id178)">
            <g
   id="g4288"
   transform="matrix(1.6951e-2,0,0,-0.327087,-1.864109,0.663605)">
              <use
   id="use4290"
   xlink:href="#id179"
   x="0"
   y="0"
   width="744.09448"
   height="1052.3622" />

            </g>

          </g>

        </g>

      </g>
    <g
       id="g4292"
       clip-path="url(#id180)"
       transform="matrix(1,0,0,-1,-416.999,936.36268)">
        <g
   id="g4294"
   transform="matrix(0,-83.824402,-2.5382,0,951.3446,256.9902)">
          <g
   id="g4296"
   clip-path="url(#id181)">
            <g
   id="g4298"
   transform="matrix(1.934e-2,0,0,-0.340916,-1.855465,0.670197)">
              <use
   id="use4300"
   xlink:href="#id182"
   x="0"
   y="0"
   width="744.09448"
   height="1052.3622" />

            </g>

          </g>

        </g>

      </g>
    <g
       id="g4302"
       clip-path="url(#id183)"
       transform="matrix(1,0,0,-1,-416.999,936.36268)">
        <g
   id="g4304"
   transform="matrix(0,-83.824402,-2.4533,0,941.51746,256.9902)">
          <g
   id="g4306"
   clip-path="url(#id184)">
            <g
   id="g4308"
   transform="matrix(1.0356e-2,0,0,-0.31813,-1.851142,0.658806)">
              <use
   id="use4310"
   xlink:href="#id185"
   x="0"
   y="0"
   width="744.09448"
   height="1052.3622" />

            </g>

          </g>

        </g>

      </g>
    <g
       id="g4312"
       clip-path="url(#id186)"
       transform="matrix(1,0,0,-1,-416.999,936.36268)">
        <g
   id="g4314"
   transform="matrix(0,-83.824402,-2.3798,0,931.77545,256.9902)">
          <g
   id="g4316"
   clip-path="url(#id187)">
            <g
   id="g4318"
   transform="matrix(8.342e-3,0,0,-0.297131,-1.849465,0.648819)">
              <use
   id="use4320"
   xlink:href="#id188"
   x="0"
   y="0"
   width="744.09448"
   height="1052.3622" />

            </g>

          </g>

        </g>

      </g>
    <g
       id="g4352"
       clip-path="url(#id198)"
       transform="matrix(1,0,0,-1,-416.999,936.36268)">
        <g
   id="g4354"
   transform="matrix(0,-83.824402,-2.5627,0,928.16888,256.9902)">
          <g
   id="g4356"
   clip-path="url(#id199)">
            <g
   id="g4358"
   transform="matrix(1.3327e-2,0,0,-0.347168,-1.827946,0.673756)">
              <use
   id="use4360"
   xlink:href="#id200"
   x="0"
   y="0"
   width="744.09448"
   height="1052.3622" />

            </g>

          </g>

        </g>

      </g>
    <g
       id="g4432"
       clip-path="url(#id222)"
       transform="matrix(1,0,0,-1,-416.999,936.36268)">
        <g
   id="g4434"
   transform="matrix(0,-83.824402,-2.4117,0,971.24792,256.9902)">
          <g
   id="g4436"
   clip-path="url(#id223)">
            <g
   id="g4438"
   transform="matrix(1.1894e-2,0,0,-0.30661,-1.775894,0.65316)">
              <use
   id="use4440"
   xlink:href="#id224"
   x="0"
   y="0"
   width="744.09448"
   height="1052.3622" />

            </g>

          </g>

        </g>

      </g>
    <g
       id="g4442"
       clip-path="url(#id225)"
       transform="matrix(1,0,0,-1,-416.999,936.36268)">
        <g
   id="g4444"
   transform="matrix(0,-83.824402,-2.4117,0,926.96863,256.9902)">
          <g
   id="g4446"
   clip-path="url(#id226)">
            <g
   id="g4448"
   transform="matrix(1.1859e-2,0,0,-0.30661,-1.913295,0.653164)">
              <use
   id="use4450"
   xlink:href="#id227"
   x="0"
   y="0"
   width="744.09448"
   height="1052.3622" />

            </g>

          </g>

        </g>

      </g>
    <g
       id="g4452"
       clip-path="url(#id228)"
       transform="matrix(1,0,0,-1,-416.999,936.36268)">
        <g
   id="g4454"
   transform="matrix(0,-83.824402,-2.1822,0,961.47076,256.9902)">
          <g
   id="g4456"
   clip-path="url(#id229)">
            <g
   id="g4458"
   transform="matrix(1.0754e-2,0,0,-0.233597,-1.774147,0.616707)">
              <use
   id="use4460"
   xlink:href="#id230"
   x="0"
   y="0"
   width="744.09448"
   height="1052.3622" />

            </g>

          </g>

        </g>

      </g>
    <g
       id="g4462"
       clip-path="url(#id231)"
       transform="matrix(1,0,0,-1,-416.999,936.36268)">
        <g
   id="g4464"
   transform="matrix(0,-83.824402,-2.4313,0,974.60162,256.9902)">
          <g
   id="g4466"
   clip-path="url(#id232)">
            <g
   id="g4468"
   transform="matrix(1.1755e-2,0,0,-0.312141,-1.766143,0.655998)">
              <use
   id="use4470"
   xlink:href="#id233"
   x="0"
   y="0"
   width="744.09448"
   height="1052.3622" />

            </g>

          </g>

        </g>

      </g>
    <g
       id="g4472"
       clip-path="url(#id234)"
       transform="matrix(1,0,0,-1,-416.999,936.36268)" />
    <g
       id="g4474"
       clip-path="url(#id235)"
       transform="matrix(1,0,0,-1,-416.999,936.36268)">
        <g
   id="g4476"
   transform="matrix(0,-83.824402,-2.3218,0,945.25391,256.9902)">
          <g
   id="g4478"
   clip-path="url(#id236)">
            <g
   id="g4480"
   transform="matrix(6.675e-3,0,0,-0.279724,-1.761786,0.639793)">
              <use
   id="use4482"
   xlink:href="#id237"
   x="0"
   y="0"
   width="744.09448"
   height="1052.3622" />

            </g>

          </g>

        </g>

      </g>
    <g
       id="g4484"
       clip-path="url(#id238)"
       transform="matrix(1,0,0,-1,-416.999,936.36268)" />
    <g
       id="g4486"
       clip-path="url(#id239)"
       transform="matrix(1,0,0,-1,-416.999,936.36268)">
        <g
   id="g4488"
   transform="matrix(0,-83.824402,-2.2965,0,970.40515,256.9902)">
          <g
   id="g4490"
   clip-path="url(#id240)">
            <g
   id="g4492"
   transform="matrix(6.968e-3,0,0,-0.271782,-1.736599,0.636124)">
              <use
   id="use4494"
   xlink:href="#id241"
   x="0"
   y="0"
   width="744.09448"
   height="1052.3622" />

            </g>

          </g>

        </g>

      </g>
    <g
       id="g4496"
       clip-path="url(#id242)"
       transform="matrix(1,0,0,-1,-416.999,936.36268)">
        <g
   id="g4498"
   transform="matrix(0,-83.824402,-2.4313,0,983.21277,256.9902)">
          <g
   id="g4500"
   clip-path="url(#id243)">
            <g
   id="g4502"
   transform="matrix(1.038e-2,0,0,-0.312141,-1.730424,0.655899)">
              <use
   id="use4504"
   xlink:href="#id244"
   x="0"
   y="0"
   width="744.09448"
   height="1052.3622" />

            </g>

          </g>

        </g>

      </g>
    <g
       id="g4516"
       clip-path="url(#id248)"
       transform="matrix(1,0,0,-1,-416.999,936.36268)">
        <g
   id="g4518"
   transform="matrix(0,-83.824402,-2.2647,0,985.89148,256.9902)">
          <g
   id="g4520"
   clip-path="url(#id249)">
            <g
   id="g4522"
   transform="matrix(7.712e-3,0,0,-0.261726,-1.710444,0.630775)">
              <use
   id="use4524"
   xlink:href="#id250"
   x="0"
   y="0"
   width="744.09448"
   height="1052.3622" />

            </g>

          </g>

        </g>

      </g>
    <g
       id="g4536"
       clip-path="url(#id254)"
       transform="matrix(1,0,0,-1,-416.999,936.36268)" />
    <g
       id="g4558"
       clip-path="url(#id261)"
       transform="matrix(1,0,0,-1,-416.999,936.36268)" />
    <g
       id="g4560"
       clip-path="url(#id262)"
       transform="matrix(1,0,0,-1,-416.999,936.36268)">
        <g
   id="g4562"
   transform="matrix(0,-83.824402,-2.4068,0,982.23828,256.9902)">
          <g
   id="g4564"
   clip-path="url(#id263)">
            <g
   id="g4566"
   transform="matrix(9.996e-3,0,0,-0.305092,-1.68472,0.652451)">
              <use
   id="use4568"
   xlink:href="#id264"
   x="0"
   y="0"
   width="744.09448"
   height="1052.3622" />

            </g>

          </g>

        </g>

      </g>
    <g
       id="g4580"
       clip-path="url(#id268)"
       transform="matrix(1,0,0,-1,-416.999,936.36268)">
        <g
   id="g4582"
   transform="matrix(0,-83.824402,-2.4051,0,984.83679,256.9902)">
          <g
   id="g4584"
   clip-path="url(#id269)">
            <g
   id="g4586"
   transform="matrix(1.2034e-2,0,0,-0.304527,-1.675074,0.652031)">
              <use
   id="use4588"
   xlink:href="#id270"
   x="0"
   y="0"
   width="744.09448"
   height="1052.3622" />

            </g>

          </g>

        </g>

      </g>
    <g
       id="g4590"
       clip-path="url(#id271)"
       transform="matrix(1,0,0,-1,-416.999,936.36268)" />
    <g
       id="g4592"
       clip-path="url(#id272)"
       transform="matrix(1,0,0,-1,-416.999,936.36268)">
        <g
   id="g4594"
   transform="matrix(0,-83.824402,-2.401,0,988.13959,256.9902)">
          <g
   id="g4596"
   clip-path="url(#id273)">
            <g
   id="g4598"
   transform="matrix(1.2325e-2,0,0,-0.303391,-1.666721,0.651581)">
              <use
   id="use4600"
   xlink:href="#id274"
   x="0"
   y="0"
   width="744.09448"
   height="1052.3622" />

            </g>

          </g>

        </g>

      </g>
    <g
       id="g4602"
       clip-path="url(#id275)"
       transform="matrix(1,0,0,-1,-416.999,936.36268)">
        <g
   id="g4604"
   transform="matrix(0,-83.824402,-2.4566,0,978.50092,256.9902)">
          <g
   id="g4606"
   clip-path="url(#id276)">
            <g
   id="g4608"
   transform="matrix(1.1685e-2,0,0,-0.31913,-1.660069,0.659447)">
              <use
   id="use4610"
   xlink:href="#id277"
   x="0"
   y="0"
   width="744.09448"
   height="1052.3622" />

            </g>

          </g>

        </g>

      </g>
    <g
       id="g4632"
       clip-path="url(#id284)"
       transform="matrix(1,0,0,-1,-416.999,936.36268)">
        <g
   id="g4634"
   transform="matrix(0,-83.824402,-2.5317,0,942.82715,256.9902)">
          <g
   id="g4636"
   clip-path="url(#id285)">
            <g
   id="g4638"
   transform="matrix(9.856e-3,0,0,-0.339478,-1.646135,0.669697)">
              <use
   id="use4640"
   xlink:href="#id286"
   x="0"
   y="0"
   width="744.09448"
   height="1052.3622" />

            </g>

          </g>

        </g>

      </g>
    <g
       id="g4682"
       clip-path="url(#id299)"
       transform="matrix(1,0,0,-1,-416.999,936.36268)">
        <g
   id="g4684"
   transform="matrix(0,-83.824402,-2.4901,0,929.03912,256.9902)">
          <g
   id="g4686"
   clip-path="url(#id300)">
            <g
   id="g4688"
   transform="matrix(1.2674e-2,0,0,-0.3283,-1.627052,0.664036)">
              <use
   id="use4690"
   xlink:href="#id301"
   x="0"
   y="0"
   width="744.09448"
   height="1052.3622" />

            </g>

          </g>

        </g>

      </g>
    <g
       id="g4692"
       clip-path="url(#id302)"
       transform="matrix(1,0,0,-1,-416.999,936.36268)">
        <g
   id="g4694"
   transform="matrix(0,-83.824402,-2.4582,0,938.91803,256.9902)">
          <g
   id="g4696"
   clip-path="url(#id303)">
            <g
   id="g4698"
   transform="matrix(1.2967e-2,0,0,-0.319405,-1.62435,0.659878)">
              <use
   id="use4700"
   xlink:href="#id304"
   x="0"
   y="0"
   width="744.09448"
   height="1052.3622" />

            </g>

          </g>

        </g>

      </g>
    <g
       id="g4702"
       clip-path="url(#id305)"
       transform="matrix(1,0,0,-1,-416.999,936.36268)">
        <g
   id="g4704"
   transform="matrix(0,-83.824402,-2.2336,0,970.68945,256.9902)">
          <g
   id="g4706"
   clip-path="url(#id306)">
            <g
   id="g4708"
   transform="matrix(7.457e-3,0,0,-0.250999,-1.61644,0.62571)">
              <use
   id="use4710"
   xlink:href="#id307"
   x="0"
   y="0"
   width="744.09448"
   height="1052.3622" />

            </g>

          </g>

        </g>

      </g>
    <g
       id="g4712"
       clip-path="url(#id308)"
       transform="matrix(1,0,0,-1,-416.999,936.36268)">
        <g
   id="g4714"
   transform="matrix(0,-83.824402,-2.5611,0,989.84186,256.9902)">
          <g
   id="g4716"
   clip-path="url(#id309)">
            <g
   id="g4718"
   transform="matrix(1.4994e-2,0,0,-0.347015,-1.61637,0.673447)">
              <use
   id="use4720"
   xlink:href="#id310"
   x="0"
   y="0"
   width="744.09448"
   height="1052.3622" />

            </g>

          </g>

        </g>

      </g>
    <g
       id="g4722"
       clip-path="url(#id311)"
       transform="matrix(1,0,0,-1,-416.999,936.36268)">
        <g
   id="g4724"
   transform="matrix(0,-83.824402,-2.3431,0,961.0332,256.9902)">
          <g
   id="g4726"
   clip-path="url(#id312)">
            <g
   id="g4728"
   transform="matrix(9.005e-3,0,0,-0.286278,-1.610381,0.643082)">
              <use
   id="use4730"
   xlink:href="#id313"
   x="0"
   y="0"
   width="744.09448"
   height="1052.3622" />

            </g>

          </g>

        </g>

      </g>
    <g
       id="g4732"
       clip-path="url(#id314)"
       transform="matrix(1,0,0,-1,-416.999,936.36268)">
        <g
   id="g4734"
   transform="matrix(0,-83.824402,-2.6477,0,993.11914,256.9902)">
          <g
   id="g4736"
   clip-path="url(#id315)">
            <g
   id="g4738"
   transform="matrix(1.6007e-2,0,0,-0.368416,-1.60938,0.684174)">
              <use
   id="use4740"
   xlink:href="#id316"
   x="0"
   y="0"
   width="744.09448"
   height="1052.3622" />

            </g>

          </g>

        </g>

      </g>
    <g
       id="g4742"
       clip-path="url(#id317)"
       transform="matrix(1,0,0,-1,-416.999,936.36268)" />
    <g
       id="g4744"
       clip-path="url(#id318)"
       transform="matrix(1,0,0,-1,-416.999,936.36268)">
        <g
   id="g4746"
   transform="matrix(0,-83.824402,-2.4852,0,973.54883,256.9902)">
          <g
   id="g4748"
   clip-path="url(#id319)">
            <g
   id="g4750"
   transform="matrix(1.3688e-2,0,0,-0.326866,-1.602377,0.663269)">
              <use
   id="use4752"
   xlink:href="#id320"
   x="0"
   y="0"
   width="744.09448"
   height="1052.3622" />

            </g>

          </g>

        </g>

      </g>
    <g
       id="g4804"
       clip-path="url(#id336)"
       transform="matrix(1,0,0,-1,-416.999,936.36268)">
        <g
   id="g4806"
   transform="matrix(0,-83.824402,-2.4329,0,959.95508,256.9902)">
          <g
   id="g4808"
   clip-path="url(#id337)">
            <g
   id="g4810"
   transform="matrix(1.2e-2,0,0,-0.312706,-1.577365,0.656334)">
              <use
   id="use4812"
   xlink:href="#id338"
   x="0"
   y="0"
   width="744.09448"
   height="1052.3622" />

            </g>

          </g>

        </g>

      </g>
    <g
       id="g4824"
       clip-path="url(#id342)"
       transform="matrix(1,0,0,-1,-416.999,936.36268)">
        <g
   id="g4826"
   transform="matrix(0,-83.824402,-2.5791,0,962.9267,256.9902)">
          <g
   id="g4828"
   clip-path="url(#id343)">
            <g
   id="g4830"
   transform="matrix(1.236e-2,0,0,-0.351326,-1.562359,0.675835)">
              <use
   id="use4832"
   xlink:href="#id344"
   x="0"
   y="0"
   width="744.09448"
   height="1052.3622" />

            </g>

          </g>

        </g>

      </g>
    <g
       id="g4844"
       clip-path="url(#id348)"
       transform="matrix(1,0,0,-1,-416.999,936.36268)">
        <g
   id="g4846"
   transform="matrix(0,-83.824402,-2.6673,0,988.15039,256.9902)">
          <g
   id="g4848"
   clip-path="url(#id349)">
            <g
   id="g4850"
   transform="matrix(1.4692e-2,0,0,-0.373093,-1.545176,0.686523)">
              <use
   id="use4852"
   xlink:href="#id350"
   x="0"
   y="0"
   width="744.09448"
   height="1052.3622" />

            </g>

          </g>

        </g>

      </g>
    <path
       id="path5228"
       d="M 721.976,725.25668 L 721.976,725.25668"
       style="fill:#763e31;fill-rule:nonzero;stroke:none" />
  </g>
</svg>
