<?xml version="1.0" encoding="UTF-8" standalone="no"?>
<!-- Created with Inkscape (http://www.inkscape.org/) -->

<svg
   xmlns:dc="http://purl.org/dc/elements/1.1/"
   xmlns:cc="http://creativecommons.org/ns#"
   xmlns:rdf="http://www.w3.org/1999/02/22-rdf-syntax-ns#"
   xmlns:svg="http://www.w3.org/2000/svg"
   xmlns="http://www.w3.org/2000/svg"
   xmlns:sodipodi="http://sodipodi.sourceforge.net/DTD/sodipodi-0.dtd"
   xmlns:inkscape="http://www.inkscape.org/namespaces/inkscape"
   width="621"
   height="159"
   id="svg2"
   sodipodi:version="0.32"
   inkscape:version="0.47 r22583"
   version="1.0"
   inkscape:output_extension="org.inkscape.output.svg.inkscape"
   sodipodi:docname="StoraEnso logo.svg">
  <metadata
     id="metadata23">
    <rdf:RDF>
      <cc:Work
         rdf:about="">
        <dc:format>image/svg+xml</dc:format>
        <dc:type
           rdf:resource="http://purl.org/dc/dcmitype/StillImage" />
      </cc:Work>
    </rdf:RDF>
  </metadata>
  <defs
     id="defs21">
    <inkscape:perspective
       sodipodi:type="inkscape:persp3d"
       inkscape:vp_x="0 : 67.5 : 1"
       inkscape:vp_y="0 : 1000 : 0"
       inkscape:vp_z="527 : 67.5 : 1"
       inkscape:persp3d-origin="263.5 : 45 : 1"
       id="perspective25" />
  </defs>
  <sodipodi:namedview
     pagecolor="#ffffff"
     bordercolor="#666666"
     borderopacity="1"
     objecttolerance="10"
     gridtolerance="10"
     guidetolerance="10"
     inkscape:pageopacity="0"
     inkscape:pageshadow="2"
     inkscape:window-width="722"
     inkscape:window-height="483"
     id="namedview19"
     showgrid="false"
     inkscape:zoom="1.001614"
     inkscape:cx="310.49889"
     inkscape:cy="79.500011"
     inkscape:window-x="0"
     inkscape:window-y="0"
     inkscape:window-maximized="0"
     inkscape:current-layer="layer1" />
  <g
     inkscape:label="Layer 1"
     inkscape:groupmode="layer"
     id="layer1"
     transform="translate(-274.43527,-679.48367)">
    <path
       style="fill:#cccccc;fill-rule:nonzero;stroke:none"
       d="m 740.19761,747.70888 c -3.99354,-22.63346 30.01048,-47.54309 75.9541,-55.64807 7.88967,-1.38928 15.62555,-2.19414 23.03845,-2.46072 l -14.58999,35.73165 c -3.57829,0.25633 -7.26424,0.71259 -11.01171,1.3739 -27.78559,4.90093 -48.47098,19.27562 -46.20507,32.11235 1.76863,10.05305 17.09685,16.17921 37.00302,16.01004 l -0.71259,1.743 c -33.88098,0.3486 -60.29267,-10.80152 -63.47621,-28.86215"
       id="path2270" />
    <path
       style="fill:#cccccc;fill-rule:nonzero;stroke:none"
       d="m 895.11507,751.8921 c 3.98841,22.63346 -30.01561,47.54821 -75.95411,55.64807 -7.89479,1.3944 -15.62555,2.19926 -23.04358,2.46072 l 14.58999,-35.72653 c 3.5783,-0.26145 7.26424,-0.71258 11.01684,-1.3739 27.78046,-4.90092 48.46585,-19.28074 46.20507,-32.11747 -1.77377,-10.05305 -17.09685,-16.17408 -37.00815,-16.00492 l 0.71258,-1.743 c 33.881,-0.3486 60.29781,10.80152 63.48136,28.85703"
       id="path2272" />
    <path
       id="path2274"
       d="m 724.80876,737.59395 c -3.99275,-22.63554 30.01261,-47.55052 75.9543,-55.64863 7.88882,-1.39565 15.62664,-2.20208 23.03857,-2.46165 l -14.59162,35.72679 c -3.57805,0.25958 -7.26058,0.71325 -11.0093,1.37221 -27.78769,4.90412 -48.47319,19.28231 -46.20905,32.11764 1.77148,10.05602 17.09956,16.181 37.00585,16.00658 l -0.71326,1.74451 c -33.88157,0.34897 -60.2928,-10.80426 -63.47549,-28.85745"
       style="fill:#f78712;fill-rule:nonzero;stroke:none" />
    <path
       id="path2276"
       d="m 879.72162,741.77679 c 3.99286,22.62764 -30.00862,47.54264 -75.95042,55.64862 -7.89258,1.38777 -15.63041,2.19419 -23.04246,2.45754 l 14.59161,-35.72668 c 3.57807,-0.25968 7.26484,-0.71713 11.00943,-1.37598 27.78757,-4.89998 48.47319,-19.27854 46.21318,-32.11386 -1.77561,-10.05202 -17.09991,-16.17689 -37.01009,-16.01035 l 0.71338,-1.74051 c 33.88145,-0.34885 60.2928,10.80014 63.47537,28.86122"
       style="fill:#c3122d;fill-rule:nonzero;stroke:none" />
    <path
       style="fill:#333333;fill-rule:nonzero;stroke:none"
       d="m 274.43527,826.67224 7.30013,-6.81824 c 4.73175,5.21364 9.85824,8.02296 15.5794,8.02296 7.69487,0 11.63714,-5.81856 11.63714,-11.23213 0,-7.41805 -6.1159,-9.4225 -11.63714,-11.42696 -8.47921,-3.20918 -19.92154,-8.2229 -19.92154,-18.85011 0,-11.4167 9.2687,-20.56236 21.69531,-20.56236 7.1002,0 15.97928,3.37836 20.71104,6.36198 l -3.74747,8.99186 c -1.57896,-0.80486 -3.74746,-2.00958 -6.31071,-3.20918 -2.56325,-1.00479 -5.52123,-2.00446 -8.28442,-2.00446 -6.70545,0 -11.04759,2.60426 -11.04759,8.81757 0,2.40945 1.57897,4.21397 4.53696,5.81856 2.95797,1.6046 6.71057,3.00413 10.65284,4.60872 7.88968,3.20918 16.17408,8.02296 16.17408,19.64984 0,13.83641 -9.27382,23.64339 -24.26368,23.64339 -8.67403,0 -16.5637,-3.80386 -23.07435,-11.81144"
       id="path2280" />
    <path
       id="path2282"
       d="m 351.92251,788.67978 0,47.33711 -12.09887,0 0,-47.33711 -18.3441,0 4.93415,-10.52113 44.63978,0 -4.93096,10.52113 -14.2,0"
       style="fill:#333333;fill-rule:nonzero;stroke:none" />
    <path
       id="path2284"
       d="m 399.82577,787.03596 c 11.59479,0 19.06514,10.01717 19.06514,20.0342 0,10.21502 -7.47035,20.42981 -19.06514,20.42981 -11.59902,0 -19.26299,-10.21479 -19.26299,-20.42981 0,-10.01703 7.66397,-20.0342 19.26299,-20.0342 z m 0,50.92308 c 18.86338,0 31.36151,-14.18823 31.36151,-30.88888 0,-16.30102 -12.49813,-30.55132 -31.36151,-30.55132 -18.87138,0 -31.36563,14.2503 -31.36563,30.55132 0,16.70065 12.49425,30.88888 31.36563,30.88888"
       style="fill:#333333;fill-rule:nonzero;stroke:none" />
    <path
       id="path2286"
       d="m 455.40056,787.69517 c 6.55145,0 11.11424,1.36844 11.11424,7.61368 0,6.4391 -4.56279,8.19503 -11.31446,8.19503 l -4.16871,0 0,-15.80871 4.36893,0 z m 12.89361,48.15907 13.21527,0 -13.4169,-24.65529 c 6.51283,-2.56247 9.86605,-9.25727 9.86605,-15.50261 0,-12.47882 -8.88143,-17.53769 -21.36778,-17.53769 l -17.39059,0 0,57.69559 11.83141,0 0,-22.87592 5.75669,0 11.50585,22.87592"
       style="fill:#333333;fill-rule:nonzero;stroke:none" />
    <path
       id="path2288"
       d="m 511.58188,792.32757 8.0888,21.69743 -15.97136,0 7.88256,-21.69743 z m 16.57073,43.68932 12.82014,0 -22.87969,-58.08685 -11.83139,0 -22.68595,58.08685 11.83905,0 4.33407,-11.53684 24.06605,0 4.33772,11.53684"
       style="fill:#333333;fill-rule:nonzero;stroke:none" />
    <path
       id="path2290"
       d="m 558.13425,779.49601 0,16.89815 22.4339,0 -4.2369,10.54056 -18.197,0 0,18.09217 31.55949,0 0,10.95903 -43.5573,0 0,-66.70081 45.33289,0 -4.19073,10.2109 -29.14435,0"
       style="fill:#333333;fill-rule:nonzero;stroke:none" />
    <path
       id="path2292"
       d="m 608.85191,797.4485 0,38.56839 -11.17621,0 0,-57.85824 10.98246,0 28.46573,38.57217 0,-38.57217 11.17632,0 0,57.85824 -10.97834,0 -28.46996,-38.56839"
       style="fill:#333333;fill-rule:nonzero;stroke:none" />
    <path
       id="path2294"
       d="m 655.40227,827.27137 6.66005,-6.50493 c 4.28731,4.53558 8.5904,6.70245 13.52137,6.70245 6.50493,0 9.66441,-4.34174 9.66441,-8.67557 0,-5.91982 -6.70656,-7.10206 -11.04829,-8.6798 -7.26484,-2.76022 -16.04145,-7.29581 -16.04145,-15.97549 0,-9.65276 7.99741,-17.29365 18.80544,-17.29365 6.31119,0 13.94031,2.74479 18.22774,5.48534 l -3.3106,8.25746 c -1.75617,-0.791 -3.51222,-1.77561 -5.65599,-2.76034 -2.16321,-0.98851 -4.72556,-1.77937 -7.09418,-1.77937 -5.9157,0 -9.66441,2.3686 -9.66441,7.10582 0,2.36485 1.38011,3.35335 3.95047,4.73346 2.56236,1.18224 5.91569,2.16686 9.26892,3.54709 6.8538,2.56612 14.26585,6.31484 14.26585,16.37475 0,11.63764 -8.19127,19.52646 -21.36791,19.52646 -7.47777,0 -14.30059,-3.1596 -20.18142,-10.06368"
       style="fill:#333333;fill-rule:nonzero;stroke:none" />
    <path
       id="path2296"
       d="m 734.45775,787.03596 c 11.59478,0 19.06501,10.01717 19.06501,20.0342 0,10.21502 -7.47023,20.42981 -19.06501,20.42981 -11.59514,0 -19.26299,-10.21479 -19.26299,-20.42981 0,-10.01703 7.66785,-20.0342 19.26299,-20.0342 z m 0,50.92308 c 18.87127,0 31.3615,-14.18823 31.3615,-30.88888 0,-16.30102 -12.49023,-30.55132 -31.3615,-30.55132 -18.86762,0 -31.36574,14.2503 -31.36574,30.55132 0,16.70065 12.49812,30.88888 31.36574,30.88888"
       style="fill:#333333;fill-rule:nonzero;stroke:none" />
  </g>
</svg>
