<?xml version="1.0" encoding="UTF-8" standalone="no"?>
<!-- Created with Inkscape (http://www.inkscape.org/) -->
<svg
   xmlns:dc="http://purl.org/dc/elements/1.1/"
   xmlns:cc="http://creativecommons.org/ns#"
   xmlns:rdf="http://www.w3.org/1999/02/22-rdf-syntax-ns#"
   xmlns:svg="http://www.w3.org/2000/svg"
   xmlns="http://www.w3.org/2000/svg"
   xmlns:sodipodi="http://sodipodi.sourceforge.net/DTD/sodipodi-0.dtd"
   xmlns:inkscape="http://www.inkscape.org/namespaces/inkscape"
   width="140.42383"
   height="105"
   id="svg2"
   sodipodi:version="0.32"
   inkscape:version="0.46"
   version="1.0"
   sodipodi:docname="STV logo.svg"
   inkscape:output_extension="org.inkscape.output.svg.inkscape">
  <defs
     id="defs4"><inkscape:perspective
   sodipodi:type="inkscape:persp3d"
   inkscape:vp_x="0 : 526.18109 : 1"
   inkscape:vp_y="0 : 1000 : 0"
   inkscape:vp_z="744.09448 : 526.18109 : 1"
   inkscape:persp3d-origin="372.04724 : 350.78739 : 1"
   id="perspective10" />
<inkscape:perspective
   id="perspective2390"
   inkscape:persp3d-origin="372.04724 : 350.78739 : 1"
   inkscape:vp_z="744.09448 : 526.18109 : 1"
   inkscape:vp_y="0 : 1000 : 0"
   inkscape:vp_x="0 : 526.18109 : 1"
   sodipodi:type="inkscape:persp3d" />


	
	
	
	
	
	
	
	
	
<inkscape:perspective
   id="perspective2573"
   inkscape:persp3d-origin="39 : 18.666667 : 1"
   inkscape:vp_z="78 : 28 : 1"
   inkscape:vp_y="0 : 1000 : 0"
   inkscape:vp_x="0 : 28 : 1"
   sodipodi:type="inkscape:persp3d" />
</defs>
  <sodipodi:namedview
     id="base"
     pagecolor="#ffffff"
     bordercolor="#666666"
     borderopacity="1.0"
     gridtolerance="10000"
     guidetolerance="10"
     objecttolerance="10"
     inkscape:pageopacity="0.0"
     inkscape:pageshadow="2"
     inkscape:zoom="4"
     inkscape:cx="106.14708"
     inkscape:cy="26.639942"
     inkscape:document-units="px"
     inkscape:current-layer="layer1"
     showgrid="false"
     inkscape:window-width="1280"
     inkscape:window-height="944"
     inkscape:window-x="-8"
     inkscape:window-y="-8">
    <inkscape:grid
       type="xygrid"
       id="grid2609"
       visible="true"
       enabled="true" />
  </sodipodi:namedview>
  <metadata
     id="metadata7">
    <rdf:RDF>
      <cc:Work
         rdf:about="">
        <dc:format>image/svg+xml</dc:format>
        <dc:type
           rdf:resource="http://purl.org/dc/dcmitype/StillImage" />
      </cc:Work>
    </rdf:RDF>
  </metadata>
  <g
     inkscape:label="Layer 1"
     inkscape:groupmode="layer"
     id="layer1"
     transform="translate(-296.31904,-1083.7659)">
    <g
       id="g3513"
       transform="matrix(0.9904762,0,0,0.9904762,3.490771,10.82158)">
      <path
         style="fill:#111fc6;fill-opacity:1;fill-rule:evenodd;stroke:none;stroke-width:0.1;stroke-linecap:butt;stroke-linejoin:miter;stroke-miterlimit:4;stroke-dasharray:none;stroke-opacity:1"
         d="M 345.24287,1188.7659 L 345.24287,1130.7659 L 349.24287,1130.7659 L 349.24287,1147.7659 C 349.24287,1151.7659 354.24287,1156.7659 358.24287,1156.7659 L 369.24287,1156.7659 L 369.24287,1148.7659 L 359.24287,1148.7659 C 358.24287,1148.7659 357.24287,1147.7659 357.24287,1146.7659 L 357.24287,1130.7659 L 367.24287,1130.7659 C 372.81306,1139.5868 377.2964,1148.6484 381.24287,1153.7659 C 383.59403,1156.8147 385.74286,1158.1659 387.78037,1158.1659 C 389.71244,1158.1659 392.24287,1156.7659 394.24287,1153.7659 C 394.24287,1153.7659 404.24287,1137.7659 412.74287,1122.7659 L 403.201,1122.7659 L 387.84287,1148.4659 L 372.24287,1122.7659 L 357.24287,1122.7659 L 357.24287,1113.7659 L 349.24287,1113.7659 L 349.24287,1122.7659 L 345.24287,1122.7659 L 345.24287,1083.7659 L 436.74287,1136.2659 L 345.24287,1188.7659 z"
         id="path3509"
         sodipodi:nodetypes="cccccccccccscscccccccccccc" />
      <path
         sodipodi:nodetypes="ccccccccccccccccc"
         id="path3511"
         d="M 340.36027,1130.6374 L 340.36027,1122.8433 L 306.4824,1122.8433 C 301.06194,1122.8433 296.31904,1127.0947 296.31904,1133.4717 C 296.31904,1139.8488 301.06194,1144.1001 306.4824,1144.1001 L 330.87447,1144.1001 C 332.22957,1144.1001 333.58468,1145.5173 333.58468,1146.9344 C 333.58468,1148.3515 332.22957,1149.7686 330.87447,1149.7686 L 296.99659,1149.7686 L 296.99659,1157.5628 L 330.87447,1157.5628 C 336.29493,1157.5628 341.03782,1153.3114 341.03782,1146.9344 C 341.03782,1140.5573 336.29493,1136.306 330.87447,1136.306 L 306.4824,1136.306 C 305.12728,1136.306 303.77217,1134.8889 303.77217,1133.4717 C 303.77217,1132.0546 305.12728,1130.6374 306.4824,1130.6374 L 340.36027,1130.6374 z"
         style="fill:#111fc6;fill-opacity:1;fill-rule:evenodd;stroke:none;stroke-width:0.1;stroke-linecap:butt;stroke-linejoin:miter;stroke-miterlimit:4;stroke-dasharray:none;stroke-opacity:1" />
    </g>
  </g>
</svg>
