<?xml version="1.0" encoding="utf-8"?>
<!-- Generator: Adobe Illustrator 13.0.1, SVG Export Plug-In  -->
<!DOCTYPE svg PUBLIC "-//W3C//DTD SVG 1.1//EN" "http://www.w3.org/Graphics/SVG/1.1/DTD/svg11.dtd" [
	<!ENTITY ns_flows "http://ns.adobe.com/Flows/1.0/">
]>
<svg version="1.1"
	 xmlns="http://www.w3.org/2000/svg" xmlns:xlink="http://www.w3.org/1999/xlink" xmlns:a="http://ns.adobe.com/AdobeSVGViewerExtensions/3.0/"
	 x="0px" y="0px" width="169px" height="96px" viewBox="-0.625 -0.509 169 96" enable-background="new -0.625 -0.509 169 96"
	 xml:space="preserve">
<defs>
</defs>
<path fill-rule="evenodd" clip-rule="evenodd" d="M22.799,8.748H16.86c-0.064-2.809-2.108-4.406-4.854-4.406
	c-2.363,0-5.109,0.895-5.109,3.704c0,6.387,16.731,2.171,16.731,12.645c0,6.449-5.556,9.387-11.431,9.387
	c-6.705,0-12.261-2.362-12.197-9.706h6.323c0,3.193,1.724,5.364,5.108,5.364c2.491,0,5.812-0.894,5.812-3.896
	c0-6.705-16.476-2.171-16.476-12.963C0.767,2.49,6.706,0,12.197,0C18.009,0,22.416,2.81,22.799,8.748L22.799,8.748z"/>
<path fill-rule="evenodd" clip-rule="evenodd" d="M47.257,29.503l-2.874-9.579c-0.638-2.107-1.021-4.215-1.468-6.322
	c-0.319,1.532-0.575,3.064-1.022,4.534l-0.447,1.597l-2.683,9.77h-7.088L25.097,9.387h6.769l2.811,10.538l0.383,1.469l0.319,1.404
	c0.128,0.831,0.256,1.661,0.383,2.491c0.319-2.427,0.894-4.726,1.533-7.025l2.49-8.877h6.897l2.619,9.26
	c0.638,2.172,1.086,4.343,1.405,6.578l0.191-1.149c0.256-1.916,0.767-3.768,1.341-5.683l2.491-9.005h6.45l-6.897,20.116H47.257
	L47.257,29.503z"/>
<polygon fill-rule="evenodd" clip-rule="evenodd" points="64.18,9.387 70.183,9.387 70.183,29.503 64.18,29.503 64.18,9.387 "/>
<polygon fill-rule="evenodd" clip-rule="evenodd" points="63.988,0.639 70.375,0.639 70.375,5.62 63.988,5.62 63.988,0.639 "/>
<path fill-rule="evenodd" clip-rule="evenodd" d="M90.491,14.688h-5.365c-0.128-1.468-1.469-2.235-2.873-2.235
	c-1.278,0-3.13,0.383-3.066,2.044c0.064,1.277,1.469,1.66,2.491,1.916l2.299,0.574c3.513,0.767,7.535,2.235,7.535,6.45
	c0,5.109-5.236,6.642-9.451,6.642c-4.151,0-8.238-1.852-8.558-6.322h5.556c0.192,1.788,1.596,2.682,3.321,2.682
	c1.533,0,3.513-0.639,3.513-2.49c0-3.832-12.007-1.086-12.007-8.876c0-4.726,4.727-6.259,8.686-6.259
	c3.639,0,7.28,1.469,7.854,5.428L90.491,14.688L90.491,14.688z"/>
<path fill-rule="evenodd" clip-rule="evenodd" d="M110.224,14.688h-5.364c-0.128-1.468-1.47-2.235-2.874-2.235
	c-1.277,0-3.129,0.383-3.065,2.044c0.064,1.277,1.469,1.66,2.49,1.916l2.299,0.574c3.514,0.767,7.536,2.235,7.536,6.45
	c0,5.109-5.237,6.642-9.451,6.642c-4.151,0-8.238-1.852-8.558-6.322h5.556c0.192,1.788,1.597,2.682,3.321,2.682
	c1.533,0,3.513-0.639,3.513-2.49c0-3.832-12.007-1.086-12.007-8.876c0-4.726,4.727-6.259,8.687-6.259
	c3.64,0,7.279,1.469,7.854,5.428L110.224,14.688L110.224,14.688z"/>
<polygon fill-rule="evenodd" clip-rule="evenodd" points="0.831,58.367 37.231,58.367 37.231,66.032 0.831,66.032 0.831,58.367 "/>
<polygon fill-rule="evenodd" clip-rule="evenodd" points="1.15,71.778 9.26,71.778 9.26,95.407 1.15,95.407 1.15,71.778 "/>
<polygon fill-rule="evenodd" clip-rule="evenodd" points="14.944,71.778 23.054,71.778 23.054,95.407 14.944,95.407 14.944,71.778 
	"/>
<polygon fill-rule="evenodd" clip-rule="evenodd" points="28.801,71.778 36.912,71.778 36.912,95.407 28.801,95.407 28.801,71.778 
	"/>
<path fill-rule="evenodd" clip-rule="evenodd" d="M138.45,15.198c3.576-1.021,6.258-3.193,6.258-7.152
	c0-5.556-5.173-7.407-9.962-7.407h-11.942v28.864h6.195V17.817h4.853c5.556,0,4.216,7.727,5.109,11.686h6.769
	C142.665,24.075,146.368,16.731,138.45,15.198L138.45,15.198z M133.469,13.091h-4.47V5.172h4.533c2.555,0,4.662,1.086,4.662,3.896
	C138.194,11.941,136.087,13.091,133.469,13.091L133.469,13.091z"/>
<path fill-rule="evenodd" clip-rule="evenodd" d="M157.991,26.438c-3.192,0-3.769-2.746-3.769-5.428h13.283
	c0-6.451-2.298-12.198-9.77-12.198c-6.45,0-9.707,5.237-9.707,11.176c0,6.194,3.703,10.089,9.897,10.089
	c4.215,0,8.558-1.788,8.878-6.513h-5.364C161.057,25.48,159.971,26.438,157.991,26.438L157.991,26.438z M157.607,12.453
	c3.002,0,3.577,2.491,3.704,4.917h-7.089C154.287,15.198,154.926,12.453,157.607,12.453L157.607,12.453z"/>
</svg>
