<?xml version="1.0" encoding="UTF-8" standalone="no"?>
<svg
   xmlns:dc="http://purl.org/dc/elements/1.1/"
   xmlns:cc="http://creativecommons.org/ns#"
   xmlns:rdf="http://www.w3.org/1999/02/22-rdf-syntax-ns#"
   xmlns:svg="http://www.w3.org/2000/svg"
   xmlns="http://www.w3.org/2000/svg"
   xmlns:xlink="http://www.w3.org/1999/xlink"
   xmlns:sodipodi="http://sodipodi.sourceforge.net/DTD/sodipodi-0.dtd"
   xmlns:inkscape="http://www.inkscape.org/namespaces/inkscape"
   version="1.1"
   id="Layer_1"
   x="0px"
   y="0px"
   width="750"
   height="144"
   viewBox="0 0 750 144"
   enable-background="new 0 0 2304 936"
   xml:space="preserve">
<rect
   id="rect27"
   height="143.99908"
   width="712.29706"
   clip-path="none"
   y="0.00090116629"
   x="2.5198369e-007" /><path
   inkscape:connector-curvature="0"
   id="path29"
   d="m 738.13339,0.02352622 h -3.26708 V 16.60674 h 1.81004 V 2.12647 h 0.0751 l 4.71661,14.48027 h 1.63729 l 4.5739,-14.48027 h 0.0751 V 16.60674 H 750 V 0.02352622 h -3.33467 L 742.45193,13.302114 738.13339,0.02352622 M 726.11657,16.60674 V 2.0438544 h -4.06319 V 0.02352622 h 10.37953 V 2.0438544 h -4.06319 V 16.60674 h -2.25315 z"
   clip-path="none" /><path
   style="fill:#ffffff"
   inkscape:connector-curvature="0"
   id="path31"
   d="m 83.171548,50.081099 -0.713499,-6.789505 c -0.360505,-3.214499 -0.841178,-4.408671 -5.242338,-7.150008 -3.342179,-2.027839 -8.344181,-2.853995 -12.985678,-2.853995 -8.344181,0 -17.634686,5.595332 -17.634686,17.386838 0,8.103844 4.769176,13.105846 19.655014,14.77318 16.801019,1.779992 27.405864,5.955838 27.405864,19.534846 0,20.376025 -18.228017,30.139695 -35.982871,30.139695 -8.33667,0 -16.440514,-2.62117 -20.368512,-4.52133 0.953835,-6.19618 0.953835,-12.625177 0.833667,-18.22802 h 3.815341 l 0.946324,7.98368 c 0.600841,5.002 10.011515,9.53835 19.422188,9.53835 10.725014,0 21.322348,-6.55668 21.322348,-18.348186 C 83.64471,80.2283 74.827367,77.0138 62.682867,75.579292 43.974178,73.438796 36.591343,67.603127 36.591343,55.210779 c 0,-18.468352 16.200178,-26.92519 30.492685,-26.92519 9.530841,0 16.68085,3.101842 21.562684,5.009512 -1.186661,6.068495 -1.667334,11.198176 -1.667334,16.793508 h -3.80783"
   clip-path="none" /><path
   style="fill:#ffffff"
   inkscape:connector-curvature="0"
   id="path33"
   d="m 134.76127,72.116945 12.27217,-19.414677 c 4.76167,-7.503003 8.93,-15.013517 12.86551,-22.636688 h 9.53085 v 1.787502 c -10.01152,11.558681 -24.42419,31.686857 -29.30603,42.284191 -1.43451,3.101843 -1.67484,6.083516 -1.67484,8.930001 v 15.374021 c 0,4.536355 0.24033,7.623175 1.074,8.930005 0.72101,1.19417 2.14801,1.67484 5.00951,1.77999 l 5.7155,0.36801 v 3.57501 c -6.19617,-0.24034 -11.79901,-0.36051 -17.27418,-0.36051 -5.83567,0 -11.43851,0.12017 -17.63468,0.36051 v -3.57501 l 5.72301,-0.36801 c 2.85399,-0.11266 4.2885,-0.58582 5.002,-1.77999 0.83367,-1.31434 1.074,-4.40117 1.074,-8.930005 V 81.520108 c 0,-1.90016 -0.3605,-3.575004 -1.074,-4.761665 L 111.29091,51.027423 C 105.09474,40.30241 99.018731,35.893739 96.044568,35.540745 L 92.589732,35.18024 v -3.454836 l 13.699178,-2.853995 c 2.38083,-0.480673 4.16833,1.900159 6.19617,4.408671 2.02033,2.501001 3.68766,4.881834 5.24234,7.743339 l 17.03385,31.093526"
   clip-path="none" /><path
   style="fill:#ffffff"
   inkscape:connector-curvature="0"
   id="path35"
   d="m 265.51179,98.448806 c 0,4.536354 0.24034,7.623174 1.07401,8.930004 0.7135,1.19417 2.14049,1.67484 5.002,1.77999 l 5.7155,0.36801 v 3.57501 c -6.19617,-0.24034 -11.79151,-0.36051 -17.27418,-0.36051 -5.83567,0 -11.431,0.12017 -15.95984,0.36051 v -3.57501 l 4.04817,-0.36801 c 2.8615,-0.22532 4.2885,-0.58582 5.002,-1.77999 0.84117,-1.31434 1.074,-4.40116 1.074,-8.930004 V 44.365598 h -0.23283 c -1.79501,3.2145 -3.46234,6.549168 -5.00951,9.756157 l -21.20218,45.033039 c -2.26817,4.881836 -4.2885,10.131686 -6.43651,15.133686 h -2.38083 l -33.0012,-69.922882 h -0.23282 v 54.083208 c 0,4.536354 0.23282,7.623174 1.06649,8.930004 0.7135,1.19417 2.14801,1.55467 5.002,1.77999 l 5.24985,0.36801 v 3.57501 c -5.24985,-0.12017 -9.53835,-0.36051 -14.30002,-0.36051 -4.2885,0 -9.05017,0.24034 -13.81934,0.36051 v -3.57501 l 5.24234,-0.36801 c 2.8615,-0.22532 4.2885,-0.58582 5.002,-1.77999 0.83367,-1.31434 1.074,-4.40116 1.074,-8.930004 V 44.958928 c 0,-4.528839 -0.24033,-7.623171 -1.074,-8.937511 -0.7135,-1.186661 -2.1405,-1.547165 -5.002,-1.787502 l -5.24234,-0.352994 v -3.575004 c 3.69517,0.120168 7.51051,0.360504 11.31834,0.360504 3.81534,0 7.62317,-0.240336 11.31835,-0.360504 l 31.44652,66.235218 31.21369,-66.235218 c 3.81534,0.120168 7.503,0.360504 11.31834,0.360504 3.81535,0 7.62318,-0.240336 11.07801,-0.360504 v 3.575004 l -5.002,0.352994 c -2.86151,0.240337 -4.2885,0.600841 -5.002,1.787502 -0.83367,1.31434 -1.07401,4.408672 -1.07401,8.937511 v 53.489878"
   clip-path="none" /><path
   style="fill:#ffffff"
   inkscape:connector-curvature="0"
   id="path37"
   d="M 324.78477,80.693952 309.77125,45.199265 294.64508,80.693952 h 30.13969 m 18.70118,16.327856 c 1.074,2.373322 2.38083,5.587822 3.81534,8.088822 1.30683,2.26818 2.62117,3.82285 4.76166,4.04817 l 4.05568,0.36801 v 3.57501 c -5.24234,-0.12017 -10.48468,-0.36051 -15.84718,-0.36051 -4.16834,0 -9.41068,0.24034 -15.84719,0.36051 v -3.57501 l 5.60285,-0.36801 c 2.501,-0.11266 4.88183,-0.94633 4.88183,-2.37332 0,-1.67485 -1.30683,-4.76167 -2.501,-7.630686 l -5.48268,-13.691666 h -34.30802 l -3.33467,7.983676 c -1.074,2.501001 -4.16834,10.484676 -4.16834,12.384836 0,2.501 2.02033,2.97416 5.71551,3.32716 l 4.40867,0.36801 v 3.57501 c -5.7155,-0.12017 -10.24434,-0.36051 -13.69918,-0.36051 -4.64901,0 -9.17034,0.24034 -13.69918,0.36051 v -3.57501 l 4.40868,-0.36801 c 2.8615,-0.22532 5.12217,-2.73383 6.42899,-5.82816 l 21.20969,-48.247539 c 3.69518,-8.33667 7.74334,-17.154013 10.95784,-25.73102 h 3.81534 l 28.82536,67.669727 z"
   clip-path="none" /><path
   style="fill:#ffffff"
   inkscape:connector-curvature="0"
   id="path39"
   d="m 361.94679,44.958928 c 0,-4.528839 -0.24034,-7.623171 -1.07401,-8.937511 -0.71349,-1.186661 -2.14049,-1.547165 -5.002,-1.787502 l -5.24234,-0.352994 v -3.575004 c 5.24234,0.120168 10.01152,0.360504 14.30002,0.360504 2.1405,0 4.2885,-0.240336 6.429,-0.360504 l 56.94471,70.283383 h 0.36051 V 44.958928 c 0,-4.528839 -0.24034,-7.623171 -1.074,-8.937511 -0.7135,-1.186661 -2.14801,-1.547165 -5.00201,-1.787502 l -5.24233,-0.352994 v -3.575004 c 4.76166,0.120168 9.53084,0.360504 13.81934,0.360504 4.76167,0 9.05017,-0.240336 14.29251,-0.360504 v 3.575004 l -5.24234,0.352994 c -2.86151,0.240337 -4.2885,0.600841 -5.002,1.787502 -0.83367,1.31434 -1.07401,4.408672 -1.07401,8.937511 v 65.762052 c 0,1.427 0.24034,2.97417 0.36051,4.40117 l -10.72502,-1.90016 -56.11104,-69.69757 h -0.23283 v 54.924386 c 0,4.536354 0.23283,7.623174 1.0665,8.930004 0.721,1.19417 2.148,1.55467 5.00951,1.77999 l 5.24234,0.36801 v 3.57501 c -5.24234,-0.12017 -9.53085,-0.36051 -14.30002,-0.36051 -4.2885,0 -9.05017,0.24034 -13.81935,0.36051 v -3.57501 l 5.24234,-0.36801 c 2.86151,-0.22532 4.28851,-0.58582 5.002,-1.77999 0.83367,-1.31434 1.07401,-4.40116 1.07401,-8.930004 V 44.958928"
   clip-path="none" /><path
   style="fill:#ffffff"
   inkscape:connector-curvature="0"
   id="path41"
   d="m 472.62171,48.05326 c 0,-4.52884 -0.12016,-8.33667 -0.47316,-11.911674 H 453.6802 c -3.575,0 -4.52133,1.074003 -4.76167,3.935509 l -0.48067,9.410673 h -3.68766 c 0,-6.43651 -0.24034,-12.985678 -0.83367,-19.181851 8.5695,0 17.15402,0.360504 25.73102,0.360504 h 17.27418 c 8.57701,0 17.15402,-0.360504 25.73102,-0.360504 -0.59333,6.196173 -0.83367,12.745341 -0.83367,19.181851 h -3.69517 l -0.47316,-9.410673 c -0.24034,-2.861506 -1.19417,-3.935509 -4.76918,-3.935509 h -18.46084 c -0.3605,3.575004 -0.48067,7.382834 -0.48067,11.911674 v 50.395546 c 0,4.536354 0.24034,7.623174 1.074,8.930004 0.7135,1.19417 2.14801,1.67484 5.002,1.77999 l 5.7155,0.36801 v 3.57501 c -6.18866,-0.24034 -11.7915,-0.36051 -17.26667,-0.36051 -5.84318,0 -11.43851,0.12017 -17.63468,0.36051 v -3.57501 l 5.7155,-0.36801 c 2.86151,-0.11266 4.29601,-0.58582 5.00951,-1.77999 0.83367,-1.31434 1.06649,-4.40116 1.06649,-8.930004 V 48.05326"
   clip-path="none" /><path
   style="fill:#ffffff"
   inkscape:connector-curvature="0"
   id="path43"
   d="m 525.76611,44.958928 c 0,-4.528839 -0.24034,-7.623171 -1.07401,-8.937511 -0.71349,-1.186661 -2.148,-1.667334 -5.002,-1.787502 l -5.72301,-0.352994 v -3.575004 c 6.55668,0.120168 13.34618,0.360504 20.13569,0.360504 10.36451,0 21.32235,-0.360504 28.11185,-0.360504 5.36251,0 10.72501,0.120168 15.37402,0.360504 -1.31434,5.234828 -1.90767,12.031843 -1.90767,18.100338 h -4.16833 V 41.03093 c 0,-1.554676 -0.12017,-2.861506 -1.07401,-3.22201 -6.31634,-2.380833 -15.72701,-2.501001 -23.35018,-2.501001 -3.2145,0 -6.66934,0.120168 -10.00401,0.953835 v 31.807025 c 3.80783,0.240336 8.09634,0.360504 13.81184,0.360504 7.27017,0 11.31834,-0.473162 12.63268,-1.31434 0.59333,-0.473162 0.83367,-1.547165 0.95384,-3.094331 l 0.59333,-6.196174 h 3.575 c -0.12017,4.881834 -0.3605,9.410674 -0.3605,13.819345 0,4.416182 0.24033,8.930001 0.3605,13.226014 h -3.575 l -0.59333,-7.02984 c -0.12017,-1.547166 -0.36051,-2.62117 -0.95384,-2.974164 -1.31434,-0.953835 -5.36251,-1.426997 -12.63268,-1.426997 -5.7155,0 -10.12418,0 -13.81184,0.352994 v 33.3617 c 3.33467,0.83367 6.78951,0.95384 10.00401,0.95384 9.77117,0 21.91567,-0.36051 24.06368,-1.55468 1.7875,-0.95384 3.33467,-6.18866 4.16834,-13.338672 h 4.16833 c -1.18666,5.723011 -1.90016,13.105842 -1.90016,19.542352 -5.24985,0.12017 -14.66052,0.47317 -23.47035,0.36051 -9.17034,-0.12017 -18.58852,-0.36051 -25.97136,-0.36051 -4.52884,0 -8.45684,0.24034 -12.74534,0.36051 v -3.57501 l 4.2885,-0.36801 c 2.854,-0.22532 4.28851,-0.58582 5.002,-1.77999 0.83367,-1.31434 1.07401,-4.40116 1.07401,-8.930003 V 44.958928"
   clip-path="none" /><path
   style="fill:#ffffff"
   inkscape:connector-curvature="0"
   id="path45"
   d="m 655.05209,108.69315 c -6.90967,4.16833 -18.70869,6.42149 -25.97136,6.42149 -28.59252,0 -47.89454,-16.320351 -47.89454,-43.350689 0,-13.699176 5.3625,-24.544358 14.54035,-32.047361 8.93,-7.382835 21.08201,-11.438512 34.4282,-11.438512 11.078,0 21.79551,2.861506 27.51852,4.889344 -1.19417,5.595333 -2.26818,11.911675 -2.26818,18.107848 h -3.68766 v -8.577006 c 0,-3.342179 -4.76918,-5.362507 -10.24434,-7.390345 -3.81534,-1.30683 -8.93751,-2.020328 -13.34618,-2.020328 -22.39635,0 -34.18786,16.312835 -34.18786,36.56869 0,23.590523 15.60685,38.836869 39.18986,38.836869 8.57701,0 18.70869,-3.10185 24.18385,-7.15001 l 1.07401,1.19417 -3.33467,5.95584"
   clip-path="none" /><polyline
   style="fill:#ffffff"
   id="polyline47"
   points="904.311,478.11 905.977,476.444 904.311,474.779 902.646,476.444      904.311,478.11    "
   clip-path="none"
   transform="matrix(7.5105135,0,0,7.5105135,-6113.1523,-3466.8971)" />
</svg>