<?xml version="1.0" encoding="UTF-8" standalone="no"?>
<!-- Created with Inkscape (http://www.inkscape.org/) -->

<svg
   xmlns:dc="http://purl.org/dc/elements/1.1/"
   xmlns:cc="http://creativecommons.org/ns#"
   xmlns:rdf="http://www.w3.org/1999/02/22-rdf-syntax-ns#"
   xmlns:svg="http://www.w3.org/2000/svg"
   xmlns="http://www.w3.org/2000/svg"
   xmlns:sodipodi="http://sodipodi.sourceforge.net/DTD/sodipodi-0.dtd"
   xmlns:inkscape="http://www.inkscape.org/namespaces/inkscape"
   width="638.40002"
   height="795.79999"
   id="svg2"
   version="1.1"
   inkscape:version="0.48.4 r9939"
   sodipodi:docname="New document 1">
  <defs
     id="defs4" />
  <sodipodi:namedview
     id="base"
     pagecolor="#ffffff"
     bordercolor="#666666"
     borderopacity="1.0"
     inkscape:pageopacity="0.0"
     inkscape:pageshadow="2"
     inkscape:zoom="0.49497475"
     inkscape:cx="795.18572"
     inkscape:cy="476.863"
     inkscape:document-units="px"
     inkscape:current-layer="layer1"
     showgrid="false"
     inkscape:window-width="1280"
     inkscape:window-height="750"
     inkscape:window-x="-8"
     inkscape:window-y="-8"
     inkscape:window-maximized="1" />
  <metadata
     id="metadata7">
    <rdf:RDF>
      <cc:Work
         rdf:about="">
        <dc:format>image/svg+xml</dc:format>
        <dc:type
           rdf:resource="http://purl.org/dc/dcmitype/StillImage" />
        <dc:title></dc:title>
      </cc:Work>
    </rdf:RDF>
  </metadata>
  <g
     inkscape:label="Layer 1"
     inkscape:groupmode="layer"
     id="layer1"
     transform="translate(0,-256.56212)">
    <g
       id="g2999"
       transform="translate(-63.370829,232.67817)">
      <text
         x="305.2464"
         y="601.58624"
         id="text3190"
         xml:space="preserve"
         style="font-size:22px;font-style:normal;font-variant:normal;font-weight:bold;font-stretch:normal;text-align:start;line-height:100%;writing-mode:lr-tb;text-anchor:start;fill:#000000;fill-opacity:1;stroke:none;font-family:Ornitons;-inkscape-font-specification:Ornitons Bold"
         sodipodi:linespacing="100%"><tspan
           x="305.2464"
           y="601.58624"
           id="tspan3192" /></text>
      <g
         transform="translate(5,1.5534604e-6)"
         id="g3031">
        <path
           inkscape:connector-curvature="0"
           style="fill:#0000ff;fill-opacity:1;fill-rule:evenodd;stroke:none"
           id="path2396"
           d="m 355.3443,106.47758 -278.656555,510.26708 169.184275,0 C 264.26466,378.04395 398.74278,202.79834 548.9563,164.38023 423.71749,262.45323 333.80542,400.769 340.86866,616.74466 l 293.13209,0 L 355.3443,106.47758 z" />
        <path
           inkscape:connector-curvature="0"
           style="fill:#0000ff;fill-opacity:1;fill-rule:nonzero;stroke:none"
           id="path3188"
           d="m 695.52228,100.14449 a 75.092498,75.092498 0 1 1 -150.18496,0 75.092498,75.092498 0 1 1 150.18496,0 z" />
        <path
           inkscape:connector-curvature="0"
           style="font-size:40.76861954px;font-style:normal;font-variant:normal;font-weight:bold;font-stretch:normal;text-align:start;line-height:100%;writing-mode:lr-tb;text-anchor:start;fill:#999999;fill-opacity:1;stroke:none;font-family:Arial;-inkscape-font-specification:Arial Bold"
           id="text3194"
           d="m 109.23431,816.05272 0,-109.46459 -49.23431,0 0,-22.28837 131.85739,0 0,22.28837 -49.12111,0 0,109.46459 -33.50197,0 z" />
        <path
           inkscape:connector-curvature="0"
           style="font-size:40.76041412px;font-style:normal;font-variant:normal;font-weight:bold;font-stretch:normal;text-align:start;line-height:100%;writing-mode:lr-tb;text-anchor:start;fill:#999999;fill-opacity:1;stroke:none;font-family:Arial;-inkscape-font-specification:Arial Bold"
           id="text3198"
           d="m 325.21537,816.69276 -36.43005,0 -14.48147,-29.9275 -66.29814,0 -13.68956,29.9275 -35.52496,0 64.60108,-131.75295 35.41183,0 66.41127,131.75295 z m -61.65951,-52.12599 -22.85366,-48.89059 -22.40106,48.89059 45.25472,0 z" />
        <path
           inkscape:connector-curvature="0"
           style="font-size:38.2849617px;font-style:normal;font-variant:normal;font-weight:bold;font-stretch:normal;text-align:start;line-height:100%;writing-mode:lr-tb;text-anchor:start;fill:#999999;fill-opacity:1;stroke:none;font-family:Arial;-inkscape-font-specification:Arial Bold"
           id="text3202"
           d="m 324.38533,816.69241 0,-131.753 29.54435,0 0,131.753 -29.54435,0 z" />
        <path
           inkscape:connector-curvature="0"
           style="font-size:39.73423004px;font-style:normal;font-variant:normal;font-weight:bold;font-stretch:normal;text-align:start;line-height:100%;writing-mode:lr-tb;text-anchor:start;fill:#999999;fill-opacity:1;stroke:none;font-family:Arial;-inkscape-font-specification:Arial Bold"
           id="text3206"
           d="m 495.49833,751.625 c 0,-13.42086 2.40111,-24.68486 7.20327,-33.79202 3.58373,-6.71035 8.47552,-12.73181 14.67537,-18.06439 6.1998,-5.33232 12.99097,-9.28665 20.37349,-11.86316 9.81935,-3.4749 21.1439,-5.21245 33.97375,-5.21255 23.22242,1e-4 41.80405,6.02156 55.74488,18.06434 13.94058,12.04303 20.91089,28.78922 20.91104,50.23868 -1.5e-4,21.2699 -6.91671,37.91121 -20.74977,49.9241 -13.83332,12.01303 -32.32538,18.01945 -55.47611,18.01945 -23.43764,0 -42.07303,-5.97653 -55.90614,-17.92952 -13.83322,-11.953 -20.74978,-28.41466 -20.74978,-49.38493 l 0,0 z m 32.79108,-0.89869 c 0,14.91881 4.12128,26.22781 12.36384,33.92683 8.24256,7.69908 18.70702,11.54859 31.39349,11.54859 12.68627,0 23.09703,-3.81957 31.23223,-11.45871 8.13489,-7.63914 12.20242,-19.0979 12.20252,-34.37623 -10e-5,-15.09847 -3.96012,-26.36248 -11.88004,-33.79202 -7.92013,-7.42938 -18.43835,-11.14408 -31.55471,-11.14423 -13.11651,1.5e-4 -23.68849,3.75979 -31.71597,11.27905 -8.02759,7.51942 -12.04136,18.85826 -12.04136,34.01672 l 0,0 z" />
        <path
           inkscape:connector-curvature="0"
           style="font-size:40.76861954px;font-style:normal;font-variant:normal;font-weight:bold;font-stretch:normal;text-align:start;line-height:100%;writing-mode:lr-tb;text-anchor:start;fill:#999999;fill-opacity:1;stroke:none;font-family:Arial;-inkscape-font-specification:Arial Bold"
           id="text3210"
           d="m 413.29822,816.69231 0,-109.46464 -49.23431,0 0,-22.28831 131.85737,0 0,22.28831 -49.12109,0 0,109.46464 -33.50197,0 z" />
      </g>
    </g>
  </g>
</svg>
