<?xml version="1.0" encoding="utf-8"?>
<!-- Generator: Adobe Illustrator 16.0.0, SVG Export Plug-In . SVG Version: 6.00 Build 0)  -->
<!DOCTYPE svg PUBLIC "-//W3C//DTD SVG 1.1//EN" "http://www.w3.org/Graphics/SVG/1.1/DTD/svg11.dtd">
<svg version="1.1" id="Layer_1" xmlns="http://www.w3.org/2000/svg" xmlns:xlink="http://www.w3.org/1999/xlink" x="0px" y="0px"
	 width="400px" height="400px" viewBox="0 0 400 400" enable-background="new 0 0 400 400" xml:space="preserve">
<g>
	<g>
		<path fill-rule="evenodd" clip-rule="evenodd" fill="#FEFEFE" d="M194.013,357.383c-59.25,0-118.5-0.01-177.75,0.047
			c-1.875,0.002-2.298-0.422-2.297-2.297c0.053-95.5,0.053-190.999,0-286.499c-0.001-1.875,0.422-2.298,2.297-2.297
			c118.5,0.052,237,0.052,355.5,0c1.875-0.001,2.299,0.422,2.297,2.297c-0.053,95.5-0.053,190.999,0,286.499
			c0.002,1.875-0.422,2.299-2.297,2.297C312.513,357.373,253.263,357.383,194.013,357.383z M168.669,193.289
			c0.066,10.327-1.934,20.334-3.951,30.391c-2.109,10.516-6.422,20.051-11.535,29.314c-3.751,6.797-9.034,12.326-14.869,17.355
			c-5.582,4.813-11.732,8.838-18.613,11.412c-8.715,3.26-17.751,3.291-26.816,1.324c-3.173-0.689-3.579-1.09-3.453-4.33
			c0.372-9.648,0.785-19.297,1.153-28.947c0.309-8.066,0.871-16.104,1.854-24.127c0.881-7.176,2.26-14.324,2.257-21.58
			c-0.003-6.774,1.261-13.418,1.669-20.149c0.872-14.351,4.111-28.478,3.806-42.97c-0.119-5.643-2.49-9.919-5.896-13.856
			c-2.127-2.457-4.677-1.886-6.198,1.069c-1.085,2.104-1.355,4.442-1.732,6.739c-2.456,14.939-4.88,29.885-7.357,44.821
			c-1.811,10.904-3.715,21.792-5.525,32.695c-1.719,10.344-2.752,20.775-3.989,31.182c-1.222,10.27-2.327,20.508,0.399,30.73
			c0.441,1.652-0.43,2.34-2.15,1.736c-2.51-0.881-5.036-1.715-7.565-2.535c-1.074-0.35-2.222-0.523-2.87,0.68
			c-0.663,1.229,0.277,2.01,1.049,2.771c0.234,0.23,0.51,0.453,0.809,0.58c4.898,2.07,9.351,5.131,14.412,6.801
			c8.611,2.842,17.405,5.02,26.465,5.82c6.17,0.545,12.297,0.236,18.262-1.752c5.205-1.736,10.521-3.193,15.465-5.596
			c6.533-3.176,12.691-7.057,17.885-12.135c5.132-5.018,8.92-11.168,12.895-17.115c1.613-2.414,3.139-4.918,4.42-7.521
			c5.893-11.984,7.695-25.043,9.641-38.029c1.051-7.006,0.941-14.088,0.691-21.18c-0.385-10.879-1.994-21.59-4.958-31.992
			c-2.755-9.672-6.891-18.894-11.942-27.637c-6.656-11.521-15.074-21.295-27.277-27.309c-11.531-5.683-23.246-6.075-34.966-0.921
			c-10.368,4.561-18.418,12.238-25.409,20.886c-6.18,7.644-11.326,16.092-14.863,25.299c-3.305,8.607-6.065,17.43-7.952,26.491
			c-0.372,1.784-1.185,3.485-0.987,5.366c0.135,1.277,0.404,2.751,1.93,2.785c1.593,0.037,1.498-1.537,1.584-2.648
			c0.761-9.775,3.939-18.938,7.98-27.68c5.346-11.568,13.2-21.559,22.09-30.639c6.787-6.933,14.21-13.18,23.716-16.112
			c9.761-3.011,19.095-2.118,27.522,4.095c8.316,6.131,14.863,13.764,19.336,23.137c1.723,3.61,2.904,7.421,4.4,11.109
			C166.273,157.874,169.082,175.294,168.669,193.289z M249.946,246.305c0.256,2.652-0.064,5.588,0.604,8.463
			c0.768,3.301,4.029,6.322,7.299,6.709c2.42,0.287,4.354-0.994,5.816-3.854c1.789-3.494,1.879-3.512,4.898-0.957
			c4.16,3.52,8.684,3.695,11.879,0.445c2.037-2.074,2.873-4.678,2.959-7.492c0.328-10.824,0.684-21.66-0.885-32.428
			c-0.418-2.867,0.662-4.854,2.918-6.369c2.105-1.416,3.783-0.719,4.102,1.766c0.275,2.145,0.434,4.313,0.492,6.475
			c0.238,8.684-1.373,17.24-1.867,25.879c-0.197,3.426-0.414,6.822,0.232,10.201c0.455,2.395,3.422,5.176,5.539,5.07
			c2.957-0.15,3.35-2.518,3.748-4.795c0.287-1.639,0.641-3.266,0.908-4.906c0.311-1.889,0.545-3.789,0.842-5.68
			c0.135-0.857,0.434-1.738,1.484-1.666c0.91,0.063,1.076,0.906,1.166,1.682c0.088,0.744,0.195,1.486,0.26,2.232
			c0.41,4.775,2.971,8.205,6.816,10.797c3.266,2.201,8.863,2.143,11.51-0.061c2.877-2.393,3.23-2.49,6.145-0.027
			c2.762,2.336,5.85,3.35,9.422,3.273c3.504-0.074,4.91-1.201,5.826-4.592c1.25-4.631,0.586-9.248,0.199-13.891
			c-0.92-11.029-2.371-22.043-1.215-33.146c0.277-2.648,0.668-5.281,0.934-7.93c0.268-2.632-1.691-5.328-4.158-5.729
			c-2.053-0.336-3.709,0.305-4.289,2.454c-1.584,5.859-3.178,11.714-4.588,17.617c-1.91,8.004-2.865,16.223-5.355,24.102
			c-0.471,1.49-1.066,2.838-2.648,3.396c-2.252,0.795-2.742,2.453-2.363,4.582c0.219,1.229,0.484,2.436,0.133,3.703
			c-0.861,3.121-3,3.748-5.32,1.545c-2.146-2.039-2.293-4.732-2.383-7.395c-0.344-10.135,0.604-20.115,3.561-29.869
			c1.475-4.863-0.369-7.656-5.424-8.504c-2.713-0.455-3.848,0.252-4.619,2.9c-1.021,3.512-2.014,7.033-3.057,10.539
			c-0.25,0.842-0.346,2.145-1.393,2.117c-1.35-0.035-1.094-1.479-1.209-2.375c-0.354-2.803-0.4-5.639-1.365-8.352
			c-1.813-5.098-7.75-9.434-11.871-7.805c-3.012,1.191-4.848,0.23-7.467-0.826c-5.828-2.355-6.592-2.684-9.348,3.637
			c-2.449,5.615-2.957,11.568-4.338,17.365c-0.611,2.576-1.498,5.152-1.361,7.852c0.344,6.762-1.234,13.219-2.959,19.662
			c-0.277,1.035-0.451,2.418-1.863,2.217c-1.359-0.195-1.309-1.59-1.26-2.648c0.229-4.988,0.473-9.977,0.803-14.959
			c0.992-14.951,2.051-29.898,3.033-44.848c0.268-4.067,1.438-5.518,5.426-6.135c1.314-0.203,2.648-0.325,3.977-0.371
			c11.039-0.381,21.842-2.152,32.381-5.48c1.209-0.382,2.58-0.752,2.725-2.214c0.162-1.634-1.254-2.237-2.486-2.73
			c-3.051-1.222-6.271-1.489-9.531-1.728c-8.967-0.654-17.92-1.503-26.881-2.228c-2.322-0.188-3.27-1.366-3.021-3.62
			c0.215-1.955,0.029-3.845-1.104-5.514c-0.559-0.823-1.205-1.749-2.389-1.456c-1.162,0.287-1.406,1.337-1.449,2.366
			c-0.064,1.582,0,3.168-0.076,4.748c-0.146,3.029-1.328,4.215-4.299,4.367c-3.742,0.191-7.494,0.272-11.229,0.564
			c-4.814,0.375-9.633,0.797-14.42,1.42c-3.176,0.413-3.961,2.573-2.168,5.198c1.664,2.437,4.156,3.759,6.863,4.202
			c5.408,0.885,10.775,2.168,16.313,2.147c5.734-0.021,6.975,1.567,6.303,7.315c-0.801,6.857-2.488,13.581-2.773,20.524
			c-0.186,4.563-0.967,9.1-1.307,13.66C251.247,233.313,249.747,239.607,249.946,246.305z M227.095,305.639
			c0,1.582-0.059,3.168,0.012,4.748c0.24,5.34,0.84,10.639,3.025,15.578c0.912,2.063,2.244,4.117,5.01,3.654
			c1.838-0.307,2.496-2.709,2.094-6.031c-0.691-5.721-0.871-11.492-0.424-17.213c1.451-18.584,3.137-37.148,4.719-55.721
			c0.664-7.791,1.258-15.588,1.955-23.375c0.582-6.484,2.41-12.729,3.854-19.045c0.717-3.141-0.207-5.758-2.553-7.893
			c-2.924-2.66-6.414-1.848-7.691,1.911c-0.854,2.51-1.568,5.102-2.02,7.713c-1.205,6.959-2.24,13.953-4.115,20.771
			c-1.586,5.768-3.035,11.594-5.588,17.045c-0.473,1.012-0.934,2.406-2.434,2.049c-1.508-0.357-1.598-1.807-1.594-3.053
			c0.006-2.418,0.355-4.805,0.826-7.182c1.951-9.887,4.756-19.531,8.018-29.055c1.127-3.287-0.895-6.861-4.574-8.275
			c-2.459-0.945-4.725,0.492-6.033,4.094c-2.125,5.854-4.258,11.682-4.799,18.004c-0.582,6.787-2.146,13.486-1.549,20.375
			c0.135,1.566-0.324,3.15-1.104,4.564c-1.523,2.762-4.205,2.863-5.894,0.225c-0.824-1.289-1.123-2.742-1.314-4.252
			c-0.963-7.525,0.893-14.734,2.515-21.949c0.633-2.82,1.092-5.703,2.4-8.371c1.52-3.096,0.883-5.135-2.041-7.02
			c-1.352-0.873-2.632-1.775-3.454-3.176c-1.84-3.139-4.743-4.157-8.182-4.411c-2.45-0.181-3.768,0.739-4.771,2.999
			c-3.626,8.168-6.404,16.574-7.972,25.387c-1.348,7.578-1.99,15.162-1.032,22.854c0.413,3.316,2.105,5.498,4.96,6.98
			c6.61,3.434,8.883,2.328,10.208-4.986c0.175-0.969,0.151-2.158,1.345-2.436c1.044-0.244,1.556,0.758,2.188,1.4
			c3.197,3.25,6.858,4.846,11.513,3.541c2.176-0.609,4.434-0.705,6.619,0.248c2.547,1.111,4.955,0.873,7.387-0.555
			c2.389-1.4,3.701-0.543,3.404,2.256c-0.975,9.195-1.449,18.422-1.846,27.654C227.88,292.344,226.712,298.949,227.095,305.639z
			 M321.831,183.615c-0.111,1.693,0.641,3.18,2.666,3.629c2.207,0.491,3.68-0.631,4.549-2.584
			c3.139-7.047,6.342-14.064,9.346-21.168c2.496-5.907,2.082-6.518-4.189-7.855c-3.477-0.741-5.143,0.191-6.213,3.603
			c-0.918,2.927-1.801,5.868-2.602,8.829C324.024,173.106,322.333,178.072,321.831,183.615z"/>
		<path fill-rule="evenodd" clip-rule="evenodd" fill="#0D0D0D" d="M168.669,193.289c0.412-17.994-2.396-35.415-9.189-52.17
			c-1.496-3.688-2.678-7.499-4.4-11.109c-4.473-9.373-11.02-17.006-19.336-23.137c-8.428-6.213-17.762-7.105-27.522-4.095
			c-9.506,2.933-16.929,9.18-23.716,16.112c-8.89,9.08-16.744,19.07-22.09,30.639c-4.041,8.742-7.22,17.904-7.98,27.68
			c-0.086,1.111,0.009,2.686-1.584,2.648c-1.525-0.034-1.795-1.508-1.93-2.785c-0.197-1.881,0.615-3.582,0.987-5.366
			c1.887-9.062,4.647-17.884,7.952-26.491c3.537-9.207,8.684-17.655,14.863-25.299c6.991-8.647,15.041-16.325,25.409-20.886
			c11.72-5.154,23.435-4.762,34.966,0.921c12.203,6.014,20.621,15.788,27.277,27.309c5.052,8.743,9.188,17.965,11.942,27.637
			c2.964,10.402,4.573,21.113,4.958,31.992c0.25,7.092,0.359,14.174-0.691,21.18c-1.945,12.986-3.748,26.045-9.641,38.029
			c-1.281,2.604-2.807,5.107-4.42,7.521c-3.975,5.947-7.763,12.098-12.895,17.115c-5.193,5.078-11.352,8.959-17.885,12.135
			c-4.943,2.402-10.26,3.859-15.465,5.596c-5.965,1.988-12.092,2.297-18.262,1.752c-9.06-0.801-17.854-2.979-26.465-5.82
			c-5.062-1.67-9.514-4.73-14.412-6.801c-0.299-0.127-0.574-0.35-0.809-0.58c-0.771-0.762-1.712-1.543-1.049-2.771
			c0.648-1.203,1.796-1.029,2.87-0.68c2.529,0.82,5.056,1.654,7.565,2.535c1.721,0.604,2.592-0.084,2.15-1.736
			c-2.727-10.223-1.621-20.461-0.399-30.73c1.237-10.406,2.271-20.838,3.989-31.182c1.811-10.902,3.715-21.791,5.525-32.695
			c2.478-14.937,4.901-29.882,7.357-44.821c0.377-2.297,0.647-4.635,1.732-6.739c1.521-2.955,4.071-3.526,6.198-1.069
			c3.406,3.938,5.777,8.214,5.896,13.856c0.306,14.492-2.934,28.619-3.806,42.97c-0.408,6.73-1.672,13.375-1.669,20.149
			c0.003,7.256-1.376,14.404-2.257,21.58c-0.983,8.023-1.546,16.061-1.854,24.127c-0.368,9.65-0.781,19.299-1.153,28.947
			c-0.126,3.24,0.28,3.641,3.453,4.33c9.065,1.967,18.102,1.936,26.816-1.324c6.881-2.574,13.031-6.6,18.613-11.412
			c5.835-5.029,11.118-10.559,14.869-17.355c5.113-9.264,9.426-18.799,11.535-29.314
			C166.736,213.623,168.736,203.615,168.669,193.289z"/>
		<path fill-rule="evenodd" clip-rule="evenodd" fill="#0D0D0D" d="M249.946,246.305c-0.199-6.697,1.301-12.992,1.775-19.385
			c0.34-4.561,1.121-9.098,1.307-13.66c0.285-6.943,1.973-13.667,2.773-20.524c0.672-5.748-0.568-7.336-6.303-7.315
			c-5.537,0.021-10.904-1.263-16.313-2.147c-2.707-0.443-5.199-1.766-6.863-4.202c-1.793-2.625-1.008-4.785,2.168-5.198
			c4.787-0.623,9.605-1.045,14.42-1.42c3.734-0.292,7.486-0.373,11.229-0.564c2.971-0.152,4.152-1.338,4.299-4.367
			c0.076-1.58,0.012-3.166,0.076-4.748c0.043-1.029,0.287-2.079,1.449-2.366c1.184-0.293,1.83,0.633,2.389,1.456
			c1.133,1.669,1.318,3.559,1.104,5.514c-0.248,2.254,0.699,3.432,3.021,3.62c8.961,0.725,17.914,1.573,26.881,2.228
			c3.26,0.238,6.48,0.506,9.531,1.728c1.232,0.493,2.648,1.097,2.486,2.73c-0.145,1.462-1.516,1.832-2.725,2.214
			c-10.539,3.328-21.342,5.1-32.381,5.48c-1.328,0.046-2.662,0.168-3.977,0.371c-3.988,0.617-5.158,2.067-5.426,6.135
			c-0.982,14.95-2.041,29.897-3.033,44.848c-0.33,4.982-0.574,9.971-0.803,14.959c-0.049,1.059-0.1,2.453,1.26,2.648
			c1.412,0.201,1.586-1.182,1.863-2.217c1.725-6.443,3.303-12.9,2.959-19.662c-0.137-2.699,0.75-5.275,1.361-7.852
			c1.381-5.797,1.889-11.75,4.338-17.365c2.756-6.321,3.52-5.992,9.348-3.637c2.619,1.057,4.455,2.018,7.467,0.826
			c4.121-1.629,10.059,2.707,11.871,7.805c0.965,2.713,1.012,5.549,1.365,8.352c0.115,0.896-0.141,2.34,1.209,2.375
			c1.047,0.027,1.143-1.275,1.393-2.117c1.043-3.506,2.035-7.027,3.057-10.539c0.771-2.648,1.906-3.355,4.619-2.9
			c5.055,0.848,6.898,3.641,5.424,8.504c-2.957,9.754-3.904,19.734-3.561,29.869c0.09,2.662,0.236,5.355,2.383,7.395
			c2.32,2.203,4.459,1.576,5.32-1.545c0.352-1.268,0.086-2.475-0.133-3.703c-0.379-2.129,0.111-3.787,2.363-4.582
			c1.582-0.559,2.178-1.906,2.648-3.396c2.49-7.879,3.445-16.098,5.355-24.102c1.41-5.902,3.004-11.758,4.588-17.617
			c0.58-2.149,2.236-2.79,4.289-2.454c2.467,0.401,4.426,3.097,4.158,5.729c-0.266,2.648-0.656,5.281-0.934,7.93
			c-1.156,11.104,0.295,22.117,1.215,33.146c0.387,4.643,1.051,9.26-0.199,13.891c-0.916,3.391-2.322,4.518-5.826,4.592
			c-3.572,0.076-6.66-0.938-9.422-3.273c-2.914-2.463-3.268-2.365-6.145,0.027c-2.646,2.203-8.244,2.262-11.51,0.061
			c-3.846-2.592-6.406-6.021-6.816-10.797c-0.064-0.746-0.172-1.488-0.26-2.232c-0.09-0.775-0.256-1.619-1.166-1.682
			c-1.051-0.072-1.35,0.809-1.484,1.666c-0.297,1.891-0.531,3.791-0.842,5.68c-0.268,1.641-0.621,3.268-0.908,4.906
			c-0.398,2.277-0.791,4.645-3.748,4.795c-2.117,0.105-5.084-2.676-5.539-5.07c-0.646-3.379-0.43-6.775-0.232-10.201
			c0.494-8.639,2.105-17.195,1.867-25.879c-0.059-2.162-0.217-4.33-0.492-6.475c-0.318-2.484-1.996-3.182-4.102-1.766
			c-2.256,1.516-3.336,3.502-2.918,6.369c1.568,10.768,1.213,21.604,0.885,32.428c-0.086,2.814-0.922,5.418-2.959,7.492
			c-3.195,3.25-7.719,3.074-11.879-0.445c-3.02-2.555-3.109-2.537-4.898,0.957c-1.463,2.859-3.396,4.141-5.816,3.854
			c-3.27-0.387-6.531-3.408-7.299-6.709C249.882,251.893,250.202,248.957,249.946,246.305z M278.272,229.602
			c0-2.906,0.049-5.813-0.031-8.717c-0.023-0.83-0.469-1.736-1.463-1.76c-1.016-0.025-1.365,0.879-1.514,1.713
			c-1.168,6.531-3.08,12.965-2.848,19.689c0.109,3.156,0.404,6.305,0.652,9.455c0.066,0.84,0.277,1.76,1.287,1.889
			c1.059,0.137,1.34-0.787,1.633-1.568c0.176-0.467,0.344-0.943,0.439-1.43C277.7,242.512,279.017,236.154,278.272,229.602z
			 M333.353,252.621c-0.496-5.182-0.957-10.066-1.439-14.949c-0.076-0.762-0.285-1.605-1.188-1.67
			c-0.926-0.064-1.197,0.781-1.393,1.51c-0.797,2.969-1.533,5.953-2.352,8.914c-1.031,3.738-0.496,5.395,2.635,7.736
			c0.795,0.594,1.59,1.342,2.689,0.773C333.372,254.385,333.343,253.332,333.353,252.621z"/>
		<path fill-rule="evenodd" clip-rule="evenodd" fill="#0D0D0D" d="M227.097,305.639c-0.385-6.689,0.783-13.295,1.066-19.947
			c0.396-9.232,0.871-18.459,1.846-27.654c0.297-2.799-1.016-3.656-3.404-2.256c-2.432,1.428-4.84,1.666-7.387,0.555
			c-2.186-0.953-4.443-0.857-6.619-0.248c-4.654,1.305-8.315-0.291-11.513-3.541c-0.632-0.643-1.144-1.645-2.188-1.4
			c-1.193,0.277-1.17,1.467-1.345,2.436c-1.325,7.314-3.598,8.42-10.208,4.986c-2.854-1.482-4.547-3.664-4.96-6.98
			c-0.958-7.691-0.315-15.275,1.032-22.854c1.567-8.813,4.346-17.219,7.972-25.387c1.003-2.26,2.32-3.179,4.771-2.999
			c3.439,0.254,6.342,1.272,8.182,4.411c0.822,1.4,2.103,2.303,3.454,3.176c2.924,1.885,3.561,3.924,2.041,7.02
			c-1.309,2.668-1.768,5.551-2.4,8.371c-1.622,7.215-3.478,14.424-2.515,21.949c0.191,1.51,0.49,2.963,1.314,4.252
			c1.688,2.639,4.37,2.537,5.894-0.225c0.779-1.414,1.238-2.998,1.104-4.564c-0.598-6.889,0.967-13.588,1.549-20.375
			c0.541-6.322,2.674-12.15,4.799-18.004c1.309-3.602,3.574-5.039,6.033-4.094c3.68,1.414,5.701,4.988,4.574,8.275
			c-3.262,9.523-6.066,19.168-8.018,29.055c-0.471,2.377-0.82,4.764-0.826,7.182c-0.004,1.246,0.086,2.695,1.594,3.053
			c1.5,0.357,1.961-1.037,2.434-2.049c2.553-5.451,4.002-11.277,5.588-17.045c1.875-6.818,2.91-13.813,4.115-20.771
			c0.451-2.611,1.166-5.203,2.02-7.713c1.277-3.758,4.768-4.571,7.691-1.911c2.346,2.135,3.27,4.752,2.553,7.893
			c-1.443,6.316-3.271,12.561-3.854,19.045c-0.697,7.787-1.291,15.584-1.955,23.375c-1.582,18.572-3.268,37.137-4.719,55.721
			c-0.447,5.721-0.268,11.492,0.424,17.213c0.402,3.322-0.256,5.725-2.094,6.031c-2.766,0.463-4.098-1.592-5.01-3.654
			c-2.186-4.939-2.785-10.238-3.025-15.578C227.036,308.807,227.095,307.221,227.097,305.639z M189.087,241.395
			c0,0.914-0.061,1.834,0.018,2.74c0.081,0.963-0.049,2.363,1.055,2.549c1.293,0.219,1.545-1.217,1.947-2.188
			c0.126-0.305,0.225-0.625,0.301-0.947c1.984-8.477,3.979-16.949,5.93-25.434c0.315-1.367,0.484-2.775,0.617-4.176
			c0.066-0.695-0.281-1.311-1.037-1.508c-0.635-0.166-1.162,0.125-1.526,0.611c-0.444,0.596-0.858,1.223-1.204,1.881
			C190.835,223.211,189.913,232.301,189.087,241.395z"/>
		<path fill-rule="evenodd" clip-rule="evenodd" fill="#E72627" d="M321.831,183.615c0.502-5.543,2.193-10.509,3.557-15.547
			c0.801-2.961,1.684-5.902,2.602-8.829c1.07-3.411,2.736-4.344,6.213-3.603c6.271,1.338,6.686,1.948,4.189,7.855
			c-3.004,7.104-6.207,14.121-9.346,21.168c-0.869,1.953-2.342,3.075-4.549,2.584C322.472,186.794,321.72,185.308,321.831,183.615z"
			/>
		<path fill-rule="evenodd" clip-rule="evenodd" fill="#FEFEFE" d="M278.272,229.602c0.744,6.553-0.572,12.91-1.844,19.271
			c-0.096,0.486-0.264,0.963-0.439,1.43c-0.293,0.781-0.574,1.705-1.633,1.568c-1.01-0.129-1.221-1.049-1.287-1.889
			c-0.248-3.15-0.543-6.299-0.652-9.455c-0.232-6.725,1.68-13.158,2.848-19.689c0.148-0.834,0.498-1.738,1.514-1.713
			c0.994,0.023,1.439,0.93,1.463,1.76C278.321,223.789,278.272,226.695,278.272,229.602z"/>
		<path fill-rule="evenodd" clip-rule="evenodd" fill="#FEFEFE" d="M333.353,252.621c-0.01,0.711,0.02,1.764-1.047,2.314
			c-1.1,0.568-1.895-0.18-2.689-0.773c-3.131-2.342-3.666-3.998-2.635-7.736c0.818-2.961,1.555-5.945,2.352-8.914
			c0.195-0.729,0.467-1.574,1.393-1.51c0.902,0.064,1.111,0.908,1.188,1.67C332.396,242.555,332.856,247.439,333.353,252.621z"/>
		<path fill-rule="evenodd" clip-rule="evenodd" fill="#FEFEFE" d="M189.087,241.395c0.825-9.094,1.748-18.184,6.1-26.471
			c0.346-0.658,0.76-1.285,1.204-1.881c0.364-0.486,0.892-0.777,1.526-0.611c0.756,0.197,1.104,0.813,1.037,1.508
			c-0.133,1.4-0.302,2.809-0.617,4.176c-1.951,8.484-3.945,16.957-5.93,25.434c-0.076,0.322-0.175,0.643-0.301,0.947
			c-0.402,0.971-0.654,2.406-1.947,2.188c-1.104-0.186-0.974-1.586-1.055-2.549C189.027,243.229,189.087,242.309,189.087,241.395z"
			/>
	</g>
</g>
</svg>
