<?xml version="1.0" encoding="utf-8"?>
<!-- Generator: Adobe Illustrator 16.0.0, SVG Export Plug-In . SVG Version: 6.00 Build 0)  -->
<!DOCTYPE svg PUBLIC "-//W3C//DTD SVG 1.1//EN" "http://www.w3.org/Graphics/SVG/1.1/DTD/svg11.dtd">
<svg version="1.1" id="Layer_1" xmlns="http://www.w3.org/2000/svg" xmlns:xlink="http://www.w3.org/1999/xlink" x="0px" y="0px"
	 width="600px" height="200px" viewBox="0 0 600 200" enable-background="new 0 0 600 200" xml:space="preserve">
<g>
	<g>
		<path fill-rule="evenodd" clip-rule="evenodd" fill="#FDFDFC" d="M300.312,180.333c-97.301,0-194.602-0.02-291.902,0.084
			c-3.257,0.004-4.193-0.426-4.182-4.007c0.158-49.982,0.139-99.966,0.03-149.949c-0.007-3.147,0.26-4.239,3.947-4.237
			c195.102,0.123,390.204,0.116,585.305,0.046c2.938-0.001,3.928,0.422,3.919,3.736c-0.135,50.149-0.148,100.3,0.018,150.449
			c0.013,3.672-1.067,3.958-4.231,3.955C495.58,180.315,397.946,180.333,300.312,180.333z M507.92,94.512
			c-2.112,6.894-5.195,13.257-9.923,18.752c-0.692,0.806-2.288,1.516-1.323,2.769c0.743,0.968,2.201,0.525,3.24-0.031
			c1.758-0.939,3.229-2.224,4.367-3.909c2.757-4.087,5.535-8.159,8.378-12.186c2.553-3.615,4.833-7.449,8.475-10.19
			c1.567-1.18,3.565-2.35,4.948-1.145c1.732,1.511,0.332,3.647-0.85,5.155c-3.355,4.281-6.51,8.71-8.843,13.608
			c-1.006,2.111-2.208,4.792-0.422,7.018c1.857,2.315,5.215,2.698,7.336,1.639c5.952-2.971,11.223,0.225,16.996,0.498
			c-0.447,0.988-0.633,1.652-1.021,2.162c-0.252,0.332-0.78,0.563-1.218,0.632c-12.893,2.047-20.992,11.084-29.013,20.1
			c-2.739,3.079-4.345,7.002-5.41,10.991c-1.043,3.901,0.216,7.55,3.558,9.543c3.1,1.849,6.219,3.555,10.336,0.033
			c9.66-8.264,15.883-18.82,21.738-29.692c1.488-2.762,3.137-3.341,5.875-2.949c6.865,0.98,12.778,3.833,17.813,8.587
			c2.65,2.504,4.535,1.969,5.493-1.506c0.306-1.108,0.555-2.236,0.757-3.368c1.673-9.382-1.87-13.671-11.453-13.661
			c-2.968,0.002-5.957-0.445-8.924,0.383c-2.284,0.636-3.374,0.037-1.93-2.465c0.572-0.992,0.867-2.152,1.479-3.113
			c5.628-8.855,8.439-19.798,19.003-25.388c-2.344-0.735-4.415-1.428-6.514-2.026c-1.121-0.32-2.038-0.531-2.58,1.178
			c-2.85,8.979-9.233,15.489-15.777,21.818c-0.912,0.883-1.538,3.146-3.367,2.077c-1.616-0.943-0.737-2.823-0.287-4.119
			c2.574-7.415,6.591-13.953,12.705-18.973c1.454-1.194,2.369-2.011,0.441-3.188c-2.65-1.619-7.502,0.226-8.786,3.249
			c-2.327,5.478-5.014,10.758-8.751,15.41c-3.015,3.752-6.485,6.833-11.916,6.299c-0.147-1.59,0.872-2.056,1.467-2.8
			c4.402-5.51,9.339-10.534,11.561-17.651c1.315-4.212-0.944-5.37-3.564-6.686c-1.979-0.994-4.188-0.754-6.31-0.05
			c-1.912,0.635-3.133,0.507-4.69-1.507c-3.297-4.265-8.011-2.992-10.152,1.952c-4.738,10.938-12.149,19.996-20.656,28.207
			c-0.455,0.438-0.748,1.645-1.839,0.848c-0.781-0.57-0.568-1.132-0.373-2.039c0.68-3.158,2.37-5.789,3.852-8.552
			c3.252-6.066,7.533-11.604,9.58-18.279c0.375-1.222,1.694-2.778-0.056-4.012c-1.331-0.938-2.706-0.476-4.199-0.086
			c-11.274,2.938-19.086,10.734-26.578,18.916c-0.987,1.079-1.478,2.006-3.09,1.149c3.175-3.037,2.752-7.335,3.419-11.036
			c0.321-1.784-0.286-5.046-3.282-6.571c-5.868-2.986-5.77-3.184-0.412-7.246c0.663-0.503,1.319-1.019,2.016-1.473
			c1.111-0.725,2.412-1.355,1.839-3.034c-0.505-1.481-1.338-2.475-3.171-2.601c-4.399-0.301-8.2,0.37-10.494,4.74
			c-4.37,8.324-8.709,16.668-13.277,24.883c-2.876,5.171-6.139,10.126-9.242,15.169c-2.101,3.412-5.048,2.609-7.654,1.084
			c-2.86-1.676-0.654-4.053,0.239-5.57c2.335-3.963,5.32-7.537,7.791-11.428c2.171-3.419,5.828-5.893,6.482-10.3
			c0.237-1.597,1.359-3.236-0.434-4.538c-1.482-1.076-3.124-0.725-4.76-0.25c-2.95,0.855-5.35,2.782-8.053,4.484
			c-0.361-1.969,0.271-4.113-1.69-4.761c-5.368-1.773-8.476,3.366-12.925,4.67c-0.411-4.131-1.892-5.652-6.195-3.963
			c-3.672,1.44-6.73,3.709-9.924,5.906c-3.061-6.705-7.7-7.617-12.818-2.854c-5.767,5.365-10.1,11.794-13.499,18.793
			c-1.017,2.096-1.89,3.13-4.48,3.15c0.796-4.074,2.281-7.599,2.469-11.422c0.115-2.355-0.711-3.525-2.82-4.399
			c-4.635-1.92-9.152-0.691-12.15,3.557c-3.185,4.514-3.172,10.982,0.977,14.373c4.47,3.652,1.644,5.215-1.246,6.879
			c-1.665,0.959-3.64,1.598-5.549,1.873c-5.059,0.733-6.359-0.33-6.285-5.412c0.094-6.391,1.971-11.598,7.197-16.343
			c14.241-12.93,27.113-27.255,39.455-42.039c2.644-3.167,3.362-8.919,0.829-11.893c-2.517-2.954-6.876-3.149-10.727-0.389
			c-10.986,7.876-18.896,18.666-27.327,28.959c-7.221,8.815-14.571,17.662-17.314,29.015c-1.196,4.952-3.986,8.12-7.734,10.913
			c-5.81,4.33-11.645,8.625-17.468,12.936c9.305-0.848,15.577-7.125,22.737-11.868c0.991,10.15,3.878,12.748,13.939,12.431
			c6.918-0.219,11.966-3.877,16.095-9.103c1.133-1.433,2.278-3.286,4.411-2.416c1.729,0.706,0.693,2.613,0.879,3.976
			c0.483,3.558,1.551,7,5.031,8.449c3.322,1.384,6.36-0.023,9.037-2.425c3.229-2.897,5.632-6.368,7.962-9.968
			c3.87-5.979,6.28-12.639,8.799-19.192c1.399-3.643,5.785-6.56,6.79-5.803c2.813,2.117-0.741,4.946-1.403,7.573
			c-0.039,0.155-0.177,0.282-0.247,0.432c-4.014,8.535-9.251,16.35-14.296,24.278c-0.658,1.034-1.824,2.137-0.792,3.343
			c1.266,1.479,7.447-0.07,8.44-1.903c3.672-6.775,7.167-13.661,11.164-20.24c2.059-3.389,4.083-7.091,8.821-9.712
			c-1.914,12.686-8.002,22.286-15.639,31.504c7.682-0.031,8.833-0.75,11.745-6.434c4.883-9.529,9.803-19.044,18.284-26.411
			c0.752,2.892-0.97,4.56-2.215,6.417c-3.291,4.908-7.396,9.252-10.115,14.553c-2.061,4.018-0.828,6.783,3.585,8.145
			c1.33,0.41,2.677,0.762,4.463,1.267c-0.989,0.708-1.643,1.167-2.286,1.637c-7.884,5.752-15.719,11.565-20.986,20.044
			c-2.666,4.29-0.763,8.05,1.977,11.263c2.757,3.235,6.3,2.348,9.502,0.49c3.186-1.848,5.695-4.537,7.952-7.407
			c6.73-8.561,11.888-18.1,17.071-27.624c0.505-0.927,0.152-3.345,2.766-1.88c6.025,3.378,9.085,2.91,14.074-1.735
			c2.944-2.741,5.725-5.644,8.096-8.933c-1.3,7.62-0.201,11.141,4.606,11.646c4.742,0.497,9.435,0.45,13.711,3.073
			c1.013,0.621,2.486-0.036,3.72-0.793c3.256-1.996,6.21-4.14,8.474-7.396C499.376,105.383,503.736,100.009,507.92,94.512z
			 M123.524,115.244c-4.34,2.725-7.825,5.675-12.203,7.16c-1.8,0.611-3.115,1.296-4.854-0.326c-2.038-1.9-0.582-3.654-0.364-5.496
			c0.263-2.225,1.791-2.262,3.602-2.416c5.822-0.494,10.634-3.313,14.632-7.376c3.464-3.521,3.943-10.657,1.276-13.701
			c-3.309-3.777-8.428-4.123-13.414-0.582c-8.471,6.017-14.06,14.172-15.449,24.46c-0.62,4.593-3.175,5.613-6.582,6.439
			c-1.397,0.339-3.135,0.854-4.156-0.607c-0.917-1.314-0.27-2.66,0.385-4.14c1.893-4.273,4.534-7.984,7.437-11.588
			c4.026-4.999,4.836-11.917,1.548-15.004c-3.844-3.61-7.619-1.504-11.19,0.849c-0.356,0.234-0.516,0.296-0.836-0.458
			c5.893-13.256,13.028-25.882,25.056-35.294c-0.903-0.5-1.159-0.745-1.44-0.78c-2.175-0.271-3.637,1.41-5.425,2.146
			c-16.227,6.687-33.417,7.163-50.48,7.188c-9.396,0.014-15.687,4.333-21.114,10.696c-3.59,4.208-5.159,12.331-1.87,16.051
			c2.751,3.113,10.129,4.124,14.837,1.638c3.425-1.809,4.97-4.927,4.317-8.639c-0.468-2.662-2.633-4.285-5.439-4.074
			c-3.291,0.247-6.166,1.474-6.655,5.299c-0.19,1.493-0.479,2.893-2.205,2.477c-1.367-0.329-1.741-1.744-1.761-3.235
			c-0.025-1.871,0.948-3.059,2.114-4.312c9.459-10.165,21.904-8.352,34.983-9.452c-9.994,13.335-16.385,27.029-22.516,40.903
			c-2.018,4.566-5.577,8.05-10.92,9.327c-4.814,1.151-7.948-1.517-11.226-4.557c-0.721,9.432,0.976,13.357,6.443,15.48
			c8.177,3.176,13.116,1.816,18.525-5.235c1.296-1.689,2.449-3.516,3.461-5.391c5.783-10.705,8.866-22.566,14.237-33.447
			c2.794-5.661,6.042-11.056,11.004-15.128c1.043-0.856,2.351-2.417,3.853-1.466c1.345,0.852,0.402,2.602,0.063,3.702
			c-1.385,4.501-2.96,8.954-4.672,13.343c-5.626,14.422-11.975,28.47-21.779,40.659c-0.482,0.6-1.378,1.158-0.651,2.034
			c0.782,0.944,1.734,0.796,2.567-0.03c1.533-1.521,3.256-2.905,4.535-4.618c5.223-6.998,10.055-14.286,15.767-20.921
			c1.495-1.737,2.055-4.841,5.54-2.712c0.847,0.518,1.367-0.455,0.935-1.475c-1.262-2.98,1.99-2.798,2.766-2.845
			c2.034-0.124,1.276,1.958,1.164,3.026c-0.281,2.665-1.653,4.968-3.137,7.16c-1.937,2.862-3.88,5.72-5.876,8.54
			c-2.242,3.166-1.659,6.272-0.026,9.45c1.515,2.948,4.133,3.29,7.063,3.523c2.867,0.228,5.39-0.625,7.429-2.241
			c2.933-2.324,5.322-2.163,8.505-0.341c4.321,2.473,9.158,2.963,13.425-0.245C119.048,125.438,122.006,121.139,123.524,115.244z
			 M279.948,93.824c-2.023-2.917-4.504-3.968-7.835-3.828c-5.231,0.219-8.477,3.353-11.348,7.041
			c-4.169,5.354-7.654,11.16-9.428,17.768c-0.785,2.922-3.144,3.203-5.248,3.838c-1.148,0.347-2.635-0.059-3.409-1.303
			c-1.453-2.336,0.646-3.765,1.689-5.219c7.876-10.984,15.94-21.834,23.794-32.834c1.264-1.77,2.627-2.228,4.568-2.166
			c4.82,0.157,9.643,0.224,14.464,0.337c1.709,0.041,3.306,0.233,3.156-2.429c-0.125-2.208-0.124-3.946-3.115-3.827
			c-3.989,0.159-7.989,0.04-12.898,0.04c3.754-3.083,0.697-3.909-0.993-5.19c-2.355-1.785-3.896-0.155-4.767,1.643
			c-1.542,3.181-4.06,3.728-7.223,3.953c-6.051,0.43-12.05,1.488-17.666,3.886c-2.579,1.101-5.688,1.984-6.049,5.927
			c7.621-0.561,14.838-3.294,22.441-3.01c-0.756,3.28-3.53,4.938-5.133,7.455c-6.084,9.556-12.962,18.606-19.562,27.833
			c-3.386,4.732-1.085,10.079,4.701,10.557c3.112,0.257,6.293,0.439,8.94-1.969c1.251-1.139,2.438-1.719,3.977,0.305
			c6.017,7.915,12.149,7.723,18.054-0.432c5.111-7.057,7.988-15.125,10.157-23.47c0.686-2.638,1.713-4.997,4.301-6.251
			c1.192-0.578,2.483-0.843,3.702,0.098c1.433,1.106,0.6,2.59,0.123,3.477c-1.711,3.181-3.769,6.173-5.669,9.253
			c-3.569,5.781-7.12,11.574-10.831,17.611c8.728,1.282,8.644,1.233,12.639-5.602c3.978-6.805,8.025-13.578,12.305-20.194
			c1.409-2.177,3.896-4.74,6.541-2.591c1.97,1.599-0.641,3.62-1.758,5.221c-3.754,5.383-8.849,9.828-11.342,16.09
			c-2.067,5.193,0.291,9.441,5.309,9.697c5.806,0.295,15.445-9.802,15.227-16.221c-2.748,2.848-5.2,5.807-8.602,7.613
			c-1.056,0.561-2.245,1.592-3.508,0.266c-1.286-1.351-0.94-2.463,0.215-3.829c2.872-3.396,5.712-6.838,8.262-10.474
			c1.55-2.21,3.951-3.907,4.282-6.956c0.346-3.193-1.438-4.747-3.877-6.21c-3.43-2.056-6.532-1.562-9.725,0.449
			c-1.142,0.719-1.554,3.007-3.951,1.208C288.627,86.71,285.108,87.316,279.948,93.824z M217.604,118.025
			c-0.563-3.157,0.824-5.27,2.038-7.373c3.802-6.586,8.586-12.448,13.604-18.126c0.931-1.053,1.69-2.169,0.823-3.552
			c-1.039-1.657-2.696-2.341-4.592-2.459c-1.592-0.1-2.691,0.912-2.893,2.23c-0.65,4.234-3.375,7.457-5.463,10.853
			c-3.173,5.161-6.532,10.303-11.001,14.561c-2.07,1.972-4.365,1.809-6.245,0.352c-2.142-1.66,0.038-3.396,0.966-4.567
			c3.58-4.522,7.35-8.905,11.229-13.176c1.435-1.58,2.246-4.565,0.751-4.419c-4.104,0.401-5.086-2.746-7.325-4.5
			c-1.293-1.014-2.622-1.812-4.493-0.676c-10.863,6.593-18.979,15.292-21.59,28.133c-0.869,4.273,2.4,8.612,6.467,7.817
			c6.607-1.291,13.232,2.229,19.725-0.719c2.715-1.233,3.311,1.846,4.161,3.163c1.077,1.669-1.339,1.712-2.253,2.14
			c-5.382,2.518-10.75,5.089-15.572,8.561c-6.17,4.442-12.382,8.969-14.358,16.992c-0.743,3.015-0.458,5.079,3.278,6.274
			c6.651,2.129,11.885,0.088,16.759-4.139c4.708-4.083,7.454-9.585,10.732-14.721c3.169-4.965,4.504-11.39,9.533-14.786
			c4.553-3.076,7.642-7.032,10.53-11.433c4.682-7.137,8.277-14.976,13.894-21.511c0.807-0.939,2.442-1.545,1.757-3.209
			c-0.487-1.182-1.602-1.548-2.866-1.618c-1.658-0.091-2.703,0.403-3.5,2.039c-4.065,8.339-10.141,15.306-15.81,22.528
			C223.881,115.242,221.464,117.623,217.604,118.025z M178.232,69.854c-2.717-1.161-4.246-0.111-5.813,1.359
			c-3.074,2.882-5.163,6.396-7.175,10.037c-5.032,9.107-8.695,18.925-14.508,27.628c-2.005,3.002-3.945,4.225-7.802,2.669
			c-6.49-2.617-13.822,0.955-16.771,7.48c-2.314,5.119-0.662,8.946,4.674,10.335c6.017,1.566,11.255-0.531,15.965-4.085
			c1.458-1.101,2.129-1.72,3.882-0.163c8.215,7.293,18.52,3.95,24.721-4.184c9.205-12.072,13.45-25.99,12.542-41.149
			c-0.451-7.514-1.637-15.156-7.351-20.925c-4.404-4.447-10.074-4.935-15.156-1.617c-4.915,3.21-7.655,9.348-6.011,14.019
			c0.337-0.796,0.61-1.358,0.818-1.943c1.892-5.325,5.992-8.991,10.207-8.711c5.079,0.337,7.11,4.293,8.856,8.269
			c0.713,1.625,1.101,3.488,1.208,5.269c0.41,6.798-0.055,13.528-2.169,20.067c-2.857,8.837-5.866,17.594-13.263,23.902
			c-2.004,1.71-4.052,3.802-6.938,3.09c-1.988-0.489-5.578-1.341-3.016-4.38c4.817-5.714,6.767-12.623,9.514-19.261
			C168.512,88.212,170.192,77.803,178.232,69.854z"/>
		<path fill-rule="evenodd" clip-rule="evenodd" fill="#101111" d="M507.92,94.512c-4.184,5.497-8.544,10.871-12.483,16.538
			c-2.264,3.256-5.218,5.399-8.474,7.396c-1.233,0.757-2.707,1.414-3.72,0.793c-4.276-2.623-8.969-2.576-13.711-3.073
			c-4.808-0.505-5.906-4.025-4.606-11.646c-2.371,3.289-5.151,6.191-8.096,8.933c-4.989,4.646-8.049,5.113-14.074,1.735
			c-2.613-1.465-2.261,0.953-2.766,1.88c-5.184,9.524-10.341,19.063-17.071,27.624c-2.257,2.87-4.767,5.56-7.952,7.407
			c-3.202,1.857-6.745,2.745-9.502-0.49c-2.739-3.213-4.643-6.973-1.977-11.263c5.268-8.479,13.103-14.292,20.986-20.044
			c0.644-0.47,1.297-0.929,2.286-1.637c-1.786-0.505-3.133-0.856-4.463-1.267c-4.413-1.361-5.646-4.127-3.585-8.145
			c2.719-5.301,6.824-9.646,10.115-14.553c1.245-1.857,2.967-3.524,2.215-6.417c-8.481,7.367-13.401,16.882-18.284,26.411
			c-2.912,5.684-4.063,6.402-11.745,6.434c7.637-9.218,13.725-18.818,15.639-31.504c-4.738,2.621-6.763,6.324-8.821,9.712
			c-3.997,6.579-7.492,13.464-11.164,20.24c-0.993,1.833-7.175,3.383-8.44,1.903c-1.032-1.206,0.134-2.309,0.792-3.343
			c5.045-7.928,10.282-15.743,14.296-24.278c0.07-0.15,0.208-0.277,0.247-0.432c0.662-2.627,4.216-5.456,1.403-7.573
			c-1.005-0.756-5.391,2.161-6.79,5.803c-2.519,6.553-4.929,13.213-8.799,19.192c-2.33,3.6-4.732,7.07-7.962,9.968
			c-2.677,2.401-5.715,3.809-9.037,2.425c-3.48-1.449-4.548-4.892-5.031-8.449c-0.186-1.362,0.851-3.27-0.879-3.976
			c-2.133-0.87-3.278,0.983-4.411,2.416c-4.129,5.226-9.177,8.884-16.095,9.103c-10.062,0.317-12.948-2.28-13.939-12.431
			c-7.16,4.743-13.433,11.021-22.737,11.868c5.823-4.311,11.658-8.605,17.468-12.936c3.748-2.793,6.538-5.961,7.734-10.913
			c2.743-11.353,10.094-20.199,17.314-29.015c8.431-10.293,16.341-21.083,27.327-28.959c3.851-2.76,8.21-2.564,10.727,0.389
			c2.533,2.974,1.814,8.726-0.829,11.893c-12.342,14.784-25.214,29.109-39.455,42.039c-5.227,4.745-7.104,9.952-7.197,16.343
			c-0.074,5.082,1.227,6.146,6.285,5.412c1.909-0.275,3.884-0.914,5.549-1.873c2.89-1.664,5.716-3.227,1.246-6.879
			c-4.148-3.391-4.161-9.859-0.977-14.373c2.998-4.248,7.516-5.478,12.15-3.557c2.109,0.874,2.936,2.043,2.82,4.399
			c-0.188,3.823-1.673,7.348-2.469,11.422c2.591-0.021,3.464-1.055,4.48-3.15c3.399-6.999,7.732-13.428,13.499-18.793
			c5.118-4.762,9.758-3.851,12.818,2.854c3.193-2.197,6.252-4.466,9.924-5.906c4.304-1.688,5.784-0.167,6.195,3.963
			c4.449-1.305,7.557-6.444,12.925-4.67c1.962,0.648,1.329,2.792,1.69,4.761c2.703-1.702,5.103-3.629,8.053-4.484
			c1.636-0.474,3.277-0.825,4.76,0.25c1.793,1.302,0.671,2.941,0.434,4.538c-0.654,4.408-4.312,6.881-6.482,10.3
			c-2.471,3.892-5.456,7.465-7.791,11.428c-0.894,1.518-3.1,3.895-0.239,5.57c2.606,1.525,5.554,2.328,7.654-1.084
			c3.104-5.043,6.366-9.998,9.242-15.169c4.568-8.215,8.907-16.559,13.277-24.883c2.294-4.37,6.095-5.041,10.494-4.74
			c1.833,0.125,2.666,1.119,3.171,2.601c0.573,1.679-0.728,2.309-1.839,3.034c-0.696,0.454-1.353,0.97-2.016,1.473
			c-5.357,4.062-5.456,4.259,0.412,7.246c2.996,1.525,3.604,4.787,3.282,6.571c-0.667,3.701-0.244,7.999-3.419,11.036
			c1.612,0.857,2.103-0.07,3.09-1.149c7.492-8.182,15.304-15.978,26.578-18.916c1.493-0.389,2.868-0.852,4.199,0.086
			c1.75,1.233,0.431,2.79,0.056,4.012c-2.047,6.675-6.328,12.213-9.58,18.279c-1.481,2.763-3.172,5.394-3.852,8.552
			c-0.195,0.907-0.408,1.469,0.373,2.039c1.091,0.797,1.384-0.409,1.839-0.848c8.507-8.211,15.918-17.269,20.656-28.207
			c2.142-4.944,6.855-6.217,10.152-1.952c1.558,2.015,2.778,2.143,4.69,1.507c2.121-0.705,4.33-0.944,6.31,0.05
			c2.62,1.315,4.88,2.474,3.564,6.686c-2.222,7.118-7.158,12.141-11.561,17.651c-0.595,0.744-1.614,1.21-1.467,2.8
			c5.431,0.534,8.901-2.547,11.916-6.299c3.737-4.652,6.424-9.933,8.751-15.41c1.284-3.023,6.136-4.868,8.786-3.249
			c1.928,1.177,1.013,1.994-0.441,3.188c-6.114,5.02-10.131,11.558-12.705,18.973c-0.45,1.296-1.329,3.176,0.287,4.119
			c1.829,1.069,2.455-1.194,3.367-2.077c6.544-6.329,12.928-12.839,15.777-21.818c0.542-1.709,1.459-1.498,2.58-1.178
			c2.099,0.599,4.17,1.291,6.514,2.026c-10.563,5.59-13.375,16.533-19.003,25.388c-0.612,0.961-0.907,2.121-1.479,3.113
			c-1.444,2.502-0.354,3.101,1.93,2.465c2.967-0.828,5.956-0.381,8.924-0.383c9.583-0.01,13.126,4.279,11.453,13.661
			c-0.202,1.132-0.451,2.26-0.757,3.368c-0.958,3.475-2.843,4.01-5.493,1.506c-5.035-4.754-10.948-7.606-17.813-8.587
			c-2.738-0.392-4.387,0.188-5.875,2.949c-5.855,10.872-12.078,21.429-21.738,29.692c-4.117,3.521-7.236,1.815-10.336-0.033
			c-3.342-1.993-4.601-5.642-3.558-9.543c1.065-3.989,2.671-7.912,5.41-10.991c8.021-9.016,16.12-18.053,29.013-20.1
			c0.438-0.069,0.966-0.3,1.218-0.632c0.388-0.51,0.573-1.174,1.021-2.162c-5.773-0.273-11.044-3.469-16.996-0.498
			c-2.121,1.06-5.479,0.677-7.336-1.639c-1.786-2.226-0.584-4.906,0.422-7.018c2.333-4.898,5.487-9.328,8.843-13.608
			c1.182-1.508,2.582-3.644,0.85-5.155c-1.383-1.206-3.381-0.035-4.948,1.145c-3.642,2.741-5.922,6.575-8.475,10.19
			c-2.843,4.027-5.621,8.099-8.378,12.186c-1.138,1.686-2.609,2.97-4.367,3.909c-1.039,0.557-2.497,0.999-3.24,0.031
			c-0.965-1.253,0.631-1.963,1.323-2.769C502.725,107.77,505.808,101.406,507.92,94.512z M373.309,111.836
			c-0.174,1.865,0.735,3.494,2.457,4.332c1.592,0.774,3.281,0.23,4.559-1.035c6.561-6.498,8.848-15.149,11.585-23.523
			c0.372-1.138-0.292-3.493-1.182-3.971c-1.59-0.854-3.002,0.779-4.151,1.961c-4.858,5-8.266,10.977-11.309,17.169
			C374.499,108.332,372.919,109.617,373.309,111.836z M533.882,127.99c-10.39,2.871-17.768,8.087-23.187,15.831
			c-1.763,2.519-4.969,6.718-2.608,8.603c2.937,2.345,6.962-0.66,9.842-3.171C524.497,143.525,528.916,136.185,533.882,127.99z
			 M351.497,85.279c11.46-11.165,21.498-23.566,31.281-36.186c0.657-0.848,0.824-1.798,0.053-2.706
			c-1.146-1.349-2.127-0.09-2.922,0.389c-3.703,2.234-6.567,5.363-9.331,8.684C362.988,64.581,356.443,74.347,351.497,85.279z
			 M462.346,87.794c-0.363-0.631,0.723-2.154-0.566-2.742c-1.128-0.514-2.087,0.503-2.963,1.302
			c-5.042,4.599-8.942,10.07-12.499,15.852c-1.602,2.604-0.769,4.284,1.444,5.728c3.167,2.064,6.119,1.586,8.134-1.504
			C459.496,100.907,462.415,95.052,462.346,87.794z M432.037,123.921c-0.65-1.499-1.374-1.494-2.646-0.608
			c-4.437,3.086-9.243,5.7-13.396,9.116c-3.398,2.797-6.848,5.767-8.931,9.896c-1.11,2.199-0.457,3.721,1.267,5.136
			c1.721,1.413,2.857,0.592,4.188-0.731c5.531-5.503,11.023-11.042,15.916-17.128C429.845,127.849,430.869,125.787,432.037,123.921z
			 M492.032,87.545c-4.198,2.105-7.681,4.784-11.122,7.577c-3.171,2.572-5.473,5.664-7.244,9.201
			c-0.729,1.457-1.196,3.562,0.147,4.642c1.216,0.977,3.201,0.663,4.598-0.477C485.172,102.966,489.19,95.646,492.032,87.545z
			 M361.128,106.18c0.768-3.086,2.456-5.505,1.988-8.429c-0.208-1.304,0.929-3.199-1.284-3.714
			c-1.865-0.435-3.509-0.005-4.867,1.584C353.766,99.365,355.427,103.982,361.128,106.18z"/>
		<path fill-rule="evenodd" clip-rule="evenodd" fill="#101111" d="M123.524,115.244c-1.519,5.895-4.477,10.194-8.77,13.422
			c-4.267,3.208-9.104,2.718-13.425,0.245c-3.184-1.822-5.572-1.983-8.505,0.341c-2.039,1.616-4.562,2.469-7.429,2.241
			c-2.93-0.233-5.548-0.575-7.063-3.523c-1.633-3.178-2.216-6.284,0.026-9.45c1.997-2.82,3.94-5.678,5.876-8.54
			c1.484-2.192,2.856-4.495,3.137-7.16c0.112-1.067,0.87-3.149-1.164-3.026c-0.776,0.047-4.028-0.135-2.766,2.845
			c0.432,1.02-0.088,1.992-0.935,1.475c-3.485-2.129-4.045,0.975-5.54,2.712c-5.712,6.635-10.544,13.923-15.767,20.921
			c-1.279,1.713-3.002,3.097-4.535,4.618c-0.833,0.826-1.785,0.975-2.567,0.03c-0.727-0.876,0.169-1.435,0.651-2.034
			c9.805-12.189,16.153-26.237,21.779-40.659c1.712-4.39,3.287-8.842,4.672-13.343c0.338-1.1,1.282-2.85-0.063-3.702
			c-1.502-0.951-2.81,0.61-3.853,1.466c-4.962,4.072-8.21,9.467-11.004,15.128c-5.371,10.881-8.454,22.742-14.237,33.447
			c-1.013,1.875-2.166,3.701-3.461,5.391c-5.409,7.052-10.348,8.411-18.525,5.235c-5.468-2.123-7.165-6.049-6.443-15.48
			c3.278,3.04,6.412,5.708,11.226,4.557c5.344-1.277,8.902-4.761,10.92-9.327c6.131-13.874,12.522-27.568,22.516-40.903
			c-13.079,1.1-25.524-0.712-34.983,9.452c-1.166,1.253-2.14,2.441-2.114,4.312c0.02,1.491,0.394,2.907,1.761,3.235
			c1.726,0.416,2.014-0.984,2.205-2.477c0.489-3.825,3.364-5.052,6.655-5.299c2.806-0.211,4.971,1.412,5.439,4.074
			c0.652,3.712-0.893,6.831-4.317,8.639c-4.708,2.486-12.086,1.475-14.837-1.638c-3.289-3.72-1.72-11.843,1.87-16.051
			c5.428-6.362,11.718-10.682,21.114-10.696c17.063-0.025,34.253-0.501,50.48-7.188c1.788-0.737,3.25-2.417,5.425-2.146
			c0.281,0.035,0.537,0.28,1.44,0.78C96.384,66.576,89.25,79.203,83.356,92.458c0.321,0.755,0.48,0.693,0.836,0.458
			c3.571-2.353,7.346-4.458,11.19-0.849c3.288,3.087,2.479,10.005-1.548,15.004c-2.903,3.604-5.544,7.314-7.437,11.588
			c-0.655,1.479-1.303,2.825-0.385,4.14c1.021,1.462,2.758,0.946,4.156,0.607c3.406-0.826,5.961-1.847,6.582-6.439
			c1.389-10.288,6.978-18.443,15.449-24.46c4.986-3.541,10.105-3.195,13.414,0.582c2.667,3.043,2.188,10.18-1.276,13.701
			c-3.998,4.063-8.81,6.882-14.632,7.376c-1.811,0.154-3.339,0.191-3.602,2.416c-0.218,1.842-1.674,3.596,0.364,5.496
			c1.739,1.622,3.054,0.938,4.854,0.326C115.699,120.919,119.184,117.969,123.524,115.244z M112.696,105.349
			c3.272-0.366,4.922-2.62,5.575-5.741c0.19-0.911,0.045-2.232-1.484-1.83c-2.97,0.781-5.451,2.353-6.36,5.456
			C110.013,104.645,111.162,105.264,112.696,105.349z"/>
		<path fill-rule="evenodd" clip-rule="evenodd" fill="#101111" d="M279.948,93.824c5.16-6.508,8.679-7.114,14.912-2.438
			c2.397,1.798,2.81-0.49,3.951-1.208c3.193-2.01,6.295-2.505,9.725-0.449c2.439,1.463,4.223,3.017,3.877,6.21
			c-0.331,3.049-2.732,4.746-4.282,6.956c-2.55,3.636-5.391,7.078-8.262,10.474c-1.156,1.366-1.501,2.479-0.215,3.829
			c1.263,1.326,2.452,0.295,3.508-0.266c3.401-1.807,5.854-4.766,8.602-7.613c0.218,6.419-9.421,16.516-15.227,16.221
			c-5.019-0.256-7.376-4.504-5.309-9.697c2.493-6.262,7.588-10.707,11.342-16.09c1.117-1.602,3.728-3.622,1.758-5.221
			c-2.646-2.148-5.132,0.414-6.541,2.591c-4.28,6.616-8.327,13.39-12.305,20.194c-3.996,6.835-3.911,6.884-12.639,5.602
			c3.711-6.037,7.262-11.83,10.831-17.611c1.9-3.08,3.958-6.073,5.669-9.253c0.477-0.887,1.31-2.371-0.123-3.477
			c-1.219-0.941-2.51-0.676-3.702-0.098c-2.588,1.254-3.615,3.613-4.301,6.251c-2.169,8.345-5.045,16.413-10.157,23.47
			c-5.905,8.154-12.037,8.347-18.054,0.432c-1.539-2.023-2.726-1.443-3.977-0.305c-2.647,2.408-5.828,2.226-8.94,1.969
			c-5.786-0.478-8.086-5.824-4.701-10.557c6.6-9.227,13.478-18.277,19.562-27.833c1.603-2.518,4.376-4.175,5.133-7.455
			c-7.603-0.284-14.82,2.45-22.441,3.01c0.361-3.942,3.47-4.826,6.049-5.927c5.616-2.397,11.615-3.456,17.666-3.886
			c3.163-0.225,5.681-0.771,7.223-3.953c0.872-1.797,2.412-3.428,4.767-1.643c1.69,1.281,4.748,2.107,0.993,5.19
			c4.909,0,8.909,0.12,12.898-0.04c2.991-0.12,2.99,1.619,3.115,3.827c0.15,2.663-1.446,2.47-3.156,2.429
			c-4.821-0.114-9.644-0.181-14.464-0.337c-1.94-0.063-3.304,0.396-4.568,2.166c-7.854,11-15.918,21.85-23.794,32.834
			c-1.042,1.454-3.142,2.883-1.689,5.219c0.773,1.244,2.26,1.649,3.409,1.303c2.104-0.635,4.463-0.916,5.248-3.838
			c1.774-6.607,5.259-12.413,9.428-17.768c2.872-3.688,6.117-6.822,11.348-7.041C275.444,89.856,277.925,90.907,279.948,93.824z
			 M275.317,99.877c0.006-2.11-3.993-4.004-6.112-2.621c-6.718,4.384-9.508,11.435-11.673,18.638
			c-0.791,2.631,2.246,4.21,5.118,3.004C266.208,117.406,275.306,103.744,275.317,99.877z"/>
		<path fill-rule="evenodd" clip-rule="evenodd" fill="#101111" d="M217.604,118.025c3.859-0.402,6.276-2.783,8.285-5.342
			c5.669-7.222,11.745-14.189,15.81-22.528c0.797-1.636,1.842-2.13,3.5-2.039c1.264,0.07,2.379,0.436,2.866,1.618
			c0.685,1.665-0.95,2.271-1.757,3.209c-5.616,6.535-9.211,14.374-13.894,21.511c-2.888,4.4-5.977,8.356-10.53,11.433
			c-5.029,3.396-6.364,9.821-9.533,14.786c-3.278,5.136-6.024,10.638-10.732,14.721c-4.874,4.227-10.107,6.268-16.759,4.139
			c-3.736-1.195-4.021-3.26-3.278-6.274c1.976-8.023,8.188-12.55,14.358-16.992c4.822-3.472,10.19-6.043,15.572-8.561
			c0.914-0.428,3.33-0.471,2.253-2.14c-0.85-1.317-1.446-4.396-4.161-3.163c-6.493,2.947-13.118-0.572-19.725,0.719
			c-4.066,0.795-7.335-3.544-6.467-7.817c2.611-12.841,10.727-21.541,21.59-28.133c1.872-1.136,3.2-0.338,4.493,0.676
			c2.239,1.755,3.221,4.902,7.325,4.5c1.494-0.146,0.684,2.839-0.751,4.419c-3.879,4.271-7.649,8.653-11.229,13.176
			c-0.928,1.172-3.107,2.907-0.966,4.567c1.88,1.457,4.175,1.62,6.245-0.352c4.47-4.258,7.828-9.399,11.001-14.561
			c2.088-3.396,4.813-6.619,5.463-10.853c0.202-1.319,1.301-2.33,2.893-2.23c1.896,0.118,3.553,0.802,4.592,2.459
			c0.867,1.383,0.108,2.499-0.823,3.552c-5.018,5.679-9.802,11.541-13.604,18.126C218.428,112.756,217.041,114.868,217.604,118.025z
			 M210.877,133.669c-11.242,2.811-18.8,8.231-23.486,17.404c-1.53,2.994,0.526,4.078,3.045,4.267
			c1.477,0.109,2.815-0.716,4.088-1.595C201.51,148.925,205.637,141.808,210.877,133.669z M190.993,119.004
			c2.67,0.624,3.244-0.117,3.597-1.414c2.321-8.521,7.959-14.892,13.857-21.06c1.04-1.087,1.648-1.911,0.49-3.259
			c-1.457-1.697-2.346-0.17-3.257,0.563c-7.021,5.656-12.232,12.802-16.633,20.574C187.076,117.891,189.836,118.539,190.993,119.004
			z"/>
		<path fill-rule="evenodd" clip-rule="evenodd" fill="#101111" d="M178.232,69.854c-8.04,7.949-9.72,18.358-13.589,27.707
			c-2.747,6.638-4.696,13.547-9.514,19.261c-2.562,3.039,1.028,3.891,3.016,4.38c2.886,0.712,4.934-1.38,6.938-3.09
			c7.396-6.309,10.405-15.065,13.263-23.902c2.115-6.539,2.579-13.27,2.169-20.067c-0.107-1.781-0.495-3.644-1.208-5.269
			c-1.746-3.976-3.777-7.931-8.856-8.269c-4.215-0.28-8.314,3.386-10.207,8.711c-0.208,0.585-0.48,1.147-0.818,1.943
			c-1.644-4.67,1.096-10.809,6.011-14.019c5.082-3.318,10.751-2.83,15.156,1.617c5.714,5.769,6.9,13.412,7.351,20.925
			c0.908,15.159-3.336,29.077-12.542,41.149c-6.201,8.134-16.506,11.477-24.721,4.184c-1.752-1.557-2.424-0.938-3.882,0.163
			c-4.709,3.554-9.948,5.651-15.965,4.085c-5.336-1.389-6.988-5.216-4.674-10.335c2.949-6.525,10.281-10.098,16.771-7.48
			c3.857,1.556,5.797,0.333,7.802-2.669c5.813-8.703,9.477-18.521,14.508-27.628c2.013-3.642,4.102-7.155,7.175-10.037
			C173.986,69.743,175.515,68.693,178.232,69.854z"/>
		<path fill-rule="evenodd" clip-rule="evenodd" fill="#FDFDFC" d="M373.309,111.836c-0.39-2.219,1.19-3.504,1.959-5.066
			c3.043-6.192,6.45-12.169,11.309-17.169c1.149-1.183,2.562-2.815,4.151-1.961c0.89,0.478,1.554,2.833,1.182,3.971
			c-2.737,8.374-5.024,17.025-11.585,23.523c-1.277,1.266-2.967,1.81-4.559,1.035C374.044,115.33,373.135,113.701,373.309,111.836z"
			/>
		<path fill-rule="evenodd" clip-rule="evenodd" fill="#FDFDFC" d="M533.882,127.99c-4.966,8.194-9.385,15.535-15.953,21.263
			c-2.88,2.511-6.905,5.516-9.842,3.171c-2.36-1.885,0.846-6.084,2.608-8.603C516.114,136.077,523.492,130.861,533.882,127.99z"/>
		<path fill-rule="evenodd" clip-rule="evenodd" fill="#FDFDFC" d="M351.497,85.279c4.946-10.933,11.491-20.699,19.081-29.819
			c2.764-3.321,5.628-6.45,9.331-8.684c0.795-0.479,1.775-1.738,2.922-0.389c0.771,0.908,0.604,1.858-0.053,2.706
			C372.995,61.713,362.957,74.115,351.497,85.279z"/>
		<path fill-rule="evenodd" clip-rule="evenodd" fill="#FDFDFC" d="M462.346,87.794c0.069,7.258-2.85,13.113-6.45,18.636
			c-2.015,3.09-4.967,3.568-8.134,1.504c-2.213-1.443-3.046-3.123-1.444-5.728c3.557-5.781,7.457-11.252,12.499-15.852
			c0.876-0.799,1.835-1.816,2.963-1.302C463.068,85.64,461.982,87.163,462.346,87.794z"/>
		<path fill-rule="evenodd" clip-rule="evenodd" fill="#FDFDFC" d="M432.037,123.921c-1.168,1.866-2.192,3.928-3.602,5.681
			c-4.893,6.086-10.385,11.625-15.916,17.128c-1.33,1.323-2.467,2.145-4.188,0.731c-1.724-1.415-2.377-2.937-1.267-5.136
			c2.083-4.13,5.532-7.1,8.931-9.896c4.152-3.416,8.959-6.03,13.396-9.116C430.663,122.427,431.387,122.422,432.037,123.921z"/>
		<path fill-rule="evenodd" clip-rule="evenodd" fill="#FDFDFC" d="M492.032,87.545c-2.842,8.1-6.86,15.42-13.621,20.943
			c-1.396,1.14-3.382,1.453-4.598,0.477c-1.344-1.08-0.877-3.185-0.147-4.642c1.771-3.537,4.073-6.629,7.244-9.201
			C484.352,92.33,487.834,89.65,492.032,87.545z"/>
		<path fill-rule="evenodd" clip-rule="evenodd" fill="#FDFDFC" d="M361.128,106.18c-5.701-2.197-7.362-6.814-4.163-10.559
			c1.358-1.589,3.002-2.019,4.867-1.584c2.213,0.515,1.076,2.41,1.284,3.714C363.584,100.675,361.896,103.094,361.128,106.18z"/>
		<path fill-rule="evenodd" clip-rule="evenodd" fill="#FDFDFC" d="M112.696,105.349c-1.534-0.085-2.683-0.704-2.269-2.115
			c0.909-3.103,3.39-4.675,6.36-5.456c1.529-0.402,1.675,0.919,1.484,1.83C117.618,102.729,115.968,104.982,112.696,105.349z"/>
		<path fill-rule="evenodd" clip-rule="evenodd" fill="#FDFDFC" d="M275.317,99.877c-0.012,3.867-9.109,17.529-12.667,19.021
			c-2.873,1.206-5.909-0.373-5.118-3.004c2.166-7.203,4.955-14.254,11.673-18.638C271.325,95.874,275.324,97.768,275.317,99.877z"/>
		<path fill-rule="evenodd" clip-rule="evenodd" fill="#FDFDFC" d="M210.877,133.669c-5.24,8.139-9.367,15.256-16.353,20.076
			c-1.273,0.879-2.611,1.704-4.088,1.595c-2.519-0.188-4.575-1.272-3.045-4.267C192.077,141.9,199.635,136.479,210.877,133.669z"/>
		<path fill-rule="evenodd" clip-rule="evenodd" fill="#FDFDFC" d="M190.993,119.004c-1.157-0.465-3.917-1.113-1.945-4.596
			c4.4-7.771,9.611-14.918,16.633-20.574c0.911-0.734,1.8-2.26,3.257-0.563c1.158,1.349,0.549,2.172-0.49,3.259
			c-5.898,6.168-11.536,12.538-13.857,21.06C194.236,118.887,193.663,119.628,190.993,119.004z"/>
	</g>
</g>
</svg>
