<?xml version="1.0" encoding="utf-8"?>
<!-- Generator: Adobe Illustrator 16.0.0, SVG Export Plug-In . SVG Version: 6.00 Build 0)  -->
<!DOCTYPE svg PUBLIC "-//W3C//DTD SVG 1.1//EN" "http://www.w3.org/Graphics/SVG/1.1/DTD/svg11.dtd">
<svg version="1.1" id="Layer_1" xmlns="http://www.w3.org/2000/svg" xmlns:xlink="http://www.w3.org/1999/xlink" x="0px" y="0px"
	 width="600px" height="200px" viewBox="0 0 600 200" enable-background="new 0 0 600 200" xml:space="preserve">
<path d="M13.629,54.135H75.76c0,0,65.155,45.096,0,108.866H13.629V54.135z"/>
<path d="M119.911,105.264c0,0,35.619-21.254,55.151,7.758v48.831h-42.8c0,0-25.278-4.926-13.5-32.048
	c0,0,11.521-14.486,26.586-11.04c0,0-9.064-6.605-19.118,0.575L119.911,105.264z"/>
<path d="M183.68,100.382h25.277l9.767,17.809l9.191-17.809h27.863c0,0-24.99,67.504-44.523,66.066l-16.661,0.023l0.288-16.97
	l8.904-0.576l3.734-0.286l2.298,0.286L183.68,100.382z"/>
<path d="M277.61,84.295h24.991v16.086h16.947v21.83h-16.947v14.649h12.639v24.705h-29.587c0,0-8.33-0.289-8.042-11.203
	l-0.007-27.433h-14.93v-22.549h14.937V84.295z"/>
<path d="M407.733,129.394c0,17.769-16.592,32.173-37.057,32.173c-20.462,0-37.055-14.404-37.055-32.173s16.593-32.172,37.055-32.172
	C391.142,97.222,407.733,111.625,407.733,129.394z"/>
<path d="M420.946,161.566v-61.185h22.979v4.882c0,0,25.566-22.404,50.27,10.055v46.248h-25.278l-0.288-37.344
	c0,0-10.339-11.49-21.829,0.288l0.286,37.056H420.946z"/>
<path d="M583.527,102.68c0,0-47.396-16.66-58.023,14.648c0,0-8.904,19.82,39.641,22.406c0,0-8.618,5.171-35.045-5.459l-7.182,16.949
	c0,0,39.066,26.139,68.367-6.032c0,0,8.904-19.531-24.704-25.278c0,0-14.937,0-12.927-4.596c0,0,15.511-2.586,24.703,4.021
	L583.527,102.68z"/>
<path d="M504.247,118.765c0,0,21.543-6.605,10.056-25.564c0,0-6.896-8.042-17.811,0c0,0-8.904,14.364,8.043,15.511
	C504.535,108.712,508.268,112.445,504.247,118.765z"/>
<g>
	<path d="M148.091,31.663h21.281l0.514,9.905h-1.223c-0.805-5.823-2.913-8.735-6.322-8.735c-0.687,0-1.157,0.118-1.412,0.354
		c-0.255,0.237-0.382,0.626-0.382,1.17V55.3c0,0.425,0.124,0.738,0.372,0.939c0.248,0.201,0.656,0.301,1.223,0.301h2.64v1.329
		H152.61V56.54h3.012c0.401,0,0.708-0.1,0.921-0.301c0.212-0.201,0.319-0.466,0.319-0.797V34.196c0-0.449-0.136-0.789-0.408-1.019
		c-0.271-0.23-0.708-0.345-1.311-0.345c-1.713,0-3.143,0.809-4.288,2.427c-0.945,1.335-1.625,3.438-2.038,6.308h-1.293
		L148.091,31.663z"/>
	<path d="M171.463,31.663l6.291-0.301v12.793c0.874-1.134,1.813-1.981,2.817-2.542c1.004-0.561,2.067-0.842,3.189-0.842
		c1.063,0,2.02,0.254,2.871,0.762c0.661,0.401,1.225,1.104,1.692,2.108c0.467,1.004,0.7,2.191,0.7,3.562v7.885
		c0,0.508,0.13,0.877,0.39,1.107c0.26,0.23,0.667,0.345,1.223,0.345h1.417v1.329h-8.966V56.54h0.992
		c0.756,0,1.279-0.121,1.568-0.363c0.289-0.242,0.434-0.605,0.434-1.089v-7.885c0-1.382-0.334-2.46-1.001-3.234
		c-0.667-0.773-1.521-1.161-2.56-1.161c-0.815,0-1.571,0.219-2.268,0.656c-0.697,0.437-1.288,1.102-1.772,1.994
		s-0.727,1.833-0.727,2.826v6.627c0,0.591,0.124,1.01,0.372,1.258s0.656,0.372,1.223,0.372h1.417v1.329h-8.771V56.54h0.992
		c0.673,0,1.152-0.133,1.436-0.398c0.283-0.266,0.425-0.676,0.425-1.231V35.1c0-0.709-0.186-1.237-0.558-1.586
		c-0.373-0.348-0.913-0.523-1.622-0.523h-1.205V31.663z"/>
	<path d="M209.63,49.683h-11.89c0.059,2.528,0.532,4.312,1.418,5.351c1.016,1.169,2.309,1.754,3.88,1.754
		c2.315,0,4.176-1.317,5.582-3.951l1.152,0.496c-1.725,3.355-4.217,5.032-7.478,5.032c-2.221,0-4.09-0.803-5.608-2.41
		s-2.277-3.662-2.277-6.167c0-2.693,0.747-4.87,2.242-6.529c1.494-1.66,3.334-2.49,5.52-2.49c1.606,0,2.995,0.414,4.164,1.24
		c1.169,0.827,2.049,2.014,2.64,3.562C209.388,46.659,209.606,48.029,209.63,49.683z M197.74,48.425h7.194
		c0.425,0,0.756-0.145,0.992-0.434s0.354-0.782,0.354-1.479c0-1.299-0.405-2.404-1.214-3.313s-1.763-1.365-2.862-1.365
		c-1.229,0-2.271,0.549-3.127,1.648S197.776,46.228,197.74,48.425z"/>
	<path d="M222.334,31.663h13.538c2.008,0,3.715,0.354,5.121,1.063c1.749,0.898,3.234,2.392,4.457,4.483s1.834,4.566,1.834,7.424
		c0,2.363-0.366,4.489-1.099,6.379c-0.555,1.453-1.409,2.723-2.561,3.81c-1.151,1.087-2.554,1.902-4.208,2.445
		c-1.24,0.402-2.895,0.603-4.961,0.603h-12.12V56.54h2.481c0.626,0,1.06-0.1,1.302-0.301c0.242-0.201,0.363-0.514,0.363-0.939
		V34.196c0-0.366-0.13-0.658-0.39-0.877s-0.62-0.328-1.081-0.328h-2.676V31.663z M231.832,32.991c-0.532,0-0.924,0.113-1.178,0.337
		c-0.254,0.225-0.381,0.561-0.381,1.01v20.909c0,0.425,0.147,0.748,0.443,0.966c0.295,0.219,0.797,0.328,1.506,0.328h2.233
		c1.996,0,3.745-0.514,5.245-1.542c0.98-0.685,1.725-1.648,2.233-2.888c0.697-1.677,1.045-3.993,1.045-6.946
		c0-4.371-0.762-7.572-2.286-9.604c-1.3-1.712-3.261-2.569-5.883-2.569H231.832z"/>
	<path d="M268.05,56.044l0.638,0.992c-0.862,0.886-1.819,1.329-2.871,1.329c-0.803,0-1.479-0.219-2.029-0.656
		c-0.549-0.437-1.031-1.205-1.444-2.303c-1.122,1.181-2.108,1.97-2.959,2.365c-0.851,0.396-1.873,0.594-3.065,0.594
		c-1.701,0-2.995-0.366-3.88-1.099c-0.886-0.732-1.329-1.671-1.329-2.817c0-1.725,1.013-3.157,3.039-4.297
		c2.026-1.14,4.722-1.898,8.089-2.277v-2.516c0-0.897-0.361-1.666-1.081-2.304c-0.721-0.638-1.636-0.957-2.747-0.957
		c-1.028,0-1.914,0.212-2.658,0.638c-0.532,0.319-0.797,0.632-0.797,0.939c0,0.177,0.142,0.455,0.425,0.833
		c0.342,0.473,0.514,0.892,0.514,1.258c0,0.531-0.171,0.965-0.514,1.302c-0.343,0.336-0.792,0.505-1.347,0.505
		c-0.591,0-1.084-0.201-1.479-0.603c-0.396-0.401-0.594-0.915-0.594-1.542c0-1.169,0.658-2.238,1.976-3.207s3.045-1.453,5.183-1.453
		c1.973,0,3.479,0.425,4.518,1.276c1.04,0.862,1.56,1.908,1.56,3.136v9.072c0,0.804,0.13,1.394,0.39,1.772
		c0.26,0.39,0.597,0.584,1.01,0.584C267.058,56.611,267.542,56.422,268.05,56.044z M262.239,49.045
		c-3.001,0.414-5.127,1.087-6.379,2.02c-0.934,0.709-1.4,1.713-1.4,3.012c0,0.91,0.242,1.622,0.727,2.135
		c0.484,0.514,1.116,0.771,1.896,0.771c1.394,0,2.602-0.529,3.624-1.586c1.021-1.057,1.533-2.383,1.533-3.978V49.045z"/>
	<path d="M270.318,41.266h7.956v1.205h-0.744c-0.697,0-1.172,0.092-1.426,0.274c-0.254,0.184-0.381,0.446-0.381,0.789
		c0,0.154,0.036,0.308,0.106,0.461l4.625,9.976l3.437-8.275c0.248-0.59,0.372-1.169,0.372-1.736c0-0.437-0.171-0.776-0.514-1.019
		s-1.027-0.399-2.055-0.47v-1.205h6.91v1.205c-1.335,0.13-2.232,0.727-2.693,1.79l-6.143,14.291
		c-1.043,2.427-2.091,4.096-3.142,5.005c-1.063,0.921-2.203,1.382-3.42,1.382c-0.886,0-1.598-0.242-2.135-0.727
		c-0.538-0.484-0.807-1.081-0.807-1.79c0-0.531,0.166-0.969,0.497-1.311c0.331-0.343,0.744-0.514,1.24-0.514
		c0.449,0,0.827,0.148,1.134,0.443c0.307,0.295,0.461,0.649,0.461,1.063c0,0.13-0.024,0.307-0.071,0.532
		c-0.047,0.177-0.071,0.307-0.071,0.39c0,0.284,0.183,0.425,0.549,0.425c0.39,0,0.83-0.142,1.32-0.425s0.948-0.738,1.373-1.364
		c0.425-0.626,1.171-2.013,2.237-4.161l-6.301-13.505c-0.224-0.473-0.504-0.824-0.839-1.054c-0.336-0.23-0.828-0.387-1.476-0.47
		V41.266z"/>
	<path d="M296.455,31.361v24.063c0,0.331,0.1,0.585,0.301,0.762c0.295,0.236,0.655,0.354,1.081,0.354h1.754v1.329h-9.409V56.54
		h1.666c0.543,0,0.948-0.13,1.213-0.39c0.266-0.26,0.399-0.626,0.399-1.099v-20.2c0-0.591-0.16-1.022-0.479-1.293
		c-0.437-0.378-0.975-0.567-1.612-0.567h-1.489v-1.329L296.455,31.361z"/>
	<path d="M301.291,41.266l6.609-0.195v14.282c0,0.39,0.095,0.667,0.284,0.833c0.271,0.236,0.614,0.354,1.027,0.354h1.878v1.329
		h-9.444V56.54h1.755c0.52,0,0.9-0.126,1.143-0.381c0.242-0.254,0.363-0.623,0.363-1.107V44.598c0-0.662-0.189-1.161-0.567-1.498
		c-0.378-0.336-0.938-0.505-1.684-0.505h-1.364V41.266z M305.898,31.361c0.531,0,0.998,0.201,1.4,0.603
		c0.401,0.401,0.602,0.874,0.602,1.417c0,0.531-0.194,0.992-0.584,1.382c-0.39,0.39-0.856,0.585-1.4,0.585
		c-0.543,0-1.013-0.198-1.408-0.594c-0.396-0.396-0.594-0.859-0.594-1.391c0-0.531,0.201-0.998,0.603-1.399
		C304.918,31.562,305.379,31.361,305.898,31.361z"/>
	<path d="M325.762,42.206c1.182-1.193,2.269-1.79,3.261-1.79c0.591,0,1.081,0.189,1.471,0.567s0.585,0.839,0.585,1.382
		c0,0.437-0.133,0.8-0.398,1.09c-0.267,0.29-0.576,0.434-0.931,0.434c-0.674,0-1.128-0.414-1.364-1.24
		c-0.095-0.354-0.254-0.532-0.479-0.532c-0.401,0-0.839,0.266-1.312,0.797c0.508,0.697,0.856,1.302,1.046,1.816
		c0.188,0.514,0.283,1.066,0.283,1.657c0,1.028-0.248,1.934-0.744,2.72s-1.32,1.479-2.472,2.082
		c-1.152,0.603-2.254,0.904-3.305,0.904h-1.932c-1.37,0-2.28,0.142-2.729,0.425c-0.449,0.295-0.674,0.727-0.674,1.293
		c0,0.46,0.184,0.815,0.55,1.063s1.057,0.372,2.073,0.372l4.376-0.088c2.209,0,3.801,0.369,4.775,1.107s1.462,1.751,1.462,3.039
		c0,1.418-0.555,2.611-1.665,3.58c-1.548,1.37-3.857,2.055-6.929,2.055c-2.54,0-4.424-0.467-5.652-1.4
		c-0.969-0.732-1.453-1.553-1.453-2.463c0-0.697,0.311-1.335,0.931-1.914c0.62-0.579,1.662-1.01,3.127-1.293
		c-1.169-0.284-2.049-0.7-2.64-1.249s-0.886-1.231-0.886-2.047c0-0.756,0.239-1.415,0.717-1.976c0.479-0.561,1.309-1.042,2.49-1.444
		c-1.004-0.555-1.761-1.225-2.269-2.011s-0.762-1.686-0.762-2.702c0-1.606,0.632-2.953,1.896-4.04
		c1.264-1.087,2.905-1.63,4.926-1.63c0.826,0,1.624,0.118,2.392,0.354S325.041,41.721,325.762,42.206z M322.147,57.887
		c-2.174,0-3.725,0.301-4.651,0.904c-0.928,0.603-1.391,1.329-1.391,2.18c0,0.803,0.348,1.435,1.045,1.896
		c0.922,0.614,2.232,0.922,3.934,0.922c2.032,0,3.562-0.337,4.59-1.01c1.027-0.673,1.541-1.424,1.541-2.25
		c0-0.484-0.159-0.936-0.479-1.355c-0.318-0.419-0.826-0.738-1.523-0.957C324.516,57.996,323.494,57.887,322.147,57.887z
		 M321.102,41.904c-1.051,0-1.919,0.387-2.604,1.161c-0.686,0.773-1.027,1.857-1.027,3.251c0,1.488,0.342,2.643,1.027,3.464
		c0.686,0.821,1.56,1.231,2.623,1.231c1.063,0,1.934-0.398,2.613-1.196c0.679-0.797,1.019-1.94,1.019-3.429
		c0-1.382-0.346-2.475-1.036-3.278C323.024,42.306,322.153,41.904,321.102,41.904z"/>
	<path d="M332.105,31.663l6.291-0.301v12.793c0.874-1.134,1.813-1.981,2.816-2.542s2.067-0.842,3.189-0.842
		c1.063,0,2.021,0.254,2.871,0.762c0.661,0.401,1.226,1.104,1.692,2.108c0.466,1.004,0.699,2.191,0.699,3.562v7.885
		c0,0.508,0.13,0.877,0.391,1.107c0.259,0.23,0.667,0.345,1.223,0.345h1.417v1.329h-8.966V56.54h0.992
		c0.756,0,1.278-0.121,1.568-0.363c0.289-0.242,0.434-0.605,0.434-1.089v-7.885c0-1.382-0.334-2.46-1.001-3.234
		c-0.667-0.773-1.521-1.161-2.561-1.161c-0.814,0-1.571,0.219-2.268,0.656c-0.697,0.437-1.288,1.102-1.772,1.994
		s-0.726,1.833-0.726,2.826v6.627c0,0.591,0.124,1.01,0.372,1.258s0.655,0.372,1.223,0.372h1.417v1.329h-8.771V56.54h0.992
		c0.673,0,1.151-0.133,1.435-0.398c0.284-0.266,0.426-0.676,0.426-1.231V35.1c0-0.709-0.187-1.237-0.559-1.586
		c-0.372-0.348-0.912-0.523-1.621-0.523h-1.205V31.663z"/>
	<path d="M359.073,34.498h1.188v6.769h5.369v1.63h-5.369v10.649c0,0.922,0.219,1.627,0.655,2.118
		c0.438,0.49,0.992,0.735,1.666,0.735c0.803,0,1.488-0.372,2.056-1.116c0.566-0.744,0.897-1.973,0.992-3.686h1.188
		c-0.071,2.209-0.573,3.848-1.507,4.917c-0.933,1.069-2.144,1.604-3.632,1.604c-1.371,0-2.442-0.375-3.217-1.125
		c-0.773-0.75-1.16-1.733-1.16-2.95V42.896h-2.889v-1.24c1.316-0.225,2.318-0.774,3.006-1.648
		C358.439,38.697,358.99,36.86,359.073,34.498z"/>
	<path d="M394.495,33.647l1.595-2.286h1.293l0.106,9.55h-1.169c-0.732-2.929-1.816-5.067-3.252-6.414s-3.086-2.02-4.952-2.02
		c-1.56,0-2.835,0.467-3.827,1.401c-0.992,0.934-1.489,2.075-1.489,3.423c0,0.839,0.189,1.575,0.567,2.208
		c0.377,0.632,0.94,1.147,1.69,1.543s2.164,0.817,4.244,1.264c2.919,0.634,4.966,1.277,6.142,1.926
		c1.175,0.65,2.052,1.468,2.631,2.454s0.868,2.141,0.868,3.464c0,2.363-0.795,4.321-2.383,5.874c-1.589,1.554-3.642,2.33-6.158,2.33
		c-2.705,0-5.056-0.874-7.052-2.623l-2.002,2.445h-1.276V48.035h1.276c0.496,2.799,1.606,5.008,3.331,6.627
		c1.725,1.618,3.668,2.427,5.829,2.427c1.748,0,3.175-0.517,4.279-1.55s1.657-2.289,1.657-3.765c0-0.839-0.207-1.574-0.62-2.206
		c-0.414-0.632-1.069-1.164-1.967-1.595c-0.898-0.431-2.664-0.954-5.299-1.568c-2.894-0.685-4.866-1.453-5.918-2.304
		c-1.477-1.205-2.215-2.912-2.215-5.121c0-2.304,0.735-4.19,2.206-5.661s3.352-2.206,5.644-2.206c1.099,0,2.145,0.195,3.137,0.584
		C392.404,32.088,393.432,32.737,394.495,33.647z"/>
	<path d="M406.136,34.498h1.188v6.769h5.369v1.63h-5.369v10.649c0,0.922,0.219,1.627,0.655,2.118
		c0.438,0.49,0.992,0.735,1.666,0.735c0.803,0,1.488-0.372,2.056-1.116c0.566-0.744,0.897-1.973,0.992-3.686h1.188
		c-0.071,2.209-0.573,3.848-1.507,4.917c-0.933,1.069-2.144,1.604-3.632,1.604c-1.371,0-2.442-0.375-3.217-1.125
		c-0.773-0.75-1.16-1.733-1.16-2.95V42.896h-2.889v-1.24c1.316-0.225,2.318-0.774,3.006-1.648
		C405.502,38.697,406.053,36.86,406.136,34.498z"/>
	<path d="M423.714,40.77c2.232,0,4.107,0.806,5.625,2.419c1.519,1.612,2.277,3.736,2.277,6.37c0,1.819-0.34,3.37-1.019,4.651
		c-0.68,1.282-1.648,2.295-2.906,3.039s-2.613,1.116-4.066,1.116c-2.15,0-3.973-0.815-5.467-2.445
		c-1.494-1.63-2.241-3.745-2.241-6.343c0-2.611,0.75-4.731,2.25-6.361S421.517,40.77,423.714,40.77z M423.714,42.028
		c-1.323,0-2.41,0.6-3.261,1.798c-0.851,1.199-1.275,3.092-1.275,5.679c0,2.634,0.422,4.56,1.267,5.776s1.934,1.825,3.27,1.825
		c1.382,0,2.501-0.608,3.357-1.825s1.284-3.207,1.284-5.972c0-2.563-0.422-4.417-1.267-5.563S425.119,42.028,423.714,42.028z"/>
	<path d="M433.761,41.266l5.971-0.301v6.716c0.638-2.209,1.406-3.88,2.304-5.015c0.897-1.134,2.008-1.701,3.331-1.701
		c0.897,0,1.615,0.275,2.153,0.824c0.537,0.549,0.806,1.285,0.806,2.206c0,0.744-0.18,1.323-0.54,1.736
		c-0.36,0.414-0.813,0.62-1.355,0.62c-0.532,0-0.96-0.177-1.285-0.531c-0.324-0.354-0.487-0.833-0.487-1.436
		c0-0.39,0.095-0.756,0.284-1.099c0.177-0.307,0.266-0.49,0.266-0.549c0-0.177-0.112-0.266-0.337-0.266
		c-0.484,0-1.034,0.284-1.647,0.851c-0.851,0.792-1.507,1.878-1.967,3.26c-0.709,2.15-1.063,3.869-1.063,5.156V55.3
		c0,0.402,0.142,0.709,0.425,0.921c0.284,0.213,0.769,0.319,1.453,0.319h2.108v1.329h-10.313V56.54h1.648
		c0.555,0,0.975-0.109,1.258-0.328c0.283-0.218,0.426-0.481,0.426-0.789V44.846c0-0.803-0.172-1.391-0.515-1.763
		s-0.832-0.558-1.471-0.558h-1.452V41.266z"/>
	<path d="M465.708,49.683h-11.89c0.059,2.528,0.531,4.312,1.417,5.351c1.016,1.169,2.31,1.754,3.881,1.754
		c2.315,0,4.176-1.317,5.581-3.951l1.152,0.496c-1.725,3.355-4.218,5.032-7.478,5.032c-2.221,0-4.091-0.803-5.608-2.41
		s-2.276-3.662-2.276-6.167c0-2.693,0.746-4.87,2.241-6.529c1.494-1.66,3.334-2.49,5.52-2.49c1.606,0,2.994,0.414,4.164,1.24
		c1.169,0.827,2.049,2.014,2.64,3.562C465.466,46.659,465.684,48.029,465.708,49.683z M453.818,48.425h7.193
		c0.426,0,0.756-0.145,0.992-0.434s0.354-0.782,0.354-1.479c0-1.299-0.404-2.404-1.214-3.313c-0.809-0.91-1.763-1.365-2.861-1.365
		c-1.229,0-2.271,0.549-3.127,1.648C454.299,44.58,453.854,46.228,453.818,48.425z"/>
</g>
<path fill="#FFFFFF" d="M42.37,86.148h20.746c0,0,21.756,18.575,0,44.839H42.37V86.148z"/>
<ellipse fill="#FFFFFF" cx="146.497" cy="139.746" rx="9.766" ry="6.32"/>
<ellipse fill="#FFFFFF" cx="370.678" cy="129.747" rx="14.888" ry="12.926"/>
<path fill="#FFFFFF" d="M136.73,140.225c0,0-0.487,9.324,19.533,6.554l-0.054-7.7l-2.07-3.264l-15.081,3.059L136.73,140.225z"/>
</svg>
