<?xml version="1.0" encoding="utf-8"?>
<!-- Generator: Adobe Illustrator 16.0.0, SVG Export Plug-In . SVG Version: 6.00 Build 0)  -->
<!DOCTYPE svg PUBLIC "-//W3C//DTD SVG 1.1//EN" "http://www.w3.org/Graphics/SVG/1.1/DTD/svg11.dtd">
<svg version="1.1" id="Layer_1" xmlns="http://www.w3.org/2000/svg" xmlns:xlink="http://www.w3.org/1999/xlink" x="0px" y="0px"
	 width="600px" height="200px" viewBox="0 0 600 200" enable-background="new 0 0 600 200" xml:space="preserve">
<g>
	<g>
		<path fill-rule="evenodd" clip-rule="evenodd" fill="#FFFFFF" d="M26,178c0-51,0-102,0-153c183,0,366,0,549,0c0,51,0,102,0,153
			C392,178,209,178,26,178z M228.981,155.764c0-11.295-0.009-22.109,0.01-32.924c0.003-1.492-0.271-3.164,0.284-4.449
			c5.943-13.775,11.996-27.504,18.139-41.191c0.429-0.955,1.793-2.087,2.75-2.113c6.783-0.182,13.574-0.096,20.911-0.096
			c0,27.19,0,53.912,0,80.605c8.613,0,16.663,0,25.08,0c0-26.986,0-53.588,0-80.283c7.105,0,13.827,0,20.863,0
			c0,2.139,0,3.947,0,5.756c0,18.5-0.085,37,0.113,55.498c0.023,2.18,1.237,4.596,2.526,6.472
			c7.426,10.802,17.572,15.347,30.682,13.005c2.423-0.432,5.057-0.434,7.479,0c13.146,2.359,23.176-2.445,30.646-13.107
			c1.22-1.742,2.387-3.997,2.409-6.027c0.19-16.998-0.822-34.066,0.418-50.976c0.909-12.407-2.703-21.515-12.472-28.53
			c-1.604-1.152-3.696-2.233-5.588-2.278c-9.661-0.228-19.362,0.376-28.987-0.251c-8.477-0.551-15.736,0.59-20.816,8.123
			c-0.185,0.275-0.807,0.255-1.633,0.486c0-2.88,0-5.479,0-8.455c-30.494,0-60.628-0.025-90.762,0.104
			c-1.071,0.005-2.575,1.327-3.119,2.413c-1.512,3.022-2.62,6.246-3.894,9.387c-2.03,5.003-4.066,10.003-6.582,16.19
			c-3.786-9.114-7.046-17.089-10.444-25.005c-0.5-1.165-1.627-2.906-2.508-2.932c-7.754-0.231-15.519-0.135-24.449-0.135
			c1.09,5.154,1.417,9.641,3,13.627c4.632,11.659,9.655,23.168,14.739,34.642c3.879,8.755,7.281,17.397,6.391,27.407
			c-0.731,8.215-0.149,16.547-0.149,25.037C212.489,155.764,220.418,155.764,228.981,155.764z M113.788,135.983
			c-0.269-0.003-0.538-0.005-0.807-0.007c0-14.325,0.015-28.649-0.006-42.975c-0.011-6.828,1.765-14.429-0.662-20.271
			c-2.425-5.837-8.929-10.086-13.976-14.666c-1.741-1.581-4.465-2.876-6.764-2.915c-14.994-0.256-29.994-0.14-44.991-0.119
			c-1.434,0.002-2.868,0.182-4.322,0.281c0,33.654,0,66.913,0,100.375c0.837,0.112,1.464,0.27,2.092,0.27
			c15.831,0.018,31.663,0.093,47.492-0.082c1.704-0.02,3.73-1.144,5.028-2.369c5.289-4.998,10.353-10.234,15.708-15.593
			c-0.675,6.261-1.291,11.974-1.927,17.872c8.686,0,16.307,0,23.929,0c2.021-7.672,3.994-15.162,5.952-22.597
			c5.193,0,10.155,0,15.084,0c2.025,7.692,3.997,15.183,5.924,22.498c8.565,0,16.832,0,26.486,0
			c-7.114-34.279-17.22-67.193-25.234-100.446c-9.559,0-18.521,0-27.342,0C128.188,82.316,120.988,109.15,113.788,135.983z
			 M488.019,117.149c0,2.944,0.355,5.478-0.061,7.878c-2.076,11.973,1.824,21.391,11.853,28.141
			c2.016,1.357,4.553,2.597,6.896,2.688c8.318,0.323,16.742-0.623,24.967,0.311c10.974,1.244,19.426-1.942,25.556-11.021
			c1.28-1.895,2.551-4.242,2.629-6.424c0.303-8.486-0.277-17.016,0.255-25.479c0.399-6.351-1.481-10.909-6.258-15.134
			c-3.216-2.845-6.132-4.365-10.452-4.179c-7.484,0.323-14.994,0.179-22.488,0.021c-1.664-0.035-3.627-0.542-4.904-1.535
			c-3.616-2.813-4.247-8.25-1.659-11.318c4.409-5.227,11.455-6.688,15.573-3.867c4.623,3.166,4.146,7.803,4.229,12.753
			c4.304,0,8.267,0,12.229,0c4.1,0,8.199,0,12.598,0c0-2.467-0.274-4.325,0.045-6.075c2.062-11.285-1.913-20.018-11.155-26.437
			c-1.744-1.212-4.002-2.276-6.057-2.342c-8.322-0.263-16.743,0.638-24.969-0.292c-11.091-1.254-19.74,1.738-26.146,10.949
			c-0.504,0.725-1.321,1.231-2.888,2.649c0-6.499,0-11.867,0-17.135c-7.198,0-13.796,0-20.006,0c0,12.968,0,25.632,0,38.343
			c6.857,0,12.922,0,19.023,0c0.126-2.777,0.236-5.216,0.347-7.654c0.842,2.795,1.177,5.634,0.779,8.367
			c-1.252,8.62,1.059,15.695,8.55,20.514c2.186,1.406,4.797,2.855,7.275,2.973c7.98,0.376,15.989,0.096,23.986,0.16
			c4.021,0.032,6.819,3.137,7.312,7.047c0.688,5.459-1.075,9.51-5.403,12.915c-3.515,2.767-7.995,2.818-11.457-0.131
			c-3.916-3.335-6.25-7.083-5.289-12.448c0.242-1.354-0.154-2.822-0.258-4.235C504.353,117.149,496.544,117.149,488.019,117.149z
			 M465.624,155.979c0-33.97,0-67.335,0-100.706c-7.953,0-15.546,0-23.636,0c0,13.748,0,27.25,0,42.181
			c-1.169-2.11-1.652-2.894-2.053-3.718c-5.717-11.762-11.366-23.557-17.202-35.258c-0.699-1.402-2.36-3.251-3.63-3.294
			c-8.584-0.291-17.183-0.151-25.703-0.151c0,34.008,0,67.372,0,100.669c7.646,0,14.906,0,22.668,0c0-16.093,0-31.915,0-49.154
			c1.46,2.712,2.249,4.086,2.955,5.503c6.717,13.479,13.344,27.005,20.229,40.397c0.797,1.55,2.963,3.29,4.575,3.373
			C450.954,156.188,458.111,155.979,465.624,155.979z"/>
		<path fill-rule="evenodd" clip-rule="evenodd" d="M228.981,155.764c-8.563,0-16.492,0-24.963,0c0-8.49-0.582-16.822,0.149-25.037
			c0.89-10.01-2.512-18.652-6.391-27.407c-5.083-11.474-10.106-22.982-14.739-34.642c-1.584-3.986-1.91-8.473-3-13.627
			c8.93,0,16.694-0.097,24.449,0.135c0.88,0.025,2.007,1.767,2.508,2.932c3.397,7.916,6.658,15.891,10.444,25.005
			c2.516-6.188,4.552-11.188,6.582-16.19c1.274-3.141,2.382-6.364,3.894-9.387c0.544-1.086,2.048-2.408,3.119-2.413
			c30.134-0.13,60.268-0.104,90.762-0.104c0,2.977,0,5.575,0,8.455c0.826-0.231,1.448-0.211,1.633-0.486
			c5.08-7.533,12.34-8.674,20.816-8.123c9.625,0.627,19.326,0.023,28.987,0.251c1.892,0.045,3.983,1.126,5.588,2.278
			c9.769,7.016,13.381,16.123,12.472,28.53c-1.24,16.909-0.228,33.978-0.418,50.976c-0.022,2.03-1.189,4.285-2.409,6.027
			c-7.47,10.662-17.499,15.467-30.646,13.107c-2.422-0.434-5.056-0.432-7.479,0c-13.109,2.342-23.256-2.203-30.682-13.005
			c-1.289-1.876-2.503-4.292-2.526-6.472c-0.198-18.498-0.113-36.998-0.113-55.498c0-1.809,0-3.617,0-5.756
			c-7.036,0-13.758,0-20.863,0c0,26.695,0,53.297,0,80.283c-8.417,0-16.467,0-25.08,0c0-26.693,0-53.415,0-80.605
			c-7.337,0-14.128-0.086-20.911,0.096c-0.957,0.026-2.321,1.158-2.75,2.113c-6.143,13.688-12.196,27.416-18.139,41.191
			c-0.555,1.285-0.281,2.957-0.284,4.449C228.973,133.654,228.981,144.469,228.981,155.764z M341.981,105.184
			c0,5.156,0.343,10.344-0.099,15.462c-0.423,4.909,1.357,8.24,4.692,11.739c3.199,3.357,6.578,4.328,10.617,3.437
			c3.279-0.724,8.82-8.792,8.823-12.121c0.008-11.978,0.005-23.955,0.001-35.933c-0.001-3.707-4.436-11.05-7.778-11.521
			c-4.261-0.6-8.608-1.229-12.277,2.986c-2.683,3.082-4.358,5.791-4.067,9.987C342.26,94.518,341.981,99.86,341.981,105.184z"/>
		<path fill-rule="evenodd" clip-rule="evenodd" d="M113.788,135.983c7.2-26.833,14.4-53.667,21.664-80.743
			c8.821,0,17.784,0,27.342,0c8.014,33.253,18.12,66.167,25.234,100.446c-9.654,0-17.921,0-26.486,0
			c-1.927-7.315-3.899-14.806-5.924-22.498c-4.929,0-9.891,0-15.084,0c-1.958,7.435-3.931,14.925-5.952,22.597
			c-7.622,0-15.243,0-23.929,0c0.636-5.898,1.252-11.611,1.927-17.872c-5.355,5.358-10.419,10.595-15.708,15.593
			c-1.297,1.226-3.324,2.35-5.028,2.369c-15.829,0.175-31.661,0.1-47.492,0.082c-0.627,0-1.255-0.157-2.092-0.27
			c0-33.462,0-66.721,0-100.375c1.454-0.1,2.888-0.279,4.322-0.281c14.998-0.021,29.998-0.137,44.991,0.119
			c2.299,0.039,5.022,1.334,6.764,2.915c5.047,4.58,11.551,8.829,13.976,14.666c2.427,5.842,0.651,13.442,0.662,20.271
			c0.021,14.325,0.006,28.649,0.006,42.975C113.25,135.979,113.52,135.98,113.788,135.983z M66.357,76.643
			c0,19.775,0,39.475,0,58.818c7.799,2.187,13.371-0.368,18.164-6.226c2.22-2.713,3.682-5.003,3.59-8.668
			c-0.264-10.474-0.033-20.96-0.154-31.44c-0.02-1.677-0.424-3.65-1.373-4.967C81.651,77.313,75.265,73.789,66.357,76.643z
			 M151.016,115.801c-0.964-3.597-1.793-6.694-2.624-9.793c-0.296,0.029-0.592,0.058-0.888,0.086
			c-0.803,3.146-1.607,6.291-2.479,9.707C147.055,115.801,148.803,115.801,151.016,115.801z"/>
		<path fill-rule="evenodd" clip-rule="evenodd" d="M488.019,117.149c8.525,0,16.334,0,24.653,0c0.104,1.413,0.5,2.882,0.258,4.235
			c-0.961,5.365,1.373,9.113,5.289,12.448c3.462,2.949,7.942,2.897,11.457,0.131c4.328-3.405,6.092-7.456,5.403-12.915
			c-0.492-3.91-3.291-7.015-7.312-7.047c-7.997-0.064-16.006,0.216-23.986-0.16c-2.479-0.117-5.09-1.566-7.275-2.973
			c-7.491-4.818-9.802-11.894-8.55-20.514c0.397-2.733,0.063-5.572-0.779-8.367c-0.11,2.438-0.221,4.877-0.347,7.654
			c-6.102,0-12.166,0-19.023,0c0-12.711,0-25.375,0-38.343c6.21,0,12.808,0,20.006,0c0,5.268,0,10.636,0,17.135
			c1.566-1.418,2.384-1.925,2.888-2.649c6.405-9.211,15.055-12.203,26.146-10.949c8.226,0.93,16.646,0.029,24.969,0.292
			c2.055,0.065,4.313,1.13,6.057,2.342c9.242,6.419,13.217,15.151,11.155,26.437c-0.319,1.75-0.045,3.608-0.045,6.075
			c-4.398,0-8.498,0-12.598,0c-3.963,0-7.926,0-12.229,0c-0.084-4.95,0.394-9.587-4.229-12.753
			c-4.118-2.82-11.164-1.359-15.573,3.867c-2.588,3.068-1.957,8.506,1.659,11.318c1.277,0.993,3.24,1.5,4.904,1.535
			c7.494,0.158,15.004,0.303,22.488-0.021c4.32-0.187,7.236,1.334,10.452,4.179c4.776,4.225,6.657,8.783,6.258,15.134
			c-0.532,8.464,0.048,16.993-0.255,25.479c-0.078,2.182-1.349,4.529-2.629,6.424c-6.13,9.079-14.582,12.266-25.556,11.021
			c-8.225-0.934-16.648,0.013-24.967-0.311c-2.344-0.091-4.881-1.33-6.896-2.688c-10.028-6.75-13.929-16.168-11.853-28.141
			C488.374,122.627,488.019,120.094,488.019,117.149z"/>
		<path fill-rule="evenodd" clip-rule="evenodd" d="M465.624,155.979c-7.513,0-14.67,0.208-21.797-0.158
			c-1.612-0.083-3.778-1.823-4.575-3.373c-6.885-13.393-13.512-26.919-20.229-40.397c-0.706-1.417-1.495-2.791-2.955-5.503
			c0,17.239,0,33.062,0,49.154c-7.762,0-15.021,0-22.668,0c0-33.297,0-66.661,0-100.669c8.521,0,17.119-0.14,25.703,0.151
			c1.27,0.043,2.931,1.892,3.63,3.294c5.836,11.701,11.485,23.496,17.202,35.258c0.4,0.824,0.884,1.607,2.053,3.718
			c0-14.931,0-28.433,0-42.181c8.09,0,15.683,0,23.636,0C465.624,88.645,465.624,122.01,465.624,155.979z"/>
		<path fill-rule="evenodd" clip-rule="evenodd" fill="#FFFFFF" d="M341.981,105.184c0-5.323,0.278-10.666-0.088-15.964
			c-0.291-4.196,1.385-6.905,4.067-9.987c3.669-4.215,8.017-3.586,12.277-2.986c3.343,0.472,7.777,7.814,7.778,11.521
			c0.004,11.978,0.007,23.955-0.001,35.933c-0.003,3.329-5.544,11.397-8.823,12.121c-4.039,0.892-7.418-0.079-10.617-3.437
			c-3.335-3.499-5.115-6.83-4.692-11.739C342.324,115.527,341.981,110.34,341.981,105.184z"/>
		<path fill-rule="evenodd" clip-rule="evenodd" fill="#FFFFFF" d="M66.357,76.643c8.907-2.854,15.294,0.67,20.228,7.518
			c0.948,1.316,1.353,3.29,1.373,4.967c0.121,10.48-0.11,20.967,0.154,31.44c0.092,3.665-1.37,5.955-3.59,8.668
			c-4.793,5.857-10.365,8.412-18.164,6.226C66.357,116.117,66.357,96.418,66.357,76.643z"/>
		<path fill-rule="evenodd" clip-rule="evenodd" fill="#FFFFFF" d="M151.016,115.801c-2.213,0-3.961,0-5.991,0
			c0.873-3.416,1.676-6.562,2.479-9.707c0.296-0.028,0.592-0.057,0.888-0.086C149.223,109.106,150.052,112.204,151.016,115.801z"/>
	</g>
</g>
</svg>
