<?xml version="1.0" encoding="UTF-8" standalone="no"?>
<svg
   xmlns:dc="http://purl.org/dc/elements/1.1/"
   xmlns:cc="http://creativecommons.org/ns#"
   xmlns:rdf="http://www.w3.org/1999/02/22-rdf-syntax-ns#"
   xmlns:svg="http://www.w3.org/2000/svg"
   xmlns="http://www.w3.org/2000/svg"
   xmlns:sodipodi="http://sodipodi.sourceforge.net/DTD/sodipodi-0.dtd"
   xmlns:inkscape="http://www.inkscape.org/namespaces/inkscape"
   width="1000"
   height="131"
   viewBox="0 0 1788 233"
   version="1.0"
   id="svg2"
   sodipodi:version="0.32"
   inkscape:version="0.46"
   sodipodi:docname="tata steel.svg"
   inkscape:output_extension="org.inkscape.output.svg.inkscape">
  <metadata
     id="metadata27">
    <rdf:RDF>
      <cc:Work
         rdf:about="">
        <dc:format>image/svg+xml</dc:format>
        <dc:type
           rdf:resource="http://purl.org/dc/dcmitype/StillImage" />
      </cc:Work>
    </rdf:RDF>
  </metadata>
  <defs
     id="defs25">
    <inkscape:perspective
       sodipodi:type="inkscape:persp3d"
       inkscape:vp_x="0 : 145.625 : 1"
       inkscape:vp_y="0 : 1000 : 0"
       inkscape:vp_z="2235 : 145.625 : 1"
       inkscape:persp3d-origin="1117.5 : 97.083333 : 1"
       id="perspective29" />
  </defs>
  <sodipodi:namedview
     inkscape:window-height="669"
     inkscape:window-width="640"
     inkscape:pageshadow="2"
     inkscape:pageopacity="0.0"
     guidetolerance="10.0"
     gridtolerance="10.0"
     objecttolerance="10.0"
     borderopacity="1.0"
     bordercolor="#666666"
     pagecolor="#ffffff"
     id="base"
     showgrid="false"
     inkscape:zoom="0.24340045"
     inkscape:cx="1117.5"
     inkscape:cy="145.625"
     inkscape:window-x="138"
     inkscape:window-y="95"
     inkscape:current-layer="svg2" />
  <g
     id="#ffffffff" />
  <g
     id="#3c78bbff">
    <path
       d="M 1003.77,18.76 C 1017.47,9.97 1033.9,6.46 1050,5.99 C 1068.61,5.77 1087.69,8.32 1104.55,16.6 C 1101.43,27.25 1098.26,37.87 1095.09,48.5 C 1081.52,41.54 1066.23,38.13 1051.01,38.21 C 1041.95,38.44 1032.44,40.37 1025.23,46.17 C 1018.57,51.48 1015.01,60.57 1016.88,68.96 C 1018.01,76.15 1023.21,81.91 1029.1,85.8 C 1042.82,94.96 1059.16,98.75 1073.71,106.27 C 1084.79,111.8 1095.38,119.04 1102.8,129.12 C 1112.01,141.53 1114.67,157.87 1112.42,172.93 C 1110.52,186.75 1103.49,199.83 1092.84,208.87 C 1082.78,217.61 1070.09,222.86 1057.12,225.49 C 1042.02,228.54 1026.39,228.75 1011.18,226.4 C 997.99,224.43 984.92,220.84 973.11,214.54 C 975.61,203.46 978.9,192.55 981.76,181.55 C 997.63,190.5 1015.85,195.15 1034.04,195.37 C 1044.81,195.19 1056.46,193.19 1064.67,185.64 C 1071.26,179.8 1073.95,170.49 1072.72,161.91 C 1071.93,154.47 1067.29,147.99 1061.42,143.6 C 1049.28,134.3 1034.07,130.9 1020.39,124.61 C 1006.09,118.03 992.09,108.96 983.78,95.21 C 976.63,83.64 975.14,69.33 977.57,56.14 C 980.47,40.67 990.51,27.04 1003.77,18.76 z"
       id="path6"
       style="opacity:1;fill:#3c78bb" />
    <path
       d="M 7.57,8.36 C 77.27,8.31 146.97,8.36 216.67,8.33 C 216.65,29.55 216.66,50.77 216.67,71.98 C 196.66,72.03 176.66,71.98 156.66,72.01 C 156.66,122.89 156.65,173.78 156.67,224.67 C 127.64,224.64 98.6,224.68 69.57,224.64 C 69.63,173.77 69.56,122.9 69.61,72.03 C 48.94,71.96 28.27,72.03 7.59,71.99 C 7.58,50.78 7.63,29.57 7.57,8.36 z"
       id="path8"
       style="opacity:1;fill:#3c78bb" />
    <path
       d="M 277,8.28 C 307.28,8.42 337.56,8.32 367.84,8.32 C 395.85,80.46 423.9,152.58 451.95,224.7 C 423.68,224.61 395.4,224.66 367.13,224.68 C 352.27,182.06 337.57,139.38 322.82,96.72 C 322.02,97.71 321.54,98.88 321.16,100.08 C 307.03,141.61 292.77,183.09 278.66,224.63 C 250.72,224.7 222.79,224.64 194.85,224.66 C 222.1,152.48 249.5,80.35 277,8.28 z"
       id="path10"
       style="opacity:1;fill:#3c78bb" />
    <path
       d="M 431.92,8.28 C 501.61,8.42 571.3,8.3 640.99,8.34 C 641.01,29.56 641,50.78 641,72 C 621,72.01 601,71.99 581,72 C 580.99,122.89 581.02,173.78 580.99,224.66 C 551.96,224.69 522.94,224.59 493.91,224.71 C 493.67,173.82 493.88,122.91 493.81,72.01 C 473.14,71.99 452.48,72.01 431.81,71.99 C 431.88,50.76 431.66,29.52 431.92,8.28 z"
       id="path12"
       style="opacity:1;fill:#3c78bb" />
    <path
       d="M 701.12,8.31 C 731.39,8.37 761.66,8.34 791.93,8.33 C 820.03,80.43 848.06,152.56 876.06,224.7 C 847.78,224.6 819.5,224.69 791.22,224.66 C 776.39,181.85 761.65,139.02 746.74,96.24 C 731.88,138.98 717.48,181.88 702.73,224.67 C 674.8,224.68 646.87,224.61 618.94,224.7 C 646.29,152.55 673.61,80.4 701.12,8.31 z"
       id="path14"
       style="opacity:1;fill:#3c78bb" />
    <path
       d="M 1117.02,9.33 C 1171.39,9.34 1225.77,9.37 1280.14,9.31 C 1280.26,20.34 1280.15,31.37 1280.19,42.4 C 1259.48,42.38 1238.78,42.46 1218.07,42.36 C 1217.89,103.13 1218.07,163.9 1217.99,224.67 C 1204.84,224.62 1191.7,224.72 1178.56,224.62 C 1178.64,163.88 1178.59,103.15 1178.58,42.42 C 1158.06,42.39 1137.53,42.41 1117.01,42.41 C 1117,31.38 1116.97,20.35 1117.02,9.33 z"
       id="path16"
       style="opacity:1;fill:#3c78bb" />
    <path
       d="M 1304.94,9.27 C 1346.78,9.47 1388.62,9.21 1430.46,9.4 C 1430.35,20.15 1430.4,30.89 1430.43,41.64 C 1401.79,41.65 1373.15,41.72 1344.52,41.6 C 1344.24,60.05 1344.51,78.5 1344.38,96.95 C 1371.49,97.13 1398.6,96.85 1425.72,97.09 C 1425.46,107.82 1425.93,118.57 1425.48,129.3 C 1398.46,129.05 1371.43,129.25 1344.41,129.2 C 1344.37,150.11 1344.45,171.03 1344.37,191.94 C 1374.64,192.08 1404.92,191.95 1435.19,192.01 C 1435.26,202.83 1435.05,213.66 1435.3,224.49 C 1391.83,224.91 1348.34,224.51 1304.86,224.69 C 1304.74,167.46 1304.84,110.23 1304.81,53 C 1304.89,38.42 1304.63,23.84 1304.94,9.27 z"
       id="path18"
       style="opacity:1;fill:#3c78bb" />
    <path
       d="M 1475.7,9.51 C 1517.6,9.13 1559.53,9.41 1601.44,9.37 C 1601.37,20.13 1601.39,30.88 1601.43,41.64 C 1572.79,41.65 1544.14,41.71 1515.51,41.61 C 1515.25,60.05 1515.51,78.5 1515.37,96.94 C 1542.47,97.1 1569.57,96.92 1596.68,97.03 C 1596.68,107.71 1596.58,118.38 1596.73,129.06 C 1569.63,129.37 1542.52,129.1 1515.41,129.2 C 1515.38,150.12 1515.43,171.04 1515.38,191.96 C 1545.65,192.06 1575.92,191.96 1606.19,192.01 C 1606.24,202.85 1606.09,213.69 1606.27,224.53 C 1562.83,224.87 1519.37,224.49 1475.93,224.72 C 1475.58,152.99 1476.03,81.24 1475.7,9.51 z"
       id="path20"
       style="opacity:1;fill:#3c78bb" />
    <path
       d="M 1646.89,9.29 C 1660.07,9.42 1673.25,9.28 1686.43,9.36 C 1686.37,70.1 1686.41,130.84 1686.42,191.58 C 1715.94,191.61 1745.46,191.59 1774.99,191.59 C 1775,202.62 1775.01,213.64 1774.98,224.67 C 1732.29,224.69 1689.61,224.59 1646.92,224.72 C 1646.72,152.91 1646.77,81.1 1646.89,9.29 z"
       id="path22"
       style="opacity:1;fill:#3c78bb" />
  </g>
</svg>
