<?xml version="1.0" encoding="UTF-8" ?>
<!DOCTYPE svg PUBLIC "-//W3C//DTD SVG 1.1//EN" "http://www.w3.org/Graphics/SVG/1.1/DTD/svg11.dtd">
<svg width="1062pt" height="121pt" viewBox="0 0 1062 121" version="1.1" xmlns="http://www.w3.org/2000/svg">
<g id="#ffffffff">
</g>
<g id="#1467b3ff">
<path fill="#1467b3" opacity="1.00" d=" M 650.17 6.24 C 662.89 5.12 676.40 8.33 686.12 16.91 C 698.25 27.50 703.77 44.15 703.34 59.94 C 703.69 73.38 700.40 87.32 692.17 98.16 C 684.85 108.10 672.99 114.15 660.83 115.48 C 647.30 117.32 632.53 114.15 622.34 104.68 C 610.43 94.09 605.22 77.65 605.43 62.05 C 605.12 46.54 610.10 30.33 621.36 19.29 C 628.99 11.64 639.46 7.16 650.17 6.24 M 649.50 25.57 C 643.74 26.86 638.94 30.87 635.85 35.80 C 631.12 43.27 629.63 52.30 629.41 61.01 C 629.56 69.99 631.19 79.30 636.25 86.90 C 640.13 92.76 646.78 97.19 654.00 96.89 C 661.30 97.37 668.32 93.23 672.22 87.18 C 678.64 77.44 679.59 65.24 678.64 53.90 C 677.66 45.16 674.62 36.12 667.96 30.06 C 663.04 25.55 655.91 24.20 649.50 25.57 Z" />
<path fill="#1467b3" opacity="1.00" d=" M 833.13 6.24 C 845.83 5.12 859.32 8.31 869.05 16.85 C 881.24 27.44 886.78 44.14 886.34 59.98 C 886.69 73.41 883.38 87.35 875.16 98.18 C 867.84 108.09 856.01 114.14 843.87 115.48 C 830.33 117.32 815.54 114.16 805.34 104.68 C 793.43 94.10 788.23 77.66 788.43 62.07 C 788.11 46.57 793.09 30.38 804.32 19.32 C 811.95 11.67 822.41 7.17 833.13 6.24 M 832.45 25.58 C 826.69 26.88 821.90 30.91 818.82 35.85 C 814.11 43.31 812.63 52.32 812.41 61.01 C 812.56 69.98 814.18 79.27 819.23 86.87 C 823.10 92.73 829.74 97.17 836.95 96.89 C 844.53 97.41 851.75 92.95 855.61 86.58 C 861.85 76.61 862.65 64.32 861.53 52.90 C 860.38 44.28 857.20 35.38 850.41 29.60 C 845.51 25.42 838.64 24.26 832.45 25.58 Z" />
<path fill="#1467b3" opacity="1.00" d=" M 1016.04 7.10 C 1028.43 4.81 1041.58 6.13 1053.13 11.26 C 1051.42 17.67 1049.53 24.04 1048.03 30.50 C 1039.98 26.76 1030.90 24.55 1022.03 25.93 C 1017.42 26.66 1012.26 29.78 1011.95 34.90 C 1011.37 38.45 1013.29 41.87 1016.15 43.87 C 1024.24 49.41 1034.18 51.32 1042.37 56.70 C 1047.82 60.18 1052.70 65.00 1055.05 71.13 C 1059.44 82.50 1057.17 96.60 1048.22 105.17 C 1040.81 112.49 1030.16 115.31 1020.02 115.89 C 1008.79 116.36 997.29 114.48 987.15 109.49 C 988.66 102.88 990.24 96.27 991.83 89.67 C 999.85 93.99 1008.92 96.24 1018.02 96.42 C 1022.76 96.12 1028.13 95.25 1031.38 91.40 C 1034.67 87.41 1034.51 80.94 1030.69 77.35 C 1024.62 71.47 1015.89 70.19 1008.66 66.31 C 1000.37 62.19 992.44 55.70 989.63 46.56 C 987.04 37.67 988.44 27.44 994.10 19.98 C 999.34 12.99 1007.57 8.72 1016.04 7.10 Z" />
<path fill="#1467b3" opacity="1.00" d=" M 4.69 6.85 C 39.56 6.90 74.43 6.88 109.30 6.86 C 109.35 17.40 109.23 27.95 109.36 38.50 C 99.35 38.49 89.34 38.53 79.33 38.48 C 79.29 63.94 79.29 89.41 79.33 114.87 C 64.82 114.87 50.31 114.88 35.81 114.87 C 36.01 95.25 35.71 75.61 35.94 55.99 C 35.38 50.12 36.59 44.21 35.67 38.39 C 25.34 38.66 15.00 38.42 4.66 38.51 C 4.73 27.96 4.68 17.40 4.69 6.85 Z" />
<path fill="#1467b3" opacity="1.00" d=" M 139.36 7.16 C 153.90 6.49 168.49 7.05 183.06 6.85 C 184.32 6.69 185.15 7.21 185.55 8.41 C 199.44 43.91 213.11 79.51 227.14 114.96 C 213.04 114.81 198.93 114.85 184.82 114.94 C 177.18 93.62 170.07 72.12 162.42 50.80 C 154.76 72.01 147.71 93.45 140.39 114.79 C 126.41 114.99 112.43 114.81 98.44 114.88 C 112.18 79.02 125.93 43.14 139.36 7.16 Z" />
<path fill="#1467b3" opacity="1.00" d=" M 217.13 6.85 C 246.74 6.85 276.35 6.89 305.95 6.89 C 311.15 6.89 316.37 6.66 321.56 7.07 C 321.46 17.56 321.48 28.05 321.54 38.54 C 311.53 38.45 301.51 38.54 291.49 38.49 C 291.54 63.96 291.45 89.43 291.54 114.89 C 277.05 114.88 262.56 114.83 248.08 114.92 C 248.20 89.45 248.06 63.98 248.15 38.50 C 237.80 38.52 227.46 38.46 217.11 38.54 C 217.15 27.98 217.11 17.41 217.13 6.85 Z" />
<path fill="#1467b3" opacity="1.00" d=" M 351.72 7.22 C 358.76 6.34 365.89 7.19 372.98 6.86 C 381.16 7.06 389.38 6.42 397.54 7.21 C 411.35 43.16 425.35 79.04 439.46 114.87 C 425.30 114.87 411.15 114.89 397.00 114.86 C 390.19 94.78 383.11 74.78 376.24 54.72 C 375.79 53.57 375.53 52.11 374.13 51.79 C 367.25 72.88 359.70 93.75 352.77 114.82 C 338.77 114.98 324.78 114.78 310.79 114.92 C 324.51 79.05 338.24 43.18 351.72 7.22 Z" />
<path fill="#1467b3" opacity="1.00" d=" M 902.13 9.23 C 913.34 7.49 924.69 6.87 936.03 7.05 C 946.08 7.37 956.90 8.51 965.08 14.93 C 977.60 24.35 978.86 44.92 968.05 56.11 C 965.05 59.42 961.30 62.00 957.13 63.60 C 962.64 66.32 966.74 71.34 968.81 77.07 C 973.15 89.12 974.62 102.03 979.16 114.02 C 971.18 113.76 963.20 114.14 955.23 113.81 C 952.23 105.34 950.21 96.58 948.23 87.84 C 947.03 83.03 945.61 77.67 941.43 74.56 C 936.63 71.18 930.45 72.14 924.93 71.93 C 924.94 85.94 924.90 99.95 924.96 113.96 C 917.32 113.92 909.68 113.92 902.04 113.96 C 902.14 79.05 901.97 44.14 902.13 9.23 M 924.90 25.61 C 925.05 35.32 924.76 45.03 925.05 54.73 C 931.97 54.47 939.49 55.64 945.70 51.80 C 954.25 47.02 954.78 32.84 946.39 27.65 C 939.93 23.80 932.01 25.03 924.90 25.61 Z" />
<path fill="#1467b3" opacity="1.00" d=" M 486.09 8.02 C 496.41 8.13 506.73 8.03 517.04 8.08 C 523.68 32.38 531.30 56.47 535.68 81.33 C 536.68 80.18 536.87 78.64 537.19 77.20 C 542.28 53.76 549.69 30.95 556.73 8.05 C 566.86 8.09 576.99 8.05 587.12 8.07 C 588.62 43.37 590.86 78.63 592.38 113.93 C 584.90 113.94 577.42 113.93 569.95 113.93 C 569.37 91.93 567.92 69.97 567.66 47.96 C 567.79 41.89 567.43 35.82 567.38 29.74 C 560.10 57.49 551.36 84.83 543.18 112.33 C 537.16 112.33 531.14 112.33 525.12 112.33 C 519.08 88.60 512.00 65.11 507.19 41.08 C 506.30 37.25 505.97 33.27 504.64 29.55 C 504.03 57.70 502.33 85.81 501.12 113.93 C 493.97 113.94 486.83 113.92 479.68 113.95 C 481.81 78.63 484.19 43.34 486.09 8.02 Z" />
<path fill="#1467b3" opacity="1.00" d=" M 706.42 8.07 C 732.47 8.06 758.52 8.07 784.57 8.07 C 784.55 14.73 784.48 21.39 784.61 28.06 C 775.38 28.28 766.16 28.09 756.93 28.16 C 756.95 56.76 756.90 85.36 756.96 113.96 C 749.25 113.90 741.54 113.95 733.84 113.93 C 733.85 85.34 733.84 56.75 733.84 28.16 C 724.72 28.16 715.59 28.14 706.47 28.17 C 706.42 21.47 706.49 14.77 706.42 8.07 Z" />
</g>
</svg>
