<?xml version="1.0" encoding="UTF-8" ?>
<!DOCTYPE svg PUBLIC "-//W3C//DTD SVG 1.1//EN" "http://www.w3.org/Graphics/SVG/1.1/DTD/svg11.dtd">
<svg width="1247pt" height="112pt" viewBox="0 0 1247 112" version="1.1" xmlns="http://www.w3.org/2000/svg">
<g id="#ffffffff">
</g>
<g id="#1467b3ff">
<path fill="#1467b3" opacity="1.00" d=" M 6.19 6.80 C 6.89 6.74 8.30 6.61 9.01 6.54 C 39.67 6.61 70.34 6.51 101.00 6.59 C 101.03 16.20 101.00 25.80 101.00 35.40 C 92.05 35.43 83.09 35.53 74.14 35.35 C 73.82 58.23 74.10 81.12 74.00 104.00 C 60.74 103.96 47.48 104.09 34.22 103.93 C 34.35 82.27 34.20 60.61 34.30 38.94 C 34.29 37.74 34.18 36.55 33.98 35.36 C 24.86 35.61 15.73 35.23 6.62 35.57 C 5.75 26.04 6.61 16.38 6.19 6.80 Z" />
<path fill="#1467b3" opacity="1.00" d=" M 128.04 6.76 C 141.92 6.44 155.87 6.41 169.76 6.77 C 181.98 39.31 195.33 71.44 207.48 104.00 C 194.65 104.01 181.83 104.01 169.01 104.00 C 162.17 84.75 155.80 65.33 148.64 46.21 C 148.41 47.46 148.11 48.70 147.75 49.92 C 141.47 67.93 135.36 86.00 129.07 104.00 C 116.33 104.02 103.59 103.99 90.85 104.00 C 103.29 71.61 115.75 39.21 128.04 6.76 Z" />
<path fill="#1467b3" opacity="1.00" d=" M 198.27 19.01 C 198.47 14.82 197.84 10.57 198.61 6.44 C 230.13 6.75 261.67 6.44 293.20 6.59 C 293.20 16.20 293.21 25.81 293.19 35.41 C 284.19 35.40 275.19 35.56 266.20 35.33 C 265.75 58.21 266.14 81.11 266.00 104.00 C 252.86 104.01 239.72 104.02 226.58 104.00 C 226.52 81.16 226.61 58.32 226.54 35.49 C 217.22 35.45 207.89 35.32 198.57 35.56 C 197.87 30.08 198.46 24.52 198.27 19.01 Z" />
<path fill="#1467b3" opacity="1.00" d=" M 320.11 6.75 C 334.01 6.41 347.95 6.49 361.86 6.71 C 374.22 39.24 387.39 71.46 399.71 104.00 C 386.84 104.00 373.96 104.03 361.09 103.98 C 355.45 87.23 349.47 70.60 343.71 53.89 C 342.87 51.34 341.63 48.88 341.45 46.16 C 334.20 65.25 328.18 84.82 321.18 104.02 C 308.55 104.00 295.93 104.00 283.31 104.01 C 284.10 100.57 285.68 97.39 286.85 94.08 C 297.89 64.95 309.33 35.96 320.11 6.75 Z" />
<path fill="#1467b3" opacity="1.00" d=" M 507.89 12.89 C 520.91 6.42 536.11 5.70 550.22 8.31 C 553.45 9.12 556.98 9.55 559.68 11.67 C 557.93 17.44 556.48 23.29 554.91 29.10 C 544.61 25.01 532.59 23.80 522.16 28.08 C 514.10 31.28 508.13 38.67 506.06 47.02 C 503.81 56.11 504.29 66.16 508.63 74.58 C 512.11 81.32 518.72 86.13 526.02 88.00 C 535.65 90.54 545.76 88.89 555.18 86.35 C 556.05 92.26 557.47 98.07 558.25 103.99 C 547.43 108.06 535.58 108.66 524.18 107.62 C 509.98 106.20 495.83 99.07 488.34 86.58 C 480.43 73.48 479.26 57.02 483.23 42.44 C 486.72 29.63 495.92 18.61 507.89 12.89 Z" />
<path fill="#1467b3" opacity="1.00" d=" M 945.09 10.28 C 959.65 5.48 975.98 5.72 990.38 11.01 C 989.60 17.17 987.27 23.04 985.92 29.10 C 975.58 25.00 963.51 23.78 953.06 28.13 C 945.04 31.34 939.12 38.71 937.06 47.02 C 934.77 56.30 935.30 66.61 939.93 75.12 C 943.64 81.93 950.57 86.59 958.06 88.27 C 967.37 90.30 977.10 89.02 986.11 86.20 C 987.02 92.17 988.57 98.04 989.17 104.04 C 978.35 108.04 966.55 108.68 955.17 107.62 C 941.50 106.22 927.84 99.63 920.19 87.89 C 911.04 73.89 909.94 55.61 915.01 39.93 C 919.57 25.94 931.22 14.89 945.09 10.28 Z" />
<path fill="#1467b3" opacity="1.00" d=" M 1201.09 8.03 C 1213.30 5.80 1226.38 6.74 1237.80 11.83 C 1236.35 17.95 1234.40 23.93 1232.86 30.03 C 1226.43 26.79 1219.21 25.32 1212.05 25.19 C 1207.24 25.39 1201.64 26.45 1198.85 30.81 C 1196.39 34.54 1198.39 39.68 1202.05 41.80 C 1210.34 47.11 1220.43 48.71 1228.64 54.20 C 1234.50 57.76 1239.26 63.40 1240.93 70.14 C 1242.79 78.38 1241.63 87.67 1236.36 94.48 C 1231.25 101.36 1223.07 105.24 1214.84 106.90 C 1201.09 109.42 1186.44 108.01 1173.73 102.05 C 1174.96 95.84 1176.87 89.78 1178.15 83.58 C 1187.77 87.76 1198.48 90.92 1209.03 88.98 C 1213.93 88.27 1219.12 84.43 1218.88 79.03 C 1219.16 75.59 1216.63 72.84 1214.07 70.94 C 1209.08 67.44 1203.02 66.16 1197.51 63.76 C 1190.55 60.89 1183.75 56.84 1179.28 50.65 C 1173.73 42.96 1173.61 32.17 1177.85 23.88 C 1182.43 15.19 1191.65 9.83 1201.09 8.03 Z" />
<path fill="#1467b3" opacity="1.00" d=" M 572.81 8.00 C 580.27 8.00 587.73 8.00 595.19 8.00 C 595.29 20.87 595.07 33.74 595.30 46.60 C 607.42 46.54 619.55 46.52 631.68 46.61 C 631.96 33.75 631.70 20.87 631.81 8.00 C 639.27 8.00 646.73 7.99 654.20 8.00 C 654.21 41.00 654.22 74.00 654.19 107.00 C 646.73 107.00 639.27 107.00 631.81 107.00 C 631.80 93.35 631.76 79.70 631.83 66.05 C 619.61 65.98 607.38 65.97 595.16 66.06 C 595.25 79.71 595.19 93.36 595.19 107.00 C 587.73 106.99 580.27 107.02 572.81 107.00 C 572.78 74.00 572.79 41.00 572.81 8.00 Z" />
<path fill="#1467b3" opacity="1.00" d=" M 673.81 8.00 C 694.14 8.05 714.47 7.86 734.80 8.10 C 734.39 14.25 735.27 20.49 734.35 26.57 C 721.66 26.24 708.96 26.56 696.27 26.41 C 696.10 33.25 696.28 40.11 696.17 46.96 C 708.38 47.11 720.59 46.83 732.80 47.10 C 732.67 53.08 732.71 59.07 732.77 65.05 C 720.59 65.42 708.38 65.07 696.20 65.23 C 696.25 73.02 696.12 80.80 696.27 88.59 C 709.84 88.56 723.42 88.52 737.00 88.60 C 736.99 94.74 737.00 100.87 737.01 107.00 C 715.94 107.00 694.87 107.01 673.81 107.00 C 673.79 74.00 673.78 41.00 673.81 8.00 Z" />
<path fill="#1467b3" opacity="1.00" d=" M 755.83 7.99 C 765.82 8.03 775.81 7.95 785.80 8.03 C 792.10 30.56 799.64 52.83 803.60 75.94 C 804.68 75.43 804.58 74.08 804.91 73.10 C 809.77 50.99 817.08 29.55 823.91 8.00 C 833.77 8.12 843.66 7.75 853.52 8.18 C 855.15 41.13 857.09 74.07 858.69 107.03 C 851.41 106.97 844.13 107.01 836.86 107.00 C 835.82 81.00 834.18 54.97 834.51 28.97 C 832.71 32.75 832.23 36.96 830.94 40.91 C 824.76 62.53 817.71 83.90 811.08 105.38 C 805.12 105.39 799.14 105.66 793.20 105.24 C 787.75 83.74 780.94 62.58 776.43 40.84 C 775.33 36.63 775.02 32.22 773.41 28.16 C 774.12 32.40 773.33 36.67 773.36 40.94 C 772.63 62.97 771.48 84.99 770.25 107.00 C 763.35 106.99 756.44 107.00 749.54 107.00 C 751.41 73.98 753.56 40.98 755.83 7.99 Z" />
<path fill="#1467b3" opacity="1.00" d=" M 875.81 8.00 C 883.27 8.00 890.73 7.98 898.19 8.00 C 898.21 41.00 898.21 74.01 898.19 107.01 C 890.73 106.99 883.27 107.02 875.81 107.00 C 875.78 74.00 875.79 41.00 875.81 8.00 Z" />
<path fill="#1467b3" opacity="1.00" d=" M 1029.40 8.16 C 1039.25 7.78 1049.12 8.09 1058.99 8.00 C 1069.25 40.99 1079.63 73.95 1089.71 107.00 C 1081.58 106.93 1073.45 107.15 1065.33 106.89 C 1063.00 98.46 1060.40 90.11 1057.83 81.75 C 1048.85 81.73 1039.88 81.69 1030.91 81.76 C 1029.09 81.44 1029.23 83.77 1028.80 84.86 C 1026.87 92.26 1024.75 99.60 1022.87 107.00 C 1015.06 106.99 1007.26 107.01 999.46 107.00 C 1009.23 73.99 1019.66 41.17 1029.40 8.16 M 1040.83 35.89 C 1038.73 45.72 1035.57 55.27 1032.94 64.95 C 1040.10 65.04 1047.25 64.99 1054.42 65.00 C 1050.59 51.65 1046.59 38.36 1043.55 24.80 C 1042.26 28.40 1041.75 32.20 1040.83 35.89 Z" />
<path fill="#1467b3" opacity="1.00" d=" M 1102.81 8.00 C 1110.27 8.00 1117.73 8.00 1125.19 8.00 C 1125.20 34.65 1125.24 61.30 1125.17 87.95 C 1138.25 88.06 1151.33 87.96 1164.42 88.00 C 1164.44 94.40 1164.46 100.80 1164.41 107.20 C 1143.87 107.20 1123.34 107.22 1102.81 107.19 C 1102.79 74.13 1102.78 41.06 1102.81 8.00 Z" />
</g>
</svg>
