<?xml version="1.0" encoding="UTF-8" ?>
<!DOCTYPE svg PUBLIC "-//W3C//DTD SVG 1.1//EN" "http://www.w3.org/Graphics/SVG/1.1/DTD/svg11.dtd">
<svg width="995pt" height="121pt" viewBox="0 0 995 121" version="1.1" xmlns="http://www.w3.org/2000/svg">
<g id="#ffffffff">
</g>
<g id="#1b69b2ff">
<path fill="#1b69b2" opacity="1.00" d=" M 635.45 6.70 C 647.49 5.30 660.44 8.17 669.51 16.56 C 679.62 25.39 684.45 38.84 685.42 51.95 C 686.51 62.83 685.78 74.01 682.62 84.52 C 679.05 96.09 671.28 106.93 660.01 111.97 C 649.99 116.27 638.47 116.59 627.99 113.87 C 616.82 110.96 607.77 102.38 602.94 92.06 C 596.60 78.76 595.84 63.48 597.57 49.05 C 598.94 36.57 604.14 24.12 613.65 15.67 C 619.66 10.36 627.51 7.42 635.45 6.70 M 636.13 25.26 C 626.16 27.19 619.28 36.50 617.45 46.08 C 615.28 57.08 615.21 68.81 618.63 79.57 C 621.50 88.12 628.76 95.77 637.97 97.04 C 647.28 98.77 656.88 93.50 661.40 85.37 C 666.27 76.50 666.91 66.04 666.55 56.13 C 665.89 47.58 664.39 38.30 658.19 31.88 C 652.81 25.76 643.96 23.41 636.13 25.26 Z" />
<path fill="#1b69b2" opacity="1.00" d=" M 6.61 6.61 C 43.62 6.61 80.62 6.65 117.62 6.59 C 117.52 17.49 117.85 28.40 117.45 39.28 C 106.77 39.05 96.07 39.23 85.38 39.19 C 85.40 64.66 85.34 90.13 85.41 115.61 C 69.95 115.66 54.50 115.58 39.04 115.65 C 38.94 90.16 39.04 64.67 38.99 39.18 C 28.20 39.18 17.41 39.17 6.63 39.18 C 6.61 28.32 6.63 17.47 6.61 6.61 Z" />
<path fill="#1b69b2" opacity="1.00" d=" M 149.13 6.61 C 165.18 6.62 181.23 6.63 197.28 6.61 C 212.19 42.97 227.18 79.30 242.00 115.70 C 227.06 115.54 212.11 115.63 197.16 115.65 C 189.21 94.30 181.47 72.87 173.54 51.51 C 165.46 72.74 158.06 94.24 150.29 115.60 C 135.50 115.67 120.71 115.58 105.92 115.64 C 120.17 79.24 134.77 42.97 149.13 6.61 Z" />
<path fill="#1b69b2" opacity="1.00" d=" M 231.53 39.26 C 231.17 28.38 231.47 17.48 231.38 6.59 C 268.32 6.66 305.25 6.60 342.18 6.62 C 342.17 17.47 342.18 28.32 342.17 39.17 C 331.66 39.18 321.16 39.18 310.65 39.17 C 310.60 64.66 310.62 90.15 310.64 115.64 C 295.21 115.61 279.79 115.61 264.36 115.64 C 264.36 90.14 264.45 64.64 264.31 39.15 C 253.38 39.27 242.45 39.05 231.53 39.26 Z" />
<path fill="#1b69b2" opacity="1.00" d=" M 330.50 115.57 C 345.07 79.30 359.37 42.92 373.86 6.63 C 389.90 6.61 405.93 6.62 421.96 6.62 C 436.97 42.92 451.77 79.30 466.74 115.61 C 451.74 115.57 436.73 115.75 421.74 115.53 C 414.01 94.16 406.07 72.88 398.29 51.53 C 397.87 52.28 397.50 53.06 397.19 53.86 C 389.78 74.45 382.40 95.05 374.94 115.62 C 360.12 115.59 345.31 115.70 330.50 115.57 Z" />
<path fill="#1b69b2" opacity="1.00" d=" M 515.00 8.00 C 530.99 8.08 547.01 7.59 562.96 8.96 C 572.07 9.87 579.51 16.96 582.76 25.23 C 585.92 33.59 586.09 42.89 584.20 51.56 C 581.97 60.77 575.41 69.64 565.91 72.10 C 555.35 74.69 544.39 73.86 533.63 74.01 C 533.63 87.33 533.61 100.65 533.64 113.97 C 527.42 114.03 521.21 113.99 515.00 114.00 C 515.00 78.67 515.00 43.33 515.00 8.00 M 533.63 26.18 C 533.61 36.12 533.63 46.06 533.63 55.99 C 540.29 56.00 546.97 56.10 553.61 55.55 C 557.66 55.25 561.51 53.15 563.74 49.72 C 566.29 46.09 566.30 41.42 565.76 37.19 C 564.76 32.05 560.53 27.25 555.12 26.76 C 548.00 25.74 540.79 26.33 533.63 26.18 Z" />
<path fill="#1b69b2" opacity="1.00" d=" M 691.29 8.00 C 697.62 8.00 703.95 8.00 710.28 8.00 C 714.98 31.95 719.10 56.04 724.12 79.91 C 729.71 55.95 735.20 31.96 740.81 8.00 C 748.17 8.00 755.53 8.00 762.89 8.00 C 768.15 32.41 773.55 56.79 778.83 81.20 C 783.94 56.89 788.26 32.39 793.03 8.01 C 799.26 8.00 805.50 7.98 811.73 8.03 C 804.31 43.37 796.92 78.72 789.31 114.01 C 782.81 114.01 776.32 113.95 769.82 114.05 C 763.42 87.84 757.68 61.46 751.34 35.23 C 745.33 61.49 739.33 87.76 733.21 114.00 C 726.51 114.00 719.81 114.00 713.12 114.00 C 705.97 78.64 698.36 43.37 691.29 8.00 Z" />
<path fill="#1b69b2" opacity="1.00" d=" M 821.00 8.00 C 843.79 8.00 866.58 7.99 889.38 8.01 C 889.38 14.07 889.38 20.12 889.38 26.18 C 872.81 26.16 856.24 26.20 839.67 26.16 C 839.57 33.89 839.63 41.63 839.64 49.36 C 855.08 49.38 870.52 49.40 885.96 49.35 C 886.04 55.29 885.99 61.23 885.99 67.17 C 870.54 67.18 855.09 67.17 839.64 67.18 C 839.61 76.73 839.61 86.28 839.64 95.83 C 856.76 95.82 873.88 95.82 890.99 95.83 C 891.00 101.88 891.00 107.94 891.00 114.00 C 867.66 114.00 844.33 114.00 821.00 114.00 C 821.00 78.67 821.00 43.33 821.00 8.00 Z" />
<path fill="#1b69b2" opacity="1.00" d=" M 906.62 8.01 C 919.40 7.99 932.18 8.00 944.96 8.00 C 953.01 8.74 961.67 7.93 968.99 11.99 C 976.95 16.69 981.28 26.08 981.57 35.10 C 982.12 43.61 980.39 52.92 974.13 59.14 C 969.86 63.73 963.83 66.00 957.84 67.29 C 968.61 74.19 974.03 86.18 980.03 96.95 C 983.13 102.63 986.14 108.36 989.30 114.01 C 981.90 113.99 974.49 114.01 967.09 114.00 C 959.20 101.18 952.37 87.68 943.72 75.35 C 939.58 69.32 931.66 69.63 925.18 69.63 C 925.17 84.42 925.19 99.20 925.17 113.99 C 918.99 114.00 912.80 114.00 906.62 113.99 C 906.62 78.66 906.62 43.34 906.62 8.01 M 925.18 26.18 C 925.17 35.06 925.17 43.94 925.18 52.82 C 934.80 52.59 944.53 53.46 954.08 51.93 C 961.42 50.43 963.92 41.39 962.03 34.96 C 961.11 29.89 956.12 26.42 951.13 26.39 C 942.48 25.95 933.83 26.28 925.18 26.18 Z" />
</g>
</svg>
