<?xml version="1.0" encoding="UTF-8" standalone="no"?>
<!-- Created with Inkscape (http://www.inkscape.org/) -->

<svg
   xmlns:dc="http://purl.org/dc/elements/1.1/"
   xmlns:cc="http://creativecommons.org/ns#"
   xmlns:rdf="http://www.w3.org/1999/02/22-rdf-syntax-ns#"
   xmlns:svg="http://www.w3.org/2000/svg"
   xmlns="http://www.w3.org/2000/svg"
   xmlns:xlink="http://www.w3.org/1999/xlink"
   xmlns:sodipodi="http://sodipodi.sourceforge.net/DTD/sodipodi-0.dtd"
   xmlns:inkscape="http://www.inkscape.org/namespaces/inkscape"
   width="317"
   height="324"
   id="svg2"
   version="1.1"
   inkscape:version="0.47 r22583">
  <g
     inkscape:label="Layer 1"
     inkscape:groupmode="layer"
     id="layer1"
     transform="translate(-209.06279,-358.68687)">
    <path
       id="path6109"
       d="m 244.50835,657.97792 c 0,15.63919 9.95221,24.70894 27.1112,24.70894 l 0,0 c 7.30483,0 12.94278,-1.27467 17.89437,-3.77498 l 0,0 0,-10.09929 c -5.04964,2.59837 -10.6876,4.80452 -17.25704,4.80452 l 0,0 c -8.38339,0 -14.26647,-4.36328 -14.85478,-12.06031 l 0,0 35.93582,0 c 0,-16.66873 -5.44185,-28.77808 -24.75796,-28.77808 l 0,0 c -16.12945,0 -24.07161,11.37396 -24.07161,25.1992 m 24.90504,-16.12945 c 7.54996,0 10.58955,5.1477 11.03078,11.17786 l 0,0 -23.04207,0 c 0.58831,-6.37334 4.46134,-11.17786 12.01129,-11.17786"
       clip-rule="nonzero"
       style="fill:#171200;fill-opacity:1" />
    <path
       id="path3315"
       d="m 302.30962,681.6083 13.53109,0 0,-69.51841 -13.53109,0 z"
       clip-rule="nonzero"
       style="fill:#171200;fill-opacity:1" />
    <path
       id="path3630"
       d="m 325.44974,657.97792 c 0,15.63919 10.00124,24.70894 27.16022,24.70894 l 0,0 c 7.2558,0 12.94278,-1.27467 17.84535,-3.77498 l 0,0 0,-10.09929 c -5.04965,2.59837 -10.6876,4.80452 -17.25704,4.80452 l 0,0 c -8.38339,0 -14.21745,-4.36328 -14.80575,-12.06031 l 0,0 35.93581,0 c 0,-16.66873 -5.44184,-28.77808 -24.75796,-28.77808 l 0,0 c -16.12945,0 -24.12063,11.37396 -24.12063,25.1992 m 24.95407,-16.12945 c 7.54995,0 10.58954,5.1477 10.98175,11.17786 l 0,0 -22.99304,0 c 0.5883,-6.37334 4.41231,-11.17786 12.01129,-11.17786"
       clip-rule="nonzero"
       style="fill:#171200;fill-opacity:1" />
    <path
       id="path4537"
       d="m 439.33638,657.97792 c 0,15.63919 10.00123,24.70894 27.16022,24.70894 l 0,0 c 7.2558,0 12.94278,-1.27467 17.84534,-3.77498 l 0,0 0,-10.09929 c -5.00061,2.59837 -10.68759,4.80452 -17.20801,4.80452 l 0,0 c -8.38339,0 -14.26647,-4.36328 -14.85478,-12.06031 l 0,0 35.93582,0 c 0,-16.66873 -5.44185,-28.77808 -24.75796,-28.77808 l 0,0 c -16.12945,0 -24.12063,11.37396 -24.12063,25.1992 m 24.95406,-16.12945 c 7.54996,0 10.58955,5.1477 10.98176,11.17786 l 0,0 -22.99305,0 c 0.58831,-6.37334 4.41232,-11.17786 12.01129,-11.17786"
       clip-rule="nonzero"
       style="fill:#171200;fill-opacity:1" />
    <path
       id="path3031"
       d="m 396.48794,640.3777 -0.1961,0 0,-6.52041 -12.7957,0 0,47.75101 13.53108,0 0,-23.38525 c 0,-6.12821 2.10811,-15.83529 11.91324,-15.83529 l 0,0 c 8.67754,0 8.72657,7.8441 8.72657,13.72719 l 0,0 0,25.49335 13.58011,0 0,-30.15079 c 0,-10.73663 -5.3438,-18.67879 -17.69827,-18.67879 l 0,0 c -7.05969,0 -12.7957,2.10811 -17.06093,7.59898"
       clip-rule="nonzero"
       style="fill:#171200;fill-opacity:1" />
    <path
       id="path4507"
       d="m 228.96721,612.08989 -13.53108,4.36329 0,16.27652 -6.37334,0 0,10.78565 6.37334,0 0,38.09295 13.53108,0 0,-38.09295 10.54052,0 2.15713,-10.78565 -12.69765,0 z"
       clip-rule="nonzero"
       style="fill:#171200;fill-opacity:1" />
    <path
       id="path3325"
       d="m 513.36514,612.08989 -13.53108,4.36329 0,16.27652 -6.37334,0 0,10.78565 6.37334,0 0,38.09295 13.53108,0 0,-38.09295 10.54052,0 2.15713,-10.78565 -12.69765,0 z"
       clip-rule="nonzero"
       style="fill:#171200;fill-opacity:1" />
    <path
       style="fill:#e51145;fill-rule:nonzero;stroke:none"
       d="m 452.9982,550.59536 -171.94938,0 0,-171.96572 171.94938,0 z m -191.90283,19.948 211.85083,0 0,-211.85628 -211.85083,0 z"
       id="path17495" />
    <path
       id="path17499"
       d="m 368.19849,531.01995 c 45.77364,0 63.62443,-36.29534 63.62443,-36.29534 l -17.2298,-11.31948 c 0,0 -14.11395,26.5828 -46.253,27.23103 -32.17173,0.63734 -48.88404,-27.43258 -48.88404,-27.43258 L 302.25351,494.839 c 0,0 20.1659,36.18095 65.94498,36.18095"
       style="fill:#e51145;fill-rule:nonzero;stroke:none" />
    <path
       id="path17503"
       d="m 336.48215,452.7935 c 10.82923,0 19.59393,-8.72657 19.59393,-19.53946 0,-10.80199 -8.7647,-19.58303 -19.59393,-19.58303 -10.78565,0 -19.59393,8.78104 -19.59393,19.58303 0,10.81289 8.80828,19.53946 19.59393,19.53946"
       style="fill:#e51145;fill-rule:nonzero;stroke:none" />
    <path
       style="fill:#e51145;fill-rule:nonzero;stroke:none"
       d="m 419.62806,424.49588 -39.24233,0 0,17.20801 39.24233,0 z"
       id="path17505" />
  </g>
</svg>
