<?xml version="1.0" encoding="UTF-8" standalone="no"?>
<!-- Generator: Adobe Illustrator 14.0.0, SVG Export Plug-In . SVG Version: 6.00 Build 43363)  -->

<svg
   xmlns:dc="http://purl.org/dc/elements/1.1/"
   xmlns:cc="http://creativecommons.org/ns#"
   xmlns:rdf="http://www.w3.org/1999/02/22-rdf-syntax-ns#"
   xmlns:svg="http://www.w3.org/2000/svg"
   xmlns="http://www.w3.org/2000/svg"
   xmlns:sodipodi="http://sodipodi.sourceforge.net/DTD/sodipodi-0.dtd"
   xmlns:inkscape="http://www.inkscape.org/namespaces/inkscape"
   version="1.1"
   id="Layer_1"
   x="0px"
   y="0px"
   width="868"
   height="170"
   viewBox="0 0 868 170"
   enable-background="new 0 0 595 841"
   xml:space="preserve">
<path
   style="fill:#0d539a;fill-rule:evenodd"
   clip-rule="evenodd"
   d="m 421.68439,131.15991 c -6.3497,19.04407 29.16123,28.88384 43.53506,14.51001 0.45391,-0.45391 3.63128,8.16534 6.35474,12.24549 -19.95693,13.15332 -75.28357,12.69941 -75.28357,-28.57114 0,-43.081147 76.64026,-51.246493 76.64026,1.8106 h -51.24649 z"
   id="path3" /><path
   style="fill:#0d539a;fill-rule:evenodd"
   clip-rule="evenodd"
   d="m 552.74348,131.15991 c -4.98798,21.76753 29.93287,26.30159 43.53505,14.51001 0.48922,-0.41861 3.63129,8.16534 6.35475,12.24549 -19.95693,13.15332 -75.28357,12.69941 -75.28357,-28.57114 0,-43.081147 76.64026,-51.246493 76.64026,1.8106 h -51.24649 z"
   id="path5" /><path
   style="fill:#0d539a;fill-rule:evenodd"
   clip-rule="evenodd"
   d="m 117.38785,0.09578269 c 0,0 -71.198385,-5.89579279 -110.6532932,74.82462131 C -7.3265812,103.6832 1.1060668,140.2583 27.594265,154.73804 134.62131,213.24206 291.07921,85.804169 272.93792,69.937476 268.34838,65.917846 195.84375,115.28313 105.59626,101.68095 112.84874,98.957486 149.58523,70.845296 136.43191,48.169946 128.49352,34.487067 105.14235,34.108808 94.712495,38.64287 80.943877,44.634488 62.510068,60.864309 68.405861,88.078764 68.890032,90.292839 44.212432,80.740545 52.988035,64.495593 74.301654,25.040685 117.38785,0.09578269 117.38785,0.09578269 z"
   id="path7" /><path
   style="fill:none;stroke:#034ea2;stroke-width:1.83026791;stroke-miterlimit:3.86360002"
   stroke-miterlimit="3.8636"
   d="M 26.232534,116.64486"
   id="path9" /><path
   style="fill:#ffffff;fill-rule:evenodd"
   clip-rule="evenodd"
   d="m 43.914869,107.12283 c 6.349703,93.41982 186.390771,8.1603 185.936861,-8.614211 C 75.209475,143.85428 43.672783,103.47642 43.914869,107.12283 z"
   id="path11" /><path
   style="fill:#ffffff;fill-rule:evenodd"
   clip-rule="evenodd"
   d="m 117.84176,45.446483 c -13.34497,-1.538252 -32.656342,29.478964 -9.98099,33.105205 12.91627,3.893543 33.55911,-30.381742 9.98099,-33.105205 z"
   id="path13" /><path
   style="fill:#cb373f;fill-rule:evenodd"
   clip-rule="evenodd"
   d="m 130.08221,3.2731561 c -10.85351,-3.72206599 81.17937,0 99.31057,17.6823349 1.62399,1.583643 -14.42931,6.203443 -11.79159,7.711435 29.48401,16.779557 50.17224,39.051432 43.99402,36.731445 C 243.45392,58.594757 215.31147,38.436088 155.92989,32.293166 142.78162,30.931435 173.16336,20.955491 175.88682,17.329251 177.8689,14.691526 145.95395,8.7099949 130.08221,3.2731561 z"
   id="path15" /><path
   style="fill:#ffffff;fill-rule:evenodd"
   clip-rule="evenodd"
   d="M 66.595262,27.305194 C 50.723526,44.084752 25.778623,74.920404 23.060204,115.28313 8.5451553,111.65689 15.056249,74.148756 28.955997,54.968517 51.626303,23.678954 67.987255,25.832507 66.595262,27.305194 z"
   id="path17" /><polygon
   style="fill:#0d539a;fill-rule:evenodd"
   clip-rule="evenodd"
   points="463.98,177.358 457.326,177.358 457.326,174.571 475.85,174.571 475.85,177.358 468.836,177.358 468.836,193.454 463.98,193.454 "
   id="polygon19"
   transform="matrix(5.0434498,0,0,5.0434498,-1986.4015,-810.95651)" /><path
   style="fill:#ffffff;fill-rule:evenodd"
   clip-rule="evenodd"
   d="m 438.46395,106.21501 c 6.80361,0 13.73331,6.42535 13.60218,14.05609 h -27.65828 c -0.13113,-7.75178 6.30431,-14.05609 14.0561,-14.05609 z"
   id="path21" /><polygon
   style="fill:#0d539a;fill-rule:evenodd"
   clip-rule="evenodd"
   points="490.775,174.661 495.271,174.571 495.271,193.364 490.775,193.364 "
   id="polygon23"
   transform="matrix(5.0434498,0,0,5.0434498,-1986.4015,-810.95651)" /><path
   style="fill:#0d539a;fill-rule:evenodd"
   clip-rule="evenodd"
   d="M 642.08315,164.71903 H 618.95388 V 94.423424 h 21.76753 c -0.11095,3.923804 -0.40347,12.280796 1.36174,9.975946 16.32564,-21.313621 53.51604,-11.337677 55.78559,6.80361 v 53.51605 h -22.67535 v -45.3507 c -2.26451,-21.767532 -32.65633,-14.96392 -32.65633,2.72346 -0.45391,17.22842 -0.45391,42.62724 -0.45391,42.62724 z"
   id="path25" /><path
   style="fill:#0d539a;fill-rule:evenodd"
   clip-rule="evenodd"
   d="m 752.73643,93.974557 c -58.0501,0.453911 -47.61521,71.198383 0.45391,71.198383 53.51605,0 56.68838,-71.64725 -0.45391,-71.198383 z"
   id="path27" /><path
   style="fill:#ffffff;fill-rule:evenodd"
   clip-rule="evenodd"
   d="m 754.55712,104.40441 c -27.66332,0 -24.04213,46.25348 -0.91287,46.25348 24.491,0.45391 22.67536,-46.25348 0.91287,-46.25348 z"
   id="path29" /><path
   style="fill:#0d539a;fill-rule:evenodd"
   clip-rule="evenodd"
   d="M 809.87872,164.71903 V 93.974557 h 24.48595 v 11.337673 c 3.63128,-20.410839 35.37476,-14.061136 33.55407,-5.89579 -1.11965,5.04849 -8.1603,13.15332 -9.97594,12.69941 -2.81929,-0.70609 -18.14129,-8.16535 -24.03708,11.33767 v 41.27055 h -24.027 z"
   id="path31" /><path
   style="fill:#ffffff;fill-rule:evenodd"
   clip-rule="evenodd"
   d="m 566.80461,106.21501 c 6.80362,0 13.72827,6.42535 13.60219,14.05609 h -27.66332 c -0.12105,-7.75178 6.30935,-14.05609 14.06113,-14.05609 z"
   id="path33" />
</svg>