<?xml version="1.0" encoding="UTF-8" standalone="no"?>
<!-- Generator: Adobe Illustrator 14.0.0, SVG Export Plug-In . SVG Version: 6.00 Build 43363)  -->

<svg
   xmlns:dc="http://purl.org/dc/elements/1.1/"
   xmlns:cc="http://creativecommons.org/ns#"
   xmlns:rdf="http://www.w3.org/1999/02/22-rdf-syntax-ns#"
   xmlns:svg="http://www.w3.org/2000/svg"
   xmlns="http://www.w3.org/2000/svg"
   xmlns:sodipodi="http://sodipodi.sourceforge.net/DTD/sodipodi-0.dtd"
   xmlns:inkscape="http://www.inkscape.org/namespaces/inkscape"
   version="1.1"
   id="Layer_1"
   x="0px"
   y="0px"
   width="737"
   height="160"
   viewBox="0 0 736.99999 160"
   enable-background="new 0 0 841.89 1190.551"
   xml:space="preserve">
<path
   style="fill:#0074bc"
   d="m 223.15928,84.854781 c -0.25696,-0.146597 -0.58639,-0.07906 -0.76428,0.156481 -21.03757,27.782698 -68.39515,46.306688 -117.84133,46.097498 -57.410218,0 -78.281419,-22.17905 -85.609647,-35.404117 -3.786827,-6.832432 -5.789777,-14.478562 -5.789777,-22.10822 0,-5.593766 1.064067,-10.8861 3.1642,-15.717229 0.116948,-0.273429 0.01318,-0.591331 -0.240486,-0.744517 C 15.82265,56.98149 15.494864,57.04573 15.310382,57.27798 11.71792,61.880153 2.9227001e-6,78.386372 2.9227001e-6,97.513228 2.9227001e-6,116.61867 9.718264,132.74769 28.103896,144.15429 44.568937,154.37494 66.69857,160 90.414422,160 c 25.997168,0 54.435438,-6.9395 78.031048,-19.03956 26.79605,-13.74228 45.80595,-32.8889 54.97241,-55.371024 0.10872,-0.273429 -0.002,-0.589685 -0.2586,-0.734635 z"
   id="path3" /><path
   style="fill:#f04e23"
   d="M 220.82031,26.704989 C 204.85436,7.3920042 167.2694,-8.4487614 109.66481,5.0151482 c -0.30307,0.069181 -0.49909,0.364023 -0.44967,0.6687481 0.0511,0.3063723 0.32778,0.5221506 0.6358,0.4941489 39.85311,-3.5661077 76.12199,5.4801108 97.0146,24.2050588 12.51185,11.208944 18.85837,25.175238 18.85837,41.510152 l -0.0511,1.459387 -0.0412,0.891115 c -0.0132,0.280017 0.17131,0.525445 0.4365,0.596273 0.27178,0.07247 0.55345,-0.0593 0.68028,-0.30802 3.23008,-6.343224 4.87066,-12.861048 4.87066,-19.367341 0,-10.072401 -3.73577,-19.9142 -10.7988,-28.459681 z"
   id="path5" /><path
   style="fill:#004694"
   d="m 45.433697,110.66747 c 0.248722,0.13836 0.560036,0.0774 0.742871,-0.14001 0.181188,-0.22072 0.17954,-0.54027 -0.0016,-0.75769 -5.499876,-6.53759 -8.062862,-15.575575 -8.062862,-28.441565 0,-20.383641 14.911766,-51.383246 56.932539,-71.6598216 C 95.319673,9.5366103 95.449799,9.2154136 95.34438,8.9288072 95.235667,8.643848 94.927648,8.4840732 94.631159,8.5664314 50.302711,20.638488 22.218583,42.908131 19.505706,68.139372 c -0.14495,1.337496 -0.219073,2.698053 -0.219073,4.038843 0,15.244493 9.530485,29.273375 26.147064,38.489255 z"
   id="path7" /><path
   style="fill:#0074bc"
   id="path11"
   d="M 110.01731,80.430502 C 106.39355,69.353331 92.143943,64.504083 78.207297,69.577345 64.287124,74.698375 55.936008,87.80485 59.546589,98.895198 63.188466,109.99708 77.426542,114.84303 91.369776,109.75165 105.28995,104.6438 113.65424,91.519202 110.01731,80.430502 z" /><path
   style="fill:#0074bc"
   id="path15"
   d="m 331.7765,72.573535 c 1.74928,0 1.78881,-3.70447 1.78881,-6.972441 0,-3.328916 -0.0412,-7.104214 -1.78881,-7.104214 0,0 -15.18685,0 -15.681,0 0,-0.495796 0,-19.207566 0,-19.207566 0,-1.722933 -3.38491,-1.750934 -8.16663,-1.750934 -4.62523,0 -8.16334,0.028 -8.16334,1.750934 0,0 0,18.710123 0,19.207566 -0.48262,0 -8.84362,0 -8.84362,0 -1.70975,0 -1.74928,3.279502 -1.74928,7.235987 0,3.60564 0.0231,6.840668 1.74928,6.840668 0,0 8.361,0 8.84362,0 0,0.502384 0,44.264205 0,44.264205 0,11.62897 4.47534,16.3728 15.4438,16.3728 h 16.59023 c 1.74434,0 1.75752,-3.2235 1.75752,-6.70889 0,-3.41292 -0.0297,-6.57218 -1.78058,-6.57218 h -12.81823 c -1.8267,0 -2.86277,-0.40191 -2.86277,-2.90889 0,0 0,-43.944661 0,-44.447045 0.49415,0 15.681,0 15.681,0 z" /><path
   style="fill:#0074bc"
   id="path17"
   d="m 376.26307,56.512049 c -15.83253,0 -31.85942,9.672141 -31.85942,28.154956 v 21.444415 c 0,17.95572 15.99724,28.68699 31.46246,28.68699 14.79317,0 24.71238,-5.1095 29.30796,-8.15346 1.4528,-0.96524 -0.2899,-4.13273 -1.8234,-6.92632 -1.59116,-2.89901 -3.3981,-6.18345 -4.92667,-5.39116 0,0 -11.55979,7.45176 -22.55789,7.45176 -8.19135,0 -14.60869,-6.3004 -14.60869,-14.34349 0,0 0,-4.60712 0,-5.06997 0.50403,0 46.07773,0 46.07773,0 V 84.405106 c 0,-17.988666 -11.03434,-27.893057 -31.07208,-27.893057 z m 14.60704,27.622922 c 0,0 0,4.747123 0,5.211623 -0.49909,0 -29.37715,0 -29.87294,0 0,-0.467794 0,-5.603648 0,-5.603648 0,-8.370882 6.33169,-14.211721 15.40262,-14.211721 7.97721,-0.0016 14.47032,6.547472 14.47032,14.603746 z" /><path
   style="fill:#0074bc"
   id="path19"
   d="m 491.5233,56.512049 c -15.83253,0 -31.85614,9.672141 -31.85614,28.154956 v 21.444415 c 0,17.95572 15.99066,28.68699 31.45587,28.68699 14.79482,0 24.71404,-5.1095 29.31127,-8.15346 1.4495,-0.96524 -0.29155,-4.13273 -1.82341,-6.92632 -1.59281,-2.89901 -3.3981,-6.18345 -4.92502,-5.39116 0,0 -11.56143,7.45176 -22.56119,7.45176 -8.19134,0 -14.60704,-6.3004 -14.60704,-14.34349 0,0 0,-4.60712 0,-5.06997 0.50568,0 46.07444,0 46.07444,0 V 84.405106 C 522.58879,66.41644 511.55938,56.512049 491.5233,56.512049 z m 14.60209,27.622922 c 0,0 0,4.747123 0,5.211623 -0.4925,0 -29.3755,0 -29.87294,0 0,-0.467794 0,-5.603648 0,-5.603648 0,-8.370882 6.33663,-14.211721 15.40262,-14.211721 7.97886,-0.0016 14.47032,6.547472 14.47032,14.603746 z" /><path
   style="fill:#0074bc"
   id="path21"
   d="m 449.47946,119.92947 h -7.39576 c -1.51539,0 -2.56134,-0.34591 -2.56134,-2.24179 V 36.525374 c 0,-1.729521 -3.48045,-1.754228 -8.14851,-1.754228 -4.66806,0 -8.17817,0.02471 -8.17817,1.754228 v 80.312366 c 0,11.62897 4.47535,16.3728 15.44545,16.3728 h 10.84163 c 1.87776,0 1.87776,-3.78188 1.87776,-6.70889 -0.002,-3.95649 -0.22731,-6.57218 -1.88106,-6.57218 z" /><path
   style="fill:#0074bc"
   id="path23"
   d="m 576.06558,56.512049 c -11.74921,0 -17.12226,5.555881 -19.41182,7.929442 l -0.40355,0.411791 c -0.0115,0.01647 -2.02272,2.363679 -2.45757,2.872652 0,-1.171133 0,-8.273699 0,-8.273699 0,-1.750934 -3.49528,-1.750934 -8.16498,-1.750934 -4.65324,0 -8.1617,0 -8.1617,1.750934 V 131.9867 c 0,1.72623 3.53811,1.74764 8.1617,1.74764 4.6697,0 8.15016,0 8.15016,-1.74764 V 86.240045 c 0,0 5.09632,-6.527706 5.71401,-7.347994 3.4541,-4.585701 7.69719,-7.114096 11.41319,-7.114096 10.51384,0 10.63408,10.20088 10.63408,10.637378 V 131.9867 c 0,1.73776 3.53811,1.74764 8.16828,1.74764 4.62359,0 8.16005,-0.005 8.16005,-1.74764 V 81.884946 c 0,-14.941414 -8.96551,-25.372897 -21.80185,-25.372897 z" /><path
   style="fill:#0074bc"
   id="path25"
   d="m 646.47026,56.512049 c -20.87779,0 -33.84425,10.887747 -33.84425,28.418502 v 21.579479 c 0,17.71524 12.40149,28.28838 33.18045,28.28838 21.20886,0 34.38123,-10.83998 34.38123,-28.28838 V 84.930551 c 0,-17.530755 -12.91705,-28.418502 -33.71743,-28.418502 z m -0.6638,65.267181 c -7.63625,0 -15.79794,-4.32215 -15.79794,-16.4601 V 85.992971 c 0,-12.152768 9.08575,-16.463394 16.85871,-16.463394 7.70213,0 15.9363,4.323803 15.9363,16.463394 v 19.326159 c 0,11.37366 -8.5323,16.4601 -16.99707,16.4601 z" /><path
   style="fill:#0074bc"
   id="path27"
   d="m 735.2161,57.437755 h -5.71565 c -8.17487,0 -12.47232,4.136026 -14.63998,7.601656 0.008,-0.01977 0.008,-0.01977 -1.9173,3.116433 0,0 -0.94712,1.546686 -1.49727,2.434506 0,-1.545038 0,-11.134821 0,-11.134821 0,-1.741051 -3.49364,-1.750934 -8.16005,-1.750934 -4.62853,0 -8.16993,0.02636 -8.16993,1.745993 v 72.541052 c 0,1.72623 3.5414,1.74764 8.16993,1.74764 4.62359,0 8.16005,-0.0362 8.16005,-1.74764 0,0 0,-42.430915 0,-42.602219 1.52362,-1.986479 6.44205,-8.367588 8.94903,-11.204002 2.07872,-2.403211 4.96126,-3.623759 8.57019,-3.623759 h 6.25098 c 1.78388,0 1.78388,-2.724407 1.78388,-8.692078 0,-5.616826 0,-8.431827 -1.78388,-8.431827 z" />
</svg>