<?xml version="1.0" encoding="UTF-8" standalone="no"?>
<svg
   xmlns:dc="http://purl.org/dc/elements/1.1/"
   xmlns:cc="http://creativecommons.org/ns#"
   xmlns:rdf="http://www.w3.org/1999/02/22-rdf-syntax-ns#"
   xmlns:svg="http://www.w3.org/2000/svg"
   xmlns="http://www.w3.org/2000/svg"
   xmlns:sodipodi="http://sodipodi.sourceforge.net/DTD/sodipodi-0.dtd"
   xmlns:inkscape="http://www.inkscape.org/namespaces/inkscape"
   version="1.1"
   id="Layer_1"
   x="0px"
   y="0px"
   width="743"
   height="211"
   viewBox="0 0 743 211"
   enable-background="new 0 0 788 1128"
   xml:space="preserve">
<rect
   style="fill:#0099da"
   x="-3.2095326e-05"
   y="169.41862"
   width="41.317192"
   height="41.581406"
   id="rect3"
   clip-path="none" /><rect
   x="168.38011"
   y="27.892462"
   width="48.296021"
   height="182.84795"
   id="rect5"
   clip-path="none" /><rect
   x="34.087936"
   y="27.892462"
   width="123.9698"
   height="41.581406"
   id="rect7"
   clip-path="none" /><rect
   x="73.600975"
   y="78.771683"
   width="48.296021"
   height="131.96902"
   id="rect9"
   clip-path="none" /><rect
   x="227.00769"
   y="27.892462"
   width="48.296021"
   height="41.581406"
   id="rect11"
   clip-path="none" /><rect
   x="227.00769"
   y="98.655823"
   width="48.296021"
   height="41.581406"
   id="rect13"
   clip-path="none" /><rect
   x="227.00769"
   y="169.41862"
   width="48.296021"
   height="41.321751"
   id="rect15"
   clip-path="none" /><rect
   x="295.9624"
   y="27.892462"
   width="48.300571"
   height="182.84795"
   id="rect17"
   clip-path="none" /><rect
   x="354.58527"
   y="169.41862"
   width="48.296021"
   height="41.321751"
   id="rect19"
   clip-path="none" /><rect
   x="417.5997"
   y="27.892462"
   width="48.296021"
   height="182.84795"
   id="rect21"
   clip-path="none" /><rect
   x="476.22284"
   y="27.892462"
   width="48.296021"
   height="41.581406"
   id="rect23"
   clip-path="none" /><rect
   x="476.22284"
   y="98.655823"
   width="48.296021"
   height="41.581406"
   id="rect25"
   clip-path="none" /><rect
   x="476.22284"
   y="169.41862"
   width="48.296021"
   height="41.321751"
   id="rect27"
   clip-path="none" /><path
   d="m 590.37579,83.417938 c -3.10221,0 -44.42395,0 -45.71312,0 0,-50.874356 29.70555,-83.15825372 66.37172,-83.15825372 0,5.68054462 0,40.54733572 0,42.61091772 -25.56473,7.489026 -20.6586,40.547336 -20.6586,40.547336"
   id="path29"
   clip-path="none" /><path
   d="m 613.35762,169.41874 c 17.30585,0 60.69118,0 74.64427,0 0,10.58668 0,35.89631 0,41.57685 -11.36564,0 -136.88427,0 -143.59432,0 0,-8.25888 0,-32.539 0,-40.02802 12.91447,-9.80771 97.10679,-65.59276 97.10679,-105.370234 0,-19.624528 -16.52688,-22.467078 -20.1484,-22.467078 0,-10.846332 0,-43.1302297348 0,-43.1302297348 55.00608,0 66.89103,41.8410607348 66.89103,60.6866207348 -0.005,56.304351 -51.65332,89.622321 -74.89937,108.732091"
   id="path31"
   clip-path="none" /><rect
   style="fill:#0099da"
   x="701.68158"
   y="169.41862"
   width="41.317192"
   height="41.581406"
   id="rect33"
   clip-path="none" />
</svg>