<?xml version="1.0" encoding="UTF-8" standalone="no"?>
<svg
   xmlns:dc="http://purl.org/dc/elements/1.1/"
   xmlns:cc="http://creativecommons.org/ns#"
   xmlns:rdf="http://www.w3.org/1999/02/22-rdf-syntax-ns#"
   xmlns:svg="http://www.w3.org/2000/svg"
   xmlns="http://www.w3.org/2000/svg"
   xmlns:sodipodi="http://sodipodi.sourceforge.net/DTD/sodipodi-0.dtd"
   xmlns:inkscape="http://www.inkscape.org/namespaces/inkscape"
   id="svg2"
   version="1.1"
   inkscape:version="0.47 r22583"
   width="670"
   height="259"
   xml:space="preserve"><g
     id="g12"
     inkscape:groupmode="layer"
     inkscape:label="Telia_Internet_ISDN_produktblad"
     transform="matrix(1.25,0,0,-1.25,-521.14712,307.77498)"><path
       d="m 528.69789,88.623721 38.54882,0 0,-14.423658 -38.54882,0 0,-8.314369 c 0,-7.563882 2.62248,-8.967881 18.66095,-8.967881 10.80615,0 21.01359,0.855891 27.99142,2.129187 0.44692,-3.339239 2.39903,-10.823014 3.76508,-13.968308 -9.24193,-2.453834 -21.11478,-3.933724 -34.61931,-3.933724 -26.16159,0 -35.6059,4.616751 -35.6059,21.70927 l 0,56.931502 64.46165,0 0,-15.93728 -44.5527,0 -0.10119,-15.224739"
       style="fill:#be1143;fill-opacity:1;fill-rule:nonzero;stroke:none"
       id="path26" /><path
       d="m 609.38352,74.242225 0,36.288925 c 0,6.2147 -3.56691,9.25459 -10.06831,9.25459 l -9.73523,0 0,-46.854757 c 0,-22.392297 9.41058,-31.701691 32.81898,-31.701691 15.16571,0 26.08992,1.850916 32.65456,4.75167 -1.59795,3.263347 -3.68075,11.514472 -4.09394,14.052631 -4.90767,-1.720214 -14.41101,-3.031456 -23.29878,-3.031456 -16.11436,0 -18.27728,7.171776 -18.27728,17.240088"
       style="fill:#be1143;fill-opacity:1;fill-rule:nonzero;stroke:none"
       id="path28" /><path
       d="m 427.88406,119.78574 c -7.14226,0 -10.96636,-3.90843 -10.96636,-10.77242 l 0,-5.80151 30.63499,0 0,-60.671277 19.88787,0 0,60.671277 17.25273,0 c 7.14226,0 10.96637,3.90843 10.96637,10.77242 l 0,5.80151 -67.7756,0"
       style="fill:#be1143;fill-opacity:1;fill-rule:nonzero;stroke:none"
       id="path30" /><path
       d="m 691.82731,57.77792 c 5.06789,0 8.05718,1.458809 13.99782,11.13923 4.10238,6.682695 7.7747,13.023876 11.26572,19.491544 3.34345,6.202046 6.49296,12.534796 10.0135,19.091006 4.42281,8.24269 10.3255,12.28604 18.25198,12.28604 7.03264,0 12.6402,-4.32162 17.18527,-13.92615 7.73254,-16.3336 16.59079,-33.565255 26.76873,-47.099293 6.95675,-9.258799 15.05609,-13.761713 22.09716,-16.219764 l 0,-1.311241 c -3.01881,-1.281728 -7.28561,-2.209295 -13.01123,-2.209295 -11.62831,0 -17.02927,3.520536 -24.55943,10.401393 -11.06333,10.110474 -15.93727,11.889715 -27.25358,11.889715 l -9.87859,0 1.10043,6.345398 c 0.81373,4.667346 4.38065,8.348098 10.49837,8.348098 l 8.63058,0 c -2.7827,5.329291 -6.83447,15.195225 -8.71069,19.778246 -1.00346,2.445403 -1.80454,3.195888 -3.44043,3.195888 -1.67805,0 -2.45383,-0.737837 -3.68075,-3.275996 C 739.3145,92.009338 734.42791,82.906538 725.79311,67.5258 713.98772,46.478475 705.15897,41.229292 691.00937,41.229292 c -16.24928,0 -27.58246,8.35653 -27.58246,25.474347 l 0,53.082101 9.82378,0 c 6.50139,0 10.06409,-3.03989 10.06409,-9.25459 l 0,-41.614 c 0,-8.592638 4.3174,-11.13923 8.51253,-11.13923"
       style="fill:#be1143;fill-opacity:1;fill-rule:nonzero;stroke:none"
       id="path32" /><path
       d="m 807.76047,117.03677 c 0.14335,-2.09968 -1.45038,-3.92108 -3.54584,-4.06443 -2.10388,-0.14757 -3.92107,1.43773 -4.06442,3.54162 -0.14757,2.10389 1.43773,3.92529 3.54161,4.06864 2.09546,0.14335 3.92108,-1.44194 4.06865,-3.54583"
       style="fill:#6f1a81;fill-opacity:1;fill-rule:nonzero;stroke:none"
       id="path34" /><path
       d="m 900.77852,129.23427 c 0.1054,-1.49676 -1.02454,-2.78692 -2.50865,-2.88811 -1.48832,-0.1054 -2.7827,1.02032 -2.8881,2.51708 -0.10119,1.49254 1.02875,2.7827 2.51708,2.8881 1.4841,0.10119 2.77848,-1.02032 2.87967,-2.51707"
       style="fill:#6f1a81;fill-opacity:1;fill-rule:nonzero;stroke:none"
       id="path36" /><path
       d="m 907.90391,143.04657 c 0.27406,-3.9801 -2.7321,-7.43318 -6.70799,-7.70723 -3.9801,-0.26984 -7.42475,2.7321 -7.70302,6.71221 -0.27405,3.98432 2.73633,7.42896 6.71221,7.70723 3.97589,0.27406 7.42475,-2.72789 7.6988,-6.71221"
       style="fill:#6f1a81;fill-opacity:1;fill-rule:nonzero;stroke:none"
       id="path38" /><path
       d="m 884.45335,102.41916 c 0.27405,-3.9801 -2.73632,-7.428961 -6.70799,-7.70723 -3.98011,-0.269838 -7.42475,2.736321 -7.70302,6.71221 -0.26984,3.98432 2.7321,7.43318 6.71221,7.71145 3.97588,0.26984 7.42474,-2.73211 7.6988,-6.71643"
       style="fill:#6f1a81;fill-opacity:1;fill-rule:nonzero;stroke:none"
       id="path40" /><path
       d="m 878.17963,192.57019 c 0.18551,-2.63092 -1.80454,-4.91189 -4.43546,-5.09318 -2.63513,-0.1813 -4.91188,1.80875 -5.09318,4.43967 -0.1813,2.63091 1.80454,4.9161 4.43545,5.0974 2.63514,0.18129 4.91189,-1.81298 5.09319,-4.44389"
       style="fill:#6f1a81;fill-opacity:1;fill-rule:nonzero;stroke:none"
       id="path42" /><path
       d="m 885.4821,185.84112 c 0.10119,-1.49254 -1.02032,-2.7827 -2.51286,-2.88811 -1.49254,-0.10119 -2.7827,1.02454 -2.88389,2.51708 -0.10119,1.48832 1.02033,2.7827 2.51287,2.88389 1.49253,0.1054 2.77848,-1.02454 2.88388,-2.51286"
       style="fill:#6f1a81;fill-opacity:1;fill-rule:nonzero;stroke:none"
       id="path44" /><path
       d="m 835.53265,195.97267 c 0.21503,-3.20432 -2.18821,-5.97859 -5.39253,-6.20204 -3.20854,-0.21503 -5.97437,2.20086 -6.19362,5.40518 -0.22346,3.20432 2.19243,5.97858 5.39254,6.20626 3.20432,0.21503 5.97015,-2.20929 6.19361,-5.4094"
       style="fill:#6f1a81;fill-opacity:1;fill-rule:nonzero;stroke:none"
       id="path46" /><path
       d="m 821.51797,189.68208 c 0.13913,-2.03221 -1.38714,-3.7988 -3.42778,-3.94215 -2.03643,-0.13492 -3.79881,1.39978 -3.94216,3.43621 -0.13492,2.03643 1.39978,3.80302 3.43199,3.94216 2.03643,0.14335 3.79459,-1.39979 3.93795,-3.43622"
       style="fill:#6f1a81;fill-opacity:1;fill-rule:nonzero;stroke:none"
       id="path48" /><path
       d="m 813.40598,181.1822 c 0.19816,-2.87124 -1.96898,-5.36302 -4.84022,-5.55696 -2.87124,-0.20238 -5.3588,1.96897 -5.55275,4.83599 -0.19816,2.87967 1.96476,5.37567 4.836,5.56962 2.87545,0.19394 5.3588,-1.97741 5.55697,-4.84865"
       style="fill:#6f1a81;fill-opacity:1;fill-rule:nonzero;stroke:none"
       id="path50" /><path
       d="m 847.55307,198.88607 c 0.16021,-2.34421 -1.61059,-4.37642 -3.95059,-4.53242 -2.33578,-0.16444 -4.37221,1.60216 -4.52821,3.95059 -0.16022,2.33999 1.59794,4.37221 3.94216,4.53242 2.34421,0.16022 4.37642,-1.61059 4.53664,-3.95059"
       style="fill:#6f1a81;fill-opacity:1;fill-rule:nonzero;stroke:none"
       id="path52" /><path
       d="m 801.49518,139.93079 c 0.22767,-3.30129 -2.26832,-6.15566 -5.55697,-6.38756 -3.29707,-0.22346 -6.15567,2.26411 -6.37912,5.5654 -0.2319,3.3013 2.25988,6.15567 5.55275,6.38335 3.30129,0.22346 6.15566,-2.25989 6.38334,-5.56119"
       style="fill:#6f1a81;fill-opacity:1;fill-rule:nonzero;stroke:none"
       id="path54" /><path
       d="m 850.62247,93.430201 c 0.12649,-1.808754 -1.24378,-3.377185 -3.04832,-3.495239 -1.80875,-0.126486 -3.37297,1.231134 -3.49946,3.044105 -0.12227,1.812971 1.23957,3.377185 3.04833,3.503671 1.80453,0.12227 3.37718,-1.243782 3.49945,-3.052537"
       style="fill:#6f1a81;fill-opacity:1;fill-rule:nonzero;stroke:none"
       id="path56" /><path
       d="m 865.91467,95.028145 c 0.19394,-2.850158 -1.95211,-5.312426 -4.79805,-5.506371 -2.84594,-0.193946 -5.30821,1.947889 -5.51059,4.793832 -0.18973,2.854375 1.95632,5.316642 4.80227,5.514804 2.84594,0.19816 5.30821,-1.956322 5.50637,-4.802265"
       style="fill:#6f1a81;fill-opacity:1;fill-rule:nonzero;stroke:none"
       id="path58" /><path
       d="m 891.21615,111.70748 c 0.12227,-1.76238 -1.20584,-3.28865 -2.96821,-3.4067 -1.76238,-0.12227 -3.28865,1.20583 -3.41092,2.96821 -0.12227,1.76238 1.21006,3.29286 2.97243,3.41092 1.75816,0.12227 3.28443,-1.21006 3.4067,-2.97243"
       style="fill:#6f1a81;fill-opacity:1;fill-rule:nonzero;stroke:none"
       id="path60" /><path
       d="m 902.68003,156.73239 c 0.1054,-1.4841 -1.02032,-2.77848 -2.51286,-2.88388 -1.48833,-0.10119 -2.77849,1.02875 -2.88389,2.51707 -0.10119,1.49254 1.02032,2.7827 2.51286,2.88389 1.48832,0.10541 2.7827,-1.02032 2.88389,-2.51708"
       style="fill:#6f1a81;fill-opacity:1;fill-rule:nonzero;stroke:none"
       id="path62" /><path
       d="m 900.20511,166.04601 c 0.13071,-1.85514 -1.27329,-3.46151 -3.13264,-3.59222 -1.85935,-0.1307 -3.46573,1.2733 -3.59643,3.13265 -0.12649,1.85935 1.2733,3.47416 3.13686,3.60064 1.85513,0.1307 3.46573,-1.27329 3.59221,-3.14107"
       style="fill:#6f1a81;fill-opacity:1;fill-rule:nonzero;stroke:none"
       id="path64" /><path
       d="m 822.92196,102.0397 c 0.14757,-2.124966 -1.45459,-3.971666 -3.57956,-4.115018 -2.12497,-0.147567 -3.97167,1.458809 -4.11502,3.583778 -0.14335,2.12919 1.45459,3.97167 3.58378,4.11924 2.12497,0.14335 3.96745,-1.45881 4.1108,-3.588"
       style="fill:#6f1a81;fill-opacity:1;fill-rule:nonzero;stroke:none"
       id="path66" /><path
       d="m 865.66591,198.19461 c 0.26562,-3.88734 -2.66464,-7.25609 -6.55621,-7.53015 -3.87469,-0.2614 -7.24345,2.67308 -7.5175,6.56464 -0.26141,3.88735 2.67308,7.26032 6.55621,7.52172 3.88734,0.27406 7.24766,-2.66043 7.5175,-6.55621"
       style="fill:#6f1a81;fill-opacity:1;fill-rule:nonzero;stroke:none"
       id="path68" /><path
       d="m 896.09009,177.11356 c 0.18973,-2.90919 -1.99848,-5.42205 -4.89924,-5.62443 -2.90075,-0.20237 -5.42204,1.99427 -5.62442,4.89924 -0.19816,2.90497 1.99848,5.42626 4.89924,5.62864 2.90075,0.19816 5.41783,-1.99848 5.62442,-4.90345"
       style="fill:#6f1a81;fill-opacity:1;fill-rule:nonzero;stroke:none"
       id="path70" /><path
       d="m 804.39593,170.77238 c 0.12227,-1.78768 -1.22692,-3.33924 -3.01459,-3.46151 -1.78767,-0.12227 -3.34345,1.23113 -3.46151,3.01881 -0.12227,1.78767 1.22692,3.33923 3.01459,3.46572 1.79189,0.12227 3.33503,-1.23113 3.46151,-3.02302"
       style="fill:#6f1a81;fill-opacity:1;fill-rule:nonzero;stroke:none"
       id="path72" /><path
       d="m 798.16016,152.32224 c 0.097,-1.48832 -1.02876,-2.7827 -2.50865,-2.88389 -1.49675,-0.10119 -2.78692,1.02032 -2.8881,2.51286 -0.10541,1.49254 1.02875,2.78692 2.51286,2.88811 1.48832,0.1054 2.7827,-1.01611 2.88389,-2.51708"
       style="fill:#6f1a81;fill-opacity:1;fill-rule:nonzero;stroke:none"
       id="path74" /><path
       d="m 802.06437,126.86476 c 0.12648,-1.86779 -1.29438,-3.49103 -3.15373,-3.62173 -1.86778,-0.1307 -3.49102,1.28173 -3.61329,3.15373 -0.13492,1.87621 1.28173,3.49523 3.14951,3.62172 1.86356,0.12649 3.48259,-1.27329 3.61751,-3.15372"
       style="fill:#6f1a81;fill-opacity:1;fill-rule:nonzero;stroke:none"
       id="path76" /><path
       d="m 831.09298,97.11517 c 0.10119,-1.488323 -1.01611,-2.782699 -2.50865,-2.883889 -1.49253,-0.101189 -2.78269,1.02454 -2.8881,2.512862 -0.1054,1.496755 1.02032,2.786916 2.50865,2.888105 1.49675,0.105405 2.79113,-1.024539 2.8881,-2.517078"
       style="fill:#6f1a81;fill-opacity:1;fill-rule:nonzero;stroke:none"
       id="path78" /><path
       d="m 813.76014,108.7224 c 0.11383,-1.6654 -1.1426,-3.10735 -2.80378,-3.22119 -1.66541,-0.11383 -3.10313,1.14681 -3.21697,2.80378 -0.12227,1.66962 1.13837,3.11157 2.80378,3.22541 1.65697,0.11383 3.10313,-1.1426 3.21697,-2.808"
       style="fill:#6f1a81;fill-opacity:1;fill-rule:nonzero;stroke:none"
       id="path80" /><path
       d="m 872.4498,239.08343 c 0.14335,-2.0027 -1.37027,-3.73978 -3.37297,-3.87891 -2.00692,-0.13914 -3.744,1.3787 -3.87892,3.3814 -0.13913,2.00691 1.37449,3.73978 3.3814,3.88313 1.99849,0.13492 3.73135,-1.3787 3.87049,-3.38562"
       style="fill:#fabe76;fill-opacity:1;fill-rule:nonzero;stroke:none"
       id="path82" /><path
       d="m 900.27257,80.064812 c 0.18973,-2.786915 -1.91416,-5.202804 -4.68842,-5.39675 -2.78692,-0.18973 -5.19438,1.909944 -5.38411,4.701075 -0.18973,2.7827 1.90573,5.194372 4.68843,5.384102 2.7827,0.198162 5.19437,-1.905727 5.3841,-4.688427"
       style="fill:#f68712;fill-opacity:1;fill-rule:nonzero;stroke:none"
       id="path84" /><path
       d="m 872.23055,67.087314 c 0.156,-2.356862 -1.61902,-4.397508 -3.96324,-4.557724 -2.35686,-0.164432 -4.3975,1.619025 -4.55772,3.971671 -0.16443,2.352646 1.61481,4.397508 3.96745,4.557724 2.34843,0.168649 4.38908,-1.619025 4.55351,-3.971671"
       style="fill:#f68712;fill-opacity:1;fill-rule:nonzero;stroke:none"
       id="path86" /><path
       d="m 846.37253,83.530538 c 0.19816,-2.7827 -1.90573,-5.194372 -4.68421,-5.388318 -2.7827,-0.193946 -5.19859,1.909944 -5.38832,4.696859 -0.18973,2.782699 1.91838,5.194372 4.69264,5.384102 2.7827,0.189729 5.19438,-1.909944 5.37989,-4.692643"
       style="fill:#f68712;fill-opacity:1;fill-rule:nonzero;stroke:none"
       id="path88" /><path
       d="m 848.37945,118.12877 c 0.20237,-3.00195 -2.06173,-5.59913 -5.05524,-5.80573 -2.98929,-0.20237 -5.58648,2.05751 -5.79308,5.05946 -0.20659,2.99772 2.06173,5.59069 5.04259,5.8015 2.99773,0.20238 5.59913,-2.05751 5.80573,-5.05523"
       style="fill:#f68712;fill-opacity:1;fill-rule:nonzero;stroke:none"
       id="path90" /><path
       d="m 889.80372,128.66508 c 0.24876,-3.60486 -2.47913,-6.72486 -6.07556,-6.97783 -3.60064,-0.24454 -6.72907,2.47913 -6.97361,6.07977 -0.24876,3.60487 2.4707,6.73329 6.07134,6.98205 3.60486,0.24454 6.72486,-2.47492 6.97783,-6.08399"
       style="fill:#f68712;fill-opacity:1;fill-rule:nonzero;stroke:none"
       id="path92" /><path
       d="m 889.80372,70.224175 c 0.26562,-3.874698 -2.65621,-7.226585 -6.52669,-7.496423 -3.87049,-0.265621 -7.22237,2.651997 -7.488,6.530911 -0.26983,3.870482 2.64779,7.226586 6.52248,7.496423 3.87048,0.269838 7.22659,-2.656213 7.49221,-6.530911"
       style="fill:#f68712;fill-opacity:1;fill-rule:nonzero;stroke:none"
       id="path94" /><path
       d="m 873.27196,131.65015 c 0.16021,-2.38215 -1.64011,-4.45231 -4.0307,-4.62096 -2.37794,-0.16865 -4.4481,1.64432 -4.61675,4.02648 -0.156,2.39059 1.64854,4.46075 4.02226,4.62518 2.39059,0.16022 4.46075,-1.6401 4.62519,-4.0307"
       style="fill:#f68712;fill-opacity:1;fill-rule:nonzero;stroke:none"
       id="path96" /><path
       d="m 897.25798,120.12725 c 0.11384,-1.78346 -1.21848,-3.32237 -2.99351,-3.44464 -1.77924,-0.12227 -3.32237,1.21848 -3.44464,3.00194 -0.11806,1.77502 1.2227,3.31816 3.00194,3.44464 1.77081,0.11806 3.30973,-1.23113 3.43621,-3.00194"
       style="fill:#f68712;fill-opacity:1;fill-rule:nonzero;stroke:none"
       id="path98" /><path
       d="m 901.78619,111.59785 c 0.10541,-1.4841 -1.0161,-2.78269 -2.50864,-2.88388 -1.49254,-0.10541 -2.78692,1.02454 -2.89232,2.51707 -0.097,1.48833 1.02875,2.7827 2.51707,2.88389 1.48833,0.10119 2.7827,-1.02875 2.88389,-2.51708"
       style="fill:#f68712;fill-opacity:1;fill-rule:nonzero;stroke:none"
       id="path100" /><path
       d="m 904.78813,102.22943 c 0.12649,-1.80453 -1.23535,-3.372965 -3.03988,-3.486803 -1.80454,-0.126486 -3.36876,1.239566 -3.48681,3.039893 -0.12649,1.80875 1.23535,3.36875 3.0441,3.49102 1.80033,0.12227 3.36454,-1.23535 3.48259,-3.04411"
       style="fill:#f68712;fill-opacity:1;fill-rule:nonzero;stroke:none"
       id="path102" /><path
       d="m 860.19327,69.435744 c 0.10962,-1.492539 -1.01611,-2.778483 -2.50865,-2.888105 -1.49253,-0.09697 -2.7827,1.02454 -2.8881,2.517078 -0.10119,1.496755 1.02454,2.7827 2.51708,2.888105 1.49254,0.101189 2.7827,-1.020323 2.87967,-2.517078"
       style="fill:#f68712;fill-opacity:1;fill-rule:nonzero;stroke:none"
       id="path104" /><path
       d="m 852.11079,74.284387 c 0.10962,-1.640106 -1.12573,-3.056753 -2.76583,-3.170591 -1.64011,-0.113838 -3.05675,1.117296 -3.17059,2.761618 -0.10962,1.648539 1.12994,3.065186 2.76162,3.179023 1.6401,0.109622 3.06097,-1.129944 3.1748,-2.77005"
       style="fill:#f68712;fill-opacity:1;fill-rule:nonzero;stroke:none"
       id="path106" /><path
       d="m 840.1494,94.429443 c 0.097,-1.496755 -1.02875,-2.782699 -2.51286,-2.888104 -1.48832,-0.101189 -2.77848,1.020323 -2.88389,2.512862 -0.10119,1.492538 1.02454,2.786915 2.51708,2.888104 1.48411,0.105405 2.77427,-1.020323 2.87967,-2.512862"
       style="fill:#f68712;fill-opacity:1;fill-rule:nonzero;stroke:none"
       id="path108" /><path
       d="m 841.92021,105.48435 c 0.16022,-2.36108 -1.61902,-4.39751 -3.97589,-4.56194 -2.35686,-0.16022 -4.39329,1.61059 -4.54929,3.96745 -0.16865,2.36951 1.60638,4.3933 3.96324,4.56194 2.36108,0.16444 4.40594,-1.61059 4.56194,-3.96745"
       style="fill:#f68712;fill-opacity:1;fill-rule:nonzero;stroke:none"
       id="path110" /><path
       d="m 873.93812,149.4763 c 0.156,-2.23038 -1.52627,-4.15719 -3.75243,-4.31319 -2.22616,-0.15178 -4.15297,1.53049 -4.30475,3.75665 -0.156,2.22616 1.52205,4.15718 3.75243,4.30896 2.22616,0.156 4.15718,-1.52627 4.30475,-3.75242"
       style="fill:#f68712;fill-opacity:1;fill-rule:nonzero;stroke:none"
       id="path112" /><path
       d="m 820.20251,147.17003 c 0.22767,-3.39405 -2.32735,-6.33697 -5.71718,-6.56464 -3.38562,-0.23189 -6.33275,2.32313 -6.56043,5.7214 -0.23611,3.38561 2.32735,6.32853 5.70875,6.56042 3.38983,0.23611 6.33275,-2.32735 6.56886,-5.71718"
       style="fill:#f68712;fill-opacity:1;fill-rule:nonzero;stroke:none"
       id="path114" /><path
       d="m 799.98156,161.4925 c 0.10962,-1.49254 -1.02032,-2.78692 -2.50865,-2.88811 -1.48832,-0.097 -2.7827,1.02454 -2.88389,2.51708 -0.1054,1.49254 1.02454,2.7827 2.51287,2.88389 1.48832,0.10119 2.77848,-1.02032 2.87967,-2.51286"
       style="fill:#f68712;fill-opacity:1;fill-rule:nonzero;stroke:none"
       id="path116" /><path
       d="m 794.9474,169.5286 c 0.10119,-1.49676 -1.02454,-2.7827 -2.51286,-2.88389 -1.48832,-0.10541 -2.7827,1.02032 -2.88389,2.50864 -0.097,1.50097 1.02033,2.78692 2.50865,2.88811 1.49254,0.1054 2.7827,-1.01611 2.8881,-2.51286"
       style="fill:#f68712;fill-opacity:1;fill-rule:nonzero;stroke:none"
       id="path118" /><path
       d="m 893.77961,212.496 c 0.12648,-1.9521 -1.35341,-3.65124 -3.3013,-3.78615 -1.96053,-0.13071 -3.64702,1.34918 -3.78194,3.29707 -0.13913,1.96054 1.34076,3.65546 3.28865,3.78616 1.95632,0.13913 3.65967,-1.33654 3.79459,-3.29708"
       style="fill:#f68712;fill-opacity:1;fill-rule:nonzero;stroke:none"
       id="path120" /><path
       d="m 895.9889,188.6196 c 0.10119,-1.49254 -1.02454,-2.7827 -2.51708,-2.88811 -1.4841,-0.10118 -2.7827,1.02876 -2.88388,2.51708 -0.097,1.49676 1.02875,2.7827 2.51707,2.88389 1.49254,0.10119 2.77849,-1.01189 2.88389,-2.51286"
       style="fill:#f68712;fill-opacity:1;fill-rule:nonzero;stroke:none"
       id="path122" /><path
       d="m 888.54729,166.14298 c 0.097,-1.49254 -1.02454,-2.7827 -2.51286,-2.88811 -1.48833,-0.10119 -2.7827,1.02454 -2.88389,2.51708 -0.10119,1.49254 1.02454,2.7827 2.51708,2.88389 1.48832,0.10119 2.77005,-1.02032 2.87967,-2.51286"
       style="fill:#f68712;fill-opacity:1;fill-rule:nonzero;stroke:none"
       id="path124" /><path
       d="m 806.4155,154.62851 c 0.097,-1.49254 -1.02454,-2.78692 -2.51286,-2.88811 -1.49254,-0.1054 -2.7827,1.02454 -2.88389,2.51286 -0.10541,1.48833 1.0161,2.78692 2.51286,2.88811 1.48832,0.097 2.77848,-1.02454 2.88389,-2.51286"
       style="fill:#f68712;fill-opacity:1;fill-rule:nonzero;stroke:none"
       id="path126" /><path
       d="m 828.7319,142.07685 c 0.10119,-1.49254 -1.02032,-2.77849 -2.51286,-2.88389 -1.48832,-0.10119 -2.7827,1.02032 -2.88389,2.51286 -0.1054,1.49675 1.02033,2.78691 2.50865,2.8881 1.49254,0.10119 2.7827,-1.0161 2.8881,-2.51707"
       style="fill:#f68712;fill-opacity:1;fill-rule:nonzero;stroke:none"
       id="path128" /><path
       d="m 853.26182,141.17879 c 0.13492,-1.93102 -1.32811,-3.60486 -3.26757,-3.74399 -1.93524,-0.13071 -3.6175,1.3281 -3.75242,3.26334 -0.13071,1.95633 1.33232,3.62173 3.26756,3.76086 1.94367,0.13071 3.62173,-1.31967 3.75243,-3.28021"
       style="fill:#f68712;fill-opacity:1;fill-rule:nonzero;stroke:none"
       id="path130" /><path
       d="m 862.41521,243.69175 c 0.10962,-1.49254 -1.0161,-2.77848 -2.51708,-2.88389 -1.49253,-0.10119 -2.78269,1.02032 -2.87967,2.51286 -0.10962,1.49254 1.02033,2.78692 2.51708,2.88811 1.49676,0.1054 2.7827,-1.02033 2.87967,-2.51708"
       style="fill:#fcd09b;fill-opacity:1;fill-rule:nonzero;stroke:none"
       id="path132" /><path
       d="m 883.80827,157.45758 c 0.16443,-2.39902 -1.65276,-4.47761 -4.04335,-4.64205 -2.39902,-0.16443 -4.4734,1.64433 -4.63783,4.04335 -0.16443,2.40324 1.64432,4.48183 4.03913,4.64627 2.39481,0.16443 4.47762,-1.64854 4.64205,-4.04757"
       style="fill:#f68712;fill-opacity:1;fill-rule:nonzero;stroke:none"
       id="path134" /><path
       d="m 863.28375,144.16809 c 0.11806,-1.77081 -1.21848,-3.30551 -2.98929,-3.42778 -1.77503,-0.11806 -3.30551,1.21848 -3.432,2.99351 -0.12227,1.77924 1.21427,3.31394 2.9893,3.43199 1.76659,0.12649 3.30551,-1.21005 3.43199,-2.99772"
       style="fill:#f68712;fill-opacity:1;fill-rule:nonzero;stroke:none"
       id="path136" /><path
       d="m 842.09308,140.43674 c 0.18129,-2.60562 -1.78768,-4.86551 -4.3933,-5.04259 -2.61405,-0.17708 -4.86129,1.78767 -5.0468,4.39751 -0.18551,2.61827 1.77924,4.87815 4.39329,5.05524 2.6014,0.18129 4.86551,-1.78346 5.04681,-4.41016"
       style="fill:#f68712;fill-opacity:1;fill-rule:nonzero;stroke:none"
       id="path138" /><path
       d="m 883.03249,231.36776 c 0.17286,-2.58032 -1.77081,-4.81491 -4.33849,-4.98777 -2.57188,-0.17708 -4.80648,1.76659 -4.97934,4.34269 -0.1813,2.57611 1.76659,4.8107 4.33426,4.98356 2.57189,0.1813 4.80227,-1.7708 4.98357,-4.33848"
       style="fill:#f68712;fill-opacity:1;fill-rule:nonzero;stroke:none"
       id="path140" /><path
       d="m 897.93258,200.1678 c 0.18129,-2.6267 -1.80454,-4.90345 -4.43546,-5.08897 -2.62248,-0.17708 -4.89924,1.80876 -5.08053,4.43546 -0.1813,2.63091 1.80454,4.91188 4.43123,5.09318 2.6267,0.1813 4.90346,-1.80454 5.08476,-4.43967"
       style="fill:#f68712;fill-opacity:1;fill-rule:nonzero;stroke:none"
       id="path142" /><path
       d="m 861.19251,128.30248 c 0.24876,-3.54161 -2.42854,-6.61945 -5.97859,-6.86399 -3.54161,-0.24032 -6.61523,2.43276 -6.85555,5.98702 -0.24455,3.54162 2.42432,6.62367 5.97437,6.86399 3.54583,0.24454 6.61945,-2.43697 6.85977,-5.98702"
       style="fill:#009ddb;fill-opacity:1;fill-rule:nonzero;stroke:none"
       id="path144" /><path
       d="m 869.8231,110.72932 c 0.1054,-1.48411 -1.01189,-2.7827 -2.50865,-2.88389 -1.49254,-0.10541 -2.7827,1.02454 -2.8881,2.51708 -0.097,1.4841 1.02875,2.77848 2.51286,2.88388 1.49254,0.10119 2.7827,-1.02875 2.88389,-2.51707"
       style="fill:#009ddb;fill-opacity:1;fill-rule:nonzero;stroke:none"
       id="path146" /><path
       d="m 864.11856,117.3825 c 0.10541,-1.48411 -1.01189,-2.7827 -2.50864,-2.88811 -1.48833,-0.10119 -2.7827,1.02454 -2.88811,2.51708 -0.097,1.48832 1.02876,2.7827 2.51708,2.88389 1.48832,0.10119 2.77848,-1.02454 2.87967,-2.51286"
       style="fill:#009ddb;fill-opacity:1;fill-rule:nonzero;stroke:none"
       id="path148" /><path
       d="m 888.55994,222.13848 c 0.11805,-1.68227 -1.14681,-3.15373 -2.84173,-3.27178 -1.68648,-0.11806 -3.15372,1.16367 -3.27178,2.85437 -0.10962,1.68227 1.16368,3.14951 2.85016,3.26335 1.68648,0.11805 3.14951,-1.15946 3.26335,-2.84594"
       style="fill:#009ddb;fill-opacity:1;fill-rule:nonzero;stroke:none"
       id="path150" /><path
       d="m 880.17811,217.69881 c 0.0759,-1.13416 -0.77157,-2.12497 -1.91416,-2.20508 -1.13416,-0.0801 -2.12497,0.78421 -2.20508,1.92259 -0.0759,1.13416 0.78,2.12076 1.91838,2.19665 1.13416,0.0801 2.12075,-0.78 2.20086,-1.91416"
       style="fill:#009ddb;fill-opacity:1;fill-rule:nonzero;stroke:none"
       id="path152" /><path
       d="m 874.86147,211.02033 c 0.20659,-2.964 -2.01957,-5.55275 -5.00043,-5.75513 -2.97243,-0.21081 -5.54853,2.04486 -5.75934,5.01729 -0.18973,2.964 2.04908,5.5401 5.01307,5.7467 2.97243,0.20238 5.54432,-2.04486 5.7467,-5.00886"
       style="fill:#009ddb;fill-opacity:1;fill-rule:nonzero;stroke:none"
       id="path154" /><path
       d="m 904.23159,91.541339 c 0.13071,-1.931025 -1.3281,-3.613293 -3.26334,-3.748212 -1.93946,-0.130702 -3.61751,1.328107 -3.75243,3.27178 -0.1307,1.939457 1.33232,3.625941 3.276,3.752428 1.93524,0.134919 3.60486,-1.332323 3.73977,-3.275996"
       style="fill:#009ddb;fill-opacity:1;fill-rule:nonzero;stroke:none"
       id="path156" /><path
       d="m 929.73967,89.989773 c 0.23611,-3.469942 -2.37794,-6.467668 -5.84367,-6.707992 -3.46572,-0.240324 -6.46766,2.373727 -6.70799,5.839453 -0.23189,3.469941 2.38216,6.471884 5.84367,6.712208 3.46151,0.236108 6.46767,-2.377943 6.70799,-5.843669"
       style="fill:#009ddb;fill-opacity:1;fill-rule:nonzero;stroke:none"
       id="path158" /><path
       d="m 910.03732,228.9856 c 0.10962,-1.50097 -1.02033,-2.79113 -2.51286,-2.89232 -1.48411,-0.10119 -2.7827,1.02033 -2.88389,2.51708 -0.10541,1.49676 1.02454,2.7827 2.51708,2.88389 1.48832,0.10541 2.78691,-1.02032 2.87967,-2.50865"
       style="fill:#a1dbf2;fill-opacity:1;fill-rule:nonzero;stroke:none"
       id="path160" /><path
       d="m 952.90354,97.650629 c 0.156,-1.572647 -0.99503,-2.968213 -2.56768,-3.11578 -1.56843,-0.156 -2.96399,0.990809 -3.11578,2.563456 -0.156,1.576863 0.99924,2.968215 2.56768,3.115785 1.56843,0.15178 2.96821,-0.986598 3.11578,-2.563461"
       style="fill:#a1dbf2;fill-opacity:1;fill-rule:nonzero;stroke:none"
       id="path162" /><path
       d="m 944.09587,93.139283 c 0.28249,-2.926051 -1.85935,-5.531669 -4.78962,-5.814155 -2.92605,-0.286703 -5.53166,1.859349 -5.80993,4.789616 -0.29092,2.938699 1.86356,5.544317 4.7854,5.822587 2.92605,0.282486 5.52745,-1.859349 5.81415,-4.798048"
       style="fill:#7accec;fill-opacity:1;fill-rule:nonzero;stroke:none"
       id="path164" /><path
       d="m 900.93873,226.78474 c 0.25298,-2.60562 -1.65697,-4.92453 -4.26259,-5.1775 -2.6014,-0.25298 -4.92453,1.65697 -5.17329,4.26258 -0.25297,2.61406 1.66119,4.93719 4.26259,5.18594 2.6014,0.24876 4.92032,-1.65697 5.17329,-4.27102"
       style="fill:#7accec;fill-opacity:1;fill-rule:nonzero;stroke:none"
       id="path166" /><path
       d="m 855.85057,184.67744 c 0.21503,-2.23037 -1.41664,-4.21621 -3.64702,-4.43124 -2.22616,-0.21081 -4.20778,1.41665 -4.42281,3.64703 -0.21502,2.23459 1.42087,4.22042 3.64281,4.43123 2.22616,0.21925 4.20778,-1.42086 4.42702,-3.64702"
       style="fill:#009ddb;fill-opacity:1;fill-rule:nonzero;stroke:none"
       id="path168" /><path
       d="m 893.64047,95.175713 c 0.19395,-1.977403 -1.25643,-3.748212 -3.23805,-3.937941 -1.98583,-0.18973 -3.74821,1.260647 -3.92529,3.242266 -0.20238,1.985835 1.25221,3.735563 3.22962,3.929509 1.98583,0.193945 3.74399,-1.252215 3.93372,-3.233834"
       style="fill:#009ddb;fill-opacity:1;fill-rule:nonzero;stroke:none"
       id="path170" /><path
       d="m 913.32175,89.880152 c 0.14335,-1.488323 -0.94444,-2.812213 -2.43276,-2.955564 -1.48832,-0.143352 -2.81221,0.944431 -2.94713,2.432753 -0.14757,1.488323 0.94443,2.803781 2.42854,2.951348 1.48832,0.143351 2.80799,-0.940215 2.95135,-2.428537"
       style="fill:#009ddb;fill-opacity:1;fill-rule:nonzero;stroke:none"
       id="path172" /><path
       d="m 855.06636,170.35076 c 0.36681,-3.89578 -2.46649,-7.35729 -6.35383,-7.72832 -3.87892,-0.38367 -7.34464,2.4707 -7.71989,6.36226 -0.37102,3.87892 2.48335,7.34464 6.35805,7.71989 3.87891,0.36259 7.34464,-2.48335 7.71567,-6.35383"
       style="fill:#009ddb;fill-opacity:1;fill-rule:nonzero;stroke:none"
       id="path174" /><path
       d="m 852.72636,153.90753 c 0.27405,-2.85859 -1.81719,-5.40096 -4.68421,-5.68345 -2.85016,-0.27405 -5.39253,1.8214 -5.67502,4.68421 -0.27405,2.85859 1.82562,5.40518 4.67999,5.67502 2.86281,0.28249 5.40097,-1.81719 5.67924,-4.67578"
       style="fill:#009ddb;fill-opacity:1;fill-rule:nonzero;stroke:none"
       id="path176" /><path
       d="m 935.18702,148.01327 c 0.18973,-2.74897 -1.88465,-5.12691 -4.6294,-5.31664 -2.74054,-0.19395 -5.12692,1.88043 -5.31243,4.6294 -0.18973,2.7574 1.88886,5.13956 4.6294,5.32507 2.74475,0.18552 5.12691,-1.88886 5.31243,-4.63783"
       style="fill:#be1143;fill-opacity:1;fill-rule:nonzero;stroke:none"
       id="path178" /><path
       d="m 922.50887,176.63713 c 0.19395,-2.81643 -1.92681,-5.2534 -4.73902,-5.44735 -2.81221,-0.19394 -5.24918,1.93103 -5.44313,4.74746 -0.19395,2.81221 1.93102,5.24918 4.74324,5.44312 2.81221,0.19395 5.24918,-1.93524 5.43891,-4.74323"
       style="fill:#be1143;fill-opacity:1;fill-rule:nonzero;stroke:none"
       id="path180" /><path
       d="m 913.00553,186.24587 c 0.12649,-1.87621 -1.28594,-3.49524 -3.16216,-3.62594 -1.872,-0.12649 -3.49524,1.28595 -3.62172,3.16216 -0.13492,1.872 1.28172,3.49945 3.15794,3.63016 1.872,0.1307 3.49524,-1.28595 3.62594,-3.16638"
       style="fill:#be1143;fill-opacity:1;fill-rule:nonzero;stroke:none"
       id="path182" /><path
       d="m 936.94518,106.50046 c 0.27405,-4.00119 -2.73211,-7.458482 -6.72908,-7.732535 -3.98853,-0.274054 -7.44583,2.736325 -7.71988,6.733285 -0.28249,3.99697 2.73632,7.45426 6.72486,7.7241 3.98853,0.27827 7.44583,-2.7321 7.7241,-6.72485"
       style="fill:#be1143;fill-opacity:1;fill-rule:nonzero;stroke:none"
       id="path184" /><path
       d="m 937.80528,122.80876 c 0.20238,-2.99351 -2.06594,-5.60334 -5.05945,-5.80572 -2.99773,-0.21081 -5.60334,2.06172 -5.80572,5.05945 -0.21081,3.00194 2.05329,5.60756 5.05523,5.81416 3.00195,0.20659 5.59492,-2.06595 5.80994,-5.06789"
       style="fill:#be1143;fill-opacity:1;fill-rule:nonzero;stroke:none"
       id="path186" /><path
       d="m 931.87729,162.94287 c 0.25719,-3.71869 -2.54659,-6.9441 -6.26529,-7.19707 -3.7187,-0.25719 -6.92723,2.55503 -7.18864,6.26951 -0.2614,3.7187 2.54659,6.93988 6.26107,7.19707 3.71449,0.25297 6.93567,-2.55081 7.19286,-6.26951"
       style="fill:#be1143;fill-opacity:1;fill-rule:nonzero;stroke:none"
       id="path188" /><path
       d="m 905.08749,193.16046 c 0.11383,-1.49676 -1.01611,-2.78692 -2.50865,-2.88811 -1.49676,-0.1054 -2.78692,1.02033 -2.8881,2.51287 -0.10541,1.48832 1.02032,2.7827 2.51286,2.88388 1.50097,0.10541 2.79113,-1.02032 2.88389,-2.50864"
       style="fill:#be1143;fill-opacity:1;fill-rule:nonzero;stroke:none"
       id="path190" /><path
       d="m 935.6761,135.5881 c 0.1307,-1.93103 -1.32811,-3.60908 -3.25913,-3.73978 -1.93525,-0.13914 -3.60065,1.3281 -3.73978,3.25913 -0.13071,1.93946 1.32389,3.61329 3.25491,3.74399 1.93103,0.13914 3.60486,-1.32389 3.744,-3.26334"
       style="fill:#be1143;fill-opacity:1;fill-rule:nonzero;stroke:none"
       id="path192" /><path
       d="m 824.80661,208.79417 c 0.31622,-4.61675 -3.15373,-8.60529 -7.76626,-8.92572 -4.61254,-0.312 -8.60107,3.16216 -8.91307,7.77891 -0.32043,4.59989 3.15794,8.60107 7.76626,8.91729 4.61253,0.32043 8.60107,-3.16638 8.91307,-7.77048"
       style="fill:#be1143;fill-opacity:1;fill-rule:nonzero;stroke:none"
       id="path194" /><path
       d="m 921.85114,74.495197 c 0.32465,-4.604102 -3.15794,-8.596854 -7.76626,-8.917286 -4.6041,-0.312 -8.60107,3.170591 -8.91307,7.766261 -0.32043,4.612535 3.16216,8.605287 7.76204,8.929935 4.61254,0.311999 8.59686,-3.166375 8.91729,-7.77891"
       style="fill:#be1143;fill-opacity:1;fill-rule:nonzero;stroke:none"
       id="path196" /><path
       d="m 839.5507,213.14108 c 0.21503,-3.16637 -2.17135,-5.91112 -5.33351,-6.12615 -3.16216,-0.21503 -5.90269,2.17556 -6.12194,5.33351 -0.21502,3.16637 2.17135,5.90691 5.33351,6.12193 3.16216,0.21925 5.89426,-2.16713 6.12194,-5.32929"
       style="fill:#be1143;fill-opacity:1;fill-rule:nonzero;stroke:none"
       id="path198" /><path
       d="m 873.55444,45.099774 c 0.18973,-2.7827 -1.91416,-5.198589 -4.69686,-5.388318 -2.77426,-0.18973 -5.19015,1.905727 -5.3841,4.688426 -0.18973,2.791132 1.91416,5.202805 4.69264,5.396751 2.7827,0.189729 5.19438,-1.909944 5.38832,-4.696859"
       style="fill:#e2909a;fill-opacity:1;fill-rule:nonzero;stroke:none"
       id="path200" /><path
       d="m 779.36007,174.36037 c 0.18551,-2.77848 -1.90573,-5.19437 -4.68843,-5.3841 -2.78691,-0.19394 -5.19858,1.90995 -5.39253,4.69264 -0.18551,2.78692 1.91416,5.20281 4.69686,5.39676 2.77848,0.18551 5.19437,-1.91416 5.3841,-4.7053"
       style="fill:#e2909a;fill-opacity:1;fill-rule:nonzero;stroke:none"
       id="path202" /><path
       d="m 906.76554,61.074997 c 0.25297,-3.676536 -2.51708,-6.859775 -6.1894,-7.112748 -3.6681,-0.248756 -6.84713,2.521294 -7.09588,6.193614 -0.25298,3.676536 2.51707,6.859776 6.18939,7.112748 3.66389,0.252973 6.84291,-2.521294 7.09589,-6.193614"
       style="fill:#be1143;fill-opacity:1;fill-rule:nonzero;stroke:none"
       id="path204" /><path
       d="m 791.29195,187.1102 c 0.26562,-3.8747 -2.66043,-7.23081 -6.53091,-7.49643 -3.87048,-0.26562 -7.23081,2.66043 -7.49643,6.53091 -0.26562,3.8747 2.66043,7.23502 6.53513,7.50486 3.86627,0.2614 7.22237,-2.66465 7.49221,-6.53934"
       style="fill:#d56175;fill-opacity:1;fill-rule:nonzero;stroke:none"
       id="path206" /><path
       d="m 892.43042,51.230144 c 0.30778,-4.414373 -3.01881,-8.251125 -7.4374,-8.554692 -4.41437,-0.303567 -8.25112,3.035672 -8.55047,7.454261 -0.30357,4.422806 3.02724,8.246909 7.45004,8.554693 4.41016,0.299351 8.23848,-3.031456 8.53783,-7.454262"
       style="fill:#d56175;fill-opacity:1;fill-rule:nonzero;stroke:none"
       id="path208" /><path
       d="m 806.49982,199.44261 c 0.29514,-4.40594 -3.01881,-8.22161 -7.42475,-8.52518 -4.40172,-0.30778 -8.20896,3.02303 -8.51674,7.42897 -0.30357,4.40594 3.0188,8.22161 7.42053,8.52518 4.40594,0.30356 8.22161,-3.02724 8.52096,-7.42897"
       style="fill:#be1143;fill-opacity:1;fill-rule:nonzero;stroke:none"
       id="path210" /><path
       d="m 850.91339,213.95903 c 0.14757,-2.04486 -1.39557,-3.80302 -3.43621,-3.94638 -2.028,-0.13491 -3.79459,1.39979 -3.93373,3.43622 -0.13913,2.04486 1.39557,3.80724 3.432,3.94637 2.03221,0.13914 3.7988,-1.39557 3.93794,-3.43621"
       style="fill:#be1143;fill-opacity:1;fill-rule:nonzero;stroke:none"
       id="path212" /><path
       d="m 885.50318,206.58066 c 0.16444,-2.16292 -1.46724,-4.02648 -3.6175,-4.17405 -2.15027,-0.13914 -4.01805,1.47567 -4.1614,3.63859 -0.15179,2.15448 1.47567,4.00962 3.62594,4.15718 2.15026,0.15179 4.01805,-1.47145 4.15296,-3.62172"
       style="fill:#be1143;fill-opacity:1;fill-rule:nonzero;stroke:none"
       id="path214" /><path
       d="m 860.27759,213.21276 c 0.10963,-1.49676 -1.02032,-2.78692 -2.50864,-2.89232 -1.48832,-0.097 -2.7827,1.02032 -2.88811,2.52129 -0.10119,1.49254 1.02454,2.77849 2.51708,2.88389 1.48832,0.10119 2.78692,-1.02454 2.87967,-2.51286"
       style="fill:#be1143;fill-opacity:1;fill-rule:nonzero;stroke:none"
       id="path216" /><path
       d="m 859.61986,42.742912 c 0.10119,-1.488323 -1.02453,-2.778484 -2.51707,-2.888105 -1.49254,-0.09697 -2.77849,1.032972 -2.88389,2.521294 -0.10541,1.492539 1.02032,2.782699 2.51286,2.883889 1.49676,0.101189 2.78692,-1.020324 2.8881,-2.517078"
       style="fill:#e9aaaf;fill-opacity:1;fill-rule:nonzero;stroke:none"
       id="path218" /><path
       d="m 771.37035,163.94212 c 0.10541,-1.49676 -1.01611,-2.78692 -2.50865,-2.89233 -1.48832,-0.10118 -2.77848,1.02454 -2.8881,2.51287 -0.097,1.49675 1.03297,2.78691 2.52129,2.8881 1.48411,0.10119 2.77427,-1.02454 2.87546,-2.50864"
       style="fill:#e9aaaf;fill-opacity:1;fill-rule:nonzero;stroke:none"
       id="path220" /></g></svg>