<?xml version="1.0" encoding="UTF-8" standalone="no"?>
<!-- Generator: Adobe Illustrator 14.0.0, SVG Export Plug-In . SVG Version: 6.00 Build 43363)  -->

<svg
   xmlns:dc="http://purl.org/dc/elements/1.1/"
   xmlns:cc="http://creativecommons.org/ns#"
   xmlns:rdf="http://www.w3.org/1999/02/22-rdf-syntax-ns#"
   xmlns:svg="http://www.w3.org/2000/svg"
   xmlns="http://www.w3.org/2000/svg"
   xmlns:xlink="http://www.w3.org/1999/xlink"
   xmlns:sodipodi="http://sodipodi.sourceforge.net/DTD/sodipodi-0.dtd"
   xmlns:inkscape="http://www.inkscape.org/namespaces/inkscape"
   version="1.1"
   id="Layer_1"
   x="0px"
   y="0px"
   width="800"
   height="200"
   viewBox="0 0 800 200"
   enable-background="new 0 0 595 841"
   xml:space="preserve">
<rect
   style="fill:#006bb6"
   x="2.0986132e-05"
   y="-2.134936e-06"
   width="799.45435"
   height="200"
   id="rect33" /><rect
   style="fill:#ffffff"
   x="507.61182"
   y="30.063814"
   width="35.201984"
   height="133.2672"
   id="rect35" /><rect
   style="fill:#ffffff"
   x="566.95264"
   y="30.063814"
   width="35.209072"
   height="27.030476"
   id="rect37" /><rect
   style="fill:#ffffff"
   x="566.95264"
   y="70.44651"
   width="35.209072"
   height="92.884483"
   id="rect39" /><path
   style="fill:#ffffff"
   d="m 413.81296,116.45658 c 0,15.26577 8.10772,28.92984 21.97732,28.92984 10.50319,0 17.47697,-4.79093 21.1623,-15.50673 l 32.32459,0.007 c -3.52941,22.89865 -20.8292,36.6832 -55.14529,36.6832 -36.03118,0 -57.60454,-20.68746 -57.60454,-55.62722 0,-34.457828 22.04111,-55.620125 57.60454,-55.620125 38.83062,0 57.08009,23.387669 57.08009,61.126865 h -77.39901"
   id="path41" /><path
   style="fill:#006bb6"
   d="M 456.00998,98.533125 C 453.7917,80.290744 442.89871,75.315549 434.82642,75.315549 c -8.07229,0 -18.95818,4.975195 -21.17647,23.217576 h 42.36003"
   id="path43" /><path
   style="fill:#ffffff"
   d="m 369.13542,164.26665 c -1.93479,0.79376 -15.95322,2.31042 -22.97661,2.31042 -15.45712,0 -36.28632,-2.46634 -36.28632,-24.32318 V 82.558639 h -18.10064 v -18.34869 h 18.10064 v -16.59107 l 36.98795,-15.279944 v 31.871014 h 22.2112 v 18.34869 h -22.2112 v 57.420271 c 0,4.53579 3.69242,7.10843 10.8859,7.10843 2.99078,0 9.63146,-0.85046 11.38908,-1.55209 v 18.7314"
   id="path45" /><path
   style="fill:#ffffff"
   d="m 691.90652,149.24184 c 0.0283,-0.0921 0.0709,-0.1063 0.17009,-0.1063 0.13465,0 0.23387,0.1063 0.23387,0.23387 v 13.96173 h 34.50036 c -0.97803,-2.28207 -3.25301,-12.82778 -3.25301,-16.95251 0,-4.12474 0,-59.078673 0,-59.078673 0,-27.831326 -30.43232,-32.650603 -46.96669,-32.650603 -36.19419,0 -52.31751,16.236712 -52.31751,34.06095 h 34.06095 c -0.79376,-10.715804 5.67683,-17.562013 15.88944,-17.562013 11.84975,0 15.88235,7.576187 15.88235,12.551382 v 10.191354 c -27.64706,0 -70.83628,2.856131 -70.83628,38.447913 0,19.54642 13.30971,34.23813 38.09355,34.23813 13.98299,0 29.73777,-7.32814 34.54288,-17.33523"
   id="path47" /><path
   style="fill:#006bb6"
   d="m 653.33812,129.53242 c 0,-16.06662 18.17151,-19.2275 37.22183,-20.10631 0,0 0,6.93834 0,11.41035 0,11.73635 -7.69667,25.10985 -21.15521,25.10985 -10.04252,0 -16.06662,-7.02339 -16.06662,-16.41389"
   id="path49" /><rect
   style="fill:#ed1c2e"
   x="2.0986132e-05"
   y="-2.134936e-06"
   width="66.654854"
   height="200"
   id="rect51" /><rect
   style="fill:#ffffff"
   x="146.18723"
   y="95.124008"
   width="83.13253"
   height="7.2714391"
   id="rect53" /><path
   style="fill:#ffffff"
   d="m 193.7846,38.256724 c 0,1.176471 -3.41601,2.097803 -5.90361,2.097803 -2.49469,0 -5.94614,-0.921332 -5.89653,-2.097803 0.0425,-1.112686 3.10418,-4.847626 5.89653,-4.847626 2.79234,0 5.90361,3.73494 5.90361,4.847626"
   id="path55" /><rect
   style="fill:#ffffff"
   x="146.18723"
   y="88.320595"
   width="83.13253"
   height="4.0963855"
   id="rect57" /><path
   style="fill:#ffffff"
   d="m 192.99793,84.58557 c 0,-1.715096 0.33309,-11.793055 0.33309,-17.838413 0,-9.156627 -0.60949,-15.51382 -1.27569,-20.680369 l 0.13466,-0.262225 c 7.77463,5.230333 12.74982,15.535082 12.74982,25.265769 0,3.189228 -0.73706,8.766833 -2.21119,13.508151 h 8.99362 c 0.66619,-3.026223 2.45925,-8.929837 2.45925,-13.58611 0,-12.10489 -5.87527,-21.148122 -15.27286,-25.939051 l 0.0921,-0.297661 c 16.33593,2.792346 24.01134,14.131822 24.01134,26.151666 0,3.515238 -1.14812,10.403969 -2.14032,13.671156 h 8.68887 c 0,-2.126152 1.96315,-10.070872 1.96315,-14.408222 0,-21.665486 -20.06379,-33.245925 -34.62084,-29.305458 -1.92062,0.524451 -5.42169,2.955351 -9.06449,2.955351 -3.25302,0 -4.8618,-1.856839 -8.68888,-2.955351 -12.82069,-3.692416 -34.99645,7.639972 -34.99645,29.305458 0,4.33735 1.95605,12.28207 1.95605,14.408222 h 8.68888 c -0.99221,-3.267187 -2.13324,-10.155918 -2.13324,-13.671156 0,-12.019844 7.66832,-23.366407 24.01134,-26.151666 l 0.0921,0.297661 c -9.40468,4.790929 -15.27994,13.834161 -15.27994,25.939051 0,4.656273 1.80014,10.559887 2.45925,13.58611 h 8.99362 c -1.47413,-4.741318 -2.20411,-10.318923 -2.20411,-13.508151 0,-9.730687 4.96811,-20.035436 12.74273,-25.265769 l 0.13466,0.262225 c -0.65911,5.166549 -1.2686,11.523742 -1.2686,20.680369 0,6.045358 0.32601,16.11623 0.32601,17.838413 h 10.32601"
   id="path59" /><path
   style="fill:#ffffff"
   d="m 158.22826,150.21987 -3.65698,6.4635 -26.5202,9.65982 4.76967,-8.63926 -25.57052,7.49114 5.39334,-9.35507 c 0,0 30.88589,-7.10843 30.87881,-7.19348 -0.0142,-0.085 -3.79873,6.89582 -3.79873,6.89582 l 18.50461,-5.32247"
   id="path61" /><path
   style="fill:#ffffff"
   d="m 119.92918,143.7989 c 0.085,-0.007 27.15804,-3.76329 27.15804,-3.76329 l 5.04607,-5.81148 -18.54004,1.30404 4.97519,-5.72644 -31.62296,0.28349 -7.009213,7.79589 26.612333,-1.67966 -6.61942,7.59745"
   id="path63" /><polyline
   style="fill:#ffffff"
   points="462.086,787.903 464.633,788.23 463.814,788.881 460.121,788.64 461.184,787.817 457.465,787.323   458.666,786.422 462.928,787.258 462.086,787.903 "
   id="polyline65"
   transform="matrix(7.0871724,0,0,7.0871724,-3128.2495,-5465.8965)" /><polyline
   style="fill:#ffffff"
   points="467.965,792.949 470.661,794.78 469.752,791.652 472.326,789.596 469.07,789.596 467.965,786.458   466.86,789.596 463.604,789.596 466.178,791.652 465.268,794.78 467.965,792.949 "
   id="polyline67"
   transform="matrix(7.0871724,0,0,7.0871724,-3128.2495,-5465.8965)" /><path
   style="fill:#ffffff"
   d="m 218.37,150.21987 3.66407,6.4635 26.51311,9.65982 -4.76966,-8.63926 25.5776,7.49114 -5.39334,-9.35507 c 0,0 -30.88589,-7.10843 -30.87881,-7.19348 0.007,-0.085 3.79873,6.89582 3.79873,6.89582 L 218.37,150.21987"
   id="path69" /><path
   style="fill:#ffffff"
   d="m 256.67617,143.7989 c -0.0921,-0.007 -27.15804,-3.76329 -27.15804,-3.76329 l -5.05316,-5.81148 18.53296,1.30404 -4.96102,-5.72644 31.61587,0.28349 7.00213,7.79589 -26.61233,-1.67966 6.63359,7.59745"
   id="path71" /><polyline
   style="fill:#ffffff"
   points="473.844,787.903 471.297,788.23 472.116,788.881 475.81,788.64 474.747,787.817 478.466,787.323   477.265,786.422 473.002,787.258 473.844,787.903 "
   id="polyline73"
   transform="matrix(7.0871724,0,0,7.0871724,-3128.2495,-5465.8965)" />
</svg>