<?xml version="1.0" encoding="UTF-8" standalone="no"?>
<!-- Created with Inkscape (http://www.inkscape.org/) -->

<svg
   xmlns:dc="http://purl.org/dc/elements/1.1/"
   xmlns:cc="http://creativecommons.org/ns#"
   xmlns:rdf="http://www.w3.org/1999/02/22-rdf-syntax-ns#"
   xmlns:svg="http://www.w3.org/2000/svg"
   xmlns="http://www.w3.org/2000/svg"
   xmlns:sodipodi="http://sodipodi.sourceforge.net/DTD/sodipodi-0.dtd"
   xmlns:inkscape="http://www.inkscape.org/namespaces/inkscape"
   width="706"
   height="151"
   id="svg2"
   version="1.1">
  <g
     inkscape:label="Layer 1"
     inkscape:groupmode="layer"
     id="layer1"
     transform="translate(-21.999997,-456.86131)">
    <path
       style="fill:#c20069;fill-rule:nonzero;stroke:none"
       id="path1251"
       class="ps08"
       d="m 222.69124,514.94053 69.94309,0 0,25.57528 -69.94309,0 0,17.11485 c 0,14.13735 4.90664,17.45912 34.91459,17.45912 20.21406,0 37.13503,-1.59682 50.18969,-3.98175 0.85011,6.71992 4.48742,19.54251 7.04427,25.41997 -17.28975,4.59385 -37.32913,7.35272 -62.59346,7.35272 -48.94749,0 -66.61506,-8.81366 -66.61506,-40.58349 l 0,-106.43418 122.36871,0 0,29.09631 -85.30874,0 0,28.98117" />
    <path
       style="fill:#c20069;fill-rule:nonzero;stroke:none"
       id="path1257"
       class="ps08"
       d="m 362.18145,542.01095 0,-64.7793 c 0,-13.20561 -9.1327,-20.36804 -21.90005,-20.36804 l -15.15992,0 0,87.59438 c 0,41.86454 17.61581,59.26798 61.40948,59.26798 28.375,0 48.8181,-3.46413 61.09766,-8.88097 -2.99162,-6.10394 -6.89029,-20.83392 -7.65632,-25.57522 -9.18832,3.21694 -26.97101,5.66264 -43.59829,5.66264 -30.14639,0 -34.19256,-14.10104 -34.19256,-32.92147" />
    <path
       style="fill:#c20069;fill-rule:nonzero;stroke:none"
       id="path1263"
       class="ps08"
       d="m 45.582211,456.86316 c -13.362631,0 -23.582214,10.36781 -23.582214,23.20203 l 0,7.57528 57.316762,0 0,113.63675 37.211351,0 0,-113.63675 30.1218,0 c 13.36264,0 23.58349,-10.36781 23.58349,-23.20075 l 0,-7.57656 -124.651189,0" />
    <path
       style="fill:#c20069;fill-rule:nonzero;stroke:none"
       id="path1269"
       class="ps08"
       d="m 505.0398,603.72558 c 25.74958,0 40.46826,-9.40889 62.78497,-49.15771 16.15106,-28.76764 25.29278,-45.77384 28.63635,-52.6814 2.29804,-4.74651 3.75377,-6.12591 6.89156,-6.12591 3.06152,0 4.55473,1.40531 6.43095,5.9732 3.51953,8.57428 12.48789,27.6108 17.69474,37.57096 l -15.17415,0 c -9.54416,0.31825 -19.85175,6.2075 -22.17181,17.6131 l -1.63424,8.67651 18.22399,0 c 20.51943,0 30.52032,4.12925 50.9906,22.81768 14.09108,12.86006 24.18391,19.4493 45.94808,19.4493 10.7139,0 18.7105,-2.53758 24.33916,-4.89794 l 0,-0.15664 c -13.15944,-4.59646 -28.32451,-14.54494 -41.3416,-31.85263 -19.03402,-25.30871 -35.6095,-57.5133 -50.07584,-88.05765 -8.50382,-17.95604 -18.96926,-26.03079 -32.85588,-26.03079 -14.82866,0 -25.1699,7.55718 -33.45249,22.96911 -6.581,12.25061 -12.47362,24.09098 -18.73376,35.68422 -6.53057,12.09403 -13.4053,23.95128 -21.07972,36.44515 -11.9483,19.45323 -16.84463,20.82749 -23.88884,20.82749 -7.65505,0 -13.78185,-5.50097 -13.78185,-20.82749 l 0,-74.73299 c 0,-13.20948 -9.13269,-20.36549 -21.89623,-20.36549 l -15.15987,0 0,99.23294 c 0,29.85331 17.76199,47.62687 49.30588,47.62687" />
  </g>
</svg>
