<?xml version="1.0" encoding="UTF-8" standalone="no"?>
<!-- Created with Inkscape (http://www.inkscape.org/) -->

<svg
   xmlns:dc="http://purl.org/dc/elements/1.1/"
   xmlns:cc="http://creativecommons.org/ns#"
   xmlns:rdf="http://www.w3.org/1999/02/22-rdf-syntax-ns#"
   xmlns:svg="http://www.w3.org/2000/svg"
   xmlns="http://www.w3.org/2000/svg"
   xmlns:xlink="http://www.w3.org/1999/xlink"
   xmlns:sodipodi="http://sodipodi.sourceforge.net/DTD/sodipodi-0.dtd"
   xmlns:inkscape="http://www.inkscape.org/namespaces/inkscape"
   width="350.91"
   height="399.04999"
   id="svg3159"
   version="1.1"
   inkscape:version="0.48.4 r9939"
   sodipodi:docname="New document 2">
  <defs
     id="defs3161">
    <inkscape:perspective
       sodipodi:type="inkscape:persp3d"
       inkscape:vp_x="0 : 0.5 : 1"
       inkscape:vp_y="0 : 1000 : 0"
       inkscape:vp_z="1 : 0.5 : 1"
       inkscape:persp3d-origin="0.5 : 0.33333333 : 1"
       id="perspective3750" />
    <linearGradient
       gradientTransform="translate(432.74935,254.55844)"
       gradientUnits="userSpaceOnUse"
       y2="577.24298"
       x2="64.807961"
       y1="320.78601"
       x1="-180.20621"
       id="linearGradient3724"
       xlink:href="#linearGradient3718"
       inkscape:collect="always" />
    <linearGradient
       gradientUnits="userSpaceOnUse"
       y2="432.03198"
       x2="231.01219"
       y1="667.26349"
       x1="444.55844"
       id="linearGradient3712"
       xlink:href="#linearGradient3706"
       inkscape:collect="always" />
    <inkscape:perspective
       sodipodi:type="inkscape:persp3d"
       inkscape:vp_x="0 : 0.5 : 1"
       inkscape:vp_y="0 : 1000 : 0"
       inkscape:vp_z="1 : 0.5 : 1"
       inkscape:persp3d-origin="0.5 : 0.33333333 : 1"
       id="perspective3669" />
    <inkscape:perspective
       sodipodi:type="inkscape:persp3d"
       inkscape:vp_x="0 : 0.5 : 1"
       inkscape:vp_y="0 : 1000 : 0"
       inkscape:vp_z="1 : 0.5 : 1"
       inkscape:persp3d-origin="0.5 : 0.33333333 : 1"
       id="perspective3647" />
    <inkscape:perspective
       sodipodi:type="inkscape:persp3d"
       inkscape:vp_x="0 : 0.5 : 1"
       inkscape:vp_y="0 : 1000 : 0"
       inkscape:vp_z="1 : 0.5 : 1"
       inkscape:persp3d-origin="0.5 : 0.33333333 : 1"
       id="perspective3625" />
    <inkscape:perspective
       sodipodi:type="inkscape:persp3d"
       inkscape:vp_x="0 : 0.5 : 1"
       inkscape:vp_y="0 : 1000 : 0"
       inkscape:vp_z="1 : 0.5 : 1"
       inkscape:persp3d-origin="0.5 : 0.33333333 : 1"
       id="perspective2824" />
    <inkscape:perspective
       id="perspective10"
       inkscape:persp3d-origin="372.04724 : 350.78739 : 1"
       inkscape:vp_z="744.09448 : 526.18109 : 1"
       inkscape:vp_y="0 : 1000 : 0"
       inkscape:vp_x="0 : 526.18109 : 1"
       sodipodi:type="inkscape:persp3d" />
    <linearGradient
       id="linearGradient3706">
      <stop
         id="stop3708"
         offset="0"
         style="stop-color:#291b6c;stop-opacity:1;" />
      <stop
         style="stop-color:#291b6c;stop-opacity:1;"
         offset="0.42804161"
         id="stop3714" />
      <stop
         id="stop3710"
         offset="1"
         style="stop-color:#ffffff;stop-opacity:1;" />
    </linearGradient>
    <linearGradient
       id="linearGradient3718">
      <stop
         id="stop3720"
         offset="0"
         style="stop-color:#049ce2;stop-opacity:1;" />
      <stop
         style="stop-color:#049ce2;stop-opacity:1;"
         offset="0.48734817"
         id="stop3726" />
      <stop
         id="stop3722"
         offset="1"
         style="stop-color:#ffffff;stop-opacity:1;" />
    </linearGradient>
    <linearGradient
       inkscape:collect="always"
       xlink:href="#linearGradient3718"
       id="linearGradient5779"
       gradientUnits="userSpaceOnUse"
       gradientTransform="translate(326.57272,-67.7375)"
       x1="-180.20621"
       y1="320.78601"
       x2="64.807961"
       y2="577.24298" />
    <linearGradient
       inkscape:collect="always"
       xlink:href="#linearGradient3706"
       id="linearGradient5792"
       gradientUnits="userSpaceOnUse"
       x1="444.55844"
       y1="667.26349"
       x2="231.01219"
       y2="432.03198" />
    <linearGradient
       inkscape:collect="always"
       xlink:href="#linearGradient3718"
       id="linearGradient5794"
       gradientUnits="userSpaceOnUse"
       gradientTransform="translate(326.57272,-67.7375)"
       x1="-180.20621"
       y1="320.78601"
       x2="64.807961"
       y2="577.24298" />
  </defs>
  <sodipodi:namedview
     id="base"
     pagecolor="#ffffff"
     bordercolor="#666666"
     borderopacity="1.0"
     inkscape:pageopacity="0.0"
     inkscape:pageshadow="2"
     inkscape:zoom="0.25"
     inkscape:cx="-481.31303"
     inkscape:cy="523.49306"
     inkscape:document-units="px"
     inkscape:current-layer="layer1"
     showgrid="false"
     inkscape:window-width="1366"
     inkscape:window-height="706"
     inkscape:window-x="-8"
     inkscape:window-y="-8"
     inkscape:window-maximized="1" />
  <metadata
     id="metadata3164">
    <rdf:RDF>
      <cc:Work
         rdf:about="">
        <dc:format>image/svg+xml</dc:format>
        <dc:type
           rdf:resource="http://purl.org/dc/dcmitype/StillImage" />
        <dc:title></dc:title>
      </cc:Work>
    </rdf:RDF>
  </metadata>
  <g
     inkscape:label="Layer 1"
     inkscape:groupmode="layer"
     id="layer1"
     transform="translate(0,-653.31215)">
    <g
       id="g5782"
       transform="matrix(1.0000223,0,0,1.0000223,-80.501352,400.25667)">
      <path
         transform="translate(-87.355862,-146.45656)"
         d="m 495,552.00507 c 0,84.22342 -68.27658,152.5 -152.5,152.5 -84.22342,0 -152.5,-68.27658 -152.5,-152.5 0,-84.22343 68.27658,-152.5 152.5,-152.5 84.22342,0 152.5,68.27657 152.5,152.5 z"
         sodipodi:ry="152.5"
         sodipodi:rx="152.5"
         sodipodi:cy="552.00507"
         sodipodi:cx="342.5"
         id="path2830-1"
         style="fill:url(#linearGradient5792);fill-opacity:1;fill-rule:nonzero;stroke:none"
         sodipodi:type="arc" />
      <path
         id="path2830-7"
         d="m 255.14414,253.0485 c -6.40871,0 -12.73651,0.41992 -18.9375,1.1875 l 170.25,170.28125 c 0.77004,-6.21069 1.1875,-12.54963 1.1875,-18.96875 0,-9.54412 -0.91639,-18.87909 -2.59375,-27.9375 L 283.08164,255.64225 c -9.06589,-1.68025 -18.38498,-2.59375 -27.9375,-2.59375 z m -32.28126,3.4375 c -17.96551,3.86993 -34.75024,10.9124 -49.75,20.5 l 210.59376,210.59375 c 9.59142,-15.00574 16.63105,-31.80765 20.5,-49.78125 L 222.86288,256.486 z m 75.68751,2.84375 101.75,99.40625 c -15.37014,-47.69576 -53.5752,-85.12658 -101.75,-99.40625 z M 160.95663,285.611 c -6.04937,4.75675 -11.73798,9.96015 -17,15.5625 L 359.51914,516.736 c 5.56005,-5.22337 10.74144,-10.87568 15.46875,-16.875 L 160.98788,285.76725 160.95668,285.611 z m -44.09375,55.59375 c -1.60668,3.44607 -3.08669,6.95097 -4.4375,10.53125 l 0.34375,-0.0625 196.46876,196.5 c 3.87074,-1.46955 7.66237,-3.10673 11.375,-4.875 L 116.86288,341.20475 z"
         style="fill:url(#linearGradient5794);fill-opacity:1;fill-rule:nonzero;stroke:none"
         inkscape:connector-curvature="0" />
      <path
         sodipodi:nodetypes="ccccccccc"
         id="path3730"
         d="m 84.03509,582.36932 46.84583,0.13258 -3.53554,19.57802 -12.72792,0 -9.45755,49.76264 -21.12482,0 10.51822,-50.02781 -14.05375,0 3.53553,-19.44543 z"
         style="color:#000000;fill:#0c3584;fill-opacity:1;stroke:none;stroke-width:1px;marker:none;visibility:visible;display:inline;overflow:visible;enable-background:accumulate"
         inkscape:connector-curvature="0" />
      <path
         sodipodi:nodetypes="cccccccccccccc"
         id="path3732"
         d="m 136.62616,582.10414 -11.49048,69.56164 39.95152,0 3.22618,-15.82152 -22.31805,0 1.84082,-11.74157 22.46597,0.0884 2.91682,-14.2446 -23.06936,0 1.41421,-9.45755 23.42291,0 3.62393,-18.29639 -41.98447,-0.0884 0,-10e-6 z"
         style="color:#000000;fill:#0c3584;fill-opacity:1;stroke:none;stroke-width:1px;marker:none;visibility:visible;display:inline;overflow:visible;enable-background:accumulate"
         inkscape:connector-curvature="0" />
      <path
         id="path3736"
         d="m 187.36107,582.54609 19.26866,0 -9.8111,52.14913 21.74353,0 -4.59588,17.15206 -39.86346,0 13.25825,-69.30119 z"
         style="color:#000000;fill:#19408a;fill-opacity:1;stroke:none;stroke-width:1px;marker:none;visibility:visible;display:inline;overflow:visible;enable-background:accumulate"
         inkscape:connector-curvature="0" />
      <path
         id="path3738"
         d="m 235.22336,582.10415 -13.25825,69.38485 18.91511,0 5.17071,-24.96971 14.76383,25.5717 21.25443,0 -20.77127,-33.70342 35.86358,-35.86358 -24.81503,0 -22.84839,25.52214 4.81717,-25.7652 -19.09189,-0.17678 z"
         style="color:#000000;fill:#19408a;fill-opacity:1;stroke:none;stroke-width:1px;marker:none;visibility:visible;display:inline;overflow:visible;enable-background:accumulate"
         inkscape:connector-curvature="0" />
      <path
         id="path3740"
         d="m 321.51087,583.70406 c -18.68589,0 -36.18791,15.15786 -39.09375,33.84375 -2.90584,18.68589 9.87661,33.84375 28.5625,33.84375 18.68589,0 36.18791,-15.15786 39.09375,-33.84375 2.90584,-18.68589 -9.87661,-33.84375 -28.5625,-33.84375 z m -3.28125,16.6875 c 9.41438,0 15.87028,7.64812 14.40625,17.0625 -1.46403,9.41438 -10.27312,17.03125 -19.6875,17.03125 -9.41438,0 -15.87028,-7.61687 -14.40625,-17.03125 1.46403,-9.41438 10.27312,-17.0625 19.6875,-17.0625 z"
         style="fill:#19408a;fill-opacity:1;fill-rule:nonzero;stroke:none"
         inkscape:connector-curvature="0" />
      <path
         id="path3766"
         d="m 345.92977,651.57739 19.00349,0 12.63954,-40.83542 1.67937,40.83542 20.06416,0 12.1092,-41.01219 2.12132,40.9238 17.85445,0 -3.35876,-69.0313 -24.83712,0 -10.51822,35.09018 -2.03293,-35.26695 -23.33452,0 -21.38998,69.29646 z"
         style="color:#000000;fill:#19408a;fill-opacity:1;stroke:none;stroke-width:1px;marker:none;visibility:visible;display:inline;overflow:visible;enable-background:accumulate"
         inkscape:connector-curvature="0" />
    </g>
  </g>
</svg>
