<?xml version="1.0" encoding="UTF-8" standalone="no"?>
<!-- Created with Inkscape (http://www.inkscape.org/) -->

<svg
   xmlns:dc="http://purl.org/dc/elements/1.1/"
   xmlns:cc="http://creativecommons.org/ns#"
   xmlns:rdf="http://www.w3.org/1999/02/22-rdf-syntax-ns#"
   xmlns:svg="http://www.w3.org/2000/svg"
   xmlns="http://www.w3.org/2000/svg"
   xmlns:xlink="http://www.w3.org/1999/xlink"
   xmlns:sodipodi="http://sodipodi.sourceforge.net/DTD/sodipodi-0.dtd"
   xmlns:inkscape="http://www.inkscape.org/namespaces/inkscape"
   width="357.58017"
   height="443.01285"
   id="svg2"
   version="1.1"
   inkscape:version="0.47 r22583"
   sodipodi:docname="Telkom.svg">
  <defs
     id="defs4">
    <linearGradient
       id="linearGradient3718">
      <stop
         style="stop-color:#049ce2;stop-opacity:1;"
         offset="0"
         id="stop3720" />
      <stop
         id="stop3726"
         offset="0.48734817"
         style="stop-color:#049ce2;stop-opacity:1;" />
      <stop
         style="stop-color:#ffffff;stop-opacity:1;"
         offset="1"
         id="stop3722" />
    </linearGradient>
    <linearGradient
       id="linearGradient3706">
      <stop
         style="stop-color:#291b6c;stop-opacity:1;"
         offset="0"
         id="stop3708" />
      <stop
         id="stop3714"
         offset="0.42804161"
         style="stop-color:#291b6c;stop-opacity:1;" />
      <stop
         style="stop-color:#ffffff;stop-opacity:1;"
         offset="1"
         id="stop3710" />
    </linearGradient>
    <inkscape:perspective
       sodipodi:type="inkscape:persp3d"
       inkscape:vp_x="0 : 526.18109 : 1"
       inkscape:vp_y="0 : 1000 : 0"
       inkscape:vp_z="744.09448 : 526.18109 : 1"
       inkscape:persp3d-origin="372.04724 : 350.78739 : 1"
       id="perspective10" />
    <inkscape:perspective
       id="perspective2824"
       inkscape:persp3d-origin="0.5 : 0.33333333 : 1"
       inkscape:vp_z="1 : 0.5 : 1"
       inkscape:vp_y="0 : 1000 : 0"
       inkscape:vp_x="0 : 0.5 : 1"
       sodipodi:type="inkscape:persp3d" />
    <inkscape:perspective
       id="perspective3625"
       inkscape:persp3d-origin="0.5 : 0.33333333 : 1"
       inkscape:vp_z="1 : 0.5 : 1"
       inkscape:vp_y="0 : 1000 : 0"
       inkscape:vp_x="0 : 0.5 : 1"
       sodipodi:type="inkscape:persp3d" />
    <inkscape:perspective
       id="perspective3647"
       inkscape:persp3d-origin="0.5 : 0.33333333 : 1"
       inkscape:vp_z="1 : 0.5 : 1"
       inkscape:vp_y="0 : 1000 : 0"
       inkscape:vp_x="0 : 0.5 : 1"
       sodipodi:type="inkscape:persp3d" />
    <inkscape:perspective
       id="perspective3669"
       inkscape:persp3d-origin="0.5 : 0.33333333 : 1"
       inkscape:vp_z="1 : 0.5 : 1"
       inkscape:vp_y="0 : 1000 : 0"
       inkscape:vp_x="0 : 0.5 : 1"
       sodipodi:type="inkscape:persp3d" />
    <linearGradient
       inkscape:collect="always"
       xlink:href="#linearGradient3706"
       id="linearGradient3712"
       x1="444.55844"
       y1="667.26349"
       x2="231.01219"
       y2="432.03198"
       gradientUnits="userSpaceOnUse" />
    <linearGradient
       inkscape:collect="always"
       xlink:href="#linearGradient3718"
       id="linearGradient3724"
       x1="-180.20621"
       y1="320.78601"
       x2="64.807961"
       y2="577.24298"
       gradientUnits="userSpaceOnUse"
       gradientTransform="translate(432.74935,254.55844)" />
    <inkscape:perspective
       id="perspective3750"
       inkscape:persp3d-origin="0.5 : 0.33333333 : 1"
       inkscape:vp_z="1 : 0.5 : 1"
       inkscape:vp_y="0 : 1000 : 0"
       inkscape:vp_x="0 : 0.5 : 1"
       sodipodi:type="inkscape:persp3d" />
  </defs>
  <sodipodi:namedview
     id="base"
     pagecolor="#ffffff"
     bordercolor="#666666"
     borderopacity="1.0"
     inkscape:pageopacity="0.0"
     inkscape:pageshadow="2"
     inkscape:zoom="0.5"
     inkscape:cx="-156.42528"
     inkscape:cy="222.22515"
     inkscape:document-units="px"
     inkscape:current-layer="layer1"
     showgrid="false"
     showguides="true"
     inkscape:guide-bbox="true"
     inkscape:window-width="1366"
     inkscape:window-height="706"
     inkscape:window-x="-8"
     inkscape:window-y="-8"
     inkscape:window-maximized="1" />
  <metadata
     id="metadata7">
    <rdf:RDF>
      <cc:Work
         rdf:about="">
        <dc:format>image/svg+xml</dc:format>
        <dc:type
           rdf:resource="http://purl.org/dc/dcmitype/StillImage" />
        <dc:title></dc:title>
      </cc:Work>
    </rdf:RDF>
  </metadata>
  <g
     inkscape:label="Layer 1"
     inkscape:groupmode="layer"
     id="layer1"
     transform="translate(-181.94498,-575.34444)">
    <path
       sodipodi:type="arc"
       style="fill:url(#linearGradient3712);fill-opacity:1;fill-rule:nonzero;stroke:none"
       id="path2830-1"
       sodipodi:cx="342.5"
       sodipodi:cy="552.00507"
       sodipodi:rx="152.5"
       sodipodi:ry="152.5"
       d="m 495,552.00507 c 0,84.22342 -68.27658,152.5 -152.5,152.5 -84.22342,0 -152.5,-68.27658 -152.5,-152.5 0,-84.22343 68.27658,-152.5 152.5,-152.5 84.22342,0 152.5,68.27657 152.5,152.5 z"
       transform="translate(18.820768,175.83938)" />
    <path
       style="fill:url(#linearGradient3724);fill-opacity:1;fill-rule:nonzero;stroke:none"
       d="m 361.32077,575.34444 c -6.40871,0 -12.73651,0.41992 -18.9375,1.1875 l 170.25,170.28125 c 0.77004,-6.21069 1.1875,-12.54963 1.1875,-18.96875 0,-9.54412 -0.91639,-18.87909 -2.59375,-27.9375 L 389.25827,577.93819 c -9.06589,-1.68025 -18.38498,-2.59375 -27.9375,-2.59375 z m -32.28126,3.4375 c -17.96551,3.86993 -34.75024,10.9124 -49.75,20.5 l 210.59376,210.59375 c 9.59142,-15.00574 16.63105,-31.80765 20.5,-49.78125 L 329.03951,578.78194 z m 75.68751,2.84375 101.75,99.40625 c -15.37014,-47.69576 -53.5752,-85.12658 -101.75,-99.40625 z m -137.59376,26.28125 c -6.04937,4.75675 -11.73798,9.96015 -17,15.5625 l 215.56251,215.5625 c 5.56005,-5.22337 10.74144,-10.87568 15.46875,-16.875 l -214.00001,-214.09375 -0.0312,-0.15625 z m -44.09375,55.59375 c -1.60668,3.44607 -3.08669,6.95097 -4.4375,10.53125 l 0.34375,-0.0625 196.46876,196.5 c 3.87074,-1.46955 7.66237,-3.10673 11.375,-4.875 L 223.03951,663.50069 z"
       id="path2830-7" />
    <path
       style="color:#000000;fill:#0c3584;fill-opacity:1;stroke:none;stroke-width:1px;marker:none;visibility:visible;display:inline;overflow:visible;enable-background:accumulate"
       d="m 190.21172,904.66526 46.84583,0.13258 -3.53554,19.57802 -12.72792,0 -9.45755,49.76264 -21.12482,0 10.51822,-50.02781 -14.05375,0 3.53553,-19.44543 z"
       id="path3730"
       sodipodi:nodetypes="ccccccccc" />
    <path
       style="color:#000000;fill:#0c3584;fill-opacity:1;stroke:none;stroke-width:1px;marker:none;visibility:visible;display:inline;overflow:visible;enable-background:accumulate"
       d="m 242.80279,904.40008 -11.49048,69.56164 39.95152,0 3.22618,-15.82152 -22.31805,0 1.84082,-11.74157 22.46597,0.0884 2.91682,-14.2446 -23.06936,0 1.41421,-9.45755 23.42291,0 3.62393,-18.29639 -41.98447,-0.0884 0,-10e-6 z"
       id="path3732"
       sodipodi:nodetypes="cccccccccccccc" />
    <path
       style="color:#000000;fill:#19408a;fill-opacity:1;stroke:none;stroke-width:1px;marker:none;visibility:visible;display:inline;overflow:visible;enable-background:accumulate"
       d="m 293.5377,904.84203 19.26866,0 -9.8111,52.14913 21.74353,0 -4.59588,17.15206 -39.86346,0 13.25825,-69.30119 z"
       id="path3736" />
    <path
       style="color:#000000;fill:#19408a;fill-opacity:1;stroke:none;stroke-width:1px;marker:none;visibility:visible;display:inline;overflow:visible;enable-background:accumulate"
       d="m 341.39999,904.40009 -13.25825,69.38485 18.91511,0 5.17071,-24.96971 14.76383,25.5717 21.25443,0 -20.77127,-33.70342 35.86358,-35.86358 -24.81503,0 -22.84839,25.52214 4.81717,-25.7652 -19.09189,-0.17678 z"
       id="path3738" />
    <path
       style="fill:#19408a;fill-opacity:1;fill-rule:nonzero;stroke:none"
       d="m 427.6875,906 c -18.68589,0 -36.18791,15.15786 -39.09375,33.84375 -2.90584,18.68589 9.87661,33.84375 28.5625,33.84375 18.68589,0 36.18791,-15.15786 39.09375,-33.84375 C 459.15584,921.15786 446.37339,906 427.6875,906 z m -3.28125,16.6875 c 9.41438,0 15.87028,7.64812 14.40625,17.0625 -1.46403,9.41438 -10.27312,17.03125 -19.6875,17.03125 -9.41438,0 -15.87028,-7.61687 -14.40625,-17.03125 1.46403,-9.41438 10.27312,-17.0625 19.6875,-17.0625 z"
       id="path3740" />
    <path
       style="color:#000000;fill:#19408a;fill-opacity:1;stroke:none;stroke-width:1px;marker:none;visibility:visible;display:inline;overflow:visible;enable-background:accumulate"
       d="m 452.1064,973.87333 19.00349,0 12.63954,-40.83542 1.67937,40.83542 20.06416,0 12.1092,-41.01219 2.12132,40.9238 17.85445,0 -3.35876,-69.0313 -24.83712,0 -10.51822,35.09018 -2.03293,-35.26695 -23.33452,0 -21.38998,69.29646 z"
       id="path3766" />
    <path
       id="path3773"
       style="font-size:42.78941727px;font-style:normal;font-variant:normal;font-weight:normal;font-stretch:normal;text-align:start;line-height:125%;writing-mode:lr-tb;text-anchor:start;fill:#291b6c;fill-opacity:1;stroke:none;font-family:Arial Black;-inkscape-font-specification:Arial Black"
       d="m 188.7141,987.37421 9.48555,0 -6.76912,30.62949 -9.48555,0 z" />
    <path
       id="path3775"
       style="font-size:42.78941727px;font-style:normal;font-variant:normal;font-weight:normal;font-stretch:normal;text-align:start;line-height:125%;writing-mode:lr-tb;text-anchor:start;fill:#291b6c;fill-opacity:1;stroke:none;font-family:Arial Black;-inkscape-font-specification:Arial Black"
       d="m 216.52223,987.19743 8.83785,0 7.78835,16.94447 3.74473,-16.94447 8.92143,0 -6.76912,30.62947 -8.92143,0 -7.7534,-16.819 -3.717,16.819 -8.90053,0 z" />
    <path
       id="path3777"
       style="font-size:42.78941727px;font-style:normal;font-variant:normal;font-weight:normal;font-stretch:normal;text-align:start;line-height:125%;writing-mode:lr-tb;text-anchor:start;fill:#291b6c;fill-opacity:1;stroke:none;font-family:Arial Black;-inkscape-font-specification:Arial Black"
       d="m 263.7611,987.37421 14.06117,0 c 2.77182,0 4.92776,0.3761 6.46786,1.1282 1.54002,0.7522 2.71174,1.8317 3.51518,3.2385 0.80338,1.4068 1.24954,3.0435 1.33853,4.9099 0.0889,1.8665 -0.0975,3.84439 -0.55919,5.93369 -0.72343,3.2733 -1.65703,5.8118 -2.80084,7.6156 -1.14386,1.8038 -2.51207,3.3151 -4.10462,4.5338 -1.59262,1.2188 -3.19268,2.0302 -4.80016,2.4341 -2.19856,0.5572 -4.1405,0.8357 -5.82588,0.8357 l -14.06117,0 z m 7.93166,6.9366 -3.69854,16.73549 2.31916,0 c 1.97788,0 3.43317,-0.2194 4.3659,-0.6582 0.93266,-0.4387 1.75662,-1.2048 2.47187,-2.2982 0.71519,-1.0934 1.34371,-2.8659 1.88552,-5.3174 0.7172,-3.24539 0.67889,-5.46699 -0.11495,-6.66489 -0.79387,-1.1979 -2.41656,-1.7968 -4.86802,-1.7968 z" />
    <path
       id="path3779"
       style="font-size:42.78941727px;font-style:normal;font-variant:normal;font-weight:normal;font-stretch:normal;text-align:start;line-height:125%;writing-mode:lr-tb;text-anchor:start;fill:#291b6c;fill-opacity:1;stroke:none;font-family:Arial Black;-inkscape-font-specification:Arial Black"
       d="m 303.63143,1002.5331 c 1.10511,-5.00047 3.35837,-8.89357 6.75981,-11.67937 3.4014,-2.7857 7.58841,-4.1786 12.56102,-4.1786 5.09793,0 8.72342,1.3685 10.87649,4.1055 2.153,2.737 2.68464,6.571 1.59499,11.50167 -0.79117,3.5798 -2.04234,6.5153 -3.75353,8.8066 -1.71125,2.2913 -3.84638,4.0742 -6.40536,5.3486 -2.55906,1.2745 -5.5379,1.9118 -8.93651,1.9118 -3.45437,0 -6.19167,-0.5502 -8.21191,-1.6506 -2.02026,-1.1004 -3.47059,-2.8415 -4.35103,-5.2233 -0.88043,-2.3818 -0.92508,-5.3626 -0.13397,-8.9423 z m 9.45537,0.042 c -0.68339,3.0922 -0.59979,5.3138 0.25076,6.6649 0.85051,1.3511 2.26473,2.0267 4.24264,2.0267 2.03359,0 3.75378,-0.6617 5.16054,-1.9849 1.40671,-1.3232 2.48871,-3.6981 3.246,-7.1246 0.63718,-2.88327 0.52123,-4.98997 -0.34783,-6.32017 -0.8691,-1.3302 -2.29956,-1.9953 -4.29137,-1.9953 -1.90826,0 -3.58972,0.6755 -5.0444,2.0266 -1.45469,1.3511 -2.52681,3.5867 -3.21634,6.70677 z" />
    <path
       id="path3781"
       style="font-size:42.78941727px;font-style:normal;font-variant:normal;font-weight:normal;font-stretch:normal;text-align:start;line-height:125%;writing-mode:lr-tb;text-anchor:start;fill:#291b6c;fill-opacity:1;stroke:none;font-family:Arial Black;-inkscape-font-specification:Arial Black"
       d="m 355.45041,987.72776 8.83785,0 7.78835,16.94454 3.74473,-16.94454 8.92143,0 -6.76912,30.62954 -8.92143,0 -7.7534,-16.819 -3.717,16.819 -8.90053,0 z" />
    <path
       id="path3783"
       style="font-size:42.78941727px;font-style:normal;font-variant:normal;font-weight:normal;font-stretch:normal;text-align:start;line-height:125%;writing-mode:lr-tb;text-anchor:start;fill:#291b6c;fill-opacity:1;stroke:none;font-family:Arial Black;-inkscape-font-specification:Arial Black"
       d="m 403.07337,987.37421 25.36443,0 -1.44525,6.5396 -15.87889,0 -1.07585,4.8681 14.72976,0 -1.38061,6.24709 -14.72976,0 -1.33444,6.0382 16.33854,0 -1.53297,6.9365 -25.82408,0 z" />
    <path
       id="path3785"
       style="font-size:42.78941727px;font-style:normal;font-variant:normal;font-weight:normal;font-stretch:normal;text-align:start;line-height:125%;writing-mode:lr-tb;text-anchor:start;fill:#291b6c;fill-opacity:1;stroke:none;font-family:Arial Black;-inkscape-font-specification:Arial Black"
       d="m 439.5033,1007.3402 9.12967,-0.5641 c -0.12823,1.4625 0.0225,2.5768 0.45213,3.3429 0.70103,1.2397 1.95694,1.8595 3.7677,1.8595 1.35108,0 2.4623,-0.3169 3.33363,-0.9506 0.87132,-0.6338 1.39932,-1.3685 1.58405,-2.2043 0.17543,-0.7939 -0.0158,-1.5043 -0.57369,-2.1311 -0.55794,-0.6268 -2.04288,-1.2187 -4.45476,-1.7759 -3.94458,-0.9332 -6.63048,-2.1729 -8.05775,-3.719 -1.44121,-1.54612 -1.89708,-3.51702 -1.36761,-5.91282 0.34784,-1.5739 1.13261,-3.0608 2.35433,-4.4607 1.22168,-1.3998 2.83686,-2.5002 4.84553,-3.3012 2.00862,-0.8008 4.6078,-1.2013 7.79752,-1.2013 3.91398,0 6.7374,0.7278 8.47025,2.1833 1.73279,1.4556 2.44328,3.7713 2.13148,6.947 l -9.03687,0.5224 c 0.0679,-1.379 -0.20839,-2.3818 -0.82894,-3.0087 -0.62064,-0.6267 -1.59953,-0.9401 -2.93666,-0.9402 -1.10041,10e-5 -1.98074,0.2334 -2.641,0.7 -0.66029,0.4666 -1.0643,1.0342 -1.21205,1.7028 -0.10775,0.4875 0.0251,0.9263 0.3986,1.3162 0.35643,0.404 1.3319,0.7801 2.92642,1.1283 3.93985,0.8914 6.70389,1.7933 8.29213,2.7057 1.58821,0.91232 2.64045,2.04402 3.15672,3.39512 0.51622,1.3511 0.58964,2.8624 0.22027,4.5339 -0.43405,1.9639 -1.37747,3.7747 -2.8302,5.4322 -1.45278,1.6575 -3.24885,2.9146 -5.38816,3.7712 -2.13939,0.8567 -4.69249,1.285 -7.65931,1.285 -5.2094,0 -8.59533,-1.0029 -10.1578,-3.0087 -1.56249,-2.0057 -2.13436,-4.5547 -1.71563,-7.6469 z" />
    <path
       id="path3787"
       style="font-size:42.78941727px;font-style:normal;font-variant:normal;font-weight:normal;font-stretch:normal;text-align:start;line-height:125%;writing-mode:lr-tb;text-anchor:start;fill:#291b6c;fill-opacity:1;stroke:none;font-family:Arial Black;-inkscape-font-specification:Arial Black"
       d="m 488.1186,987.55099 9.48554,0 -6.76912,30.62951 -9.48554,0 z" />
    <path
       id="path3789"
       style="font-size:42.78941727px;font-style:normal;font-variant:normal;font-weight:normal;font-stretch:normal;text-align:start;line-height:125%;writing-mode:lr-tb;text-anchor:start;fill:#291b6c;fill-opacity:1;stroke:none;font-family:Arial Black;-inkscape-font-specification:Arial Black"
       d="m 529.23483,1013.1244 -10.78092,0 -2.60083,5.0561 -9.67358,0 18.28131,-30.62951 10.32128,0 4.74307,30.62951 -9.90341,0 z m -0.52113,-6.6232 -0.95135,-11.01071 -5.79717,11.01071 z" />
  </g>
</svg>
