<?xml version="1.0" encoding="UTF-8" standalone="no"?>
<!-- Created with Inkscape (http://www.inkscape.org/) -->

<svg
   xmlns:osb="http://www.openswatchbook.org/uri/2009/osb"
   xmlns:dc="http://purl.org/dc/elements/1.1/"
   xmlns:cc="http://creativecommons.org/ns#"
   xmlns:rdf="http://www.w3.org/1999/02/22-rdf-syntax-ns#"
   xmlns:svg="http://www.w3.org/2000/svg"
   xmlns="http://www.w3.org/2000/svg"
   xmlns:sodipodi="http://sodipodi.sourceforge.net/DTD/sodipodi-0.dtd"
   xmlns:inkscape="http://www.inkscape.org/namespaces/inkscape"
   id="svg3847"
   version="1.1"
   inkscape:version="0.48.0 r9654"
   width="556"
   height="680"
   sodipodi:docname="Telkom_Logo_(Formerly_PERUMTEL)_(1974-1991).svg">
  <metadata
     id="metadata3853">
    <rdf:RDF>
      <cc:Work
         rdf:about="">
        <dc:format>image/svg+xml</dc:format>
        <dc:type
           rdf:resource="http://purl.org/dc/dcmitype/StillImage" />
        <dc:title></dc:title>
      </cc:Work>
    </rdf:RDF>
  </metadata>
  <defs
     id="defs3851">
    <linearGradient
       id="linearGradient4514"
       osb:paint="solid">
      <stop
         style="stop-color:#000000;stop-opacity:1;"
         offset="0"
         id="stop4516" />
    </linearGradient>
  </defs>
  <sodipodi:namedview
     pagecolor="#ffffff"
     bordercolor="#666666"
     borderopacity="1"
     objecttolerance="10"
     gridtolerance="10"
     guidetolerance="10"
     inkscape:pageopacity="0"
     inkscape:pageshadow="2"
     inkscape:window-width="1280"
     inkscape:window-height="938"
     id="namedview3849"
     showgrid="false"
     inkscape:zoom="0.8520599"
     inkscape:cx="373.18914"
     inkscape:cy="370.41284"
     inkscape:window-x="-4"
     inkscape:window-y="-4"
     inkscape:window-maximized="1"
     inkscape:current-layer="svg3847"
     showguides="true"
     inkscape:guide-bbox="true" />
  <rect
     style="fill:#000000;fill-opacity:1;stroke:none"
     id="rect4425"
     width="529.23657"
     height="524.86273"
     x="13.850548"
     y="14.444851"
     ry="109.22976" />
  <rect
     ry="70.836914"
     y="48.50161"
     x="45.894402"
     height="460.88257"
     width="467.78564"
     id="rect4454"
     style="fill:#052750;fill-opacity:1;stroke:none" />
  <rect
     style="fill:#ffffff;fill-opacity:1;stroke:none"
     id="rect4456"
     width="431.8634"
     height="422.2822"
     x="65.914474"
     y="68.83252"
     ry="66.083633" />
  <rect
     ry="64.176468"
     y="87.124641"
     x="84.925598"
     height="387.73291"
     width="394.51706"
     id="rect4458"
     style="fill:#052750;fill-opacity:1;stroke:none" />
  <rect
     style="fill:#ffffff;fill-opacity:1;stroke:none"
     id="rect3857"
     width="330.14249"
     height="313.51059"
     x="116.83971"
     y="124.2646"
     ry="30.514286" />
  <path
     sodipodi:type="arc"
     style="fill:#052750;fill-opacity:1;stroke:none"
     id="path4367"
     sodipodi:cx="275.25772"
     sodipodi:cy="281.03091"
     sodipodi:rx="172.16495"
     sodipodi:ry="164.94846"
     d="m 447.42267,281.03091 a 172.16495,164.94846 0 1 1 -344.3299,0 172.16495,164.94846 0 1 1 344.3299,0 z"
     transform="matrix(0.85921872,0,0,0.90592105,40.133807,24.963052)" />
  <rect
     style="fill:#ffffff;fill-opacity:1;stroke:none"
     id="rect4369"
     width="11.755816"
     height="307.2951"
     x="275.54318"
     y="127.07742"
     ry="0" />
  <rect
     style="fill:#ffffff;fill-opacity:1;stroke:none"
     id="rect4371"
     width="309.56982"
     height="10.743353"
     x="130.73114"
     y="200.38614" />
  <rect
     style="fill:#ffffff;fill-opacity:1;stroke:none"
     id="rect4373"
     width="325.24423"
     height="10.743353"
     x="119.71985"
     y="278.40244" />
  <rect
     style="fill:#ffffff;fill-opacity:1;stroke:none"
     id="rect4375"
     width="328.18317"
     height="11.72002"
     x="118.74023"
     y="351.76974" />
  <path
     style="fill:#ffffff;fill-opacity:1;stroke:none"
     d="m 277.48325,432.85357 c 0,0 -67.86492,-51.15427 -74.49684,-151.61948 -5.56632,-84.3229 74.8432,-155.34049 74.8432,-155.34049 l -0.4548,18.32697 c 0,0 -64.46158,50.66359 -61.95595,138.85743 2.18746,76.99441 61.44903,131.44007 61.44903,131.44007 z"
     id="path4377"
     inkscape:connector-curvature="0"
     sodipodi:nodetypes="csccscc" />
  <path
     sodipodi:nodetypes="csccscc"
     inkscape:connector-curvature="0"
     id="path4379"
     d="m 285.10017,433.54418 c 0,0 67.28226,-51.15427 73.85723,-151.61948 5.51853,-84.3229 -74.20062,-155.34048 -74.20062,-155.34048 l 0.4509,18.32696 c 0,0 63.90814,50.6636 61.42402,138.85743 -2.16868,76.99441 -60.92146,131.44007 -60.92146,131.44007 z"
     style="fill:#ffffff;fill-opacity:1;stroke:none" />
  <path
     style="fill:#ffffff;fill-opacity:1;stroke:none"
     d="m 85.632987,282.77275 39.311753,0.17265 4.70439,71.92333 -12.84382,-36.52962 z"
     id="path4381"
     inkscape:connector-curvature="0"
     sodipodi:nodetypes="ccccc" />
  <path
     sodipodi:nodetypes="ccccc"
     inkscape:connector-curvature="0"
     id="path4385"
     d="m 443.76824,282.9454 34.98227,0.0432 -43.26634,-48.28578 -4.18485,9.74116 z"
     style="fill:#ffffff;fill-opacity:1;stroke:none" />
  <path
     style="fill:#000000;fill-opacity:1;stroke:none"
     d="m 15.135622,653.44858 16.766449,0 -0.182244,-28.97679 -0.212726,-37.65127 17.587793,0.14143 c 0,0 10.186387,-0.3321 10.522378,12.1405 0.303534,11.26773 -9.594428,11.51185 -9.594428,11.51185 l -18.799862,-0.087 -0.334295,14.36757 21.372265,-0.10333 c 0,0 24.799435,0.89172 24.746513,-25.83389 -0.05302,-26.77544 -26.515719,-26.37201 -26.515719,-26.37201 L 23.70109,572.8967 c 0,0 -4.4866,-0.15746 -6.177513,1.53948 -3.062636,3.07357 -2.479077,6.93486 -2.479077,6.93486 z"
     id="path4512"
     inkscape:connector-curvature="0"
     sodipodi:nodetypes="cccccsccccsccscc" />
  <path
     style="fill:#000000;fill-opacity:1;stroke:none"
     d="m 137.95056,653.16495 -57.929941,-0.19055 0.24836,-72.91324 c 0,0 0.08974,-3.92085 2.180424,-5.70787 1.768683,-1.51179 5.456642,-1.27859 5.456642,-1.27859 l 50.106605,0.12703 0.0621,13.84589 -40.60683,0 0.0621,16.70399 29.6169,0.0635 0,8.38375 c 0,0 -0.0363,2.51247 -1.76989,4.45721 -1.38291,1.55128 -4.50119,1.70358 -4.50119,1.70358 l -23.53209,0.19057 0.24835,18.6729 40.42057,0.12703 z"
     id="path4534"
     inkscape:connector-curvature="0"
     sodipodi:nodetypes="cccscccccccsccccc" />
  <path
     sodipodi:nodetypes="cccccsccccscscscsccccscc"
     inkscape:connector-curvature="0"
     id="path4536"
     d="m 139.94543,653.44858 17.81253,0 -0.19361,-28.97679 -0.226,-37.65127 18.68513,0.14143 c 0,0 10.82192,-0.3321 11.17889,12.1405 0.32247,11.26773 -10.19305,11.51185 -10.19305,11.51185 l -19.97281,-0.087 -0.35515,14.36757 22.70572,-0.10333 c 0,0 8.37169,-0.88186 8.50968,3.72851 0.11597,3.87433 0.48849,18.7871 0.48849,18.7871 0,0 -0.68593,6.20481 2.68258,6.22663 1.22116,0.008 16.25493,-0.0213 16.25493,-0.0213 0,0 -2.55346,-2.80991 -2.624,-7.04008 -0.0521,-3.12353 -0.2977,-7.48586 -0.2977,-7.48586 0,0 0.50876,-11.39019 -1.36696,-15.68809 -2.77217,-6.35195 -7.95251,-8.93989 -7.95251,-8.93989 0,0 10.61548,-6.14918 10.59601,-15.40094 -0.0563,-26.77544 -28.17007,-26.37201 -28.17007,-26.37201 l -28.46218,0.31106 c 0,0 -4.76653,-0.15746 -6.56294,1.53948 -3.25372,3.07357 -2.63375,6.93486 -2.63375,6.93486 z"
     style="fill:#000000;fill-opacity:1;stroke:none" />
  <path
     style="fill:#000000;fill-opacity:1;stroke:none"
     d="m 228.2165,573.01031 -10.18042,-0.12887 c 0,0 -3.39358,0.0208 -5.25035,1.47039 -1.63993,1.28026 -1.45068,5.87497 -1.45068,5.87497 l -0.25773,49.61341 c 0,0 -0.0124,9.37459 3.99485,14.43299 7.82568,8.1147 15.41033,11.11776 28.99484,11.21134 12.26024,0.0844 21.73571,-4.27431 25.51546,-8.3763 C 275.67613,640.49508 275.89691,631 275.89691,631 l -0.25773,-58.37629 -17.13918,0 0.64433,56.31443 c 0,0 -1.04559,12.55878 -15.20619,12.5 -15.84457,-0.0658 -16.10824,-11.3402 -16.10824,-11.3402 z"
     id="path4538"
     inkscape:connector-curvature="0"
     sodipodi:nodetypes="ccscccssccccscc" />
  <path
     style="fill:#000000;fill-opacity:1;stroke:none"
     d="m 294.19588,653.93814 -15.20619,0 0,-73.8402 c 0,0 0.4206,-4.74922 2.15851,-6.0895 1.67779,-1.2939 5.05799,-0.99813 5.05799,-0.99813 l 17.26804,0 15.97938,61.59794 15.72165,-61.85567 24.74227,0 0.12886,81.18556 -15.07732,0 -0.12886,-64.56185 -17.13918,64.69072 -16.75258,-0.3866 -16.62371,-64.43299 z"
     id="path4540"
     inkscape:connector-curvature="0"
     sodipodi:nodetypes="cccscccccccccccc" />
  <path
     sodipodi:nodetypes="cccscccccccsccccc"
     inkscape:connector-curvature="0"
     id="path4542"
     d="m 489.2384,653.16495 -58.3157,-0.19115 0.25,-73.14781 c 0,0 0.0903,-3.93347 2.19494,-5.72624 1.78047,-1.51665 5.49298,-1.2827 5.49298,-1.2827 l 50.44029,0.12744 0.0625,13.89044 -40.87725,0 0.0625,16.75771 29.81414,0.0637 0,8.41071 c 0,0 -0.0364,2.52056 -1.78167,4.47154 -1.39213,1.55628 -4.53118,1.70907 -4.53118,1.70907 l -23.6888,0.19119 0.25001,18.73297 40.68975,0.12743 z"
     style="fill:#000000;fill-opacity:1;stroke:none" />
  <path
     style="fill:#000000;fill-opacity:1;stroke:none"
     d="m 364.1701,578.68041 c 0,0 -0.0606,-2.88802 1.11729,-4.28105 1.40024,-1.65605 5.19715,-1.64678 5.19715,-1.64678 l 57.60309,0 -0.12887,14.30412 -23.8402,-0.12887 0,66.23712 -16.10825,0.12886 0.12887,-66.62371 -23.96908,0.25773 z"
     id="path4544"
     inkscape:connector-curvature="0"
     sodipodi:nodetypes="csccccccccc" />
  <path
     style="fill:#000000;fill-opacity:1;stroke:none"
     d="m 492.90722,579.84021 c 0,0 -0.29531,-3.38846 1.62709,-5.55048 1.50099,-1.68808 4.55847,-1.53715 4.55847,-1.53715 l 10.18042,0 -0.12887,65.85051 38.91753,0 0,14.69072 -55.15464,-0.12886 z"
     id="path4546"
     inkscape:connector-curvature="0"
     sodipodi:nodetypes="csccccccc" />
  <path
     sodipodi:nodetypes="cccc"
     inkscape:connector-curvature="0"
     id="path4548"
     d="m 43.325775,282.14063 -29.883637,-0.0377 0.0082,30.97935 z"
     style="fill:#ffffff;fill-opacity:1;stroke:none" />
  <path
     style="fill:#ffffff;fill-opacity:1;stroke:none"
     d="m 545.79359,282.9187 -31.05394,-0.15015 30.83703,-35.63012 z"
     id="path4552"
     inkscape:connector-curvature="0"
     sodipodi:nodetypes="cccc" />
</svg>
