<?xml version="1.0" encoding="UTF-8" standalone="no"?>
<!-- Created with Inkscape (http://www.inkscape.org/) -->
<svg
   xmlns:svg="http://www.w3.org/2000/svg"
   xmlns="http://www.w3.org/2000/svg"
   version="1.0"
   width="285pt"
   height="80pt"
   id="svg1501">
  <defs
     id="defs1504" />
  <g
     transform="matrix(0.504631,0,0,0.504631,-12.40792,-147.0108)"
     id="g1553">
    <path
       d="M 33.692258,484.4315 C 33.542376,484.20009 34.54127,483.32671 35.912022,482.49065 C 39.908262,480.05325 46.414149,474.70469 54.328172,467.35054 C 62.463031,459.79118 64.457238,458.33597 70.167525,455.79225 C 78.203703,452.21244 74.432927,452.4541 124.83269,452.2889 C 153.2722,452.19568 169.84953,452.30069 169.74619,452.5734 C 169.65612,452.81114 167.65754,454.2095 165.30493,455.68088 C 160.07864,458.94952 154.43746,463.44186 146.28342,470.82862 C 138.97083,477.4531 136.45651,479.28175 131.74501,481.40229 C 124.2645,484.76909 127.52399,484.56712 78.247467,484.7173 C 51.372431,484.79921 33.857645,484.68686 33.692258,484.4315 z M 171.52207,484.4315 C 171.37219,484.20009 172.37108,483.32671 173.74183,482.49065 C 177.73807,480.05325 184.24396,474.70469 192.15798,467.35054 C 200.29284,459.79118 202.28705,458.33597 207.99734,455.79225 C 216.03351,452.21244 212.26274,452.4541 262.6625,452.2889 C 291.10201,452.19568 307.67934,452.30069 307.576,452.5734 C 307.48593,452.81114 305.48736,454.20995 303.13474,455.68187 C 297.81312,459.01136 292.07182,463.56913 284.26435,470.66225 C 276.89364,477.35857 274.23593,479.30443 269.62784,481.37842 C 262.08595,484.77286 265.38736,484.56701 216.07728,484.7173 C 189.20224,484.79921 171.68746,484.68686 171.52207,484.4315 z M 309.55096,484.14521 C 309.55096,483.77106 309.75567,483.46493 310.00588,483.46493 C 311.27725,483.46493 321.22646,475.52919 328.7996,468.47459 C 338.13127,459.78189 340.00668,458.38504 345.82715,455.79225 C 353.86292,452.21261 350.09806,452.45409 400.44734,452.28895 C 428.30208,452.19758 445.47967,452.30363 445.47967,452.56697 C 445.47967,452.80112 444.46377,453.55672 443.22211,454.24607 C 437.75476,457.28149 431.39464,462.25081 421.29512,471.3782 C 412.05104,479.73248 407.18443,482.54531 399.27821,484.10364 C 396.08654,484.73272 390.08517,484.8255 352.5834,484.8255 C 314.64919,484.8255 309.55096,484.7449 309.55096,484.14521 z M 447.38077,484.49015 C 447.38077,484.29102 449.25217,482.86717 451.53943,481.32603 C 456.39328,478.05556 466.59271,469.33118 469.96247,465.56736 C 473.24503,461.90094 478.19462,458.34209 483.23788,456.02208 C 491.57225,452.18809 487.63642,452.45505 538.27715,452.28895 C 565.47544,452.19973 583.30948,452.30644 583.30948,452.55838 C 583.30948,452.7878 581.86583,453.79867 580.10137,454.80474 C 575.57566,457.38524 568.00624,463.31 560.39751,470.22732 C 552.78388,477.14907 550.06265,479.18316 545.5251,481.34426 C 538.37145,484.75133 541.60246,484.54849 491.93782,484.70857 C 467.43144,484.78757 447.38077,484.68927 447.38077,484.49015 z M 585.21058,484.47821 C 585.21058,484.27252 586.82181,483.03536 588.79107,481.72897 C 593.25979,478.76449 602.02653,471.37332 608.23206,465.33844 C 614.81005,458.94134 620.59453,455.44672 628.24014,453.25077 C 630.86376,452.49722 634.42471,452.42567 676.10696,452.28895 C 716.32642,452.15703 721.13929,452.21558 721.13929,452.83683 C 721.13929,453.2194 720.93944,453.53241 720.69514,453.53241 C 719.83504,453.53241 711.7806,458.94729 707.80958,462.19518 C 705.59979,464.00257 701.43885,467.63987 698.56305,470.27805 C 692.29108,476.03185 687.83143,479.29004 683.35491,481.38897 C 676.19831,484.74453 679.35908,484.54872 629.76763,484.70857 C 605.26125,484.78757 585.21058,484.6839 585.21058,484.47821 z "
       style="fill:#0037ef"
       id="path1546" />
    <path
       d="M 350.698,422.66071 C 343.8982,422.19661 334.3149,421.03336 328.08669,419.91608 C 322.52381,418.91816 312.69851,416.52655 311.36599,415.84605 C 310.56248,415.4357 310.50151,414.52791 310.50151,402.9754 C 310.50151,395.67695 310.68657,390.43711 310.94982,390.28186 C 311.19639,390.13645 312.80367,390.83838 314.52155,391.84172 C 325.96487,398.52525 337.63088,402.56161 350.79223,404.39115 C 358.46873,405.45826 374.4889,405.48078 379.23364,404.43115 C 391.24895,401.77312 396.71959,397.37504 396.68075,390.40465 C 396.64904,384.71315 393.41947,380.48826 386.84445,377.5369 C 381.5454,375.15828 376.26697,373.92489 360.77287,371.44483 C 352.85942,370.17817 344.13911,368.61667 341.3944,367.97483 C 326.128,364.40485 316.99114,358.84953 312.28324,350.27488 C 309.91912,345.96902 309.07477,342.61248 308.76699,336.29672 C 308.42498,329.27869 309.53365,323.75831 312.43304,318.04233 C 314.10026,314.75549 315.16287,313.40645 318.76635,310.00176 C 325.25187,303.87403 332.6995,300.31591 343.77077,298.05585 C 358.12508,295.12561 377.62478,295.34729 397.47687,298.66641 C 404.28555,299.80477 416.67184,302.64918 418.74544,303.55057 L 419.81481,304.01542 L 419.81481,317.32155 C 419.81481,324.63992 419.68885,330.62768 419.53491,330.62768 C 419.38097,330.62768 417.40976,329.30617 415.15444,327.691 C 405.58467,320.83748 391.28337,315.99474 375.474,314.25432 C 369.28647,313.57314 356.31192,313.95747 352.56336,314.93296 C 347.94067,316.13594 343.09274,318.62823 341.03383,320.86023 C 336.75549,325.49822 337.09594,331.68531 341.85478,335.77983 C 345.94161,339.29616 351.39009,340.81937 371.33674,344.02196 C 394.99444,347.82039 404.51857,350.85537 413.49052,357.45476 C 419.31718,361.74061 423.46939,368.55227 425.05946,376.4335 C 425.8123,380.16502 425.68734,389.28968 424.83073,393.13392 C 420.99216,410.36051 405.7789,420.17168 379.0096,422.68438 C 373.45159,423.20608 358.5054,423.19358 350.698,422.66071 z M 504.41379,422.41232 C 481.77521,420.44295 463.78361,413.34173 451.13457,401.38319 C 436.0437,387.11611 430.69816,367.10728 436.30328,345.86829 C 441.72136,325.33801 458.5013,309.54068 483.35308,301.57366 C 501.886,295.63235 525.6383,294.38936 550.98093,298.03462 C 554.50447,298.54144 557.55218,299.05331 557.7536,299.17212 C 558.1582,299.41071 558.27155,329.26711 557.8679,329.26711 C 557.72931,329.26711 555.88467,327.86035 553.7688,326.14098 C 547.74858,321.24897 541.47433,318.11046 533.52069,316.01244 C 530.35831,315.17828 528.57151,315.04159 520.81079,315.04013 C 512.53283,315.03858 511.38461,315.1391 507.02781,316.24679 C 497.98014,318.54709 488.66606,323.89022 483.34649,329.83187 C 478.19195,335.58919 474.26247,343.83011 473.00576,351.51849 C 472.09709,357.07768 472.68708,367.20082 474.20676,372.12503 C 476.60668,379.90153 479.93951,385.34962 485.49672,390.58047 C 498.77032,403.07454 522.59312,406.67972 541.70669,399.0869 C 546.21624,397.29549 551.2727,394.16976 555.92688,390.29649 C 557.89528,388.65835 559.62171,387.31805 559.76339,387.31805 C 559.90507,387.31805 560.02099,393.84161 560.02099,401.81483 C 560.02099,415.16172 559.95503,416.34435 559.18926,416.72432 C 557.10052,417.76075 543.31721,420.45546 534.32215,421.58596 C 529.11499,422.2404 508.86817,422.79981 504.41379,422.41232 z M 631.31227,421.05312 C 609.91101,419.19324 592.9589,412.21924 581.13833,400.41186 C 570.37624,389.66186 565.24902,376.94204 565.24902,360.99321 C 565.24902,344.57864 570.93436,331.46183 583.03686,319.95445 C 595.30752,308.28719 611.66734,301.16396 631.9307,298.66557 C 639.18583,297.77105 653.36091,297.76557 660.4676,298.65454 C 687.47635,302.03304 707.87274,315.29846 716.67289,335.2094 C 722.50732,348.41023 723.03778,364.29252 718.10537,378.09955 C 715.17544,386.30121 710.22398,393.5872 703.11567,400.15674 C 691.66467,410.73979 676.38685,417.37442 656.97714,420.19317 C 652.17267,420.89089 635.76979,421.4405 631.31227,421.05312 z M 653.3149,402.30815 C 667.04332,398.95771 677.65874,388.89841 682.30645,374.83544 C 684.11644,369.35878 684.69381,364.55292 684.41986,357.24409 C 684.0222,346.63442 680.94835,337.97239 674.89416,330.40092 C 664.48972,317.38891 646.53624,312.39018 629.39026,317.73141 C 608.10511,324.36207 596.59523,349.00677 603.31818,373.55644 C 607.68116,389.48825 620.81782,401.00864 637.10726,403.18823 C 641.30727,403.7502 649.15135,403.32427 653.3149,402.30815 z M 89.258895,418.15452 C 89.096236,417.90338 89.411339,417.09729 89.959122,416.36321 C 91.879581,413.78961 93.251121,410.18633 93.764413,406.36602 C 94.114515,403.76027 94.238819,388.84343 94.148003,360.33344 L 94.013652,318.1558 L 86.206169,318.2587 C 69.065273,318.48463 52.787169,321.81136 44.175898,326.84836 C 41.942065,328.155 41.308134,328.35377 40.975068,327.85198 C 40.511522,327.1536 40.379739,302.08782 40.833678,300.95902 C 41.094915,300.3094 47.66705,300.24164 110.41065,300.24164 C 173.15424,300.24164 179.72638,300.3094 179.98761,300.95902 C 180.44467,302.09557 180.30814,327.15604 179.84106,327.85996 C 179.49952,328.37467 178.95207,328.21857 176.92534,327.0286 C 171.37108,323.76744 160.43044,320.52967 150.09613,319.08877 C 143.28587,318.13923 133.45845,317.38436 130.13457,317.55547 L 127.28292,317.70227 L 127.15214,359.87991 C 127.00002,408.93935 127.03591,409.51449 130.60105,415.16403 C 131.5167,416.61502 132.14798,417.98421 132.0039,418.20667 C 131.62864,418.78606 89.634747,418.73483 89.258895,418.15452 z M 190.73216,418.01335 C 190.73216,417.68241 191.36598,416.29497 192.14066,414.93013 C 195.23431,409.47975 195.14372,410.90212 195.35848,364.40437 C 195.47434,339.31819 195.36413,319.64645 195.0866,315.87741 C 194.5925,309.16708 193.69171,305.93826 191.42427,302.74991 C 190.7822,301.84708 190.25688,300.91245 190.25688,300.67295 C 190.25688,300.39671 208.63363,300.27971 240.51723,300.35295 L 290.77759,300.4684 L 290.90373,313.81767 C 290.9731,321.15977 290.84913,327.3394 290.62824,327.55018 C 290.40735,327.76096 288.99559,327.22606 287.491,326.36151 C 281.87795,323.13621 272.14577,320.48481 260.39916,318.98073 C 255.77846,318.38908 250.82429,318.18089 241.11133,318.17019 L 228.04126,318.1558 L 228.04126,333.57558 L 228.04126,348.99536 L 236.35858,349.14063 C 246.22682,349.31299 257.419,348.58936 263.54651,347.38281 C 265.97634,346.90436 268.23172,346.51022 268.55847,346.50694 C 269.01864,346.50233 269.15257,349.15312 269.15257,358.26582 C 269.15257,364.73647 268.99216,370.12315 268.79611,370.23621 C 268.60006,370.34927 266.90941,370.06933 265.03911,369.61413 C 259.02932,368.15144 249.08647,367.25237 238.25968,367.19265 L 228.04126,367.13628 L 227.91652,383.56643 L 227.79179,399.99658 L 229.0706,400.30285 C 230.76817,400.70942 256.57579,400.1243 263.21163,399.5288 C 276.93019,398.2977 287.75822,395.50145 294.78644,391.37486 C 296.03761,390.64024 297.20109,390.03919 297.37196,390.03919 C 297.54282,390.03919 297.6261,396.41686 297.55703,404.21179 L 297.43144,418.38438 L 244.0818,418.49971 C 200.01269,418.59499 190.73216,418.51038 190.73216,418.01335 z "
       style="fill:#fe0016"
       id="path1544" />
  </g>
</svg>
