<?xml version="1.0" encoding="UTF-8" standalone="no"?>
<!-- Created with Inkscape (http://www.inkscape.org/) -->
<svg
   xmlns:dc="http://purl.org/dc/elements/1.1/"
   xmlns:cc="http://web.resource.org/cc/"
   xmlns:rdf="http://www.w3.org/1999/02/22-rdf-syntax-ns#"
   xmlns:svg="http://www.w3.org/2000/svg"
   xmlns="http://www.w3.org/2000/svg"
   xmlns:xlink="http://www.w3.org/1999/xlink"
   xmlns:sodipodi="http://sodipodi.sourceforge.net/DTD/sodipodi-0.dtd"
   xmlns:inkscape="http://www.inkscape.org/namespaces/inkscape"
   width="594"
   height="150"
   id="svg2"
   sodipodi:version="0.32"
   inkscape:version="0.45.1"
   version="1.0"
   inkscape:output_extension="org.inkscape.output.svg.inkscape">
  <g
     inkscape:label="Layer 1"
     inkscape:groupmode="layer"
     id="layer1"
     transform="translate(291.82567,-41.704932)">
    <g
       id="g3361"
       clip-path="url(#id355)"
       transform="matrix(1,0,0,-1,-706.33055,800.32803)">
        <path
   id="path3363"
   d="M 680.187,436.703 C 680.187,437.107 680.723,437.435 681.383,437.435 C 682.043,437.435 682.579,437.107 682.579,436.703 C 682.579,436.299 682.043,435.971 681.383,435.971 C 680.723,435.971 680.187,436.299 680.187,436.703"
   style="fill:#213f9a;fill-rule:nonzero;stroke:none" />

        <path
   id="path3365"
   d="M 710.059,435.595 L 710.059,433.923 C 710.059,433.923 709.65,434.201 709.408,434.277 C 708.858,434.45 708.09,434.619 707.723,434.328 C 707.661,434.279 707.632,434.208 707.603,434.136 C 707.573,434.059 707.582,433.948 707.669,433.888 C 708.397,433.385 709.935,433.65 710.231,432.288 C 710.42,431.425 710.097,430.681 709.357,430.197 C 708.243,429.469 706.614,429.946 706.139,430.286 C 706.067,430.337 705.962,430.425 705.962,430.425 L 705.965,432.006 C 706.575,431.58 707.362,431.128 708.166,431.408 C 708.246,431.436 708.362,431.483 708.424,431.55 C 708.538,431.671 708.581,431.841 708.458,431.971 C 708.09,432.359 707.371,432.133 706.772,432.465 C 706.107,432.836 705.784,433.281 705.771,433.889 C 705.553,434.052 705.476,434.158 704.872,434.049 C 703.924,433.879 703.921,432.19 703.921,431.971 L 703.921,430.041 L 701.97,430.033 L 701.97,435.875 L 703.749,435.877 L 703.747,434.77 C 704.013,435.302 704.402,436 705.138,436.051 C 705.559,436.081 705.971,436.039 706.174,435.735 L 706.172,435.4 C 706.869,436.11 707.552,436.11 708.12,436.15 C 709.071,436.218 710.059,435.595 710.059,435.595"
   style="fill:#213f9a;fill-rule:nonzero;stroke:none" />

      </g>
    <path
       id="path3367"
       d="M -8.1745417,364.44603 L -8.1745417,368.14103 C -8.1745417,368.30703 -8.0345417,368.54803 -7.8195417,368.67303 C -7.5715417,368.81803 -7.3415417,368.80003 -7.0845417,368.67303 C -6.7175417,368.49403 -6.6535417,368.10303 -6.6405417,367.72303 L -6.6405417,364.45303 L -4.6895417,364.45103 L -4.6895417,370.30803 L -6.5535417,370.30803 L -6.5555417,369.35803 C -6.8215417,369.90303 -7.2185417,370.31803 -7.8575417,370.44703 C -8.4485417,370.56703 -8.9745417,370.52303 -9.4915417,370.13103 C -10.142542,369.63703 -10.176542,368.15303 -10.176542,368.15303 L -10.176542,364.45303 L -8.1745417,364.44603"
       style="fill:#213f9a;fill-rule:nonzero;stroke:none" />
    <path
       id="path3369"
       d="M -23.974538,364.45403 L -23.974538,370.28703 L -25.925538,370.28903 L -25.925538,364.45403 C -25.330538,364.59303 -24.570538,364.59303 -23.974538,364.45403"
       style="fill:#213f9a;fill-rule:nonzero;stroke:none" />
    <g
       id="g3371"
       clip-path="url(#id356)"
       transform="matrix(1,0,0,-1,-706.33055,800.32803)">
        <path
   id="path3373"
   d="M 690.573,434.595 C 690.922,435.514 691.687,436.13 693.175,436.13 C 695.411,436.13 696.026,434.72 696.026,432.98 C 696.026,431.24 695.411,429.83 693.175,429.83 C 690.94,429.83 690.325,431.24 690.325,432.98 C 690.325,433.373 690.316,433.737 690.389,434.084 C 690.389,434.067 688.577,434.083 688.577,434.083 L 688.588,432.144 C 688.604,431.974 688.545,431.854 688.615,431.693 C 688.784,431.308 689.243,431.314 689.667,431.465 C 689.92,431.554 690.267,431.849 690.267,431.849 L 690.279,430.481 C 690.279,430.481 690.044,430.271 689.933,430.197 C 689.089,429.638 687.644,429.869 687.348,430.147 C 686.927,430.542 686.678,431.086 686.628,431.776 L 686.626,433.698 C 686.66,433.892 686.243,434.07 685.942,434.1 C 685.453,434.149 685.167,433.844 684.852,433.466 C 684.569,433.128 684.616,432.281 684.629,431.951 L 684.624,430.041 L 682.673,430.042 L 682.673,435.876 L 684.466,435.874 L 684.467,434.784 C 685.053,435.992 685.283,435.859 685.625,436.001 C 686.076,436.187 686.714,435.899 686.714,435.899 C 686.714,435.899 687.198,435.972 687.627,437.597 C 687.931,437.597 688.579,437.597 688.579,437.597 L 688.577,435.874 L 690.527,435.875 L 690.529,434.593 L 690.573,434.595 z M 692.13,432.861 C 692.13,433.664 692.471,434.315 693.184,434.315 C 693.87,434.315 694.237,433.664 694.237,432.861 C 694.237,432.058 693.87,431.407 693.184,431.407 C 692.471,431.407 692.13,432.058 692.13,432.861"
   style="fill:#213f9a;fill-rule:evenodd;stroke:none" />

        <path
   id="path3375"
   d="M 679.771,435.228 C 679.96,434.94 680.088,434.024 680.037,433.327 L 680.037,430.039 L 678.434,430.037 L 678.438,430.726 C 678.121,430.422 677.786,430.06 677.275,429.881 C 676.714,429.684 675.799,429.848 675.463,430.197 C 675.084,430.591 674.761,431.176 674.956,431.87 C 675.406,433.474 677.486,433.208 678.187,433.695 C 678.336,433.798 678.395,434.014 678.276,434.151 C 677.713,434.796 676.853,434.514 676.046,434.189 C 675.659,434.032 675.146,433.609 675.146,433.609 L 675.139,435.308 C 675.139,435.308 675.53,435.527 675.78,435.646 C 677.239,436.342 679.089,436.264 679.771,435.228 z M 678.276,432.516 C 678.276,431.997 678.084,431.394 677.731,431.198 C 677.48,431.059 677.198,431.044 676.996,431.148 C 676.739,431.281 676.692,431.592 676.819,431.87 C 676.951,432.157 677.795,432.301 678.276,432.516"
   style="fill:#213f9a;fill-rule:evenodd;stroke:none" />

      </g>
    <path
       id="path3377"
       d="M 3.7454583,383.06703 L 0.44345833,383.06703 L -8.2055417,374.01703 L -10.543542,374.01703 L -4.0945417,383.06703 L -9.5805417,383.06603 L -9.5805417,385.96603 L -4.0955417,385.96903 L -10.470542,394.87803 L -8.1555417,394.87803 L 0.45745833,385.98803 L 3.7454583,385.98603 L 3.7454583,398.09803 L -31.189538,398.09503 L -31.184538,370.99203 L 3.7454583,371.04303 L 3.7454583,383.06703 z M -11.848542,378.39203 C -11.213542,379.57903 -10.898542,380.80503 -10.898542,381.71203 L -10.898542,390.60603 L -13.711542,390.60603 L -13.711542,381.66103 C -13.711542,380.06703 -15.581538,377.63803 -17.436538,377.07403 C -19.686538,376.39003 -22.099538,377.05403 -23.467538,378.75903 C -24.220538,379.69803 -24.696538,380.87503 -24.747538,382.15503 L -27.560538,382.15503 C -27.509538,379.07603 -25.788538,376.22403 -23.024538,374.85703 C -20.266538,373.49303 -16.903538,373.70303 -14.395542,375.52803 C -13.187542,376.40803 -12.553542,377.07403 -11.848542,378.39203 z M -14.938542,385.96603 L -21.899538,385.96903 C -22.929538,385.96903 -24.574538,387.09903 -24.574538,388.88203 C -24.574538,390.74203 -22.944538,391.96203 -21.899538,391.96203 L -10.898542,391.96103 L -10.898542,394.86403 L -21.653538,394.86403 C -22.944538,394.86403 -27.505538,393.81003 -27.505538,388.92203 C -27.505538,384.03303 -22.944538,383.06603 -21.671538,383.06603 L -14.940542,383.06703 L -14.938542,385.96603"
       style="fill:#213f9a;fill-rule:evenodd;stroke:none" />
    <g
       id="g6149"
       transform="matrix(14.99974,0,0,14.99974,1952.7638,-4987.1223)">
      <path
         style="fill:#da2128;fill-rule:nonzero;stroke:none"
         d="M -132.85159,344.29624 C -132.85159,344.40403 -132.87168,344.45498 -132.92949,344.4981 C -132.9927,344.54758 -133.13577,344.57355 -133.35184,344.57355 C -133.57477,344.57355 -133.71783,344.54758 -133.78104,344.4981 C -133.83885,344.45498 -133.85894,344.40403 -133.85894,344.29624 L -133.85894,341.10662 L -133.92067,341.11103 L -134.46649,341.15072 C -134.85551,341.17865 -134.87805,340.869 -134.87805,340.63627 C -134.87805,340.2247 -134.73596,340.11299 -134.49735,340.11299 L -132.24797,340.11299 C -132.05443,340.11299 -131.92116,340.16591 -131.86335,340.44322 C -131.79182,340.78717 -131.82807,340.96013 -132.14997,340.98316 L -132.80456,341.03019 L -132.85159,341.03362 L -132.85159,344.29624"
         id="path3591" />
      <path
         style="fill:#da2128;fill-rule:nonzero;stroke:none"
         d="M -128.84914,344.5226 C -128.90794,344.57355 -129.0461,344.59854 -129.25433,344.59854 C -129.47041,344.59854 -129.60269,344.57306 -129.661,344.52162 C -129.7193,344.47752 -129.73939,344.4251 -129.73939,344.3173 L -129.73939,342.81804 C -129.73939,342.52554 -129.86972,342.42852 -130.09608,342.42852 C -130.37437,342.42852 -130.59093,342.66909 -130.59093,342.93661 L -130.59093,344.3173 C -130.59093,344.42559 -130.61151,344.4785 -130.67031,344.5226 C -130.72959,344.57355 -130.86776,344.59854 -131.07599,344.59854 C -131.29206,344.59854 -131.42386,344.57306 -131.48265,344.52162 C -131.54096,344.47752 -131.56105,344.4251 -131.56105,344.3173 L -131.56105,340.54905 C -131.56105,340.41726 -131.54831,340.33788 -131.48363,340.27321 C -131.42631,340.21588 -131.27491,340.17571 -131.15879,340.14974 C -131.06031,340.13014 -130.90059,340.10368 -130.81974,340.10368 C -130.75948,340.10368 -130.68795,340.11691 -130.65022,340.14729 C -130.62082,340.17277 -130.60514,340.19776 -130.59779,340.23499 C -130.59436,340.25214 -130.5924,340.27223 -130.59191,340.29722 C -130.59093,340.32122 -130.59093,340.35013 -130.59093,340.38492 L -130.59093,341.9518 C -130.44542,341.76218 -130.173,341.60295 -129.76095,341.60295 C -129.17202,341.60295 -128.76928,341.95964 -128.76928,342.64705 L -128.76928,344.3173 C -128.76928,344.42559 -128.78986,344.4785 -128.84914,344.5226"
         id="path3593" />
      <path
         style="fill:#da2128;fill-rule:evenodd;stroke:none"
         d="M -126.65022,344.63823 C -127.54782,344.63823 -128.1877,344.02529 -128.1877,343.12034 C -128.1877,342.22225 -127.54782,341.60295 -126.65022,341.60295 C -125.75899,341.60295 -125.1196,342.22225 -125.1196,343.12034 C -125.1196,344.02529 -125.75899,344.63823 -126.65022,344.63823 z M -126.65022,342.3957 C -127.00397,342.3957 -127.20436,342.67154 -127.20436,343.12034 C -127.20436,343.56277 -127.00397,343.84548 -126.65022,343.84548 C -126.29647,343.84548 -126.10294,343.56963 -126.10294,343.12034 C -126.10294,342.67791 -126.29696,342.3957 -126.65022,342.3957"
         id="path3595" />
      <path
         style="fill:#da2128;fill-rule:nonzero;stroke:none"
         d="M -120.22053,344.5226 C -120.27981,344.57355 -120.41798,344.59854 -120.62621,344.59854 C -120.84228,344.59854 -120.97408,344.57306 -121.03287,344.52162 C -121.09069,344.47752 -121.11127,344.4251 -121.11127,344.3173 L -121.11127,342.76561 C -121.11127,342.52456 -121.21563,342.42852 -121.4219,342.42852 C -121.62866,342.42852 -121.84424,342.63088 -121.84424,342.8641 L -121.84424,344.3173 C -121.84424,344.42559 -121.86482,344.4785 -121.9241,344.5226 C -121.9829,344.57355 -122.12107,344.59854 -122.3293,344.59854 C -122.54537,344.59854 -122.67766,344.57306 -122.73596,344.52162 C -122.79427,344.47752 -122.81435,344.4251 -122.81435,344.3173 L -122.81435,342.76561 C -122.81435,342.52407 -122.91284,342.42852 -123.11862,342.42852 C -123.32587,342.42852 -123.54782,342.63088 -123.54782,342.8641 L -123.54782,344.3173 C -123.54782,344.42559 -123.5684,344.4785 -123.62719,344.5226 C -123.68648,344.57355 -123.82464,344.59854 -124.03287,344.59854 C -124.24895,344.59854 -124.38074,344.57306 -124.43905,344.52162 C -124.49735,344.47752 -124.51793,344.4251 -124.51793,344.3173 L -124.51793,342.07478 C -124.51793,341.94298 -124.5047,341.86361 -124.44003,341.79893 C -124.38319,341.7421 -124.24552,341.70192 -124.12842,341.67546 C -124.03043,341.65586 -123.87707,341.62941 -123.79574,341.62941 C -123.73596,341.62941 -123.66443,341.64264 -123.6267,341.67301 C -123.5973,341.69849 -123.58163,341.72348 -123.57428,341.76072 C -123.57085,341.77786 -123.56889,341.79795 -123.5684,341.82294 C -123.56742,341.84695 -123.56742,341.87585 -123.56742,341.91064 L -123.56742,341.98462 C -123.42778,341.78276 -123.13626,341.60295 -122.75703,341.60295 C -122.42533,341.60295 -122.14213,341.72985 -121.978,342.00373 C -121.79427,341.79109 -121.46894,341.60295 -121.09314,341.60295 C -120.5782,341.60295 -120.14116,341.89888 -120.14116,342.56179 L -120.14116,344.3173 C -120.14116,344.42559 -120.16173,344.4785 -120.22053,344.5226"
         id="path3597" />
      <path
         style="fill:#da2128;fill-rule:nonzero;stroke:none"
         d="M -118.23964,344.63823 C -118.8075,344.63823 -119.26511,344.47948 -119.43954,344.37218 C -119.58799,344.27811 -119.61249,344.21343 -119.61249,344.12671 C -119.61249,344.04293 -119.57085,343.94053 -119.51058,343.84695 C -119.45963,343.77002 -119.39495,343.68134 -119.29843,343.68134 C -119.2318,343.68134 -119.15683,343.70535 -119.08383,343.73426 C -119.01083,343.76267 -118.93684,343.79697 -118.87168,343.82 C -118.71538,343.87194 -118.46747,343.91799 -118.23964,343.91799 C -117.97163,343.91799 -117.87609,343.82098 -117.87609,343.71907 C -117.87609,343.59217 -117.96673,343.55395 -118.29549,343.49369 L -118.60465,343.4344 C -119.08579,343.34229 -119.54635,343.12181 -119.54635,342.56179 C -119.54635,341.92779 -118.9927,341.60295 -118.25287,341.60295 C -117.86923,341.60295 -117.48559,341.68183 -117.28569,341.76218 C -117.12303,341.82343 -117.08334,341.90133 -117.08334,341.98952 C -117.08334,342.03411 -117.0902,342.0738 -117.10147,342.11348 C -117.11225,342.15268 -117.12744,342.19237 -117.14409,342.23891 C -117.18329,342.34474 -117.25972,342.45498 -117.37143,342.45498 C -117.4366,342.45498 -117.49735,342.44126 -117.56448,342.42265 C -117.63062,342.40501 -117.70411,342.38198 -117.79574,342.36238 C -117.92655,342.33641 -118.06374,342.30996 -118.29206,342.30996 C -118.52577,342.30996 -118.59583,342.38688 -118.59583,342.48928 C -118.59583,342.5956 -118.44787,342.64754 -118.20338,342.6882 L -117.87462,342.74749 C -117.36066,342.8396 -116.89961,343.03313 -116.89961,343.64656 C -116.89961,344.31339 -117.46012,344.63823 -118.23964,344.63823"
         id="path3599" />
      <path
         style="fill:#da2128;fill-rule:evenodd;stroke:none"
         d="M -114.96575,344.63823 C -115.86286,344.63823 -116.50274,344.02529 -116.50274,343.12034 C -116.50274,342.22225 -115.86335,341.60295 -114.96575,341.60295 C -114.07452,341.60295 -113.43464,342.22225 -113.43464,343.12034 C -113.43464,344.02529 -114.07452,344.63823 -114.96575,344.63823 z M -114.96575,342.3957 C -115.3195,342.3957 -115.5194,342.67154 -115.5194,343.12034 C -115.5194,343.56277 -115.3195,343.84548 -114.96575,343.84548 C -114.612,343.84548 -114.41847,343.56963 -114.41847,343.12034 C -114.41847,342.67791 -114.612,342.3957 -114.96575,342.3957"
         id="path3601" />
      <g
         transform="matrix(0.4899559,0,0,-0.4899559,-187.3244,633.7029)"
         clip-path="url(#id377)"
         id="g3603">
        <path
   style="fill:#da2128;fill-rule:nonzero;stroke:none"
   d="M 157.572,590.217 C 157.452,590.113 157.17,590.062 156.745,590.062 C 156.304,590.062 156.034,590.114 155.915,590.219 C 155.796,590.309 155.755,590.416 155.755,590.636 L 155.755,593.696 C 155.755,594.293 155.489,594.491 155.027,594.491 C 154.458,594.491 154.017,594 154.017,593.454 L 154.017,590.636 C 154.017,590.415 153.975,590.307 153.854,590.217 C 153.734,590.113 153.451,590.062 153.027,590.062 C 152.586,590.062 152.316,590.114 152.197,590.219 C 152.078,590.309 152.037,590.416 152.037,590.636 L 152.037,595.213 C 152.037,595.482 152.063,595.644 152.195,595.776 C 152.311,595.892 152.592,595.974 152.831,596.028 C 153.032,596.068 153.344,596.122 153.51,596.122 C 153.633,596.122 153.778,596.095 153.856,596.033 C 153.915,595.981 153.947,595.93 153.962,595.854 C 153.969,595.819 153.973,595.778 153.975,595.727 C 153.977,595.678 153.977,595.619 153.977,595.548 L 153.977,595.398 C 154.257,595.81 154.827,596.176 155.711,596.176 C 156.913,596.176 157.735,595.448 157.735,594.045 L 157.735,590.636 C 157.735,590.415 157.693,590.307 157.572,590.217"
   id="path3605" />

        <path
   style="fill:#da2128;fill-rule:nonzero;stroke:none"
   d="M 78.123,603.432 L 84.19,603.432 C 84.784,603.432 85.233,603.244 85.409,602.399 C 85.605,601.46 85.525,600.806 84.467,600.731 L 82.563,600.595 C 83.964,591.737 92.161,588.849 96.624,598.39 C 97.363,599.969 97.605,600.257 98.414,600.056 C 99.511,599.784 99.661,599.219 99.138,597.627 C 95.28,585.866 82.311,584.687 79.766,600.394 L 78.219,600.282 C 76.96,600.192 76.91,601.254 76.91,601.845 C 76.91,603.013 77.344,603.432 78.123,603.432"
   id="path3607" />

      </g>
      <path
         style="fill:#da2128;fill-rule:nonzero;stroke:none"
         d="M -138.23964,335.26096 C -137.63062,335.26096 -137.13675,335.75484 -137.13675,336.36434 C -137.13675,336.97385 -137.63062,337.46772 -138.23964,337.46772 C -138.84914,337.46772 -139.34302,336.97385 -139.34302,336.36434 C -139.34302,335.75484 -138.84914,335.26096 -138.23964,335.26096"
         id="path3609" />
    </g>
    <path
       id="path3773"
       d="M -48.630832,325.47953 L 8.1821683,325.47953 L 8.1821683,348.61353 L -48.630832,348.61353 L -48.630832,325.47953 z "
       style="fill:#ed1d25;fill-rule:nonzero;stroke:none" />
    <path
       id="path3775"
       d="M -29.563832,334.57153 C -29.810832,336.13353 -31.166832,337.07053 -32.651832,337.07053 C -34.136832,337.07053 -35.195832,336.13353 -34.947832,334.57153 C -34.705832,333.04153 -33.333832,332.04753 -31.855832,332.04753 C -30.377832,332.04753 -29.321832,333.04153 -29.563832,334.57153 z M -33.169832,334.59753 C -33.257832,335.15253 -32.943832,335.53353 -32.407832,335.53353 C -31.872832,335.53353 -31.437832,335.15253 -31.349832,334.59753 C -31.267832,334.08053 -31.547832,333.64853 -32.109832,333.64853 C -32.670832,333.64853 -33.088832,334.08053 -33.169832,334.59753"
       style="fill:#ffffff;fill-rule:nonzero;stroke:none" />
    <path
       id="path3777"
       d="M -23.825832,332.12553 L -24.281832,335.00453 C -24.505832,336.42453 -25.499832,337.07053 -26.861832,337.07053 C -28.223832,337.07053 -29.012832,336.42453 -28.787832,335.00453 L -28.331832,332.12553 L -26.562832,332.12553 L -26.991832,334.83653 C -27.051832,335.21753 -27.092832,335.55253 -26.620832,335.55253 C -26.149832,335.55253 -26.083832,335.21753 -26.023832,334.83653 L -25.594832,332.12553 L -23.825832,332.12553"
       style="fill:#ffffff;fill-rule:nonzero;stroke:none" />
    <path
       id="path3779"
       d="M -17.679832,332.12553 L -20.335832,336.99253 L -21.833832,336.99253 L -22.947832,332.12553 L -21.100832,332.12553 L -20.805832,334.33853 C -20.773832,334.57853 -20.759832,334.81653 -20.797832,335.06253 L -20.759832,335.06253 C -20.720832,334.81653 -20.630832,334.57853 -20.521832,334.33853 L -19.525832,332.12553 L -17.679832,332.12553"
       style="fill:#ffffff;fill-rule:nonzero;stroke:none" />
    <path
       id="path3781"
       d="M -17.000832,332.12553 L -13.728832,332.12553 L -13.939832,333.45453 L -15.430832,333.45453 L -15.504832,333.91953 L -14.141832,333.91953 L -14.342832,335.18453 L -15.704832,335.18453 L -15.780832,335.66253 L -14.236832,335.66253 L -14.447832,336.99253 L -17.772832,336.99253 L -17.000832,332.12553"
       style="fill:#ffffff;fill-rule:nonzero;stroke:none" />
    <path
       id="path3783"
       d="M -12.638832,332.12553 L -10.869832,332.12553 L -11.393832,335.43053 L -9.9088317,335.43053 L -10.155832,336.99253 L -13.409832,336.99253 L -12.638832,332.12553"
       style="fill:#ffffff;fill-rule:nonzero;stroke:none" />
    <path
       id="path3785"
       d="M -8.3978317,332.12553 L -6.6288317,332.12553 L -7.1528317,335.43053 L -5.6678317,335.43053 L -5.9158317,336.99253 L -9.1698317,336.99253 L -8.3978317,332.12553"
       style="fill:#ffffff;fill-rule:nonzero;stroke:none" />
    <path
       id="path3787"
       d="M -4.0858317,332.12553 L -0.81383167,332.12553 L -1.0238317,333.45453 L -2.5158317,333.45453 L -2.5888317,333.91953 L -1.2268317,333.91953 L -1.4278317,335.18453 L -2.7888317,335.18453 L -2.8648317,335.66253 L -1.3218317,335.66253 L -1.5328317,336.99253 L -4.8578317,336.99253 L -4.0858317,332.12553"
       style="fill:#ffffff;fill-rule:nonzero;stroke:none" />
    <path
       id="path3789"
       d="M 0.26516833,335.24953 L 0.34516833,335.32053 C 0.62216833,335.56553 0.97116833,335.76553 1.3781683,335.76553 C 1.5521683,335.76553 1.8411683,335.69453 1.8761683,335.47553 C 1.9111683,335.25553 1.6811683,335.23653 1.5251683,335.20453 L 1.1801683,335.13953 C 0.50916833,335.01753 -0.0078316652,334.61053 0.11316833,333.84853 C 0.29616833,332.69353 1.4501683,332.04753 2.5091683,332.04753 C 3.0641683,332.04753 3.5531683,332.18353 3.9841683,332.47353 L 3.3101683,333.71953 C 3.0391683,333.51253 2.7231683,333.35153 2.3421683,333.35153 C 2.1871683,333.35153 1.9511683,333.40953 1.9191683,333.60953 C 1.8911683,333.79053 2.1061683,333.81653 2.2371683,333.84853 L 2.6231683,333.93853 C 3.3451683,334.10653 3.8241683,334.50753 3.6931683,335.33353 C 3.5091683,336.49553 2.3591683,337.07053 1.3071683,337.07053 C 0.69416833,337.07053 0.010168335,336.90253 -0.49483167,336.62453 L 0.26516833,335.24953"
       style="fill:#ffffff;fill-rule:nonzero;stroke:none" />
    <path
       id="path3791"
       d="M -43.423832,338.15053 L -40.163832,338.15053 L -40.384832,339.54553 L -41.863832,339.54553 L -41.942832,340.04853 L -40.645832,340.04853 L -40.845832,341.31353 L -42.143832,341.31353 L -42.413832,343.01853 L -44.195832,343.01853 L -43.423832,338.15053"
       style="fill:#ffffff;fill-rule:nonzero;stroke:none" />
    <path
       id="path3793"
       d="M -39.273832,338.15053 L -37.137832,338.15053 C -36.039832,338.15053 -35.183832,338.61553 -35.378832,339.84153 C -35.494832,340.57753 -35.827832,340.88753 -36.520832,341.10753 L -36.527832,341.14653 C -36.448832,341.21753 -36.350832,341.29453 -36.276832,341.43653 L -35.468832,343.01853 L -37.508832,343.01853 L -38.035832,341.45553 L -38.067832,341.45553 L -38.314832,343.01853 L -40.045832,343.01853 L -39.273832,338.15053 z M -37.885832,340.30653 L -37.762832,340.30653 C -37.472832,340.30653 -37.174832,340.26153 -37.117832,339.89953 C -37.058832,339.52553 -37.315832,339.48053 -37.618832,339.48053 L -37.754832,339.48053 L -37.885832,340.30653"
       style="fill:#ffffff;fill-rule:nonzero;stroke:none" />
    <path
       id="path3795"
       d="M -29.301832,340.59753 C -29.548832,342.15953 -30.903832,343.09553 -32.388832,343.09553 C -33.873832,343.09553 -34.932832,342.15953 -34.685832,340.59753 C -34.442832,339.06753 -33.071832,338.07253 -31.593832,338.07253 C -30.114832,338.07253 -29.058832,339.06753 -29.301832,340.59753 z M -32.907832,340.62253 C -32.995832,341.17853 -32.681832,341.55953 -32.145832,341.55953 C -31.609832,341.55953 -31.175832,341.17853 -31.086832,340.62253 C -31.005832,340.10653 -31.285832,339.67453 -31.846832,339.67453 C -32.408832,339.67453 -32.825832,340.10653 -32.907832,340.62253"
       style="fill:#ffffff;fill-rule:nonzero;stroke:none" />
    <path
       id="path3797"
       d="M -27.984832,338.15053 L -26.287832,338.15053 L -25.126832,340.84953 L -25.074832,340.84953 C -25.081832,340.44253 -25.092832,340.02253 -25.026832,339.60953 L -24.795832,338.15053 L -23.104832,338.15053 L -23.875832,343.01853 L -25.566832,343.01853 L -26.717832,340.46153 L -26.769832,340.46153 C -26.764832,340.79753 -26.762832,341.11353 -26.813832,341.43653 L -27.064832,343.01853 L -28.755832,343.01853 L -27.984832,338.15053"
       style="fill:#ffffff;fill-rule:nonzero;stroke:none" />
    <path
       id="path3799"
       d="M -22.240832,338.15053 L -18.521832,338.15053 L -18.772832,339.73253 L -19.740832,339.68753 L -20.267832,343.01853 L -22.036832,343.01853 L -21.508832,339.68753 L -22.490832,339.73253 L -22.240832,338.15053"
       style="fill:#ffffff;fill-rule:nonzero;stroke:none" />
    <path
       id="path3801"
       d="M -17.617832,338.15053 L -15.849832,338.15053 L -16.620832,343.01853 L -18.389832,343.01853 L -17.617832,338.15053"
       style="fill:#ffffff;fill-rule:nonzero;stroke:none" />
    <path
       id="path3803"
       d="M -14.629832,338.15053 L -11.356832,338.15053 L -11.567832,339.48053 L -13.058832,339.48053 L -13.132832,339.94553 L -11.770832,339.94553 L -11.970832,341.21053 L -13.333832,341.21053 L -13.408832,341.68853 L -11.865832,341.68853 L -12.076832,343.01853 L -15.401832,343.01853 L -14.629832,338.15053"
       style="fill:#ffffff;fill-rule:nonzero;stroke:none" />
    <path
       id="path3805"
       d="M -10.279832,338.15053 L -8.1438317,338.15053 C -7.0458317,338.15053 -6.1898317,338.61553 -6.3848317,339.84153 C -6.5008317,340.57753 -6.8348317,340.88753 -7.5268317,341.10753 L -7.5338317,341.14653 C -7.4548317,341.21753 -7.3568317,341.29453 -7.2828317,341.43653 L -6.4748317,343.01853 L -8.5148317,343.01853 L -9.0418317,341.45553 L -9.0738317,341.45553 L -9.3218317,343.01853 L -11.051832,343.01853 L -10.279832,338.15053 z M -8.8918317,340.30653 L -8.7688317,340.30653 C -8.4788317,340.30653 -8.1808317,340.26153 -8.1238317,339.89953 C -8.0648317,339.52553 -8.3218317,339.48053 -8.6258317,339.48053 L -8.7608317,339.48053 L -8.8918317,340.30653"
       style="fill:#ffffff;fill-rule:nonzero;stroke:none" />
    <path
       id="path3807"
       d="M -4.9938317,338.15053 L -1.7208317,338.15053 L -1.9318317,339.48053 L -3.4228317,339.48053 L -3.4968317,339.94553 L -2.1348317,339.94553 L -2.3348317,341.21053 L -3.6968317,341.21053 L -3.7728317,341.68853 L -2.2298317,341.68853 L -2.4408317,343.01853 L -5.7658317,343.01853 L -4.9938317,338.15053"
       style="fill:#ffffff;fill-rule:nonzero;stroke:none" />
    <path
       id="path3809"
       d="M -0.71983167,341.27553 L -0.63983167,341.34653 C -0.36283167,341.59153 -0.013831665,341.79153 0.39316833,341.79153 C 0.56716833,341.79153 0.85616833,341.72053 0.89016833,341.50153 C 0.92516833,341.28153 0.69616833,341.26253 0.54016833,341.22953 L 0.19516833,341.16553 C -0.47583167,341.04253 -0.99283167,340.63553 -0.87183167,339.87453 C -0.68883167,338.71853 0.46516833,338.07253 1.5241683,338.07253 C 2.0801683,338.07253 2.5681683,338.20853 3.0001683,338.49953 L 2.3241683,339.74453 C 2.0541683,339.53853 1.7371683,339.37753 1.3561683,339.37753 C 1.2011683,339.37753 0.96616833,339.43553 0.93416833,339.63553 C 0.90616833,339.81553 1.1211683,339.84153 1.2521683,339.87453 L 1.6381683,339.96453 C 2.3601683,340.13253 2.8391683,340.53253 2.7081683,341.35953 C 2.5241683,342.52153 1.3741683,343.09553 0.32216833,343.09553 C -0.29183167,343.09553 -0.97483167,342.92853 -1.4798317,342.65053 L -0.71983167,341.27553"
       style="fill:#ffffff;fill-rule:nonzero;stroke:none" />
    <path
       id="path3811"
       d="M -40.522832,328.84853 L -38.835832,328.84853 L -37.451832,333.80753 L -37.434832,333.80753 L -35.728832,328.84853 L -34.040832,328.84853 L -36.832832,336.95853 L -38.303832,336.95853 L -39.805832,331.43753 L -39.822832,331.43753 L -41.626832,336.95853 L -43.314832,336.95853 L -40.522832,328.84853"
       style="fill:#ffffff;fill-rule:nonzero;stroke:none" />
  </g>
</svg>
