<?xml version="1.0" encoding="UTF-8"?>
<!-- Generator: Adobe Illustrator 13.0.1, SVG Export Plug-In  -->
<!DOCTYPE svg PUBLIC "-//W3C//DTD SVG 1.1//EN" "http://www.w3.org/Graphics/SVG/1.1/DTD/svg11.dtd" [
	<!ENTITY ns_flows "http://ns.adobe.com/Flows/1.0/">
]>
<svg version="1.1" xmlns="http://www.w3.org/2000/svg" xmlns:xlink="http://www.w3.org/1999/xlink" xmlns:a="http://ns.adobe.com/AdobeSVGViewerExtensions/3.0/" x="0px" y="0px" width="162px" height="32px" viewBox="-0.101 -0.656 162 32" enable-background="new -0.101 -0.656 162 32" xml:space="preserve">
<defs>
</defs>
<path fill="#ED1B2F" d="M141.426,10.95c-1.318-3.52,1.949-7.993,7.299-9.992s10.754-0.767,12.072,2.753  c1.318,3.52-1.951,7.993-7.301,9.992C148.149,15.702,142.743,14.469,141.426,10.95L141.426,10.95z"/>
<path d="M0.613,9.027H13.53c0.339,0,0.614,0.274,0.614,0.613v2.65c0,0.339-0.274,0.614-0.614,0.614H9.776v16.521  c0,0.339-0.274,0.613-0.613,0.613H4.986c-0.339,0-0.614-0.274-0.614-0.613V12.904H0.613C0.274,12.904,0,12.629,0,12.291V9.64  C0,9.301,0.274,9.027,0.613,9.027L0.613,9.027z"/>
<path d="M15.042,29.425V15.246c0-0.339,0.274-0.613,0.613-0.613h3.639c0.339,0,0.613,0.274,0.613,0.613v14.179  c0,0.339-0.274,0.613-0.613,0.613h-3.639C15.316,30.039,15.042,29.764,15.042,29.425L15.042,29.425z"/>
<path d="M15.122,10.961c0-1.161,1.066-2.101,2.382-2.101s2.382,0.94,2.382,2.101c0,1.16-1.066,2.101-2.382,2.101  S15.122,12.122,15.122,10.961L15.122,10.961z"/>
<path fill-rule="evenodd" clip-rule="evenodd" d="M25.948,20.289l4.463-0.646c-0.113-1.814-1.037-2.719-2.183-2.654  C26.876,17.065,25.903,18.35,25.948,20.289L25.948,20.289z M34.94,25.896c-0.836,3.158-3.06,4.528-6.004,4.528  c-3.885,0-6.731-3.046-6.753-8.096s2.869-8.112,6.753-8.136c3.06-0.019,5.043,1.447,5.891,4.573c0,0,0.446,1.522-0.11,2.278  c-0.405,0.553-1.758,0.62-1.758,0.62l-6.716,0.938c0,0-0.004,2.396,2.316,3.332c2.687,1.085,4.603-1.282,4.603-1.282  s0.563-0.846,1.296-0.462c0.732,0.383,0.551,1.41,0.516,1.567L34.94,25.896L34.94,25.896z"/>
<path fill-rule="evenodd" clip-rule="evenodd" d="M50.634,22.148c-0.023,3.156,1.037,5.141,2.136,5.141  c1.18,0,2.125-1.871,2.136-5.141c0.011-3.179-0.957-5.14-2.136-5.14S50.656,18.947,50.634,22.148L50.634,22.148z M52.485,30.424  c-3.866-0.02-6.694-3.062-6.717-8.096c-0.022-5.05,2.869-8.071,6.753-8.095h0.511c3.885,0.024,6.776,3.045,6.753,8.095  c-0.022,5.034-2.851,8.076-6.717,8.096H52.485L52.485,30.424z"/>
<path d="M36.345,14.664h1.326l0-1.758c0,0,0.01-0.493,0.491-0.767c0.48-0.275,3.226-1.686,3.226-1.686s0.417-0.231,0.699,0.109  c0.187,0.226,0.185,0.732,0.185,0.732v3.37h1.978c0.338,0,0.613,0.275,0.613,0.614v0.939c0,0.339-0.275,0.614-0.613,0.614h-1.978  v8.679c0,0-0.147,1.744,1.264,2.186c0.554,0.173,1.71-0.026,1.82,0.719c0.106,0.725-0.218,0.998-0.565,1.261  c-0.347,0.264-1.297,0.739-2.828,0.72c-1.531-0.02-2.296-0.333-3.198-1.1s-1.054-1.583-1.095-2.429l0.001-10.035h-1.326  c-0.339,0-0.614-0.274-0.614-0.614v-0.939C35.731,14.938,36.006,14.664,36.345,14.664L36.345,14.664z"/>
<path d="M105.059,14.664h1.326v-1.758c0,0,0.01-0.493,0.49-0.767c0.48-0.275,3.227-1.686,3.227-1.686s0.416-0.231,0.699,0.109  c0.186,0.226,0.184,0.732,0.184,0.732v3.37h1.979c0.338,0,0.613,0.275,0.613,0.614v0.939c0,0.339-0.275,0.614-0.613,0.614h-1.979  v8.679c0,0-0.146,1.744,1.264,2.186c0.555,0.173,1.711-0.026,1.82,0.719c0.107,0.725-0.219,0.998-0.564,1.261  c-0.348,0.264-1.297,0.739-2.828,0.72s-2.297-0.333-3.197-1.1c-0.902-0.767-1.055-1.583-1.096-2.429V16.831h-1.324  c-0.34,0-0.613-0.274-0.613-0.614v-0.939C104.446,14.938,104.719,14.664,105.059,14.664L105.059,14.664z"/>
<path d="M67.143,17.579h5.097c0.339,0,0.613,0.275,0.613,0.613v2.188c0,0.339-0.274,0.613-0.613,0.613h-5.097v5.554h6.182  c0.339,0,0.614,0.274,0.614,0.613v2.265c0,0.339-0.275,0.613-0.614,0.613h-10.77c-0.339,0-0.614-0.274-0.614-0.613V9.707  c0-0.339,0.275-0.613,0.614-0.613h10.77c0.339,0,0.614,0.274,0.614,0.613v2.265c0,0.339-0.275,0.613-0.614,0.613h-6.182V17.579  L67.143,17.579z"/>
<path d="M89.336,29.425c0,0.339-0.275,0.613-0.613,0.613h-3.57c-0.338,0-0.613-0.274-0.613-0.613L84.551,18.4  c0-0.866-0.84-1.568-1.873-1.568c-1.031,0-1.875,0.697-1.881,1.56v11.034c0,0.339-0.274,0.613-0.613,0.613h-3.575  c-0.339,0-0.614-0.274-0.614-0.613V17.276c0-3.029,5.947-2.936,6.707-2.965c4.234-0.163,6.699,1.381,6.646,4.075L89.336,29.425  L89.336,29.425z"/>
<path d="M98.922,22.644c0,0-0.35,0.089-1.016,0.295c-2.828,0.878-2.592,4.248-1.17,4.822c2.291,0.929,2.186-1.601,2.186-1.601  V22.644L98.922,22.644z M98.917,18.203c0-0.779-0.613-1.411-1.393-1.411c-0.381,0-0.727,0.151-0.98,0.398  c0,0-0.305,0.315-0.473,0.693c-0.189,0.425-0.295,0.699-0.295,0.699c-0.281,0.758-1.01,1.298-1.865,1.298  c-1.098,0-1.988-0.89-1.988-1.988c0-0.393,0.186-0.884,0.383-1.192c0,0,0.529-1.351,2.863-1.968c2.338-0.619,3.59-0.484,5.23-0.208  c1.928,0.324,2.941,2.046,2.941,3.624v8.916c0,0,0.227,2.39-2.816,3.088c-3.045,0.699-6.178,0.316-7.732-0.721  c-1.557-1.037-1.984-3.427-1.33-4.87c0.652-1.442,1.4-2.334,4.328-3.246c2.389-0.744,3.131-0.792,3.131-0.792L98.917,18.203  L98.917,18.203z"/>
<path fill-rule="evenodd" clip-rule="evenodd" d="M119.483,22.148c-0.021,3.156,1.037,5.141,2.137,5.141  c1.18,0,2.125-1.871,2.135-5.141c0.012-3.179-0.955-5.14-2.135-5.14S119.506,18.947,119.483,22.148L119.483,22.148z M121.334,30.424  c-3.865-0.02-6.693-3.062-6.717-8.096c-0.021-5.05,2.869-8.071,6.754-8.095h0.51c3.885,0.024,6.777,3.045,6.754,8.095  c-0.021,5.034-2.852,8.076-6.717,8.096H121.334L121.334,30.424z"/>
<path d="M139.637,14.687c1.797,0.741,1.6,2.576,1.6,2.576c0,0.909-0.775,1.728-1.689,1.728c-0.654,0-1.242-0.394-1.488-0.939  l-0.217-0.484c-0.1-0.276-0.293-0.5-0.293-0.5c-0.238-0.242-0.563-0.396-0.924-0.396c-0.654,0-1.182,0.541-1.182,1.161v11.594  c0,0.339-0.275,0.613-0.613,0.613h-3.574c-0.34,0-0.615-0.274-0.615-0.613V17.276c0-3.255,6.701-2.964,6.701-2.964  S138.604,14.261,139.637,14.687L139.637,14.687z"/>
<path fill="#FFFFFF" d="M153.303,4.729h2.361c0.094,0,0.172-0.077,0.168-0.172l0.002-0.912c-0.002-0.095-0.078-0.172-0.176-0.172  h-9.27c-0.098,0-0.174,0.077-0.176,0.172l0.002,0.912c-0.004,0.095,0.074,0.172,0.168,0.172l1.477,0v6.29  c0,0.097,0.076,0.174,0.172,0.175l1.543,0c0.096,0.002,0.172-0.075,0.172-0.17V4.728h1.686v6.294  c-0.002,0.095,0.074,0.172,0.17,0.172h4.063c0.094,0,0.172-0.077,0.168-0.172l0.004-0.912c0-0.095-0.078-0.171-0.176-0.171h-2.357  V7.854h1.941c0.096,0,0.172-0.077,0.17-0.172v-0.91c0-0.095-0.076-0.171-0.174-0.171h-1.938V4.729L153.303,4.729z"/>
</svg>