<?xml version="1.0" encoding="UTF-8" standalone="no"?>
<!-- Created with Inkscape (http://www.inkscape.org/) -->

<svg
   xmlns:dc="http://purl.org/dc/elements/1.1/"
   xmlns:cc="http://creativecommons.org/ns#"
   xmlns:rdf="http://www.w3.org/1999/02/22-rdf-syntax-ns#"
   xmlns:svg="http://www.w3.org/2000/svg"
   xmlns="http://www.w3.org/2000/svg"
   xmlns:sodipodi="http://sodipodi.sourceforge.net/DTD/sodipodi-0.dtd"
   xmlns:inkscape="http://www.inkscape.org/namespaces/inkscape"
   width="400.5889"
   height="103.08155"
   id="svg2"
   sodipodi:version="0.32"
   inkscape:version="0.48.1 "
   version="1.0"
   sodipodi:docname="AJAX.svg"
   inkscape:output_extension="org.inkscape.output.svg.inkscape">
  <defs
     id="defs4" />
  <sodipodi:namedview
     id="base"
     pagecolor="#ffffff"
     bordercolor="#666666"
     borderopacity="1.0"
     gridtolerance="10000"
     guidetolerance="10"
     objecttolerance="10"
     inkscape:pageopacity="0.0"
     inkscape:pageshadow="2"
     inkscape:zoom="2.38"
     inkscape:cx="200.61089"
     inkscape:cy="51.540774"
     inkscape:document-units="px"
     inkscape:current-layer="layer1"
     showgrid="false"
     inkscape:window-width="1280"
     inkscape:window-height="970"
     inkscape:window-x="-6"
     inkscape:window-y="-6"
     fit-margin-top="0"
     fit-margin-left="0"
     fit-margin-right="0"
     fit-margin-bottom="0"
     inkscape:window-maximized="0" />
  <metadata
     id="metadata7">
    <rdf:RDF>
      <cc:Work
         rdf:about="">
        <dc:format>image/svg+xml</dc:format>
        <dc:type
           rdf:resource="http://purl.org/dc/dcmitype/StillImage" />
      </cc:Work>
    </rdf:RDF>
  </metadata>
  <g
     inkscape:label="Layer 1"
     inkscape:groupmode="layer"
     id="layer1"
     transform="translate(-221.30039,-452.29771)">
    <g
       id="g3293"
       transform="matrix(0.4083352,0,0,0.4083352,273.6311,328.0147)">
      <path
         d="m 221.78016,413.15511 c 0,0 0.7845,1.692 0.8535,4.1745 0.1155,2.4225 4.578,7.5105 4.428,10.458 0,0 -0.936,2.019 0.1215,3.2205 1.0575,1.2 -3.465,2.1015 -5.211,2.142 -1.734,0.102 -5.274,0.4575 -5.232,1.671 0.06,1.221 0.831,1.9785 0.831,1.9785 0,0 -5.211,-1.1265 -9.2565,-4.2165 -3.0225,-1.623 -5.949,-3.8955 -6.645,-4.905 -0.7905,-1.104 -2.217,-3.3075 -3.5535,-6.903 -0.9615,-1.425 -1.917,-2.613 -2.8515,-2.988 -2.763,-1.14 -5.7375,0.2175 -5.7375,0.2175 0,0 -3.615,4.3185 -2.04,6.9735 1.617,2.6595 3.93,3.315 3.3225,7.5165 -0.5865,4.2435 -4.278,6.87 -4.278,6.87 0,0 0.513,1.2075 1.815,1.896 0,0 -1.698,1.044 -6.057,-1.2825 -4.353,-2.3055 -15.207,-10.806 -17.478,-17.1705 0,0 0.096,-0.4095 0.267,-1.023 -0.24,-1.1115 -0.342,-2.2095 -0.39,-3.261 -0.108,-3.0975 8.541,-22.566 11.106,-25.26 0,0 0.948,-1.5015 6.1665,-3.909 0.219,-0.117 0.438,-0.2265 0.6555,-0.3345 -1.269,-0.117 -4.584,-0.7785 -8.6085,-4.1145 0,0 -4.803,-0.5385 -5.601,-1.2825 -0.7575,-0.7155 -5.7645,-7.422 -6.078,-8.9085 -0.246,-1.2015 0.5925,-3.03 0.9615,-3.7395 0.2805,-1.0425 0.6555,-2.3865 1.071,-3.8325 -0.1635,0.204 -0.3,0.348 -0.3,0.348 0,0 2.4825,-7.9965 4.1955,-16.4685 0,0 -2.415,-3.861 -1.74,-6.3585 0.3075,-1.221 1.167,-2.3325 2.0535,-3.2265 0.5115,-2.2305 1.2015,-5.109 1.869,-6.945 0,-0.0135 -0.0135,-0.081 -0.0135,-0.129 -0.5595,-1.869 -2.3745,-8.8815 -2.4495,-10.191 -0.006,-1.29 0.0885,-4.605 0.444,-5.097 0.321,-0.456 1.719,-2.1825 1.9845,-1.1175 0,0 1.944,1.077 3.828,3.4095 0.504,-0.0135 2.0325,1.665 3.5205,2.5935 1.4595,-0.642 3.642,-1.14 6.0225,-1.4595 0.348,-0.2535 0.7035,-0.4305 1.0365,-0.5805 1.5765,-0.513 5.295,-0.615 6.774,-1.986 1.5225,-1.3575 7.812,-10.3215 8.1255,-11.6445 0.321,-1.2825 -0.102,-2.463 1.896,-3.465 1.986,-1.0305 3.636,-0.007 3.636,-0.007 1.761,1.1265 5.4105,6.27 6.5145,7.9335 1.119,1.59 2.784,4.4145 4.0665,6.6105 4.728,2.7495 6.174,2.8455 16.4685,0.948 5.613,-1.0365 7.0605,-0.948 18.759,-0.6615 3.0765,0.342 5.274,0.7845 13.0635,2.292 9.2655,1.8975 10.548,2.2515 18.228,5.1915 0.6825,0.273 12.9285,6.3855 15.432,7.7025 0.177,0.0945 0.4095,0.225 0.7155,0.381 1.2495,0.546 2.688,1.1955 3.3225,1.536 0.9615,0.498 1.965,1.194 2.9955,1.9575 5.8935,4.2915 12.3465,11.16 12.3465,11.16 0,0.219 0.1095,0.417 0.1095,0.621 3.588,1.4055 8.697,4.251 16.1205,9.4485 -1.2225,-1.5285 -2.5035,-2.988 -4.1625,-4.1475 -4.3305,-3.1515 -10.518,-6.345 -10.518,-6.345 1.7325,0.5265 3.8805,1.311 6.1665,2.286 6.9105,2.784 14.817,6.5895 14.817,6.5895 0.3345,0.498 0.648,0.942 0.9615,1.3305 2.6055,0.9885 5.628,2.0745 9.1485,3.261 -0.6135,-0.498 -0.99,-0.792 -0.99,-0.792 l 10.431,3.732 c 0.1905,0.129 0.3075,0.2595 0.4635,0.369 3.2955,1.1055 6.2895,2.19 9.06,3.2265 -0.7305,-0.498 -1.569,-0.9885 -2.511,-1.6095 0,0 8.8485,3.273 11.4945,5.1765 8.7465,3.588 14.6745,6.2565 20.4045,6.753 10.158,0.867 28.461,8.0985 28.461,8.0985 6.3585,-8.2815 26.4405,-5.1645 30.8745,-6.126 4.401,-0.9825 9.7965,-4.7955 13.344,-9.318 1.3095,-1.644 2.7765,-2.9745 4.305,-4.1685 0.729,-0.7365 2.325,-2.2515 5.3205,-3.5265 0.969,-0.54 1.917,-1.0095 2.9055,-1.5015 1.167,-0.552 2.6685,-1.2135 4.2645,-1.8135 0,-0.021 -0.0345,-0.0285 -0.0345,-0.0285 l 2.9745,-1.146 0.096,0 c 2.2845,-0.7635 4.3935,-1.4055 6.003,-1.9095 -0.2865,0.0135 -0.4845,0.0135 -0.4845,0.0135 0,0 0.8055,-0.192 1.917,-0.369 0.1905,-0.0615 0.429,-0.102 0.552,-0.1635 0.117,0 0.198,0.0345 0.369,0.0135 0.6075,-0.1095 1.296,-0.1635 1.965,-0.2175 1.971,-0.0885 3.9555,2.019 3.7305,3.5055 -0.135,1.392 -0.9405,2.538 -2.4075,3.0765 -1.4535,0.9285 -3.78,1.392 -7.0545,2.2785 -1.6635,0.7245 -3.888,1.89 -3.888,1.89 l 0.069,-0.102 c -3.18,2.217 -6.2625,6.0915 -8.535,9.4815 -0.0135,0.048 0.0615,0.0345 0.0615,0.0345 -0.429,0.7095 -0.921,1.446 -1.4055,2.136 -0.048,0.0345 -0.081,0.102 -0.081,0.1155 -0.771,1.3575 -2.115,2.7825 -3.561,4.1745 -0.513,0.5535 -0.8805,0.8805 -0.8805,0.8805 l 0,-0.069 c -3.4995,3.153 -7.8525,6.093 -10.335,7.9275 -0.798,0.5805 -2.19,1.221 -3.84,1.821 l 0.0195,0.069 c -2.3535,1.023 -6.603,2.1075 -6.603,2.1075 l 0,-0.0615 c -5.0895,1.488 -9.987,2.586 -9.987,2.586 0,0 -0.963,0.369 -2.184,0.696 1.911,1.221 4.926,3.3765 8.487,6.63 4.686,3.111 9.789,7.239 12.9555,12.2115 4.0515,6.255 8.7375,20.8335 8.7375,20.8335 1.1325,3.159 1.992,5.3625 5.4105,10.2675 3.4305,5.232 8.6295,18.3765 8.6295,18.3765 1.296,3.351 3.438,8.118 5.559,9.783 2.136,-0.0675 6.2085,1.017 8.0235,2.013 1.842,1.002 4.8225,4.0995 4.8225,4.0995 3.309,3.7455 7.518,13.3365 9.4005,15.4725 2.121,2.265 2.667,6.705 5.4645,10.11 2.811,3.492 10.416,8.5605 10.416,8.5605 1.8975,2.055 5.9895,10.998 6.8295,13.8015 0.819,2.8515 0.75,6.201 0.75,6.201 -0.369,1.377 -1.917,3.267 -1.917,3.267 1.392,0.294 2.586,0.444 2.586,0.444 0,0 0.0615,0.525 -1.194,1.452 -0.6345,0.4845 -2.442,0.198 -4.1895,-0.3 -2.1135,1.0995 -3.8745,1.494 -5.409,1.2285 1.6995,0.9345 4.4205,1.398 4.4205,1.398 0,0 -3.3225,2.2455 -4.44,1.7535 -1.086,-0.471 -5.9835,-6.0165 -8.412,-7.8585 -2.4015,-1.869 -3.363,-3.09 -3.363,-3.09 -0.225,-0.5385 -0.342,-1.167 -0.573,-1.8345 -4.0455,-4.422 -6.543,-9.1635 -7.8735,-12.2325 -1.7055,-3.7725 -9.468,-13.8345 -12.264,-15.2805 -2.7705,-1.4745 -9.5235,-4.6875 -11.4345,-6.351 -0.3,-0.1785 -0.6,-0.546 -0.921,-0.9495 -1.6845,-1.95 -4.5705,-5.859 -7.7625,-8.9625 l -6.495,-4.182 -0.027,-0.4305 c -1.821,-0.9825 -2.709,-1.875 -3.78,-3.1305 0.069,0.252 0.144,0.4095 0.144,0.4095 -5.532,-4.83 -15.0225,-8.91 -15.0225,-8.91 -3.936,10.4445 4.326,19.1895 4.326,19.1895 l 1.521,1.563 c 0,0 12.0675,9.714 13.194,10.8945 1.1595,1.227 0.5385,4.065 0.5595,4.9935 0.0345,0.8865 -1.884,2.721 -1.884,2.721 -1.3575,7.6755 3.582,19.776 3.582,19.776 0.4575,1.7745 5.6415,5.6625 5.6415,5.6625 1.44,4.5855 5.3625,7.485 5.3625,7.485 0,0 -1.7265,2.7 -3.6975,2.7885 -0.9075,0.042 -2.442,-0.606 -3.9915,-1.3425 0.921,2.25 1.44,3.717 1.44,3.717 -0.315,0.1635 -0.648,0.252 -0.9765,0.396 2.055,0.417 3.6225,0.6135 3.6225,0.6135 0,0 -2.967,2.4015 -5.703,2.1495 -1.6095,-0.15 -2.394,-0.948 -3.015,-1.7055 -1.548,0.1095 -2.8785,0.0405 -3.9015,0 1.5075,1.344 2.8035,2.7285 2.8035,2.7285 l -1.269,0.225 c -4.536,-1.1115 -7.095,-6.3585 -7.095,-6.3585 0,0 0.1785,-0.033 0.6345,0.1095 -1.296,-2.592 -1.0365,-6.024 -2.367,-10.5195 -0.7905,-2.715 -1.5555,-7.374 -2.2305,-11.9175 -1.275,-3.7455 -2.6475,-8.7855 -2.7285,-13.1385 0,0 -1.365,-1.6095 -2.511,-2.6745 -0.6345,-0.3135 -1.392,-0.6885 -2.1825,-1.05 -2.0595,-0.4095 -6.249,-1.248 -10.464,-5.5185 0,0 0.0945,0.0195 0.2385,0.075 -1.515,-1.065 -2.8665,-2.19 -4.2165,-3.4455 -0.2325,-0.2325 -0.477,-0.492 -0.7905,-0.7635 -0.2265,-0.219 -0.4035,-0.3765 -0.594,-0.5865 -3.7935,-4.005 -8.7525,-10.0425 -12.873,-15.261 -1.623,-2.046 -4.4415,-6.045 -7.443,-10.437 l 0,0.054 c 0,0 -3.534,-5.586 -5.361,-7.2855 -1.8345,-1.6575 -11.229,-13.821 -11.229,-13.821 -6.0645,-2.4345 -7.3275,-6.3585 -7.3275,-6.3585 -3.4035,-2.277 -28.1385,-6.3165 -32.061,-6.528 -3.876,-0.2385 -10.629,-0.9345 -14.817,-1.317 -7.443,-0.6195 -12.1635,-1.0155 -12.1635,-1.0155 l -2.082,0.054 c 0,0 -21.318,-3.069 -35.718,-8.6835 -3.8415,-1.4805 -26.148,-14.913 -27.492,-15.7455 -1.419,-0.8385 -1.4325,0.5865 -1.4325,0.5865 0,0 -5.4915,5.8875 -6.7605,7.2315 -1.3305,1.392 -4.6515,2.0055 -5.997,2.0595 -1.2885,0.0555 -4.965,-0.3195 -9.0375,-2.142 -4.08,-1.821 -16.257,-4.659 -16.9395,-5.757 -0.7095,-1.071 0.4575,-5.724 1.9305,-6.87"
         style="fill:#ffffff;fill-opacity:1;fill-rule:nonzero;stroke:none"
         id="path2469"
         inkscape:connector-curvature="0" />
      <path
         d="m 223.13766,373.45311 0.375,-12.3 -1.077,-7.641 -6.3855,-3.6495 c -6.105,-6.693 -13.6365,-9.864 -13.6365,-9.864 2.544,4.5015 4.959,8.868 4.959,8.868 4.251,9.8295 -7.0665,19.23 -7.0665,19.23 l -20.7045,-1.5885 c 4.5645,-3.6165 15.8475,-14.361 12.9885,-18.099 -2.8515,-3.738 1.6305,-8.5335 1.8765,-12.3675 0.252,-3.8475 8.847,-4.161 10.866,-4.782 2.034,-0.648 5.643,-3.855 7.5045,-5.478 1.8975,-1.569 0.8805,-7.7025 0.8805,-7.7025 6.624,4.011 6.8355,4.374 18.576,2.2305 5.613,-1.05 7.0605,-0.948 18.759,-0.6615 3.0765,0.342 5.274,0.7845 13.0635,2.292 9.2655,1.8975 10.548,2.2185 18.228,5.1915 0.6825,0.273 12.9285,6.3855 15.432,7.7025 1.698,0.8865 8.5545,5.055 10.2735,6.282 3.2265,2.136 7.818,4.7835 9.987,6.366 7.9545,6.0165 9.3585,8.1315 40.5345,18.3705 20.862,6.876 30.432,13.098 39.5805,13.9155 10.158,0.867 28.461,8.0985 28.461,8.0985 6.3585,-8.2815 26.4405,-5.1645 30.8745,-6.126 4.401,-0.9825 9.7965,-4.7955 13.344,-9.318 3.54,-4.476 8.064,-6.999 12.531,-9.1965 4.3605,-2.1555 12.819,-4.884 15.288,-5.4165 2.4975,-0.498 6.0645,3.3015 4.83,5.274 -1.275,1.95 -4.2015,2.217 -9.087,3.6015 -4.83,1.446 -10.1235,8.5815 -12.9195,13.3365 -2.8035,4.728 -10.977,10.131 -14.7765,12.9135 -3.807,2.79 -20.4105,6.522 -20.4105,6.522 0,0 -3.4725,1.296 -5.3895,1.3785 -1.3305,0.0885 0.9555,-2.778 1.0635,-1.9245 0,0 9.0945,4.5435 18.876,16.488 9.81,11.952 15.9975,31.695 18.822,45.051 2.838,13.3305 8.97,20.412 16.857,24 7.9065,3.5265 10.389,17.6685 12.9,22.593 2.5035,4.8645 12.2235,13.746 17.007,17.4165 4.836,3.678 5.286,5.9685 5.082,9.7965 -0.2865,3.867 4.5645,7.551 4.5645,7.551 0,0 6.486,-2.919 -0.3765,1.161 -6.882,4.065 -9.3585,0.3195 -15.396,-4.803 -6.0105,-5.2125 -9.3945,-11.631 -11.073,-15.4245 -1.7055,-3.7725 -9.468,-13.8345 -12.264,-15.2805 -2.7705,-1.4745 -9.5235,-4.6875 -11.4345,-6.351 -1.923,-1.6725 -8.3355,-11.3925 -13.8615,-13.8825 -5.5455,-2.49 -4.032,-4.0725 -12.1155,-10.3275 -7.122,-5.5545 -19.7565,-18.774 -26.6805,-24.7365 l -3.567,6.903 c 10.6545,2.5035 17.5455,6.4065 17.5455,6.4065 -0.0555,8.772 -9.114,18.9435 -7.5855,24.1755 3.444,11.754 17.7495,12.0195 19.578,13.5555 3.465,2.8995 3.24,4.563 3.1995,10.914 -0.0615,6.324 6.93,18.699 10.266,25.467 3.33,6.7395 5.4105,12.81 5.4105,12.81 -4.98,2.403 -11.7,1.242 -11.7,1.242 -5.178,-2.565 -3.6555,-7.0335 -5.5665,-13.596 -1.896,-6.5355 -3.69,-24.108 -3.9975,-25.179 -0.3,-1.1055 -3.4305,-2.6595 -8.5545,-4.9515 -5.157,-2.307 -9.1545,-4.8915 -12.927,-8.889 -3.7935,-4.005 -8.7525,-10.0425 -12.9,-15.261 -4.653,-5.8935 -19.245,-28.311 -19.245,-28.311 2.094,-0.2385 4.1415,-0.423 6.1815,-0.483 l -8.295,-10.2885 c 14.0385,-2.292 8.397,-9.4335 3.9495,-13.3425 -5.7915,-3.3225 -14.3265,-4.932 -28.0515,-2.5245 -9.633,1.713 -17.976,3.5475 -26.5095,4.257 -7.8255,0.5865 -23.652,0.8385 -34.266,-2.3805 -6.1605,-1.8765 -15.813,-18.543 -15.813,-18.543 0,0 1.3635,-5.826 0.825,-9.6255 -0.5115,-3.813 -5.2395,-26.346 -5.2395,-26.346 0.7035,8.4525 -0.8655,18.972 -1.4865,22.425 -0.6615,3.4785 -0.3,6.186 -10.062,6.9225 -9.714,0.717 -37.329,-20.301 -43.7145,-13.1715 -6.3705,7.122 -22.5735,13.473 -25.9905,16.2825 -3.3765,2.8185 0.723,9.183 0.723,9.183 0,0 1.719,3.765 4.8975,4.8285 3.165,1.0515 4.803,4.0455 4.8435,5.226 0,0 -6.1125,3.6645 -9.96,4.5645 -3.867,0.921 -11.8755,-4.974 -13.1865,-6.7545 -1.275,-1.7325 -4.086,-6.132 -5.5455,-14.475 -1.5015,-8.412 10.089,-22.2735 10.089,-22.2735"
         style="fill:#f68712;fill-opacity:1;fill-rule:nonzero;stroke:none"
         id="path2471"
         inkscape:connector-curvature="0" />
      <path
         d="m 255.66516,337.30311 c 0,0 -10.2135,10.779 -7.218,19.2375 2.967,8.445 5.1645,15.7305 5.1645,15.7305 0,0 -13.023,-8.103 -16.536,-12.585 -3.501,-4.4895 4.011,-19.2045 18.5895,-22.383"
         style="fill:#ffffff;fill-opacity:1;fill-rule:nonzero;stroke:none"
         id="path2473"
         inkscape:connector-curvature="0" />
      <path
         d="m 304.01166,338.83761 c 0,0 3.8745,6.4125 4.5285,15.2535 0,0 4.7955,-10.6545 27.492,9.1485 0,0 -3.411,-4.3515 -11.829,-11.079 -6.726,-5.382 -11.1675,-8.199 -20.1915,-13.323"
         style="fill:#ffffff;fill-opacity:1;fill-rule:nonzero;stroke:none"
         id="path2475"
         inkscape:connector-curvature="0" />
      <path
         d="m 486.68466,369.03861 c 0,0 -14.8845,15.1035 -20.943,18.4935 -6.084,3.363 -24.258,4.3725 -30.534,7.941 l 8.664,4.455 c 0,0 -4.23,-3.228 16.017,-7.1835 8.145,-1.596 17.0145,-10.71 26.796,-23.706"
         style="fill:#ffffff;fill-opacity:1;fill-rule:nonzero;stroke:none"
         id="path2477"
         inkscape:connector-curvature="0" />
      <path
         d="m 214.67316,357.25761 c 0,0 -6.7065,5.0475 -8.1465,6.576 -1.4595,1.515 -7.026,10.485 -7.026,10.485 0,0 6.9645,-1.6245 18.0975,-10.4715"
         style="fill:#f68712;fill-opacity:1;fill-rule:nonzero;stroke:none"
         id="path2479"
         inkscape:connector-curvature="0" />
      <path
         d="m 183.29166,370.96161 c 0,0 12.573,-0.771 15.8265,1.0305 0,0 -14.0115,3.015 -14.844,6.87 l -7.5315,-2.286 c 0,0 -2.046,-4.359 6.549,-5.6145"
         style="fill:#f68712;fill-opacity:1;fill-rule:nonzero;stroke:none"
         id="path2481"
         inkscape:connector-curvature="0" />
      <path
         d="m 194.43216,322.42461 c 0,0 -0.246,1.8825 2.0745,3.7245 2.3115,1.815 -10.8195,4.176 -10.6845,7.3335 0.1035,3.1395 3.801,6.57 3.801,6.57 0,0 -4.557,-1.7805 -6.222,-2.646 -1.671,-0.915 -6.105,0.825 -6.282,4.932 -0.171,4.14 -0.1575,4.44 3.5055,7.503 0,0 -5.397,2.394 -6.153,7.797 -0.771,5.451 -0.8805,11.1405 -2.6805,14.6535 -1.8075,3.582 -8.8485,4.782 -9.0195,0.669 0,0 2.8245,-11.1735 4.599,-15.0765 1.8345,-3.8475 2.5785,-7.6605 2.5785,-7.6605 0,0 -2.682,-4.032 -2.115,-5.955 0.606,-1.917 2.238,-10.2135 3.4725,-11.529 1.248,-1.317 6.657,-3.0765 4.932,-6.822 -1.767,-3.7455 20.397,-4.851 18.1935,-3.4935"
         style="fill:#f68712;fill-opacity:1;fill-rule:nonzero;stroke:none"
         id="path2483"
         inkscape:connector-curvature="0" />
      <path
         d="m 185.42766,388.48761 c 0,0 -7.074,2.0805 -9.633,4.776 -2.565,2.694 -11.214,22.1625 -11.085,25.2465 0.081,3.0705 0.6135,6.5295 4.2435,9.4545 3.588,2.934 10.0065,7.689 10.0065,7.689 0,0 4.2705,-0.894 4.2165,-2.421 -0.0345,-1.536 0.8865,-8.487 -6.822,-15.8955 -7.695,-7.422 6.3585,-19.0125 7.845,-20.637 1.473,-1.575 14.217,-15.3345 1.2285,-8.2125"
         style="fill:#f68712;fill-opacity:1;fill-rule:nonzero;stroke:none"
         id="path2485"
         inkscape:connector-curvature="0" />
      <path
         d="m 357.66366,377.14311 c 0,0 1.7265,10.4775 4.53,14.9805 2.6745,4.2015 13.7265,15.1725 10.6485,21.2505 -0.2385,0.429 -2.094,2.2305 -2.4555,2.625 0,0 0.498,-3.1515 -1.7805,-6.0165 -1.146,-1.494 -6.0165,-5.778 -8.472,-11.0715 0,0 0.6135,5.349 3.1995,9.5505 1.2555,1.992 4.0305,8.8545 -2.934,13.95 -5.457,3.978 -9.42,5.6355 -12.2925,6.324 0,0 -2.5995,0.2535 -3.984,-1.521 -0.942,-1.2405 -0.2865,-4.0725 1.548,-6.207 0,0 -3.3765,1.821 -5.955,3.771 0,0 -7.92,4.599 2.94,7.533 0,0 -11.304,3.648 -10.962,6.7395 0,0 4.7205,0.396 12.1635,1.0155 4.188,0.3825 10.941,1.0785 14.817,1.317 3.9225,0.2115 28.6575,4.251 32.061,6.528 0,0 1.2495,3.9165 7.3275,6.3585 0,0 9.3945,12.1635 11.229,13.821 1.827,1.6995 5.3475,7.2795 5.3475,7.2795 0,0 1.7265,-2.4705 0.54,-4.6125 -1.167,-2.163 -3.3705,-7.1355 -3.426,-7.7775 0.021,-0.681 6.1335,-3.294 12.498,-0.0465 0,0 -6.201,1.3575 -6.999,4.011 0,0 16.215,-1.6575 29.0475,7.551 0,0 -4.407,1.2285 -4.1415,2.7495 0.294,1.542 6.1335,3.5205 6.2355,5.949 0.069,2.4075 -9.1335,6.453 -9.1335,6.453 0,0 9.1605,0.315 13.9155,2.8035 l 2.811,1.692 c 0,0 -8.262,-8.745 -4.326,-19.1895 0,0 9.4905,4.0185 15.0225,8.91 0,0 -0.996,-3.48 -9.093,-11.3175 0,0 -14.763,-8.0505 -25.6575,-26.121 0,0 -6.4875,6.597 -30.7995,-1.119 0,0 -25.7325,-9.585 -32.4045,-8.889 -6.6375,0.648 -11.7195,2.8455 -11.7195,2.8455 0,0 -3.909,-4.032 -0.0135,-7.6755 3.867,-3.6555 16.1325,-8.6835 19.62,-10.9965 3.498,-2.34 6.3975,-8.145 0.7365,-16.2975 -5.601,-8.1105 -12.375,-10.0755 -19.689,-27.15"
         style="fill:#231f20;fill-opacity:1;fill-rule:nonzero;stroke:none"
         id="path2487"
         inkscape:connector-curvature="0" />
      <path
         d="m 378.90666,385.37661 c 0,0 10.2675,15.1995 7.314,25.281 -3.4725,11.9595 -16.836,19.866 -8.7465,27.8745 l 7.1565,3.615 6.7605,-1.2825 c 0,0 -6.2355,-7.7625 -3.465,-15.636 2.496,-7.182 4.836,-13.758 3.513,-19.878 -1.365,-6.078 -7.974,-16.1475 -12.5325,-19.974"
         style="fill:#231f20;fill-opacity:1;fill-rule:nonzero;stroke:none"
         id="path2489"
         inkscape:connector-curvature="0" />
      <path
         d="m 395.62716,405.20811 c 0,0 4.803,15.219 2.955,25.0965 -1.863,9.933 -6.7545,9.804 -8.7945,9.762 -12.3885,-0.2175 10.7595,11.2905 10.7595,11.2905 l 1.869,-6.8895 c 0,0 3.342,-5.799 2.394,-14.1555 -0.969,-8.3085 -7.572,-24.054 -9.183,-25.104"
         style="fill:#231f20;fill-opacity:1;fill-rule:nonzero;stroke:none"
         id="path2491"
         inkscape:connector-curvature="0" />
      <path
         d="m 413.88366,416.86611 c 0,0 6.63,13.8135 2.4615,33.924 l 9.7155,-1.3845 c 0,0 5.9475,-7.872 4.344,-19.9815 0,0 -2.394,-14.994 -11.358,-30.084 -5.43,-9.1065 -14.1885,-9.816 -17.28,-16.515 0,0 3.111,7.614 11.202,15.6285 12,11.823 8.5485,32.622 8.5485,32.622 0,0 -1.863,-8.7105 -7.6335,-14.2095"
         style="fill:#231f20;fill-opacity:1;fill-rule:nonzero;stroke:none"
         id="path2493"
         inkscape:connector-curvature="0" />
      <path
         d="m 384.82116,376.12611 c 0,0 12.027,10.581 18.372,26.796 1.89,4.782 6.2895,16.209 7.1835,28.6935 0,0 2.244,-18.2415 -1.9515,-29.3415 0,0 -7.155,-13.3095 -17.0745,-22.3965 -3.111,-2.871 -6.5295,-3.7515 -6.5295,-3.7515"
         style="fill:#231f20;fill-opacity:1;fill-rule:nonzero;stroke:none"
         id="path2495"
         inkscape:connector-curvature="0" />
      <path
         d="m 366.25266,367.83861 c 7.443,4.836 7.539,4.6305 10.7925,8.8065 2.817,3.663 9.6315,7.5645 9.6315,7.5645 0,0 -6.207,-9.2025 -8.745,-11.058 -2.517,-1.917 -11.679,-5.313 -11.679,-5.313"
         style="fill:#231f20;fill-opacity:1;fill-rule:nonzero;stroke:none"
         id="path2497"
         inkscape:connector-curvature="0" />
      <path
         d="m 348.80916,362.12061 c 0,0 13.3575,10.3965 16.632,14.892 3.2535,4.53 7.518,10.5195 9.9735,17.205 0,0 -0.4035,-5.457 -2.121,-10.0215 -1.719,-4.5165 -5.1375,-11.433 -14.0535,-18.3435"
         style="fill:#231f20;fill-opacity:1;fill-rule:nonzero;stroke:none"
         id="path2499"
         inkscape:connector-curvature="0" />
      <path
         d="m 318.70566,349.44561 c 0,0 6.1875,3.1935 10.518,6.345 4.359,3.138 6.7875,7.92 9.687,12.5865 9.3045,14.796 11.175,31.83 7.9755,37.2195 -3.111,5.376 -8.4045,7.995 -12.723,17.9955 0,0 5.178,-5.205 10.8735,-7.395 5.745,-2.1825 7.8795,-3.7995 8.691,-6.453 0.819,-2.6535 1.215,-7.62 0.1905,-13.2825 -2.967,-16.3035 -14.004,-30.7455 -14.004,-30.7455 -1.071,-4.3515 11.6715,10.1235 14.796,16.5915 0,0 -3.0555,-11.55 -5.238,-15.3915 -2.13,-3.8595 -5.055,-1.5345 -9.783,-8.595 0,0 -13.938,-6.705 -20.9835,-8.8755"
         style="fill:#231f20;fill-opacity:1;fill-rule:nonzero;stroke:none"
         id="path2501"
         inkscape:connector-curvature="0" />
      <path
         d="m 324.62616,356.60961 c 0,0 3.807,14.352 1.6575,27.573 -2.217,13.2345 -15.615,31.0125 -15.615,31.0125 0,0 11.358,-6.7605 19.143,-25.446 0,0 2.0055,6.699 1.95,10.035 -0.1365,3.288 -3.063,9.1005 -3.063,9.1005 0,0 5.8605,-5.253 6.8085,-9.885 0.9135,-4.6515 0.723,-10.362 -0.1155,-15.342 -0.8805,-5.034 -4.8915,-17.6205 -5.868,-19.7565 -0.9615,-2.175 -4.8975,-7.2915 -4.8975,-7.2915"
         style="fill:#231f20;fill-opacity:1;fill-rule:nonzero;stroke:none"
         id="path2503"
         inkscape:connector-curvature="0" />
      <path
         d="m 338.18766,404.82561 c 0,0 -12.129,15.117 -20.718,18.7125 -8.595,3.567 -15.123,1.419 -16.6575,-4.455 0,0 6.7725,-9.9045 4.9995,-15.5265 -1.7805,-5.6685 -5.478,-9.495 -6.8415,-16.434 -1.365,-6.9705 -4.3125,-20.7105 -3.7665,-23.8005 0,0 -2.6745,-0.9825 -3.93,-3.7725 l -1.2135,2.865 c 0,0 3.4245,9.12 6.555,26.9805 3.084,17.901 1.9245,22.5195 0.0285,25.206 -1.9305,2.7075 -12.5115,6.147 -19.3065,3.561 -6.7665,-2.613 -15.744,-10.8525 -24.975,-12.306 -9.195,-1.4325 -13.152,-0.4095 -15.573,0.1095 -2.484,0.531 -7.0545,2.6595 -8.6235,3.786 -1.473,1.179 -2.64,5.832 -1.9305,6.903 0.6825,1.077 12.8595,3.936 16.9395,5.757 4.0725,1.815 7.749,2.1705 9.0375,2.142 1.3455,-0.054 4.6665,-0.6675 5.997,-2.0595 1.269,-1.344 6.7605,-7.2315 6.7605,-7.2315 0,0 0.0135,-1.425 1.4325,-0.5865 1.344,0.8325 23.6505,14.265 27.492,15.7455 14.4,5.5995 35.718,8.6835 35.718,8.6835 -6.8145,-3.0285 3.33,-6.897 3.33,-6.897 0,0 -3.8475,-0.7635 -6.5085,-0.681 -2.6475,0.0945 -5.505,1.0635 -8.445,0.3405 0,0 13.6635,-4.026 20.199,-27.042"
         style="fill:#231f20;fill-opacity:1;fill-rule:nonzero;stroke:none"
         id="path2505"
         inkscape:connector-curvature="0" />
      <path
         d="m 317.15616,349.86861 c 1.113,7.791 6.5835,15.4455 6.5835,15.4455 0,0 1.017,10.2795 -0.4155,12.279 -1.4205,1.944 -4.497,7.122 -4.497,7.122 2.832,-11.0925 -0.9,-19.224 -4.857,-26.4825 -3.867,-7.251 -7.8855,-15.6015 -10.164,-18.234 -2.2995,-2.607 -7.068,-5.3355 -7.539,-5.676 0,0 4.353,1.7595 5.547,2.4015 6.4335,3.573 15.342,13.1445 15.342,13.1445"
         style="fill:#231f20;fill-opacity:1;fill-rule:nonzero;stroke:none"
         id="path2507"
         inkscape:connector-curvature="0" />
      <path
         d="m 290.11416,331.53261 c 0.0825,0.204 4.7955,5.1975 5.7915,6.6105 0.717,1.029 4.0605,8.9625 5.6295,15.8865 0.375,1.659 1.5825,2.703 1.5825,2.703 0,0 8.9835,15.1305 8.847,24.4155 -0.0945,9.291 -4.6185,14.325 -4.6185,14.325 2.586,-5.772 3.8205,-12.996 0.7575,-19.653 -3.0015,-6.699 -12.402,-17.13 -12.402,-17.13 0,0 2.709,-7.7295 -0.7575,-14.361 -3.4515,-6.6435 -11.6235,-11.835 -11.6235,-11.835 -0.9345,-2.3265 -4.2495,-6.051 -4.2495,-6.051 2.898,-0.0405 8.4375,3.6705 11.043,5.0895"
         style="fill:#231f20;fill-opacity:1;fill-rule:nonzero;stroke:none"
         id="path2509"
         inkscape:connector-curvature="0" />
      <path
         d="m 295.91316,407.11761 c 0,0 -0.5385,5.4165 -4.5015,6.8295 -3.984,1.3365 -10.2405,2.3055 -12.2385,2.3535 0,0 -15.6915,-11.019 -27.1725,-14.115 0,0 9.108,0.702 12.9555,2.04 0,0 -2.34,-8.118 1.0635,-18.0915 0,0 -1.617,17.088 8.91,23.1675 0,0 0.327,-3.9645 1.5,-6.2295 0,0 11.7675,11.1885 19.4835,4.0455"
         style="fill:#231f20;fill-opacity:1;fill-rule:nonzero;stroke:none"
         id="path2511"
         inkscape:connector-curvature="0" />
      <path
         d="m 275.65866,326.74311 c 0,0 3.876,16.407 3.5685,22.6005 -0.225,6.1815 -2.0535,18.6105 -4.4415,20.922 -2.4495,2.2785 -18.2475,10.7385 -21.5775,16.0725 0,0 4.9395,-2.8785 8.166,-4.2495 3.234,-1.344 9.408,-3.555 14.1825,-3.9765 4.734,-0.3825 8.793,-5.9625 9.0255,-15.117 0.102,-9.135 -4.1205,-29.007 -8.9235,-36.252"
         style="fill:#231f20;fill-opacity:1;fill-rule:nonzero;stroke:none"
         id="path2513"
         inkscape:connector-curvature="0" />
      <path
         d="m 266.46366,322.78761 c 1.89,0.4905 4.5975,0.7905 7.6125,1.827 0,0 -6.0915,0.7845 -2.421,8.7795 1.8555,4.1145 4.434,18.153 1.971,26.1285 -2.49,8.0085 -13.521,14.331 -13.521,14.331 0,0 10.7715,-13.2405 10.7925,-20.397 -0.027,-7.176 -4.4745,-19.557 -8.97,-24.483 -8.4315,-9.237 -0.792,-7.2375 1.9095,-6.801 0,0 1.419,0.2925 2.6265,0.615"
         style="fill:#231f20;fill-opacity:1;fill-rule:nonzero;stroke:none"
         id="path2515"
         inkscape:connector-curvature="0" />
      <path
         d="m 225.02766,322.13811 c 0,0 3.036,2.163 10.4985,-0.0675 0,0 10.854,1.5615 13.719,3.2265 2.769,1.6305 6.678,4.4955 8.316,15.513 0,0 0.5595,-5.484 0.396,-10.179 -0.171,-4.6455 -5.259,-8.9085 -10.11,-10.758 0,0 -7.2105,-0.825 -14.673,0.444 -6.7815,1.1805 -6.81,1.821 -8.1465,1.821"
         style="fill:#231f20;fill-opacity:1;fill-rule:nonzero;stroke:none"
         id="path2517"
         inkscape:connector-curvature="0" />
      <path
         d="m 222.43566,322.08411 c 0,0 10.6275,1.6305 12.2115,10.9755 0,0 -6.3645,11.8365 -6.2145,15.5415 0.1155,3.6765 0.531,7.3935 0.531,7.3935 0,0 1.2765,-6.4665 1.7265,-7.23 0.4905,-0.7575 5.211,-9.0735 7.695,-11.1405 2.415,-2.067 -0.177,-10.608 -2.511,-13.248 -2.3595,-2.6745 -8.676,-3.165 -13.4385,-2.292"
         style="fill:#231f20;fill-opacity:1;fill-rule:nonzero;stroke:none"
         id="path2519"
         inkscape:connector-curvature="0" />
      <path
         d="m 214.23666,372.09411 c 0.687,0.519 5.661,4.974 -4.7625,5.478 l 1.0575,0.3 c 0,0 -1.0035,2.5515 -4.305,2.703 -4.1955,0.1965 -8.2815,-1.6725 -8.772,-1.482 -0.921,0.4305 -3.2685,3.0975 -3.2685,3.0975 3.5685,2.6535 6.1125,7.341 6.8085,11.7135 0.15,0.8325 -4.155,-3.9975 -4.236,-3.1185 -0.3345,4.2165 -1.7535,11.9385 -4.9875,12.546 -3.2595,0.594 -7.224,-4.701 -7.224,-4.701 -0.45,1.7475 -0.021,5.6895 0.7785,8.1525 0.8445,2.436 -0.615,2.9685 -0.615,2.9685 -2.0115,0.0675 -5.9685,1.9365 -6.2955,6.4125 -0.3825,4.4475 3.4785,6.2895 4.911,10.9485 1.4115,4.6395 -2.763,6.2625 -2.763,6.2625 -4.365,-2.313 -7.995,-12.579 -7.995,-12.579 0,0 0.6135,3.219 -1.869,5.2665 -2.409,2.073 -4.5645,-1.815 -3.6915,-5.322 0.888,-3.4785 4.449,-2.3535 4.449,-2.3535 -0.696,-4.932 3.5265,-13.7385 3.9225,-16.194 0.3825,-2.517 1.0365,-6.2295 1.0365,-6.2295 -4.8165,5.349 -8.991,22.0485 -8.991,22.0485 -2.1825,1.8285 -2.613,4.7955 -2.613,4.7955 2.271,6.3645 13.125,14.865 17.478,17.1705 4.359,2.3265 6.057,1.2825 6.057,1.2825 -1.302,-0.6885 -1.815,-1.896 -1.815,-1.896 0,0 3.6915,-2.6265 4.278,-6.87 0.6075,-4.2015 -1.7055,-4.857 -3.3225,-7.5165 -1.575,-2.655 2.04,-6.9735 2.04,-6.9735 0,0 2.9745,-1.3575 5.7375,-0.2175 2.8245,1.14 6.405,9.891 6.405,9.891 0,0 -2.5035,-7.0665 -3.9285,-11.958 -1.4325,-4.8705 0.5925,-10.635 3.7785,-13.9845 3.09,-3.3015 22.6485,-24.996 26.1285,-27.3555 3.4095,-2.3475 23.343,-1.065 23.343,-1.065 -10.983,-4.5495 -15.0345,-11.829 -15.0345,-11.829 0,0 3.192,-2.1 3.759,-8.0295 0.4905,-5.9745 3.915,-9.0315 3.915,-9.0315 -4.1745,1.8765 -8.649,10.4175 -10.056,13.4595 -1.425,2.988 -5.865,4.6185 -5.865,4.6185 -3.1455,-10.4925 -4.8585,-7.962 -10.4115,-16.1685 -5.58,-8.1915 -1.7655,-14.025 -1.7655,-14.025 -2.961,1.3515 -4.926,9.543 -4.2855,12.504 0.573,2.9685 2.709,5.847 2.709,5.847 7.3815,1.719 6.6585,3.9495 6.6585,3.9495 -1.761,-0.4155 -4.2645,-0.075 -4.2645,-0.075 0,0 2.715,5.526 4.836,8.712 2.3685,3.6075 0.411,6.078 0.411,6.078 -0.144,0.2385 -3.3915,4.242 -7.3605,2.769"
         style="fill:#231f20;fill-opacity:1;fill-rule:nonzero;stroke:none"
         id="path2521"
         inkscape:connector-curvature="0" />
      <path
         d="m 247.13016,384.57111 c 0,0 -7.3605,-1.4655 -12.2925,1.194 -4.9395,2.6205 -4.8225,5.109 -4.8225,5.109 0,0 -11.277,8.535 -18.4125,12.2535 0,0 -1.5825,-1.1745 -0.8325,-1.7055 0.7575,-0.498 10.3155,-6.2565 12.279,-8.589 1.8975,-2.2995 9.3735,-11.706 10.5945,-12.2385 1.248,-0.504 15.9225,2.1765 13.4865,3.9765"
         style="fill:#231f20;fill-opacity:1;fill-rule:nonzero;stroke:none"
         id="path2523"
         inkscape:connector-curvature="0" />
      <path
         d="m 201.59466,411.87861 c 0,0 3.213,5.097 6.7605,5.4375 3.48,0.3825 7.5855,1.7265 9.7695,-0.0675 2.217,-1.836 3.6555,-4.0935 3.6555,-4.0935 0,0 0.7845,1.692 0.8535,4.1745 0.1155,2.4225 4.578,7.485 4.428,10.458 0,0 -0.936,2.019 0.1215,3.2205 1.0575,1.2 -3.465,2.1015 -5.211,2.142 -1.734,0.102 -5.274,0.4575 -5.232,1.671 0.06,1.221 0.831,1.9785 0.831,1.9785 0,0 -9.099,-1.917 -12.5655,-7.7085 0,0 2.988,-1.1055 3.7395,-0.4035 0.777,0.7095 3.915,4.326 6.201,4.4685 2.277,0.165 4.2285,-1.1175 4.2285,-1.1175 0,0 -3.5535,-1.8705 -4.701,-4.797 0,0 2.484,-0.831 3.759,-0.375 1.2825,0.465 6.366,2.0325 6.768,0.2595 0.4635,-1.7535 -1.6305,-4.632 -5.2185,-6.2355 0,0 -1.194,1.761 -2.967,1.836 -1.7265,0.0405 -8.8485,-1.6515 -8.8485,-1.6515 0,0 0.867,2.8995 1.6575,3.615 0,0 -2.517,0.594 -3.3015,-0.15 -0.7575,-0.675 -5.328,-8.9355 -4.728,-12.6615"
         style="fill:#231f20;fill-opacity:1;fill-rule:nonzero;stroke:none"
         id="path2525"
         inkscape:connector-curvature="0" />
      <path
         d="m 177.45966,369.45411 c 0,0 17.7225,-2.3535 35.46,1.263 0,0 -4.182,-4.572 -32.6025,-5.3145 0,0 -2.9325,1.596 -2.8575,4.0515"
         style="fill:#231f20;fill-opacity:1;fill-rule:nonzero;stroke:none"
         id="path2527"
         inkscape:connector-curvature="0" />
      <path
         d="m 177.07116,372.48261 c 0,0 -1.74,0.5595 -1.686,1.782 0,0 12.354,0.8175 15.8685,1.644 3.5535,0.879 12.5925,3.717 15.027,3.465 1.6245,-0.171 2.559,-1.017 2.559,-1.017 0,0 -1.9845,-0.075 -5.007,-0.723 -3.057,-0.627 -4.605,-1.0575 -8.268,-2.3535 l -5.424,-1.638 c 0,0 -9.066,-2.0325 -13.0695,-1.1595"
         style="fill:#231f20;fill-opacity:1;fill-rule:nonzero;stroke:none"
         id="path2529"
         inkscape:connector-curvature="0" />
      <path
         d="m 174.69666,376.01661 c 0,0 6.2955,1.0035 8.5485,1.1595 2.2635,0.1575 11.343,6.9585 12.354,7.995 1.9635,1.938 4.317,7.0005 4.317,7.0005 0,0 -5.8665,-7.395 -11.712,-9.3675 0,0 -3.138,3.228 -4.1205,3.0165 -1.044,-0.2265 -5.13,-3.0165 -5.13,-3.0165 0,0 3.486,-0.3945 2.1615,-1.602 -1.248,-1.1805 -6.4185,-5.1855 -6.4185,-5.1855"
         style="fill:#231f20;fill-opacity:1;fill-rule:nonzero;stroke:none"
         id="path2531"
         inkscape:connector-curvature="0" />
      <path
         d="m 190.85016,385.30161 c 0,0 1.938,0.8595 3.0705,2.286 2.0535,2.4135 1.4055,3.2595 1.4055,3.2595 0,0 -0.3405,4.755 -1.071,4.7835 -0.798,0.027 -10.2405,-5.145 -16.8705,-0.1575 0,0 0.45,-1.7805 -1.59,-2.2095 0,0 0.948,-1.5015 6.1665,-3.909 5.1435,-2.415 7.7295,-4.3875 8.889,-4.053"
         style="fill:#231f20;fill-opacity:1;fill-rule:nonzero;stroke:none"
         id="path2533"
         inkscape:connector-curvature="0" />
      <path
         d="m 173.49516,371.33061 c 0,0 -2.3385,4.2975 -2.2365,6.528 0.0345,2.232 1.6635,4.3665 2.6745,4.599 0.9945,0.204 2.4825,0.15 2.4825,0.15 0,0 3.9765,5.778 7.989,5.661 l 1.023,0.219 -0.4785,1.0095 -1.7325,-0.429 c 0,0 -4.0185,0.135 -9.2085,-4.1625 0,0 -4.803,-0.5385 -5.601,-1.2825 -0.7575,-0.7155 -5.7855,-7.449 -6.078,-8.9085 -0.3075,-1.488 1.1115,-3.9975 1.1115,-3.9975 0,0 -0.3825,4.1955 2.667,4.113 3.234,-0.1095 5.628,-3.417 5.628,-3.417"
         style="fill:#231f20;fill-opacity:1;fill-rule:nonzero;stroke:none"
         id="path2535"
         inkscape:connector-curvature="0" />
      <path
         d="m 219.05166,357.78861 c 0,0 -8.6085,4.1625 -10.8525,6.672 -1.3995,1.5765 -9.054,10.383 -9.054,10.383 0,0 10.377,-7.8585 21.5235,-13.4595"
         style="fill:#231f20;fill-opacity:1;fill-rule:nonzero;stroke:none"
         id="path2537"
         inkscape:connector-curvature="0" />
      <path
         d="m 199.46616,332.63661 c 0,0 -2.9535,1.0785 -2.646,2.5725 0.2655,1.446 1.002,6.8565 3.7995,7.7295 2.7555,0.927 4.6245,2.838 4.6245,2.838 0,0 3.0705,7.0665 2.1825,9.5775 -0.954,2.517 -5.3475,7.5585 -5.3475,7.5585 0,0 1.317,-5.97 0.696,-8.883 -0.621,-2.9595 -3.636,-9.5295 -3.636,-9.5295 0,0 -5.8665,-2.748 -12.2865,0.1845 0,0 -0.948,1.269 0.096,2.94 0,0 -4.455,0.921 -6.6585,2.9745 0,0 0.9,-2.757 1.3785,-3.4935 0.456,-0.756 -0.6555,-3.7035 0.354,-4.488 0.969,-0.75 4.1895,-1.113 4.1895,-1.113 l -1.1325,1.7475 c 0,0 2.442,-0.5655 3.9435,-0.621 0,0 -3.0975,-3.342 -5.6625,-4.2495 -2.559,-0.8865 -5.8605,-1.2825 -5.526,7.353 0,0 -1.3305,-1.671 -1.35,-3.144 -0.096,-1.4805 -0.369,-3.1935 -1.4205,-4.6455 0,0 3.774,-6.8085 12.198,-9.8385 0,0 -5.403,3.657 -5.3685,5.3895 0.129,1.719 4.2975,6.5355 9.2775,5.5875 0,0 2.088,-4.9875 3.267,-6.051 1.2285,-1.023 5.028,-0.396 5.028,-0.396"
         style="fill:#231f20;fill-opacity:1;fill-rule:nonzero;stroke:none"
         id="path2539"
         inkscape:connector-curvature="0" />
      <path
         d="m 196.02216,348.04761 c 0,0 0.4095,11.877 -7.7775,13.1385 l 1.3305,2.9265 5.2995,-0.621 c 0,0 4.845,-2.9055 1.1475,-15.444"
         style="fill:#231f20;fill-opacity:1;fill-rule:nonzero;stroke:none"
         id="path2541"
         inkscape:connector-curvature="0" />
      <path
         d="m 180.62466,352.56411 c 0,0 -3.009,7.9065 -1.4595,8.82 0,0 4.461,-2.265 5.928,-3.042 1.4595,-0.8115 1.0155,0.9615 3.0495,0.6345 0,0 -10.158,4.284 -13.275,8.376 0,0 2.4285,-9.7275 3.111,-11.7255 0.648,-2.007 2.646,-3.063 2.646,-3.063"
         style="fill:#231f20;fill-opacity:1;fill-rule:nonzero;stroke:none"
         id="path2543"
         inkscape:connector-curvature="0" />
      <path
         d="m 173.25666,343.42911 c 0,0 0.921,5.1915 3.732,6.5355 0,0 -3.6975,1.8765 -5.832,5.3955 -2.1015,3.5205 -3.732,7.566 -4.4685,8.583 -0.7035,0.9945 -2.6265,3.5475 -2.6265,3.5475 0,0 2.4825,-7.9965 4.1955,-16.4685 0,0 -2.415,-3.861 -1.74,-6.3585 0.6615,-2.475 3.8475,-4.8435 3.8475,-4.8435 0,0 -1.4265,3.1185 -1.6035,5.3415 -0.1845,2.2515 0.1635,3.8685 1.188,5.0625 0,0 1.1385,-3.984 1.3575,-5.001 0.198,-0.975 1.95,-1.794 1.95,-1.794"
         style="fill:#231f20;fill-opacity:1;fill-rule:nonzero;stroke:none"
         id="path2545"
         inkscape:connector-curvature="0" />
      <path
         d="m 210.40866,312.31461 c 0,0 2.121,9.135 1.848,11.829 0,0 -6.2415,5.997 -6.924,7.116 -0.6885,1.0845 0.498,1.623 2.217,1.848 1.6995,0.1305 5.5665,-2.4765 9.51,-3.4575 3.9015,-0.9555 11.073,-1.7205 11.073,-1.7205 0,0 -6.0315,-3.867 -10.506,-5.4765 0,0 -3.8685,-6.8505 -5.868,-9.702 0,0 -1.3635,-1.1865 -1.35,-0.4365"
         style="fill:#231f20;fill-opacity:1;fill-rule:nonzero;stroke:none"
         id="path2547"
         inkscape:connector-curvature="0" />
      <path
         d="m 205.48416,322.63611 c 0,0 -1.3245,-6.5685 -6.114,-3.5805 0,0 -0.825,3.684 -4.4955,4.6455 0,0 5.0415,0.669 5.7315,2.6325 0,0 -1.536,0.4845 -0.813,4.98 0,0 -3.4095,-4.9455 -7.653,-5.874 -4.1895,-0.9 -7.7355,1.1265 -10.9965,1.14 -3.213,-0.027 -6.045,-0.642 -6.5295,-1.8285 -0.5175,-1.152 -1.0905,-3.357 -0.381,-3.384 0.729,-0.0195 3.4995,3.405 5.409,3.2475 1.9095,-0.231 3.636,-2.1615 5.1705,-2.694 1.5765,-0.513 5.2815,-0.6345 6.774,-1.986 1.5225,-1.3575 7.812,-10.3215 8.1255,-11.6445 0.321,-1.2825 -0.102,-2.4825 1.896,-3.465 1.986,-1.0305 3.636,-0.007 3.636,-0.007 0,0 0.4575,0.798 -0.2115,0.8265 -0.771,0.033 -1.671,0.873 -1.773,2.0325 -0.0345,1.2075 -1.1805,3.015 -2.4975,3.6705 -1.275,0.606 -0.1425,1.977 -0.1425,1.977 0,0 2.7765,-2.0805 3.99,-2.1 0,0 -0.198,1.044 0.0885,2.217 0.294,1.179 3.5955,3.165 2.4975,9.243 0,0 -1.0845,3.015 -1.7115,-0.048"
         style="fill:#231f20;fill-opacity:1;fill-rule:nonzero;stroke:none"
         id="path2549"
         inkscape:connector-curvature="0" />
      <path
         d="m 170.40516,317.95761 c 0,0 -0.348,3.9075 0.2865,4.482 0.615,0.5505 2.682,0.729 2.3535,2.973 -0.2385,2.2515 -1.521,6.7815 -1.4385,8.6835 0.033,1.8915 -0.669,2.157 -1.1805,0.267 -0.5595,-1.869 -2.3745,-8.8815 -2.4495,-10.191 -0.006,-1.29 0.0885,-4.605 0.444,-5.097 0.321,-0.456 1.719,-2.1825 1.9845,-1.1175"
         style="fill:#231f20;fill-opacity:1;fill-rule:nonzero;stroke:none"
         id="path2551"
         inkscape:connector-curvature="0" />
      <path
         d="m 432.15816,403.37961 c 0,0 16.011,19.3665 5.751,53.223 l 4.08,6.597 c 0,0 -1.038,-7.497 1.6155,-8.712 2.628,-1.2405 7.2255,-0.633 7.2255,-0.633 0,0 -0.5535,-14.619 -3.1725,-24.3345 -2.661,-9.6795 -6.843,-20.0355 -15.4995,-26.1405"
         style="fill:#231f20;fill-opacity:1;fill-rule:nonzero;stroke:none"
         id="path2553"
         inkscape:connector-curvature="0" />
      <path
         d="m 454.75266,425.16861 c 0,0 9.5295,20.6775 0.3,39.4365 0,0 -6.8295,2.1495 -10.356,-0.7515 l 9.5235,9.429 c 0,0 6.7815,-2.5035 9.0315,-3.3225 2.28,-0.825 8.76,-1.419 9.7905,-4.455 1.029,-3.0555 1.569,-9.4815 1.569,-9.4815 0,0 -3.207,5.757 -5.1165,6.978 -1.842,1.1535 -6.045,1.6995 -6.045,1.6995 0,0 1.5975,-5.076 1.194,-9.4485 0,0 -0.6885,-18.774 -9.891,-30.084"
         style="fill:#231f20;fill-opacity:1;fill-rule:nonzero;stroke:none"
         id="path2555"
         inkscape:connector-curvature="0" />
      <path
         d="m 469.86216,482.90211 0.4845,4.113 6.6855,4.257 c 0,0 7.8855,-4.0395 10.5255,-4.8705 0,0 1.071,-1.8765 1.4265,-3.4245 0.3,-1.5225 -6.9855,8.145 -19.122,-0.075"
         style="fill:#231f20;fill-opacity:1;fill-rule:nonzero;stroke:none"
         id="path2557"
         inkscape:connector-curvature="0" />
      <path
         d="m 418.46616,480.68361 c 0,0 0.1845,-1.5825 0.4035,-2.469 0,0 -0.921,-5.553 15.9555,-2.4225 0,0 -3.3825,2.388 -4.0245,4.2915 -0.702,1.896 -2.523,4.9665 -7.401,7.02 0,0 -1.8975,-2.0805 -4.9335,-6.42"
         style="fill:#231f20;fill-opacity:1;fill-rule:nonzero;stroke:none"
         id="path2559"
         inkscape:connector-curvature="0" />
      <path
         d="m 482.49666,496.96161 c 0,0 1.896,3.3285 3.0285,4.1475 1.1325,0.873 4.0665,2.5305 5.4915,2.2845 1.419,-0.2115 2.286,-1.2885 3.7665,-1.3425 1.4115,-0.0825 19.428,13.881 19.905,17.421 0.5115,3.528 1.194,12.75 2.982,17.3355 0,0 0.9615,1.221 3.363,3.0615 2.4285,1.8705 7.326,7.416 8.412,7.887 1.1175,0.492 4.44,-1.7535 4.44,-1.7535 0,0 -4.509,-0.7425 -5.5125,-2.292 -0.9345,-1.6035 -3.411,-4.6935 -5.832,-12.081 0,0 -3.438,-4.857 -5.136,-11.7195 0,0 -0.2265,-1.236 -2.9955,-3.8205 -2.811,-2.5785 -18.9105,-18.18 -19.8315,-18.822 -0.921,-0.696 -4.6185,2.2515 -7.4835,1.6515 -2.9265,-0.6 -4.5975,-1.9575 -4.5975,-1.9575"
         style="fill:#231f20;fill-opacity:1;fill-rule:nonzero;stroke:none"
         id="path2561"
         inkscape:connector-curvature="0" />
      <path
         d="m 516.17616,499.84011 c 0,0 1.2555,10.4775 2.3745,11.6715 1.1445,1.167 13.4385,11.2695 15.567,15.261 2.148,3.99 5.4705,11.7405 5.4705,11.7405 0,0 0.069,-3.3495 -0.75,-6.201 -0.84,-2.8035 -4.932,-11.7615 -6.8295,-13.8015 0,0 -7.605,-5.0685 -10.416,-8.5605 -2.7975,-3.405 -3.3435,-7.845 -5.4165,-10.11"
         style="fill:#231f20;fill-opacity:1;fill-rule:nonzero;stroke:none"
         id="path2563"
         inkscape:connector-curvature="0" />
      <path
         d="m 493.88166,478.25511 c 0,0 4.707,1.065 5.6145,5.1225 0.894,4.0875 0.819,13.3035 0.819,13.3035 0,0 3.5745,-2.2575 4.005,-4.5915 0.471,-2.319 1.7325,-6.807 2.4075,-7.722 0,0 -2.9805,-3.0975 -4.8225,-4.0995 -1.815,-0.996 -5.8875,-2.0805 -8.0235,-2.013"
         style="fill:#231f20;fill-opacity:1;fill-rule:nonzero;stroke:none"
         id="path2565"
         inkscape:connector-curvature="0" />
      <path
         d="m 479.69316,450.09561 c 0,0 2.865,9.5085 3.015,13.425 0.1635,3.8955 0.525,9.2235 -1.0305,10.887 -1.5885,1.665 -1.8825,3.2685 -1.8825,3.2685 0,0 3.5805,-0.621 5.157,-1.9515 1.596,-1.3305 3.3705,-7.2525 3.3705,-7.2525 0,0 -5.199,-13.1445 -8.6295,-18.3765"
         style="fill:#231f20;fill-opacity:1;fill-rule:nonzero;stroke:none"
         id="path2567"
         inkscape:connector-curvature="0" />
      <path
         d="m 457.50816,495.70611 c 0,0 9.0465,9.987 9.7695,10.8525 1.821,2.088 -0.696,5.1855 -3.0225,6.501 0,0 2.442,12.021 3.7935,14.8185 1.371,2.7825 3.315,6.7875 2.1555,9.147 0,0 9.4065,6.0585 9.837,7.314 0.396,1.2135 -3.303,3.1245 -8.493,0.4635 0,0 -1.242,0.231 0.231,1.2345 1.5015,1.0155 6.495,4.065 8.487,3.99 1.971,-0.0885 3.6975,-2.7885 3.6975,-2.7885 0,0 -3.9225,-2.8995 -5.3625,-7.485 0,0 -5.184,-3.888 -5.607,-5.6625 0,0 -4.974,-12.1005 -3.6165,-19.776 0,0 1.9185,-1.842 1.884,-2.721 -0.021,-0.9285 0.6,-3.7665 -0.5595,-4.9935 -1.092,-1.188 -13.194,-10.8945 -13.194,-10.8945"
         style="fill:#231f20;fill-opacity:1;fill-rule:nonzero;stroke:none"
         id="path2569"
         inkscape:connector-curvature="0" />
      <path
         d="m 440.33166,505.74111 c 0,0 7.5645,3.459 11.364,-0.7785 0,0 8.6985,6.651 9.1965,9.6405 0.4845,3.015 -2.3745,9.3525 -0.5805,18.8955 0,0 -4.707,-10.512 -4.8225,-18.5145 0,0 -2.4765,-2.934 -3.5475,-3.438 -1.092,-0.471 -6.4125,-0.492 -11.61,-5.805"
         style="fill:#231f20;fill-opacity:1;fill-rule:nonzero;stroke:none"
         id="path2571"
         inkscape:connector-curvature="0" />
      <path
         d="m 428.16066,493.10661 c 0,0 6.774,8.2755 8.6295,9.639 0,0 8.397,-2.811 10.356,-3.936 1.944,-1.119 1.6785,-3.0825 1.6785,-3.0825 0,0 -5.13,2.319 -10.056,1.7805 -4.8915,-0.567 -10.608,-4.401 -10.608,-4.401"
         style="fill:#231f20;fill-opacity:1;fill-rule:nonzero;stroke:none"
         id="path2573"
         inkscape:connector-curvature="0" />
      <path
         d="m 462.18066,550.45011 c 0,0 2.559,5.247 7.095,6.3585 l 1.269,-0.225 c 0,0 -3.738,-3.9495 -5.778,-5.151 -2.0535,-1.1595 -2.586,-0.9825 -2.586,-0.9825"
         style="fill:#231f20;fill-opacity:1;fill-rule:nonzero;stroke:none"
         id="path2575"
         inkscape:connector-curvature="0" />
      <path
         d="m 468.69666,549.72711 c 0,0 1.1385,2.094 1.848,2.7705 0.771,0.6945 1.3995,2.7765 4.113,3.063 2.736,0.252 5.703,-2.1495 5.703,-2.1495 0,0 -8.349,-0.9825 -11.664,-3.684"
         style="fill:#231f20;fill-opacity:1;fill-rule:nonzero;stroke:none"
         id="path2577"
         inkscape:connector-curvature="0" />
      <path
         d="m 531.60066,538.06311 c 0,0 -1.2765,3.6285 -0.2115,4.113 1.152,0.477 6.459,2.4285 7.674,1.5 1.2555,-0.927 1.194,-1.452 1.194,-1.452 0,0 -5.3955,-0.723 -6.7275,-2.088 -1.3095,-1.3635 -1.929,-2.073 -1.929,-2.073"
         style="fill:#231f20;fill-opacity:1;fill-rule:nonzero;stroke:none"
         id="path2579"
         inkscape:connector-curvature="0" />
      <path
         d="m 482.05266,364.09311 c 0,0 4.83,2.1615 5.1645,6.8685 0,0 -7.293,-5.13 -12.4365,-2.2905 0,0 2.0805,-2.8665 7.272,-4.578"
         style="fill:#231f20;fill-opacity:1;fill-rule:nonzero;stroke:none"
         id="path2581"
         inkscape:connector-curvature="0" />
      <path
         d="m 482.96016,377.77011 c 0,0 -5.6205,-2.292 -8.124,-5.2665 0,0 -0.1575,2.682 0.9615,4.1745 1.1055,1.515 1.1805,4.797 1.077,5.9145 -0.048,1.113 0.1575,2.484 0.1575,2.484 0,0 3.888,-3.711 5.928,-7.3065"
         style="fill:#231f20;fill-opacity:1;fill-rule:nonzero;stroke:none"
         id="path2583"
         inkscape:connector-curvature="0" />
      <path
         d="m 450.61116,387.48561 c 0,0 6.501,2.598 5.6625,9.447 0,0 4.2495,-1.0845 6.603,-2.1075 0,0 -4.0305,-7.749 -12.2655,-7.3395"
         style="fill:#231f20;fill-opacity:1;fill-rule:nonzero;stroke:none"
         id="path2585"
         inkscape:connector-curvature="0" />
      <path
         d="m 464.00316,383.80011 c 0,0 2.796,3.0225 3.294,6.1545 0,0 -4.2975,-4.8585 -8.772,-6.4065 -0.8055,-0.423 -3.7455,-0.744 -4.578,-1.173 2.5305,0.102 5.4645,-0.873 6.1665,-1.1865 2.1705,-0.8325 4.653,-2.1705 6.7545,-4.428 0,0 4.0185,3.261 6.03,7.449 0,0 -5.4165,-3.5535 -7.7295,-3.1575 -2.448,0.3405 -1.1655,2.748 -1.1655,2.748"
         style="fill:#231f20;fill-opacity:1;fill-rule:nonzero;stroke:none"
         id="path2587"
         inkscape:connector-curvature="0" />
      <path
         d="m 426.21666,390.82761 c 5.2725,-2.6205 8.0835,-4.23 12.2925,-4.2705 0.1515,0.007 2.859,0.8595 4.626,2.3805 1.0635,0.996 3.111,3.3285 2.8305,7.641 0,0 -6.003,-4.572 -9.339,-4.824 -3.4035,-0.273 -5.949,0.642 -2.8725,6.1665 0,0 -2.5095,-1.6905 -4.8435,-3.444 -2.7,-1.9575 -9.9045,-5.8605 -13.5615,-7.743 0,0 8.52,2.436 10.8675,4.0935"
         style="fill:#231f20;fill-opacity:1;fill-rule:nonzero;stroke:none"
         id="path2589"
         inkscape:connector-curvature="0" />
      <path
         d="m 500.51316,363.35511 c 0.327,-0.4635 0.5325,-1.5675 0.3615,-2.0325 -1.0845,-3.1995 -4.6935,-2.9805 -4.6935,-2.9805 0,0 2.613,-0.621 4.803,-0.7365 1.971,-0.0885 3.9555,2.019 3.7305,3.5055 -0.177,1.515 -1.0365,2.79 -2.7765,3.1935 -1.044,0.279 -2.2785,0.6135 -3.417,0.975 0.8055,-0.792 1.74,-1.446 1.992,-1.9245"
         style="fill:#231f20;fill-opacity:1;fill-rule:nonzero;stroke:none"
         id="path2591"
         inkscape:connector-curvature="0" />
      <path
         d="m 490.56666,360.23811 c 2.7495,0.2115 4.83,1.5825 5.6955,4.005 0.1995,0.6675 -0.15,1.494 -0.204,1.923 -1.698,0.6135 -4.6935,2.19 -4.6935,2.19 0,0 1.2285,-1.89 0.6285,-3.6285 -0.5595,-1.794 -4.401,-3.3435 -4.401,-3.3435"
         style="fill:#231f20;fill-opacity:1;fill-rule:nonzero;stroke:none"
         id="path2593"
         inkscape:connector-curvature="0" />
      <path
         d="m 441.42966,400.58961 c 0,0 20.595,12.033 32.853,39.225 0,0 -4.686,-14.565 -8.7375,-20.82 -7.266,-11.2155 -24.1155,-18.405 -24.1155,-18.405"
         style="fill:#231f20;fill-opacity:1;fill-rule:nonzero;stroke:none"
         id="path2595"
         inkscape:connector-curvature="0" />
      <path
         d="m 417.77766,433.60011 c 0,0 0.4635,10.956 -2.673,12.0405 -10.158,3.519 -11.9865,-0.798 -13.3035,-1.8495 -4.4415,-3.4305 0.75,4.599 0.75,4.599 l 15.8265,1.302 4.428,-7.701"
         style="fill:#231f20;fill-opacity:1;fill-rule:nonzero;stroke:none"
         id="path2597"
         inkscape:connector-curvature="0" />
      <path
         d="m -117.50199,462.57261 9.74175,0 3.14475,-14.8035 21.0111,0 -3.13815,14.8035 11.35125,0 -2.78955,13.104 -11.35845,0 -3.4383,16.23 c -0.90705,4.29 0.80505,4.5495 5.33505,4.5495 1.69155,0 3.6492,-0.0885 5.6754,-0.171 l -2.6127,12.273 c -3.7929,0.498 -8.95725,1.0035 -15.5127,1.0035 -12.78405,0 -17.14335,-2.436 -14.4897,-14.961 l 4.03185,-18.924 -9.75525,0"
         style="fill:#ffffff;fill-opacity:1;fill-rule:nonzero;stroke:none"
         id="path2599"
         inkscape:connector-curvature="0" />
      <path
         d="m -117.50199,462.57261 9.74175,0 3.14475,-14.8035 21.0111,0 -3.13815,14.8035 11.35125,0 -2.78955,13.104 -11.35845,0 -3.4383,16.23 c -0.90705,4.29 0.80505,4.5495 5.33505,4.5495 1.69155,0 3.6492,-0.0885 5.6754,-0.171 l -2.6127,12.273 c -3.7929,0.498 -8.95725,1.0035 -15.5127,1.0035 -12.78405,0 -17.14335,-2.436 -14.4897,-14.961 l 4.03185,-18.924 -9.75525,0 2.80365,-13.104 z"
         style="fill:none;stroke:#ffffff;stroke-width:12.70903492;stroke-linecap:butt;stroke-linejoin:miter;stroke-miterlimit:4;stroke-opacity:1;stroke-dasharray:none"
         id="path2601"
         inkscape:connector-curvature="0" />
      <path
         d="m -64.63989,446.41161 21.01815,0 -2.4762,11.625 -21.0111,0 2.46915,-11.625 z m -3.4383,16.161 21.0252,0 -9.76935,45.9855 -21.045,0"
         style="fill:#ffffff;fill-opacity:1;fill-rule:nonzero;stroke:none"
         id="path2603"
         inkscape:connector-curvature="0" />
      <path
         d="m -64.63989,446.41161 21.01815,0 -2.4762,11.625 -21.0111,0 2.46915,-11.625 z m -3.4383,16.161 21.0252,0 -9.76935,45.9855 -21.045,0 9.78915,-45.9855 z"
         style="fill:none;stroke:#ffffff;stroke-width:12.70903492;stroke-linecap:butt;stroke-linejoin:miter;stroke-miterlimit:4;stroke-opacity:1;stroke-dasharray:none"
         id="path2605"
         inkscape:connector-curvature="0" />
      <path
         d="m -11.08884,474.91911 c -8.6706,0 -12.83835,4.2165 -13.8549,8.9985 -1.0641,4.9725 1.33065,9.162 9.9939,9.162 8.9025,0 12.9885,-4.1895 14.0535,-9.162 1.0155,-4.782 -1.2825,-8.9985 -10.1925,-8.9985 m 6.618,25.8135 c -4.9935,3.705 -11.823,4.9605 -19.30635,4.9605 -18.07095,0 -26.1891,-7.7295 -23.09175,-22.191 3.06975,-14.4555 16.8978,-22.1985 32.5326,-22.1985 8.4045,0 14.217,2.3535 17.547,6.48 l 1.0905,-5.211 20.37,0 -9.0855,42.69 c -3.132,14.7285 -15.363,20.439 -36.3951,20.439 -22.9353,0 -30.26835,-4.611 -29.85225,-16.14 l 23.2008,0 c 0.02745,1.5135 0.55245,2.6115 1.90305,3.363 1.3512,0.756 3.5274,1.1865 6.72,1.1865 8.5815,0 12.183,-3.117 13.527,-9.4215"
         style="fill:#ffffff;fill-opacity:1;fill-rule:nonzero;stroke:none"
         id="path2607"
         inkscape:connector-curvature="0" />
      <path
         d="m -11.08884,474.91911 c -8.6706,0 -12.83835,4.2165 -13.8549,8.9985 -1.0641,4.9725 1.33065,9.162 9.9939,9.162 8.9025,0 12.9885,-4.1895 14.0535,-9.162 1.0155,-4.782 -1.2825,-8.9985 -10.1925,-8.9985 z m 6.618,25.8135 c -4.9935,3.705 -11.823,4.9605 -19.30635,4.9605 -18.07095,0 -26.1891,-7.7295 -23.09175,-22.191 3.06975,-14.4555 16.8978,-22.1985 32.5326,-22.1985 8.4045,0 14.217,2.3535 17.547,6.48 l 1.0905,-5.211 20.37,0 -9.0855,42.69 c -3.132,14.7285 -15.363,20.439 -36.3951,20.439 -22.9353,0 -30.26835,-4.611 -29.85225,-16.14 l 23.2008,0 c 0.02745,1.5135 0.55245,2.6115 1.90305,3.363 1.3512,0.756 3.5274,1.1865 6.72,1.1865 8.5815,0 12.183,-3.117 13.527,-9.4215 l 0.84,-3.957 z"
         style="fill:none;stroke:#ffffff;stroke-width:12.70903492;stroke-linecap:butt;stroke-linejoin:miter;stroke-miterlimit:4;stroke-opacity:1;stroke-dasharray:none"
         id="path2609"
         inkscape:connector-curvature="0" />
      <path
         d="m 72.17766,479.88561 c 0.642,-4.9665 -3.4845,-8.07 -10.7235,-8.07 -7.3125,0 -11.9985,2.2785 -14.3325,8.07 l 25.056,0 z m 17.772,14.8785 c -2.6055,4.7895 -6.9795,8.7525 -12.942,11.448 -5.9475,2.6805 -13.506,4.2015 -23.1735,4.2015 -22.1025,0 -33.003,-8.076 -29.4285,-24.9 3.3825,-15.873 17.3745,-24.7965 38.058,-24.7965 20.337,0 33.8715,6.801 28.6515,29.7705 l -46.245,0 c -0.7095,3.2745 1.6725,8.3085 10.9365,8.3085 5.457,0 8.9085,-1.1805 11.781,-4.032"
         style="fill:#ffffff;fill-opacity:1;fill-rule:nonzero;stroke:none"
         id="path2611"
         inkscape:connector-curvature="0" />
      <path
         d="m 72.17766,479.88561 c 0.642,-4.9665 -3.4845,-8.07 -10.7235,-8.07 -7.3125,0 -11.9985,2.2785 -14.3325,8.07 l 25.056,0 z m 17.772,14.8785 c -2.6055,4.7895 -6.9795,8.7525 -12.942,11.448 -5.9475,2.6805 -13.506,4.2015 -23.1735,4.2015 -22.1025,0 -33.003,-8.076 -29.4285,-24.9 3.3825,-15.873 17.3745,-24.7965 38.058,-24.7965 20.337,0 33.8715,6.801 28.6515,29.7705 l -46.245,0 c -0.7095,3.2745 1.6725,8.3085 10.9365,8.3085 5.457,0 8.9085,-1.1805 11.781,-4.032 l 22.362,0 z"
         style="fill:none;stroke:#ffffff;stroke-width:12.70903492;stroke-linecap:butt;stroke-linejoin:miter;stroke-miterlimit:4;stroke-opacity:1;stroke-dasharray:none"
         id="path2613"
         inkscape:connector-curvature="0" />
      <path
         d="m 102.01716,462.57261 20.322,0 -1.863,8.82 0.1785,0 c 6.9855,-7.149 14.4885,-10.089 21.7335,-10.089 2.265,0 4.578,0.1695 6.768,0.5115 l -3.9975,18.8355 c -3.507,-0.936 -6.453,-1.686 -10.131,-1.686 -7.497,0 -16.0035,2.4285 -18.1185,12.3615 l -3.6495,17.232 -21.018,0"
         style="fill:#ffffff;fill-opacity:1;fill-rule:nonzero;stroke:none"
         id="path2615"
         inkscape:connector-curvature="0" />
      <path
         d="m 102.01716,462.57261 20.322,0 -1.863,8.82 0.1785,0 c 6.9855,-7.149 14.4885,-10.089 21.7335,-10.089 2.265,0 4.578,0.1695 6.768,0.5115 l -3.9975,18.8355 c -3.507,-0.936 -6.453,-1.686 -10.131,-1.686 -7.497,0 -16.0035,2.4285 -18.1185,12.3615 l -3.6495,17.232 -21.018,0 9.7755,-45.9855 z"
         style="fill:none;stroke:#ffffff;stroke-width:12.70903492;stroke-linecap:butt;stroke-linejoin:miter;stroke-miterlimit:4;stroke-opacity:1;stroke-dasharray:none"
         id="path2617"
         inkscape:connector-curvature="0" />
      <path
         d="m 191.02116,487.62111 c -3.6975,0.7575 -9.7755,1.269 -17.3895,1.9245 -3.9495,0.3345 -6.0705,1.6095 -6.699,4.5495 -0.675,3.18 1.5015,5.2125 6.7065,5.2125 7.0605,0 15.267,-1.767 16.9455,-9.6795 l 0.4365,-2.007 z m -39.519,-11.106 c 2.5995,-6.288 6.0315,-10.17 11.754,-12.612 5.6355,-2.3475 13.4595,-3.186 24.558,-3.186 21.4485,0 28.926,4.788 26.0055,18.501 l -4.7145,22.1835 c -0.75,3.534 -0.2715,5.6415 0.417,7.1565 l -21.537,0 c -0.1155,-1.3515 -0.054,-2.865 0.219,-4.5495 -5.643,4.3725 -13.215,6.405 -24.402,6.405 -14.1285,0 -22.2255,-3.7995 -19.728,-15.567 1.7865,-8.4045 8.9085,-13.788 24.5985,-14.4495 l 17.9205,-0.846 c 4.257,-0.2445 5.901,-1.2615 6.4335,-3.786 0.6555,-3.0285 -2.8305,-4.461 -8.8005,-4.461 -4.8015,0 -9.741,0.7575 -11.6925,5.211"
         style="fill:#ffffff;fill-opacity:1;fill-rule:nonzero;stroke:none"
         id="path2619"
         inkscape:connector-curvature="0" />
      <path
         d="m 191.02116,487.62111 c -3.6975,0.7575 -9.7755,1.269 -17.3895,1.9245 -3.9495,0.3345 -6.0705,1.6095 -6.699,4.5495 -0.675,3.18 1.5015,5.2125 6.7065,5.2125 7.0605,0 15.267,-1.767 16.9455,-9.6795 l 0.4365,-2.007 z m -39.519,-11.106 c 2.5995,-6.288 6.0315,-10.17 11.754,-12.612 5.6355,-2.3475 13.4595,-3.186 24.558,-3.186 21.4485,0 28.926,4.788 26.0055,18.501 l -4.7145,22.1835 c -0.75,3.534 -0.2715,5.6415 0.417,7.1565 l -21.537,0 c -0.1155,-1.3515 -0.054,-2.865 0.219,-4.5495 -5.643,4.3725 -13.215,6.405 -24.402,6.405 -14.1285,0 -22.2255,-3.7995 -19.728,-15.567 1.7865,-8.4045 8.9085,-13.788 24.5985,-14.4495 l 17.9205,-0.846 c 4.257,-0.2445 5.901,-1.2615 6.4335,-3.786 0.6555,-3.0285 -2.8305,-4.461 -8.8005,-4.461 -4.8015,0 -9.741,0.7575 -11.6925,5.211 l -21.0315,0 z"
         style="fill:none;stroke:#ffffff;stroke-width:12.70903492;stroke-linecap:butt;stroke-linejoin:miter;stroke-miterlimit:4;stroke-opacity:1;stroke-dasharray:none"
         id="path2621"
         inkscape:connector-curvature="0" />
      <path
         d="m 227.76366,446.41161 21.018,0 -2.463,11.625 -21.0255,0 2.4705,-11.625 z m -3.432,16.161 21.0315,0 -9.789,45.9855 -21.0255,0"
         style="fill:#ffffff;fill-opacity:1;fill-rule:nonzero;stroke:none"
         id="path2623"
         inkscape:connector-curvature="0" />
      <path
         d="m 227.76366,446.41161 21.018,0 -2.463,11.625 -21.0255,0 2.4705,-11.625 z m -3.432,16.161 21.0315,0 -9.789,45.9855 -21.0255,0 9.783,-45.9855 z"
         style="fill:none;stroke:#ffffff;stroke-width:12.70903492;stroke-linecap:butt;stroke-linejoin:miter;stroke-miterlimit:4;stroke-opacity:1;stroke-dasharray:none"
         id="path2625"
         inkscape:connector-curvature="0" />
      <path
         d="m 252.49866,462.57261 20.3505,0 -1.8705,8.82 0.1575,0 c 6.978,-7.149 14.511,-10.089 21.7215,-10.089 2.2785,0 4.5975,0.1695 6.8085,0.5115 l -4.005,18.8355 c -3.513,-0.936 -6.4545,-1.686 -10.1445,-1.686 -7.4835,0 -15.9975,2.4285 -18.105,12.3615 l -3.6765,17.232 -21.012,0"
         style="fill:#ffffff;fill-opacity:1;fill-rule:nonzero;stroke:none"
         id="path2627"
         inkscape:connector-curvature="0" />
      <path
         d="m 252.49866,462.57261 20.3505,0 -1.8705,8.82 0.1575,0 c 6.978,-7.149 14.511,-10.089 21.7215,-10.089 2.2785,0 4.5975,0.1695 6.8085,0.5115 l -4.005,18.8355 c -3.513,-0.936 -6.4545,-1.686 -10.1445,-1.686 -7.4835,0 -15.9975,2.4285 -18.105,12.3615 l -3.6765,17.232 -21.012,0 9.7755,-45.9855 z"
         style="fill:none;stroke:#ffffff;stroke-width:12.70903492;stroke-linecap:butt;stroke-linejoin:miter;stroke-miterlimit:4;stroke-opacity:1;stroke-dasharray:none"
         id="path2629"
         inkscape:connector-curvature="0" />
      <path
         d="m 302.51616,462.57261 22.452,0 1.7115,27.1515 0.171,0 15.7725,-27.1515 17.838,0 3.384,27.1515 0.1635,0 14.1075,-27.1515 28.782,0 -31.7565,45.9855 -24.4695,0 -3.7935,-24.0465 -14.019,24.0465 -24.4755,0"
         style="fill:#ffffff;fill-opacity:1;fill-rule:nonzero;stroke:none"
         id="path2631"
         inkscape:connector-curvature="0" />
      <path
         d="m 302.51616,462.57261 22.452,0 1.7115,27.1515 0.171,0 15.7725,-27.1515 17.838,0 3.384,27.1515 0.1635,0 14.1075,-27.1515 28.782,0 -31.7565,45.9855 -24.4695,0 -3.7935,-24.0465 -14.019,24.0465 -24.4755,0 -5.868,-45.9855 z"
         style="fill:none;stroke:#ffffff;stroke-width:12.70903492;stroke-linecap:butt;stroke-linejoin:miter;stroke-miterlimit:4;stroke-opacity:1;stroke-dasharray:none"
         id="path2633"
         inkscape:connector-curvature="0" />
      <path
         d="m 400.03416,476.51511 c 2.5995,-6.288 6.024,-10.17 11.775,-12.612 5.628,-2.3475 13.4385,-3.186 24.5445,-3.186 21.441,0 28.911,4.788 26.0055,18.501 l -4.7355,22.1835 c -0.7425,3.534 -0.273,5.6415 0.4245,7.1565 l -21.5235,0 c -0.1305,-1.3515 -0.0615,-2.865 0.198,-4.5495 -5.628,4.3725 -13.215,6.405 -24.381,6.405 -14.1285,0 -22.239,-3.7995 -19.743,-15.567 1.8075,-8.4045 8.9025,-13.788 24.6135,-14.4495 l 17.907,-0.846 c 4.2495,-0.2445 5.907,-1.2615 6.447,-3.786 0.6345,-3.0285 -2.838,-4.461 -8.8065,-4.461 -4.8105,0 -9.756,0.7575 -11.721,5.211"
         style="fill:#ffffff;fill-opacity:1;fill-rule:nonzero;stroke:none"
         id="path2635"
         inkscape:connector-curvature="0" />
      <path
         d="m 400.03416,476.51511 c 2.5995,-6.288 6.024,-10.17 11.775,-12.612 5.628,-2.3475 13.4385,-3.186 24.5445,-3.186 21.441,0 28.911,4.788 26.0055,18.501 l -4.7355,22.1835 c -0.7425,3.534 -0.273,5.6415 0.4245,7.1565 l -21.5235,0 c -0.1305,-1.3515 -0.0615,-2.865 0.198,-4.5495 -5.628,4.3725 -13.215,6.405 -24.381,6.405 -14.1285,0 -22.239,-3.7995 -19.743,-15.567 1.8075,-8.4045 8.9025,-13.788 24.6135,-14.4495 l 17.907,-0.846 c 4.2495,-0.2445 5.907,-1.2615 6.447,-3.786 0.6345,-3.0285 -2.838,-4.461 -8.8065,-4.461 -4.8105,0 -9.756,0.7575 -11.721,5.211 l -21.0045,0 z"
         style="fill:none;stroke:#ffffff;stroke-width:12.70903492;stroke-linecap:butt;stroke-linejoin:miter;stroke-miterlimit:4;stroke-opacity:1;stroke-dasharray:none"
         id="path2637"
         inkscape:connector-curvature="0" />
      <path
         d="m 462.89016,510.65211 c 1.665,0.171 2.7225,0.2595 5.1645,0.2595 4.38,0 6.174,-0.177 8.5545,-3.534 l 1.7265,-2.5245 -15.9765,-42.2805 25.6425,0 5.1435,23.61 15.1995,-23.61 22.0275,0 -37.1715,53.469 c -4.6665,6.5415 -7.791,8.991 -19.0605,8.991 -4.701,0 -10.356,-0.4095 -14.148,-0.744"
         style="fill:#ffffff;fill-opacity:1;fill-rule:nonzero;stroke:none"
         id="path2639"
         inkscape:connector-curvature="0" />
      <path
         d="m 462.89016,510.65211 c 1.665,0.171 2.7225,0.2595 5.1645,0.2595 4.38,0 6.174,-0.177 8.5545,-3.534 l 1.7265,-2.5245 -15.9765,-42.2805 25.6425,0 5.1435,23.61 15.1995,-23.61 22.0275,0 -37.1715,53.469 c -4.6665,6.5415 -7.791,8.991 -19.0605,8.991 -4.701,0 -10.356,-0.4095 -14.148,-0.744 l 2.898,-13.6365 z"
         style="fill:none;stroke:#ffffff;stroke-width:12.70903492;stroke-linecap:butt;stroke-linejoin:miter;stroke-miterlimit:4;stroke-opacity:1;stroke-dasharray:none"
         id="path2641"
         inkscape:connector-curvature="0" />
      <path
         d="m 538.59216,490.31061 c -11.904,-1.263 -14.4,-6.1335 -12.7155,-14.1285 2.298,-10.854 13.377,-15.465 33.897,-15.465 14.2995,0 29.4705,2.598 27.117,15.636 l -23.712,0 c 0.258,-1.1745 0.0405,-2.184 -0.9825,-2.859 -1.0575,-0.669 -2.88,-1.173 -5.997,-1.173 -6.2895,0 -7.776,1.4325 -8.145,3.1845 -0.2385,1.182 0.567,2.436 5.0205,2.859 l 19.647,1.773 c 11.127,1.011 14.346,6.045 12.681,13.869 -2.517,11.871 -13.7595,16.407 -35.943,16.407 -21.858,0 -30.3975,-4.536 -28.584,-16.14 l 24.702,0 c -0.1365,1.842 0.5385,3.0015 1.8075,3.69 1.3785,0.675 3.4665,0.8325 5.805,0.8325 5.397,0 7.2795,-1.419 7.7295,-3.534 0.2865,-1.323 -0.108,-2.5845 -2.2515,-2.838"
         style="fill:#ffffff;fill-opacity:1;fill-rule:nonzero;stroke:none"
         id="path2643"
         inkscape:connector-curvature="0" />
      <path
         d="m 538.59216,490.31061 c -11.904,-1.263 -14.4,-6.1335 -12.7155,-14.1285 2.298,-10.854 13.377,-15.465 33.897,-15.465 14.2995,0 29.4705,2.598 27.117,15.636 l -23.712,0 c 0.258,-1.1745 0.0405,-2.184 -0.9825,-2.859 -1.0575,-0.669 -2.88,-1.173 -5.997,-1.173 -6.2895,0 -7.776,1.4325 -8.145,3.1845 -0.2385,1.182 0.567,2.436 5.0205,2.859 l 19.647,1.773 c 11.127,1.011 14.346,6.045 12.681,13.869 -2.517,11.871 -13.7595,16.407 -35.943,16.407 -21.858,0 -30.3975,-4.536 -28.584,-16.14 l 24.702,0 c -0.1365,1.842 0.5385,3.0015 1.8075,3.69 1.3785,0.675 3.4665,0.8325 5.805,0.8325 5.397,0 7.2795,-1.419 7.7295,-3.534 0.2865,-1.323 -0.108,-2.5845 -2.2515,-2.838 l -20.076,-2.1135 z"
         style="fill:none;stroke:#ffffff;stroke-width:12.70903492;stroke-linecap:butt;stroke-linejoin:miter;stroke-miterlimit:4;stroke-opacity:1;stroke-dasharray:none"
         id="path2645"
         inkscape:connector-curvature="0" />
      <path
         d="m 590.19216,492.21261 19.1145,0 -3.465,16.3455 -19.122,0"
         style="fill:#ffffff;fill-opacity:1;fill-rule:nonzero;stroke:none"
         id="path2647"
         inkscape:connector-curvature="0" />
      <path
         d="m 590.19216,492.21261 19.1145,0 -3.465,16.3455 -19.122,0 3.4725,-16.3455 z"
         style="fill:none;stroke:#ffffff;stroke-width:12.70903492;stroke-linecap:butt;stroke-linejoin:miter;stroke-miterlimit:4;stroke-opacity:1;stroke-dasharray:none"
         id="path2649"
         inkscape:connector-curvature="0" />
      <path
         d="m 660.59316,481.05861 c 0.3555,-2.8515 -0.621,-4.6185 -2.721,-5.7975 -1.7265,-1.017 -4.5705,-1.4265 -7.2735,-1.4265 -9.4125,0 -13.806,5.2125 -15.1095,11.3445 -1.494,7.068 1.7325,11.598 10.0695,11.598 5.8875,0 10.6215,-1.671 13.3095,-7.6335 l 22.047,0 c -6.249,19.08 -23.8755,21.27 -38.3385,21.27 -19.3455,0 -33.2085,-5.8935 -29.1765,-24.975 4.0245,-18.834 20.397,-24.7215 39.744,-24.7215 19.749,0 30.453,5.034 29.478,20.3415"
         style="fill:#ffffff;fill-opacity:1;fill-rule:nonzero;stroke:none"
         id="path2651"
         inkscape:connector-curvature="0" />
      <path
         d="m 660.59316,481.05861 c 0.3555,-2.8515 -0.621,-4.6185 -2.721,-5.7975 -1.7265,-1.017 -4.5705,-1.4265 -7.2735,-1.4265 -9.4125,0 -13.806,5.2125 -15.1095,11.3445 -1.494,7.068 1.7325,11.598 10.0695,11.598 5.8875,0 10.6215,-1.671 13.3095,-7.6335 l 22.047,0 c -6.249,19.08 -23.8755,21.27 -38.3385,21.27 -19.3455,0 -33.2085,-5.8935 -29.1765,-24.975 4.0245,-18.834 20.397,-24.7215 39.744,-24.7215 19.749,0 30.453,5.034 29.478,20.3415 l -22.029,0 z"
         style="fill:none;stroke:#ffffff;stroke-width:12.70903492;stroke-linecap:butt;stroke-linejoin:miter;stroke-miterlimit:4;stroke-opacity:1;stroke-dasharray:none"
         id="path2653"
         inkscape:connector-curvature="0" />
      <path
         d="m 715.25616,496.77711 c 8.493,0 12.8595,-3.8685 14.415,-11.2635 1.5345,-7.224 -1.1595,-11.1735 -9.639,-11.1735 -8.4045,0 -12.867,3.9495 -14.4015,11.1735 -1.5825,7.395 1.215,11.2635 9.6255,11.2635 m 7.668,-36.06 c 23.706,0 32.3625,7.899 28.7805,24.7965 -3.615,16.9875 -15.6345,24.9 -39.348,24.9 -23.7045,0 -32.3685,-7.9125 -28.7595,-24.9 3.6015,-16.8975 15.6075,-24.7965 39.327,-24.7965"
         style="fill:#ffffff;fill-opacity:1;fill-rule:nonzero;stroke:none"
         id="path2655"
         inkscape:connector-curvature="0" />
      <path
         d="m 715.25616,496.77711 c 8.493,0 12.8595,-3.8685 14.415,-11.2635 1.5345,-7.224 -1.1595,-11.1735 -9.639,-11.1735 -8.4045,0 -12.867,3.9495 -14.4015,11.1735 -1.5825,7.395 1.215,11.2635 9.6255,11.2635 z m 7.668,-36.06 c 23.706,0 32.3625,7.899 28.7805,24.7965 -3.615,16.9875 -15.6345,24.9 -39.348,24.9 -23.7045,0 -32.3685,-7.9125 -28.7595,-24.9 3.6015,-16.8975 15.6075,-24.7965 39.327,-24.7965 z"
         style="fill:none;stroke:#ffffff;stroke-width:12.70903492;stroke-linecap:butt;stroke-linejoin:miter;stroke-miterlimit:4;stroke-opacity:1;stroke-dasharray:none"
         id="path2657"
         inkscape:connector-curvature="0" />
      <path
         d="m 761.19516,462.57261 20.3565,0 -1.344,6.303 0.177,0 c 4.182,-4.2975 10.0215,-7.572 18.7605,-7.572 9.0795,0 12.108,3.117 13.602,7.647 3.738,-4.1955 10.008,-7.647 18.522,-7.647 10.068,0 17.2245,4.3725 14.844,15.5475 l -6.741,31.707 -21.0105,0 5.5185,-25.977 c 0.9765,-4.6395 -0.627,-6.141 -4.332,-6.141 -4.3725,0 -7.5915,2.088 -8.787,7.737 l -5.1765,24.381 -20.349,0 5.511,-25.977 c 0.99,-4.6395 -0.627,-6.141 -4.3185,-6.141 -4.386,0 -7.605,2.088 -8.793,7.737 l -5.184,24.381 -21.0045,0"
         style="fill:#ffffff;fill-opacity:1;fill-rule:nonzero;stroke:none"
         id="path2659"
         inkscape:connector-curvature="0" />
      <path
         d="m 761.19516,462.57261 20.3565,0 -1.344,6.303 0.177,0 c 4.182,-4.2975 10.0215,-7.572 18.7605,-7.572 9.0795,0 12.108,3.117 13.602,7.647 3.738,-4.1955 10.008,-7.647 18.522,-7.647 10.068,0 17.2245,4.3725 14.844,15.5475 l -6.741,31.707 -21.0105,0 5.5185,-25.977 c 0.9765,-4.6395 -0.627,-6.141 -4.332,-6.141 -4.3725,0 -7.5915,2.088 -8.787,7.737 l -5.1765,24.381 -20.349,0 5.511,-25.977 c 0.99,-4.6395 -0.627,-6.141 -4.3185,-6.141 -4.386,0 -7.605,2.088 -8.793,7.737 l -5.184,24.381 -21.0045,0 9.7485,-45.9855 z"
         style="fill:none;stroke:#ffffff;stroke-width:12.70903492;stroke-linecap:butt;stroke-linejoin:miter;stroke-miterlimit:4;stroke-opacity:1;stroke-dasharray:none"
         id="path2661"
         inkscape:connector-curvature="0" />
      <path
         d="m -117.50199,462.57261 9.74175,0 3.14475,-14.8035 21.0111,0 -3.13815,14.8035 11.35125,0 -2.78955,13.104 -11.35845,0 -3.4383,16.23 c -0.90705,4.29 0.80505,4.5495 5.33505,4.5495 1.69155,0 3.6492,-0.0885 5.6754,-0.171 l -2.6127,12.273 c -3.7929,0.498 -8.95725,1.0035 -15.5127,1.0035 -12.78405,0 -17.14335,-2.436 -14.4897,-14.961 l 4.03185,-18.924 -9.75525,0"
         style="fill:#231f20;fill-opacity:1;fill-rule:nonzero;stroke:none"
         id="path2663"
         inkscape:connector-curvature="0" />
      <path
         d="m -64.63989,446.41161 21.01815,0 -2.4762,11.625 -21.0111,0 2.46915,-11.625 z m -3.4383,16.161 21.0252,0 -9.76935,45.9855 -21.045,0"
         style="fill:#231f20;fill-opacity:1;fill-rule:nonzero;stroke:none"
         id="path2665"
         inkscape:connector-curvature="0" />
      <path
         d="m -11.08884,474.91911 c -8.6706,0 -12.83835,4.2165 -13.8549,8.9985 -1.0641,4.9725 1.33065,9.162 9.9939,9.162 8.9025,0 12.9885,-4.1895 14.0535,-9.162 1.0155,-4.782 -1.2825,-8.9985 -10.1925,-8.9985 m 6.618,25.8135 c -4.9935,3.705 -11.823,4.9605 -19.30635,4.9605 -18.07095,0 -26.1891,-7.7295 -23.09175,-22.191 3.06975,-14.4555 16.8978,-22.1985 32.5326,-22.1985 8.4045,0 14.217,2.3535 17.547,6.48 l 1.0905,-5.211 20.37,0 -9.0855,42.69 c -3.132,14.7285 -15.363,20.439 -36.3951,20.439 -22.9353,0 -30.26835,-4.611 -29.85225,-16.14 l 23.2008,0 c 0.02745,1.5135 0.55245,2.6115 1.90305,3.363 1.3512,0.756 3.5274,1.1865 6.72,1.1865 8.5815,0 12.183,-3.117 13.527,-9.4215"
         style="fill:#231f20;fill-opacity:1;fill-rule:nonzero;stroke:none"
         id="path2667"
         inkscape:connector-curvature="0" />
      <path
         d="m 72.17766,479.88561 c 0.642,-4.9665 -3.4845,-8.07 -10.7235,-8.07 -7.3125,0 -11.9985,2.2785 -14.3325,8.07 l 25.056,0 z m 17.772,14.8785 c -2.6055,4.7895 -6.9795,8.7525 -12.942,11.448 -5.9475,2.6805 -13.506,4.2015 -23.1735,4.2015 -22.1025,0 -33.003,-8.076 -29.4285,-24.9 3.3825,-15.873 17.3745,-24.7965 38.058,-24.7965 20.337,0 33.8715,6.801 28.6515,29.7705 l -46.245,0 c -0.7095,3.2745 1.6725,8.3085 10.9365,8.3085 5.457,0 8.9085,-1.1805 11.781,-4.032"
         style="fill:#231f20;fill-opacity:1;fill-rule:nonzero;stroke:none"
         id="path2669"
         inkscape:connector-curvature="0" />
      <path
         d="m 102.01716,462.57261 20.322,0 -1.863,8.82 0.1785,0 c 6.9855,-7.149 14.4885,-10.089 21.7335,-10.089 2.265,0 4.578,0.1695 6.768,0.5115 l -3.9975,18.8355 c -3.507,-0.936 -6.453,-1.686 -10.131,-1.686 -7.497,0 -16.0035,2.4285 -18.1185,12.3615 l -3.6495,17.232 -21.018,0"
         style="fill:#231f20;fill-opacity:1;fill-rule:nonzero;stroke:none"
         id="path2671"
         inkscape:connector-curvature="0" />
      <path
         d="m 191.02116,487.62111 c -3.6975,0.7575 -9.7755,1.269 -17.3895,1.9245 -3.9495,0.3345 -6.0705,1.6095 -6.699,4.5495 -0.675,3.18 1.5015,5.2125 6.7065,5.2125 7.0605,0 15.267,-1.767 16.9455,-9.6795 l 0.4365,-2.007 z m -39.519,-11.106 c 2.5995,-6.288 6.0315,-10.17 11.754,-12.612 5.6355,-2.3475 13.4595,-3.186 24.558,-3.186 21.4485,0 28.926,4.788 26.0055,18.501 l -4.7145,22.1835 c -0.75,3.534 -0.2715,5.6415 0.417,7.1565 l -21.537,0 c -0.1155,-1.3515 -0.054,-2.865 0.219,-4.5495 -5.643,4.3725 -13.215,6.405 -24.402,6.405 -14.1285,0 -22.2255,-3.7995 -19.728,-15.567 1.7865,-8.4045 8.9085,-13.788 24.5985,-14.4495 l 17.9205,-0.846 c 4.257,-0.2445 5.901,-1.2615 6.4335,-3.786 0.6555,-3.0285 -2.8305,-4.461 -8.8005,-4.461 -4.8015,0 -9.741,0.7575 -11.6925,5.211"
         style="fill:#a7a6a6;fill-opacity:1;fill-rule:nonzero;stroke:none"
         id="path2673"
         inkscape:connector-curvature="0" />
      <path
         d="m 227.76366,446.41161 21.018,0 -2.463,11.625 -21.0255,0 2.4705,-11.625 z m -3.432,16.161 21.0315,0 -9.789,45.9855 -21.0255,0"
         style="fill:#a7a6a6;fill-opacity:1;fill-rule:nonzero;stroke:none"
         id="path2675"
         inkscape:connector-curvature="0" />
      <path
         d="m 252.49866,462.57261 20.3505,0 -1.8705,8.82 0.1575,0 c 6.978,-7.149 14.511,-10.089 21.7215,-10.089 2.2785,0 4.5975,0.1695 6.8085,0.5115 l -4.005,18.8355 c -3.513,-0.936 -6.4545,-1.686 -10.1445,-1.686 -7.4835,0 -15.9975,2.4285 -18.105,12.3615 l -3.6765,17.232 -21.012,0"
         style="fill:#a7a6a6;fill-opacity:1;fill-rule:nonzero;stroke:none"
         id="path2677"
         inkscape:connector-curvature="0" />
      <path
         d="m 302.51616,462.57261 22.452,0 1.7115,27.1515 0.171,0 15.7725,-27.1515 17.838,0 3.384,27.1515 0.1635,0 14.1075,-27.1515 22.4505,0 -25.425,45.9855 -24.4695,0 -3.7935,-24.0465 -14.019,24.0465 -24.4755,0"
         style="fill:#a7a6a6;fill-opacity:1;fill-rule:nonzero;stroke:none"
         id="path2679"
         inkscape:connector-curvature="0" />
      <path
         d="m 439.55316,487.62111 c -3.6975,0.7575 -9.783,1.269 -17.403,1.9245 -3.9495,0.3345 -6.0495,1.6095 -6.678,4.5495 -0.6885,3.18 1.4805,5.2125 6.7065,5.2125 7.0605,0 15.273,-1.767 16.938,-9.6795 l 0.4365,-2.007 z m -39.519,-11.106 c 2.5995,-6.288 6.024,-10.17 11.775,-12.612 5.628,-2.3475 13.4385,-3.186 24.5445,-3.186 21.441,0 28.911,4.788 26.0055,18.501 l -4.7355,22.1835 c -0.7425,3.534 -0.273,5.6415 0.4245,7.1565 l -21.5235,0 c -0.1305,-1.3515 -0.0615,-2.865 0.198,-4.5495 -5.628,4.3725 -13.215,6.405 -24.381,6.405 -14.1285,0 -22.239,-3.7995 -19.743,-15.567 1.8075,-8.4045 8.9025,-13.788 24.6135,-14.4495 l 17.907,-0.846 c 4.2495,-0.2445 5.907,-1.2615 6.447,-3.786 0.6345,-3.0285 -2.838,-4.461 -8.8065,-4.461 -4.8105,0 -9.756,0.7575 -11.721,5.211"
         style="fill:#a7a6a6;fill-opacity:1;fill-rule:nonzero;stroke:none"
         id="path2681"
         inkscape:connector-curvature="0" />
      <path
         d="m 462.89016,510.65211 c 1.665,0.171 2.7225,0.2595 5.1645,0.2595 4.38,0 6.174,-0.177 8.5545,-3.534 l 1.7265,-2.5245 -12.3615,-42.2805 22.0275,0 5.1435,23.61 15.1995,-23.61 22.0275,0 -37.1715,53.469 c -4.6665,6.5415 -7.791,8.991 -19.0605,8.991 -4.701,0 -10.356,-0.4095 -14.148,-0.744"
         style="fill:#a7a6a6;fill-opacity:1;fill-rule:nonzero;stroke:none"
         id="path2683"
         inkscape:connector-curvature="0" />
      <path
         d="m 538.59216,490.31061 c -11.904,-1.263 -14.4,-6.1335 -12.7155,-14.1285 2.298,-10.854 13.377,-15.465 33.897,-15.465 14.2995,0 29.4705,2.598 27.117,15.636 l -23.712,0 c 0.258,-1.1745 0.0405,-2.184 -0.9825,-2.859 -1.0575,-0.669 -2.88,-1.173 -5.997,-1.173 -6.2895,0 -7.776,1.4325 -8.145,3.1845 -0.2385,1.182 0.567,2.436 5.0205,2.859 l 19.647,1.773 c 11.127,1.011 14.346,6.045 12.681,13.869 -2.517,11.871 -13.7595,16.407 -35.943,16.407 -21.858,0 -30.3975,-4.536 -28.584,-16.14 l 24.702,0 c -0.1365,1.842 0.5385,3.0015 1.8075,3.69 1.3785,0.675 3.4665,0.8325 5.805,0.8325 5.397,0 7.2795,-1.419 7.7295,-3.534 0.2865,-1.323 -0.108,-2.5845 -2.2515,-2.838"
         style="fill:#a7a6a6;fill-opacity:1;fill-rule:nonzero;stroke:none"
         id="path2685"
         inkscape:connector-curvature="0" />
      <path
         d="m 590.19216,492.21261 19.1145,0 -3.465,16.3455 -19.122,0"
         style="fill:#231f20;fill-opacity:1;fill-rule:nonzero;stroke:none"
         id="path2687"
         inkscape:connector-curvature="0" />
      <path
         d="m 660.59316,481.05861 c 0.3555,-2.8515 -0.621,-4.6185 -2.721,-5.7975 -1.7265,-1.017 -4.5705,-1.4265 -7.2735,-1.4265 -9.4125,0 -13.806,5.2125 -15.1095,11.3445 -1.494,7.068 1.7325,11.598 10.0695,11.598 5.8875,0 10.6215,-1.671 13.3095,-7.6335 l 22.047,0 c -6.249,19.08 -23.8755,21.27 -38.3385,21.27 -19.3455,0 -33.2085,-5.8935 -29.1765,-24.975 4.0245,-18.834 20.397,-24.7215 39.744,-24.7215 19.749,0 30.453,5.034 29.478,20.3415"
         style="fill:#231f20;fill-opacity:1;fill-rule:nonzero;stroke:none"
         id="path2689"
         inkscape:connector-curvature="0" />
      <path
         d="m 715.25616,496.77711 c 8.493,0 12.8595,-3.8685 14.415,-11.2635 1.5345,-7.224 -1.1595,-11.1735 -9.639,-11.1735 -8.4045,0 -12.867,3.9495 -14.4015,11.1735 -1.5825,7.395 1.215,11.2635 9.6255,11.2635 m 7.668,-36.06 c 23.706,0 32.3625,7.899 28.7805,24.7965 -3.615,16.9875 -15.6345,24.9 -39.348,24.9 -23.7045,0 -32.3685,-7.9125 -28.7595,-24.9 3.6015,-16.8975 15.6075,-24.7965 39.327,-24.7965"
         style="fill:#231f20;fill-opacity:1;fill-rule:nonzero;stroke:none"
         id="path2691"
         inkscape:connector-curvature="0" />
      <path
         d="m 761.19516,462.57261 20.3565,0 -1.344,6.303 0.177,0 c 4.182,-4.2975 10.0215,-7.572 18.7605,-7.572 9.0795,0 12.108,3.117 13.602,7.647 3.738,-4.1955 10.008,-7.647 18.522,-7.647 10.068,0 17.2245,4.3725 14.844,15.5475 l -6.741,31.707 -21.0105,0 5.5185,-25.977 c 0.9765,-4.6395 -0.627,-6.141 -4.332,-6.141 -4.3725,0 -7.5915,2.088 -8.787,7.737 l -5.1765,24.381 -20.349,0 5.511,-25.977 c 0.99,-4.6395 -0.627,-6.141 -4.3185,-6.141 -4.386,0 -7.605,2.088 -8.793,7.737 l -5.184,24.381 -21.0045,0"
         style="fill:#231f20;fill-opacity:1;fill-rule:nonzero;stroke:none"
         id="path2693"
         inkscape:connector-curvature="0" />
    </g>
  </g>
</svg>
