<?xml version="1.0" encoding="UTF-8" standalone="no"?>
<svg
   xmlns:dc="http://purl.org/dc/elements/1.1/"
   xmlns:cc="http://creativecommons.org/ns#"
   xmlns:rdf="http://www.w3.org/1999/02/22-rdf-syntax-ns#"
   xmlns:svg="http://www.w3.org/2000/svg"
   xmlns="http://www.w3.org/2000/svg"
   xmlns:sodipodi="http://sodipodi.sourceforge.net/DTD/sodipodi-0.dtd"
   xmlns:inkscape="http://www.inkscape.org/namespaces/inkscape"
   id="svg2"
   version="1.1"
   inkscape:version="0.47 r22583"
   width="1023"
   height="164"
   xml:space="preserve"><g
     id="g12"
     inkscape:groupmode="layer"
     inkscape:label="2000ar"
     transform="matrix(1.25,0,0,-1.25,-250.56123,1000.8764)"><path
       d="m 250.00524,728.18924 -25.76693,0 12.99398,30.18744 12.77295,-30.18744 z m 1.47351,-4.06765 4.06764,-9.38389 c 0.90349,-2.25291 2.71047,-6.10341 2.71047,-8.58122 0,-3.95907 -2.82292,-4.86256 -7.68548,-5.09134 l 0,-2.03577 29.50109,0 0,2.03577 c -8.36407,0.33347 -10.51228,6.66954 -13.33908,13.45153 l -25.42958,61.03796 -2.03576,0 -26.90307,-63.06984 c -3.38906,-7.91039 -5.76218,-10.84964 -11.64068,-11.41965 l 0,-2.03577 23.51401,0 0,2.03577 c -4.18397,0.33347 -8.7053,0.79104 -8.7053,4.97501 0,2.14821 1.58208,5.64972 2.48557,7.57303 l 4.52133,10.50841 28.93884,0"
       style="fill:#1563a8;fill-opacity:1;fill-rule:nonzero;stroke:none"
       id="path36" /><path
       d="m 314.69981,701.39861 c -18.539,0 -23.9677,18.20165 -23.9677,35.04225 0,16.84447 5.4287,35.04612 23.9677,35.04612 18.53513,0 23.95995,-18.20165 23.95995,-35.04612 0,-16.8406 -5.42482,-35.04225 -23.95995,-35.04225 z m 0,-4.06376 c 22.26542,0 36.62045,18.19777 36.62045,39.10601 0,20.916 -14.35503,39.11377 -36.62045,39.11377 -22.27317,0 -36.62432,-18.19777 -36.62432,-39.11377 0,-20.90824 14.35115,-39.10601 36.62432,-39.10601"
       style="fill:#1563a8;fill-opacity:1;fill-rule:nonzero;stroke:none"
       id="path38" /><path
       d="m 377.29658,713.72564 c 0,-5.65361 0,-9.8337 5.08359,-9.8337 l 16.73202,0 c 9.03878,0 14.68851,3.72641 19.4425,15.82465 l 1.80698,-0.34123 -6.44464,-20.34599 -57.8738,0 0,2.03577 c 10.62473,0 10.62473,2.8268 10.62473,12.31926 l 0,46.11679 c 0,9.50023 0,12.32315 -10.62473,12.32315 l 0,2.03188 33.8014,0 0,-2.03188 c -12.54805,0 -12.54805,-3.27661 -12.54805,-13.44766 l 0,-44.65104"
       style="fill:#1563a8;fill-opacity:1;fill-rule:nonzero;stroke:none"
       id="path40" /><path
       d="m 472.8533,713.3844 c 0,-9.49246 0,-12.31926 10.61698,-12.31926 l 0,-2.03577 -31.87033,0 0,2.03577 c 10.62473,0 10.62473,2.8268 10.62473,12.31926 l 0,55.61702 -11.18699,0 c -9.38389,0 -12.21069,-5.65748 -12.77295,-12.66438 l -2.03964,0 0.79491,17.51918 61.03408,0 0.79104,-17.51918 -2.03188,0 c -0.56614,7.0069 -3.39294,12.66438 -12.77295,12.66438 l -11.187,0 0,-55.61702"
       style="fill:#1563a8;fill-opacity:1;fill-rule:nonzero;stroke:none"
       id="path42" /><path
       d="m 520.57543,708.63429 c 0,-6.66566 2.6019,-7.4567 7.79406,-7.56915 l 0,-2.03577 -24.75486,0 0,2.03577 c 5.20379,0.11245 7.80569,0.90349 7.80569,7.56915 l 0,27.58554 c 0,7.68549 -2.37311,7.68549 -3.95907,7.68549 -1.24472,0 -2.71047,-0.44981 -3.84662,-0.90349 l -0.78716,1.91555 15.2624,6.21974 2.48556,0 0,-42.50283 z m -4.63766,66.06726 c 3.05559,0 5.54115,-2.48557 5.54115,-5.5334 0,-3.05558 -2.48556,-5.53727 -5.54115,-5.53727 -3.04782,0 -5.53727,2.48169 -5.53727,5.53727 0,3.04783 2.48945,5.5334 5.53727,5.5334"
       style="fill:#1563a8;fill-opacity:1;fill-rule:nonzero;stroke:none"
       id="path44" /><path
       d="m 553.21354,740.39993 c 4.97114,5.08747 9.82982,10.73719 17.63552,10.73719 6.32831,0 11.86558,-4.63378 12.65662,-10.96209 4.97113,5.87463 9.60879,10.96209 17.63939,10.96209 9.70961,0 13.32745,-8.58897 13.32745,-17.0655 l 0,-25.43733 c 0,-6.66566 2.6019,-7.4567 7.79794,-7.56915 l 0,-2.03577 -24.75099,0 0,2.03577 c 5.19992,0.11245 7.80182,0.90349 7.80182,7.56915 l 0,22.38175 c 0,6.33219 -0.2249,13.33909 -8.36407,13.33909 -5.42095,0 -9.38777,-3.27661 -13.11807,-6.782 l 0,-28.93884 c 0,-6.66566 2.60578,-7.4567 7.8057,-7.56915 l 0,-2.03577 -24.75487,0 0,2.03577 c 5.2038,0.11245 7.80182,0.90349 7.80182,7.56915 l 0,22.38175 c 0,6.33219 -0.22878,13.33909 -8.37183,13.33909 -5.41707,0 -9.37614,-3.27661 -13.10643,-6.782 l 0,-28.93884 c 0,-6.66566 2.59802,-7.4567 7.79794,-7.56915 l 0,-2.03577 -24.75099,0 0,2.03577 c 5.19992,0.11245 7.80182,0.90349 7.80182,7.56915 l 0,27.58554 c 0,7.68549 -2.377,7.68549 -3.96295,7.68549 -1.24085,0 -2.7066,-0.44981 -3.83887,-0.90349 l -0.79491,1.91555 15.26239,6.21974 2.48557,0 0,-10.73719"
       style="fill:#1563a8;fill-opacity:1;fill-rule:nonzero;stroke:none"
       id="path46" /><path
       d="m 633.98094,733.84672 c 0.4498,6.55321 5.19604,13.22276 11.8617,13.22276 8.0306,0 11.53211,-6.21586 11.53211,-13.22276 l -23.39381,0 z m 34.92204,-3.39294 c 0,12.20682 -7.68937,20.68334 -19.33005,20.68334 -16.04956,0 -23.38993,-13.11418 -23.38993,-27.69024 0,-15.48342 9.71349,-25.99958 22.03664,-25.99958 11.41965,0 18.76003,9.60492 20.68334,20.00475 l -1.69841,1.13227 c -2.59414,-7.34425 -7.00302,-12.09436 -15.13444,-12.09436 -12.3309,0 -18.20552,12.6605 -18.20552,23.96382 l 35.03837,0"
       style="fill:#1563a8;fill-opacity:1;fill-rule:nonzero;stroke:none"
       id="path48" /><path
       d="m 771.9164,756.33704 c 0.91125,2.6019 2.71435,7.57303 2.71435,10.17493 0,4.29255 -3.16416,5.31237 -8.24387,5.31237 l 0,2.03188 22.37787,0 0,-2.03188 c -7.46058,0 -9.04654,-6.21586 -11.08617,-12.20682 l -21.47051,-62.28267 -2.14821,0 -16.9608,47.47396 -0.22103,0 -16.60794,-47.47396 -2.26842,0 -23.05645,64.53946 c -2.48945,7.12711 -3.61784,9.95003 -10.39596,9.95003 l 0,2.03188 27.69024,0 0,-2.03188 c -4.06765,0 -7.35201,-0.90737 -7.35201,-4.74623 0,-1.81086 1.13227,-4.75012 1.70228,-6.44077 l 15.25852,-43.51489 0.22103,0 12.43559,34.92204 -3.04782,8.36019 c -2.37312,6.33219 -4.07152,11.41966 -11.52823,11.41966 l 0,2.03188 29.27232,0 0,-2.03188 c -4.74624,0 -8.0306,-0.33736 -8.0306,-5.08747 0,-3.28048 1.81474,-7.91039 2.93925,-10.96597 l 13.79277,-38.64845 0.22491,0 13.78889,39.21459"
       style="fill:#1563a8;fill-opacity:1;fill-rule:nonzero;stroke:none"
       id="path50" /><path
       d="m 809.62259,709.32064 c -2.59415,-2.14822 -7.3365,-5.54115 -10.84577,-5.54115 -4.97501,0 -8.02672,4.75011 -8.02672,9.26756 0,8.59285 11.30721,12.54805 18.87249,15.59587 l 0,-19.32228 z m 9.15899,28.13616 c 0,3.16804 0,13.68032 -16.61182,13.68032 -15.37485,0 -18.65533,-9.60492 -18.65533,-12.65662 0,-2.94313 1.47738,-5.42482 4.63765,-5.42482 3.50539,0 4.63766,2.59802 4.63766,8.02284 0,4.52133 3.84275,6.66954 7.56528,6.66954 8.71306,0 9.26757,-7.34813 9.26757,-15.82077 -9.26757,-4.07928 -28.01984,-8.59674 -28.01984,-21.25336 0,-7.4567 4.28867,-13.22663 12.09048,-13.22663 6.89057,0 10.84965,4.52133 15.92936,8.24774 0,-4.17622 1.2486,-8.24774 6.11504,-8.24774 4.74235,0 9.15123,4.85868 11.75701,8.24774 l 0,3.17191 c -1.46963,-1.46962 -4.07541,-4.40888 -5.88626,-4.40888 -2.8268,0 -2.8268,3.61396 -2.8268,8.70143 l 0,24.2973"
       style="fill:#1563a8;fill-opacity:1;fill-rule:nonzero;stroke:none"
       id="path52" /><path
       d="m 848.60452,740.29136 0.2249,0 c 2.48557,4.06377 6.78199,10.84576 12.77295,10.84576 3.38906,0 7.11935,-2.48944 7.11935,-6.21974 0,-2.59802 -2.14434,-5.08358 -4.85868,-5.08358 -3.61397,0 -5.53728,3.73029 -8.01897,3.73029 -2.60189,0 -6.22361,-6.32831 -7.23955,-8.47653 l 0,-21.24947 c 0,-9.15511 0,-12.77295 9.38001,-12.77295 l 0,-2.03577 -26.33694,0 0,2.03577 c 5.20379,0.11245 7.80181,0.90349 7.80181,7.56915 l 0,27.58554 c 0,7.68549 -2.37311,7.68549 -3.95519,7.68549 -1.24085,0 -2.71435,-0.44981 -3.84662,-0.90349 l -0.78716,1.91555 15.25464,6.21974 2.48945,0 0,-10.84576"
       style="fill:#1563a8;fill-opacity:1;fill-rule:nonzero;stroke:none"
       id="path54" /><path
       d="m 891.85961,740.51238 c 6.33606,7.01466 10.74106,10.62474 17.1857,10.62474 9.15124,0 12.77683,-8.58897 12.77683,-17.0655 l 0,-25.43733 c 0,-6.66566 2.58639,-7.4567 7.79406,-7.56915 l 0,-2.03577 -24.75098,0 0,2.03577 c 5.19604,0.11245 7.79406,0.90349 7.79406,7.56915 l 0,23.40157 c 0,11.19087 -4.62991,12.31927 -8.02284,12.31927 -5.19992,0 -9.04266,-3.39294 -12.77683,-7.23181 l 0,-28.48903 c 0,-6.66566 2.60577,-7.4567 7.80181,-7.56915 l 0,-2.03577 -24.75874,0 0,2.03577 c 5.2038,0.11245 7.80569,0.90349 7.80569,7.56915 l 0,27.58554 c 0,7.68549 -2.37311,7.68549 -3.95907,7.68549 -1.23697,0 -2.71047,-0.44981 -3.84662,-0.90349 l -0.78328,1.91555 15.25852,6.21974 2.48169,0 0,-10.62474"
       style="fill:#1563a8;fill-opacity:1;fill-rule:nonzero;stroke:none"
       id="path56" /><path
       d="m 939.35684,733.84672 c 0.44593,6.55321 5.19216,13.22276 11.86558,13.22276 8.02672,0 11.53211,-6.21586 11.53211,-13.22276 l -23.39769,0 z m 34.92204,-3.39294 c 0,12.20682 -7.68549,20.68334 -19.33005,20.68334 -16.04568,0 -23.39768,-13.11418 -23.39768,-27.69024 0,-15.48342 9.72512,-25.99958 22.04439,-25.99958 11.4119,0 18.76778,9.60492 20.68334,20.00475 l -1.69065,1.13227 c -2.60966,-7.34425 -7.01078,-12.09436 -15.14995,-12.09436 -12.31927,0 -18.19777,12.6605 -18.19777,23.96382 l 35.03837,0"
       style="fill:#1563a8;fill-opacity:1;fill-rule:nonzero;stroke:none"
       id="path58" /><path
       d="m 998.56455,740.29136 0.22102,0 c 2.48553,4.06377 6.78203,10.84576 12.77293,10.84576 3.3891,0 7.1194,-2.48944 7.1194,-6.21974 0,-2.59802 -2.1482,-5.08358 -4.8587,-5.08358 -3.6179,0 -5.5412,3.73029 -8.0229,3.73029 -2.6019,0 -6.21969,-6.32831 -7.23175,-8.47653 l 0,-21.24947 c 0,-9.15511 0,-12.77295 9.38385,-12.77295 l 0,-2.03577 -26.34466,0 0,2.03577 c 5.2038,0.11245 7.80182,0.90349 7.80182,7.56915 l 0,27.58554 c 0,7.68549 -2.36924,7.68549 -3.95908,7.68549 -1.23696,0 -2.71047,-0.44981 -3.84274,-0.90349 l -0.78716,1.91555 15.25852,6.21974 2.48945,0 0,-10.84576"
       style="fill:#1563a8;fill-opacity:1;fill-rule:nonzero;stroke:none"
       id="path60" /><path
       d="m 200.7243,795.08243 817.8023,0 0,5.34339 -817.8023,0 0,-5.34339 z"
       style="fill:#c7cce4;fill-opacity:1;fill-rule:nonzero;stroke:#c7cce4;stroke-width:0.55062509;stroke-linecap:butt;stroke-linejoin:miter;stroke-miterlimit:4;stroke-opacity:1;stroke-dasharray:none"
       id="path62" /><path
       d="m 200.7243,669.77645 817.8023,0 0,5.34339 -817.8023,0 0,-5.34339 z"
       style="fill:#c7cce4;fill-opacity:1;fill-rule:nonzero;stroke:#c7cce4;stroke-width:0.55062509;stroke-linecap:butt;stroke-linejoin:miter;stroke-miterlimit:4;stroke-opacity:1;stroke-dasharray:none"
       id="path64" /></g></svg>