<?xml version="1.0" encoding="UTF-8" standalone="no"?>
<!-- Created with Inkscape (http://www.inkscape.org/) -->

<svg
   xmlns:dc="http://purl.org/dc/elements/1.1/"
   xmlns:cc="http://creativecommons.org/ns#"
   xmlns:rdf="http://www.w3.org/1999/02/22-rdf-syntax-ns#"
   xmlns:svg="http://www.w3.org/2000/svg"
   xmlns="http://www.w3.org/2000/svg"
   xmlns:xlink="http://www.w3.org/1999/xlink"
   xmlns:sodipodi="http://sodipodi.sourceforge.net/DTD/sodipodi-0.dtd"
   xmlns:inkscape="http://www.inkscape.org/namespaces/inkscape"
   width="844"
   height="133"
   id="svg2"
   version="1.1"
   inkscape:version="0.47 r22583">
  <g
     inkscape:label="Layer 1"
     inkscape:groupmode="layer"
     id="layer1"
     transform="translate(-318.41198,-722.02883)">
    <path
       id="path3238"
       d="m 336.72281,753.10951 c -5.89244,0 -7.4953,-0.26714 -8.83866,1.07621 -1.33572,1.33572 -1.60286,6.0222 -2.13715,10.83842 l -0.26714,2.27455 -2.81647,0 1.34336,-18.20397 73.75468,0 -1.20596,18.20397 -2.80883,0 0,-2.67908 c 0.26714,-4.67884 0.66404,-9.5027 -0.53429,-10.57127 -1.34335,-1.06858 -4.02243,-0.93883 -9.37294,-0.93883 l -18.73826,0 0,68.40418 c 0,8.70126 -0.54192,9.09816 9.63246,9.09816 l 0,2.67908 -29.57668,0 0,-2.67908 c 10.43389,0 9.63246,-0.3969 9.63246,-9.09816 l 0,-68.40418 -18.06658,0"
       style="fill:#000000;fill-rule:nonzero;stroke:none" />
    <path
       id="path3240"
       d="m 405.43229,751.77379 0,-2.67907 29.5843,0 0,2.67907 c -10.17437,0 -9.76984,0.3969 -9.76984,9.09817 l 0,60.64173 c 0,8.70126 -0.40453,9.09816 9.76984,9.09816 l 0,2.67908 -29.5843,0 0,-2.67908 c 10.31176,0 9.64008,-0.3969 9.64008,-9.09816 l 0,-60.64173 c 0,-8.70127 0.67168,-9.09817 -9.64008,-9.09817"
       style="fill:#000000;fill-rule:nonzero;stroke:none" />
    <path
       id="path3242"
       d="m 546.95763,830.61185 0,2.67908 -29.58431,0 0,-2.67908 c 10.31177,0 9.64009,-0.3969 9.64009,-9.09816 l 0,-55.68811 c 0,-1.20597 0,-4.4117 0,-4.4117 l -33.45408,74.41873 -36.66745,-72.95325 -0.26714,57.96265 c 0,5.62529 -0.53429,10.17437 3.48051,10.17437 l 8.83865,0 0,2.67908 -24.76808,0 0,-2.67908 c 2.14479,0 5.75505,0.26715 6.96102,-0.93118 1.34335,-1.20597 1.4731,-3.6179 1.4731,-8.03723 l 0.12976,-59.16861 c 0,-4.14455 0.26714,-8.42649 -2.14479,-10.03699 -1.73262,-1.20596 -5.61766,-1.06858 -8.69363,-1.06858 l 0,-2.67907 18.20397,0 36.53768,72.28158 32.11073,-72.28158 19.67708,0 0,2.67907 -5.48791,0 c -1.74025,0 -3.0836,-0.13738 -4.41932,1.20597 -1.33572,1.33572 -1.20597,3.87741 -1.20597,8.70127 l 0,59.83266 c 0,8.70126 -0.53429,9.09816 9.64009,9.09816"
       style="fill:#000000;fill-rule:nonzero;stroke:none" />
    <path
       id="path3244"
       d="m 556.35347,830.61185 c 10.30413,0 9.64009,-0.3969 9.64009,-9.09816 l 0,-60.64173 c 0,-9.5027 0.26714,-9.09817 -9.64009,-9.09817 l 0,-2.67907 61.57291,0 0.40454,16.72322 -2.54932,0.53429 -0.26715,-3.07597 c -0.80143,-11.1132 -1.33572,-10.96818 -11.3727,-10.96818 l -18.20397,0 c -9.37294,0 -9.64009,0.67168 -9.64009,9.1058 l 0,21.68448 18.84511,0 c 3.74765,0 3.35075,-1.87765 3.35075,-4.95362 l 0,-4.95362 2.93859,0 0,28.64549 -2.93859,0 c 0,-4.28194 0,-8.70127 0,-8.70127 0,-4.28194 -0.40453,-4.95361 -3.35075,-4.95361 l -18.84511,0 0,32.79767 c 0,8.56388 -0.53429,9.23555 9.64009,9.09816 l 22.4859,-0.66404 c 6.96102,0 8.56388,-2.69434 12.04439,-18.62376 l 2.80883,0 -3.68659,22.50117 -63.23684,0 0,-2.67908"
       style="fill:#000000;fill-rule:nonzero;stroke:none" />
    <path
       id="path3246"
       d="m 1013.8798,830.61185 c 10.3042,0 9.6401,-0.3969 9.6401,-9.09816 l 0,-60.64173 c 0,-9.5027 0.2672,-9.09817 -9.6401,-9.09817 l 0,-2.67907 61.5729,0 0.4046,16.72322 -2.5417,0.53429 -0.2748,-3.07597 c -0.8014,-11.1132 -1.3357,-10.96818 -11.3727,-10.96818 l -18.204,0 c -9.3729,0 -9.6401,0.67168 -9.6401,9.1058 l 0,21.68448 18.8452,0 c 3.7476,0 3.3507,-1.87765 3.3507,-4.95362 l 0,-4.95362 2.9462,0 0,28.64549 -2.9462,0 c 0,-4.28194 0,-8.70127 0,-8.70127 0,-4.28194 -0.4045,-4.95361 -3.3507,-4.95361 l -18.8452,0 0,32.79767 c 0,8.56388 -0.5342,9.23555 9.6401,9.09816 l 22.4859,-0.66404 c 6.9611,0 8.5639,-2.69434 12.0444,-18.62376 l 2.8089,0 -3.679,22.50117 -63.2445,0 0,-2.67908"
       style="fill:#000000;fill-rule:nonzero;stroke:none" />
    <path
       id="path3248"
       d="m 684.23156,749.09472 0,2.67907 c -4.54908,0 -8.29673,-0.13738 -9.50269,1.87001 -0.80144,1.20597 0.26714,4.95362 1.87764,9.1058 l 22.75305,57.29098 17.97498,-56.2224 c -0.67167,-1.47311 -2.67907,-7.22816 -3.88504,-8.96841 -2.40429,-3.48051 -5.08337,-3.07598 -9.09816,-3.07598 l 0,-2.67907 28.91263,0 0,2.67907 c -4.0148,0 -7.09077,-0.40453 -8.56388,2.0074 -0.93882,1.47311 0.12975,4.0148 2.27454,9.64009 l 19.7305,56.88644 23.4171,-56.88644 c 2.14478,-5.09101 3.61026,-8.57151 2.80883,-9.90723 -1.20597,-1.87764 -3.21336,-1.74026 -9.90723,-1.74026 l 0,-2.67907 22.089,0 0,2.67907 c -4.95361,0.12976 -6.15958,1.74026 -8.29673,6.82363 l -32.79004,77.90687 -24.41698,-67.46535 -23.19574,67.1982 -30.24835,-75.49493 c -3.21337,-8.0296 -3.35075,-8.83866 -10.30414,-8.96842 l 0,-2.67907 28.37071,0"
       style="fill:#000000;fill-rule:nonzero;stroke:none" />
    <path
       id="path3250"
       d="m 804.10297,745.7516 1.33572,0 c 0.26714,1.87001 1.06857,4.95362 2.14478,7.35791 l 28.24096,70.00704 c 3.21336,8.16698 4.28194,7.36555 10.44152,7.4953 l 0,2.67908 -28.24096,0 0,-2.67908 c 0.93119,0 4.0148,-0.12975 4.4117,-0.12975 2.54168,-0.26715 3.4805,-0.93882 4.15218,-1.60287 1.20597,-1.47311 -0.67168,-5.76268 -2.94622,-11.25058 l -8.43412,-22.44011 -26.62282,0 -8.76996,22.70725 c -2.67908,6.02983 -4.41933,9.64009 -3.48051,11.1132 0.80143,1.20596 2.0074,1.60286 4.41933,1.60286 l 4.54908,0 0,2.67908 -20.47851,0 0,-2.67908 c 3.74765,-0.12975 4.68647,-1.06857 6.42673,-5.08337 l 32.8511,-79.77688 z m -14.25024,45.36108 22.73779,0 -11.03687,-27.95854 -11.70092,27.95854"
       style="fill:#000000;fill-rule:nonzero;stroke:none" />
    <path
       id="path3252"
       d="m 919.93667,831.41328 c 0,0 -7.66322,0.19845 -11.0903,-0.20608 -3.42707,-0.40453 -6.6557,-4.03006 -7.86167,-5.44211 -1.21359,-1.41204 -14.12047,-22.05847 -14.12047,-22.05847 -7.35792,-10.16674 -4.95362,-13.60146 -12.18178,-13.60146 l -4.46512,0 0,31.40853 c 0,8.70126 0.13739,9.09816 14.18917,9.09816 l 0,2.67908 -34.13339,0 0,-2.67908 c 10.30413,0 9.64009,-0.3969 9.64009,-9.09816 l 0,-60.64173 c 0,-8.70127 0.66404,-9.09817 -9.64009,-9.09817 l 0,-2.67907 28.02724,0 c 10.30413,0 20.8983,-2.3585 25.63057,10.09805 2.33561,6.15958 3.2439,11.8612 -0.3511,17.26514 -4.75517,7.15947 -6.54122,9.22793 -12.7008,12.57868 l 19.40993,31.14137 9.64772,11.23532 z m -49.71934,-75.89184 0,25.21078 c 0,2.28218 -0.12976,4.28957 1.74025,5.35815 2.80883,1.60286 10.89185,1.33572 16.37976,-1.60287 5.62529,-2.81646 6.41909,-4.87728 8.43412,-10.09041 2.07609,-5.38105 -0.3969,-14.13574 -7.76245,-19.08936 -4.68647,-3.20573 -9.55613,-2.99965 -15.98285,-2.86226 -1.87001,0 -2.80883,0.53429 -2.80883,3.07597"
       style="fill:#000000;fill-rule:nonzero;stroke:none" />
    <path
       id="path3254"
       d="m 1160.7938,831.41328 c 0,0 -7.6632,0.19845 -11.0903,-0.20608 -3.427,-0.40453 -6.648,-4.03006 -7.8616,-5.44211 -1.206,-1.41204 -14.1129,-22.05847 -14.1129,-22.05847 -7.3655,-10.16674 -4.9536,-13.60146 -12.1817,-13.60146 l -4.4652,0 0,31.40853 c 0,8.70126 0.1298,9.09816 14.1816,9.09816 l 0,2.67908 -34.1334,0 0,-2.67908 c 10.3117,0 9.6401,-0.3969 9.6401,-9.09816 l 0,-60.64173 c 0,-8.70127 0.6716,-9.09817 -9.6401,-9.09817 l 0,-2.67907 28.0272,0 c 10.3118,0 20.906,-2.3585 25.6306,10.09805 2.3356,6.15958 3.2439,11.8612 -0.3435,17.26514 -4.7551,7.15947 -6.5412,9.22793 -12.7008,12.57868 l 19.41,31.14137 9.64,11.23532 z m -49.7117,-75.89184 0,25.21078 c 0,2.28218 -0.1374,4.28957 1.7327,5.35815 2.8164,1.60286 10.8994,1.33572 16.3873,-1.60287 5.6177,-2.81646 6.4191,-4.87728 8.4265,-10.09041 2.0761,-5.38105 -0.3969,-14.13574 -7.7624,-19.08936 -4.6789,-3.20573 -9.5485,-2.99965 -15.9752,-2.86226 -1.8777,0 -2.8089,0.53429 -2.8089,3.07597"
       style="fill:#000000;fill-rule:nonzero;stroke:none" />
    <path
       id="path3256"
       d="m 940.61363,749.09472 54.34476,67.73249 0.54192,-54.48214 c 0,-6.15195 0.53429,-10.57128 -3.6179,-10.57128 l -7.22816,0 0,-2.67907 24.63065,0 0,2.67907 c 0,0 -4.9536,-0.13738 -6.8236,0.3969 -0.809,0.13739 -2.2822,0 -2.4119,3.6179 l -0.80144,79.24259 -1.74025,0 -59.16862,-73.6173 -1.06858,57.82526 c 0,3.07598 -0.40453,8.83103 2.80883,10.83842 1.20597,0.67168 8.56388,0.53429 9.23556,0.53429 l 0,2.67908 -24.36355,0 0,-2.67908 c 2.27454,0 5.48791,0.27478 6.96101,-1.33572 0.80144,-0.80143 0.80144,-3.48051 0.93883,-6.69387 l 1.33572,-59.16098 c 0.13738,-5.09101 0.13738,-8.83866 -3.34312,-10.97581 -1.6105,-0.93882 -6.15958,-0.67168 -8.43412,-0.67168 l 0,-2.67907 18.20396,0"
       style="fill:#000000;fill-rule:nonzero;stroke:none" />
    <path
       id="path3258"
       d="m 318.86231,855.02883 843.54969,0 0,-4.83913 -843.54969,0 z"
       style="fill:#000000;fill-rule:nonzero;stroke:none" />
    <path
       id="path3260"
       d="m 318.41198,726.86833 843.54972,0 0,-4.83913 -843.54972,0 z"
       style="fill:#000000;fill-rule:nonzero;stroke:none" />
  </g>
</svg>
