<?xml version="1.0" encoding="UTF-8" standalone="no"?>
<!-- Created with Inkscape (http://www.inkscape.org/) -->

<svg
   xmlns:svg="http://www.w3.org/2000/svg"
   xmlns="http://www.w3.org/2000/svg"
   version="1.1"
   width="613.23627"
   height="103.24977"
   id="svg3212">
  <defs
     id="defs3214" />
  <g
     transform="translate(-149.81049,-232.5087)"
     id="layer1">
    <path
       d="m 320.60208,266.7006 -44.50704,0 0,8.2164 17.05587,0 0,58.90305 10.39166,0 0,-58.90305 17.05951,0 0,-8.2164"
       id="path72"
       style="fill:#000000;fill-opacity:1;fill-rule:nonzero;stroke:none" />
    <path
       d="m 353.82113,265.23586 c -19.48618,0 -35.25584,15.76602 -35.25584,35.25948 0,19.4716 15.76966,35.26313 35.25584,35.26313 19.45702,0 35.25219,-15.79153 35.25219,-35.26313 0,-19.49346 -15.79517,-35.25948 -35.25219,-35.25948 z m 0,61.31149 c -14.39237,0 -26.05201,-11.66693 -26.05201,-26.05201 0,-14.39237 11.65964,-26.04472 26.05201,-26.04472 14.37415,0 26.04472,11.65235 26.04472,26.04472 0,14.38508 -11.67057,26.05201 -26.04472,26.05201"
       id="path74"
       style="fill:#000000;fill-opacity:1;fill-rule:nonzero;stroke:none" />
    <path
       d="m 396.12741,333.82005 10.37708,0 0,-67.11945 -10.37708,0 0,67.11945 z"
       id="path76"
       style="fill:#000000;fill-opacity:1;fill-rule:nonzero;stroke:none" />
    <path
       d="m 447.22579,266.7006 -12.10781,0 -28.44953,30.18389 28.71916,36.92827 12.11874,0 -28.74102,-36.92827 28.46046,-30.18389"
       id="path78"
       style="fill:#000000;fill-opacity:1;fill-rule:nonzero;stroke:none" />
    <path
       d="m 502.26294,266.66416 -9.96171,0 -16.11217,33.57977 -16.01379,-33.57977 -9.98721,0 20.85619,43.56334 0.0329,23.62899 10.3042,0 0.0364,-23.62899 20.84525,-43.56334"
       id="path80"
       style="fill:#000000;fill-opacity:1;fill-rule:nonzero;stroke:none" />
    <path
       d="m 533.30673,265.23586 c -19.47889,0 -35.25584,15.76602 -35.25584,35.25948 0,19.4716 15.77695,35.26313 35.25584,35.26313 19.46431,0 35.2522,-15.79153 35.2522,-35.26313 0,-19.49346 -15.78789,-35.25948 -35.2522,-35.25948 z m 0,61.31149 c -14.38144,0 -26.06294,-11.66693 -26.06294,-26.05201 0,-14.39237 11.6815,-26.04472 26.06294,-26.04472 14.38144,0 26.05566,11.65235 26.05566,26.04472 0,14.38508 -11.67422,26.05201 -26.05566,26.05201"
       id="path82"
       style="fill:#000000;fill-opacity:1;fill-rule:nonzero;stroke:none" />
    <path
       d="m 630.38418,265.23586 c 10.45724,0 19.85054,4.5509 26.29977,11.78716 l -6.60955,6.42738 c -4.77681,-5.52375 -11.82361,-8.99978 -19.69022,-8.99978 -14.4033,0 -26.04837,11.65235 -26.04837,26.04472 0,14.38508 11.64507,26.05201 26.04837,26.05201 12.92398,0 23.63263,-9.40423 25.70222,-21.75252 l -21.66872,0 0,-7.48403 31.06566,0 c 0.10931,1.03115 0.14225,2.11331 0.14225,3.18454 0,19.4716 -15.77331,35.26313 -35.24127,35.26313 -19.47889,0 -35.27041,-15.79153 -35.27041,-35.26313 0,-19.49346 15.79152,-35.25948 35.27041,-35.25948"
       id="path84"
       style="fill:#000000;fill-opacity:1;fill-rule:nonzero;stroke:none" />
    <path
       d="m 721.28201,333.82005 -9.91434,0.0475 -19.45702,-46.62399 -19.41331,46.62399 -9.90705,-0.0475 29.34586,-70.17646 29.34586,70.17646"
       id="path86"
       style="fill:#000000;fill-opacity:1;fill-rule:nonzero;stroke:none" />
    <path
       d="m 735.62337,266.81355 c 9.30221,-3.73108 20.29871,-0.6595 25.01357,10.00907 0.0364,0.0583 -7.65528,4.73673 -7.6735,4.68937 -3.21004,-4.82782 -4.1501,-5.92092 -7.38201,-6.83182 -6.25248,-1.70158 -12.16246,3.0315 -11.96571,9.33864 0.091,2.94406 1.5194,5.65128 4.33229,7.01765 9.84511,4.79502 22.81646,8.00507 24.84232,20.67764 2.02222,12.75273 -8.20547,23.57069 -20.49546,23.65085 -9.46981,0.0548 -19.64285,-8.46052 -20.7906,-16.65506 0,0 7.69172,-3.52705 7.76459,-3.52705 1.1186,5.53105 5.66951,10.70501 11.36816,11.34265 5.04643,0.56841 9.89247,-1.93842 12.01307,-6.57677 2.17525,-4.76223 1.4028,-10.33335 -3.26106,-13.64178 -6.86097,-4.88976 -15.43445,-5.24319 -20.87075,-11.84182 -7.53505,-9.10181 -3.84404,-23.23548 7.10509,-27.65157"
       id="path88"
       style="fill:#000000;fill-opacity:1;fill-rule:nonzero;stroke:none" />
    <path
       d="m 251.56607,266.60951 -33.85304,0 -0.0175,33.0733 -33.91862,0 0.0175,-33.0733 -33.98392,0 0,-34.10081 101.75588,0 0,34.10081"
       id="path90"
       style="fill:#384192;fill-opacity:1;fill-rule:nonzero;stroke:none" />
    <path
       d="m 217.82599,299.89778 33.82389,0 0,33.83847 -33.82389,0 0,-33.83847 z"
       id="path92"
       style="fill:#de0031;fill-opacity:1;fill-rule:nonzero;stroke:none" />
  </g>
</svg>
