<?xml version="1.0" encoding="UTF-8" standalone="no"?>
<!-- Created with Inkscape (http://www.inkscape.org/) -->
<svg
   xmlns:dc="http://purl.org/dc/elements/1.1/"
   xmlns:cc="http://web.resource.org/cc/"
   xmlns:rdf="http://www.w3.org/1999/02/22-rdf-syntax-ns#"
   xmlns:svg="http://www.w3.org/2000/svg"
   xmlns="http://www.w3.org/2000/svg"
   xmlns:sodipodi="http://sodipodi.sourceforge.net/DTD/sodipodi-0.dtd"
   xmlns:inkscape="http://www.inkscape.org/namespaces/inkscape"
   width="396"
   height="159"
   id="svg2"
   sodipodi:version="0.32"
   inkscape:version="0.45.1"
   version="1.0"
   inkscape:output_extension="org.inkscape.output.svg.inkscape">
  <g
     inkscape:label="Layer 1"
     inkscape:groupmode="layer"
     id="layer1"
     transform="translate(-69.000341,-769.36214)">
    <path
       id="path2202"
       d="M 103.6236,890.12004 C 111.11746,867.81909 123.99695,842.32447 137.68448,815.94767 C 138.70399,813.98009 137.81174,812.19971 135.72336,812.32441 C 116.80974,813.43879 96.37829,812.6599 83.693322,809.70614 C 63.794654,804.97709 69.137634,790.70505 71.32505,787.15289 C 73.511085,783.18143 80.928523,770.95867 97.23818,779.31818 C 119.34155,789.98786 140.91713,790.81255 149.10728,790.28665 C 152.57802,790.06346 153.67243,789.06897 155.32668,786.74469 C 156.96479,784.43982 159.01424,781.62245 160.16412,780.17237 C 165.16351,773.86224 172.02018,769.42889 178.44272,773.73714 C 182.69035,776.58401 181.48278,781.92215 179.54276,785.6749 C 178.26846,788.14018 178.48843,789.36736 181.21412,789.18777 C 229.37197,785.96 340.86662,770.04698 368.19476,769.41689 C 405.42327,768.5676 433.27705,777.68139 450.13167,790.97395 C 459.64606,798.47706 472.57252,810.43463 459.37816,820.58261 C 449.51437,828.17443 443.36304,828.91312 436.06282,822.74209 L 435.39953,822.183 C 431.27928,818.69854 424.90375,818.54304 420.73449,822.54759 C 417.49833,825.65086 414.82486,831.98209 420.0383,838.89891 C 429.1678,851.01307 433.45945,855.01503 437.02311,860.58557 C 440.77397,866.4342 444.42863,873.09543 444.33103,882.23443 C 444.21103,907.31364 420.77739,926.08904 393.5354,928.23661 C 370.61724,929.74579 334.83744,918.07552 354.44136,869.80116 C 357.10576,862.75964 359.92822,855.71772 359.36215,851.23147 C 358.42445,843.81945 349.26129,844.40875 341.58452,854.92533 C 331.37934,868.91717 332.8546,896.56227 331.65293,908.77293 C 330.42113,921.15569 325.31541,928.36061 310.00602,928.35001 C 289.27786,928.00151 299.52419,903.90768 303.07081,893.3548 C 308.65096,877.15068 316.16647,860.58597 315.31263,852.07926 C 314.44771,843.48906 302.93329,844.33565 295.19954,854.92533 C 285.82289,867.76819 285.483,897.85005 284.12787,908.78653 C 282.60991,921.17719 277.34763,928.37911 262.09998,928.34851 C 241.44776,927.98551 252.20464,903.92258 255.9411,893.3631 C 261.83273,877.15138 270.09141,860.53547 268.97983,852.07926 C 268.02001,844.77984 256.78229,844.30085 249.4202,850.53028 C 248.31967,851.45767 247.55749,852.71596 247.8911,855.08233 C 249.16564,864.11253 249.25257,876.03769 244.48831,889.02235 C 234.64055,915.84915 213.95886,928.35001 194.80026,928.35001 C 169.45809,928.35001 153.10182,911.4428 152.38718,888.69375 C 151.67188,865.95321 165.60511,842.39687 181.16589,830.7385 C 188.86515,824.96807 202.29557,819.25683 207.3363,826.02005 C 211.39874,831.47329 206.80072,836.37964 203.22263,839.844 C 193.65321,849.1014 181.25238,861.80625 180.13193,879.48616 C 179.06526,896.32567 188.68786,902.003 197.32275,902.003 C 214.41162,902.003 224.25583,885.32299 226.00139,871.56894 C 226.26332,869.50207 225.5734,868.45188 224.34246,868.66208 C 218.63644,869.64347 213.13131,867.75119 209.75185,862.97814 C 204.15043,855.06013 206.51237,842.24497 215.02555,834.34776 C 222.71616,827.21994 232.79686,826.54195 238.80231,832.31348 C 240.01518,833.48467 241.38129,833.20007 242.87558,832.09219 C 250.52067,826.44165 261.53071,822.31209 268.57974,821.6 C 280.8753,820.36812 286.59456,826.43075 289.07234,830.6232 C 290.36261,832.80308 292.08457,832.68178 293.77962,831.251 C 300.6706,825.44276 309.22653,822.2808 315.9751,821.6 C 328.27064,820.36812 333.98515,826.43075 336.46617,830.6232 C 337.75634,832.80308 339.56056,832.79158 341.17337,831.251 C 347.50613,825.20656 355.4328,822.2325 361.45248,821.6 C 379.20476,819.73992 384.1667,833.77157 384.63,840.21359 C 385.44269,851.49027 381.10384,858.0063 377.57297,876.19179 C 373.32267,898.10965 385.97228,902.6387 394.82098,901.93721 C 405.75986,901.06591 415.10096,893.6518 415.74245,882.36472 C 416.38664,871.07675 408.45513,862.80314 401.51871,854.18664 C 395.69987,846.95822 392.03502,838.66881 392.11411,830.7571 C 392.22631,819.73132 399.93263,811.60901 407.57064,807.49366 C 409.72362,806.33407 409.73222,804.60319 407.89134,803.7231 C 394.59649,797.34557 371.75411,795.2218 334.11801,797.55937 C 310.83615,799.01476 209.09924,807.93446 167.98865,811.26012 C 165.90586,811.42412 163.63665,812.17021 162.42722,814.64788 C 151.79299,836.41484 140.1854,864.61892 134.85261,906.96035 C 133.15383,920.4455 127.92705,928.36081 111.20163,928.35001 C 88.553767,927.96911 99.749282,901.64671 103.6236,890.12004"
       style="fill:#ee1c23;fill-rule:nonzero;stroke:none" />
  </g>
</svg>
