<?xml version="1.0" encoding="UTF-8" standalone="no"?>
<!-- Created with Inkscape (http://www.inkscape.org/) -->
<svg
   xmlns:dc="http://purl.org/dc/elements/1.1/"
   xmlns:cc="http://web.resource.org/cc/"
   xmlns:rdf="http://www.w3.org/1999/02/22-rdf-syntax-ns#"
   xmlns:svg="http://www.w3.org/2000/svg"
   xmlns="http://www.w3.org/2000/svg"
   xmlns:sodipodi="http://sodipodi.sourceforge.net/DTD/sodipodi-0.dtd"
   xmlns:inkscape="http://www.inkscape.org/namespaces/inkscape"
   width="356"
   height="190"
   id="svg2"
   sodipodi:version="0.32"
   inkscape:version="0.45.1"
   version="1.0"
   inkscape:output_extension="org.inkscape.output.svg.inkscape">
  <g
     inkscape:label="Layer 1"
     inkscape:groupmode="layer"
     id="layer1"
     transform="translate(-520.72842,-585.32222)">
    <path
       style="fill:#ffffff;fill-rule:nonzero;stroke:none"
       d="M -209.895,111.37718 L -209.895,111.37718"
       id="path2208" />
    <path
       style="fill:#241f20;fill-rule:nonzero;stroke:none"
       d="M 757.779,846.65118 L 757.779,846.65118 C 757.78,846.65118 757.78,846.65118 757.781,846.65118 C 757.78,846.65118 757.78,846.65118 757.779,846.65118"
       id="path3484" />
    <g
       id="g6695"
       transform="matrix(8.19276,0,0,8.19276,-4907.0652,-6298.4656)">
      <path
         id="path3658"
         d="M 705.741,843.95318 C 705.636,843.91618 695.108,840.22818 684.194,840.22818 C 673.279,840.22818 662.838,843.91618 662.734,843.95318 L 662.511,844.03318 L 662.511,859.70218 L 662.736,859.78018 C 662.84,859.81718 673.281,863.41918 684.194,863.41918 C 695.107,863.41918 705.634,859.81718 705.739,859.78118 L 705.964,859.70318 L 705.964,844.03218 L 705.741,843.95318"
         style="fill:#ffffff;fill-rule:nonzero;stroke:none" />
      <path
         id="path3660"
         d="M 705.629,844.26918 C 705.629,844.26918 695.177,840.56318 684.194,840.56318 C 673.211,840.56318 662.846,844.26918 662.846,844.26918 L 662.846,859.46418 C 662.846,859.46418 673.211,863.08418 684.194,863.08418 C 695.177,863.08418 705.629,859.46418 705.629,859.46418 L 705.629,844.26918"
         style="fill:#c4161c;fill-rule:nonzero;stroke:none" />
      <path
         id="path3662"
         d="M 673.698,847.67018 L 671.12,857.81318 C 671.12,857.81318 670.81,859.06118 671.932,859.22318 C 672.799,859.34918 672.967,858.31718 672.967,858.31718 L 675.685,847.29218 C 675.685,847.29218 687.159,844.82518 696.925,848.47518 C 696.925,848.47518 695.118,849.51218 695.274,850.96818 C 695.409,852.22218 696.479,852.60018 697.129,853.01218 C 698.246,853.72018 697.986,854.53918 697.539,854.98618 C 696.857,855.66818 695.714,855.84718 695.078,855.52518 C 694.438,855.20018 694.407,853.93918 694.407,853.63718 C 694.407,853.33518 694.295,849.25618 694.295,849.25618 C 694.295,849.25618 694.211,848.30018 692.98,848.97918 C 691.748,849.65918 690.853,850.16218 690.853,850.16218 L 690.825,849.13018 C 690.825,849.13018 690.769,848.30018 689.817,848.72718 C 688.866,849.15518 686.963,850.01118 686.963,850.01118 L 686.963,849.38218 C 686.963,849.38218 686.963,848.50118 685.871,848.87818 C 684.78,849.25618 682.793,850.03618 682.793,850.03618 C 682.793,850.03618 682.485,850.23818 682.065,849.96118 C 681.646,849.68418 681.282,849.40818 680.549,849.92218 C 680.195,850.17118 680.399,850.37618 680.493,850.47618 C 680.586,850.57718 681.314,851.09718 681.482,851.87018 C 681.65,852.64218 681.948,854.08718 680.866,855.11118 C 679.784,856.13518 678.496,855.85018 677.843,855.07718 C 677.19,854.30518 676.91,853.31418 677.283,852.05518 C 677.656,850.79518 678.738,850.24118 679.354,850.10718 C 679.97,849.97218 680.306,849.88918 680.25,849.25018 C 680.194,848.61218 679.416,848.68218 679,848.76318 C 678.571,848.84718 676.449,849.22318 675.473,851.71918 C 674.652,853.81818 675.958,855.61418 676.163,855.84918 C 676.369,856.08518 677.432,857.42818 679.597,857.36118 C 681.762,857.29418 682.732,855.59718 682.881,855.27818 C 683.031,854.96018 683.46,854.54018 683.404,852.72618 C 683.404,852.72618 683.329,852.20618 683.236,851.85318 C 683.143,851.50118 683.386,851.40018 683.609,851.31618 C 683.833,851.23218 684.71,850.89618 684.71,850.89618 C 684.71,850.89618 685.102,850.72818 685.102,851.08118 C 685.102,851.43318 685.027,856.15218 685.027,856.15218 C 685.027,856.15218 684.897,857.12618 685.905,857.14318 C 686.912,857.15918 686.782,856.18518 686.782,856.18518 L 686.912,851.88718 C 686.912,851.88718 686.931,851.61818 687.155,851.51718 C 687.379,851.41718 688.592,850.82918 688.592,850.82918 C 688.592,850.82918 688.89,850.67818 688.928,850.98018 C 688.965,851.28218 689.096,856.03418 689.096,856.03418 C 689.096,856.03418 689.058,857.31018 690.01,857.22618 C 690.962,857.14318 690.943,856.32018 690.924,855.96718 C 690.906,855.61518 690.868,852.12218 690.868,852.12218 C 690.868,852.12218 690.831,851.85318 691.111,851.70218 C 691.391,851.55118 692.305,851.03018 692.305,851.03018 C 692.305,851.03018 692.548,850.91318 692.585,851.14818 C 692.623,851.38318 692.884,854.67418 692.884,854.67418 C 692.884,854.67418 692.986,857.15518 695.403,857.27718 C 697.624,857.38918 698.876,856.03418 699.326,855.28418 C 699.662,854.72518 699.829,853.25218 698.954,852.45418 C 698.012,851.59518 696.943,851.56018 697.055,850.44318 C 697.102,849.96718 697.948,848.99018 699.341,849.33418 C 700.003,849.49818 700.274,849.87218 700.777,849.35118 C 701.282,848.83118 700.777,848.49518 700.329,848.24318 C 699.882,847.99118 696.803,846.32918 692.567,845.62318 C 688.331,844.91818 683.94,844.47218 676.496,845.32818 C 676.496,845.32818 676.14,845.48818 676.233,845.13818 C 676.326,844.78918 676.769,844.06918 675.674,844.06218 C 674.579,844.05518 674.508,844.85918 674.478,844.92918 C 674.447,844.99818 674.322,845.50218 674.322,845.50218 C 674.322,845.50218 674.33,845.69718 674.082,845.74618 C 673.833,845.79518 670.271,846.52718 667.976,847.32018 C 666.416,847.86018 666.338,848.37818 666.422,848.78118 C 666.506,849.18518 666.772,849.52518 667.486,849.32318 C 668.2,849.12218 671.864,847.98518 673.698,847.67018"
         style="fill:#ffffff;fill-rule:nonzero;stroke:none" />
    </g>
  </g>
</svg>
