<?xml version="1.0" encoding="UTF-8" standalone="no"?>
<!-- Creator: CorelDRAW X6 -->

<svg
   xmlns:dc="http://purl.org/dc/elements/1.1/"
   xmlns:cc="http://creativecommons.org/ns#"
   xmlns:rdf="http://www.w3.org/1999/02/22-rdf-syntax-ns#"
   xmlns:svg="http://www.w3.org/2000/svg"
   xmlns="http://www.w3.org/2000/svg"
   xmlns:sodipodi="http://sodipodi.sourceforge.net/DTD/sodipodi-0.dtd"
   xmlns:inkscape="http://www.inkscape.org/namespaces/inkscape"
   xml:space="preserve"
   width="615.92999"
   height="125.3"
   version="1.1"
   style="fill-rule:evenodd"
   viewBox="0 0 6843.6664 1392.2223"
   id="svg3074"
   inkscape:version="0.48.4 r9939"
   sodipodi:docname="Toray.svg"><metadata
   id="metadata3103"><rdf:RDF><cc:Work
       rdf:about=""><dc:format>image/svg+xml</dc:format><dc:type
         rdf:resource="http://purl.org/dc/dcmitype/StillImage" /></cc:Work></rdf:RDF></metadata><sodipodi:namedview
   pagecolor="#ffffff"
   bordercolor="#666666"
   borderopacity="1"
   objecttolerance="10"
   gridtolerance="10"
   guidetolerance="10"
   inkscape:pageopacity="0"
   inkscape:pageshadow="2"
   inkscape:window-width="1366"
   inkscape:window-height="706"
   id="namedview3101"
   showgrid="false"
   inkscape:zoom="2.8284271"
   inkscape:cx="658.16666"
   inkscape:cy="121.72217"
   inkscape:window-x="-8"
   inkscape:window-y="-8"
   inkscape:window-maximized="1"
   inkscape:current-layer="svg3074" />
 <defs
   id="defs3076">
  <style
   type="text/css"
   id="style3078">
   
    .fil0 {fill:#0000A0}
    .fil1 {fill:white}
   
  </style>
 
  
  
 
   
   
   
   
   
   
   
   
   
  </defs>
 <path
   style="fill:#0000a0"
   d="m 695.83311,267.02728 0,301.04167 321.18059,0 0,789.93045 325.6944,0 0,-789.93045 303.125,0 0,-298.26389 -949.99999,-2.77778 z"
   id="polygon3083"
   inkscape:connector-curvature="0" /><path
   style="fill:#0000a0"
   d="M 409.722,0.01340173 -2.1696647e-4,563.90228 376.73589,563.90228 773.95811,0.01340173 l -364.23611,0 z"
   id="polygon3085"
   inkscape:connector-curvature="0" /><path
   style="fill:#0000a0"
   d="M 6478.8192,0.01340173 6069.7914,563.90228 l 376.0417,0 397.9166,-563.88887827 -364.9305,0 z"
   id="polygon3087"
   inkscape:connector-curvature="0" /><path
   style="fill:#0000a0"
   d="m 6135.7636,255.91617 -335.7638,1.04167 -202.0834,280.90277 -180.2083,-280.90277 -351.7361,0 397.9166,582.9861 0,517.01376 289.9306,0 0,-517.01376 381.9444,-584.02777 z"
   id="polygon3089"
   inkscape:connector-curvature="0" /><path
   style="fill:#0000a0"
   d="m 4459.722,263.90228 -377.7778,1085.06932 300,0 65.9722,-193.0555 367.7084,0 66.3194,193.0555 294.7917,1.0417 -381.9445,-1086.11102 -335.0694,0 z m 171.1805,354.86111 107.6389,313.19444 -214.5833,0 106.9444,-313.19444 z"
   id="polygon3091"
   inkscape:connector-curvature="0" /><path
   style="fill:#0000a0"
   d="m 2303.1248,235.10502 c -237.0552,5.87683 -582.4376,135.64584 -584.375,567.70833 -3,445.99995 344.25,595.23605 606.25,589.23605 462,-8 615.9028,-348.1528 605.9028,-587.15272 5.995,-255.78586 -182.606,-564.28795 -604.8611,-569.79166 -7.4063,-0.0625 -15.2698,-0.18958 -22.9167,0 z m 16.6667,258.68055 c 178,10 299.1805,176.05556 296.1805,318.05555 5,132 -104.1805,316.22218 -296.1805,322.22218 -58,2 -129.0139,-19.2917 -192.0139,-82.2917 -50,-50 -101.875,-134.70825 -96.875,-242.70825 4,-86 31.8333,-153.125 70.8333,-203.125 61,-78 150.0972,-114.11111 219.0972,-111.11111 l -1.0416,-1.04167 z"
   id="path3095"
   inkscape:connector-curvature="0" /><path
   style="fill:#0000a0"
   d="m 3110.7637,277.79117 0,1074.99993 301.0416,0 0,-346.875 239.9306,347.9166 343.0555,0 -290.9722,-424.99987 -1.0416,-1.04167 c 118,-52.99999 185.1527,-177.90277 187.1527,-305.90277 2,-152 -109.0277,-326.05555 -309.0277,-343.05555 l -470.1389,-1.04167 z m 301.0416,250 52.0834,1.04167 c 124,4 146.875,59.11111 146.875,111.11111 1,55 -29.8056,112.05555 -161.8056,118.05555 l -37.1528,0 0,-230.20833 z"
   id="path3099"
   inkscape:connector-curvature="0" />
</svg>