<?xml version="1.0" encoding="UTF-8" standalone="no"?>
<!-- Created with Inkscape (http://www.inkscape.org/) -->

<svg
   xmlns:dc="http://purl.org/dc/elements/1.1/"
   xmlns:cc="http://creativecommons.org/ns#"
   xmlns:rdf="http://www.w3.org/1999/02/22-rdf-syntax-ns#"
   xmlns:svg="http://www.w3.org/2000/svg"
   xmlns="http://www.w3.org/2000/svg"
   xmlns:sodipodi="http://sodipodi.sourceforge.net/DTD/sodipodi-0.dtd"
   xmlns:inkscape="http://www.inkscape.org/namespaces/inkscape"
   version="1.0"
   width="800"
   height="121.893"
   viewBox="0 0 800 121.893"
   id="Layer_1"
   xml:space="preserve"
   inkscape:version="0.48.4 r9939"
   sodipodi:docname="Toshiba.svg"><metadata
   id="metadata3078"><rdf:RDF><cc:Work
       rdf:about=""><dc:format>image/svg+xml</dc:format><dc:type
         rdf:resource="http://purl.org/dc/dcmitype/StillImage" /></cc:Work></rdf:RDF></metadata><sodipodi:namedview
   pagecolor="#ffffff"
   bordercolor="#666666"
   borderopacity="1"
   objecttolerance="10"
   gridtolerance="10"
   guidetolerance="10"
   inkscape:pageopacity="0"
   inkscape:pageshadow="2"
   inkscape:window-width="640"
   inkscape:window-height="480"
   id="namedview3076"
   showgrid="false"
   inkscape:zoom="0.46015137"
   inkscape:cx="523.65515"
   inkscape:cy="60.946499"
   inkscape:window-x="0"
   inkscape:window-y="0"
   inkscape:window-maximized="0"
   inkscape:current-layer="Layer_1" /><defs
   id="defs24">
	

		
		
		
		
		
		
	
			
			
		</defs>
<path
   style="fill:#000000"
   d="M 172.46875 0 C 136.98375 0 119.8615 6.2250006 117.4375 38.25 C 116.8545 45.867 116.71875 53.7125 116.71875 60.9375 C 116.72575 68.1875 116.8535 76.007 117.4375 83.625 C 119.8615 115.639 136.98375 121.90625 172.46875 121.90625 C 207.95075 121.90625 225.10325 115.64 227.53125 83.625 C 228.10725 76.007 228.21875 68.1875 228.21875 60.9375 C 228.22575 53.7125 228.10725 45.867 227.53125 38.25 C 225.10325 6.2250006 207.95075 0 172.46875 0 z M 298.8125 0 C 285.11725 0 271.49775 1.34075 265.96875 4.03125 C 255.24875 9.2442499 247.8125 16.73425 247.8125 38.03125 C 247.8125 50.55525 251.13125 59.8055 257.53125 64.5625 C 266.92825 71.5385 276.038 72.25775 301.25 73.59375 C 311.421 74.13575 316.9375 76.133 316.9375 84.875 C 316.9375 95.96 307.09575 95.96875 298.09375 95.96875 C 288.74075 95.96875 285.904 95.1865 282.75 92.8125 C 279.982 90.7055 279.25275 86.86425 279.21875 81.15625 L 247.59375 81.15625 C 247.59375 97.36525 247.8835 110.66975 263.1875 117.34375 C 276.8535 123.33475 318.911 123.34625 331.5 117.78125 C 342.405 112.96725 350.25 106.529 350.25 84.625 C 350.25 69.465 347.239 60.14825 335.625 53.28125 C 327.35 48.39525 304.12775 47.66025 292.34375 46.90625 C 283.75775 46.35025 280.5 43.185 280.5 35.625 C 280.5 25.716 289.93375 25.34375 298.09375 25.34375 C 304.83475 25.34375 309.50425 25.967 312.78125 28.875 C 314.05325 30.164 315.59825 32.1335 315.65625 39.0625 L 347.21875 39.0625 C 347.21875 25.4715 346.78975 10.79925 332.09375 4.03125 C 326.25475 1.34075 312.50775 0 298.8125 0 z M 372.28125 2.125 L 372.28125 119.78125 L 405.5 119.78125 L 405.5 74.40625 L 444.0625 74.40625 L 444.0625 119.78125 L 477.28125 119.78125 L 477.28125 2.125 L 444.0625 2.125 L 444.0625 45.0625 L 405.5 45.0625 L 405.5 2.125 L 372.28125 2.125 z M 506.46875 2.125 L 506.46875 119.78125 L 539.84375 119.78125 L 539.84375 2.125 L 506.46875 2.125 z M 569.4375 2.125 L 569.4375 119.78125 L 632.375 119.78125 C 661.348 119.78125 671.09375 107.28675 671.09375 88.09375 C 671.09375 74.71075 668.0295 62.91225 649.6875 58.28125 C 664.4755 54.50025 668.8125 45.67625 668.8125 32.90625 C 668.8125 7.0472505 652.54225 2.125 629.40625 2.125 L 569.4375 2.125 z M 715.25 2.125 L 679.59375 119.78125 L 714.15625 119.78125 L 720.46875 98 L 759.125 98 L 765.4375 119.78125 L 800 119.78125 L 764.34375 2.125 L 715.25 2.125 z M 0 2.1875 L 0 31.5 L 35.1875 31.5 L 35.1875 119.84375 L 70.34375 119.84375 L 70.34375 31.5 L 105.53125 31.5 L 105.53125 2.1875 L 0 2.1875 z M 172.46875 27.53125 C 186.41175 27.53125 193.603 29.6515 194.5 47.8125 C 194.64 50.6455 194.8125 54.4755 194.8125 60.9375 C 194.8125 67.4195 194.64 71.2355 194.5 74.0625 C 193.603 92.2265 186.41175 94.34375 172.46875 94.34375 C 158.52975 94.34375 151.37175 92.2265 150.46875 74.0625 C 150.32875 71.2355 150.15625 67.4195 150.15625 60.9375 C 150.15625 54.4765 150.32875 50.6465 150.46875 47.8125 C 151.37175 29.6515 158.52975 27.53125 172.46875 27.53125 z M 602.625 29.03125 L 625.65625 29.03125 C 631.67425 29.03125 635.375 31.893 635.375 38.75 C 635.375 44.628 631.71125 48.21875 625.65625 48.21875 L 602.625 48.21875 L 602.625 29.03125 z M 739.71875 31.1875 L 739.90625 31.1875 L 751.65625 71.84375 L 727.9375 71.84375 L 739.71875 31.1875 z M 602.625 71.4375 L 625.65625 71.4375 C 634.95725 71.4375 636.90625 75.53025 636.90625 82.15625 C 636.90625 88.78825 633.26025 92.875 625.65625 92.875 L 602.625 92.875 L 602.625 71.4375 z "
   transform="translate(-7.4107646e-6,0)"
   id="path7" />
</svg>