<?xml version="1.0" encoding="UTF-8" standalone="no"?>
<!-- Created with Inkscape (http://www.inkscape.org/) -->

<svg
   xmlns:dc="http://purl.org/dc/elements/1.1/"
   xmlns:cc="http://creativecommons.org/ns#"
   xmlns:rdf="http://www.w3.org/1999/02/22-rdf-syntax-ns#"
   xmlns:svg="http://www.w3.org/2000/svg"
   xmlns="http://www.w3.org/2000/svg"
   xmlns:sodipodi="http://sodipodi.sourceforge.net/DTD/sodipodi-0.dtd"
   xmlns:inkscape="http://www.inkscape.org/namespaces/inkscape"
   id="svg2"
   version="1.1"
   inkscape:version="0.47 r22583"
   width="399"
   height="502"
   xml:space="preserve"><g
     id="g12"
     inkscape:groupmode="layer"
     transform="matrix(0,1.25,1.25,0,-1130.744,-382.30061)"><path
       id="path102"
       style="fill:#f68b11;fill-opacity:1;fill-rule:nonzero;stroke:none"
       d="m 460.62084,1181.9192 c -0.58059,-0.1999 -1.15641,-0.4188 -1.73699,-0.6377 22.67133,-19.8493 37.31442,-68.5613 34.06411,-112.4144 -1.91308,-25.836 -15.29031,-73.65328 -30.05237,-97.77608 24.41784,25.4886 42.97274,55.34108 52.99972,89.10538 11.93053,40.1507 11.10724,82.9617 -1.45622,107.1035 -11.94005,17.6698 -33.24558,21.6815 -53.81825,14.6193" /><path
       id="path114"
       style="fill:#254aa5;fill-opacity:1;fill-rule:nonzero;stroke:none"
       d="m 318.08743,1126.6829 c 46.69419,79.0594 193.51536,32.0368 240.68069,-30.8519 43.88169,-58.5057 23.65166,-120.74722 -16.80363,-134.25294 17.53174,11.77348 23.90864,35.1872 16.93212,55.95974 -23.15675,57.7539 -127.79039,87.5112 -164.12924,91.3659 -31.28492,2.5745 -52.30969,-1.5229 -65.58698,-12.3779 -13.14404,-12.435 -19.51619,-31.5276 -10.7646,-59.4004 -15.76143,19.1831 -17.62692,60.2618 -0.32836,89.5575" /><path
       id="path118"
       style="fill:#ed1639;fill-opacity:1;fill-rule:nonzero;stroke:none"
       d="m 512.38325,1170.9025 -0.6139,0.9613 -0.11897,0.1761 c -1.07075,1.618 -2.27951,3.2312 -3.60248,4.7017 -0.64721,0.7139 -1.33249,1.4182 -2.03204,2.1082 -31.19926,30.7329 -117.95852,37.2669 -159.0991,-38.4946 -14.65261,-26.9829 -35.1301,-89.6527 -3.51682,-152.17968 10.45528,-20.68688 32.18911,-42.03049 61.67042,-53.50416 -14.01493,8.46606 -23.48987,23.1377 -27.58251,52.05746 -3.62151,28.82938 0.8566,68.57078 14.56219,107.45568 9.25604,25.1031 20.66785,45.3998 33.59774,61.2373 11.23097,13.087 21.89564,21.5245 33.24082,25.8598 0.57583,0.2189 1.15165,0.4378 1.73224,0.6377 20.57267,7.0622 41.88296,3.0505 53.81825,-14.624 -0.42354,0.8185 -0.87088,1.6323 -1.3896,2.5079 l -0.21415,0.3617 -0.45209,0.7376" /><path
       id="path122"
       style="fill:#f68b11;fill-opacity:1;fill-rule:nonzero;stroke:none"
       d="m 454.98156,944.45563 c 2.31282,1.43242 6.21035,4.72557 8.68497,6.87659 -35.70593,15.18085 -58.92454,98.37098 -58.62473,122.88868 -17.73637,-55.0983 -9.27983,-109.14502 9.56061,-130.85506 8.80394,-7.89499 21.96702,-10.35057 40.37915,1.08979" /><path
       id="path126"
       style="fill:#5495d6;fill-opacity:1;fill-rule:nonzero;stroke:none"
       d="M 535.96834,1106.6907 C 533.48896,1062.395 516.40931,997.86928 464.62311,952.17445 l -0.95654,-0.84232 c -2.47462,-2.15102 -6.3769,-5.43941 -8.68496,-6.8766 -18.4169,-11.44036 -31.57998,-8.98002 -40.37916,-1.08978 l 0.01,-0.01 c 1.27062,-1.43242 2.90768,-3.16942 5.46796,-5.15387 15.15706,-11.73542 39.70339,-13.13453 65.71547,-5.13008 56.51653,17.39373 90.5045,93.56922 81.17233,155.39672 -5.96765,39.5225 -28.20117,64.2354 -37.28112,74.5289 6.36739,-22.3525 7.25254,-38.8992 6.28173,-56.3072" /><path
       id="path130"
       style="fill:#ed1639;fill-opacity:1;fill-rule:nonzero;stroke:none"
       d="m 696.06199,999.65867 c 0,-11.45464 -4.44955,-17.26524 -13.22494,-17.26524 -8.77063,0 -13.22495,5.8106 -13.22495,17.26524 0,11.45943 4.45432,17.27003 13.22495,17.27003 8.77539,0 13.22494,-5.8106 13.22494,-17.27003 m -37.8379,0 c 0,-20.95338 8.97526,-32.96957 24.61296,-32.96957 15.63294,0 24.60344,12.01619 24.60344,32.96957 0,20.95333 -8.9705,32.96953 -24.60344,32.96953 -15.6377,0 -24.61296,-12.0162 -24.61296,-32.96953" /><path
       id="path134"
       style="fill:#ed1639;fill-opacity:1;fill-rule:nonzero;stroke:none"
       d="m 659.36141,1036.8969 10.57425,0 0,19.8493 c 1.0184,0 32.5841,-0 32.5841,-0 3.1361,0 4.24968,4.716 4.24968,8.7516 0,4.0498 -1.10406,8.7706 -4.24017,8.7706 l -32.59361,0 0,19.8731 -10.57425,0 0,-57.2399" /><path
       id="path138"
       style="fill:#ed1639;fill-opacity:1;fill-rule:nonzero;stroke:none"
       d="m 695.37191,1199.7555 c 0,-4.8112 -0.78046,-8.171 -2.3271,-9.9841 -1.98921,-2.3462 -4.96352,-2.6412 -7.25254,-2.6936 l -23.01398,0 c -3.01713,0 -4.08788,-4.5067 -4.08788,-8.3614 0,-3.8927 1.07075,-8.4279 4.07361,-8.4279 l 7.30965,0 14.96194,0 c 8.52792,0 14.50032,2.7459 17.75064,8.1663 3.87374,6.7243 3.74525,18.9023 3.61676,30.6853 l -0.0619,14.6193 -2.14626,0.024 -8.82297,0 0,-24.0372" /><path
       id="path142"
       style="fill:#ed1639;fill-opacity:1;fill-rule:nonzero;stroke:none"
       d="m 691.917,928.48481 c 8.31378,0 13.92451,7.00508 14.93339,18.83091 l -50.13487,0 0,26.63073 -11.56885,0 0,-69.35126 11.56885,0 0,23.88962 35.20148,0" /><path
       id="path146"
       style="fill:#ed1639;fill-opacity:1;fill-rule:nonzero;stroke:none"
       d="m 686.40626,1116.0848 c -4.94448,3.2503 -9.77951,7.1907 -14.07203,11.5641 4.29252,4.3734 9.12755,8.3137 14.07203,11.5641 l 0,-23.1282 z m 20.0016,47.3842 -1.89404,-0.414 c -19.27825,-3.888 -41.29761,-25.7979 -44.51938,-30.3046 -1.05647,-1.4705 -1.27538,-3.0267 -1.30393,-5.1015 0.0285,-2.0701 0.24746,-3.6311 1.30393,-5.1016 3.22177,-4.5066 25.24113,-26.4118 44.51938,-30.3045 l 1.89404,-0.4141 0,15.4902 -1.35152,0.2998 c -2.77443,0.6092 -5.72494,1.6371 -8.74208,2.9886 l 0,34.0879 c 3.01714,1.3515 5.96765,2.3747 8.74208,2.9838 l 1.35152,0.2998 0,15.4902" /></g></svg>