<?xml version="1.0" encoding="UTF-8" standalone="no"?>
<!-- Created with Inkscape (http://www.inkscape.org/) -->

<svg
   xmlns:dc="http://purl.org/dc/elements/1.1/"
   xmlns:cc="http://creativecommons.org/ns#"
   xmlns:rdf="http://www.w3.org/1999/02/22-rdf-syntax-ns#"
   xmlns:svg="http://www.w3.org/2000/svg"
   xmlns="http://www.w3.org/2000/svg"
   xmlns:sodipodi="http://sodipodi.sourceforge.net/DTD/sodipodi-0.dtd"
   xmlns:inkscape="http://www.inkscape.org/namespaces/inkscape"
   id="svg2"
   version="1.1"
   inkscape:version="0.47 r22583"
   width="606"
   height="454"
   xml:space="preserve"><g
     id="g12"
     inkscape:groupmode="layer"
     inkscape:label="factbook"
     transform="matrix(1.25,0,0,-1.25,-368.43743,989.19255)"><path
       d="m 326.93907,535.4224 c 1.14053,0.017 113.95089,-0.0511 114.41902,0 -0.45111,-1.77037 -31.85825,-105.91611 -32.30935,-107.18431 -0.5192,-0.0426 -113.7296,-0.0426 -114.2488,0 0.34046,1.25969 32.09657,107.15878 32.13913,107.18431"
       style="fill:#244ba6;fill-opacity:1;fill-rule:nonzero;stroke:none"
       id="path34" /><path
       d="m 326.93907,535.4224 c 1.14053,0.017 113.95089,-0.0511 114.41902,0 -0.45111,-1.77037 -31.85825,-105.91611 -32.30935,-107.18431 -0.5192,-0.0426 -113.7296,-0.0426 -114.2488,0 0.34046,1.25969 32.09657,107.15878 32.13913,107.18431 z"
       style="fill:none;stroke:#244ba6;stroke-width:0.06809136;stroke-linecap:butt;stroke-linejoin:miter;stroke-miterlimit:4;stroke-opacity:1;stroke-dasharray:none"
       id="path36" /><path
       d="m 458.3554,535.3458 c 1.1916,-0.034 112.89548,0 113.91685,0 -0.11065,-0.76603 -31.68802,-106.21401 -31.9689,-107.14176 -1.20011,0 -112.72525,0.13618 -113.91685,0 0.56175,1.69377 31.66249,105.9757 31.9689,107.14176"
       style="fill:#f14729;fill-opacity:1;fill-rule:nonzero;stroke:none"
       id="path38" /><path
       d="m 458.3554,535.3458 c 1.1916,-0.034 112.89548,0 113.91685,0 -0.11065,-0.76603 -31.68802,-106.21401 -31.9689,-107.14176 -1.20011,0 -112.72525,0.13618 -113.91685,0 0.56175,1.69377 31.66249,105.9757 31.9689,107.14176 z"
       style="fill:none;stroke:#f14729;stroke-width:0.06809136;stroke-linecap:butt;stroke-linejoin:miter;stroke-miterlimit:4;stroke-opacity:1;stroke-dasharray:none"
       id="path40" /><path
       d="m 589.61001,535.4224 c 1.01286,0.19577 113.0572,0.0511 113.91685,0 -0.11065,-0.75751 -31.35607,-106.08634 -31.80718,-107.18431 -0.9703,-0.0426 -112.27414,-0.0426 -113.57639,0 0.4511,1.60865 31.33905,106.57149 31.46672,107.18431"
       style="fill:#f6842a;fill-opacity:1;fill-rule:nonzero;stroke:none"
       id="path42" /><path
       d="m 589.61001,535.4224 c 1.01286,0.19577 113.0572,0.0511 113.91685,0 -0.11065,-0.75751 -31.35607,-106.08634 -31.80718,-107.18431 -0.9703,-0.0426 -112.27414,-0.0426 -113.57639,0 0.4511,1.60865 31.33905,106.57149 31.46672,107.18431 z"
       style="fill:none;stroke:#f6842a;stroke-width:0.06809136;stroke-linecap:butt;stroke-linejoin:miter;stroke-miterlimit:4;stroke-opacity:1;stroke-dasharray:none"
       id="path44" /><path
       d="m 402.912,791.30124 c 1.14053,0.017 113.95941,-0.0511 114.41903,0 -0.4426,-1.77038 -31.85825,-105.92463 -32.30084,-107.18432 -0.52771,-0.0511 -113.73811,-0.0511 -114.25731,0 0.34046,1.25969 32.09657,107.15027 32.13912,107.18432"
       style="fill:#244ba6;fill-opacity:1;fill-rule:nonzero;stroke:none"
       id="path46" /><path
       d="m 402.912,791.30124 c 1.14053,0.017 113.95941,-0.0511 114.41903,0 -0.4426,-1.77038 -31.85825,-105.92463 -32.30084,-107.18432 -0.52771,-0.0511 -113.73811,-0.0511 -114.25731,0 0.34046,1.25969 32.09657,107.15027 32.13912,107.18432 z"
       style="fill:none;stroke:#244ba6;stroke-width:0.06809136;stroke-linecap:butt;stroke-linejoin:miter;stroke-miterlimit:4;stroke-opacity:1;stroke-dasharray:none"
       id="path48" /><path
       d="m 534.32833,791.30124 c 1.1916,-0.034 112.89548,0 113.91686,0 -0.11065,-0.76603 -31.68802,-106.20551 -31.9689,-107.14176 -1.1916,0 -112.72525,0.13618 -113.91685,0 0.56175,1.69377 31.66248,105.97569 31.96889,107.14176"
       style="fill:#f14729;fill-opacity:1;fill-rule:nonzero;stroke:none"
       id="path50" /><path
       d="m 534.32833,791.30124 c 1.1916,-0.034 112.89548,0 113.91686,0 -0.11065,-0.76603 -31.68802,-106.20551 -31.9689,-107.14176 -1.1916,0 -112.72525,0.13618 -113.91685,0 0.56175,1.69377 31.66248,105.97569 31.96889,107.14176 z"
       style="fill:none;stroke:#f14729;stroke-width:0.06809136;stroke-linecap:butt;stroke-linejoin:miter;stroke-miterlimit:4;stroke-opacity:1;stroke-dasharray:none"
       id="path52" /><path
       d="m 665.58295,791.20761 c 1.01286,0.18725 113.0572,0.0511 113.91685,0 -0.11065,-0.76603 -31.35607,-106.09486 -31.79867,-107.19283 -0.9703,-0.0426 -112.28266,-0.0426 -113.5849,0 0.4511,1.60866 31.33905,106.5715 31.46672,107.19283"
       style="fill:#f6842a;fill-opacity:1;fill-rule:nonzero;stroke:none"
       id="path54" /><path
       d="m 665.58295,791.20761 c 1.01286,0.18725 113.0572,0.0511 113.91685,0 -0.11065,-0.76603 -31.35607,-106.09486 -31.79867,-107.19283 -0.9703,-0.0426 -112.28266,-0.0426 -113.5849,0 0.4511,1.60866 31.33905,106.5715 31.46672,107.19283 z"
       style="fill:none;stroke:#f6842a;stroke-width:0.06809136;stroke-linecap:butt;stroke-linejoin:miter;stroke-miterlimit:4;stroke-opacity:1;stroke-dasharray:none"
       id="path56" /><path
       d="m 331.76504,632.40153 c 0,-0.009 -30.87092,-0.034 -30.87092,0 0,0.11065 0,32.2753 0,32.38595 0.31492,0.0511 96.17905,0 96.24714,0 -0.0255,-0.0596 0.0255,-31.39863 0,-31.88378 0.0596,-0.009 -29.10906,-0.0851 -29.02394,0 -0.009,-0.0681 0,-81.97349 0,-82.03307 -0.009,-0.017 -36.40335,0 -36.38633,0.034 0.017,0.0851 0.0596,81.45429 0.034,81.49685"
       style="fill:#f14729;fill-opacity:1;fill-rule:nonzero;stroke:none"
       id="path58" /><path
       d="m 331.76504,632.40153 c 0,-0.009 -30.87092,-0.034 -30.87092,0 0,0.11065 0,32.2753 0,32.38595 0.31492,0.0511 96.17905,0 96.24714,0 -0.0255,-0.0596 0.0255,-31.39863 0,-31.88378 0.0596,-0.009 -29.10906,-0.0851 -29.02394,0 -0.009,-0.0681 0,-81.97349 0,-82.03307 -0.009,-0.017 -36.40335,0 -36.38633,0.034 0.017,0.0851 0.0596,81.45429 0.034,81.49685 z"
       style="fill:none;stroke:#f14729;stroke-width:0.06809136;stroke-linecap:butt;stroke-linejoin:miter;stroke-miterlimit:4;stroke-opacity:1;stroke-dasharray:none"
       id="path60" /><path
       d="m 498.75911,637.28708 c -2.3066,13.50763 -7.01341,20.56359 -18.69959,26.34285 -1.80442,0.8937 -8.13692,3.25987 -10.90313,3.32796 -0.40004,0.009 -40.5399,0.017 -40.96547,-0.0681 -5.2941,-1.03839 -7.3794,-2.30659 -10.67332,-4.05994 -7.73688,-4.11953 -11.98408,-9.36257 -15.03968,-16.74197 -1.39587,-3.37903 -1.95763,-6.89425 -1.9406,-7.79646 0.0255,-1.79591 -0.017,-57.21377 0.017,-57.55422 0.18725,-2.14488 0.66389,-3.89823 0.74901,-4.33232 1.51503,-7.69432 5.30261,-13.03949 12.22239,-18.29955 6.5538,-4.98769 11.04783,-6.16227 15.9419,-6.54528 0.90221,-0.0681 36.76082,-0.0255 36.91403,0 3.97483,0.51919 6.82615,0.56175 10.46904,1.84697 7.65177,2.68961 15.43972,8.92848 19.372,17.89101 1.65972,3.77056 2.33212,4.93662 2.52789,8.69016 0.017,0.33195 0.0511,57.04354 0.009,57.29888 z m -32.93069,-52.59206 c 0.0255,0 -31.88378,0.009 -32.30935,0 -0.0766,0.017 0,48.84704 0,49.05131 0.20428,0 31.83271,-0.009 32.30935,0 0,-0.71496 -0.009,-48.65979 0,-49.05131"
       style="fill:#f14729;fill-opacity:1;fill-rule:nonzero;stroke:none"
       id="path62" /><path
       d="m 498.75911,637.28708 c -2.3066,13.50763 -7.01341,20.56359 -18.69959,26.34285 -1.80442,0.8937 -8.13692,3.25987 -10.90313,3.32796 -0.40004,0.009 -40.5399,0.017 -40.96547,-0.0681 -5.2941,-1.03839 -7.3794,-2.30659 -10.67332,-4.05994 -7.73688,-4.11953 -11.98408,-9.36257 -15.03968,-16.74197 -1.39587,-3.37903 -1.95763,-6.89425 -1.9406,-7.79646 0.0255,-1.79591 -0.017,-57.21377 0.017,-57.55422 0.18725,-2.14488 0.66389,-3.89823 0.74901,-4.33232 1.51503,-7.69432 5.30261,-13.03949 12.22239,-18.29955 6.5538,-4.98769 11.04783,-6.16227 15.9419,-6.54528 0.90221,-0.0681 36.76082,-0.0255 36.91403,0 3.97483,0.51919 6.82615,0.56175 10.46904,1.84697 7.65177,2.68961 15.43972,8.92848 19.372,17.89101 1.65972,3.77056 2.33212,4.93662 2.52789,8.69016 0.017,0.33195 0.0511,57.04354 0.009,57.29888 z m -32.93069,-52.59206 c 0.0255,0 -31.88378,0.009 -32.30935,0 -0.0766,0.017 0,48.84704 0,49.05131 0.20428,0 31.83271,-0.009 32.30935,0 0,-0.71496 -0.009,-48.65979 0,-49.05131 z"
       style="fill:none;stroke:#f14729;stroke-width:0.06809136;stroke-linecap:butt;stroke-linejoin:miter;stroke-miterlimit:4;stroke-opacity:1;stroke-dasharray:none"
       id="path64" /><path
       d="m 531.00037,634.41873 c -0.36599,0 -28.71753,0.0766 -29.02394,0 0,-0.11064 0,32.07955 0,32.30936 -0.017,0.0255 94.40867,0.0511 94.90233,0 0.0426,-0.40004 -0.10213,-32.33489 -0.0851,-32.22424 -0.11916,0 -28.67498,-0.0255 -28.87925,-0.009 -0.0681,0.009 -0.0255,-81.14789 0.017,-81.43727 -0.34045,-0.0341 -36.8204,0.0255 -36.93105,0 0.0766,0.34045 -0.0511,81.09681 0,81.36066"
       style="fill:#f14729;fill-opacity:1;fill-rule:nonzero;stroke:none"
       id="path66" /><path
       d="m 531.00037,634.41873 c -0.36599,0 -28.71753,0.0766 -29.02394,0 0,-0.11064 0,32.07955 0,32.30936 -0.017,0.0255 94.40867,0.0511 94.90233,0 0.0426,-0.40004 -0.10213,-32.33489 -0.0851,-32.22424 -0.11916,0 -28.67498,-0.0255 -28.87925,-0.009 -0.0681,0.009 -0.0255,-81.14789 0.017,-81.43727 -0.34045,-0.0341 -36.8204,0.0255 -36.93105,0 0.0766,0.34045 -0.0511,81.09681 0,81.36066 z"
       style="fill:none;stroke:#f14729;stroke-width:0.06809136;stroke-linecap:butt;stroke-linejoin:miter;stroke-miterlimit:4;stroke-opacity:1;stroke-dasharray:none"
       id="path68" /><path
       d="m 665.19142,667.40049 c -0.20427,0 -47.30647,-0.009 -47.698,0 -0.0511,-0.0511 -34.00312,-113.89132 -33.99461,-113.75514 -0.44259,0 36.53953,0 36.42888,0 0.009,0.0766 4.40892,18.62299 4.29827,18.76769 0,-0.0511 32.82855,-0.017 32.81152,0 -0.10213,0.0936 4.68128,-17.97612 4.53659,-18.09528 0.22981,0 38.55673,0 38.78654,0 0.0681,-0.16172 -35.00747,112.6912 -35.16919,113.08273 z m -35.10961,-70.15964 c -0.68091,-0.0511 9.77963,42.1826 9.87325,42.31027 0.0511,0.25534 10.79248,-41.92726 10.85206,-42.31878 -0.35748,0.0255 -20.34229,0.034 -20.72531,0.009"
       style="fill:#f14729;fill-opacity:1;fill-rule:nonzero;stroke:none"
       id="path70" /><path
       d="m 665.19142,667.40049 c -0.20427,0 -47.30647,-0.009 -47.698,0 -0.0511,-0.0511 -34.00312,-113.89132 -33.99461,-113.75514 -0.44259,0 36.53953,0 36.42888,0 0.009,0.0766 4.40892,18.62299 4.29827,18.76769 0,-0.0511 32.82855,-0.017 32.81152,0 -0.10213,0.0936 4.68128,-17.97612 4.53659,-18.09528 0.22981,0 38.55673,0 38.78654,0 0.0681,-0.16172 -35.00747,112.6912 -35.16919,113.08273 z m -35.10961,-70.15964 c -0.68091,-0.0511 9.77963,42.1826 9.87325,42.31027 0.0511,0.25534 10.79248,-41.92726 10.85206,-42.31878 -0.35748,0.0255 -20.34229,0.034 -20.72531,0.009 z"
       style="fill:none;stroke:#f14729;stroke-width:0.06809136;stroke-linecap:butt;stroke-linejoin:miter;stroke-miterlimit:4;stroke-opacity:1;stroke-dasharray:none"
       id="path72" /><path
       d="m 706.67609,668.07289 c 0.2298,0 36.19907,0 36.51399,0 0.0511,-0.017 -0.017,-80.33079 0,-80.77338 -0.13618,0 35.36495,0.009 35.67136,0 0.0511,-0.34046 0.017,-31.85825 0,-32.30935 -0.34045,-0.009 -71.67467,0.0426 -72.18535,0 0,-0.10214 -0.0426,113.18487 0,113.08273"
       style="fill:#f14729;fill-opacity:1;fill-rule:nonzero;stroke:none"
       id="path74" /><path
       d="m 706.67609,668.07289 c 0.2298,0 36.19907,0 36.51399,0 0.0511,-0.017 -0.017,-80.33079 0,-80.77338 -0.13618,0 35.36495,0.009 35.67136,0 0.0511,-0.34046 0.017,-31.85825 0,-32.30935 -0.34045,-0.009 -71.67467,0.0426 -72.18535,0 0,-0.10214 -0.0426,113.18487 0,113.08273 z"
       style="fill:none;stroke:#f14729;stroke-width:0.06809136;stroke-linecap:butt;stroke-linejoin:miter;stroke-miterlimit:4;stroke-opacity:1;stroke-dasharray:none"
       id="path76" /></g></svg>