<?xml version="1.0" encoding="UTF-8" standalone="no"?>
<!-- Created with Inkscape (http://www.inkscape.org/) -->
<svg
   xmlns:dc="http://purl.org/dc/elements/1.1/"
   xmlns:cc="http://web.resource.org/cc/"
   xmlns:rdf="http://www.w3.org/1999/02/22-rdf-syntax-ns#"
   xmlns:svg="http://www.w3.org/2000/svg"
   xmlns="http://www.w3.org/2000/svg"
   xmlns:xlink="http://www.w3.org/1999/xlink"
   xmlns:sodipodi="http://sodipodi.sourceforge.net/DTD/sodipodi-0.dtd"
   xmlns:inkscape="http://www.inkscape.org/namespaces/inkscape"
   width="661"
   height="304"
   id="svg2"
   sodipodi:version="0.32"
   inkscape:version="0.45.1"
   version="1.0">
  <g
     inkscape:label="Layer 1"
     inkscape:groupmode="layer"
     id="layer1"
     transform="translate(663.71791,159.18428)">
    <polygon
       clip-path="url(#SVGID_18_)"
       clip-rule="evenodd"
       points="165.168,199.601 170.402,201.435 175.45,185.043 165.168,199.601 "
       id="polygon473"
       style="fill:#e11837;fill-rule:evenodd"
       transform="matrix(4.0413077,0,0,4.0413077,-975.66645,-805.21964)" />
    <polygon
       clip-path="url(#SVGID_18_)"
       clip-rule="evenodd"
       points="157.412,196.883 158.119,197.131 182.249,162.966 182.931,160.75 157.412,196.883 "
       id="polygon475"
       style="fill:#e11837;fill-rule:evenodd"
       transform="matrix(4.0413077,0,0,4.0413077,-975.66645,-805.21964)" />
    <polygon
       clip-path="url(#SVGID_18_)"
       clip-rule="evenodd"
       points="159.674,197.676 161.329,198.256 179.153,173.019 180.749,167.837 159.674,197.676 "
       id="polygon477"
       style="fill:#e11837;fill-rule:evenodd"
       transform="matrix(4.0413077,0,0,4.0413077,-975.66645,-805.21964)" />
    <polygon
       clip-path="url(#SVGID_18_)"
       clip-rule="evenodd"
       points="162.382,198.625 164.461,199.353 176.132,182.827 178.137,176.318 162.382,198.625 "
       id="polygon479"
       style="fill:#e11837;fill-rule:evenodd"
       transform="matrix(4.0413077,0,0,4.0413077,-975.66645,-805.21964)" />
    <path
       clip-path="url(#SVGID_18_)"
       clip-rule="evenodd"
       d="M 220.95,212.132 C 221.486,213.038 221.629,215.201 220.805,216.705 L 215.645,216.705 C 216.14,215.716 216.294,214.48 215.325,214.48 L 212.805,214.48 L 212.111,216.705 L 204.587,216.705 L 206.739,209.866 L 217.736,209.866 C 219.405,209.907 220.599,211.205 220.95,212.132 L 220.95,212.132 z "
       id="path481"
       style="fill:#034ea2;fill-rule:evenodd"
       transform="matrix(4.0413077,0,0,4.0413077,-975.66645,-805.21964)" />
    <path
       clip-path="url(#SVGID_18_)"
       clip-rule="evenodd"
       d="M 220.167,218.167 C 219.175,219.377 217.791,220.455 215.409,220.455 L 210.932,220.455 L 209.332,225.543 L 201.809,225.543 L 204.128,218.168 L 220.167,218.168 L 220.167,218.167 z "
       id="path483"
       style="fill:#034ea2;fill-rule:evenodd"
       transform="matrix(4.0413077,0,0,4.0413077,-975.66645,-805.21964)" />
    <polygon
       clip-path="url(#SVGID_18_)"
       clip-rule="evenodd"
       points="182.61,209.866 183.357,216.705 170.827,216.705 175.692,209.866 182.61,209.866 "
       id="polygon485"
       style="fill:#034ea2;fill-rule:evenodd"
       transform="matrix(4.0413077,0,0,4.0413077,-975.66645,-805.21964)" />
    <polygon
       clip-path="url(#SVGID_18_)"
       clip-rule="evenodd"
       points="183.52,218.167 184.343,225.542 177.917,225.542 177.629,222.968 172.338,222.968 170.503,225.542 164.538,225.542 169.785,218.167 175.75,218.167 174.93,219.32 177.223,219.32 177.094,218.167 183.52,218.167 "
       id="polygon487"
       style="fill:#034ea2;fill-rule:evenodd"
       transform="matrix(4.0413077,0,0,4.0413077,-975.66645,-805.21964)" />
    <path
       clip-path="url(#SVGID_18_)"
       clip-rule="evenodd"
       d="M 78.657,209.866 L 93.876,209.866 L 92.411,214.523 L 88.56,214.523 L 87.875,216.701 L 80.356,216.701 L 81.041,214.523 L 77.19,214.523 L 78.657,209.866 L 78.657,209.866 z M 87.417,218.161 L 85.095,225.542 L 77.576,225.542 L 79.897,218.161 L 87.417,218.161 L 87.417,218.161 z "
       id="path489"
       style="fill:#034ea2;fill-rule:evenodd"
       transform="matrix(4.0413077,0,0,4.0413077,-975.66645,-805.21964)" />
    <path
       clip-path="url(#SVGID_18_)"
       clip-rule="evenodd"
       d="M 202.4,216.705 L 189.032,216.705 L 189.286,215.901 L 194.407,215.901 C 194.118,215.222 190.79,214.509 188.75,215.23 L 190.464,209.783 C 195.944,208.094 205.218,208.213 202.4,216.705 L 202.4,216.705 z "
       id="path491"
       style="fill:#034ea2;fill-rule:evenodd"
       transform="matrix(4.0413077,0,0,4.0413077,-975.66645,-805.21964)" />
    <path
       clip-path="url(#SVGID_18_)"
       clip-rule="evenodd"
       d="M 201.823,218.167 C 198.857,226.737 190.944,227.275 185.753,224.762 L 187.4,219.526 C 188.986,220.206 193.315,220.229 193.542,218.93 L 188.33,218.93 L 188.571,218.167 L 201.823,218.167 L 201.823,218.167 z "
       id="path493"
       style="fill:#034ea2;fill-rule:evenodd"
       transform="matrix(4.0413077,0,0,4.0413077,-975.66645,-805.21964)" />
    <path
       clip-path="url(#SVGID_18_)"
       clip-rule="evenodd"
       d="M 167.908,210.092 L 166.294,215.223 C 163.637,214.646 159.635,214.83 158.194,216.705 L 151.17,216.705 C 151.808,214.83 153.518,212.626 155.269,211.37 C 158.091,209.063 164.674,208.217 167.908,210.092 L 167.908,210.092 z "
       id="path495"
       style="fill:#034ea2;fill-rule:evenodd"
       transform="matrix(4.0413077,0,0,4.0413077,-975.66645,-805.21964)" />
    <path
       clip-path="url(#SVGID_18_)"
       clip-rule="evenodd"
       d="M 157.632,218.167 C 157.473,218.959 157.946,219.57 158.688,219.795 C 159.965,220.229 163.929,220.15 164.938,219.533 L 163.283,224.794 C 161.161,225.557 155.309,227.603 152.137,224.224 C 150.798,222.68 149.933,220.764 150.696,218.167 L 157.632,218.167 L 157.632,218.167 z "
       id="path497"
       style="fill:#034ea2;fill-rule:evenodd"
       transform="matrix(4.0413077,0,0,4.0413077,-975.66645,-805.21964)" />
    <polygon
       clip-path="url(#SVGID_18_)"
       clip-rule="evenodd"
       points="151.428,209.866 149.277,216.705 131.243,216.705 133.395,209.866 140.911,209.866 139.032,215.86 142.019,215.86 143.9,209.866 151.428,209.866 "
       id="polygon499"
       style="fill:#034ea2;fill-rule:evenodd"
       transform="matrix(4.0413077,0,0,4.0413077,-975.66645,-805.21964)" />
    <polygon
       clip-path="url(#SVGID_18_)"
       clip-rule="evenodd"
       points="148.816,218.167 146.498,225.542 138.995,225.521 141.035,218.992 138.041,218.992 135.98,225.542 128.461,225.542 130.781,218.167 148.816,218.167 "
       id="polygon501"
       style="fill:#034ea2;fill-rule:evenodd"
       transform="matrix(4.0413077,0,0,4.0413077,-975.66645,-805.21964)" />
    <polygon
       clip-path="url(#SVGID_18_)"
       clip-rule="evenodd"
       points="125.832,209.866 126.58,216.705 114.049,216.705 118.915,209.866 125.832,209.866 "
       id="polygon503"
       style="fill:#034ea2;fill-rule:evenodd"
       transform="matrix(4.0413077,0,0,4.0413077,-975.66645,-805.21964)" />
    <polygon
       clip-path="url(#SVGID_18_)"
       clip-rule="evenodd"
       points="126.742,218.167 127.565,225.542 121.139,225.542 120.851,222.968 115.56,222.968 113.726,225.542 107.761,225.542 113.008,218.167 118.973,218.167 118.153,219.32 120.445,219.32 120.316,218.167 126.742,218.167 "
       id="polygon505"
       style="fill:#034ea2;fill-rule:evenodd"
       transform="matrix(4.0413077,0,0,4.0413077,-975.66645,-805.21964)" />
    <path
       clip-path="url(#SVGID_18_)"
       clip-rule="evenodd"
       d="M 110.568,212.132 C 111.103,213.038 111.247,215.201 110.423,216.705 L 105.263,216.705 C 105.757,215.716 105.911,214.48 104.943,214.48 L 102.423,214.48 L 101.728,216.705 L 94.204,216.705 L 96.356,209.866 L 107.354,209.866 C 109.023,209.907 110.218,211.205 110.568,212.132 L 110.568,212.132 z "
       id="path507"
       style="fill:#034ea2;fill-rule:evenodd"
       transform="matrix(4.0413077,0,0,4.0413077,-975.66645,-805.21964)" />
    <path
       clip-path="url(#SVGID_18_)"
       clip-rule="evenodd"
       d="M 109.785,218.167 C 108.793,219.377 107.409,220.455 105.027,220.455 L 100.55,220.455 L 98.95,225.543 L 91.426,225.543 L 93.746,218.168 L 109.785,218.168 L 109.785,218.167 z "
       id="path509"
       style="fill:#034ea2;fill-rule:evenodd"
       transform="matrix(4.0413077,0,0,4.0413077,-975.66645,-805.21964)" />
    <path
       clip-path="url(#SVGID_18_)"
       clip-rule="evenodd"
       d="M 228.598,226.277 C 223.811,226.277 221.009,222.689 222.141,218.168 L 228.365,218.168 C 228.233,219.416 229.088,220.341 230.464,220.341 C 231.839,220.341 233.278,219.416 233.93,218.168 L 240.153,218.168 C 238.444,222.689 233.385,226.277 228.598,226.277 L 228.598,226.277 z M 222.64,216.707 C 224.488,212.371 229.4,208.969 234.048,208.969 C 238.695,208.969 241.468,212.371 240.589,216.707 L 234.287,216.707 C 234.22,215.658 233.409,214.905 232.182,214.905 C 230.955,214.905 229.669,215.658 228.943,216.707 L 222.64,216.707 L 222.64,216.707 z "
       id="path511"
       style="fill:#034ea2;fill-rule:evenodd"
       transform="matrix(4.0413077,0,0,4.0413077,-975.66645,-805.21964)" />
    <path
       clip-path="url(#SVGID_18_)"
       clip-rule="evenodd"
       d="M 165.692,232.091 C 166.503,232.234 167.046,232.798 166.763,233.616 C 166.465,234.477 165.412,235.016 164.538,235.016 L 163.838,235.016 C 163.283,235.016 162.727,234.953 162.169,234.953 C 162.01,234.953 161.857,234.997 161.695,234.997 C 161.571,234.997 161.53,234.957 161.551,234.894 C 161.589,234.78 162.022,234.789 162.149,234.767 C 162.21,234.757 162.266,234.72 162.314,234.663 C 162.39,234.575 162.507,234.448 162.561,234.272 L 163.777,230.296 C 163.858,230.032 163.805,229.867 163.559,229.867 C 163.497,229.867 163.416,229.877 163.311,229.888 C 163.17,229.9 163.035,229.9 163.043,229.833 C 163.058,229.715 163.292,229.689 163.641,229.639 C 164.013,229.587 164.416,229.595 164.91,229.595 L 165.61,229.595 C 166.136,229.595 166.957,229.704 167.238,230.235 C 167.466,230.664 167.292,231.042 167.011,231.387 C 166.716,231.753 166.14,232.007 165.692,232.091 L 165.692,232.091 z M 164.497,230.401 L 164.084,231.74 C 164.025,231.935 164.012,232.07 164.25,232.07 L 164.971,232.07 C 165.198,232.07 165.406,232.012 165.61,231.906 C 166,231.699 166.355,231.379 166.475,230.937 C 166.536,230.714 166.558,230.491 166.495,230.278 C 166.377,229.872 165.708,229.762 165.362,229.762 C 165.172,229.762 164.754,229.813 164.641,230.01 C 164.604,230.075 164.553,230.222 164.497,230.401 L 164.497,230.401 z M 163.323,234.192 C 163.261,234.416 163.247,234.721 163.55,234.768 C 163.925,234.827 164.394,234.85 164.765,234.768 C 165.336,234.641 165.827,234.036 166.001,233.512 C 166.187,232.953 165.947,232.445 165.383,232.296 C 165.194,232.246 164.929,232.193 164.641,232.193 L 164.126,232.193 C 163.988,232.193 163.829,232.362 163.796,232.482 L 163.323,234.192 L 163.323,234.192 z "
       id="path513"
       style="fill:#034ea2;fill-rule:evenodd"
       transform="matrix(4.0413077,0,0,4.0413077,-975.66645,-805.21964)" />
    <path
       clip-path="url(#SVGID_18_)"
       clip-rule="evenodd"
       d="M 202.338,230.527 C 202.46,230.135 202.419,230.151 202.021,230.108 C 201.884,230.092 201.841,230.032 201.897,229.922 C 201.929,229.862 202.037,229.826 202.142,229.818 C 202.282,229.808 202.424,229.826 202.565,229.826 L 207.365,229.826 C 207.509,229.826 207.573,229.868 207.55,229.949 C 207.532,230.012 207.469,230.082 207.365,230.094 C 207.197,230.114 206.971,230.089 206.829,230.197 C 206.746,230.26 206.669,230.377 206.623,230.527 L 205.449,234.296 C 205.381,234.515 205.356,234.736 205.635,234.771 C 205.745,234.785 205.848,234.802 205.903,234.812 C 205.971,234.828 206.036,234.847 206.025,234.912 C 206.009,234.996 205.903,235.019 205.758,235.019 C 205.476,235.019 205.256,234.956 204.893,234.956 C 204.604,234.956 204.312,235.019 204.028,235.019 C 203.842,235.019 203.752,235.007 203.78,234.915 C 203.803,234.844 203.863,234.822 203.966,234.811 C 204.07,234.801 204.171,234.78 204.276,234.77 C 204.565,234.744 204.673,234.475 204.75,234.235 L 206.027,230.197 L 203.184,230.197 L 201.907,234.257 C 201.829,234.504 201.806,234.723 201.907,234.75 C 202.033,234.784 202.195,234.764 202.321,234.786 C 202.395,234.8 202.475,234.819 202.444,234.915 C 202.423,234.977 202.34,235.019 202.216,235.019 C 201.925,235.019 201.626,234.956 201.331,234.956 C 200.917,234.956 200.744,234.996 200.361,235.019 C 200.269,235.025 200.182,234.973 200.183,234.918 C 200.184,234.841 200.239,234.793 200.371,234.776 C 200.462,234.764 200.578,234.763 200.733,234.76 C 200.936,234.758 201.094,234.502 201.145,234.337 L 202.338,230.527 L 202.338,230.527 z "
       id="path515"
       style="fill:#034ea2;fill-rule:evenodd"
       transform="matrix(4.0413077,0,0,4.0413077,-975.66645,-805.21964)" />
    <path
       clip-path="url(#SVGID_18_)"
       clip-rule="evenodd"
       d="M 228.232,232.36 C 228.033,232.399 227.887,232.541 227.758,232.688 L 226.234,234.44 C 226.019,234.686 225.909,234.764 225.595,234.792 C 225.451,234.803 225.348,234.844 225.327,234.915 C 225.307,234.981 225.37,234.997 225.473,234.997 L 226.397,234.997 C 226.583,234.997 226.778,234.655 226.871,234.544 L 228.437,232.67 C 228.577,232.501 228.767,232.423 229.075,232.423 L 229.282,232.423 C 229.442,232.423 229.421,232.555 229.385,232.67 L 228.829,234.42 C 228.782,234.57 228.667,234.692 228.602,234.73 C 228.462,234.81 228.268,234.751 228.114,234.779 C 228.011,234.796 227.937,234.826 227.922,234.916 C 227.912,234.983 227.943,234.998 228.087,234.998 C 228.385,234.998 228.689,234.937 228.993,234.937 C 229.305,234.937 229.614,234.998 229.92,234.998 C 230.044,234.998 230.108,234.974 230.127,234.937 C 230.183,234.824 230.097,234.812 230.003,234.812 C 229.941,234.812 229.879,234.812 229.858,234.812 C 229.574,234.812 229.463,234.634 229.549,234.359 L 230.785,230.425 C 230.917,230.006 231.024,229.991 231.403,229.991 C 231.506,229.991 231.585,229.981 231.63,229.97 C 231.67,229.959 231.734,229.945 231.754,229.887 C 231.775,229.825 231.72,229.82 231.62,229.811 C 231.429,229.797 231.128,229.806 230.889,229.806 L 229.603,229.806 C 229.215,229.806 228.762,229.817 228.394,229.952 C 227.915,230.125 227.405,230.636 227.274,231.092 C 227.196,231.365 227.223,231.657 227.428,231.907 C 227.595,232.112 227.82,232.319 228.232,232.36 L 228.232,232.36 z M 230.065,230.425 L 229.53,232.175 C 229.499,232.276 229.385,232.32 229.241,232.32 C 228.901,232.32 228.607,232.32 228.293,232.155 C 228.12,232.064 228.033,231.89 227.988,231.709 C 227.943,231.529 227.97,231.311 228.025,231.105 C 228.125,230.731 228.294,230.484 228.582,230.269 C 228.889,230.039 229.235,229.917 229.615,229.91 C 229.73,229.908 229.916,229.898 230.022,229.951 C 230.212,230.044 230.111,230.272 230.065,230.425 L 230.065,230.425 z "
       id="path517"
       style="fill:#034ea2;fill-rule:evenodd"
       transform="matrix(4.0413077,0,0,4.0413077,-975.66645,-805.21964)" />
    <path
       clip-path="url(#SVGID_18_)"
       clip-rule="evenodd"
       d="M 214.307,230.362 C 214.393,230.089 214.236,230.03 213.998,230.012 C 213.937,230.007 213.661,230.024 213.689,229.908 C 213.718,229.79 213.953,229.826 214.039,229.826 L 215.708,229.826 C 215.894,229.826 215.966,229.832 215.946,229.904 C 215.922,229.994 215.762,229.982 215.667,229.99 C 215.548,230.002 215.375,230.002 215.269,230.065 C 215.145,230.14 215.045,230.31 215.008,230.423 L 214.575,231.739 C 214.514,231.927 214.471,232.05 214.699,232.05 L 217.192,232.05 C 217.418,232.05 217.398,231.917 217.46,231.739 L 217.954,230.339 C 218.002,230.202 217.984,230.087 217.904,230.058 C 217.818,230.027 217.714,229.997 217.549,229.993 C 217.383,229.99 217.306,229.986 217.316,229.908 C 217.323,229.85 217.44,229.824 217.626,229.824 L 219.376,229.826 C 219.542,229.826 219.55,229.862 219.542,229.908 C 219.529,229.969 219.5,229.98 219.397,229.99 C 219.293,230 219.213,230.019 219.088,230.033 C 218.846,230.056 218.73,230.15 218.655,230.383 L 217.379,234.358 C 217.286,234.647 217.365,234.743 217.647,234.77 C 217.712,234.778 217.816,234.798 217.915,234.811 C 217.997,234.823 218.026,234.853 218.018,234.894 C 218.001,234.981 217.894,234.997 217.709,234.997 C 217.418,234.997 217.152,234.919 216.855,234.919 C 216.56,234.919 216.232,234.991 215.935,234.991 C 215.77,234.991 215.688,234.983 215.715,234.903 C 215.738,234.833 215.814,234.821 215.916,234.811 C 216.041,234.801 216.141,234.778 216.226,234.77 C 216.507,234.745 216.618,234.547 216.7,234.295 L 217.277,232.504 C 217.331,232.334 217.219,232.299 217.071,232.299 L 214.702,232.299 C 214.472,232.299 214.417,232.347 214.352,232.545 L 213.775,234.316 C 213.703,234.539 213.715,234.703 213.837,234.749 C 213.88,234.766 213.982,234.791 214.105,234.791 C 214.183,234.791 214.395,234.766 214.353,234.894 C 214.332,234.954 214.29,234.997 214.146,234.997 C 213.834,234.997 213.517,234.915 213.198,234.915 C 212.889,234.915 212.578,234.997 212.271,234.997 C 212.127,234.997 212.062,234.976 212.085,234.894 C 212.106,234.823 212.188,234.791 212.333,234.791 C 212.473,234.791 212.567,234.783 212.704,234.749 C 212.833,234.717 212.996,234.496 213.033,234.377 L 214.307,230.362 L 214.307,230.362 z "
       id="path519"
       style="fill:#034ea2;fill-rule:evenodd"
       transform="matrix(4.0413077,0,0,4.0413077,-975.66645,-805.21964)" />
    <path
       clip-path="url(#SVGID_18_)"
       clip-rule="evenodd"
       d="M 169.441,230.404 C 169.524,230.145 169.502,230.056 169.254,230 C 169.141,229.974 168.875,230.006 168.946,229.827 C 168.963,229.784 169.07,229.745 169.276,229.745 C 169.502,229.745 169.728,229.765 169.955,229.765 C 170.271,229.765 170.587,229.765 170.903,229.765 C 171.089,229.765 171.182,229.8 171.171,229.863 C 171.15,229.988 170.981,229.992 170.841,229.992 C 170.563,229.992 170.234,230.115 170.141,230.405 L 168.889,234.306 L 173.293,230.116 C 173.207,230.037 172.939,230.019 172.84,230.013 C 172.674,230 172.585,229.949 172.614,229.847 C 172.626,229.804 172.738,229.773 172.902,229.772 L 174.756,229.765 C 174.922,229.765 174.988,229.801 174.983,229.847 C 174.971,229.945 174.889,229.986 174.797,229.992 C 174.672,230.002 174.591,230.013 174.489,230.013 C 174.23,230.013 174.066,230.177 173.994,230.405 L 172.738,234.379 C 172.69,234.529 172.681,234.643 172.738,234.71 C 172.853,234.848 173.094,234.814 173.253,234.834 C 173.337,234.844 173.387,234.875 173.377,234.938 C 173.366,235.001 173.253,235.04 173.088,235.04 C 172.783,235.04 172.472,234.958 172.162,234.958 C 171.846,234.958 171.529,235.04 171.214,235.04 C 171.029,235.04 170.946,234.999 170.967,234.938 C 170.988,234.875 171.091,234.834 171.173,234.834 C 171.388,234.834 171.65,234.831 171.812,234.668 C 171.853,234.628 171.941,234.485 171.998,234.318 C 172.045,234.175 173.254,230.405 173.254,230.405 L 168.887,234.586 C 168.799,234.67 168.795,234.762 168.949,234.793 C 168.949,234.793 169.114,234.834 169.217,234.834 C 169.303,234.834 169.593,234.766 169.526,234.938 C 169.502,234.998 169.443,235.04 169.299,235.04 C 168.987,235.04 168.669,234.958 168.352,234.958 C 168.067,234.958 167.782,235.04 167.507,235.04 C 167.363,235.04 167.304,235 167.321,234.938 C 167.344,234.855 167.424,234.813 167.569,234.813 C 167.951,234.813 168.053,234.732 168.166,234.379 L 169.441,230.404 L 169.441,230.404 z "
       id="path521"
       style="fill:#034ea2;fill-rule:evenodd"
       transform="matrix(4.0413077,0,0,4.0413077,-975.66645,-805.21964)" />
    <path
       clip-path="url(#SVGID_18_)"
       clip-rule="evenodd"
       d="M 176.383,233.101 C 176.3,233.101 176.251,233.111 176.218,233.142 C 176.185,233.175 176.127,233.276 176.012,233.431 L 175.435,234.212 C 175.391,234.273 175.32,234.341 175.27,234.482 C 175.213,234.637 175.313,234.74 175.497,234.791 C 175.63,234.828 175.779,234.789 175.909,234.833 C 175.948,234.846 175.958,234.875 175.95,234.915 C 175.937,234.978 175.847,235.018 175.682,235.018 C 175.467,235.018 175.246,234.955 175.022,234.955 C 174.732,234.955 174.442,235.018 174.157,235.018 C 174.033,235.018 173.968,234.997 173.992,234.936 C 174.037,234.824 174.166,234.812 174.281,234.812 C 174.414,234.812 174.533,234.79 174.652,234.731 C 174.751,234.68 174.904,234.548 175.064,234.318 L 178.216,229.786 C 178.301,229.664 178.34,229.6 178.381,229.6 C 178.422,229.6 178.464,229.621 178.464,229.642 C 178.464,229.683 178.476,229.725 178.485,229.807 L 178.939,234.338 C 178.96,234.544 178.993,234.68 179.083,234.731 C 179.18,234.784 179.269,234.801 179.393,234.812 C 179.517,234.823 179.57,234.873 179.558,234.936 C 179.55,234.976 179.475,234.998 179.372,234.998 L 177.332,234.998 C 177.229,234.998 177.216,234.96 177.229,234.895 C 177.237,234.854 177.271,234.812 177.332,234.812 C 177.499,234.812 177.778,234.836 177.93,234.771 C 177.998,234.743 178.05,234.667 178.075,234.586 C 178.112,234.459 178.127,234.339 178.116,234.213 L 178.033,233.328 C 178.024,233.224 177.984,233.17 177.971,233.142 C 177.962,233.124 177.888,233.101 177.785,233.101 L 176.383,233.101 L 176.383,233.101 z M 176.733,232.854 L 177.722,232.854 C 177.805,232.854 177.838,232.868 177.867,232.875 C 177.927,232.89 177.97,232.854 177.97,232.814 C 177.97,232.814 177.965,232.689 177.949,232.484 L 177.846,231.186 C 177.831,230.999 177.804,230.897 177.763,230.897 C 177.721,230.897 177.652,230.974 177.536,231.146 L 176.588,232.544 C 176.521,232.644 176.457,232.746 176.423,232.814 C 176.414,232.832 176.459,232.875 176.505,232.875 C 176.572,232.874 176.651,232.854 176.733,232.854 L 176.733,232.854 z "
       id="path523"
       style="fill:#034ea2;fill-rule:evenodd"
       transform="matrix(4.0413077,0,0,4.0413077,-975.66645,-805.21964)" />
    <path
       clip-path="url(#SVGID_18_)"
       clip-rule="evenodd"
       d="M 182.192,230.404 L 182.192,230.404 C 182.234,230.238 182.244,230.126 182.192,230.073 C 182.061,229.942 181.861,230.012 181.698,229.991 C 181.614,229.98 181.571,229.928 181.595,229.868 C 181.612,229.825 181.677,229.786 181.801,229.786 L 183.717,229.786 C 183.806,229.786 183.889,229.798 183.861,229.909 C 183.85,229.954 183.822,229.979 183.758,229.991 C 183.547,230.034 183.376,229.966 183.161,230.073 C 183.062,230.124 182.986,230.214 182.934,230.384 L 182.378,232.216 C 182.353,232.297 182.337,232.361 182.337,232.382 C 182.399,232.361 182.461,232.319 182.543,232.259 L 184.748,230.57 C 184.98,230.39 185.096,230.259 185.119,230.177 C 185.137,230.114 185.14,230.073 185.098,230.053 C 185.057,230.034 184.994,230.045 184.892,230.034 C 184.803,230.022 184.702,230.008 184.706,229.909 C 184.71,229.825 184.788,229.786 184.892,229.786 L 186.581,229.786 C 186.705,229.786 186.731,229.825 186.725,229.888 C 186.72,229.956 186.663,229.992 186.622,229.992 C 186.418,229.992 186.226,229.998 186.024,230.035 C 185.777,230.078 185.476,230.25 185.159,230.486 L 183.697,231.578 C 183.568,231.675 183.506,231.742 183.49,231.806 C 183.486,231.827 183.506,231.899 183.552,231.991 L 184.747,234.36 C 184.889,234.642 185.073,234.782 185.386,234.813 C 185.421,234.817 185.522,234.83 185.509,234.896 C 185.496,234.959 185.386,234.999 185.241,234.999 C 184.922,234.999 184.598,234.938 184.273,234.938 C 183.941,234.938 183.611,234.999 183.284,234.999 C 183.202,234.999 183.157,234.978 183.181,234.917 C 183.199,234.874 183.223,234.841 183.264,234.835 C 183.437,234.806 183.611,234.829 183.779,234.772 C 183.984,234.704 183.987,234.511 183.903,234.339 L 183.058,232.609 C 182.985,232.46 182.939,232.381 182.913,232.341 C 182.879,232.288 182.843,232.26 182.789,232.301 L 182.274,232.69 C 182.274,232.69 182.242,232.714 182.233,232.733 C 182.22,232.759 182.204,232.796 182.191,232.837 L 181.697,234.422 C 181.644,234.591 181.68,234.685 181.8,234.752 C 181.923,234.823 182.113,234.786 182.253,234.814 C 182.314,234.826 182.323,234.856 182.315,234.897 C 182.302,234.96 182.191,235 182.027,235 C 181.728,235 181.425,234.939 181.121,234.939 C 180.837,234.939 180.555,235 180.276,235 C 180.111,235 180.057,234.961 180.069,234.897 C 180.092,234.784 180.273,234.794 180.358,234.794 C 180.482,234.794 180.687,234.788 180.791,234.711 C 180.897,234.632 180.932,234.524 180.977,234.38 L 182.192,230.404 L 182.192,230.404 z "
       id="path525"
       style="fill:#034ea2;fill-rule:evenodd"
       transform="matrix(4.0413077,0,0,4.0413077,-975.66645,-805.21964)" />
    <path
       clip-path="url(#SVGID_18_)"
       clip-rule="evenodd"
       d="M 187.28,231.146 C 188.027,230.24 189.311,229.539 190.494,229.539 C 191.523,229.539 192.557,230.038 192.719,231.146 C 192.841,231.972 192.479,232.839 191.998,233.494 C 191.294,234.451 189.997,235.081 188.806,235.081 C 187.818,235.081 186.82,234.531 186.581,233.516 C 186.393,232.718 186.779,231.755 187.28,231.146 L 187.28,231.146 z M 187.301,233.411 C 187.356,234.294 188.02,234.833 188.886,234.833 C 189.868,234.833 190.785,234.177 191.317,233.39 C 191.761,232.736 192.133,231.71 191.935,230.918 C 191.75,230.18 191.152,229.807 190.411,229.807 C 189.43,229.807 188.498,230.411 187.96,231.207 C 187.567,231.788 187.257,232.706 187.301,233.411 L 187.301,233.411 z "
       id="path527"
       style="fill:#034ea2;fill-rule:evenodd"
       transform="matrix(4.0413077,0,0,4.0413077,-975.66645,-805.21964)" />
    <path
       clip-path="url(#SVGID_18_)"
       clip-rule="evenodd"
       d="M 196.2,233.843 L 198.919,230.177 C 198.99,230.081 199.097,229.927 199.187,229.847 C 199.25,229.792 199.331,229.786 199.414,229.786 L 200.341,229.786 C 200.413,229.786 200.601,229.757 200.568,229.888 C 200.54,230.001 200.367,229.992 200.28,229.992 C 200.032,229.992 199.843,230.07 199.764,230.322 L 198.529,234.297 C 198.485,234.442 198.494,234.548 198.529,234.628 C 198.609,234.815 198.711,234.793 198.9,234.793 C 198.975,234.793 199.087,234.787 199.065,234.896 C 199.053,234.959 198.962,234.999 198.839,234.999 C 198.528,234.999 198.209,234.938 197.891,234.938 C 197.614,234.938 197.339,234.999 197.067,234.999 C 196.902,234.999 196.85,234.96 196.861,234.896 C 196.871,234.834 196.964,234.793 197.129,234.793 C 197.294,234.793 197.436,234.746 197.562,234.689 C 197.663,234.644 197.782,234.481 197.85,234.258 L 199.065,230.281 L 198.983,230.281 L 195.872,234.607 C 195.713,234.829 195.571,234.99 195.542,234.607 L 195.234,230.384 L 195.171,230.384 L 193.832,234.03 C 193.742,234.275 193.659,234.685 194.018,234.751 C 194.121,234.77 194.224,234.78 194.306,234.793 C 194.37,234.801 194.389,234.854 194.368,234.916 C 194.347,234.978 194.285,234.998 194.161,234.998 C 193.893,234.998 193.615,234.937 193.338,234.937 C 193.108,234.937 192.882,234.998 192.658,234.998 C 192.555,234.998 192.518,234.98 192.534,234.937 C 192.558,234.875 192.638,234.824 192.802,234.812 C 193.112,234.792 193.329,234.656 193.441,234.359 L 194.965,230.3 C 195.062,230.044 194.845,229.991 194.635,229.991 C 194.551,229.991 194.409,229.999 194.429,229.887 C 194.451,229.768 194.617,229.785 194.696,229.785 L 195.644,229.785 C 195.851,229.785 195.835,230.02 195.85,230.176 L 196.2,233.843 L 196.2,233.843 z "
       id="path529"
       style="fill:#034ea2;fill-rule:evenodd"
       transform="matrix(4.0413077,0,0,4.0413077,-975.66645,-805.21964)" />
    <path
       clip-path="url(#SVGID_18_)"
       clip-rule="evenodd"
       d="M 158.134,233.091 C 158.052,233.091 158.002,233.1 157.969,233.134 C 157.936,233.165 157.878,233.265 157.763,233.421 L 157.186,234.204 C 157.142,234.265 157.072,234.333 157.021,234.472 C 156.965,234.628 157.064,234.731 157.248,234.781 C 157.382,234.817 157.53,234.779 157.66,234.823 C 157.699,234.836 157.709,234.865 157.701,234.905 C 157.688,234.968 157.598,235.009 157.433,235.009 C 157.218,235.009 156.997,234.947 156.774,234.947 C 156.483,234.947 156.193,235.009 155.908,235.009 C 155.785,235.009 155.72,234.987 155.744,234.926 C 155.788,234.813 155.917,234.803 156.032,234.803 C 156.166,234.803 156.284,234.78 156.404,234.721 C 156.503,234.67 156.656,234.537 156.816,234.307 L 159.968,229.776 C 160.052,229.655 160.092,229.591 160.133,229.591 C 160.175,229.591 160.216,229.612 160.216,229.633 C 160.216,229.674 160.228,229.715 160.237,229.797 L 160.69,234.328 C 160.71,234.535 160.744,234.67 160.834,234.721 C 160.931,234.774 161.02,234.793 161.143,234.803 C 161.268,234.813 161.32,234.862 161.308,234.926 C 161.3,234.966 161.225,234.988 161.123,234.988 L 159.083,234.988 C 158.98,234.988 158.967,234.949 158.98,234.885 C 158.988,234.845 159.021,234.803 159.083,234.803 C 159.25,234.803 159.53,234.826 159.681,234.762 C 159.749,234.732 159.801,234.658 159.825,234.576 C 159.863,234.451 159.878,234.33 159.866,234.205 L 159.784,233.318 C 159.774,233.214 159.735,233.16 159.722,233.134 C 159.713,233.113 159.64,233.091 159.537,233.091 L 158.134,233.091 L 158.134,233.091 z M 158.485,232.845 L 159.473,232.845 C 159.556,232.845 159.59,232.859 159.618,232.866 C 159.677,232.881 159.72,232.845 159.72,232.803 C 159.72,232.803 159.716,232.68 159.699,232.474 L 159.596,231.177 C 159.581,230.989 159.555,230.888 159.514,230.888 C 159.473,230.888 159.403,230.964 159.287,231.135 L 158.34,232.535 C 158.272,232.635 158.208,232.736 158.174,232.803 C 158.165,232.822 158.211,232.866 158.257,232.866 C 158.323,232.865 158.402,232.845 158.485,232.845 L 158.485,232.845 z "
       id="path531"
       style="fill:#034ea2;fill-rule:evenodd"
       transform="matrix(4.0413077,0,0,4.0413077,-975.66645,-805.21964)" />
    <path
       clip-path="url(#SVGID_18_)"
       clip-rule="evenodd"
       d="M 208.866,233.101 C 208.784,233.101 208.734,233.111 208.701,233.142 C 208.669,233.175 208.61,233.276 208.495,233.431 L 207.918,234.212 C 207.874,234.273 207.803,234.341 207.752,234.482 C 207.697,234.637 207.796,234.74 207.98,234.791 C 208.113,234.828 208.261,234.789 208.392,234.833 C 208.431,234.846 208.441,234.875 208.433,234.915 C 208.42,234.978 208.33,235.018 208.165,235.018 C 207.95,235.018 207.729,234.955 207.506,234.955 C 207.215,234.955 206.925,235.018 206.64,235.018 C 206.516,235.018 206.452,234.997 206.475,234.936 C 206.52,234.824 206.649,234.812 206.764,234.812 C 206.896,234.812 207.015,234.79 207.135,234.731 C 207.234,234.68 207.387,234.548 207.547,234.318 L 210.699,229.786 C 210.783,229.664 210.823,229.6 210.863,229.6 C 210.904,229.6 210.946,229.621 210.946,229.642 C 210.946,229.683 210.959,229.725 210.966,229.807 L 211.42,234.338 C 211.441,234.544 211.474,234.68 211.564,234.731 C 211.662,234.784 211.751,234.801 211.874,234.812 C 211.999,234.823 212.051,234.873 212.039,234.936 C 212.031,234.976 211.956,234.998 211.853,234.998 L 209.814,234.998 C 209.71,234.998 209.698,234.96 209.71,234.895 C 209.718,234.854 209.752,234.812 209.814,234.812 C 209.98,234.812 210.26,234.836 210.411,234.771 C 210.479,234.743 210.531,234.667 210.555,234.586 C 210.592,234.459 210.607,234.339 210.597,234.213 L 210.514,233.328 C 210.504,233.224 210.465,233.17 210.452,233.142 C 210.443,233.124 210.369,233.101 210.266,233.101 L 208.866,233.101 L 208.866,233.101 z M 209.216,232.854 L 210.205,232.854 C 210.288,232.854 210.321,232.868 210.35,232.875 C 210.41,232.89 210.453,232.854 210.453,232.814 C 210.453,232.814 210.449,232.689 210.433,232.484 L 210.329,231.186 C 210.314,230.999 210.288,230.897 210.246,230.897 C 210.204,230.897 210.135,230.974 210.019,231.146 L 209.071,232.544 C 209.004,232.644 208.94,232.746 208.906,232.814 C 208.897,232.832 208.942,232.875 208.989,232.875 C 209.054,232.874 209.134,232.854 209.216,232.854 L 209.216,232.854 z "
       id="path533"
       style="fill:#034ea2;fill-rule:evenodd"
       transform="matrix(4.0413077,0,0,4.0413077,-975.66645,-805.21964)" />
    <path
       clip-path="url(#SVGID_18_)"
       clip-rule="evenodd"
       d="M 220.942,230.404 C 221.025,230.145 221.002,230.056 220.756,230 C 220.642,229.974 220.376,230.006 220.448,229.827 C 220.465,229.784 220.572,229.745 220.777,229.745 C 221.003,229.745 221.23,229.765 221.457,229.765 C 221.773,229.765 222.089,229.765 222.405,229.765 C 222.59,229.765 222.683,229.8 222.673,229.863 C 222.652,229.988 222.483,229.992 222.343,229.992 C 222.065,229.992 221.736,230.115 221.643,230.405 L 220.391,234.306 L 224.795,230.116 C 224.709,230.037 224.441,230.019 224.342,230.013 C 224.176,230 224.086,229.949 224.115,229.847 C 224.128,229.804 224.239,229.773 224.403,229.772 L 226.257,229.765 C 226.422,229.765 226.489,229.801 226.484,229.847 C 226.472,229.945 226.389,229.986 226.298,229.992 C 226.173,230.002 226.093,230.013 225.989,230.013 C 225.731,230.013 225.567,230.177 225.494,230.405 L 224.238,234.379 C 224.191,234.529 224.182,234.643 224.238,234.71 C 224.354,234.848 224.595,234.814 224.753,234.834 C 224.837,234.844 224.886,234.875 224.876,234.938 C 224.866,235.001 224.753,235.04 224.587,235.04 C 224.283,235.04 223.971,234.958 223.661,234.958 C 223.345,234.958 223.029,235.04 222.713,235.04 C 222.527,235.04 222.445,234.999 222.466,234.938 C 222.486,234.875 222.589,234.834 222.672,234.834 C 222.886,234.834 223.149,234.831 223.31,234.668 C 223.351,234.628 223.44,234.485 223.496,234.318 C 223.543,234.175 224.752,230.405 224.752,230.405 L 220.385,234.586 C 220.297,234.67 220.293,234.762 220.447,234.793 C 220.447,234.793 220.612,234.834 220.715,234.834 C 220.8,234.834 221.092,234.766 221.023,234.938 C 220.999,234.998 220.941,235.04 220.797,235.04 C 220.484,235.04 220.167,234.958 219.849,234.958 C 219.564,234.958 219.279,235.04 219.005,235.04 C 218.86,235.04 218.801,235 218.819,234.938 C 218.842,234.855 218.922,234.813 219.066,234.813 C 219.448,234.813 219.55,234.732 219.663,234.379 L 220.942,230.404 L 220.942,230.404 z "
       id="path535"
       style="fill:#034ea2;fill-rule:evenodd"
       transform="matrix(4.0413077,0,0,4.0413077,-975.66645,-805.21964)" />
    <polygon
       clip-path="url(#SVGID_18_)"
       clip-rule="evenodd"
       points="154.545,196.942 155.542,196.78 181.618,159.858 179.707,161.315 154.545,196.942 "
       id="polygon537"
       style="fill:#034ea2;fill-rule:evenodd"
       transform="matrix(4.0413077,0,0,4.0413077,-975.66645,-805.21964)" />
    <polygon
       clip-path="url(#SVGID_18_)"
       clip-rule="evenodd"
       points="150.019,197.683 152.352,197.302 175.505,164.519 171.034,167.926 150.019,197.683 "
       id="polygon539"
       style="fill:#034ea2;fill-rule:evenodd"
       transform="matrix(4.0413077,0,0,4.0413077,-975.66645,-805.21964)" />
    <polygon
       clip-path="url(#SVGID_18_)"
       clip-rule="evenodd"
       points="145.602,198.405 148.533,197.926 168.188,170.096 162.572,174.376 145.602,198.405 "
       id="polygon541"
       style="fill:#034ea2;fill-rule:evenodd"
       transform="matrix(4.0413077,0,0,4.0413077,-975.66645,-805.21964)" />
    <polygon
       clip-path="url(#SVGID_18_)"
       clip-rule="evenodd"
       points="127.073,201.435 144.604,198.568 160.661,175.834 127.073,201.435 "
       id="polygon543"
       style="fill:#034ea2;fill-rule:evenodd"
       transform="matrix(4.0413077,0,0,4.0413077,-975.66645,-805.21964)" />
  </g>
</svg>
