<?xml version="1.0" encoding="UTF-8" standalone="no"?>
<svg
   xmlns:dc="http://purl.org/dc/elements/1.1/"
   xmlns:cc="http://creativecommons.org/ns#"
   xmlns:rdf="http://www.w3.org/1999/02/22-rdf-syntax-ns#"
   xmlns:svg="http://www.w3.org/2000/svg"
   xmlns="http://www.w3.org/2000/svg"
   xmlns:sodipodi="http://sodipodi.sourceforge.net/DTD/sodipodi-0.dtd"
   xmlns:inkscape="http://www.inkscape.org/namespaces/inkscape"
   version="1.1"
   id="Layer_1"
   x="0px"
   y="0px"
   width="546"
   height="339"
   viewBox="0 0 546 338.99999"
   enable-background="new 0 0 595.276 841.89"
   xml:space="preserve">
<path
   style="fill:#e11a2c"
   id="path287"
   d="m 545.91603,51.633855 c 0,-28.522545 -23.08668,-51.60922605 -51.60923,-51.60922605 L 51.609195,0.00364106 C 23.107638,0.00364106 -3.1104001e-5,23.11131 -3.1104001e-5,51.633855 L 0.04194468,287.36986 c 0,28.52254 23.14964532,51.63021 51.63021432,51.63021 H 494.34878 c 28.48057,0 51.6512,-23.10767 51.6512,-51.63021 l -0.084,-235.736005 z"
   clip-path="none" /><polygon
   style="fill:#ffffff"
   id="polygon289"
   points="297.583,275.083 297.583,270.323 295.807,270.323 295.807,269.216 300.995,269.216 300.995,270.323 299.201,270.323 299.201,275.083 "
   clip-path="none"
   transform="matrix(20.987892,0,0,20.987892,-6155.4969,-5557.6951)" /><path
   style="fill:#ffffff"
   id="path291"
   d="m 302.54043,188.36997 c -0.73457,-2.32965 -20.08541,-59.64759 -21.99531,-65.23037 h -37.56833 c 4.3445,9.57048 42.73135,93.75292 43.02518,94.44552 l -21.28172,43.17209 34.71397,0.021 62.81676,-137.6386 -37.69425,0.021 -22.0163,65.20938 z"
   clip-path="none" /><path
   style="fill:#ffffff"
   id="path293"
   d="m 433.1271,267.51531 31.46085,-0.021 1.49014,-3.27411 4.95314,-10.93469 c 1.51113,-3.94572 2.11978,-6.61118 2.11978,-10.36802 v -0.27284 c -1.00742,-27.05339 -32.82507,-26.8645 -38.91156,-27.26327 l -20.86196,-0.58766 c 0,0 -11.31247,0.60865 -11.31247,-6.73712 0,-4.57536 2.7704,-6.96798 5.60376,-8.77293 l 4.65932,-3.19016 0.25185,0.021 c 5.70871,0.62964 8.52108,0.62964 14.29275,0.62964 22.66693,0 44.30544,-11.2705 44.30544,-35.04978 0,-9.25566 -2.16175,-12.50878 -5.0161,-17.90267 l -0.88149,-1.65804 -0.18889,-0.3568 -0.77656,-1.40619 14.92239,0.77655 v -18.25946 l -36.37201,0.3358 c 0,0 -9.7174,-1.70001 -22.89779,-1.70001 -27.70402,0 -52.76356,9.06677 -52.76356,40.17082 0,14.75449 8.45812,24.7867 20.31628,30.28553 0,0 0.31482,0.1679 0.71359,0.35679 l -3.1272,2.2667 c -8.60504,5.77167 -17.81872,14.01991 -17.81872,25.56325 0,8.73096 6.35933,14.08287 13.5162,16.66438 9.54949,3.79881 21.44963,3.40004 30.01269,3.60992 4.38647,0.18889 19.30886,-1.53211 26.29783,1.0494 0.75556,0.3358 1.46915,0.71358 2.05681,1.19631 l 0.12593,0.10494 c 1.30125,1.00741 2.18274,2.79139 2.18274,4.82721 0,0.90248 -0.14692,1.72101 -0.46174,2.49756 l -7.89144,17.39896 z M 419.7788,179.1353 h -0.67162 c -13.43225,0 -19.62367,-6.4223 -19.62367,-20.23233 0,-13.64213 6.42229,-20.25331 19.62367,-20.25331 h 0.77656 c 12.94953,0.18889 19.30886,6.77908 19.30886,20.25331 -0.021,13.66312 -6.19143,20.08541 -19.4138,20.23233"
   clip-path="none" /><path
   style="fill:#ffffff"
   id="path295"
   d="m 220.75062,145.86949 c -9.8853,0 -19.87554,2.28768 -19.87554,2.28768 v 67.53904 h -32.88802 v -87.93927 c 0,0 20.71505,-5.98155 53.12035,-5.98155 3.14818,0 11.2705,0.33581 11.2705,0.33581 v 24.47188 c 0,0.021 -5.98155,-0.71359 -11.62729,-0.71359"
   clip-path="none" />
</svg>