<?xml version="1.0" encoding="UTF-8" standalone="no"?>
<svg
   xmlns:dc="http://purl.org/dc/elements/1.1/"
   xmlns:cc="http://creativecommons.org/ns#"
   xmlns:rdf="http://www.w3.org/1999/02/22-rdf-syntax-ns#"
   xmlns:svg="http://www.w3.org/2000/svg"
   xmlns="http://www.w3.org/2000/svg"
   xmlns:sodipodi="http://sodipodi.sourceforge.net/DTD/sodipodi-0.dtd"
   xmlns:inkscape="http://www.inkscape.org/namespaces/inkscape"
   version="1.1"
   id="Layer_1"
   x="0px"
   y="0px"
   width="961"
   height="211"
   viewBox="0 0 961 211"
   enable-background="new 0 0 653 165"
   xml:space="preserve">
<path
   style="fill:#ffffff"
   d="M 898.95021,63.740783 C 891.22064,56.018619 881.38395,51.933202 870.50925,51.933202 h -29.00809 c -21.819,0 -40.72091,7.845067 -56.19189,23.316049 -2.07602,2.076025 -3.9862,4.221647 -5.78829,6.420576 -13.42753,-16.506033 -35.95878,-29.678875 -70.22949,-29.678875 -25.88813,0 -46.55954,7.550396 -61.5167,22.36392 -0.30207,-0.318364 -0.56861,-0.651535 -0.87957,-0.963975 -8.04497,-8.004989 -18.26517,-12.237002 -29.55449,-12.237002 0,0 -9.77894,0 -19.54603,0 0,-9.577556 0,-19.177324 0,-19.177324 0,-11.26118 -4.21425,-21.457694 -12.18518,-29.47601 -8.01535,-8.0627389 -18.21187,-12.32140498 -29.48637,-12.32140498 -11.35151,0 -21.57912,4.16241668 -29.58115,12.03709898 l -0.0296,0.0311 c -8.05238,7.962047 -12.30808,18.247407 -12.30808,29.746989 l 0.0622,-1.59774 c -0.31392,4.035072 -0.83219,11.723178 -1.11205,21.601329 -2.74237,-0.550843 -5.57358,-0.842553 -8.47587,-0.842553 0,0 -9.77894,0 -19.54751,0 0,-9.577556 0,-19.177324 0,-19.177324 0,-11.274507 -4.21573,-21.473983 -12.19406,-29.490818 C 464.93202,4.4378221 454.73698,0.17915602 443.461,0.17915602 c -10.66888,0 -20.31751,3.71670788 -28.07818,10.69256898 C 407.61031,3.7818453 397.98981,0.00146481 387.3935,0.00146481 c -11.29228,0 -21.5036,4.24237769 -29.53376,12.26513619 l -0.0163,0.01629 c -8.0124,8.02572 -12.24737,18.232599 -12.24737,29.517472 0,3.961033 0.55232,7.781394 1.58145,11.425545 -4.23497,-1.491126 -8.735,-2.299621 -13.44974,-2.299621 -10.92653,0 -20.80468,4.112071 -28.56238,11.886062 -5.61949,5.625407 -9.25031,12.385077 -10.86138,19.822935 -1.61847,-7.454146 -5.26558,-14.224181 -10.90728,-19.854031 -7.75918,-7.751779 -17.64325,-11.856446 -28.56978,-11.856446 -11.1442,0 -21.1571,4.184628 -28.94886,12.108175 -5.52916,5.647619 -9.09187,12.35102 -10.7133,19.667456 -1.60515,-7.640722 -5.31445,-14.509969 -11.05832,-20.153145 -7.73549,-7.602223 -17.56626,-11.622486 -28.42763,-11.622486 -6.9418,0 -13.45419,1.661412 -19.27357,4.833201 -0.26062,-0.275422 -0.49162,-0.56417 -0.7626,-0.832188 -8.03016,-7.996104 -18.25481,-12.231078 -29.55301,-12.231078 0,0 -23.82691,0 -42.49633,0 0,-0.0459 0,-0.718169 0,-0.718169 0,-11.274507 -4.221647,-21.473983 -12.211829,-29.496741 C 63.416513,4.4437451 53.217037,0.17915602 41.918837,0.17915602 c -11.364833,0 -21.596886,4.16537818 -29.590029,12.05042598 l -0.01333,0.0089 C 4.2601465,20.197552 -2.5910001e-7,30.485873 -2.5910001e-7,41.99286 v 84.85348 c 0,23.08357 8.29669885910001,43.08567 24.66354025910001,59.44659 16.362399,16.36684 36.361545,24.66206 59.446595,24.66206 H 126.1652 c 11.29228,0 21.50212,-4.23793 29.52932,-12.26069 2.51137,-2.50249 4.60368,-5.24485 6.36135,-8.1427 14.92606,13.4838 32.77662,20.40339 53.20074,20.40339 14.3767,0 27.52141,-3.66784 39.38082,-10.61705 11.94677,6.95217 25.14479,10.61705 39.51853,10.61705 21.68128,0 40.48694,-7.72809 55.94015,-22.91476 1.96497,3.83813 4.53409,7.40972 7.73549,10.62297 8.05534,8.04941 18.26814,12.29179 29.56041,12.29179 11.28932,0 21.49768,-4.24238 29.5234,-12.27106 3.83073,-3.82628 6.76855,-8.16935 8.82829,-12.87521 15.05193,16.44829 35.75592,25.14627 59.90711,25.14627 h 19.09144 c 11.30264,0 21.51693,-4.24238 29.53969,-12.2681 2.94079,-2.93486 5.36627,-6.17032 7.26757,-9.63974 14.7306,14.34412 34.24405,21.90784 56.76345,21.90784 h 19.09441 c 11.29079,0 21.50359,-4.23793 29.53376,-12.26069 2.51581,-2.51433 4.61849,-5.26559 6.38059,-8.17676 15.21925,13.16248 34.37733,20.37526 54.63116,20.43301 31.82006,0.78924 50.99146,-8.00943 61.95945,-16.38313 1.18313,1.58441 2.44918,3.12144 3.88996,4.5637 7.7266,7.73549 17.56329,11.82535 28.44984,11.82535 10.89099,0 20.73212,-4.09578 28.45873,-11.84016 7.71032,-7.71772 11.79277,-17.55441 11.79277,-28.44096 0,0 0,-36.28158 0,-38.23174 2.15895,0 27.99969,-0.004 27.99969,-0.004 10.86582,0 20.69955,-4.07802 28.43504,-11.79278 7.75326,-7.73993 11.84756,-17.57662 11.84756,-28.457244 0,-10.880625 -4.0943,-20.715833 -11.83571,-28.448363 z M 746.59332,127.06697 c -0.16733,0.0296 -0.34502,0.0163 -0.51531,0.0459 l 0.88994,-0.14511 c -0.13771,0.0207 -0.23692,0.077 -0.37463,0.0992 z m -38.39907,83.88802 c -0.0814,0 -0.15992,-0.006 -0.24137,-0.006 -0.10513,-0.003 -0.1999,0.003 -0.30651,0 l 0.54788,0.006 z"
   id="path49" /><path
   style="fill:#33ccff"
   d="m 147.43632,169.16202 c 0,5.83567 -2.08491,10.84212 -6.25769,15.00602 -4.1713,4.16834 -9.17331,6.25177 -15.01343,6.25177 H 84.111616 c -17.520354,0 -32.492319,-6.21179 -44.926262,-18.64721 C 26.749931,159.33866 20.538142,144.36817 20.538142,126.84634 V 41.99286 c 0,-6.005963 2.070103,-11.050913 6.211789,-15.142253 4.140205,-4.085417 9.198482,-6.133308 15.168906,-6.133308 5.797176,0 10.776972,2.08491 14.912735,6.257692 4.147609,4.165378 6.225116,9.162943 6.225116,15.00158 v 21.256312 h 63.032992 c 5.86085,0 10.88507,2.08491 15.07266,6.257692 4.18907,4.165378 6.27398,9.165905 6.27398,15.00158 0,5.831234 -2.08491,10.837684 -6.25769,15.006023 -4.1713,4.162412 -9.18664,6.251772 -15.02231,6.251772 H 63.056688 v 21.07566 c 0,5.8564 2.037526,10.83028 6.133308,14.93494 4.09134,4.09282 9.05781,6.14071 14.900889,6.14071 h 42.065435 c 5.83567,0 10.85101,2.08936 15.02231,6.2577 4.17278,4.16834 6.25769,9.16886 6.25769,15.00306 z"
   id="path51" /><path
   style="fill:#33ccff"
   d="m 353.61143,130.93916 c 0,16.39201 -5.80902,30.40741 -17.43891,42.0373 -11.62693,11.62989 -25.63195,17.44187 -42.01508,17.44187 -14.98678,0 -28.17295,-5.06864 -39.56888,-15.21185 -11.23452,10.14469 -24.34813,15.21185 -39.33046,15.21185 -16.38017,0 -30.39261,-5.81347 -42.0225,-17.44187 -11.62544,-11.62989 -17.43446,-25.64381 -17.43446,-42.0373 V 91.365844 c 0,-5.622446 1.94423,-10.338667 5.85344,-14.163471 3.887,-3.827764 8.57508,-5.739426 14.02576,-5.739426 5.46549,0 10.14321,1.911662 14.03612,5.739426 3.89885,3.827765 5.84753,8.554351 5.84753,14.173836 v 39.595521 c 0,5.47734 1.91462,10.11656 5.73202,13.94876 3.82776,3.82629 8.47439,5.73203 13.93395,5.73203 5.30705,0 9.87371,-1.90574 13.69555,-5.73203 3.82332,-3.8322 5.73202,-8.47142 5.73202,-13.94876 V 91.610169 c 0,-5.465485 1.95905,-10.184668 5.86085,-14.172355 3.91513,-3.978802 8.68466,-5.974867 14.31007,-5.974867 5.46548,0 10.15505,1.951642 14.06574,5.860849 3.91217,3.901803 5.86381,8.59137 5.86381,14.052413 v 39.595521 c 0,5.47734 1.91166,10.11656 5.73646,13.94876 3.8174,3.82629 8.39147,5.73203 13.69259,5.73203 5.46401,0 10.11211,-1.90574 13.92951,-5.73203 3.82629,-3.8322 5.73647,-8.47142 5.73647,-13.94876 V 91.376209 c 0,-5.461043 1.95164,-10.15061 5.85048,-14.052413 3.89736,-3.907726 8.57656,-5.860849 14.02872,-5.860849 5.46252,0 10.14321,1.951642 14.03613,5.853445 3.89884,3.900322 5.84604,8.582485 5.84604,14.049452 v 39.573316 z"
   id="path53" /><path
   style="fill:#33ccff"
   d="m 408.64536,41.79888 c 0,5.829753 -2.0775,10.837683 -6.25176,15.001581 -4.16983,4.165378 -9.17035,6.25473 -15.00159,6.25473 -5.84307,0 -10.84064,-2.089352 -15.01638,-6.25473 -4.15946,-4.165378 -6.24437,-9.173309 -6.24437,-15.001581 0,-5.838637 2.08491,-10.840645 6.24437,-15.006023 4.17426,-4.171301 9.17182,-6.25473 15.01638,-6.25473 5.83124,0 10.83028,2.081948 15.00159,6.25473 4.17426,4.165378 6.25176,9.167386 6.25176,15.006023 z m 0,127.33945 c 0,5.84456 -2.0775,10.85397 -6.25176,15.02379 -4.16983,4.17278 -9.17035,6.25621 -15.00159,6.25621 -5.84307,0 -10.84064,-2.08195 -15.01638,-6.25621 -4.15946,-4.16982 -6.24437,-9.17923 -6.24437,-15.02379 v -69.0745 c 0,-5.843081 2.08491,-10.853973 6.24437,-15.022313 4.17426,-4.171301 9.17182,-6.257692 15.01638,-6.257692 5.83124,0 10.83028,2.086391 15.00159,6.257692 4.17278,4.16834 6.25176,9.179232 6.25176,15.022313 v 69.0745 z"
   id="path55" /><path
   style="fill:#33ccff"
   d="m 526.02374,169.16202 c 0,5.83567 -2.08787,10.84212 -6.26066,15.00602 -4.16834,4.16834 -9.17627,6.25177 -15.02083,6.25177 h -19.09144 c -17.51591,0 -33.10535,-5.62245 -44.92478,-18.64721 -26.50264,-29.20948 -18.64869,-129.77974 -18.64869,-129.77974 0,-6.005963 2.07306,-11.050913 6.21179,-15.142253 4.14465,-4.085417 9.20588,-6.133308 15.1689,-6.133308 5.80458,0 10.76957,2.08491 14.91866,6.257692 4.14465,4.165378 6.21327,9.162943 6.21327,15.00158 v 39.715467 h 40.08566 c 5.85048,0 10.8747,2.086391 15.07117,6.259173 4.17723,4.160936 6.2725,9.164424 6.2725,14.998619 0,5.83123 -2.08787,10.84064 -6.26657,15.00602 -4.16834,4.16538 -9.17775,6.25177 -15.02231,6.25177 h -37.85267 c 0,0 -0.24285,13.45123 3.84997,17.55441 4.09134,4.09282 9.05781,6.14072 14.90089,6.14072 h 19.10033 c 5.84308,0 10.85249,2.08935 15.02231,6.25769 4.18463,4.16686 6.2725,9.16738 6.2725,15.00158 z"
   id="path57" /><path
   style="fill:#33ccff"
   d="m 638.68885,169.16202 c 0,5.83567 -2.09379,10.84212 -6.26362,15.00602 -4.17278,4.16834 -9.17923,6.25177 -15.01638,6.25177 h -19.09441 c -17.51739,0 -33.11275,-5.62245 -44.92626,-18.64721 -26.50116,-29.20948 -18.64721,-129.77974 -18.64721,-129.77974 0,-6.005963 2.07158,-11.050913 6.21179,-15.142253 4.14761,-4.085417 9.20441,-6.133308 15.16743,-6.133308 5.80309,0 10.77104,2.08491 14.92013,6.257692 4.13725,4.165378 6.21179,9.162943 6.21179,15.00158 v 39.715467 h 40.08566 c 5.85048,0 10.8747,2.086391 15.06673,6.259173 4.18315,4.160936 6.28139,9.164424 6.28139,14.998619 0,5.83123 -2.0938,10.84064 -6.27102,15.00602 -4.16982,4.16538 -9.18219,6.25177 -15.02231,6.25177 h -37.85267 c 0,0 -0.24729,13.45123 3.84701,17.55441 4.09727,4.09282 9.06225,6.14072 14.90089,6.14072 h 19.10477 c 5.83864,0 10.85101,2.08935 15.02231,6.25769 4.18019,4.16686 6.27398,9.16738 6.27398,15.00158 z"
   id="path59" /><path
   style="fill:#33ccff"
   d="m 890.24778,92.187666 c 0,5.406255 -1.93832,10.048434 -5.81346,13.916184 -3.87071,3.86034 -8.51438,5.79569 -13.931,5.79569 H 841.4745 c -5.42254,0 -10.02622,1.89538 -13.81993,5.69353 -3.80111,3.79222 -5.68908,8.39739 -5.68908,13.82289 v 39.25939 c 0,5.41663 -1.92943,10.06769 -5.79718,13.93692 -3.86626,3.87811 -8.50252,5.80754 -13.91618,5.80754 -5.40626,0 -10.04992,-1.92943 -13.91322,-5.80162 -3.86627,-3.86922 -5.79866,-8.50845 -5.79866,-13.93099 v -39.23866 c 0,-16.25282 5.76164,-30.14383 17.28936,-41.677475 11.52919,-11.527717 25.42169,-17.298239 41.67303,-17.298239 h 29.00809 c 5.4181,0 10.0588,1.935353 13.92951,5.803098 3.86922,3.863304 5.80754,8.499563 5.80754,13.911742 z"
   id="path61" /><path
   style="fill:#33ccff"
   d="m 749.80805,147.30896 c -9.49612,1.32676 -16.87919,9.9285 -32.99282,9.80559 -29.30128,-1.2542 -27.02831,-14.42408 -27.02831,-14.42408 H 754.237 c 14.47147,0 20.83134,-4.82432 20.83134,-18.41918 0,-17.10129 -15.34956,-51.740715 -65.77833,-51.740715 -64.44712,0 -63.23438,55.731365 -63.23438,55.731365 0,17.5248 4.77693,31.07375 17.20495,43.50918 12.43839,12.43394 28.20552,18.65017 44.93367,18.65017 45.97316,1.22607 61.97721,-20.29382 60.0922,-32.36201 -2.07454,-10.18023 -12.06967,-11.93345 -18.4784,-10.75032 z M 711.48302,102.5441 c 0,0 21.05048,0 21.05048,13.5993 h -42.31716 c 0,-13.5993 21.26668,-13.5993 21.26668,-13.5993 z"
   id="path63" /><rect
   style="fill:none"
   x="915.09644"
   y="69.508347"
   width="45.903564"
   height="35.538242"
   id="rect65" /><text
   style="font-size:17.76912117px;fill:#33ccff;font-family:Helvetica"
   font-size="12"
   id="text67"
   x="915.09644"
   y="82.266129">TM</text>

</svg>