<?xml version="1.0" encoding="UTF-8" standalone="no"?>
<svg
   xmlns:dc="http://purl.org/dc/elements/1.1/"
   xmlns:cc="http://creativecommons.org/ns#"
   xmlns:rdf="http://www.w3.org/1999/02/22-rdf-syntax-ns#"
   xmlns:svg="http://www.w3.org/2000/svg"
   xmlns="http://www.w3.org/2000/svg"
   xmlns:xlink="http://www.w3.org/1999/xlink"
   xmlns:sodipodi="http://sodipodi.sourceforge.net/DTD/sodipodi-0.dtd"
   xmlns:inkscape="http://www.inkscape.org/namespaces/inkscape"
   version="1.1"
   width="450"
   height="79.727852"
   id="svg2"
   inkscape:version="0.48.2 r9819"
   sodipodi:docname="AJAX.svg">
  <metadata
     id="metadata18">
    <rdf:RDF>
      <cc:Work
         rdf:about="">
        <dc:format>image/svg+xml</dc:format>
        <dc:type
           rdf:resource="http://purl.org/dc/dcmitype/StillImage" />
      </cc:Work>
    </rdf:RDF>
  </metadata>
  <sodipodi:namedview
     pagecolor="#ffffff"
     bordercolor="#666666"
     borderopacity="1"
     objecttolerance="10"
     gridtolerance="10"
     guidetolerance="10"
     inkscape:pageopacity="0"
     inkscape:pageshadow="2"
     inkscape:window-width="1280"
     inkscape:window-height="1004"
     id="namedview16"
     showgrid="false"
     fit-margin-top="0"
     fit-margin-left="0"
     fit-margin-right="0"
     fit-margin-bottom="0"
     inkscape:zoom="2.6833333"
     inkscape:cx="321.2857"
     inkscape:cy="-10.363333"
     inkscape:window-x="-8"
     inkscape:window-y="-8"
     inkscape:window-maximized="1"
     inkscape:current-layer="svg2" />
  <defs
     id="defs4">
    <linearGradient
       id="black-gradient">
      <stop
         id="black1"
         style="stop-color:#333333;stop-opacity:1"
         offset="0" />
      <stop
         id="black2"
         style="stop-color:#212121;stop-opacity:1"
         offset="1" />
    </linearGradient>
    <linearGradient
       id="blue-gradient">
      <stop
         id="blue1"
         style="stop-color:#33ccff;stop-opacity:1"
         offset="0" />
      <stop
         id="blue2"
         style="stop-color:#06c1ff;stop-opacity:1"
         offset="1" />
    </linearGradient>
    <linearGradient
       id="black"
       x1="3494.25"
       y1="-1044.3878"
       x2="3494.25"
       y2="-1028.5905"
       xlink:href="#black-gradient"
       gradientUnits="userSpaceOnUse"
       gradientTransform="matrix(4.2619852,0,0,4.2619852,-14710.634,4471.6445)" />
    <linearGradient
       id="blue"
       x1="3550.75"
       y1="-1045.5128"
       x2="3550.75"
       y2="-1026.9196"
       xlink:href="#blue-gradient"
       gradientUnits="userSpaceOnUse"
       gradientTransform="matrix(4.2619852,0,0,4.2619852,-14725.634,4456.5085)" />
  </defs>
  <path
     id="twitter"
     d="m 41.355747,38.349173 c 2.284424,0 4.247495,-0.84302 5.881114,-2.525652 1.634897,-1.684763 2.451067,-3.707075 2.451067,-6.0631 0,-2.358157 -0.81617,-4.37919 -2.457034,-6.062674 -1.639586,-1.684763 -3.606066,-2.52821 -5.898588,-2.52821 l -24.682861,0 0,-8.589605 c 0,-2.360287 -0.81276,-4.3796156 -2.436577,-6.0609686 -1.617849,-1.688598 -3.569839,-2.529488 -5.83892,-2.529488 -2.338125,0 -4.319522,0.826825 -5.941207,2.478344 C 0.811482,8.1210434 0,10.160829 0,12.586325 l 0,34.286393 c 0,7.079583 2.432741,13.13075 7.303764,18.152647 4.867187,5.025733 10.729122,7.53519 17.587082,7.53519 l 16.467032,0 c 2.287408,0 4.244085,-0.841316 5.87813,-2.5248 1.634471,-1.680927 2.450642,-3.706649 2.450642,-6.063527 0,-2.358156 -0.816171,-4.377485 -2.450642,-6.061821 -1.634045,-1.685189 -3.597115,-2.529915 -5.881539,-2.529915 l -16.470868,0 c -2.287408,0 -4.233004,-0.827251 -5.835511,-2.479623 -1.60208,-1.659617 -2.401202,-3.669995 -2.401202,-6.035823 l 0,-8.516725 24.708859,0 z M 122.62711,24.495164 c -2.13397,0 -3.96961,0.787189 -5.49242,2.369238 -1.52707,1.574803 -2.29209,3.470108 -2.29209,5.676964 l 0,15.998214 c 0,2.21538 -0.74585,4.089375 -2.24607,5.636475 -1.49297,1.547953 -3.31369,2.317242 -5.45278,2.317242 -2.07602,0 -3.86733,-0.769289 -5.36116,-2.317242 -1.49553,-1.5471 -2.246055,-3.421095 -2.246055,-5.636475 l 0,-15.998214 c 0,-2.206856 -0.76418,-4.102161 -2.29679,-5.676964 -1.5309,-1.582049 -3.36569,-2.369238 -5.50605,-2.369238 -2.2026,0 -4.06935,0.80722 -5.60196,2.414415 -1.528345,1.61103 -2.295929,3.518695 -2.295929,5.727682 l 0,15.903598 c 0,2.215379 -0.745847,4.088948 -2.246066,5.636475 -1.495105,1.547527 -3.281729,2.317668 -5.361151,2.317668 -2.13696,0 -3.956401,-0.770141 -5.455341,-2.317668 -1.492548,-1.547527 -2.243509,-3.421096 -2.243509,-5.636475 l 0,-15.999493 c 0,-2.272064 -0.76247,-4.180155 -2.290817,-5.728534 -1.524086,-1.545396 -3.355035,-2.317668 -5.496257,-2.317668 -2.132697,0 -3.969613,0.772272 -5.491141,2.317668 -1.529627,1.5471 -2.291244,3.450929 -2.291244,5.723846 l 0,15.991395 c 0,6.624403 2.27377,12.287729 6.825144,16.986142 4.553931,4.699691 10.041663,7.048045 16.45382,7.048045 5.867048,0 11.002311,-2.049163 15.400681,-6.147914 4.46145,4.098751 9.626115,6.147914 15.491885,6.147914 6.41472,0 11.89861,-2.350059 16.44999,-7.048045 4.55393,-4.698413 6.8277,-10.363017 6.8277,-16.986142 l 0,-15.991395 c 0,-2.207708 -0.7629,-4.100456 -2.28826,-5.676112 -1.52196,-1.578213 -3.35504,-2.365402 -5.49413,-2.365402 z M 143.63827,3.9178734 c -2.28826,0 -4.24408,0.841316 -5.87898,2.527358 -1.6285,1.68391 -2.4451,3.7045166 -2.4451,6.0635256 0,2.353894 0.8166,4.379616 2.4451,6.060969 1.6349,1.684763 3.59072,2.529488 5.87898,2.529488 2.28357,0 4.24196,-0.844725 5.87302,-2.529488 1.63617,-1.681353 2.44893,-3.707075 2.44893,-6.060969 0,-2.359009 -0.81276,-4.3796156 -2.44893,-6.0635256 -1.63106,-1.686042 -3.58945,-2.527358 -5.87302,-2.527358 z m 0,23.5355346 c -2.28826,0 -4.24408,0.842595 -5.87898,2.528636 -1.6285,1.684763 -2.4451,3.707927 -2.4451,6.071198 l 0,27.910462 c 0,2.360288 0.8166,4.386009 2.4451,6.070772 1.6349,1.68732 3.59072,2.528636 5.87898,2.528636 2.28357,0 4.24196,-0.841316 5.87302,-2.528636 1.63617,-1.684763 2.44893,-3.709206 2.44893,-6.070772 l 0,-27.910462 c 0,-2.363271 -0.81276,-4.386435 -2.44893,-6.071198 -1.63106,-1.684763 -3.58945,-2.528636 -5.87302,-2.528636 z m 45.94335,18.353387 c 2.28826,0 4.2475,-0.842168 5.88239,-2.526079 1.63746,-1.681779 2.45278,-3.706648 2.45278,-6.0631 0,-2.355599 -0.81916,-4.377485 -2.45491,-6.05969 -1.64342,-1.684763 -3.61246,-2.526931 -5.90114,-2.526931 l -15.69562,0 0,-16.051063 c 0,-2.360287 -0.80892,-4.3796156 -2.43188,-6.0609686 -1.6251,-1.688598 -3.56856,-2.529488 -5.84233,-2.529488 -2.33685,0 -4.31825,0.826825 -5.93951,2.478344 -1.62168,1.653224 -2.43189,3.6930096 -2.43189,6.1185056 0,0 -3.07544,40.63675 7.29993,52.43904 4.62809,5.26483 10.73424,7.53519 17.58964,7.53519 l 7.4751,0 c 2.28826,0 4.24877,-0.841316 5.88111,-2.5248 1.6349,-1.680927 2.45022,-3.706649 2.45022,-6.063527 0,-2.358156 -0.81532,-4.377485 -2.45278,-6.061821 -1.63447,-1.685189 -3.59413,-2.529915 -5.88239,-2.529915 l -7.47765,0 c -2.29082,0 -4.23258,-0.827251 -5.83508,-2.479623 -1.60336,-1.659617 -1.50619,-7.095353 -1.50619,-7.095353 l 14.8202,0 z m 44.11155,0 c 2.28485,0 4.24749,-0.842168 5.88111,-2.526079 1.6366,-1.681779 2.4549,-3.706648 2.4549,-6.0631 0,-2.355599 -0.82085,-4.377485 -2.45959,-6.05969 -1.64001,-1.684763 -3.60862,-2.526931 -5.89731,-2.526931 l -15.69561,0 0,-16.051063 c 0,-2.360287 -0.81276,-4.3796156 -2.43189,-6.0609686 -1.62509,-1.688598 -3.56984,-2.529488 -5.84361,-2.529488 -2.33599,0 -4.31568,0.826825 -5.93865,2.478344 -1.62126,1.653224 -2.43274,3.6930096 -2.43274,6.1185056 0,0 -3.07417,40.63675 7.30249,52.43904 4.62553,5.26483 10.7304,7.53519 17.58836,7.53519 l 7.47595,0 c 2.28357,0 4.24536,-0.841316 5.8777,-2.5248 1.63532,-1.680927 2.4549,-3.706649 2.4549,-6.063527 0,-2.358156 -0.81958,-4.377485 -2.4549,-6.061821 -1.63362,-1.685189 -3.59626,-2.529915 -5.88111,-2.529915 l -7.48021,0 c -2.28826,0 -4.23045,-0.827251 -5.83509,-2.479623 -1.60208,-1.659617 -1.50703,-7.095353 -1.50703,-7.095353 l 14.82233,0 z M 338.24947,27.24798 c -1.51556,-1.562017 -3.3316,-2.344091 -5.45364,-2.344091 l -11.35819,0 c -6.36357,0 -11.80314,2.330453 -16.31658,6.988377 -4.51472,4.660907 -6.76932,10.274367 -6.76932,16.84166 l 0,15.853733 c 0,2.191513 0.75822,4.065508 2.27036,5.628804 1.51344,1.567132 3.3316,2.345797 5.44767,2.345797 2.11949,0 3.93424,-0.778665 5.44767,-2.347076 1.51471,-1.564574 2.27036,-3.443684 2.27036,-5.630935 l 0,-15.864387 c 0,-2.191939 0.73946,-4.053574 2.22732,-5.585332 1.48445,-1.534314 3.286,-2.300619 5.41017,-2.300619 l 11.36714,0 c 2.11949,0 3.93637,-0.780796 5.45236,-2.341535 1.51727,-1.56287 2.2776,-3.43857 2.2776,-5.623263 0,-2.18512 -0.7582,-4.059115 -2.27291,-5.621133 z m -68.57705,-2.322781 c -25.23223,0 -24.75702,22.518625 -24.75702,22.518625 0,7.082993 1.86931,12.558791 6.73522,17.581541 4.87187,5.024454 11.04365,7.536895 17.59177,7.536895 18.00135,0.496095 24.26774,-8.201339 23.52829,-13.079181 -0.81021,-4.112389 -4.72655,-4.8186 -7.236,-4.340832 -3.71688,0.535306 -6.60651,4.011381 -12.9168,3.962794 -11.47241,-0.507602 -10.58208,-5.830822 -10.58208,-5.830822 l 25.2335,0 c 5.66504,0 8.15744,-1.947727 8.15744,-7.443557 0,-6.908252 -6.00854,-20.905463 -25.75432,-20.905463 z m -7.4687,17.623735 c 0,-5.494552 8.32621,-5.494552 8.32621,-5.494552 0,0 8.24183,0 8.24183,5.494552 l -16.56804,0 z"
     style="fill:#000000;fill-opacity:1;stroke:none"
     inkscape:connector-curvature="0" />
  <path
     id="bird"
     d="m 335.01632,57.590758 c 7.48362,6.920611 26.70006,13.470004 42.33686,-1.857799 -2.81205,0.438558 -5.15998,-0.09376 -6.94234,-1.8578 -1.692,-1.67496 -1.78449,-3.408736 -0.87967,-4.986522 0.73604,-1.28371 2.28783,-2.187251 3.8132,-3.128724 -2.76731,0.514422 -5.12717,0.247195 -7.23557,-0.831087 -2.83081,-1.44737 -5.58406,-2.970604 -6.35548,-6.110834 1.73122,-1.821999 3.65636,-3.449225 7.82245,-2.835499 -3.91889,-1.308856 -7.43034,-3.015781 -9.97347,-5.573398 -2.47621,-2.490278 -2.73152,-4.109406 -3.12872,-6.062248 2.16253,-0.801253 4.42138,-1.217649 6.84432,-0.977699 -5.47922,-2.801403 -7.80541,-6.654238 -9.09295,-10.852719 -0.38784,-1.269646 -0.45944,-2.477066 -0.29407,-3.7155986 22.19428,8.3782096 32.58841,14.3974116 38.32803,20.0441156 2.58148,-6.869467 8.60068,-22.4282706 17.59987,-27.7685376 0.0426,0.847283 -0.29408,1.7602 -0.97813,2.737899 2.66374,-1.484449 4.74402,-3.86050602 8.4089,-3.81362402051 C 414.86761,1.7344584 413.65465,3.1230134 411.28072,4.0099324 c 2.39439,-0.917179 4.81988,-1.694565 7.33318,-2.151024 2.33002,-0.421936 2.29635,1.415832 0.9777,2.346223 -2.67611,1.888912 -5.52013,2.122895 -8.31088,3.031124 8.55722,0.213099 15.55582,4.2653946 21.02182,13.1021946 1.81646,2.936508 3.03581,5.873016 3.32435,9.092945 3.65039,1.024156 7.28245,1.233845 10.95074,0.58645 1.00498,-0.179004 1.94134,-0.366531 2.8355,-0.782075 -1.42606,2.139943 -3.07289,3.897586 -5.37734,4.693298 -2.20302,0.760765 -4.40988,1.501924 -6.84433,1.564575 3.96194,1.499793 8.32877,1.582475 12.80855,1.270924 -5.48049,5.274633 -9.67471,5.147626 -13.88427,5.084549 -1.84587,7.794318 -5.61986,15.566901 -13.59062,22.683563 -10.45678,9.336305 -21.71226,13.789227 -33.34151,14.76437 -10.90301,0.914195 -21.44418,0.788893 -32.95026,-4.595699 -8.53122,-3.991775 -15.68197,-9.485901 -21.21744,-17.110592 z"
     style="fill:url(#blue);fill-opacity:1;stroke:none"
     inkscape:connector-curvature="0" />
</svg>
