<?xml version="1.0" encoding="UTF-8" standalone="no"?>
<!-- Created with Inkscape (http://www.inkscape.org/) -->

<svg
   xmlns:dc="http://purl.org/dc/elements/1.1/"
   xmlns:cc="http://creativecommons.org/ns#"
   xmlns:rdf="http://www.w3.org/1999/02/22-rdf-syntax-ns#"
   xmlns:svg="http://www.w3.org/2000/svg"
   xmlns="http://www.w3.org/2000/svg"
   xmlns:sodipodi="http://sodipodi.sourceforge.net/DTD/sodipodi-0.dtd"
   xmlns:inkscape="http://www.inkscape.org/namespaces/inkscape"
   width="1000"
   height="310.45432"
   id="svg3637"
   version="1.1"
   inkscape:version="0.48.2 r9819"
   sodipodi:docname="New document 1">
  <defs
     id="defs3639">
    <clipPath
       id="clipPath4051"
       clipPathUnits="userSpaceOnUse">
      <path
         id="path4053"
         d="m 0,842.04 594.96,0 L 594.96,0 0,0 0,842.04 z"
         inkscape:connector-curvature="0" />
    </clipPath>
    <clipPath
       id="clipPath4045"
       clipPathUnits="userSpaceOnUse">
      <path
         id="path4047"
         d="m 0,842 595.276,0 0,-841.89 L 0,0.11 0,842 z"
         inkscape:connector-curvature="0" />
    </clipPath>
    <clipPath
       id="clipPath4033"
       clipPathUnits="userSpaceOnUse">
      <path
         id="path4035"
         d="m 0,842.04 594.96,0 L 594.96,0 0,0 0,842.04 z"
         inkscape:connector-curvature="0" />
    </clipPath>
    <clipPath
       id="clipPath4027"
       clipPathUnits="userSpaceOnUse">
      <path
         id="path4029"
         d="m 0,842 595.276,0 0,-841.89 L 0,0.11 0,842 z"
         inkscape:connector-curvature="0" />
    </clipPath>
    <clipPath
       id="clipPath4021"
       clipPathUnits="userSpaceOnUse">
      <path
         id="path4023"
         clip-rule="evenodd"
         d="m 533.661,118.68 c 0,-30.084 -24.417,-54.5 -54.501,-54.5 -30.084,0 -54.5,24.416 -54.5,54.5 0,30.084 24.416,54.5 54.5,54.5 30.084,0 54.501,-24.416 54.501,-54.5 z"
         inkscape:connector-curvature="0" />
    </clipPath>
    <clipPath
       id="clipPath4009"
       clipPathUnits="userSpaceOnUse">
      <path
         id="path4011"
         d="m 0,842.04 594.96,0 L 594.96,0 0,0 0,842.04 z"
         inkscape:connector-curvature="0" />
    </clipPath>
    <clipPath
       id="clipPath4003"
       clipPathUnits="userSpaceOnUse">
      <path
         id="path4005"
         d="m 0,842 595.276,0 0,-841.89 L 0,0.11 0,842 z"
         inkscape:connector-curvature="0" />
    </clipPath>
    <clipPath
       id="clipPath3997"
       clipPathUnits="userSpaceOnUse">
      <path
         id="path3999"
         clip-rule="evenodd"
         d="m 532.661,118.68 c 0,-29.532 -23.969,-53.5 -53.501,-53.5 -29.532,0 -53.501,23.968 -53.501,53.5 0,29.532 23.969,53.5 53.501,53.5 29.532,0 53.501,-23.968 53.501,-53.5 z"
         inkscape:connector-curvature="0" />
    </clipPath>
    <clipPath
       id="clipPath3985"
       clipPathUnits="userSpaceOnUse">
      <path
         id="path3987"
         d="m 0,842.04 594.96,0 L 594.96,0 0,0 0,842.04 z"
         inkscape:connector-curvature="0" />
    </clipPath>
    <clipPath
       id="clipPath3979"
       clipPathUnits="userSpaceOnUse">
      <path
         id="path3981"
         d="m 0,842 595.276,0 0,-841.89 L 0,0.11 0,842 z"
         inkscape:connector-curvature="0" />
    </clipPath>
    <clipPath
       id="clipPath3973"
       clipPathUnits="userSpaceOnUse">
      <path
         id="path3975"
         clip-rule="evenodd"
         d="m 533.661,242.22 c 0,-30.084 -24.417,-54.501 -54.501,-54.501 -30.084,0 -54.5,24.417 -54.5,54.501 0,30.084 24.416,54.501 54.5,54.501 30.084,0 54.501,-24.417 54.501,-54.501 z"
         inkscape:connector-curvature="0" />
    </clipPath>
    <clipPath
       id="clipPath3961"
       clipPathUnits="userSpaceOnUse">
      <path
         id="path3963"
         d="m 0,842.04 594.96,0 L 594.96,0 0,0 0,842.04 z"
         inkscape:connector-curvature="0" />
    </clipPath>
    <clipPath
       id="clipPath3955"
       clipPathUnits="userSpaceOnUse">
      <path
         id="path3957"
         d="m 0,842 595.276,0 0,-841.89 L 0,0.11 0,842 z"
         inkscape:connector-curvature="0" />
    </clipPath>
    <clipPath
       id="clipPath3949"
       clipPathUnits="userSpaceOnUse">
      <path
         id="path3951"
         clip-rule="evenodd"
         d="m 532.661,242.22 c 0,-29.532 -23.969,-53.501 -53.501,-53.501 -29.532,0 -53.501,23.969 -53.501,53.501 0,29.532 23.969,53.501 53.501,53.501 29.532,0 53.501,-23.969 53.501,-53.501 z"
         inkscape:connector-curvature="0" />
    </clipPath>
    <clipPath
       id="clipPath3937"
       clipPathUnits="userSpaceOnUse">
      <path
         id="path3939"
         d="m 0,842.04 594.96,0 L 594.96,0 0,0 0,842.04 z"
         inkscape:connector-curvature="0" />
    </clipPath>
    <clipPath
       id="clipPath3931"
       clipPathUnits="userSpaceOnUse">
      <path
         id="path3933"
         d="m 0,842 595.276,0 0,-841.89 L 0,0.11 0,842 z"
         inkscape:connector-curvature="0" />
    </clipPath>
    <clipPath
       id="clipPath3925"
       clipPathUnits="userSpaceOnUse">
      <path
         id="path3927"
         clip-rule="evenodd"
         d="m 533.661,366.42 c 0,-30.084 -24.417,-54.5 -54.501,-54.5 -30.084,0 -54.5,24.416 -54.5,54.5 0,30.084 24.416,54.501 54.5,54.501 30.084,0 54.501,-24.417 54.501,-54.501 z"
         inkscape:connector-curvature="0" />
    </clipPath>
    <clipPath
       id="clipPath3913"
       clipPathUnits="userSpaceOnUse">
      <path
         id="path3915"
         d="m 0,842.04 594.96,0 L 594.96,0 0,0 0,842.04 z"
         inkscape:connector-curvature="0" />
    </clipPath>
    <clipPath
       id="clipPath3907"
       clipPathUnits="userSpaceOnUse">
      <path
         id="path3909"
         d="m 0,842 595.276,0 0,-841.89 L 0,0.11 0,842 z"
         inkscape:connector-curvature="0" />
    </clipPath>
    <clipPath
       id="clipPath3901"
       clipPathUnits="userSpaceOnUse">
      <path
         id="path3903"
         clip-rule="evenodd"
         d="m 532.661,366.42 c 0,-29.532 -23.969,-53.5 -53.501,-53.5 -29.532,0 -53.501,23.968 -53.501,53.5 0,29.532 23.969,53.501 53.501,53.501 29.532,0 53.501,-23.969 53.501,-53.501 z"
         inkscape:connector-curvature="0" />
    </clipPath>
    <clipPath
       id="clipPath3889"
       clipPathUnits="userSpaceOnUse">
      <path
         id="path3891"
         d="m 0,842.04 594.96,0 L 594.96,0 0,0 0,842.04 z"
         inkscape:connector-curvature="0" />
    </clipPath>
    <clipPath
       id="clipPath3883"
       clipPathUnits="userSpaceOnUse">
      <path
         id="path3885"
         d="m 0,842 595.276,0 0,-841.89 L 0,0.11 0,842 z"
         inkscape:connector-curvature="0" />
    </clipPath>
    <clipPath
       id="clipPath3877"
       clipPathUnits="userSpaceOnUse">
      <path
         id="path3879"
         clip-rule="evenodd"
         d="m 533.725,684.84 c 0,-42.242 -34.283,-76.526 -76.525,-76.526 -42.242,0 -76.525,34.284 -76.525,76.526 0,42.242 34.283,76.526 76.525,76.526 42.242,0 76.525,-34.284 76.525,-76.526 z"
         inkscape:connector-curvature="0" />
    </clipPath>
    <clipPath
       id="clipPath3793"
       clipPathUnits="userSpaceOnUse">
      <path
         id="path3795"
         d="m 212.935,783.406 -155.767,0 0,-48.251 155.767,0 0,48.251 z"
         inkscape:connector-curvature="0" />
    </clipPath>
    <clipPath
       id="clipPath3773"
       clipPathUnits="userSpaceOnUse">
      <path
         id="path3775"
         d="m 212.935,783.406 -155.767,0 0,-48.251 155.767,0 0,48.251 z"
         inkscape:connector-curvature="0" />
    </clipPath>
    <clipPath
       id="clipPath3717"
       clipPathUnits="userSpaceOnUse">
      <path
         id="path3719"
         d="m 0,842.04 594.96,0 L 594.96,0 0,0 0,842.04 z"
         inkscape:connector-curvature="0" />
    </clipPath>
    <clipPath
       id="clipPath3711"
       clipPathUnits="userSpaceOnUse">
      <path
         id="path3713"
         d="m 0,842 595.276,0 0,-841.89 L 0,0.11 0,842 z"
         inkscape:connector-curvature="0" />
    </clipPath>
    <clipPath
       id="clipPath3681"
       clipPathUnits="userSpaceOnUse">
      <path
         id="path3683"
         d="m 0,842.04 594.96,0 L 594.96,0 0,0 0,842.04 z"
         inkscape:connector-curvature="0" />
    </clipPath>
    <clipPath
       id="clipPath3675"
       clipPathUnits="userSpaceOnUse">
      <path
         id="path3677"
         d="m 0,842 595.276,0 0,-841.89 L 0,0.11 0,842 z"
         inkscape:connector-curvature="0" />
    </clipPath>
    <clipPath
       id="clipPath3669"
       clipPathUnits="userSpaceOnUse">
      <path
         id="path3671"
         clip-rule="evenodd"
         d="m 14.173,827.827 566.884,0 0,-813.424 -566.884,0 0,813.424 z"
         inkscape:connector-curvature="0" />
    </clipPath>
    <clipPath
       id="clipPath3663"
       clipPathUnits="userSpaceOnUse">
      <path
         id="path3665"
         d="m 582.786,807.434 -569.613,0 0,-796.66 569.613,0 0,796.66 z"
         inkscape:connector-curvature="0" />
    </clipPath>
  </defs>
  <sodipodi:namedview
     id="base"
     pagecolor="#ffffff"
     bordercolor="#666666"
     borderopacity="1.0"
     inkscape:pageopacity="0.0"
     inkscape:pageshadow="2"
     inkscape:zoom="0.98994949"
     inkscape:cx="434.05032"
     inkscape:cy="60.187754"
     inkscape:document-units="px"
     inkscape:current-layer="g3653"
     showgrid="false"
     fit-margin-left="0.5"
     fit-margin-bottom="0.5"
     fit-margin-top="0.5"
     fit-margin-right="0.5"
     inkscape:window-width="1920"
     inkscape:window-height="1028"
     inkscape:window-x="-8"
     inkscape:window-y="-8"
     inkscape:window-maximized="1" />
  <metadata
     id="metadata3642">
    <rdf:RDF>
      <cc:Work
         rdf:about="">
        <dc:format>image/svg+xml</dc:format>
        <dc:type
           rdf:resource="http://purl.org/dc/dcmitype/StillImage" />
        <dc:title></dc:title>
      </cc:Work>
    </rdf:RDF>
  </metadata>
  <g
     inkscape:label="Layer 1"
     inkscape:groupmode="layer"
     id="layer1"
     transform="translate(-196.37087,-18.715942)">
    <g
       transform="matrix(1.25,0,0,-1.25,-1706.0178,1179.0426)"
       inkscape:label="Packet_plus_Customer_Guide_CONSIGNOR"
       id="g3653">
      <g
         id="g3659" />
      <g
         transform="translate(1578.1019,712.70586)"
         id="g3757" />
      <g
         id="g4269"
         transform="matrix(5.1307424,0,0,5.1307424,-6288.2745,-2810.1352)">
        <g
           id="g3733"
           transform="translate(1638.2619,696.21786)">
          <path
             inkscape:connector-curvature="0"
             d="m 0,0 9.738,0 c 0,0 -1.277,1.512 -1.015,3.023 l 2.871,12.794 c 0.687,3.07 0.558,4.799 -1.487,6.441 -1.318,1.037 -4.501,1.945 -8.68,1.945 -8.013,0 -12.752,-2.678 -13.991,-7.823 l 8.877,0 c 0.52,1.556 1.676,2.29 3.571,2.29 2.198,0 3.347,-0.562 3.046,-1.901 -0.474,-2.118 -2.322,-1.902 -6.842,-2.463 -6.958,-0.867 -10.466,-2.293 -11.61,-7.392 -1.035,-4.627 1.248,-7.306 6.462,-7.306 3.36,0 6.203,0.95 8.994,3.027 L 0,0 z M 1.478,10.675 C 1.434,10.283 1.345,9.894 1.259,9.508 0.58,6.482 -1.02,5.096 -4.081,5.096 c -1.679,0 -2.41,0.779 -2.12,2.075 0.497,2.207 3.098,1.904 7.679,3.504"
             style="fill:#ee3224;fill-opacity:1;fill-rule:nonzero;stroke:none"
             id="path3735" />
        </g>
        <g
           id="g3737"
           transform="translate(1667.1519,728.54886)">
          <path
             inkscape:connector-curvature="0"
             d="M 0,0 10.926,-0.019 4.214,-32.345 -6.711,-32.326 0,0"
             style="fill:#ee3224;fill-opacity:1;fill-rule:nonzero;stroke:none"
             id="path3739" />
        </g>
        <g
           id="g3741"
           transform="translate(1667.1519,728.54886)">
          <path
             inkscape:connector-curvature="0"
             d="M 0,0 10.926,-0.019 4.214,-32.345 -6.711,-32.326 0,0 z"
             style="fill:none;stroke:none"
             id="path3743" />
        </g>
        <g
           id="g3745"
           transform="translate(1657.9949,722.08586)">
          <path
             inkscape:connector-curvature="0"
             d="M 0,0 C 1.668,-0.002 3.259,1.324 3.556,2.962 3.852,4.601 2.741,5.931 1.072,5.934 -0.596,5.937 -2.188,4.612 -2.484,2.972 -2.781,1.334 -1.668,0.003 0,0"
             style="fill:#ee3224;fill-opacity:1;fill-rule:nonzero;stroke:none"
             id="path3747" />
        </g>
        <g
           id="g3749"
           transform="translate(1650.8379,710.42886)">
          <path
             inkscape:connector-curvature="0"
             d="M 0,0 2.008,9.859 12.932,9.84 8.028,-14.241 -2.896,-14.22 0,0"
             style="fill:#ee3224;fill-opacity:1;fill-rule:nonzero;stroke:none"
             id="path3751" />
        </g>
        <g
           id="g3753"
           transform="translate(1650.8379,710.42886)">
          <path
             inkscape:connector-curvature="0"
             d="M 0,0 2.008,9.859 12.932,9.84 8.028,-14.241 -2.896,-14.22 0,0 z"
             style="fill:none;stroke:none"
             id="path3755" />
        </g>
        <path
           sodipodi:nodetypes="cccccccccccc"
           inkscape:connector-curvature="0"
           d="M 0,0 8.324,10.207 15.493738,12.553773 9.219,15.548 C 8.415,15.241 5.816,14.284 5.302,14.565 4.694,14.898 -11.247,2.859 -11.247,2.859 l -1.08,-6.967 11.077,-10.643 5.122,-1.634 4.7908281,1.153195 L 4.894,-10.283 0,0"
           style="fill:#ee3224;fill-opacity:1;fill-rule:nonzero;stroke:none"
           id="path3759"
           transform="translate(1578.1019,712.70586)" />
        <g
           id="g3761"
           transform="translate(1611.2099,728.44986)">
          <path
             inkscape:connector-curvature="0"
             d="m 0,0 -5.606,-13.452 c -0.835,-2.088 -2.025,-5.764 -2.025,-5.764 0.209,2.436 0.007,3.211 -0.17,5.811 L -8.552,0.014 -23.865,0.013 -23.9,-0.196 l -5.349,-31.934 -0.018,-0.097 10.47,0 2.927,16.535 c 0.506,2.853 0.697,5.128 0.697,5.128 -0.055,-1.021 0.285,-0.527 0.331,-2.189 l 0.172,-19.49 9.001,0.005 7.255,19.456 c 0.611,1.531 0.732,1.036 1.107,2.186 0,0 -0.613,-2.274 -1.119,-5.129 L -1.378,-32.249 9.44,-32.224 15.127,0 0,0"
             style="fill:#ee3224;fill-opacity:1;fill-rule:nonzero;stroke:none"
             id="path3763" />
        </g>
        <g
           id="g3765"
           transform="translate(1587.5849,728.46486)">
          <path
             inkscape:connector-curvature="0"
             d="m 0,0 -12.517,0 -7.135,-10.326 c -0.807,-1.154 -2.409,-3.629 -2.409,-3.629 L -19.759,0 l -10.586,0 -0.007,-0.005 -0.831,0 -3.025,-17.969 c -0.068,-0.415 -0.141,-0.819 -0.224,-1.211 L -36.628,-32.2 c 7.009,0.938 9.2,1.793 11.002,10.337 l 2.404,2.795 0.36,0.376 c 0,0 1.047,-2.519 1.49,-3.755 l 3.7,-9.806 12.436,0.011 -7.35,16.581 L 0,0"
             style="fill:#0054a4;fill-opacity:1;fill-rule:nonzero;stroke:none"
             id="path3767" />
        </g>
        <g
           transform="translate(1465.1429,-54.857143)"
           id="g3769">
          <g
             id="g3771"
             clip-path="url(#clipPath3773)">
            <g
               id="g3777"
               transform="translate(85.489,779.637)">
              <path
                 inkscape:connector-curvature="0"
                 d="m 0,0 -0.667,-3.448 -3.186,1.302 -5.026,-3.931 -1.436,-8.092 c -0.422,-2.493 -0.875,-4.693 -3.831,-4.693 -2.953,0 -2.662,2.2 -2.24,4.693 l 3.003,17.865 -11.086,0 -3.191,-18.964 c -1.57,-9.283 3.3,-13.496 11.84,-13.496 8.539,0 14.836,4.213 16.406,13.496 l 0.003,0.016 0.03,0.03 L 3.77,3.624 0,0"
                 style="fill:#0054a4;fill-opacity:1;fill-rule:nonzero;stroke:none"
                 id="path3779" />
            </g>
          </g>
        </g>
        <g
           id="g3781"
           transform="translate(1540.2829,710.53886)">
          <path
             inkscape:connector-curvature="0"
             d="M 0,0 3.281,17.907 14.23,17.929 12.623,8.95 0,0"
             style="fill:#0054a4;fill-opacity:1;fill-rule:nonzero;stroke:none"
             id="path3783" />
        </g>
        <g
           id="g3785"
           transform="translate(1550.9379,696.21286)">
          <path
             inkscape:connector-curvature="0"
             d="M 0,0 10.149,0 13.425,13.184 4.185,13.143 0,0"
             style="fill:#0054a4;fill-opacity:1;fill-rule:nonzero;stroke:none"
             id="path3787" />
        </g>
        <g
           transform="translate(1465.1429,-54.857143)"
           id="g3789">
          <g
             id="g3791"
             clip-path="url(#clipPath3793)">
            <g
               id="g3797"
               transform="translate(62.205,742.107)">
              <path
                 inkscape:connector-curvature="0"
                 d="M 0,0 C 0.145,0.897 -0.257,1.416 -1.037,1.416 -1.765,1.416 -2.319,0.923 -2.573,0 L 0,0 z m 1.697,-2.014 c -0.668,-1.508 -2.056,-2.379 -3.823,-2.379 -2.131,0 -3.227,1.378 -2.831,3.626 0.408,2.313 2.02,3.717 4.126,3.717 2.17,0 3.271,-1.416 2.848,-3.821 -0.023,-0.13 -0.048,-0.272 -0.084,-0.402 l -4.666,0 c -0.172,-0.975 0.165,-1.494 0.971,-1.494 0.611,0 1.047,0.26 1.29,0.753 l 2.169,0"
                 style="fill:#0054a4;fill-opacity:1;fill-rule:nonzero;stroke:none"
                 id="path3799" />
            </g>
          </g>
        </g>
        <g
           id="g3801"
           transform="translate(1532.0529,686.66486)">
          <path
             inkscape:connector-curvature="0"
             d="m 0,0 -1.757,3.302 2.663,0 0.658,-1.65 1.265,1.65 2.638,0 L 2.547,0 4.354,-3.6 1.716,-3.6 0.96,-1.702 -0.44,-3.6 -3.065,-3.6 0,0"
             style="fill:#0054a4;fill-opacity:1;fill-rule:nonzero;stroke:none"
             id="path3803" />
        </g>
        <g
           id="g3805"
           transform="translate(1541.4959,688.34086)">
          <path
             inkscape:connector-curvature="0"
             d="m 0,0 c -0.857,0 -1.427,-0.65 -1.649,-1.91 -0.206,-1.169 0.189,-1.806 1.033,-1.806 0.793,0 1.416,0.663 1.618,1.806 C 1.222,-0.662 0.858,0 0,0 z m -3.248,1.625 2.261,0 -0.163,-0.922 c 0.641,0.753 1.352,1.104 2.236,1.104 1.702,0 2.659,-1.43 2.273,-3.613 -0.394,-2.234 -1.898,-3.69 -3.535,-3.69 -0.91,0 -1.558,0.376 -1.89,1.079 l -0.639,-3.626 -2.248,0 1.705,9.668"
             style="fill:#0054a4;fill-opacity:1;fill-rule:nonzero;stroke:none"
             id="path3807" />
        </g>
        <g
           id="g3809"
           transform="translate(1546.6429,689.96686)">
          <path
             inkscape:connector-curvature="0"
             d="M 0,0 2.17,0 1.957,-1.208 c 0.648,0.948 1.41,1.364 2.517,1.376 L 4.08,-2.067 c -0.19,0.026 -0.383,0.04 -0.552,0.04 -0.689,0 -1.165,-0.196 -1.516,-0.638 -0.27,-0.351 -0.406,-0.974 -0.573,-1.923 l -0.408,-2.313 -2.248,0 L 0,0"
             style="fill:#0054a4;fill-opacity:1;fill-rule:nonzero;stroke:none"
             id="path3811" />
        </g>
        <g
           id="g3813"
           transform="translate(1556.0789,687.24986)">
          <path
             inkscape:connector-curvature="0"
             d="M 0,0 C 0.145,0.897 -0.257,1.416 -1.037,1.416 -1.765,1.416 -2.319,0.923 -2.573,0 L 0,0 z m 1.697,-2.014 c -0.668,-1.508 -2.056,-2.379 -3.823,-2.379 -2.131,0 -3.227,1.378 -2.831,3.626 0.408,2.313 2.02,3.717 4.126,3.717 2.17,0 3.271,-1.416 2.848,-3.821 -0.023,-0.13 -0.048,-0.272 -0.084,-0.402 l -4.666,0 c -0.172,-0.975 0.165,-1.494 0.971,-1.494 0.611,0 1.047,0.26 1.29,0.753 l 2.169,0"
             style="fill:#0054a4;fill-opacity:1;fill-rule:nonzero;stroke:none"
             id="path3815" />
        </g>
        <g
           id="g3817"
           transform="translate(1560.9749,685.17086)">
          <path
             inkscape:connector-curvature="0"
             d="m 0,0 c -0.055,-0.61 0.295,-0.909 1.049,-0.909 0.636,0 1.072,0.26 1.145,0.675 0.099,0.559 -0.66,0.533 -1.824,0.937 -1.456,0.505 -2.073,0.987 -1.878,2.092 0.243,1.376 1.5,2.247 3.398,2.247 2.001,0 2.971,-0.689 2.863,-2.04 l -2.17,0 C 2.574,3.47 2.288,3.691 1.704,3.691 1.157,3.691 0.82,3.47 0.753,3.094 0.669,2.613 1.229,2.547 2.129,2.275 3.104,1.976 3.743,1.768 4.002,1.546 4.443,1.17 4.581,0.703 4.469,0.066 4.21,-1.403 2.864,-2.326 0.733,-2.326 -1.346,-2.326 -2.401,-1.455 -2.261,0 L 0,0"
             style="fill:#0054a4;fill-opacity:1;fill-rule:nonzero;stroke:none"
             id="path3819" />
        </g>
        <g
           id="g3821"
           transform="translate(1568.6029,685.17086)">
          <path
             inkscape:connector-curvature="0"
             d="m 0,0 c -0.055,-0.61 0.295,-0.909 1.049,-0.909 0.636,0 1.072,0.26 1.145,0.675 0.099,0.559 -0.66,0.533 -1.823,0.937 -1.457,0.505 -2.074,0.987 -1.879,2.092 0.243,1.376 1.501,2.247 3.398,2.247 2.001,0 2.971,-0.689 2.863,-2.04 l -2.17,0 C 2.574,3.47 2.288,3.691 1.704,3.691 1.157,3.691 0.82,3.47 0.753,3.094 0.669,2.613 1.229,2.547 2.129,2.275 3.104,1.976 3.743,1.768 4.002,1.546 4.443,1.17 4.581,0.703 4.469,0.066 4.21,-1.403 2.865,-2.326 0.734,-2.326 c -2.08,0 -3.135,0.871 -2.995,2.326 L 0,0"
             style="fill:#0054a4;fill-opacity:1;fill-rule:nonzero;stroke:none"
             id="path3823" />
        </g>
        <g
           id="g3825"
           transform="translate(1582.2479,688.34086)">
          <path
             inkscape:connector-curvature="0"
             d="m 0,0 c -0.857,0 -1.427,-0.65 -1.649,-1.91 -0.206,-1.169 0.189,-1.806 1.033,-1.806 0.793,0 1.417,0.663 1.617,1.806 C 1.222,-0.662 0.858,0 0,0 z m -3.248,1.625 2.261,0 -0.163,-0.922 c 0.641,0.753 1.352,1.104 2.236,1.104 1.702,0 2.658,-1.43 2.273,-3.613 -0.394,-2.234 -1.898,-3.69 -3.535,-3.69 -0.91,0 -1.558,0.376 -1.889,1.079 l -0.64,-3.626 -2.248,0 1.705,9.668"
             style="fill:#ee3224;fill-opacity:1;fill-rule:nonzero;stroke:none"
             id="path3827" />
        </g>
        <g
           id="g3829"
           transform="translate(1589.1989,685.89886)">
          <path
             inkscape:connector-curvature="0"
             d="m 0,0 c -0.532,-0.144 -0.802,-0.351 -0.876,-0.767 -0.084,-0.481 0.181,-0.819 0.688,-0.819 0.766,0 1.397,0.481 1.526,1.209 L 1.477,0.416 C 1.044,0.168 0.533,0.142 0,0 z m 1.086,-2.834 c -0.013,0.221 -0.01,0.455 0.01,0.715 -0.75,-0.636 -1.504,-0.935 -2.362,-0.935 -1.351,0 -2.015,0.805 -1.8,2.027 0.204,1.157 0.939,1.858 2.211,2.144 1.664,0.377 2.505,0.273 2.598,0.805 l 0.03,0.17 C 1.844,2.495 1.568,2.703 0.984,2.703 0.334,2.703 -0.091,2.43 -0.271,1.922 l -2.08,0 c 0.499,1.573 1.695,2.314 3.657,2.314 1.209,0 2.002,-0.286 2.376,-0.897 C 4.012,2.781 3.915,2.078 3.747,1.131 L 3.287,-1.482 C 3.179,-2.093 3.219,-2.457 3.432,-2.573 l -0.046,-0.261 -2.3,0"
             style="fill:#ee3224;fill-opacity:1;fill-rule:nonzero;stroke:none"
             id="path3831" />
        </g>
        <g
           id="g3833"
           transform="translate(1594.9719,689.96686)">
          <path
             inkscape:connector-curvature="0"
             d="M 0,0 2.169,0 1.957,-1.208 C 2.605,-0.26 3.366,0.156 4.474,0.168 L 4.08,-2.067 c -0.191,0.026 -0.383,0.04 -0.552,0.04 -0.69,0 -1.165,-0.196 -1.516,-0.638 -0.27,-0.351 -0.405,-0.974 -0.574,-1.923 l -0.408,-2.313 -2.247,0 L 0,0"
             style="fill:#ee3224;fill-opacity:1;fill-rule:nonzero;stroke:none"
             id="path3835" />
        </g>
        <g
           id="g3837"
           transform="translate(1602.2269,682.84486)">
          <path
             inkscape:connector-curvature="0"
             d="m 0,0 c -2.066,0 -3.164,1.442 -2.783,3.6 0.414,2.351 2.042,3.768 4.199,3.768 1.897,0 2.941,-1.013 2.788,-2.69 l -2.274,0 C 1.912,5.316 1.631,5.64 1.098,5.64 0.319,5.64 -0.216,4.964 -0.445,3.664 -0.668,2.403 -0.4,1.78 0.393,1.78 c 0.584,0 0.992,0.325 1.242,1.001 l 2.221,0 C 3.326,1.027 1.897,0 0,0"
             style="fill:#ee3224;fill-opacity:1;fill-rule:nonzero;stroke:none"
             id="path3839" />
        </g>
        <g
           id="g3841"
           transform="translate(1611.9189,687.24986)">
          <path
             inkscape:connector-curvature="0"
             d="M 0,0 C 0.145,0.897 -0.257,1.416 -1.037,1.416 -1.765,1.416 -2.32,0.923 -2.573,0 L 0,0 z m 1.698,-2.014 c -0.67,-1.508 -2.057,-2.379 -3.824,-2.379 -2.131,0 -3.228,1.378 -2.831,3.626 0.408,2.313 2.02,3.717 4.125,3.717 2.171,0 3.272,-1.416 2.849,-3.821 -0.023,-0.13 -0.049,-0.272 -0.085,-0.402 l -4.665,0 c -0.172,-0.975 0.165,-1.494 0.971,-1.494 0.611,0 1.047,0.26 1.289,0.753 l 2.171,0"
             style="fill:#ee3224;fill-opacity:1;fill-rule:nonzero;stroke:none"
             id="path3843" />
        </g>
        <g
           id="g3845"
           transform="translate(1616.1419,692.40986)">
          <path
             inkscape:connector-curvature="0"
             d="m 0,0 2.26,0 -1.647,-9.345 -2.261,0 L 0,0"
             style="fill:#ee3224;fill-opacity:1;fill-rule:nonzero;stroke:none"
             id="path3847" />
        </g>
        <g
           id="g3849"
           transform="translate(1620.6479,685.17086)">
          <path
             inkscape:connector-curvature="0"
             d="m 0,0 c -0.055,-0.61 0.295,-0.909 1.049,-0.909 0.637,0 1.073,0.26 1.146,0.675 0.098,0.559 -0.661,0.533 -1.824,0.937 -1.457,0.505 -2.073,0.987 -1.879,2.092 0.243,1.376 1.501,2.247 3.399,2.247 2,0 2.97,-0.689 2.862,-2.04 l -2.169,0 C 2.575,3.47 2.288,3.691 1.704,3.691 1.158,3.691 0.82,3.47 0.754,3.094 0.669,2.613 1.229,2.547 2.129,2.275 3.104,1.976 3.743,1.768 4.003,1.546 4.443,1.17 4.581,0.703 4.469,0.066 4.21,-1.403 2.865,-2.326 0.734,-2.326 -1.345,-2.326 -2.4,-1.455 -2.261,0 L 0,0"
             style="fill:#ee3224;fill-opacity:1;fill-rule:nonzero;stroke:none"
             id="path3851" />
        </g>
        <g
           id="g3853"
           transform="translate(1635.4649,690.42086)">
          <path
             inkscape:connector-curvature="0"
             d="m 0,0 c 0.078,0.443 -0.167,0.741 -0.622,0.741 -0.481,0 -0.8,-0.26 -0.88,-0.715 -0.046,-0.26 0.024,-0.454 0.178,-0.689 l 0.321,-0.532 C -0.416,-0.818 -0.08,-0.454 0,0 z m -2.073,-3.43 c -0.777,-0.43 -1.199,-0.832 -1.288,-1.339 -0.11,-0.623 0.317,-1.144 0.98,-1.144 0.416,0 0.882,0.209 1.423,0.625 l -1.115,1.858 z m -1.304,3.366 C -3.152,1.208 -1.93,2.171 -0.41,2.171 1.11,2.171 1.906,1.3 1.686,0.052 1.503,-0.987 0.841,-1.792 -0.33,-2.391 l 0.868,-1.417 c 0.301,0.378 0.492,0.807 0.647,1.313 l 1.858,0 C 2.782,-3.534 2.225,-4.483 1.423,-5.276 l 1.242,-2.092 -2.378,0 -0.407,0.715 c -0.93,-0.702 -1.94,-1.052 -2.992,-1.052 -1.716,0 -2.742,1.182 -2.461,2.78 0.216,1.221 1.077,2.118 2.68,2.885 -0.424,0.689 -0.596,1.339 -0.484,1.976"
             style="fill:#0054a4;fill-opacity:1;fill-rule:nonzero;stroke:none"
             id="path3855" />
        </g>
        <g
           id="g3857"
           transform="translate(1644.1449,689.96686)">
          <path
             inkscape:connector-curvature="0"
             d="M 0,0 2.169,0 2.003,-0.949 c 0.588,0.754 1.314,1.117 2.25,1.117 1.001,0 1.586,-0.363 1.791,-1.117 0.588,0.754 1.341,1.117 2.264,1.117 1.481,0 2.101,-0.831 1.817,-2.443 l -0.816,-4.626 -2.21,0 0.695,3.938 c 0.175,0.988 0.029,1.417 -0.738,1.417 -0.741,0 -1.162,-0.547 -1.359,-1.664 l -0.651,-3.691 -2.001,0 0.695,3.938 c 0.174,0.988 0.029,1.417 -0.738,1.417 -0.742,0 -1.162,-0.547 -1.359,-1.664 l -0.651,-3.691 -2.209,0 L 0,0"
             style="fill:#0054a4;fill-opacity:1;fill-rule:nonzero;stroke:none"
             id="path3859" />
        </g>
        <g
           id="g3861"
           transform="translate(1657.9939,685.89886)">
          <path
             inkscape:connector-curvature="0"
             d="m 0,0 c -0.532,-0.144 -0.801,-0.351 -0.876,-0.767 -0.084,-0.481 0.181,-0.819 0.688,-0.819 0.766,0 1.398,0.481 1.526,1.209 L 1.477,0.416 C 1.044,0.168 0.533,0.142 0,0 z m 1.086,-2.834 c -0.013,0.221 -0.01,0.455 0.01,0.715 -0.75,-0.636 -1.504,-0.935 -2.362,-0.935 -1.351,0 -2.015,0.805 -1.8,2.027 0.204,1.157 0.939,1.858 2.211,2.144 1.664,0.377 2.504,0.273 2.598,0.805 l 0.03,0.17 C 1.845,2.495 1.568,2.703 0.984,2.703 0.334,2.703 -0.091,2.43 -0.272,1.922 l -2.079,0 c 0.5,1.573 1.695,2.314 3.657,2.314 1.209,0 2.003,-0.286 2.376,-0.897 C 4.012,2.781 3.914,2.078 3.748,1.131 L 3.287,-1.482 C 3.179,-2.093 3.219,-2.457 3.431,-2.573 l -0.045,-0.261 -2.3,0"
             style="fill:#0054a4;fill-opacity:1;fill-rule:nonzero;stroke:none"
             id="path3863" />
        </g>
        <g
           id="g3865"
           transform="translate(1664.1969,692.40986)">
          <path
             inkscape:connector-curvature="0"
             d="m 0,0 2.248,0 -0.321,-1.82 -2.248,0 L 0,0 z m -0.43,-2.443 2.247,0 -1.216,-6.902 -2.248,0 1.217,6.902"
             style="fill:#0054a4;fill-opacity:1;fill-rule:nonzero;stroke:none"
             id="path3867" />
        </g>
        <g
           id="g3869"
           transform="translate(1668.0179,692.40986)">
          <path
             inkscape:connector-curvature="0"
             d="m 0,0 2.261,0 -1.648,-9.345 -2.26,0 L 0,0"
             style="fill:#0054a4;fill-opacity:1;fill-rule:nonzero;stroke:none"
             id="path3871" />
        </g>
      </g>
    </g>
  </g>
</svg>
