<?xml version="1.0" encoding="UTF-8" standalone="no"?>
<!-- Created with Inkscape (http://www.inkscape.org/) -->
<svg
   xmlns:dc="http://purl.org/dc/elements/1.1/"
   xmlns:cc="http://web.resource.org/cc/"
   xmlns:rdf="http://www.w3.org/1999/02/22-rdf-syntax-ns#"
   xmlns:svg="http://www.w3.org/2000/svg"
   xmlns="http://www.w3.org/2000/svg"
   xmlns:xlink="http://www.w3.org/1999/xlink"
   xmlns:sodipodi="http://sodipodi.sourceforge.net/DTD/sodipodi-0.dtd"
   xmlns:inkscape="http://www.inkscape.org/namespaces/inkscape"
   width="389"
   height="461"
   id="svg2"
   sodipodi:version="0.32"
   inkscape:version="0.45.1"
   version="1.0"
   inkscape:output_extension="org.inkscape.output.svg.inkscape">
  <g
     inkscape:label="Layer 1"
     inkscape:groupmode="layer"
     id="layer1"
     transform="translate(-474.48071,-298.3414)">
    <path
       id="path2213"
       d="M 77.52,111.89218 L 77.52,111.89218"
       style="fill:#ffffff;fill-rule:nonzero;stroke:none" />
    <path
       id="path2237"
       d="M 792.59561,651.58833 L 545.35715,651.58833 C 501.55707,652.17063 474.48071,624.51197 474.48071,580.71179 L 474.48071,325.41777 L 547.65424,298.3414 L 547.65424,581.84578 C 547.10245,606.04296 562.07937,629.10754 597.21289,629.68824 L 598.37589,629.68824 C 599.53878,629.68824 600.67438,629.10754 600.67438,627.94295 C 600.67438,626.80896 599.53878,626.22826 598.37589,626.22826 L 597.79519,626.22826 C 575.3128,625.64606 559.78248,608.37035 558.61949,586.47036 L 558.61949,298.3414 L 631.79302,326.00007 L 631.79302,581.84578 C 631.79302,598.5696 648.51674,615.84531 668.70054,615.84531 L 669.25233,615.84531 C 689.43613,615.84531 706.13105,598.5696 706.13105,581.84578 L 706.13105,326.00007 L 779.91568,298.3414 L 779.91568,586.47036 C 779.91568,608.37035 762.61116,625.64606 740.12888,626.22826 L 739.57708,626.22826 C 738.41249,626.22826 737.24949,626.80896 737.24949,627.94295 C 737.24949,629.10754 738.41249,629.68824 739.57708,629.68824 L 740.71107,629.68824 C 776.45409,629.10754 790.85052,606.04296 790.26822,581.84578 L 790.26822,298.3414 L 863.47226,325.41777 L 863.47226,580.71179 C 864.02405,624.51197 837.52999,652.17063 792.59561,651.58833 z M 769.53263,713.82702 C 769.53263,713.82702 766.65334,714.40922 764.90815,717.2886 L 748.79553,757.0449 C 748.21484,758.76119 746.46954,758.76119 746.46954,758.76119 C 746.46954,758.76119 745.33565,758.76119 744.17106,757.0449 L 728.61173,720.16779 C 726.89554,714.40922 722.27257,713.82702 722.27257,713.82702 C 721.69027,713.82702 721.69027,713.82702 721.69027,713.24472 L 721.69027,712.08173 C 721.69027,712.08173 721.69027,712.08173 722.27257,712.08173 L 744.75335,712.08173 C 745.33565,712.08173 745.33565,712.08173 745.91635,712.66402 L 745.91635,713.24472 C 745.33565,713.82702 745.33565,713.82702 744.75335,713.82702 C 737.83179,713.82702 738.99478,719.00479 740.71107,723.62777 C 742.45476,727.08935 747.63254,739.74039 749.92963,744.36487 C 749.92963,745.52786 750.51182,746.08116 750.51182,746.08116 C 751.09252,746.08116 751.67482,745.52786 751.67482,744.36487 C 753.97341,739.18699 760.31258,724.18117 760.89487,721.30178 C 762.61116,717.8404 760.89487,714.40922 756.2704,713.82702 C 755.6881,713.82702 755.6881,713.82702 755.6881,713.24472 L 755.6881,712.08173 C 755.6881,712.08173 755.6881,712.08173 756.2704,712.08173 L 770.11333,712.08173 C 770.11333,712.08173 770.11333,712.08173 770.69562,712.66402 L 770.69562,713.24472 C 770.11333,713.82702 770.11333,713.82702 769.53263,713.82702 z M 717.67699,729.96854 L 688.27314,729.96854 C 687.69094,729.96854 687.13914,730.52183 687.13914,731.68483 C 687.13914,731.68483 687.13914,733.39962 687.13914,737.4433 C 687.13914,747.24405 692.89761,754.74781 702.66946,755.29961 C 709.03923,755.29961 711.91842,752.42042 715.9318,748.40704 L 717.67699,750.12344 C 713.63321,757.0449 706.13105,759.34189 698.65618,759.34189 C 685.39385,759.34189 675.0109,749.54114 675.0109,736.27891 C 675.0109,723.04707 685.39385,710.94773 699.23848,710.94773 C 711.91842,710.94773 719.39168,718.4225 719.39168,728.80554 C 719.39168,729.96854 718.81098,729.96854 717.67699,729.96854 z M 669.25233,757.6271 L 645.63745,757.6271 C 645.05525,757.6271 645.05525,757.6271 645.05525,757.6271 L 645.05525,756.4642 C 645.05525,756.4642 645.05525,756.4642 645.63745,756.4642 C 650.81382,755.29961 651.97682,754.16562 651.97682,748.40704 L 651.97682,697.6855 C 651.97682,693.09142 650.81382,691.34623 649.09743,690.18174 C 647.35224,689.62994 645.63745,690.76393 645.05525,689.62994 L 645.05525,689.04764 C 645.63745,687.88475 647.93454,688.46695 651.39612,687.88475 C 651.39612,687.88475 655.99,687.30245 661.19687,686.75065 C 663.49376,686.16836 662.91316,687.30245 662.91316,689.62994 L 662.91316,747.82635 C 662.91316,752.42042 664.07606,755.88191 669.25233,756.4642 C 669.83463,756.4642 669.83463,756.4642 669.83463,756.4642 L 669.83463,757.6271 C 669.83463,757.6271 669.83463,757.6271 669.25233,757.6271 z M 625.45385,702.86327 C 621.43887,702.86327 618.55959,699.98239 618.55959,695.94021 C 618.55959,692.50913 621.43887,689.04764 625.45385,689.04764 C 628.91373,689.04764 631.79302,692.50913 631.79302,695.94021 C 631.79302,699.98239 628.91373,702.86327 625.45385,702.86327 z M 638.13379,757.6271 L 614.51741,757.6271 C 613.93671,757.6271 613.93671,757.6271 613.35441,757.6271 L 613.35441,756.4642 C 613.93671,756.4642 613.93671,756.4642 614.51741,756.4642 C 619.69368,755.29961 620.85818,754.16562 620.85818,748.40704 L 620.85818,723.04707 C 620.85818,718.4225 619.69368,717.2886 617.97889,716.7063 C 616.2337,716.12561 614.51741,716.7063 613.93671,716.12561 L 613.93671,714.96111 C 614.51741,714.40922 616.816,714.40922 620.27588,713.82702 C 620.27588,713.82702 623.15516,713.24472 629.49593,711.52993 C 631.79302,710.94773 631.79302,712.08173 631.79302,714.40922 L 631.79302,747.82635 C 631.79302,752.42042 632.95601,755.88191 638.13379,756.4642 C 638.71449,756.4642 638.71449,756.4642 638.71449,756.4642 L 638.71449,757.6271 C 638.71449,757.6271 638.71449,757.6271 638.13379,757.6271 z M 607.01364,757.6271 L 582.23587,757.6271 L 582.23587,756.4642 L 582.81657,756.4642 C 586.85885,755.88191 589.15743,755.29961 589.73803,748.96044 L 589.73803,731.10263 C 589.73803,720.71958 589.15743,714.96111 580.51948,714.96111 C 574.76101,714.96111 568.42024,721.88248 568.42024,731.10263 L 568.42024,747.24405 C 568.42024,753.00272 570.13663,755.88191 574.76101,755.88191 L 574.76101,756.4642 C 575.3128,756.4642 575.3128,756.4642 575.3128,756.4642 L 575.3128,757.6271 C 575.3128,757.6271 575.3128,757.6271 574.76101,757.6271 L 550.53353,757.6271 C 550.53353,757.6271 550.53353,757.6271 549.98173,757.6271 L 549.98173,756.4642 C 550.53353,756.4642 550.53353,755.88191 550.53353,755.88191 L 550.53353,756.4642 C 552.86092,755.88191 557.45649,756.4642 557.45649,748.96044 L 557.45649,723.04707 C 557.45649,719.00479 555.7402,717.2886 554.57721,716.7063 C 552.86092,716.12561 551.11573,716.7063 550.53353,715.54331 L 550.53353,714.96111 C 551.11573,714.40922 553.44161,714.40922 556.8743,713.82702 C 559.78248,713.24472 562.07937,712.66402 565.54095,711.52993 C 567.83804,710.94773 567.25724,712.08173 567.25724,714.40922 C 567.83804,717.2886 567.83804,718.4225 568.42024,719.58549 C 569.00254,720.71958 569.55433,719.58549 570.13663,719.00479 C 571.29942,717.2886 573.01582,715.54331 573.59651,715.54331 C 576.4758,713.24472 579.93738,711.52993 585.11515,711.52993 C 600.67438,711.52993 600.67438,720.71958 600.67438,731.10263 L 600.67438,748.40704 C 600.67438,753.00272 601.25507,755.88191 607.01364,756.4642 C 607.59594,756.4642 607.59594,756.4642 607.59594,756.4642 L 607.59594,757.6271 C 607.59594,757.6271 607.59594,757.6271 607.01364,757.6271 z M 517.1163,756.4642 C 528.08164,756.4642 539.01639,750.70413 538.43569,730.52183 C 538.43569,703.44397 538.43569,698.2677 538.43569,698.2677 C 538.43569,693.64322 534.42231,690.18174 528.66384,690.18174 C 528.08164,690.18174 528.08164,690.18174 528.08164,689.62994 L 528.08164,689.04764 C 528.08164,688.46695 528.08164,688.46695 528.66384,688.46695 L 549.98173,688.46695 C 550.53353,688.46695 550.53353,688.46695 551.11573,689.04764 L 551.11573,689.62994 C 550.53353,690.18174 550.53353,690.18174 549.98173,690.18174 C 544.22316,690.18174 541.34387,693.09142 541.34387,698.84999 L 541.34387,732.26553 C 541.34387,749.54114 532.67722,759.34189 513.10302,759.34189 C 497.54369,759.34189 484.28146,755.29961 484.28146,737.4433 L 484.28146,699.40179 C 484.28146,694.80621 482.53627,690.18174 475.06301,690.18174 C 474.48071,690.18174 474.48071,690.18174 474.48071,689.62994 L 474.48071,689.04764 C 474.48071,688.46695 474.48071,688.46695 475.06301,688.46695 L 505.60085,688.46695 C 506.18155,688.46695 506.18155,688.46695 506.18155,689.04764 L 506.18155,689.62994 C 506.18155,690.18174 506.18155,690.18174 505.60085,690.18174 C 499.84228,690.18174 496.3808,693.09142 496.3808,697.6855 L 496.3808,736.8611 C 496.3808,747.24405 502.71997,756.4642 517.1163,756.4642 z M 698.65618,712.66402 C 694.03171,712.66402 690.01843,717.8404 688.85543,721.30178 C 687.69094,724.76186 687.13914,727.64255 688.85543,727.64255 L 707.29404,727.64255 C 709.59093,727.64255 709.59093,723.04707 709.03923,721.30178 C 708.45694,715.54331 704.41466,712.66402 698.65618,712.66402 z M 813.33121,729.96854 L 783.92896,729.96854 C 783.34666,729.96854 782.79496,730.52183 782.79496,731.68483 C 782.79496,731.68483 782.79496,733.39962 782.79496,737.4433 C 782.79496,747.24405 788.55353,754.74781 798.35428,755.29961 C 804.69505,755.29961 807.57274,752.42042 811.58752,748.40704 L 813.33121,750.12344 C 809.28903,757.0449 801.81417,759.34189 794.3104,759.34189 C 781.04977,759.34189 770.69562,749.54114 770.69562,736.27891 C 770.69562,723.04707 781.04977,710.94773 794.8927,710.94773 C 807.57274,710.94773 815.0476,718.4225 815.0476,728.80554 C 815.0476,729.96854 814.4958,729.96854 813.33121,729.96854 z M 794.3104,712.66402 C 789.71643,712.66402 785.67415,717.8404 784.50965,721.30178 C 783.34666,724.76186 782.79496,727.64255 784.50965,727.64255 L 802.94976,727.64255 C 805.24685,727.64255 805.24685,723.04707 804.69505,721.30178 C 804.11276,715.54331 800.07058,712.66402 794.3104,712.66402 z M 858.84768,722.46478 C 854.8344,722.46478 855.3862,716.12561 850.79212,716.12561 C 848.49353,716.12561 847.33064,717.8404 845.03215,719.58549 C 842.15436,723.04707 841.57207,729.96854 841.57207,733.39962 L 841.57207,747.82635 C 841.57207,755.29961 843.28846,754.16562 848.49353,756.4642 L 848.49353,757.6271 L 823.13356,757.6271 L 823.13356,756.4642 C 827.14694,754.74781 830.60842,757.0449 830.60842,748.96044 L 830.60842,723.04707 C 830.60842,714.40922 824.26765,716.7063 823.13356,715.54331 L 823.13356,714.96111 C 823.68536,714.40922 828.30993,713.82702 829.47273,713.82702 C 831.18912,713.24472 838.11058,711.52993 839.24458,711.52993 C 840.98987,711.52993 839.82688,720.16779 841.57207,720.16779 C 843.28846,720.16779 845.58545,712.08173 855.3862,712.08173 C 858.84768,712.08173 863.47226,714.40922 863.47226,718.4225 C 863.47226,721.30178 861.72697,722.46478 858.84768,722.46478"
       style="fill:#006bb5;fill-rule:nonzero;stroke:none" />
  </g>
</svg>
