<?xml version="1.0" encoding="UTF-8" standalone="no"?>
<!-- Generator: Adobe Illustrator 14.0.0, SVG Export Plug-In . SVG Version: 6.00 Build 43363)  -->
<svg
   xmlns:dc="http://purl.org/dc/elements/1.1/"
   xmlns:cc="http://web.resource.org/cc/"
   xmlns:rdf="http://www.w3.org/1999/02/22-rdf-syntax-ns#"
   xmlns:svg="http://www.w3.org/2000/svg"
   xmlns="http://www.w3.org/2000/svg"
   xmlns:sodipodi="http://sodipodi.sourceforge.net/DTD/sodipodi-0.dtd"
   xmlns:inkscape="http://www.inkscape.org/namespaces/inkscape"
   version="1.0"
   id="Layer_1"
   x="0px"
   y="0px"
   width="792"
   height="194"
   viewBox="0 0 1190.55 737.008"
   enable-background="new 0 0 1190.55 737.008"
   xml:space="preserve"
   sodipodi:version="0.32"
   inkscape:version="0.45.1">
<path
   style="fill:#004990"
   id="path39"
   d="M 1640.6318,210.77069 L 1392.2225,695.47829 L 1375.7154,728.94795 L 1179.2705,728.94795 C 1261.7914,567.86907 1339.9215,415.06938 1422.4638,253.99738 C 1432.4168,239.47563 1425.7066,244.95384 1443.2869,226.43594 C 1453.6563,216.33282 1475.1249,212.64816 1486.4668,210.77069 L 1640.6318,210.77069 L 1640.6318,210.77069 z M 917.63915,222.50545 C 932.67755,211.68967 961.57775,209.12002 963.82865,209.12002 L 1144.054,209.24159 C 1174.7766,209.28831 1200.7668,211.9537 1221.7605,217.16788 C 1264.6137,227.81537 1287.885,250.69335 1293.0102,292.85024 C 1295.6634,314.8864 1290.8216,340.97273 1278.2659,370.8584 C 1275.2589,378.14604 1271.4527,390.71811 1264.831,401.45947 C 1258.2842,412.23574 1129.1972,657.83465 1088.6645,728.94795 L 901.11075,728.94795 C 901.11075,728.94795 944.09245,649.82668 946.90745,645.10831 L 941.14855,644.89101 C 941.14855,644.89101 855.55305,736.10718 745.41445,736.99805 C 722.41675,737.22257 703.96455,733.64048 689.93825,726.93029 C 676.13685,720.21288 665.78335,709.6144 659.09405,695.1322 C 652.66885,682.01759 649.92175,666.36153 650.69785,648.07993 C 651.43905,629.89897 656.15745,610.21664 665.01405,589.1971 C 673.11815,569.82594 683.79375,551.55156 696.95505,534.16083 C 710.04145,517.06905 725.33245,501.46009 742.70235,487.32622 C 758.61065,474.67935 776.02305,463.5919 795.48725,453.65977 C 814.89115,443.90277 836.42275,435.16083 859.88355,427.57838 C 886.86755,418.9786 918.99725,411.7658 956.51255,405.76827 C 994.01295,399.66364 1033.7513,395.63972 1075.632,393.58674 C 1088.9919,372.16982 1090.82,368.24658 1090.82,353.82056 C 1090.82,343.6168 1078.5895,333.17256 1062.7628,333.17256 C 1051.0072,333.17256 846.30135,339.24456 847.16405,337.51677 L 885.46005,263.07398 C 889.20545,255.79774 906.22425,230.58139 917.63915,222.50545 M 1027.3545,487.1017 C 1008.8765,487.46868 986.03345,491.3243 967.32865,496.19083 C 948.68655,501.05778 931.83375,507.45717 916.74825,515.40436 C 903.92585,522.27829 893.33195,530.27939 884.50835,539.73702 C 875.91575,548.94924 869.35525,559.1059 864.75845,569.9969 C 859.24535,583.1392 859.14925,593.73771 864.63005,601.98422 C 870.08925,610.2098 882.82955,613.14876 894.81435,613.14876 C 918.00615,613.14876 942.70575,601.98422 965.60315,579.97804 C 988.53515,557.76599 1027.3545,487.1017 1027.3545,487.1017 M 1527.2036,18.153191 C 1532.0713,10.273661 1542.7378,0.42093061 1561.7887,0.42093061 C 1580.8794,0.42093061 1686.6716,0.81603061 1698.3528,0.71307061 C 1710.7327,0.56339061 1729.6529,14.101131 1718.9043,36.210271 C 1712.3366,49.820221 1676.7391,123.03555 1672.36,130.39841 C 1668.0158,137.78216 1657.5948,148.15612 1642.8952,148.15612 C 1628.184,148.15612 1511.5942,148.18195 1504.4563,148.18195 C 1480.7151,148.18195 1474.2481,124.71433 1479.8991,113.47534 C 1490.327,92.705771 1527.2036,18.153191 1527.2036,18.153191 M 1675.5561,729.2682 L 1475.9477,729.2682 C 1475.9477,729.2682 1685.7131,302.2395 1711.2075,251.48164 C 1730.4476,213.3145 1754.0391,211.04232 1776.0737,211.04232 L 1899.4272,211.04232 C 1899.4272,211.04232 1835.3512,339.21682 1832.508,343.93478 L 1838.2951,344.07762 C 1838.2951,344.07762 1924.9919,206.59709 2041.5132,203.01273 C 2087.729,201.51174 2140.6302,258.76248 2050.9014,334.00264 C 1988.177,321.43286 1866.6448,348.57834 1803.7172,465.23649 C 1785.6742,498.65905 1675.5561,729.2682 1675.5561,729.2682 M 1267.0056,32.682131 C 1273.3021,13.631191 1259.1261,6.1443715e-007 1244.1086,6.1443715e-007 L 145.11815,2.5977606 C 112.14385,2.5696506 65.954716,19.614291 42.559646,59.998151 L -238.16225,576.21858 C -256.0978,609.2931 -299.66827,633.32644 -340.7747,633.32644 L -426.1176,633.2307 C -451.8567,633.32644 -473.46889,605.26771 -457.66348,576.21858 L -176.26114,58.244531 C -164.01659,35.768441 -178.51015,3.0114406 -208.51971,2.7402306 C -221.3957,2.6444906 -425.35552,2.7402306 -456.07132,2.7402306 C -491.91426,2.7402306 -529.61144,20.103221 -553.84343,62.464881 C -572.19303,94.601851 -901.95222,656.59769 -901.95222,656.59769 C -922.82441,691.15497 -894.75994,728.94795 -861.81378,729.16563 L -197.36464,729.16563 C -151.96799,729.11168 -113.18351,706.02282 -93.670624,672.84754 L 186.11215,156.47751 C 210.27425,112.01386 236.45625,98.286891 289.16645,98.286891 L 361.80895,98.354511 C 388.48645,98.354511 410.29655,125.84837 393.55315,156.47751 L 120.77865,657.63141 C 103.71275,688.98046 126.68685,728.7447 161.85435,728.94795 L 393.89925,728.7447 C 436.35695,728.84727 481.39085,703.7267 499.51625,670.40668 L 777.80445,156.59908 C 806.72625,103.34641 828.36545,98.307791 880.00765,98.307791 L 1208.4427,97.370151 C 1230.5172,98.137211 1238.3979,82.623951 1243.0213,76.077081 L 1267.0056,32.682131 z "
   clip-path="none" />
</svg>