<?xml version="1.0" encoding="UTF-8" standalone="no"?>
<!-- Created with Inkscape (http://www.inkscape.org/) -->

<svg
   xmlns:dc="http://purl.org/dc/elements/1.1/"
   xmlns:cc="http://creativecommons.org/ns#"
   xmlns:rdf="http://www.w3.org/1999/02/22-rdf-syntax-ns#"
   xmlns:svg="http://www.w3.org/2000/svg"
   xmlns="http://www.w3.org/2000/svg"
   xmlns:sodipodi="http://sodipodi.sourceforge.net/DTD/sodipodi-0.dtd"
   xmlns:inkscape="http://www.inkscape.org/namespaces/inkscape"
   width="100.27122"
   height="38.872326"
   id="svg2"
   version="1.1"
   inkscape:version="0.48.2 r9819"
   sodipodi:docname="New document 1">
  <defs
     id="defs4">
</defs>
  <sodipodi:namedview
     id="base"
     pagecolor="#ffffff"
     bordercolor="#666666"
     borderopacity="1.0"
     inkscape:pageopacity="0.0"
     inkscape:pageshadow="2"
     inkscape:zoom="1.979899"
     inkscape:cx="88.938361"
     inkscape:cy="-27.427469"
     inkscape:document-units="px"
     inkscape:current-layer="layer1"
     showgrid="false"
     fit-margin-left="0.1"
     fit-margin-top="0.1"
     fit-margin-bottom="0.1"
     fit-margin-right="0.1"
     inkscape:window-width="1920"
     inkscape:window-height="1028"
     inkscape:window-x="-8"
     inkscape:window-y="-8"
     inkscape:window-maximized="1">
    <inkscape:grid
       type="xygrid"
       id="grid2996"
       empspacing="5"
       visible="true"
       enabled="true"
       snapvisiblegridlinesonly="true" />
  </sodipodi:namedview>
  <metadata
     id="metadata7">
    <rdf:RDF>
      <cc:Work
         rdf:about="">
        <dc:format>image/svg+xml</dc:format>
        <dc:type
           rdf:resource="http://purl.org/dc/dcmitype/StillImage" />
        <dc:title></dc:title>
      </cc:Work>
    </rdf:RDF>
  </metadata>
  <g
     inkscape:label="Layer 1"
     inkscape:groupmode="layer"
     id="layer1"
     transform="translate(-300.89744,-627.60512)">
    <g
       id="g3096"
       transform="matrix(0.99080421,0,0,0.99080421,2.7653714,6.1302879)">
      <rect
         y="628.36218"
         x="302"
         height="36.999996"
         width="99"
         id="rect3094"
         style="fill:#0b249a;fill-opacity:1;fill-rule:evenodd;stroke:none" />
      <g
         transform="translate(287.61579,613.8809)"
         id="g3069">
        <g
           transform="matrix(2.369428,0,0,2.369428,14.834254,14.672677)"
           id="g3084">
          <rect
             id="rect3057"
             height="11.116"
             width="18.792"
             y="2.1949999"
             x="20.253"
             style="fill:#fdb927" />
          <polygon
             id="polygon3059"
             points="24.515,11.558 24.515,5.938 22.338,5.938 22.338,4.592 28.488,4.592 28.488,5.938 26.311,5.938 26.311,11.558 "
             style="fill:#ef3e33" />
          <polygon
             id="polygon3061"
             points="31.899,4.592 33.596,9.513 35.294,4.592 37.133,4.592 34.589,11.558 32.575,11.558 30.031,4.592 "
             style="fill:#ef3e33" />
          <path
             id="path3063"
             d="m 13.062,2.221 v 5.231 c 0,1.078 -0.236,1.862 -0.71,2.353 -0.473,0.489 -1.222,0.733 -2.247,0.733 -1.039,0 -1.79,-0.255 -2.253,-0.765 C 7.39,9.265 7.159,8.49 7.159,7.452 V 2.221 H 3.055 V 7.64 c 0,1.837 0.594,3.246 1.783,4.229 1.189,0.981 2.945,1.473 5.267,1.473 2.322,0 4.079,-0.491 5.272,-1.473 1.192,-0.982 1.789,-2.395 1.789,-4.237 v -5.41 h -4.104 z"
             inkscape:connector-curvature="0"
             style="fill:#fdb927" />
        </g>
      </g>
      <path
         sodipodi:nodetypes="ccccccc"
         inkscape:connector-curvature="0"
         id="path3090"
         d="m 306,628.36218 0,15 c 0,1.95652 2.05586,4 4,4 l 83,0 c 2.00358,0 4,-2.05475 4,-4 l 0,-15 z"
         style="opacity:0.12999998;fill:#ffffff;stroke:none" />
      <rect
         style="fill:none;stroke:#8b8eaf;stroke-width:2.01856232;stroke-opacity:1"
         id="rect3011"
         width="99"
         height="36.999996"
         x="302"
         y="628.36218" />
    </g>
  </g>
</svg>
