<?xml version="1.0" encoding="UTF-8" standalone="no"?>
<!-- Created with Inkscape (http://www.inkscape.org/) -->

<svg
   xmlns:dc="http://purl.org/dc/elements/1.1/"
   xmlns:cc="http://creativecommons.org/ns#"
   xmlns:rdf="http://www.w3.org/1999/02/22-rdf-syntax-ns#"
   xmlns:svg="http://www.w3.org/2000/svg"
   xmlns="http://www.w3.org/2000/svg"
   xmlns:xlink="http://www.w3.org/1999/xlink"
   xmlns:sodipodi="http://sodipodi.sourceforge.net/DTD/sodipodi-0.dtd"
   xmlns:inkscape="http://www.inkscape.org/namespaces/inkscape"
   width="523"
   height="211"
   id="svg2"
   version="1.1"
   inkscape:version="0.47 r22583">
  <g
     inkscape:label="Layer 1"
     inkscape:groupmode="layer"
     id="layer1"
     transform="translate(-180.48281,-386.94573)">
    <path
       style="fill:#1d4595;fill-rule:nonzero;stroke:none"
       d="m 691.83338,586.32465 -499.74499,0 0,-187.75785 499.74499,0 0,187.75785 z"
       id="path69126" />
    <path
       id="path69130"
       stroke-miterlimit="4"
       d="m 691.84888,586.32465 -499.745,0 0,-187.75785 499.745,0 0,187.75785 z"
       style="fill:none;stroke:#1d4595;stroke-width:23.24215317;stroke-linecap:butt;stroke-linejoin:miter;stroke-miterlimit:4" />
    <path
       style="fill:#ffc428;fill-rule:nonzero;stroke:none"
       d="m 437.75793,559.86733 228.43161,0 0,-135.11437 -228.43161,0 0,135.11437 z"
       id="path69132" />
    <path
       id="path69136"
       d="m 537.86575,470.21073 -26.45732,0 0,68.29319 -21.84762,0 0,-68.29319 -26.45731,0 0,-16.34698 74.76225,0 0,16.34698 z"
       style="fill:#ef4136;fill-rule:nonzero;stroke:none" />
    <path
       id="path69140"
       d="m 642.95514,453.86763 -30.91206,84.6789 -24.48174,0 -30.9508,-84.6789 22.73858,0 20.60804,59.8098 20.64677,-59.8098 22.35121,0 z"
       style="fill:#ef4136;fill-rule:nonzero;stroke:none" />
    <path
       id="path69144"
       d="m 350.34032,425.02025 0,63.60602 c 0,13.13181 -2.90526,22.66109 -8.63833,28.62658 -5.73306,5.92675 -14.87498,8.90949 -27.30953,8.90949 -12.62823,0 -21.77014,-3.09895 -27.387,-9.29686 -5.61685,-6.19791 -8.44465,-15.61098 -8.44465,-28.23921 l 0,-63.60602 -49.85441,0 0,65.89149 c 0,22.35121 7.20507,39.47292 21.65394,51.4039 14.44887,11.9697 35.79291,17.89645 64.03212,17.89645 28.23922,0 49.58326,-5.92675 64.1096,-17.89645 14.48761,-11.93098 21.73142,-29.13017 21.73142,-51.52011 l 0,-65.77528 -49.89316,0 z"
       style="fill:#ffc428;fill-rule:nonzero;stroke:none" />
  </g>
</svg>
