<?xml version="1.0" encoding="UTF-8" standalone="no"?>
<!-- Created with Inkscape (http://www.inkscape.org/) -->
<svg
   xmlns:dc="http://purl.org/dc/elements/1.1/"
   xmlns:cc="http://web.resource.org/cc/"
   xmlns:rdf="http://www.w3.org/1999/02/22-rdf-syntax-ns#"
   xmlns:svg="http://www.w3.org/2000/svg"
   xmlns="http://www.w3.org/2000/svg"
   xmlns:sodipodi="http://sodipodi.sourceforge.net/DTD/sodipodi-0.dtd"
   xmlns:inkscape="http://www.inkscape.org/namespaces/inkscape"
   width="474"
   height="330"
   id="svg2"
   sodipodi:version="0.32"
   inkscape:version="0.45.1"
   version="1.0"
   inkscape:output_extension="org.inkscape.output.svg.inkscape">
  <g
     inkscape:label="Layer 1"
     inkscape:groupmode="layer"
     id="layer1"
     transform="translate(187.75318,-1096.5478)">
    <path
       id="path2254"
       d="M 104.25584,-20.697766 L 104.25584,-20.697766"
       style="fill:#ffffff;fill-rule:nonzero;stroke:none" />
    <g
       id="g2223"
       transform="matrix(6.5102591,0,0,6.5102591,-2972.7166,-3271.402)">
      <g
         transform="matrix(1,0,0,-1,-44.559517,1129.1877)"
         clip-path="none"
         id="g2225">
        <g
           clip-path="url(#id260)"
           id="g2227">
          <path
             style="fill:#ffffff;fill-rule:evenodd;stroke:none"
             d="M 472.51,457.87 L 544.54,457.87 L 544.54,407.75 L 472.51,407.75 L 472.51,457.87 z "
             id="path2229" />
        </g>
      </g>
      <g
         transform="matrix(1,0,0,-1,-44.559517,1129.1877)"
         clip-path="none"
         id="g2231">
        <path
           style="fill:#f6ca25;fill-rule:nonzero;stroke:none"
           d="M 472.366,458.228 L 545.148,458.228 L 545.148,407.569 L 472.366,407.569 L 472.366,458.228 z "
           id="path2233" />
        <path
           style="fill:#2f4a9a;fill-rule:nonzero;stroke:none"
           d="M 531.798,452.995 L 531.801,451.371 C 530.486,451.254 530.1,451.073 529.347,450.865 C 528.603,450.659 527.447,450.134 526.811,449.23 C 525.191,446.927 524.419,444.358 523.502,441.862 L 523.501,458.237 C 523.434,458.237 472.4,458.274 472.365,458.24 C 472.332,458.207 472.332,407.613 472.365,407.58 C 472.4,407.546 506.457,407.581 523.502,407.581 C 523.502,419.028 523.502,430.414 523.502,441.862 C 521.799,436.703 519.926,431.671 518,426.373 C 516.909,423.37 515.685,420.678 513.528,418.166 C 512.208,416.628 510.846,415.449 509.132,414.378 C 507.909,413.613 506.705,413.143 505.351,412.743 C 504.461,412.48 503.564,412.216 502.639,412.051 C 500.471,411.663 498.426,411.496 496.284,411.532 C 494.693,411.559 493.097,411.658 491.497,411.859 C 490.189,412.023 489.016,412.239 487.76,412.594 C 486.113,413.059 484.53,413.583 483.121,414.545 C 481.973,415.329 481.027,416.074 480.129,417.184 C 479.25,418.269 478.789,419.425 478.637,420.764 C 478.445,422.457 478.621,424.026 479.082,425.69 C 481.163,433.196 483.642,439.585 486.177,446.752 C 486.588,447.916 487.023,449.691 485.724,450.466 C 484.792,451.022 483.398,451.111 482.469,451.239 C 481.922,451.314 482.516,451.201 480.781,451.374 L 480.781,452.995 L 505.577,452.994 L 505.572,451.371 C 504.236,451.299 502.863,451.166 501.633,450.826 C 501.165,450.696 500.741,450.564 500.295,450.366 C 499.96,450.217 499.658,449.999 499.658,449.999 C 499.054,449.583 498.65,448.957 498.277,448.065 C 496.801,444.544 493.083,433.387 490.247,425.377 C 489.518,423.32 488.852,420.051 490.335,418.293 C 494.148,413.773 500.757,414.441 505.979,416.524 C 507.022,416.94 508.33,417.948 508.842,418.372 C 509.688,419.073 510.391,419.812 511.047,420.74 C 511.737,421.718 512.698,423.323 513.134,424.375 C 516.564,432.672 518.348,438.075 520.908,445.475 C 521.228,446.399 521.451,447.655 521.244,448.512 C 520.617,451.097 517.523,451.251 515.205,451.371 L 515.205,452.995 C 518.066,452.995 520.772,452.995 523.543,452.995 L 531.798,452.995"
           id="path2235" />
      </g>
      <path
         clip-path="none"
         style="fill:#e44638;fill-rule:nonzero;stroke:none"
         d="M 490.67048,700.6637 L 483.98448,700.6637 L 483.36448,702.4757 L 485.99848,702.4757 L 480.82548,717.1137 L 482.89948,717.1137 L 488.02448,702.4757 L 490.01548,702.4757 L 490.67048,700.6637"
         id="path2237" />
      <path
         clip-path="none"
         style="fill:#e44638;fill-rule:nonzero;stroke:none"
         d="M 491.50548,700.6637 L 493.38848,700.6637 L 492.35848,708.6557 L 491.85148,711.7907 L 493.13048,708.8517 L 496.96448,700.6637 L 498.96748,700.6637 L 491.19548,717.1137 L 489.45548,717.1137 L 491.50548,700.6637"
         id="path2239" />
    </g>
  </g>
</svg>
