<?xml version="1.0" encoding="UTF-8" standalone="no"?>
<svg
   xmlns:dc="http://purl.org/dc/elements/1.1/"
   xmlns:cc="http://creativecommons.org/ns#"
   xmlns:rdf="http://www.w3.org/1999/02/22-rdf-syntax-ns#"
   xmlns:svg="http://www.w3.org/2000/svg"
   xmlns="http://www.w3.org/2000/svg"
   xmlns:sodipodi="http://sodipodi.sourceforge.net/DTD/sodipodi-0.dtd"
   xmlns:inkscape="http://www.inkscape.org/namespaces/inkscape"
   version="1.1"
   id="Layer_1"
   x="0px"
   y="0px"
   width="400"
   height="400"
   viewBox="0 0 400 400.00001"
   enable-background="new 0 0 793.701 1125.35"
   xml:space="preserve">
<rect
   style="fill:#e21836"
   x="2.9704912"
   y="3.2438099"
   width="394.03323"
   height="394.03323"
   id="rect7"
   clip-path="none" /><polyline
   style="fill:#ffffff"
   points="383.404,942.184 383.404,933.757 386.773,933.757 389.369,944.224 389.41,944.224 392.026,933.757   397.5,933.757 392.346,951.235 386.013,951.235 383.404,942.184 "
   id="polyline9"
   clip-path="none"
   transform="matrix(3.6946041,0,0,3.6946041,-1413.8511,-3216.26)" /><polyline
   style="fill:#ffffff"
   points="397.853,933.757 409.954,933.757 409.954,937.949 403.097,937.949 403.097,940.458   409.654,940.458 409.654,944.65 403.097,944.65 403.097,947.043 410.095,947.043 410.095,951.235 397.853,951.235 397.853,933.757   "
   id="polyline11"
   clip-path="none"
   transform="matrix(3.6946041,0,0,3.6946041,-1413.8511,-3216.26)" /><rect
   style="fill:#ffffff"
   x="106.34184"
   y="233.60251"
   width="19.810467"
   height="64.577988"
   id="rect13"
   clip-path="none" /><path
   style="fill:#ffffff"
   inkscape:connector-curvature="0"
   d="m 152.29897,248.64687 h 4.88796 c 7.1195,0 8.89291,5.72663 8.89291,16.82153 0,10.71805 -1.62932,16.6405 -8.81902,16.6405 h -4.96555 v -33.46203 m -19.80677,49.52986 h 28.25633 c 14.7932,0 26.01371,-7.6663 26.01371,-32.06547 0,-26.19105 -10.4077,-32.50143 -25.1972,-32.50143 H 132.4885 v 64.5669 z"
   id="path15"
   clip-path="none" /><polyline
   style="fill:#ffffff"
   points="434.396,933.757 446.498,933.757 446.498,937.949 439.64,937.949 439.64,940.458 446.197,940.458   446.197,944.65 439.64,944.65 439.64,947.043 446.637,947.043 446.637,951.235 434.396,951.235 434.396,933.757 "
   id="polyline17"
   clip-path="none"
   transform="matrix(3.6946041,0,0,3.6946041,-1413.8511,-3216.26)" /><polyline
   style="fill:#ffffff"
   points="453.171,940.62 453.21,940.62 456.549,933.758 462.648,933.758 457.948,941.947 463.087,951.236   456.69,951.236 453.21,943.824 453.171,943.824 453.171,951.236 447.808,951.236 447.808,933.758 453.171,933.758 453.171,940.62   "
   id="polyline19"
   clip-path="none"
   transform="matrix(3.6946041,0,0,3.6946041,-1413.8511,-3216.26)" /><polyline
   style="fill:#ffffff"
   points="468.965,940.62 469.004,940.62 472.343,933.758 478.441,933.758 473.742,941.947 478.881,951.236   472.483,951.236 469.004,943.824 468.965,943.824 468.965,951.236 463.602,951.236 463.602,933.758 468.965,933.758 468.965,940.62   "
   id="polyline21"
   clip-path="none"
   transform="matrix(3.6946041,0,0,3.6946041,-1413.8511,-3216.26)" /><polyline
   style="fill:#ffffff"
   points="479.249,933.757 490.222,933.75 490.222,937.949 484.494,937.949 484.494,940.458 490.222,940.458   490.222,944.65 484.494,944.65 484.494,947.043 490.222,947.043 490.222,951.235 479.249,951.235 479.249,933.757 "
   id="polyline23"
   clip-path="none"
   transform="matrix(3.6946041,0,0,3.6946041,-1413.8511,-3216.26)" /><rect
   style="fill:#ffffff"
   x="2.7303329"
   y="358.42099"
   width="262.76025"
   height="5.7672768"
   id="rect25"
   clip-path="none" /><rect
   style="fill:#ffffff"
   x="131.11783"
   y="331.87146"
   width="5.7783608"
   height="65.457298"
   id="rect27"
   clip-path="none" /><polyline
   style="fill:#ffffff"
   points="463.442,915.826 463.437,871.377 465.005,871.377 465.005,915.826 463.442,915.826 "
   id="polyline29"
   clip-path="none"
   transform="matrix(3.6946041,0,0,3.6946041,-1413.8511,-3216.26)" /><rect
   style="fill:#ffffff"
   x="265.43149"
   y="128.98235"
   width="131.87151"
   height="5.793139"
   id="rect31"
   clip-path="none" /><path
   style="fill:none;stroke:#ffffff;stroke-width:5.34978676"
   inkscape:connector-curvature="0"
   d="m 2.6748904,3.1330368 m 394.6502196,0 H 2.6748904 V 397.32513 H 397.32511 V 3.1330368 z"
   id="path33"
   clip-path="none" />
</svg>