<?xml version="1.0" encoding="UTF-8" standalone="no"?>
<!-- Created with Inkscape (http://www.inkscape.org/) -->
<svg
   xmlns:dc="http://purl.org/dc/elements/1.1/"
   xmlns:cc="http://web.resource.org/cc/"
   xmlns:rdf="http://www.w3.org/1999/02/22-rdf-syntax-ns#"
   xmlns:svg="http://www.w3.org/2000/svg"
   xmlns="http://www.w3.org/2000/svg"
   xmlns:sodipodi="http://sodipodi.sourceforge.net/DTD/sodipodi-0.dtd"
   xmlns:inkscape="http://www.inkscape.org/namespaces/inkscape"
   width="761.54559"
   height="315.52802"
   id="svg2"
   sodipodi:version="0.32"
   inkscape:version="0.44"
   version="1.0"
   sodipodi:docbase="C:\Dokumente und Einstellungen\Andreas\Eigene Dateien\Eigene Bilder\sonstiges\Logos\Vektor"
   sodipodi:docname="Verisign_logo.svg">
  <defs
     id="defs4">
    <clipPath
       clip-rule="nonzero"
       id="clp2">
      <path
         id="path2152"
         d="M 0,0 L 567.36,0 L 567.36,756 L 0,756 L 0,0 z " />
    </clipPath>
    <clipPath
       clip-rule="nonzero"
       id="clp3">
      <path
         id="path2274"
         d="M 450.04,53.441 L 535.73,53.441 L 535.73,120.29 L 450.04,120.29 L 450.04,53.441 z " />
    </clipPath>
    <clipPath
       clip-rule="nonzero"
       id="clp5">
      <path
         id="path2291"
         d="M 0,0 L 567.36,0 L 567.36,756 L 0,756 L 0,0 z " />
    </clipPath>
    <clipPath
       clip-rule="nonzero"
       id="clp6">
      <path
         id="path2301"
         d="M 0,0 L 567.36,0 L 567.36,756 L 0,756 L 0,0 z " />
    </clipPath>
    <clipPath
       clip-rule="nonzero"
       id="clp7">
      <path
         id="path2311"
         d="M 0,0 L 567.36,0 L 567.36,756 L 0,756 L 0,0 z " />
    </clipPath>
    <clipPath
       clip-rule="nonzero"
       id="clp8">
      <path
         id="path2321"
         d="M 0,0 L 567.36,0 L 567.36,756 L 0,756 L 0,0 z " />
    </clipPath>
    <clipPath
       clip-rule="nonzero"
       id="clp9">
      <path
         id="path2331"
         d="M 0,0 L 567.36,0 L 567.36,756 L 0,756 L 0,0 z " />
    </clipPath>
    <clipPath
       clip-rule="nonzero"
       id="clp10">
      <path
         id="path2341"
         d="M 0,0 L 567.36,0 L 567.36,756 L 0,756 L 0,0 z " />
    </clipPath>
    <clipPath
       clip-rule="nonzero"
       id="clp11">
      <path
         id="path2351"
         d="M 0,0 L 567.36,0 L 567.36,756 L 0,756 L 0,0 z " />
    </clipPath>
    <clipPath
       clip-rule="nonzero"
       id="clp12">
      <path
         id="path2361"
         d="M 450.04,110.23 L 450.04,74.724 L 535.73,74.724 L 535.73,110.23" />
    </clipPath>
    <clipPath
       clip-rule="nonzero"
       id="clp14">
      <path
         id="path2378"
         d="M 0,0 L 567.36,0 L 567.36,756 L 0,756 L 0,0 z " />
    </clipPath>
    <clipPath
       clip-rule="nonzero"
       id="clp15">
      <path
         id="path2388"
         d="M 0,0 L 567.36,0 L 567.36,756 L 0,756 L 0,0 z " />
    </clipPath>
    <clipPath
       clip-rule="nonzero"
       id="clp16">
      <path
         id="path2398"
         d="M 0,0 L 567.36,0 L 567.36,756 L 0,756 L 0,0 z " />
    </clipPath>
    <clipPath
       id="clp13"
       clip-rule="nonzero">
      <path
         d="M 0,0 L 567.36,0 L 567.36,756 L 0,756 L 0,0 z "
         id="path2368" />
    </clipPath>
    <clipPath
       id="clp4"
       clip-rule="nonzero">
      <path
         d="M 0,0 L 567.36,0 L 567.36,756 L 0,756 L 0,0 z "
         id="path2281" />
    </clipPath>
  </defs>
  <sodipodi:namedview
     id="base"
     pagecolor="#ffffff"
     bordercolor="#666666"
     borderopacity="1.0"
     inkscape:pageopacity="0.0"
     inkscape:pageshadow="2"
     inkscape:zoom="0.35"
     inkscape:cx="350"
     inkscape:cy="520"
     inkscape:document-units="px"
     inkscape:current-layer="layer1"
     inkscape:window-width="925"
     inkscape:window-height="574"
     inkscape:window-x="44"
     inkscape:window-y="44" />
  <metadata
     id="metadata7">
    <rdf:RDF>
      <cc:Work
         rdf:about="">
        <dc:format>image/svg+xml</dc:format>
        <dc:type
           rdf:resource="http://purl.org/dc/dcmitype/StillImage" />
      </cc:Work>
    </rdf:RDF>
  </metadata>
  <g
     inkscape:label="Ebene 1"
     inkscape:groupmode="layer"
     id="layer1"
     transform="translate(-251.0238,-320.3126)">
    <g
       id="g2284">
      <path
         id="path2286"
         class="ps02"
         d="M 994.17436,499.9023 L 994.17436,493.85052 L 998.08447,493.85052 C 1000.2173,493.85052 1002.1723,494.41926 1002.1723,496.83642 C 1002.1723,499.82232 999.59519,499.9023 997.01808,499.9023 L 994.17436,499.9023 z M 994.17436,501.72406 L 997.729,501.72406 L 1002.6166,509.48207 L 1005.1938,509.48207 L 999.95066,501.72406 C 1002.35,501.31527 1004.394,499.92896 1004.394,496.83642 C 1004.394,493.72611 1002.6166,492.02876 998.70653,492.02876 L 991.95271,492.02876 L 991.95271,509.48207 L 994.17436,509.48207 L 994.17436,501.72406 z M 997.46241,485.66595 C 988.93126,485.66595 982.35517,492.27759 982.35517,500.77319 C 982.35517,509.24213 988.93126,515.88043 997.46241,515.88043 C 1005.9936,515.88043 1012.5696,509.24213 1012.5696,500.77319 C 1012.5696,492.27759 1005.9936,485.66595 997.46241,485.66595 M 997.46241,487.81651 C 1004.7494,487.81651 1010.1703,493.5306 1010.1703,500.77319 C 1010.1703,507.98912 1004.7494,513.7121 997.46241,513.7121 C 990.17538,513.7121 984.66569,507.98912 984.66569,500.77319 C 984.66569,493.5306 990.17538,487.81651 997.46241,487.81651"
         style="fill:#221f1f;fill-rule:nonzero;stroke:none" />
      <path
         style="fill:#b6004f;fill-rule:nonzero;stroke:none"
         d="M 508.34328,357.7254 L 495.81316,357.7254 L 495.81316,345.19527 L 508.34328,345.19527 L 508.34328,357.7254 z "
         class="ps03"
         id="path2296" />
      <path
         style="fill:#b6004f;fill-rule:nonzero;stroke:none"
         d="M 508.34328,332.84288 L 495.81316,332.84288 L 495.81316,320.31276 L 508.34328,320.31276 L 508.34328,332.84288 z "
         class="ps03"
         id="path2306" />
      <path
         style="fill:#b6004f;fill-rule:nonzero;stroke:none"
         d="M 623.69151,536.43516 L 628.57914,536.43516 C 632.75585,557.78969 644.21958,575.77619 668.5689,575.77619 C 685.00913,575.77619 698.78338,566.47191 698.78338,549.32075 C 698.78338,530.09012 682.07655,522.45652 666.61384,516.32476 C 647.32989,508.93999 626.89069,498.76481 626.89069,474.65544 C 626.89069,450.54606 645.7303,436.59408 668.74663,436.59408 C 680.38809,436.59408 691.14089,440.61083 700.64957,447.37354 L 705.5372,439.13565 L 707.93659,439.13565 L 708.91411,475.72183 L 704.02648,475.72183 C 699.22771,458.16188 689.2747,442.29928 668.74663,442.29928 C 655.23898,442.29928 644.04185,450.9815 644.04185,464.70243 C 644.04185,481.42703 659.06022,487.15001 672.12354,492.65971 C 694.16234,501.73294 718.68939,512.76123 718.68939,540.44303 C 718.68939,568.15148 692.82935,581.4814 668.12457,581.4814 C 653.72825,581.4814 642.53112,577.25137 631.06739,568.78243 L 626.00202,577.68682 L 623.69151,577.68682 L 623.69151,536.43516"
         class="ps03"
         id="path2316" />
      <path
         style="fill:#b6004f;fill-rule:nonzero;stroke:none"
         d="M 730.86405,448.02226 C 730.86405,441.65945 735.92942,436.59408 742.32778,436.59408 C 748.63727,436.59408 753.52491,441.65945 753.52491,448.02226 C 753.52491,454.15402 748.63727,459.21939 742.68324,459.21939 C 736.37375,459.21939 730.86405,454.57169 730.86405,448.02226 M 753.70264,485.66595 L 753.70264,553.55966 C 754.14697,567.49387 751.83645,573.86557 768.54328,574.91419 L 768.54328,579.17088 C 761.34513,578.93983 753.52491,578.50438 745.88242,578.31777 C 737.61787,578.50438 729.44219,578.93983 721.17764,579.17088 L 721.17764,574.91419 C 736.81808,573.86557 735.57395,568.78243 735.75168,554.81268 L 735.75168,524.58042 C 735.75168,520.56367 735.75168,504.29229 734.86302,501.08422 C 733.44116,495.80557 724.55455,496.22324 720.28898,496.4543 L 720.28898,492.22427 L 753.70264,485.66595"
         class="ps03"
         id="path2326" />
      <path
         style="fill:#b6004f;fill-rule:nonzero;stroke:none"
         d="M 831.1939,519.72833 C 831.1939,506.18514 826.12853,490.5447 810.04376,490.5447 C 793.78126,490.5447 789.33795,506.38064 789.33795,519.72833 C 789.33795,532.4273 794.40332,548.07662 809.68829,548.07662 C 825.95079,548.07662 831.1939,533.44926 831.1939,519.72833 M 816.44212,569.43115 C 838.03659,571.10184 860.78631,571.95495 860.78631,600.33879 C 860.78631,627.15858 835.9038,635.8408 812.79861,635.8408 C 795.29198,635.8408 768.45442,629.72682 768.45442,607.72356 C 768.45442,599.03246 774.94164,590.14585 784.09485,590.14585 C 787.6495,590.14585 790.40435,591.6388 792.8926,593.97598 C 785.96104,595.22899 781.96207,602.40937 781.96207,608.97658 C 781.96207,627.37186 800.71282,630.97983 815.55346,630.97983 C 830.3941,630.97983 846.47887,624.64367 846.47887,607.49251 C 846.47887,586.77782 823.19595,587.84421 808.6219,586.96444 C 794.58105,586.55565 775.38597,586.96444 775.38597,567.94709 C 775.38597,557.78969 784.89465,551.01809 793.95899,549.74731 L 793.95899,549.32075 C 781.69547,545.31289 771.387,533.68031 771.387,520.146 C 771.387,497.70731 790.40435,485.66595 811.11015,485.66595 C 820.88543,485.66595 830.83843,488.62519 838.03659,495.18351 C 843.72402,490.7402 850.83331,486.28801 858.56466,486.28801 C 863.98549,486.28801 871.00592,488.85624 871.00592,495.37013 C 871.00592,499.20915 868.07334,502.35501 863.98549,502.35501 C 857.49827,502.35501 856.78734,494.988 850.30011,494.988 C 847.27866,494.988 843.90175,497.09413 841.59123,498.97809 C 846.6566,504.69219 849.23372,512.09473 849.23372,519.72833 C 849.23372,544.67305 830.3941,551.86232 808.6219,552.92871 C 802.22354,553.14199 785.96104,553.14199 785.96104,561.79755 C 785.96104,569.21787 797.6025,568.36476 802.22354,568.78243 L 816.44212,569.43115"
         class="ps03"
         id="path2336" />
      <path
         style="fill:#b6004f;fill-rule:nonzero;stroke:none"
         d="M 972.40216,553.55966 C 972.40216,567.49387 970.7137,573.86557 987.2428,574.91419 L 987.2428,579.17088 C 979.60032,578.93983 971.7801,578.50438 964.13761,578.31777 C 955.87306,578.50438 947.87511,578.93983 939.61056,579.17088 L 939.61056,574.91419 C 955.5176,573.86557 954.4512,568.78243 954.4512,554.81268 L 954.4512,527.75294 C 954.4512,513.15224 955.07327,492.42866 934.98952,492.42866 C 918.46043,492.42866 907.88536,505.33202 907.88536,520.78584 L 907.88536,553.55966 C 907.88536,567.49387 906.01917,573.86557 922.726,574.91419 L 922.726,579.17088 C 915.08351,578.93983 907.26329,578.50438 899.70967,578.31777 C 891.44513,578.50438 883.35831,578.93983 875.09376,579.17088 L 875.09376,574.91419 C 891.00079,573.86557 889.9344,568.78243 889.9344,554.81268 L 889.9344,528.83711 C 889.9344,522.90085 889.9344,508.08687 888.86801,503.20812 C 887.17955,495.59229 881.49212,496.4543 874.73829,496.4543 L 874.73829,492.22427 C 885.66883,490.9446 893.48905,487.54991 903.88638,485.66595 L 906.64123,504.89658 L 907.08556,504.89658 C 914.46145,491.77994 925.92518,485.66595 940.85469,485.66595 C 961.0273,485.66595 972.40216,494.73918 972.40216,514.84958 L 972.40216,553.55966"
         class="ps03"
         id="path2346" />
      <path
         style="fill:#b6004f;fill-rule:nonzero;stroke:none"
         d="M 472.26364,369.90005 L 460.62218,369.90005 L 460.62218,357.63653 L 472.26364,357.63653 L 472.26364,369.90005 z "
         class="ps03"
         id="path2356" />
      <path
         id="path2373"
         class="ps02"
         d="M 460.62218,381.63038 L 449.24731,381.63038 L 449.24731,393.27184 L 460.62218,393.27184 L 460.62218,381.63038 z M 449.24731,393.27184 L 437.42812,393.27184 L 437.42812,405.09104 L 449.24731,405.09104 L 449.24731,393.27184 z M 407.39137,423.88622 L 419.1217,423.88622 L 419.1217,412.24476 L 407.39137,412.24476 L 407.39137,423.88622 z M 311.77142,587.10662 C 301.72955,563.05057 291.24335,532.89829 258.18515,496.4543 C 243.69998,481.59588 254.27504,472.13164 262.89506,474.7443 C 278.97983,479.97852 299.41903,494.5259 325.72341,531.13874 C 333.01043,512.96562 357.18201,468.26596 366.86842,453.92297 L 375.39957,453.92297 L 375.39957,442.22819 L 383.21978,442.22819 L 383.21978,430.53341 L 394.95011,430.53341 L 394.95011,412.24476 L 407.39137,412.24476 L 407.39137,401.80299 L 417.87757,401.80299 L 417.87757,393.27184 L 437.42812,393.27184 L 437.42812,381.63038 L 425.69779,381.63038 L 425.69779,370.43325 L 437.42812,370.43325 L 437.42812,381.63038 L 449.24731,381.63038 L 449.24731,357.63653 L 460.62218,357.63653 L 460.62218,345.19527 L 483.3719,345.19527 L 483.3719,332.84288 L 495.81316,332.84288 L 495.81316,345.19527 L 483.3719,345.19527 L 483.3719,357.63653 L 460.62218,357.63653 L 460.62218,381.63038 L 472.26364,381.63038 L 472.26364,369.90005 L 485.32696,369.90005 L 485.32696,381.63038 L 472.26364,381.63038 L 472.26364,393.27184 L 460.62218,393.27184 L 460.62218,418.1277 L 450.49144,418.1277 L 450.49144,427.92963 L 440.0941,427.92963 L 440.0941,442.22819 L 430.76316,442.22819 L 430.76316,454.02961 L 419.21056,454.02961 L 419.21056,442.28151 L 407.39137,442.28151 L 407.39137,454.02961 L 419.21056,454.02961 L 419.21056,467.20846 L 407.39137,467.20846 L 407.39137,480.81386 L 397.6161,480.81386 L 397.6161,492.61528 L 388.19629,492.61528 L 388.19629,505.66083 C 370.77853,530.8366 355.93789,561.51318 345.80715,588.8484 C 341.00838,601.76065 317.10339,599.77005 311.77142,587.10662"
         style="fill:#221f1f;fill-rule:nonzero;stroke:none" />
      <path
         style="fill:#221f1f;fill-rule:nonzero;stroke:none"
         d="M 449.33618,516.32476 C 452.71309,516.32476 459.64465,517.39115 459.64465,512.09473 C 459.64465,498.97809 452.44649,490.5447 439.11657,490.5447 C 423.29841,490.5447 416.90004,502.57717 414.41179,516.32476 L 449.33618,516.32476 z M 476.79581,563.51267 C 466.8428,575.77619 455.02361,581.4814 439.11657,581.4814 C 412.90107,581.4814 391.3066,563.06834 391.3066,535.99083 C 391.3066,509.54428 411.39034,485.66595 438.93884,485.66595 C 459.64465,485.66595 479.28406,497.30741 479.28406,520.146 C 479.28406,522.90085 476.17375,522.03885 474.04096,522.03885 L 413.3454,522.03885 L 412.45674,532.21402 C 412.45674,552.30665 423.03181,574.7098 445.69267,574.7098 C 456.44547,574.7098 466.04301,567.49387 472.3525,559.06048 L 476.79581,563.51267"
         class="ps02"
         id="path2383" />
      <path
         style="fill:#221f1f;fill-rule:nonzero;stroke:none"
         d="M 498.03481,528.83711 C 498.03481,523.12302 498.30141,508.08687 496.79069,503.20812 C 494.9245,495.59229 489.59253,496.4543 482.83871,496.4543 L 482.83871,492.22427 C 492.79171,491.56666 502.12265,487.77208 511.4536,485.66595 C 513.31978,491.77994 514.20845,499.39576 513.94185,507.02936 L 514.38618,507.02936 C 519.89588,494.13489 530.47095,485.66595 545.04499,485.66595 C 551.62108,485.66595 560.06336,488.85624 560.06336,496.65869 C 560.06336,500.68432 556.68645,504.29229 552.68748,504.29229 C 543.80086,504.29229 545.66705,493.28178 537.4025,493.28178 C 531.09301,493.28178 524.07259,498.56042 520.96227,503.84796 C 516.07463,512.53906 516.07463,522.90085 516.07463,532.61392 L 516.07463,553.55966 C 516.07463,569.01348 514.38618,574.07885 532.1594,574.91419 L 532.1594,579.17088 C 524.07259,578.93983 515.80804,578.50438 507.81009,578.31777 C 499.54554,578.50438 491.54759,578.93983 483.28304,579.17088 L 483.28304,574.91419 C 499.19007,573.86557 498.03481,568.78243 498.03481,554.81268 L 498.03481,528.83711"
         class="ps02"
         id="path2393" />
      <path
         style="fill:#221f1f;fill-rule:nonzero;stroke:none"
         d="M 576.32586,448.02226 C 576.32586,441.65945 581.39123,436.59408 587.70073,436.59408 C 594.09909,436.59408 598.98672,441.65945 598.98672,448.02226 C 598.98672,454.15402 594.09909,459.21939 588.14506,459.21939 C 581.83556,459.21939 576.32586,454.57169 576.32586,448.02226 M 599.16446,485.66595 L 599.16446,553.55966 C 599.60879,567.49387 597.29827,573.86557 614.0051,574.91419 L 614.0051,579.17088 C 606.80694,578.93983 598.98672,578.50438 591.34424,578.31777 C 583.07969,578.50438 574.81514,578.93983 566.63946,579.17088 L 566.63946,574.91419 C 582.27989,573.86557 580.9469,568.78243 581.2135,554.81268 L 581.2135,524.58042 C 581.2135,520.56367 581.2135,504.29229 580.32484,501.08422 C 578.90298,495.80557 570.01637,496.22324 565.7508,496.4543 L 565.7508,492.22427 L 599.16446,485.66595"
         class="ps02"
         id="path2403" />
    </g>
  </g>
</svg>
