<?xml version="1.0" encoding="UTF-8" standalone="no"?>
<!-- Created with Inkscape (http://www.inkscape.org/) -->
<svg
   xmlns:dc="http://purl.org/dc/elements/1.1/"
   xmlns:cc="http://web.resource.org/cc/"
   xmlns:rdf="http://www.w3.org/1999/02/22-rdf-syntax-ns#"
   xmlns:svg="http://www.w3.org/2000/svg"
   xmlns="http://www.w3.org/2000/svg"
   xmlns:sodipodi="http://sodipodi.sourceforge.net/DTD/sodipodi-0.dtd"
   xmlns:inkscape="http://www.inkscape.org/namespaces/inkscape"
   id="svg2211"
   sodipodi:version="0.32"
   inkscape:version="0.45.1"
   width="726"
   height="123"
   version="1.0"
   sodipodi:docbase="C:\Users\Chris\Desktop\SVGs"
   sodipodi:docname="Viacom logo.svg"
   inkscape:output_extension="org.inkscape.output.svg.inkscape">
  <metadata
     id="metadata2216">
    <rdf:RDF>
      <cc:Work
         rdf:about="">
        <dc:format>image/svg+xml</dc:format>
        <dc:type
           rdf:resource="http://purl.org/dc/dcmitype/StillImage" />
      </cc:Work>
    </rdf:RDF>
  </metadata>
  <defs
     id="defs2214" />
  <sodipodi:namedview
     inkscape:window-height="575"
     inkscape:window-width="765"
     inkscape:pageshadow="2"
     inkscape:pageopacity="0.0"
     guidetolerance="10.0"
     gridtolerance="10.0"
     objecttolerance="10.0"
     borderopacity="1.0"
     bordercolor="#666666"
     pagecolor="#ffffff"
     id="base"
     inkscape:zoom="0.66230387"
     inkscape:cx="223.23676"
     inkscape:cy="54.156391"
     inkscape:window-x="184"
     inkscape:window-y="184"
     inkscape:current-layer="svg2211" />
  <path
     style="fill:#df693b;fill-opacity:1"
     d="M 472,117.43992 C 457.75039,114.36842 443.93203,104.64042 437.79081,93.356974 C 428.65741,76.575921 428.62437,47.712638 437.71904,30.675477 C 441.36611,23.84337 451.28107,13.904738 457.68949,10.657345 C 467.02993,5.9241897 476.23794,4 489.54753,4 C 509.41022,4 520.96092,8.018123 531.79143,18.695308 C 538.80644,25.611013 543.87625,35.144047 546.04657,45.5 C 547.69129,53.347988 547.68594,71.041577 546.03674,78 C 541.18799,98.458254 526.49507,112.66804 505.30259,117.39472 C 496.55313,119.34616 480.94191,119.36735 472,117.43992 z M 504.62698,94.481676 C 510.92321,91.401217 514.95675,86.522724 517.69361,78.677799 C 520.43762,70.812408 520.16057,50.49832 517.20703,43 C 514.3426,35.727928 510.32496,31.028363 504.3746,27.989482 C 500.14181,25.827778 498.18335,25.5 489.5,25.5 C 480.55048,25.5 478.89557,25.796807 473.74614,28.325439 C 464.26683,32.980261 459.52706,41.925897 458.40854,57.272961 C 456.85757,78.553653 464.03937,92.503084 478.67233,96.631905 C 486.17816,98.749744 497.88583,97.779815 504.62698,94.481676 z M 147.31382,116.04977 C 145.56142,114.98126 143.64892,113.21253 143.06382,112.11925 C 142.35076,110.78689 142,92.79961 142,57.565741 L 142,5 L 155,5 L 168,5 L 168,61.5 L 168,118 L 159.25,117.99626 C 152.35059,117.99331 149.82613,117.58164 147.31382,116.04977 z M 223.75145,116.97733 C 207.18442,115.09056 198.22526,107.15886 194.99725,91.520734 C 191.89766,76.504741 198.34162,59.437499 209.20275,53.896567 C 216.92644,49.956234 224.97472,49.035771 251.86522,49.017364 L 277.23045,49 L 276.54195,43.25 C 275.56586,35.098036 273.2684,30.884201 268.5,28.5 C 264.85424,26.677118 261.91144,26.455721 235.27019,26 L 206.04037,25.5 L 203.28944,22.74653 C 200.86962,20.324467 200.4925,19.081763 200.15617,12.421602 L 199.77383,4.8501429 L 237.63692,5.2380891 C 279.13248,5.6632537 281.01906,5.9041361 290.04524,11.929715 C 295.49564,15.568221 299.33136,21.530823 301.40418,29.587104 C 303.51168,37.778234 303.7028,83.650743 301.66481,92.147448 C 298.83224,103.95693 291.27129,112.11957 280.01267,115.5226 C 273.51659,117.4861 236.60026,118.44064 223.75145,116.97733 z M 270.23284,93.203387 C 274.03276,90.958719 275.75803,86.749906 276.57531,77.730828 L 277.27586,70 L 254.88793,70.056442 C 230.60656,70.117658 227.01501,70.709014 223.6909,75.193093 C 219.75306,80.505066 221.557,91.421105 226.81759,94.113362 C 230.0987,95.792564 255.23083,96.881548 262.499,95.659449 C 265.24845,95.197147 268.72868,94.091918 270.23284,93.203387 z M 366.54724,116.88869 C 343.49973,113.53026 328.51742,98.991974 324.40971,76 C 321.13641,57.678388 324.08041,39.748114 332.5372,26.5 C 338.85243,16.606779 345.85307,11.368616 358,7.4476966 C 362.5752,5.9708617 368.25009,5.6003029 391.75,5.2438868 L 420,4.8154276 L 420,11.891937 C 420,18.295478 419.72277,19.279019 417.0848,22.234223 L 414.1696,25.5 L 392.83164,26.005353 C 371.58721,26.508491 371.46739,26.523833 365.49684,29.505353 C 354.89226,34.800969 351,43.380525 351,61.460127 C 351,78.251654 355.66879,88.092452 365.89304,92.851436 C 371.19643,95.319956 372.60991,95.491498 392,96.019825 C 405.4629,96.386652 413.26881,97.004206 414.73965,97.818841 C 418.28134,99.780437 420,104.2341 420,111.45034 L 420,118 L 396.25,117.87806 C 383.1875,117.81099 369.82126,117.36578 366.54724,116.88869 z M 49.082041,114.77998 C 48.591852,113.52599 42.25458,98.325 34.999213,81 C 7.5926048,15.556101 4,6.8572642 4,5.9410668 C 4,5.4033929 9.3342821,5 16.444236,5 C 27.947949,5 29.075893,5.1700529 31.36827,7.25 C 33.707417,9.3723837 36.173765,15.26141 58.194341,71.303987 C 60.961401,78.34618 63.35106,83.97118 63.504695,83.803987 C 63.764074,83.521719 84.700757,34.323815 92.063399,16.695537 C 96.754113,5.464623 97.575595,5 112.74185,5 C 122.32831,5 125.09449,5.2892118 124.69756,6.25 C 123.81033,8.3975544 89.413124,85.077551 79.951582,106 L 75.203276,116.5 L 62.588284,116.77998 C 50.263333,117.05352 49.952801,117.00753 49.082041,114.77998 z M 569,61 L 569,5 L 589.94424,5 C 610.23784,5 610.96812,5.0698967 613.4524,7.25 C 615.87783,9.3784547 619.95851,19.114921 640.76859,72.426125 L 645.42396,84.352251 L 647.81301,78.926125 C 649.12699,75.941756 656.26634,59.1 663.67824,41.5 C 672.44004,20.694568 678.02149,8.712882 679.63297,7.25 C 682.02921,5.0747259 682.77391,5 702.05576,5 L 722,5 L 722,61 L 722,117 L 712.72251,117 C 702.8891,117 700.25683,116.06752 697.75774,111.69872 C 696.8317,110.07986 696.36814,99.192293 696,70.415339 L 695.5,31.330679 L 676.47972,73.915339 L 657.45944,116.5 L 644.85033,116.77898 L 632.24122,117.05795 L 627.28352,105.27898 C 624.55678,98.800539 616.29001,79.034916 608.91291,61.355368 L 595.5,29.210737 L 595,69.355368 C 594.63096,98.985357 594.17057,110.07589 593.24226,111.69872 C 590.74317,116.06752 588.1109,117 578.27749,117 L 569,117 L 569,61 z "
     id="path2222" />
  <path
     style="fill:#000000"
     d=""
     id="path2220" />
</svg>
