<?xml version="1.0" encoding="UTF-8" standalone="no"?>
<!-- Created with Inkscape (http://www.inkscape.org/) -->
<svg
   xmlns:dc="http://purl.org/dc/elements/1.1/"
   xmlns:cc="http://web.resource.org/cc/"
   xmlns:rdf="http://www.w3.org/1999/02/22-rdf-syntax-ns#"
   xmlns:svg="http://www.w3.org/2000/svg"
   xmlns="http://www.w3.org/2000/svg"
   xmlns:sodipodi="http://sodipodi.sourceforge.net/DTD/sodipodi-0.dtd"
   xmlns:inkscape="http://www.inkscape.org/namespaces/inkscape"
   version="1.0"
   width="200"
   height="177.70901"
   id="svg2"
   sodipodi:version="0.32"
   inkscape:version="0.45.1"
   sodipodi:docname="Virgin.svg"
   inkscape:output_extension="org.inkscape.output.svg.inkscape"
   sodipodi:docbase="C:\Users\Kyle J. Goldstein\Desktop">
  <metadata
     id="metadata6">
    <rdf:RDF>
      <cc:Work
         rdf:about="">
        <dc:format>image/svg+xml</dc:format>
        <dc:type
           rdf:resource="http://purl.org/dc/dcmitype/StillImage" />
      </cc:Work>
    </rdf:RDF>
  </metadata>
  <sodipodi:namedview
     inkscape:window-height="750"
     inkscape:window-width="1280"
     inkscape:pageshadow="2"
     inkscape:pageopacity="0.0"
     guidetolerance="10.0"
     gridtolerance="10.0"
     objecttolerance="10.0"
     borderopacity="1.0"
     bordercolor="#666666"
     pagecolor="#ffffff"
     id="base"
     inkscape:zoom="1"
     inkscape:cx="78.664964"
     inkscape:cy="99.562047"
     inkscape:window-x="-8"
     inkscape:window-y="-8"
     inkscape:current-layer="svg2" />
  <defs
     id="defs5" />
  <path
     style="fill:#cc0001;fill-opacity:1;fill-rule:nonzero;stroke:none;stroke-opacity:0"
     d="M 112.29588,175.16014 C 111.40707,173.49945 111.05636,163.44909 111.29776,146.55644 C 111.50243,132.23266 111.48343,120.51383 111.25555,120.51456 C 110.45557,120.51706 95.034205,132.61428 84.338796,141.62928 C 78.395869,146.63848 68.782136,155.69977 62.974924,161.76544 C 51.747141,173.49282 48.903654,174.6858 45.273873,169.19137 C 43.524539,166.54353 43.80716,165.96946 50.213041,159.16024 C 58.662003,150.17909 75.985133,135.51458 95.148701,121.12088 C 109.85065,110.07827 115.77814,103.88128 109.55439,106.06029 C 107.92124,106.63207 104.31936,107.11524 101.5502,107.13399 C 94.453861,107.18207 92.874253,103.87204 93.83447,90.96591 C 94.722849,79.025522 96.008703,75.358727 101.19192,69.985089 C 108.17026,62.75037 114.64597,65.888324 108.70826,73.627296 C 105.55168,77.741432 104.62562,80.5799 103.99381,88.077482 C 103.33328,95.91595 104.58376,98.45434 108.16226,96.539176 C 111.11501,94.958927 112.03319,91.153561 113.08134,76.152796 C 113.88175,64.697676 115.692,60.76879 120.16973,60.76879 C 121.48167,60.76879 122.85524,61.551133 123.22222,62.507338 C 123.58913,63.463539 123.42693,72.61628 122.86184,82.846762 C 122.29667,93.077245 122.16325,101.44764 122.56545,101.44764 C 122.96748,101.44764 127.25914,98.95681 132.10214,95.912463 C 136.94527,92.868122 147.33731,86.769969 155.19559,82.361027 C 166.56583,75.981705 169.19507,73.997406 168.07173,72.643739 C 167.11751,71.494077 166.94256,67.233643 167.53223,59.49968 C 168.49707,46.841158 167.47008,45.28738 161.99229,51.118273 C 159.65849,53.602447 158.98211,56.132245 158.40662,64.531191 C 157.89248,72.030649 157.02234,75.740098 155.24839,77.995346 C 152.70408,81.229825 148.66711,82.107352 147.20622,79.743473 C 146.74215,78.99286 146.77713,72.033595 147.28359,64.278429 C 148.09367,51.881081 148.56313,49.81973 151.17248,47.21057 C 153.08441,45.298529 155.63436,44.243 158.3412,44.243 C 161.07537,44.243 163.0632,43.408988 164.03404,41.854741 C 164.85434,40.541197 167.30212,38.847121 169.4737,38.090134 C 172.83293,36.919094 173.79382,37.085725 175.91523,39.207184 C 178.05786,41.349806 178.40865,43.478367 178.40865,54.337691 C 178.40865,61.288105 178.95925,67.315098 179.63226,67.731004 C 180.30519,68.146915 183.59443,67.113564 186.94163,65.434667 C 190.28896,63.755772 194.11442,62.553148 195.44271,62.762158 C 197.80217,63.133418 199.96084,65.410048 199.9998,67.568245 C 200.04575,70.10783 192.13076,75.566613 185.23414,77.751881 C 181.13054,79.052161 172.3386,83.010708 165.69651,86.54866 C 159.05443,90.086614 152.18987,93.731713 150.4419,94.648879 C 148.69408,95.566049 141.54327,99.908339 134.55185,104.29841 L 121.83965,112.28035 L 121.66101,135.14858 C 121.56286,147.72603 122.09434,161.55288 122.84219,165.87493 C 123.91084,172.05197 123.8477,174.1599 122.54722,175.72694 C 120.14773,178.61799 113.96355,178.27606 112.29588,175.16014 z M 27.89043,158.84765 C 26.98889,157.3888 22.647138,132.67975 19.512969,111.17131 C 16.218049,88.559691 15.519653,87.331239 11.989766,97.938535 C 10.470909,102.50273 8.191355,107.1754 6.9240945,108.32225 C 4.5033856,110.51296 1.0622975,109.99121 0.020156166,107.27545 C -0.47704111,105.97977 8.3500533,78.190505 12.571862,67.760462 C 14.43931,63.146912 18.047385,62.03332 21.132408,65.118347 C 22.126336,66.112269 23.617351,71.403696 24.445757,76.877077 C 25.274185,82.350455 26.868088,91.119026 27.987754,96.362781 C 30.156979,106.52182 30.453461,108.44875 30.921703,115.431 L 31.220091,119.88025 L 32.222347,114.79539 C 32.773594,111.99872 34.182199,104.27609 35.352556,97.633988 C 38.154453,81.732604 45.444593,53.260752 49.537582,42.234032 C 51.333392,37.396048 54.773922,28.014962 57.1832,21.387187 C 62.688902,6.2413844 65.178644,1.9744174 69.370689,0.50015839 C 71.86317,-0.37639461 73.525051,-0.13095761 75.977403,1.4758844 C 80.863805,4.6775864 80.307842,9.6392564 74.239827,16.982388 C 68.74121,23.636482 60.812985,41.669358 56.386223,57.590752 C 54.831057,63.18409 52.489689,70.620698 51.183166,74.116534 C 48.699433,80.762258 46.577871,89.494717 45.609554,97.057804 C 45.295592,99.510035 44.769435,101.9521 44.440334,102.48461 C 44.111212,103.01712 43.526266,106.86297 43.140421,111.03093 C 42.754577,115.19889 42.130804,120.03915 41.754235,121.78706 C 41.37766,123.53498 40.194907,131.54365 39.125896,139.58409 C 36.759911,157.37932 35.829256,159.92354 31.685692,159.92354 C 29.964054,159.92354 28.256189,159.4393 27.89043,158.84765 z M 52.115199,125.91194 C 50.912033,123.96517 53.406355,95.621402 55.051221,92.549139 C 58.282686,86.513384 63.334169,85.534966 64.331418,90.751657 C 65.235504,95.481102 61.829919,122.98399 60.078933,125.09379 C 58.51618,126.97679 53.116179,127.53155 52.115199,125.91194 z M 70.910938,115.30136 C 69.464658,112.96126 71.674742,85.796474 73.549382,82.871266 C 75.028971,80.562501 85.442148,76.023356 89.259043,76.023356 C 89.954524,76.023356 90.905684,77.227382 91.372752,78.698973 C 92.015507,80.724102 91.075762,82.548398 87.507364,86.202765 C 83.030411,90.787584 82.750602,91.573219 81.956248,101.7891 C 81.490172,107.78319 80.356223,113.46723 79.39558,114.62473 C 77.43517,116.9869 72.210168,117.40356 70.910938,115.30136 z M 130.21126,88.230817 C 129.4312,87.290906 129.05313,84.588746 129.37134,82.226027 C 129.6894,79.86331 130.32667,73.414275 130.78734,67.894839 C 131.47971,59.600779 132.1638,57.320584 134.73098,54.753625 C 137.3184,52.166133 138.16226,51.917934 139.78729,53.26652 C 141.1043,54.359658 141.51258,56.150039 141.04407,58.780441 C 140.66266,60.922786 140.2525,67.251982 140.13246,72.845318 C 139.86933,85.109174 139.64636,85.794121 135.16111,88.113425 C 132.21059,89.639255 131.39613,89.658573 130.21126,88.230817 z M 59.452224,75.473357 C 57.273699,73.880383 57.265614,73.611093 59.302945,70.501733 C 62.357666,65.839638 65.879371,64.159354 67.784558,66.454959 C 69.787007,68.867751 68.419587,72.791086 64.734687,75.205524 C 62.235425,76.843108 61.384466,76.886253 59.452224,75.473357 z M 135.18738,41.094271 C 135.18738,37.515393 140.40545,33.364593 143.44037,34.529234 C 148.07687,36.3084 143.59003,44.243 137.9475,44.243 C 135.85768,44.243 135.18738,43.478313 135.18738,41.094271 z "
     id="path2175" />
</svg>
