<?xml version="1.0" encoding="UTF-8" standalone="no"?>
<!-- Created with Inkscape (http://www.inkscape.org/) -->

<svg
   xmlns:dc="http://purl.org/dc/elements/1.1/"
   xmlns:cc="http://creativecommons.org/ns#"
   xmlns:rdf="http://www.w3.org/1999/02/22-rdf-syntax-ns#"
   xmlns:svg="http://www.w3.org/2000/svg"
   xmlns="http://www.w3.org/2000/svg"
   xmlns:sodipodi="http://sodipodi.sourceforge.net/DTD/sodipodi-0.dtd"
   xmlns:inkscape="http://www.inkscape.org/namespaces/inkscape"
   width="187.086"
   height="70.163002"
   id="svg2"
   version="1.1"
   inkscape:version="0.48.4 r9939"
   sodipodi:docname="Vivendi Universal.svg">
  <defs
     id="defs4" />
  <sodipodi:namedview
     id="base"
     pagecolor="#ffffff"
     bordercolor="#666666"
     borderopacity="1.0"
     inkscape:pageopacity="0.0"
     inkscape:pageshadow="2"
     inkscape:zoom="2.8"
     inkscape:cx="42.237283"
     inkscape:cy="13.014753"
     inkscape:document-units="px"
     inkscape:current-layer="g3478"
     showgrid="false"
     inkscape:window-width="1366"
     inkscape:window-height="706"
     inkscape:window-x="-8"
     inkscape:window-y="-8"
     inkscape:window-maximized="1"
     fit-margin-top="0"
     fit-margin-left="0"
     fit-margin-right="0"
     fit-margin-bottom="0" />
  <metadata
     id="metadata7">
    <rdf:RDF>
      <cc:Work
         rdf:about="">
        <dc:format>image/svg+xml</dc:format>
        <dc:type
           rdf:resource="http://purl.org/dc/dcmitype/StillImage" />
        <dc:title></dc:title>
      </cc:Work>
    </rdf:RDF>
  </metadata>
  <g
     inkscape:label="Layer 1"
     inkscape:groupmode="layer"
     id="layer1"
     transform="translate(-8.5998589,-627.99447)">
    <g
       id="g3478"
       transform="translate(5.7648589,566.69847)">
	
	<path
   id="path3482"
   d="m 131.844,82.191 h -8.143 v 39.076 h 7.528 c 4.354,0 7.683,-1.793 10.141,-5.428 2.407,-3.586 3.533,-8.604 3.533,-15.109 0,-5.889 -1.023,-10.396 -3.328,-13.623 -2.202,-3.328 -5.429,-4.916 -9.731,-4.916 l 0,0 z m -2.458,3.278 h 2.151 c 3.124,0 5.121,1.434 6.196,4.302 0.871,2.151 1.281,5.685 1.281,10.704 0,6.146 -0.513,10.5 -1.69,13.213 -1.28,2.869 -3.533,4.252 -6.658,4.252 h -1.28 V 85.469 l 0,0 z"
   style="fill:#d04347;fill-rule:evenodd"
   inkscape:connector-curvature="0" />

	<path
   id="path3484"
   d="m 41.86,82.191 h -5.583 v 36.105 c 0,1.998 1.076,3.074 3.175,3.074 l 3.585,-0.104 v -0.512 l -0.768,-0.973 -0.41,-1.588 V 82.191 l 10e-4,0 z"
   style="fill:#d04347;fill-rule:evenodd"
   inkscape:connector-curvature="0" />

	<path
   id="path3486"
   d="m 156.939,82.191 h -5.583 v 36.105 c 0,1.998 1.076,3.074 3.227,3.074 l 3.534,-0.104 v -0.512 l -0.769,-0.973 -0.409,-1.588 V 82.191 l 0,0 z"
   style="fill:#d04347;fill-rule:evenodd"
   inkscape:connector-curvature="0" />

	<path
   id="path3488"
   d="M 87.799,82.191 H 73.767 v 39.076 h 15.108 v -3.328 h -9.424 v -15.211 l 5.378,0.102 c 0.87,0 1.587,-0.41 2.355,-1.178 l 0.973,-2.1 H 79.45 V 85.469 h 8.348 v -3.278 l 0.001,0 z"
   style="fill:#d04347;fill-rule:evenodd"
   inkscape:connector-curvature="0" />

	<path
   id="path3490"
   d="M 69.26,82.191 H 65.624 L 58.761,110.974 53.742,85.161 C 53.434,83.113 52.257,82.037 50.31,82.037 l -3.841,0.154 v 0.614 c 0.717,0.308 1.28,1.076 1.587,2.458 l 7.272,36.003 h 4.507 l 9.425,-39.075 0,0 z"
   style="fill:#d04347;fill-rule:evenodd"
   inkscape:connector-curvature="0" />

	<path
   id="path3492"
   d="m 115.147,82.191 h -3.533 v 26.99 L 100.808,85.161 99.271,82.908 C 98.657,82.395 97.786,82.037 96.71,82.037 l -3.329,0.154 v 0.614 l 1.178,1.178 c 0.461,0.768 0.666,1.485 0.666,2.355 v 34.928 h 3.534 V 94.073 l 12.547,27.194 h 3.841 V 82.191 l 0,0 z"
   style="fill:#d04347;fill-rule:evenodd"
   inkscape:connector-curvature="0" />

	<path
   id="path3494"
   d="m 5.651,84.086 c 0.717,1.844 1.793,4.712 2.971,8.809 l 7.324,28.373 h 4.456 c 2.919,-16.08 6.453,-28.68 10.755,-37.898 4.456,-9.68 10.346,-16.748 17.669,-21.203 l -0.205,-0.871 c -6.555,1.28 -12.24,5.122 -16.85,11.42 -6.197,8.399 -10.499,20.896 -13.008,37.745 -0.922,-4.404 -2.305,-10.088 -4.251,-16.9 -1.28,-5.838 -2.458,-9.577 -3.534,-11.268 -0.512,-0.973 -1.28,-1.741 -2.151,-2.151 l -2.97,-0.563 -3.022,0.102 v 0.666 c 0.973,0.308 1.792,1.486 2.816,3.739 l 0,0 z"
   style="fill:#d04347;fill-rule:evenodd"
   inkscape:connector-curvature="0" />

	<polygon
   id="polygon3496"
   points="189.921,129.77 73.562,129.77 73.562,131.459 189.921,131.459 189.921,131.459 "
   style="fill:#d04347;fill-rule:evenodd" />

</g>
  </g>
</svg>
