<?xml version="1.0" encoding="UTF-8" standalone="no"?>
<!-- Created with Inkscape (http://www.inkscape.org/) -->

<svg
   xmlns:dc="http://purl.org/dc/elements/1.1/"
   xmlns:cc="http://creativecommons.org/ns#"
   xmlns:rdf="http://www.w3.org/1999/02/22-rdf-syntax-ns#"
   xmlns:svg="http://www.w3.org/2000/svg"
   xmlns="http://www.w3.org/2000/svg"
   xmlns:sodipodi="http://sodipodi.sourceforge.net/DTD/sodipodi-0.dtd"
   xmlns:inkscape="http://www.inkscape.org/namespaces/inkscape"
   width="187.08701"
   height="44.921535"
   id="svg2"
   version="1.1"
   inkscape:version="0.48.4 r9939"
   sodipodi:docname="Tribune Company.svg">
  <defs
     id="defs4" />
  <sodipodi:namedview
     id="base"
     pagecolor="#ffffff"
     bordercolor="#666666"
     borderopacity="1.0"
     inkscape:pageopacity="0.0"
     inkscape:pageshadow="2"
     inkscape:zoom="2.8"
     inkscape:cx="50.837142"
     inkscape:cy="24.362322"
     inkscape:document-units="px"
     inkscape:current-layer="g3381"
     showgrid="false"
     inkscape:window-width="1366"
     inkscape:window-height="706"
     inkscape:window-x="-8"
     inkscape:window-y="-8"
     inkscape:window-maximized="1"
     fit-margin-top="0"
     fit-margin-left="0"
     fit-margin-right="0"
     fit-margin-bottom="0" />
  <metadata
     id="metadata7">
    <rdf:RDF>
      <cc:Work
         rdf:about="">
        <dc:format>image/svg+xml</dc:format>
        <dc:type
           rdf:resource="http://purl.org/dc/dcmitype/StillImage" />
        <dc:title></dc:title>
      </cc:Work>
    </rdf:RDF>
  </metadata>
  <g
     inkscape:label="Layer 1"
     inkscape:groupmode="layer"
     id="layer1"
     transform="translate(-11.456002,-827.40184)">
    <g
       id="g3381"
       transform="translate(8.6220019,753.48419)">
	
	<path
   id="path3385"
   d="m 2.834,78.528 6.403,15.838 h 5.4 l 5.047,-12.299 c 1.954,-4.297 3.798,-7.018 5.535,-8.147 h -1.492 c -2.497,-0.064 -4.667,1.179 -6.485,3.699 -1.303,1.891 -3.12,5.616 -5.372,11.157 L 8.208,78.528 H 2.834 l 0,0 z"
   style="fill:#d73338;fill-rule:evenodd"
   inkscape:connector-curvature="0" />

	<polygon
   id="polygon3387"
   points="28.693,94.39 28.693,78.528 23.999,78.528 23.999,94.39 23.999,94.39 "
   style="fill:#d73338;fill-rule:evenodd" />

	<polygon
   id="polygon3389"
   points="43.807,78.615 40.089,88.888 40.089,88.888 36.426,78.615 31.053,78.615 37.457,94.427 42.748,94.427 49.179,78.615 "
   style="fill:#d73338;fill-rule:evenodd" />

	<polygon
   id="polygon3391"
   points="61.851,84.39 56.315,84.39 56.315,82.465 66.138,82.465 66.138,78.528 51.675,78.528 51.675,94.39 51.675,94.39 66.138,94.39 66.138,90.329 56.315,90.329 56.315,88.092 61.851,88.092 "
   style="fill:#d73338;fill-rule:evenodd" />

	<polygon
   id="polygon3393"
   points="82.092,78.528 82.092,86.839 74.767,78.528 70.126,78.528 70.126,94.39 70.126,94.39 74.359,94.39 74.359,84.739 82.771,94.39 86.271,94.39 86.271,78.528 "
   style="fill:#d73338;fill-rule:evenodd" />

	<path
   id="path3395"
   d="m 99.159,78.553 h -8.738 v 15.863 h 8.412 c 2.578,0 4.613,-0.857 6.105,-2.534 1.303,-1.491 1.98,-3.292 1.98,-5.404 0,-2.458 -0.678,-4.41 -2.063,-5.838 -1.355,-1.38 -3.254,-2.087 -5.696,-2.087 l 0,0 z M 98.372,90.477 H 95.09 V 82.49 h 3.282 c 2.633,0 3.935,1.317 3.935,3.987 0,2.671 -1.302,4 -3.935,4 l 0,0 z"
   style="fill:#d73338;fill-rule:evenodd"
   inkscape:connector-curvature="0" />

	<polygon
   id="polygon3397"
   points="114.625,94.39 114.625,78.528 109.904,78.528 109.904,94.39 109.904,94.39 "
   style="fill:#d73338;fill-rule:evenodd" />

	<path
   id="path3399"
   d="m 43.346,107.309 c 0,1.949 -1.085,2.92 -3.257,2.92 -2.225,0 -3.31,-0.971 -3.31,-2.92 v -8.943 h -4.641 v 8.943 c 0,4.721 2.66,7.082 7.951,7.082 5.292,0 7.923,-2.361 7.923,-7.082 v -8.943 h -4.667 v 8.943 l 10e-4,0 z"
   style="fill:#215aa0;fill-rule:evenodd"
   inkscape:connector-curvature="0" />

	<polygon
   id="polygon3401"
   points="52.028,114.203 56.234,114.203 56.234,104.551 64.699,114.203 68.172,114.203 68.172,114.203 68.172,98.34 64.021,98.34 64.021,106.602 56.723,98.34 52.028,98.34 "
   style="fill:#215aa0;fill-rule:evenodd" />

	<polygon
   id="polygon3403"
   points="76.937,114.203 76.937,98.34 72.243,98.34 72.243,114.203 72.243,114.203 "
   style="fill:#215aa0;fill-rule:evenodd" />

	<polygon
   id="polygon3405"
   points="88.441,108.637 84.779,98.365 84.779,98.365 79.379,98.365 85.81,114.203 91.046,114.203 97.477,98.365 92.105,98.365 "
   style="fill:#215aa0;fill-rule:evenodd" />

	<polygon
   id="polygon3407"
   points="104.722,107.904 110.229,107.904 110.229,104.205 104.722,104.205 104.722,102.279 114.517,102.279 114.517,98.303 114.517,98.303 100.055,98.303 100.055,114.178 114.517,114.178 114.517,110.141 104.722,110.141 "
   style="fill:#215aa0;fill-rule:evenodd" />

	<path
   id="path3409"
   d="m 134.433,103.396 c 0,-1.766 -0.515,-3.068 -1.493,-3.877 -1.003,-0.807 -2.55,-1.217 -4.666,-1.217 h -9.687 v 15.863 h 4.667 v -5.775 h 2.171 l 3.934,5.775 h 5.156 l -3.989,-5.84 c 2.578,-0.868 3.907,-2.507 3.907,-4.929 l 0,0 z m -11.179,1.391 v -2.719 h 4.477 c 1.276,0 1.9,0.457 1.9,1.365 0,0.895 -0.624,1.354 -1.9,1.354 h -4.477 l 0,0 z"
   style="fill:#215aa0;fill-rule:evenodd"
   inkscape:connector-curvature="0" />

	<path
   id="path3411"
   d="m 153.02,99.67 c -0.462,-0.225 -1.329,-0.535 -2.632,-0.895 -2.035,-0.535 -3.88,-0.809 -5.617,-0.809 -2.17,0 -3.88,0.498 -5.182,1.518 -1.276,1.018 -1.899,2.359 -1.899,4.061 0,1.652 0.895,2.832 2.714,3.553 1.085,0.422 2.848,0.744 5.317,0.98 2.307,0.26 3.446,0.535 3.446,0.844 0,1.094 -1.221,1.643 -3.718,1.643 -2.171,0 -4.287,-0.623 -6.322,-1.863 l -0.325,-0.15 -1.71,4.123 0.271,0.125 c 0.407,0.25 1.166,0.535 2.388,0.883 1.872,0.545 3.799,0.807 5.752,0.807 3.256,0 5.563,-0.695 6.919,-2.111 0.869,-0.906 1.303,-2.023 1.303,-3.367 0,-1.951 -0.895,-3.34 -2.741,-4.148 -1.058,-0.434 -2.849,-0.783 -5.344,-1.006 -2.308,-0.186 -3.474,-0.521 -3.474,-0.957 0,-0.707 0.978,-1.055 2.931,-1.055 2.252,0 4.396,0.459 6.376,1.391 l 0.271,0.137 1.573,-3.578 -0.297,-0.126 0,0 z"
   style="fill:#215aa0;fill-rule:evenodd"
   inkscape:connector-curvature="0" />

	<polygon
   id="polygon3413"
   points="145.584,106.314 145.232,106.166 145.232,106.166 145.584,106.289 "
   style="fill:#293896;fill-rule:evenodd" />

	<polygon
   id="polygon3415"
   points="145.584,106.34 145.232,106.215 145.232,106.215 145.232,106.152 "
   style="fill:#293896;fill-rule:evenodd" />

	<path
   id="path3417"
   d="m 158.257,115.137 c 1.302,-1.865 3.119,-5.592 5.372,-11.158 l 3.718,10.225 h 5.346 l -6.432,-15.775 h -5.373 l -5.019,12.234 c -2.008,4.322 -3.854,7.043 -5.563,8.174 h 1.493 c 2.469,0.061 4.639,-1.155 6.458,-3.7 l 0,0 z m 3.39,-6.461 -0.353,-0.125 0.353,0.125 0,0 z"
   style="fill:#215aa0;fill-rule:evenodd"
   inkscape:connector-curvature="0" />

	<polygon
   id="polygon3419"
   points="161.647,108.676 161.295,108.551 161.647,108.676 "
   style="fill:#293896;fill-rule:evenodd" />

	<polygon
   id="polygon3421"
   points="189.921,110.141 189.921,110.141 179.475,110.141 179.475,98.34 174.808,98.34 174.808,114.203 189.921,114.203 "
   style="fill:#215aa0;fill-rule:evenodd" />

</g>
  </g>
</svg>
