<?xml version="1.0" encoding="UTF-8" standalone="no"?>
<svg
   xmlns:dc="http://purl.org/dc/elements/1.1/"
   xmlns:cc="http://creativecommons.org/ns#"
   xmlns:rdf="http://www.w3.org/1999/02/22-rdf-syntax-ns#"
   xmlns:svg="http://www.w3.org/2000/svg"
   xmlns="http://www.w3.org/2000/svg"
   xmlns:sodipodi="http://sodipodi.sourceforge.net/DTD/sodipodi-0.dtd"
   xmlns:inkscape="http://www.inkscape.org/namespaces/inkscape"
   version="1.1"
   id="Layer_1"
   x="0px"
   y="0px"
   width="492"
   height="298"
   viewBox="0 0 492 298"
   enable-background="new 0 0 788 1128"
   xml:space="preserve">
<path
   style="fill:#ffffff"
   id="path4287"
   d="M 50.703727,298 4.25874e-5,247.65927 V 26.456911 C 4.25874e-5,11.757185 11.387793,-3.3320011e-6 26.087519,-3.3320011e-6 H 465.91266 c 14.33029,0 26.08747,11.7571883320011 26.08747,26.4569143320011 V 272.28196 C 492.00013,286.61225 480.24295,298 465.5497,298 H 50.703727"
   clip-path="none" /><path
   style="fill:#ed1c24"
   d="m 488.33816,271.91252 c -0.36943,12.49607 -10.2924,22.41255 -22.78198,22.41255 H 52.174996 L 3.6814555,245.82505 V 26.456911 c 0,-12.496063 9.9100005,-22.4125453 22.4125455,-22.7884642 H 465.91914 c 12.12662,0.3759189 22.41902,10.2924012 22.41902,22.7884642 V 271.91252"
   id="path4289"
   clip-path="none" /><polyline
   style="fill:#ffffff"
   points="620.709,878.73 619.292,882.869 617.875,878.73 616.06,878.73 618.271,884.796 620.256,884.796   622.467,878.73 620.709,878.73 "
   id="polyline4291"
   clip-path="none"
   transform="matrix(6.4813607,0,0,6.4813607,-3917.2177,-5465.3426)" /><path
   style="fill:#ffffff"
   d="m 197.31859,213.85897 v 19.47001 c -3.3055,-2.56662 -7.34987,-4.03789 -11.39423,-4.03789 -11.0248,0 -19.84593,9.18409 -19.84593,20.20889 0,11.38775 8.81465,20.2024 19.84593,20.2024 4.04436,0 8.08873,-1.47127 11.39423,-3.66845 v 3.30549 h 9.91648 v -55.48045 h -9.91648 m -20.57832,35.64101 c 0,-5.8786 4.40732,-10.66184 10.28592,-10.66184 5.87211,0 10.65535,4.77676 10.65535,10.66184 0,5.87211 -4.77676,10.65535 -10.65535,10.65535 -5.8786,0 -10.28592,-4.77676 -10.28592,-10.65535 z"
   id="path4293"
   clip-path="none" /><path
   style="fill:#ffffff"
   d="m 245.45565,230.02349 v 3.30549 c -0.36943,0 -0.36943,0 -0.36943,0 -2.94254,-2.56662 -6.98043,-4.03789 -11.40072,-4.03789 -10.65535,0 -19.47,9.18409 -19.47,20.20889 0,11.38775 8.81465,20.2024 19.47,20.2024 4.42029,0 8.45818,-1.47127 11.76367,-3.66845 v 3.30549 h 9.91648 v -39.30945 h -9.91 m -20.94775,19.47001 c 0,-5.8786 4.77028,-10.66184 10.65535,-10.66184 5.88508,0 10.65536,4.77676 10.65536,10.66184 0,5.87211 -4.77028,10.65535 -10.65536,10.65535 -5.88507,0 -10.65535,-4.77676 -10.65535,-10.65535 z"
   id="path4295"
   clip-path="none" /><path
   style="fill:#ffffff"
   d="m 282.93088,230.02349 h -6.24803 c 0,0 0,-1.47775 0,-2.5731 0,-2.20366 0,-5.50916 4.04437,-5.50916 1.10183,0 1.83422,0 1.83422,0 v -8.82113 c 0,0 -1.47127,0 -2.56662,0 -9.19056,0.36944 -13.22845,3.30549 -13.22845,12.85902 v 4.04437 h -4.77677 v 9.18409 h 4.77677 v 30.12536 h 9.91648 v -30.12536 h 6.24803 v -9.18409"
   id="path4297"
   clip-path="none" /><path
   style="fill:#ffffff"
   d="m 343.92697,233.32898 c 2.94253,-2.56662 6.98042,-4.03789 11.39423,-4.03789 9.18409,0 14.69324,5.8786 14.69324,13.59142 v 26.45691 h -10.28592 v -23.14494 c 0,-5.51564 -4.04436,-7.34986 -7.34986,-7.34986 -2.93606,0 -8.45169,1.47775 -8.08226,8.45169 v 22.04311 h -10.65535 v -39.30945 h 10.28592 v 3.29901"
   id="path4299"
   clip-path="none" /><path
   style="fill:#ffffff"
   d="m 406.39432,245.09265 c -0.73239,-4.41381 -4.77676,-6.98691 -9.18409,-6.98691 -4.77676,0 -8.45169,2.5731 -9.19057,6.98691 h 18.37466 m -18.73761,7.71282 c 0.36295,4.77676 4.40732,8.4517 9.55352,8.4517 4.03789,0 6.61747,-1.47127 8.08226,-4.40733 h 11.02479 c -1.8407,5.87859 -8.45817,12.85254 -18.75057,12.85254 -12.11367,0 -20.57184,-9.18409 -20.57184,-20.2024 0,-11.0248 9.18409,-20.20889 20.57184,-20.20889 11.76367,0 19.85241,9.91649 19.85241,20.20889 0,2.20366 -0.36944,3.30549 -0.36944,3.30549 h -29.39297 z"
   id="path4301"
   clip-path="none" /><path
   style="fill:#ffffff"
   d="m 146.97786,230.39293 c -3.66845,1.10183 -6.24803,4.40732 -6.24803,8.08225 0,0.36944 0,0.36944 0,0.36944 5.87859,1.47775 8.82113,5.13972 8.82113,10.66184 0,5.87211 -4.77676,10.65536 -10.65536,10.65536 -5.88507,0 -11.40071,-5.14621 -11.40071,-12.12663 0,-9.18409 7.34986,-17.26635 18.37466,-17.63578 0.36943,0 0.36943,0 0.73239,0 -2.20366,-1.10183 -4.77676,-1.47775 -7.70634,-1.47775 -11.40071,0 -20.94776,9.18408 -20.94776,20.5848 0,11.01831 9.55353,20.2024 20.94776,20.2024 11.75071,0 21.30424,-9.18409 21.30424,-20.2024 0.006,-8.45818 -5.50916,-15.80804 -13.22198,-19.11353"
   id="path4303"
   clip-path="none" /><path
   style="fill:#ffffff"
   d="m 306.0823,229.29109 c -11.40071,0 -20.94776,8.80817 -20.94776,20.20889 0,8.45169 5.51564,15.80155 12.8655,18.73761 3.66846,-0.73239 6.61099,-4.03789 6.61099,-8.08226 -5.87859,-1.47127 -8.82113,-5.50915 -8.82113,-10.65535 0,-5.8786 4.77676,-10.66184 10.66832,-10.66184 5.87859,0 11.38775,4.77676 11.38775,12.12662 0,9.18409 -7.71282,17.26635 -18.37466,17.63579 -0.36295,0 -0.73239,0 -1.10183,0 2.56662,0.73239 5.1462,1.47775 7.7193,1.47775 11.75071,0 21.30424,-9.19057 21.30424,-20.57832 0,-11.39424 -9.55353,-20.20889 -21.31072,-20.20889"
   id="path4305"
   clip-path="none" /><path
   style="fill:#ffffff"
   d="m 283.66976,33.07438 c -15.80156,3.674932 -27.93467,17.642264 -27.93467,34.539171 0,0.369438 0,1.101832 0,1.477751 25.35508,5.139719 37.84467,22.036626 37.84467,44.449168 0,24.99213 -20.57184,45.56397 -45.55749,45.56397 -24.98564,0 -48.50002,-20.94128 -48.50002,-52.17495 0,-37.84467 32.33551,-73.492153 78.63187,-74.600466 1.10183,0 2.20366,0 3.67493,0.375919 -10.28592,-4.044369 -21.31071,-6.248032 -32.70495,-6.248032 -49.97129,0 -90.0261,38.952978 -90.0261,87.083559 0,48.13707 40.05481,87.09653 90.0261,87.09653 49.60186,0 89.65667,-38.95946 89.65667,-87.09653 0,-36.003955 -22.77551,-67.237632 -55.11101,-80.46609"
   id="path4307"
   clip-path="none" /><polyline
   style="fill:#ffffff"
   points="669.521,878.673 669.295,878.673 669.295,876.916 668.785,876.916 668.785,876.689   670.032,876.689 670.032,876.916 669.521,876.916 669.521,878.673 "
   id="polyline4309"
   clip-path="none"
   transform="matrix(6.4813607,0,0,6.4813607,-3917.2177,-5465.3426)" /><polyline
   style="fill:#ffffff"
   points="670.259,876.689 670.656,876.689 671.052,878.277 671.449,876.689 671.903,876.689   671.903,878.673 671.619,878.673 671.619,876.916 671.166,878.673 670.939,878.673 670.486,876.916 670.486,878.673   670.259,878.673 670.259,876.689 "
   id="polyline4311"
   clip-path="none"
   transform="matrix(6.4813607,0,0,6.4813607,-3917.2177,-5465.3426)" />
</svg>