<?xml version="1.0" encoding="UTF-8" standalone="no"?>
<!-- Created with Inkscape (http://www.inkscape.org/) -->

<svg
   xmlns:dc="http://purl.org/dc/elements/1.1/"
   xmlns:cc="http://creativecommons.org/ns#"
   xmlns:rdf="http://www.w3.org/1999/02/22-rdf-syntax-ns#"
   xmlns:svg="http://www.w3.org/2000/svg"
   xmlns="http://www.w3.org/2000/svg"
   xmlns:sodipodi="http://sodipodi.sourceforge.net/DTD/sodipodi-0.dtd"
   xmlns:inkscape="http://www.inkscape.org/namespaces/inkscape"
   id="svg2985"
   version="1.1"
   inkscape:version="0.48.3.1 r9886"
   width="313"
   height="43"
   sodipodi:docname="1962-1964-logo_129833199191763417_303x43.png">
  <metadata
     id="metadata2991">
    <rdf:RDF>
      <cc:Work
         rdf:about="">
        <dc:format>image/svg+xml</dc:format>
        <dc:type
           rdf:resource="http://purl.org/dc/dcmitype/StillImage" />
        <dc:title></dc:title>
      </cc:Work>
    </rdf:RDF>
  </metadata>
  <defs
     id="defs2989" />
  <sodipodi:namedview
     pagecolor="#ffffff"
     bordercolor="#666666"
     borderopacity="1"
     objecttolerance="10"
     gridtolerance="10"
     guidetolerance="10"
     inkscape:pageopacity="0"
     inkscape:pageshadow="2"
     inkscape:window-width="1366"
     inkscape:window-height="709"
     id="namedview2987"
     showgrid="false"
     showguides="true"
     inkscape:guide-bbox="true"
     inkscape:object-paths="false"
     inkscape:object-nodes="false"
     inkscape:snap-midpoints="false"
     inkscape:snap-bbox="false"
     fit-margin-top="0"
     fit-margin-left="0"
     fit-margin-right="0"
     fit-margin-bottom="0"
     inkscape:zoom="2.6390158"
     inkscape:cx="143.24066"
     inkscape:cy="25.213082"
     inkscape:window-x="-8"
     inkscape:window-y="-8"
     inkscape:window-maximized="1"
     inkscape:current-layer="svg2985" />
  <path
     style="fill:#186ca9;fill-opacity:1;stroke:none"
     d="m 70,0 -12,43 7,0 2.5,-9 12,0 2.5,9 7,0 L 77,0 70,0 z M 73.5,12.53125 77.53125,27 69.46875,27 73.5,12.53125 z"
     id="path3801"
     inkscape:connector-curvature="0" />
  <path
     style="fill:#186ca9;fill-opacity:1;fill-rule:evenodd;stroke:none"
     d="m 105,0 0,36 0,7 7,0 17,0 0,-7 -17,0 0,-36 -7,0 z"
     id="rect3830"
     inkscape:connector-curvature="0" />
  <path
     inkscape:connector-curvature="0"
     style="fill:#186ca9;fill-opacity:1;stroke:none"
     d="m 207,0 -12,43 7,0 2.5,-9 12,0 2.5,9 7,0 -12,-43 -7,0 z M 210.5,12.53125 214.53125,27 206.46875,27 210.5,12.53125 z"
     id="path3801-4" />
  <path
     style="fill:#186ca9;fill-opacity:1;fill-rule:evenodd;stroke:none"
     d="m 145,0 0,43 7,0 0,-36.84375 6,36.84375 5,0 3,0 6,-36.84375 0,36.84375 7,0 0,-43 -6,0 -5,0 -6,36.84375 L 156,0 l -4,0 -1,0 -6,0 z"
     id="rect3859"
     inkscape:connector-curvature="0" />
  <path
     style="fill:#186ca9;fill-opacity:1;stroke:none"
     d="m 0,0 9,43 2,0 5,0 L 22,6.15625 28,43 33,43 35,43 44,0 37,0 30.8125,29.5625 26,0 22,0 18,0 13.1875,29.5625 7,0 0,0 z"
     id="path3903-9"
     inkscape:connector-curvature="0" />
  <path
     style="fill:#186ca9;fill-opacity:1;stroke:none"
     d="m 242.5,0 0,28.09375 0,14.90625 7,0 0,-14.90625 0,-1.09375 0.0312,0 1.4375,0 6.65625,0 6.875,16 7,0 -7.59375,-17.6875 c 2.03394,-0.754082 3.61617,-2.0018 4.78125,-3.71875 1.53708,-2.265191 2.31247,-5.148123 2.3125,-8.625 -3e-5,-2.739297 -0.51711,-5.15296 -1.53125,-7.28125 C 268.45452,3.5592909 267.12512,2.0823808 265.4375,1.25 263.74981,0.41770995 261.03641,4.5852237e-5 257.3125,0 l -7.8125,0 -7,0 z m 7.03125,7.84375 5.5,0 c 2.85235,3.77e-5 4.55451,0.05093 5.125,0.15625 1.14093,0.2528993 2.03028,0.8537711 2.65625,1.8125 0.62591,0.958803 0.93747,2.221971 0.9375,3.78125 -3e-5,1.39077 -0.24338,2.57287 -0.71875,3.5 -0.47542,0.927187 -1.12889,1.558235 -1.96875,1.9375 -0.83987,0.379319 -2.9372,0.593776 -6.3125,0.59375 l -5.21875,0 0,-11.78125 z"
     id="path4022"
     inkscape:connector-curvature="0" />
  <path
     style="fill:#186ca9;fill-opacity:1;stroke:none"
     d="m 285,0 0,7 10.5,0 0,36 7,0 0,-36 10.5,0 0,-7 -10.5,0 -7,0 -10.5,0 z"
     id="path4022-8"
     inkscape:connector-curvature="0" />
</svg>
