<?xml version="1.0" encoding="UTF-8" standalone="no"?>
<!-- Created with Inkscape (http://www.inkscape.org/) -->

<svg
   xmlns:dc="http://purl.org/dc/elements/1.1/"
   xmlns:cc="http://creativecommons.org/ns#"
   xmlns:rdf="http://www.w3.org/1999/02/22-rdf-syntax-ns#"
   xmlns:svg="http://www.w3.org/2000/svg"
   xmlns="http://www.w3.org/2000/svg"
   xmlns:xlink="http://www.w3.org/1999/xlink"
   xmlns:sodipodi="http://sodipodi.sourceforge.net/DTD/sodipodi-0.dtd"
   xmlns:inkscape="http://www.inkscape.org/namespaces/inkscape"
   width="300"
   height="38.552544"
   id="svg2"
   version="1.1"
   inkscape:version="0.48.2 r9819"
   sodipodi:docname="New document 1">
  <defs
     id="defs4">
    <linearGradient
       id="linearGradient4043">
      <stop
         style="stop-color:#050505;stop-opacity:1"
         offset="0"
         id="stop4045" />
      <stop
         id="stop4057"
         offset="0.2"
         style="stop-color:#505153;stop-opacity:1" />
      <stop
         id="stop4055"
         offset="0.40000001"
         style="stop-color:#707175;stop-opacity:1" />
      <stop
         id="stop4053"
         offset="0.60000002"
         style="stop-color:#909195;stop-opacity:1" />
      <stop
         id="stop4051"
         offset="0.80000001"
         style="stop-color:#b0b1b5;stop-opacity:1" />
      <stop
         style="stop-color:#d1d2d4;stop-opacity:1"
         offset="1"
         id="stop4047" />
    </linearGradient>
    <clipPath
       id="clipPath3557"
       clipPathUnits="userSpaceOnUse">
      <path
         id="path3559"
         d="M 0,0 612,0 612,792 0,792 0,0 z"
         inkscape:connector-curvature="0" />
    </clipPath>
    <clipPath
       id="clipPath3369"
       clipPathUnits="userSpaceOnUse">
      <path
         id="path3371"
         d="M 0,0 612,0 612,792 0,792 0,0 z"
         inkscape:connector-curvature="0" />
    </clipPath>
    <clipPath
       id="clipPath3341"
       clipPathUnits="userSpaceOnUse">
      <path
         id="path3343"
         d="M 0,0 612,0 612,792 0,792 0,0 z"
         inkscape:connector-curvature="0" />
    </clipPath>
    <clipPath
       id="clipPath3277"
       clipPathUnits="userSpaceOnUse">
      <path
         id="path3279"
         d="M 0,0 612,0 612,792 0,792 0,0 z"
         inkscape:connector-curvature="0" />
    </clipPath>
    <linearGradient
       id="linearGradient3265"
       spreadMethod="pad"
       gradientTransform="matrix(391.33885,0,0,-391.33885,116.01402,212.19945)"
       gradientUnits="userSpaceOnUse"
       y2="0"
       x2="1"
       y1="0"
       x1="0">
      <stop
         id="stop3267"
         offset="0"
         style="stop-opacity:1;stop-color:#ef3120" />
      <stop
         id="stop3269"
         offset="1"
         style="stop-opacity:1;stop-color:#fab20b" />
    </linearGradient>
    <clipPath
       id="clipPath3245"
       clipPathUnits="userSpaceOnUse">
      <path
         id="path3247"
         d="M 0,0 612,0 612,792 0,792 0,0 z"
         inkscape:connector-curvature="0" />
    </clipPath>
    <linearGradient
       id="linearGradient3135"
       spreadMethod="pad"
       gradientTransform="matrix(151.735,0,0,-151.735,86.3909,182.92)"
       gradientUnits="userSpaceOnUse"
       y2="0"
       x2="1"
       y1="0"
       x1="0">
      <stop
         id="stop3137"
         offset="0"
         style="stop-opacity:1;stop-color:#ef3120" />
      <stop
         id="stop3139"
         offset="1"
         style="stop-opacity:1;stop-color:#fab20b" />
    </linearGradient>
    <clipPath
       id="clipPath3127"
       clipPathUnits="userSpaceOnUse">
      <path
         id="path3129"
         d="M 0,0 612,0 612,792 0,792 0,0 z"
         inkscape:connector-curvature="0" />
    </clipPath>
    <linearGradient
       id="linearGradient3009"
       spreadMethod="pad"
       gradientTransform="matrix(576,0,0,-576,18,18)"
       gradientUnits="userSpaceOnUse"
       y2="0"
       x2="1"
       y1="0"
       x1="0">
      <stop
         id="stop3011"
         offset="0"
         style="stop-opacity:1;stop-color:#ef3120" />
      <stop
         id="stop3013"
         offset="1"
         style="stop-opacity:1;stop-color:#fab20b" />
    </linearGradient>
    <linearGradient
       inkscape:collect="always"
       xlink:href="#linearGradient4043"
       id="linearGradient4049"
       x1="394.02383"
       y1="230.71315"
       x2="570.5116"
       y2="230.71315"
       gradientUnits="userSpaceOnUse" />
    <linearGradient
       inkscape:collect="always"
       xlink:href="#linearGradient4043"
       id="linearGradient4059"
       gradientUnits="userSpaceOnUse"
       x1="394.02383"
       y1="230.71315"
       x2="570.5116"
       y2="230.71315" />
    <linearGradient
       inkscape:collect="always"
       xlink:href="#linearGradient4043"
       id="linearGradient4061"
       gradientUnits="userSpaceOnUse"
       x1="394.02383"
       y1="230.71315"
       x2="570.5116"
       y2="230.71315" />
    <linearGradient
       inkscape:collect="always"
       xlink:href="#linearGradient4043"
       id="linearGradient4063"
       gradientUnits="userSpaceOnUse"
       x1="394.02383"
       y1="230.71315"
       x2="570.5116"
       y2="230.71315" />
    <linearGradient
       inkscape:collect="always"
       xlink:href="#linearGradient4043"
       id="linearGradient4065"
       gradientUnits="userSpaceOnUse"
       x1="394.02383"
       y1="230.71315"
       x2="570.5116"
       y2="230.71315" />
    <linearGradient
       inkscape:collect="always"
       xlink:href="#linearGradient4043"
       id="linearGradient4067"
       gradientUnits="userSpaceOnUse"
       x1="394.02383"
       y1="230.71315"
       x2="570.5116"
       y2="230.71315" />
    <linearGradient
       inkscape:collect="always"
       xlink:href="#linearGradient4043"
       id="linearGradient4069"
       gradientUnits="userSpaceOnUse"
       x1="394.02383"
       y1="230.71315"
       x2="570.5116"
       y2="230.71315" />
    <linearGradient
       inkscape:collect="always"
       xlink:href="#linearGradient4043"
       id="linearGradient4071"
       gradientUnits="userSpaceOnUse"
       x1="394.02383"
       y1="230.71315"
       x2="570.5116"
       y2="230.71315" />
    <linearGradient
       inkscape:collect="always"
       xlink:href="#linearGradient4043"
       id="linearGradient4073"
       gradientUnits="userSpaceOnUse"
       x1="394.02383"
       y1="230.71315"
       x2="570.5116"
       y2="230.71315" />
    <linearGradient
       inkscape:collect="always"
       xlink:href="#linearGradient4043"
       id="linearGradient4075"
       gradientUnits="userSpaceOnUse"
       x1="394.02383"
       y1="230.71315"
       x2="570.5116"
       y2="230.71315" />
    <linearGradient
       inkscape:collect="always"
       xlink:href="#linearGradient4043"
       id="linearGradient4077"
       gradientUnits="userSpaceOnUse"
       x1="394.02383"
       y1="230.71315"
       x2="570.5116"
       y2="230.71315" />
    <linearGradient
       inkscape:collect="always"
       xlink:href="#linearGradient4043"
       id="linearGradient4079"
       gradientUnits="userSpaceOnUse"
       x1="394.02383"
       y1="230.71315"
       x2="570.5116"
       y2="230.71315" />
    <linearGradient
       inkscape:collect="always"
       xlink:href="#linearGradient4043"
       id="linearGradient4081"
       gradientUnits="userSpaceOnUse"
       x1="394.02383"
       y1="230.71315"
       x2="570.5116"
       y2="230.71315" />
    <linearGradient
       inkscape:collect="always"
       xlink:href="#linearGradient4043"
       id="linearGradient4083"
       gradientUnits="userSpaceOnUse"
       x1="394.02383"
       y1="230.71315"
       x2="570.5116"
       y2="230.71315" />
    <linearGradient
       inkscape:collect="always"
       xlink:href="#linearGradient4043"
       id="linearGradient4085"
       gradientUnits="userSpaceOnUse"
       x1="394.02383"
       y1="230.71315"
       x2="570.5116"
       y2="230.71315" />
    <linearGradient
       inkscape:collect="always"
       xlink:href="#linearGradient4043"
       id="linearGradient4087"
       gradientUnits="userSpaceOnUse"
       x1="394.02383"
       y1="230.71315"
       x2="570.5116"
       y2="230.71315" />
  </defs>
  <sodipodi:namedview
     id="base"
     pagecolor="#ffffff"
     bordercolor="#666666"
     borderopacity="1.0"
     inkscape:pageopacity="0.0"
     inkscape:pageshadow="2"
     inkscape:zoom="0.98994949"
     inkscape:cx="382.07653"
     inkscape:cy="45.585015"
     inkscape:document-units="px"
     inkscape:current-layer="g2993"
     showgrid="false"
     fit-margin-left="0.2"
     fit-margin-top="0.2"
     fit-margin-bottom="0.2"
     fit-margin-right="0.2"
     inkscape:window-width="1273"
     inkscape:window-height="1037"
     inkscape:window-x="638"
     inkscape:window-y="-13"
     inkscape:window-maximized="0">
    <inkscape:grid
       type="xygrid"
       id="grid4024"
       empspacing="5"
       visible="true"
       enabled="true"
       snapvisiblegridlinesonly="true" />
  </sodipodi:namedview>
  <metadata
     id="metadata7">
    <rdf:RDF>
      <cc:Work
         rdf:about="">
        <dc:format>image/svg+xml</dc:format>
        <dc:type
           rdf:resource="http://purl.org/dc/dcmitype/StillImage" />
        <dc:title></dc:title>
      </cc:Work>
    </rdf:RDF>
  </metadata>
  <g
     inkscape:label="Layer 1"
     inkscape:groupmode="layer"
     id="layer1"
     transform="translate(-301.2272,-851.23205)">
    <g
       transform="matrix(1.25,0,0,-1.25,-7.5,1027.3622)"
       inkscape:label="FX-NY21737-20121203-2"
       id="g2993">
      <g
         id="g4026"
         transform="matrix(1.357365,0,0,1.357365,-287.64512,-184.39775)"
         style="fill:url(#linearGradient4049);fill-opacity:1">
        <path
           style="fill:url(#linearGradient4059);fill-opacity:1;fill-rule:nonzero;stroke:none"
           d="m 484.40841,234.056 -1.737,-6.875 -2.058,6.849 -3.602,0 -2.007,-6.803 -1.815,6.829 -4.419,0 3.898,-12.463 4.122,0 1.962,7.073 1.959,-7.073 4.143,0 3.849,12.463 -4.295,0 z"
           id="path3889"
           inkscape:connector-curvature="0" />
        <path
           id="path3887"
           d="m 493.45561,234.41476 c -3.228,0 -5.5,-2.137 -5.5,-6.8 0,-4.222 2.124,-6.4 5.3,-6.4 1.763,0 3.18,0.785 4.025,2.25 l 0.3,-1.875 4.025,0 0,12.475 -3.85,0 -0.35,-1.725 c -0.768,1.391 -2.113,2.075 -3.95,2.075 z m 1.2,-3.525 c 1.293,0 2.25,-0.868 2.25,-3.1 0,-2.058 -0.929,-3.025 -2.25,-3.025 -1.413,0 -2.075,0.987 -2.075,3 0,2.233 0.763,3.125 2.075,3.125 z"
           style="fill:url(#linearGradient4061);fill-opacity:1;fill-rule:nonzero;stroke:none"
           inkscape:connector-curvature="0" />
        <path
           style="fill:url(#linearGradient4063);fill-opacity:1;fill-rule:nonzero;stroke:none"
           d="m 510.51841,227.799 c 0,-4.666 2.583,-6.576 6.531,-6.576 2.951,0 4.79,1.117 5.854,3.126 l -3.25,1.863 c -0.347,-0.92 -1.141,-1.441 -2.335,-1.441 -1.638,0 -2.208,1.141 -2.208,3.005 0,2.233 0.82,2.856 2.26,2.856 0.965,0 1.64,-0.325 2.132,-1.368 l 3.278,2.383 c -1.092,1.936 -2.879,2.756 -5.51,2.756 -4.245,0 -6.752,-2.014 -6.752,-6.604"
           id="path3883"
           inkscape:connector-curvature="0" />
        <path
           id="path3881"
           d="m 543.63061,234.41476 c -4.15,0 -6.575,-2.58 -6.575,-6.725 0,-4.367 2.678,-6.475 6.75,-6.475 2.634,0 4.632,0.912 5.675,2.725 l -2.775,1.75 c -0.523,-0.919 -1.307,-1.3 -2.475,-1.3 -1.488,0 -2.426,0.637 -2.65,2.15 l 8.075,0 c 0.073,0.522 0.1,0.954 0.1,1.425 0,3.548 -1.737,6.45 -6.125,6.45 z m -0.05,-3.3 c 1.145,0 1.774,-0.732 1.85,-2.025 l -3.875,0 c 0.15,1.343 0.911,2.025 2.025,2.025 z"
           style="fill:url(#linearGradient4065);fill-opacity:1;fill-rule:nonzero;stroke:none"
           inkscape:connector-curvature="0" />
        <path
           style="fill:url(#linearGradient4067);fill-opacity:1;fill-rule:nonzero;stroke:none"
           d="m 559.61741,230.332 c 0,-2.408 1.811,-3.672 4.147,-4.219 l 1.04,-0.249 c 0.995,-0.223 1.466,-0.397 1.466,-0.894 0,-0.521 -0.521,-0.745 -1.59,-0.745 -1.588,0 -3.028,0.546 -3.748,1.538 l -2.084,-2.231 c 1.069,-1.516 3.152,-2.285 5.81,-2.285 4.295,0 5.832,2.009 5.832,4.12 0,1.837 -1.145,3.253 -3.898,3.871 l -1.44,0.324 c -1.042,0.224 -1.44,0.521 -1.44,0.942 0,0.549 0.596,0.746 1.514,0.746 1.515,0 2.483,-0.597 3.102,-1.34 l 2.238,2.281 c -1.168,1.54 -3.104,2.212 -5.463,2.212 -3.772,0 -5.486,-1.738 -5.486,-4.071"
           id="path3877"
           inkscape:connector-curvature="0" />
        <path
           style="fill:url(#linearGradient4069);fill-opacity:1;fill-rule:nonzero;stroke:none"
           d="m 554.77741,231.647 -0.396,2.409 -3.946,0 0,-12.463 4.814,0 0,4.445 c 0.026,2.41 1.241,4.02 3.898,3.845 l -0.05,4.568 c -1.913,0 -3.476,-1.067 -4.32,-2.804"
           id="path3875"
           inkscape:connector-curvature="0" />
        <path
           style="fill:url(#linearGradient4071);fill-opacity:1;fill-rule:nonzero;stroke:none"
           d="m 502.60541,237.53 0,-11.716 c 0,-3.549 2.235,-4.591 4.895,-4.591 1.413,0 2.606,0.32 3.571,0.893 l -0.619,2.854 c -0.473,-0.249 -0.995,-0.347 -1.539,-0.347 -1.067,0 -1.59,0.569 -1.59,1.663 l 0,4.293 3.03465,0 0,3.477 -3.03465,0 0,3.474 z"
           id="path3873"
           inkscape:connector-curvature="0"
           sodipodi:nodetypes="cssccsscccccc" />
        <path
           style="fill:url(#linearGradient4073);fill-opacity:1;fill-rule:nonzero;stroke:none"
           d="m 523.15541,238.93868 0,-17.34568 4.814,0 0,6.056 c 0.024,1.739 0.894,2.559 2.083,2.559 1.195,0 1.789,-0.571 1.789,-2.481 l 0,-6.134 4.816,0 0,7.845 c 0,2.851 -1.366,4.965 -4.469,4.965 -1.812,0 -3.351,-0.921 -4.219,-2.559 l 0,7.09468 z"
           id="path3871"
           inkscape:connector-curvature="0"
           sodipodi:nodetypes="ccccssccssccc" />
        <path
           style="fill:url(#linearGradient4075);fill-opacity:1;fill-rule:nonzero;stroke:none"
           d="m 409.629,234.02901 -1.737,-6.877 -2.064,6.849 -3.597,0 -2.011,-6.801 -1.812,6.829 -4.419,0 3.898,-12.464 4.121,0 1.96,7.073 1.962,-7.073 4.142,0 3.85,12.464 -4.293,0 z"
           id="path3869"
           inkscape:connector-curvature="0" />
        <path
           style="fill:url(#linearGradient4077);fill-opacity:1;fill-rule:nonzero;stroke:none"
           d="m 426.53053,221.56501 4.816,0 0,12.463 -4.816,0 0,-12.463 z"
           id="path3867"
           inkscape:connector-curvature="0" />
        <path
           inkscape:connector-curvature="0"
           id="path3865"
           d="m 419.5832,234.37777 c -4.141,0 -6.575,-2.555 -6.575,-6.7 0,-4.368 2.676,-6.475 6.75,-6.475 2.633,0 4.63,0.888 5.675,2.7 l -2.775,1.75 c -0.524,-0.92 -1.306,-1.275 -2.475,-1.275 -1.491,0 -2.45,0.612 -2.675,2.125 l 8.1,0 c 0.073,0.522 0.1,0.979 0.1,1.45 0,3.549 -1.728,6.425 -6.125,6.425 z m -0.05,-3.275 c 1.144,0 1.749,-0.758 1.825,-2.05 l -3.875,0 c 0.147,1.342 0.932,2.05 2.05,2.05 z"
           style="fill:url(#linearGradient4079);fill-opacity:1;fill-rule:nonzero;stroke:none" />
        <path
           inkscape:connector-curvature="0"
           id="path3861"
           d="m 437.7582,234.37777 c -3.25,0 -5.5,-2.109 -5.5,-6.375 0,-4.195 2.123,-6.25 5.175,-6.25 1.739,0 2.93,0.684 3.675,1.95 l 0,-0.525 c 0,-1.886 -0.963,-2.8 -2.75,-2.8 -1.126,0 -2.44688,0.49809 -3.27182,1.61118 l -2.49894,-2.34521 c 0.914,-1.596 3.5465,-2.59097 5.97076,-2.59097 4.247,0 7.35,2.005 7.35,6.225 l 0,10.75 -3.875,0 -0.325,-1.725 c -0.795,1.367 -2.187,2.075 -3.95,2.075 z m 1.175,-3.5 c 1.314,0 2.225,-0.963 2.225,-2.775 0,-1.886 -0.86,-2.925 -2.225,-2.925 -1.366,0 -2.1,0.914 -2.1,2.9 0,1.863 0.759,2.8 2.1,2.8 z"
           style="fill:url(#linearGradient4081);fill-opacity:1;fill-rule:nonzero;stroke:none"
           sodipodi:nodetypes="ssscssccsscccssssss" />
        <path
           style="fill:url(#linearGradient4083);fill-opacity:1;fill-rule:nonzero;stroke:none"
           d="m 461.07821,237.50201 0,-11.716 c 0,-3.548 2.234,-4.592 4.893,-4.592 1.413,0 2.605,0.322 3.571,0.894 l -0.619,2.854 c -0.473,-0.248 -0.995,-0.348 -1.539,-0.348 -1.067,0 -1.589,0.569 -1.589,1.664 l 0,4.294 2.95917,0 0,3.477 -2.95917,0 0,3.473 z"
           id="path3857"
           inkscape:connector-curvature="0"
           sodipodi:nodetypes="cssccsscccccc" />
        <path
           style="fill:url(#linearGradient4085);fill-opacity:1;fill-rule:nonzero;stroke:none"
           d="m 446.897,238.94201 0,-17.377 4.813,0 0,6.055 c 0.028,1.74 0.896,2.559 2.088,2.559 1.191,0 1.789,-0.57 1.789,-2.481 l 0,-6.133 4.814,0 0,7.845 c 0,2.851 -1.366,4.965 -4.466,4.965 -1.814,0 -3.352,-0.92 -4.225,-2.559 l 0,7.126 -4.813,0 z"
           id="path3855"
           inkscape:connector-curvature="0" />
        <path
           style="fill:url(#linearGradient4087);fill-opacity:1;fill-rule:nonzero;stroke:none"
           d="m 426.25953,237.18001 c 0,-1.586 0.967,-2.309 2.678,-2.309 1.69,0 2.631,0.723 2.631,2.309 0,1.638 -0.941,2.359 -2.631,2.359 -1.711,0 -2.678,-0.721 -2.678,-2.359"
           id="path3567"
           inkscape:connector-curvature="0" />
      </g>
    </g>
  </g>
</svg>
