<?xml version="1.0" encoding="UTF-8" standalone="no"?>
<!-- Created with Inkscape (http://www.inkscape.org/) -->

<svg
   xmlns:dc="http://purl.org/dc/elements/1.1/"
   xmlns:cc="http://creativecommons.org/ns#"
   xmlns:rdf="http://www.w3.org/1999/02/22-rdf-syntax-ns#"
   xmlns:svg="http://www.w3.org/2000/svg"
   xmlns="http://www.w3.org/2000/svg"
   xmlns:sodipodi="http://sodipodi.sourceforge.net/DTD/sodipodi-0.dtd"
   xmlns:inkscape="http://www.inkscape.org/namespaces/inkscape"
   width="300"
   height="53.027714"
   id="svg2"
   version="1.1"
   inkscape:version="0.48.2 r9819"
   sodipodi:docname="New document 1">
  <defs
     id="defs4">
    <clipPath
       id="clipPath3637"
       clipPathUnits="userSpaceOnUse">
      <path
         id="path3639"
         d="m 0.059998,963.9 1644.120002,0 0,-963.84 -1644.120002,0 0,963.84 z"
         inkscape:connector-curvature="0" />
    </clipPath>
    <clipPath
       id="clipPath3631"
       clipPathUnits="userSpaceOnUse">
      <path
         id="path3633"
         d="m -6.1e-5,963.779 1644.093961,0 0,-963.78 -1644.093961,0 0,963.78 z"
         inkscape:connector-curvature="0" />
    </clipPath>
    <clipPath
       id="clipPath3557"
       clipPathUnits="userSpaceOnUse">
      <path
         id="path3559"
         d="m 265.346,927.557 -210.287,0 0,-36.939 210.287,0 0,36.939 z"
         inkscape:connector-curvature="0" />
    </clipPath>
    <clipPath
       id="clipPath3299"
       clipPathUnits="userSpaceOnUse">
      <path
         id="path3301"
         d="m 0.059998,963.9 1644.120002,0 0,-963.84 -1644.120002,0 0,963.84 z"
         inkscape:connector-curvature="0" />
    </clipPath>
    <clipPath
       id="clipPath3293"
       clipPathUnits="userSpaceOnUse">
      <path
         id="path3295"
         d="m -6.1e-5,963.779 1644.093961,0 0,-963.78 -1644.093961,0 0,963.78 z"
         inkscape:connector-curvature="0" />
    </clipPath>
    <clipPath
       id="clipPath3277"
       clipPathUnits="userSpaceOnUse">
      <path
         id="path3279"
         d="m 1618.203,949.126 -1604.87,0 0,-924.454 1604.87,0 0,924.454 z"
         inkscape:connector-curvature="0" />
    </clipPath>
    <clipPath
       id="clipPath3233"
       clipPathUnits="userSpaceOnUse">
      <path
         id="path3235"
         d="m 0.059998,963.9 1644.120002,0 0,-963.84 -1644.120002,0 0,963.84 z"
         inkscape:connector-curvature="0" />
    </clipPath>
    <clipPath
       id="clipPath3227"
       clipPathUnits="userSpaceOnUse">
      <path
         id="path3229"
         d="m -6.1e-5,963.779 1644.093961,0 0,-963.78 -1644.093961,0 0,963.78 z"
         inkscape:connector-curvature="0" />
    </clipPath>
    <clipPath
       id="clipPath3153"
       clipPathUnits="userSpaceOnUse">
      <path
         id="path3155"
         d="m 863.569,936.29 -210.287,0 0,-36.938 210.287,0 0,36.938 z"
         inkscape:connector-curvature="0" />
    </clipPath>
    <clipPath
       id="clipPath3129"
       clipPathUnits="userSpaceOnUse">
      <path
         id="path3131"
         d="m 0.059998,963.9 1644.120002,0 0,-963.84 -1644.120002,0 0,963.84 z"
         inkscape:connector-curvature="0" />
    </clipPath>
    <clipPath
       id="clipPath3123"
       clipPathUnits="userSpaceOnUse">
      <path
         id="path3125"
         d="m -6.1e-5,963.779 1644.093961,0 0,-963.78 -1644.093961,0 0,963.78 z"
         inkscape:connector-curvature="0" />
    </clipPath>
    <clipPath
       id="clipPath3111"
       clipPathUnits="userSpaceOnUse">
      <path
         id="path3113"
         d="m 0.059998,963.9 1644.120002,0 0,-963.84 -1644.120002,0 0,963.84 z"
         inkscape:connector-curvature="0" />
    </clipPath>
    <clipPath
       id="clipPath3105"
       clipPathUnits="userSpaceOnUse">
      <path
         id="path3107"
         d="m -6.1e-5,963.779 1644.093961,0 0,-963.78 -1644.093961,0 0,963.78 z"
         inkscape:connector-curvature="0" />
    </clipPath>
    <clipPath
       id="clipPath3099"
       clipPathUnits="userSpaceOnUse">
      <path
         id="path3101"
         clip-rule="evenodd"
         d="m 929.901,827.716 301.84,0 0,-352.185 -301.84,0 0,352.185 z"
         inkscape:connector-curvature="0" />
    </clipPath>
    <clipPath
       id="clipPath3089"
       clipPathUnits="userSpaceOnUse">
      <path
         id="path3091"
         d="m 0.059998,963.9 1644.120002,0 0,-963.84 -1644.120002,0 0,963.84 z"
         inkscape:connector-curvature="0" />
    </clipPath>
    <clipPath
       id="clipPath3083"
       clipPathUnits="userSpaceOnUse">
      <path
         id="path3085"
         d="m -6.1e-5,963.779 1644.093961,0 0,-963.78 -1644.093961,0 0,963.78 z"
         inkscape:connector-curvature="0" />
    </clipPath>
    <clipPath
       id="clipPath3071"
       clipPathUnits="userSpaceOnUse">
      <path
         id="path3073"
         d="m 0.059998,963.9 1644.120002,0 0,-963.84 -1644.120002,0 0,963.84 z"
         inkscape:connector-curvature="0" />
    </clipPath>
    <clipPath
       id="clipPath3065"
       clipPathUnits="userSpaceOnUse">
      <path
         id="path3067"
         d="m -6.1e-5,963.779 1644.093961,0 0,-963.78 -1644.093961,0 0,963.78 z"
         inkscape:connector-curvature="0" />
    </clipPath>
    <clipPath
       id="clipPath3059"
       clipPathUnits="userSpaceOnUse">
      <path
         id="path3061"
         clip-rule="evenodd"
         d="m 622.532,827.716 302.842,0 0,-352.169 -302.842,0 0,352.169 z"
         inkscape:connector-curvature="0" />
    </clipPath>
    <clipPath
       id="clipPath3049"
       clipPathUnits="userSpaceOnUse">
      <path
         id="path3051"
         d="m 0.059998,963.9 1644.120002,0 0,-963.84 -1644.120002,0 0,963.84 z"
         inkscape:connector-curvature="0" />
    </clipPath>
    <clipPath
       id="clipPath3043"
       clipPathUnits="userSpaceOnUse">
      <path
         id="path3045"
         d="m -6.1e-5,963.779 1644.093961,0 0,-963.78 -1644.093961,0 0,963.78 z"
         inkscape:connector-curvature="0" />
    </clipPath>
    <clipPath
       id="clipPath3031"
       clipPathUnits="userSpaceOnUse">
      <path
         id="path3033"
         d="m 0.059998,963.9 1644.120002,0 0,-963.84 -1644.120002,0 0,963.84 z"
         inkscape:connector-curvature="0" />
    </clipPath>
    <clipPath
       id="clipPath3025"
       clipPathUnits="userSpaceOnUse">
      <path
         id="path3027"
         d="m -6.1e-5,963.779 1644.093961,0 0,-963.78 -1644.093961,0 0,963.78 z"
         inkscape:connector-curvature="0" />
    </clipPath>
    <clipPath
       id="clipPath3019"
       clipPathUnits="userSpaceOnUse">
      <path
         id="path3021"
         clip-rule="evenodd"
         d="m 622.533,471.922 609.449,0 0,-355.95 -609.449,0 0,355.95 z"
         inkscape:connector-curvature="0" />
    </clipPath>
    <clipPath
       id="clipPath3005"
       clipPathUnits="userSpaceOnUse">
      <path
         id="path3007"
         d="m 0.059998,963.9 1644.120002,0 0,-963.84 -1644.120002,0 0,963.84 z"
         inkscape:connector-curvature="0" />
    </clipPath>
    <clipPath
       id="clipPath2999"
       clipPathUnits="userSpaceOnUse">
      <path
         id="path3001"
         d="m -6.1e-5,963.779 1644.093961,0 0,-963.78 -1644.093961,0 0,963.78 z"
         inkscape:connector-curvature="0" />
    </clipPath>
  </defs>
  <sodipodi:namedview
     id="base"
     pagecolor="#ffffff"
     bordercolor="#666666"
     borderopacity="1.0"
     inkscape:pageopacity="0.0"
     inkscape:pageshadow="2"
     inkscape:zoom="3.959798"
     inkscape:cx="148.26581"
     inkscape:cy="-0.91280522"
     inkscape:document-units="px"
     inkscape:current-layer="layer1"
     showgrid="false"
     fit-margin-left="0.2"
     fit-margin-top="0.2"
     fit-margin-bottom="0.2"
     fit-margin-right="0.2"
     inkscape:window-width="1920"
     inkscape:window-height="1028"
     inkscape:window-x="-8"
     inkscape:window-y="-8"
     inkscape:window-maximized="1" />
  <metadata
     id="metadata7">
    <rdf:RDF>
      <cc:Work
         rdf:about="">
        <dc:format>image/svg+xml</dc:format>
        <dc:type
           rdf:resource="http://purl.org/dc/dcmitype/StillImage" />
        <dc:title></dc:title>
      </cc:Work>
    </rdf:RDF>
  </metadata>
  <g
     inkscape:label="Layer 1"
     inkscape:groupmode="layer"
     id="layer1"
     transform="translate(-139.34479,-134.52212)">
    <g
       transform="matrix(1.4247195,0,0,-1.4247195,-948.41437,827.72583)"
       inkscape:label="WWRSA4Brochurecombined"
       id="g2993">
      <g
         id="g3223">
        <g
           clip-path="url(#clipPath3227)"
           id="g3225" />
      </g>
      <g
         id="g3289">
        <g
           clip-path="url(#clipPath3293)"
           id="g3291">
          <g
             clip-path="url(#clipPath3299)"
             id="g3297" />
        </g>
      </g>
      <g
         transform="translate(893.62643,477.27514)"
         id="g3545">
        <path
           id="path3547"
           style="fill:#00529b;fill-opacity:1;fill-rule:nonzero;stroke:none"
           d="m 0,0 -3.164,0 c 0,0 -5.952,-16.396 -6.067,-16.714 C -9.349,-16.396 -15.476,0 -15.476,0 l -3.279,0 c 0,0 3.068,-7.853 3.086,-7.899 -0.018,-0.046 -3.428,-8.531 -3.545,-8.824 C -19.327,-16.422 -25.506,0 -25.506,0 l -3.324,0 8.197,-20.979 2.48,0 c 0,0 3.724,9.319 3.841,9.608 0.113,-0.289 3.761,-9.608 3.761,-9.608 l 2.484,0 L 0.093,0 0,0"
           inkscape:connector-curvature="0" />
      </g>
      <g
         transform="translate(814.33143,477.27514)"
         id="g3549">
        <path
           id="path3551"
           style="fill:#00529b;fill-opacity:1;fill-rule:nonzero;stroke:none"
           d="m 0,0 -3.164,0 c 0,0 -5.951,-16.396 -6.067,-16.714 C -9.349,-16.396 -15.477,0 -15.477,0 l -3.277,0 c 0,0 3.068,-7.853 3.086,-7.899 -0.018,-0.046 -3.428,-8.531 -3.546,-8.824 C -19.327,-16.422 -25.507,0 -25.507,0 l -3.322,0 8.197,-20.979 2.479,0 c 0,0 3.726,9.319 3.842,9.608 0.113,-0.289 3.76,-9.608 3.76,-9.608 l 2.485,0 L 0.093,0 0,0"
           inkscape:connector-curvature="0" />
      </g>
      <g
         id="g3553"
         transform="translate(708.57143,-441.14286)">
        <g
           clip-path="url(#clipPath3557)"
           id="g3555">
          <g
             transform="translate(65.175,925.805)"
             id="g3561">
            <path
               id="path3563"
               style="fill:#00529b;fill-opacity:1;fill-rule:nonzero;stroke:none"
               d="m 0,0 c -5.737,-2.976 -10.029,-8.963 -10.115,-15.023 -0.046,-3.263 1.304,-6.099 3.703,-7.985 2.927,-2.302 7.178,-2.987 11.662,-1.881 2.881,0.709 5.799,2.248 7.93,4.395 0.13,0.131 0.195,0.244 0.132,0.307 -0.045,0.044 -0.152,0.019 -0.306,-0.067 -1.586,-0.887 -3.246,-1.548 -4.935,-1.965 -4.284,-1.056 -8.325,-0.413 -11.089,1.76 -2.232,1.755 -3.304,4.403 -3.446,7.45 -0.223,4.78 2.355,9.296 6.637,12.752 C 0.31,-0.146 0.45,-0.003 0.378,0.084 0.311,0.165 0.156,0.081 0,0"
               inkscape:connector-curvature="0" />
          </g>
          <g
             transform="translate(70.758,926.217)"
             id="g3565">
            <path
               id="path3567"
               style="fill:#62bb46;fill-opacity:1;fill-rule:nonzero;stroke:none"
               d="m 0,0 c -6.46,-2.898 -10.522,-9.601 -9.055,-14.942 1.028,-3.745 4.48,-5.957 9.008,-5.769 0.042,0.002 0.076,0.033 0.081,0.075 0.005,0.042 -0.022,0.08 -0.062,0.092 -2.758,0.732 -4.663,2.547 -5.366,5.11 -1.392,5.07 2.481,11.44 8.633,14.2 2.631,1.181 5.396,1.555 7.786,1.054 0.04,-0.007 0.082,0.014 0.097,0.051 0.015,0.039 0,0.083 -0.034,0.104 C 8.148,1.786 4.003,1.796 0,0"
               inkscape:connector-curvature="0" />
          </g>
        </g>
      </g>
      <g
         transform="translate(778.86143,478.24314)"
         id="g3569">
        <path
           id="path3571"
           style="fill:#ffd51f;fill-opacity:1;fill-rule:nonzero;stroke:none"
           d="m 0,0 c -2.225,-2.525 -3.218,-6.384 -2.458,-8.689 0.026,-0.078 0.056,-0.128 0.12,-0.124 0.06,0.004 0.053,0.096 0.068,0.175 0.464,2.468 1.646,4.985 3.145,6.648 2.995,3.318 7.925,4.206 10.537,2.045 1.104,-0.915 1.692,-2.128 1.795,-3.802 0.005,-0.083 0.015,-0.163 0.071,-0.17 0.064,-0.007 0.09,0.036 0.114,0.115 0.846,2.642 0.329,4.946 -1.446,6.415 C 9.106,4.965 3.729,4.234 0,0"
           inkscape:connector-curvature="0" />
      </g>
      <g
         transform="translate(932.02943,470.82214)"
         id="g3573">
        <path
           id="path3575"
           style="fill:#00529b;fill-opacity:1;fill-rule:nonzero;stroke:none"
           d="m 0,0 c -1.502,0 -2.685,-0.408 -3.96,-1.541 l 0,7.994 -2.754,0 0,-20.979 2.754,0 0,10.214 c 0.739,1.011 2.182,1.844 3.567,1.844 0.825,0 1.597,-0.313 2.117,-0.91 0.446,-0.52 0.615,-1.207 0.615,-2.714 l 0,-8.434 2.753,0 0,9.282 C 5.092,-2.052 3.047,0 0,0"
           inkscape:connector-curvature="0" />
      </g>
      <g
         transform="translate(851.65843,470.82214)"
         id="g3577">
        <path
           id="path3579"
           style="fill:#00529b;fill-opacity:1;fill-rule:nonzero;stroke:none"
           d="m 0,0 c -1.502,0 -2.684,-0.408 -3.96,-1.541 l 0,7.994 -2.754,0 0,-20.979 2.754,0 0,10.214 c 0.739,1.011 2.182,1.844 3.566,1.844 0.826,0 1.598,-0.313 2.118,-0.91 0.446,-0.52 0.615,-1.207 0.615,-2.714 l 0,-8.434 2.754,0 0,9.282 C 5.093,-2.052 3.047,0 0,0"
           inkscape:connector-curvature="0" />
      </g>
      <g
         transform="translate(866.17543,459.00214)"
         id="g3581">
        <path
           id="path3583"
           style="fill:#00529b;fill-opacity:1;fill-rule:nonzero;stroke:none"
           d="m 0,0 c -0.899,-0.349 -1.415,-0.56 -2.144,-0.56 -1.164,0 -1.573,0.383 -1.573,2.445 l 0,7.307 c 0.013,-0.003 0,0 0,0 l 3.434,0 0,2.212 -3.434,0 c -0.002,0 0.007,-0.002 0,-0.002 l 0,3.861 c 0,10e-4 -2.005,-10e-4 -2.005,-10e-4 0,0.005 -0.041,-0.307 -0.183,-1.874 -0.142,-1.568 -0.527,-2.076 -2.186,-2.076 0.009,0 -0.752,0 -0.752,0 l 0,-2.12 2.341,0 -0.002,-7.095 c 0,-1.805 0.045,-2.324 0.327,-3.087 0.468,-1.258 1.816,-2.006 3.518,-2.006 1.25,0 2.284,0.274 3.381,0.845 L 0,0"
           inkscape:connector-curvature="0" />
      </g>
      <g
         transform="translate(911.57643,459.00214)"
         id="g3585">
        <path
           id="path3587"
           style="fill:#00529b;fill-opacity:1;fill-rule:nonzero;stroke:none"
           d="m 0,0 c -0.901,-0.349 -1.415,-0.56 -2.145,-0.56 -1.164,0 -1.572,0.383 -1.572,2.445 l 0,7.307 c 0.012,-0.003 0,0 0,0 l 3.433,0 0,2.212 -3.433,0 c -0.003,0 0.006,-0.002 0,-0.002 l 0,4.181 c -10e-4,10e-4 -2.135,0 -2.135,0 0.001,0.004 -0.04,-0.628 -0.182,-2.195 C -6.176,11.82 -6.56,11.28 -8.22,11.28 c 0.009,0 -0.72,0 -0.72,0 l 0,-2.088 2.437,0 -0.002,-7.095 c 0,-1.805 0.045,-2.324 0.328,-3.087 0.466,-1.258 1.815,-2.006 3.517,-2.006 1.251,0 2.284,0.274 3.382,0.845 L 0,0"
           inkscape:connector-curvature="0" />
      </g>
      <g
         transform="translate(898.52443,459.33314)"
         id="g3589">
        <path
           id="path3591"
           style="fill:#00529b;fill-opacity:1;fill-rule:nonzero;stroke:none"
           d="m 0,0 c -1.061,-0.672 -2.006,-0.951 -2.882,-0.951 -1.295,0 -2.13,0.586 -2.204,1.717 -0.074,1.17 0.667,2.033 1.638,2.4 C -2.557,3.504 -1.695,3.667 0,3.839 L 0,0 z M 3.025,-0.976 C 2.821,-0.798 2.786,-0.351 2.786,0.305 l 0,5.817 c 0,1.979 -0.055,3.093 -0.952,4.031 -1.008,1.055 -2.169,1.336 -3.66,1.336 -1.63,0 -2.944,-0.271 -4.655,-1.209 l 0,-2.703 C -5.26,8.507 -3.635,9.021 -2.17,9.021 -0.673,9.021 0,8.265 0,6.485 L 0,6.048 C -2.636,5.801 -4.577,5.523 -6.166,4.386 -7.273,3.593 -7.881,2.331 -7.874,0.704 c 0.012,-2.429 1.85,-4.125 4.495,-4.125 1.269,0 2.742,0.407 3.95,1.367 0.452,-0.899 1.254,-1.333 2.385,-1.333 0.478,0 0.836,0.069 1.415,0.273 l 0.28,2.151 C 4.008,-1.199 3.378,-1.283 3.025,-0.976"
           inkscape:connector-curvature="0" />
      </g>
      <g
         transform="translate(922.86143,459.70514)"
         id="g3593">
        <path
           id="path3595"
           style="fill:#00529b;fill-opacity:1;fill-rule:nonzero;stroke:none"
           d="m 0,0 c -0.785,-0.583 -1.985,-1.296 -3.515,-1.296 -2.651,0 -4.503,2.133 -4.503,5.138 0,2.732 1.766,4.746 4.2,4.746 1.409,0 2.496,-0.473 3.513,-1.32 -0.004,0.002 1.478,2.16 1.478,2.16 -1.28,1.143 -3.017,1.689 -4.902,1.689 -4.077,0 -7.151,-3.257 -7.151,-7.575 0,-4.285 2.969,-7.345 7.062,-7.345 2.228,0 3.594,0.667 5.002,1.724 L 0,0"
           inkscape:connector-curvature="0" />
      </g>
      <g
         transform="translate(818.01143,468.38714)"
         id="g3597">
        <path
           id="path3599"
           style="fill:#00529b;fill-opacity:1;fill-rule:nonzero;stroke:none"
           d="m 0,0 c 1.747,0 2.886,-1.03 3.241,-2.767 l -6.717,0 C -2.93,-0.996 -1.73,0 0,0 z m 4.541,-8.221 c -0.706,-0.904 -2.244,-1.812 -3.878,-1.781 -2.588,0.049 -4.407,1.932 -4.407,4.922 l 8.405,0 1.369,1.496 c -0.031,3.563 -2.412,6.019 -5.788,6.019 -3.951,0 -6.818,-3.138 -6.818,-7.51 0,-4.39 2.89,-7.41 7.03,-7.41 2.139,0 4.107,0.763 5.664,2.429 l -1.577,1.835"
           inkscape:connector-curvature="0" />
      </g>
      <g
         transform="translate(960.89443,470.10714)"
         id="g3601">
        <path
           id="path3603"
           style="fill:#00529b;fill-opacity:1;fill-rule:nonzero;stroke:none"
           d="m 0,0 c -0.875,0.466 -1.904,0.715 -2.621,0.715 -1.246,0 -2.207,-0.607 -3.484,-2.404 -0.137,0.814 -0.587,1.802 -1.036,2.404 l -2.382,-1.002 c 0.516,-1.017 1.002,-1.806 1.002,-4.577 l 0,-8.947 2.754,0 0,9.19 c 0.769,1.402 1.784,2.563 2.987,2.714 0.69,0.086 1.269,-0.154 2.032,-0.577 L 0,0"
           inkscape:connector-curvature="0" />
      </g>
      <g
         transform="translate(966.72843,464.59514)"
         id="g3605">
        <path
           id="path3607"
           style="fill:#00529b;fill-opacity:1;fill-rule:nonzero;stroke:none"
           d="m 0,0 c -1.782,0.75 -2.865,1.061 -2.801,2.306 0.053,1.029 0.863,1.537 2.123,1.486 C 0.674,3.736 1.695,3.219 2.418,2.575 2.425,2.569 3.575,4.609 3.575,4.609 2.384,5.625 1.125,6.217 -0.747,6.217 c -2.67,0 -4.8,-1.524 -4.8,-4.245 0,-2.127 1.483,-3.208 3.348,-4.024 1.599,-0.697 3.346,-1.176 3.331,-2.455 -0.013,-1.043 -0.852,-1.719 -2.17,-1.719 -1.156,0 -2.725,0.5 -3.703,1.645 l -1.364,-2.127 c 1.138,-1.278 3.051,-1.985 4.916,-1.985 3.011,0 5.033,1.778 5.033,4.429 C 3.844,-2.304 2.732,-1.152 0,0"
           inkscape:connector-curvature="0" />
      </g>
      <g
         transform="translate(839.93943,465.34314)"
         id="g3609">
        <path
           id="path3611"
           style="fill:#00529b;fill-opacity:1;fill-rule:nonzero;stroke:none"
           d="M 0,0 0,-4.734 C 0,-5.73 -1.428,-6.93 -3.108,-6.93 c -2.501,0 -3.957,1.955 -3.957,5.281 0,3.326 1.872,4.671 3.743,4.671 C -1.481,3.022 0,1.884 0,0 z M 1.245,5.063 C 1.029,4.753 0.797,4.398 0.642,4.127 -0.356,4.998 -1.676,5.479 -3.08,5.479 c -4.205,0 -6.818,-2.858 -6.818,-7.513 0,-4.389 2.635,-7.407 6.774,-7.407 1.135,0 2.375,0.299 3.124,0.989 l 0,-1.05 c -0.014,-2.479 -1.589,-3.898 -3.904,-3.898 -1.327,0 -2.466,0.426 -3.665,1.32 0.004,-10e-4 -1.577,-1.835 -1.577,-1.835 1.439,-1.327 3.381,-1.953 5.281,-1.953 3.973,0 6.514,2.659 6.514,5.65 l 0,10.056 c 0,2.943 0.592,3.451 0.914,4.239 L 1.245,5.063"
           inkscape:connector-curvature="0" />
      </g>
      <g
         transform="translate(945.01743,468.38714)"
         id="g3613">
        <path
           id="path3615"
           style="fill:#00529b;fill-opacity:1;fill-rule:nonzero;stroke:none"
           d="m 0,0 c 1.748,0 2.887,-1.03 3.241,-2.767 l -6.716,0 C -2.928,-0.996 -1.729,0 0,0 z m 4.542,-8.221 c -0.706,-0.904 -2.244,-1.812 -3.877,-1.781 -2.59,0.049 -4.407,1.932 -4.407,4.922 l 8.404,0 1.369,1.496 c -0.033,3.563 -2.413,6.019 -5.788,6.019 -3.95,0 -6.818,-3.138 -6.818,-7.51 0,-4.39 2.891,-7.41 7.028,-7.41 2.14,0 4.109,0.763 5.666,2.429 l -1.577,1.835"
           inkscape:connector-curvature="0" />
      </g>
      <g
         transform="translate(827.01643,473.38314)"
         id="g3617">
        <path
           id="path3619"
           style="fill:#00529b;fill-opacity:1;fill-rule:nonzero;stroke:none"
           d="M 0,0 C 0.947,0 1.715,0.767 1.715,1.714 1.715,2.662 0.947,3.43 0,3.43 -0.947,3.43 -1.716,2.662 -1.716,1.714 -1.716,0.767 -0.947,0 0,0"
           inkscape:connector-curvature="0" />
      </g>
      <path
         id="path3621"
         style="fill:#00529b;fill-opacity:1;fill-rule:nonzero;stroke:none"
         d="m 825.63743,456.29614 2.7542,0 0,14.11 -2.7542,0 0,-14.11 z"
         inkscape:connector-curvature="0" />
      <g
         transform="translate(971.74543,472.17814)"
         id="g3623">
        <path
           id="path3625"
           style="fill:#00529b;fill-opacity:1;fill-rule:nonzero;stroke:none"
           d="m 0,0 0,0.635 0.423,0 C 0.639,0.635 0.869,0.588 0.869,0.334 0.869,0.019 0.634,0 0.371,0 L 0,0 z m 0,-0.263 0.357,0 0.541,-0.889 0.348,0 -0.583,0.903 c 0.301,0.037 0.531,0.197 0.531,0.564 0,0.404 -0.24,0.583 -0.724,0.583 l -0.781,0 0,-2.05 0.311,0 0,0.889 z m 0.376,-1.641 c 0.969,0 1.796,0.752 1.796,1.782 0,1.02 -0.827,1.772 -1.796,1.772 -0.978,0 -1.806,-0.752 -1.806,-1.772 0,-1.03 0.828,-1.782 1.806,-1.782 z m -1.449,1.782 c 0,0.841 0.636,1.476 1.449,1.476 0.804,0 1.439,-0.635 1.439,-1.476 0,-0.856 -0.635,-1.486 -1.439,-1.486 -0.813,0 -1.449,0.63 -1.449,1.486"
           inkscape:connector-curvature="0" />
      </g>
    </g>
  </g>
</svg>
