<?xml version="1.0" encoding="UTF-8" standalone="no"?>
<!-- Created with Inkscape (http://www.inkscape.org/) -->

<svg
   xmlns:dc="http://purl.org/dc/elements/1.1/"
   xmlns:cc="http://creativecommons.org/ns#"
   xmlns:rdf="http://www.w3.org/1999/02/22-rdf-syntax-ns#"
   xmlns:svg="http://www.w3.org/2000/svg"
   xmlns="http://www.w3.org/2000/svg"
   xmlns:sodipodi="http://sodipodi.sourceforge.net/DTD/sodipodi-0.dtd"
   xmlns:inkscape="http://www.inkscape.org/namespaces/inkscape"
   version="1.1"
   width="240"
   height="100"
   id="svg2"
   xml:space="preserve"
   inkscape:version="0.48.2 r9819"
   sodipodi:docname="Weight_Watchers_41368.svg"><sodipodi:namedview
     pagecolor="#ffffff"
     bordercolor="#666666"
     borderopacity="1"
     objecttolerance="10"
     gridtolerance="10"
     guidetolerance="10"
     inkscape:pageopacity="0"
     inkscape:pageshadow="2"
     inkscape:window-width="1366"
     inkscape:window-height="706"
     id="namedview14"
     showgrid="false"
     fit-margin-top="0"
     fit-margin-left="0"
     fit-margin-right="0"
     fit-margin-bottom="0"
     inkscape:zoom="5.15"
     inkscape:cx="120"
     inkscape:cy="50"
     inkscape:window-x="-8"
     inkscape:window-y="-8"
     inkscape:window-maximized="1"
     inkscape:current-layer="svg2" /><metadata
     id="metadata8"><rdf:RDF><cc:Work
         rdf:about=""><dc:format>image/svg+xml</dc:format><dc:type
           rdf:resource="http://purl.org/dc/dcmitype/StillImage" /><dc:title></dc:title></cc:Work></rdf:RDF></metadata><defs
     id="defs6" /><g
     id="g3006"
     transform="translate(-0.7973483,-71.318734)"><path
       style="fill:#ec086d;fill-opacity:1;fill-rule:evenodd;stroke:none"
       id="path16"
       inkscape:connector-curvature="0"
       d="m 146.01625,91.80125 c 5.00625,0.3575 7.8675,-5.365 5.18625,-5.7225 -2.50375,-0.3575 -5.54375,1.60875 -6.08,4.29125 -0.17875,0.715 0.3575,1.43125 0.89375,1.43125" /><path
       style="fill:#ec086d;fill-opacity:1;fill-rule:evenodd;stroke:none"
       id="path18"
       inkscape:connector-curvature="0"
       d="m 229.34125,106.105 c -15.19875,-0.53625 -28.7875,5.00625 -28.7875,2.325 0.17875,-1.96625 5.185,-6.97375 10.0125,-11.44375 6.25875,-0.17875 13.2325,-0.3575 15.55625,-0.3575 3.04,0 0.895,-2.6825 -0.3575,-2.6825 -3.04,0 -7.51,0.17875 -12.3375,0.53625 3.21875,-2.68125 5.7225,-4.8275 5.90125,-5.185 0.715,-0.715 -1.07375,-1.78875 -2.14625,-1.43125 -1.25125,0.5375 -5.185,4.47125 -6.61625,5.90125 -0.3575,0.17875 -0.715,0.53625 -1.25125,1.0725 -3.04,0.18 -6.25875,0.3575 -9.11875,0.71625 -1.07375,0 -2.14625,1.96625 -1.07375,1.96625 0.71625,-0.17875 3.57625,-0.17875 7.1525,-0.3575 -8.04625,6.08 -23.06625,15.55625 -23.06625,11.44375 0,-2.145 8.7625,-8.04625 8.7625,-10.37125 0,-4.29125 -8.0475,-1.43 -15.02,3.93375 2.32375,-3.39625 18.4175,-18.23875 20.5625,-20.74125 1.25125,-1.2525 -0.3575,-2.86125 -1.0725,-2.50375 -1.61,0.715 -7.51,6.25875 -13.76875,12.3375 -9.11875,6.61625 -17.88125,12.16 -25.39125,16.2725 1.96625,-2.14625 4.1125,-4.47125 6.25875,-6.97375 0.715,-0.895 -0.89375,-1.43125 -1.43,-1.61 0,0 -0.17875,0 -0.17875,0.17875 -0.35875,-2.68125 -2.68375,-2.86 -4.11375,-2.68125 -2.32375,0.17875 -8.94,3.2175 -12.695,7.1525 -5.54375,3.21875 -12.69625,6.43625 -15.91375,6.43625 -3.57625,0 -1.9675,-2.68125 1.25125,-5.9 3.93375,-2.145 8.94,-5.18625 10.01375,-7.51 0.17875,-0.5375 -0.715,-1.60875 -1.9675,-1.43125 -0.89375,0 -6.4375,4.1125 -7.8675,5.18625 -4.8275,3.3975 -17.34438,10.37125 -24.13925,10.37125 -2.1455,0 -3.0395,-0.71625 -3.0395,-1.78875 6.61562,-1.43 15.37737,-4.8275 18.0595,-9.47625 2.1455,-3.39875 -1.43063,-4.65 -3.934,-4.47 -7.33113,0.89375 -12.87413,4.6475 -15.73488,8.5825 -0.89412,1.25125 -1.60937,2.5025 -1.96687,3.57625 -1.07325,0.3575 -2.324625,0.3575 -3.397375,0.3575 -1.07275,0 -0.536625,2.145 0.357375,2.145 0.715375,0.17875 1.788125,0 2.860875,-0.17875 0.179125,2.325 1.788495,3.935 5.185495,4.1125 6.4375,0.18 13.232,-2.86 19.49025,-6.07875 -1.2515,2.86125 0.17875,5.185 3.75463,5.185 3.21875,0 10.01375,-2.86125 14.6625,-5.00625 -0.17875,0.53625 -0.17875,1.0725 -0.17875,1.60875 0,1.7875 1.61,2.50375 2.86125,2.50375 1.0725,0 3.21875,-0.17875 5.185,-1.25125 -0.3575,0.3575 -0.715,0.715 -1.0725,1.0725 -1.7875,0.89375 -3.3975,1.60875 -4.8275,2.325 -4.8275,2.145 -15.55625,6.9725 -15.55625,11.44325 0,1.43062 1.0725,2.86087 3.755,2.50287 1.60875,0 5.185,-2.32412 11.265,-7.50975 2.86,-2.50287 6.07875,-5.54262 9.655,-9.29887 6.25875,-3.2175 13.2325,-6.79375 20.20625,-10.7275 -3.755,4.29125 -6.4375,7.8675 -6.4375,9.2975 0,1.2525 0.715,3.21875 4.29125,-0.17875 2.50375,-2.32375 11.44375,-10.37125 15.02,-10.37125 0.715,0 0.89375,0.35875 -2.86125,3.755 -1.25125,1.2525 -2.86125,2.86125 -3.755,4.2925 -1.25125,2.68125 -0.715,5.185 2.325,5.185 3.21875,0.17875 8.5825,-2.50375 16.27125,-7.68875 -0.89375,1.25125 -1.96625,2.86125 -1.96625,4.64875 0,2.50375 2.145,3.21875 4.8275,2.6825 8.40375,-1.60875 20.7425,-3.57625 26.6425,-3.21875 3.3975,0.17875 2.14625,-2.6825 0.89375,-2.6825 z M 117.228,97.70125 c 5.18563,-0.17875 -3.93362,5.90125 -12.874,8.5825 2.1455,-3.755 8.22513,-8.40375 12.874,-8.5825 z m 28.78825,11.08625 c -0.17875,-3.57625 9.4775,-9.4775 12.16,-9.835 1.07125,0 1.60875,0.3575 1.7875,1.61 -0.17875,0.3575 -0.53625,0.715 -0.895,0.89375 -0.17875,0.3575 -1.25125,1.43 -2.32375,2.6825 -5.90125,5.36375 -10.55,6.4375 -10.72875,4.64875 z M 132.785,125.417 c -1.78875,-0.35788 0.17875,-2.68212 4.47,-5.36425 2.32375,-1.252 5.00625,-2.8615 8.225,-4.47025 -5.36375,5.00638 -10.9075,9.65575 -12.695,9.8345" /><path
       style="fill:#ec086d;fill-opacity:1;fill-rule:evenodd;stroke:none"
       id="path20"
       inkscape:connector-curvature="0"
       d="M 30.326625,83.75375 C 31.042,81.60875 46.598125,76.065 57.148,76.065 c 4.2915,-0.17875 9.119625,1.2525 8.940375,6.08 -0.17875,6.4375 -24.8545,24.49625 -24.8545,28.78875 0,8.40363 32.007375,-26.28625 45.418,-26.28625 1.788125,0 2.860875,1.61 2.503375,2.50375 -1.251875,1.9675 -17.34475,18.06 -17.880875,27 -0.357875,3.39812 2.5035,2.86125 6.61575,-0.53625 10.7285,-8.5825 32.006875,-32.5425 46.490255,-32.5425 2.86087,0 4.82837,1.0725 5.00712,2.86 0.17875,0.895 -0.53625,0.895 -1.61,0.3575 -0.53625,-0.17875 -1.7875,-0.3575 -2.8605,-0.3575 -16.62938,0.895 -43.45075,35.76238 -51.139125,35.58363 -3.21925,0 -6.973625,-1.43063 -6.258875,-6.61613 0.536625,-6.07875 8.583,-16.98625 16.45075,-23.96 0.357375,-0.53625 0.17875,-0.89375 -1.43075,-0.17875 -14.483375,6.795 -33.974,26.6425 -40.231875,26.6425 -2.860875,0.17875 -4.649375,-2.14625 -4.47025,-4.2925 C 38.373,103.96 62.334,86.2575 62.334,82.32375 c 0,-0.89375 0.357375,-3.3975 -5.006875,-3.21875 -6.25875,0 -17.166,3.21875 -24.318375,6.61625 -1.788,0.89375 -3.0395,0.17875 -2.682125,-1.9675" /><path
       style="fill:#ec086d;fill-opacity:1;fill-rule:evenodd;stroke:none"
       id="path22"
       inkscape:connector-curvature="0"
       d="m 11.015138,130.78125 c 0.536625,-2.146 16.271987,-7.3315 26.821737,-7.3315 4.112375,-0.17875 9.297875,0.8945 9.119125,5.72212 -0.178625,6.437 -24.8545,24.49713 -24.8545,28.78863 0,8.40375 31.82775,-26.1065 45.238375,-26.1065 1.7885,0 3.04,1.60937 2.682625,2.32475 -1.2515,1.96675 -17.5235,18.4175 -18.060125,27.35787 -0.357375,3.397 2.5035,2.50338 6.61625,-0.71537 10.7285,-8.76163 31.828125,-32.72213 46.490755,-32.72213 2.86075,0 4.82762,1.07275 5.00625,3.0395 0,0.71538 -0.53613,0.71538 -1.60938,0.3575 -0.71525,-0.3575 -1.788,-0.53612 -2.86075,-0.53612 -10.7285,0.53612 -25.748625,15.37737 -37.01375,25.56975 -6.25775,5.72175 -11.264625,10.19187 -13.94725,10.01325 -3.754375,0.35787 -6.973125,-1.43025 -6.25775,-6.61575 0.536125,-6.07963 8.40375,-16.80813 16.2715,-23.961 0.357375,-0.35738 0,-0.8935 -1.43075,-0.17813 -14.483375,6.79438 -33.973625,26.6425 -40.410625,26.6425 -2.86125,0.17875 -4.2915,-2.146 -4.11275,-4.2915 0.536125,-7.15225 24.67575,-24.8545 24.67575,-28.96725 0,-0.894 0.17875,-2.86087 -5.36425,-2.86087 -6.25825,0 -17.166,3.03962 -24.318375,6.437 -1.788075,0.89413 -3.039537,0.17875 -2.682112,-1.96675" /><path
       style="fill:#ec086d;fill-opacity:1;fill-rule:evenodd;stroke:none"
       id="path24"
       inkscape:connector-curvature="0"
       d="m 226.48,157.24512 c -0.715,0 -5.185,0 -9.83375,-0.17875 0.3575,-1.43062 0.715,-2.86075 0.715,-3.39737 0.17875,-4.2915 -1.43,-6.43713 -4.1125,-6.43713 -0.89375,0 -1.60875,0.35751 -2.86,1.25151 -3.39875,2.68212 -6.97375,5.543 -10.1925,7.50975 -2.50375,1.60937 -4.47125,2.146 -5.18625,2.32475 -1.9675,0.17874 -2.6825,-0.35738 -2.50375,-1.78813 0.35875,-2.146 5.18625,-5.90087 5.7225,-7.68887 0.53625,-1.96688 -1.43,-3.21838 -1.9675,-3.3975 -0.3575,-0.17826 -0.8925,-0.35738 -1.25125,-0.71488 0,0 -0.3575,-0.53662 -0.3575,-0.71537 0,-0.894 -0.89375,-1.788 -2.325,-0.35738 -2.68125,3.21825 -14.84125,15.73488 -21.635,15.73488 -0.715,0 -1.61,-0.53663 -2.14625,-1.2515 7.1525,-3.04 13.2325,-7.86763 13.0525,-10.729 -0.3575,-5.72163 -13.23125,-0.71488 -16.27125,8.04687 -0.1775,0.3575 -0.1775,0.89413 -0.3575,1.2515 -0.53625,0.17875 -0.89375,0.53663 -1.43,0.53663 -1.78875,0.71537 -9.4775,2.1455 -5.00625,-2.68213 1.25125,-1.07325 3.9325,-3.3975 5.72125,-5.5435 1.60875,-2.32425 1.60875,-4.82762 -1.25125,-4.291 -2.86125,0.71488 -4.65,1.60888 -9.835,4.649 4.64875,-5.18562 15.02,-12.87462 17.7025,-16.272 0.53625,-0.53612 1.7875,-3.03962 -0.715,-3.03962 -0.895,0 -8.58375,6.97362 -15.915,14.30475 -10.90625,9.11912 -20.92,12.8745 -25.0325,13.94725 -5.54375,1.252 -1.78875,-5.1855 2.68125,-8.76175 4.65,-4.291 6.61625,-2.68213 6.4375,-2.146 -0.3575,0.89412 -0.89375,2.146 0.53625,2.32525 1.43125,0.35737 2.86125,-1.07325 3.04,-3.04013 0,-2.14587 -1.0725,-3.21875 -4.47,-2.86125 -1.78875,0 -5.90125,1.7885 -9.11875,4.64938 -6.61675,3.93362 -11.087,6.61575 -13.59038,7.86775 -2.1455,1.07275 -3.03962,1.07275 -3.03962,-0.17875 0.17875,-1.96675 6.07962,-7.86813 11.44387,-12.8745 5.18613,-0.53613 10.19238,-1.07275 11.62238,-1.43063 2.14625,-0.53625 -0.53625,-2.32425 -1.25125,-2.14562 -1.43125,0.17875 -4.1125,0.3575 -7.1525,0.53662 1.9675,-1.7885 3.57625,-3.21875 4.47,-4.11275 3.04,-3.04 -0.17875,-4.11275 -0.89375,-3.21875 -3.04,2.86138 -5.90075,5.543 -8.58288,7.689 -5.18562,0.35738 -10.54987,0.71525 -13.232,0.53663 -1.96725,0.17862 0.53613,3.0395 2.86088,3.0395 0.71525,0 3.3975,-0.17875 6.61575,-0.35788 -12.15875,9.65575 -20.384375,12.69575 -22.171875,13.41113 -2.146,0.894 -2.32475,0 -2.146,-0.71538 0.536625,-2.68212 6.973625,-9.29787 6.973625,-9.29787 0.35787,-1.25188 -1.2515,-1.7885 -3.040125,-1.07313 -0.894,-1.78812 -2.503375,-1.96687 -4.291,-1.96687 -6.794875,0.17875 -18.23875,7.86775 -18.23875,13.94725 0,1.60887 1.430625,3.3975 4.112375,3.3975 1.7885,0 5.543375,-1.60938 10.729,-5.72213 -0.536625,2.86125 0.71475,4.82813 3.21825,4.82813 4.470125,0.17862 15.02,-6.97363 18.23875,-9.47713 -1.43025,1.60888 -2.68213,3.75488 -3.03963,5.543 -0.53662,3.0395 2.32425,4.11275 5.36425,2.86138 3.21875,-1.43075 7.33113,-4.11288 10.90725,-6.4375 -2.32412,4.11275 -2.32412,8.04637 2.86088,8.04637 3.57625,0 12.69625,-3.93362 19.1325,-8.22512 -2.5025,2.86087 -4.29125,5.1855 -5.00625,6.61625 -0.3575,0.53612 1.25125,2.50287 3.3975,0.35737 2.32375,-2.32475 9.2975,-9.65575 15.735,-11.9805 1.25125,-0.53662 0,1.07275 -0.715,1.60938 -0.35875,0.3575 -4.1125,3.3975 -5.54375,6.07962 -1.43,2.68213 -0.53625,5.1855 3.93375,5.00687 2.325,0 4.8275,-0.53662 7.33125,-1.43074 0.715,1.43074 2.14625,2.5035 5.365,2.5035 6.07875,0 16.27125,-8.40438 21.4575,-13.94725 0.35625,-0.358 1.0725,-1.07288 1.0725,-1.07288 0.715,0.3575 1.43,1.07288 1.43,1.609 0,1.7885 -5.5425,5.00675 -5.9,8.583 -0.5375,5.36425 6.07875,4.11275 8.225,3.57613 2.145,-0.71538 4.29125,-1.96675 6.4375,-3.57613 0.89375,3.04 4.8275,4.47013 7.15125,4.47013 1.9675,0 3.755,-0.71476 4.65,-1.7875 4.29125,0 10.90625,-0.358 11.98,-0.358 1.43,0 0.3575,-1.96675 -0.71625,-1.96675 z m -145.55025,1.2515 c -2.146,1.07325 -2.860875,0 -2.860875,-0.53612 0,-2.86137 7.6885,-9.29838 12.69525,-10.37113 2.32475,-0.71537 3.933625,-0.3575 4.47025,0.17875 -4.827625,5.1855 -12.337875,9.65575 -14.304625,10.7285 z M 177.665,147.58937 c 2.14625,0 -1.43,4.291 -8.76125,7.6885 1.43125,-3.39749 6.08,-7.6885 8.76125,-7.6885 z m 34.69,9.477 c -3.04,-0.17912 -5.365,-0.35787 -7.1525,-1.07325 -0.17875,0 -0.3575,0 -0.3575,0 3.57625,-2.68212 6.4375,-5.54287 7.68875,-5.54287 2.6825,0 1.60875,5.54287 -0.17875,6.61612" /><path
       style="fill:#ec086d;fill-opacity:1;fill-rule:evenodd;stroke:none"
       id="path26"
       inkscape:connector-curvature="0"
       d="m 223.9775,141.86725 c 2.6825,0 5.00625,2.14587 5.00625,5.00675 0,2.86137 -2.32375,5.00638 -5.00625,5.00638 -2.6825,0 -5.00625,-2.14501 -5.00625,-5.00638 0,-2.86088 2.32375,-5.00675 5.00625,-5.00675 z m 0,9.29825 c 2.325,0 4.1125,-1.788 4.1125,-4.2915 0,-2.32463 -1.7875,-4.11225 -4.1125,-4.11225 -2.325,0 -4.1125,1.78762 -4.1125,4.11225 0,2.5035 1.7875,4.2915 4.1125,4.2915 z m -1.9675,-7.15238 2.325,0 c 1.43,0 1.9675,0.53625 1.9675,1.60938 0,1.07275 -0.715,1.43025 -1.43125,1.60937 l 1.60875,2.5035 -0.8925,0 -1.61,-2.5035 -1.07375,0 0,2.5035 -0.89375,0 0,-5.72225 z m 0.89375,2.5035 1.07375,0 c 0.715,0 1.43,0 1.43,-0.89412 0,-0.71525 -0.715,-0.894 -1.25125,-0.894 l -1.2525,0 0,1.78812" /></g></svg>