<?xml version="1.0" encoding="UTF-8" standalone="no"?>
<svg
   xmlns:dc="http://purl.org/dc/elements/1.1/"
   xmlns:cc="http://creativecommons.org/ns#"
   xmlns:rdf="http://www.w3.org/1999/02/22-rdf-syntax-ns#"
   xmlns:svg="http://www.w3.org/2000/svg"
   xmlns="http://www.w3.org/2000/svg"
   xmlns:sodipodi="http://sodipodi.sourceforge.net/DTD/sodipodi-0.dtd"
   xmlns:inkscape="http://www.inkscape.org/namespaces/inkscape"
   version="1.1"
   id="Layer_1"
   x="0px"
   y="0px"
   width="823"
   height="75"
   viewBox="0 0 823 75"
   enable-background="new 0 0 576 756"
   xml:space="preserve">
<polyline
   style="fill:#ffffff"
   points="536.819,693.443 557.027,693.435 551.482,706.664 531.265,706.664 536.819,693.443 "
   id="polyline3"
   transform="matrix(3.6701093,0,0,3.6701093,-1221.35,-2535.4607)" /><path
   style="fill:#00958e"
   d="m 489.69533,9.77478 -17.03298,38.378333 c -3.31044,7.876054 -15.43281,16.075079 -26.49452,16.075079 -6.4337,0 -12.09301,-0.414723 -16.39805,-1.170765 l -4.47019,10.632306 c 6.20248,0.550517 14.32811,1.310229 22.57117,1.310229 38.00031,0 56.20038,-12.617835 60.56047,-22.982224 L 527.09007,9.7711099 h -37.39474"
   id="path5" /><polyline
   style="fill:#00958e"
   points="506.363,693.504 479.407,693.504 473.884,706.638 501.443,706.638 502.487,704.155   485.119,704.155 486.369,701.182 502.204,701.182 503.248,698.698 487.414,698.698 488.563,696.105 505.328,696.105   505.329,696.101 512.605,696.101 508.174,706.638 518.365,706.638 522.796,696.101 532.219,696.101 533.311,693.504   506.363,693.504 "
   id="polyline7"
   transform="matrix(3.6701093,0,0,3.6701093,-1221.35,-2535.4607)" /><polyline
   style="fill:#00275d"
   points="388.367,701.245 404.576,701.245 405.646,698.702 389.436,698.702 390.612,696.048   407.775,696.048 408.834,693.386 381.969,693.386 384.6,690.841 374.448,690.841 364.3,702.124 364.357,693.386 351.121,693.386   343.393,701.685 343.44,693.386 332.783,693.386 335.823,706.832 346.589,706.832 356.09,696.507 356.203,696.507 357.414,706.832   368.067,706.832 380.739,694.576 375.585,706.832 403.798,706.832 404.857,704.169 387.077,704.169 388.367,701.245 "
   id="polyline9"
   transform="matrix(3.6701093,0,0,3.6701093,-1221.35,-2535.4607)" /><path
   style="fill:#00275d"
   d="M 372.31055,9.3417071 C 364.66204,8.8058711 355.7657,8.497582 346.64181,8.497582 c -28.82504,0 -63.95166,3.251717 -68.93934,15.12819 -7.55675,17.957845 62.81025,12.159073 58.9493,21.349026 -1.66256,3.956378 -13.5427,4.811514 -25.69077,4.811514 -15.84753,0 -29.04891,-1.420333 -38.15445,-3.255387 l -7.87606,10.889214 c 12.17009,1.412992 28.54611,2.121323 41.92733,2.121323 31.90793,0 64.65265,-3.464583 70.03303,-16.265924 7.49069,-17.814711 -62.70015,-12.441671 -59.33833,-20.427829 1.80936,-4.316048 17.98721,-4.594977 27.66161,-4.594977 10.91491,0 21.73072,0.704661 30.96105,2.260788 l 0.93587,-1.416662 h 23.92545 l -16.64762,39.593139 h 38.29025 l 16.64762,-39.593139 h 35.40554 L 478.8318,9.3417071 H 372.31055"
   id="path11" /><polyline
   style="fill:#00958e"
   points="556.869,693.443 536.819,693.443 534.385,699.237 556.869,693.443 "
   id="polyline13"
   transform="matrix(3.6701093,0,0,3.6701093,-1221.35,-2535.4607)" /><polyline
   style="fill:#00958e"
   points="542.723,706.664 551.482,706.664 556.983,693.566 542.723,706.664 "
   id="polyline15"
   transform="matrix(3.6701093,0,0,3.6701093,-1221.35,-2535.4607)" /><polyline
   style="fill:#00275d"
   points="550.438,696.997 534.334,699.359 531.265,706.664 542.536,706.664 550.438,696.997 "
   id="polyline17"
   transform="matrix(3.6701093,0,0,3.6701093,-1221.35,-2535.4607)" />
</svg>