<?xml version="1.0" encoding="UTF-8" standalone="no"?>
<!-- Created with Inkscape (http://www.inkscape.org/) -->

<svg
   xmlns:dc="http://purl.org/dc/elements/1.1/"
   xmlns:cc="http://creativecommons.org/ns#"
   xmlns:rdf="http://www.w3.org/1999/02/22-rdf-syntax-ns#"
   xmlns:svg="http://www.w3.org/2000/svg"
   xmlns="http://www.w3.org/2000/svg"
   xmlns:sodipodi="http://sodipodi.sourceforge.net/DTD/sodipodi-0.dtd"
   xmlns:inkscape="http://www.inkscape.org/namespaces/inkscape"
   id="svg2985"
   version="1.1"
   inkscape:version="0.48.2 r9819"
   width="1000"
   height="304.74677"
   xml:space="preserve"
   sodipodi:docname="WHSmith_NoM_2012.pdf"><metadata
     id="metadata2991"><rdf:RDF><cc:Work
         rdf:about=""><dc:format>image/svg+xml</dc:format><dc:type
           rdf:resource="http://purl.org/dc/dcmitype/StillImage" /><dc:title></dc:title></cc:Work></rdf:RDF></metadata><defs
     id="defs2989"><clipPath
       clipPathUnits="userSpaceOnUse"
       id="clipPath3001"><path
         d="m 0,841.89 595.276,0 L 595.276,0 0,0 0,841.89 z"
         id="path3003"
         inkscape:connector-curvature="0" /></clipPath><clipPath
       clipPathUnits="userSpaceOnUse"
       id="clipPath3027"><path
         d="m 0,0 595.276,0 0,841.89 L 0,841.89 0,0 z"
         id="path3029"
         inkscape:connector-curvature="0" /></clipPath><clipPath
       clipPathUnits="userSpaceOnUse"
       id="clipPath3061"><path
         d="m 0,0 595.276,0 0,841.89 L 0,841.89 0,0 z"
         id="path3063"
         inkscape:connector-curvature="0" /></clipPath><clipPath
       clipPathUnits="userSpaceOnUse"
       id="clipPath3099"><path
         d="m 0,0 595.276,0 0,841.89 L 0,841.89 0,0 z"
         id="path3101"
         inkscape:connector-curvature="0" /></clipPath></defs><sodipodi:namedview
     pagecolor="#ffffff"
     bordercolor="#666666"
     borderopacity="1"
     objecttolerance="10"
     gridtolerance="10"
     guidetolerance="10"
     inkscape:pageopacity="0"
     inkscape:pageshadow="2"
     inkscape:window-width="1920"
     inkscape:window-height="1028"
     id="namedview2987"
     showgrid="false"
     fit-margin-top="0"
     fit-margin-left="0"
     fit-margin-right="0"
     fit-margin-bottom="0"
     inkscape:zoom="0.22425732"
     inkscape:cx="764.96526"
     inkscape:cy="-311.15681"
     inkscape:window-x="-8"
     inkscape:window-y="-8"
     inkscape:window-maximized="1"
     inkscape:current-layer="g2993" /><g
     id="g2993"
     inkscape:groupmode="layer"
     inkscape:label="WHSmith_NoM_2012"
     transform="matrix(1.25,0,0,-1.25,-63.779989,1272.5905)"><g
       id="g3107"
       transform="matrix(6.6914809,0,0,6.6914809,-290.40213,-4406.7714)"><path
         id="path3021"
         style="fill:#00539b;fill-opacity:1;fill-rule:nonzero;stroke:none"
         d="m 51.024,774.275 119.555,0 0,36.434 -119.555,0 0,-36.434 z"
         inkscape:connector-curvature="0" /><g
         id="g3023"><g
           clip-path="url(#clipPath3027)"
           id="g3025"><g
             transform="translate(81.7688,796.0494)"
             id="g3031"><path
               id="path3033"
               style="fill:#ffffff;fill-opacity:1;fill-rule:nonzero;stroke:none"
               d="M 0,0 C 0.485,1.648 0.887,2.688 1.206,3.122 1.524,3.556 2.01,3.797 2.662,3.844 l 0,0.549 -4.417,0 0,-0.549 c 1.122,0 1.683,-0.525 1.683,-1.576 0,-0.358 -0.163,-1.118 -0.489,-2.28 l -2.471,-8.596 -4.752,13.001 -0.669,0 -4.226,-13.001 -2.889,9.432 c -0.334,1.082 -0.501,1.755 -0.501,2.017 0,0.295 0.103,0.524 0.31,0.687 0.207,0.163 0.676,0.269 1.409,0.316 l 0,0.549 -6.077,0 0,-0.549 c 0.581,-0.024 0.997,-0.125 1.248,-0.304 0.25,-0.179 0.453,-0.458 0.608,-0.836 0.156,-0.378 0.408,-1.14 0.758,-2.286 l 3.904,-12.607 0.574,0 4.309,13.347 4.931,-13.347 0.537,0 L 0,0 z m 15.307,-7.581 c 0,-1.353 -0.036,-2.215 -0.108,-2.585 -0.071,-0.37 -0.24,-0.643 -0.507,-0.818 -0.267,-0.175 -0.742,-0.262 -1.427,-0.262 l -0.561,0 0,-0.549 7.366,0 0,0.549 -0.37,0 c -0.724,0 -1.218,0.095 -1.48,0.286 -0.263,0.191 -0.424,0.484 -0.484,0.878 -0.059,0.394 -0.089,1.227 -0.089,2.501 l 0,7.939 c 0,1.345 0.042,2.197 0.125,2.555 0.084,0.358 0.249,0.603 0.496,0.734 0.246,0.132 0.768,0.197 1.564,0.197 l 0.238,0 0,0.549 -7.366,0 0,-0.549 0.43,0 c 0.82,0 1.351,-0.071 1.594,-0.215 0.242,-0.143 0.4,-0.402 0.471,-0.776 0.072,-0.374 0.108,-1.205 0.108,-2.495 l 0,-3.211 -8.453,0 0,3.211 c 0,1.345 0.042,2.197 0.126,2.555 0.083,0.358 0.248,0.603 0.495,0.734 0.247,0.132 0.764,0.197 1.552,0.197 l 0.299,0 0,0.549 -7.283,0 0,-0.549 0.298,0 c 0.82,0 1.351,-0.071 1.594,-0.215 C 4.178,3.486 4.337,3.227 4.413,2.853 4.488,2.479 4.526,1.648 4.526,0.358 l 0,-7.939 c 0,-1.353 -0.038,-2.215 -0.113,-2.585 -0.076,-0.37 -0.247,-0.643 -0.514,-0.818 -0.266,-0.175 -0.746,-0.262 -1.438,-0.262 l -0.418,0 0,-0.549 7.283,0 0,0.549 -0.418,0 c -0.725,0 -1.216,0.095 -1.475,0.286 -0.259,0.191 -0.42,0.484 -0.483,0.878 -0.064,0.394 -0.096,1.227 -0.096,2.501 l 0,3.904 8.453,0 0,-3.904 z m 7.813,-4.047 c 0.127,0.676 0.322,1.201 0.585,1.576 1.186,-1.361 2.666,-2.042 4.441,-2.042 1.544,0 2.778,0.434 3.701,1.301 0.923,0.868 1.385,1.994 1.385,3.379 0,0.876 -0.191,1.648 -0.573,2.316 -0.382,0.669 -0.89,1.192 -1.522,1.57 -0.633,0.378 -1.646,0.878 -3.039,1.498 -1.456,0.653 -2.463,1.242 -3.02,1.767 -0.565,0.518 -0.848,1.15 -0.848,1.899 0,0.62 0.225,1.191 0.675,1.713 0.449,0.521 1.156,0.782 2.119,0.782 1.01,0 1.9,-0.354 2.668,-1.063 0.768,-0.708 1.303,-1.679 1.606,-2.913 l 0.525,0 0,4.238 -0.525,0 C 31.25,3.884 31.043,3.41 30.677,2.973 30.04,3.673 29.419,4.135 28.815,4.358 28.21,4.58 27.565,4.692 26.88,4.692 c -1.225,0 -2.238,-0.384 -3.038,-1.152 -0.8,-0.768 -1.2,-1.729 -1.2,-2.883 0,-0.757 0.185,-1.469 0.555,-2.137 0.371,-0.669 0.886,-1.212 1.546,-1.63 0.661,-0.418 1.64,-0.906 2.937,-1.463 1.457,-0.62 2.46,-1.201 3.009,-1.743 0.549,-0.549 0.824,-1.229 0.824,-2.041 0,-0.804 -0.313,-1.53 -0.937,-2.179 -0.625,-0.649 -1.507,-0.973 -2.645,-0.973 -2.531,0 -4.135,1.695 -4.811,5.086 l -0.597,0 0,-5.205 0.597,0 z m 11.415,9.467 0,-0.549 c 0.549,0 0.929,-0.064 1.14,-0.191 0.211,-0.128 0.334,-0.316 0.37,-0.567 0.036,-0.251 0.054,-0.933 0.054,-2.048 l 0,-2.925 c 0,-1.178 -0.024,-1.882 -0.072,-2.113 -0.048,-0.231 -0.177,-0.404 -0.388,-0.519 -0.211,-0.116 -0.579,-0.173 -1.104,-0.173 l 0,-0.549 4.787,0 0,0.549 c -0.533,0 -0.903,0.067 -1.11,0.203 -0.207,0.135 -0.327,0.334 -0.358,0.597 -0.032,0.262 -0.048,0.931 -0.048,2.005 l 0,4.071 c 0.533,0.637 1.057,1.115 1.57,1.433 0.513,0.318 1.017,0.478 1.51,0.478 0.509,0 0.935,-0.138 1.278,-0.412 0.342,-0.275 0.547,-0.605 0.614,-0.991 0.068,-0.386 0.102,-1.009 0.102,-1.869 l 0,-2.71 c 0,-1.186 -0.026,-1.894 -0.078,-2.125 -0.052,-0.231 -0.183,-0.402 -0.394,-0.513 -0.211,-0.112 -0.583,-0.167 -1.116,-0.167 l 0,-0.549 4.728,0 0,0.549 c -0.502,0 -0.85,0.073 -1.045,0.221 -0.195,0.147 -0.306,0.354 -0.334,0.62 -0.028,0.267 -0.042,0.922 -0.042,1.964 l 0,3.857 c 0.525,0.708 1.049,1.237 1.57,1.587 0.521,0.351 1.041,0.526 1.558,0.526 0.509,0 0.923,-0.12 1.242,-0.358 0.318,-0.239 0.515,-0.526 0.591,-0.86 0.075,-0.334 0.113,-0.832 0.113,-1.492 l 0,-3.26 c 0,-1.17 -0.024,-1.872 -0.072,-2.107 -0.047,-0.235 -0.177,-0.41 -0.388,-0.525 -0.211,-0.116 -0.575,-0.173 -1.092,-0.173 l 0,-0.549 4.883,0 0,0.549 c -0.573,0 -0.965,0.059 -1.176,0.179 -0.211,0.119 -0.338,0.302 -0.382,0.549 -0.044,0.247 -0.066,0.939 -0.066,2.077 l 0,2.937 c 0,0.995 -0.056,1.715 -0.167,2.161 -0.111,0.446 -0.43,0.844 -0.955,1.194 -0.525,0.35 -1.166,0.525 -1.922,0.525 -0.661,0 -1.309,-0.183 -1.946,-0.549 -0.637,-0.366 -1.258,-0.915 -1.863,-1.647 -0.199,0.732 -0.549,1.281 -1.05,1.647 -0.502,0.366 -1.154,0.549 -1.958,0.549 -0.709,0 -1.371,-0.171 -1.988,-0.513 -0.617,-0.342 -1.192,-0.856 -1.725,-1.54 0,0.836 -0.115,1.52 -0.346,2.053 l -0.12,0 C 36.6,-1.87 35.665,-2.05 34.535,-2.161 m 21.018,4.632 c 0.243,-0.247 0.536,-0.37 0.878,-0.37 0.342,0 0.633,0.123 0.871,0.37 0.239,0.247 0.359,0.545 0.359,0.896 0,0.342 -0.12,0.636 -0.359,0.883 -0.238,0.247 -0.529,0.37 -0.871,0.37 -0.342,0 -0.635,-0.123 -0.878,-0.37 -0.242,-0.247 -0.364,-0.541 -0.364,-0.883 0,-0.351 0.122,-0.649 0.364,-0.896 m 1.678,-4.095 c -0.78,-0.278 -1.879,-0.489 -3.295,-0.632 l 0,-0.55 0.322,0 c 0.446,0 0.758,-0.031 0.937,-0.095 0.179,-0.064 0.323,-0.223 0.43,-0.478 0.107,-0.254 0.161,-0.955 0.161,-2.101 l 0,-2.961 c 0,-1.09 -0.014,-1.749 -0.042,-1.976 -0.028,-0.226 -0.127,-0.421 -0.298,-0.584 -0.171,-0.164 -0.539,-0.245 -1.104,-0.245 l -0.406,0 0,-0.549 5.265,0 0,0.549 -0.251,0 c -0.51,0 -0.864,0.071 -1.063,0.215 -0.199,0.143 -0.314,0.35 -0.346,0.62 -0.032,0.271 -0.048,0.928 -0.048,1.97 l 0,6.817 -0.262,0 z m 8.631,-0.394 -2.949,0 0,3.069 -0.382,0 c -0.143,-0.964 -0.473,-1.712 -0.99,-2.245 -0.518,-0.533 -1.103,-0.808 -1.755,-0.824 l 0,-0.549 1.42,0 0,-5.539 c 0,-1.139 0.054,-1.934 0.161,-2.388 0.108,-0.454 0.378,-0.85 0.812,-1.188 0.434,-0.338 0.937,-0.507 1.51,-0.507 0.494,0 0.981,0.133 1.463,0.4 0.481,0.266 0.846,0.662 1.092,1.187 l -0.382,0.227 c -0.422,-0.652 -0.919,-0.979 -1.492,-0.979 -0.295,0 -0.571,0.096 -0.83,0.287 -0.258,0.191 -0.428,0.443 -0.507,0.758 -0.08,0.314 -0.12,0.925 -0.12,1.833 l 0,5.909 2.949,0 0,0.549 z m 4.43,6.638 -0.251,0 C 69.222,4.286 68.195,4.119 66.961,4.119 l 0,-0.549 c 0.709,0 1.156,-0.132 1.343,-0.394 0.187,-0.263 0.281,-0.888 0.281,-1.875 l 0,-9.742 c 0,-1.09 -0.014,-1.749 -0.042,-1.976 -0.028,-0.226 -0.127,-0.421 -0.298,-0.584 -0.172,-0.164 -0.544,-0.245 -1.117,-0.245 l -0.25,0 0,-0.549 4.966,0 0,0.549 c -0.549,0 -0.927,0.065 -1.134,0.197 -0.207,0.131 -0.328,0.324 -0.364,0.579 -0.036,0.254 -0.054,0.931 -0.054,2.029 l 0,3.916 c 0.374,0.724 0.808,1.268 1.301,1.63 0.494,0.362 1.051,0.543 1.672,0.543 0.533,0 0.977,-0.127 1.331,-0.382 0.354,-0.255 0.579,-0.577 0.675,-0.967 0.095,-0.39 0.143,-0.991 0.143,-1.803 l 0,-2.937 c 0,-1.082 -0.014,-1.737 -0.042,-1.964 -0.028,-0.226 -0.127,-0.423 -0.298,-0.591 -0.172,-0.167 -0.548,-0.25 -1.129,-0.25 l -0.226,0 0,-0.549 5.05,0 0,0.549 c -0.581,0 -0.979,0.057 -1.194,0.173 -0.215,0.115 -0.345,0.296 -0.388,0.543 -0.044,0.247 -0.066,0.943 -0.066,2.089 l 0,2.699 c 0,1.098 -0.08,1.892 -0.239,2.381 -0.159,0.49 -0.503,0.902 -1.032,1.236 -0.53,0.334 -1.196,0.501 -2,0.501 -0.709,0 -1.359,-0.167 -1.952,-0.501 -0.593,-0.334 -1.128,-0.836 -1.606,-1.504 l 0,8.249 z"
               inkscape:connector-curvature="0" /></g></g></g></g></g></svg>