<?xml version="1.0" encoding="utf-8"?>
<!-- Generator: Adobe Illustrator 12.0.0, SVG Export Plug-In . SVG Version: 6.00 Build 51448)  -->
<!DOCTYPE svg PUBLIC "-//W3C//DTD SVG 1.1//EN" "http://www.w3.org/Graphics/SVG/1.1/DTD/svg11.dtd" [
	<!ENTITY ns_svg "http://www.w3.org/2000/svg">
	<!ENTITY ns_xlink "http://www.w3.org/1999/xlink">
]>
<svg  version="1.1" id="Layer_1" xmlns="&ns_svg;" xmlns:xlink="&ns_xlink;" width="261.333" height="66.99"
	 viewBox="0 0 261.333 66.99" overflow="visible" enable-background="new 0 0 261.333 66.99" xml:space="preserve">
<g>
	<polyline fill="#EF3E33" points="54.937,61.923 36.902,30.271 50.964,5.156 45.187,5.156 33.988,25.158 22.583,5.156 12.6,5.156 
		28.104,32.353 11.545,61.923 17.326,61.923 31.021,37.478 44.953,61.923 54.937,61.923 	"/>
	<polyline fill="#EF3E33" points="60.501,5.156 95.194,5.153 95.194,9.257 69.119,9.257 69.119,30.386 95.194,30.386 95.194,34.065 
		69.119,34.065 69.119,57.823 95.194,57.823 95.194,61.923 60.501,61.923 60.501,5.156 	"/>
	<path fill="#EF3E33" d="M125.568,9.257h-13.138v52.666h-8.618V5.153h23.131c7.973,0,14.188,2.625,14.188,14.715
		c0,11.563-5.438,14.23-12.936,14.23l15.854,27.824h-9.984l-17.992-31.568h10.87c4.569-0.037,5.237-5.911,5.252-10.486
		c0.02-4.617-0.854-10.611-5.252-10.611C124.312,9.257,126.101,9.202,125.568,9.257"/>
	<polyline fill="#EF3E33" points="241.706,61.923 223.659,30.271 237.731,5.153 231.952,5.153 220.745,25.158 209.342,5.153 
		199.36,5.153 214.868,32.353 198.305,61.923 204.088,61.923 217.774,37.476 231.711,61.923 241.706,61.923 	"/>
	<path fill="#EF3E33" d="M157.194,33.962c0-15.24,1.314-25.753,14.984-25.753c13.664,0,14.975,10.513,14.975,25.753
		c0,15.246-1.311,24.813-14.975,24.813C158.508,58.774,157.194,49.208,157.194,33.962C157.194,22.927,157.194,45.005,157.194,33.962
		 M196.618,33.962c0-21.546-3.943-29.689-24.439-29.689c-20.502,0-24.443,8.144-24.443,29.689c0,21.547,3.941,28.756,24.443,28.756
		C192.674,62.718,196.618,55.509,196.618,33.962z"/>
	<path fill="#EF3E33" d="M249.282,62.45c-2.646,0-4.52-1.977-4.52-4.59c0-2.766,2.086-4.598,4.52-4.598
		c2.402,0,4.492,1.832,4.492,4.598S251.684,62.45,249.282,62.45 M249.282,54.065c-1.994,0-3.541,1.561-3.541,3.795
		c0,2.092,1.35,3.793,3.541,3.793c1.961,0,3.514-1.545,3.514-3.793C252.795,55.626,251.243,54.065,249.282,54.065z M248.366,60.489
		h-0.828v-5.088h1.924c1.227,0,1.857,0.428,1.857,1.467c0,0.922-0.568,1.297-1.324,1.387l1.42,2.234h-0.943l-1.316-2.174h-0.789
		V60.489z M249.303,57.601c0.625,0,1.182-0.061,1.182-0.795c0-0.611-0.602-0.686-1.109-0.686h-1.01v1.48H249.303z"/>
</g>
</svg>
