<?xml version="1.0" encoding="UTF-8" standalone="no"?>
<!-- Created with Inkscape (http://www.inkscape.org/) -->

<svg
   xmlns:svg="http://www.w3.org/2000/svg"
   xmlns="http://www.w3.org/2000/svg"
   version="1.1"
   width="580.63556"
   height="434.07938"
   id="svg2">
  <defs
     id="defs4" />
  <g
     transform="translate(-39.880066,-0.79792351)"
     id="layer1">
    <g
       transform="translate(10.000004,43.571429)"
       id="g3078">
      <path
         d="m 75.533449,390.43504 c -14.391893,-2.83221 -28.796556,-14.72038 -35.252882,-29.0942 -2.033833,-4.52796 -2.398715,-6.9255 -2.410052,-15.8358 -0.01554,-12.21573 -1.732019,-8.14836 18.901748,-44.78965 7.65331,-13.59069 15.811182,-28.08535 18.128607,-32.21035 11.627064,-20.6961 17.429286,-31.04715 20.459868,-36.5 1.834072,-3.3 9.619622,-17.25 17.301222,-31 7.68159,-13.75 14.95904,-26.8 16.17209,-29 1.21305,-2.2 4.98489,-8.95 8.38187,-15 3.39698,-6.05 7.07522,-13.39753 8.17387,-16.32785 C 156.07311,112.18264 140.89383,82.162009 100.35716,51.614433 88.054358,42.343308 69.848676,30.520455 56.893425,23.388888 52.328115,20.875791 46.307441,16.406166 42.784805,12.914938 30.375492,0.616267 26.69731,-13.494219 32.701665,-25.766678 c 3.191194,-6.522565 6.948284,-10.01481 14.65549,-13.622394 4.641927,-2.172791 6.904119,-2.572354 14.5,-2.561086 12.449471,0.01847 23.410438,4.048276 44.500005,16.36046 39.78619,23.227365 68.7684,46.833488 92.81074,75.594737 4.13785,4.95 8.05979,9.59554 8.71546,10.32343 0.96369,1.06986 2.32078,0.139 7.08295,-4.858305 7.30201,-7.66258 21.94266,-17.518505 34.42863,-23.176978 9.38629,-4.25374 9.55449,-4.288147 20.96221,-4.288147 10.94422,0 11.82093,0.157014 18.14058,3.24886 21.73384,10.633141 33.66809,35.95731 24.39894,51.77392 -2.85421,4.87034 -4.51127,6.08666 -20.53952,15.07653 -33.24725,18.647591 -55.23476,43.413421 -61.97906,69.810651 -2.8057,10.98154 -2.82843,29.77977 -0.0468,38.7347 4.25267,13.69083 18.14934,31.84157 31.086,40.60208 11.84189,8.01915 28.33277,14.37191 44.9399,17.31215 3.575,0.63294 14.375,1.26097 24,1.39563 13.34258,0.18666 18.92541,0.66952 23.5,2.03251 20.61969,6.14358 34.68075,27.31704 30.71062,46.24475 -2.45313,11.69536 -10.05657,19.64516 -22.36493,23.38371 -6.47112,1.96554 -8.60143,2.09211 -27.18353,1.61508 -27.40748,-0.70359 -43.36636,-3.3125 -66.6622,-10.89773 -30.05342,-9.78554 -56.27908,-25.00779 -82.67033,-47.98464 l -10.17033,-8.85452 -7.97053,14.75316 c -4.38378,8.11424 -11.68332,21.72816 -16.22119,30.25316 -4.53787,8.525 -13.16986,24.725 -19.18221,36 -6.01235,11.275 -12.13616,21.78475 -13.60847,23.355 -3.37068,3.5949 -12.43559,9.71047 -17.67693,11.92561 -8.365978,3.5357 -16.497139,4.38639 -25.323711,2.64939 z M 211.01614,24.480089 c -8.18573,-2.414463 -11.50165,-4.059307 -18.28931,-9.072322 -17.69811,-13.070917 -22.75788,-34.227703 -11.29907,-47.245606 8.98822,-10.211162 22.79459,-13.324344 40.42939,-9.116382 5.41003,1.290924 16.65623,7.749348 22.00241,12.635459 7.39077,6.754746 12.73658,17.689955 12.78555,26.153666 0.0682,11.78922 -6.90602,21.906953 -17.90572,25.976348 -7.58661,2.806709 -19.50076,3.094144 -27.72326,0.668837 z"
         id="path3082"
         style="fill:#f89f1f" />
      <path
         d="m 75.533449,390.43504 c -14.391893,-2.83221 -28.796556,-14.72038 -35.252882,-29.0942 -2.033833,-4.52796 -2.398715,-6.9255 -2.410052,-15.8358 -0.01554,-12.21573 -1.732019,-8.14836 18.901748,-44.78965 7.65331,-13.59069 15.811182,-28.08535 18.128607,-32.21035 11.627064,-20.6961 17.429286,-31.04715 20.459868,-36.5 1.834072,-3.3 9.619622,-17.25 17.301222,-31 7.68159,-13.75 14.95904,-26.8 16.17209,-29 1.21305,-2.2 4.98489,-8.95 8.38187,-15 3.39698,-6.05 7.07522,-13.39753 8.17387,-16.32785 C 156.07311,112.18264 140.89383,82.162009 100.35716,51.614433 88.054358,42.343308 69.848676,30.520455 56.893425,23.388888 52.328115,20.875791 46.307441,16.406166 42.784805,12.914938 30.375492,0.616267 26.69731,-13.494219 32.701665,-25.766678 c 3.191194,-6.522565 6.948284,-10.01481 14.65549,-13.622394 4.641927,-2.172791 6.904119,-2.572354 14.5,-2.561086 12.449471,0.01847 23.410438,4.048276 44.500005,16.36046 39.78619,23.227365 68.7684,46.833488 92.81074,75.594737 4.13785,4.95 8.05979,9.59554 8.71546,10.32343 0.96369,1.06986 2.32078,0.139 7.08295,-4.858305 7.30201,-7.66258 21.94266,-17.518505 34.42863,-23.176978 9.38629,-4.25374 9.55449,-4.288147 20.96221,-4.288147 10.94422,0 11.82093,0.157014 18.14058,3.24886 21.73384,10.633141 33.66809,35.95731 24.39894,51.77392 -2.85421,4.87034 -4.51127,6.08666 -20.53952,15.07653 -33.24725,18.647591 -55.23476,43.413421 -61.97906,69.810651 -2.8057,10.98154 -2.82843,29.77977 -0.0468,38.7347 4.25267,13.69083 18.14934,31.84157 31.086,40.60208 11.84189,8.01915 28.33277,14.37191 44.9399,17.31215 3.575,0.63294 14.375,1.26097 24,1.39563 13.34258,0.18666 18.92541,0.66952 23.5,2.03251 20.61969,6.14358 34.68075,27.31704 30.71062,46.24475 -2.45313,11.69536 -10.05657,19.64516 -22.36493,23.38371 -6.47112,1.96554 -8.60143,2.09211 -27.18353,1.61508 -27.40748,-0.70359 -43.36636,-3.3125 -66.6622,-10.89773 -30.05342,-9.78554 -56.27908,-25.00779 -82.67033,-47.98464 l -10.17033,-8.85452 -7.97053,14.75316 c -4.38378,8.11424 -11.68332,21.72816 -16.22119,30.25316 -4.53787,8.525 -13.16986,24.725 -19.18221,36 -6.01235,11.275 -12.13616,21.78475 -13.60847,23.355 -3.37068,3.5949 -12.43559,9.71047 -17.67693,11.92561 -8.365978,3.5357 -16.497139,4.38639 -25.323711,2.64939 z"
         id="path3080"
         style="fill:#104277" />
    </g>
    <path
       d="m 569.57143,375.80072 c -71.02979,-3.19433 -128.37062,-27.33666 -168.83947,-71.08684 -14.81322,-16.01433 -23.56401,-28.89858 -34.0385,-50.11673 -14.75316,-29.88542 -20.86582,-55.35113 -19.84213,-82.66354 0.78288,-20.8877 5.38002,-38.37231 14.87807,-56.58675 9.29471,-17.824508 17.1054,-25.290529 29.84203,-28.525149 13.42194,-3.408665 29.24432,1.720625 40.77385,13.218049 8.46748,8.44388 11.59457,15.2927 11.59457,25.39385 0,7.76418 -0.86466,10.30302 -7.8332,23 -2.61272,4.76051 -5.67978,13.87747 -7.73748,23 -1.78567,7.91655 -1.48555,33.79141 0.49295,42.5 4.7755,21.0198 11.99605,34.53498 26.20931,49.05761 17.4805,17.86099 38.24653,28.66718 67.24917,34.99502 15.66619,3.41807 22.98929,4.34487 42.64698,5.39736 18.66562,0.99936 23.64943,2.17343 32.17353,7.57933 8.07841,5.12324 12.21568,9.25973 16.5374,16.53426 9.37935,15.78778 9.1063,29.05439 -0.8054,39.13129 -6.96348,7.07956 -12.58939,9.15875 -25.30168,9.35086 -5.775,0.0873 -13.875,0.007 -18,-0.17862 z"
       id="path3104"
       style="fill:#4fb549" />
  </g>
</svg>
