<?xml version="1.0" encoding="UTF-8" standalone="no"?>
<!-- Created with Inkscape (http://www.inkscape.org/) -->

<svg
   xmlns:dc="http://purl.org/dc/elements/1.1/"
   xmlns:cc="http://creativecommons.org/ns#"
   xmlns:rdf="http://www.w3.org/1999/02/22-rdf-syntax-ns#"
   xmlns:svg="http://www.w3.org/2000/svg"
   xmlns="http://www.w3.org/2000/svg"
   xmlns:sodipodi="http://sodipodi.sourceforge.net/DTD/sodipodi-0.dtd"
   xmlns:inkscape="http://www.inkscape.org/namespaces/inkscape"
   width="111.77"
   height="33.360001"
   id="svg2"
   version="1.1"
   inkscape:version="0.47 r22583"
   sodipodi:docname="Pro XL Logo.svg">
  <defs
     id="defs4">
    <inkscape:perspective
       sodipodi:type="inkscape:persp3d"
       inkscape:vp_x="0 : 526.18109 : 1"
       inkscape:vp_y="0 : 1000 : 0"
       inkscape:vp_z="744.09448 : 526.18109 : 1"
       inkscape:persp3d-origin="372.04724 : 350.78739 : 1"
       id="perspective10" />
    <inkscape:perspective
       id="perspective2828"
       inkscape:persp3d-origin="0.5 : 0.33333333 : 1"
       inkscape:vp_z="1 : 0.5 : 1"
       inkscape:vp_y="0 : 1000 : 0"
       inkscape:vp_x="0 : 0.5 : 1"
       sodipodi:type="inkscape:persp3d" />
    <inkscape:perspective
       id="perspective2848"
       inkscape:persp3d-origin="0.5 : 0.33333333 : 1"
       inkscape:vp_z="1 : 0.5 : 1"
       inkscape:vp_y="0 : 1000 : 0"
       inkscape:vp_x="0 : 0.5 : 1"
       sodipodi:type="inkscape:persp3d" />
    <inkscape:perspective
       id="perspective2903"
       inkscape:persp3d-origin="0.5 : 0.33333333 : 1"
       inkscape:vp_z="1 : 0.5 : 1"
       inkscape:vp_y="0 : 1000 : 0"
       inkscape:vp_x="0 : 0.5 : 1"
       sodipodi:type="inkscape:persp3d" />
  </defs>
  <sodipodi:namedview
     id="base"
     pagecolor="#ffffff"
     bordercolor="#666666"
     borderopacity="1.0"
     inkscape:pageopacity="0.0"
     inkscape:pageshadow="2"
     inkscape:zoom="8"
     inkscape:cx="66.310913"
     inkscape:cy="19.381822"
     inkscape:document-units="px"
     inkscape:current-layer="layer1"
     showgrid="false"
     inkscape:window-width="1366"
     inkscape:window-height="706"
     inkscape:window-x="-8"
     inkscape:window-y="-8"
     inkscape:window-maximized="1" />
  <metadata
     id="metadata7">
    <rdf:RDF>
      <cc:Work
         rdf:about="">
        <dc:format>image/svg+xml</dc:format>
        <dc:type
           rdf:resource="http://purl.org/dc/dcmitype/StillImage" />
        <dc:title />
      </cc:Work>
    </rdf:RDF>
  </metadata>
  <g
     inkscape:label="Layer 1"
     inkscape:groupmode="layer"
     id="layer1"
     transform="translate(-208.74918,-419.05019)">
    <g
       transform="matrix(0.63201881,0,-0.14045988,0.63201881,79.565771,164.85344)"
       style="font-size:48.22995758px;font-style:normal;font-variant:normal;font-weight:normal;font-stretch:normal;text-align:start;line-height:125%;writing-mode:lr-tb;text-anchor:start;fill:#fa9e0d;fill-opacity:1;stroke:none;font-family:Serpentine Sans ICG;-inkscape-font-specification:Serpentine Sans ICG"
       id="text2816">
      <path
         d="m 338.68963,432.19458 c -4e-5,2.09005 -0.56278,3.714 -1.68823,4.87186 -1.22167,1.25403 -2.97368,1.88104 -5.25602,1.88104 l -9.16381,0 c -1.47972,0 -2.44428,-0.73937 -2.89368,-2.2181 l -0.0971,0 0,10.80347 -11.3819,0 0,-31.25351 10.75489,0 0,2.41091 c 0.836,-1.60725 1.81675,-2.41089 2.94225,-2.41091 l 9.83939,0 c 4.62947,2e-5 6.94421,2.28288 6.94425,6.84857 z m -11.38191,0.67558 0,-10.5135 c -2e-5,-1.09309 -0.54657,-1.63964 -1.63965,-1.63966 l -4.53334,0 c -1.02933,2e-5 -1.54399,0.54657 -1.54398,1.63966 l 0,10.5135 c -1e-5,1.09311 0.51465,1.63966 1.54398,1.63966 l 4.53334,0 c 1.09308,0 1.63963,-0.54655 1.63965,-1.63966 z"
         id="path2889"
         style="fill:#fa9e0d;fill-opacity:1" />
      <path
         d="m 364.01889,422.59804 -5.73879,0 c -1.89773,2e-5 -3.18414,0.24901 -3.85922,0.74697 -0.67511,0.498 -1.01265,1.42257 -1.01264,2.77372 l 0,12.82875 -11.3819,0 0,-22.66814 10.5135,0 0,3.66494 0.0971,0 c 0.54653,-1.41395 1.24567,-2.37827 2.0974,-2.89295 0.8517,-0.51464 2.09787,-0.77197 3.73853,-0.77199 l 5.54597,0 z"
         id="path2891"
         style="fill:#fa9e0d;fill-opacity:1" />
      <path
         d="m 397.75101,432.38886 c -3e-5,2.18621 -0.43423,3.79348 -1.30259,4.82182 -0.99697,1.15787 -2.65282,1.7368 -4.96754,1.7368 l -18.32762,0 c -2.31475,0 -3.97059,-0.57893 -4.96753,-1.7368 -0.8684,-1.02834 -1.3026,-2.63561 -1.3026,-4.82182 l 0,-9.5509 c 0,-2.18619 0.4342,-3.79346 1.3026,-4.82182 0.99694,-1.15785 2.65278,-1.73678 4.96753,-1.7368 l 18.32762,0 c 2.31472,2e-5 3.97057,0.57895 4.96754,1.7368 0.86836,1.02836 1.30256,2.63563 1.30259,4.82182 z m -11.38337,0.43273 0,-10.41636 c -2e-5,-1.12547 -0.53038,-1.68821 -1.59109,-1.68823 l -4.91896,0 c -1.06171,2e-5 -1.59256,0.56276 -1.59255,1.68823 l 0,10.41636 c -10e-6,1.12549 0.53084,1.68823 1.59255,1.68823 l 4.91896,0 c 1.06071,0 1.59107,-0.56274 1.59109,-1.68823 z"
         id="path2893"
         style="fill:#fa9e0d;fill-opacity:1" />
    </g>
    <path
       style="color:#000000;fill:#0831ad;fill-opacity:1;stroke:none;stroke-width:1;marker:none;visibility:visible;display:inline;overflow:visible;enable-background:accumulate"
       d="m 272.47259,420.98789 c -0.65198,0.65198 -0.87467,2.05744 -0.87467,2.84972 0,3.14929 2.58117,2.21967 6.08035,3.15728 3.73901,1.00186 5.62368,1.85209 6.39073,4.71475 1.12305,4.19126 -9.28673,10.76112 -13.91006,13.4304 -2.48099,1.4324 -3.9821,2.36326 -3.3576,3.95011 0.86719,1.50201 6.44284,-2.11211 8.74669,-3.44224 6.00531,-3.46717 13.28932,-9.76619 13.28932,-14.19221 0,-7.81213 -14.15463,-12.67794 -16.36476,-10.46781 z"
       id="path2834"
       sodipodi:nodetypes="ccccccccc" />
    <path
       style="color:#000000;fill:#049b8a;fill-opacity:1;stroke:none;stroke-width:1;marker:none;visibility:visible;display:inline;overflow:visible;enable-background:accumulate"
       d="m 298.54911,420.50957 c -5.74962,2.35934 -21.30777,10.27446 -21.30777,18.33507 0,6.64799 7.3336,9.24175 12.52929,10.63394 3.92093,1.05061 4.46904,-0.92203 4.46904,-1.89536 0,-5.11169 -4.01539,-3.71094 -7.14249,-4.54885 -3.25087,-0.87107 -5.18729,-3.03407 -5.18729,-4.98777 0,-5.04844 11.20588,-11.49729 17.67668,-15.76138 0.90202,-0.5944 0.13578,-2.25708 -1.03746,-1.77565 z"
       id="path2836"
       sodipodi:nodetypes="cccccccc" />
    <path
       style="color:#000000;fill:#0831ad;fill-opacity:1;stroke:none;stroke-width:1;marker:none;visibility:visible;display:inline;overflow:visible;enable-background:accumulate"
       d="m 286.98876,426.67706 c -2.06717,0.37319 -3.59414,1.24056 -3.93531,2.93543 0.43508,0.62869 0.80036,1.30967 1.00975,2.0911 0.21056,0.78586 0.0146,1.68055 -0.47154,2.59226 1.42304,-1.27681 3.83367,-2.13181 4.99936,-4.61423 -0.29994,-1.06515 -0.87054,-2.09047 -1.60226,-3.00456 z"
       id="path2834-7"
       sodipodi:nodetypes="ccsccc" />
    <path
       style="color:#000000;fill:#0831ad;fill-opacity:1;stroke:none;stroke-width:1;marker:none;visibility:visible;display:inline;overflow:visible;enable-background:accumulate"
       d="m 309.10777,420.60474 c -2.75194,0.73738 -13.96052,19.79861 -13.96052,25.77743 0,2.95795 3.75281,4.40302 8.02454,4.40302 6.07059,0 12.06439,-1.57729 14.58607,-4.09896 1.54045,-1.54046 -0.65556,-1.65907 -3.54668,-0.8844 -2.50403,0.67095 -5.75294,1.63492 -7.90866,1.63492 -2.16293,0 -4.79939,0.0153 -4.79939,-2.56758 0,-5.0075 8.51486,-19.25124 10.72456,-23.07856 0.62228,-1.07781 -1.35014,-1.66008 -3.11992,-1.18587 z"
       id="path2917"
       sodipodi:nodetypes="ccccccccc" />
  </g>
</svg>
