<?xml version="1.0" encoding="UTF-8" standalone="no"?>
<!-- Created with Inkscape (http://www.inkscape.org/) -->

<svg
   xmlns:dc="http://purl.org/dc/elements/1.1/"
   xmlns:cc="http://creativecommons.org/ns#"
   xmlns:rdf="http://www.w3.org/1999/02/22-rdf-syntax-ns#"
   xmlns:svg="http://www.w3.org/2000/svg"
   xmlns="http://www.w3.org/2000/svg"
   xmlns:sodipodi="http://sodipodi.sourceforge.net/DTD/sodipodi-0.dtd"
   xmlns:inkscape="http://www.inkscape.org/namespaces/inkscape"
   width="960"
   height="181.99333"
   id="svg2"
   version="1.1"
   inkscape:version="0.48.4 r9939"
   sodipodi:docname="Taft Broadcasting Company.svg">
  <defs
     id="defs4">
    <filter
       id="filter4225"
       inkscape:label="Drop Shadow"
       color-interpolation-filters="sRGB">
      <feFlood
         id="feFlood4227"
         flood-opacity="0.5"
         flood-color="rgb(0,0,0)"
         result="flood" />
      <feComposite
         id="feComposite4229"
         in2="SourceGraphic"
         in="flood"
         operator="in"
         result="composite1" />
      <feOffset
         id="feOffset4231"
         dx="4"
         dy="4"
         result="offset" />
      <feComposite
         id="feComposite4233"
         in2="offset"
         in="SourceGraphic"
         operator="over"
         result="composite2" />
    </filter>
  </defs>
  <sodipodi:namedview
     id="base"
     pagecolor="#ffffff"
     bordercolor="#666666"
     borderopacity="1.0"
     inkscape:pageopacity="0.0"
     inkscape:pageshadow="2"
     inkscape:zoom="0.98994949"
     inkscape:cx="524.06219"
     inkscape:cy="98.696274"
     inkscape:document-units="px"
     inkscape:current-layer="layer1"
     showgrid="false"
     inkscape:window-width="1366"
     inkscape:window-height="706"
     inkscape:window-x="-8"
     inkscape:window-y="-8"
     inkscape:window-maximized="1"
     fit-margin-top="0"
     fit-margin-left="0"
     fit-margin-right="0"
     fit-margin-bottom="0" />
  <metadata
     id="metadata7">
    <rdf:RDF>
      <cc:Work
         rdf:about="">
        <dc:format>image/svg+xml</dc:format>
        <dc:type
           rdf:resource="http://purl.org/dc/dcmitype/StillImage" />
        <dc:title></dc:title>
      </cc:Work>
    </rdf:RDF>
  </metadata>
  <g
     inkscape:label="Layer 1"
     inkscape:groupmode="layer"
     id="layer1"
     transform="translate(385.04566,-961.36552)">
    <g
       style="fill:#ff0000;overflow:visible;filter:url(#filter4225)"
       id="g4136"
       transform="translate(-435.39722,799.09804)">
      <path
         style="fill:#ff0000;fill-opacity:1"
         d="m 348.60742,216.19922 c -3.91406,0.38672 -20.20801,4.03711 -25.68457,5.21094 -5.86426,1.56054 -59.4414,42.95312 -62.96094,53.11718 -0.78027,3.51758 -1.17138,8.92969 -1.17138,14.01563 l -0.39258,8.21484 c 0,5.86133 1.62842,15.31446 2.4082,20.39649 3.52246,0.78515 29.01514,0.0996 33.70655,0.8789 l -0.57715,10.51368 c -4.58399,-0.33399 -36.95557,-0.25586 -55.44971,-0.25586 -9.38818,0 -39.56738,1.03515 -48.83984,0.75586 l 1.75293,-9.99805 c 5.08447,-0.39453 26.13623,0.9082 30.76416,-3.97656 2.29882,-2.42383 1.5664,-5.02149 1.5664,-19.09766 v -6.64648 c 0,-3.12891 0,-8.99805 -0.78467,-14.47461 -1.9541,-5.86719 -49.14404,-64.78907 -61.2666,-74.17188 -3.52246,-1.17187 -25.58008,-3.37793 -31.0542,-4.55371 l -0.27246,-9.00684 c 2.73096,-1.36914 27.25879,0.33301 51.06153,-0.54785 15.64355,-0.57812 51.33691,0 55.74072,0.52442 l -1.12842,7.9375 c -4.69141,1.1748 -27.29248,1.60937 -33.15967,3.17187 15.25293,22.68164 39.36866,51.88281 47.19141,63.22461 4.3042,-6.25586 42.10986,-32.26562 43.28174,-41.25976 -5.86817,-1.17774 -25.29151,-3.97266 -28.42139,-3.97266 l -1.85791,-10.24024 c 5.32471,-0.833 33.32275,0 47.24219,0 12.01269,0 37.68164,0 44.97558,0.59766 l -6.66992,9.64258"
         id="path2217"
         inkscape:connector-curvature="0" />
      <path
         style="fill:#ff0000;fill-opacity:1"
         d="m 364.95215,245.76172 -0.24414,-1.55371 c -4.43653,10.35449 -11.97071,26.62402 -13.44824,30.56543 l 24.27539,-0.0107 c -2.95899,-7.64161 -8.36426,-22.59375 -10.58301,-29.00098 m 64.46777,78.40723 c -1.72168,-0.24903 -21.31836,-0.2461 -28.46387,-0.2461 -4.19335,0 -25.53613,-0.12402 -29.23632,-0.12402 l 1.10937,-9.1582 c 4.9336,-0.24512 14.10352,-2.24219 18.29688,-2.73438 -2.71094,-6.1582 -11.65723,-25.72168 -13.62891,-29.41797 -5.17676,0 -23.79394,0.58301 -28.9707,1.56836 -0.98438,1.72656 -8.05176,8.65723 -9.28028,18.02246 3.45215,0.73828 10.07129,2.16211 14.01368,2.65332 l -1.45801,9.35938 c -4.18848,-0.2461 -20.90039,0.24511 -24.84375,0 -3.70117,0 -20.87354,0.041 -24.0791,0.5332 l 3.05273,-9.89258 c 3.94141,-0.49121 13.0293,-3.3164 16.47559,-4.05176 5.17871,-7.39257 29.15136,-54.25293 31.125,-58.6914 -3.20801,-0.74121 -8.65137,-3.31739 -12.10645,-3.80957 l -0.47363,-6.77149 c 4.1914,0.25 25.02148,0.875 27.23437,0.76465 4.95606,-0.24219 23.35254,-0.15137 27.54493,-0.39355 l -1.55372,6.65039 c -3.69628,0.24218 -9.70996,2.04492 -13.16308,2.7832 1.72558,5.17578 8.58984,21.86231 13.7666,34.18555 3.94434,8.87695 10.49023,26.26758 16.65137,36.375 4.18847,0.73828 13.80176,3.56054 18.23828,3.80566 l 0.24902,2.46973 -0.5,6.12012 z"
         id="path2219"
         inkscape:connector-curvature="0" />
      <path
         style="fill:#ff0000;fill-opacity:1"
         d="m 573.80273,298.80273 c -3.39941,-0.26171 -19.75683,-0.23828 -28.12109,0 -6.70801,0.18946 -22.64355,-0.60937 -30.22949,-0.28027 l -0.5791,-9.29394 c 2.61328,-0.26368 18.93261,-1.37305 22.06836,-1.90039 1.04492,-4.96583 0.54492,-12.0127 0.54492,-18.01954 l -0.40332,-10.94336 c -8.36719,0 -63.67969,2.87793 -66.03418,3.13477 l -4.04102,0.52734 c 0,14.90918 0.78418,19.62012 1.83106,25.11133 4.44824,0.7793 20.40332,1.82617 23.7998,2.35352 l -0.20605,10.1289 c -3.92578,-0.26269 -28.45996,0 -36.0459,0 -9.15039,0 -31.40723,-0.19726 -36.63867,0.0645 l 0.70898,-10.45703 c 4.18457,-0.26368 20.00391,-1.82129 23.4043,-2.3418 0.52344,-6.80762 0.78418,-17.52344 0.78418,-28.77149 v -13.86132 c 0,-4.70704 -0.26074,-18.30664 -0.52442,-23.01758 -3.40039,-0.51563 -19.21972,-1.57617 -23.92675,-1.83692 l -0.83496,-7.91894 c 3.13769,0.26562 24.97558,-0.33301 36.48046,-0.33301 10.72364,0 35.03809,0.21191 37.91504,-0.0527 l -0.85254,8.30468 c -4.96875,0.26075 -21.44629,1.56836 -24.32226,2.09082 -0.78809,3.92676 -1.57227,7.32813 -1.57227,19.87891 l -0.38574,6.54297 c 4.70703,0 63.05273,-0.22949 70.31934,-1.26465 v -9.01269 c 0,-11.50586 1.78613,-23.94629 0.48047,-27.35059 -2.87891,-0.78027 -18.4668,-2.97559 -23.43946,-3.24023 l 0.69727,-8.34864 c 3.13965,0.26367 17.83398,0.17481 28.81543,0.4375 11.50781,0 28.22656,0.47266 31.625,-0.0498 l -0.77246,6.87597 c -3.39844,0.26368 -18.56153,4.09766 -18.56153,4.09766 0,0 -1.03515,7.16602 -0.27441,17.47363 0.62793,8.55957 0.81933,25.39551 0.81933,25.39551 0.4336,18.7461 1.58985,33.89453 0.5459,34.68262 -1.25781,0.93848 12.00684,1.74609 15.66504,2.27246 l 1.43164,2.48437 -0.1709,6.4375"
         id="path2221"
         inkscape:connector-curvature="0" />
      <path
         style="fill:#ff0000;fill-opacity:1"
         d="m 687.67285,257.2959 c 0.94727,-26.43262 -19.74121,-33.46875 -45.87598,-31.67481 -13.6748,0.93946 -41.50292,8.16895 -41.50292,31.67481 0,23.23047 21.34667,35.81055 49.83007,33.32617 22.04493,-1.91797 33.61426,-10.03516 36.4541,-21.31348 l 1.09473,-12.01269 m 21.02539,-2.18457 c 1.24121,31.9414 -27.9248,47.78515 -65.80762,47.78515 -15.76562,0 -34.95507,-3.0039 -51.33789,-12.83398 -12.78125,-7.66992 -14.89746,-17.61816 -14.89746,-30.06152 0,-25.72168 28.00098,-47.04395 70.86817,-46.76661 16.31445,0 32.04199,2.48829 44.7539,12.40235 11.34375,8.84668 13.25977,13.24023 15.32715,22.91992 l 1.09375,6.55469 z"
         id="path2223"
         inkscape:connector-curvature="0" />
      <path
         style="fill:#ff0000;fill-opacity:1"
         d="m 888.18945,308.91211 -9.07422,-0.77832 -0.0967,-19.6543 11.48829,1.43164 10.29589,0.47754 -2.85742,19.24512 -9.75586,-0.72168 m 11.68848,-34.71777 -16.93359,-1.64356 c 1.77636,-8.5625 0.23046,-74.2959 0.0928,-81.30859 l -0.87207,-13.8086 c 4.71777,0.92969 4.00293,0.44141 23.90918,2.53516 12.11328,1.27148 13.69433,1.81445 17.68066,1.97168 l -5.20312,16.375 c -4.43946,13.09668 -17.30762,71.50391 -18.67383,75.87891 z"
         id="path2225"
         inkscape:connector-curvature="0" />
      <path
         style="fill:#ff0000;fill-opacity:1"
         d="m 844.95312,246.375 c 1.80079,-28.7207 -25.87011,-39.18262 -55.70214,-37.1377 -15.61231,1.06934 -44.78321,10.30176 -44.78321,37.1377 0,26.5166 24.41211,39.88477 56.93848,37.05273 25.1582,-2.19238 35.63184,-11.65722 41.36523,-24.49023 0,0 1.63965,-3.82617 2.18164,-12.5625 m 22.56836,-4.24219 c 2.2334,29.91016 -32.28515,54.75391 -75.54199,54.75391 -17.99316,0 -33.31152,-2.18164 -51.06152,-13.9209 -14.59766,-9.65723 -21.57129,-18.02441 -23.39258,-34.50098 -3.22851,-29.18261 31.9668,-53.70605 80.9043,-53.39062 18.6289,0 36.57812,2.83398 51.09863,14.15723 12.94434,10.0957 15.20898,19.67675 17.57227,30.73535 l 0.42089,2.16601 z"
         id="path2227"
         inkscape:connector-curvature="0" />
      <path
         style="fill:#ff0000;fill-opacity:1"
         d="m 918.79883,299.53809 h 1.75195 c 1.51953,0 2.99121,-0.0772 2.99121,-1.87793 0,-1.54883 -1.34472,-1.73047 -2.50097,-1.73047 h -2.24219 v 3.6084 m -1.70117,-5.00293 h 4.22558 c 2.65528,0 3.91895,1.05566 3.91895,3.19922 0,2.0371 -1.28809,2.89062 -2.96387,3.06738 l 3.22559,4.9541 h -1.83204 l -3.04101,-4.82422 h -1.83203 v 4.82422 h -1.70117 v -11.2207 l 0,0 z m 3.65722,13.82617 c 4.38574,0 7.89258,-3.56055 7.89258,-8.20313 0,-4.64258 -3.50684,-8.20312 -7.89258,-8.20312 -4.4082,0 -7.8916,3.56054 -7.8916,8.20312 0,4.64258 3.4834,8.20313 7.8916,8.20313 z m 0,-17.79981 c 5.21094,0 9.59668,4.12891 9.59668,9.59668 0,5.46875 -4.38574,9.59668 -9.59668,9.59668 -5.2334,0 -9.59082,-4.12793 -9.59082,-9.59668 0,-5.46777 4.35742,-9.59668 9.59082,-9.59668 z"
         id="path2229"
         inkscape:connector-curvature="0" />
    </g>
  </g>
</svg>
