<?xml version="1.0" encoding="UTF-8" standalone="no"?>
<!-- Created with Inkscape (http://www.inkscape.org/) -->

<svg
   xmlns:dc="http://purl.org/dc/elements/1.1/"
   xmlns:cc="http://creativecommons.org/ns#"
   xmlns:rdf="http://www.w3.org/1999/02/22-rdf-syntax-ns#"
   xmlns:svg="http://www.w3.org/2000/svg"
   xmlns="http://www.w3.org/2000/svg"
   xmlns:sodipodi="http://sodipodi.sourceforge.net/DTD/sodipodi-0.dtd"
   xmlns:inkscape="http://www.inkscape.org/namespaces/inkscape"
   width="196.91016"
   height="48.65625"
   id="svg2"
   version="1.1"
   inkscape:version="0.48.3.1 r9886"
   sodipodi:docname="New document 1">
  <defs
     id="defs4" />
  <sodipodi:namedview
     id="base"
     pagecolor="#ffffff"
     bordercolor="#666666"
     borderopacity="1.0"
     inkscape:pageopacity="0.0"
     inkscape:pageshadow="2"
     inkscape:zoom="2.1496046"
     inkscape:cx="88.26807"
     inkscape:cy="34.848447"
     inkscape:document-units="px"
     inkscape:current-layer="layer1"
     showgrid="false"
     fit-margin-top="0"
     fit-margin-left="0"
     fit-margin-right="0"
     fit-margin-bottom="0"
     inkscape:window-width="1366"
     inkscape:window-height="709"
     inkscape:window-x="-8"
     inkscape:window-y="-8"
     inkscape:window-maximized="1" />
  <metadata
     id="metadata7">
    <rdf:RDF>
      <cc:Work
         rdf:about="">
        <dc:format>image/svg+xml</dc:format>
        <dc:type
           rdf:resource="http://purl.org/dc/dcmitype/StillImage" />
        <dc:title></dc:title>
      </cc:Work>
    </rdf:RDF>
  </metadata>
  <g
     inkscape:label="Layer 1"
     inkscape:groupmode="layer"
     id="layer1"
     transform="translate(-286.73193,-518.55438)">
    <path
       inkscape:connector-curvature="0"
       id="path2998"
       style="font-size:72px;font-style:normal;font-variant:normal;font-weight:bold;font-stretch:normal;line-height:125%;letter-spacing:0px;word-spacing:0px;fill:#000000;fill-opacity:1;stroke:none;font-family:Times New Roman;-inkscape-font-specification:Times New Roman"
       d="m 337.28662,518.55438 0,1.30078 c -1.57036,0.21099 -2.77739,0.66802 -3.62109,1.3711 -1.17192,0.98442 -3.02348,3.66801 -5.55469,8.05078 l -10.33594,17.26172 0,11.53125 c -3e-5,2.46094 0.12888,3.99024 0.38672,4.58789 0.25778,0.59766 0.76755,1.125 1.5293,1.58203 0.76168,0.45703 1.77535,0.68555 3.04101,0.68555 l 2.67188,0 0,1.30078 -26.75391,0 0,-1.30078 2.4961,0 c 1.40623,0 2.51951,-0.2461 3.33984,-0.73829 0.60936,-0.32812 1.08982,-0.89062 1.44141,-1.6875 0.25779,-0.56249 0.38669,-2.03905 0.38671,-4.42968 l 0,-9.5625 -11.21484,-20.42578 c -2.22657,-4.03121 -3.79688,-6.40426 -4.71094,-7.11914 -0.91406,-0.7148 -2.13281,-1.08394 -3.65625,-1.10743 l 0,-1.30078 22.85157,0 0,1.30078 -1.01954,0 c -1.38283,5e-5 -2.34962,0.19927 -2.90039,0.59766 -0.5508,0.39848 -0.82619,0.82036 -0.82617,1.26562 -2e-5,0.8438 0.93748,2.96489 2.8125,6.36329 l 8.61328,15.78515 8.57813,-14.3789 c 2.13277,-3.51559 3.19918,-5.84762 3.19922,-6.9961 -4e-5,-0.63277 -0.30473,-1.16011 -0.91407,-1.58203 -0.79691,-0.58589 -2.26175,-0.93745 -4.39453,-1.05469 l 0,-1.30078 z" />
    <path
       inkscape:connector-curvature="0"
       id="path3000"
       style="font-size:72px;font-style:normal;font-variant:normal;font-weight:bold;font-stretch:normal;line-height:125%;letter-spacing:0px;word-spacing:0px;fill:#000000;fill-opacity:1;stroke:none;font-family:Times New Roman;-inkscape-font-specification:Times New Roman"
       d="m 358.69678,561.37469 c -4.00783,3.53907 -7.60548,5.3086 -10.79297,5.3086 -1.87501,0 -3.4336,-0.61524 -4.67578,-1.8457 -1.24219,-1.23047 -1.86329,-2.77148 -1.86328,-4.62305 -1e-5,-2.50781 1.07812,-4.76366 3.23437,-6.76758 2.15624,-2.00389 6.85546,-4.6699 14.09766,-7.99805 l 0,-3.30468 c -2e-5,-2.48435 -0.13479,-4.0488 -0.4043,-4.69336 -0.26955,-0.64451 -0.77932,-1.207 -1.5293,-1.6875 -0.75001,-0.48044 -1.59376,-0.72068 -2.53125,-0.72071 -1.52345,3e-5 -2.77735,0.33988 -3.76172,1.01953 -0.60938,0.42191 -0.91407,0.9141 -0.91406,1.47657 -10e-6,0.49221 0.32812,1.10159 0.98438,1.82812 0.89061,1.00784 1.33592,1.9805 1.33593,2.91797 -1e-5,1.14846 -0.42774,2.12698 -1.2832,2.93555 -0.85548,0.80861 -1.97462,1.21291 -3.35742,1.21289 -1.47657,2e-5 -2.7129,-0.44529 -3.70898,-1.33594 -0.9961,-0.8906 -1.49415,-1.93357 -1.49415,-3.12891 0,-1.68747 0.66797,-3.2988 2.00391,-4.83398 1.33593,-1.53513 3.19921,-2.71286 5.58984,-3.5332 2.39062,-0.82028 4.87499,-1.23044 7.45313,-1.23047 3.11717,3e-5 5.58396,0.66214 7.40039,1.98633 1.81638,1.32425 2.99411,2.75979 3.5332,4.30664 0.3281,0.9844 0.49216,3.24612 0.49219,6.78515 l 0,12.76172 c -3e-5,1.50001 0.0586,2.44337 0.17578,2.83008 0.11716,0.38672 0.29294,0.67383 0.52735,0.86133 0.23434,0.1875 0.50387,0.28125 0.80859,0.28125 0.60934,0 1.23044,-0.43359 1.86328,-1.30078 l 1.05469,0.84375 c -1.17191,1.73438 -2.3848,2.99414 -3.63867,3.77929 -1.25394,0.78516 -2.67777,1.17774 -4.27149,1.17774 -1.87502,0 -3.33986,-0.43945 -4.39453,-1.31836 -1.05471,-0.87891 -1.69924,-2.20898 -1.93359,-3.99024 z m 0,-2.5664 0,-11.00391 c -2.83596,1.66408 -4.94533,3.44533 -6.32813,5.34375 -0.91407,1.26564 -1.3711,2.54298 -1.37109,3.83203 -1e-5,1.07814 0.3867,2.02735 1.16015,2.84766 0.58593,0.63282 1.40624,0.94922 2.46094,0.94922 1.17186,0 2.53123,-0.65625 4.07813,-1.96875 z" />
    <path
       inkscape:connector-curvature="0"
       id="path3002"
       style="font-size:72px;font-style:normal;font-variant:normal;font-weight:bold;font-stretch:normal;line-height:125%;letter-spacing:0px;word-spacing:0px;fill:#000000;fill-opacity:1;stroke:none;font-family:Times New Roman;-inkscape-font-specification:Times New Roman"
       d="m 389.98584,518.55438 0,19.01953 c 1.80467,-1.8984 3.45701,-3.2402 4.95703,-4.02539 1.49998,-0.78512 3.05857,-1.1777 4.67578,-1.17773 2.06247,3e-5 3.82614,0.58597 5.29102,1.75781 1.46481,1.17191 2.43746,2.54886 2.91797,4.13086 0.48043,1.58206 0.72067,4.24807 0.7207,7.99805 l 0,12.83203 c -3e-5,2.50782 0.23434,4.07227 0.70312,4.69336 0.46872,0.62109 1.41794,1.01367 2.84766,1.17773 l 0,1.26563 -16.66406,0 0,-1.26563 c 1.17185,-0.16406 2.05076,-0.63281 2.63672,-1.40625 0.42185,-0.60937 0.63279,-2.09765 0.63281,-4.46484 l 0,-14.66016 c -2e-5,-2.71872 -0.10549,-4.4238 -0.31641,-5.11523 -0.21096,-0.69138 -0.56838,-1.23044 -1.07226,-1.61719 -0.50393,-0.38669 -1.07229,-0.58005 -1.70508,-0.58008 -0.93752,3e-5 -1.85158,0.3223 -2.74219,0.9668 -0.89064,0.64456 -1.85158,1.77542 -2.88281,3.39258 l 0,17.61328 c -2e-5,2.34375 0.17577,3.8086 0.52734,4.39453 0.4453,0.79688 1.35936,1.28906 2.74219,1.47656 l 0,1.26563 -16.66406,0 0,-1.26563 c 1.38281,-0.14062 2.36718,-0.58593 2.95312,-1.33594 0.39844,-0.51562 0.59765,-2.02733 0.59766,-4.53515 l 0,-33.39844 c -10e-6,-2.48433 -0.22852,-4.0312 -0.68555,-4.64062 -0.45703,-0.60933 -1.41211,-1.00777 -2.86523,-1.19532 l 0,-1.30078 z" />
    <path
       inkscape:connector-curvature="0"
       id="path3004"
       style="font-size:72px;font-style:normal;font-variant:normal;font-weight:bold;font-stretch:normal;line-height:125%;letter-spacing:0px;word-spacing:0px;fill:#000000;fill-opacity:1;stroke:none;font-family:Times New Roman;-inkscape-font-specification:Times New Roman"
       d="m 432.13818,532.37079 c 2.85936,3e-5 5.51951,0.73831 7.98047,2.21484 2.46091,1.47659 4.33005,3.57425 5.60742,6.29297 1.27732,2.71877 1.91599,5.69533 1.91602,8.92969 -3e-5,4.66407 -1.18363,8.56641 -3.55078,11.70703 -2.8594,3.79688 -6.80862,5.69531 -11.84766,5.69531 -4.94532,0 -8.75391,-1.73437 -11.42578,-5.20312 -2.67188,-3.46874 -4.00781,-7.48827 -4.00781,-12.0586 0,-4.71091 1.36523,-8.81833 4.0957,-12.32226 2.73046,-3.50388 6.4746,-5.25583 11.23242,-5.25586 z m 0.14063,2.49609 c -1.19533,3e-5 -2.22072,0.45121 -3.07617,1.35352 -0.85549,0.90237 -1.41799,2.68362 -1.6875,5.34375 -0.26955,2.66018 -0.40431,6.35744 -0.4043,11.09179 -10e-6,2.50783 0.16405,4.85158 0.49219,7.03125 0.2578,1.66407 0.80858,2.9297 1.65234,3.79688 0.84374,0.86719 1.80467,1.30078 2.88281,1.30078 1.05467,0 1.93358,-0.29297 2.63672,-0.87891 0.91404,-0.79687 1.52342,-1.91015 1.82813,-3.33984 0.46872,-2.22655 0.7031,-6.72655 0.70312,-13.5 -2e-5,-3.98435 -0.22268,-6.72068 -0.66797,-8.20898 -0.44533,-1.48826 -1.10158,-2.57224 -1.96875,-3.25196 -0.60939,-0.49215 -1.40627,-0.73825 -2.39062,-0.73828 z" />
    <path
       inkscape:connector-curvature="0"
       id="path3006"
       style="font-size:72px;font-style:normal;font-variant:normal;font-weight:bold;font-stretch:normal;line-height:125%;letter-spacing:0px;word-spacing:0px;fill:#000000;fill-opacity:1;stroke:none;font-family:Times New Roman;-inkscape-font-specification:Times New Roman"
       d="m 468.13818,532.37079 c 2.85936,3e-5 5.51951,0.73831 7.98047,2.21484 2.46091,1.47659 4.33005,3.57425 5.60742,6.29297 1.27732,2.71877 1.91599,5.69533 1.91602,8.92969 -3e-5,4.66407 -1.18363,8.56641 -3.55078,11.70703 -2.8594,3.79688 -6.80862,5.69531 -11.84766,5.69531 -4.94532,0 -8.75391,-1.73437 -11.42578,-5.20312 -2.67188,-3.46874 -4.00781,-7.48827 -4.00781,-12.0586 0,-4.71091 1.36523,-8.81833 4.0957,-12.32226 2.73046,-3.50388 6.4746,-5.25583 11.23242,-5.25586 z m 0.14063,2.49609 c -1.19533,3e-5 -2.22072,0.45121 -3.07617,1.35352 -0.85549,0.90237 -1.41799,2.68362 -1.6875,5.34375 -0.26955,2.66018 -0.40431,6.35744 -0.4043,11.09179 -10e-6,2.50783 0.16405,4.85158 0.49219,7.03125 0.2578,1.66407 0.80858,2.9297 1.65234,3.79688 0.84374,0.86719 1.80467,1.30078 2.88281,1.30078 1.05467,0 1.93358,-0.29297 2.63672,-0.87891 0.91404,-0.79687 1.52342,-1.91015 1.82813,-3.33984 0.46872,-2.22655 0.7031,-6.72655 0.70312,-13.5 -2e-5,-3.98435 -0.22268,-6.72068 -0.66797,-8.20898 -0.44533,-1.48826 -1.10158,-2.57224 -1.96875,-3.25196 -0.60939,-0.49215 -1.40627,-0.73825 -2.39062,-0.73828 z" />
  </g>
</svg>
