<?xml version="1.0" encoding="UTF-8" standalone="no"?>
<svg
   xmlns:dc="http://purl.org/dc/elements/1.1/"
   xmlns:cc="http://creativecommons.org/ns#"
   xmlns:rdf="http://www.w3.org/1999/02/22-rdf-syntax-ns#"
   xmlns:svg="http://www.w3.org/2000/svg"
   xmlns="http://www.w3.org/2000/svg"
   xmlns:xlink="http://www.w3.org/1999/xlink"
   xmlns:sodipodi="http://sodipodi.sourceforge.net/DTD/sodipodi-0.dtd"
   xmlns:inkscape="http://www.inkscape.org/namespaces/inkscape"
   version="1.1"
   id="Layer_1"
   x="0px"
   y="0px"
   width="744"
   height="266"
   viewBox="0 0 744 266"
   enable-background="new 0 0 612 792"
   xml:space="preserve">
<path
   clip-path="url(#SVGID_2_)"
   d="m 357.713,703.807 c -0.914,-1.194 -2.785,-1.485 -2.995,-1.516 -0.448,-0.063 -0.861,0.242 -0.926,0.68 -0.064,0.439 0.247,0.847 0.695,0.907 h -0.002 c 0.236,0.036 0.804,0.166 1.29,0.413 -1.137,1.103 -2.793,2.113 -4.056,3.028 -0.013,-0.998 -0.145,-2.32 -0.618,-3.645 -0.373,-1.044 -1.194,-3.559 -3.515,-4.872 -3.854,-2.185 -6.938,0.839 -7.197,2.688 -0.249,1.764 0.182,2.882 1.222,5.389 0.888,2.145 0.92,4.012 0.658,5.18 -3.171,0.988 -6.514,1.503 -9.94,1.503 -8.77,0 -17.45,-3.355 -23.629,-9.449 0.487,-0.251 1.065,-0.386 1.307,-0.421 l -0.003,10e-4 c 0.448,-0.063 0.759,-0.47 0.695,-0.908 -0.064,-0.438 -0.479,-0.743 -0.927,-0.682 -0.21,0.03 -2.08,0.322 -2.994,1.518 -0.909,1.187 -0.678,3.238 -0.648,3.468 0.056,0.44 0.465,0.751 0.913,0.697 0.449,-0.057 0.767,-0.455 0.711,-0.896 v 10e-4 c -0.038,-0.304 -0.052,-0.739 -0.009,-1.167 6.485,6.223 15.485,9.644 24.584,9.644 9.021,0 17.951,-3.359 24.415,-9.479 0.046,0.435 0.031,0.881 -0.007,1.19 v -10e-4 c -0.058,0.439 0.261,0.84 0.709,0.896 0.45,0.056 0.858,-0.257 0.915,-0.696 0.03,-0.233 0.26,-2.283 -0.648,-3.471 z"
   id="path17"
   inkscape:connector-curvature="0"
   style="fill:#f5ab87"
   transform="matrix(5.3242594,0,0,5.3242594,-1293.7924,-3543.9043)" /><path
   clip-path="url(#SVGID_2_)"
   d="m 357.713,703.807 c -0.914,-1.194 -2.785,-1.485 -2.995,-1.516 -0.448,-0.063 -0.861,0.242 -0.926,0.68 -0.064,0.439 0.247,0.847 0.695,0.907 h -0.002 c 0.236,0.036 0.804,0.166 1.29,0.413 -1.137,1.103 -2.793,2.113 -4.056,3.028 -0.013,-0.998 -0.145,-2.32 -0.618,-3.645 -0.373,-1.044 -1.194,-3.559 -3.515,-4.872 -3.854,-2.185 -6.938,0.839 -7.197,2.688 -0.249,1.764 0.182,2.882 1.222,5.389 0.888,2.145 0.92,4.012 0.658,5.18 -3.171,0.988 -6.514,1.503 -9.94,1.503 -8.77,0 -17.45,-3.355 -23.629,-9.449 0.487,-0.251 1.065,-0.386 1.307,-0.421 l -0.003,10e-4 c 0.448,-0.063 0.759,-0.47 0.695,-0.908 -0.064,-0.438 -0.479,-0.743 -0.927,-0.682 -0.21,0.03 -2.08,0.322 -2.994,1.518 -0.909,1.187 -0.678,3.238 -0.648,3.468 0.056,0.44 0.465,0.751 0.913,0.697 0.449,-0.057 0.767,-0.455 0.711,-0.896 v 10e-4 c -0.038,-0.304 -0.052,-0.739 -0.009,-1.167 6.485,6.223 15.485,9.644 24.584,9.644 9.021,0 17.951,-3.359 24.415,-9.479 0.046,0.435 0.031,0.881 -0.007,1.19 v -10e-4 c -0.058,0.439 0.261,0.84 0.709,0.896 0.45,0.056 0.858,-0.257 0.915,-0.696 0.03,-0.233 0.26,-2.283 -0.648,-3.471 z"
   id="path19"
   inkscape:connector-curvature="0"
   style="fill:none;stroke:#ffffff;stroke-width:0.41299999"
   transform="matrix(5.3242594,0,0,5.3242594,-1293.7924,-3543.9043)" /><path
   clip-path="url(#SVGID_2_)"
   d="m 243.206,674.588 0.264,-7.67 h 25.502 l 0.243,7.67 h -1.08 c -0.529,-2.409 -1.202,-3.978 -2.017,-4.705 -0.815,-0.727 -2.532,-1.092 -5.147,-1.092 h -2.512 v 23.099 c 0,1.75 0.271,2.834 0.815,3.252 0.544,0.419 1.734,0.694 3.571,0.827 v 0.815 h -13.159 v -0.815 c 1.91,-0.146 3.1,-0.463 3.57,-0.949 0.47,-0.483 0.706,-1.701 0.706,-3.658 v -22.57 h -2.513 c -2.498,0 -4.199,0.36 -5.103,1.08 -0.903,0.721 -1.583,2.293 -2.038,4.717 h -1.102 z"
   id="path21"
   inkscape:connector-curvature="0"
   style="fill:#f5ab87"
   transform="matrix(5.3242594,0,0,5.3242594,-1293.7924,-3543.9043)" /><path
   clip-path="url(#SVGID_2_)"
   d="m 243.206,674.588 0.264,-7.67 h 25.502 l 0.243,7.67 h -1.08 c -0.529,-2.409 -1.202,-3.978 -2.017,-4.705 -0.815,-0.727 -2.532,-1.092 -5.147,-1.092 h -2.512 v 23.099 c 0,1.75 0.271,2.834 0.815,3.252 0.544,0.419 1.734,0.694 3.571,0.827 v 0.815 h -13.159 v -0.815 c 1.91,-0.146 3.1,-0.463 3.57,-0.949 0.47,-0.483 0.706,-1.701 0.706,-3.658 v -22.57 h -2.513 c -2.498,0 -4.199,0.36 -5.103,1.08 -0.903,0.721 -1.583,2.293 -2.038,4.717 h -1.102 z"
   id="path23"
   inkscape:connector-curvature="0"
   style="fill:none;stroke:#ffffff;stroke-width:0.41299999"
   transform="matrix(5.3242594,0,0,5.3242594,-1293.7924,-3543.9043)" /><path
   clip-path="url(#SVGID_2_)"
   d="m 267.866,696.784 v -0.728 c 1.352,-0.116 2.248,-0.355 2.689,-0.717 0.441,-0.358 0.662,-1.127 0.662,-2.302 v -9.942 c 0,-1.455 -0.137,-2.494 -0.408,-3.119 -0.273,-0.624 -0.768,-0.936 -1.488,-0.936 -0.148,0 -0.342,0.018 -0.584,0.055 -0.242,0.037 -0.496,0.084 -0.76,0.144 v -0.729 c 0.837,-0.292 1.696,-0.594 2.578,-0.902 0.882,-0.31 1.492,-0.529 1.83,-0.661 0.734,-0.279 1.491,-0.596 2.27,-0.948 0.102,0 0.165,0.037 0.187,0.11 0.022,0.073 0.033,0.228 0.033,0.463 v 3.614 c 0.94,-1.308 1.848,-2.328 2.722,-3.063 0.875,-0.734 1.782,-1.102 2.722,-1.102 0.75,0 1.36,0.225 1.83,0.672 0.47,0.448 0.706,1.011 0.706,1.686 0,0.604 -0.181,1.11 -0.54,1.521 -0.36,0.411 -0.813,0.616 -1.356,0.616 -0.559,0 -1.121,-0.256 -1.687,-0.77 -0.566,-0.515 -1.01,-0.772 -1.333,-0.772 -0.514,0 -1.146,0.415 -1.895,1.245 -0.75,0.831 -1.125,1.687 -1.125,2.568 v 9.939 c 0,1.266 0.294,2.144 0.882,2.636 0.588,0.492 1.565,0.724 2.932,0.693 v 0.728 h -10.867 z"
   id="path25"
   inkscape:connector-curvature="0"
   style="fill:#f5ab87"
   transform="matrix(5.3242594,0,0,5.3242594,-1293.7924,-3543.9043)" /><path
   clip-path="url(#SVGID_2_)"
   d="m 267.866,696.784 v -0.728 c 1.352,-0.116 2.248,-0.355 2.689,-0.717 0.441,-0.358 0.662,-1.127 0.662,-2.302 v -9.942 c 0,-1.455 -0.137,-2.494 -0.408,-3.119 -0.273,-0.624 -0.768,-0.936 -1.488,-0.936 -0.148,0 -0.342,0.018 -0.584,0.055 -0.242,0.037 -0.496,0.084 -0.76,0.144 v -0.729 c 0.837,-0.292 1.696,-0.594 2.578,-0.902 0.882,-0.31 1.492,-0.529 1.83,-0.661 0.734,-0.279 1.491,-0.596 2.27,-0.948 0.102,0 0.165,0.037 0.187,0.11 0.022,0.073 0.033,0.228 0.033,0.463 v 3.614 c 0.94,-1.308 1.848,-2.328 2.722,-3.063 0.875,-0.734 1.782,-1.102 2.722,-1.102 0.75,0 1.36,0.225 1.83,0.672 0.47,0.448 0.706,1.011 0.706,1.686 0,0.604 -0.181,1.11 -0.54,1.521 -0.36,0.411 -0.813,0.616 -1.356,0.616 -0.559,0 -1.121,-0.256 -1.687,-0.77 -0.566,-0.515 -1.01,-0.772 -1.333,-0.772 -0.514,0 -1.146,0.415 -1.895,1.245 -0.75,0.831 -1.125,1.687 -1.125,2.568 v 9.939 c 0,1.266 0.294,2.144 0.882,2.636 0.588,0.492 1.565,0.724 2.932,0.693 v 0.728 h -10.867 z"
   id="path27"
   inkscape:connector-curvature="0"
   style="fill:none;stroke:#ffffff;stroke-width:0.41299999"
   transform="matrix(5.3242594,0,0,5.3242594,-1293.7924,-3543.9043)" /><path
   clip-path="url(#SVGID_2_)"
   clip-rule="evenodd"
   d="m 289.385,668.987 c 0,1.737 1.399,3.146 3.132,3.165 v -6.331 c -1.733,0.019 -3.132,1.429 -3.132,3.166 z m 3.132,7.572 v 20.186 h -7.24 v -0.621 c 1.914,-0.147 3.123,-0.418 3.625,-0.81 0.501,-0.393 0.751,-1.454 0.751,-3.185 v -10.584 c 0,-0.96 -0.08,-1.626 -0.242,-1.996 -0.268,-0.605 -0.831,-0.91 -1.69,-0.91 -0.198,0 -0.389,0.016 -0.578,0.045 -0.188,0.029 -0.73,0.147 -1.624,0.355 v -0.688 c 0,0 4.104,-1.057 6.998,-1.792 z"
   id="path29"
   inkscape:connector-curvature="0"
   style="fill:#f5ab87;fill-rule:evenodd"
   transform="matrix(5.3242594,0,0,5.3242594,-1293.7924,-3543.9043)" /><path
   clip-path="url(#SVGID_2_)"
   d="m 289.385,668.987 c 0,1.737 1.399,3.146 3.132,3.165 v -6.331 c -1.733,0.019 -3.132,1.429 -3.132,3.166 z m 3.132,7.572 v 20.186 h -7.24 v -0.621 c 1.914,-0.147 3.123,-0.418 3.625,-0.81 0.501,-0.393 0.751,-1.454 0.751,-3.185 v -10.584 c 0,-0.96 -0.08,-1.626 -0.242,-1.996 -0.268,-0.605 -0.831,-0.91 -1.69,-0.91 -0.198,0 -0.389,0.016 -0.578,0.045 -0.188,0.029 -0.73,0.147 -1.624,0.355 v -0.688 c 0,0 4.104,-1.057 6.998,-1.792 z"
   id="path31"
   inkscape:connector-curvature="0"
   style="fill:none;stroke:#ffffff;stroke-width:0.41299999"
   transform="matrix(5.3242594,0,0,5.3242594,-1293.7924,-3543.9043)" /><path
   clip-path="url(#SVGID_2_)"
   d="m 372.181,684.509 c -5.714,0 -10.347,2.908 -10.347,6.494 0,2.859 1.729,4.962 5.338,5.812 l -5.331,4.634 c 0,0 8.879,-4.028 9.11,-4.028 8.148,0 11.579,-2.828 11.579,-6.417 0,-3.587 -4.633,-6.495 -10.349,-6.495 z"
   id="path33"
   inkscape:connector-curvature="0"
   style="fill:#f5ab87"
   transform="matrix(5.3242594,0,0,5.3242594,-1293.7924,-3543.9043)" /><path
   clip-path="url(#SVGID_2_)"
   d="m 372.181,684.509 c -5.714,0 -10.347,2.908 -10.347,6.494 0,2.859 1.729,4.962 5.338,5.812 l -5.331,4.634 c 0,0 8.879,-4.028 9.11,-4.028 8.148,0 11.579,-2.828 11.579,-6.417 0,-3.587 -4.633,-6.495 -10.349,-6.495 z"
   id="path35"
   inkscape:connector-curvature="0"
   style="fill:none;stroke:#ffffff;stroke-width:0.41299999"
   transform="matrix(5.3242594,0,0,5.3242594,-1293.7924,-3543.9043)" /><path
   clip-path="url(#SVGID_2_)"
   d="m 365.286,693.735 -0.022,-0.13 c 0.234,-0.019 0.397,-0.054 0.487,-0.103 0.142,-0.083 0.226,-0.247 0.255,-0.489 l 0.193,-1.7 -1.003,-2.154 c -0.105,-0.229 -0.195,-0.368 -0.27,-0.418 -0.075,-0.052 -0.216,-0.089 -0.428,-0.112 l -0.022,-0.129 h 1.912 l 0.022,0.129 c -0.191,0.01 -0.321,0.029 -0.389,0.054 -0.112,0.045 -0.157,0.128 -0.138,0.248 0.007,0.039 0.025,0.095 0.053,0.165 0.028,0.07 0.049,0.116 0.059,0.137 l 0.79,1.717 0.683,-1.059 c 0.154,-0.237 0.263,-0.418 0.324,-0.54 0.107,-0.208 0.151,-0.362 0.133,-0.467 -0.018,-0.104 -0.085,-0.175 -0.198,-0.211 -0.068,-0.021 -0.2,-0.036 -0.396,-0.044 l -0.022,-0.129 h 1.662 l 0.021,0.129 c -0.15,0.02 -0.265,0.058 -0.341,0.117 -0.077,0.061 -0.172,0.183 -0.286,0.365 l -1.371,2.175 -0.178,1.483 c -0.015,0.123 -0.023,0.224 -0.021,0.3 0,0.075 0.004,0.137 0.011,0.185 0.028,0.15 0.096,0.245 0.202,0.283 0.107,0.038 0.3,0.06 0.578,0.068 l 0.023,0.13 h -2.323 z"
   id="path37"
   inkscape:connector-curvature="0"
   style="fill:#ffffff"
   transform="matrix(5.3242594,0,0,5.3242594,-1293.7924,-3543.9043)" /><path
   clip-path="url(#SVGID_2_)"
   d="m 365.286,693.735 -0.022,-0.13 c 0.234,-0.019 0.397,-0.054 0.487,-0.103 0.142,-0.083 0.226,-0.247 0.255,-0.489 l 0.193,-1.7 -1.003,-2.154 c -0.105,-0.229 -0.195,-0.368 -0.27,-0.418 -0.075,-0.052 -0.216,-0.089 -0.428,-0.112 l -0.022,-0.129 h 1.912 l 0.022,0.129 c -0.191,0.01 -0.321,0.029 -0.389,0.054 -0.112,0.045 -0.157,0.128 -0.138,0.248 0.007,0.039 0.025,0.095 0.053,0.165 0.028,0.07 0.049,0.116 0.059,0.137 l 0.79,1.717 0.683,-1.059 c 0.154,-0.237 0.263,-0.418 0.324,-0.54 0.107,-0.208 0.151,-0.362 0.133,-0.467 -0.018,-0.104 -0.085,-0.175 -0.198,-0.211 -0.068,-0.021 -0.2,-0.036 -0.396,-0.044 l -0.022,-0.129 h 1.662 l 0.021,0.129 c -0.15,0.02 -0.265,0.058 -0.341,0.117 -0.077,0.061 -0.172,0.183 -0.286,0.365 l -1.371,2.175 -0.178,1.483 c -0.015,0.123 -0.023,0.224 -0.021,0.3 0,0.075 0.004,0.137 0.011,0.185 0.028,0.15 0.096,0.245 0.202,0.283 0.107,0.038 0.3,0.06 0.578,0.068 l 0.023,0.13 h -2.323 z"
   id="path39"
   inkscape:connector-curvature="0"
   style="fill:none;stroke:#ffffff;stroke-width:0.41299999"
   transform="matrix(5.3242594,0,0,5.3242594,-1293.7924,-3543.9043)" /><path
   clip-path="url(#SVGID_2_)"
   d="m 369.126,693.104 0.16,-2.198 c 0,-0.025 10e-4,-0.049 10e-4,-0.072 0,-0.022 -0.002,-0.045 -0.007,-0.069 -0.02,-0.11 -0.065,-0.18 -0.137,-0.205 -0.069,-0.024 -0.196,-0.036 -0.38,-0.036 l -0.02,-0.11 0.555,-0.113 0.605,-0.118 c 0.012,-0.003 0.023,0.002 0.037,0.016 0.013,0.013 0.019,0.026 0.019,0.039 l -0.003,0.056 -0.223,2.664 c -0.009,0.064 -0.011,0.116 -0.014,0.153 -10e-4,0.036 0,0.063 0.003,0.077 0.011,0.062 0.035,0.107 0.076,0.142 0.04,0.033 0.086,0.051 0.143,0.051 0.153,0 0.321,-0.137 0.505,-0.411 0.183,-0.273 0.338,-0.56 0.467,-0.854 0.115,-0.265 0.211,-0.559 0.289,-0.882 0.05,-0.201 0.114,-0.522 0.194,-0.96 h 0.591 l -0.251,2.777 c -0.004,0.052 -0.007,0.101 -0.011,0.145 -0.003,0.045 -0.002,0.082 0.005,0.109 0.006,0.035 0.019,0.064 0.038,0.088 0.02,0.025 0.051,0.038 0.089,0.038 0.04,0 0.076,-0.015 0.114,-0.045 0.035,-0.031 0.08,-0.076 0.131,-0.139 0.024,-0.029 0.066,-0.091 0.125,-0.184 0.037,-0.06 0.094,-0.146 0.169,-0.264 l 0.121,0.074 c -0.083,0.199 -0.178,0.37 -0.283,0.514 -0.208,0.29 -0.423,0.435 -0.645,0.435 -0.115,0 -0.215,-0.031 -0.3,-0.094 -0.083,-0.063 -0.137,-0.159 -0.16,-0.294 -0.013,-0.067 -0.019,-0.143 -0.02,-0.224 -10e-4,-0.081 0.003,-0.172 0.014,-0.273 0.014,-0.183 0.036,-0.412 0.059,-0.687 l 0.029,-0.333 h -0.029 c -0.255,0.598 -0.463,1.022 -0.626,1.27 -0.281,0.427 -0.583,0.64 -0.901,0.64 -0.086,0 -0.168,-0.02 -0.245,-0.056 -0.148,-0.072 -0.24,-0.202 -0.272,-0.392 -0.01,-0.054 -0.015,-0.1 -0.015,-0.133 -10e-4,-0.035 0.001,-0.083 0.003,-0.142 z"
   id="path41"
   inkscape:connector-curvature="0"
   style="fill:#ffffff"
   transform="matrix(5.3242594,0,0,5.3242594,-1293.7924,-3543.9043)" /><path
   clip-path="url(#SVGID_2_)"
   d="m 369.126,693.104 0.16,-2.198 c 0,-0.025 10e-4,-0.049 10e-4,-0.072 0,-0.022 -0.002,-0.045 -0.007,-0.069 -0.02,-0.11 -0.065,-0.18 -0.137,-0.205 -0.069,-0.024 -0.196,-0.036 -0.38,-0.036 l -0.02,-0.11 0.555,-0.113 0.605,-0.118 c 0.012,-0.003 0.023,0.002 0.037,0.016 0.013,0.013 0.019,0.026 0.019,0.039 l -0.003,0.056 -0.223,2.664 c -0.009,0.064 -0.011,0.116 -0.014,0.153 -10e-4,0.036 0,0.063 0.003,0.077 0.011,0.062 0.035,0.107 0.076,0.142 0.04,0.033 0.086,0.051 0.143,0.051 0.153,0 0.321,-0.137 0.505,-0.411 0.183,-0.273 0.338,-0.56 0.467,-0.854 0.115,-0.265 0.211,-0.559 0.289,-0.882 0.05,-0.201 0.114,-0.522 0.194,-0.96 h 0.591 l -0.251,2.777 c -0.004,0.052 -0.007,0.101 -0.011,0.145 -0.003,0.045 -0.002,0.082 0.005,0.109 0.006,0.035 0.019,0.064 0.038,0.088 0.02,0.025 0.051,0.038 0.089,0.038 0.04,0 0.076,-0.015 0.114,-0.045 0.035,-0.031 0.08,-0.076 0.131,-0.139 0.024,-0.029 0.066,-0.091 0.125,-0.184 0.037,-0.06 0.094,-0.146 0.169,-0.264 l 0.121,0.074 c -0.083,0.199 -0.178,0.37 -0.283,0.514 -0.208,0.29 -0.423,0.435 -0.645,0.435 -0.115,0 -0.215,-0.031 -0.3,-0.094 -0.083,-0.063 -0.137,-0.159 -0.16,-0.294 -0.013,-0.067 -0.019,-0.143 -0.02,-0.224 -10e-4,-0.081 0.003,-0.172 0.014,-0.273 0.014,-0.183 0.036,-0.412 0.059,-0.687 l 0.029,-0.333 h -0.029 c -0.255,0.598 -0.463,1.022 -0.626,1.27 -0.281,0.427 -0.583,0.64 -0.901,0.64 -0.086,0 -0.168,-0.02 -0.245,-0.056 -0.148,-0.072 -0.24,-0.202 -0.272,-0.392 -0.01,-0.054 -0.015,-0.1 -0.015,-0.133 -10e-4,-0.035 0.001,-0.083 0.003,-0.142 z"
   id="path43"
   inkscape:connector-curvature="0"
   style="fill:none;stroke:#ffffff;stroke-width:0.41299999"
   transform="matrix(5.3242594,0,0,5.3242594,-1293.7924,-3543.9043)" /><path
   clip-path="url(#SVGID_2_)"
   d="m 375.241,690.189 c 0.104,0 0.202,0.027 0.293,0.085 0.141,0.087 0.229,0.229 0.265,0.428 0.016,0.088 0.016,0.211 0,0.37 -0.016,0.158 -0.049,0.412 -0.099,0.763 0.211,-0.445 0.4,-0.783 0.568,-1.015 0.306,-0.421 0.602,-0.631 0.893,-0.631 0.123,0 0.243,0.041 0.358,0.124 0.116,0.085 0.192,0.219 0.225,0.404 0.011,0.059 0.011,0.198 -0.001,0.418 l -0.199,2.138 c -0.005,0.032 0.006,0.066 0.031,0.103 0.022,0.035 0.061,0.053 0.11,0.053 0.048,0 0.086,-0.012 0.116,-0.035 0.031,-0.023 0.07,-0.063 0.115,-0.117 0.042,-0.053 0.077,-0.099 0.103,-0.138 0.026,-0.04 0.1,-0.152 0.222,-0.341 l 0.137,0.094 -0.029,0.057 c -0.141,0.265 -0.294,0.477 -0.457,0.635 -0.161,0.159 -0.337,0.237 -0.521,0.237 -0.083,0 -0.158,-0.021 -0.223,-0.062 -0.102,-0.068 -0.165,-0.183 -0.194,-0.342 -0.007,-0.039 -0.01,-0.08 -0.013,-0.125 -10e-4,-0.044 0,-0.094 0.003,-0.15 l 0.178,-2.192 c 0.002,-0.031 0.004,-0.058 0.004,-0.078 0,-0.022 -0.002,-0.043 -0.004,-0.063 -0.012,-0.063 -0.036,-0.111 -0.075,-0.146 -0.039,-0.033 -0.084,-0.05 -0.133,-0.05 -0.175,0 -0.356,0.132 -0.542,0.395 -0.187,0.265 -0.34,0.532 -0.466,0.804 -0.106,0.276 -0.176,0.509 -0.207,0.696 -0.032,0.187 -0.076,0.595 -0.135,1.229 h -0.607 l 0.253,-2.786 c 0.002,-0.024 0.003,-0.046 0.003,-0.069 0,-0.021 -0.004,-0.045 -0.007,-0.069 -0.011,-0.062 -0.033,-0.11 -0.068,-0.145 -0.032,-0.037 -0.08,-0.054 -0.143,-0.054 -0.165,0 -0.344,0.137 -0.537,0.41 -0.194,0.274 -0.347,0.53 -0.459,0.769 -0.109,0.233 -0.201,0.543 -0.271,0.929 -0.043,0.235 -0.094,0.573 -0.153,1.016 h -0.605 l 0.272,-2.786 c 0.005,-0.029 0.005,-0.057 0.006,-0.083 0,-0.026 -10e-4,-0.052 -0.006,-0.082 -0.019,-0.103 -0.065,-0.162 -0.14,-0.185 -0.073,-0.021 -0.211,-0.027 -0.41,-0.02 l -0.023,-0.133 c 0.257,-0.041 0.668,-0.128 1.236,-0.258 l 0.037,0.026 -0.175,1.619 c 0.215,-0.428 0.426,-0.788 0.635,-1.075 0.287,-0.381 0.568,-0.572 0.839,-0.572 z"
   id="path45"
   inkscape:connector-curvature="0"
   style="fill:#ffffff"
   transform="matrix(5.3242594,0,0,5.3242594,-1293.7924,-3543.9043)" /><path
   clip-path="url(#SVGID_2_)"
   d="m 375.241,690.189 c 0.104,0 0.202,0.027 0.293,0.085 0.141,0.087 0.229,0.229 0.265,0.428 0.016,0.088 0.016,0.211 0,0.37 -0.016,0.158 -0.049,0.412 -0.099,0.763 0.211,-0.445 0.4,-0.783 0.568,-1.015 0.306,-0.421 0.602,-0.631 0.893,-0.631 0.123,0 0.243,0.041 0.358,0.124 0.116,0.085 0.192,0.219 0.225,0.404 0.011,0.059 0.011,0.198 -0.001,0.418 l -0.199,2.138 c -0.005,0.032 0.006,0.066 0.031,0.103 0.022,0.035 0.061,0.053 0.11,0.053 0.048,0 0.086,-0.012 0.116,-0.035 0.031,-0.023 0.07,-0.063 0.115,-0.117 0.042,-0.053 0.077,-0.099 0.103,-0.138 0.026,-0.04 0.1,-0.152 0.222,-0.341 l 0.137,0.094 -0.029,0.057 c -0.141,0.265 -0.294,0.477 -0.457,0.635 -0.161,0.159 -0.337,0.237 -0.521,0.237 -0.083,0 -0.158,-0.021 -0.223,-0.062 -0.102,-0.068 -0.165,-0.183 -0.194,-0.342 -0.007,-0.039 -0.01,-0.08 -0.013,-0.125 -10e-4,-0.044 0,-0.094 0.003,-0.15 l 0.178,-2.192 c 0.002,-0.031 0.004,-0.058 0.004,-0.078 0,-0.022 -0.002,-0.043 -0.004,-0.063 -0.012,-0.063 -0.036,-0.111 -0.075,-0.146 -0.039,-0.033 -0.084,-0.05 -0.133,-0.05 -0.175,0 -0.356,0.132 -0.542,0.395 -0.187,0.265 -0.34,0.532 -0.466,0.804 -0.106,0.276 -0.176,0.509 -0.207,0.696 -0.032,0.187 -0.076,0.595 -0.135,1.229 h -0.607 l 0.253,-2.786 c 0.002,-0.024 0.003,-0.046 0.003,-0.069 0,-0.021 -0.004,-0.045 -0.007,-0.069 -0.011,-0.062 -0.033,-0.11 -0.068,-0.145 -0.032,-0.037 -0.08,-0.054 -0.143,-0.054 -0.165,0 -0.344,0.137 -0.537,0.41 -0.194,0.274 -0.347,0.53 -0.459,0.769 -0.109,0.233 -0.201,0.543 -0.271,0.929 -0.043,0.235 -0.094,0.573 -0.153,1.016 h -0.605 l 0.272,-2.786 c 0.005,-0.029 0.005,-0.057 0.006,-0.083 0,-0.026 -10e-4,-0.052 -0.006,-0.082 -0.019,-0.103 -0.065,-0.162 -0.14,-0.185 -0.073,-0.021 -0.211,-0.027 -0.41,-0.02 l -0.023,-0.133 c 0.257,-0.041 0.668,-0.128 1.236,-0.258 l 0.037,0.026 -0.175,1.619 c 0.215,-0.428 0.426,-0.788 0.635,-1.075 0.287,-0.381 0.568,-0.572 0.839,-0.572 z"
   id="path47"
   inkscape:connector-curvature="0"
   style="fill:none;stroke:#ffffff;stroke-width:0.41299999"
   transform="matrix(5.3242594,0,0,5.3242594,-1293.7924,-3543.9043)" /><path
   clip-path="url(#SVGID_2_)"
   d="m 380.231,688.77 c 0.022,0.123 0.021,0.257 -0.004,0.399 -0.024,0.145 -0.124,0.554 -0.297,1.228 -0.03,0.115 -0.091,0.389 -0.185,0.825 -0.092,0.434 -0.169,0.8 -0.23,1.095 l -0.134,-0.027 c 0.012,-0.392 0.024,-0.788 0.035,-1.188 0.016,-0.64 0.025,-0.994 0.024,-1.062 l -0.007,-0.725 c -0.005,-0.339 0.023,-0.576 0.087,-0.719 0.062,-0.144 0.162,-0.215 0.301,-0.215 0.102,0 0.19,0.039 0.268,0.116 0.076,0.078 0.124,0.168 0.142,0.273 z m -1.306,4.612 c -0.018,-0.098 0.006,-0.188 0.072,-0.272 0.063,-0.084 0.157,-0.127 0.28,-0.127 0.106,0 0.213,0.039 0.317,0.116 0.104,0.079 0.166,0.179 0.188,0.3 0.02,0.113 -0.005,0.215 -0.075,0.301 -0.07,0.086 -0.163,0.13 -0.284,0.13 -0.106,0 -0.211,-0.04 -0.31,-0.117 -0.101,-0.076 -0.163,-0.188 -0.188,-0.331 z"
   id="path49"
   inkscape:connector-curvature="0"
   style="fill:#ffffff"
   transform="matrix(5.3242594,0,0,5.3242594,-1293.7924,-3543.9043)" /><path
   clip-path="url(#SVGID_2_)"
   d="m 380.231,688.77 c 0.022,0.123 0.021,0.257 -0.004,0.399 -0.024,0.145 -0.124,0.554 -0.297,1.228 -0.03,0.115 -0.091,0.389 -0.185,0.825 -0.092,0.434 -0.169,0.8 -0.23,1.095 l -0.134,-0.027 c 0.012,-0.392 0.024,-0.788 0.035,-1.188 0.016,-0.64 0.025,-0.994 0.024,-1.062 l -0.007,-0.725 c -0.005,-0.339 0.023,-0.576 0.087,-0.719 0.062,-0.144 0.162,-0.215 0.301,-0.215 0.102,0 0.19,0.039 0.268,0.116 0.076,0.078 0.124,0.168 0.142,0.273 z m -1.306,4.612 c -0.018,-0.098 0.006,-0.188 0.072,-0.272 0.063,-0.084 0.157,-0.127 0.28,-0.127 0.106,0 0.213,0.039 0.317,0.116 0.104,0.079 0.166,0.179 0.188,0.3 0.02,0.113 -0.005,0.215 -0.075,0.301 -0.07,0.086 -0.163,0.13 -0.284,0.13 -0.106,0 -0.211,-0.04 -0.31,-0.117 -0.101,-0.076 -0.163,-0.188 -0.188,-0.331 z"
   id="path51"
   inkscape:connector-curvature="0"
   style="fill:none;stroke:#ffffff;stroke-width:0.41299999"
   transform="matrix(5.3242594,0,0,5.3242594,-1293.7924,-3543.9043)" /><path
   clip-path="url(#SVGID_2_)"
   d="m 344.002,701.263 c 1.676,2.268 2.527,4.714 2.527,7.271 0,0.371 0.307,0.671 0.686,0.671 0.379,0 0.686,-0.301 0.686,-0.671 -0.001,-2.806 -0.966,-5.592 -2.788,-8.059 -0.223,-0.3 -0.651,-0.367 -0.958,-0.15 -0.307,0.217 -0.376,0.637 -0.153,0.938 z"
   id="path53"
   inkscape:connector-curvature="0"
   style="fill:#ffffff"
   transform="matrix(5.3242594,0,0,5.3242594,-1293.7924,-3543.9043)" /><path
   clip-path="url(#SVGID_2_)"
   d="m 344.002,701.263 c 1.676,2.268 2.527,4.714 2.527,7.271 0,0.371 0.307,0.671 0.686,0.671 0.379,0 0.686,-0.301 0.686,-0.671 -0.001,-2.806 -0.966,-5.592 -2.788,-8.059 -0.223,-0.3 -0.651,-0.367 -0.958,-0.15 -0.307,0.217 -0.376,0.637 -0.153,0.938 z"
   id="path55"
   inkscape:connector-curvature="0"
   style="fill:none;stroke:#ffffff;stroke-width:0.41299999"
   transform="matrix(5.3242594,0,0,5.3242594,-1293.7924,-3543.9043)" /><path
   clip-path="url(#SVGID_2_)"
   d="m 357.713,703.807 c -0.914,-1.194 -2.785,-1.485 -2.995,-1.516 -0.448,-0.063 -0.861,0.242 -0.926,0.68 -0.064,0.439 0.247,0.847 0.695,0.907 h -0.002 c 0.236,0.036 0.804,0.166 1.29,0.413 -1.137,1.103 -2.793,2.113 -4.056,3.028 -0.013,-0.998 -0.145,-2.32 -0.618,-3.645 -0.373,-1.044 -1.194,-3.559 -3.515,-4.872 -3.854,-2.185 -6.938,0.839 -7.197,2.688 -0.249,1.764 0.182,2.882 1.222,5.389 0.888,2.145 0.92,4.012 0.658,5.18 -3.171,0.988 -6.514,1.503 -9.94,1.503 -8.77,0 -17.45,-3.355 -23.629,-9.449 0.487,-0.251 1.065,-0.386 1.307,-0.421 l -0.003,10e-4 c 0.448,-0.063 0.759,-0.47 0.695,-0.908 -0.064,-0.438 -0.479,-0.743 -0.927,-0.682 -0.21,0.03 -2.08,0.322 -2.994,1.518 -0.909,1.187 -0.678,3.238 -0.648,3.468 0.056,0.44 0.465,0.751 0.913,0.697 0.449,-0.057 0.767,-0.455 0.711,-0.896 v 10e-4 c -0.038,-0.304 -0.052,-0.739 -0.009,-1.167 6.485,6.223 15.485,9.644 24.584,9.644 9.021,0 17.951,-3.359 24.415,-9.479 0.046,0.435 0.031,0.881 -0.007,1.19 v -10e-4 c -0.058,0.439 0.261,0.84 0.709,0.896 0.45,0.056 0.858,-0.257 0.915,-0.696 0.03,-0.233 0.26,-2.283 -0.648,-3.471"
   id="path57"
   inkscape:connector-curvature="0"
   style="fill:#d00027"
   transform="matrix(5.3242594,0,0,5.3242594,-1293.7924,-3543.9043)" /><path
   clip-path="url(#SVGID_2_)"
   d="m 344.002,701.263 c 1.676,2.268 2.527,4.714 2.527,7.271 0,0.371 0.307,0.671 0.686,0.671 0.379,0 0.686,-0.301 0.686,-0.671 -0.001,-2.806 -0.966,-5.592 -2.788,-8.059 -0.223,-0.3 -0.651,-0.367 -0.958,-0.15 -0.307,0.217 -0.376,0.637 -0.153,0.938"
   id="path59"
   inkscape:connector-curvature="0"
   style="fill:#ffffff"
   transform="matrix(5.3242594,0,0,5.3242594,-1293.7924,-3543.9043)" /><path
   clip-path="url(#SVGID_2_)"
   d="m 243.206,674.588 0.264,-7.67 h 25.502 l 0.243,7.67 h -1.08 c -0.529,-2.409 -1.202,-3.978 -2.017,-4.705 -0.815,-0.727 -2.532,-1.092 -5.147,-1.092 h -2.512 v 23.099 c 0,1.75 0.271,2.834 0.815,3.252 0.544,0.419 1.734,0.694 3.571,0.827 v 0.815 h -13.159 v -0.815 c 1.91,-0.146 3.1,-0.463 3.57,-0.949 0.47,-0.483 0.706,-1.701 0.706,-3.658 v -22.57 h -2.513 c -2.498,0 -4.199,0.36 -5.103,1.08 -0.903,0.721 -1.583,2.293 -2.038,4.717 h -1.102"
   id="path61"
   inkscape:connector-curvature="0"
   style="fill:#d00027"
   transform="matrix(5.3242594,0,0,5.3242594,-1293.7924,-3543.9043)" /><path
   clip-path="url(#SVGID_2_)"
   d="m 267.866,696.784 v -0.728 c 1.352,-0.116 2.248,-0.355 2.689,-0.717 0.441,-0.358 0.662,-1.127 0.662,-2.302 v -9.942 c 0,-1.455 -0.137,-2.494 -0.408,-3.119 -0.273,-0.624 -0.768,-0.936 -1.488,-0.936 -0.148,0 -0.342,0.018 -0.584,0.055 -0.242,0.037 -0.496,0.084 -0.76,0.144 v -0.729 c 0.837,-0.292 1.696,-0.594 2.578,-0.902 0.882,-0.31 1.492,-0.529 1.83,-0.661 0.734,-0.279 1.491,-0.596 2.27,-0.948 0.102,0 0.165,0.037 0.187,0.11 0.022,0.073 0.033,0.228 0.033,0.463 v 3.614 c 0.94,-1.308 1.848,-2.328 2.722,-3.063 0.875,-0.734 1.782,-1.102 2.722,-1.102 0.75,0 1.36,0.225 1.83,0.672 0.47,0.448 0.706,1.011 0.706,1.686 0,0.604 -0.181,1.11 -0.54,1.521 -0.36,0.411 -0.813,0.616 -1.356,0.616 -0.559,0 -1.121,-0.256 -1.687,-0.77 -0.566,-0.515 -1.01,-0.772 -1.333,-0.772 -0.514,0 -1.146,0.415 -1.895,1.245 -0.75,0.831 -1.125,1.687 -1.125,2.568 v 9.939 c 0,1.266 0.294,2.144 0.882,2.636 0.588,0.492 1.565,0.724 2.932,0.693 v 0.728 h -10.867"
   id="path63"
   inkscape:connector-curvature="0"
   style="fill:#d00027"
   transform="matrix(5.3242594,0,0,5.3242594,-1293.7924,-3543.9043)" /><path
   clip-path="url(#SVGID_2_)"
   clip-rule="evenodd"
   d="m 289.385,668.987 c 0,1.737 1.399,3.146 3.132,3.165 v -6.331 c -1.733,0.019 -3.132,1.429 -3.132,3.166 m 3.132,7.572 v 20.186 h -7.24 v -0.621 c 1.914,-0.147 3.123,-0.418 3.625,-0.81 0.501,-0.393 0.751,-1.454 0.751,-3.185 v -10.584 c 0,-0.96 -0.08,-1.626 -0.242,-1.996 -0.268,-0.605 -0.831,-0.91 -1.69,-0.91 -0.198,0 -0.389,0.016 -0.578,0.045 -0.188,0.029 -0.73,0.147 -1.624,0.355 v -0.688 c 0,0 4.104,-1.057 6.998,-1.792 z"
   id="path65"
   inkscape:connector-curvature="0"
   style="fill:#d00027;fill-rule:evenodd"
   transform="matrix(5.3242594,0,0,5.3242594,-1293.7924,-3543.9043)" /><path
   clip-path="url(#SVGID_2_)"
   d="m 309.863,675.999 c 1.835,0 3.419,0.473 4.749,1.422 1.329,0.947 1.995,1.987 1.995,3.119 0,0.484 -0.17,0.936 -0.508,1.354 -0.339,0.419 -0.859,0.629 -1.564,0.629 -0.516,0 -0.966,-0.177 -1.356,-0.529 -0.389,-0.354 -0.672,-0.866 -0.848,-1.543 l -0.265,-1.059 c -0.191,-0.776 -0.522,-1.328 -0.991,-1.651 -0.485,-0.311 -1.124,-0.464 -1.918,-0.464 -1.675,0 -3.09,0.731 -4.244,2.192 -1.152,1.463 -1.729,3.407 -1.729,5.831 0,2.219 0.635,4.209 1.906,5.974 1.271,1.764 2.987,2.645 5.147,2.645 1.527,0 2.888,-0.499 4.078,-1.499 0.675,-0.572 1.438,-1.484 2.292,-2.733 l 0.616,0.375 c -0.838,1.763 -1.719,3.158 -2.645,4.188 -1.779,1.969 -3.835,2.954 -6.171,2.954 -2.293,0 -4.321,-0.905 -6.084,-2.713 -1.763,-1.807 -2.645,-4.261 -2.645,-7.361 0,-3.042 0.962,-5.658 2.888,-7.847 1.925,-2.188 4.357,-3.284 7.297,-3.284"
   id="path67"
   inkscape:connector-curvature="0"
   style="fill:#1b4c87"
   transform="matrix(5.3242594,0,0,5.3242594,-1293.7924,-3543.9043)" /><path
   clip-path="url(#SVGID_2_)"
   d="m 322.966,694.36 c 1.955,2.07 4.342,3.107 7.164,3.107 2.938,0 5.334,-1.08 7.185,-3.24 1.852,-2.16 2.777,-4.701 2.777,-7.628 0,-3.173 -0.955,-5.714 -2.864,-7.625 -1.91,-1.909 -4.32,-2.865 -7.23,-2.865 -2.924,0 -5.317,1.011 -7.175,3.03 -1.859,2.021 -2.787,4.493 -2.787,7.416 -10e-4,3.132 0.975,5.732 2.93,7.805 m 11.329,-13.556 c 1.131,2.249 1.698,4.645 1.698,7.187 0,2.454 -0.446,4.437 -1.334,5.951 -0.888,1.514 -2.157,2.271 -3.802,2.271 -2.102,0 -3.744,-1.132 -4.928,-3.395 -1.184,-2.264 -1.773,-4.702 -1.773,-7.318 0,-3.277 0.733,-5.583 2.204,-6.921 0.852,-0.764 1.857,-1.147 3.02,-1.147 2.145,-10e-4 3.784,1.124 4.915,3.372 z"
   id="path69"
   inkscape:connector-curvature="0"
   style="fill:#1b4c87"
   transform="matrix(5.3242594,0,0,5.3242594,-1293.7924,-3543.9043)" /><path
   clip-path="url(#SVGID_2_)"
   d="m 341.116,696.784 v -0.616 c 1.044,-0.133 1.774,-0.394 2.194,-0.783 0.42,-0.389 0.627,-1.26 0.627,-2.612 v -11.176 c 0,-0.939 -0.088,-1.601 -0.264,-1.982 -0.279,-0.56 -0.853,-0.838 -1.718,-0.838 -0.133,0 -0.269,0.008 -0.409,0.021 -0.14,0.016 -0.313,0.037 -0.517,0.067 v -0.772 c 0.601,-0.176 2.026,-0.632 4.273,-1.366 l 2.073,-0.684 c 0.104,0 0.165,0.037 0.188,0.11 0.023,0.073 0.033,0.176 0.033,0.309 v 3.24 c 1.351,-1.263 2.409,-2.131 3.175,-2.602 1.145,-0.719 2.335,-1.079 3.57,-1.079 0.999,0 1.909,0.285 2.732,0.859 1.588,1.117 2.381,3.108 2.381,5.973 v 10.294 c 0,1.059 0.212,1.822 0.64,2.293 0.427,0.469 1.139,0.712 2.139,0.728 v 0.616 h -9.413 v -0.616 c 1.071,-0.146 1.82,-0.445 2.248,-0.894 0.426,-0.447 0.64,-1.423 0.64,-2.921 v -9.411 c 0,-1.264 -0.236,-2.311 -0.705,-3.142 -0.471,-0.831 -1.338,-1.245 -2.601,-1.245 -0.868,0 -1.749,0.293 -2.646,0.881 -0.5,0.339 -1.146,0.897 -1.939,1.676 v 12.344 c 0,1.058 0.234,1.767 0.706,2.127 0.469,0.361 1.211,0.555 2.226,0.585 v 0.616 h -9.633"
   id="path71"
   inkscape:connector-curvature="0"
   style="fill:#1b4c87"
   transform="matrix(5.3242594,0,0,5.3242594,-1293.7924,-3543.9043)" /><path
   clip-path="url(#SVGID_2_)"
   d="m 295.72,668.987 c 0,-1.749 -1.418,-3.167 -3.168,-3.167 -0.011,0 -0.023,10e-4 -0.035,10e-4 v 6.331 c 0.012,10e-4 0.024,0.002 0.035,0.002 1.75,0 3.168,-1.417 3.168,-3.167 m 3.725,27.757 h -6.928 v -20.186 c 1.543,-0.393 2.744,-0.693 2.794,-0.693 0.035,0.104 0.053,0.216 0.053,0.333 v 15.931 c 0,1.687 0.245,2.744 0.738,3.173 0.492,0.43 1.606,0.702 3.343,0.821 v 0.621 z"
   id="path73"
   inkscape:connector-curvature="0"
   style="fill:#1b4c87"
   transform="matrix(5.3242594,0,0,5.3242594,-1293.7924,-3543.9043)" /><path
   clip-path="url(#SVGID_2_)"
   d="m 372.181,684.509 c -5.714,0 -10.347,2.908 -10.347,6.494 0,2.859 1.729,4.962 5.338,5.812 l -5.331,4.634 c 0,0 8.879,-4.028 9.11,-4.028 8.148,0 11.579,-2.828 11.579,-6.417 0,-3.587 -4.633,-6.495 -10.349,-6.495"
   id="path75"
   inkscape:connector-curvature="0"
   style="fill:#d00027"
   transform="matrix(5.3242594,0,0,5.3242594,-1293.7924,-3543.9043)" /><path
   clip-path="url(#SVGID_2_)"
   d="m 365.286,693.735 -0.022,-0.13 c 0.234,-0.019 0.397,-0.054 0.487,-0.103 0.142,-0.083 0.226,-0.247 0.255,-0.489 l 0.193,-1.7 -1.003,-2.154 c -0.105,-0.229 -0.195,-0.368 -0.27,-0.418 -0.075,-0.052 -0.216,-0.089 -0.428,-0.112 l -0.022,-0.129 h 1.912 l 0.022,0.129 c -0.191,0.01 -0.321,0.029 -0.389,0.054 -0.112,0.045 -0.157,0.128 -0.138,0.248 0.007,0.039 0.025,0.095 0.053,0.165 0.028,0.07 0.049,0.116 0.059,0.137 l 0.79,1.717 0.683,-1.059 c 0.154,-0.237 0.263,-0.418 0.324,-0.54 0.107,-0.208 0.151,-0.362 0.133,-0.467 -0.018,-0.104 -0.085,-0.175 -0.198,-0.211 -0.068,-0.021 -0.2,-0.036 -0.396,-0.044 l -0.022,-0.129 h 1.662 l 0.021,0.129 c -0.15,0.02 -0.265,0.058 -0.341,0.117 -0.077,0.061 -0.172,0.183 -0.286,0.365 l -1.371,2.175 -0.178,1.483 c -0.015,0.123 -0.023,0.224 -0.021,0.3 0,0.075 0.004,0.137 0.011,0.185 0.028,0.15 0.096,0.245 0.202,0.283 0.107,0.038 0.3,0.06 0.578,0.068 l 0.023,0.13 h -2.323"
   id="path77"
   inkscape:connector-curvature="0"
   style="fill:#ffffff"
   transform="matrix(5.3242594,0,0,5.3242594,-1293.7924,-3543.9043)" /><path
   clip-path="url(#SVGID_2_)"
   d="m 369.126,693.104 0.16,-2.198 c 0,-0.025 10e-4,-0.049 10e-4,-0.072 0,-0.022 -0.002,-0.045 -0.007,-0.069 -0.02,-0.11 -0.065,-0.18 -0.137,-0.205 -0.069,-0.024 -0.196,-0.036 -0.38,-0.036 l -0.02,-0.11 0.555,-0.113 0.605,-0.118 c 0.012,-0.003 0.023,0.002 0.037,0.016 0.013,0.013 0.019,0.026 0.019,0.039 l -0.003,0.056 -0.223,2.664 c -0.009,0.064 -0.011,0.116 -0.014,0.153 -10e-4,0.036 0,0.063 0.003,0.077 0.011,0.062 0.035,0.107 0.076,0.142 0.04,0.033 0.086,0.051 0.143,0.051 0.153,0 0.321,-0.137 0.505,-0.411 0.183,-0.273 0.338,-0.56 0.467,-0.854 0.115,-0.265 0.211,-0.559 0.289,-0.882 0.05,-0.201 0.114,-0.522 0.194,-0.96 h 0.591 l -0.251,2.777 c -0.004,0.052 -0.007,0.101 -0.011,0.145 -0.003,0.045 -0.002,0.082 0.005,0.109 0.006,0.035 0.019,0.064 0.038,0.088 0.02,0.025 0.051,0.038 0.089,0.038 0.04,0 0.076,-0.015 0.114,-0.045 0.035,-0.031 0.08,-0.076 0.131,-0.139 0.024,-0.029 0.066,-0.091 0.125,-0.184 0.037,-0.06 0.094,-0.146 0.169,-0.264 l 0.121,0.074 c -0.083,0.199 -0.178,0.37 -0.283,0.514 -0.208,0.29 -0.423,0.435 -0.645,0.435 -0.115,0 -0.215,-0.031 -0.3,-0.094 -0.083,-0.063 -0.137,-0.159 -0.16,-0.294 -0.013,-0.067 -0.019,-0.143 -0.02,-0.224 -10e-4,-0.081 0.003,-0.172 0.014,-0.273 0.014,-0.183 0.036,-0.412 0.059,-0.687 l 0.029,-0.333 h -0.029 c -0.255,0.598 -0.463,1.022 -0.626,1.27 -0.281,0.427 -0.583,0.64 -0.901,0.64 -0.086,0 -0.168,-0.02 -0.245,-0.056 -0.148,-0.072 -0.24,-0.202 -0.272,-0.392 -0.01,-0.054 -0.015,-0.1 -0.015,-0.133 -10e-4,-0.035 0.001,-0.083 0.003,-0.142"
   id="path79"
   inkscape:connector-curvature="0"
   style="fill:#ffffff"
   transform="matrix(5.3242594,0,0,5.3242594,-1293.7924,-3543.9043)" /><path
   clip-path="url(#SVGID_2_)"
   d="m 375.241,690.189 c 0.104,0 0.202,0.027 0.293,0.085 0.141,0.087 0.229,0.229 0.265,0.428 0.016,0.088 0.016,0.211 0,0.37 -0.016,0.158 -0.049,0.412 -0.099,0.763 0.211,-0.445 0.4,-0.783 0.568,-1.015 0.306,-0.421 0.602,-0.631 0.893,-0.631 0.123,0 0.243,0.041 0.358,0.124 0.116,0.085 0.192,0.219 0.225,0.404 0.011,0.059 0.011,0.198 -0.001,0.418 l -0.199,2.138 c -0.005,0.032 0.006,0.066 0.031,0.103 0.022,0.035 0.061,0.053 0.11,0.053 0.048,0 0.086,-0.012 0.116,-0.035 0.031,-0.023 0.07,-0.063 0.115,-0.117 0.042,-0.053 0.077,-0.099 0.103,-0.138 0.026,-0.04 0.1,-0.152 0.222,-0.341 l 0.137,0.094 -0.029,0.057 c -0.141,0.265 -0.294,0.477 -0.457,0.635 -0.161,0.159 -0.337,0.237 -0.521,0.237 -0.083,0 -0.158,-0.021 -0.223,-0.062 -0.102,-0.068 -0.165,-0.183 -0.194,-0.342 -0.007,-0.039 -0.01,-0.08 -0.013,-0.125 -10e-4,-0.044 0,-0.094 0.003,-0.15 l 0.178,-2.192 c 0.002,-0.031 0.004,-0.058 0.004,-0.078 0,-0.022 -0.002,-0.043 -0.004,-0.063 -0.012,-0.063 -0.036,-0.111 -0.075,-0.146 -0.039,-0.033 -0.084,-0.05 -0.133,-0.05 -0.175,0 -0.356,0.132 -0.542,0.395 -0.187,0.265 -0.34,0.532 -0.466,0.804 -0.106,0.276 -0.176,0.509 -0.207,0.696 -0.032,0.187 -0.076,0.595 -0.135,1.229 h -0.607 l 0.253,-2.786 c 0.002,-0.024 0.003,-0.046 0.003,-0.069 0,-0.021 -0.004,-0.045 -0.007,-0.069 -0.011,-0.062 -0.033,-0.11 -0.068,-0.145 -0.032,-0.037 -0.08,-0.054 -0.143,-0.054 -0.165,0 -0.344,0.137 -0.537,0.41 -0.194,0.274 -0.347,0.53 -0.459,0.769 -0.109,0.233 -0.201,0.543 -0.271,0.929 -0.043,0.235 -0.094,0.573 -0.153,1.016 h -0.605 l 0.272,-2.786 c 0.005,-0.029 0.005,-0.057 0.006,-0.083 0,-0.026 -10e-4,-0.052 -0.006,-0.082 -0.019,-0.103 -0.065,-0.162 -0.14,-0.185 -0.073,-0.021 -0.211,-0.027 -0.41,-0.02 l -0.023,-0.133 c 0.257,-0.041 0.668,-0.128 1.236,-0.258 l 0.037,0.026 -0.175,1.619 c 0.215,-0.428 0.426,-0.788 0.635,-1.075 0.287,-0.381 0.568,-0.572 0.839,-0.572"
   id="path81"
   inkscape:connector-curvature="0"
   style="fill:#ffffff"
   transform="matrix(5.3242594,0,0,5.3242594,-1293.7924,-3543.9043)" /><path
   clip-path="url(#SVGID_2_)"
   d="m 380.231,688.77 c 0.022,0.123 0.021,0.257 -0.004,0.399 -0.024,0.145 -0.124,0.554 -0.297,1.228 -0.03,0.115 -0.091,0.389 -0.185,0.825 -0.092,0.434 -0.169,0.8 -0.23,1.095 l -0.134,-0.027 c 0.012,-0.392 0.024,-0.788 0.035,-1.188 0.016,-0.64 0.025,-0.994 0.024,-1.062 l -0.007,-0.725 c -0.005,-0.339 0.023,-0.576 0.087,-0.719 0.062,-0.144 0.162,-0.215 0.301,-0.215 0.102,0 0.19,0.039 0.268,0.116 0.076,0.078 0.124,0.168 0.142,0.273 m -1.306,4.612 c -0.018,-0.098 0.006,-0.188 0.072,-0.272 0.063,-0.084 0.157,-0.127 0.28,-0.127 0.106,0 0.213,0.039 0.317,0.116 0.104,0.079 0.166,0.179 0.188,0.3 0.02,0.113 -0.005,0.215 -0.075,0.301 -0.07,0.086 -0.163,0.13 -0.284,0.13 -0.106,0 -0.211,-0.04 -0.31,-0.117 -0.101,-0.076 -0.163,-0.188 -0.188,-0.331 z"
   id="path83"
   inkscape:connector-curvature="0"
   style="fill:#ffffff"
   transform="matrix(5.3242594,0,0,5.3242594,-1293.7924,-3543.9043)" /><path
   clip-path="url(#SVGID_2_)"
   d="m 344.002,701.263 c 1.676,2.268 2.527,4.714 2.527,7.271 0,0.371 0.307,0.671 0.686,0.671 0.379,0 0.686,-0.301 0.686,-0.671 -0.001,-2.806 -0.966,-5.592 -2.788,-8.059 -0.223,-0.3 -0.651,-0.367 -0.958,-0.15 -0.307,0.217 -0.376,0.637 -0.153,0.938"
   id="path85"
   inkscape:connector-curvature="0"
   style="fill:#ffffff"
   transform="matrix(5.3242594,0,0,5.3242594,-1293.7924,-3543.9043)" /><path
   clip-path="url(#SVGID_2_)"
   d="m 309.863,675.999 c 1.835,0 3.419,0.473 4.749,1.422 1.329,0.947 1.995,1.987 1.995,3.119 0,0.484 -0.17,0.936 -0.508,1.354 -0.339,0.419 -0.859,0.629 -1.564,0.629 -0.516,0 -0.966,-0.177 -1.356,-0.529 -0.389,-0.354 -0.672,-0.866 -0.848,-1.543 l -0.265,-1.059 c -0.191,-0.776 -0.522,-1.328 -0.991,-1.651 -0.485,-0.311 -1.124,-0.464 -1.918,-0.464 -1.675,0 -3.09,0.731 -4.244,2.192 -1.152,1.463 -1.729,3.407 -1.729,5.831 0,2.219 0.635,4.209 1.906,5.974 1.271,1.764 2.987,2.645 5.147,2.645 1.527,0 2.888,-0.499 4.078,-1.499 0.675,-0.572 1.438,-1.484 2.292,-2.733 l 0.616,0.375 c -0.838,1.763 -1.719,3.158 -2.645,4.188 -1.779,1.969 -3.835,2.954 -6.171,2.954 -2.293,0 -4.321,-0.905 -6.084,-2.713 -1.763,-1.807 -2.645,-4.261 -2.645,-7.361 0,-3.042 0.962,-5.658 2.888,-7.847 1.925,-2.188 4.357,-3.284 7.297,-3.284"
   id="path87"
   inkscape:connector-curvature="0"
   style="fill:#1b4c87"
   transform="matrix(5.3242594,0,0,5.3242594,-1293.7924,-3543.9043)" /><path
   clip-path="url(#SVGID_2_)"
   d="m 322.966,694.36 c 1.955,2.07 4.342,3.107 7.164,3.107 2.938,0 5.334,-1.08 7.185,-3.24 1.852,-2.16 2.777,-4.701 2.777,-7.628 0,-3.173 -0.955,-5.714 -2.864,-7.625 -1.91,-1.909 -4.32,-2.865 -7.23,-2.865 -2.924,0 -5.317,1.011 -7.175,3.03 -1.859,2.021 -2.787,4.493 -2.787,7.416 -10e-4,3.132 0.975,5.732 2.93,7.805 m 11.329,-13.556 c 1.131,2.249 1.698,4.645 1.698,7.187 0,2.454 -0.446,4.437 -1.334,5.951 -0.888,1.514 -2.157,2.271 -3.802,2.271 -2.102,0 -3.744,-1.132 -4.928,-3.395 -1.184,-2.264 -1.773,-4.702 -1.773,-7.318 0,-3.277 0.733,-5.583 2.204,-6.921 0.852,-0.764 1.857,-1.147 3.02,-1.147 2.145,-10e-4 3.784,1.124 4.915,3.372 z"
   id="path89"
   inkscape:connector-curvature="0"
   style="fill:#1b4c87"
   transform="matrix(5.3242594,0,0,5.3242594,-1293.7924,-3543.9043)" /><path
   clip-path="url(#SVGID_2_)"
   d="m 341.116,696.784 v -0.616 c 1.044,-0.133 1.774,-0.394 2.194,-0.783 0.42,-0.389 0.627,-1.26 0.627,-2.612 v -11.176 c 0,-0.939 -0.088,-1.601 -0.264,-1.982 -0.279,-0.56 -0.853,-0.838 -1.718,-0.838 -0.133,0 -0.269,0.008 -0.409,0.021 -0.14,0.016 -0.313,0.037 -0.517,0.067 v -0.772 c 0.601,-0.176 2.026,-0.632 4.273,-1.366 l 2.073,-0.684 c 0.104,0 0.165,0.037 0.188,0.11 0.023,0.073 0.033,0.176 0.033,0.309 v 3.24 c 1.351,-1.263 2.409,-2.131 3.175,-2.602 1.145,-0.719 2.335,-1.079 3.57,-1.079 0.999,0 1.909,0.285 2.732,0.859 1.588,1.117 2.381,3.108 2.381,5.973 v 10.294 c 0,1.059 0.212,1.822 0.64,2.293 0.427,0.469 1.139,0.712 2.139,0.728 v 0.616 h -9.413 v -0.616 c 1.071,-0.146 1.82,-0.445 2.248,-0.894 0.426,-0.447 0.64,-1.423 0.64,-2.921 v -9.411 c 0,-1.264 -0.236,-2.311 -0.705,-3.142 -0.471,-0.831 -1.338,-1.245 -2.601,-1.245 -0.868,0 -1.749,0.293 -2.646,0.881 -0.5,0.339 -1.146,0.897 -1.939,1.676 v 12.344 c 0,1.058 0.234,1.767 0.706,2.127 0.469,0.361 1.211,0.555 2.226,0.585 v 0.616 h -9.633"
   id="path91"
   inkscape:connector-curvature="0"
   style="fill:#1b4c87"
   transform="matrix(5.3242594,0,0,5.3242594,-1293.7924,-3543.9043)" /><path
   clip-path="url(#SVGID_2_)"
   d="m 295.72,668.987 c 0,-1.749 -1.418,-3.167 -3.168,-3.167 -0.011,0 -0.023,10e-4 -0.035,10e-4 v 6.331 c 0.012,10e-4 0.024,0.002 0.035,0.002 1.75,0 3.168,-1.417 3.168,-3.167 m 3.725,27.757 h -6.928 v -20.186 c 1.543,-0.393 2.744,-0.693 2.794,-0.693 0.035,0.104 0.053,0.216 0.053,0.333 v 15.931 c 0,1.687 0.245,2.744 0.738,3.173 0.492,0.43 1.606,0.702 3.343,0.821 v 0.621 z"
   id="path93"
   inkscape:connector-curvature="0"
   style="fill:#1b4c87"
   transform="matrix(5.3242594,0,0,5.3242594,-1293.7924,-3543.9043)" /><path
   clip-path="url(#SVGID_2_)"
   d="m 292.311,676.611 c 0,0.104 0,20.133 0,20.133 h 0.206 v -20.186 c -0.067,0.018 -0.138,0.036 -0.206,0.053"
   id="path95"
   inkscape:connector-curvature="0"
   style="fill:#164d62"
   transform="matrix(5.3242594,0,0,5.3242594,-1293.7924,-3543.9043)" /><path
   clip-path="url(#SVGID_2_)"
   d="m 292.311,665.844 c 0,0.045 0,6.24 0,6.285 0.069,0.005 0.136,0.022 0.206,0.023 v -6.331 c -0.07,10e-4 -0.137,0.018 -0.206,0.023"
   id="path97"
   inkscape:connector-curvature="0"
   style="fill:#164d62"
   transform="matrix(5.3242594,0,0,5.3242594,-1293.7924,-3543.9043)" />
</svg>