<?xml version="1.0" encoding="UTF-8" standalone="no"?>
<svg
   xmlns:dc="http://purl.org/dc/elements/1.1/"
   xmlns:cc="http://creativecommons.org/ns#"
   xmlns:rdf="http://www.w3.org/1999/02/22-rdf-syntax-ns#"
   xmlns:svg="http://www.w3.org/2000/svg"
   xmlns="http://www.w3.org/2000/svg"
   xmlns:sodipodi="http://sodipodi.sourceforge.net/DTD/sodipodi-0.dtd"
   xmlns:inkscape="http://www.inkscape.org/namespaces/inkscape"
   version="1.1"
   id="Layer_1"
   x="0px"
   y="0px"
   width="480"
   height="400"
   viewBox="0 0 480 400"
   enable-background="new 0 0 1275 855"
   xml:space="preserve">
<path
   style="fill:#e00038"
   inkscape:connector-curvature="0"
   d="M 15.982635,399.99998 206.39229,299.46318 c 10.98975,0.97746 22.20845,1.47939 33.60326,1.47939 132.55499,0 240.00441,-67.34741 240.00441,-150.41333 C 479.99996,67.445717 372.55054,0.10711197 239.99555,0.10711197 107.44937,0.10711197 -4.6727e-5,67.445717 -4.6727e-5,150.52924 c 0,56.32245 49.383404727,105.38884 122.481056727,131.19008 L 15.982635,399.99998"
   id="path3" /><path
   style="fill:#ffffff"
   inkscape:connector-curvature="0"
   d="m 155.89054,81.904981 h -47.05865 l 2.28953,13.103157 4.05951,0.1497 c 6.04965,0.220147 8.02216,0.713277 8.48888,0.854171 1.27685,0.40507 1.3561,0.845365 1.44416,1.338494 0.0176,0.05284 0.0264,0.176118 0.0264,0.34343 0,0.827753 -0.31701,3.126087 -2.82669,7.951717 -1.54103,2.994 -4.22682,7.47619 -7.76679,12.97107 0,0 -6.97426,10.76959 -11.9672,18.48355 -4.940101,-10.74318 -15.780145,-34.33415 -15.780145,-34.33415 0,0 -0.07925,-0.17611 -0.105671,-0.20253 -0.1497,-0.26418 -0.554771,-1.1888 -1.162377,-2.729827 -0.7485,-1.981324 -0.959841,-2.773854 -1.012677,-3.073254 -0.04403,-0.220147 -0.04403,-0.34343 -0.04403,-0.457906 0.07925,-0.03522 0.167312,-0.08806 0.325818,-0.1497 0.369847,-0.1497 2.280724,-0.722083 8.057385,-0.995065 l 5.67099,-0.281788 -2.28953,-12.971069 H 38.719431 l 2.324754,12.830174 3.742501,0.405071 c 6.128896,0.64283 7.942908,1.69073 8.251114,1.902071 0.176118,0.140895 1.743566,1.408942 4.957714,8.286343 0,0 23.071419,49.58594 24.207379,52.04278 -0.290595,2.61535 -4.631896,40.62155 -4.631896,40.62155 -0.49313,4.3413 -1.796401,7.15918 -3.848172,8.34798 -0.64283,0.35223 -3.020419,1.32968 -9.924233,1.86684 l -5.547707,0.41388 2.307141,12.80376 h 67.673234 l -2.35998,-13.12077 -4.08593,-0.11448 c -8.21589,-0.22015 -11.52691,-0.96865 -12.77734,-1.40894 -0.77492,-0.25537 -1.3385,-1.32969 -1.66431,-3.15251 -0.0969,-0.54596 -0.25538,-1.71714 -0.25538,-3.68966 0,-1.69073 0.17612,-4.02429 0.50194,-6.77173 0,-0.0176 3.54877,-29.64061 4.26205,-35.611 1.16238,-1.84043 33.31266,-52.8265 33.31266,-52.8265 3.40788,-5.459654 5.27473,-7.220831 5.93517,-7.749184 0.66044,-0.501935 2.30714,-1.426553 5.9792,-1.866848 l 5.27472,-0.625217 -2.25431,-12.592416 h -4.20921"
   id="path5" /><path
   style="fill:#ffffff"
   inkscape:connector-curvature="0"
   d="m 171.96128,123.63607 0.22015,-0.0528 -14.90837,2.90594 c -0.0616,0.0176 -18.57161,3.81295 -18.57161,3.81295 l 2.04297,11.65018 h 4.21802 c 4.80801,0 6.77172,0.36985 7.47619,0.55477 0.0969,0.20254 0.24657,0.58119 0.36985,1.31208 l 0.0704,0.82775 c 0,0 -0.0176,1.40894 -0.0176,1.54984 -0.0264,0.2994 -3.98026,54.40276 -3.98026,54.40276 0,0 -0.044,3.68086 -0.044,3.78653 0.009,1.10954 0.1497,2.3952 0.44029,4.07712 1.38252,7.85485 5.91756,11.57094 9.48394,13.34092 2.65057,1.25924 5.39801,1.85804 8.25111,1.85804 9.63364,0 18.554,-6.05845 26.51452,-18.02565 1.45298,-2.2455 3.04684,-4.99293 4.75518,-8.22469 -0.17612,1.87565 -0.28179,3.68966 -0.28179,5.34517 0,0.24657 0,0.50194 0.009,0.72208 0.0176,2.18386 0.19373,4.31489 0.54597,6.34024 0.81014,4.60548 2.81788,8.11903 5.96158,10.43497 2.90594,2.19267 6.41068,3.30221 10.37333,3.30221 7.1856,0 13.92211,-4.31488 20.02459,-12.83017 2.77385,-3.81295 5.27472,-8.29515 7.59067,-13.64032 l 1.73476,-4.02429 -10.98975,-6.63964 -6.80695,10.6199 c -1.77879,2.8443 -2.60654,3.90101 -2.74743,4.07713 -0.11448,0.14089 -0.20254,0.22895 -0.30821,0.36104 0.0528,-0.82776 0.11448,-1.6467 0.11448,-1.6467 -0.009,0.0616 6.18173,-68.65069 6.18173,-68.65069 l 0.50194,-5.46845 h -24.31305 l -0.7485,4.13877 c -1.91969,10.61109 -3.48714,18.49236 -4.67593,23.44126 -1.82282,7.56426 -4.14757,14.62658 -6.90381,20.98443 -3.09968,7.06232 -6.84218,13.9221 -11.13064,20.3504 -5.03697,7.56425 -7.81082,7.94291 -8.31276,7.94291 -0.1585,0 -0.22015,-0.0176 -0.22015,-0.0176 -0.009,0 -0.0616,-0.0528 -0.088,-0.0704 -0.0176,-0.044 -0.0881,-0.19373 -0.1409,-0.48433 0,-0.0793 0.009,-0.85417 0.009,-0.85417 0.009,-0.0616 0.28179,-3.51354 0.28179,-3.51354 0.009,-0.0969 5.55651,-66.10579 5.55651,-66.10579 l 0.0528,-1.58506 v -0.0881 c 0,-1.6379 -0.66924,-3.21415 -1.88445,-4.45578 l -0.0528,-0.0793 -0.0616,-0.0617 c -2.25431,-2.13983 -4.66712,-1.84923 -5.59174,-1.62028"
   id="path7" /><path
   style="fill:#ffffff"
   inkscape:connector-curvature="0"
   d="m 276.79535,123.80338 c -13.83405,3.18773 -24.00485,5.33637 -30.23941,6.34024 l -5.02816,0.82775 2.26311,12.60123 4.35891,-0.15851 c 5.24831,-0.21134 7.44978,0.0705 8.26873,0.21134 0.0616,0.15851 0.12328,0.36985 0.18492,0.69567 0.0528,0.31701 0.0704,0.63402 0.0704,1.06551 0,0.12328 -0.10567,1.60267 -0.10567,1.60267 0,0.0352 -7.27366,74.44495 -7.27366,74.44495 h 24.83259 l 0.59,-4.33249 c 1.497,-10.83124 2.77385,-19.22325 3.79533,-24.90305 1.6379,-9.05245 3.76012,-16.34372 6.31382,-21.68889 2.71222,-5.75905 6.36666,-11.89675 10.87527,-18.22818 5.28353,-7.52023 8.36559,-8.10142 9.18454,-8.10142 0.044,0 0.0176,0.0176 0.0704,0.0176 0.0616,0.1497 0.14089,0.39627 0.21134,0.78373 l 0.0704,0.81894 c 0,0 -0.0176,1.30328 -0.0352,1.39133 -0.0176,0.25537 -6.72769,74.25123 -6.72769,74.25123 h 25.07035 l 0.43149,-4.56145 c 1.46178,-15.76253 2.5449,-25.55468 3.2934,-29.99284 0.69567,-4.27967 2.32475,-9.68648 4.81682,-16.07075 2.94117,-6.40187 6.63964,-12.75972 10.99855,-18.93265 3.46071,-4.92249 6.7365,-7.6347 9.22857,-7.66993 0.0352,0.0352 0.14089,0.22896 0.21134,0.66045 l 0.0352,0.18492 0.0264,0.53716 -0.0616,1.61148 c 0.009,-0.0704 -4.38533,54.165 -4.38533,54.165 l -0.0264,0.1585 0.0176,-0.0352 -0.10567,4.08593 c 0.0528,1.40894 0.17612,2.64177 0.38746,3.83937 0.96865,5.3892 3.30221,9.33423 6.94784,11.79108 2.50968,1.59386 5.27473,2.37758 8.31276,2.37758 5.88233,0 11.39482,-2.44803 16.38775,-7.27366 4.42056,-4.27966 8.53291,-10.02109 12.23138,-17.00416 -0.009,0.0176 0.70447,-1.32969 0.70447,-1.32969 l 2.13102,-3.94504 -11.39481,-7.82843 -7.44098,11.57974 c 0,0 -0.67805,1.03029 -0.7573,1.16238 -0.62522,0.91581 -1.38253,1.91968 -2.2367,2.95878 0,0.0176 -0.0176,0.0264 -0.0176,0.044 0.58119,-6.15531 4.60548,-49.40982 4.60548,-49.40982 l 0.0176,-0.11447 c 0.13209,-3.1349 0.18492,-5.40682 0.18492,-7.07994 0,-2.47445 -0.11447,-3.62802 -0.25537,-4.40294 -1.03028,-5.91755 -3.57519,-10.34691 -7.56425,-13.20002 -3.72489,-2.66818 -7.69635,-4.0331 -11.79108,-4.0331 -8.92917,0 -17.48849,5.78547 -26.12706,17.68222 h -0.0176 c -0.7485,1.0479 -1.51461,2.19267 -2.29833,3.39907 -0.0176,-1.58506 -0.12328,-3.0028 -0.33463,-4.21802 -1.07431,-6.25217 -4.12115,-11.0778 -8.79707,-13.98374 -3.10848,-1.92849 -6.44591,-2.87953 -9.92424,-2.87953 -8.44484,0 -16.54626,5.27473 -24.77976,16.14119 l -0.0616,0.0969 c -1.32969,1.84923 -2.67699,3.79533 -4.01548,5.87352 0.81894,-7.60828 1.99893,-18.73012 1.99893,-18.73012 l -5.07219,-3.77772 -2.2543,0.48432"
   id="path9" /><path
   style="fill:#ffffff"
   inkscape:connector-curvature="0"
   d="m 399.8664,197.91371 v 0.0176 c -2.42162,3.20534 -3.36385,6.86859 -2.72102,10.61109 0.8982,4.84323 3.08206,8.64738 6.53397,11.30675 3.36385,2.59774 6.98306,3.90101 10.74318,3.90101 4.491,0 8.25992,-1.74356 10.9281,-5.02816 2.62415,-3.24057 3.63683,-7.21202 2.90594,-11.48287 -0.73089,-4.20922 -3.0028,-7.84605 -6.55158,-10.53184 -3.48713,-2.62416 -7.13276,-3.92743 -10.88407,-3.92743 -5.80308,0 -9.16693,2.78266 -10.95452,5.13383 m 12.38107,-110.628334 -0.0176,0.03522 c -1.83162,4.218019 -2.66818,10.707957 -2.56251,19.82205 l 0.17612,17.93759 c 0.0176,1.12715 -0.0705,6.52516 -0.5988,26.07422 l -0.95104,33.57684 4.14757,0.84537 8.19828,1.63789 6.70128,-31.91253 c 2.79147,-13.10315 3.98907,-18.22818 4.4822,-20.21831 4.38533,-16.95133 6.83336,-27.01645 7.45858,-30.72373 0.68686,-4.12996 0.71328,-8.022163 0.0704,-11.597353 -0.58119,-3.557578 -2.22789,-6.745308 -4.88727,-9.39588 -2.79146,-2.8443 -6.33143,-4.358913 -10.16199,-4.358913 -5.41562,-0.01761 -9.68647,2.93236 -12.05526,8.277532 z"
   id="path11" />
</svg>