<?xml version="1.0" encoding="UTF-8" standalone="no"?>
<svg
   xmlns:dc="http://purl.org/dc/elements/1.1/"
   xmlns:cc="http://creativecommons.org/ns#"
   xmlns:rdf="http://www.w3.org/1999/02/22-rdf-syntax-ns#"
   xmlns:svg="http://www.w3.org/2000/svg"
   xmlns="http://www.w3.org/2000/svg"
   xmlns:sodipodi="http://sodipodi.sourceforge.net/DTD/sodipodi-0.dtd"
   xmlns:inkscape="http://www.inkscape.org/namespaces/inkscape"
   version="1.1"
   id="Layer_1"
   x="0px"
   y="0px"
   width="507"
   height="426"
   viewBox="0 0 507 426"
   enable-background="new 0 0 842 1274"
   xml:space="preserve">
<path
   style="fill:#d71920"
   inkscape:connector-curvature="0"
   d="M 32.391262,424.9213 137.99316,300.53789 C 56.707422,274.25587 1.0786599,221.03654 1.0786599,159.63118 1.0786599,72.084935 114.09034,1.0821486 253.52517,1.0821486 c 139.3441,0 252.3961,71.0027864 252.3961,158.5490314 0,87.5664 -113.052,158.52887 -252.3961,158.52887 -8.43807,0 -16.69468,-0.28228 -24.95129,-0.77627 L 32.391262,424.9213 z"
   id="path3" /><path
   style="fill:none;stroke:#d71920;stroke-width:2.15740395;stroke-miterlimit:3.86400008"
   inkscape:connector-curvature="0"
   stroke-miterlimit="3.864"
   d="M 32.391262,424.9213 137.99316,300.53789 C 56.707422,274.25587 1.0786599,221.03654 1.0786599,159.63118 1.0786599,72.084935 114.09034,1.0821486 253.52517,1.0821486 c 139.3441,0 252.3961,71.0027864 252.3961,158.5490314 0,87.5664 -113.052,158.52887 -252.3961,158.52887 -8.43807,0 -16.69468,-0.28228 -24.95129,-0.77627 L 32.391262,424.9213 z"
   id="path5" /><path
   style="fill:#ffffff"
   inkscape:connector-curvature="0"
   d="m 103.26299,168.97657 -4.284564,42.62385 c -1.320653,12.61174 -6.189934,13.24686 -17.470939,14.23483 l 0.9174,4.87936 63.623253,0 -0.93756,-4.87936 c -9.14376,-0.46374 -15.30346,-0.63512 -16.76525,-8.63969 -0.52423,-3.22603 -0.60488,-5.78669 -0.0806,-9.54702 l 3.60912,-37.67392 28.14706,-52.71526 c 3.97204,-7.11742 7.3997,-12.0371 15.68655,-13.65012 l -0.90732,-4.869277 -41.02092,0 0.85691,4.869277 c 10.64588,0 13.72069,3.22603 14.60784,8.19612 0.68553,3.93172 0.90732,5.46408 -2.89334,12.81337 l -18.94281,36.64562 c -19.55778,-39.4079 -23.15681,-44.95263 -24.14478,-50.49736 -0.74602,-4.5366 1.14927,-7.15775 12.57142,-7.15775 l -0.82667,-4.869277 -55.820311,0 0.826669,4.869277 c 9.698236,1.42147 11.149947,1.61302 16.533376,12.45044 l 26.715516,52.91689"
   id="path7" /><path
   style="fill:#ffffff"
   inkscape:connector-curvature="0"
   d="m 266.62081,204.53341 c -1.27024,2.76228 -6.79481,14.59776 -11.53304,14.59776 -0.90731,0 -2.89334,-0.41333 -3.59903,-3.7805 -1.03838,-6.32099 5.91774,-59.36893 7.42994,-73.22068 l -23.2677,0 c -2.36912,21.09014 -4.13335,36.7162 -10.26279,52.67494 -1.73399,4.76847 -10.41402,23.5903 -18.27745,23.5903 -2.62115,0 -4.71806,-1.04845 -5.43384,-4.84911 -0.60488,-3.50831 -0.43349,-5.67579 0.63513,-13.18638 l 7.7727,-60.74 c -2.72196,0.16131 -22.74347,4.70798 -40.2749,5.454 l 0.9174,5.33302 c 6.8049,0.45366 11.24068,0.62505 12.148,5.73628 1.98602,11.46247 -6.50246,47.35199 -4.03253,61.04243 0.72585,4.42571 2.67155,15.34378 17.85403,15.34378 15.00101,0 21.28168,-11.41206 32.58285,-32.3913 l 0.50406,0.21171 c -0.99805,5.86733 -2.1574,12.65206 -0.58471,21.09013 1.89529,11.08946 12.148,11.08946 15.04134,11.08946 16.70476,0 24.31616,-18.77143 26.87681,-25.39486 l -4.49627,-2.60098"
   id="path9" /><path
   style="fill:#ffffff"
   inkscape:connector-curvature="0"
   d="m 267.1652,150.32611 c 2.81269,-0.2117 10.4241,-0.57463 11.5028,5.14148 1.15935,6.49237 -2.95383,33.98415 -6.86538,75.17646 l 23.90282,0 c 5.6153,-71.82946 26.65503,-76.74915 28.01601,-76.74915 1.36098,0 3.98212,1.0283 4.64749,4.70798 0.90732,5.54473 -2.48001,22.95518 -9.02279,72.04117 l 23.73145,0 c 4.04261,-32.3409 5.28261,-41.19231 10.32328,-53.85445 2.17756,-5.73628 9.59742,-22.8947 17.86411,-22.8947 3.16553,0 5.13139,2.18765 5.54473,4.54668 0.90732,4.70798 -9.0732,46.72695 -6.61335,61.13317 2.30862,12.87385 12.81336,12.87385 16.20069,12.87385 15.71679,0 22.07811,-15.43451 26.38283,-25.88884 l -4.80879,-2.56066 c -2.48001,5.17172 -7.07709,15.00101 -10.73661,15.00101 -1.20976,0 -3.53855,-0.57463 -3.98213,-2.92358 -1.29041,-7.69205 9.18409,-47.96696 6.86539,-60.99203 -1.53237,-8.73043 -7.51059,-15.63614 -18.31778,-15.63614 -16.24101,0 -24.93112,16.61403 -32.12919,32.57277 l -0.3226,-0.37301 c 1.0283,-4.587 2.51025,-11.281 1.22992,-18.97306 -2.37919,-13.23678 -14.35581,-13.23678 -15.42443,-13.23678 -17.53142,0 -26.87681,19.72916 -35.2544,37.33115 l -0.63512,-0.41333 5.37335,-36.67587 c -13.0654,3.10505 -17.8742,3.51839 -38.48043,5.33302 l 1.00813,5.31286"
   id="path11" /><path
   style="fill:#ffffff;fill-rule:evenodd"
   inkscape:connector-curvature="0"
   clip-rule="evenodd"
   d="m 431.41018,204.78544 c -6.5327,0 -13.31743,5.33302 -11.66409,14.59776 1.3509,7.7223 8.13563,13.84167 16.81565,13.84167 8.90181,0 13.70053,-6.72425 12.38995,-13.84167 -1.25008,-7.4501 -9.10344,-14.59776 -17.54151,-14.59776 m 8.68003,-14.43646 c 6.694,-32.5526 17.28947,-63.09902 19.37631,-69.05709 1.48195,-4.12326 1.30049,-8.26669 0.8065,-11.03905 -2.29854,-12.813368 -12.57141,-14.638088 -15.95874,-14.638088 -11.72458,0 -13.73076,10.676128 -12.67223,18.973058 2.99416,22.71323 2.76229,53.89477 2.4296,74.22881 l 6.01856,1.53236 z"
   id="path13" />
</svg>