<?xml version="1.0" encoding="UTF-8" standalone="no"?>
<!-- Generator: Adobe Illustrator 13.0.0, SVG Export Plug-In . SVG Version: 6.00 Build 14948)  -->

<svg
   xmlns:dc="http://purl.org/dc/elements/1.1/"
   xmlns:cc="http://creativecommons.org/ns#"
   xmlns:rdf="http://www.w3.org/1999/02/22-rdf-syntax-ns#"
   xmlns:svg="http://www.w3.org/2000/svg"
   xmlns="http://www.w3.org/2000/svg"
   xmlns:sodipodi="http://sodipodi.sourceforge.net/DTD/sodipodi-0.dtd"
   xmlns:inkscape="http://www.inkscape.org/namespaces/inkscape"
   version="1.1"
   id="Layer_1"
   x="0px"
   y="0px"
   width="175.241"
   height="38.549999"
   viewBox="0 0 175.24099 38.549999"
   enable-background="new 0 0 185.167 56.667"
   xml:space="preserve"
   inkscape:version="0.47 r22583"
   sodipodi:docname="Zenith.svg"><metadata
   id="metadata39"><rdf:RDF><cc:Work
       rdf:about=""><dc:format>image/svg+xml</dc:format><dc:type
         rdf:resource="http://purl.org/dc/dcmitype/StillImage" /></cc:Work></rdf:RDF></metadata><defs
   id="defs37"><inkscape:perspective
     sodipodi:type="inkscape:persp3d"
     inkscape:vp_x="0 : 28.3335 : 1"
     inkscape:vp_y="0 : 1000 : 0"
     inkscape:vp_z="185.16701 : 28.3335 : 1"
     inkscape:persp3d-origin="92.583504 : 18.889 : 1"
     id="perspective41" /></defs><sodipodi:namedview
   pagecolor="#ffffff"
   bordercolor="#666666"
   borderopacity="1"
   objecttolerance="10"
   gridtolerance="10"
   guidetolerance="10"
   inkscape:pageopacity="0"
   inkscape:pageshadow="2"
   inkscape:window-width="640"
   inkscape:window-height="481"
   id="namedview35"
   showgrid="false"
   inkscape:zoom="2.9162863"
   inkscape:cx="87.8995"
   inkscape:cy="21.6505"
   inkscape:window-x="0"
   inkscape:window-y="0"
   inkscape:window-maximized="0"
   inkscape:current-layer="Layer_1" />

<g
   id="g2847"><g
     transform="translate(-4.684004,-11.434)"
     id="XMLID_1_">
	<g
   id="g4">
		<path
   style="fill:#7a7c7f"
   id="path6"
   d="m 62.614,23.063 c 3.38,0 3.64,2.99 3.64,4.18 v 6.479 h -1.23 v -6.68 c 0,-1.8 -1.03,-2.85 -2.72,-2.85 -2.04,0 -2.97,1.71 -2.97,3.57 v 5.959 h -1.24 v -14.89 h 1.24 v 6.11 h 0.04 c 0.72,-1.278 1.9,-1.878 3.24,-1.878 z" />
		<path
   style="fill:#7a7c7f"
   id="path8"
   d="m 51.294,24.502 v 6.93 c -0.02,0.95 0.47,1.46 1.42,1.46 0.37,0 0.74,-0.02 1.07,-0.119 v 1.069 c -0.39,0.11 -0.84,0.19 -1.26,0.19 -2.61,0 -2.47,-1.67 -2.47,-3.08 v -6.45 h -2.06 v -1.13 h 2.06 v -2.21 l 1.24,-0.53 v 2.74 h 2.35 v 1.13 h -2.35 z" />
		<rect
   style="fill:#7a7c7f"
   id="rect10"
   height="1.55"
   width="1.45"
   y="18.833"
   x="42.444" />
		<polygon
   style="fill:#7a7c7f"
   id="polygon12"
   points="42.554,24.482 41.124,24.482 41.124,23.373 43.784,23.373 43.784,33.722 42.554,33.722 " />
		<path
   style="fill:#7a7c7f"
   id="path14"
   d="m 33.524,23.063 c 3.38,0 3.65,2.99 3.65,4.18 v 6.479 h -1.24 v -6.68 c 0,-1.8 -1.03,-2.85 -2.72,-2.85 -2.04,0 -2.97,1.71 -2.97,3.57 v 5.959 h -1.24 v -8.02 c 0,-0.81 -0.06,-1.63 -0.1,-2.33 h 1.28 l 0.06,1.52 0.04,0.05 c 0.72,-1.278 1.9,-1.878 3.24,-1.878 z" />
		<path
   style="fill:#7a7c7f"
   id="path16"
   d="m 23.684,27.703 c -0.14,-2 -1.21,-3.51 -3.36,-3.51 -2.02,0 -3.09,1.69 -3.25,3.51 h 6.61 z m -3.38,-4.64 c 3.47,0 4.72,2.54 4.72,5.77 h -8 c 0.05,2.21 1.06,4.06 3.59,4.06 1.47,0 2.68,-1.05 2.99,-2.47 h 1.3 c -0.64,2.47 -2.19,3.61 -4.68,3.61 -3.09,0 -4.54,-2.66 -4.54,-5.49 0,-2.8 1.55,-5.48 4.62,-5.48 z" />
		<polygon
   style="fill:#7a7c7f"
   id="polygon18"
   points="12.184,33.722 4.684,33.722 4.684,32.583 10.724,24.502 4.684,24.502 4.684,23.373 12.184,23.373 12.184,24.502 6.184,32.583 12.184,32.583 " />
	</g>
	<g
   id="g20">
	</g>
</g><g
     transform="translate(-4.684004,-11.434)"
     id="XMLID_2_">
	<g
   id="g23">
		<path
   style="fill:#ee2d2b"
   id="path25"
   d="m 136.594,34.002 c -5.09,0.15 -19.53,3.84 -24.59,5.39 l 0.79,-1.09 h -0.48 c -3.529,0 -28.79,8.021 -35.149,10.351 4.2,-3.66 19.479,-16.29 20.57,-16.96 l 0.6,-0.37 -0.71,-0.09 c -0.66,-0.08 -1.94,-0.07 -3.17,0.02 l 15.189,-10.99 -0.729,-0.03 c -1.3,-0.04 -7.23,0.8 -9.48,1.2 l 1.28,-1.72 c 0,0 -8.44,0.93 -10.76,1.29 l 7.87,-8.52 0.42,2 13.43,-1.8 -0.689,1.41 -0.2,0.41 0.46,-0.05 12.83,-1.49 -13.37,13.01 h 2.38 l -8.29,8.66 16.79,-1.91 -0.71,1.271 0.55,-0.12 c 3.93,-0.88 16.03,-2.94 22.22,-3.08 l -0.34,0.73 0.45,-0.061 c 0.24,-0.03 21.83,-2.7 32.6,-2.19 -14.909,0.75 -31.97,3.73 -39.979,5.78 l 0.7,-1.06 -0.483,0.009 z" />
		<path
   id="path27"
   d="m 132.364,36.983 v 0.609 h 0.27 c 0.13,0 0.22,-0.01 0.29,-0.04 0.11,-0.04 0.17,-0.13 0.17,-0.26 0,-0.12 -0.04,-0.21 -0.109,-0.25 -0.08,-0.04 -0.2,-0.06 -0.36,-0.06 h -0.261 z m -0.301,1.489 v -1.699 h 0.601 c 0.21,0 0.359,0.02 0.46,0.06 0.17,0.08 0.26,0.22 0.26,0.43 0,0.15 -0.05,0.271 -0.16,0.34 -0.06,0.03 -0.14,0.061 -0.25,0.08 0.13,0.021 0.23,0.08 0.29,0.17 0.061,0.091 0.101,0.171 0.101,0.261 v 0.12 c 0,0.04 0,0.08 0,0.13 0,0.04 0.01,0.08 0.01,0.09 l 0.01,0.02 h -0.28 c 0,-0.01 0,-0.01 0,-0.02 0,0 0,-0.01 0,-0.021 l -0.01,-0.05 v -0.14 c 0,-0.19 -0.05,-0.32 -0.16,-0.38 -0.06,-0.04 -0.17,-0.061 -0.33,-0.061 h -0.239 v 0.67 h -0.303 z" />
		<path
   id="path29"
   d="m 131.604,36.542 c 0.301,-0.31 0.66,-0.46 1.091,-0.46 0.42,0 0.79,0.15 1.09,0.46 0.3,0.3 0.45,0.66 0.45,1.08 0,0.43 -0.15,0.8 -0.45,1.1 -0.3,0.311 -0.67,0.46 -1.09,0.46 -0.431,0 -0.801,-0.149 -1.101,-0.46 -0.3,-0.3 -0.439,-0.67 -0.439,-1.1 -0.001,-0.419 0.149,-0.78 0.449,-1.08 z m 1.09,-0.25 c -0.37,0 -0.681,0.13 -0.94,0.39 -0.26,0.261 -0.39,0.58 -0.39,0.94 0,0.38 0.13,0.69 0.39,0.95 0.25,0.26 0.57,0.39 0.94,0.39 0.359,0 0.68,-0.13 0.939,-0.39 0.25,-0.26 0.38,-0.57 0.38,-0.95 0,-0.36 -0.13,-0.68 -0.38,-0.94 -0.259,-0.26 -0.579,-0.39 -0.939,-0.39 z" />
		<path
   id="path31"
   d="m 110.704,25.973 13.37,-13.01 -12.83,1.49 -0.46,0.05 0.2,-0.41 0.689,-1.41 -13.43,1.8 -0.42,-2 -7.87,8.52 c 2.319,-0.36 10.76,-1.29 10.76,-1.29 l -1.28,1.72 c 2.25,-0.4 8.181,-1.24 9.48,-1.2 l 0.729,0.03 -15.189,10.99 c 1.229,-0.09 2.51,-0.1 3.17,-0.02 l 0.71,0.09 -0.6,0.37 c -1.091,0.67 -16.371,13.3 -20.57,16.96 6.36,-2.33 31.62,-10.351 35.149,-10.351 h 0.48 l -0.79,1.09 c 5.06,-1.55 19.5,-5.239 24.59,-5.39 l 0.48,-0.01 -0.7,1.06 c 8.01,-2.05 25.07,-5.03 39.979,-5.78 -10.77,-0.51 -32.359,2.16 -32.6,2.19 l -0.45,0.061 0.34,-0.73 c -6.189,0.14 -18.29,2.2 -22.22,3.08 l -0.55,0.12 0.71,-1.271 -16.79,1.91 8.29,-8.66 h -2.377 z m 1.22,-0.5 h 2.33 l -8.15,8.51 16.4,-1.86 -0.65,1.14 c 4.53,-0.96 16.341,-2.92 22.181,-2.97 l 0.39,-0.01 -0.29,0.63 c 3.601,-0.43 27.84,-3.01 35.79,-1.52 -15.97,0.5 -35.75,4.1 -44.04,6.31 l -0.63,0.17 0.87,-1.34 c -5.72,0.359 -20.58,4.229 -24.68,5.56 l -0.73,0.24 1.08,-1.49 c -5.271,0.65 -35.95,10.82 -36.91,11.141 1.27,-1.301 18.59,-15.66 22.021,-18.301 -0.9,-0.029 -4.25,0.261 -4.25,0.261 l 15.439,-11.18 c -2.31,0.18 -7.8,0.98 -9.189,1.28 l -0.641,0.14 1.44,-1.94 c -2.38,0.17 -11.15,1.54 -11.15,1.54 l 9.561,-10.35 0.52,2.49 13.89,-1.86 -0.89,1.84 13.83,-1.6 -13.542,13.169 z" />
	</g>
	<g
   id="g33">
	</g>
</g></g>
</svg>