<?xml version="1.0" encoding="UTF-8" standalone="no"?>
<svg
   xmlns:dc="http://purl.org/dc/elements/1.1/"
   xmlns:cc="http://creativecommons.org/ns#"
   xmlns:rdf="http://www.w3.org/1999/02/22-rdf-syntax-ns#"
   xmlns:svg="http://www.w3.org/2000/svg"
   xmlns="http://www.w3.org/2000/svg"
   xmlns:xlink="http://www.w3.org/1999/xlink"
   xmlns:sodipodi="http://sodipodi.sourceforge.net/DTD/sodipodi-0.dtd"
   xmlns:inkscape="http://www.inkscape.org/namespaces/inkscape"
   width="700"
   height="294"
   id="svg2"
   version="1.1">
  <g
     inkscape:label="Layer 1"
     inkscape:groupmode="layer"
     id="layer1"
     transform="translate(-6.1104913,-664.42065)">
    <path
       style="fill:#ed1c24"
       id="path57-7"
       d="m 683.90944,951.86849 c -27.00553,14.2571 -59.21602,2.26303 -84.26025,-7.76975 l -12.31467,-6.27992 c -0.16973,-37.5852 0,0 -0.16973,-37.5852 14.40797,17.02932 33.96435,30.51323 56.44381,29.66459 4.11117,-0.2263 7.73203,-2.35733 10.37223,-5.11068 3.88487,-4.50721 3.60199,-12.42782 1.45211,-17.61394 -4.43177,-9.27843 -12.1638,-16.42585 -18.80203,-24.08244 -20.66903,-23.42239 -60.0458,-46.99565 -44.20457,-84.65628 10.69283,-23.3281 36.56684,-29.94747 59.31032,-34.77527 15.48291,-2.94194 32.26707,-3.07396 48.76835,-2.39505 0,0 0,0 -0.39603,42.46959 -14.8983,-10.20251 -33.28544,-18.93405 -53.16241,-14.31369 -6.31763,1.69728 -12.72956,6.71367 -14.3514,13.38961 -2.26303,6.86454 -0.2263,14.91716 5.09183,19.89583 l 42.03583,40.94204 c 16.7653,16.671 33.47402,38.9053 23.27152,63.94953 -3.46999,9.7499 -10.12707,19.04719 -19.08491,24.27103"
       clip-path="none" />
    <path
       d="m 569.43774,807.242 -0.24516,116.94222 c 0.8675,4.09232 1.73499,8.37322 2.43276,12.31467 0,0 -19.21692,-4.1489 -47.67455,-7.43029 3.90373,-8.2035 5.26155,-16.87846 5.31812,-23.85614 0.75435,-95.40569 0,0 0.75435,-95.40569 0.0377,-5.88388 -3.79058,-17.40649 -3.79058,-17.40649 15.3509,-1.99901 33.68147,-4.31862 48.86264,-6.93997 0,0 -5.14839,14.16282 -5.65758,21.78169"
       id="path59-4"
       style="fill:#ed1c24"
       clip-path="none" />
    <path
       d="m 518.31206,819.66982 c -11.65462,-4.41291 -28.08046,-1.96129 -40.75345,-1.26352 l 0.84864,87.35306 2.01787,17.10476 -40.62143,-4.41292 c 3.5077,-7.82632 4.07345,-95.93373 3.11167,-96.40519 -13.46505,-0.0754 -27.23183,0.94293 -38.2264,7.29828 -0.24516,-24.55391 0,0 -0.24516,-24.55391 l 62.47856,-5.80845 c 17.25563,-1.39553 34.17179,-3.43226 51.42742,-5.1484 -0.0377,25.83629 -0.0377,25.83629 -0.0377,25.83629"
       id="path61-0"
       style="fill:#ed1c24"
       clip-path="none" />
    <path
       clip-rule="evenodd"
       d="m 464.52732,703.48195 -0.16973,-0.32059 h -0.15087 l 0.30174,-0.47147 0.15087,0.15087 c -0.15087,0.15087 -0.13201,0.3206 -0.13201,0.64119"
       id="path63-9"
       style="fill:#ed1c24;fill-rule:evenodd"
       clip-path="none" />
    <path
       d="m 390.58272,819.12292 c 0,0 0,0 -0.60347,95.91487 -35.96336,0.58462 0,0 -35.96336,0.58462 l -51.61601,-62.70486 -0.0566,52.1629 c 0.5469,4.13004 1.71613,9.48588 3.52656,13.10673 0,0 -30.8904,1.13152 -30.58866,0.49033 7.33599,-23.95043 4.01688,-102.28908 4.01688,-102.28908 -0.26402,-5.6953 -1.13152,-10.56082 -2.01787,-15.61493 33.13457,1.48983 0,0 33.13457,1.48983 0,0 55.35001,72.62449 56.29294,72.28504 l -0.5469,-55.78376 c -0.0754,-5.24269 -2.84765,-9.61789 -3.71515,-14.21939 31.06013,-0.0377 0,0 31.06013,-0.0377 -0.56576,4.9221 -2.05559,9.69333 -2.92309,14.61542"
       id="path65-4"
       style="fill:#ed1c24"
       clip-path="none" />
    <path
       style="fill:#ed1c24"
       id="path75-8"
       d="m 255.36648,919.99744 -1.56527,0.64119 c -32.60653,1.82929 -95.38683,9.86305 -95.38683,9.86305 11.29631,-27.87301 6.44965,-124.67424 6.44965,-124.67424 -0.30174,-7.75089 -1.99902,-16.74644 -4.18661,-23.36581 18.538,3.30025 54.3505,10.48538 78.48951,13.55934 v 0.16972 c 4.9221,0.0754 10.16479,0.92407 14.93602,2.11217 l 0.49032,1.26352 -0.11315,21.55539 -0.62233,0.49032 c -14.87944,-8.78811 -51.95546,-9.7499 -51.95546,-9.7499 -0.7732,9.5236 -0.43375,32.15393 -0.43375,32.15393 15.40748,1.48983 31.87104,0.90521 46.90135,-0.60348 -0.18858,25.81743 0,0 -0.18858,25.81743 -4.45063,0.0943 -9.37273,-1.79156 -14.29483,-1.81042 -31.70131,-0.0943 -22.51717,-0.90522 -33.28544,-0.0943 0,0 -0.39603,25.55342 0.11316,36.62342 0,0 36.11423,-2.82879 52.03089,-7.37372 1.90472,-0.50918 3.62085,-2.43276 5.84617,-1.99901 -0.81092,8.56181 -1.62184,17.14247 -3.22482,25.4214"
       clip-path="none" />
    <path
       style="fill:#ed1c24"
       id="path77-8"
       d="m 77.869276,918.67734 c 21.347942,-2.88537 66.759464,-15.6715 68.513314,-15.38862 0,0 0,0 -0.52804,30.0229 -13.5782,1.81042 -30.58866,3.79058 -43.86512,6.07247 L 48.280124,949.47344 C 34.060735,951.94392 20.331669,955.33847 6.1122805,957.79009 5.9236944,956.0551 20.821993,928.38952 20.821993,928.38952 l 70.814066,-133.02861 -1.942437,-1.88586 c -19.311212,-7.75088 -41.39464,-11.97521 -63.685512,-8.73153 0.81092,-36.15195 0.207444,-36.15195 0.207444,-36.15195 l 1.22581,-0.47146 52.879531,16.04867 c 22.781195,6.58165 46.788205,11.88092 70.172875,17.34992 0,0 -73.416555,137.02663 -72.624494,137.15864"
       clip-path="none" />
    <path
       d="m 460.7556,766.11138 c -99.68659,-7.67545 -99.68659,-7.67545 -199.05259,-0.28288 0,0 -35.13358,-50.12617 -51.80459,-76.32077 l -0.0377,-0.94294 c 0,0 69.55054,17.53851 69.72027,17.8591 -4.03574,3.58314 -10.2968,6.44965 -12.20152,12.20152 -2.39504,5.77074 -2.35732,13.37075 0.94293,18.67002 14.06852,17.06704 38.4527,15.97324 58.12222,10.71169 8.33551,-2.75336 16.40699,-9.12756 16.97275,-18.50029 0.41489,-8.09034 -4.50721,-14.78515 -10.95685,-18.74546 -7.86404,-4.39405 -16.80302,-6.22334 -25.55341,-7.90175 l 54.16192,-38.43384 53.44528,38.05667 c -2.97965,1.33896 -6.78909,1.60298 -10.25908,2.3196 -10.22136,2.80994 -23.10179,7.26057 -25.9683,18.7266 -1.45211,5.60101 -0.16972,11.89978 3.26254,16.08639 12.67298,12.52212 31.38072,12.67298 48.76836,10.80598 9.59903,-2.31961 20.42387,-6.86453 24.28988,-16.63329 1.90472,-6.07247 1.0938,-13.65363 -2.67792,-18.48143 -2.9608,-3.88487 -6.97769,-5.67644 -10.37223,-8.76925 0,0 68.64532,-17.91568 69.92771,-17.48193 0,0 -45.03435,70.5689 -50.72965,77.05626"
       id="path79-2"
       style="fill:#ed1c24"
       clip-path="none" />
  </g>
</svg>
