<?xml version="1.0" encoding="UTF-8" standalone="no"?>
<svg
   xmlns:dc="http://purl.org/dc/elements/1.1/"
   xmlns:cc="http://creativecommons.org/ns#"
   xmlns:rdf="http://www.w3.org/1999/02/22-rdf-syntax-ns#"
   xmlns:svg="http://www.w3.org/2000/svg"
   xmlns="http://www.w3.org/2000/svg"
   xmlns:xlink="http://www.w3.org/1999/xlink"
   xmlns:sodipodi="http://sodipodi.sourceforge.net/DTD/sodipodi-0.dtd"
   xmlns:inkscape="http://www.inkscape.org/namespaces/inkscape"
   version="1.1"
   id="Layer_1"
   x="0px"
   y="0px"
   width="690.00006"
   height="313.00003"
   viewBox="0 0 690.00005 313.00001"
   enable-background="new 0 0 595.276 841.89"
   xml:space="preserve">
	<polyline
   style="fill:#ffd200"
   points="502.377,164.096 462.312,182.255 502.377,200.414 542.442,182.255 "
   id="polyline25"
   transform="matrix(8.0000005,0,0,8.0000005,-3674.0002,-1301.5001)"
   clip-path="none" /><polygon
   style="fill:none;stroke:#817c00;stroke-width:2.18499994"
   id="polygon35"
   points="462.312,182.255 502.377,200.414 542.442,182.255 502.377,164.096 "
   clip-path="none"
   transform="matrix(8.0000005,0,0,8.0000005,-3674.0002,-1301.5001)" /><polyline
   points="484.99,185.697 490.751,185.697 490.751,187.849 480.497,187.849 486.306,178.264 480.9,178.264 480.9,176.113   490.751,176.113 "
   id="polyline37"
   transform="matrix(8.0000005,0,0,8.0000005,-3674.0002,-1301.5001)"
   clip-path="none" /><polyline
   points="501.128,187.85 493.336,187.85 493.336,176.113 501.021,176.113 501.021,178.264 495.971,178.264 495.971,180.725   500.788,180.725 500.788,182.876 495.971,182.876 495.971,185.698 501.128,185.698 "
   id="polyline39"
   transform="matrix(8.0000005,0,0,8.0000005,-3674.0002,-1301.5001)"
   clip-path="none" /><polyline
   points="513.346,178.264 509.519,178.264 509.519,187.85 506.888,187.85 506.888,178.264 503.062,178.264 503.062,176.113   513.346,176.113 "
   id="polyline41"
   transform="matrix(8.0000005,0,0,8.0000005,-3674.0002,-1301.5001)"
   clip-path="none" /><path
   inkscape:connector-curvature="0"
   d="m 486.31196,107.40395 h -24.408 l -34.064,93.896 h 22.27199 l 6.312,-18.61599 h 37.792 l 6.944,18.61599 h 22.672 l -37.51999,-93.896 m 1.736,58.92 h -26.03201 l 12.392,-36.49599 13.64001,36.49599 z"
   id="path43"
   clip-path="none" /><polygon
   style="fill:none;stroke:#000000;stroke-width:0.36399999"
   id="polygon53"
   points="459.685,182.255 502.377,201.613 545.069,182.255 502.377,162.896 "
   clip-path="none"
   transform="matrix(8.0000005,0,0,8.0000005,-3674.0002,-1301.5001)" /><rect
   x="97.271912"
   y="223.73994"
   width="495.49603"
   height="49.544003"
   id="rect55"
   clip-path="none" /><rect
   style="fill:none;stroke:#000000;stroke-width:2.91200018"
   x="97.271912"
   y="223.73994"
   width="495.49603"
   height="49.544003"
   id="rect57"
   clip-path="none" /><polyline
   style="fill:#ffffff"
   points="477.42,192.847 476.237,192.847 476.237,193.509 477.42,193.509 477.42,194.055 476.237,194.055   476.237,195.281 475.572,195.281 475.572,192.301 477.42,192.301 "
   id="polyline75"
   transform="matrix(8.0000005,0,0,8.0000005,-3674.0002,-1301.5001)"
   clip-path="none" /><polyline
   style="fill:#ffffff"
   points="480.719,195.28 478.741,195.28 478.741,192.3 480.691,192.3 480.691,192.846 479.41,192.846   479.41,193.469 480.633,193.469 480.633,194.017 479.41,194.017 479.41,194.733 480.719,194.733 "
   id="polyline77"
   transform="matrix(8.0000005,0,0,8.0000005,-3674.0002,-1301.5001)"
   clip-path="none" /><path
   style="fill:#ffffff"
   inkscape:connector-curvature="0"
   d="m 187.47994,246.68396 h 2.86399 c 1.472,0 2.88801,-0.704 2.88801,-2.728 0,-1.784 -1.00801,-2.68801 -3.056,-2.68801 h -2.704 v 5.41601 m 4.264,-9.77601 c 4.4,0 7.016,3.272 7.016,6.84 0,2.62401 -1.208,4.58401 -3.68,5.83201 2.19199,1.22399 2.856,4.168 5.888,11.15999 h -5.888 c -2.32,-5.09599 -3.168,-9.67999 -6.056,-9.67999 h -1.536 v 9.688 h -5.328 v -23.84001 h 9.584 z"
   id="path79"
   clip-path="none" /><polyline
   style="fill:#ffffff"
   points="488.184,195.28 487.624,195.28 486.14,193.369 486.14,195.281 485.47,195.281 485.47,192.3   486.084,192.3 487.514,194.123 487.514,192.301 488.184,192.301 "
   id="polyline81"
   transform="matrix(8.0000005,0,0,8.0000005,-3674.0002,-1301.5001)"
   clip-path="none" /><path
   style="fill:#ffffff"
   inkscape:connector-curvature="0"
   d="m 255.12794,236.90795 h -6.19199 l -8.64001,23.832 h 5.64 l 1.61601,-4.72799 h 9.59999 l 1.78401,4.72799 h 5.75199 l -9.56,-23.832 m 0.43199,14.96001 h -6.59999 l 3.16,-9.272 3.43999,9.272 z"
   id="path83"
   clip-path="none" /><polyline
   style="fill:#ffffff"
   points="496.152,195.28 495.585,195.28 494.104,193.369 494.104,195.281 493.437,195.281 493.437,192.3   494.051,192.3 495.481,194.123 495.481,192.301 496.152,192.301 "
   id="polyline85"
   transform="matrix(8.0000005,0,0,8.0000005,-3674.0002,-1301.5001)"
   clip-path="none" /><path
   style="fill:#ffffff"
   inkscape:connector-curvature="0"
   d="m 306.27994,236.90795 v 23.84001 h 8.856 c 8.59201,0 12.448,-5.04001 12.448,-11.89601 0,-6.544 -4.008,-11.944 -11.84799,-11.944 h -9.45601 m 5.336,4.368 h 3.43201 c 5.064,0 7.056,3.45601 7.056,7.54401 0,3.504 -1.62401,7.552 -6.98401,7.552 h -3.504 v -15.09601 z"
   id="path87"
   clip-path="none" /><path
   style="fill:#ffffff"
   inkscape:connector-curvature="0"
   d="m 361.49595,248.81996 c 0,-5.72 -4.168,-12.232 -12.288,-12.232 -8.07201,0 -12.32001,6.464 -12.32001,12.232 0,6.08799 4.488,12.232 12.32001,12.232 7.72001,0 12.288,-6.10401 12.288,-12.232 m -5.528,0 c 0,4.376 -2.688,7.28 -6.76,7.28 -4.08,0 -6.8,-2.904 -6.8,-7.28 0,-4.37601 2.72,-7.27199 6.8,-7.27199 4.072,0 6.76,2.89598 6.76,7.27199 z"
   id="path89"
   clip-path="none" /><path
   style="fill:#ffffff"
   inkscape:connector-curvature="0"
   d="m 386.64795,236.90795 v 23.84001 h 8.88799 c 8.53601,0 12.46401,-5.04001 12.46401,-11.89601 0,-6.544 -4.048,-11.944 -11.864,-11.944 h -9.488 m 5.36001,4.368 h 3.43199 c 5.056,0 7.03999,3.45601 7.03999,7.54401 0,3.504 -1.60799,7.552 -6.992,7.552 h -3.47998 v -15.09601 z"
   id="path91"
   clip-path="none" /><rect
   style="fill:#ffffff"
   x="418.4079"
   y="236.89999"
   width="5.368"
   height="23.840002"
   id="rect93"
   clip-path="none" /><polyline
   style="fill:#ffffff"
   points="517.548,195.28 515.504,195.28 515.504,192.3 516.171,192.3 516.171,194.733 517.548,194.733 "
   id="polyline95"
   transform="matrix(8.0000005,0,0,8.0000005,-3674.0002,-1301.5001)"
   clip-path="none" /><path
   style="fill:#ffffff"
   inkscape:connector-curvature="0"
   d="m 496.95995,236.90795 v 13.51201 c 0,7.912 -4.83199,10.624 -10.72799,10.624 -6.25601,0 -10.74401,-3.216 -10.74401,-10.592 v -13.54401 h 5.328 v 13.68001 c 0,3.44799 2.23999,5.50399 5.336,5.50399 2.84001,0 5.424,-1.63999 5.424,-5.912 v -13.27998"
   id="path97"
   clip-path="none" /><path
   style="fill:#ffffff"
   inkscape:connector-curvature="0"
   d="m 527.86395,258.65996 c -2.984,1.728 -5.232,2.384 -8.432,2.384 -8.328,0 -12.47999,-6.008 -12.47999,-12.144 0,-6.376 4.66399,-12.32001 12.904,-12.32001 2.99999,0 5.664,0.69601 7.77599,2.104 v 5.304 c -2.36,-1.456 -4.73599,-2.44799 -7.392,-2.44799 -4.552,0 -7.76799,3.016 -7.76799,7.224 0,4.272 3.16799,7.336 7.608,7.336 2.832,0 4.70399,-0.97601 7.77599,-2.64"
   id="path99"
   clip-path="none" /><path
   style="fill:#ffffff"
   inkscape:connector-curvature="0"
   d="m 550.97596,236.90795 h -6.184 l -8.672,23.832 h 5.68 l 1.608,-4.72799 h 9.55999 l 1.76001,4.72799 h 5.776 l -9.528,-23.832 m 0.43199,14.96001 h -6.608 l 3.12801,-9.272 3.47999,9.272 z"
   id="path101"
   clip-path="none" /></svg>