<svg xmlns="http://www.w3.org/2000/svg" xmlns:xlink="http://www.w3.org/1999/xlink" version="1.1" id="Your_Icon" x="0px" y="0px" width="100px" height="100px" viewBox="0 0 100 100" enable-background="new 0 0 100 100" xml:space="preserve">
<g>
	<polygon points="12.281,84.281 24.874,87.661 29.777,77.637 47.471,74.222 50.233,64.674 14.747,72.923 9.645,75.551  "/>
	<path d="M93.491,47.028L83.17,46.459l-2.396-11.558l-0.099-0.183c-7.251-13.385-22.021-22.38-36.75-22.38   c-22.505,0-40.82,17.258-40.82,38.469c0,2.36,0.424,4.645,0.836,6.855c0.437,2.345,0.851,4.569,0.665,6.521l-3.933,4.68   l4.656,6.093l9.003-3.758l50.142-11.198l31.096-3.456l3.758-5.872L93.491,47.028z M45.456,20.868   c-14.31,0-27.234,6.403-35.066,16.436c5.863-12.044,18.81-20.432,33.802-20.432c10.92,0,21.869,5.44,29.131,14.051   C65.397,24.62,55.345,20.868,45.456,20.868z"/>
</g>
</svg>