<svg xmlns="http://www.w3.org/2000/svg" xmlns:xlink="http://www.w3.org/1999/xlink" version="1.1" id="Layer_1" x="0px" y="0px" width="91.7431192661px" height="100px" viewBox="0 0 100 109.139" enable-background="new 0 0 100 109.139" xml:space="preserve">
<g>
	<path d="M67.057,19.619L76.36,6.926c0-5.89-4.774-4.799-10.664-4.799H34.304c-5.89,0-10.664-1.091-10.664,4.799l9.302,12.692   H67.057z"/>
	<path d="M66.473,21.015h-1.705H35.231h-1.705c-18.465,10.989-31.65,38.489-31.65,59.28c0,26.579,21.546,26.796,48.125,26.796   c26.578,0,48.124-0.217,48.124-26.796C98.125,59.504,84.938,32.004,66.473,21.015z M53.238,83.101v7.25H46.27v-6.687   c-4.716-0.212-9.291-1.549-11.966-3.027l2.112-8.235c2.956,1.62,7.109,3.099,11.684,3.099c4.083,0,6.828-1.62,6.828-4.364   c0-2.675-2.253-4.364-7.532-6.124c-7.531-2.533-12.669-6.053-12.669-12.88c0-6.264,4.364-11.121,11.896-12.528v-6.687h6.898v6.194   c4.645,0.141,7.813,1.197,10.275,2.323l-2.111,7.954c-1.76-0.845-5.067-2.464-10.136-2.464c-4.575,0-6.053,2.041-6.053,4.012   c0,2.252,2.463,3.801,8.517,5.982c8.376,2.956,11.684,6.828,11.684,13.232C65.696,76.416,61.333,81.763,53.238,83.101z"/>
</g>
</svg>