<svg xmlns="http://www.w3.org/2000/svg" xmlns:xlink="http://www.w3.org/1999/xlink" version="1.1" id="Layer_1" x="0px" y="0px" width="100.0px" height="100px" viewBox="0 0 500 500" enable-background="new 0 0 500 500" xml:space="preserve">
<g>
	<path d="M269.823,124.051c-8.53-3.383-17.333-5.077-26.402-5.077c-13.677,0-24.914,4.334-33.713,12.998l-75.957,75.957l7.921,7.921   l-28.839,29.042l-48.539-48.539l28.839-28.839l8.936,8.733l75.551-75.55c10.424-10.288,21.594-15.435,33.51-15.435   C231.166,85.261,250.732,98.192,269.823,124.051z M414.222,148.829c1.352,4.741,2.031,9.479,2.031,14.216   c0,13.947-4.874,25.793-14.623,35.542c-9.748,9.749-21.598,14.623-35.541,14.623c-5.147,0-10.225-0.742-15.232-2.234   l-48.945,48.945l111.092,106.218l-44.274,44.274L262.309,299.32L215.8,346.032c1.488,5.01,2.234,10.021,2.234,15.028   c0,14.08-4.843,25.996-14.521,35.744c-9.682,9.749-21.563,14.623-35.643,14.623c-4.741,0-9.479-0.679-14.216-2.031l38.587-38.588   l-37.978-37.978l-38.588,38.587c-1.355-4.737-2.031-9.476-2.031-14.216c0-13.944,4.874-25.793,14.623-35.542   c9.749-9.748,21.661-14.622,35.744-14.622c4.738,0,9.476,0.609,14.217,1.828l47.727-47.524l-69.051-72.098l34.932-34.932   l71.896,69.051l49.96-49.96c-1.218-4.601-1.827-9.272-1.827-14.013c0-14.217,4.874-26.199,14.622-35.948   c9.749-9.749,21.595-14.623,35.542-14.623c4.874,0,9.679,0.679,14.419,2.031l-38.588,38.588l37.775,37.978L414.222,148.829z    M155.685,118.365l-34.729,34.729l-6.702-6.702l34.729-34.729L155.685,118.365z"/>
</g>
</svg>