<?xml version="1.0" ?><!DOCTYPE svg  PUBLIC '-//W3C//DTD SVG 1.1//EN'  'http://www.w3.org/Graphics/SVG/1.1/DTD/svg11.dtd'><svg enable-background="new 0 0 512 512" height="512px" id="Layer_1" version="1.1" viewBox="0 0 512 512" width="512px" xml:space="preserve" xmlns="http://www.w3.org/2000/svg" xmlns:xlink="http://www.w3.org/1999/xlink"><path d="M480.482,470.885l0.668-5.785c-1.746-23.912-6.836-49.396-13.965-69.919  c-9.609-27.67-22.404-45.568-38.027-53.196c-11.609-5.669-25.35-11.12-39.9-16.892c-21.791-8.644-46.49-18.441-67.572-30.578  l-1.703-0.979c9.863-11.596,17.433-25.914,22.213-42.131c6.576-6.417,18.455-19.068,26.795-34.035  c16.967-30.446,7.111-49.42-0.273-58.02l-0.082-0.096c-1.965-2.253-4.195-3.945-6.49-5.262v-42.72  c0-34.543-10.717-60.266-31.852-76.454c-17.638-13.51-42.066-20.076-74.682-20.076c-32.609,0-57.025,6.569-74.642,20.084  c-21.095,16.184-31.791,41.903-31.791,76.378c0,0-0.099,23.68-0.099,26.746v16.192c-4.259,2.49-8.702,6.137-11.734,11.876  c-7.188,13.616-5.727,30.35,4.469,51.158c3.49,7.124,8.258,14.337,14.576,22.054c1.846,2.255,4.193,4.324,6.681,6.515  c1.118,0.985,2.794,2.462,3.881,3.533c4.812,17.36,12.772,32.633,23.303,44.825l-0.716,0.412  c-21.076,12.133-45.768,21.93-67.553,30.572c-14.555,5.773-28.302,11.227-39.909,16.897c-39.822,19.444-49.778,99.894-51.37,115.823  l0.036,13.075l-0.226,1.67c-0.881,6.536,1.061,13.084,5.326,17.964c4.267,4.879,10.496,7.678,17.092,7.678h405.354  c6.596,0,12.824-2.799,17.092-7.678c4.266-4.879,6.207-11.426,5.328-17.962L480.482,470.885z M414.678,371.638  c14.67,7.163,29.758,49.688,33.372,93.557H375.23v-57.723c0-12.79-10.272-23.22-23-23.487v-38.256  c8.494,3.548,16.864,6.868,24.859,10.04C391.035,361.3,404.207,366.524,414.678,371.638z M202.107,325.315l15.488-9.661  c11.468,5.756,24.059,8.743,37.28,8.743c13.271,0,25.909-3.007,37.412-8.806l16.829,9.724c3.327,1.845,6.706,3.622,10.113,5.353  v53.304h-127v-53.424C195.558,328.855,198.857,327.117,202.107,325.315z M169.23,416.972h173v48.223h-173V416.972z M182.179,111.271  c0-24.077,6.175-40.519,18.877-50.264c11.638-8.927,29.482-13.267,54.556-13.267c25.088,0,42.953,4.342,54.615,13.274  c12.729,9.75,18.918,26.189,18.918,50.256v10.178h-6.672v22.326c-12.518-6.496-32.591-15.656-66.856-15.656  c-34.277,0-54.351,9.172-66.864,15.667l-0.006-22.336h-6.608C182.159,115.989,182.179,111.303,182.179,111.271z M184.887,220.984  c-1.019-0.898-2.541-2.239-3.069-2.791c-4.636-5.675-8.028-10.759-10.369-15.538c-6.067-12.384-5.808-18.14-5.259-20.298  c0.92-0.46,2.359-1.048,3.4-1.474c0.911-0.372,1.905-0.78,2.945-1.238c2.771,0.954,5.787,1.469,8.976,1.469  c7.199,0,13.223-3.18,19.6-6.547c10.144-5.356,25.474-13.45,54.506-13.45c29.052,0,44.384,8.097,54.529,13.455  c6.369,3.363,12.386,6.542,19.577,6.542c2.695,0,5.267-0.371,7.672-1.061c1.632,0.557,3.186,0.999,4.564,1.39  c0.777,0.221,1.793,0.508,2.617,0.77c4.512,9.27-10.58,32.15-28.17,48.164l-3.654,3.325l-1.225,4.786  c-8.35,32.634-30.057,52.908-56.651,52.908c-26.584,0-48.29-20.273-56.649-52.907C196.326,231.063,190.51,225.939,184.887,220.984z   M76.299,402.992c8.973-24.296,17.773-30.142,20.26-31.355c10.473-5.115,23.648-10.343,37.598-15.876  c8.063-3.199,16.506-6.548,25.074-10.13v38.354c-12.728,0.268-23,10.697-23,23.487v57.723H63.543  C65.594,444.669,70.243,419.388,76.299,402.992z" fill="#010101"/></svg>