<svg xmlns="http://www.w3.org/2000/svg" xmlns:xlink="http://www.w3.org/1999/xlink" version="1.1" id="Layer_1" x="0px" y="0px" width="100px" height="100px" viewBox="0 0 100 100" enable-background="new 0 0 100 100" xml:space="preserve">
<path d="M23.999,13.589c2.77,0,5.087-1.901,5.738-4.468h3.725c3.404,0.074,4.602,1.57,5.458,3.747  c1.171,3.324,2.236,8.105,2.42,8.928c-1.298,0.771-2.177,2.173-2.177,3.793c0,2.444,1.981,4.426,4.426,4.426  c2.444,0,4.426-1.981,4.426-4.426c0-2.205-1.617-4.019-3.726-4.356c-0.143-0.646-1.245-5.67-2.538-9.359  c-0.953-2.973-3.696-5.828-8.289-5.752h-3.747c-0.68-2.524-2.977-4.384-5.716-4.384c-3.273,0-5.927,2.652-5.927,5.927  C18.072,10.937,20.725,13.589,23.999,13.589z M23.999,4.738c1.616,0.002,2.922,1.31,2.924,2.926  c-0.002,1.614-1.309,2.922-2.924,2.924c-1.616-0.002-2.925-1.311-2.927-2.924C21.074,6.048,22.382,4.74,23.999,4.738z M8.708,47.56  c2.754-0.002,5.061-1.881,5.726-4.426h8.784c0.616,1.702,2.232,2.926,4.147,2.926c2.444,0,4.426-1.981,4.426-4.426  s-1.981-4.426-4.426-4.426c-1.915,0-3.531,1.223-4.147,2.925h-8.784c-0.666-2.545-2.974-4.425-5.727-4.425  c-3.274,0-5.925,2.651-5.927,5.925C2.784,44.907,5.435,47.558,8.708,47.56z M8.708,38.708c1.616,0.002,2.922,1.309,2.925,2.925  c-0.002,1.615-1.309,2.924-2.925,2.926c-1.615-0.002-2.924-1.311-2.926-2.926C5.784,40.017,7.093,38.71,8.708,38.708z M10.94,55.866  c0.584-0.768,1.408-1.255,3.393-1.284c3.269,0,6.976,0.035,8.633,0.053c0.613,1.708,2.23,2.937,4.15,2.937  c2.444,0,4.426-1.981,4.426-4.426s-1.981-4.427-4.426-4.427c-1.912,0-3.525,1.219-4.144,2.916c-1.674-0.017-5.37-0.05-8.64-0.05  c-2.517-0.031-4.608,0.823-5.816,2.517c-1.197,1.672-1.507,3.766-1.518,6.142v24.386c-2.63,0.606-4.591,2.957-4.593,5.771  c0.002,3.272,2.652,5.925,5.927,5.927c3.273-0.002,5.923-2.652,5.925-5.927c-0.001-2.692-1.798-4.963-4.257-5.685V60.243  C9.99,58.14,10.346,56.655,10.94,55.866z M11.258,90.399c-0.002,1.614-1.311,2.923-2.925,2.925  c-1.617-0.002-2.923-1.309-2.927-2.925c0.004-1.615,1.311-2.924,2.927-2.926C9.948,87.476,11.256,88.784,11.258,90.399z   M71.965,45.976c1.915,0,3.53-1.224,4.147-2.926h10.782c0.665,2.545,2.973,4.424,5.728,4.426c3.271-0.002,5.925-2.653,5.925-5.927  c-0.003-3.273-2.651-5.925-5.925-5.927c-2.755,0.001-5.062,1.882-5.728,4.426H76.111c-0.616-1.702-2.231-2.925-4.146-2.925  c-2.444,0-4.427,1.981-4.427,4.426C67.538,43.993,69.521,45.976,71.965,45.976z M92.622,38.623c1.614,0.002,2.922,1.311,2.924,2.926  c-0.002,1.615-1.31,2.924-2.924,2.926c-1.617-0.002-2.925-1.309-2.927-2.926C89.697,39.934,91.005,38.625,92.622,38.623z   M92.372,51.388c-1.876,0.001-3.544,0.874-4.63,2.232c-0.723-0.276-1.709-0.656-2.604-1.015c-1.033-0.428-2.243-0.812-4.138-0.793  c-1.281-0.002-4.526-0.002-5.139-0.002c-0.617-1.702-2.232-2.925-4.146-2.925c-2.444,0-4.427,1.982-4.427,4.427  s1.982,4.426,4.427,4.426c1.916,0,3.531-1.224,4.147-2.927H81c1.603,0.019,2.041,0.202,3.026,0.58  c0.854,0.341,1.786,0.701,2.502,0.976c-0.05,0.31-0.083,0.625-0.083,0.949c0,3.271,2.65,5.925,5.927,5.925  c3.271,0,5.924-2.653,5.927-5.925C98.296,54.043,95.646,51.39,92.372,51.388z M92.372,60.24c-1.617-0.002-2.925-1.309-2.927-2.924  c0.002-1.617,1.31-2.926,2.927-2.928c1.614,0.002,2.922,1.311,2.924,2.928C95.294,58.932,93.986,60.238,92.372,60.24z   M41.421,33.211c-3.48,0.002-6.299,2.821-6.301,6.301v15.803c0.002,3.479,2.821,6.299,6.301,6.299l16.237,0.002  c3.48-0.002,6.3-2.821,6.302-6.301h-0.002V39.512c0-3.48-2.819-6.299-6.3-6.301H41.421z M53.823,13.661v7.781  c-1.702,0.616-2.925,2.231-2.925,4.147c0,2.444,1.981,4.426,4.425,4.426c2.445,0,4.427-1.981,4.427-4.426  c0-1.917-1.225-3.532-2.928-4.147v-7.78c2.547-0.666,4.428-2.973,4.428-5.728c0-3.273-2.652-5.925-5.927-5.927  c-3.273,0.002-5.925,2.654-5.925,5.927C49.398,10.688,51.278,12.995,53.823,13.661z M55.323,5.006  c1.615,0.004,2.925,1.312,2.927,2.927c-0.002,1.616-1.309,2.923-2.927,2.927c-1.614-0.004-2.924-1.311-2.926-2.927  C52.399,6.32,53.709,5.01,55.323,5.006z M43.581,64.605c-1.807,0-3.355,1.086-4.043,2.637H25.456c-1.537,0-3.187,0.361-4.488,1.524  c-1.308,1.164-2.025,3.019-2.013,5.351c0.001,0.659,0.023,1.362,0.049,1.967c-2.589,0.635-4.511,2.964-4.511,5.749  c0,3.273,2.652,5.925,5.925,5.927c3.273-0.002,5.925-2.653,5.925-5.927c0-2.722-1.835-5.008-4.335-5.704  c-0.028-0.612-0.053-1.352-0.052-2.012c0.012-1.794,0.48-2.627,1.017-3.118c0.542-0.493,1.393-0.757,2.483-0.757h13.887  c0.529,1.852,2.215,3.215,4.238,3.215c2.443,0,4.426-1.98,4.426-4.426C48.006,66.587,46.024,64.605,43.581,64.605z M23.345,81.833  c-0.004,1.615-1.31,2.924-2.927,2.927c-1.615-0.003-2.922-1.312-2.926-2.927c0.004-1.617,1.312-2.923,2.926-2.925  C22.035,78.91,23.34,80.216,23.345,81.833z M71.861,80.079c0.036-1.429,0.084-3.708,0.084-5.96c0.013-2.335-0.705-4.188-2.014-5.352  c-1.301-1.164-2.951-1.525-4.486-1.525h-5.869v0.614c-0.518-1.87-2.214-3.251-4.249-3.251c-2.443,0-4.426,1.981-4.426,4.426  c0,2.445,1.982,4.426,4.426,4.426c2.035,0,3.731-1.38,4.249-3.251v0.037c0-0.002,0.685-0.002,1.762,0  c1.077-0.002,2.545-0.002,4.107,0c1.089,0,1.939,0.262,2.482,0.755c0.536,0.493,1.005,1.325,1.018,3.121  c0,2.29-0.05,4.623-0.087,6.022c-2.481,0.707-4.302,2.986-4.302,5.695c0,3.273,2.653,5.926,5.926,5.926  c3.273,0,5.926-2.652,5.926-5.926C76.408,83.04,74.469,80.701,71.861,80.079z M70.482,88.763c-1.616-0.002-2.924-1.31-2.926-2.926  c0.002-1.616,1.31-2.924,2.926-2.926c1.616,0.002,2.924,1.31,2.926,2.926C73.406,87.453,72.099,88.761,70.482,88.763z"/>
<g>
	<g>
		<circle fill="none" stroke="#000000" stroke-width="3" cx="145.998" cy="-97.67" r="4.426"/>
		<path fill="none" stroke="#000000" stroke-width="3" d="M149.594-97.712c0,0,4.506,0,5.867,0c4,0,5.97,2.174,6.875,4.75    c1.332,3.792,2.5,9.247,2.5,9.247"/>
		<circle cx="165.588" cy="-79.745" r="4.426"/>
	</g>
	<g>
		<circle fill="none" stroke="#000000" stroke-width="3" cx="130.709" cy="-63.7" r="4.426"/>
		<line fill="none" stroke="#000000" stroke-width="3" x1="134.747" y1="-63.701" x2="146.116" y2="-63.701"/>
		<circle cx="149.366" cy="-63.7" r="4.426"/>
	</g>
	<g>
		<circle fill="none" stroke="#000000" stroke-width="3" cx="130.333" cy="-14.933" r="4.426"/>
		<path fill="none" stroke="#000000" stroke-width="3" d="M145.866-52.188c0,0-5.158-0.062-9.533-0.062    c-4.5,0-5.833,2.683-5.833,7.159v25.005"/>
		<circle cx="149.116" cy="-52.188" r="4.426"/>
	</g>
	<g>
		<circle cx="193.964" cy="-63.784" r="4.426"/>
		<line fill="none" stroke="#000000" stroke-width="3" x1="198.003" y1="-63.785" x2="211.372" y2="-63.785"/>
		<circle fill="none" stroke="#000000" stroke-width="3" cx="214.622" cy="-63.784" r="4.426"/>
	</g>
	<g>
		<circle cx="193.714" cy="-52.021" r="4.426"/>
		<path fill="none" stroke="#000000" stroke-width="3" d="M197.753-52.021c0,0,3.83,0,5.247,0c1.75,0,2.573,0.284,3.583,0.688    c1.667,0.666,3.667,1.418,3.667,1.418"/>
		<circle fill="none" stroke="#000000" stroke-width="3" cx="214.372" cy="-48.017" r="4.426"/>
	</g>
	<path stroke="#000000" stroke-width="4" d="M183.96-50.017c0,2.374-1.926,4.3-4.3,4.3h-16.238c-2.375,0-4.301-1.926-4.301-4.3   v-15.804c0-2.374,1.926-4.3,4.301-4.3h16.238c2.374,0,4.3,1.926,4.3,4.3V-50.017z"/>
	<g>
		<circle fill="none" stroke="#000000" stroke-width="3" cx="177.324" cy="-97.399" r="4.426"/>
		<line fill="none" stroke="#000000" stroke-width="3" x1="177.324" y1="-93.361" x2="177.324" y2="-82.995"/>
		<circle cx="177.323" cy="-79.745" r="4.426"/>
	</g>
	<g>
		<circle cx="165.58" cy="-36.302" r="4.426"/>
		<path fill="none" stroke="#000000" stroke-width="3" d="M162.334-36.59c0,0-11.752,0-14.879,0c-2.625,0-5,1.25-5,5.375    c0,1.507,0.125,3.371,0.125,3.371"/>
		<circle fill="none" stroke="#000000" stroke-width="3" cx="142.418" cy="-23.5" r="4.426"/>
	</g>
	<g>
		<circle cx="177.328" cy="-36.302" r="4.426"/>
		<path fill="none" stroke="#000000" stroke-width="3" d="M181.575-36.59c0,0,2.745,0,5.871,0c2.625,0,5,1.25,5,5.375    c0,3.634-0.125,7.375-0.125,7.375"/>
		<circle fill="none" stroke="#000000" stroke-width="3" cx="192.483" cy="-19.496" r="4.426"/>
	</g>
</g>
</svg>