<?xml version="1.0" standalone="no"?>
<!DOCTYPE svg PUBLIC "-//W3C//DTD SVG 20010904//EN"
 "http://www.w3.org/TR/2001/REC-SVG-20010904/DTD/svg10.dtd">
<svg version="1.0" xmlns="http://www.w3.org/2000/svg"
 width="555.000000pt" height="704.000000pt" viewBox="0 0 555.000000 704.000000"
 preserveAspectRatio="xMidYMid meet">
<metadata>
Created by potrace 1.11, written by Peter Selinger 2001-2013
</metadata>
<g transform="translate(0.000000,704.000000) scale(0.100000,-0.100000)"
fill="#000000" stroke="none">
<path d="M2840 6734 c-14 -2 -63 -9 -110 -15 -47 -6 -130 -21 -185 -34 -150
-35 -395 -124 -395 -143 0 -11 68 -214 74 -219 2 -3 55 16 118 41 132 53 271
90 418 113 131 21 409 23 540 4 829 -117 1542 -742 1810 -1587 l23 -72 104 35
c56 19 103 38 103 43 0 16 -79 237 -115 320 -203 475 -571 906 -1005 1175
-275 170 -607 289 -923 330 -105 13 -385 19 -457 9z"/>
<path d="M2885 6100 c-174 -13 -373 -60 -509 -121 l-45 -20 36 -102 c20 -56
37 -103 39 -105 1 -2 29 8 62 22 306 129 687 144 1007 40 181 -58 377 -171
537 -308 207 -177 401 -472 499 -756 17 -52 35 -99 40 -104 4 -4 45 4 91 19
130 43 123 29 78 153 -294 819 -1044 1343 -1835 1282z"/>
<path d="M2815 5515 c-85 -13 -263 -64 -295 -84 -12 -9 -10 -24 18 -111 18
-55 35 -100 36 -100 2 0 24 9 50 20 25 12 85 30 133 40 294 65 573 15 798
-145 167 -118 342 -362 425 -593 13 -34 27 -65 32 -68 11 -7 208 54 208 65 0
20 -52 155 -90 233 -185 380 -537 657 -930 734 -112 21 -280 25 -385 9z"/>
<path d="M296 5173 c-2 -10 -10 -76 -17 -147 -22 -236 -1 -590 52 -845 221
-1080 1019 -1950 2076 -2265 725 -216 1498 -148 2178 191 214 107 418 241 593
389 66 55 79 71 68 80 -8 5 -541 289 -1185 629 l-1170 619 61 119 c33 65 65
120 72 122 6 2 30 9 53 15 66 17 136 79 173 154 26 53 32 76 32 133 1 79 -15
123 -63 178 -45 51 -100 75 -174 75 -109 0 -208 -69 -258 -179 -27 -58 -29
-180 -5 -227 16 -30 16 -31 -46 -150 -35 -65 -67 -118 -72 -117 -5 1 -537 281
-1182 622 -645 342 -1175 621 -1177 621 -2 0 -6 -8 -9 -17z m510 -626 c194
-110 184 -96 184 -243 0 -38 9 -140 19 -225 45 -356 116 -597 302 -1036 55
-128 99 -235 99 -237 0 -3 -38 34 -85 82 -403 419 -656 906 -739 1424 -13 78
-36 316 -36 365 0 12 10 9 43 -10 23 -13 119 -67 213 -120z"/>
<path d="M1240 1928 c-217 -697 -362 -1083 -574 -1532 l-46 -98 1257 7 c692 4
1259 8 1261 10 1 1 -32 73 -74 161 -145 302 -269 602 -375 902 -43 120 -58
154 -74 157 -11 3 -74 16 -140 31 -406 88 -773 261 -1087 511 -37 29 -71 53
-76 53 -5 0 -37 -91 -72 -202z m238 -194 c45 -32 82 -64 82 -73 0 -31 -111
-343 -170 -478 -114 -260 -270 -515 -400 -656 -40 -43 -74 -76 -76 -74 -2 1
48 131 110 287 116 294 230 618 312 893 26 86 50 157 53 157 3 0 43 -25 89
-56z"/>
</g>
</svg>
