<svg xmlns="http://www.w3.org/2000/svg" xmlns:xlink="http://www.w3.org/1999/xlink" version="1.1" x="0px" y="0px" width="100px" height="100px" viewBox="0 0 100 100" enable-background="new 0 0 100 100" xml:space="preserve">
<g id="Captions">
</g>
<g id="Your_Icon">
	<path fill="#000000" d="M77.329,47.229v-0.006H23.215C10.394,47.223,0,57.615,0,70.436C0,83.258,10.394,93.65,23.215,93.65   c9.729,0,18.06-5.986,21.512-14.477h10.547c3.452,8.49,11.782,14.477,21.512,14.477C89.606,93.65,100,83.258,100,70.436   C100,57.797,89.899,47.518,77.329,47.229z M33.929,71.527c0,1.369-1.11,2.48-2.48,2.48H25v6.449c0,1.369-1.11,2.479-2.48,2.479   h-2.183c-1.369,0-2.479-1.109-2.479-2.479v-6.449h-6.448c-1.37,0-2.48-1.111-2.48-2.48v-2.182c0-1.371,1.11-2.48,2.48-2.48h6.448   v-6.449c0-1.369,1.11-2.48,2.479-2.48h2.183c1.37,0,2.48,1.111,2.48,2.48v6.449h6.448c1.37,0,2.48,1.109,2.48,2.48V71.527z    M76.785,54.365c2.959,0,5.357,2.398,5.357,5.357c0,2.957-2.398,5.357-5.357,5.357c-2.958,0-5.356-2.4-5.356-5.357   C71.429,56.764,73.827,54.365,76.785,54.365z M66.071,75.793c-2.958,0-5.357-2.398-5.357-5.357c0-2.957,2.399-5.355,5.357-5.355   c2.959,0,5.357,2.398,5.357,5.355C71.429,73.395,69.03,75.793,66.071,75.793z M76.785,86.508c-2.958,0-5.356-2.398-5.356-5.357   s2.398-5.357,5.356-5.357c2.959,0,5.357,2.398,5.357,5.357S79.744,86.508,76.785,86.508z M87.5,75.793   c-2.959,0-5.357-2.398-5.357-5.357c0-2.957,2.398-5.355,5.357-5.355c2.958,0,5.357,2.398,5.357,5.355   C92.857,73.395,90.458,75.793,87.5,75.793z"/>
	<path fill="#000000" d="M52.479,23.809c0-3.555,2.894-6.447,6.449-6.447c3.555,0,6.448,2.893,6.448,6.447   c0,6.291,5.118,11.41,11.408,11.41c6.291,0,11.409-5.119,11.409-11.41V6.35h-4.961v17.459c0,3.557-2.893,6.449-6.448,6.449   s-6.448-2.893-6.448-6.449c0-6.289-5.118-11.408-11.408-11.408c-6.291,0-11.409,5.119-11.409,11.408V43.75h4.96V23.809z"/>
</g>
</svg>