<?xml version="1.0" encoding="utf-8"?>
<!-- Generator: Adobe Illustrator 16.0.0, SVG Export Plug-In . SVG Version: 6.00 Build 0)  -->
<!DOCTYPE svg PUBLIC "-//W3C//DTD SVG 1.1//EN" "http://www.w3.org/Graphics/SVG/1.1/DTD/svg11.dtd">
<svg version="1.1" id="Layer_1" xmlns="http://www.w3.org/2000/svg" xmlns:xlink="http://www.w3.org/1999/xlink" x="0px" y="0px"
	 width="300px" height="149.999px" viewBox="0 0 300 149.999" enable-background="new 0 0 300 149.999" xml:space="preserve">
<polyline points="42.471,99.205 37.48,99.205 37.48,97.525 49.452,97.525 49.452,99.205 44.463,99.205 44.463,112.496 
	42.471,112.496 42.471,99.205 "/>
<path d="M50.817,97.525h1.78v5.725h0.043c0.586-1.299,2.117-1.846,3.417-1.846c2.853,0,3.733,1.637,3.733,3.964v7.128h-1.784v-7.338
	c0-1.322-0.839-2.18-2.2-2.18c-2.161,0-3.21,1.444-3.21,3.397v6.12h-1.78V97.525"/>
<path d="M90.387,102.034c-0.421-2.119-2.119-3.185-4.195-3.185c-3.566,0-5.075,2.934-5.075,6.058c0,3.419,1.508,6.27,5.093,6.27
	c2.623,0,4.132-1.842,4.32-4.318h1.993c-0.378,3.732-2.705,5.995-6.478,5.995c-4.657,0-6.921-3.437-6.921-7.8
	c0-4.341,2.474-7.884,7.086-7.884c3.125,0,5.705,1.68,6.166,4.864H90.387"/>
<path d="M94.704,97.525h1.781v5.725h0.043c0.587-1.299,2.118-1.846,3.418-1.846c2.851,0,3.734,1.637,3.734,3.964v7.128h-1.784
	v-7.338c0-1.322-0.839-2.18-2.203-2.18c-2.159,0-3.209,1.444-3.209,3.397v6.12h-1.781V97.525"/>
<path d="M117.621,101.658h1.68v1.592h0.042c0.796-1.216,2.014-1.846,3.502-1.846c1.319,0,2.536,0.524,2.978,1.846
	c0.733-1.153,2.012-1.846,3.396-1.846c2.161,0,3.607,0.903,3.607,3.148v7.943h-1.784v-7.107c0-1.341-0.354-2.41-2.095-2.41
	c-1.72,0-2.832,1.09-2.832,2.767v6.751h-1.781v-7.107c0-1.403-0.441-2.41-2.033-2.41c-2.121,0-2.897,1.949-2.897,2.767v6.751h-1.783
	V101.658"/>
<path d="M147.525,105.137c-0.274-1.361-1.217-2.158-2.685-2.158c-2.581,0-3.377,2.031-3.377,4.234c0,1.993,0.9,3.964,3.168,3.964
	c1.718,0,2.746-1.007,2.976-2.645h1.825c-0.398,2.645-2.055,4.217-4.78,4.217c-3.313,0-5.078-2.306-5.078-5.536
	c0-3.248,1.682-5.809,5.118-5.809c2.454,0,4.424,1.153,4.675,3.732H147.525"/>
<rect x="162.792" y="97.525" width="1.777" height="14.971"/>
<path d="M183.988,102.034c-0.419-2.119-2.117-3.185-4.193-3.185c-3.563,0-5.072,2.934-5.072,6.058c0,3.419,1.509,6.27,5.093,6.27
	c2.623,0,4.134-1.842,4.324-4.318h1.989c-0.381,3.732-2.707,5.995-6.481,5.995c-4.654,0-6.918-3.437-6.918-7.8
	c0-4.341,2.472-7.884,7.086-7.884c3.125,0,5.703,1.68,6.163,4.864H183.988"/>
<path d="M200.341,101.658h1.68v1.592h0.044c0.795-1.216,2.014-1.846,3.502-1.846c1.319,0,2.537,0.524,2.974,1.846
	c0.732-1.153,2.017-1.846,3.396-1.846c2.162,0,3.605,0.903,3.605,3.148v7.943h-1.777v-7.107c0-1.341-0.357-2.41-2.101-2.41
	c-1.721,0-2.829,1.09-2.829,2.767v6.751h-1.78v-7.107c0-1.403-0.444-2.41-2.034-2.41c-2.118,0-2.897,1.949-2.897,2.767v6.751h-1.784
	V101.658"/>
<path d="M241.922,101.658h1.683v1.721h0.041c0.756-1.345,1.973-1.975,3.52-1.975c2.853,0,3.736,1.637,3.736,3.964v7.128h-1.782
	v-7.338c0-1.322-0.837-2.18-2.203-2.18c-2.162,0-3.207,1.444-3.207,3.397v6.12h-1.789V101.658"/>
<path d="M257.841,113.946c-0.818,2.114-1.55,2.894-3.145,2.894c-0.417,0-0.839-0.041-1.238-0.188v-1.638
	c0.331,0.103,0.691,0.254,1.052,0.254c0.732,0,1.131-0.358,1.463-0.988l0.733-1.844l-4.297-10.778h2.014l3.167,8.869h0.041
	l3.038-8.869h1.888L257.841,113.946"/>
<path d="M70.002,106.041c-0.083-1.699-1.361-3.063-3.125-3.063c-1.865,0-2.977,1.402-3.101,3.063H70.002 M71.723,109.059
	c-0.483,2.39-2.202,3.69-4.635,3.69c-3.459,0-5.096-2.39-5.2-5.702c0-3.252,2.139-5.643,5.097-5.643
	c3.835,0,5.012,3.585,4.908,6.209h-8.116c-0.065,1.886,1.005,3.563,3.375,3.563c1.469,0,2.496-0.712,2.81-2.118H71.723z"/>
<path d="M113.891,106.041c-0.086-1.699-1.363-3.063-3.125-3.063c-1.865,0-2.979,1.402-3.103,3.063H113.891 M115.61,109.059
	c-0.481,2.39-2.201,3.69-4.636,3.69c-3.458,0-5.094-2.39-5.199-5.702c0-3.252,2.14-5.643,5.096-5.643
	c3.838,0,5.012,3.585,4.907,6.209h-8.115c-0.064,1.886,1.006,3.563,3.376,3.563c1.467,0,2.495-0.712,2.809-2.118H115.61z"/>
<path d="M135.614,101.658h1.784v10.84h-1.784V101.658z M135.614,97.525h1.784v2.18h-1.784V97.525z"/>
<path d="M158.135,106.896c-0.694,0.505-2.034,0.526-3.23,0.737c-1.169,0.208-2.183,0.627-2.183,1.948c0,1.176,1.013,1.595,2.1,1.595
	c2.351,0,3.313-1.467,3.313-2.454V106.896 M161.025,112.46c-0.31,0.183-0.708,0.289-1.275,0.289c-0.924,0-1.511-0.501-1.511-1.678
	c-0.983,1.151-2.306,1.678-3.815,1.678c-1.973,0-3.587-0.878-3.587-3.039c0-2.453,1.824-2.979,3.67-3.334
	c1.972-0.378,3.65-0.253,3.65-1.595c0-1.552-1.278-1.803-2.413-1.803c-1.508,0-2.622,0.462-2.708,2.053h-1.78
	c0.109-2.683,2.183-3.627,4.591-3.627c1.955,0,4.069,0.441,4.069,2.977v5.581c0,0.837,0,1.215,0.568,1.215
	c0.147,0,0.315-0.021,0.542-0.105V112.46z"/>
<path d="M192.986,111.177c1.863,0,3.373-1.467,3.373-4.09c0-2.643-1.509-4.108-3.373-4.108c-1.866,0-3.375,1.466-3.375,4.108
	C189.61,109.71,191.12,111.177,192.986,111.177 M192.986,101.404c3.438,0,5.262,2.493,5.262,5.683c0,3.167-1.824,5.662-5.262,5.662
	c-3.44,0-5.262-2.495-5.262-5.662C187.724,103.897,189.545,101.404,192.986,101.404z"/>
<path d="M223.327,102.979c-2.392,0-3.313,2.053-3.313,4.091c0,2.137,0.966,4.107,3.417,4.107c2.433,0,3.251-2.077,3.251-4.193
	C226.682,104.949,225.637,102.979,223.327,102.979 M218.295,101.658h1.78v1.467h0.041c0.589-1.196,1.975-1.721,3.461-1.721
	c3.334,0,4.991,2.644,4.991,5.704c0,3.062-1.636,5.641-4.95,5.641c-1.11,0-2.705-0.418-3.502-1.697h-0.041v5.601h-1.78V101.658z"/>
<path d="M237.377,106.896c-0.694,0.505-2.038,0.526-3.231,0.737c-1.175,0.208-2.182,0.627-2.182,1.948
	c0,1.176,1.006,1.595,2.099,1.595c2.349,0,3.314-1.467,3.314-2.454V106.896 M240.271,112.46c-0.317,0.183-0.716,0.289-1.282,0.289
	c-0.921,0-1.506-0.501-1.506-1.678c-0.986,1.151-2.306,1.678-3.817,1.678c-1.973,0-3.591-0.878-3.591-3.039
	c0-2.453,1.828-2.979,3.676-3.334c1.966-0.378,3.647-0.253,3.647-1.595c0-1.552-1.278-1.803-2.412-1.803
	c-1.509,0-2.622,0.462-2.708,2.053h-1.779c0.104-2.683,2.18-3.627,4.593-3.627c1.946,0,4.063,0.441,4.063,2.977v5.581
	c0,0.837,0,1.215,0.57,1.215c0.147,0,0.316-0.021,0.547-0.105V112.46z"/>
<path d="M130.424,53.36c0,0,3.783,0,6.532,0c2.985,0,4.176-1.389,4.176-3.429c0-0.473-0.146-3.102-3.318-3.102
	c1.448,0-7.39,0-7.39,0V53.36 M130.396,68.699c0,0,5.229,0,8.128,0c2.895,0,4.196-2.068,4.196-3.901
	c0,0.847,0.374-3.339-3.783-3.339c-2.187,0-8.541,0-8.541,0V68.699z M118.13,37.489c0,0,18.707,0,22.462,0
	c8.245,0,12.01,5.498,12.01,10.521c0,3.619-1.392,5.957-5.124,8.128c4.708,1.74,7.267,4.881,7.267,9.724
	c0,5.792-4.205,11.938-14.123,11.938c-5.498,0-22.502,0-22.502,0L118.13,37.489z"/>
<path d="M173.484,49.438l-3.428,13.446h7.329L173.484,49.438 M167.52,37.489h12.988l14.79,40.264h-13.33l-1.953-6.03h-12.441
	l-1.655,5.999H152.69L167.52,37.489z"/>
<path d="M216.015,49.465h12.382c0-6.837-5.144-13.181-17.348-13.181c-13.388,0-17.535,7.389-17.535,12.796
	c0,8.719,10.672,11.037,11.002,11.142c1.597,0.502,8.219,2.277,9.873,2.867c1.434,0.513,2.802,1.659,2.802,3.192
	c0,2.353-2.802,3.484-5.139,3.484c-1.495,0-6.534-0.496-6.534-5.836h-12.796c0,7.092,4.878,15.024,18.563,15.024
	c15.101,0,18.261-9.009,18.261-13.796c0-3.91-2.213-8.247-7.326-10.311c-3.075-1.242-8.17-2.33-10.727-3.078
	c-1.292-0.377-5.592-1.248-5.592-3.87c0-3.36,5.54-2.928,4.731-2.928C213.138,44.972,216.015,46.381,216.015,49.465"/>
<polyline points="231.648,37.481 262.561,37.481 262.561,48.12 244,48.12 244,55.214 260.551,55.214 260.551,65.38 243.941,65.38 
	243.941,77.793 231.59,77.793 231.648,37.481 "/>
<path fill="#9D9FA2" d="M49.907,49.893h15.505v15.507H49.907V49.893z M37.501,77.805h40.314V37.489H37.501V77.805z"/>
<rect x="90.222" y="49.893" fill="#9D9FA2" width="15.505" height="15.507"/>
</svg>
