<?xml version="1.0" ?><!DOCTYPE svg  PUBLIC '-//W3C//DTD SVG 1.1//EN'  'http://www.w3.org/Graphics/SVG/1.1/DTD/svg11.dtd'><svg enable-background="new 0 0 56.693 56.693" height="56.693px" id="Layer_1" version="1.1" viewBox="0 0 56.693 56.693" width="56.693px" x="0px" xml:space="preserve" xmlns="http://www.w3.org/2000/svg" xmlns:xlink="http://www.w3.org/1999/xlink" y="0px"><g><path d="M42.734,21.655c0.531,0,1.055,0.037,1.572,0.098c-0.693-6.287-5.824-9.665-10.677-9.665   c-3.532,0-6.817,1.649-9.282,4.647c-2.467-2.996-5.743-4.643-9.27-4.643c-5.225,0-10.774,3.922-10.774,11.193   c0,7.479,6.632,12.7,11.475,16.508c1.833,1.447,3.178,2.473,4.272,3.307c1.729,1.316,2.598,1.977,3.532,2.906   c0.204,0.205,0.476,0.316,0.765,0.316c0.288,0,0.559-0.111,0.762-0.314c1.238-1.23,2.361-2.082,5.371-4.365l0.055-0.039   c-0.961-1.873-1.514-3.988-1.514-6.232C29.021,27.807,35.173,21.655,42.734,21.655z" fill="#474A56"/><path d="M44.318,24.527c-0.002,0-0.004,0-0.006,0c-0.232-0.034-0.466-0.063-0.703-0.083   c-0.289-0.025-0.58-0.043-0.875-0.043c-6.059,0-10.968,4.912-10.968,10.971c0,0.398,0.024,0.791,0.064,1.178   c0.007,0.059,0.021,0.115,0.026,0.174c0.041,0.336,0.096,0.668,0.166,0.992c0.006,0.027,0.015,0.053,0.02,0.082   c1.105,4.889,5.467,8.541,10.691,8.541c6.059,0,10.971-4.906,10.971-10.967C53.705,29.853,49.624,25.297,44.318,24.527z    M47.653,36.655h-9.832c-0.712,0-1.282-0.574-1.282-1.285c0-0.707,0.57-1.279,1.282-1.279h9.832c0.708,0,1.282,0.572,1.282,1.279   C48.936,36.081,48.361,36.655,47.653,36.655z" fill="#474A56"/></g></svg>