<?xml version="1.0" ?><!DOCTYPE svg  PUBLIC '-//W3C//DTD SVG 1.1//EN'  'http://www.w3.org/Graphics/SVG/1.1/DTD/svg11.dtd'><svg enable-background="new 0 0 56.693 56.693" height="56.693px" id="Layer_1" version="1.1" viewBox="0 0 56.693 56.693" width="56.693px" x="0px" xml:space="preserve" xmlns="http://www.w3.org/2000/svg" xmlns:xlink="http://www.w3.org/1999/xlink" y="0px"><g><path d="M44.347,24.536c0.001-0.002,0.001-0.004,0.001-0.007c-0.234-0.034-0.472-0.062-0.71-0.083   c-0.29-0.023-0.579-0.045-0.875-0.045c-6.059,0-10.968,4.91-10.968,10.967c0,0.398,0.023,0.791,0.064,1.178   c0.008,0.061,0.02,0.117,0.027,0.176c0.043,0.336,0.094,0.668,0.166,0.99c0.006,0.031,0.015,0.057,0.021,0.086   c0.078,0.35,0.179,0.691,0.29,1.027c0.023,0.07,0.052,0.137,0.076,0.207c0.093,0.262,0.194,0.52,0.306,0.771   c0.016,0.037,0.027,0.074,0.043,0.111l0.006-0.006c1.727,3.789,5.532,6.428,9.968,6.428c6.059,0,10.971-4.91,10.971-10.969   C53.733,29.851,49.651,25.305,44.347,24.536z M47.683,36.655h-3.638v3.629c0,0.711-0.571,1.285-1.282,1.285   c-0.708,0-1.282-0.574-1.282-1.285v-3.629H37.85c-0.273,0-0.525-0.088-0.733-0.234c-0.331-0.23-0.549-0.615-0.549-1.051   c0-0.709,0.571-1.283,1.282-1.283h1.637h1.994v-2.451v-1.182c0-0.709,0.574-1.283,1.282-1.283c0.062,0,0.118,0.011,0.177,0.019   c0.626,0.086,1.105,0.616,1.105,1.264v3.633h3.638c0.707,0,1.282,0.574,1.282,1.283S48.39,36.655,47.683,36.655z" fill="#474A56"/><path d="M42.763,21.655c0.532,0,1.056,0.039,1.573,0.098c-0.691-6.285-5.823-9.665-10.676-9.665   c-3.533,0-6.818,1.649-9.283,4.647c-2.466-2.996-5.742-4.643-9.27-4.643c-5.223,0-10.774,3.922-10.774,11.193   c0,7.479,6.632,12.7,11.474,16.508c1.835,1.447,3.18,2.473,4.273,3.307c1.729,1.316,2.599,1.977,3.533,2.906   c0.203,0.205,0.475,0.316,0.764,0.316c0.288,0,0.559-0.111,0.763-0.314c1.237-1.23,2.361-2.082,5.371-4.365l0.053-0.039   c-0.961-1.873-1.515-3.99-1.515-6.236C29.049,27.807,35.201,21.655,42.763,21.655z" fill="#474A56"/></g></svg>