<?xml version="1.0" ?><!DOCTYPE svg  PUBLIC '-//W3C//DTD SVG 1.1//EN'  'http://www.w3.org/Graphics/SVG/1.1/DTD/svg11.dtd'><svg enable-background="new 0 0 52 39.247" height="39.247px" id="Layer_1" version="1.1" viewBox="0 0 52 39.247" width="52px" x="0px" xml:space="preserve" xmlns="http://www.w3.org/2000/svg" xmlns:xlink="http://www.w3.org/1999/xlink" y="0px"><g><path d="M52,3.247h-3V3.225l-1-0.978c-5-3-15-3-20,0.021c-0.607,0.367-1.316,0.578-2,0.908v0.032   c-0.578-0.343-1.321-0.497-1.997-0.909C19-0.753,9-0.753,4,2.247L3,3.225v0.022H0v35h24c0.624,1.025,2,1,2,1s1.376,0.025,2-1h24   V3.247z M4,32.622V5.247c5-3,15-2.566,20,0V32.69C18,29.247,9,29.247,4,32.622z M48,32.622c-5-3.375-15-3.375-20,0V5.247   c5-3,15-3,20,0V32.622z" fill="#333333"/></g></svg>