<?xml version="1.0" ?><!DOCTYPE svg  PUBLIC '-//W3C//DTD SVG 1.1//EN'  'http://www.w3.org/Graphics/SVG/1.1/DTD/svg11.dtd'><svg enable-background="new 0 0 56.693 56.693" height="56.693px" id="Layer_1" version="1.1" viewBox="0 0 56.693 56.693" width="56.693px" x="0px" xml:space="preserve" xmlns="http://www.w3.org/2000/svg" xmlns:xlink="http://www.w3.org/1999/xlink" y="0px"><g><path d="M26.738,33.063c-0.174-0.105-0.375-0.178-0.604-0.213c-0.229-0.037-0.467-0.055-0.713-0.055h-1.674v2.936h1.674   c0.246,0,0.484-0.018,0.713-0.057c0.229-0.035,0.43-0.105,0.604-0.211s0.312-0.254,0.42-0.445c0.104-0.193,0.156-0.443,0.156-0.756   c0-0.311-0.053-0.562-0.156-0.754C27.051,33.317,26.912,33.167,26.738,33.063z"/><path d="M36.645,33.812c-0.219-0.283-0.51-0.502-0.871-0.652s-0.809-0.227-1.338-0.227h-1.536v6.174h1.919   c0.312,0,0.615-0.049,0.906-0.15c0.294-0.1,0.555-0.268,0.783-0.502c0.229-0.232,0.412-0.535,0.549-0.912   c0.138-0.373,0.206-0.83,0.206-1.371c0-0.496-0.049-0.941-0.144-1.338C37.021,34.435,36.864,34.095,36.645,33.812z"/><path d="M50.74,26.513H18.734c-1.206,0-2.182,0.976-2.182,2.182v14.423c0,1.203,0.977,2.182,2.182,2.182H50.74   c1.204,0,2.182-0.979,2.182-2.182V28.695C52.922,27.489,51.944,26.513,50.74,26.513z M29.216,35.431   c-0.124,0.373-0.321,0.707-0.59,1c-0.271,0.293-0.62,0.527-1.051,0.707c-0.43,0.178-0.951,0.268-1.563,0.268h-2.264v3.512h-2.154   V31.12h4.418c0.612,0,1.134,0.09,1.563,0.268c0.431,0.18,0.78,0.414,1.051,0.707c0.269,0.293,0.466,0.629,0.59,1.01   c0.123,0.379,0.185,0.766,0.185,1.158C29.4,34.667,29.339,35.054,29.216,35.431z M39.143,37.94   c-0.184,0.604-0.459,1.125-0.83,1.564s-0.832,0.785-1.387,1.033c-0.554,0.254-1.205,0.379-1.955,0.379h-4.226V31.12h4.226   c0.632,0,1.219,0.102,1.764,0.303c0.543,0.201,1.014,0.502,1.412,0.906c0.399,0.402,0.71,0.904,0.934,1.508   c0.225,0.605,0.336,1.314,0.336,2.127C39.416,36.677,39.325,37.337,39.143,37.94z M47.801,32.933h-4.734v2.264h4.104v1.674h-4.104   v4.047h-2.154V31.12h6.889V32.933z"/><path d="M39.702,50.688H7.178V7.835h25.959v5.439c0,0.572,0.463,1.037,1.038,1.037h5.527v8.834h3.462v-9.888   c0-0.463-0.188-0.908-0.516-1.232L35.39,4.871c-0.323-0.318-0.759-0.497-1.215-0.497H5.447c-0.957,0-1.732,0.774-1.732,1.731   v46.314c0,0.957,0.775,1.732,1.732,1.732h35.985c0.959,0,1.732-0.775,1.732-1.732v-3.568h-3.462V50.688z"/></g></svg>